{
  "asset" : {
    "generator" : "UE Viewer (umodel) build 1544 based",
    "version" : "2.0"
  },
  "scene" : 0,
  "scenes" : [
    {
      "nodes" : [ 0 ]
    }
  ],
  "nodes" : [
    {
      "name" : "SM_ENV_LKNVLD_RockMiddle_C_Lod2",
      "mesh" : 0
    }
  ],
  "materials" : [
    {
      "name" : "MI_ENV_LKNVLD_MiddleRock_A_LOD",
      "pbrMetallicRoughness" : {
        "baseColorFactor" : [ 0.3, 0.3, 0.3, 1.0 ],
        "metallicFactor" : 0.1,
        "roughnessFactor" : 0.5
      }
    }
  ],
  "meshes" : [
    {
      "primitives" : [
        {
          "attributes" : {
            "POSITION" : 1,
            "NORMAL" : 2,
            "TANGENT" : 3,
            "COLOR_0" : 4,
            "TEXCOORD_0" : 5,
            "TEXCOORD_1" : 6,
            "TEXCOORD_2" : 7,
            "TEXCOORD_3" : 8
          },
          "indices" : 0,
          "material" : 0
        }
      ],
      "name" : "SM_ENV_LKNVLD_RockMiddle_C_Lod2"
    }
  ],
  "buffers" : [
    {
      "uri" : "SM_ENV_LKNVLD_RockMiddle_C_Lod2.bin",
      "byteLength" : 25256
    }
  ],
  "bufferViews" : [
    {
      "buffer" : 0,
      "byteOffset" : 0,
      "byteLength" : 2000
    },
    {
      "buffer" : 0,
      "byteOffset" : 2000,
      "byteLength" : 3672
    },
    {
      "buffer" : 0,
      "byteOffset" : 5672,
      "byteLength" : 3672
    },
    {
      "buffer" : 0,
      "byteOffset" : 9344,
      "byteLength" : 4896
    },
    {
      "buffer" : 0,
      "byteOffset" : 14240,
      "byteLength" : 1224
    },
    {
      "buffer" : 0,
      "byteOffset" : 15464,
      "byteLength" : 2448
    },
    {
      "buffer" : 0,
      "byteOffset" : 17912,
      "byteLength" : 2448
    },
    {
      "buffer" : 0,
      "byteOffset" : 20360,
      "byteLength" : 2448
    },
    {
      "buffer" : 0,
      "byteOffset" : 22808,
      "byteLength" : 2448
    }
  ],
  "accessors" : [
    {
      "bufferView" : 0,
      "componentType" : 5123,
      "count" : 999,
      "type" : "SCALAR"
    },
    {
      "bufferView" : 1,
      "min" : [ -41.9812, -0.291138, -53.1428 ],
      "max" : [ -30.4981, 1.66996, -44.6562 ],
      "componentType" : 5126,
      "count" : 306,
      "type" : "VEC3"
    },
    {
      "bufferView" : 2,
      "componentType" : 5126,
      "count" : 306,
      "type" : "VEC3"
    },
    {
      "bufferView" : 3,
      "componentType" : 5126,
      "count" : 306,
      "type" : "VEC4"
    },
    {
      "bufferView" : 4,
      "normalized" : true,
      "componentType" : 5121,
      "count" : 306,
      "type" : "VEC4"
    },
    {
      "bufferView" : 5,
      "componentType" : 5126,
      "count" : 306,
      "type" : "VEC2"
    },
    {
      "bufferView" : 6,
      "componentType" : 5126,
      "count" : 306,
      "type" : "VEC2"
    },
    {
      "bufferView" : 7,
      "componentType" : 5126,
      "count" : 306,
      "type" : "VEC2"
    },
    {
      "bufferView" : 8,
      "componentType" : 5126,
      "count" : 306,
      "type" : "VEC2"
    }
  ]
}
