{
  "asset" : {
    "generator" : "UE Viewer (umodel) build 1544 based",
    "version" : "2.0"
  },
  "scene" : 0,
  "scenes" : [
    {
      "nodes" : [ 0 ]
    }
  ],
  "nodes" : [
    {
      "name" : "SM_ENV_LKNVLD_Tree_D",
      "mesh" : 0
    }
  ],
  "materials" : [
    {
      "name" : "MI_ENV_LKNVLD_LeafMasked_A",
      "pbrMetallicRoughness" : {
        "baseColorFactor" : [ 0.3, 0.3, 0.3, 1.0 ],
        "metallicFactor" : 0.1,
        "roughnessFactor" : 0.5
      }
    },
    {
      "name" : "MI_ENV_LKNVLD_Leaf_A",
      "pbrMetallicRoughness" : {
        "baseColorFactor" : [ 0.9, 0.3, 0.3, 1.0 ],
        "metallicFactor" : 0.1,
        "roughnessFactor" : 0.5
      }
    },
    {
      "name" : "MI_ENV_LKNVLD_Tree_A",
      "pbrMetallicRoughness" : {
        "baseColorFactor" : [ 0.3, 0.9, 0.3, 1.0 ],
        "metallicFactor" : 0.1,
        "roughnessFactor" : 0.5
      }
    }
  ],
  "meshes" : [
    {
      "primitives" : [
        {
          "attributes" : {
            "POSITION" : 1,
            "NORMAL" : 2,
            "TANGENT" : 3,
            "COLOR_0" : 4,
            "TEXCOORD_0" : 5,
            "TEXCOORD_1" : 6,
            "TEXCOORD_2" : 7,
            "TEXCOORD_3" : 8
          },
          "indices" : 0,
          "material" : 0
        },
        {
          "attributes" : {
            "POSITION" : 10,
            "NORMAL" : 11,
            "TANGENT" : 12,
            "COLOR_0" : 13,
            "TEXCOORD_0" : 14,
            "TEXCOORD_1" : 15,
            "TEXCOORD_2" : 16,
            "TEXCOORD_3" : 17
          },
          "indices" : 9,
          "material" : 1
        },
        {
          "attributes" : {
            "POSITION" : 19,
            "NORMAL" : 20,
            "TANGENT" : 21,
            "COLOR_0" : 22,
            "TEXCOORD_0" : 23,
            "TEXCOORD_1" : 24,
            "TEXCOORD_2" : 25,
            "TEXCOORD_3" : 26
          },
          "indices" : 18,
          "material" : 2
        }
      ],
      "name" : "SM_ENV_LKNVLD_Tree_D"
    }
  ],
  "buffers" : [
    {
      "uri" : "SM_ENV_LKNVLD_Tree_D.bin",
      "byteLength" : 1510952
    }
  ],
  "bufferViews" : [
    {
      "buffer" : 0,
      "byteOffset" : 0,
      "byteLength" : 51396
    },
    {
      "buffer" : 0,
      "byteOffset" : 51396,
      "byteLength" : 137088
    },
    {
      "buffer" : 0,
      "byteOffset" : 188484,
      "byteLength" : 137088
    },
    {
      "buffer" : 0,
      "byteOffset" : 325572,
      "byteLength" : 182784
    },
    {
      "buffer" : 0,
      "byteOffset" : 508356,
      "byteLength" : 45696
    },
    {
      "buffer" : 0,
      "byteOffset" : 554052,
      "byteLength" : 91392
    },
    {
      "buffer" : 0,
      "byteOffset" : 645444,
      "byteLength" : 91392
    },
    {
      "buffer" : 0,
      "byteOffset" : 736836,
      "byteLength" : 91392
    },
    {
      "buffer" : 0,
      "byteOffset" : 828228,
      "byteLength" : 91392
    },
    {
      "buffer" : 0,
      "byteOffset" : 919620,
      "byteLength" : 21960
    },
    {
      "buffer" : 0,
      "byteOffset" : 941580,
      "byteLength" : 43320
    },
    {
      "buffer" : 0,
      "byteOffset" : 984900,
      "byteLength" : 43320
    },
    {
      "buffer" : 0,
      "byteOffset" : 1028220,
      "byteLength" : 57760
    },
    {
      "buffer" : 0,
      "byteOffset" : 1085980,
      "byteLength" : 14440
    },
    {
      "buffer" : 0,
      "byteOffset" : 1100420,
      "byteLength" : 28880
    },
    {
      "buffer" : 0,
      "byteOffset" : 1129300,
      "byteLength" : 28880
    },
    {
      "buffer" : 0,
      "byteOffset" : 1158180,
      "byteLength" : 28880
    },
    {
      "buffer" : 0,
      "byteOffset" : 1187060,
      "byteLength" : 28880
    },
    {
      "buffer" : 0,
      "byteOffset" : 1215940,
      "byteLength" : 14268
    },
    {
      "buffer" : 0,
      "byteOffset" : 1230208,
      "byteLength" : 44328
    },
    {
      "buffer" : 0,
      "byteOffset" : 1274536,
      "byteLength" : 44328
    },
    {
      "buffer" : 0,
      "byteOffset" : 1318864,
      "byteLength" : 59104
    },
    {
      "buffer" : 0,
      "byteOffset" : 1377968,
      "byteLength" : 14776
    },
    {
      "buffer" : 0,
      "byteOffset" : 1392744,
      "byteLength" : 29552
    },
    {
      "buffer" : 0,
      "byteOffset" : 1422296,
      "byteLength" : 29552
    },
    {
      "buffer" : 0,
      "byteOffset" : 1451848,
      "byteLength" : 29552
    },
    {
      "buffer" : 0,
      "byteOffset" : 1481400,
      "byteLength" : 29552
    }
  ],
  "accessors" : [
    {
      "bufferView" : 0,
      "componentType" : 5123,
      "count" : 25698,
      "type" : "SCALAR"
    },
    {
      "bufferView" : 1,
      "min" : [ -5.68167, 5.34399, -8.20215 ],
      "max" : [ 6.31553, 14.8133, 6.05422 ],
      "componentType" : 5126,
      "count" : 11424,
      "type" : "VEC3"
    },
    {
      "bufferView" : 2,
      "componentType" : 5126,
      "count" : 11424,
      "type" : "VEC3"
    },
    {
      "bufferView" : 3,
      "componentType" : 5126,
      "count" : 11424,
      "type" : "VEC4"
    },
    {
      "bufferView" : 4,
      "normalized" : true,
      "componentType" : 5121,
      "count" : 11424,
      "type" : "VEC4"
    },
    {
      "bufferView" : 5,
      "componentType" : 5126,
      "count" : 11424,
      "type" : "VEC2"
    },
    {
      "bufferView" : 6,
      "componentType" : 5126,
      "count" : 11424,
      "type" : "VEC2"
    },
    {
      "bufferView" : 7,
      "componentType" : 5126,
      "count" : 11424,
      "type" : "VEC2"
    },
    {
      "bufferView" : 8,
      "componentType" : 5126,
      "count" : 11424,
      "type" : "VEC2"
    },
    {
      "bufferView" : 9,
      "componentType" : 5123,
      "count" : 10980,
      "type" : "SCALAR"
    },
    {
      "bufferView" : 10,
      "min" : [ -5.50791, 5.51723, -8.03216 ],
      "max" : [ 6.14664, 14.6651, 5.85336 ],
      "componentType" : 5126,
      "count" : 3610,
      "type" : "VEC3"
    },
    {
      "bufferView" : 11,
      "componentType" : 5126,
      "count" : 3610,
      "type" : "VEC3"
    },
    {
      "bufferView" : 12,
      "componentType" : 5126,
      "count" : 3610,
      "type" : "VEC4"
    },
    {
      "bufferView" : 13,
      "normalized" : true,
      "componentType" : 5121,
      "count" : 3610,
      "type" : "VEC4"
    },
    {
      "bufferView" : 14,
      "componentType" : 5126,
      "count" : 3610,
      "type" : "VEC2"
    },
    {
      "bufferView" : 15,
      "componentType" : 5126,
      "count" : 3610,
      "type" : "VEC2"
    },
    {
      "bufferView" : 16,
      "componentType" : 5126,
      "count" : 3610,
      "type" : "VEC2"
    },
    {
      "bufferView" : 17,
      "componentType" : 5126,
      "count" : 3610,
      "type" : "VEC2"
    },
    {
      "bufferView" : 18,
      "componentType" : 5123,
      "count" : 7134,
      "type" : "SCALAR"
    },
    {
      "bufferView" : 19,
      "min" : [ -5.10965, -0.026832, -7.19946 ],
      "max" : [ 5.7452, 12.0852, 5.05248 ],
      "componentType" : 5126,
      "count" : 3694,
      "type" : "VEC3"
    },
    {
      "bufferView" : 20,
      "componentType" : 5126,
      "count" : 3694,
      "type" : "VEC3"
    },
    {
      "bufferView" : 21,
      "componentType" : 5126,
      "count" : 3694,
      "type" : "VEC4"
    },
    {
      "bufferView" : 22,
      "normalized" : true,
      "componentType" : 5121,
      "count" : 3694,
      "type" : "VEC4"
    },
    {
      "bufferView" : 23,
      "componentType" : 5126,
      "count" : 3694,
      "type" : "VEC2"
    },
    {
      "bufferView" : 24,
      "componentType" : 5126,
      "count" : 3694,
      "type" : "VEC2"
    },
    {
      "bufferView" : 25,
      "componentType" : 5126,
      "count" : 3694,
      "type" : "VEC2"
    },
    {
      "bufferView" : 26,
      "componentType" : 5126,
      "count" : 3694,
      "type" : "VEC2"
    }
  ]
}
