{
  "asset" : {
    "generator" : "UE Viewer (umodel) build 1544 based",
    "version" : "2.0"
  },
  "scene" : 0,
  "scenes" : [
    {
      "nodes" : [ 0 ]
    }
  ],
  "nodes" : [
    {
      "name" : "SM_ENV_LKNVLD_Tree_A_Lod3",
      "mesh" : 0
    }
  ],
  "materials" : [
    {
      "name" : "MI_ENV_LKNVLD_LeafMasked_A",
      "pbrMetallicRoughness" : {
        "baseColorFactor" : [ 0.3, 0.3, 0.3, 1.0 ],
        "metallicFactor" : 0.1,
        "roughnessFactor" : 0.5
      }
    },
    {
      "name" : "MI_ENV_LKNVLD_Leaf_A",
      "pbrMetallicRoughness" : {
        "baseColorFactor" : [ 0.9, 0.3, 0.3, 1.0 ],
        "metallicFactor" : 0.1,
        "roughnessFactor" : 0.5
      }
    },
    {
      "name" : "MI_ENV_LKNVLD_Tree_A",
      "pbrMetallicRoughness" : {
        "baseColorFactor" : [ 0.3, 0.9, 0.3, 1.0 ],
        "metallicFactor" : 0.1,
        "roughnessFactor" : 0.5
      }
    }
  ],
  "meshes" : [
    {
      "primitives" : [
        {
          "attributes" : {
            "POSITION" : 1,
            "NORMAL" : 2,
            "TANGENT" : 3,
            "COLOR_0" : 4,
            "TEXCOORD_0" : 5,
            "TEXCOORD_1" : 6,
            "TEXCOORD_2" : 7,
            "TEXCOORD_3" : 8
          },
          "indices" : 0,
          "material" : 0
        },
        {
          "attributes" : {
            "POSITION" : 10,
            "NORMAL" : 11,
            "TANGENT" : 12,
            "COLOR_0" : 13,
            "TEXCOORD_0" : 14,
            "TEXCOORD_1" : 15,
            "TEXCOORD_2" : 16,
            "TEXCOORD_3" : 17
          },
          "indices" : 9,
          "material" : 1
        },
        {
          "attributes" : {
            "POSITION" : 19,
            "NORMAL" : 20,
            "TANGENT" : 21,
            "COLOR_0" : 22,
            "TEXCOORD_0" : 23,
            "TEXCOORD_1" : 24,
            "TEXCOORD_2" : 25,
            "TEXCOORD_3" : 26
          },
          "indices" : 18,
          "material" : 2
        }
      ],
      "name" : "SM_ENV_LKNVLD_Tree_A_Lod3"
    }
  ],
  "buffers" : [
    {
      "uri" : "SM_ENV_LKNVLD_Tree_A_Lod3.bin",
      "byteLength" : 458212
    }
  ],
  "bufferViews" : [
    {
      "buffer" : 0,
      "byteOffset" : 0,
      "byteLength" : 11048
    },
    {
      "buffer" : 0,
      "byteOffset" : 11048,
      "byteLength" : 55896
    },
    {
      "buffer" : 0,
      "byteOffset" : 66944,
      "byteLength" : 55896
    },
    {
      "buffer" : 0,
      "byteOffset" : 122840,
      "byteLength" : 74528
    },
    {
      "buffer" : 0,
      "byteOffset" : 197368,
      "byteLength" : 18632
    },
    {
      "buffer" : 0,
      "byteOffset" : 216000,
      "byteLength" : 37264
    },
    {
      "buffer" : 0,
      "byteOffset" : 253264,
      "byteLength" : 37264
    },
    {
      "buffer" : 0,
      "byteOffset" : 290528,
      "byteLength" : 37264
    },
    {
      "buffer" : 0,
      "byteOffset" : 327792,
      "byteLength" : 37264
    },
    {
      "buffer" : 0,
      "byteOffset" : 365056,
      "byteLength" : 3384
    },
    {
      "buffer" : 0,
      "byteOffset" : 368440,
      "byteLength" : 9192
    },
    {
      "buffer" : 0,
      "byteOffset" : 377632,
      "byteLength" : 9192
    },
    {
      "buffer" : 0,
      "byteOffset" : 386824,
      "byteLength" : 12256
    },
    {
      "buffer" : 0,
      "byteOffset" : 399080,
      "byteLength" : 3064
    },
    {
      "buffer" : 0,
      "byteOffset" : 402144,
      "byteLength" : 6128
    },
    {
      "buffer" : 0,
      "byteOffset" : 408272,
      "byteLength" : 6128
    },
    {
      "buffer" : 0,
      "byteOffset" : 414400,
      "byteLength" : 6128
    },
    {
      "buffer" : 0,
      "byteOffset" : 420528,
      "byteLength" : 6128
    },
    {
      "buffer" : 0,
      "byteOffset" : 426656,
      "byteLength" : 1004
    },
    {
      "buffer" : 0,
      "byteOffset" : 427660,
      "byteLength" : 4824
    },
    {
      "buffer" : 0,
      "byteOffset" : 432484,
      "byteLength" : 4824
    },
    {
      "buffer" : 0,
      "byteOffset" : 437308,
      "byteLength" : 6432
    },
    {
      "buffer" : 0,
      "byteOffset" : 443740,
      "byteLength" : 1608
    },
    {
      "buffer" : 0,
      "byteOffset" : 445348,
      "byteLength" : 3216
    },
    {
      "buffer" : 0,
      "byteOffset" : 448564,
      "byteLength" : 3216
    },
    {
      "buffer" : 0,
      "byteOffset" : 451780,
      "byteLength" : 3216
    },
    {
      "buffer" : 0,
      "byteOffset" : 454996,
      "byteLength" : 3216
    }
  ],
  "accessors" : [
    {
      "bufferView" : 0,
      "componentType" : 5123,
      "count" : 5523,
      "type" : "SCALAR"
    },
    {
      "bufferView" : 1,
      "min" : [ -5.00695, 5.30805, -5.25653 ],
      "max" : [ 5.04418, 13.6408, 5.01564 ],
      "componentType" : 5126,
      "count" : 4658,
      "type" : "VEC3"
    },
    {
      "bufferView" : 2,
      "componentType" : 5126,
      "count" : 4658,
      "type" : "VEC3"
    },
    {
      "bufferView" : 3,
      "componentType" : 5126,
      "count" : 4658,
      "type" : "VEC4"
    },
    {
      "bufferView" : 4,
      "normalized" : true,
      "componentType" : 5121,
      "count" : 4658,
      "type" : "VEC4"
    },
    {
      "bufferView" : 5,
      "componentType" : 5126,
      "count" : 4658,
      "type" : "VEC2"
    },
    {
      "bufferView" : 6,
      "componentType" : 5126,
      "count" : 4658,
      "type" : "VEC2"
    },
    {
      "bufferView" : 7,
      "componentType" : 5126,
      "count" : 4658,
      "type" : "VEC2"
    },
    {
      "bufferView" : 8,
      "componentType" : 5126,
      "count" : 4658,
      "type" : "VEC2"
    },
    {
      "bufferView" : 9,
      "componentType" : 5123,
      "count" : 1692,
      "type" : "SCALAR"
    },
    {
      "bufferView" : 10,
      "min" : [ -4.8693, 5.56499, -5.04057 ],
      "max" : [ 4.71867, 13.4815, 4.84117 ],
      "componentType" : 5126,
      "count" : 766,
      "type" : "VEC3"
    },
    {
      "bufferView" : 11,
      "componentType" : 5126,
      "count" : 766,
      "type" : "VEC3"
    },
    {
      "bufferView" : 12,
      "componentType" : 5126,
      "count" : 766,
      "type" : "VEC4"
    },
    {
      "bufferView" : 13,
      "normalized" : true,
      "componentType" : 5121,
      "count" : 766,
      "type" : "VEC4"
    },
    {
      "bufferView" : 14,
      "componentType" : 5126,
      "count" : 766,
      "type" : "VEC2"
    },
    {
      "bufferView" : 15,
      "componentType" : 5126,
      "count" : 766,
      "type" : "VEC2"
    },
    {
      "bufferView" : 16,
      "componentType" : 5126,
      "count" : 766,
      "type" : "VEC2"
    },
    {
      "bufferView" : 17,
      "componentType" : 5126,
      "count" : 766,
      "type" : "VEC2"
    },
    {
      "bufferView" : 18,
      "componentType" : 5123,
      "count" : 501,
      "type" : "SCALAR"
    },
    {
      "bufferView" : 19,
      "min" : [ -2.82898, -0.287134, -2.35403 ],
      "max" : [ 2.22236, 9.96707, 3.27253 ],
      "componentType" : 5126,
      "count" : 402,
      "type" : "VEC3"
    },
    {
      "bufferView" : 20,
      "componentType" : 5126,
      "count" : 402,
      "type" : "VEC3"
    },
    {
      "bufferView" : 21,
      "componentType" : 5126,
      "count" : 402,
      "type" : "VEC4"
    },
    {
      "bufferView" : 22,
      "normalized" : true,
      "componentType" : 5121,
      "count" : 402,
      "type" : "VEC4"
    },
    {
      "bufferView" : 23,
      "componentType" : 5126,
      "count" : 402,
      "type" : "VEC2"
    },
    {
      "bufferView" : 24,
      "componentType" : 5126,
      "count" : 402,
      "type" : "VEC2"
    },
    {
      "bufferView" : 25,
      "componentType" : 5126,
      "count" : 402,
      "type" : "VEC2"
    },
    {
      "bufferView" : 26,
      "componentType" : 5126,
      "count" : 402,
      "type" : "VEC2"
    }
  ]
}
