{
  "asset" : {
    "generator" : "UE Viewer (umodel) build 1544 based",
    "version" : "2.0"
  },
  "scene" : 0,
  "scenes" : [
    {
      "nodes" : [ 0 ]
    }
  ],
  "nodes" : [
    {
      "name" : "SM_ENV_LKNVLD_TreeSet_C",
      "mesh" : 0
    }
  ],
  "materials" : [
    {
      "name" : "MI_ENV_LKNVLD_Tree_A_Masked_CameraTrans",
      "pbrMetallicRoughness" : {
        "baseColorFactor" : [ 0.3, 0.3, 0.3, 1.0 ],
        "metallicFactor" : 0.1,
        "roughnessFactor" : 0.5
      }
    },
    {
      "name" : "MI_ENV_LKNVLD_LeafMasked_A",
      "pbrMetallicRoughness" : {
        "baseColorFactor" : [ 0.9, 0.3, 0.3, 1.0 ],
        "metallicFactor" : 0.1,
        "roughnessFactor" : 0.5
      }
    },
    {
      "name" : "MI_ENV_LKNVLD_Leaf_A",
      "pbrMetallicRoughness" : {
        "baseColorFactor" : [ 0.3, 0.9, 0.3, 1.0 ],
        "metallicFactor" : 0.1,
        "roughnessFactor" : 0.5
      }
    }
  ],
  "meshes" : [
    {
      "primitives" : [
        {
          "attributes" : {
            "POSITION" : 1,
            "NORMAL" : 2,
            "TANGENT" : 3,
            "COLOR_0" : 4,
            "TEXCOORD_0" : 5,
            "TEXCOORD_1" : 6,
            "TEXCOORD_2" : 7,
            "TEXCOORD_3" : 8
          },
          "indices" : 0,
          "material" : 0
        },
        {
          "attributes" : {
            "POSITION" : 10,
            "NORMAL" : 11,
            "TANGENT" : 12,
            "COLOR_0" : 13,
            "TEXCOORD_0" : 14,
            "TEXCOORD_1" : 15,
            "TEXCOORD_2" : 16,
            "TEXCOORD_3" : 17
          },
          "indices" : 9,
          "material" : 1
        },
        {
          "attributes" : {
            "POSITION" : 19,
            "NORMAL" : 20,
            "TANGENT" : 21,
            "COLOR_0" : 22,
            "TEXCOORD_0" : 23,
            "TEXCOORD_1" : 24,
            "TEXCOORD_2" : 25,
            "TEXCOORD_3" : 26
          },
          "indices" : 18,
          "material" : 2
        }
      ],
      "name" : "SM_ENV_LKNVLD_TreeSet_C"
    }
  ],
  "buffers" : [
    {
      "uri" : "SM_ENV_LKNVLD_TreeSet_C.bin",
      "byteLength" : 1708024
    }
  ],
  "bufferViews" : [
    {
      "buffer" : 0,
      "byteOffset" : 0,
      "byteLength" : 21168
    },
    {
      "buffer" : 0,
      "byteOffset" : 21168,
      "byteLength" : 29196
    },
    {
      "buffer" : 0,
      "byteOffset" : 50364,
      "byteLength" : 29196
    },
    {
      "buffer" : 0,
      "byteOffset" : 79560,
      "byteLength" : 38928
    },
    {
      "buffer" : 0,
      "byteOffset" : 118488,
      "byteLength" : 9732
    },
    {
      "buffer" : 0,
      "byteOffset" : 128220,
      "byteLength" : 19464
    },
    {
      "buffer" : 0,
      "byteOffset" : 147684,
      "byteLength" : 19464
    },
    {
      "buffer" : 0,
      "byteOffset" : 167148,
      "byteLength" : 19464
    },
    {
      "buffer" : 0,
      "byteOffset" : 186612,
      "byteLength" : 19464
    },
    {
      "buffer" : 0,
      "byteOffset" : 206076,
      "byteLength" : 63992
    },
    {
      "buffer" : 0,
      "byteOffset" : 270068,
      "byteLength" : 170640
    },
    {
      "buffer" : 0,
      "byteOffset" : 440708,
      "byteLength" : 170640
    },
    {
      "buffer" : 0,
      "byteOffset" : 611348,
      "byteLength" : 227520
    },
    {
      "buffer" : 0,
      "byteOffset" : 838868,
      "byteLength" : 56880
    },
    {
      "buffer" : 0,
      "byteOffset" : 895748,
      "byteLength" : 113760
    },
    {
      "buffer" : 0,
      "byteOffset" : 1009508,
      "byteLength" : 113760
    },
    {
      "buffer" : 0,
      "byteOffset" : 1123268,
      "byteLength" : 113760
    },
    {
      "buffer" : 0,
      "byteOffset" : 1237028,
      "byteLength" : 113760
    },
    {
      "buffer" : 0,
      "byteOffset" : 1350788,
      "byteLength" : 31196
    },
    {
      "buffer" : 0,
      "byteOffset" : 1381984,
      "byteLength" : 51480
    },
    {
      "buffer" : 0,
      "byteOffset" : 1433464,
      "byteLength" : 51480
    },
    {
      "buffer" : 0,
      "byteOffset" : 1484944,
      "byteLength" : 68640
    },
    {
      "buffer" : 0,
      "byteOffset" : 1553584,
      "byteLength" : 17160
    },
    {
      "buffer" : 0,
      "byteOffset" : 1570744,
      "byteLength" : 34320
    },
    {
      "buffer" : 0,
      "byteOffset" : 1605064,
      "byteLength" : 34320
    },
    {
      "buffer" : 0,
      "byteOffset" : 1639384,
      "byteLength" : 34320
    },
    {
      "buffer" : 0,
      "byteOffset" : 1673704,
      "byteLength" : 34320
    }
  ],
  "accessors" : [
    {
      "bufferView" : 0,
      "componentType" : 5123,
      "count" : 10584,
      "type" : "SCALAR"
    },
    {
      "bufferView" : 1,
      "min" : [ 46.297, -0.290597, -46.9447 ],
      "max" : [ 61.0413, 7.58009, -33.8062 ],
      "componentType" : 5126,
      "count" : 2433,
      "type" : "VEC3"
    },
    {
      "bufferView" : 2,
      "componentType" : 5126,
      "count" : 2433,
      "type" : "VEC3"
    },
    {
      "bufferView" : 3,
      "componentType" : 5126,
      "count" : 2433,
      "type" : "VEC4"
    },
    {
      "bufferView" : 4,
      "normalized" : true,
      "componentType" : 5121,
      "count" : 2433,
      "type" : "VEC4"
    },
    {
      "bufferView" : 5,
      "componentType" : 5126,
      "count" : 2433,
      "type" : "VEC2"
    },
    {
      "bufferView" : 6,
      "componentType" : 5126,
      "count" : 2433,
      "type" : "VEC2"
    },
    {
      "bufferView" : 7,
      "componentType" : 5126,
      "count" : 2433,
      "type" : "VEC2"
    },
    {
      "bufferView" : 8,
      "componentType" : 5126,
      "count" : 2433,
      "type" : "VEC2"
    },
    {
      "bufferView" : 9,
      "componentType" : 5123,
      "count" : 31995,
      "type" : "SCALAR"
    },
    {
      "bufferView" : 10,
      "min" : [ 44.7725, 3.7928, -48.0775 ],
      "max" : [ 61.9871, 8.89674, -32.961 ],
      "componentType" : 5126,
      "count" : 14220,
      "type" : "VEC3"
    },
    {
      "bufferView" : 11,
      "componentType" : 5126,
      "count" : 14220,
      "type" : "VEC3"
    },
    {
      "bufferView" : 12,
      "componentType" : 5126,
      "count" : 14220,
      "type" : "VEC4"
    },
    {
      "bufferView" : 13,
      "normalized" : true,
      "componentType" : 5121,
      "count" : 14220,
      "type" : "VEC4"
    },
    {
      "bufferView" : 14,
      "componentType" : 5126,
      "count" : 14220,
      "type" : "VEC2"
    },
    {
      "bufferView" : 15,
      "componentType" : 5126,
      "count" : 14220,
      "type" : "VEC2"
    },
    {
      "bufferView" : 16,
      "componentType" : 5126,
      "count" : 14220,
      "type" : "VEC2"
    },
    {
      "bufferView" : 17,
      "componentType" : 5126,
      "count" : 14220,
      "type" : "VEC2"
    },
    {
      "bufferView" : 18,
      "componentType" : 5123,
      "count" : 15597,
      "type" : "SCALAR"
    },
    {
      "bufferView" : 19,
      "min" : [ 44.9538, 3.95229, -47.8919 ],
      "max" : [ 61.797, 8.7489, -33.1032 ],
      "componentType" : 5126,
      "count" : 4290,
      "type" : "VEC3"
    },
    {
      "bufferView" : 20,
      "componentType" : 5126,
      "count" : 4290,
      "type" : "VEC3"
    },
    {
      "bufferView" : 21,
      "componentType" : 5126,
      "count" : 4290,
      "type" : "VEC4"
    },
    {
      "bufferView" : 22,
      "normalized" : true,
      "componentType" : 5121,
      "count" : 4290,
      "type" : "VEC4"
    },
    {
      "bufferView" : 23,
      "componentType" : 5126,
      "count" : 4290,
      "type" : "VEC2"
    },
    {
      "bufferView" : 24,
      "componentType" : 5126,
      "count" : 4290,
      "type" : "VEC2"
    },
    {
      "bufferView" : 25,
      "componentType" : 5126,
      "count" : 4290,
      "type" : "VEC2"
    },
    {
      "bufferView" : 26,
      "componentType" : 5126,
      "count" : 4290,
      "type" : "VEC2"
    }
  ]
}
