{
  "asset" : {
    "generator" : "UE Viewer (umodel) build 1544 based",
    "version" : "2.0"
  },
  "scene" : 0,
  "scenes" : [
    {
      "nodes" : [ 0 ]
    }
  ],
  "nodes" : [
    {
      "name" : "SM_ENV_LKNVLD_VRArena_Main_Lod1",
      "mesh" : 0
    }
  ],
  "materials" : [
    {
      "name" : "MI_ENV_LKNVLD_Plaster",
      "pbrMetallicRoughness" : {
        "baseColorFactor" : [ 0.3, 0.3, 0.3, 1.0 ],
        "metallicFactor" : 0.1,
        "roughnessFactor" : 0.5
      }
    },
    {
      "name" : "MI_ENV_LKNVLD_Windows_A",
      "pbrMetallicRoughness" : {
        "baseColorFactor" : [ 0.9, 0.3, 0.3, 1.0 ],
        "metallicFactor" : 0.1,
        "roughnessFactor" : 0.5
      }
    },
    {
      "name" : "MI_ENV_LKNVLD_WoodWallSet",
      "pbrMetallicRoughness" : {
        "baseColorFactor" : [ 0.3, 0.9, 0.3, 1.0 ],
        "metallicFactor" : 0.1,
        "roughnessFactor" : 0.5
      }
    },
    {
      "name" : "MI_ENV_LKNVLD_Signboard_A",
      "pbrMetallicRoughness" : {
        "baseColorFactor" : [ 0.3, 0.3, 0.9, 1.0 ],
        "metallicFactor" : 0.1,
        "roughnessFactor" : 0.5
      }
    },
    {
      "name" : "MI_ENV_LKNVLD_WoodPlain_Red",
      "pbrMetallicRoughness" : {
        "baseColorFactor" : [ 0.9, 0.9, 0.9, 1.0 ],
        "metallicFactor" : 0.1,
        "roughnessFactor" : 0.5
      }
    },
    {
      "name" : "MI_ENV_LKNVLD_Plaster_Dark",
      "pbrMetallicRoughness" : {
        "baseColorFactor" : [ 0.9, 0.9, 0.3, 1.0 ],
        "metallicFactor" : 0.1,
        "roughnessFactor" : 0.5
      }
    },
    {
      "name" : "MI_ENV_LKNVLD_Signboard_C",
      "pbrMetallicRoughness" : {
        "baseColorFactor" : [ 0.9, 0.3, 0.9, 1.0 ],
        "metallicFactor" : 0.1,
        "roughnessFactor" : 0.5
      }
    },
    {
      "name" : "MI_ENV_LKNVLD_MetalRoofDark",
      "pbrMetallicRoughness" : {
        "baseColorFactor" : [ 0.3, 0.9, 0.9, 1.0 ],
        "metallicFactor" : 0.1,
        "roughnessFactor" : 0.5
      }
    },
    {
      "name" : "MI_T_ENV_LKNVLD_StoneTrim",
      "pbrMetallicRoughness" : {
        "baseColorFactor" : [ 1, 0.3, 0.3, 1.0 ],
        "metallicFactor" : 0.1,
        "roughnessFactor" : 0.5
      }
    },
    {
      "name" : "MI_ENV_LKNVLD_WoodBoard_Natural",
      "pbrMetallicRoughness" : {
        "baseColorFactor" : [ 0.6, 0.3, 0.3, 1.0 ],
        "metallicFactor" : 0.1,
        "roughnessFactor" : 0.5
      }
    },
    {
      "name" : "MI_ENV_LKNVLD_MetalRoof_Orange",
      "pbrMetallicRoughness" : {
        "baseColorFactor" : [ 1, 0.9, 0.3, 1.0 ],
        "metallicFactor" : 0.1,
        "roughnessFactor" : 0.5
      }
    },
    {
      "name" : "MI_ENV_LKNVLD_Eaves_B",
      "pbrMetallicRoughness" : {
        "baseColorFactor" : [ 1, 0.3, 0.9, 1.0 ],
        "metallicFactor" : 0.1,
        "roughnessFactor" : 0.5
      }
    },
    {
      "name" : "MI_ENV_LKNVLD_Plaster_Dark",
      "pbrMetallicRoughness" : {
        "baseColorFactor" : [ 0.6, 0.9, 0.9, 1.0 ],
        "metallicFactor" : 0.1,
        "roughnessFactor" : 0.5
      }
    },
    {
      "name" : "MI_ENV_LKNVLD_Curtain_A",
      "pbrMetallicRoughness" : {
        "baseColorFactor" : [ 0.6, 0.9, 0.3, 1.0 ],
        "metallicFactor" : 0.1,
        "roughnessFactor" : 0.5
      }
    },
    {
      "name" : "MI_ENV_LKNVLD_Metal_C",
      "pbrMetallicRoughness" : {
        "baseColorFactor" : [ 0.6, 0.3, 0.9, 1.0 ],
        "metallicFactor" : 0.1,
        "roughnessFactor" : 0.5
      }
    },
    {
      "name" : "MI_ENV_LKNVLD_Aircon_A",
      "pbrMetallicRoughness" : {
        "baseColorFactor" : [ 1, 0.9, 0.9, 1.0 ],
        "metallicFactor" : 0.1,
        "roughnessFactor" : 0.5
      }
    },
    {
      "name" : "MI_ENV_LKNVLD_Plaster_Dark",
      "pbrMetallicRoughness" : {
        "baseColorFactor" : [ 0.3, 1, 0.3, 1.0 ],
        "metallicFactor" : 0.1,
        "roughnessFactor" : 0.5
      }
    },
    {
      "name" : "MI_ENV_LKNVLD_Lantern_A",
      "pbrMetallicRoughness" : {
        "baseColorFactor" : [ 0.9, 1, 0.3, 1.0 ],
        "metallicFactor" : 0.1,
        "roughnessFactor" : 0.5
      }
    },
    {
      "name" : "MI_ENV_LKNVLD_Pipe_B",
      "pbrMetallicRoughness" : {
        "baseColorFactor" : [ 0.3, 0.6, 0.3, 1.0 ],
        "metallicFactor" : 0.1,
        "roughnessFactor" : 0.5
      }
    }
  ],
  "meshes" : [
    {
      "primitives" : [
        {
          "attributes" : {
            "POSITION" : 1,
            "NORMAL" : 2,
            "TANGENT" : 3,
            "TEXCOORD_0" : 4,
            "TEXCOORD_1" : 5,
            "TEXCOORD_2" : 6,
            "TEXCOORD_3" : 7
          },
          "indices" : 0,
          "material" : 0
        },
        {
          "attributes" : {
            "POSITION" : 9,
            "NORMAL" : 10,
            "TANGENT" : 11,
            "TEXCOORD_0" : 12,
            "TEXCOORD_1" : 13,
            "TEXCOORD_2" : 14,
            "TEXCOORD_3" : 15
          },
          "indices" : 8,
          "material" : 1
        },
        {
          "attributes" : {
            "POSITION" : 17,
            "NORMAL" : 18,
            "TANGENT" : 19,
            "TEXCOORD_0" : 20,
            "TEXCOORD_1" : 21,
            "TEXCOORD_2" : 22,
            "TEXCOORD_3" : 23
          },
          "indices" : 16,
          "material" : 2
        },
        {
          "attributes" : {
            "POSITION" : 25,
            "NORMAL" : 26,
            "TANGENT" : 27,
            "TEXCOORD_0" : 28,
            "TEXCOORD_1" : 29,
            "TEXCOORD_2" : 30,
            "TEXCOORD_3" : 31
          },
          "indices" : 24,
          "material" : 3
        },
        {
          "attributes" : {
            "POSITION" : 33,
            "NORMAL" : 34,
            "TANGENT" : 35,
            "TEXCOORD_0" : 36,
            "TEXCOORD_1" : 37,
            "TEXCOORD_2" : 38,
            "TEXCOORD_3" : 39
          },
          "indices" : 32,
          "material" : 4
        },
        {
          "attributes" : {
            "POSITION" : 41,
            "NORMAL" : 42,
            "TANGENT" : 43,
            "TEXCOORD_0" : 44,
            "TEXCOORD_1" : 45,
            "TEXCOORD_2" : 46,
            "TEXCOORD_3" : 47
          },
          "indices" : 40,
          "material" : 5
        },
        {
          "attributes" : {
            "POSITION" : 49,
            "NORMAL" : 50,
            "TANGENT" : 51,
            "TEXCOORD_0" : 52,
            "TEXCOORD_1" : 53,
            "TEXCOORD_2" : 54,
            "TEXCOORD_3" : 55
          },
          "indices" : 48,
          "material" : 6
        },
        {
          "attributes" : {
            "POSITION" : 57,
            "NORMAL" : 58,
            "TANGENT" : 59,
            "TEXCOORD_0" : 60,
            "TEXCOORD_1" : 61,
            "TEXCOORD_2" : 62,
            "TEXCOORD_3" : 63
          },
          "indices" : 56,
          "material" : 7
        },
        {
          "attributes" : {
            "POSITION" : 65,
            "NORMAL" : 66,
            "TANGENT" : 67,
            "TEXCOORD_0" : 68,
            "TEXCOORD_1" : 69,
            "TEXCOORD_2" : 70,
            "TEXCOORD_3" : 71
          },
          "indices" : 64,
          "material" : 8
        },
        {
          "attributes" : {
            "POSITION" : 73,
            "NORMAL" : 74,
            "TANGENT" : 75,
            "TEXCOORD_0" : 76,
            "TEXCOORD_1" : 77,
            "TEXCOORD_2" : 78,
            "TEXCOORD_3" : 79
          },
          "indices" : 72,
          "material" : 9
        },
        {
          "attributes" : {
            "POSITION" : 81,
            "NORMAL" : 82,
            "TANGENT" : 83,
            "TEXCOORD_0" : 84,
            "TEXCOORD_1" : 85,
            "TEXCOORD_2" : 86,
            "TEXCOORD_3" : 87
          },
          "indices" : 80,
          "material" : 10
        },
        {
          "attributes" : {
            "POSITION" : 89,
            "NORMAL" : 90,
            "TANGENT" : 91,
            "TEXCOORD_0" : 92,
            "TEXCOORD_1" : 93,
            "TEXCOORD_2" : 94,
            "TEXCOORD_3" : 95
          },
          "indices" : 88,
          "material" : 11
        },
        {
          "attributes" : {
            "POSITION" : 97,
            "NORMAL" : 98,
            "TANGENT" : 99,
            "TEXCOORD_0" : 100,
            "TEXCOORD_1" : 101,
            "TEXCOORD_2" : 102,
            "TEXCOORD_3" : 103
          },
          "indices" : 96,
          "material" : 12
        },
        {
          "attributes" : {
            "POSITION" : 105,
            "NORMAL" : 106,
            "TANGENT" : 107,
            "TEXCOORD_0" : 108,
            "TEXCOORD_1" : 109,
            "TEXCOORD_2" : 110,
            "TEXCOORD_3" : 111
          },
          "indices" : 104,
          "material" : 13
        },
        {
          "attributes" : {
            "POSITION" : 113,
            "NORMAL" : 114,
            "TANGENT" : 115,
            "TEXCOORD_0" : 116,
            "TEXCOORD_1" : 117,
            "TEXCOORD_2" : 118,
            "TEXCOORD_3" : 119
          },
          "indices" : 112,
          "material" : 14
        },
        {
          "attributes" : {
            "POSITION" : 121,
            "NORMAL" : 122,
            "TANGENT" : 123,
            "TEXCOORD_0" : 124,
            "TEXCOORD_1" : 125,
            "TEXCOORD_2" : 126,
            "TEXCOORD_3" : 127
          },
          "indices" : 120,
          "material" : 15
        },
        {
          "attributes" : {
            "POSITION" : 129,
            "NORMAL" : 130,
            "TANGENT" : 131,
            "TEXCOORD_0" : 132,
            "TEXCOORD_1" : 133,
            "TEXCOORD_2" : 134,
            "TEXCOORD_3" : 135
          },
          "indices" : 128,
          "material" : 16
        },
        {
          "attributes" : {
            "POSITION" : 137,
            "NORMAL" : 138,
            "TANGENT" : 139,
            "TEXCOORD_0" : 140,
            "TEXCOORD_1" : 141,
            "TEXCOORD_2" : 142,
            "TEXCOORD_3" : 143
          },
          "indices" : 136,
          "material" : 17
        },
        {
          "attributes" : {
            "POSITION" : 145,
            "NORMAL" : 146,
            "TANGENT" : 147,
            "TEXCOORD_0" : 148,
            "TEXCOORD_1" : 149,
            "TEXCOORD_2" : 150,
            "TEXCOORD_3" : 151
          },
          "indices" : 144,
          "material" : 18
        }
      ],
      "name" : "SM_ENV_LKNVLD_VRArena_Main_Lod1"
    }
  ],
  "buffers" : [
    {
      "uri" : "SM_ENV_LKNVLD_VRArena_Main_Lod1.bin",
      "byteLength" : 1889336
    }
  ],
  "bufferViews" : [
    {
      "buffer" : 0,
      "byteOffset" : 0,
      "byteLength" : 5024
    },
    {
      "buffer" : 0,
      "byteOffset" : 5024,
      "byteLength" : 13896
    },
    {
      "buffer" : 0,
      "byteOffset" : 18920,
      "byteLength" : 13896
    },
    {
      "buffer" : 0,
      "byteOffset" : 32816,
      "byteLength" : 18528
    },
    {
      "buffer" : 0,
      "byteOffset" : 51344,
      "byteLength" : 9264
    },
    {
      "buffer" : 0,
      "byteOffset" : 60608,
      "byteLength" : 9264
    },
    {
      "buffer" : 0,
      "byteOffset" : 69872,
      "byteLength" : 9264
    },
    {
      "buffer" : 0,
      "byteOffset" : 79136,
      "byteLength" : 9264
    },
    {
      "buffer" : 0,
      "byteOffset" : 88400,
      "byteLength" : 1548
    },
    {
      "buffer" : 0,
      "byteOffset" : 89948,
      "byteLength" : 4776
    },
    {
      "buffer" : 0,
      "byteOffset" : 94724,
      "byteLength" : 4776
    },
    {
      "buffer" : 0,
      "byteOffset" : 99500,
      "byteLength" : 6368
    },
    {
      "buffer" : 0,
      "byteOffset" : 105868,
      "byteLength" : 3184
    },
    {
      "buffer" : 0,
      "byteOffset" : 109052,
      "byteLength" : 3184
    },
    {
      "buffer" : 0,
      "byteOffset" : 112236,
      "byteLength" : 3184
    },
    {
      "buffer" : 0,
      "byteOffset" : 115420,
      "byteLength" : 3184
    },
    {
      "buffer" : 0,
      "byteOffset" : 118604,
      "byteLength" : 26460
    },
    {
      "buffer" : 0,
      "byteOffset" : 145064,
      "byteLength" : 94164
    },
    {
      "buffer" : 0,
      "byteOffset" : 239228,
      "byteLength" : 94164
    },
    {
      "buffer" : 0,
      "byteOffset" : 333392,
      "byteLength" : 125552
    },
    {
      "buffer" : 0,
      "byteOffset" : 458944,
      "byteLength" : 62776
    },
    {
      "buffer" : 0,
      "byteOffset" : 521720,
      "byteLength" : 62776
    },
    {
      "buffer" : 0,
      "byteOffset" : 584496,
      "byteLength" : 62776
    },
    {
      "buffer" : 0,
      "byteOffset" : 647272,
      "byteLength" : 62776
    },
    {
      "buffer" : 0,
      "byteOffset" : 710048,
      "byteLength" : 1964
    },
    {
      "buffer" : 0,
      "byteOffset" : 712012,
      "byteLength" : 4836
    },
    {
      "buffer" : 0,
      "byteOffset" : 716848,
      "byteLength" : 4836
    },
    {
      "buffer" : 0,
      "byteOffset" : 721684,
      "byteLength" : 6448
    },
    {
      "buffer" : 0,
      "byteOffset" : 728132,
      "byteLength" : 3224
    },
    {
      "buffer" : 0,
      "byteOffset" : 731356,
      "byteLength" : 3224
    },
    {
      "buffer" : 0,
      "byteOffset" : 734580,
      "byteLength" : 3224
    },
    {
      "buffer" : 0,
      "byteOffset" : 737804,
      "byteLength" : 3224
    },
    {
      "buffer" : 0,
      "byteOffset" : 741028,
      "byteLength" : 6096
    },
    {
      "buffer" : 0,
      "byteOffset" : 747124,
      "byteLength" : 14844
    },
    {
      "buffer" : 0,
      "byteOffset" : 761968,
      "byteLength" : 14844
    },
    {
      "buffer" : 0,
      "byteOffset" : 776812,
      "byteLength" : 19792
    },
    {
      "buffer" : 0,
      "byteOffset" : 796604,
      "byteLength" : 9896
    },
    {
      "buffer" : 0,
      "byteOffset" : 806500,
      "byteLength" : 9896
    },
    {
      "buffer" : 0,
      "byteOffset" : 816396,
      "byteLength" : 9896
    },
    {
      "buffer" : 0,
      "byteOffset" : 826292,
      "byteLength" : 9896
    },
    {
      "buffer" : 0,
      "byteOffset" : 836188,
      "byteLength" : 4868
    },
    {
      "buffer" : 0,
      "byteOffset" : 841056,
      "byteLength" : 13728
    },
    {
      "buffer" : 0,
      "byteOffset" : 854784,
      "byteLength" : 13728
    },
    {
      "buffer" : 0,
      "byteOffset" : 868512,
      "byteLength" : 18304
    },
    {
      "buffer" : 0,
      "byteOffset" : 886816,
      "byteLength" : 9152
    },
    {
      "buffer" : 0,
      "byteOffset" : 895968,
      "byteLength" : 9152
    },
    {
      "buffer" : 0,
      "byteOffset" : 905120,
      "byteLength" : 9152
    },
    {
      "buffer" : 0,
      "byteOffset" : 914272,
      "byteLength" : 9152
    },
    {
      "buffer" : 0,
      "byteOffset" : 923424,
      "byteLength" : 120
    },
    {
      "buffer" : 0,
      "byteOffset" : 923544,
      "byteLength" : 264
    },
    {
      "buffer" : 0,
      "byteOffset" : 923808,
      "byteLength" : 264
    },
    {
      "buffer" : 0,
      "byteOffset" : 924072,
      "byteLength" : 352
    },
    {
      "buffer" : 0,
      "byteOffset" : 924424,
      "byteLength" : 176
    },
    {
      "buffer" : 0,
      "byteOffset" : 924600,
      "byteLength" : 176
    },
    {
      "buffer" : 0,
      "byteOffset" : 924776,
      "byteLength" : 176
    },
    {
      "buffer" : 0,
      "byteOffset" : 924952,
      "byteLength" : 176
    },
    {
      "buffer" : 0,
      "byteOffset" : 925128,
      "byteLength" : 2652
    },
    {
      "buffer" : 0,
      "byteOffset" : 927780,
      "byteLength" : 9144
    },
    {
      "buffer" : 0,
      "byteOffset" : 936924,
      "byteLength" : 9144
    },
    {
      "buffer" : 0,
      "byteOffset" : 946068,
      "byteLength" : 12192
    },
    {
      "buffer" : 0,
      "byteOffset" : 958260,
      "byteLength" : 6096
    },
    {
      "buffer" : 0,
      "byteOffset" : 964356,
      "byteLength" : 6096
    },
    {
      "buffer" : 0,
      "byteOffset" : 970452,
      "byteLength" : 6096
    },
    {
      "buffer" : 0,
      "byteOffset" : 976548,
      "byteLength" : 6096
    },
    {
      "buffer" : 0,
      "byteOffset" : 982644,
      "byteLength" : 48
    },
    {
      "buffer" : 0,
      "byteOffset" : 982692,
      "byteLength" : 192
    },
    {
      "buffer" : 0,
      "byteOffset" : 982884,
      "byteLength" : 192
    },
    {
      "buffer" : 0,
      "byteOffset" : 983076,
      "byteLength" : 256
    },
    {
      "buffer" : 0,
      "byteOffset" : 983332,
      "byteLength" : 128
    },
    {
      "buffer" : 0,
      "byteOffset" : 983460,
      "byteLength" : 128
    },
    {
      "buffer" : 0,
      "byteOffset" : 983588,
      "byteLength" : 128
    },
    {
      "buffer" : 0,
      "byteOffset" : 983716,
      "byteLength" : 128
    },
    {
      "buffer" : 0,
      "byteOffset" : 983844,
      "byteLength" : 3296
    },
    {
      "buffer" : 0,
      "byteOffset" : 987140,
      "byteLength" : 7068
    },
    {
      "buffer" : 0,
      "byteOffset" : 994208,
      "byteLength" : 7068
    },
    {
      "buffer" : 0,
      "byteOffset" : 1001276,
      "byteLength" : 9424
    },
    {
      "buffer" : 0,
      "byteOffset" : 1010700,
      "byteLength" : 4712
    },
    {
      "buffer" : 0,
      "byteOffset" : 1015412,
      "byteLength" : 4712
    },
    {
      "buffer" : 0,
      "byteOffset" : 1020124,
      "byteLength" : 4712
    },
    {
      "buffer" : 0,
      "byteOffset" : 1024836,
      "byteLength" : 4712
    },
    {
      "buffer" : 0,
      "byteOffset" : 1029548,
      "byteLength" : 14984
    },
    {
      "buffer" : 0,
      "byteOffset" : 1044532,
      "byteLength" : 33912
    },
    {
      "buffer" : 0,
      "byteOffset" : 1078444,
      "byteLength" : 33912
    },
    {
      "buffer" : 0,
      "byteOffset" : 1112356,
      "byteLength" : 45216
    },
    {
      "buffer" : 0,
      "byteOffset" : 1157572,
      "byteLength" : 22608
    },
    {
      "buffer" : 0,
      "byteOffset" : 1180180,
      "byteLength" : 22608
    },
    {
      "buffer" : 0,
      "byteOffset" : 1202788,
      "byteLength" : 22608
    },
    {
      "buffer" : 0,
      "byteOffset" : 1225396,
      "byteLength" : 22608
    },
    {
      "buffer" : 0,
      "byteOffset" : 1248004,
      "byteLength" : 1448
    },
    {
      "buffer" : 0,
      "byteOffset" : 1249452,
      "byteLength" : 3288
    },
    {
      "buffer" : 0,
      "byteOffset" : 1252740,
      "byteLength" : 3288
    },
    {
      "buffer" : 0,
      "byteOffset" : 1256028,
      "byteLength" : 4384
    },
    {
      "buffer" : 0,
      "byteOffset" : 1260412,
      "byteLength" : 2192
    },
    {
      "buffer" : 0,
      "byteOffset" : 1262604,
      "byteLength" : 2192
    },
    {
      "buffer" : 0,
      "byteOffset" : 1264796,
      "byteLength" : 2192
    },
    {
      "buffer" : 0,
      "byteOffset" : 1266988,
      "byteLength" : 2192
    },
    {
      "buffer" : 0,
      "byteOffset" : 1269180,
      "byteLength" : 620
    },
    {
      "buffer" : 0,
      "byteOffset" : 1269800,
      "byteLength" : 1284
    },
    {
      "buffer" : 0,
      "byteOffset" : 1271084,
      "byteLength" : 1284
    },
    {
      "buffer" : 0,
      "byteOffset" : 1272368,
      "byteLength" : 1712
    },
    {
      "buffer" : 0,
      "byteOffset" : 1274080,
      "byteLength" : 856
    },
    {
      "buffer" : 0,
      "byteOffset" : 1274936,
      "byteLength" : 856
    },
    {
      "buffer" : 0,
      "byteOffset" : 1275792,
      "byteLength" : 856
    },
    {
      "buffer" : 0,
      "byteOffset" : 1276648,
      "byteLength" : 856
    },
    {
      "buffer" : 0,
      "byteOffset" : 1277504,
      "byteLength" : 48
    },
    {
      "buffer" : 0,
      "byteOffset" : 1277552,
      "byteLength" : 144
    },
    {
      "buffer" : 0,
      "byteOffset" : 1277696,
      "byteLength" : 144
    },
    {
      "buffer" : 0,
      "byteOffset" : 1277840,
      "byteLength" : 192
    },
    {
      "buffer" : 0,
      "byteOffset" : 1278032,
      "byteLength" : 96
    },
    {
      "buffer" : 0,
      "byteOffset" : 1278128,
      "byteLength" : 96
    },
    {
      "buffer" : 0,
      "byteOffset" : 1278224,
      "byteLength" : 96
    },
    {
      "buffer" : 0,
      "byteOffset" : 1278320,
      "byteLength" : 96
    },
    {
      "buffer" : 0,
      "byteOffset" : 1278416,
      "byteLength" : 2112
    },
    {
      "buffer" : 0,
      "byteOffset" : 1280528,
      "byteLength" : 6288
    },
    {
      "buffer" : 0,
      "byteOffset" : 1286816,
      "byteLength" : 6288
    },
    {
      "buffer" : 0,
      "byteOffset" : 1293104,
      "byteLength" : 8384
    },
    {
      "buffer" : 0,
      "byteOffset" : 1301488,
      "byteLength" : 4192
    },
    {
      "buffer" : 0,
      "byteOffset" : 1305680,
      "byteLength" : 4192
    },
    {
      "buffer" : 0,
      "byteOffset" : 1309872,
      "byteLength" : 4192
    },
    {
      "buffer" : 0,
      "byteOffset" : 1314064,
      "byteLength" : 4192
    },
    {
      "buffer" : 0,
      "byteOffset" : 1318256,
      "byteLength" : 19368
    },
    {
      "buffer" : 0,
      "byteOffset" : 1337624,
      "byteLength" : 40332
    },
    {
      "buffer" : 0,
      "byteOffset" : 1377956,
      "byteLength" : 40332
    },
    {
      "buffer" : 0,
      "byteOffset" : 1418288,
      "byteLength" : 53776
    },
    {
      "buffer" : 0,
      "byteOffset" : 1472064,
      "byteLength" : 26888
    },
    {
      "buffer" : 0,
      "byteOffset" : 1498952,
      "byteLength" : 26888
    },
    {
      "buffer" : 0,
      "byteOffset" : 1525840,
      "byteLength" : 26888
    },
    {
      "buffer" : 0,
      "byteOffset" : 1552728,
      "byteLength" : 26888
    },
    {
      "buffer" : 0,
      "byteOffset" : 1579616,
      "byteLength" : 3816
    },
    {
      "buffer" : 0,
      "byteOffset" : 1583432,
      "byteLength" : 10320
    },
    {
      "buffer" : 0,
      "byteOffset" : 1593752,
      "byteLength" : 10320
    },
    {
      "buffer" : 0,
      "byteOffset" : 1604072,
      "byteLength" : 13760
    },
    {
      "buffer" : 0,
      "byteOffset" : 1617832,
      "byteLength" : 6880
    },
    {
      "buffer" : 0,
      "byteOffset" : 1624712,
      "byteLength" : 6880
    },
    {
      "buffer" : 0,
      "byteOffset" : 1631592,
      "byteLength" : 6880
    },
    {
      "buffer" : 0,
      "byteOffset" : 1638472,
      "byteLength" : 6880
    },
    {
      "buffer" : 0,
      "byteOffset" : 1645352,
      "byteLength" : 7740
    },
    {
      "buffer" : 0,
      "byteOffset" : 1653092,
      "byteLength" : 14520
    },
    {
      "buffer" : 0,
      "byteOffset" : 1667612,
      "byteLength" : 14520
    },
    {
      "buffer" : 0,
      "byteOffset" : 1682132,
      "byteLength" : 19360
    },
    {
      "buffer" : 0,
      "byteOffset" : 1701492,
      "byteLength" : 9680
    },
    {
      "buffer" : 0,
      "byteOffset" : 1711172,
      "byteLength" : 9680
    },
    {
      "buffer" : 0,
      "byteOffset" : 1720852,
      "byteLength" : 9680
    },
    {
      "buffer" : 0,
      "byteOffset" : 1730532,
      "byteLength" : 9680
    },
    {
      "buffer" : 0,
      "byteOffset" : 1740212,
      "byteLength" : 15852
    },
    {
      "buffer" : 0,
      "byteOffset" : 1756064,
      "byteLength" : 22212
    },
    {
      "buffer" : 0,
      "byteOffset" : 1778276,
      "byteLength" : 22212
    },
    {
      "buffer" : 0,
      "byteOffset" : 1800488,
      "byteLength" : 29616
    },
    {
      "buffer" : 0,
      "byteOffset" : 1830104,
      "byteLength" : 14808
    },
    {
      "buffer" : 0,
      "byteOffset" : 1844912,
      "byteLength" : 14808
    },
    {
      "buffer" : 0,
      "byteOffset" : 1859720,
      "byteLength" : 14808
    },
    {
      "buffer" : 0,
      "byteOffset" : 1874528,
      "byteLength" : 14808
    }
  ],
  "accessors" : [
    {
      "bufferView" : 0,
      "componentType" : 5123,
      "count" : 2511,
      "type" : "SCALAR"
    },
    {
      "bufferView" : 1,
      "min" : [ 44.4913, -6.10352e-07, -12.5 ],
      "max" : [ 69.2667, 54.0437, 17.8278 ],
      "componentType" : 5126,
      "count" : 1158,
      "type" : "VEC3"
    },
    {
      "bufferView" : 2,
      "componentType" : 5126,
      "count" : 1158,
      "type" : "VEC3"
    },
    {
      "bufferView" : 3,
      "componentType" : 5126,
      "count" : 1158,
      "type" : "VEC4"
    },
    {
      "bufferView" : 4,
      "componentType" : 5126,
      "count" : 1158,
      "type" : "VEC2"
    },
    {
      "bufferView" : 5,
      "componentType" : 5126,
      "count" : 1158,
      "type" : "VEC2"
    },
    {
      "bufferView" : 6,
      "componentType" : 5126,
      "count" : 1158,
      "type" : "VEC2"
    },
    {
      "bufferView" : 7,
      "componentType" : 5126,
      "count" : 1158,
      "type" : "VEC2"
    },
    {
      "bufferView" : 8,
      "componentType" : 5123,
      "count" : 774,
      "type" : "SCALAR"
    },
    {
      "bufferView" : 9,
      "min" : [ 46.46, 4.25001, -9.24015 ],
      "max" : [ 68.9068, 54.0961, 17.4392 ],
      "componentType" : 5126,
      "count" : 398,
      "type" : "VEC3"
    },
    {
      "bufferView" : 10,
      "componentType" : 5126,
      "count" : 398,
      "type" : "VEC3"
    },
    {
      "bufferView" : 11,
      "componentType" : 5126,
      "count" : 398,
      "type" : "VEC4"
    },
    {
      "bufferView" : 12,
      "componentType" : 5126,
      "count" : 398,
      "type" : "VEC2"
    },
    {
      "bufferView" : 13,
      "componentType" : 5126,
      "count" : 398,
      "type" : "VEC2"
    },
    {
      "bufferView" : 14,
      "componentType" : 5126,
      "count" : 398,
      "type" : "VEC2"
    },
    {
      "bufferView" : 15,
      "componentType" : 5126,
      "count" : 398,
      "type" : "VEC2"
    },
    {
      "bufferView" : 16,
      "componentType" : 5123,
      "count" : 13230,
      "type" : "SCALAR"
    },
    {
      "bufferView" : 17,
      "min" : [ 44.418, 4, -12.02 ],
      "max" : [ 71.7367, 49.3676, 17.902 ],
      "componentType" : 5126,
      "count" : 7847,
      "type" : "VEC3"
    },
    {
      "bufferView" : 18,
      "componentType" : 5126,
      "count" : 7847,
      "type" : "VEC3"
    },
    {
      "bufferView" : 19,
      "componentType" : 5126,
      "count" : 7847,
      "type" : "VEC4"
    },
    {
      "bufferView" : 20,
      "componentType" : 5126,
      "count" : 7847,
      "type" : "VEC2"
    },
    {
      "bufferView" : 21,
      "componentType" : 5126,
      "count" : 7847,
      "type" : "VEC2"
    },
    {
      "bufferView" : 22,
      "componentType" : 5126,
      "count" : 7847,
      "type" : "VEC2"
    },
    {
      "bufferView" : 23,
      "componentType" : 5126,
      "count" : 7847,
      "type" : "VEC2"
    },
    {
      "bufferView" : 24,
      "componentType" : 5123,
      "count" : 981,
      "type" : "SCALAR"
    },
    {
      "bufferView" : 25,
      "min" : [ 44.067, 5.9105, -14.9281 ],
      "max" : [ 74.5981, 60.5005, 15.8525 ],
      "componentType" : 5126,
      "count" : 403,
      "type" : "VEC3"
    },
    {
      "bufferView" : 26,
      "componentType" : 5126,
      "count" : 403,
      "type" : "VEC3"
    },
    {
      "bufferView" : 27,
      "componentType" : 5126,
      "count" : 403,
      "type" : "VEC4"
    },
    {
      "bufferView" : 28,
      "componentType" : 5126,
      "count" : 403,
      "type" : "VEC2"
    },
    {
      "bufferView" : 29,
      "componentType" : 5126,
      "count" : 403,
      "type" : "VEC2"
    },
    {
      "bufferView" : 30,
      "componentType" : 5126,
      "count" : 403,
      "type" : "VEC2"
    },
    {
      "bufferView" : 31,
      "componentType" : 5126,
      "count" : 403,
      "type" : "VEC2"
    },
    {
      "bufferView" : 32,
      "componentType" : 5123,
      "count" : 3048,
      "type" : "SCALAR"
    },
    {
      "bufferView" : 33,
      "min" : [ 44.08, -1.83105e-06, -14.9281 ],
      "max" : [ 74.5981, 41.9177, 15.8525 ],
      "componentType" : 5126,
      "count" : 1237,
      "type" : "VEC3"
    },
    {
      "bufferView" : 34,
      "componentType" : 5126,
      "count" : 1237,
      "type" : "VEC3"
    },
    {
      "bufferView" : 35,
      "componentType" : 5126,
      "count" : 1237,
      "type" : "VEC4"
    },
    {
      "bufferView" : 36,
      "componentType" : 5126,
      "count" : 1237,
      "type" : "VEC2"
    },
    {
      "bufferView" : 37,
      "componentType" : 5126,
      "count" : 1237,
      "type" : "VEC2"
    },
    {
      "bufferView" : 38,
      "componentType" : 5126,
      "count" : 1237,
      "type" : "VEC2"
    },
    {
      "bufferView" : 39,
      "componentType" : 5126,
      "count" : 1237,
      "type" : "VEC2"
    },
    {
      "bufferView" : 40,
      "componentType" : 5123,
      "count" : 2433,
      "type" : "SCALAR"
    },
    {
      "bufferView" : 41,
      "min" : [ 45.5694, 9.95619, -10 ],
      "max" : [ 69.6667, 56.6505, 18.045 ],
      "componentType" : 5126,
      "count" : 1144,
      "type" : "VEC3"
    },
    {
      "bufferView" : 42,
      "componentType" : 5126,
      "count" : 1144,
      "type" : "VEC3"
    },
    {
      "bufferView" : 43,
      "componentType" : 5126,
      "count" : 1144,
      "type" : "VEC4"
    },
    {
      "bufferView" : 44,
      "componentType" : 5126,
      "count" : 1144,
      "type" : "VEC2"
    },
    {
      "bufferView" : 45,
      "componentType" : 5126,
      "count" : 1144,
      "type" : "VEC2"
    },
    {
      "bufferView" : 46,
      "componentType" : 5126,
      "count" : 1144,
      "type" : "VEC2"
    },
    {
      "bufferView" : 47,
      "componentType" : 5126,
      "count" : 1144,
      "type" : "VEC2"
    },
    {
      "bufferView" : 48,
      "componentType" : 5123,
      "count" : 60,
      "type" : "SCALAR"
    },
    {
      "bufferView" : 49,
      "min" : [ 45.8694, 10.4, -2.89602 ],
      "max" : [ 46.856, 14.3, 2.89601 ],
      "componentType" : 5126,
      "count" : 22,
      "type" : "VEC3"
    },
    {
      "bufferView" : 50,
      "componentType" : 5126,
      "count" : 22,
      "type" : "VEC3"
    },
    {
      "bufferView" : 51,
      "componentType" : 5126,
      "count" : 22,
      "type" : "VEC4"
    },
    {
      "bufferView" : 52,
      "componentType" : 5126,
      "count" : 22,
      "type" : "VEC2"
    },
    {
      "bufferView" : 53,
      "componentType" : 5126,
      "count" : 22,
      "type" : "VEC2"
    },
    {
      "bufferView" : 54,
      "componentType" : 5126,
      "count" : 22,
      "type" : "VEC2"
    },
    {
      "bufferView" : 55,
      "componentType" : 5126,
      "count" : 22,
      "type" : "VEC2"
    },
    {
      "bufferView" : 56,
      "componentType" : 5123,
      "count" : 1326,
      "type" : "SCALAR"
    },
    {
      "bufferView" : 57,
      "min" : [ 46.288, 4.25, -9.39014 ],
      "max" : [ 69.0568, 62.9005, 9.39014 ],
      "componentType" : 5126,
      "count" : 762,
      "type" : "VEC3"
    },
    {
      "bufferView" : 58,
      "componentType" : 5126,
      "count" : 762,
      "type" : "VEC3"
    },
    {
      "bufferView" : 59,
      "componentType" : 5126,
      "count" : 762,
      "type" : "VEC4"
    },
    {
      "bufferView" : 60,
      "componentType" : 5126,
      "count" : 762,
      "type" : "VEC2"
    },
    {
      "bufferView" : 61,
      "componentType" : 5126,
      "count" : 762,
      "type" : "VEC2"
    },
    {
      "bufferView" : 62,
      "componentType" : 5126,
      "count" : 762,
      "type" : "VEC2"
    },
    {
      "bufferView" : 63,
      "componentType" : 5126,
      "count" : 762,
      "type" : "VEC2"
    },
    {
      "bufferView" : 64,
      "componentType" : 5123,
      "count" : 24,
      "type" : "SCALAR"
    },
    {
      "bufferView" : 65,
      "min" : [ 46.0001, 5.99999, 5.14032 ],
      "max" : [ 63.4458, 7.1, 22.1388 ],
      "componentType" : 5126,
      "count" : 16,
      "type" : "VEC3"
    },
    {
      "bufferView" : 66,
      "componentType" : 5126,
      "count" : 16,
      "type" : "VEC3"
    },
    {
      "bufferView" : 67,
      "componentType" : 5126,
      "count" : 16,
      "type" : "VEC4"
    },
    {
      "bufferView" : 68,
      "componentType" : 5126,
      "count" : 16,
      "type" : "VEC2"
    },
    {
      "bufferView" : 69,
      "componentType" : 5126,
      "count" : 16,
      "type" : "VEC2"
    },
    {
      "bufferView" : 70,
      "componentType" : 5126,
      "count" : 16,
      "type" : "VEC2"
    },
    {
      "bufferView" : 71,
      "componentType" : 5126,
      "count" : 16,
      "type" : "VEC2"
    },
    {
      "bufferView" : 72,
      "componentType" : 5123,
      "count" : 1647,
      "type" : "SCALAR"
    },
    {
      "bufferView" : 73,
      "min" : [ 44.23, 9, -14.1981 ],
      "max" : [ 73.8681, 54.5392, 14.1981 ],
      "componentType" : 5126,
      "count" : 589,
      "type" : "VEC3"
    },
    {
      "bufferView" : 74,
      "componentType" : 5126,
      "count" : 589,
      "type" : "VEC3"
    },
    {
      "bufferView" : 75,
      "componentType" : 5126,
      "count" : 589,
      "type" : "VEC4"
    },
    {
      "bufferView" : 76,
      "componentType" : 5126,
      "count" : 589,
      "type" : "VEC2"
    },
    {
      "bufferView" : 77,
      "componentType" : 5126,
      "count" : 589,
      "type" : "VEC2"
    },
    {
      "bufferView" : 78,
      "componentType" : 5126,
      "count" : 589,
      "type" : "VEC2"
    },
    {
      "bufferView" : 79,
      "componentType" : 5126,
      "count" : 589,
      "type" : "VEC2"
    },
    {
      "bufferView" : 80,
      "componentType" : 5123,
      "count" : 7491,
      "type" : "SCALAR"
    },
    {
      "bufferView" : 81,
      "min" : [ 44.23, 9, -14.5 ],
      "max" : [ 74.17, 56.3229, 23.8212 ],
      "componentType" : 5126,
      "count" : 2826,
      "type" : "VEC3"
    },
    {
      "bufferView" : 82,
      "componentType" : 5126,
      "count" : 2826,
      "type" : "VEC3"
    },
    {
      "bufferView" : 83,
      "componentType" : 5126,
      "count" : 2826,
      "type" : "VEC4"
    },
    {
      "bufferView" : 84,
      "componentType" : 5126,
      "count" : 2826,
      "type" : "VEC2"
    },
    {
      "bufferView" : 85,
      "componentType" : 5126,
      "count" : 2826,
      "type" : "VEC2"
    },
    {
      "bufferView" : 86,
      "componentType" : 5126,
      "count" : 2826,
      "type" : "VEC2"
    },
    {
      "bufferView" : 87,
      "componentType" : 5126,
      "count" : 2826,
      "type" : "VEC2"
    },
    {
      "bufferView" : 88,
      "componentType" : 5123,
      "count" : 723,
      "type" : "SCALAR"
    },
    {
      "bufferView" : 89,
      "min" : [ 44.08, 14.959, -14.9281 ],
      "max" : [ 74.5981, 41.9177, 14.8781 ],
      "componentType" : 5126,
      "count" : 274,
      "type" : "VEC3"
    },
    {
      "bufferView" : 90,
      "componentType" : 5126,
      "count" : 274,
      "type" : "VEC3"
    },
    {
      "bufferView" : 91,
      "componentType" : 5126,
      "count" : 274,
      "type" : "VEC4"
    },
    {
      "bufferView" : 92,
      "componentType" : 5126,
      "count" : 274,
      "type" : "VEC2"
    },
    {
      "bufferView" : 93,
      "componentType" : 5126,
      "count" : 274,
      "type" : "VEC2"
    },
    {
      "bufferView" : 94,
      "componentType" : 5126,
      "count" : 274,
      "type" : "VEC2"
    },
    {
      "bufferView" : 95,
      "componentType" : 5126,
      "count" : 274,
      "type" : "VEC2"
    },
    {
      "bufferView" : 96,
      "componentType" : 5123,
      "count" : 309,
      "type" : "SCALAR"
    },
    {
      "bufferView" : 97,
      "min" : [ 45.9337, 15, -12.0004 ],
      "max" : [ 71.6704, 45.32, 12.0004 ],
      "componentType" : 5126,
      "count" : 107,
      "type" : "VEC3"
    },
    {
      "bufferView" : 98,
      "componentType" : 5126,
      "count" : 107,
      "type" : "VEC3"
    },
    {
      "bufferView" : 99,
      "componentType" : 5126,
      "count" : 107,
      "type" : "VEC4"
    },
    {
      "bufferView" : 100,
      "componentType" : 5126,
      "count" : 107,
      "type" : "VEC2"
    },
    {
      "bufferView" : 101,
      "componentType" : 5126,
      "count" : 107,
      "type" : "VEC2"
    },
    {
      "bufferView" : 102,
      "componentType" : 5126,
      "count" : 107,
      "type" : "VEC2"
    },
    {
      "bufferView" : 103,
      "componentType" : 5126,
      "count" : 107,
      "type" : "VEC2"
    },
    {
      "bufferView" : 104,
      "componentType" : 5123,
      "count" : 24,
      "type" : "SCALAR"
    },
    {
      "bufferView" : 105,
      "min" : [ 46.318, 7.42543, -2.15 ],
      "max" : [ 46.318, 8.15101, 2.15 ],
      "componentType" : 5126,
      "count" : 12,
      "type" : "VEC3"
    },
    {
      "bufferView" : 106,
      "componentType" : 5126,
      "count" : 12,
      "type" : "VEC3"
    },
    {
      "bufferView" : 107,
      "componentType" : 5126,
      "count" : 12,
      "type" : "VEC4"
    },
    {
      "bufferView" : 108,
      "componentType" : 5126,
      "count" : 12,
      "type" : "VEC2"
    },
    {
      "bufferView" : 109,
      "componentType" : 5126,
      "count" : 12,
      "type" : "VEC2"
    },
    {
      "bufferView" : 110,
      "componentType" : 5126,
      "count" : 12,
      "type" : "VEC2"
    },
    {
      "bufferView" : 111,
      "componentType" : 5126,
      "count" : 12,
      "type" : "VEC2"
    },
    {
      "bufferView" : 112,
      "componentType" : 5123,
      "count" : 1056,
      "type" : "SCALAR"
    },
    {
      "bufferView" : 113,
      "min" : [ 44.64, 15.8661, -10.302 ],
      "max" : [ 70.0145, 59.9505, 10.302 ],
      "componentType" : 5126,
      "count" : 524,
      "type" : "VEC3"
    },
    {
      "bufferView" : 114,
      "componentType" : 5126,
      "count" : 524,
      "type" : "VEC3"
    },
    {
      "bufferView" : 115,
      "componentType" : 5126,
      "count" : 524,
      "type" : "VEC4"
    },
    {
      "bufferView" : 116,
      "componentType" : 5126,
      "count" : 524,
      "type" : "VEC2"
    },
    {
      "bufferView" : 117,
      "componentType" : 5126,
      "count" : 524,
      "type" : "VEC2"
    },
    {
      "bufferView" : 118,
      "componentType" : 5126,
      "count" : 524,
      "type" : "VEC2"
    },
    {
      "bufferView" : 119,
      "componentType" : 5126,
      "count" : 524,
      "type" : "VEC2"
    },
    {
      "bufferView" : 120,
      "componentType" : 5123,
      "count" : 9684,
      "type" : "SCALAR"
    },
    {
      "bufferView" : 121,
      "min" : [ 44.5565, 15.2123, -10.5064 ],
      "max" : [ 70.2188, 66.0005, 10.5064 ],
      "componentType" : 5126,
      "count" : 3361,
      "type" : "VEC3"
    },
    {
      "bufferView" : 122,
      "componentType" : 5126,
      "count" : 3361,
      "type" : "VEC3"
    },
    {
      "bufferView" : 123,
      "componentType" : 5126,
      "count" : 3361,
      "type" : "VEC4"
    },
    {
      "bufferView" : 124,
      "componentType" : 5126,
      "count" : 3361,
      "type" : "VEC2"
    },
    {
      "bufferView" : 125,
      "componentType" : 5126,
      "count" : 3361,
      "type" : "VEC2"
    },
    {
      "bufferView" : 126,
      "componentType" : 5126,
      "count" : 3361,
      "type" : "VEC2"
    },
    {
      "bufferView" : 127,
      "componentType" : 5126,
      "count" : 3361,
      "type" : "VEC2"
    },
    {
      "bufferView" : 128,
      "componentType" : 5123,
      "count" : 1908,
      "type" : "SCALAR"
    },
    {
      "bufferView" : 129,
      "min" : [ 52.3324, 20.7, -7.33429 ],
      "max" : [ 67.0009, 51.8428, 7.33428 ],
      "componentType" : 5126,
      "count" : 860,
      "type" : "VEC3"
    },
    {
      "bufferView" : 130,
      "componentType" : 5126,
      "count" : 860,
      "type" : "VEC3"
    },
    {
      "bufferView" : 131,
      "componentType" : 5126,
      "count" : 860,
      "type" : "VEC4"
    },
    {
      "bufferView" : 132,
      "componentType" : 5126,
      "count" : 860,
      "type" : "VEC2"
    },
    {
      "bufferView" : 133,
      "componentType" : 5126,
      "count" : 860,
      "type" : "VEC2"
    },
    {
      "bufferView" : 134,
      "componentType" : 5126,
      "count" : 860,
      "type" : "VEC2"
    },
    {
      "bufferView" : 135,
      "componentType" : 5126,
      "count" : 860,
      "type" : "VEC2"
    },
    {
      "bufferView" : 136,
      "componentType" : 5123,
      "count" : 3870,
      "type" : "SCALAR"
    },
    {
      "bufferView" : 137,
      "min" : [ 45.442, 14.7559, -14.228 ],
      "max" : [ 73.898, 41.0195, 14.178 ],
      "componentType" : 5126,
      "count" : 1210,
      "type" : "VEC3"
    },
    {
      "bufferView" : 138,
      "componentType" : 5126,
      "count" : 1210,
      "type" : "VEC3"
    },
    {
      "bufferView" : 139,
      "componentType" : 5126,
      "count" : 1210,
      "type" : "VEC4"
    },
    {
      "bufferView" : 140,
      "componentType" : 5126,
      "count" : 1210,
      "type" : "VEC2"
    },
    {
      "bufferView" : 141,
      "componentType" : 5126,
      "count" : 1210,
      "type" : "VEC2"
    },
    {
      "bufferView" : 142,
      "componentType" : 5126,
      "count" : 1210,
      "type" : "VEC2"
    },
    {
      "bufferView" : 143,
      "componentType" : 5126,
      "count" : 1210,
      "type" : "VEC2"
    },
    {
      "bufferView" : 144,
      "componentType" : 5123,
      "count" : 7926,
      "type" : "SCALAR"
    },
    {
      "bufferView" : 145,
      "min" : [ 45.5501, 17.7521, -13.8562 ],
      "max" : [ 73.4433, 52.5872, 16.8724 ],
      "componentType" : 5126,
      "count" : 1851,
      "type" : "VEC3"
    },
    {
      "bufferView" : 146,
      "componentType" : 5126,
      "count" : 1851,
      "type" : "VEC3"
    },
    {
      "bufferView" : 147,
      "componentType" : 5126,
      "count" : 1851,
      "type" : "VEC4"
    },
    {
      "bufferView" : 148,
      "componentType" : 5126,
      "count" : 1851,
      "type" : "VEC2"
    },
    {
      "bufferView" : 149,
      "componentType" : 5126,
      "count" : 1851,
      "type" : "VEC2"
    },
    {
      "bufferView" : 150,
      "componentType" : 5126,
      "count" : 1851,
      "type" : "VEC2"
    },
    {
      "bufferView" : 151,
      "componentType" : 5126,
      "count" : 1851,
      "type" : "VEC2"
    }
  ]
}
