{
  "asset" : {
    "generator" : "UE Viewer (umodel) build 1544 based",
    "version" : "2.0"
  },
  "scene" : 0,
  "scenes" : [
    {
      "nodes" : [ 0 ]
    }
  ],
  "nodes" : [
    {
      "name" : "SM_ENV_LKNVLD_MeshPlane",
      "mesh" : 0
    }
  ],
  "materials" : [
    {
      "name" : "MI_ENV_LKNVLD_Soil_A_BG",
      "pbrMetallicRoughness" : {
        "baseColorFactor" : [ 0.3, 0.3, 0.3, 1.0 ],
        "metallicFactor" : 0.1,
        "roughnessFactor" : 0.5
      }
    }
  ],
  "meshes" : [
    {
      "primitives" : [
        {
          "attributes" : {
            "POSITION" : 1,
            "NORMAL" : 2,
            "TANGENT" : 3,
            "TEXCOORD_0" : 4,
            "TEXCOORD_1" : 5,
            "TEXCOORD_2" : 6,
            "TEXCOORD_3" : 7
          },
          "indices" : 0,
          "material" : 0
        }
      ],
      "name" : "SM_ENV_LKNVLD_MeshPlane"
    }
  ],
  "buffers" : [
    {
      "uri" : "SM_ENV_LKNVLD_MeshPlane.bin",
      "byteLength" : 300
    }
  ],
  "bufferViews" : [
    {
      "buffer" : 0,
      "byteOffset" : 0,
      "byteLength" : 12
    },
    {
      "buffer" : 0,
      "byteOffset" : 12,
      "byteLength" : 48
    },
    {
      "buffer" : 0,
      "byteOffset" : 60,
      "byteLength" : 48
    },
    {
      "buffer" : 0,
      "byteOffset" : 108,
      "byteLength" : 64
    },
    {
      "buffer" : 0,
      "byteOffset" : 172,
      "byteLength" : 32
    },
    {
      "buffer" : 0,
      "byteOffset" : 204,
      "byteLength" : 32
    },
    {
      "buffer" : 0,
      "byteOffset" : 236,
      "byteLength" : 32
    },
    {
      "buffer" : 0,
      "byteOffset" : 268,
      "byteLength" : 32
    }
  ],
  "accessors" : [
    {
      "bufferView" : 0,
      "componentType" : 5123,
      "count" : 6,
      "type" : "SCALAR"
    },
    {
      "bufferView" : 1,
      "min" : [ -5.12, -3.41061e-15, -5.12 ],
      "max" : [ 5.12, 3.41061e-15, 5.12 ],
      "componentType" : 5126,
      "count" : 4,
      "type" : "VEC3"
    },
    {
      "bufferView" : 2,
      "componentType" : 5126,
      "count" : 4,
      "type" : "VEC3"
    },
    {
      "bufferView" : 3,
      "componentType" : 5126,
      "count" : 4,
      "type" : "VEC4"
    },
    {
      "bufferView" : 4,
      "componentType" : 5126,
      "count" : 4,
      "type" : "VEC2"
    },
    {
      "bufferView" : 5,
      "componentType" : 5126,
      "count" : 4,
      "type" : "VEC2"
    },
    {
      "bufferView" : 6,
      "componentType" : 5126,
      "count" : 4,
      "type" : "VEC2"
    },
    {
      "bufferView" : 7,
      "componentType" : 5126,
      "count" : 4,
      "type" : "VEC2"
    }
  ]
}
