{
  "asset" : {
    "generator" : "UE Viewer (umodel) build 1544 based",
    "version" : "2.0"
  },
  "scene" : 0,
  "scenes" : [
    {
      "nodes" : [ 0 ]
    }
  ],
  "nodes" : [
    {
      "name" : "SM_ENV_LKNVLD_RockMiddle_F_Lod2",
      "mesh" : 0
    }
  ],
  "materials" : [
    {
      "name" : "MI_ENV_LKNVLD_MiddleRock_A_LOD",
      "pbrMetallicRoughness" : {
        "baseColorFactor" : [ 0.3, 0.3, 0.3, 1.0 ],
        "metallicFactor" : 0.1,
        "roughnessFactor" : 0.5
      }
    }
  ],
  "meshes" : [
    {
      "primitives" : [
        {
          "attributes" : {
            "POSITION" : 1,
            "NORMAL" : 2,
            "TANGENT" : 3,
            "COLOR_0" : 4,
            "TEXCOORD_0" : 5,
            "TEXCOORD_1" : 6,
            "TEXCOORD_2" : 7,
            "TEXCOORD_3" : 8
          },
          "indices" : 0,
          "material" : 0
        }
      ],
      "name" : "SM_ENV_LKNVLD_RockMiddle_F_Lod2"
    }
  ],
  "buffers" : [
    {
      "uri" : "SM_ENV_LKNVLD_RockMiddle_F_Lod2.bin",
      "byteLength" : 26980
    }
  ],
  "bufferViews" : [
    {
      "buffer" : 0,
      "byteOffset" : 0,
      "byteLength" : 2052
    },
    {
      "buffer" : 0,
      "byteOffset" : 2052,
      "byteLength" : 3936
    },
    {
      "buffer" : 0,
      "byteOffset" : 5988,
      "byteLength" : 3936
    },
    {
      "buffer" : 0,
      "byteOffset" : 9924,
      "byteLength" : 5248
    },
    {
      "buffer" : 0,
      "byteOffset" : 15172,
      "byteLength" : 1312
    },
    {
      "buffer" : 0,
      "byteOffset" : 16484,
      "byteLength" : 2624
    },
    {
      "buffer" : 0,
      "byteOffset" : 19108,
      "byteLength" : 2624
    },
    {
      "buffer" : 0,
      "byteOffset" : 21732,
      "byteLength" : 2624
    },
    {
      "buffer" : 0,
      "byteOffset" : 24356,
      "byteLength" : 2624
    }
  ],
  "accessors" : [
    {
      "bufferView" : 0,
      "componentType" : 5123,
      "count" : 1026,
      "type" : "SCALAR"
    },
    {
      "bufferView" : 1,
      "min" : [ 15.4622, -0.315249, -33.6806 ],
      "max" : [ 19.7473, 0.61112, -29.6663 ],
      "componentType" : 5126,
      "count" : 328,
      "type" : "VEC3"
    },
    {
      "bufferView" : 2,
      "componentType" : 5126,
      "count" : 328,
      "type" : "VEC3"
    },
    {
      "bufferView" : 3,
      "componentType" : 5126,
      "count" : 328,
      "type" : "VEC4"
    },
    {
      "bufferView" : 4,
      "normalized" : true,
      "componentType" : 5121,
      "count" : 328,
      "type" : "VEC4"
    },
    {
      "bufferView" : 5,
      "componentType" : 5126,
      "count" : 328,
      "type" : "VEC2"
    },
    {
      "bufferView" : 6,
      "componentType" : 5126,
      "count" : 328,
      "type" : "VEC2"
    },
    {
      "bufferView" : 7,
      "componentType" : 5126,
      "count" : 328,
      "type" : "VEC2"
    },
    {
      "bufferView" : 8,
      "componentType" : 5126,
      "count" : 328,
      "type" : "VEC2"
    }
  ]
}
