{
  "asset" : {
    "generator" : "UE Viewer (umodel) build 1544 based",
    "version" : "2.0"
  },
  "scene" : 0,
  "scenes" : [
    {
      "nodes" : [ 0 ]
    }
  ],
  "nodes" : [
    {
      "name" : "SM_ENV_LKNVLD_Hatago_Front",
      "mesh" : 0
    }
  ],
  "materials" : [
    {
      "name" : "MI_ENV_LKNVLD_Eaves_E",
      "pbrMetallicRoughness" : {
        "baseColorFactor" : [ 0.3, 0.3, 0.3, 1.0 ],
        "metallicFactor" : 0.1,
        "roughnessFactor" : 0.5
      }
    },
    {
      "name" : "MI_ENV_LKNVLD_RoofTiles_Green",
      "pbrMetallicRoughness" : {
        "baseColorFactor" : [ 0.9, 0.3, 0.3, 1.0 ],
        "metallicFactor" : 0.1,
        "roughnessFactor" : 0.5
      }
    },
    {
      "name" : "MI_ENV_LKNVLD_Aircon_E",
      "pbrMetallicRoughness" : {
        "baseColorFactor" : [ 0.3, 0.9, 0.3, 1.0 ],
        "metallicFactor" : 0.1,
        "roughnessFactor" : 0.5
      }
    },
    {
      "name" : "MI_ENV_LKNVLD_WoodWindows_D",
      "pbrMetallicRoughness" : {
        "baseColorFactor" : [ 0.3, 0.3, 0.9, 1.0 ],
        "metallicFactor" : 0.1,
        "roughnessFactor" : 0.5
      }
    },
    {
      "name" : "MI_ENV_LKNVLD_WoodPlain_Beige",
      "pbrMetallicRoughness" : {
        "baseColorFactor" : [ 0.9, 0.9, 0.9, 1.0 ],
        "metallicFactor" : 0.1,
        "roughnessFactor" : 0.5
      }
    },
    {
      "name" : "MI_ENV_LKNVLD_BambooWall",
      "pbrMetallicRoughness" : {
        "baseColorFactor" : [ 0.9, 0.9, 0.3, 1.0 ],
        "metallicFactor" : 0.1,
        "roughnessFactor" : 0.5
      }
    },
    {
      "name" : "MI_ENV_LKNVLD_Aircon_H",
      "pbrMetallicRoughness" : {
        "baseColorFactor" : [ 0.9, 0.3, 0.9, 1.0 ],
        "metallicFactor" : 0.1,
        "roughnessFactor" : 0.5
      }
    },
    {
      "name" : "MI_ENV_LKNVLD_MetalRoof_Green",
      "pbrMetallicRoughness" : {
        "baseColorFactor" : [ 0.3, 0.9, 0.9, 1.0 ],
        "metallicFactor" : 0.1,
        "roughnessFactor" : 0.5
      }
    },
    {
      "name" : "MI_ENV_LKNVLD_Curtain_F",
      "pbrMetallicRoughness" : {
        "baseColorFactor" : [ 1, 0.3, 0.3, 1.0 ],
        "metallicFactor" : 0.1,
        "roughnessFactor" : 0.5
      }
    },
    {
      "name" : "MI_ENV_LKNVLD_WoodPlain_Brown",
      "pbrMetallicRoughness" : {
        "baseColorFactor" : [ 0.6, 0.3, 0.3, 1.0 ],
        "metallicFactor" : 0.1,
        "roughnessFactor" : 0.5
      }
    },
    {
      "name" : "MI_ENV_LKNVLD_ClanSignboard_I",
      "pbrMetallicRoughness" : {
        "baseColorFactor" : [ 1, 0.9, 0.3, 1.0 ],
        "metallicFactor" : 0.1,
        "roughnessFactor" : 0.5
      }
    },
    {
      "name" : "MI_ENV_LKNVLD_Plaster_White",
      "pbrMetallicRoughness" : {
        "baseColorFactor" : [ 1, 0.3, 0.9, 1.0 ],
        "metallicFactor" : 0.1,
        "roughnessFactor" : 0.5
      }
    },
    {
      "name" : "MI_ENV_LKNVLD_WoodWindows_C",
      "pbrMetallicRoughness" : {
        "baseColorFactor" : [ 0.6, 0.9, 0.9, 1.0 ],
        "metallicFactor" : 0.1,
        "roughnessFactor" : 0.5
      }
    },
    {
      "name" : "MI_ENV_LKNVLD_MetalRoofDark",
      "pbrMetallicRoughness" : {
        "baseColorFactor" : [ 0.6, 0.9, 0.3, 1.0 ],
        "metallicFactor" : 0.1,
        "roughnessFactor" : 0.5
      }
    },
    {
      "name" : "MI_T_ENV_LKNVLD_StoneStairs",
      "pbrMetallicRoughness" : {
        "baseColorFactor" : [ 0.6, 0.3, 0.9, 1.0 ],
        "metallicFactor" : 0.1,
        "roughnessFactor" : 0.5
      }
    },
    {
      "name" : "MI_T_ENV_LKNVLD_StoneTrim",
      "pbrMetallicRoughness" : {
        "baseColorFactor" : [ 1, 0.9, 0.9, 1.0 ],
        "metallicFactor" : 0.1,
        "roughnessFactor" : 0.5
      }
    },
    {
      "name" : "MI_ENV_LKNVLD_ClanSignboard_H",
      "pbrMetallicRoughness" : {
        "baseColorFactor" : [ 0.3, 1, 0.3, 1.0 ],
        "metallicFactor" : 0.1,
        "roughnessFactor" : 0.5
      }
    },
    {
      "name" : "MI_ENV_LKNVLD_Pipe_A",
      "pbrMetallicRoughness" : {
        "baseColorFactor" : [ 0.9, 1, 0.3, 1.0 ],
        "metallicFactor" : 0.1,
        "roughnessFactor" : 0.5
      }
    }
  ],
  "meshes" : [
    {
      "primitives" : [
        {
          "attributes" : {
            "POSITION" : 1,
            "NORMAL" : 2,
            "TANGENT" : 3,
            "COLOR_0" : 4,
            "TEXCOORD_0" : 5,
            "TEXCOORD_1" : 6,
            "TEXCOORD_2" : 7,
            "TEXCOORD_3" : 8
          },
          "indices" : 0,
          "material" : 0
        },
        {
          "attributes" : {
            "POSITION" : 10,
            "NORMAL" : 11,
            "TANGENT" : 12,
            "COLOR_0" : 13,
            "TEXCOORD_0" : 14,
            "TEXCOORD_1" : 15,
            "TEXCOORD_2" : 16,
            "TEXCOORD_3" : 17
          },
          "indices" : 9,
          "material" : 1
        },
        {
          "attributes" : {
            "POSITION" : 19,
            "NORMAL" : 20,
            "TANGENT" : 21,
            "COLOR_0" : 22,
            "TEXCOORD_0" : 23,
            "TEXCOORD_1" : 24,
            "TEXCOORD_2" : 25,
            "TEXCOORD_3" : 26
          },
          "indices" : 18,
          "material" : 2
        },
        {
          "attributes" : {
            "POSITION" : 28,
            "NORMAL" : 29,
            "TANGENT" : 30,
            "COLOR_0" : 31,
            "TEXCOORD_0" : 32,
            "TEXCOORD_1" : 33,
            "TEXCOORD_2" : 34,
            "TEXCOORD_3" : 35
          },
          "indices" : 27,
          "material" : 3
        },
        {
          "attributes" : {
            "POSITION" : 37,
            "NORMAL" : 38,
            "TANGENT" : 39,
            "COLOR_0" : 40,
            "TEXCOORD_0" : 41,
            "TEXCOORD_1" : 42,
            "TEXCOORD_2" : 43,
            "TEXCOORD_3" : 44
          },
          "indices" : 36,
          "material" : 4
        },
        {
          "attributes" : {
            "POSITION" : 46,
            "NORMAL" : 47,
            "TANGENT" : 48,
            "COLOR_0" : 49,
            "TEXCOORD_0" : 50,
            "TEXCOORD_1" : 51,
            "TEXCOORD_2" : 52,
            "TEXCOORD_3" : 53
          },
          "indices" : 45,
          "material" : 5
        },
        {
          "attributes" : {
            "POSITION" : 55,
            "NORMAL" : 56,
            "TANGENT" : 57,
            "COLOR_0" : 58,
            "TEXCOORD_0" : 59,
            "TEXCOORD_1" : 60,
            "TEXCOORD_2" : 61,
            "TEXCOORD_3" : 62
          },
          "indices" : 54,
          "material" : 6
        },
        {
          "attributes" : {
            "POSITION" : 64,
            "NORMAL" : 65,
            "TANGENT" : 66,
            "COLOR_0" : 67,
            "TEXCOORD_0" : 68,
            "TEXCOORD_1" : 69,
            "TEXCOORD_2" : 70,
            "TEXCOORD_3" : 71
          },
          "indices" : 63,
          "material" : 7
        },
        {
          "attributes" : {
            "POSITION" : 73,
            "NORMAL" : 74,
            "TANGENT" : 75,
            "COLOR_0" : 76,
            "TEXCOORD_0" : 77,
            "TEXCOORD_1" : 78,
            "TEXCOORD_2" : 79,
            "TEXCOORD_3" : 80
          },
          "indices" : 72,
          "material" : 8
        },
        {
          "attributes" : {
            "POSITION" : 82,
            "NORMAL" : 83,
            "TANGENT" : 84,
            "COLOR_0" : 85,
            "TEXCOORD_0" : 86,
            "TEXCOORD_1" : 87,
            "TEXCOORD_2" : 88,
            "TEXCOORD_3" : 89
          },
          "indices" : 81,
          "material" : 9
        },
        {
          "attributes" : {
            "POSITION" : 91,
            "NORMAL" : 92,
            "TANGENT" : 93,
            "COLOR_0" : 94,
            "TEXCOORD_0" : 95,
            "TEXCOORD_1" : 96,
            "TEXCOORD_2" : 97,
            "TEXCOORD_3" : 98
          },
          "indices" : 90,
          "material" : 10
        },
        {
          "attributes" : {
            "POSITION" : 100,
            "NORMAL" : 101,
            "TANGENT" : 102,
            "COLOR_0" : 103,
            "TEXCOORD_0" : 104,
            "TEXCOORD_1" : 105,
            "TEXCOORD_2" : 106,
            "TEXCOORD_3" : 107
          },
          "indices" : 99,
          "material" : 11
        },
        {
          "attributes" : {
            "POSITION" : 109,
            "NORMAL" : 110,
            "TANGENT" : 111,
            "COLOR_0" : 112,
            "TEXCOORD_0" : 113,
            "TEXCOORD_1" : 114,
            "TEXCOORD_2" : 115,
            "TEXCOORD_3" : 116
          },
          "indices" : 108,
          "material" : 12
        },
        {
          "attributes" : {
            "POSITION" : 118,
            "NORMAL" : 119,
            "TANGENT" : 120,
            "COLOR_0" : 121,
            "TEXCOORD_0" : 122,
            "TEXCOORD_1" : 123,
            "TEXCOORD_2" : 124,
            "TEXCOORD_3" : 125
          },
          "indices" : 117,
          "material" : 13
        },
        {
          "attributes" : {
            "POSITION" : 127,
            "NORMAL" : 128,
            "TANGENT" : 129,
            "COLOR_0" : 130,
            "TEXCOORD_0" : 131,
            "TEXCOORD_1" : 132,
            "TEXCOORD_2" : 133,
            "TEXCOORD_3" : 134
          },
          "indices" : 126,
          "material" : 14
        },
        {
          "attributes" : {
            "POSITION" : 136,
            "NORMAL" : 137,
            "TANGENT" : 138,
            "COLOR_0" : 139,
            "TEXCOORD_0" : 140,
            "TEXCOORD_1" : 141,
            "TEXCOORD_2" : 142,
            "TEXCOORD_3" : 143
          },
          "indices" : 135,
          "material" : 15
        },
        {
          "attributes" : {
            "POSITION" : 145,
            "NORMAL" : 146,
            "TANGENT" : 147,
            "COLOR_0" : 148,
            "TEXCOORD_0" : 149,
            "TEXCOORD_1" : 150,
            "TEXCOORD_2" : 151,
            "TEXCOORD_3" : 152
          },
          "indices" : 144,
          "material" : 16
        },
        {
          "attributes" : {
            "POSITION" : 154,
            "NORMAL" : 155,
            "TANGENT" : 156,
            "COLOR_0" : 157,
            "TEXCOORD_0" : 158,
            "TEXCOORD_1" : 159,
            "TEXCOORD_2" : 160,
            "TEXCOORD_3" : 161
          },
          "indices" : 153,
          "material" : 17
        }
      ],
      "name" : "SM_ENV_LKNVLD_Hatago_Front"
    }
  ],
  "buffers" : [
    {
      "uri" : "SM_ENV_LKNVLD_Hatago_Front.bin",
      "byteLength" : 737480
    }
  ],
  "bufferViews" : [
    {
      "buffer" : 0,
      "byteOffset" : 0,
      "byteLength" : 4188
    },
    {
      "buffer" : 0,
      "byteOffset" : 4188,
      "byteLength" : 13788
    },
    {
      "buffer" : 0,
      "byteOffset" : 17976,
      "byteLength" : 13788
    },
    {
      "buffer" : 0,
      "byteOffset" : 31764,
      "byteLength" : 18384
    },
    {
      "buffer" : 0,
      "byteOffset" : 50148,
      "byteLength" : 4596
    },
    {
      "buffer" : 0,
      "byteOffset" : 54744,
      "byteLength" : 9192
    },
    {
      "buffer" : 0,
      "byteOffset" : 63936,
      "byteLength" : 9192
    },
    {
      "buffer" : 0,
      "byteOffset" : 73128,
      "byteLength" : 9192
    },
    {
      "buffer" : 0,
      "byteOffset" : 82320,
      "byteLength" : 9192
    },
    {
      "buffer" : 0,
      "byteOffset" : 91512,
      "byteLength" : 9612
    },
    {
      "buffer" : 0,
      "byteOffset" : 101124,
      "byteLength" : 15888
    },
    {
      "buffer" : 0,
      "byteOffset" : 117012,
      "byteLength" : 15888
    },
    {
      "buffer" : 0,
      "byteOffset" : 132900,
      "byteLength" : 21184
    },
    {
      "buffer" : 0,
      "byteOffset" : 154084,
      "byteLength" : 5296
    },
    {
      "buffer" : 0,
      "byteOffset" : 159380,
      "byteLength" : 10592
    },
    {
      "buffer" : 0,
      "byteOffset" : 169972,
      "byteLength" : 10592
    },
    {
      "buffer" : 0,
      "byteOffset" : 180564,
      "byteLength" : 10592
    },
    {
      "buffer" : 0,
      "byteOffset" : 191156,
      "byteLength" : 10592
    },
    {
      "buffer" : 0,
      "byteOffset" : 201748,
      "byteLength" : 7656
    },
    {
      "buffer" : 0,
      "byteOffset" : 209404,
      "byteLength" : 10320
    },
    {
      "buffer" : 0,
      "byteOffset" : 219724,
      "byteLength" : 10320
    },
    {
      "buffer" : 0,
      "byteOffset" : 230044,
      "byteLength" : 13760
    },
    {
      "buffer" : 0,
      "byteOffset" : 243804,
      "byteLength" : 3440
    },
    {
      "buffer" : 0,
      "byteOffset" : 247244,
      "byteLength" : 6880
    },
    {
      "buffer" : 0,
      "byteOffset" : 254124,
      "byteLength" : 6880
    },
    {
      "buffer" : 0,
      "byteOffset" : 261004,
      "byteLength" : 6880
    },
    {
      "buffer" : 0,
      "byteOffset" : 267884,
      "byteLength" : 6880
    },
    {
      "buffer" : 0,
      "byteOffset" : 274764,
      "byteLength" : 48
    },
    {
      "buffer" : 0,
      "byteOffset" : 274812,
      "byteLength" : 192
    },
    {
      "buffer" : 0,
      "byteOffset" : 275004,
      "byteLength" : 192
    },
    {
      "buffer" : 0,
      "byteOffset" : 275196,
      "byteLength" : 256
    },
    {
      "buffer" : 0,
      "byteOffset" : 275452,
      "byteLength" : 64
    },
    {
      "buffer" : 0,
      "byteOffset" : 275516,
      "byteLength" : 128
    },
    {
      "buffer" : 0,
      "byteOffset" : 275644,
      "byteLength" : 128
    },
    {
      "buffer" : 0,
      "byteOffset" : 275772,
      "byteLength" : 128
    },
    {
      "buffer" : 0,
      "byteOffset" : 275900,
      "byteLength" : 128
    },
    {
      "buffer" : 0,
      "byteOffset" : 276028,
      "byteLength" : 1176
    },
    {
      "buffer" : 0,
      "byteOffset" : 277204,
      "byteLength" : 2976
    },
    {
      "buffer" : 0,
      "byteOffset" : 280180,
      "byteLength" : 2976
    },
    {
      "buffer" : 0,
      "byteOffset" : 283156,
      "byteLength" : 3968
    },
    {
      "buffer" : 0,
      "byteOffset" : 287124,
      "byteLength" : 992
    },
    {
      "buffer" : 0,
      "byteOffset" : 288116,
      "byteLength" : 1984
    },
    {
      "buffer" : 0,
      "byteOffset" : 290100,
      "byteLength" : 1984
    },
    {
      "buffer" : 0,
      "byteOffset" : 292084,
      "byteLength" : 1984
    },
    {
      "buffer" : 0,
      "byteOffset" : 294068,
      "byteLength" : 1984
    },
    {
      "buffer" : 0,
      "byteOffset" : 296052,
      "byteLength" : 9588
    },
    {
      "buffer" : 0,
      "byteOffset" : 305640,
      "byteLength" : 11376
    },
    {
      "buffer" : 0,
      "byteOffset" : 317016,
      "byteLength" : 11376
    },
    {
      "buffer" : 0,
      "byteOffset" : 328392,
      "byteLength" : 15168
    },
    {
      "buffer" : 0,
      "byteOffset" : 343560,
      "byteLength" : 3792
    },
    {
      "buffer" : 0,
      "byteOffset" : 347352,
      "byteLength" : 7584
    },
    {
      "buffer" : 0,
      "byteOffset" : 354936,
      "byteLength" : 7584
    },
    {
      "buffer" : 0,
      "byteOffset" : 362520,
      "byteLength" : 7584
    },
    {
      "buffer" : 0,
      "byteOffset" : 370104,
      "byteLength" : 7584
    },
    {
      "buffer" : 0,
      "byteOffset" : 377688,
      "byteLength" : 288
    },
    {
      "buffer" : 0,
      "byteOffset" : 377976,
      "byteLength" : 768
    },
    {
      "buffer" : 0,
      "byteOffset" : 378744,
      "byteLength" : 768
    },
    {
      "buffer" : 0,
      "byteOffset" : 379512,
      "byteLength" : 1024
    },
    {
      "buffer" : 0,
      "byteOffset" : 380536,
      "byteLength" : 256
    },
    {
      "buffer" : 0,
      "byteOffset" : 380792,
      "byteLength" : 512
    },
    {
      "buffer" : 0,
      "byteOffset" : 381304,
      "byteLength" : 512
    },
    {
      "buffer" : 0,
      "byteOffset" : 381816,
      "byteLength" : 512
    },
    {
      "buffer" : 0,
      "byteOffset" : 382328,
      "byteLength" : 512
    },
    {
      "buffer" : 0,
      "byteOffset" : 382840,
      "byteLength" : 2340
    },
    {
      "buffer" : 0,
      "byteOffset" : 385180,
      "byteLength" : 5568
    },
    {
      "buffer" : 0,
      "byteOffset" : 390748,
      "byteLength" : 5568
    },
    {
      "buffer" : 0,
      "byteOffset" : 396316,
      "byteLength" : 7424
    },
    {
      "buffer" : 0,
      "byteOffset" : 403740,
      "byteLength" : 1856
    },
    {
      "buffer" : 0,
      "byteOffset" : 405596,
      "byteLength" : 3712
    },
    {
      "buffer" : 0,
      "byteOffset" : 409308,
      "byteLength" : 3712
    },
    {
      "buffer" : 0,
      "byteOffset" : 413020,
      "byteLength" : 3712
    },
    {
      "buffer" : 0,
      "byteOffset" : 416732,
      "byteLength" : 3712
    },
    {
      "buffer" : 0,
      "byteOffset" : 420444,
      "byteLength" : 956
    },
    {
      "buffer" : 0,
      "byteOffset" : 421400,
      "byteLength" : 1656
    },
    {
      "buffer" : 0,
      "byteOffset" : 423056,
      "byteLength" : 1656
    },
    {
      "buffer" : 0,
      "byteOffset" : 424712,
      "byteLength" : 2208
    },
    {
      "buffer" : 0,
      "byteOffset" : 426920,
      "byteLength" : 552
    },
    {
      "buffer" : 0,
      "byteOffset" : 427472,
      "byteLength" : 1104
    },
    {
      "buffer" : 0,
      "byteOffset" : 428576,
      "byteLength" : 1104
    },
    {
      "buffer" : 0,
      "byteOffset" : 429680,
      "byteLength" : 1104
    },
    {
      "buffer" : 0,
      "byteOffset" : 430784,
      "byteLength" : 1104
    },
    {
      "buffer" : 0,
      "byteOffset" : 431888,
      "byteLength" : 8784
    },
    {
      "buffer" : 0,
      "byteOffset" : 440672,
      "byteLength" : 17280
    },
    {
      "buffer" : 0,
      "byteOffset" : 457952,
      "byteLength" : 17280
    },
    {
      "buffer" : 0,
      "byteOffset" : 475232,
      "byteLength" : 23040
    },
    {
      "buffer" : 0,
      "byteOffset" : 498272,
      "byteLength" : 5760
    },
    {
      "buffer" : 0,
      "byteOffset" : 504032,
      "byteLength" : 11520
    },
    {
      "buffer" : 0,
      "byteOffset" : 515552,
      "byteLength" : 11520
    },
    {
      "buffer" : 0,
      "byteOffset" : 527072,
      "byteLength" : 11520
    },
    {
      "buffer" : 0,
      "byteOffset" : 538592,
      "byteLength" : 11520
    },
    {
      "buffer" : 0,
      "byteOffset" : 550112,
      "byteLength" : 5412
    },
    {
      "buffer" : 0,
      "byteOffset" : 555524,
      "byteLength" : 11496
    },
    {
      "buffer" : 0,
      "byteOffset" : 567020,
      "byteLength" : 11496
    },
    {
      "buffer" : 0,
      "byteOffset" : 578516,
      "byteLength" : 15328
    },
    {
      "buffer" : 0,
      "byteOffset" : 593844,
      "byteLength" : 3832
    },
    {
      "buffer" : 0,
      "byteOffset" : 597676,
      "byteLength" : 7664
    },
    {
      "buffer" : 0,
      "byteOffset" : 605340,
      "byteLength" : 7664
    },
    {
      "buffer" : 0,
      "byteOffset" : 613004,
      "byteLength" : 7664
    },
    {
      "buffer" : 0,
      "byteOffset" : 620668,
      "byteLength" : 7664
    },
    {
      "buffer" : 0,
      "byteOffset" : 628332,
      "byteLength" : 288
    },
    {
      "buffer" : 0,
      "byteOffset" : 628620,
      "byteLength" : 1104
    },
    {
      "buffer" : 0,
      "byteOffset" : 629724,
      "byteLength" : 1104
    },
    {
      "buffer" : 0,
      "byteOffset" : 630828,
      "byteLength" : 1472
    },
    {
      "buffer" : 0,
      "byteOffset" : 632300,
      "byteLength" : 368
    },
    {
      "buffer" : 0,
      "byteOffset" : 632668,
      "byteLength" : 736
    },
    {
      "buffer" : 0,
      "byteOffset" : 633404,
      "byteLength" : 736
    },
    {
      "buffer" : 0,
      "byteOffset" : 634140,
      "byteLength" : 736
    },
    {
      "buffer" : 0,
      "byteOffset" : 634876,
      "byteLength" : 736
    },
    {
      "buffer" : 0,
      "byteOffset" : 635612,
      "byteLength" : 168
    },
    {
      "buffer" : 0,
      "byteOffset" : 635780,
      "byteLength" : 672
    },
    {
      "buffer" : 0,
      "byteOffset" : 636452,
      "byteLength" : 672
    },
    {
      "buffer" : 0,
      "byteOffset" : 637124,
      "byteLength" : 896
    },
    {
      "buffer" : 0,
      "byteOffset" : 638020,
      "byteLength" : 224
    },
    {
      "buffer" : 0,
      "byteOffset" : 638244,
      "byteLength" : 448
    },
    {
      "buffer" : 0,
      "byteOffset" : 638692,
      "byteLength" : 448
    },
    {
      "buffer" : 0,
      "byteOffset" : 639140,
      "byteLength" : 448
    },
    {
      "buffer" : 0,
      "byteOffset" : 639588,
      "byteLength" : 448
    },
    {
      "buffer" : 0,
      "byteOffset" : 640036,
      "byteLength" : 336
    },
    {
      "buffer" : 0,
      "byteOffset" : 640372,
      "byteLength" : 1152
    },
    {
      "buffer" : 0,
      "byteOffset" : 641524,
      "byteLength" : 1152
    },
    {
      "buffer" : 0,
      "byteOffset" : 642676,
      "byteLength" : 1536
    },
    {
      "buffer" : 0,
      "byteOffset" : 644212,
      "byteLength" : 384
    },
    {
      "buffer" : 0,
      "byteOffset" : 644596,
      "byteLength" : 768
    },
    {
      "buffer" : 0,
      "byteOffset" : 645364,
      "byteLength" : 768
    },
    {
      "buffer" : 0,
      "byteOffset" : 646132,
      "byteLength" : 768
    },
    {
      "buffer" : 0,
      "byteOffset" : 646900,
      "byteLength" : 768
    },
    {
      "buffer" : 0,
      "byteOffset" : 647668,
      "byteLength" : 1392
    },
    {
      "buffer" : 0,
      "byteOffset" : 649060,
      "byteLength" : 2496
    },
    {
      "buffer" : 0,
      "byteOffset" : 651556,
      "byteLength" : 2496
    },
    {
      "buffer" : 0,
      "byteOffset" : 654052,
      "byteLength" : 3328
    },
    {
      "buffer" : 0,
      "byteOffset" : 657380,
      "byteLength" : 832
    },
    {
      "buffer" : 0,
      "byteOffset" : 658212,
      "byteLength" : 1664
    },
    {
      "buffer" : 0,
      "byteOffset" : 659876,
      "byteLength" : 1664
    },
    {
      "buffer" : 0,
      "byteOffset" : 661540,
      "byteLength" : 1664
    },
    {
      "buffer" : 0,
      "byteOffset" : 663204,
      "byteLength" : 1664
    },
    {
      "buffer" : 0,
      "byteOffset" : 664868,
      "byteLength" : 1812
    },
    {
      "buffer" : 0,
      "byteOffset" : 666680,
      "byteLength" : 2496
    },
    {
      "buffer" : 0,
      "byteOffset" : 669176,
      "byteLength" : 2496
    },
    {
      "buffer" : 0,
      "byteOffset" : 671672,
      "byteLength" : 3328
    },
    {
      "buffer" : 0,
      "byteOffset" : 675000,
      "byteLength" : 832
    },
    {
      "buffer" : 0,
      "byteOffset" : 675832,
      "byteLength" : 1664
    },
    {
      "buffer" : 0,
      "byteOffset" : 677496,
      "byteLength" : 1664
    },
    {
      "buffer" : 0,
      "byteOffset" : 679160,
      "byteLength" : 1664
    },
    {
      "buffer" : 0,
      "byteOffset" : 680824,
      "byteLength" : 1664
    },
    {
      "buffer" : 0,
      "byteOffset" : 682488,
      "byteLength" : 2088
    },
    {
      "buffer" : 0,
      "byteOffset" : 684576,
      "byteLength" : 3024
    },
    {
      "buffer" : 0,
      "byteOffset" : 687600,
      "byteLength" : 3024
    },
    {
      "buffer" : 0,
      "byteOffset" : 690624,
      "byteLength" : 4032
    },
    {
      "buffer" : 0,
      "byteOffset" : 694656,
      "byteLength" : 1008
    },
    {
      "buffer" : 0,
      "byteOffset" : 695664,
      "byteLength" : 2016
    },
    {
      "buffer" : 0,
      "byteOffset" : 697680,
      "byteLength" : 2016
    },
    {
      "buffer" : 0,
      "byteOffset" : 699696,
      "byteLength" : 2016
    },
    {
      "buffer" : 0,
      "byteOffset" : 701712,
      "byteLength" : 2016
    },
    {
      "buffer" : 0,
      "byteOffset" : 703728,
      "byteLength" : 3960
    },
    {
      "buffer" : 0,
      "byteOffset" : 707688,
      "byteLength" : 4704
    },
    {
      "buffer" : 0,
      "byteOffset" : 712392,
      "byteLength" : 4704
    },
    {
      "buffer" : 0,
      "byteOffset" : 717096,
      "byteLength" : 6272
    },
    {
      "buffer" : 0,
      "byteOffset" : 723368,
      "byteLength" : 1568
    },
    {
      "buffer" : 0,
      "byteOffset" : 724936,
      "byteLength" : 3136
    },
    {
      "buffer" : 0,
      "byteOffset" : 728072,
      "byteLength" : 3136
    },
    {
      "buffer" : 0,
      "byteOffset" : 731208,
      "byteLength" : 3136
    },
    {
      "buffer" : 0,
      "byteOffset" : 734344,
      "byteLength" : 3136
    }
  ],
  "accessors" : [
    {
      "bufferView" : 0,
      "componentType" : 5123,
      "count" : 2094,
      "type" : "SCALAR"
    },
    {
      "bufferView" : 1,
      "min" : [ -33.4972, 4.1635, -8.44826 ],
      "max" : [ -29.4227, 6.91912, 7.89424 ],
      "componentType" : 5126,
      "count" : 1149,
      "type" : "VEC3"
    },
    {
      "bufferView" : 2,
      "componentType" : 5126,
      "count" : 1149,
      "type" : "VEC3"
    },
    {
      "bufferView" : 3,
      "componentType" : 5126,
      "count" : 1149,
      "type" : "VEC4"
    },
    {
      "bufferView" : 4,
      "normalized" : true,
      "componentType" : 5121,
      "count" : 1149,
      "type" : "VEC4"
    },
    {
      "bufferView" : 5,
      "componentType" : 5126,
      "count" : 1149,
      "type" : "VEC2"
    },
    {
      "bufferView" : 6,
      "componentType" : 5126,
      "count" : 1149,
      "type" : "VEC2"
    },
    {
      "bufferView" : 7,
      "componentType" : 5126,
      "count" : 1149,
      "type" : "VEC2"
    },
    {
      "bufferView" : 8,
      "componentType" : 5126,
      "count" : 1149,
      "type" : "VEC2"
    },
    {
      "bufferView" : 9,
      "componentType" : 5123,
      "count" : 4806,
      "type" : "SCALAR"
    },
    {
      "bufferView" : 10,
      "min" : [ -33.4972, 6.66311, -7.40516 ],
      "max" : [ -30.7552, 9.12774, 6.85004 ],
      "componentType" : 5126,
      "count" : 1324,
      "type" : "VEC3"
    },
    {
      "bufferView" : 11,
      "componentType" : 5126,
      "count" : 1324,
      "type" : "VEC3"
    },
    {
      "bufferView" : 12,
      "componentType" : 5126,
      "count" : 1324,
      "type" : "VEC4"
    },
    {
      "bufferView" : 13,
      "normalized" : true,
      "componentType" : 5121,
      "count" : 1324,
      "type" : "VEC4"
    },
    {
      "bufferView" : 14,
      "componentType" : 5126,
      "count" : 1324,
      "type" : "VEC2"
    },
    {
      "bufferView" : 15,
      "componentType" : 5126,
      "count" : 1324,
      "type" : "VEC2"
    },
    {
      "bufferView" : 16,
      "componentType" : 5126,
      "count" : 1324,
      "type" : "VEC2"
    },
    {
      "bufferView" : 17,
      "componentType" : 5126,
      "count" : 1324,
      "type" : "VEC2"
    },
    {
      "bufferView" : 18,
      "componentType" : 5123,
      "count" : 3828,
      "type" : "SCALAR"
    },
    {
      "bufferView" : 19,
      "min" : [ -30.6779, 4.12499, -7.22396 ],
      "max" : [ -29.8645, 5.81089, 6.62647 ],
      "componentType" : 5126,
      "count" : 860,
      "type" : "VEC3"
    },
    {
      "bufferView" : 20,
      "componentType" : 5126,
      "count" : 860,
      "type" : "VEC3"
    },
    {
      "bufferView" : 21,
      "componentType" : 5126,
      "count" : 860,
      "type" : "VEC4"
    },
    {
      "bufferView" : 22,
      "normalized" : true,
      "componentType" : 5121,
      "count" : 860,
      "type" : "VEC4"
    },
    {
      "bufferView" : 23,
      "componentType" : 5126,
      "count" : 860,
      "type" : "VEC2"
    },
    {
      "bufferView" : 24,
      "componentType" : 5126,
      "count" : 860,
      "type" : "VEC2"
    },
    {
      "bufferView" : 25,
      "componentType" : 5126,
      "count" : 860,
      "type" : "VEC2"
    },
    {
      "bufferView" : 26,
      "componentType" : 5126,
      "count" : 860,
      "type" : "VEC2"
    },
    {
      "bufferView" : 27,
      "componentType" : 5123,
      "count" : 24,
      "type" : "SCALAR"
    },
    {
      "bufferView" : 28,
      "min" : [ -31.6361, 1.23786, -3.69546 ],
      "max" : [ -31.5361, 4.0006, 3.14154 ],
      "componentType" : 5126,
      "count" : 16,
      "type" : "VEC3"
    },
    {
      "bufferView" : 29,
      "componentType" : 5126,
      "count" : 16,
      "type" : "VEC3"
    },
    {
      "bufferView" : 30,
      "componentType" : 5126,
      "count" : 16,
      "type" : "VEC4"
    },
    {
      "bufferView" : 31,
      "normalized" : true,
      "componentType" : 5121,
      "count" : 16,
      "type" : "VEC4"
    },
    {
      "bufferView" : 32,
      "componentType" : 5126,
      "count" : 16,
      "type" : "VEC2"
    },
    {
      "bufferView" : 33,
      "componentType" : 5126,
      "count" : 16,
      "type" : "VEC2"
    },
    {
      "bufferView" : 34,
      "componentType" : 5126,
      "count" : 16,
      "type" : "VEC2"
    },
    {
      "bufferView" : 35,
      "componentType" : 5126,
      "count" : 16,
      "type" : "VEC2"
    },
    {
      "bufferView" : 36,
      "componentType" : 5123,
      "count" : 588,
      "type" : "SCALAR"
    },
    {
      "bufferView" : 37,
      "min" : [ -31.6361, 0.327986, -4.19546 ],
      "max" : [ -31.3054, 4.1635, 3.64144 ],
      "componentType" : 5126,
      "count" : 248,
      "type" : "VEC3"
    },
    {
      "bufferView" : 38,
      "componentType" : 5126,
      "count" : 248,
      "type" : "VEC3"
    },
    {
      "bufferView" : 39,
      "componentType" : 5126,
      "count" : 248,
      "type" : "VEC4"
    },
    {
      "bufferView" : 40,
      "normalized" : true,
      "componentType" : 5121,
      "count" : 248,
      "type" : "VEC4"
    },
    {
      "bufferView" : 41,
      "componentType" : 5126,
      "count" : 248,
      "type" : "VEC2"
    },
    {
      "bufferView" : 42,
      "componentType" : 5126,
      "count" : 248,
      "type" : "VEC2"
    },
    {
      "bufferView" : 43,
      "componentType" : 5126,
      "count" : 248,
      "type" : "VEC2"
    },
    {
      "bufferView" : 44,
      "componentType" : 5126,
      "count" : 248,
      "type" : "VEC2"
    },
    {
      "bufferView" : 45,
      "componentType" : 5123,
      "count" : 4794,
      "type" : "SCALAR"
    },
    {
      "bufferView" : 46,
      "min" : [ -32.8251, 0.407258, -7.48461 ],
      "max" : [ -30.7612, 6.61915, 6.93252 ],
      "componentType" : 5126,
      "count" : 948,
      "type" : "VEC3"
    },
    {
      "bufferView" : 47,
      "componentType" : 5126,
      "count" : 948,
      "type" : "VEC3"
    },
    {
      "bufferView" : 48,
      "componentType" : 5126,
      "count" : 948,
      "type" : "VEC4"
    },
    {
      "bufferView" : 49,
      "normalized" : true,
      "componentType" : 5121,
      "count" : 948,
      "type" : "VEC4"
    },
    {
      "bufferView" : 50,
      "componentType" : 5126,
      "count" : 948,
      "type" : "VEC2"
    },
    {
      "bufferView" : 51,
      "componentType" : 5126,
      "count" : 948,
      "type" : "VEC2"
    },
    {
      "bufferView" : 52,
      "componentType" : 5126,
      "count" : 948,
      "type" : "VEC2"
    },
    {
      "bufferView" : 53,
      "componentType" : 5126,
      "count" : 948,
      "type" : "VEC2"
    },
    {
      "bufferView" : 54,
      "componentType" : 5123,
      "count" : 144,
      "type" : "SCALAR"
    },
    {
      "bufferView" : 55,
      "min" : [ -31.5661, 0.327986, -4.19546 ],
      "max" : [ -31.3658, 4.11426, 3.64144 ],
      "componentType" : 5126,
      "count" : 64,
      "type" : "VEC3"
    },
    {
      "bufferView" : 56,
      "componentType" : 5126,
      "count" : 64,
      "type" : "VEC3"
    },
    {
      "bufferView" : 57,
      "componentType" : 5126,
      "count" : 64,
      "type" : "VEC4"
    },
    {
      "bufferView" : 58,
      "normalized" : true,
      "componentType" : 5121,
      "count" : 64,
      "type" : "VEC4"
    },
    {
      "bufferView" : 59,
      "componentType" : 5126,
      "count" : 64,
      "type" : "VEC2"
    },
    {
      "bufferView" : 60,
      "componentType" : 5126,
      "count" : 64,
      "type" : "VEC2"
    },
    {
      "bufferView" : 61,
      "componentType" : 5126,
      "count" : 64,
      "type" : "VEC2"
    },
    {
      "bufferView" : 62,
      "componentType" : 5126,
      "count" : 64,
      "type" : "VEC2"
    },
    {
      "bufferView" : 63,
      "componentType" : 5123,
      "count" : 1170,
      "type" : "SCALAR"
    },
    {
      "bufferView" : 64,
      "min" : [ -33.3808, 3.61528, -7.4056 ],
      "max" : [ -30.8108, 8.62813, 6.85917 ],
      "componentType" : 5126,
      "count" : 464,
      "type" : "VEC3"
    },
    {
      "bufferView" : 65,
      "componentType" : 5126,
      "count" : 464,
      "type" : "VEC3"
    },
    {
      "bufferView" : 66,
      "componentType" : 5126,
      "count" : 464,
      "type" : "VEC4"
    },
    {
      "bufferView" : 67,
      "normalized" : true,
      "componentType" : 5121,
      "count" : 464,
      "type" : "VEC4"
    },
    {
      "bufferView" : 68,
      "componentType" : 5126,
      "count" : 464,
      "type" : "VEC2"
    },
    {
      "bufferView" : 69,
      "componentType" : 5126,
      "count" : 464,
      "type" : "VEC2"
    },
    {
      "bufferView" : 70,
      "componentType" : 5126,
      "count" : 464,
      "type" : "VEC2"
    },
    {
      "bufferView" : 71,
      "componentType" : 5126,
      "count" : 464,
      "type" : "VEC2"
    },
    {
      "bufferView" : 72,
      "componentType" : 5123,
      "count" : 477,
      "type" : "SCALAR"
    },
    {
      "bufferView" : 73,
      "min" : [ -31.3464, 3.39238, -4.19546 ],
      "max" : [ -31.2772, 4.10059, 3.64154 ],
      "componentType" : 5126,
      "count" : 138,
      "type" : "VEC3"
    },
    {
      "bufferView" : 74,
      "componentType" : 5126,
      "count" : 138,
      "type" : "VEC3"
    },
    {
      "bufferView" : 75,
      "componentType" : 5126,
      "count" : 138,
      "type" : "VEC4"
    },
    {
      "bufferView" : 76,
      "normalized" : true,
      "componentType" : 5121,
      "count" : 138,
      "type" : "VEC4"
    },
    {
      "bufferView" : 77,
      "componentType" : 5126,
      "count" : 138,
      "type" : "VEC2"
    },
    {
      "bufferView" : 78,
      "componentType" : 5126,
      "count" : 138,
      "type" : "VEC2"
    },
    {
      "bufferView" : 79,
      "componentType" : 5126,
      "count" : 138,
      "type" : "VEC2"
    },
    {
      "bufferView" : 80,
      "componentType" : 5126,
      "count" : 138,
      "type" : "VEC2"
    },
    {
      "bufferView" : 81,
      "componentType" : 5123,
      "count" : 4392,
      "type" : "SCALAR"
    },
    {
      "bufferView" : 82,
      "min" : [ -34.1243, 0.231933, -8.36277 ],
      "max" : [ -30.8108, 8.48919, 7.79937 ],
      "componentType" : 5126,
      "count" : 1440,
      "type" : "VEC3"
    },
    {
      "bufferView" : 83,
      "componentType" : 5126,
      "count" : 1440,
      "type" : "VEC3"
    },
    {
      "bufferView" : 84,
      "componentType" : 5126,
      "count" : 1440,
      "type" : "VEC4"
    },
    {
      "bufferView" : 85,
      "normalized" : true,
      "componentType" : 5121,
      "count" : 1440,
      "type" : "VEC4"
    },
    {
      "bufferView" : 86,
      "componentType" : 5126,
      "count" : 1440,
      "type" : "VEC2"
    },
    {
      "bufferView" : 87,
      "componentType" : 5126,
      "count" : 1440,
      "type" : "VEC2"
    },
    {
      "bufferView" : 88,
      "componentType" : 5126,
      "count" : 1440,
      "type" : "VEC2"
    },
    {
      "bufferView" : 89,
      "componentType" : 5126,
      "count" : 1440,
      "type" : "VEC2"
    },
    {
      "bufferView" : 90,
      "componentType" : 5123,
      "count" : 2706,
      "type" : "SCALAR"
    },
    {
      "bufferView" : 91,
      "min" : [ -33.4758, 2.23082, -7.48378 ],
      "max" : [ -30.6278, 9.35246, 6.93734 ],
      "componentType" : 5126,
      "count" : 958,
      "type" : "VEC3"
    },
    {
      "bufferView" : 92,
      "componentType" : 5126,
      "count" : 958,
      "type" : "VEC3"
    },
    {
      "bufferView" : 93,
      "componentType" : 5126,
      "count" : 958,
      "type" : "VEC4"
    },
    {
      "bufferView" : 94,
      "normalized" : true,
      "componentType" : 5121,
      "count" : 958,
      "type" : "VEC4"
    },
    {
      "bufferView" : 95,
      "componentType" : 5126,
      "count" : 958,
      "type" : "VEC2"
    },
    {
      "bufferView" : 96,
      "componentType" : 5126,
      "count" : 958,
      "type" : "VEC2"
    },
    {
      "bufferView" : 97,
      "componentType" : 5126,
      "count" : 958,
      "type" : "VEC2"
    },
    {
      "bufferView" : 98,
      "componentType" : 5126,
      "count" : 958,
      "type" : "VEC2"
    },
    {
      "bufferView" : 99,
      "componentType" : 5123,
      "count" : 144,
      "type" : "SCALAR"
    },
    {
      "bufferView" : 100,
      "min" : [ -34.0976, 0.167507, -6.92421 ],
      "max" : [ -31.3261, 7.61503, 6.36579 ],
      "componentType" : 5126,
      "count" : 92,
      "type" : "VEC3"
    },
    {
      "bufferView" : 101,
      "componentType" : 5126,
      "count" : 92,
      "type" : "VEC3"
    },
    {
      "bufferView" : 102,
      "componentType" : 5126,
      "count" : 92,
      "type" : "VEC4"
    },
    {
      "bufferView" : 103,
      "normalized" : true,
      "componentType" : 5121,
      "count" : 92,
      "type" : "VEC4"
    },
    {
      "bufferView" : 104,
      "componentType" : 5126,
      "count" : 92,
      "type" : "VEC2"
    },
    {
      "bufferView" : 105,
      "componentType" : 5126,
      "count" : 92,
      "type" : "VEC2"
    },
    {
      "bufferView" : 106,
      "componentType" : 5126,
      "count" : 92,
      "type" : "VEC2"
    },
    {
      "bufferView" : 107,
      "componentType" : 5126,
      "count" : 92,
      "type" : "VEC2"
    },
    {
      "bufferView" : 108,
      "componentType" : 5123,
      "count" : 84,
      "type" : "SCALAR"
    },
    {
      "bufferView" : 109,
      "min" : [ -31.4561, 4.46292, -6.49078 ],
      "max" : [ -31.4361, 8.4701, 5.93687 ],
      "componentType" : 5126,
      "count" : 56,
      "type" : "VEC3"
    },
    {
      "bufferView" : 110,
      "componentType" : 5126,
      "count" : 56,
      "type" : "VEC3"
    },
    {
      "bufferView" : 111,
      "componentType" : 5126,
      "count" : 56,
      "type" : "VEC4"
    },
    {
      "bufferView" : 112,
      "normalized" : true,
      "componentType" : 5121,
      "count" : 56,
      "type" : "VEC4"
    },
    {
      "bufferView" : 113,
      "componentType" : 5126,
      "count" : 56,
      "type" : "VEC2"
    },
    {
      "bufferView" : 114,
      "componentType" : 5126,
      "count" : 56,
      "type" : "VEC2"
    },
    {
      "bufferView" : 115,
      "componentType" : 5126,
      "count" : 56,
      "type" : "VEC2"
    },
    {
      "bufferView" : 116,
      "componentType" : 5126,
      "count" : 56,
      "type" : "VEC2"
    },
    {
      "bufferView" : 117,
      "componentType" : 5123,
      "count" : 168,
      "type" : "SCALAR"
    },
    {
      "bufferView" : 118,
      "min" : [ -32.6512, 6.03544, -6.29506 ],
      "max" : [ -31.0914, 7.27969, 5.74104 ],
      "componentType" : 5126,
      "count" : 96,
      "type" : "VEC3"
    },
    {
      "bufferView" : 119,
      "componentType" : 5126,
      "count" : 96,
      "type" : "VEC3"
    },
    {
      "bufferView" : 120,
      "componentType" : 5126,
      "count" : 96,
      "type" : "VEC4"
    },
    {
      "bufferView" : 121,
      "normalized" : true,
      "componentType" : 5121,
      "count" : 96,
      "type" : "VEC4"
    },
    {
      "bufferView" : 122,
      "componentType" : 5126,
      "count" : 96,
      "type" : "VEC2"
    },
    {
      "bufferView" : 123,
      "componentType" : 5126,
      "count" : 96,
      "type" : "VEC2"
    },
    {
      "bufferView" : 124,
      "componentType" : 5126,
      "count" : 96,
      "type" : "VEC2"
    },
    {
      "bufferView" : 125,
      "componentType" : 5126,
      "count" : 96,
      "type" : "VEC2"
    },
    {
      "bufferView" : 126,
      "componentType" : 5123,
      "count" : 696,
      "type" : "SCALAR"
    },
    {
      "bufferView" : 127,
      "min" : [ -31.6268, -0.062827, -4.0289 ],
      "max" : [ -30.4464, 0.390703, 3.45375 ],
      "componentType" : 5126,
      "count" : 208,
      "type" : "VEC3"
    },
    {
      "bufferView" : 128,
      "componentType" : 5126,
      "count" : 208,
      "type" : "VEC3"
    },
    {
      "bufferView" : 129,
      "componentType" : 5126,
      "count" : 208,
      "type" : "VEC4"
    },
    {
      "bufferView" : 130,
      "normalized" : true,
      "componentType" : 5121,
      "count" : 208,
      "type" : "VEC4"
    },
    {
      "bufferView" : 131,
      "componentType" : 5126,
      "count" : 208,
      "type" : "VEC2"
    },
    {
      "bufferView" : 132,
      "componentType" : 5126,
      "count" : 208,
      "type" : "VEC2"
    },
    {
      "bufferView" : 133,
      "componentType" : 5126,
      "count" : 208,
      "type" : "VEC2"
    },
    {
      "bufferView" : 134,
      "componentType" : 5126,
      "count" : 208,
      "type" : "VEC2"
    },
    {
      "bufferView" : 135,
      "componentType" : 5123,
      "count" : 906,
      "type" : "SCALAR"
    },
    {
      "bufferView" : 136,
      "min" : [ -33.9912, -0.0694544, -7.65146 ],
      "max" : [ -30.646, 0.440082, 7.09634 ],
      "componentType" : 5126,
      "count" : 208,
      "type" : "VEC3"
    },
    {
      "bufferView" : 137,
      "componentType" : 5126,
      "count" : 208,
      "type" : "VEC3"
    },
    {
      "bufferView" : 138,
      "componentType" : 5126,
      "count" : 208,
      "type" : "VEC4"
    },
    {
      "bufferView" : 139,
      "normalized" : true,
      "componentType" : 5121,
      "count" : 208,
      "type" : "VEC4"
    },
    {
      "bufferView" : 140,
      "componentType" : 5126,
      "count" : 208,
      "type" : "VEC2"
    },
    {
      "bufferView" : 141,
      "componentType" : 5126,
      "count" : 208,
      "type" : "VEC2"
    },
    {
      "bufferView" : 142,
      "componentType" : 5126,
      "count" : 208,
      "type" : "VEC2"
    },
    {
      "bufferView" : 143,
      "componentType" : 5126,
      "count" : 208,
      "type" : "VEC2"
    },
    {
      "bufferView" : 144,
      "componentType" : 5123,
      "count" : 1044,
      "type" : "SCALAR"
    },
    {
      "bufferView" : 145,
      "min" : [ -31.1622, 5.63974, -2.41902 ],
      "max" : [ -30.7791, 7.08664, 1.88858 ],
      "componentType" : 5126,
      "count" : 252,
      "type" : "VEC3"
    },
    {
      "bufferView" : 146,
      "componentType" : 5126,
      "count" : 252,
      "type" : "VEC3"
    },
    {
      "bufferView" : 147,
      "componentType" : 5126,
      "count" : 252,
      "type" : "VEC4"
    },
    {
      "bufferView" : 148,
      "normalized" : true,
      "componentType" : 5121,
      "count" : 252,
      "type" : "VEC4"
    },
    {
      "bufferView" : 149,
      "componentType" : 5126,
      "count" : 252,
      "type" : "VEC2"
    },
    {
      "bufferView" : 150,
      "componentType" : 5126,
      "count" : 252,
      "type" : "VEC2"
    },
    {
      "bufferView" : 151,
      "componentType" : 5126,
      "count" : 252,
      "type" : "VEC2"
    },
    {
      "bufferView" : 152,
      "componentType" : 5126,
      "count" : 252,
      "type" : "VEC2"
    },
    {
      "bufferView" : 153,
      "componentType" : 5123,
      "count" : 1980,
      "type" : "SCALAR"
    },
    {
      "bufferView" : 154,
      "min" : [ -32.7384, 5.82044, -7.17516 ],
      "max" : [ -30.9761, 6.21225, 6.61904 ],
      "componentType" : 5126,
      "count" : 392,
      "type" : "VEC3"
    },
    {
      "bufferView" : 155,
      "componentType" : 5126,
      "count" : 392,
      "type" : "VEC3"
    },
    {
      "bufferView" : 156,
      "componentType" : 5126,
      "count" : 392,
      "type" : "VEC4"
    },
    {
      "bufferView" : 157,
      "normalized" : true,
      "componentType" : 5121,
      "count" : 392,
      "type" : "VEC4"
    },
    {
      "bufferView" : 158,
      "componentType" : 5126,
      "count" : 392,
      "type" : "VEC2"
    },
    {
      "bufferView" : 159,
      "componentType" : 5126,
      "count" : 392,
      "type" : "VEC2"
    },
    {
      "bufferView" : 160,
      "componentType" : 5126,
      "count" : 392,
      "type" : "VEC2"
    },
    {
      "bufferView" : 161,
      "componentType" : 5126,
      "count" : 392,
      "type" : "VEC2"
    }
  ]
}
