{
  "asset" : {
    "generator" : "UE Viewer (umodel) build 1544 based",
    "version" : "2.0"
  },
  "scene" : 0,
  "scenes" : [
    {
      "nodes" : [ 0 ]
    }
  ],
  "nodes" : [
    {
      "name" : "SM_ENV_LKNVLD_Tree_D_Lod3",
      "mesh" : 0
    }
  ],
  "materials" : [
    {
      "name" : "MI_ENV_LKNVLD_LeafMasked_A",
      "pbrMetallicRoughness" : {
        "baseColorFactor" : [ 0.3, 0.3, 0.3, 1.0 ],
        "metallicFactor" : 0.1,
        "roughnessFactor" : 0.5
      }
    },
    {
      "name" : "MI_ENV_LKNVLD_Leaf_A",
      "pbrMetallicRoughness" : {
        "baseColorFactor" : [ 0.9, 0.3, 0.3, 1.0 ],
        "metallicFactor" : 0.1,
        "roughnessFactor" : 0.5
      }
    },
    {
      "name" : "MI_ENV_LKNVLD_Tree_A",
      "pbrMetallicRoughness" : {
        "baseColorFactor" : [ 0.3, 0.9, 0.3, 1.0 ],
        "metallicFactor" : 0.1,
        "roughnessFactor" : 0.5
      }
    }
  ],
  "meshes" : [
    {
      "primitives" : [
        {
          "attributes" : {
            "POSITION" : 1,
            "NORMAL" : 2,
            "TANGENT" : 3,
            "COLOR_0" : 4,
            "TEXCOORD_0" : 5,
            "TEXCOORD_1" : 6,
            "TEXCOORD_2" : 7,
            "TEXCOORD_3" : 8
          },
          "indices" : 0,
          "material" : 0
        },
        {
          "attributes" : {
            "POSITION" : 10,
            "NORMAL" : 11,
            "TANGENT" : 12,
            "COLOR_0" : 13,
            "TEXCOORD_0" : 14,
            "TEXCOORD_1" : 15,
            "TEXCOORD_2" : 16,
            "TEXCOORD_3" : 17
          },
          "indices" : 9,
          "material" : 1
        },
        {
          "attributes" : {
            "POSITION" : 19,
            "NORMAL" : 20,
            "TANGENT" : 21,
            "COLOR_0" : 22,
            "TEXCOORD_0" : 23,
            "TEXCOORD_1" : 24,
            "TEXCOORD_2" : 25,
            "TEXCOORD_3" : 26
          },
          "indices" : 18,
          "material" : 2
        }
      ],
      "name" : "SM_ENV_LKNVLD_Tree_D_Lod3"
    }
  ],
  "buffers" : [
    {
      "uri" : "SM_ENV_LKNVLD_Tree_D_Lod3.bin",
      "byteLength" : 883592
    }
  ],
  "bufferViews" : [
    {
      "buffer" : 0,
      "byteOffset" : 0,
      "byteLength" : 21252
    },
    {
      "buffer" : 0,
      "byteOffset" : 21252,
      "byteLength" : 106932
    },
    {
      "buffer" : 0,
      "byteOffset" : 128184,
      "byteLength" : 106932
    },
    {
      "buffer" : 0,
      "byteOffset" : 235116,
      "byteLength" : 142576
    },
    {
      "buffer" : 0,
      "byteOffset" : 377692,
      "byteLength" : 35644
    },
    {
      "buffer" : 0,
      "byteOffset" : 413336,
      "byteLength" : 71288
    },
    {
      "buffer" : 0,
      "byteOffset" : 484624,
      "byteLength" : 71288
    },
    {
      "buffer" : 0,
      "byteOffset" : 555912,
      "byteLength" : 71288
    },
    {
      "buffer" : 0,
      "byteOffset" : 627200,
      "byteLength" : 71288
    },
    {
      "buffer" : 0,
      "byteOffset" : 698488,
      "byteLength" : 6864
    },
    {
      "buffer" : 0,
      "byteOffset" : 705352,
      "byteLength" : 18564
    },
    {
      "buffer" : 0,
      "byteOffset" : 723916,
      "byteLength" : 18564
    },
    {
      "buffer" : 0,
      "byteOffset" : 742480,
      "byteLength" : 24752
    },
    {
      "buffer" : 0,
      "byteOffset" : 767232,
      "byteLength" : 6188
    },
    {
      "buffer" : 0,
      "byteOffset" : 773420,
      "byteLength" : 12376
    },
    {
      "buffer" : 0,
      "byteOffset" : 785796,
      "byteLength" : 12376
    },
    {
      "buffer" : 0,
      "byteOffset" : 798172,
      "byteLength" : 12376
    },
    {
      "buffer" : 0,
      "byteOffset" : 810548,
      "byteLength" : 12376
    },
    {
      "buffer" : 0,
      "byteOffset" : 822924,
      "byteLength" : 1920
    },
    {
      "buffer" : 0,
      "byteOffset" : 824844,
      "byteLength" : 9276
    },
    {
      "buffer" : 0,
      "byteOffset" : 834120,
      "byteLength" : 9276
    },
    {
      "buffer" : 0,
      "byteOffset" : 843396,
      "byteLength" : 12368
    },
    {
      "buffer" : 0,
      "byteOffset" : 855764,
      "byteLength" : 3092
    },
    {
      "buffer" : 0,
      "byteOffset" : 858856,
      "byteLength" : 6184
    },
    {
      "buffer" : 0,
      "byteOffset" : 865040,
      "byteLength" : 6184
    },
    {
      "buffer" : 0,
      "byteOffset" : 871224,
      "byteLength" : 6184
    },
    {
      "buffer" : 0,
      "byteOffset" : 877408,
      "byteLength" : 6184
    }
  ],
  "accessors" : [
    {
      "bufferView" : 0,
      "componentType" : 5123,
      "count" : 10626,
      "type" : "SCALAR"
    },
    {
      "bufferView" : 1,
      "min" : [ -5.68167, 5.34399, -8.20215 ],
      "max" : [ 6.31553, 14.8133, 6.05422 ],
      "componentType" : 5126,
      "count" : 8911,
      "type" : "VEC3"
    },
    {
      "bufferView" : 2,
      "componentType" : 5126,
      "count" : 8911,
      "type" : "VEC3"
    },
    {
      "bufferView" : 3,
      "componentType" : 5126,
      "count" : 8911,
      "type" : "VEC4"
    },
    {
      "bufferView" : 4,
      "normalized" : true,
      "componentType" : 5121,
      "count" : 8911,
      "type" : "VEC4"
    },
    {
      "bufferView" : 5,
      "componentType" : 5126,
      "count" : 8911,
      "type" : "VEC2"
    },
    {
      "bufferView" : 6,
      "componentType" : 5126,
      "count" : 8911,
      "type" : "VEC2"
    },
    {
      "bufferView" : 7,
      "componentType" : 5126,
      "count" : 8911,
      "type" : "VEC2"
    },
    {
      "bufferView" : 8,
      "componentType" : 5126,
      "count" : 8911,
      "type" : "VEC2"
    },
    {
      "bufferView" : 9,
      "componentType" : 5123,
      "count" : 3432,
      "type" : "SCALAR"
    },
    {
      "bufferView" : 10,
      "min" : [ -5.50791, 5.59063, -8.03216 ],
      "max" : [ 6.14664, 14.6555, 5.84418 ],
      "componentType" : 5126,
      "count" : 1547,
      "type" : "VEC3"
    },
    {
      "bufferView" : 11,
      "componentType" : 5126,
      "count" : 1547,
      "type" : "VEC3"
    },
    {
      "bufferView" : 12,
      "componentType" : 5126,
      "count" : 1547,
      "type" : "VEC4"
    },
    {
      "bufferView" : 13,
      "normalized" : true,
      "componentType" : 5121,
      "count" : 1547,
      "type" : "VEC4"
    },
    {
      "bufferView" : 14,
      "componentType" : 5126,
      "count" : 1547,
      "type" : "VEC2"
    },
    {
      "bufferView" : 15,
      "componentType" : 5126,
      "count" : 1547,
      "type" : "VEC2"
    },
    {
      "bufferView" : 16,
      "componentType" : 5126,
      "count" : 1547,
      "type" : "VEC2"
    },
    {
      "bufferView" : 17,
      "componentType" : 5126,
      "count" : 1547,
      "type" : "VEC2"
    },
    {
      "bufferView" : 18,
      "componentType" : 5123,
      "count" : 960,
      "type" : "SCALAR"
    },
    {
      "bufferView" : 19,
      "min" : [ -2.47073, -0.026832, -4.93161 ],
      "max" : [ 3.74728, 11.1754, 4.35112 ],
      "componentType" : 5126,
      "count" : 773,
      "type" : "VEC3"
    },
    {
      "bufferView" : 20,
      "componentType" : 5126,
      "count" : 773,
      "type" : "VEC3"
    },
    {
      "bufferView" : 21,
      "componentType" : 5126,
      "count" : 773,
      "type" : "VEC4"
    },
    {
      "bufferView" : 22,
      "normalized" : true,
      "componentType" : 5121,
      "count" : 773,
      "type" : "VEC4"
    },
    {
      "bufferView" : 23,
      "componentType" : 5126,
      "count" : 773,
      "type" : "VEC2"
    },
    {
      "bufferView" : 24,
      "componentType" : 5126,
      "count" : 773,
      "type" : "VEC2"
    },
    {
      "bufferView" : 25,
      "componentType" : 5126,
      "count" : 773,
      "type" : "VEC2"
    },
    {
      "bufferView" : 26,
      "componentType" : 5126,
      "count" : 773,
      "type" : "VEC2"
    }
  ]
}
