{
  "asset" : {
    "generator" : "UE Viewer (umodel) build 1544 based",
    "version" : "2.0"
  },
  "scene" : 0,
  "scenes" : [
    {
      "nodes" : [ 0 ]
    }
  ],
  "nodes" : [
    {
      "name" : "SM_ENV_LKNVLD_Shop_Tori_Lod3",
      "mesh" : 0
    }
  ],
  "materials" : [
    {
      "name" : "MI_ENV_LKNVLD_ClanTorii_A_LOD",
      "pbrMetallicRoughness" : {
        "baseColorFactor" : [ 0.3, 0.3, 0.3, 1.0 ],
        "metallicFactor" : 0.1,
        "roughnessFactor" : 0.5
      }
    },
    {
      "name" : "MI_ENV_LKNVLD_StrawRope_A",
      "pbrMetallicRoughness" : {
        "baseColorFactor" : [ 0.9, 0.3, 0.3, 1.0 ],
        "metallicFactor" : 0.1,
        "roughnessFactor" : 0.5
      }
    }
  ],
  "meshes" : [
    {
      "primitives" : [
        {
          "attributes" : {
            "POSITION" : 1,
            "NORMAL" : 2,
            "TANGENT" : 3,
            "COLOR_0" : 4,
            "TEXCOORD_0" : 5,
            "TEXCOORD_1" : 6,
            "TEXCOORD_2" : 7,
            "TEXCOORD_3" : 8
          },
          "indices" : 0,
          "material" : 0
        },
        {
          "attributes" : {
            "POSITION" : 10,
            "NORMAL" : 11,
            "TANGENT" : 12,
            "COLOR_0" : 13,
            "TEXCOORD_0" : 14,
            "TEXCOORD_1" : 15,
            "TEXCOORD_2" : 16,
            "TEXCOORD_3" : 17
          },
          "indices" : 9,
          "material" : 1
        }
      ],
      "name" : "SM_ENV_LKNVLD_Shop_Tori_Lod3"
    }
  ],
  "buffers" : [
    {
      "uri" : "SM_ENV_LKNVLD_Shop_Tori_Lod3.bin",
      "byteLength" : 197200
    }
  ],
  "bufferViews" : [
    {
      "buffer" : 0,
      "byteOffset" : 0,
      "byteLength" : 2376
    },
    {
      "buffer" : 0,
      "byteOffset" : 2376,
      "byteLength" : 5880
    },
    {
      "buffer" : 0,
      "byteOffset" : 8256,
      "byteLength" : 5880
    },
    {
      "buffer" : 0,
      "byteOffset" : 14136,
      "byteLength" : 7840
    },
    {
      "buffer" : 0,
      "byteOffset" : 21976,
      "byteLength" : 1960
    },
    {
      "buffer" : 0,
      "byteOffset" : 23936,
      "byteLength" : 3920
    },
    {
      "buffer" : 0,
      "byteOffset" : 27856,
      "byteLength" : 3920
    },
    {
      "buffer" : 0,
      "byteOffset" : 31776,
      "byteLength" : 3920
    },
    {
      "buffer" : 0,
      "byteOffset" : 35696,
      "byteLength" : 3920
    },
    {
      "buffer" : 0,
      "byteOffset" : 39616,
      "byteLength" : 7788
    },
    {
      "buffer" : 0,
      "byteOffset" : 47404,
      "byteLength" : 23652
    },
    {
      "buffer" : 0,
      "byteOffset" : 71056,
      "byteLength" : 23652
    },
    {
      "buffer" : 0,
      "byteOffset" : 94708,
      "byteLength" : 31536
    },
    {
      "buffer" : 0,
      "byteOffset" : 126244,
      "byteLength" : 7884
    },
    {
      "buffer" : 0,
      "byteOffset" : 134128,
      "byteLength" : 15768
    },
    {
      "buffer" : 0,
      "byteOffset" : 149896,
      "byteLength" : 15768
    },
    {
      "buffer" : 0,
      "byteOffset" : 165664,
      "byteLength" : 15768
    },
    {
      "buffer" : 0,
      "byteOffset" : 181432,
      "byteLength" : 15768
    }
  ],
  "accessors" : [
    {
      "bufferView" : 0,
      "componentType" : 5123,
      "count" : 1188,
      "type" : "SCALAR"
    },
    {
      "bufferView" : 1,
      "min" : [ -32.7412, 5.88384, 17.3949 ],
      "max" : [ -24.6216, 16.4439, 25.5145 ],
      "componentType" : 5126,
      "count" : 490,
      "type" : "VEC3"
    },
    {
      "bufferView" : 2,
      "componentType" : 5126,
      "count" : 490,
      "type" : "VEC3"
    },
    {
      "bufferView" : 3,
      "componentType" : 5126,
      "count" : 490,
      "type" : "VEC4"
    },
    {
      "bufferView" : 4,
      "normalized" : true,
      "componentType" : 5121,
      "count" : 490,
      "type" : "VEC4"
    },
    {
      "bufferView" : 5,
      "componentType" : 5126,
      "count" : 490,
      "type" : "VEC2"
    },
    {
      "bufferView" : 6,
      "componentType" : 5126,
      "count" : 490,
      "type" : "VEC2"
    },
    {
      "bufferView" : 7,
      "componentType" : 5126,
      "count" : 490,
      "type" : "VEC2"
    },
    {
      "bufferView" : 8,
      "componentType" : 5126,
      "count" : 490,
      "type" : "VEC2"
    },
    {
      "bufferView" : 9,
      "componentType" : 5123,
      "count" : 3894,
      "type" : "SCALAR"
    },
    {
      "bufferView" : 10,
      "min" : [ -31.3961, 10.9791, 18.7644 ],
      "max" : [ -25.9486, 14.1894, 24.2118 ],
      "componentType" : 5126,
      "count" : 1971,
      "type" : "VEC3"
    },
    {
      "bufferView" : 11,
      "componentType" : 5126,
      "count" : 1971,
      "type" : "VEC3"
    },
    {
      "bufferView" : 12,
      "componentType" : 5126,
      "count" : 1971,
      "type" : "VEC4"
    },
    {
      "bufferView" : 13,
      "normalized" : true,
      "componentType" : 5121,
      "count" : 1971,
      "type" : "VEC4"
    },
    {
      "bufferView" : 14,
      "componentType" : 5126,
      "count" : 1971,
      "type" : "VEC2"
    },
    {
      "bufferView" : 15,
      "componentType" : 5126,
      "count" : 1971,
      "type" : "VEC2"
    },
    {
      "bufferView" : 16,
      "componentType" : 5126,
      "count" : 1971,
      "type" : "VEC2"
    },
    {
      "bufferView" : 17,
      "componentType" : 5126,
      "count" : 1971,
      "type" : "VEC2"
    }
  ]
}
