{
  "asset" : {
    "generator" : "UE Viewer (umodel) build 1544 based",
    "version" : "2.0"
  },
  "scene" : 0,
  "scenes" : [
    {
      "nodes" : [ 0 ]
    }
  ],
  "nodes" : [
    {
      "name" : "SM_ENV_LKNVLD_Event_SL_Shop_Tori",
      "mesh" : 0
    }
  ],
  "materials" : [
    {
      "name" : "MI_ENV_LKNVLD_Event_SL_ClanSignboa",
      "pbrMetallicRoughness" : {
        "baseColorFactor" : [ 0.3, 0.3, 0.3, 1.0 ],
        "metallicFactor" : 0.1,
        "roughnessFactor" : 0.5
      }
    }
  ],
  "meshes" : [
    {
      "primitives" : [
        {
          "attributes" : {
            "POSITION" : 1,
            "NORMAL" : 2,
            "TANGENT" : 3,
            "TEXCOORD_0" : 4,
            "TEXCOORD_1" : 5,
            "TEXCOORD_2" : 6,
            "TEXCOORD_3" : 7
          },
          "indices" : 0,
          "material" : 0
        }
      ],
      "name" : "SM_ENV_LKNVLD_Event_SL_Shop_Tori"
    }
  ],
  "buffers" : [
    {
      "uri" : "SM_ENV_LKNVLD_Event_SL_Shop_Tori.bin",
      "byteLength" : 107736
    }
  ],
  "bufferViews" : [
    {
      "buffer" : 0,
      "byteOffset" : 0,
      "byteLength" : 12480
    },
    {
      "buffer" : 0,
      "byteOffset" : 12480,
      "byteLength" : 15876
    },
    {
      "buffer" : 0,
      "byteOffset" : 28356,
      "byteLength" : 15876
    },
    {
      "buffer" : 0,
      "byteOffset" : 44232,
      "byteLength" : 21168
    },
    {
      "buffer" : 0,
      "byteOffset" : 65400,
      "byteLength" : 10584
    },
    {
      "buffer" : 0,
      "byteOffset" : 75984,
      "byteLength" : 10584
    },
    {
      "buffer" : 0,
      "byteOffset" : 86568,
      "byteLength" : 10584
    },
    {
      "buffer" : 0,
      "byteOffset" : 97152,
      "byteLength" : 10584
    }
  ],
  "accessors" : [
    {
      "bufferView" : 0,
      "componentType" : 5123,
      "count" : 6240,
      "type" : "SCALAR"
    },
    {
      "bufferView" : 1,
      "min" : [ -31.9511, 16.0927, 19.6403 ],
      "max" : [ -26.8986, 26.4946, 24.7424 ],
      "componentType" : 5126,
      "count" : 1323,
      "type" : "VEC3"
    },
    {
      "bufferView" : 2,
      "componentType" : 5126,
      "count" : 1323,
      "type" : "VEC3"
    },
    {
      "bufferView" : 3,
      "componentType" : 5126,
      "count" : 1323,
      "type" : "VEC4"
    },
    {
      "bufferView" : 4,
      "componentType" : 5126,
      "count" : 1323,
      "type" : "VEC2"
    },
    {
      "bufferView" : 5,
      "componentType" : 5126,
      "count" : 1323,
      "type" : "VEC2"
    },
    {
      "bufferView" : 6,
      "componentType" : 5126,
      "count" : 1323,
      "type" : "VEC2"
    },
    {
      "bufferView" : 7,
      "componentType" : 5126,
      "count" : 1323,
      "type" : "VEC2"
    }
  ]
}
