{
  "asset" : {
    "generator" : "UE Viewer (umodel) build 1544 based",
    "version" : "2.0"
  },
  "scene" : 0,
  "scenes" : [
    {
      "nodes" : [ 0 ]
    }
  ],
  "nodes" : [
    {
      "name" : "SM_ENV_LKNVLD_Fence_Large_Lod1",
      "mesh" : 0
    }
  ],
  "materials" : [
    {
      "name" : "MI_ENV_LKNVLD_Fence_A",
      "pbrMetallicRoughness" : {
        "baseColorFactor" : [ 0.3, 0.3, 0.3, 1.0 ],
        "metallicFactor" : 0.1,
        "roughnessFactor" : 0.5
      }
    }
  ],
  "meshes" : [
    {
      "primitives" : [
        {
          "attributes" : {
            "POSITION" : 1,
            "NORMAL" : 2,
            "TANGENT" : 3,
            "TEXCOORD_0" : 4,
            "TEXCOORD_1" : 5,
            "TEXCOORD_2" : 6,
            "TEXCOORD_3" : 7
          },
          "indices" : 0,
          "material" : 0
        }
      ],
      "name" : "SM_ENV_LKNVLD_Fence_Large_Lod1"
    }
  ],
  "buffers" : [
    {
      "uri" : "SM_ENV_LKNVLD_Fence_Large_Lod1.bin",
      "byteLength" : 74352
    }
  ],
  "bufferViews" : [
    {
      "buffer" : 0,
      "byteOffset" : 0,
      "byteLength" : 5592
    },
    {
      "buffer" : 0,
      "byteOffset" : 5592,
      "byteLength" : 11460
    },
    {
      "buffer" : 0,
      "byteOffset" : 17052,
      "byteLength" : 11460
    },
    {
      "buffer" : 0,
      "byteOffset" : 28512,
      "byteLength" : 15280
    },
    {
      "buffer" : 0,
      "byteOffset" : 43792,
      "byteLength" : 7640
    },
    {
      "buffer" : 0,
      "byteOffset" : 51432,
      "byteLength" : 7640
    },
    {
      "buffer" : 0,
      "byteOffset" : 59072,
      "byteLength" : 7640
    },
    {
      "buffer" : 0,
      "byteOffset" : 66712,
      "byteLength" : 7640
    }
  ],
  "accessors" : [
    {
      "bufferView" : 0,
      "componentType" : 5123,
      "count" : 2796,
      "type" : "SCALAR"
    },
    {
      "bufferView" : 1,
      "min" : [ -2.14651, 0, -0.675356 ],
      "max" : [ 2.1806, 1.98502, 0.675356 ],
      "componentType" : 5126,
      "count" : 955,
      "type" : "VEC3"
    },
    {
      "bufferView" : 2,
      "componentType" : 5126,
      "count" : 955,
      "type" : "VEC3"
    },
    {
      "bufferView" : 3,
      "componentType" : 5126,
      "count" : 955,
      "type" : "VEC4"
    },
    {
      "bufferView" : 4,
      "componentType" : 5126,
      "count" : 955,
      "type" : "VEC2"
    },
    {
      "bufferView" : 5,
      "componentType" : 5126,
      "count" : 955,
      "type" : "VEC2"
    },
    {
      "bufferView" : 6,
      "componentType" : 5126,
      "count" : 955,
      "type" : "VEC2"
    },
    {
      "bufferView" : 7,
      "componentType" : 5126,
      "count" : 955,
      "type" : "VEC2"
    }
  ]
}
