{
  "asset" : {
    "generator" : "UE Viewer (umodel) build 1544 based",
    "version" : "2.0"
  },
  "scene" : 0,
  "scenes" : [
    {
      "nodes" : [ 0 ]
    }
  ],
  "nodes" : [
    {
      "name" : "SM_ENV_LKNVLD_Event_HL_WoodenStage_Top_COL",
      "mesh" : 0
    }
  ],
  "materials" : [
    {
      "name" : "MI_Wood",
      "pbrMetallicRoughness" : {
        "baseColorFactor" : [ 0.3, 0.3, 0.3, 1.0 ],
        "metallicFactor" : 0.1,
        "roughnessFactor" : 0.5
      }
    }
  ],
  "meshes" : [
    {
      "primitives" : [
        {
          "attributes" : {
            "POSITION" : 1,
            "NORMAL" : 2,
            "TANGENT" : 3,
            "TEXCOORD_0" : 4
          },
          "indices" : 0,
          "material" : 0
        }
      ],
      "name" : "SM_ENV_LKNVLD_Event_HL_WoodenStage_Top_COL"
    }
  ],
  "buffers" : [
    {
      "uri" : "SM_ENV_LKNVLD_Event_HL_WoodenStage_Top_COL.bin",
      "byteLength" : 30432
    }
  ],
  "bufferViews" : [
    {
      "buffer" : 0,
      "byteOffset" : 0,
      "byteLength" : 1920
    },
    {
      "buffer" : 0,
      "byteOffset" : 1920,
      "byteLength" : 7128
    },
    {
      "buffer" : 0,
      "byteOffset" : 9048,
      "byteLength" : 7128
    },
    {
      "buffer" : 0,
      "byteOffset" : 16176,
      "byteLength" : 9504
    },
    {
      "buffer" : 0,
      "byteOffset" : 25680,
      "byteLength" : 4752
    }
  ],
  "accessors" : [
    {
      "bufferView" : 0,
      "componentType" : 5123,
      "count" : 960,
      "type" : "SCALAR"
    },
    {
      "bufferView" : 1,
      "min" : [ -5.28226, 0.252179, -5.38884 ],
      "max" : [ 5.33895, 4.73847, 5.45675 ],
      "componentType" : 5126,
      "count" : 594,
      "type" : "VEC3"
    },
    {
      "bufferView" : 2,
      "componentType" : 5126,
      "count" : 594,
      "type" : "VEC3"
    },
    {
      "bufferView" : 3,
      "componentType" : 5126,
      "count" : 594,
      "type" : "VEC4"
    },
    {
      "bufferView" : 4,
      "componentType" : 5126,
      "count" : 594,
      "type" : "VEC2"
    }
  ]
}
