{
  "asset" : {
    "generator" : "UE Viewer (umodel) build 1544 based",
    "version" : "2.0"
  },
  "scene" : 0,
  "scenes" : [
    {
      "nodes" : [ 0 ]
    }
  ],
  "nodes" : [
    {
      "name" : "SM_ENV_LKNVLD_Event_HL_Noren_A",
      "mesh" : 0
    }
  ],
  "materials" : [
    {
      "name" : "MI_ENV_LKNVLD_Event_HL_WoodenStage_Emissive_A_Trans",
      "pbrMetallicRoughness" : {
        "baseColorFactor" : [ 0.3, 0.3, 0.3, 1.0 ],
        "metallicFactor" : 0.1,
        "roughnessFactor" : 0.5
      }
    },
    {
      "name" : "MI_ENV_LKNVLD_Event_HL_Noren_A_Trans",
      "pbrMetallicRoughness" : {
        "baseColorFactor" : [ 0.9, 0.3, 0.3, 1.0 ],
        "metallicFactor" : 0.1,
        "roughnessFactor" : 0.5
      }
    }
  ],
  "meshes" : [
    {
      "primitives" : [
        {
          "attributes" : {
            "POSITION" : 1,
            "NORMAL" : 2,
            "TANGENT" : 3,
            "COLOR_0" : 4,
            "TEXCOORD_0" : 5,
            "TEXCOORD_1" : 6,
            "TEXCOORD_2" : 7,
            "TEXCOORD_3" : 8
          },
          "indices" : 0,
          "material" : 0
        },
        {
          "attributes" : {
            "POSITION" : 10,
            "NORMAL" : 11,
            "TANGENT" : 12,
            "COLOR_0" : 13,
            "TEXCOORD_0" : 14,
            "TEXCOORD_1" : 15,
            "TEXCOORD_2" : 16,
            "TEXCOORD_3" : 17
          },
          "indices" : 9,
          "material" : 1
        }
      ],
      "name" : "SM_ENV_LKNVLD_Event_HL_Noren_A"
    }
  ],
  "buffers" : [
    {
      "uri" : "SM_ENV_LKNVLD_Event_HL_Noren_A.bin",
      "byteLength" : 53024
    }
  ],
  "bufferViews" : [
    {
      "buffer" : 0,
      "byteOffset" : 0,
      "byteLength" : 384
    },
    {
      "buffer" : 0,
      "byteOffset" : 384,
      "byteLength" : 864
    },
    {
      "buffer" : 0,
      "byteOffset" : 1248,
      "byteLength" : 864
    },
    {
      "buffer" : 0,
      "byteOffset" : 2112,
      "byteLength" : 1152
    },
    {
      "buffer" : 0,
      "byteOffset" : 3264,
      "byteLength" : 288
    },
    {
      "buffer" : 0,
      "byteOffset" : 3552,
      "byteLength" : 576
    },
    {
      "buffer" : 0,
      "byteOffset" : 4128,
      "byteLength" : 576
    },
    {
      "buffer" : 0,
      "byteOffset" : 4704,
      "byteLength" : 576
    },
    {
      "buffer" : 0,
      "byteOffset" : 5280,
      "byteLength" : 576
    },
    {
      "buffer" : 0,
      "byteOffset" : 5856,
      "byteLength" : 4608
    },
    {
      "buffer" : 0,
      "byteOffset" : 10464,
      "byteLength" : 6720
    },
    {
      "buffer" : 0,
      "byteOffset" : 17184,
      "byteLength" : 6720
    },
    {
      "buffer" : 0,
      "byteOffset" : 23904,
      "byteLength" : 8960
    },
    {
      "buffer" : 0,
      "byteOffset" : 32864,
      "byteLength" : 2240
    },
    {
      "buffer" : 0,
      "byteOffset" : 35104,
      "byteLength" : 4480
    },
    {
      "buffer" : 0,
      "byteOffset" : 39584,
      "byteLength" : 4480
    },
    {
      "buffer" : 0,
      "byteOffset" : 44064,
      "byteLength" : 4480
    },
    {
      "buffer" : 0,
      "byteOffset" : 48544,
      "byteLength" : 4480
    }
  ],
  "accessors" : [
    {
      "bufferView" : 0,
      "componentType" : 5123,
      "count" : 192,
      "type" : "SCALAR"
    },
    {
      "bufferView" : 1,
      "min" : [ -1.38155, 4.59943, -1.51268 ],
      "max" : [ 1.38155, 4.63349, 1.51268 ],
      "componentType" : 5126,
      "count" : 72,
      "type" : "VEC3"
    },
    {
      "bufferView" : 2,
      "componentType" : 5126,
      "count" : 72,
      "type" : "VEC3"
    },
    {
      "bufferView" : 3,
      "componentType" : 5126,
      "count" : 72,
      "type" : "VEC4"
    },
    {
      "bufferView" : 4,
      "normalized" : true,
      "componentType" : 5121,
      "count" : 72,
      "type" : "VEC4"
    },
    {
      "bufferView" : 5,
      "componentType" : 5126,
      "count" : 72,
      "type" : "VEC2"
    },
    {
      "bufferView" : 6,
      "componentType" : 5126,
      "count" : 72,
      "type" : "VEC2"
    },
    {
      "bufferView" : 7,
      "componentType" : 5126,
      "count" : 72,
      "type" : "VEC2"
    },
    {
      "bufferView" : 8,
      "componentType" : 5126,
      "count" : 72,
      "type" : "VEC2"
    },
    {
      "bufferView" : 9,
      "componentType" : 5123,
      "count" : 2304,
      "type" : "SCALAR"
    },
    {
      "bufferView" : 10,
      "min" : [ -1.43766, 3.72562, -1.45741 ],
      "max" : [ 1.4318, 4.60442, 1.45083 ],
      "componentType" : 5126,
      "count" : 560,
      "type" : "VEC3"
    },
    {
      "bufferView" : 11,
      "componentType" : 5126,
      "count" : 560,
      "type" : "VEC3"
    },
    {
      "bufferView" : 12,
      "componentType" : 5126,
      "count" : 560,
      "type" : "VEC4"
    },
    {
      "bufferView" : 13,
      "normalized" : true,
      "componentType" : 5121,
      "count" : 560,
      "type" : "VEC4"
    },
    {
      "bufferView" : 14,
      "componentType" : 5126,
      "count" : 560,
      "type" : "VEC2"
    },
    {
      "bufferView" : 15,
      "componentType" : 5126,
      "count" : 560,
      "type" : "VEC2"
    },
    {
      "bufferView" : 16,
      "componentType" : 5126,
      "count" : 560,
      "type" : "VEC2"
    },
    {
      "bufferView" : 17,
      "componentType" : 5126,
      "count" : 560,
      "type" : "VEC2"
    }
  ]
}
