{
  "asset" : {
    "generator" : "UE Viewer (umodel) build 1544 based",
    "version" : "2.0"
  },
  "scene" : 0,
  "scenes" : [
    {
      "nodes" : [ 0 ]
    }
  ],
  "nodes" : [
    {
      "name" : "SM_ENV_LKNVLD_Torii_Sun_Lod3",
      "mesh" : 0
    }
  ],
  "materials" : [
    {
      "name" : "MI_ENV_LKNVLD_RoughTiles_LOD",
      "pbrMetallicRoughness" : {
        "baseColorFactor" : [ 0.3, 0.3, 0.3, 1.0 ],
        "metallicFactor" : 0.1,
        "roughnessFactor" : 0.5
      }
    },
    {
      "name" : "MI_ENV_LKNVLD_StoneTrim_Ground_LOD",
      "pbrMetallicRoughness" : {
        "baseColorFactor" : [ 0.9, 0.3, 0.3, 1.0 ],
        "metallicFactor" : 0.1,
        "roughnessFactor" : 0.5
      }
    },
    {
      "name" : "MI_ENV_LKNVLD_Eaves_F_LOD",
      "pbrMetallicRoughness" : {
        "baseColorFactor" : [ 0.3, 0.9, 0.3, 1.0 ],
        "metallicFactor" : 0.1,
        "roughnessFactor" : 0.5
      }
    },
    {
      "name" : "MI_ENV_LKNVLD_Rope_A_Animated",
      "pbrMetallicRoughness" : {
        "baseColorFactor" : [ 0.3, 0.3, 0.9, 1.0 ],
        "metallicFactor" : 0.1,
        "roughnessFactor" : 0.5
      }
    },
    {
      "name" : "MI_ENV_LKNVLD_ClanSignboard_J",
      "pbrMetallicRoughness" : {
        "baseColorFactor" : [ 0.9, 0.9, 0.9, 1.0 ],
        "metallicFactor" : 0.1,
        "roughnessFactor" : 0.5
      }
    },
    {
      "name" : "MI_ENV_LKNVLD_WoodTorii_A_LOD",
      "pbrMetallicRoughness" : {
        "baseColorFactor" : [ 0.9, 0.9, 0.3, 1.0 ],
        "metallicFactor" : 0.1,
        "roughnessFactor" : 0.5
      }
    }
  ],
  "meshes" : [
    {
      "primitives" : [
        {
          "attributes" : {
            "POSITION" : 1,
            "NORMAL" : 2,
            "TANGENT" : 3,
            "TEXCOORD_0" : 4,
            "TEXCOORD_1" : 5,
            "TEXCOORD_2" : 6,
            "TEXCOORD_3" : 7
          },
          "indices" : 0,
          "material" : 0
        },
        {
          "attributes" : {
            "POSITION" : 9,
            "NORMAL" : 10,
            "TANGENT" : 11,
            "TEXCOORD_0" : 12,
            "TEXCOORD_1" : 13,
            "TEXCOORD_2" : 14,
            "TEXCOORD_3" : 15
          },
          "indices" : 8,
          "material" : 1
        },
        {
          "attributes" : {
            "POSITION" : 17,
            "NORMAL" : 18,
            "TANGENT" : 19,
            "TEXCOORD_0" : 20,
            "TEXCOORD_1" : 21,
            "TEXCOORD_2" : 22,
            "TEXCOORD_3" : 23
          },
          "indices" : 16,
          "material" : 2
        },
        {
          "attributes" : {
            "POSITION" : 25,
            "NORMAL" : 26,
            "TANGENT" : 27,
            "TEXCOORD_0" : 28,
            "TEXCOORD_1" : 29,
            "TEXCOORD_2" : 30,
            "TEXCOORD_3" : 31
          },
          "indices" : 24,
          "material" : 3
        },
        {
          "attributes" : {
            "POSITION" : 33,
            "NORMAL" : 34,
            "TANGENT" : 35,
            "TEXCOORD_0" : 36,
            "TEXCOORD_1" : 37,
            "TEXCOORD_2" : 38,
            "TEXCOORD_3" : 39
          },
          "indices" : 32,
          "material" : 4
        },
        {
          "attributes" : {
            "POSITION" : 41,
            "NORMAL" : 42,
            "TANGENT" : 43,
            "TEXCOORD_0" : 44,
            "TEXCOORD_1" : 45,
            "TEXCOORD_2" : 46,
            "TEXCOORD_3" : 47
          },
          "indices" : 40,
          "material" : 5
        }
      ],
      "name" : "SM_ENV_LKNVLD_Torii_Sun_Lod3"
    }
  ],
  "buffers" : [
    {
      "uri" : "SM_ENV_LKNVLD_Torii_Sun_Lod3.bin",
      "byteLength" : 142268
    }
  ],
  "bufferViews" : [
    {
      "buffer" : 0,
      "byteOffset" : 0,
      "byteLength" : 564
    },
    {
      "buffer" : 0,
      "byteOffset" : 564,
      "byteLength" : 1968
    },
    {
      "buffer" : 0,
      "byteOffset" : 2532,
      "byteLength" : 1968
    },
    {
      "buffer" : 0,
      "byteOffset" : 4500,
      "byteLength" : 2624
    },
    {
      "buffer" : 0,
      "byteOffset" : 7124,
      "byteLength" : 1312
    },
    {
      "buffer" : 0,
      "byteOffset" : 8436,
      "byteLength" : 1312
    },
    {
      "buffer" : 0,
      "byteOffset" : 9748,
      "byteLength" : 1312
    },
    {
      "buffer" : 0,
      "byteOffset" : 11060,
      "byteLength" : 1312
    },
    {
      "buffer" : 0,
      "byteOffset" : 12372,
      "byteLength" : 236
    },
    {
      "buffer" : 0,
      "byteOffset" : 12608,
      "byteLength" : 804
    },
    {
      "buffer" : 0,
      "byteOffset" : 13412,
      "byteLength" : 804
    },
    {
      "buffer" : 0,
      "byteOffset" : 14216,
      "byteLength" : 1072
    },
    {
      "buffer" : 0,
      "byteOffset" : 15288,
      "byteLength" : 536
    },
    {
      "buffer" : 0,
      "byteOffset" : 15824,
      "byteLength" : 536
    },
    {
      "buffer" : 0,
      "byteOffset" : 16360,
      "byteLength" : 536
    },
    {
      "buffer" : 0,
      "byteOffset" : 16896,
      "byteLength" : 536
    },
    {
      "buffer" : 0,
      "byteOffset" : 17432,
      "byteLength" : 1200
    },
    {
      "buffer" : 0,
      "byteOffset" : 18632,
      "byteLength" : 3912
    },
    {
      "buffer" : 0,
      "byteOffset" : 22544,
      "byteLength" : 3912
    },
    {
      "buffer" : 0,
      "byteOffset" : 26456,
      "byteLength" : 5216
    },
    {
      "buffer" : 0,
      "byteOffset" : 31672,
      "byteLength" : 2608
    },
    {
      "buffer" : 0,
      "byteOffset" : 34280,
      "byteLength" : 2608
    },
    {
      "buffer" : 0,
      "byteOffset" : 36888,
      "byteLength" : 2608
    },
    {
      "buffer" : 0,
      "byteOffset" : 39496,
      "byteLength" : 2608
    },
    {
      "buffer" : 0,
      "byteOffset" : 42104,
      "byteLength" : 996
    },
    {
      "buffer" : 0,
      "byteOffset" : 43100,
      "byteLength" : 2400
    },
    {
      "buffer" : 0,
      "byteOffset" : 45500,
      "byteLength" : 2400
    },
    {
      "buffer" : 0,
      "byteOffset" : 47900,
      "byteLength" : 3200
    },
    {
      "buffer" : 0,
      "byteOffset" : 51100,
      "byteLength" : 1600
    },
    {
      "buffer" : 0,
      "byteOffset" : 52700,
      "byteLength" : 1600
    },
    {
      "buffer" : 0,
      "byteOffset" : 54300,
      "byteLength" : 1600
    },
    {
      "buffer" : 0,
      "byteOffset" : 55900,
      "byteLength" : 1600
    },
    {
      "buffer" : 0,
      "byteOffset" : 57500,
      "byteLength" : 300
    },
    {
      "buffer" : 0,
      "byteOffset" : 57800,
      "byteLength" : 1104
    },
    {
      "buffer" : 0,
      "byteOffset" : 58904,
      "byteLength" : 1104
    },
    {
      "buffer" : 0,
      "byteOffset" : 60008,
      "byteLength" : 1472
    },
    {
      "buffer" : 0,
      "byteOffset" : 61480,
      "byteLength" : 736
    },
    {
      "buffer" : 0,
      "byteOffset" : 62216,
      "byteLength" : 736
    },
    {
      "buffer" : 0,
      "byteOffset" : 62952,
      "byteLength" : 736
    },
    {
      "buffer" : 0,
      "byteOffset" : 63688,
      "byteLength" : 736
    },
    {
      "buffer" : 0,
      "byteOffset" : 64424,
      "byteLength" : 4620
    },
    {
      "buffer" : 0,
      "byteOffset" : 69044,
      "byteLength" : 12204
    },
    {
      "buffer" : 0,
      "byteOffset" : 81248,
      "byteLength" : 12204
    },
    {
      "buffer" : 0,
      "byteOffset" : 93452,
      "byteLength" : 16272
    },
    {
      "buffer" : 0,
      "byteOffset" : 109724,
      "byteLength" : 8136
    },
    {
      "buffer" : 0,
      "byteOffset" : 117860,
      "byteLength" : 8136
    },
    {
      "buffer" : 0,
      "byteOffset" : 125996,
      "byteLength" : 8136
    },
    {
      "buffer" : 0,
      "byteOffset" : 134132,
      "byteLength" : 8136
    }
  ],
  "accessors" : [
    {
      "bufferView" : 0,
      "componentType" : 5123,
      "count" : 282,
      "type" : "SCALAR"
    },
    {
      "bufferView" : 1,
      "min" : [ -4.77909, -0.0641648, -1.30426 ],
      "max" : [ 4.78108, 0.562456, 1.25585 ],
      "componentType" : 5126,
      "count" : 164,
      "type" : "VEC3"
    },
    {
      "bufferView" : 2,
      "componentType" : 5126,
      "count" : 164,
      "type" : "VEC3"
    },
    {
      "bufferView" : 3,
      "componentType" : 5126,
      "count" : 164,
      "type" : "VEC4"
    },
    {
      "bufferView" : 4,
      "componentType" : 5126,
      "count" : 164,
      "type" : "VEC2"
    },
    {
      "bufferView" : 5,
      "componentType" : 5126,
      "count" : 164,
      "type" : "VEC2"
    },
    {
      "bufferView" : 6,
      "componentType" : 5126,
      "count" : 164,
      "type" : "VEC2"
    },
    {
      "bufferView" : 7,
      "componentType" : 5126,
      "count" : 164,
      "type" : "VEC2"
    },
    {
      "bufferView" : 8,
      "componentType" : 5123,
      "count" : 117,
      "type" : "SCALAR"
    },
    {
      "bufferView" : 9,
      "min" : [ -4.73558, 0.0984014, -1.26111 ],
      "max" : [ 4.73793, 0.523717, 1.2127 ],
      "componentType" : 5126,
      "count" : 67,
      "type" : "VEC3"
    },
    {
      "bufferView" : 10,
      "componentType" : 5126,
      "count" : 67,
      "type" : "VEC3"
    },
    {
      "bufferView" : 11,
      "componentType" : 5126,
      "count" : 67,
      "type" : "VEC4"
    },
    {
      "bufferView" : 12,
      "componentType" : 5126,
      "count" : 67,
      "type" : "VEC2"
    },
    {
      "bufferView" : 13,
      "componentType" : 5126,
      "count" : 67,
      "type" : "VEC2"
    },
    {
      "bufferView" : 14,
      "componentType" : 5126,
      "count" : 67,
      "type" : "VEC2"
    },
    {
      "bufferView" : 15,
      "componentType" : 5126,
      "count" : 67,
      "type" : "VEC2"
    },
    {
      "bufferView" : 16,
      "componentType" : 5123,
      "count" : 600,
      "type" : "SCALAR"
    },
    {
      "bufferView" : 17,
      "min" : [ -6.80527, 9.36376, -1.02486 ],
      "max" : [ 6.80527, 13.0413, 1.04293 ],
      "componentType" : 5126,
      "count" : 326,
      "type" : "VEC3"
    },
    {
      "bufferView" : 18,
      "componentType" : 5126,
      "count" : 326,
      "type" : "VEC3"
    },
    {
      "bufferView" : 19,
      "componentType" : 5126,
      "count" : 326,
      "type" : "VEC4"
    },
    {
      "bufferView" : 20,
      "componentType" : 5126,
      "count" : 326,
      "type" : "VEC2"
    },
    {
      "bufferView" : 21,
      "componentType" : 5126,
      "count" : 326,
      "type" : "VEC2"
    },
    {
      "bufferView" : 22,
      "componentType" : 5126,
      "count" : 326,
      "type" : "VEC2"
    },
    {
      "bufferView" : 23,
      "componentType" : 5126,
      "count" : 326,
      "type" : "VEC2"
    },
    {
      "bufferView" : 24,
      "componentType" : 5123,
      "count" : 498,
      "type" : "SCALAR"
    },
    {
      "bufferView" : 25,
      "min" : [ -3.74277, 7.8237, 0.363091 ],
      "max" : [ 3.74277, 9.98905, 0.775795 ],
      "componentType" : 5126,
      "count" : 200,
      "type" : "VEC3"
    },
    {
      "bufferView" : 26,
      "componentType" : 5126,
      "count" : 200,
      "type" : "VEC3"
    },
    {
      "bufferView" : 27,
      "componentType" : 5126,
      "count" : 200,
      "type" : "VEC4"
    },
    {
      "bufferView" : 28,
      "componentType" : 5126,
      "count" : 200,
      "type" : "VEC2"
    },
    {
      "bufferView" : 29,
      "componentType" : 5126,
      "count" : 200,
      "type" : "VEC2"
    },
    {
      "bufferView" : 30,
      "componentType" : 5126,
      "count" : 200,
      "type" : "VEC2"
    },
    {
      "bufferView" : 31,
      "componentType" : 5126,
      "count" : 200,
      "type" : "VEC2"
    },
    {
      "bufferView" : 32,
      "componentType" : 5123,
      "count" : 150,
      "type" : "SCALAR"
    },
    {
      "bufferView" : 33,
      "min" : [ -0.535865, 10.1385, 0.0503185 ],
      "max" : [ 0.535865, 11.7548, 0.428534 ],
      "componentType" : 5126,
      "count" : 92,
      "type" : "VEC3"
    },
    {
      "bufferView" : 34,
      "componentType" : 5126,
      "count" : 92,
      "type" : "VEC3"
    },
    {
      "bufferView" : 35,
      "componentType" : 5126,
      "count" : 92,
      "type" : "VEC4"
    },
    {
      "bufferView" : 36,
      "componentType" : 5126,
      "count" : 92,
      "type" : "VEC2"
    },
    {
      "bufferView" : 37,
      "componentType" : 5126,
      "count" : 92,
      "type" : "VEC2"
    },
    {
      "bufferView" : 38,
      "componentType" : 5126,
      "count" : 92,
      "type" : "VEC2"
    },
    {
      "bufferView" : 39,
      "componentType" : 5126,
      "count" : 92,
      "type" : "VEC2"
    },
    {
      "bufferView" : 40,
      "componentType" : 5123,
      "count" : 2310,
      "type" : "SCALAR"
    },
    {
      "bufferView" : 41,
      "min" : [ -6.7228, 0.5, -1.02122 ],
      "max" : [ 6.7228, 12.7252, 1.03928 ],
      "componentType" : 5126,
      "count" : 1017,
      "type" : "VEC3"
    },
    {
      "bufferView" : 42,
      "componentType" : 5126,
      "count" : 1017,
      "type" : "VEC3"
    },
    {
      "bufferView" : 43,
      "componentType" : 5126,
      "count" : 1017,
      "type" : "VEC4"
    },
    {
      "bufferView" : 44,
      "componentType" : 5126,
      "count" : 1017,
      "type" : "VEC2"
    },
    {
      "bufferView" : 45,
      "componentType" : 5126,
      "count" : 1017,
      "type" : "VEC2"
    },
    {
      "bufferView" : 46,
      "componentType" : 5126,
      "count" : 1017,
      "type" : "VEC2"
    },
    {
      "bufferView" : 47,
      "componentType" : 5126,
      "count" : 1017,
      "type" : "VEC2"
    }
  ]
}
