{
  "asset" : {
    "generator" : "UE Viewer (umodel) build 1544 based",
    "version" : "2.0"
  },
  "scene" : 0,
  "scenes" : [
    {
      "nodes" : [ 0 ]
    }
  ],
  "nodes" : [
    {
      "name" : "SM_ENV_LKNVLD_WallSet_PlatformB",
      "mesh" : 0
    }
  ],
  "materials" : [
    {
      "name" : "MI_ENV_LKNVLD_WoodWallSet",
      "pbrMetallicRoughness" : {
        "baseColorFactor" : [ 0.3, 0.3, 0.3, 1.0 ],
        "metallicFactor" : 0.1,
        "roughnessFactor" : 0.5
      }
    },
    {
      "name" : "MI_ENV_LKNVLD_WoodPlain_Red",
      "pbrMetallicRoughness" : {
        "baseColorFactor" : [ 0.9, 0.3, 0.3, 1.0 ],
        "metallicFactor" : 0.1,
        "roughnessFactor" : 0.5
      }
    },
    {
      "name" : "MI_T_ENV_LKNVLD_StoneTrim",
      "pbrMetallicRoughness" : {
        "baseColorFactor" : [ 0.3, 0.9, 0.3, 1.0 ],
        "metallicFactor" : 0.1,
        "roughnessFactor" : 0.5
      }
    },
    {
      "name" : "MI_ENV_LKNVLD_WoodWallSet_Red",
      "pbrMetallicRoughness" : {
        "baseColorFactor" : [ 0.3, 0.3, 0.9, 1.0 ],
        "metallicFactor" : 0.1,
        "roughnessFactor" : 0.5
      }
    },
    {
      "name" : "MI_ENV_LKNVLD_Eaves_B",
      "pbrMetallicRoughness" : {
        "baseColorFactor" : [ 0.9, 0.9, 0.9, 1.0 ],
        "metallicFactor" : 0.1,
        "roughnessFactor" : 0.5
      }
    },
    {
      "name" : "MI_ENV_LKNVLD_Signboard_A",
      "pbrMetallicRoughness" : {
        "baseColorFactor" : [ 0.9, 0.9, 0.3, 1.0 ],
        "metallicFactor" : 0.1,
        "roughnessFactor" : 0.5
      }
    },
    {
      "name" : "MI_ENV_LKNVLD_WoodBoard_Natural_Lighter",
      "pbrMetallicRoughness" : {
        "baseColorFactor" : [ 0.9, 0.3, 0.9, 1.0 ],
        "metallicFactor" : 0.1,
        "roughnessFactor" : 0.5
      }
    }
  ],
  "meshes" : [
    {
      "primitives" : [
        {
          "attributes" : {
            "POSITION" : 1,
            "NORMAL" : 2,
            "TANGENT" : 3,
            "TEXCOORD_0" : 4,
            "TEXCOORD_1" : 5,
            "TEXCOORD_2" : 6,
            "TEXCOORD_3" : 7
          },
          "indices" : 0,
          "material" : 0
        },
        {
          "attributes" : {
            "POSITION" : 9,
            "NORMAL" : 10,
            "TANGENT" : 11,
            "TEXCOORD_0" : 12,
            "TEXCOORD_1" : 13,
            "TEXCOORD_2" : 14,
            "TEXCOORD_3" : 15
          },
          "indices" : 8,
          "material" : 1
        },
        {
          "attributes" : {
            "POSITION" : 17,
            "NORMAL" : 18,
            "TANGENT" : 19,
            "TEXCOORD_0" : 20,
            "TEXCOORD_1" : 21,
            "TEXCOORD_2" : 22,
            "TEXCOORD_3" : 23
          },
          "indices" : 16,
          "material" : 2
        },
        {
          "attributes" : {
            "POSITION" : 25,
            "NORMAL" : 26,
            "TANGENT" : 27,
            "TEXCOORD_0" : 28,
            "TEXCOORD_1" : 29,
            "TEXCOORD_2" : 30,
            "TEXCOORD_3" : 31
          },
          "indices" : 24,
          "material" : 3
        },
        {
          "attributes" : {
            "POSITION" : 33,
            "NORMAL" : 34,
            "TANGENT" : 35,
            "TEXCOORD_0" : 36,
            "TEXCOORD_1" : 37,
            "TEXCOORD_2" : 38,
            "TEXCOORD_3" : 39
          },
          "indices" : 32,
          "material" : 4
        },
        {
          "attributes" : {
            "POSITION" : 41,
            "NORMAL" : 42,
            "TANGENT" : 43,
            "TEXCOORD_0" : 44,
            "TEXCOORD_1" : 45,
            "TEXCOORD_2" : 46,
            "TEXCOORD_3" : 47
          },
          "indices" : 40,
          "material" : 5
        },
        {
          "attributes" : {
            "POSITION" : 49,
            "NORMAL" : 50,
            "TANGENT" : 51,
            "TEXCOORD_0" : 52,
            "TEXCOORD_1" : 53,
            "TEXCOORD_2" : 54,
            "TEXCOORD_3" : 55
          },
          "indices" : 48,
          "material" : 6
        }
      ],
      "name" : "SM_ENV_LKNVLD_WallSet_PlatformB"
    }
  ],
  "buffers" : [
    {
      "uri" : "SM_ENV_LKNVLD_WallSet_PlatformB.bin",
      "byteLength" : 578064
    }
  ],
  "bufferViews" : [
    {
      "buffer" : 0,
      "byteOffset" : 0,
      "byteLength" : 6576
    },
    {
      "buffer" : 0,
      "byteOffset" : 6576,
      "byteLength" : 15576
    },
    {
      "buffer" : 0,
      "byteOffset" : 22152,
      "byteLength" : 15576
    },
    {
      "buffer" : 0,
      "byteOffset" : 37728,
      "byteLength" : 20768
    },
    {
      "buffer" : 0,
      "byteOffset" : 58496,
      "byteLength" : 10384
    },
    {
      "buffer" : 0,
      "byteOffset" : 68880,
      "byteLength" : 10384
    },
    {
      "buffer" : 0,
      "byteOffset" : 79264,
      "byteLength" : 10384
    },
    {
      "buffer" : 0,
      "byteOffset" : 89648,
      "byteLength" : 10384
    },
    {
      "buffer" : 0,
      "byteOffset" : 100032,
      "byteLength" : 14448
    },
    {
      "buffer" : 0,
      "byteOffset" : 114480,
      "byteLength" : 46728
    },
    {
      "buffer" : 0,
      "byteOffset" : 161208,
      "byteLength" : 46728
    },
    {
      "buffer" : 0,
      "byteOffset" : 207936,
      "byteLength" : 62304
    },
    {
      "buffer" : 0,
      "byteOffset" : 270240,
      "byteLength" : 31152
    },
    {
      "buffer" : 0,
      "byteOffset" : 301392,
      "byteLength" : 31152
    },
    {
      "buffer" : 0,
      "byteOffset" : 332544,
      "byteLength" : 31152
    },
    {
      "buffer" : 0,
      "byteOffset" : 363696,
      "byteLength" : 31152
    },
    {
      "buffer" : 0,
      "byteOffset" : 394848,
      "byteLength" : 3552
    },
    {
      "buffer" : 0,
      "byteOffset" : 398400,
      "byteLength" : 5676
    },
    {
      "buffer" : 0,
      "byteOffset" : 404076,
      "byteLength" : 5676
    },
    {
      "buffer" : 0,
      "byteOffset" : 409752,
      "byteLength" : 7568
    },
    {
      "buffer" : 0,
      "byteOffset" : 417320,
      "byteLength" : 3784
    },
    {
      "buffer" : 0,
      "byteOffset" : 421104,
      "byteLength" : 3784
    },
    {
      "buffer" : 0,
      "byteOffset" : 424888,
      "byteLength" : 3784
    },
    {
      "buffer" : 0,
      "byteOffset" : 428672,
      "byteLength" : 3784
    },
    {
      "buffer" : 0,
      "byteOffset" : 432456,
      "byteLength" : 840
    },
    {
      "buffer" : 0,
      "byteOffset" : 433296,
      "byteLength" : 1800
    },
    {
      "buffer" : 0,
      "byteOffset" : 435096,
      "byteLength" : 1800
    },
    {
      "buffer" : 0,
      "byteOffset" : 436896,
      "byteLength" : 2400
    },
    {
      "buffer" : 0,
      "byteOffset" : 439296,
      "byteLength" : 1200
    },
    {
      "buffer" : 0,
      "byteOffset" : 440496,
      "byteLength" : 1200
    },
    {
      "buffer" : 0,
      "byteOffset" : 441696,
      "byteLength" : 1200
    },
    {
      "buffer" : 0,
      "byteOffset" : 442896,
      "byteLength" : 1200
    },
    {
      "buffer" : 0,
      "byteOffset" : 444096,
      "byteLength" : 1740
    },
    {
      "buffer" : 0,
      "byteOffset" : 445836,
      "byteLength" : 4536
    },
    {
      "buffer" : 0,
      "byteOffset" : 450372,
      "byteLength" : 4536
    },
    {
      "buffer" : 0,
      "byteOffset" : 454908,
      "byteLength" : 6048
    },
    {
      "buffer" : 0,
      "byteOffset" : 460956,
      "byteLength" : 3024
    },
    {
      "buffer" : 0,
      "byteOffset" : 463980,
      "byteLength" : 3024
    },
    {
      "buffer" : 0,
      "byteOffset" : 467004,
      "byteLength" : 3024
    },
    {
      "buffer" : 0,
      "byteOffset" : 470028,
      "byteLength" : 3024
    },
    {
      "buffer" : 0,
      "byteOffset" : 473052,
      "byteLength" : 6624
    },
    {
      "buffer" : 0,
      "byteOffset" : 479676,
      "byteLength" : 16272
    },
    {
      "buffer" : 0,
      "byteOffset" : 495948,
      "byteLength" : 16272
    },
    {
      "buffer" : 0,
      "byteOffset" : 512220,
      "byteLength" : 21696
    },
    {
      "buffer" : 0,
      "byteOffset" : 533916,
      "byteLength" : 10848
    },
    {
      "buffer" : 0,
      "byteOffset" : 544764,
      "byteLength" : 10848
    },
    {
      "buffer" : 0,
      "byteOffset" : 555612,
      "byteLength" : 10848
    },
    {
      "buffer" : 0,
      "byteOffset" : 566460,
      "byteLength" : 10848
    },
    {
      "buffer" : 0,
      "byteOffset" : 577308,
      "byteLength" : 36
    },
    {
      "buffer" : 0,
      "byteOffset" : 577344,
      "byteLength" : 120
    },
    {
      "buffer" : 0,
      "byteOffset" : 577464,
      "byteLength" : 120
    },
    {
      "buffer" : 0,
      "byteOffset" : 577584,
      "byteLength" : 160
    },
    {
      "buffer" : 0,
      "byteOffset" : 577744,
      "byteLength" : 80
    },
    {
      "buffer" : 0,
      "byteOffset" : 577824,
      "byteLength" : 80
    },
    {
      "buffer" : 0,
      "byteOffset" : 577904,
      "byteLength" : 80
    },
    {
      "buffer" : 0,
      "byteOffset" : 577984,
      "byteLength" : 80
    }
  ],
  "accessors" : [
    {
      "bufferView" : 0,
      "componentType" : 5123,
      "count" : 3288,
      "type" : "SCALAR"
    },
    {
      "bufferView" : 1,
      "min" : [ -59.7614, 0.298723, -15.2548 ],
      "max" : [ -17.4839, 6.2, 29.4328 ],
      "componentType" : 5126,
      "count" : 1298,
      "type" : "VEC3"
    },
    {
      "bufferView" : 2,
      "componentType" : 5126,
      "count" : 1298,
      "type" : "VEC3"
    },
    {
      "bufferView" : 3,
      "componentType" : 5126,
      "count" : 1298,
      "type" : "VEC4"
    },
    {
      "bufferView" : 4,
      "componentType" : 5126,
      "count" : 1298,
      "type" : "VEC2"
    },
    {
      "bufferView" : 5,
      "componentType" : 5126,
      "count" : 1298,
      "type" : "VEC2"
    },
    {
      "bufferView" : 6,
      "componentType" : 5126,
      "count" : 1298,
      "type" : "VEC2"
    },
    {
      "bufferView" : 7,
      "componentType" : 5126,
      "count" : 1298,
      "type" : "VEC2"
    },
    {
      "bufferView" : 8,
      "componentType" : 5123,
      "count" : 7224,
      "type" : "SCALAR"
    },
    {
      "bufferView" : 9,
      "min" : [ -65.0971, 0.699998, -16.0418 ],
      "max" : [ -16.6596, 7.6, 51.6978 ],
      "componentType" : 5126,
      "count" : 3894,
      "type" : "VEC3"
    },
    {
      "bufferView" : 10,
      "componentType" : 5126,
      "count" : 3894,
      "type" : "VEC3"
    },
    {
      "bufferView" : 11,
      "componentType" : 5126,
      "count" : 3894,
      "type" : "VEC4"
    },
    {
      "bufferView" : 12,
      "componentType" : 5126,
      "count" : 3894,
      "type" : "VEC2"
    },
    {
      "bufferView" : 13,
      "componentType" : 5126,
      "count" : 3894,
      "type" : "VEC2"
    },
    {
      "bufferView" : 14,
      "componentType" : 5126,
      "count" : 3894,
      "type" : "VEC2"
    },
    {
      "bufferView" : 15,
      "componentType" : 5126,
      "count" : 3894,
      "type" : "VEC2"
    },
    {
      "bufferView" : 16,
      "componentType" : 5123,
      "count" : 1776,
      "type" : "SCALAR"
    },
    {
      "bufferView" : 17,
      "min" : [ -59.8055, -0.00134779, -15.3134 ],
      "max" : [ -17.4253, 0.300421, 29.4914 ],
      "componentType" : 5126,
      "count" : 473,
      "type" : "VEC3"
    },
    {
      "bufferView" : 18,
      "componentType" : 5126,
      "count" : 473,
      "type" : "VEC3"
    },
    {
      "bufferView" : 19,
      "componentType" : 5126,
      "count" : 473,
      "type" : "VEC4"
    },
    {
      "bufferView" : 20,
      "componentType" : 5126,
      "count" : 473,
      "type" : "VEC2"
    },
    {
      "bufferView" : 21,
      "componentType" : 5126,
      "count" : 473,
      "type" : "VEC2"
    },
    {
      "bufferView" : 22,
      "componentType" : 5126,
      "count" : 473,
      "type" : "VEC2"
    },
    {
      "bufferView" : 23,
      "componentType" : 5126,
      "count" : 473,
      "type" : "VEC2"
    },
    {
      "bufferView" : 24,
      "componentType" : 5123,
      "count" : 420,
      "type" : "SCALAR"
    },
    {
      "bufferView" : 25,
      "min" : [ -59.7473, 0.798742, -15.2361 ],
      "max" : [ -17.5027, 1.50038, 29.414 ],
      "componentType" : 5126,
      "count" : 150,
      "type" : "VEC3"
    },
    {
      "bufferView" : 26,
      "componentType" : 5126,
      "count" : 150,
      "type" : "VEC3"
    },
    {
      "bufferView" : 27,
      "componentType" : 5126,
      "count" : 150,
      "type" : "VEC4"
    },
    {
      "bufferView" : 28,
      "componentType" : 5126,
      "count" : 150,
      "type" : "VEC2"
    },
    {
      "bufferView" : 29,
      "componentType" : 5126,
      "count" : 150,
      "type" : "VEC2"
    },
    {
      "bufferView" : 30,
      "componentType" : 5126,
      "count" : 150,
      "type" : "VEC2"
    },
    {
      "bufferView" : 31,
      "componentType" : 5126,
      "count" : 150,
      "type" : "VEC2"
    },
    {
      "bufferView" : 32,
      "componentType" : 5123,
      "count" : 870,
      "type" : "SCALAR"
    },
    {
      "bufferView" : 33,
      "min" : [ -59.2665, 5.07001, -16.0146 ],
      "max" : [ -16.6596, 5.60191, 28.8933 ],
      "componentType" : 5126,
      "count" : 378,
      "type" : "VEC3"
    },
    {
      "bufferView" : 34,
      "componentType" : 5126,
      "count" : 378,
      "type" : "VEC3"
    },
    {
      "bufferView" : 35,
      "componentType" : 5126,
      "count" : 378,
      "type" : "VEC4"
    },
    {
      "bufferView" : 36,
      "componentType" : 5126,
      "count" : 378,
      "type" : "VEC2"
    },
    {
      "bufferView" : 37,
      "componentType" : 5126,
      "count" : 378,
      "type" : "VEC2"
    },
    {
      "bufferView" : 38,
      "componentType" : 5126,
      "count" : 378,
      "type" : "VEC2"
    },
    {
      "bufferView" : 39,
      "componentType" : 5126,
      "count" : 378,
      "type" : "VEC2"
    },
    {
      "bufferView" : 40,
      "componentType" : 5123,
      "count" : 3312,
      "type" : "SCALAR"
    },
    {
      "bufferView" : 41,
      "min" : [ -59.8071, 4.8, -16.0146 ],
      "max" : [ -16.6596, 8.12, 29.5079 ],
      "componentType" : 5126,
      "count" : 1356,
      "type" : "VEC3"
    },
    {
      "bufferView" : 42,
      "componentType" : 5126,
      "count" : 1356,
      "type" : "VEC3"
    },
    {
      "bufferView" : 43,
      "componentType" : 5126,
      "count" : 1356,
      "type" : "VEC4"
    },
    {
      "bufferView" : 44,
      "componentType" : 5126,
      "count" : 1356,
      "type" : "VEC2"
    },
    {
      "bufferView" : 45,
      "componentType" : 5126,
      "count" : 1356,
      "type" : "VEC2"
    },
    {
      "bufferView" : 46,
      "componentType" : 5126,
      "count" : 1356,
      "type" : "VEC2"
    },
    {
      "bufferView" : 47,
      "componentType" : 5126,
      "count" : 1356,
      "type" : "VEC2"
    },
    {
      "bufferView" : 48,
      "componentType" : 5123,
      "count" : 18,
      "type" : "SCALAR"
    },
    {
      "bufferView" : 49,
      "min" : [ -64.3971, 5.99999, -15.1071 ],
      "max" : [ -18, 6, 50.7107 ],
      "componentType" : 5126,
      "count" : 10,
      "type" : "VEC3"
    },
    {
      "bufferView" : 50,
      "componentType" : 5126,
      "count" : 10,
      "type" : "VEC3"
    },
    {
      "bufferView" : 51,
      "componentType" : 5126,
      "count" : 10,
      "type" : "VEC4"
    },
    {
      "bufferView" : 52,
      "componentType" : 5126,
      "count" : 10,
      "type" : "VEC2"
    },
    {
      "bufferView" : 53,
      "componentType" : 5126,
      "count" : 10,
      "type" : "VEC2"
    },
    {
      "bufferView" : 54,
      "componentType" : 5126,
      "count" : 10,
      "type" : "VEC2"
    },
    {
      "bufferView" : 55,
      "componentType" : 5126,
      "count" : 10,
      "type" : "VEC2"
    }
  ]
}
