{
  "asset" : {
    "generator" : "UE Viewer (umodel) build 1544 based",
    "version" : "2.0"
  },
  "scene" : 0,
  "scenes" : [
    {
      "nodes" : [ 0 ]
    }
  ],
  "nodes" : [
    {
      "name" : "SM_ENV_LKNVLD_TreeSet_F_Lod1",
      "mesh" : 0
    }
  ],
  "materials" : [
    {
      "name" : "MI_ENV_LKNVLD_Tree_A_Masked_CameraTrans",
      "pbrMetallicRoughness" : {
        "baseColorFactor" : [ 0.3, 0.3, 0.3, 1.0 ],
        "metallicFactor" : 0.1,
        "roughnessFactor" : 0.5
      }
    },
    {
      "name" : "MI_ENV_LKNVLD_LeafMasked_A",
      "pbrMetallicRoughness" : {
        "baseColorFactor" : [ 0.9, 0.3, 0.3, 1.0 ],
        "metallicFactor" : 0.1,
        "roughnessFactor" : 0.5
      }
    },
    {
      "name" : "MI_ENV_LKNVLD_Leaf_A",
      "pbrMetallicRoughness" : {
        "baseColorFactor" : [ 0.3, 0.9, 0.3, 1.0 ],
        "metallicFactor" : 0.1,
        "roughnessFactor" : 0.5
      }
    }
  ],
  "meshes" : [
    {
      "primitives" : [
        {
          "attributes" : {
            "POSITION" : 1,
            "NORMAL" : 2,
            "TANGENT" : 3,
            "COLOR_0" : 4,
            "TEXCOORD_0" : 5,
            "TEXCOORD_1" : 6,
            "TEXCOORD_2" : 7,
            "TEXCOORD_3" : 8
          },
          "indices" : 0,
          "material" : 0
        },
        {
          "attributes" : {
            "POSITION" : 10,
            "NORMAL" : 11,
            "TANGENT" : 12,
            "COLOR_0" : 13,
            "TEXCOORD_0" : 14,
            "TEXCOORD_1" : 15,
            "TEXCOORD_2" : 16,
            "TEXCOORD_3" : 17
          },
          "indices" : 9,
          "material" : 1
        },
        {
          "attributes" : {
            "POSITION" : 19,
            "NORMAL" : 20,
            "TANGENT" : 21,
            "COLOR_0" : 22,
            "TEXCOORD_0" : 23,
            "TEXCOORD_1" : 24,
            "TEXCOORD_2" : 25,
            "TEXCOORD_3" : 26
          },
          "indices" : 18,
          "material" : 2
        }
      ],
      "name" : "SM_ENV_LKNVLD_TreeSet_F_Lod1"
    }
  ],
  "buffers" : [
    {
      "uri" : "SM_ENV_LKNVLD_TreeSet_F_Lod1.bin",
      "byteLength" : 2204736
    }
  ],
  "bufferViews" : [
    {
      "buffer" : 0,
      "byteOffset" : 0,
      "byteLength" : 7424
    },
    {
      "buffer" : 0,
      "byteOffset" : 7424,
      "byteLength" : 31296
    },
    {
      "buffer" : 0,
      "byteOffset" : 38720,
      "byteLength" : 31296
    },
    {
      "buffer" : 0,
      "byteOffset" : 70016,
      "byteLength" : 41728
    },
    {
      "buffer" : 0,
      "byteOffset" : 111744,
      "byteLength" : 10432
    },
    {
      "buffer" : 0,
      "byteOffset" : 122176,
      "byteLength" : 20864
    },
    {
      "buffer" : 0,
      "byteOffset" : 143040,
      "byteLength" : 20864
    },
    {
      "buffer" : 0,
      "byteOffset" : 163904,
      "byteLength" : 20864
    },
    {
      "buffer" : 0,
      "byteOffset" : 184768,
      "byteLength" : 20864
    },
    {
      "buffer" : 0,
      "byteOffset" : 205632,
      "byteLength" : 84612
    },
    {
      "buffer" : 0,
      "byteOffset" : 290244,
      "byteLength" : 231072
    },
    {
      "buffer" : 0,
      "byteOffset" : 521316,
      "byteLength" : 231072
    },
    {
      "buffer" : 0,
      "byteOffset" : 752388,
      "byteLength" : 308096
    },
    {
      "buffer" : 0,
      "byteOffset" : 1060484,
      "byteLength" : 77024
    },
    {
      "buffer" : 0,
      "byteOffset" : 1137508,
      "byteLength" : 154048
    },
    {
      "buffer" : 0,
      "byteOffset" : 1291556,
      "byteLength" : 154048
    },
    {
      "buffer" : 0,
      "byteOffset" : 1445604,
      "byteLength" : 154048
    },
    {
      "buffer" : 0,
      "byteOffset" : 1599652,
      "byteLength" : 154048
    },
    {
      "buffer" : 0,
      "byteOffset" : 1753700,
      "byteLength" : 18368
    },
    {
      "buffer" : 0,
      "byteOffset" : 1772068,
      "byteLength" : 68316
    },
    {
      "buffer" : 0,
      "byteOffset" : 1840384,
      "byteLength" : 68316
    },
    {
      "buffer" : 0,
      "byteOffset" : 1908700,
      "byteLength" : 91088
    },
    {
      "buffer" : 0,
      "byteOffset" : 1999788,
      "byteLength" : 22772
    },
    {
      "buffer" : 0,
      "byteOffset" : 2022560,
      "byteLength" : 45544
    },
    {
      "buffer" : 0,
      "byteOffset" : 2068104,
      "byteLength" : 45544
    },
    {
      "buffer" : 0,
      "byteOffset" : 2113648,
      "byteLength" : 45544
    },
    {
      "buffer" : 0,
      "byteOffset" : 2159192,
      "byteLength" : 45544
    }
  ],
  "accessors" : [
    {
      "bufferView" : 0,
      "componentType" : 5123,
      "count" : 3711,
      "type" : "SCALAR"
    },
    {
      "bufferView" : 1,
      "min" : [ 38.5489, -0.595882, -71.2824 ],
      "max" : [ 50.7648, 10.577, -55.8837 ],
      "componentType" : 5126,
      "count" : 2608,
      "type" : "VEC3"
    },
    {
      "bufferView" : 2,
      "componentType" : 5126,
      "count" : 2608,
      "type" : "VEC3"
    },
    {
      "bufferView" : 3,
      "componentType" : 5126,
      "count" : 2608,
      "type" : "VEC4"
    },
    {
      "bufferView" : 4,
      "normalized" : true,
      "componentType" : 5121,
      "count" : 2608,
      "type" : "VEC4"
    },
    {
      "bufferView" : 5,
      "componentType" : 5126,
      "count" : 2608,
      "type" : "VEC2"
    },
    {
      "bufferView" : 6,
      "componentType" : 5126,
      "count" : 2608,
      "type" : "VEC2"
    },
    {
      "bufferView" : 7,
      "componentType" : 5126,
      "count" : 2608,
      "type" : "VEC2"
    },
    {
      "bufferView" : 8,
      "componentType" : 5126,
      "count" : 2608,
      "type" : "VEC2"
    },
    {
      "bufferView" : 9,
      "componentType" : 5123,
      "count" : 42306,
      "type" : "SCALAR"
    },
    {
      "bufferView" : 10,
      "min" : [ 36.9853, 3.60237, -72.3625 ],
      "max" : [ 51.584, 13.3321, -54.2565 ],
      "componentType" : 5126,
      "count" : 19256,
      "type" : "VEC3"
    },
    {
      "bufferView" : 11,
      "componentType" : 5126,
      "count" : 19256,
      "type" : "VEC3"
    },
    {
      "bufferView" : 12,
      "componentType" : 5126,
      "count" : 19256,
      "type" : "VEC4"
    },
    {
      "bufferView" : 13,
      "normalized" : true,
      "componentType" : 5121,
      "count" : 19256,
      "type" : "VEC4"
    },
    {
      "bufferView" : 14,
      "componentType" : 5126,
      "count" : 19256,
      "type" : "VEC2"
    },
    {
      "bufferView" : 15,
      "componentType" : 5126,
      "count" : 19256,
      "type" : "VEC2"
    },
    {
      "bufferView" : 16,
      "componentType" : 5126,
      "count" : 19256,
      "type" : "VEC2"
    },
    {
      "bufferView" : 17,
      "componentType" : 5126,
      "count" : 19256,
      "type" : "VEC2"
    },
    {
      "bufferView" : 18,
      "componentType" : 5123,
      "count" : 9183,
      "type" : "SCALAR"
    },
    {
      "bufferView" : 19,
      "min" : [ 37.1339, 3.81486, -72.1846 ],
      "max" : [ 51.4092, 13.1728, -54.4101 ],
      "componentType" : 5126,
      "count" : 5693,
      "type" : "VEC3"
    },
    {
      "bufferView" : 20,
      "componentType" : 5126,
      "count" : 5693,
      "type" : "VEC3"
    },
    {
      "bufferView" : 21,
      "componentType" : 5126,
      "count" : 5693,
      "type" : "VEC4"
    },
    {
      "bufferView" : 22,
      "normalized" : true,
      "componentType" : 5121,
      "count" : 5693,
      "type" : "VEC4"
    },
    {
      "bufferView" : 23,
      "componentType" : 5126,
      "count" : 5693,
      "type" : "VEC2"
    },
    {
      "bufferView" : 24,
      "componentType" : 5126,
      "count" : 5693,
      "type" : "VEC2"
    },
    {
      "bufferView" : 25,
      "componentType" : 5126,
      "count" : 5693,
      "type" : "VEC2"
    },
    {
      "bufferView" : 26,
      "componentType" : 5126,
      "count" : 5693,
      "type" : "VEC2"
    }
  ]
}
