{
  "asset" : {
    "generator" : "UE Viewer (umodel) build 1544 based",
    "version" : "2.0"
  },
  "scene" : 0,
  "scenes" : [
    {
      "nodes" : [ 0 ]
    }
  ],
  "nodes" : [
    {
      "name" : "SM_ENV_LKNVLD_WallSet_Bend_Lod1",
      "mesh" : 0
    }
  ],
  "materials" : [
    {
      "name" : "MI_ENV_LKNVLD_WoodPlain_Red",
      "pbrMetallicRoughness" : {
        "baseColorFactor" : [ 0.3, 0.3, 0.3, 1.0 ],
        "metallicFactor" : 0.1,
        "roughnessFactor" : 0.5
      }
    },
    {
      "name" : "MI_ENV_LKNVLD_WoodWallSet",
      "pbrMetallicRoughness" : {
        "baseColorFactor" : [ 0.9, 0.3, 0.3, 1.0 ],
        "metallicFactor" : 0.1,
        "roughnessFactor" : 0.5
      }
    },
    {
      "name" : "MI_ENV_LKNVLD_Signboard_A",
      "pbrMetallicRoughness" : {
        "baseColorFactor" : [ 0.3, 0.9, 0.3, 1.0 ],
        "metallicFactor" : 0.1,
        "roughnessFactor" : 0.5
      }
    },
    {
      "name" : "MI_ENV_LKNVLD_Eaves_B",
      "pbrMetallicRoughness" : {
        "baseColorFactor" : [ 0.3, 0.3, 0.9, 1.0 ],
        "metallicFactor" : 0.1,
        "roughnessFactor" : 0.5
      }
    },
    {
      "name" : "MI_ENV_LKNVLD_StoneTrim_Ground",
      "pbrMetallicRoughness" : {
        "baseColorFactor" : [ 0.9, 0.9, 0.9, 1.0 ],
        "metallicFactor" : 0.1,
        "roughnessFactor" : 0.5
      }
    },
    {
      "name" : "MI_ENV_LKNVLD_WoodBoard_Natural_Lighter",
      "pbrMetallicRoughness" : {
        "baseColorFactor" : [ 0.9, 0.9, 0.3, 1.0 ],
        "metallicFactor" : 0.1,
        "roughnessFactor" : 0.5
      }
    },
    {
      "name" : "MI_ENV_LKNVLD_WoodWallSet_Red",
      "pbrMetallicRoughness" : {
        "baseColorFactor" : [ 0.9, 0.3, 0.9, 1.0 ],
        "metallicFactor" : 0.1,
        "roughnessFactor" : 0.5
      }
    }
  ],
  "meshes" : [
    {
      "primitives" : [
        {
          "attributes" : {
            "POSITION" : 1,
            "NORMAL" : 2,
            "TANGENT" : 3,
            "TEXCOORD_0" : 4,
            "TEXCOORD_1" : 5,
            "TEXCOORD_2" : 6,
            "TEXCOORD_3" : 7
          },
          "indices" : 0,
          "material" : 0
        },
        {
          "attributes" : {
            "POSITION" : 9,
            "NORMAL" : 10,
            "TANGENT" : 11,
            "TEXCOORD_0" : 12,
            "TEXCOORD_1" : 13,
            "TEXCOORD_2" : 14,
            "TEXCOORD_3" : 15
          },
          "indices" : 8,
          "material" : 1
        },
        {
          "attributes" : {
            "POSITION" : 17,
            "NORMAL" : 18,
            "TANGENT" : 19,
            "TEXCOORD_0" : 20,
            "TEXCOORD_1" : 21,
            "TEXCOORD_2" : 22,
            "TEXCOORD_3" : 23
          },
          "indices" : 16,
          "material" : 2
        },
        {
          "attributes" : {
            "POSITION" : 25,
            "NORMAL" : 26,
            "TANGENT" : 27,
            "TEXCOORD_0" : 28,
            "TEXCOORD_1" : 29,
            "TEXCOORD_2" : 30,
            "TEXCOORD_3" : 31
          },
          "indices" : 24,
          "material" : 3
        },
        {
          "attributes" : {
            "POSITION" : 33,
            "NORMAL" : 34,
            "TANGENT" : 35,
            "TEXCOORD_0" : 36,
            "TEXCOORD_1" : 37,
            "TEXCOORD_2" : 38,
            "TEXCOORD_3" : 39
          },
          "indices" : 32,
          "material" : 4
        },
        {
          "attributes" : {
            "POSITION" : 41,
            "NORMAL" : 42,
            "TANGENT" : 43,
            "TEXCOORD_0" : 44,
            "TEXCOORD_1" : 45,
            "TEXCOORD_2" : 46,
            "TEXCOORD_3" : 47
          },
          "indices" : 40,
          "material" : 5
        },
        {
          "attributes" : {
            "POSITION" : 49,
            "NORMAL" : 50,
            "TANGENT" : 51,
            "TEXCOORD_0" : 52,
            "TEXCOORD_1" : 53,
            "TEXCOORD_2" : 54,
            "TEXCOORD_3" : 55
          },
          "indices" : 48,
          "material" : 6
        }
      ],
      "name" : "SM_ENV_LKNVLD_WallSet_Bend_Lod1"
    }
  ],
  "buffers" : [
    {
      "uri" : "SM_ENV_LKNVLD_WallSet_Bend_Lod1.bin",
      "byteLength" : 920292
    }
  ],
  "bufferViews" : [
    {
      "buffer" : 0,
      "byteOffset" : 0,
      "byteLength" : 22956
    },
    {
      "buffer" : 0,
      "byteOffset" : 22956,
      "byteLength" : 74652
    },
    {
      "buffer" : 0,
      "byteOffset" : 97608,
      "byteLength" : 74652
    },
    {
      "buffer" : 0,
      "byteOffset" : 172260,
      "byteLength" : 99536
    },
    {
      "buffer" : 0,
      "byteOffset" : 271796,
      "byteLength" : 49768
    },
    {
      "buffer" : 0,
      "byteOffset" : 321564,
      "byteLength" : 49768
    },
    {
      "buffer" : 0,
      "byteOffset" : 371332,
      "byteLength" : 49768
    },
    {
      "buffer" : 0,
      "byteOffset" : 421100,
      "byteLength" : 49768
    },
    {
      "buffer" : 0,
      "byteOffset" : 470868,
      "byteLength" : 11228
    },
    {
      "buffer" : 0,
      "byteOffset" : 482096,
      "byteLength" : 32148
    },
    {
      "buffer" : 0,
      "byteOffset" : 514244,
      "byteLength" : 32148
    },
    {
      "buffer" : 0,
      "byteOffset" : 546392,
      "byteLength" : 42864
    },
    {
      "buffer" : 0,
      "byteOffset" : 589256,
      "byteLength" : 21432
    },
    {
      "buffer" : 0,
      "byteOffset" : 610688,
      "byteLength" : 21432
    },
    {
      "buffer" : 0,
      "byteOffset" : 632120,
      "byteLength" : 21432
    },
    {
      "buffer" : 0,
      "byteOffset" : 653552,
      "byteLength" : 21432
    },
    {
      "buffer" : 0,
      "byteOffset" : 674984,
      "byteLength" : 8732
    },
    {
      "buffer" : 0,
      "byteOffset" : 683716,
      "byteLength" : 23904
    },
    {
      "buffer" : 0,
      "byteOffset" : 707620,
      "byteLength" : 23904
    },
    {
      "buffer" : 0,
      "byteOffset" : 731524,
      "byteLength" : 31872
    },
    {
      "buffer" : 0,
      "byteOffset" : 763396,
      "byteLength" : 15936
    },
    {
      "buffer" : 0,
      "byteOffset" : 779332,
      "byteLength" : 15936
    },
    {
      "buffer" : 0,
      "byteOffset" : 795268,
      "byteLength" : 15936
    },
    {
      "buffer" : 0,
      "byteOffset" : 811204,
      "byteLength" : 15936
    },
    {
      "buffer" : 0,
      "byteOffset" : 827140,
      "byteLength" : 1836
    },
    {
      "buffer" : 0,
      "byteOffset" : 828976,
      "byteLength" : 5832
    },
    {
      "buffer" : 0,
      "byteOffset" : 834808,
      "byteLength" : 5832
    },
    {
      "buffer" : 0,
      "byteOffset" : 840640,
      "byteLength" : 7776
    },
    {
      "buffer" : 0,
      "byteOffset" : 848416,
      "byteLength" : 3888
    },
    {
      "buffer" : 0,
      "byteOffset" : 852304,
      "byteLength" : 3888
    },
    {
      "buffer" : 0,
      "byteOffset" : 856192,
      "byteLength" : 3888
    },
    {
      "buffer" : 0,
      "byteOffset" : 860080,
      "byteLength" : 3888
    },
    {
      "buffer" : 0,
      "byteOffset" : 863968,
      "byteLength" : 2976
    },
    {
      "buffer" : 0,
      "byteOffset" : 866944,
      "byteLength" : 6408
    },
    {
      "buffer" : 0,
      "byteOffset" : 873352,
      "byteLength" : 6408
    },
    {
      "buffer" : 0,
      "byteOffset" : 879760,
      "byteLength" : 8544
    },
    {
      "buffer" : 0,
      "byteOffset" : 888304,
      "byteLength" : 4272
    },
    {
      "buffer" : 0,
      "byteOffset" : 892576,
      "byteLength" : 4272
    },
    {
      "buffer" : 0,
      "byteOffset" : 896848,
      "byteLength" : 4272
    },
    {
      "buffer" : 0,
      "byteOffset" : 901120,
      "byteLength" : 4272
    },
    {
      "buffer" : 0,
      "byteOffset" : 905392,
      "byteLength" : 68
    },
    {
      "buffer" : 0,
      "byteOffset" : 905460,
      "byteLength" : 228
    },
    {
      "buffer" : 0,
      "byteOffset" : 905688,
      "byteLength" : 228
    },
    {
      "buffer" : 0,
      "byteOffset" : 905916,
      "byteLength" : 304
    },
    {
      "buffer" : 0,
      "byteOffset" : 906220,
      "byteLength" : 152
    },
    {
      "buffer" : 0,
      "byteOffset" : 906372,
      "byteLength" : 152
    },
    {
      "buffer" : 0,
      "byteOffset" : 906524,
      "byteLength" : 152
    },
    {
      "buffer" : 0,
      "byteOffset" : 906676,
      "byteLength" : 152
    },
    {
      "buffer" : 0,
      "byteOffset" : 906828,
      "byteLength" : 936
    },
    {
      "buffer" : 0,
      "byteOffset" : 907764,
      "byteLength" : 2088
    },
    {
      "buffer" : 0,
      "byteOffset" : 909852,
      "byteLength" : 2088
    },
    {
      "buffer" : 0,
      "byteOffset" : 911940,
      "byteLength" : 2784
    },
    {
      "buffer" : 0,
      "byteOffset" : 914724,
      "byteLength" : 1392
    },
    {
      "buffer" : 0,
      "byteOffset" : 916116,
      "byteLength" : 1392
    },
    {
      "buffer" : 0,
      "byteOffset" : 917508,
      "byteLength" : 1392
    },
    {
      "buffer" : 0,
      "byteOffset" : 918900,
      "byteLength" : 1392
    }
  ],
  "accessors" : [
    {
      "bufferView" : 0,
      "componentType" : 5123,
      "count" : 11478,
      "type" : "SCALAR"
    },
    {
      "bufferView" : 1,
      "min" : [ 33.4868, 0.7, -50.6174 ],
      "max" : [ 67.4188, 7.6, -13.0337 ],
      "componentType" : 5126,
      "count" : 6221,
      "type" : "VEC3"
    },
    {
      "bufferView" : 2,
      "componentType" : 5126,
      "count" : 6221,
      "type" : "VEC3"
    },
    {
      "bufferView" : 3,
      "componentType" : 5126,
      "count" : 6221,
      "type" : "VEC4"
    },
    {
      "bufferView" : 4,
      "componentType" : 5126,
      "count" : 6221,
      "type" : "VEC2"
    },
    {
      "bufferView" : 5,
      "componentType" : 5126,
      "count" : 6221,
      "type" : "VEC2"
    },
    {
      "bufferView" : 6,
      "componentType" : 5126,
      "count" : 6221,
      "type" : "VEC2"
    },
    {
      "bufferView" : 7,
      "componentType" : 5126,
      "count" : 6221,
      "type" : "VEC2"
    },
    {
      "bufferView" : 8,
      "componentType" : 5123,
      "count" : 5613,
      "type" : "SCALAR"
    },
    {
      "bufferView" : 9,
      "min" : [ 34.1112, 0.299999, -50.5952 ],
      "max" : [ 66.5737, 6.2, -13.2257 ],
      "componentType" : 5126,
      "count" : 2679,
      "type" : "VEC3"
    },
    {
      "bufferView" : 10,
      "componentType" : 5126,
      "count" : 2679,
      "type" : "VEC3"
    },
    {
      "bufferView" : 11,
      "componentType" : 5126,
      "count" : 2679,
      "type" : "VEC4"
    },
    {
      "bufferView" : 12,
      "componentType" : 5126,
      "count" : 2679,
      "type" : "VEC2"
    },
    {
      "bufferView" : 13,
      "componentType" : 5126,
      "count" : 2679,
      "type" : "VEC2"
    },
    {
      "bufferView" : 14,
      "componentType" : 5126,
      "count" : 2679,
      "type" : "VEC2"
    },
    {
      "bufferView" : 15,
      "componentType" : 5126,
      "count" : 2679,
      "type" : "VEC2"
    },
    {
      "bufferView" : 16,
      "componentType" : 5123,
      "count" : 4365,
      "type" : "SCALAR"
    },
    {
      "bufferView" : 17,
      "min" : [ 35.6685, 4.8, -50.6174 ],
      "max" : [ 67.4188, 8.12, -15.3688 ],
      "componentType" : 5126,
      "count" : 1992,
      "type" : "VEC3"
    },
    {
      "bufferView" : 18,
      "componentType" : 5126,
      "count" : 1992,
      "type" : "VEC3"
    },
    {
      "bufferView" : 19,
      "componentType" : 5126,
      "count" : 1992,
      "type" : "VEC4"
    },
    {
      "bufferView" : 20,
      "componentType" : 5126,
      "count" : 1992,
      "type" : "VEC2"
    },
    {
      "bufferView" : 21,
      "componentType" : 5126,
      "count" : 1992,
      "type" : "VEC2"
    },
    {
      "bufferView" : 22,
      "componentType" : 5126,
      "count" : 1992,
      "type" : "VEC2"
    },
    {
      "bufferView" : 23,
      "componentType" : 5126,
      "count" : 1992,
      "type" : "VEC2"
    },
    {
      "bufferView" : 24,
      "componentType" : 5123,
      "count" : 918,
      "type" : "SCALAR"
    },
    {
      "bufferView" : 25,
      "min" : [ 35.6685, 5.07002, -50.1639 ],
      "max" : [ 67.4188, 5.6, -15.6186 ],
      "componentType" : 5126,
      "count" : 486,
      "type" : "VEC3"
    },
    {
      "bufferView" : 26,
      "componentType" : 5126,
      "count" : 486,
      "type" : "VEC3"
    },
    {
      "bufferView" : 27,
      "componentType" : 5126,
      "count" : 486,
      "type" : "VEC4"
    },
    {
      "bufferView" : 28,
      "componentType" : 5126,
      "count" : 486,
      "type" : "VEC2"
    },
    {
      "bufferView" : 29,
      "componentType" : 5126,
      "count" : 486,
      "type" : "VEC2"
    },
    {
      "bufferView" : 30,
      "componentType" : 5126,
      "count" : 486,
      "type" : "VEC2"
    },
    {
      "bufferView" : 31,
      "componentType" : 5126,
      "count" : 486,
      "type" : "VEC2"
    },
    {
      "bufferView" : 32,
      "componentType" : 5123,
      "count" : 1488,
      "type" : "SCALAR"
    },
    {
      "bufferView" : 33,
      "min" : [ 34.0477, -0.252936, -50.6122 ],
      "max" : [ 66.6327, 0.300003, -13.2933 ],
      "componentType" : 5126,
      "count" : 534,
      "type" : "VEC3"
    },
    {
      "bufferView" : 34,
      "componentType" : 5126,
      "count" : 534,
      "type" : "VEC3"
    },
    {
      "bufferView" : 35,
      "componentType" : 5126,
      "count" : 534,
      "type" : "VEC4"
    },
    {
      "bufferView" : 36,
      "componentType" : 5126,
      "count" : 534,
      "type" : "VEC2"
    },
    {
      "bufferView" : 37,
      "componentType" : 5126,
      "count" : 534,
      "type" : "VEC2"
    },
    {
      "bufferView" : 38,
      "componentType" : 5126,
      "count" : 534,
      "type" : "VEC2"
    },
    {
      "bufferView" : 39,
      "componentType" : 5126,
      "count" : 534,
      "type" : "VEC2"
    },
    {
      "bufferView" : 40,
      "componentType" : 5123,
      "count" : 33,
      "type" : "SCALAR"
    },
    {
      "bufferView" : 41,
      "min" : [ 33.9818, 4.06725, -50.4029 ],
      "max" : [ 66.0069, 6.00125, -13.0387 ],
      "componentType" : 5126,
      "count" : 19,
      "type" : "VEC3"
    },
    {
      "bufferView" : 42,
      "componentType" : 5126,
      "count" : 19,
      "type" : "VEC3"
    },
    {
      "bufferView" : 43,
      "componentType" : 5126,
      "count" : 19,
      "type" : "VEC4"
    },
    {
      "bufferView" : 44,
      "componentType" : 5126,
      "count" : 19,
      "type" : "VEC2"
    },
    {
      "bufferView" : 45,
      "componentType" : 5126,
      "count" : 19,
      "type" : "VEC2"
    },
    {
      "bufferView" : 46,
      "componentType" : 5126,
      "count" : 19,
      "type" : "VEC2"
    },
    {
      "bufferView" : 47,
      "componentType" : 5126,
      "count" : 19,
      "type" : "VEC2"
    },
    {
      "bufferView" : 48,
      "componentType" : 5123,
      "count" : 468,
      "type" : "SCALAR"
    },
    {
      "bufferView" : 49,
      "min" : [ 47.9346, 0.800001, -50.532 ],
      "max" : [ 66.5552, 1.5, -23.8677 ],
      "componentType" : 5126,
      "count" : 174,
      "type" : "VEC3"
    },
    {
      "bufferView" : 50,
      "componentType" : 5126,
      "count" : 174,
      "type" : "VEC3"
    },
    {
      "bufferView" : 51,
      "componentType" : 5126,
      "count" : 174,
      "type" : "VEC4"
    },
    {
      "bufferView" : 52,
      "componentType" : 5126,
      "count" : 174,
      "type" : "VEC2"
    },
    {
      "bufferView" : 53,
      "componentType" : 5126,
      "count" : 174,
      "type" : "VEC2"
    },
    {
      "bufferView" : 54,
      "componentType" : 5126,
      "count" : 174,
      "type" : "VEC2"
    },
    {
      "bufferView" : 55,
      "componentType" : 5126,
      "count" : 174,
      "type" : "VEC2"
    }
  ]
}
