{
  "asset" : {
    "generator" : "UE Viewer (umodel) build 1544 based",
    "version" : "2.0"
  },
  "scene" : 0,
  "scenes" : [
    {
      "nodes" : [ 0 ]
    }
  ],
  "nodes" : [
    {
      "name" : "SM_ENV_LKNVLD_Bench_A",
      "mesh" : 0
    }
  ],
  "materials" : [
    {
      "name" : "MI_ENV_LKNVLD_Bench_A",
      "pbrMetallicRoughness" : {
        "baseColorFactor" : [ 0.3, 0.3, 0.3, 1.0 ],
        "metallicFactor" : 0.1,
        "roughnessFactor" : 0.5
      }
    }
  ],
  "meshes" : [
    {
      "primitives" : [
        {
          "attributes" : {
            "POSITION" : 1,
            "NORMAL" : 2,
            "TANGENT" : 3,
            "COLOR_0" : 4,
            "TEXCOORD_0" : 5,
            "TEXCOORD_1" : 6,
            "TEXCOORD_2" : 7,
            "TEXCOORD_3" : 8
          },
          "indices" : 0,
          "material" : 0
        }
      ],
      "name" : "SM_ENV_LKNVLD_Bench_A"
    }
  ],
  "buffers" : [
    {
      "uri" : "SM_ENV_LKNVLD_Bench_A.bin",
      "byteLength" : 20200
    }
  ],
  "bufferViews" : [
    {
      "buffer" : 0,
      "byteOffset" : 0,
      "byteLength" : 744
    },
    {
      "buffer" : 0,
      "byteOffset" : 744,
      "byteLength" : 3072
    },
    {
      "buffer" : 0,
      "byteOffset" : 3816,
      "byteLength" : 3072
    },
    {
      "buffer" : 0,
      "byteOffset" : 6888,
      "byteLength" : 4096
    },
    {
      "buffer" : 0,
      "byteOffset" : 10984,
      "byteLength" : 1024
    },
    {
      "buffer" : 0,
      "byteOffset" : 12008,
      "byteLength" : 2048
    },
    {
      "buffer" : 0,
      "byteOffset" : 14056,
      "byteLength" : 2048
    },
    {
      "buffer" : 0,
      "byteOffset" : 16104,
      "byteLength" : 2048
    },
    {
      "buffer" : 0,
      "byteOffset" : 18152,
      "byteLength" : 2048
    }
  ],
  "accessors" : [
    {
      "bufferView" : 0,
      "componentType" : 5123,
      "count" : 372,
      "type" : "SCALAR"
    },
    {
      "bufferView" : 1,
      "min" : [ -2.54003, 0, -0.723169 ],
      "max" : [ 0.129287, 0.519072, 0.0897361 ],
      "componentType" : 5126,
      "count" : 256,
      "type" : "VEC3"
    },
    {
      "bufferView" : 2,
      "componentType" : 5126,
      "count" : 256,
      "type" : "VEC3"
    },
    {
      "bufferView" : 3,
      "componentType" : 5126,
      "count" : 256,
      "type" : "VEC4"
    },
    {
      "bufferView" : 4,
      "normalized" : true,
      "componentType" : 5121,
      "count" : 256,
      "type" : "VEC4"
    },
    {
      "bufferView" : 5,
      "componentType" : 5126,
      "count" : 256,
      "type" : "VEC2"
    },
    {
      "bufferView" : 6,
      "componentType" : 5126,
      "count" : 256,
      "type" : "VEC2"
    },
    {
      "bufferView" : 7,
      "componentType" : 5126,
      "count" : 256,
      "type" : "VEC2"
    },
    {
      "bufferView" : 8,
      "componentType" : 5126,
      "count" : 256,
      "type" : "VEC2"
    }
  ]
}
