{
  "asset" : {
    "generator" : "UE Viewer (umodel) build 1544 based",
    "version" : "2.0"
  },
  "scene" : 0,
  "scenes" : [
    {
      "nodes" : [ 0 ]
    }
  ],
  "nodes" : [
    {
      "name" : "SM_ENV_LKNVLD_ShopFlag_A_Lod2",
      "mesh" : 0
    }
  ],
  "materials" : [
    {
      "name" : "MI_ENV_LKNVLD_Curtain_B",
      "pbrMetallicRoughness" : {
        "baseColorFactor" : [ 0.3, 0.3, 0.3, 1.0 ],
        "metallicFactor" : 0.1,
        "roughnessFactor" : 0.5
      }
    },
    {
      "name" : "MI_ENV_LKNVLD_MetalRoofDark_LOD",
      "pbrMetallicRoughness" : {
        "baseColorFactor" : [ 0.9, 0.3, 0.3, 1.0 ],
        "metallicFactor" : 0.1,
        "roughnessFactor" : 0.5
      }
    }
  ],
  "meshes" : [
    {
      "primitives" : [
        {
          "attributes" : {
            "POSITION" : 1,
            "NORMAL" : 2,
            "TANGENT" : 3,
            "COLOR_0" : 4,
            "TEXCOORD_0" : 5,
            "TEXCOORD_1" : 6,
            "TEXCOORD_2" : 7,
            "TEXCOORD_3" : 8
          },
          "indices" : 0,
          "material" : 0
        },
        {
          "attributes" : {
            "POSITION" : 10,
            "NORMAL" : 11,
            "TANGENT" : 12,
            "COLOR_0" : 13,
            "TEXCOORD_0" : 14,
            "TEXCOORD_1" : 15,
            "TEXCOORD_2" : 16,
            "TEXCOORD_3" : 17
          },
          "indices" : 9,
          "material" : 1
        }
      ],
      "name" : "SM_ENV_LKNVLD_ShopFlag_A_Lod2"
    }
  ],
  "buffers" : [
    {
      "uri" : "SM_ENV_LKNVLD_ShopFlag_A_Lod2.bin",
      "byteLength" : 83936
    }
  ],
  "bufferViews" : [
    {
      "buffer" : 0,
      "byteOffset" : 0,
      "byteLength" : 3324
    },
    {
      "buffer" : 0,
      "byteOffset" : 3324,
      "byteLength" : 6684
    },
    {
      "buffer" : 0,
      "byteOffset" : 10008,
      "byteLength" : 6684
    },
    {
      "buffer" : 0,
      "byteOffset" : 16692,
      "byteLength" : 8912
    },
    {
      "buffer" : 0,
      "byteOffset" : 25604,
      "byteLength" : 2228
    },
    {
      "buffer" : 0,
      "byteOffset" : 27832,
      "byteLength" : 4456
    },
    {
      "buffer" : 0,
      "byteOffset" : 32288,
      "byteLength" : 4456
    },
    {
      "buffer" : 0,
      "byteOffset" : 36744,
      "byteLength" : 4456
    },
    {
      "buffer" : 0,
      "byteOffset" : 41200,
      "byteLength" : 4456
    },
    {
      "buffer" : 0,
      "byteOffset" : 45656,
      "byteLength" : 3168
    },
    {
      "buffer" : 0,
      "byteOffset" : 48824,
      "byteLength" : 5544
    },
    {
      "buffer" : 0,
      "byteOffset" : 54368,
      "byteLength" : 5544
    },
    {
      "buffer" : 0,
      "byteOffset" : 59912,
      "byteLength" : 7392
    },
    {
      "buffer" : 0,
      "byteOffset" : 67304,
      "byteLength" : 1848
    },
    {
      "buffer" : 0,
      "byteOffset" : 69152,
      "byteLength" : 3696
    },
    {
      "buffer" : 0,
      "byteOffset" : 72848,
      "byteLength" : 3696
    },
    {
      "buffer" : 0,
      "byteOffset" : 76544,
      "byteLength" : 3696
    },
    {
      "buffer" : 0,
      "byteOffset" : 80240,
      "byteLength" : 3696
    }
  ],
  "accessors" : [
    {
      "bufferView" : 0,
      "componentType" : 5123,
      "count" : 1662,
      "type" : "SCALAR"
    },
    {
      "bufferView" : 1,
      "min" : [ -36.0198, 7.2949, 12.865 ],
      "max" : [ -19.845, 22.6073, 28.8987 ],
      "componentType" : 5126,
      "count" : 557,
      "type" : "VEC3"
    },
    {
      "bufferView" : 2,
      "componentType" : 5126,
      "count" : 557,
      "type" : "VEC3"
    },
    {
      "bufferView" : 3,
      "componentType" : 5126,
      "count" : 557,
      "type" : "VEC4"
    },
    {
      "bufferView" : 4,
      "normalized" : true,
      "componentType" : 5121,
      "count" : 557,
      "type" : "VEC4"
    },
    {
      "bufferView" : 5,
      "componentType" : 5126,
      "count" : 557,
      "type" : "VEC2"
    },
    {
      "bufferView" : 6,
      "componentType" : 5126,
      "count" : 557,
      "type" : "VEC2"
    },
    {
      "bufferView" : 7,
      "componentType" : 5126,
      "count" : 557,
      "type" : "VEC2"
    },
    {
      "bufferView" : 8,
      "componentType" : 5126,
      "count" : 557,
      "type" : "VEC2"
    },
    {
      "bufferView" : 9,
      "componentType" : 5123,
      "count" : 1584,
      "type" : "SCALAR"
    },
    {
      "bufferView" : 10,
      "min" : [ -36.6265, 5.89911, 11.3943 ],
      "max" : [ -18.3878, 22.6441, 29.4375 ],
      "componentType" : 5126,
      "count" : 462,
      "type" : "VEC3"
    },
    {
      "bufferView" : 11,
      "componentType" : 5126,
      "count" : 462,
      "type" : "VEC3"
    },
    {
      "bufferView" : 12,
      "componentType" : 5126,
      "count" : 462,
      "type" : "VEC4"
    },
    {
      "bufferView" : 13,
      "normalized" : true,
      "componentType" : 5121,
      "count" : 462,
      "type" : "VEC4"
    },
    {
      "bufferView" : 14,
      "componentType" : 5126,
      "count" : 462,
      "type" : "VEC2"
    },
    {
      "bufferView" : 15,
      "componentType" : 5126,
      "count" : 462,
      "type" : "VEC2"
    },
    {
      "bufferView" : 16,
      "componentType" : 5126,
      "count" : 462,
      "type" : "VEC2"
    },
    {
      "bufferView" : 17,
      "componentType" : 5126,
      "count" : 462,
      "type" : "VEC2"
    }
  ]
}
