{
  "asset" : {
    "generator" : "UE Viewer (umodel) build 1544 based",
    "version" : "2.0"
  },
  "scene" : 0,
  "scenes" : [
    {
      "nodes" : [ 0 ]
    }
  ],
  "nodes" : [
    {
      "name" : "SM_ENV_LKNVLD_Hokage",
      "mesh" : 0
    }
  ],
  "materials" : [
    {
      "name" : "MI_LKNVLD_Plaster_Backdrop_Red",
      "pbrMetallicRoughness" : {
        "baseColorFactor" : [ 0.3, 0.3, 0.3, 1.0 ],
        "metallicFactor" : 0.1,
        "roughnessFactor" : 0.5
      }
    },
    {
      "name" : "MI_ENV_LKNVLD_MetalRoof_RedYellow",
      "pbrMetallicRoughness" : {
        "baseColorFactor" : [ 0.9, 0.3, 0.3, 1.0 ],
        "metallicFactor" : 0.1,
        "roughnessFactor" : 0.5
      }
    },
    {
      "name" : "MI_ENV_LKNVLD_Door_E",
      "pbrMetallicRoughness" : {
        "baseColorFactor" : [ 0.3, 0.9, 0.3, 1.0 ],
        "metallicFactor" : 0.1,
        "roughnessFactor" : 0.5
      }
    },
    {
      "name" : "MI_ENV_LKNVLD_WoodBoard_Natural_Lighter",
      "pbrMetallicRoughness" : {
        "baseColorFactor" : [ 0.3, 0.3, 0.9, 1.0 ],
        "metallicFactor" : 0.1,
        "roughnessFactor" : 0.5
      }
    },
    {
      "name" : "MI_ENV_LKNVLD_WoodBoard_Natural_Yellowed",
      "pbrMetallicRoughness" : {
        "baseColorFactor" : [ 0.9, 0.9, 0.9, 1.0 ],
        "metallicFactor" : 0.1,
        "roughnessFactor" : 0.5
      }
    },
    {
      "name" : "MI_ENV_LKNVLD_Windows_A",
      "pbrMetallicRoughness" : {
        "baseColorFactor" : [ 0.9, 0.9, 0.3, 1.0 ],
        "metallicFactor" : 0.1,
        "roughnessFactor" : 0.5
      }
    },
    {
      "name" : "MI_ENV_LKNVLD_ConcreteSlabs",
      "pbrMetallicRoughness" : {
        "baseColorFactor" : [ 0.9, 0.3, 0.9, 1.0 ],
        "metallicFactor" : 0.1,
        "roughnessFactor" : 0.5
      }
    },
    {
      "name" : "MI_ENV_LKNVLD_Pipe_G",
      "pbrMetallicRoughness" : {
        "baseColorFactor" : [ 0.3, 0.9, 0.9, 1.0 ],
        "metallicFactor" : 0.1,
        "roughnessFactor" : 0.5
      }
    },
    {
      "name" : "MI_ENV_LKNVLD_ClanSignboard_L",
      "pbrMetallicRoughness" : {
        "baseColorFactor" : [ 1, 0.3, 0.3, 1.0 ],
        "metallicFactor" : 0.1,
        "roughnessFactor" : 0.5
      }
    },
    {
      "name" : "MI_ENV_LKNVLD_ClanSignboard_M",
      "pbrMetallicRoughness" : {
        "baseColorFactor" : [ 0.6, 0.3, 0.3, 1.0 ],
        "metallicFactor" : 0.1,
        "roughnessFactor" : 0.5
      }
    },
    {
      "name" : "MI_ENV_LKNVLD_WoodPlain_Red",
      "pbrMetallicRoughness" : {
        "baseColorFactor" : [ 1, 0.9, 0.3, 1.0 ],
        "metallicFactor" : 0.1,
        "roughnessFactor" : 0.5
      }
    },
    {
      "name" : "MI_ENV_LKNVLD_ConcreteSlabs_Dark",
      "pbrMetallicRoughness" : {
        "baseColorFactor" : [ 1, 0.3, 0.9, 1.0 ],
        "metallicFactor" : 0.1,
        "roughnessFactor" : 0.5
      }
    }
  ],
  "meshes" : [
    {
      "primitives" : [
        {
          "attributes" : {
            "POSITION" : 1,
            "NORMAL" : 2,
            "TANGENT" : 3,
            "TEXCOORD_0" : 4,
            "TEXCOORD_1" : 5,
            "TEXCOORD_2" : 6,
            "TEXCOORD_3" : 7
          },
          "indices" : 0,
          "material" : 0
        },
        {
          "attributes" : {
            "POSITION" : 9,
            "NORMAL" : 10,
            "TANGENT" : 11,
            "TEXCOORD_0" : 12,
            "TEXCOORD_1" : 13,
            "TEXCOORD_2" : 14,
            "TEXCOORD_3" : 15
          },
          "indices" : 8,
          "material" : 1
        },
        {
          "attributes" : {
            "POSITION" : 17,
            "NORMAL" : 18,
            "TANGENT" : 19,
            "TEXCOORD_0" : 20,
            "TEXCOORD_1" : 21,
            "TEXCOORD_2" : 22,
            "TEXCOORD_3" : 23
          },
          "indices" : 16,
          "material" : 2
        },
        {
          "attributes" : {
            "POSITION" : 25,
            "NORMAL" : 26,
            "TANGENT" : 27,
            "TEXCOORD_0" : 28,
            "TEXCOORD_1" : 29,
            "TEXCOORD_2" : 30,
            "TEXCOORD_3" : 31
          },
          "indices" : 24,
          "material" : 3
        },
        {
          "attributes" : {
            "POSITION" : 33,
            "NORMAL" : 34,
            "TANGENT" : 35,
            "TEXCOORD_0" : 36,
            "TEXCOORD_1" : 37,
            "TEXCOORD_2" : 38,
            "TEXCOORD_3" : 39
          },
          "indices" : 32,
          "material" : 4
        },
        {
          "attributes" : {
            "POSITION" : 41,
            "NORMAL" : 42,
            "TANGENT" : 43,
            "TEXCOORD_0" : 44,
            "TEXCOORD_1" : 45,
            "TEXCOORD_2" : 46,
            "TEXCOORD_3" : 47
          },
          "indices" : 40,
          "material" : 5
        },
        {
          "attributes" : {
            "POSITION" : 49,
            "NORMAL" : 50,
            "TANGENT" : 51,
            "TEXCOORD_0" : 52,
            "TEXCOORD_1" : 53,
            "TEXCOORD_2" : 54,
            "TEXCOORD_3" : 55
          },
          "indices" : 48,
          "material" : 6
        },
        {
          "attributes" : {
            "POSITION" : 57,
            "NORMAL" : 58,
            "TANGENT" : 59,
            "TEXCOORD_0" : 60,
            "TEXCOORD_1" : 61,
            "TEXCOORD_2" : 62,
            "TEXCOORD_3" : 63
          },
          "indices" : 56,
          "material" : 7
        },
        {
          "attributes" : {
            "POSITION" : 65,
            "NORMAL" : 66,
            "TANGENT" : 67,
            "TEXCOORD_0" : 68,
            "TEXCOORD_1" : 69,
            "TEXCOORD_2" : 70,
            "TEXCOORD_3" : 71
          },
          "indices" : 64,
          "material" : 8
        },
        {
          "attributes" : {
            "POSITION" : 73,
            "NORMAL" : 74,
            "TANGENT" : 75,
            "TEXCOORD_0" : 76,
            "TEXCOORD_1" : 77,
            "TEXCOORD_2" : 78,
            "TEXCOORD_3" : 79
          },
          "indices" : 72,
          "material" : 9
        },
        {
          "attributes" : {
            "POSITION" : 81,
            "NORMAL" : 82,
            "TANGENT" : 83,
            "TEXCOORD_0" : 84,
            "TEXCOORD_1" : 85,
            "TEXCOORD_2" : 86,
            "TEXCOORD_3" : 87
          },
          "indices" : 80,
          "material" : 10
        },
        {
          "attributes" : {
            "POSITION" : 89,
            "NORMAL" : 90,
            "TANGENT" : 91,
            "TEXCOORD_0" : 92,
            "TEXCOORD_1" : 93,
            "TEXCOORD_2" : 94,
            "TEXCOORD_3" : 95
          },
          "indices" : 88,
          "material" : 11
        }
      ],
      "name" : "SM_ENV_LKNVLD_Hokage"
    }
  ],
  "buffers" : [
    {
      "uri" : "SM_ENV_LKNVLD_Hokage.bin",
      "byteLength" : 2152768
    }
  ],
  "bufferViews" : [
    {
      "buffer" : 0,
      "byteOffset" : 0,
      "byteLength" : 9108
    },
    {
      "buffer" : 0,
      "byteOffset" : 9108,
      "byteLength" : 17928
    },
    {
      "buffer" : 0,
      "byteOffset" : 27036,
      "byteLength" : 17928
    },
    {
      "buffer" : 0,
      "byteOffset" : 44964,
      "byteLength" : 23904
    },
    {
      "buffer" : 0,
      "byteOffset" : 68868,
      "byteLength" : 11952
    },
    {
      "buffer" : 0,
      "byteOffset" : 80820,
      "byteLength" : 11952
    },
    {
      "buffer" : 0,
      "byteOffset" : 92772,
      "byteLength" : 11952
    },
    {
      "buffer" : 0,
      "byteOffset" : 104724,
      "byteLength" : 11952
    },
    {
      "buffer" : 0,
      "byteOffset" : 116676,
      "byteLength" : 23040
    },
    {
      "buffer" : 0,
      "byteOffset" : 139716,
      "byteLength" : 40548
    },
    {
      "buffer" : 0,
      "byteOffset" : 180264,
      "byteLength" : 40548
    },
    {
      "buffer" : 0,
      "byteOffset" : 220812,
      "byteLength" : 54064
    },
    {
      "buffer" : 0,
      "byteOffset" : 274876,
      "byteLength" : 27032
    },
    {
      "buffer" : 0,
      "byteOffset" : 301908,
      "byteLength" : 27032
    },
    {
      "buffer" : 0,
      "byteOffset" : 328940,
      "byteLength" : 27032
    },
    {
      "buffer" : 0,
      "byteOffset" : 355972,
      "byteLength" : 27032
    },
    {
      "buffer" : 0,
      "byteOffset" : 383004,
      "byteLength" : 72
    },
    {
      "buffer" : 0,
      "byteOffset" : 383076,
      "byteLength" : 288
    },
    {
      "buffer" : 0,
      "byteOffset" : 383364,
      "byteLength" : 288
    },
    {
      "buffer" : 0,
      "byteOffset" : 383652,
      "byteLength" : 384
    },
    {
      "buffer" : 0,
      "byteOffset" : 384036,
      "byteLength" : 192
    },
    {
      "buffer" : 0,
      "byteOffset" : 384228,
      "byteLength" : 192
    },
    {
      "buffer" : 0,
      "byteOffset" : 384420,
      "byteLength" : 192
    },
    {
      "buffer" : 0,
      "byteOffset" : 384612,
      "byteLength" : 192
    },
    {
      "buffer" : 0,
      "byteOffset" : 384804,
      "byteLength" : 31320
    },
    {
      "buffer" : 0,
      "byteOffset" : 416124,
      "byteLength" : 111948
    },
    {
      "buffer" : 0,
      "byteOffset" : 528072,
      "byteLength" : 111948
    },
    {
      "buffer" : 0,
      "byteOffset" : 640020,
      "byteLength" : 149264
    },
    {
      "buffer" : 0,
      "byteOffset" : 789284,
      "byteLength" : 74632
    },
    {
      "buffer" : 0,
      "byteOffset" : 863916,
      "byteLength" : 74632
    },
    {
      "buffer" : 0,
      "byteOffset" : 938548,
      "byteLength" : 74632
    },
    {
      "buffer" : 0,
      "byteOffset" : 1013180,
      "byteLength" : 74632
    },
    {
      "buffer" : 0,
      "byteOffset" : 1087812,
      "byteLength" : 2208
    },
    {
      "buffer" : 0,
      "byteOffset" : 1090020,
      "byteLength" : 5208
    },
    {
      "buffer" : 0,
      "byteOffset" : 1095228,
      "byteLength" : 5208
    },
    {
      "buffer" : 0,
      "byteOffset" : 1100436,
      "byteLength" : 6944
    },
    {
      "buffer" : 0,
      "byteOffset" : 1107380,
      "byteLength" : 3472
    },
    {
      "buffer" : 0,
      "byteOffset" : 1110852,
      "byteLength" : 3472
    },
    {
      "buffer" : 0,
      "byteOffset" : 1114324,
      "byteLength" : 3472
    },
    {
      "buffer" : 0,
      "byteOffset" : 1117796,
      "byteLength" : 3472
    },
    {
      "buffer" : 0,
      "byteOffset" : 1121268,
      "byteLength" : 624
    },
    {
      "buffer" : 0,
      "byteOffset" : 1121892,
      "byteLength" : 2304
    },
    {
      "buffer" : 0,
      "byteOffset" : 1124196,
      "byteLength" : 2304
    },
    {
      "buffer" : 0,
      "byteOffset" : 1126500,
      "byteLength" : 3072
    },
    {
      "buffer" : 0,
      "byteOffset" : 1129572,
      "byteLength" : 1536
    },
    {
      "buffer" : 0,
      "byteOffset" : 1131108,
      "byteLength" : 1536
    },
    {
      "buffer" : 0,
      "byteOffset" : 1132644,
      "byteLength" : 1536
    },
    {
      "buffer" : 0,
      "byteOffset" : 1134180,
      "byteLength" : 1536
    },
    {
      "buffer" : 0,
      "byteOffset" : 1135716,
      "byteLength" : 14012
    },
    {
      "buffer" : 0,
      "byteOffset" : 1149728,
      "byteLength" : 30636
    },
    {
      "buffer" : 0,
      "byteOffset" : 1180364,
      "byteLength" : 30636
    },
    {
      "buffer" : 0,
      "byteOffset" : 1211000,
      "byteLength" : 40848
    },
    {
      "buffer" : 0,
      "byteOffset" : 1251848,
      "byteLength" : 20424
    },
    {
      "buffer" : 0,
      "byteOffset" : 1272272,
      "byteLength" : 20424
    },
    {
      "buffer" : 0,
      "byteOffset" : 1292696,
      "byteLength" : 20424
    },
    {
      "buffer" : 0,
      "byteOffset" : 1313120,
      "byteLength" : 20424
    },
    {
      "buffer" : 0,
      "byteOffset" : 1333544,
      "byteLength" : 60504
    },
    {
      "buffer" : 0,
      "byteOffset" : 1394048,
      "byteLength" : 112332
    },
    {
      "buffer" : 0,
      "byteOffset" : 1506380,
      "byteLength" : 112332
    },
    {
      "buffer" : 0,
      "byteOffset" : 1618712,
      "byteLength" : 149776
    },
    {
      "buffer" : 0,
      "byteOffset" : 1768488,
      "byteLength" : 74888
    },
    {
      "buffer" : 0,
      "byteOffset" : 1843376,
      "byteLength" : 74888
    },
    {
      "buffer" : 0,
      "byteOffset" : 1918264,
      "byteLength" : 74888
    },
    {
      "buffer" : 0,
      "byteOffset" : 1993152,
      "byteLength" : 74888
    },
    {
      "buffer" : 0,
      "byteOffset" : 2068040,
      "byteLength" : 12
    },
    {
      "buffer" : 0,
      "byteOffset" : 2068052,
      "byteLength" : 48
    },
    {
      "buffer" : 0,
      "byteOffset" : 2068100,
      "byteLength" : 48
    },
    {
      "buffer" : 0,
      "byteOffset" : 2068148,
      "byteLength" : 64
    },
    {
      "buffer" : 0,
      "byteOffset" : 2068212,
      "byteLength" : 32
    },
    {
      "buffer" : 0,
      "byteOffset" : 2068244,
      "byteLength" : 32
    },
    {
      "buffer" : 0,
      "byteOffset" : 2068276,
      "byteLength" : 32
    },
    {
      "buffer" : 0,
      "byteOffset" : 2068308,
      "byteLength" : 32
    },
    {
      "buffer" : 0,
      "byteOffset" : 2068340,
      "byteLength" : 1512
    },
    {
      "buffer" : 0,
      "byteOffset" : 2069852,
      "byteLength" : 3432
    },
    {
      "buffer" : 0,
      "byteOffset" : 2073284,
      "byteLength" : 3432
    },
    {
      "buffer" : 0,
      "byteOffset" : 2076716,
      "byteLength" : 4576
    },
    {
      "buffer" : 0,
      "byteOffset" : 2081292,
      "byteLength" : 2288
    },
    {
      "buffer" : 0,
      "byteOffset" : 2083580,
      "byteLength" : 2288
    },
    {
      "buffer" : 0,
      "byteOffset" : 2085868,
      "byteLength" : 2288
    },
    {
      "buffer" : 0,
      "byteOffset" : 2088156,
      "byteLength" : 2288
    },
    {
      "buffer" : 0,
      "byteOffset" : 2090444,
      "byteLength" : 2064
    },
    {
      "buffer" : 0,
      "byteOffset" : 2092508,
      "byteLength" : 4416
    },
    {
      "buffer" : 0,
      "byteOffset" : 2096924,
      "byteLength" : 4416
    },
    {
      "buffer" : 0,
      "byteOffset" : 2101340,
      "byteLength" : 5888
    },
    {
      "buffer" : 0,
      "byteOffset" : 2107228,
      "byteLength" : 2944
    },
    {
      "buffer" : 0,
      "byteOffset" : 2110172,
      "byteLength" : 2944
    },
    {
      "buffer" : 0,
      "byteOffset" : 2113116,
      "byteLength" : 2944
    },
    {
      "buffer" : 0,
      "byteOffset" : 2116060,
      "byteLength" : 2944
    },
    {
      "buffer" : 0,
      "byteOffset" : 2119004,
      "byteLength" : 2444
    },
    {
      "buffer" : 0,
      "byteOffset" : 2121448,
      "byteLength" : 5220
    },
    {
      "buffer" : 0,
      "byteOffset" : 2126668,
      "byteLength" : 5220
    },
    {
      "buffer" : 0,
      "byteOffset" : 2131888,
      "byteLength" : 6960
    },
    {
      "buffer" : 0,
      "byteOffset" : 2138848,
      "byteLength" : 3480
    },
    {
      "buffer" : 0,
      "byteOffset" : 2142328,
      "byteLength" : 3480
    },
    {
      "buffer" : 0,
      "byteOffset" : 2145808,
      "byteLength" : 3480
    },
    {
      "buffer" : 0,
      "byteOffset" : 2149288,
      "byteLength" : 3480
    }
  ],
  "accessors" : [
    {
      "bufferView" : 0,
      "componentType" : 5123,
      "count" : 4554,
      "type" : "SCALAR"
    },
    {
      "bufferView" : 1,
      "min" : [ -36.2259, 0.945937, -22.8478 ],
      "max" : [ 36.2259, 27.6908, 23.101 ],
      "componentType" : 5126,
      "count" : 1494,
      "type" : "VEC3"
    },
    {
      "bufferView" : 2,
      "componentType" : 5126,
      "count" : 1494,
      "type" : "VEC3"
    },
    {
      "bufferView" : 3,
      "componentType" : 5126,
      "count" : 1494,
      "type" : "VEC4"
    },
    {
      "bufferView" : 4,
      "componentType" : 5126,
      "count" : 1494,
      "type" : "VEC2"
    },
    {
      "bufferView" : 5,
      "componentType" : 5126,
      "count" : 1494,
      "type" : "VEC2"
    },
    {
      "bufferView" : 6,
      "componentType" : 5126,
      "count" : 1494,
      "type" : "VEC2"
    },
    {
      "bufferView" : 7,
      "componentType" : 5126,
      "count" : 1494,
      "type" : "VEC2"
    },
    {
      "bufferView" : 8,
      "componentType" : 5123,
      "count" : 11520,
      "type" : "SCALAR"
    },
    {
      "bufferView" : 9,
      "min" : [ -37.2628, 4.54682, -23.8872 ],
      "max" : [ 37.2628, 27.2182, 23.9694 ],
      "componentType" : 5126,
      "count" : 3379,
      "type" : "VEC3"
    },
    {
      "bufferView" : 10,
      "componentType" : 5126,
      "count" : 3379,
      "type" : "VEC3"
    },
    {
      "bufferView" : 11,
      "componentType" : 5126,
      "count" : 3379,
      "type" : "VEC4"
    },
    {
      "bufferView" : 12,
      "componentType" : 5126,
      "count" : 3379,
      "type" : "VEC2"
    },
    {
      "bufferView" : 13,
      "componentType" : 5126,
      "count" : 3379,
      "type" : "VEC2"
    },
    {
      "bufferView" : 14,
      "componentType" : 5126,
      "count" : 3379,
      "type" : "VEC2"
    },
    {
      "bufferView" : 15,
      "componentType" : 5126,
      "count" : 3379,
      "type" : "VEC2"
    },
    {
      "bufferView" : 16,
      "componentType" : 5123,
      "count" : 36,
      "type" : "SCALAR"
    },
    {
      "bufferView" : 17,
      "min" : [ -18.8722, 1.09551, 2.57856 ],
      "max" : [ 25.0158, 4.49951, 20.267 ],
      "componentType" : 5126,
      "count" : 24,
      "type" : "VEC3"
    },
    {
      "bufferView" : 18,
      "componentType" : 5126,
      "count" : 24,
      "type" : "VEC3"
    },
    {
      "bufferView" : 19,
      "componentType" : 5126,
      "count" : 24,
      "type" : "VEC4"
    },
    {
      "bufferView" : 20,
      "componentType" : 5126,
      "count" : 24,
      "type" : "VEC2"
    },
    {
      "bufferView" : 21,
      "componentType" : 5126,
      "count" : 24,
      "type" : "VEC2"
    },
    {
      "bufferView" : 22,
      "componentType" : 5126,
      "count" : 24,
      "type" : "VEC2"
    },
    {
      "bufferView" : 23,
      "componentType" : 5126,
      "count" : 24,
      "type" : "VEC2"
    },
    {
      "bufferView" : 24,
      "componentType" : 5123,
      "count" : 15660,
      "type" : "SCALAR"
    },
    {
      "bufferView" : 25,
      "min" : [ -36.7007, 0.997507, -23.3016 ],
      "max" : [ 36.6807, 27.3034, 23.0025 ],
      "componentType" : 5126,
      "count" : 9329,
      "type" : "VEC3"
    },
    {
      "bufferView" : 26,
      "componentType" : 5126,
      "count" : 9329,
      "type" : "VEC3"
    },
    {
      "bufferView" : 27,
      "componentType" : 5126,
      "count" : 9329,
      "type" : "VEC4"
    },
    {
      "bufferView" : 28,
      "componentType" : 5126,
      "count" : 9329,
      "type" : "VEC2"
    },
    {
      "bufferView" : 29,
      "componentType" : 5126,
      "count" : 9329,
      "type" : "VEC2"
    },
    {
      "bufferView" : 30,
      "componentType" : 5126,
      "count" : 9329,
      "type" : "VEC2"
    },
    {
      "bufferView" : 31,
      "componentType" : 5126,
      "count" : 9329,
      "type" : "VEC2"
    },
    {
      "bufferView" : 32,
      "componentType" : 5123,
      "count" : 1104,
      "type" : "SCALAR"
    },
    {
      "bufferView" : 33,
      "min" : [ -36.0972, 0.972201, -22.8164 ],
      "max" : [ 35.8903, 26.2038, 22.9575 ],
      "componentType" : 5126,
      "count" : 434,
      "type" : "VEC3"
    },
    {
      "bufferView" : 34,
      "componentType" : 5126,
      "count" : 434,
      "type" : "VEC3"
    },
    {
      "bufferView" : 35,
      "componentType" : 5126,
      "count" : 434,
      "type" : "VEC4"
    },
    {
      "bufferView" : 36,
      "componentType" : 5126,
      "count" : 434,
      "type" : "VEC2"
    },
    {
      "bufferView" : 37,
      "componentType" : 5126,
      "count" : 434,
      "type" : "VEC2"
    },
    {
      "bufferView" : 38,
      "componentType" : 5126,
      "count" : 434,
      "type" : "VEC2"
    },
    {
      "bufferView" : 39,
      "componentType" : 5126,
      "count" : 434,
      "type" : "VEC2"
    },
    {
      "bufferView" : 40,
      "componentType" : 5123,
      "count" : 312,
      "type" : "SCALAR"
    },
    {
      "bufferView" : 41,
      "min" : [ -35.6787, 3.56318, -21.9337 ],
      "max" : [ 35.4718, 27.2375, 20.7812 ],
      "componentType" : 5126,
      "count" : 192,
      "type" : "VEC3"
    },
    {
      "bufferView" : 42,
      "componentType" : 5126,
      "count" : 192,
      "type" : "VEC3"
    },
    {
      "bufferView" : 43,
      "componentType" : 5126,
      "count" : 192,
      "type" : "VEC4"
    },
    {
      "bufferView" : 44,
      "componentType" : 5126,
      "count" : 192,
      "type" : "VEC2"
    },
    {
      "bufferView" : 45,
      "componentType" : 5126,
      "count" : 192,
      "type" : "VEC2"
    },
    {
      "bufferView" : 46,
      "componentType" : 5126,
      "count" : 192,
      "type" : "VEC2"
    },
    {
      "bufferView" : 47,
      "componentType" : 5126,
      "count" : 192,
      "type" : "VEC2"
    },
    {
      "bufferView" : 48,
      "componentType" : 5123,
      "count" : 7005,
      "type" : "SCALAR"
    },
    {
      "bufferView" : 49,
      "min" : [ -38.3319, -0.00249756, -25.0511 ],
      "max" : [ 38.3319, 35.4445, 25.0511 ],
      "componentType" : 5126,
      "count" : 2553,
      "type" : "VEC3"
    },
    {
      "bufferView" : 50,
      "componentType" : 5126,
      "count" : 2553,
      "type" : "VEC3"
    },
    {
      "bufferView" : 51,
      "componentType" : 5126,
      "count" : 2553,
      "type" : "VEC4"
    },
    {
      "bufferView" : 52,
      "componentType" : 5126,
      "count" : 2553,
      "type" : "VEC2"
    },
    {
      "bufferView" : 53,
      "componentType" : 5126,
      "count" : 2553,
      "type" : "VEC2"
    },
    {
      "bufferView" : 54,
      "componentType" : 5126,
      "count" : 2553,
      "type" : "VEC2"
    },
    {
      "bufferView" : 55,
      "componentType" : 5126,
      "count" : 2553,
      "type" : "VEC2"
    },
    {
      "bufferView" : 56,
      "componentType" : 5123,
      "count" : 30252,
      "type" : "SCALAR"
    },
    {
      "bufferView" : 57,
      "min" : [ -36.0876, 7.38056, -22.6958 ],
      "max" : [ 36.0184, 29.2407, 22.9019 ],
      "componentType" : 5126,
      "count" : 9361,
      "type" : "VEC3"
    },
    {
      "bufferView" : 58,
      "componentType" : 5126,
      "count" : 9361,
      "type" : "VEC3"
    },
    {
      "bufferView" : 59,
      "componentType" : 5126,
      "count" : 9361,
      "type" : "VEC4"
    },
    {
      "bufferView" : 60,
      "componentType" : 5126,
      "count" : 9361,
      "type" : "VEC2"
    },
    {
      "bufferView" : 61,
      "componentType" : 5126,
      "count" : 9361,
      "type" : "VEC2"
    },
    {
      "bufferView" : 62,
      "componentType" : 5126,
      "count" : 9361,
      "type" : "VEC2"
    },
    {
      "bufferView" : 63,
      "componentType" : 5126,
      "count" : 9361,
      "type" : "VEC2"
    },
    {
      "bufferView" : 64,
      "componentType" : 5123,
      "count" : 6,
      "type" : "SCALAR"
    },
    {
      "bufferView" : 65,
      "min" : [ -1.77179, 5.61647, 21.3639 ],
      "max" : [ 1.70841, 6.70712, 21.9124 ],
      "componentType" : 5126,
      "count" : 4,
      "type" : "VEC3"
    },
    {
      "bufferView" : 66,
      "componentType" : 5126,
      "count" : 4,
      "type" : "VEC3"
    },
    {
      "bufferView" : 67,
      "componentType" : 5126,
      "count" : 4,
      "type" : "VEC4"
    },
    {
      "bufferView" : 68,
      "componentType" : 5126,
      "count" : 4,
      "type" : "VEC2"
    },
    {
      "bufferView" : 69,
      "componentType" : 5126,
      "count" : 4,
      "type" : "VEC2"
    },
    {
      "bufferView" : 70,
      "componentType" : 5126,
      "count" : 4,
      "type" : "VEC2"
    },
    {
      "bufferView" : 71,
      "componentType" : 5126,
      "count" : 4,
      "type" : "VEC2"
    },
    {
      "bufferView" : 72,
      "componentType" : 5123,
      "count" : 756,
      "type" : "SCALAR"
    },
    {
      "bufferView" : 73,
      "min" : [ -2.58881, 21.9707, 15.75 ],
      "max" : [ 2.6265, 26.0084, 17.4835 ],
      "componentType" : 5126,
      "count" : 286,
      "type" : "VEC3"
    },
    {
      "bufferView" : 74,
      "componentType" : 5126,
      "count" : 286,
      "type" : "VEC3"
    },
    {
      "bufferView" : 75,
      "componentType" : 5126,
      "count" : 286,
      "type" : "VEC4"
    },
    {
      "bufferView" : 76,
      "componentType" : 5126,
      "count" : 286,
      "type" : "VEC2"
    },
    {
      "bufferView" : 77,
      "componentType" : 5126,
      "count" : 286,
      "type" : "VEC2"
    },
    {
      "bufferView" : 78,
      "componentType" : 5126,
      "count" : 286,
      "type" : "VEC2"
    },
    {
      "bufferView" : 79,
      "componentType" : 5126,
      "count" : 286,
      "type" : "VEC2"
    },
    {
      "bufferView" : 80,
      "componentType" : 5123,
      "count" : 1032,
      "type" : "SCALAR"
    },
    {
      "bufferView" : 81,
      "min" : [ -14.5279, 19.5004, -11.0118 ],
      "max" : [ 14.5287, 26.0014, 17.9924 ],
      "componentType" : 5126,
      "count" : 368,
      "type" : "VEC3"
    },
    {
      "bufferView" : 82,
      "componentType" : 5126,
      "count" : 368,
      "type" : "VEC3"
    },
    {
      "bufferView" : 83,
      "componentType" : 5126,
      "count" : 368,
      "type" : "VEC4"
    },
    {
      "bufferView" : 84,
      "componentType" : 5126,
      "count" : 368,
      "type" : "VEC2"
    },
    {
      "bufferView" : 85,
      "componentType" : 5126,
      "count" : 368,
      "type" : "VEC2"
    },
    {
      "bufferView" : 86,
      "componentType" : 5126,
      "count" : 368,
      "type" : "VEC2"
    },
    {
      "bufferView" : 87,
      "componentType" : 5126,
      "count" : 368,
      "type" : "VEC2"
    },
    {
      "bufferView" : 88,
      "componentType" : 5123,
      "count" : 1221,
      "type" : "SCALAR"
    },
    {
      "bufferView" : 89,
      "min" : [ -33.5231, 0.997512, -20.2423 ],
      "max" : [ 33.5231, 10.1013, 21.4153 ],
      "componentType" : 5126,
      "count" : 435,
      "type" : "VEC3"
    },
    {
      "bufferView" : 90,
      "componentType" : 5126,
      "count" : 435,
      "type" : "VEC3"
    },
    {
      "bufferView" : 91,
      "componentType" : 5126,
      "count" : 435,
      "type" : "VEC4"
    },
    {
      "bufferView" : 92,
      "componentType" : 5126,
      "count" : 435,
      "type" : "VEC2"
    },
    {
      "bufferView" : 93,
      "componentType" : 5126,
      "count" : 435,
      "type" : "VEC2"
    },
    {
      "bufferView" : 94,
      "componentType" : 5126,
      "count" : 435,
      "type" : "VEC2"
    },
    {
      "bufferView" : 95,
      "componentType" : 5126,
      "count" : 435,
      "type" : "VEC2"
    }
  ]
}
