{
  "asset" : {
    "generator" : "UE Viewer (umodel) build 1544 based",
    "version" : "2.0"
  },
  "scene" : 0,
  "scenes" : [
    {
      "nodes" : [ 0 ]
    }
  ],
  "nodes" : [
    {
      "name" : "SM_ENV_LKNVLD_TreeSet_E",
      "mesh" : 0
    }
  ],
  "materials" : [
    {
      "name" : "MI_ENV_LKNVLD_Tree_A_Masked_CameraTrans",
      "pbrMetallicRoughness" : {
        "baseColorFactor" : [ 0.3, 0.3, 0.3, 1.0 ],
        "metallicFactor" : 0.1,
        "roughnessFactor" : 0.5
      }
    },
    {
      "name" : "MI_ENV_LKNVLD_LeafMasked_A",
      "pbrMetallicRoughness" : {
        "baseColorFactor" : [ 0.9, 0.3, 0.3, 1.0 ],
        "metallicFactor" : 0.1,
        "roughnessFactor" : 0.5
      }
    },
    {
      "name" : "MI_ENV_LKNVLD_Leaf_A",
      "pbrMetallicRoughness" : {
        "baseColorFactor" : [ 0.3, 0.9, 0.3, 1.0 ],
        "metallicFactor" : 0.1,
        "roughnessFactor" : 0.5
      }
    }
  ],
  "meshes" : [
    {
      "primitives" : [
        {
          "attributes" : {
            "POSITION" : 1,
            "NORMAL" : 2,
            "TANGENT" : 3,
            "COLOR_0" : 4,
            "TEXCOORD_0" : 5,
            "TEXCOORD_1" : 6,
            "TEXCOORD_2" : 7,
            "TEXCOORD_3" : 8
          },
          "indices" : 0,
          "material" : 0
        },
        {
          "attributes" : {
            "POSITION" : 10,
            "NORMAL" : 11,
            "TANGENT" : 12,
            "COLOR_0" : 13,
            "TEXCOORD_0" : 14,
            "TEXCOORD_1" : 15,
            "TEXCOORD_2" : 16,
            "TEXCOORD_3" : 17
          },
          "indices" : 9,
          "material" : 1
        },
        {
          "attributes" : {
            "POSITION" : 19,
            "NORMAL" : 20,
            "TANGENT" : 21,
            "COLOR_0" : 22,
            "TEXCOORD_0" : 23,
            "TEXCOORD_1" : 24,
            "TEXCOORD_2" : 25,
            "TEXCOORD_3" : 26
          },
          "indices" : 18,
          "material" : 2
        }
      ],
      "name" : "SM_ENV_LKNVLD_TreeSet_E"
    }
  ],
  "buffers" : [
    {
      "uri" : "SM_ENV_LKNVLD_TreeSet_E.bin",
      "byteLength" : 2422372
    }
  ],
  "bufferViews" : [
    {
      "buffer" : 0,
      "byteOffset" : 0,
      "byteLength" : 28304
    },
    {
      "buffer" : 0,
      "byteOffset" : 28304,
      "byteLength" : 39252
    },
    {
      "buffer" : 0,
      "byteOffset" : 67556,
      "byteLength" : 39252
    },
    {
      "buffer" : 0,
      "byteOffset" : 106808,
      "byteLength" : 52336
    },
    {
      "buffer" : 0,
      "byteOffset" : 159144,
      "byteLength" : 13084
    },
    {
      "buffer" : 0,
      "byteOffset" : 172228,
      "byteLength" : 26168
    },
    {
      "buffer" : 0,
      "byteOffset" : 198396,
      "byteLength" : 26168
    },
    {
      "buffer" : 0,
      "byteOffset" : 224564,
      "byteLength" : 26168
    },
    {
      "buffer" : 0,
      "byteOffset" : 250732,
      "byteLength" : 26168
    },
    {
      "buffer" : 0,
      "byteOffset" : 276900,
      "byteLength" : 91652
    },
    {
      "buffer" : 0,
      "byteOffset" : 368552,
      "byteLength" : 244416
    },
    {
      "buffer" : 0,
      "byteOffset" : 612968,
      "byteLength" : 244416
    },
    {
      "buffer" : 0,
      "byteOffset" : 857384,
      "byteLength" : 325888
    },
    {
      "buffer" : 0,
      "byteOffset" : 1183272,
      "byteLength" : 81472
    },
    {
      "buffer" : 0,
      "byteOffset" : 1264744,
      "byteLength" : 162944
    },
    {
      "buffer" : 0,
      "byteOffset" : 1427688,
      "byteLength" : 162944
    },
    {
      "buffer" : 0,
      "byteOffset" : 1590632,
      "byteLength" : 162944
    },
    {
      "buffer" : 0,
      "byteOffset" : 1753576,
      "byteLength" : 162944
    },
    {
      "buffer" : 0,
      "byteOffset" : 1916520,
      "byteLength" : 42176
    },
    {
      "buffer" : 0,
      "byteOffset" : 1958696,
      "byteLength" : 73212
    },
    {
      "buffer" : 0,
      "byteOffset" : 2031908,
      "byteLength" : 73212
    },
    {
      "buffer" : 0,
      "byteOffset" : 2105120,
      "byteLength" : 97616
    },
    {
      "buffer" : 0,
      "byteOffset" : 2202736,
      "byteLength" : 24404
    },
    {
      "buffer" : 0,
      "byteOffset" : 2227140,
      "byteLength" : 48808
    },
    {
      "buffer" : 0,
      "byteOffset" : 2275948,
      "byteLength" : 48808
    },
    {
      "buffer" : 0,
      "byteOffset" : 2324756,
      "byteLength" : 48808
    },
    {
      "buffer" : 0,
      "byteOffset" : 2373564,
      "byteLength" : 48808
    }
  ],
  "accessors" : [
    {
      "bufferView" : 0,
      "componentType" : 5123,
      "count" : 14151,
      "type" : "SCALAR"
    },
    {
      "bufferView" : 1,
      "min" : [ 26.5723, -0.500207, -59.0886 ],
      "max" : [ 46.3171, 10.7061, -43.2938 ],
      "componentType" : 5126,
      "count" : 3271,
      "type" : "VEC3"
    },
    {
      "bufferView" : 2,
      "componentType" : 5126,
      "count" : 3271,
      "type" : "VEC3"
    },
    {
      "bufferView" : 3,
      "componentType" : 5126,
      "count" : 3271,
      "type" : "VEC4"
    },
    {
      "bufferView" : 4,
      "normalized" : true,
      "componentType" : 5121,
      "count" : 3271,
      "type" : "VEC4"
    },
    {
      "bufferView" : 5,
      "componentType" : 5126,
      "count" : 3271,
      "type" : "VEC2"
    },
    {
      "bufferView" : 6,
      "componentType" : 5126,
      "count" : 3271,
      "type" : "VEC2"
    },
    {
      "bufferView" : 7,
      "componentType" : 5126,
      "count" : 3271,
      "type" : "VEC2"
    },
    {
      "bufferView" : 8,
      "componentType" : 5126,
      "count" : 3271,
      "type" : "VEC2"
    },
    {
      "bufferView" : 9,
      "componentType" : 5123,
      "count" : 45825,
      "type" : "SCALAR"
    },
    {
      "bufferView" : 10,
      "min" : [ 24.5783, 3.18119, -60.5453 ],
      "max" : [ 47.0837, 13.4611, -42.4712 ],
      "componentType" : 5126,
      "count" : 20368,
      "type" : "VEC3"
    },
    {
      "bufferView" : 11,
      "componentType" : 5126,
      "count" : 20368,
      "type" : "VEC3"
    },
    {
      "bufferView" : 12,
      "componentType" : 5126,
      "count" : 20368,
      "type" : "VEC4"
    },
    {
      "bufferView" : 13,
      "normalized" : true,
      "componentType" : 5121,
      "count" : 20368,
      "type" : "VEC4"
    },
    {
      "bufferView" : 14,
      "componentType" : 5126,
      "count" : 20368,
      "type" : "VEC2"
    },
    {
      "bufferView" : 15,
      "componentType" : 5126,
      "count" : 20368,
      "type" : "VEC2"
    },
    {
      "bufferView" : 16,
      "componentType" : 5126,
      "count" : 20368,
      "type" : "VEC2"
    },
    {
      "bufferView" : 17,
      "componentType" : 5126,
      "count" : 20368,
      "type" : "VEC2"
    },
    {
      "bufferView" : 18,
      "componentType" : 5123,
      "count" : 21087,
      "type" : "SCALAR"
    },
    {
      "bufferView" : 19,
      "min" : [ 24.8116, 3.32109, -60.3534 ],
      "max" : [ 46.9354, 13.3115, -42.6582 ],
      "componentType" : 5126,
      "count" : 6101,
      "type" : "VEC3"
    },
    {
      "bufferView" : 20,
      "componentType" : 5126,
      "count" : 6101,
      "type" : "VEC3"
    },
    {
      "bufferView" : 21,
      "componentType" : 5126,
      "count" : 6101,
      "type" : "VEC4"
    },
    {
      "bufferView" : 22,
      "normalized" : true,
      "componentType" : 5121,
      "count" : 6101,
      "type" : "VEC4"
    },
    {
      "bufferView" : 23,
      "componentType" : 5126,
      "count" : 6101,
      "type" : "VEC2"
    },
    {
      "bufferView" : 24,
      "componentType" : 5126,
      "count" : 6101,
      "type" : "VEC2"
    },
    {
      "bufferView" : 25,
      "componentType" : 5126,
      "count" : 6101,
      "type" : "VEC2"
    },
    {
      "bufferView" : 26,
      "componentType" : 5126,
      "count" : 6101,
      "type" : "VEC2"
    }
  ]
}
