{
  "asset" : {
    "generator" : "UE Viewer (umodel) build 1544 based",
    "version" : "2.0"
  },
  "scene" : 0,
  "scenes" : [
    {
      "nodes" : [ 0 ]
    }
  ],
  "nodes" : [
    {
      "name" : "SM_ENV_LKNVLD_TreeSet_F_Lod2",
      "mesh" : 0
    }
  ],
  "materials" : [
    {
      "name" : "MI_ENV_LKNVLD_Tree_A_Masked_CameraTrans",
      "pbrMetallicRoughness" : {
        "baseColorFactor" : [ 0.3, 0.3, 0.3, 1.0 ],
        "metallicFactor" : 0.1,
        "roughnessFactor" : 0.5
      }
    },
    {
      "name" : "MI_ENV_LKNVLD_LeafMasked_A",
      "pbrMetallicRoughness" : {
        "baseColorFactor" : [ 0.9, 0.3, 0.3, 1.0 ],
        "metallicFactor" : 0.1,
        "roughnessFactor" : 0.5
      }
    },
    {
      "name" : "MI_ENV_LKNVLD_Leaf_A",
      "pbrMetallicRoughness" : {
        "baseColorFactor" : [ 0.3, 0.9, 0.3, 1.0 ],
        "metallicFactor" : 0.1,
        "roughnessFactor" : 0.5
      }
    }
  ],
  "meshes" : [
    {
      "primitives" : [
        {
          "attributes" : {
            "POSITION" : 1,
            "NORMAL" : 2,
            "TANGENT" : 3,
            "COLOR_0" : 4,
            "TEXCOORD_0" : 5,
            "TEXCOORD_1" : 6,
            "TEXCOORD_2" : 7,
            "TEXCOORD_3" : 8
          },
          "indices" : 0,
          "material" : 0
        },
        {
          "attributes" : {
            "POSITION" : 10,
            "NORMAL" : 11,
            "TANGENT" : 12,
            "COLOR_0" : 13,
            "TEXCOORD_0" : 14,
            "TEXCOORD_1" : 15,
            "TEXCOORD_2" : 16,
            "TEXCOORD_3" : 17
          },
          "indices" : 9,
          "material" : 1
        },
        {
          "attributes" : {
            "POSITION" : 19,
            "NORMAL" : 20,
            "TANGENT" : 21,
            "COLOR_0" : 22,
            "TEXCOORD_0" : 23,
            "TEXCOORD_1" : 24,
            "TEXCOORD_2" : 25,
            "TEXCOORD_3" : 26
          },
          "indices" : 18,
          "material" : 2
        }
      ],
      "name" : "SM_ENV_LKNVLD_TreeSet_F_Lod2"
    }
  ],
  "buffers" : [
    {
      "uri" : "SM_ENV_LKNVLD_TreeSet_F_Lod2.bin",
      "byteLength" : 1813960
    }
  ],
  "bufferViews" : [
    {
      "buffer" : 0,
      "byteOffset" : 0,
      "byteLength" : 3308
    },
    {
      "buffer" : 0,
      "byteOffset" : 3308,
      "byteLength" : 15876
    },
    {
      "buffer" : 0,
      "byteOffset" : 19184,
      "byteLength" : 15876
    },
    {
      "buffer" : 0,
      "byteOffset" : 35060,
      "byteLength" : 21168
    },
    {
      "buffer" : 0,
      "byteOffset" : 56228,
      "byteLength" : 5292
    },
    {
      "buffer" : 0,
      "byteOffset" : 61520,
      "byteLength" : 10584
    },
    {
      "buffer" : 0,
      "byteOffset" : 72104,
      "byteLength" : 10584
    },
    {
      "buffer" : 0,
      "byteOffset" : 82688,
      "byteLength" : 10584
    },
    {
      "buffer" : 0,
      "byteOffset" : 93272,
      "byteLength" : 10584
    },
    {
      "buffer" : 0,
      "byteOffset" : 103856,
      "byteLength" : 63756
    },
    {
      "buffer" : 0,
      "byteOffset" : 167612,
      "byteLength" : 210252
    },
    {
      "buffer" : 0,
      "byteOffset" : 377864,
      "byteLength" : 210252
    },
    {
      "buffer" : 0,
      "byteOffset" : 588116,
      "byteLength" : 280336
    },
    {
      "buffer" : 0,
      "byteOffset" : 868452,
      "byteLength" : 70084
    },
    {
      "buffer" : 0,
      "byteOffset" : 938536,
      "byteLength" : 140168
    },
    {
      "buffer" : 0,
      "byteOffset" : 1078704,
      "byteLength" : 140168
    },
    {
      "buffer" : 0,
      "byteOffset" : 1218872,
      "byteLength" : 140168
    },
    {
      "buffer" : 0,
      "byteOffset" : 1359040,
      "byteLength" : 140168
    },
    {
      "buffer" : 0,
      "byteOffset" : 1499208,
      "byteLength" : 10220
    },
    {
      "buffer" : 0,
      "byteOffset" : 1509428,
      "byteLength" : 48084
    },
    {
      "buffer" : 0,
      "byteOffset" : 1557512,
      "byteLength" : 48084
    },
    {
      "buffer" : 0,
      "byteOffset" : 1605596,
      "byteLength" : 64112
    },
    {
      "buffer" : 0,
      "byteOffset" : 1669708,
      "byteLength" : 16028
    },
    {
      "buffer" : 0,
      "byteOffset" : 1685736,
      "byteLength" : 32056
    },
    {
      "buffer" : 0,
      "byteOffset" : 1717792,
      "byteLength" : 32056
    },
    {
      "buffer" : 0,
      "byteOffset" : 1749848,
      "byteLength" : 32056
    },
    {
      "buffer" : 0,
      "byteOffset" : 1781904,
      "byteLength" : 32056
    }
  ],
  "accessors" : [
    {
      "bufferView" : 0,
      "componentType" : 5123,
      "count" : 1653,
      "type" : "SCALAR"
    },
    {
      "bufferView" : 1,
      "min" : [ 38.5489, -0.595882, -70.5775 ],
      "max" : [ 50.181, 9.65832, -55.8837 ],
      "componentType" : 5126,
      "count" : 1323,
      "type" : "VEC3"
    },
    {
      "bufferView" : 2,
      "componentType" : 5126,
      "count" : 1323,
      "type" : "VEC3"
    },
    {
      "bufferView" : 3,
      "componentType" : 5126,
      "count" : 1323,
      "type" : "VEC4"
    },
    {
      "bufferView" : 4,
      "normalized" : true,
      "componentType" : 5121,
      "count" : 1323,
      "type" : "VEC4"
    },
    {
      "bufferView" : 5,
      "componentType" : 5126,
      "count" : 1323,
      "type" : "VEC2"
    },
    {
      "bufferView" : 6,
      "componentType" : 5126,
      "count" : 1323,
      "type" : "VEC2"
    },
    {
      "bufferView" : 7,
      "componentType" : 5126,
      "count" : 1323,
      "type" : "VEC2"
    },
    {
      "bufferView" : 8,
      "componentType" : 5126,
      "count" : 1323,
      "type" : "VEC2"
    },
    {
      "bufferView" : 9,
      "componentType" : 5123,
      "count" : 31878,
      "type" : "SCALAR"
    },
    {
      "bufferView" : 10,
      "min" : [ 36.9853, 3.60237, -72.3625 ],
      "max" : [ 51.584, 13.3321, -54.2565 ],
      "componentType" : 5126,
      "count" : 17521,
      "type" : "VEC3"
    },
    {
      "bufferView" : 11,
      "componentType" : 5126,
      "count" : 17521,
      "type" : "VEC3"
    },
    {
      "bufferView" : 12,
      "componentType" : 5126,
      "count" : 17521,
      "type" : "VEC4"
    },
    {
      "bufferView" : 13,
      "normalized" : true,
      "componentType" : 5121,
      "count" : 17521,
      "type" : "VEC4"
    },
    {
      "bufferView" : 14,
      "componentType" : 5126,
      "count" : 17521,
      "type" : "VEC2"
    },
    {
      "bufferView" : 15,
      "componentType" : 5126,
      "count" : 17521,
      "type" : "VEC2"
    },
    {
      "bufferView" : 16,
      "componentType" : 5126,
      "count" : 17521,
      "type" : "VEC2"
    },
    {
      "bufferView" : 17,
      "componentType" : 5126,
      "count" : 17521,
      "type" : "VEC2"
    },
    {
      "bufferView" : 18,
      "componentType" : 5123,
      "count" : 5109,
      "type" : "SCALAR"
    },
    {
      "bufferView" : 19,
      "min" : [ 37.1339, 3.81486, -72.1846 ],
      "max" : [ 51.4092, 13.1728, -54.4101 ],
      "componentType" : 5126,
      "count" : 4007,
      "type" : "VEC3"
    },
    {
      "bufferView" : 20,
      "componentType" : 5126,
      "count" : 4007,
      "type" : "VEC3"
    },
    {
      "bufferView" : 21,
      "componentType" : 5126,
      "count" : 4007,
      "type" : "VEC4"
    },
    {
      "bufferView" : 22,
      "normalized" : true,
      "componentType" : 5121,
      "count" : 4007,
      "type" : "VEC4"
    },
    {
      "bufferView" : 23,
      "componentType" : 5126,
      "count" : 4007,
      "type" : "VEC2"
    },
    {
      "bufferView" : 24,
      "componentType" : 5126,
      "count" : 4007,
      "type" : "VEC2"
    },
    {
      "bufferView" : 25,
      "componentType" : 5126,
      "count" : 4007,
      "type" : "VEC2"
    },
    {
      "bufferView" : 26,
      "componentType" : 5126,
      "count" : 4007,
      "type" : "VEC2"
    }
  ]
}
