{
  "asset" : {
    "generator" : "UE Viewer (umodel) build 1544 based",
    "version" : "2.0"
  },
  "scene" : 0,
  "scenes" : [
    {
      "nodes" : [ 0 ]
    }
  ],
  "nodes" : [
    {
      "name" : "SM_ENV_LKNVLD_RockMiddle_I_Lod3",
      "mesh" : 0
    }
  ],
  "materials" : [
    {
      "name" : "MI_ENV_LKNVLD_MiddleRock_A_LOD",
      "pbrMetallicRoughness" : {
        "baseColorFactor" : [ 0.3, 0.3, 0.3, 1.0 ],
        "metallicFactor" : 0.1,
        "roughnessFactor" : 0.5
      }
    }
  ],
  "meshes" : [
    {
      "primitives" : [
        {
          "attributes" : {
            "POSITION" : 1,
            "NORMAL" : 2,
            "TANGENT" : 3,
            "COLOR_0" : 4,
            "TEXCOORD_0" : 5,
            "TEXCOORD_1" : 6,
            "TEXCOORD_2" : 7,
            "TEXCOORD_3" : 8
          },
          "indices" : 0,
          "material" : 0
        }
      ],
      "name" : "SM_ENV_LKNVLD_RockMiddle_I_Lod3"
    }
  ],
  "buffers" : [
    {
      "uri" : "SM_ENV_LKNVLD_RockMiddle_I_Lod3.bin",
      "byteLength" : 16900
    }
  ],
  "bufferViews" : [
    {
      "buffer" : 0,
      "byteOffset" : 0,
      "byteLength" : 1244
    },
    {
      "buffer" : 0,
      "byteOffset" : 1244,
      "byteLength" : 2472
    },
    {
      "buffer" : 0,
      "byteOffset" : 3716,
      "byteLength" : 2472
    },
    {
      "buffer" : 0,
      "byteOffset" : 6188,
      "byteLength" : 3296
    },
    {
      "buffer" : 0,
      "byteOffset" : 9484,
      "byteLength" : 824
    },
    {
      "buffer" : 0,
      "byteOffset" : 10308,
      "byteLength" : 1648
    },
    {
      "buffer" : 0,
      "byteOffset" : 11956,
      "byteLength" : 1648
    },
    {
      "buffer" : 0,
      "byteOffset" : 13604,
      "byteLength" : 1648
    },
    {
      "buffer" : 0,
      "byteOffset" : 15252,
      "byteLength" : 1648
    }
  ],
  "accessors" : [
    {
      "bufferView" : 0,
      "componentType" : 5123,
      "count" : 621,
      "type" : "SCALAR"
    },
    {
      "bufferView" : 1,
      "min" : [ 27.0471, -0.248171, -25.1891 ],
      "max" : [ 34.7655, 0.512448, -20.0794 ],
      "componentType" : 5126,
      "count" : 206,
      "type" : "VEC3"
    },
    {
      "bufferView" : 2,
      "componentType" : 5126,
      "count" : 206,
      "type" : "VEC3"
    },
    {
      "bufferView" : 3,
      "componentType" : 5126,
      "count" : 206,
      "type" : "VEC4"
    },
    {
      "bufferView" : 4,
      "normalized" : true,
      "componentType" : 5121,
      "count" : 206,
      "type" : "VEC4"
    },
    {
      "bufferView" : 5,
      "componentType" : 5126,
      "count" : 206,
      "type" : "VEC2"
    },
    {
      "bufferView" : 6,
      "componentType" : 5126,
      "count" : 206,
      "type" : "VEC2"
    },
    {
      "bufferView" : 7,
      "componentType" : 5126,
      "count" : 206,
      "type" : "VEC2"
    },
    {
      "bufferView" : 8,
      "componentType" : 5126,
      "count" : 206,
      "type" : "VEC2"
    }
  ]
}
