{
  "asset" : {
    "generator" : "UE Viewer (umodel) build 1544 based",
    "version" : "2.0"
  },
  "scene" : 0,
  "scenes" : [
    {
      "nodes" : [ 0 ]
    }
  ],
  "nodes" : [
    {
      "name" : "SM_ENV_LKNVLD_Building_D_Lod1",
      "mesh" : 0
    }
  ],
  "materials" : [
    {
      "name" : "MI_ENV_LKNVLD_ConcreteSlabs_01_Gray_LOD",
      "pbrMetallicRoughness" : {
        "baseColorFactor" : [ 0.3, 0.3, 0.3, 1.0 ],
        "metallicFactor" : 0.1,
        "roughnessFactor" : 0.5
      }
    },
    {
      "name" : "MI_ENV_LKNVLD_RoofTiles_Yellow_LOD",
      "pbrMetallicRoughness" : {
        "baseColorFactor" : [ 0.9, 0.3, 0.3, 1.0 ],
        "metallicFactor" : 0.1,
        "roughnessFactor" : 0.5
      }
    },
    {
      "name" : "MI_T_ENV_LKNVLD_StoneTrim_LOD",
      "pbrMetallicRoughness" : {
        "baseColorFactor" : [ 0.3, 0.9, 0.3, 1.0 ],
        "metallicFactor" : 0.1,
        "roughnessFactor" : 0.5
      }
    },
    {
      "name" : "MI_ENV_LKNVLD_RoughTiles_LOD",
      "pbrMetallicRoughness" : {
        "baseColorFactor" : [ 0.3, 0.3, 0.9, 1.0 ],
        "metallicFactor" : 0.1,
        "roughnessFactor" : 0.5
      }
    },
    {
      "name" : "MI_ENV_LKNVLD_ConcreteWall_F_LOD",
      "pbrMetallicRoughness" : {
        "baseColorFactor" : [ 0.9, 0.9, 0.9, 1.0 ],
        "metallicFactor" : 0.1,
        "roughnessFactor" : 0.5
      }
    },
    {
      "name" : "MI_T_ENV_LKNVLD_StoneStairs_LOD",
      "pbrMetallicRoughness" : {
        "baseColorFactor" : [ 0.9, 0.9, 0.3, 1.0 ],
        "metallicFactor" : 0.1,
        "roughnessFactor" : 0.5
      }
    },
    {
      "name" : "MI_ENV_LKNVLD_WoodPlain_Brown_LOD",
      "pbrMetallicRoughness" : {
        "baseColorFactor" : [ 0.9, 0.3, 0.9, 1.0 ],
        "metallicFactor" : 0.1,
        "roughnessFactor" : 0.5
      }
    }
  ],
  "meshes" : [
    {
      "primitives" : [
        {
          "attributes" : {
            "POSITION" : 1,
            "NORMAL" : 2,
            "TANGENT" : 3,
            "TEXCOORD_0" : 4,
            "TEXCOORD_1" : 5,
            "TEXCOORD_2" : 6,
            "TEXCOORD_3" : 7
          },
          "indices" : 0,
          "material" : 0
        },
        {
          "attributes" : {
            "POSITION" : 9,
            "NORMAL" : 10,
            "TANGENT" : 11,
            "TEXCOORD_0" : 12,
            "TEXCOORD_1" : 13,
            "TEXCOORD_2" : 14,
            "TEXCOORD_3" : 15
          },
          "indices" : 8,
          "material" : 1
        },
        {
          "attributes" : {
            "POSITION" : 17,
            "NORMAL" : 18,
            "TANGENT" : 19,
            "TEXCOORD_0" : 20,
            "TEXCOORD_1" : 21,
            "TEXCOORD_2" : 22,
            "TEXCOORD_3" : 23
          },
          "indices" : 16,
          "material" : 2
        },
        {
          "attributes" : {
            "POSITION" : 25,
            "NORMAL" : 26,
            "TANGENT" : 27,
            "TEXCOORD_0" : 28,
            "TEXCOORD_1" : 29,
            "TEXCOORD_2" : 30,
            "TEXCOORD_3" : 31
          },
          "indices" : 24,
          "material" : 3
        },
        {
          "attributes" : {
            "POSITION" : 33,
            "NORMAL" : 34,
            "TANGENT" : 35,
            "TEXCOORD_0" : 36,
            "TEXCOORD_1" : 37,
            "TEXCOORD_2" : 38,
            "TEXCOORD_3" : 39
          },
          "indices" : 32,
          "material" : 4
        },
        {
          "attributes" : {
            "POSITION" : 41,
            "NORMAL" : 42,
            "TANGENT" : 43,
            "TEXCOORD_0" : 44,
            "TEXCOORD_1" : 45,
            "TEXCOORD_2" : 46,
            "TEXCOORD_3" : 47
          },
          "indices" : 40,
          "material" : 5
        },
        {
          "attributes" : {
            "POSITION" : 49,
            "NORMAL" : 50,
            "TANGENT" : 51,
            "TEXCOORD_0" : 52,
            "TEXCOORD_1" : 53,
            "TEXCOORD_2" : 54,
            "TEXCOORD_3" : 55
          },
          "indices" : 48,
          "material" : 6
        }
      ],
      "name" : "SM_ENV_LKNVLD_Building_D_Lod1"
    }
  ],
  "buffers" : [
    {
      "uri" : "SM_ENV_LKNVLD_Building_D_Lod1.bin",
      "byteLength" : 848356
    }
  ],
  "bufferViews" : [
    {
      "buffer" : 0,
      "byteOffset" : 0,
      "byteLength" : 4200
    },
    {
      "buffer" : 0,
      "byteOffset" : 4200,
      "byteLength" : 16020
    },
    {
      "buffer" : 0,
      "byteOffset" : 20220,
      "byteLength" : 16020
    },
    {
      "buffer" : 0,
      "byteOffset" : 36240,
      "byteLength" : 21360
    },
    {
      "buffer" : 0,
      "byteOffset" : 57600,
      "byteLength" : 10680
    },
    {
      "buffer" : 0,
      "byteOffset" : 68280,
      "byteLength" : 10680
    },
    {
      "buffer" : 0,
      "byteOffset" : 78960,
      "byteLength" : 10680
    },
    {
      "buffer" : 0,
      "byteOffset" : 89640,
      "byteLength" : 10680
    },
    {
      "buffer" : 0,
      "byteOffset" : 100320,
      "byteLength" : 8784
    },
    {
      "buffer" : 0,
      "byteOffset" : 109104,
      "byteLength" : 49068
    },
    {
      "buffer" : 0,
      "byteOffset" : 158172,
      "byteLength" : 49068
    },
    {
      "buffer" : 0,
      "byteOffset" : 207240,
      "byteLength" : 65424
    },
    {
      "buffer" : 0,
      "byteOffset" : 272664,
      "byteLength" : 32712
    },
    {
      "buffer" : 0,
      "byteOffset" : 305376,
      "byteLength" : 32712
    },
    {
      "buffer" : 0,
      "byteOffset" : 338088,
      "byteLength" : 32712
    },
    {
      "buffer" : 0,
      "byteOffset" : 370800,
      "byteLength" : 32712
    },
    {
      "buffer" : 0,
      "byteOffset" : 403512,
      "byteLength" : 960
    },
    {
      "buffer" : 0,
      "byteOffset" : 404472,
      "byteLength" : 2076
    },
    {
      "buffer" : 0,
      "byteOffset" : 406548,
      "byteLength" : 2076
    },
    {
      "buffer" : 0,
      "byteOffset" : 408624,
      "byteLength" : 2768
    },
    {
      "buffer" : 0,
      "byteOffset" : 411392,
      "byteLength" : 1384
    },
    {
      "buffer" : 0,
      "byteOffset" : 412776,
      "byteLength" : 1384
    },
    {
      "buffer" : 0,
      "byteOffset" : 414160,
      "byteLength" : 1384
    },
    {
      "buffer" : 0,
      "byteOffset" : 415544,
      "byteLength" : 1384
    },
    {
      "buffer" : 0,
      "byteOffset" : 416928,
      "byteLength" : 12444
    },
    {
      "buffer" : 0,
      "byteOffset" : 429372,
      "byteLength" : 38508
    },
    {
      "buffer" : 0,
      "byteOffset" : 467880,
      "byteLength" : 38508
    },
    {
      "buffer" : 0,
      "byteOffset" : 506388,
      "byteLength" : 51344
    },
    {
      "buffer" : 0,
      "byteOffset" : 557732,
      "byteLength" : 25672
    },
    {
      "buffer" : 0,
      "byteOffset" : 583404,
      "byteLength" : 25672
    },
    {
      "buffer" : 0,
      "byteOffset" : 609076,
      "byteLength" : 25672
    },
    {
      "buffer" : 0,
      "byteOffset" : 634748,
      "byteLength" : 25672
    },
    {
      "buffer" : 0,
      "byteOffset" : 660420,
      "byteLength" : 644
    },
    {
      "buffer" : 0,
      "byteOffset" : 661064,
      "byteLength" : 756
    },
    {
      "buffer" : 0,
      "byteOffset" : 661820,
      "byteLength" : 756
    },
    {
      "buffer" : 0,
      "byteOffset" : 662576,
      "byteLength" : 1008
    },
    {
      "buffer" : 0,
      "byteOffset" : 663584,
      "byteLength" : 504
    },
    {
      "buffer" : 0,
      "byteOffset" : 664088,
      "byteLength" : 504
    },
    {
      "buffer" : 0,
      "byteOffset" : 664592,
      "byteLength" : 504
    },
    {
      "buffer" : 0,
      "byteOffset" : 665096,
      "byteLength" : 504
    },
    {
      "buffer" : 0,
      "byteOffset" : 665600,
      "byteLength" : 996
    },
    {
      "buffer" : 0,
      "byteOffset" : 666596,
      "byteLength" : 3636
    },
    {
      "buffer" : 0,
      "byteOffset" : 670232,
      "byteLength" : 3636
    },
    {
      "buffer" : 0,
      "byteOffset" : 673868,
      "byteLength" : 4848
    },
    {
      "buffer" : 0,
      "byteOffset" : 678716,
      "byteLength" : 2424
    },
    {
      "buffer" : 0,
      "byteOffset" : 681140,
      "byteLength" : 2424
    },
    {
      "buffer" : 0,
      "byteOffset" : 683564,
      "byteLength" : 2424
    },
    {
      "buffer" : 0,
      "byteOffset" : 685988,
      "byteLength" : 2424
    },
    {
      "buffer" : 0,
      "byteOffset" : 688412,
      "byteLength" : 6656
    },
    {
      "buffer" : 0,
      "byteOffset" : 695068,
      "byteLength" : 25548
    },
    {
      "buffer" : 0,
      "byteOffset" : 720616,
      "byteLength" : 25548
    },
    {
      "buffer" : 0,
      "byteOffset" : 746164,
      "byteLength" : 34064
    },
    {
      "buffer" : 0,
      "byteOffset" : 780228,
      "byteLength" : 17032
    },
    {
      "buffer" : 0,
      "byteOffset" : 797260,
      "byteLength" : 17032
    },
    {
      "buffer" : 0,
      "byteOffset" : 814292,
      "byteLength" : 17032
    },
    {
      "buffer" : 0,
      "byteOffset" : 831324,
      "byteLength" : 17032
    }
  ],
  "accessors" : [
    {
      "bufferView" : 0,
      "componentType" : 5123,
      "count" : 2100,
      "type" : "SCALAR"
    },
    {
      "bufferView" : 1,
      "min" : [ 48.1264, 2.1785, -59.8736 ],
      "max" : [ 51.8736, 7.74671, -56.1264 ],
      "componentType" : 5126,
      "count" : 1335,
      "type" : "VEC3"
    },
    {
      "bufferView" : 2,
      "componentType" : 5126,
      "count" : 1335,
      "type" : "VEC3"
    },
    {
      "bufferView" : 3,
      "componentType" : 5126,
      "count" : 1335,
      "type" : "VEC4"
    },
    {
      "bufferView" : 4,
      "componentType" : 5126,
      "count" : 1335,
      "type" : "VEC2"
    },
    {
      "bufferView" : 5,
      "componentType" : 5126,
      "count" : 1335,
      "type" : "VEC2"
    },
    {
      "bufferView" : 6,
      "componentType" : 5126,
      "count" : 1335,
      "type" : "VEC2"
    },
    {
      "bufferView" : 7,
      "componentType" : 5126,
      "count" : 1335,
      "type" : "VEC2"
    },
    {
      "bufferView" : 8,
      "componentType" : 5123,
      "count" : 4392,
      "type" : "SCALAR"
    },
    {
      "bufferView" : 9,
      "min" : [ 48.3536, 5.32811, -59.6464 ],
      "max" : [ 51.6464, 6.71914, -56.3536 ],
      "componentType" : 5126,
      "count" : 4089,
      "type" : "VEC3"
    },
    {
      "bufferView" : 10,
      "componentType" : 5126,
      "count" : 4089,
      "type" : "VEC3"
    },
    {
      "bufferView" : 11,
      "componentType" : 5126,
      "count" : 4089,
      "type" : "VEC4"
    },
    {
      "bufferView" : 12,
      "componentType" : 5126,
      "count" : 4089,
      "type" : "VEC2"
    },
    {
      "bufferView" : 13,
      "componentType" : 5126,
      "count" : 4089,
      "type" : "VEC2"
    },
    {
      "bufferView" : 14,
      "componentType" : 5126,
      "count" : 4089,
      "type" : "VEC2"
    },
    {
      "bufferView" : 15,
      "componentType" : 5126,
      "count" : 4089,
      "type" : "VEC2"
    },
    {
      "bufferView" : 16,
      "componentType" : 5123,
      "count" : 480,
      "type" : "SCALAR"
    },
    {
      "bufferView" : 17,
      "min" : [ 46, -2.06e-06, -62 ],
      "max" : [ 54, 4.02, -51.1404 ],
      "componentType" : 5126,
      "count" : 173,
      "type" : "VEC3"
    },
    {
      "bufferView" : 18,
      "componentType" : 5126,
      "count" : 173,
      "type" : "VEC3"
    },
    {
      "bufferView" : 19,
      "componentType" : 5126,
      "count" : 173,
      "type" : "VEC4"
    },
    {
      "bufferView" : 20,
      "componentType" : 5126,
      "count" : 173,
      "type" : "VEC2"
    },
    {
      "bufferView" : 21,
      "componentType" : 5126,
      "count" : 173,
      "type" : "VEC2"
    },
    {
      "bufferView" : 22,
      "componentType" : 5126,
      "count" : 173,
      "type" : "VEC2"
    },
    {
      "bufferView" : 23,
      "componentType" : 5126,
      "count" : 173,
      "type" : "VEC2"
    },
    {
      "bufferView" : 24,
      "componentType" : 5123,
      "count" : 6222,
      "type" : "SCALAR"
    },
    {
      "bufferView" : 25,
      "min" : [ 45.6474, -1.07e-06, -62.2558 ],
      "max" : [ 54.3285, 2.45618, -50.55 ],
      "componentType" : 5126,
      "count" : 3209,
      "type" : "VEC3"
    },
    {
      "bufferView" : 26,
      "componentType" : 5126,
      "count" : 3209,
      "type" : "VEC3"
    },
    {
      "bufferView" : 27,
      "componentType" : 5126,
      "count" : 3209,
      "type" : "VEC4"
    },
    {
      "bufferView" : 28,
      "componentType" : 5126,
      "count" : 3209,
      "type" : "VEC2"
    },
    {
      "bufferView" : 29,
      "componentType" : 5126,
      "count" : 3209,
      "type" : "VEC2"
    },
    {
      "bufferView" : 30,
      "componentType" : 5126,
      "count" : 3209,
      "type" : "VEC2"
    },
    {
      "bufferView" : 31,
      "componentType" : 5126,
      "count" : 3209,
      "type" : "VEC2"
    },
    {
      "bufferView" : 32,
      "componentType" : 5123,
      "count" : 321,
      "type" : "SCALAR"
    },
    {
      "bufferView" : 33,
      "min" : [ 48, 2.18502, -60 ],
      "max" : [ 52, 2.39098, -56 ],
      "componentType" : 5126,
      "count" : 63,
      "type" : "VEC3"
    },
    {
      "bufferView" : 34,
      "componentType" : 5126,
      "count" : 63,
      "type" : "VEC3"
    },
    {
      "bufferView" : 35,
      "componentType" : 5126,
      "count" : 63,
      "type" : "VEC4"
    },
    {
      "bufferView" : 36,
      "componentType" : 5126,
      "count" : 63,
      "type" : "VEC2"
    },
    {
      "bufferView" : 37,
      "componentType" : 5126,
      "count" : 63,
      "type" : "VEC2"
    },
    {
      "bufferView" : 38,
      "componentType" : 5126,
      "count" : 63,
      "type" : "VEC2"
    },
    {
      "bufferView" : 39,
      "componentType" : 5126,
      "count" : 63,
      "type" : "VEC2"
    },
    {
      "bufferView" : 40,
      "componentType" : 5123,
      "count" : 498,
      "type" : "SCALAR"
    },
    {
      "bufferView" : 41,
      "min" : [ 48.3925, -0.0136975, -53.7045 ],
      "max" : [ 51.617, 1.39858, -50.991 ],
      "componentType" : 5126,
      "count" : 303,
      "type" : "VEC3"
    },
    {
      "bufferView" : 42,
      "componentType" : 5126,
      "count" : 303,
      "type" : "VEC3"
    },
    {
      "bufferView" : 43,
      "componentType" : 5126,
      "count" : 303,
      "type" : "VEC4"
    },
    {
      "bufferView" : 44,
      "componentType" : 5126,
      "count" : 303,
      "type" : "VEC2"
    },
    {
      "bufferView" : 45,
      "componentType" : 5126,
      "count" : 303,
      "type" : "VEC2"
    },
    {
      "bufferView" : 46,
      "componentType" : 5126,
      "count" : 303,
      "type" : "VEC2"
    },
    {
      "bufferView" : 47,
      "componentType" : 5126,
      "count" : 303,
      "type" : "VEC2"
    },
    {
      "bufferView" : 48,
      "componentType" : 5123,
      "count" : 3327,
      "type" : "SCALAR"
    },
    {
      "bufferView" : 49,
      "min" : [ 45.9, 1.24856, -62 ],
      "max" : [ 54.1, 3.00718, -53.9 ],
      "componentType" : 5126,
      "count" : 2129,
      "type" : "VEC3"
    },
    {
      "bufferView" : 50,
      "componentType" : 5126,
      "count" : 2129,
      "type" : "VEC3"
    },
    {
      "bufferView" : 51,
      "componentType" : 5126,
      "count" : 2129,
      "type" : "VEC4"
    },
    {
      "bufferView" : 52,
      "componentType" : 5126,
      "count" : 2129,
      "type" : "VEC2"
    },
    {
      "bufferView" : 53,
      "componentType" : 5126,
      "count" : 2129,
      "type" : "VEC2"
    },
    {
      "bufferView" : 54,
      "componentType" : 5126,
      "count" : 2129,
      "type" : "VEC2"
    },
    {
      "bufferView" : 55,
      "componentType" : 5126,
      "count" : 2129,
      "type" : "VEC2"
    }
  ]
}
