{
  "asset" : {
    "generator" : "UE Viewer (umodel) build 1544 based",
    "version" : "2.0"
  },
  "scene" : 0,
  "scenes" : [
    {
      "nodes" : [ 0 ]
    }
  ],
  "nodes" : [
    {
      "name" : "SM_ENV_LKNVLD_Hokage_Lod2",
      "mesh" : 0
    }
  ],
  "materials" : [
    {
      "name" : "MI_LKNVLD_Plaster_Backdrop_Red_LOD",
      "pbrMetallicRoughness" : {
        "baseColorFactor" : [ 0.3, 0.3, 0.3, 1.0 ],
        "metallicFactor" : 0.1,
        "roughnessFactor" : 0.5
      }
    },
    {
      "name" : "MI_ENV_LKNVLD_MetalRoof_RedYellow_LOD",
      "pbrMetallicRoughness" : {
        "baseColorFactor" : [ 0.9, 0.3, 0.3, 1.0 ],
        "metallicFactor" : 0.1,
        "roughnessFactor" : 0.5
      }
    },
    {
      "name" : "MI_ENV_LKNVLD_Door_E",
      "pbrMetallicRoughness" : {
        "baseColorFactor" : [ 0.3, 0.9, 0.3, 1.0 ],
        "metallicFactor" : 0.1,
        "roughnessFactor" : 0.5
      }
    },
    {
      "name" : "MI_ENV_LKNVLD_WoodBoard_Natural_Lighter_LOD",
      "pbrMetallicRoughness" : {
        "baseColorFactor" : [ 0.3, 0.3, 0.9, 1.0 ],
        "metallicFactor" : 0.1,
        "roughnessFactor" : 0.5
      }
    },
    {
      "name" : "MI_ENV_LKNVLD_WoodBoard_Natural_Yellowed_LOD",
      "pbrMetallicRoughness" : {
        "baseColorFactor" : [ 0.9, 0.9, 0.9, 1.0 ],
        "metallicFactor" : 0.1,
        "roughnessFactor" : 0.5
      }
    },
    {
      "name" : "MI_ENV_LKNVLD_Windows_A",
      "pbrMetallicRoughness" : {
        "baseColorFactor" : [ 0.9, 0.9, 0.3, 1.0 ],
        "metallicFactor" : 0.1,
        "roughnessFactor" : 0.5
      }
    },
    {
      "name" : "MI_ENV_LKNVLD_ConcreteSlabs_LOD",
      "pbrMetallicRoughness" : {
        "baseColorFactor" : [ 0.9, 0.3, 0.9, 1.0 ],
        "metallicFactor" : 0.1,
        "roughnessFactor" : 0.5
      }
    },
    {
      "name" : "MI_ENV_LKNVLD_Pipe_G_LOD",
      "pbrMetallicRoughness" : {
        "baseColorFactor" : [ 0.3, 0.9, 0.9, 1.0 ],
        "metallicFactor" : 0.1,
        "roughnessFactor" : 0.5
      }
    },
    {
      "name" : "MI_ENV_LKNVLD_ClanSignboard_L_LOD",
      "pbrMetallicRoughness" : {
        "baseColorFactor" : [ 1, 0.3, 0.3, 1.0 ],
        "metallicFactor" : 0.1,
        "roughnessFactor" : 0.5
      }
    },
    {
      "name" : "MI_ENV_LKNVLD_ClanSignboard_M_LOD",
      "pbrMetallicRoughness" : {
        "baseColorFactor" : [ 0.6, 0.3, 0.3, 1.0 ],
        "metallicFactor" : 0.1,
        "roughnessFactor" : 0.5
      }
    },
    {
      "name" : "MI_ENV_LKNVLD_WoodPlain_Red_LOD",
      "pbrMetallicRoughness" : {
        "baseColorFactor" : [ 1, 0.9, 0.3, 1.0 ],
        "metallicFactor" : 0.1,
        "roughnessFactor" : 0.5
      }
    },
    {
      "name" : "MI_ENV_LKNVLD_ConcreteSlabs_Dark_LOD",
      "pbrMetallicRoughness" : {
        "baseColorFactor" : [ 1, 0.3, 0.9, 1.0 ],
        "metallicFactor" : 0.1,
        "roughnessFactor" : 0.5
      }
    }
  ],
  "meshes" : [
    {
      "primitives" : [
        {
          "attributes" : {
            "POSITION" : 1,
            "NORMAL" : 2,
            "TANGENT" : 3,
            "TEXCOORD_0" : 4,
            "TEXCOORD_1" : 5,
            "TEXCOORD_2" : 6,
            "TEXCOORD_3" : 7
          },
          "indices" : 0,
          "material" : 0
        },
        {
          "attributes" : {
            "POSITION" : 9,
            "NORMAL" : 10,
            "TANGENT" : 11,
            "TEXCOORD_0" : 12,
            "TEXCOORD_1" : 13,
            "TEXCOORD_2" : 14,
            "TEXCOORD_3" : 15
          },
          "indices" : 8,
          "material" : 1
        },
        {
          "attributes" : {
            "POSITION" : 17,
            "NORMAL" : 18,
            "TANGENT" : 19,
            "TEXCOORD_0" : 20,
            "TEXCOORD_1" : 21,
            "TEXCOORD_2" : 22,
            "TEXCOORD_3" : 23
          },
          "indices" : 16,
          "material" : 2
        },
        {
          "attributes" : {
            "POSITION" : 25,
            "NORMAL" : 26,
            "TANGENT" : 27,
            "TEXCOORD_0" : 28,
            "TEXCOORD_1" : 29,
            "TEXCOORD_2" : 30,
            "TEXCOORD_3" : 31
          },
          "indices" : 24,
          "material" : 3
        },
        {
          "attributes" : {
            "POSITION" : 33,
            "NORMAL" : 34,
            "TANGENT" : 35,
            "TEXCOORD_0" : 36,
            "TEXCOORD_1" : 37,
            "TEXCOORD_2" : 38,
            "TEXCOORD_3" : 39
          },
          "indices" : 32,
          "material" : 4
        },
        {
          "attributes" : {
            "POSITION" : 41,
            "NORMAL" : 42,
            "TANGENT" : 43,
            "TEXCOORD_0" : 44,
            "TEXCOORD_1" : 45,
            "TEXCOORD_2" : 46,
            "TEXCOORD_3" : 47
          },
          "indices" : 40,
          "material" : 5
        },
        {
          "attributes" : {
            "POSITION" : 49,
            "NORMAL" : 50,
            "TANGENT" : 51,
            "TEXCOORD_0" : 52,
            "TEXCOORD_1" : 53,
            "TEXCOORD_2" : 54,
            "TEXCOORD_3" : 55
          },
          "indices" : 48,
          "material" : 6
        },
        {
          "attributes" : {
            "POSITION" : 57,
            "NORMAL" : 58,
            "TANGENT" : 59,
            "TEXCOORD_0" : 60,
            "TEXCOORD_1" : 61,
            "TEXCOORD_2" : 62,
            "TEXCOORD_3" : 63
          },
          "indices" : 56,
          "material" : 7
        },
        {
          "attributes" : {
            "POSITION" : 65,
            "NORMAL" : 66,
            "TANGENT" : 67,
            "TEXCOORD_0" : 68,
            "TEXCOORD_1" : 69,
            "TEXCOORD_2" : 70,
            "TEXCOORD_3" : 71
          },
          "indices" : 64,
          "material" : 8
        },
        {
          "attributes" : {
            "POSITION" : 73,
            "NORMAL" : 74,
            "TANGENT" : 75,
            "TEXCOORD_0" : 76,
            "TEXCOORD_1" : 77,
            "TEXCOORD_2" : 78,
            "TEXCOORD_3" : 79
          },
          "indices" : 72,
          "material" : 9
        },
        {
          "attributes" : {
            "POSITION" : 81,
            "NORMAL" : 82,
            "TANGENT" : 83,
            "TEXCOORD_0" : 84,
            "TEXCOORD_1" : 85,
            "TEXCOORD_2" : 86,
            "TEXCOORD_3" : 87
          },
          "indices" : 80,
          "material" : 10
        },
        {
          "attributes" : {
            "POSITION" : 89,
            "NORMAL" : 90,
            "TANGENT" : 91,
            "TEXCOORD_0" : 92,
            "TEXCOORD_1" : 93,
            "TEXCOORD_2" : 94,
            "TEXCOORD_3" : 95
          },
          "indices" : 88,
          "material" : 11
        }
      ],
      "name" : "SM_ENV_LKNVLD_Hokage_Lod2"
    }
  ],
  "buffers" : [
    {
      "uri" : "SM_ENV_LKNVLD_Hokage_Lod2.bin",
      "byteLength" : 1273392
    }
  ],
  "bufferViews" : [
    {
      "buffer" : 0,
      "byteOffset" : 0,
      "byteLength" : 6584
    },
    {
      "buffer" : 0,
      "byteOffset" : 6584,
      "byteLength" : 14748
    },
    {
      "buffer" : 0,
      "byteOffset" : 21332,
      "byteLength" : 14748
    },
    {
      "buffer" : 0,
      "byteOffset" : 36080,
      "byteLength" : 19664
    },
    {
      "buffer" : 0,
      "byteOffset" : 55744,
      "byteLength" : 9832
    },
    {
      "buffer" : 0,
      "byteOffset" : 65576,
      "byteLength" : 9832
    },
    {
      "buffer" : 0,
      "byteOffset" : 75408,
      "byteLength" : 9832
    },
    {
      "buffer" : 0,
      "byteOffset" : 85240,
      "byteLength" : 9832
    },
    {
      "buffer" : 0,
      "byteOffset" : 95072,
      "byteLength" : 7604
    },
    {
      "buffer" : 0,
      "byteOffset" : 102676,
      "byteLength" : 16032
    },
    {
      "buffer" : 0,
      "byteOffset" : 118708,
      "byteLength" : 16032
    },
    {
      "buffer" : 0,
      "byteOffset" : 134740,
      "byteLength" : 21376
    },
    {
      "buffer" : 0,
      "byteOffset" : 156116,
      "byteLength" : 10688
    },
    {
      "buffer" : 0,
      "byteOffset" : 166804,
      "byteLength" : 10688
    },
    {
      "buffer" : 0,
      "byteOffset" : 177492,
      "byteLength" : 10688
    },
    {
      "buffer" : 0,
      "byteOffset" : 188180,
      "byteLength" : 10688
    },
    {
      "buffer" : 0,
      "byteOffset" : 198868,
      "byteLength" : 72
    },
    {
      "buffer" : 0,
      "byteOffset" : 198940,
      "byteLength" : 288
    },
    {
      "buffer" : 0,
      "byteOffset" : 199228,
      "byteLength" : 288
    },
    {
      "buffer" : 0,
      "byteOffset" : 199516,
      "byteLength" : 384
    },
    {
      "buffer" : 0,
      "byteOffset" : 199900,
      "byteLength" : 192
    },
    {
      "buffer" : 0,
      "byteOffset" : 200092,
      "byteLength" : 192
    },
    {
      "buffer" : 0,
      "byteOffset" : 200284,
      "byteLength" : 192
    },
    {
      "buffer" : 0,
      "byteOffset" : 200476,
      "byteLength" : 192
    },
    {
      "buffer" : 0,
      "byteOffset" : 200668,
      "byteLength" : 22352
    },
    {
      "buffer" : 0,
      "byteOffset" : 223020,
      "byteLength" : 87696
    },
    {
      "buffer" : 0,
      "byteOffset" : 310716,
      "byteLength" : 87696
    },
    {
      "buffer" : 0,
      "byteOffset" : 398412,
      "byteLength" : 116928
    },
    {
      "buffer" : 0,
      "byteOffset" : 515340,
      "byteLength" : 58464
    },
    {
      "buffer" : 0,
      "byteOffset" : 573804,
      "byteLength" : 58464
    },
    {
      "buffer" : 0,
      "byteOffset" : 632268,
      "byteLength" : 58464
    },
    {
      "buffer" : 0,
      "byteOffset" : 690732,
      "byteLength" : 58464
    },
    {
      "buffer" : 0,
      "byteOffset" : 749196,
      "byteLength" : 2156
    },
    {
      "buffer" : 0,
      "byteOffset" : 751352,
      "byteLength" : 5100
    },
    {
      "buffer" : 0,
      "byteOffset" : 756452,
      "byteLength" : 5100
    },
    {
      "buffer" : 0,
      "byteOffset" : 761552,
      "byteLength" : 6800
    },
    {
      "buffer" : 0,
      "byteOffset" : 768352,
      "byteLength" : 3400
    },
    {
      "buffer" : 0,
      "byteOffset" : 771752,
      "byteLength" : 3400
    },
    {
      "buffer" : 0,
      "byteOffset" : 775152,
      "byteLength" : 3400
    },
    {
      "buffer" : 0,
      "byteOffset" : 778552,
      "byteLength" : 3400
    },
    {
      "buffer" : 0,
      "byteOffset" : 781952,
      "byteLength" : 620
    },
    {
      "buffer" : 0,
      "byteOffset" : 782572,
      "byteLength" : 2292
    },
    {
      "buffer" : 0,
      "byteOffset" : 784864,
      "byteLength" : 2292
    },
    {
      "buffer" : 0,
      "byteOffset" : 787156,
      "byteLength" : 3056
    },
    {
      "buffer" : 0,
      "byteOffset" : 790212,
      "byteLength" : 1528
    },
    {
      "buffer" : 0,
      "byteOffset" : 791740,
      "byteLength" : 1528
    },
    {
      "buffer" : 0,
      "byteOffset" : 793268,
      "byteLength" : 1528
    },
    {
      "buffer" : 0,
      "byteOffset" : 794796,
      "byteLength" : 1528
    },
    {
      "buffer" : 0,
      "byteOffset" : 796324,
      "byteLength" : 8132
    },
    {
      "buffer" : 0,
      "byteOffset" : 804456,
      "byteLength" : 19512
    },
    {
      "buffer" : 0,
      "byteOffset" : 823968,
      "byteLength" : 19512
    },
    {
      "buffer" : 0,
      "byteOffset" : 843480,
      "byteLength" : 26016
    },
    {
      "buffer" : 0,
      "byteOffset" : 869496,
      "byteLength" : 13008
    },
    {
      "buffer" : 0,
      "byteOffset" : 882504,
      "byteLength" : 13008
    },
    {
      "buffer" : 0,
      "byteOffset" : 895512,
      "byteLength" : 13008
    },
    {
      "buffer" : 0,
      "byteOffset" : 908520,
      "byteLength" : 13008
    },
    {
      "buffer" : 0,
      "byteOffset" : 921528,
      "byteLength" : 20708
    },
    {
      "buffer" : 0,
      "byteOffset" : 942236,
      "byteLength" : 45672
    },
    {
      "buffer" : 0,
      "byteOffset" : 987908,
      "byteLength" : 45672
    },
    {
      "buffer" : 0,
      "byteOffset" : 1033580,
      "byteLength" : 60896
    },
    {
      "buffer" : 0,
      "byteOffset" : 1094476,
      "byteLength" : 30448
    },
    {
      "buffer" : 0,
      "byteOffset" : 1124924,
      "byteLength" : 30448
    },
    {
      "buffer" : 0,
      "byteOffset" : 1155372,
      "byteLength" : 30448
    },
    {
      "buffer" : 0,
      "byteOffset" : 1185820,
      "byteLength" : 30448
    },
    {
      "buffer" : 0,
      "byteOffset" : 1216268,
      "byteLength" : 12
    },
    {
      "buffer" : 0,
      "byteOffset" : 1216280,
      "byteLength" : 48
    },
    {
      "buffer" : 0,
      "byteOffset" : 1216328,
      "byteLength" : 48
    },
    {
      "buffer" : 0,
      "byteOffset" : 1216376,
      "byteLength" : 64
    },
    {
      "buffer" : 0,
      "byteOffset" : 1216440,
      "byteLength" : 32
    },
    {
      "buffer" : 0,
      "byteOffset" : 1216472,
      "byteLength" : 32
    },
    {
      "buffer" : 0,
      "byteOffset" : 1216504,
      "byteLength" : 32
    },
    {
      "buffer" : 0,
      "byteOffset" : 1216536,
      "byteLength" : 32
    },
    {
      "buffer" : 0,
      "byteOffset" : 1216568,
      "byteLength" : 432
    },
    {
      "buffer" : 0,
      "byteOffset" : 1217000,
      "byteLength" : 1188
    },
    {
      "buffer" : 0,
      "byteOffset" : 1218188,
      "byteLength" : 1188
    },
    {
      "buffer" : 0,
      "byteOffset" : 1219376,
      "byteLength" : 1584
    },
    {
      "buffer" : 0,
      "byteOffset" : 1220960,
      "byteLength" : 792
    },
    {
      "buffer" : 0,
      "byteOffset" : 1221752,
      "byteLength" : 792
    },
    {
      "buffer" : 0,
      "byteOffset" : 1222544,
      "byteLength" : 792
    },
    {
      "buffer" : 0,
      "byteOffset" : 1223336,
      "byteLength" : 792
    },
    {
      "buffer" : 0,
      "byteOffset" : 1224128,
      "byteLength" : 968
    },
    {
      "buffer" : 0,
      "byteOffset" : 1225096,
      "byteLength" : 2700
    },
    {
      "buffer" : 0,
      "byteOffset" : 1227796,
      "byteLength" : 2700
    },
    {
      "buffer" : 0,
      "byteOffset" : 1230496,
      "byteLength" : 3600
    },
    {
      "buffer" : 0,
      "byteOffset" : 1234096,
      "byteLength" : 1800
    },
    {
      "buffer" : 0,
      "byteOffset" : 1235896,
      "byteLength" : 1800
    },
    {
      "buffer" : 0,
      "byteOffset" : 1237696,
      "byteLength" : 1800
    },
    {
      "buffer" : 0,
      "byteOffset" : 1239496,
      "byteLength" : 1800
    },
    {
      "buffer" : 0,
      "byteOffset" : 1241296,
      "byteLength" : 2360
    },
    {
      "buffer" : 0,
      "byteOffset" : 1243656,
      "byteLength" : 4956
    },
    {
      "buffer" : 0,
      "byteOffset" : 1248612,
      "byteLength" : 4956
    },
    {
      "buffer" : 0,
      "byteOffset" : 1253568,
      "byteLength" : 6608
    },
    {
      "buffer" : 0,
      "byteOffset" : 1260176,
      "byteLength" : 3304
    },
    {
      "buffer" : 0,
      "byteOffset" : 1263480,
      "byteLength" : 3304
    },
    {
      "buffer" : 0,
      "byteOffset" : 1266784,
      "byteLength" : 3304
    },
    {
      "buffer" : 0,
      "byteOffset" : 1270088,
      "byteLength" : 3304
    }
  ],
  "accessors" : [
    {
      "bufferView" : 0,
      "componentType" : 5123,
      "count" : 3291,
      "type" : "SCALAR"
    },
    {
      "bufferView" : 1,
      "min" : [ -36.2259, 0.945937, -22.8478 ],
      "max" : [ 36.2259, 27.6908, 23.101 ],
      "componentType" : 5126,
      "count" : 1229,
      "type" : "VEC3"
    },
    {
      "bufferView" : 2,
      "componentType" : 5126,
      "count" : 1229,
      "type" : "VEC3"
    },
    {
      "bufferView" : 3,
      "componentType" : 5126,
      "count" : 1229,
      "type" : "VEC4"
    },
    {
      "bufferView" : 4,
      "componentType" : 5126,
      "count" : 1229,
      "type" : "VEC2"
    },
    {
      "bufferView" : 5,
      "componentType" : 5126,
      "count" : 1229,
      "type" : "VEC2"
    },
    {
      "bufferView" : 6,
      "componentType" : 5126,
      "count" : 1229,
      "type" : "VEC2"
    },
    {
      "bufferView" : 7,
      "componentType" : 5126,
      "count" : 1229,
      "type" : "VEC2"
    },
    {
      "bufferView" : 8,
      "componentType" : 5123,
      "count" : 3801,
      "type" : "SCALAR"
    },
    {
      "bufferView" : 9,
      "min" : [ -37.2628, 4.60938, -23.86 ],
      "max" : [ 37.2492, 27.2182, 23.9694 ],
      "componentType" : 5126,
      "count" : 1336,
      "type" : "VEC3"
    },
    {
      "bufferView" : 10,
      "componentType" : 5126,
      "count" : 1336,
      "type" : "VEC3"
    },
    {
      "bufferView" : 11,
      "componentType" : 5126,
      "count" : 1336,
      "type" : "VEC4"
    },
    {
      "bufferView" : 12,
      "componentType" : 5126,
      "count" : 1336,
      "type" : "VEC2"
    },
    {
      "bufferView" : 13,
      "componentType" : 5126,
      "count" : 1336,
      "type" : "VEC2"
    },
    {
      "bufferView" : 14,
      "componentType" : 5126,
      "count" : 1336,
      "type" : "VEC2"
    },
    {
      "bufferView" : 15,
      "componentType" : 5126,
      "count" : 1336,
      "type" : "VEC2"
    },
    {
      "bufferView" : 16,
      "componentType" : 5123,
      "count" : 36,
      "type" : "SCALAR"
    },
    {
      "bufferView" : 17,
      "min" : [ -18.8722, 1.09551, 2.57856 ],
      "max" : [ 25.0158, 4.49951, 20.267 ],
      "componentType" : 5126,
      "count" : 24,
      "type" : "VEC3"
    },
    {
      "bufferView" : 18,
      "componentType" : 5126,
      "count" : 24,
      "type" : "VEC3"
    },
    {
      "bufferView" : 19,
      "componentType" : 5126,
      "count" : 24,
      "type" : "VEC4"
    },
    {
      "bufferView" : 20,
      "componentType" : 5126,
      "count" : 24,
      "type" : "VEC2"
    },
    {
      "bufferView" : 21,
      "componentType" : 5126,
      "count" : 24,
      "type" : "VEC2"
    },
    {
      "bufferView" : 22,
      "componentType" : 5126,
      "count" : 24,
      "type" : "VEC2"
    },
    {
      "bufferView" : 23,
      "componentType" : 5126,
      "count" : 24,
      "type" : "VEC2"
    },
    {
      "bufferView" : 24,
      "componentType" : 5123,
      "count" : 11175,
      "type" : "SCALAR"
    },
    {
      "bufferView" : 25,
      "min" : [ -36.7007, 0.997507, -23.3016 ],
      "max" : [ 36.6807, 27.3034, 23.0025 ],
      "componentType" : 5126,
      "count" : 7308,
      "type" : "VEC3"
    },
    {
      "bufferView" : 26,
      "componentType" : 5126,
      "count" : 7308,
      "type" : "VEC3"
    },
    {
      "bufferView" : 27,
      "componentType" : 5126,
      "count" : 7308,
      "type" : "VEC4"
    },
    {
      "bufferView" : 28,
      "componentType" : 5126,
      "count" : 7308,
      "type" : "VEC2"
    },
    {
      "bufferView" : 29,
      "componentType" : 5126,
      "count" : 7308,
      "type" : "VEC2"
    },
    {
      "bufferView" : 30,
      "componentType" : 5126,
      "count" : 7308,
      "type" : "VEC2"
    },
    {
      "bufferView" : 31,
      "componentType" : 5126,
      "count" : 7308,
      "type" : "VEC2"
    },
    {
      "bufferView" : 32,
      "componentType" : 5123,
      "count" : 1077,
      "type" : "SCALAR"
    },
    {
      "bufferView" : 33,
      "min" : [ -36.0972, 0.972201, -22.8164 ],
      "max" : [ 35.8903, 26.3038, 22.9575 ],
      "componentType" : 5126,
      "count" : 425,
      "type" : "VEC3"
    },
    {
      "bufferView" : 34,
      "componentType" : 5126,
      "count" : 425,
      "type" : "VEC3"
    },
    {
      "bufferView" : 35,
      "componentType" : 5126,
      "count" : 425,
      "type" : "VEC4"
    },
    {
      "bufferView" : 36,
      "componentType" : 5126,
      "count" : 425,
      "type" : "VEC2"
    },
    {
      "bufferView" : 37,
      "componentType" : 5126,
      "count" : 425,
      "type" : "VEC2"
    },
    {
      "bufferView" : 38,
      "componentType" : 5126,
      "count" : 425,
      "type" : "VEC2"
    },
    {
      "bufferView" : 39,
      "componentType" : 5126,
      "count" : 425,
      "type" : "VEC2"
    },
    {
      "bufferView" : 40,
      "componentType" : 5123,
      "count" : 309,
      "type" : "SCALAR"
    },
    {
      "bufferView" : 41,
      "min" : [ -35.6787, 3.56318, -21.9337 ],
      "max" : [ 35.4718, 27.2375, 20.7812 ],
      "componentType" : 5126,
      "count" : 191,
      "type" : "VEC3"
    },
    {
      "bufferView" : 42,
      "componentType" : 5126,
      "count" : 191,
      "type" : "VEC3"
    },
    {
      "bufferView" : 43,
      "componentType" : 5126,
      "count" : 191,
      "type" : "VEC4"
    },
    {
      "bufferView" : 44,
      "componentType" : 5126,
      "count" : 191,
      "type" : "VEC2"
    },
    {
      "bufferView" : 45,
      "componentType" : 5126,
      "count" : 191,
      "type" : "VEC2"
    },
    {
      "bufferView" : 46,
      "componentType" : 5126,
      "count" : 191,
      "type" : "VEC2"
    },
    {
      "bufferView" : 47,
      "componentType" : 5126,
      "count" : 191,
      "type" : "VEC2"
    },
    {
      "bufferView" : 48,
      "componentType" : 5123,
      "count" : 4065,
      "type" : "SCALAR"
    },
    {
      "bufferView" : 49,
      "min" : [ -38.3319, -0.00249756, -25.0511 ],
      "max" : [ 38.3319, 35.4445, 25.0511 ],
      "componentType" : 5126,
      "count" : 1626,
      "type" : "VEC3"
    },
    {
      "bufferView" : 50,
      "componentType" : 5126,
      "count" : 1626,
      "type" : "VEC3"
    },
    {
      "bufferView" : 51,
      "componentType" : 5126,
      "count" : 1626,
      "type" : "VEC4"
    },
    {
      "bufferView" : 52,
      "componentType" : 5126,
      "count" : 1626,
      "type" : "VEC2"
    },
    {
      "bufferView" : 53,
      "componentType" : 5126,
      "count" : 1626,
      "type" : "VEC2"
    },
    {
      "bufferView" : 54,
      "componentType" : 5126,
      "count" : 1626,
      "type" : "VEC2"
    },
    {
      "bufferView" : 55,
      "componentType" : 5126,
      "count" : 1626,
      "type" : "VEC2"
    },
    {
      "bufferView" : 56,
      "componentType" : 5123,
      "count" : 10353,
      "type" : "SCALAR"
    },
    {
      "bufferView" : 57,
      "min" : [ -36.0743, 7.38056, -22.6378 ],
      "max" : [ 35.9776, 29.2407, 22.9019 ],
      "componentType" : 5126,
      "count" : 3806,
      "type" : "VEC3"
    },
    {
      "bufferView" : 58,
      "componentType" : 5126,
      "count" : 3806,
      "type" : "VEC3"
    },
    {
      "bufferView" : 59,
      "componentType" : 5126,
      "count" : 3806,
      "type" : "VEC4"
    },
    {
      "bufferView" : 60,
      "componentType" : 5126,
      "count" : 3806,
      "type" : "VEC2"
    },
    {
      "bufferView" : 61,
      "componentType" : 5126,
      "count" : 3806,
      "type" : "VEC2"
    },
    {
      "bufferView" : 62,
      "componentType" : 5126,
      "count" : 3806,
      "type" : "VEC2"
    },
    {
      "bufferView" : 63,
      "componentType" : 5126,
      "count" : 3806,
      "type" : "VEC2"
    },
    {
      "bufferView" : 64,
      "componentType" : 5123,
      "count" : 6,
      "type" : "SCALAR"
    },
    {
      "bufferView" : 65,
      "min" : [ -1.82179, 5.54695, 21.271 ],
      "max" : [ 1.75841, 6.72692, 21.9843 ],
      "componentType" : 5126,
      "count" : 4,
      "type" : "VEC3"
    },
    {
      "bufferView" : 66,
      "componentType" : 5126,
      "count" : 4,
      "type" : "VEC3"
    },
    {
      "bufferView" : 67,
      "componentType" : 5126,
      "count" : 4,
      "type" : "VEC4"
    },
    {
      "bufferView" : 68,
      "componentType" : 5126,
      "count" : 4,
      "type" : "VEC2"
    },
    {
      "bufferView" : 69,
      "componentType" : 5126,
      "count" : 4,
      "type" : "VEC2"
    },
    {
      "bufferView" : 70,
      "componentType" : 5126,
      "count" : 4,
      "type" : "VEC2"
    },
    {
      "bufferView" : 71,
      "componentType" : 5126,
      "count" : 4,
      "type" : "VEC2"
    },
    {
      "bufferView" : 72,
      "componentType" : 5123,
      "count" : 216,
      "type" : "SCALAR"
    },
    {
      "bufferView" : 73,
      "min" : [ -2.52679, 21.9707, 15.75 ],
      "max" : [ 2.6265, 26.0084, 17.4835 ],
      "componentType" : 5126,
      "count" : 99,
      "type" : "VEC3"
    },
    {
      "bufferView" : 74,
      "componentType" : 5126,
      "count" : 99,
      "type" : "VEC3"
    },
    {
      "bufferView" : 75,
      "componentType" : 5126,
      "count" : 99,
      "type" : "VEC4"
    },
    {
      "bufferView" : 76,
      "componentType" : 5126,
      "count" : 99,
      "type" : "VEC2"
    },
    {
      "bufferView" : 77,
      "componentType" : 5126,
      "count" : 99,
      "type" : "VEC2"
    },
    {
      "bufferView" : 78,
      "componentType" : 5126,
      "count" : 99,
      "type" : "VEC2"
    },
    {
      "bufferView" : 79,
      "componentType" : 5126,
      "count" : 99,
      "type" : "VEC2"
    },
    {
      "bufferView" : 80,
      "componentType" : 5123,
      "count" : 483,
      "type" : "SCALAR"
    },
    {
      "bufferView" : 81,
      "min" : [ -14.5234, 19.5004, -10.9771 ],
      "max" : [ 14.5287, 26.0014, 17.9577 ],
      "componentType" : 5126,
      "count" : 225,
      "type" : "VEC3"
    },
    {
      "bufferView" : 82,
      "componentType" : 5126,
      "count" : 225,
      "type" : "VEC3"
    },
    {
      "bufferView" : 83,
      "componentType" : 5126,
      "count" : 225,
      "type" : "VEC4"
    },
    {
      "bufferView" : 84,
      "componentType" : 5126,
      "count" : 225,
      "type" : "VEC2"
    },
    {
      "bufferView" : 85,
      "componentType" : 5126,
      "count" : 225,
      "type" : "VEC2"
    },
    {
      "bufferView" : 86,
      "componentType" : 5126,
      "count" : 225,
      "type" : "VEC2"
    },
    {
      "bufferView" : 87,
      "componentType" : 5126,
      "count" : 225,
      "type" : "VEC2"
    },
    {
      "bufferView" : 88,
      "componentType" : 5123,
      "count" : 1179,
      "type" : "SCALAR"
    },
    {
      "bufferView" : 89,
      "min" : [ -33.5231, 0.997512, -20.2423 ],
      "max" : [ 33.5231, 10.1013, 21.4153 ],
      "componentType" : 5126,
      "count" : 413,
      "type" : "VEC3"
    },
    {
      "bufferView" : 90,
      "componentType" : 5126,
      "count" : 413,
      "type" : "VEC3"
    },
    {
      "bufferView" : 91,
      "componentType" : 5126,
      "count" : 413,
      "type" : "VEC4"
    },
    {
      "bufferView" : 92,
      "componentType" : 5126,
      "count" : 413,
      "type" : "VEC2"
    },
    {
      "bufferView" : 93,
      "componentType" : 5126,
      "count" : 413,
      "type" : "VEC2"
    },
    {
      "bufferView" : 94,
      "componentType" : 5126,
      "count" : 413,
      "type" : "VEC2"
    },
    {
      "bufferView" : 95,
      "componentType" : 5126,
      "count" : 413,
      "type" : "VEC2"
    }
  ]
}
