{
  "asset" : {
    "generator" : "UE Viewer (umodel) build 1544 based",
    "version" : "2.0"
  },
  "scene" : 0,
  "scenes" : [
    {
      "nodes" : [ 0 ]
    }
  ],
  "nodes" : [
    {
      "name" : "SM_ENV_LKNVLD_TreeSet_B_Lod1",
      "mesh" : 0
    }
  ],
  "materials" : [
    {
      "name" : "MI_ENV_LKNVLD_Tree_A_Masked_CameraTrans",
      "pbrMetallicRoughness" : {
        "baseColorFactor" : [ 0.3, 0.3, 0.3, 1.0 ],
        "metallicFactor" : 0.1,
        "roughnessFactor" : 0.5
      }
    },
    {
      "name" : "MI_ENV_LKNVLD_LeafMasked_A",
      "pbrMetallicRoughness" : {
        "baseColorFactor" : [ 0.9, 0.3, 0.3, 1.0 ],
        "metallicFactor" : 0.1,
        "roughnessFactor" : 0.5
      }
    },
    {
      "name" : "MI_ENV_LKNVLD_Leaf_A",
      "pbrMetallicRoughness" : {
        "baseColorFactor" : [ 0.3, 0.9, 0.3, 1.0 ],
        "metallicFactor" : 0.1,
        "roughnessFactor" : 0.5
      }
    }
  ],
  "meshes" : [
    {
      "primitives" : [
        {
          "attributes" : {
            "POSITION" : 1,
            "NORMAL" : 2,
            "TANGENT" : 3,
            "COLOR_0" : 4,
            "TEXCOORD_0" : 5,
            "TEXCOORD_1" : 6,
            "TEXCOORD_2" : 7,
            "TEXCOORD_3" : 8
          },
          "indices" : 0,
          "material" : 0
        },
        {
          "attributes" : {
            "POSITION" : 10,
            "NORMAL" : 11,
            "TANGENT" : 12,
            "COLOR_0" : 13,
            "TEXCOORD_0" : 14,
            "TEXCOORD_1" : 15,
            "TEXCOORD_2" : 16,
            "TEXCOORD_3" : 17
          },
          "indices" : 9,
          "material" : 1
        },
        {
          "attributes" : {
            "POSITION" : 19,
            "NORMAL" : 20,
            "TANGENT" : 21,
            "COLOR_0" : 22,
            "TEXCOORD_0" : 23,
            "TEXCOORD_1" : 24,
            "TEXCOORD_2" : 25,
            "TEXCOORD_3" : 26
          },
          "indices" : 18,
          "material" : 2
        }
      ],
      "name" : "SM_ENV_LKNVLD_TreeSet_B_Lod1"
    }
  ],
  "buffers" : [
    {
      "uri" : "SM_ENV_LKNVLD_TreeSet_B_Lod1.bin",
      "byteLength" : 2253088
    }
  ],
  "bufferViews" : [
    {
      "buffer" : 0,
      "byteOffset" : 0,
      "byteLength" : 7176
    },
    {
      "buffer" : 0,
      "byteOffset" : 7176,
      "byteLength" : 30432
    },
    {
      "buffer" : 0,
      "byteOffset" : 37608,
      "byteLength" : 30432
    },
    {
      "buffer" : 0,
      "byteOffset" : 68040,
      "byteLength" : 40576
    },
    {
      "buffer" : 0,
      "byteOffset" : 108616,
      "byteLength" : 10144
    },
    {
      "buffer" : 0,
      "byteOffset" : 118760,
      "byteLength" : 20288
    },
    {
      "buffer" : 0,
      "byteOffset" : 139048,
      "byteLength" : 20288
    },
    {
      "buffer" : 0,
      "byteOffset" : 159336,
      "byteLength" : 20288
    },
    {
      "buffer" : 0,
      "byteOffset" : 179624,
      "byteLength" : 20288
    },
    {
      "buffer" : 0,
      "byteOffset" : 199912,
      "byteLength" : 87780
    },
    {
      "buffer" : 0,
      "byteOffset" : 287692,
      "byteLength" : 239760
    },
    {
      "buffer" : 0,
      "byteOffset" : 527452,
      "byteLength" : 239760
    },
    {
      "buffer" : 0,
      "byteOffset" : 767212,
      "byteLength" : 319680
    },
    {
      "buffer" : 0,
      "byteOffset" : 1086892,
      "byteLength" : 79920
    },
    {
      "buffer" : 0,
      "byteOffset" : 1166812,
      "byteLength" : 159840
    },
    {
      "buffer" : 0,
      "byteOffset" : 1326652,
      "byteLength" : 159840
    },
    {
      "buffer" : 0,
      "byteOffset" : 1486492,
      "byteLength" : 159840
    },
    {
      "buffer" : 0,
      "byteOffset" : 1646332,
      "byteLength" : 159840
    },
    {
      "buffer" : 0,
      "byteOffset" : 1806172,
      "byteLength" : 18200
    },
    {
      "buffer" : 0,
      "byteOffset" : 1824372,
      "byteLength" : 67692
    },
    {
      "buffer" : 0,
      "byteOffset" : 1892064,
      "byteLength" : 67692
    },
    {
      "buffer" : 0,
      "byteOffset" : 1959756,
      "byteLength" : 90256
    },
    {
      "buffer" : 0,
      "byteOffset" : 2050012,
      "byteLength" : 22564
    },
    {
      "buffer" : 0,
      "byteOffset" : 2072576,
      "byteLength" : 45128
    },
    {
      "buffer" : 0,
      "byteOffset" : 2117704,
      "byteLength" : 45128
    },
    {
      "buffer" : 0,
      "byteOffset" : 2162832,
      "byteLength" : 45128
    },
    {
      "buffer" : 0,
      "byteOffset" : 2207960,
      "byteLength" : 45128
    }
  ],
  "accessors" : [
    {
      "bufferView" : 0,
      "componentType" : 5123,
      "count" : 3588,
      "type" : "SCALAR"
    },
    {
      "bufferView" : 1,
      "min" : [ 14.9635, -0.566401, -45.7452 ],
      "max" : [ 32.0561, 10.6763, -31.0996 ],
      "componentType" : 5126,
      "count" : 2536,
      "type" : "VEC3"
    },
    {
      "bufferView" : 2,
      "componentType" : 5126,
      "count" : 2536,
      "type" : "VEC3"
    },
    {
      "bufferView" : 3,
      "componentType" : 5126,
      "count" : 2536,
      "type" : "VEC4"
    },
    {
      "bufferView" : 4,
      "normalized" : true,
      "componentType" : 5121,
      "count" : 2536,
      "type" : "VEC4"
    },
    {
      "bufferView" : 5,
      "componentType" : 5126,
      "count" : 2536,
      "type" : "VEC2"
    },
    {
      "bufferView" : 6,
      "componentType" : 5126,
      "count" : 2536,
      "type" : "VEC2"
    },
    {
      "bufferView" : 7,
      "componentType" : 5126,
      "count" : 2536,
      "type" : "VEC2"
    },
    {
      "bufferView" : 8,
      "componentType" : 5126,
      "count" : 2536,
      "type" : "VEC2"
    },
    {
      "bufferView" : 9,
      "componentType" : 5123,
      "count" : 43890,
      "type" : "SCALAR"
    },
    {
      "bufferView" : 10,
      "min" : [ 13.0419, 3.57284, -47.6363 ],
      "max" : [ 34.1525, 13.4486, -29.6481 ],
      "componentType" : 5126,
      "count" : 19980,
      "type" : "VEC3"
    },
    {
      "bufferView" : 11,
      "componentType" : 5126,
      "count" : 19980,
      "type" : "VEC3"
    },
    {
      "bufferView" : 12,
      "componentType" : 5126,
      "count" : 19980,
      "type" : "VEC4"
    },
    {
      "bufferView" : 13,
      "normalized" : true,
      "componentType" : 5121,
      "count" : 19980,
      "type" : "VEC4"
    },
    {
      "bufferView" : 14,
      "componentType" : 5126,
      "count" : 19980,
      "type" : "VEC2"
    },
    {
      "bufferView" : 15,
      "componentType" : 5126,
      "count" : 19980,
      "type" : "VEC2"
    },
    {
      "bufferView" : 16,
      "componentType" : 5126,
      "count" : 19980,
      "type" : "VEC2"
    },
    {
      "bufferView" : 17,
      "componentType" : 5126,
      "count" : 19980,
      "type" : "VEC2"
    },
    {
      "bufferView" : 18,
      "componentType" : 5123,
      "count" : 9099,
      "type" : "SCALAR"
    },
    {
      "bufferView" : 19,
      "min" : [ 13.2438, 3.78199, -47.3803 ],
      "max" : [ 33.9352, 13.2883, -29.8926 ],
      "componentType" : 5126,
      "count" : 5641,
      "type" : "VEC3"
    },
    {
      "bufferView" : 20,
      "componentType" : 5126,
      "count" : 5641,
      "type" : "VEC3"
    },
    {
      "bufferView" : 21,
      "componentType" : 5126,
      "count" : 5641,
      "type" : "VEC4"
    },
    {
      "bufferView" : 22,
      "normalized" : true,
      "componentType" : 5121,
      "count" : 5641,
      "type" : "VEC4"
    },
    {
      "bufferView" : 23,
      "componentType" : 5126,
      "count" : 5641,
      "type" : "VEC2"
    },
    {
      "bufferView" : 24,
      "componentType" : 5126,
      "count" : 5641,
      "type" : "VEC2"
    },
    {
      "bufferView" : 25,
      "componentType" : 5126,
      "count" : 5641,
      "type" : "VEC2"
    },
    {
      "bufferView" : 26,
      "componentType" : 5126,
      "count" : 5641,
      "type" : "VEC2"
    }
  ]
}
