{
  "asset" : {
    "generator" : "UE Viewer (umodel) build 1544 based",
    "version" : "2.0"
  },
  "scene" : 0,
  "scenes" : [
    {
      "nodes" : [ 0 ]
    }
  ],
  "nodes" : [
    {
      "name" : "SM_ENV_LKNVLD_Hokage_Lod1",
      "mesh" : 0
    }
  ],
  "materials" : [
    {
      "name" : "MI_LKNVLD_Plaster_Backdrop_Red",
      "pbrMetallicRoughness" : {
        "baseColorFactor" : [ 0.3, 0.3, 0.3, 1.0 ],
        "metallicFactor" : 0.1,
        "roughnessFactor" : 0.5
      }
    },
    {
      "name" : "MI_ENV_LKNVLD_MetalRoof_RedYellow",
      "pbrMetallicRoughness" : {
        "baseColorFactor" : [ 0.9, 0.3, 0.3, 1.0 ],
        "metallicFactor" : 0.1,
        "roughnessFactor" : 0.5
      }
    },
    {
      "name" : "MI_ENV_LKNVLD_Door_E",
      "pbrMetallicRoughness" : {
        "baseColorFactor" : [ 0.3, 0.9, 0.3, 1.0 ],
        "metallicFactor" : 0.1,
        "roughnessFactor" : 0.5
      }
    },
    {
      "name" : "MI_ENV_LKNVLD_WoodBoard_Natural_Lighter",
      "pbrMetallicRoughness" : {
        "baseColorFactor" : [ 0.3, 0.3, 0.9, 1.0 ],
        "metallicFactor" : 0.1,
        "roughnessFactor" : 0.5
      }
    },
    {
      "name" : "MI_ENV_LKNVLD_WoodBoard_Natural_Yellowed",
      "pbrMetallicRoughness" : {
        "baseColorFactor" : [ 0.9, 0.9, 0.9, 1.0 ],
        "metallicFactor" : 0.1,
        "roughnessFactor" : 0.5
      }
    },
    {
      "name" : "MI_ENV_LKNVLD_Windows_A",
      "pbrMetallicRoughness" : {
        "baseColorFactor" : [ 0.9, 0.9, 0.3, 1.0 ],
        "metallicFactor" : 0.1,
        "roughnessFactor" : 0.5
      }
    },
    {
      "name" : "MI_ENV_LKNVLD_ConcreteSlabs",
      "pbrMetallicRoughness" : {
        "baseColorFactor" : [ 0.9, 0.3, 0.9, 1.0 ],
        "metallicFactor" : 0.1,
        "roughnessFactor" : 0.5
      }
    },
    {
      "name" : "MI_ENV_LKNVLD_Pipe_G",
      "pbrMetallicRoughness" : {
        "baseColorFactor" : [ 0.3, 0.9, 0.9, 1.0 ],
        "metallicFactor" : 0.1,
        "roughnessFactor" : 0.5
      }
    },
    {
      "name" : "MI_ENV_LKNVLD_ClanSignboard_L",
      "pbrMetallicRoughness" : {
        "baseColorFactor" : [ 1, 0.3, 0.3, 1.0 ],
        "metallicFactor" : 0.1,
        "roughnessFactor" : 0.5
      }
    },
    {
      "name" : "MI_ENV_LKNVLD_ClanSignboard_M",
      "pbrMetallicRoughness" : {
        "baseColorFactor" : [ 0.6, 0.3, 0.3, 1.0 ],
        "metallicFactor" : 0.1,
        "roughnessFactor" : 0.5
      }
    },
    {
      "name" : "MI_ENV_LKNVLD_WoodPlain_Red",
      "pbrMetallicRoughness" : {
        "baseColorFactor" : [ 1, 0.9, 0.3, 1.0 ],
        "metallicFactor" : 0.1,
        "roughnessFactor" : 0.5
      }
    },
    {
      "name" : "MI_ENV_LKNVLD_ConcreteSlabs_Dark",
      "pbrMetallicRoughness" : {
        "baseColorFactor" : [ 1, 0.3, 0.9, 1.0 ],
        "metallicFactor" : 0.1,
        "roughnessFactor" : 0.5
      }
    }
  ],
  "meshes" : [
    {
      "primitives" : [
        {
          "attributes" : {
            "POSITION" : 1,
            "NORMAL" : 2,
            "TANGENT" : 3,
            "TEXCOORD_0" : 4,
            "TEXCOORD_1" : 5,
            "TEXCOORD_2" : 6,
            "TEXCOORD_3" : 7
          },
          "indices" : 0,
          "material" : 0
        },
        {
          "attributes" : {
            "POSITION" : 9,
            "NORMAL" : 10,
            "TANGENT" : 11,
            "TEXCOORD_0" : 12,
            "TEXCOORD_1" : 13,
            "TEXCOORD_2" : 14,
            "TEXCOORD_3" : 15
          },
          "indices" : 8,
          "material" : 1
        },
        {
          "attributes" : {
            "POSITION" : 17,
            "NORMAL" : 18,
            "TANGENT" : 19,
            "TEXCOORD_0" : 20,
            "TEXCOORD_1" : 21,
            "TEXCOORD_2" : 22,
            "TEXCOORD_3" : 23
          },
          "indices" : 16,
          "material" : 2
        },
        {
          "attributes" : {
            "POSITION" : 25,
            "NORMAL" : 26,
            "TANGENT" : 27,
            "TEXCOORD_0" : 28,
            "TEXCOORD_1" : 29,
            "TEXCOORD_2" : 30,
            "TEXCOORD_3" : 31
          },
          "indices" : 24,
          "material" : 3
        },
        {
          "attributes" : {
            "POSITION" : 33,
            "NORMAL" : 34,
            "TANGENT" : 35,
            "TEXCOORD_0" : 36,
            "TEXCOORD_1" : 37,
            "TEXCOORD_2" : 38,
            "TEXCOORD_3" : 39
          },
          "indices" : 32,
          "material" : 4
        },
        {
          "attributes" : {
            "POSITION" : 41,
            "NORMAL" : 42,
            "TANGENT" : 43,
            "TEXCOORD_0" : 44,
            "TEXCOORD_1" : 45,
            "TEXCOORD_2" : 46,
            "TEXCOORD_3" : 47
          },
          "indices" : 40,
          "material" : 5
        },
        {
          "attributes" : {
            "POSITION" : 49,
            "NORMAL" : 50,
            "TANGENT" : 51,
            "TEXCOORD_0" : 52,
            "TEXCOORD_1" : 53,
            "TEXCOORD_2" : 54,
            "TEXCOORD_3" : 55
          },
          "indices" : 48,
          "material" : 6
        },
        {
          "attributes" : {
            "POSITION" : 57,
            "NORMAL" : 58,
            "TANGENT" : 59,
            "TEXCOORD_0" : 60,
            "TEXCOORD_1" : 61,
            "TEXCOORD_2" : 62,
            "TEXCOORD_3" : 63
          },
          "indices" : 56,
          "material" : 7
        },
        {
          "attributes" : {
            "POSITION" : 65,
            "NORMAL" : 66,
            "TANGENT" : 67,
            "TEXCOORD_0" : 68,
            "TEXCOORD_1" : 69,
            "TEXCOORD_2" : 70,
            "TEXCOORD_3" : 71
          },
          "indices" : 64,
          "material" : 8
        },
        {
          "attributes" : {
            "POSITION" : 73,
            "NORMAL" : 74,
            "TANGENT" : 75,
            "TEXCOORD_0" : 76,
            "TEXCOORD_1" : 77,
            "TEXCOORD_2" : 78,
            "TEXCOORD_3" : 79
          },
          "indices" : 72,
          "material" : 9
        },
        {
          "attributes" : {
            "POSITION" : 81,
            "NORMAL" : 82,
            "TANGENT" : 83,
            "TEXCOORD_0" : 84,
            "TEXCOORD_1" : 85,
            "TEXCOORD_2" : 86,
            "TEXCOORD_3" : 87
          },
          "indices" : 80,
          "material" : 10
        },
        {
          "attributes" : {
            "POSITION" : 89,
            "NORMAL" : 90,
            "TANGENT" : 91,
            "TEXCOORD_0" : 92,
            "TEXCOORD_1" : 93,
            "TEXCOORD_2" : 94,
            "TEXCOORD_3" : 95
          },
          "indices" : 88,
          "material" : 11
        }
      ],
      "name" : "SM_ENV_LKNVLD_Hokage_Lod1"
    }
  ],
  "buffers" : [
    {
      "uri" : "SM_ENV_LKNVLD_Hokage_Lod1.bin",
      "byteLength" : 1628156
    }
  ],
  "bufferViews" : [
    {
      "buffer" : 0,
      "byteOffset" : 0,
      "byteLength" : 7140
    },
    {
      "buffer" : 0,
      "byteOffset" : 7140,
      "byteLength" : 15864
    },
    {
      "buffer" : 0,
      "byteOffset" : 23004,
      "byteLength" : 15864
    },
    {
      "buffer" : 0,
      "byteOffset" : 38868,
      "byteLength" : 21152
    },
    {
      "buffer" : 0,
      "byteOffset" : 60020,
      "byteLength" : 10576
    },
    {
      "buffer" : 0,
      "byteOffset" : 70596,
      "byteLength" : 10576
    },
    {
      "buffer" : 0,
      "byteOffset" : 81172,
      "byteLength" : 10576
    },
    {
      "buffer" : 0,
      "byteOffset" : 91748,
      "byteLength" : 10576
    },
    {
      "buffer" : 0,
      "byteOffset" : 102324,
      "byteLength" : 11220
    },
    {
      "buffer" : 0,
      "byteOffset" : 113544,
      "byteLength" : 22560
    },
    {
      "buffer" : 0,
      "byteOffset" : 136104,
      "byteLength" : 22560
    },
    {
      "buffer" : 0,
      "byteOffset" : 158664,
      "byteLength" : 30080
    },
    {
      "buffer" : 0,
      "byteOffset" : 188744,
      "byteLength" : 15040
    },
    {
      "buffer" : 0,
      "byteOffset" : 203784,
      "byteLength" : 15040
    },
    {
      "buffer" : 0,
      "byteOffset" : 218824,
      "byteLength" : 15040
    },
    {
      "buffer" : 0,
      "byteOffset" : 233864,
      "byteLength" : 15040
    },
    {
      "buffer" : 0,
      "byteOffset" : 248904,
      "byteLength" : 72
    },
    {
      "buffer" : 0,
      "byteOffset" : 248976,
      "byteLength" : 288
    },
    {
      "buffer" : 0,
      "byteOffset" : 249264,
      "byteLength" : 288
    },
    {
      "buffer" : 0,
      "byteOffset" : 249552,
      "byteLength" : 384
    },
    {
      "buffer" : 0,
      "byteOffset" : 249936,
      "byteLength" : 192
    },
    {
      "buffer" : 0,
      "byteOffset" : 250128,
      "byteLength" : 192
    },
    {
      "buffer" : 0,
      "byteOffset" : 250320,
      "byteLength" : 192
    },
    {
      "buffer" : 0,
      "byteOffset" : 250512,
      "byteLength" : 192
    },
    {
      "buffer" : 0,
      "byteOffset" : 250704,
      "byteLength" : 28908
    },
    {
      "buffer" : 0,
      "byteOffset" : 279612,
      "byteLength" : 104232
    },
    {
      "buffer" : 0,
      "byteOffset" : 383844,
      "byteLength" : 104232
    },
    {
      "buffer" : 0,
      "byteOffset" : 488076,
      "byteLength" : 138976
    },
    {
      "buffer" : 0,
      "byteOffset" : 627052,
      "byteLength" : 69488
    },
    {
      "buffer" : 0,
      "byteOffset" : 696540,
      "byteLength" : 69488
    },
    {
      "buffer" : 0,
      "byteOffset" : 766028,
      "byteLength" : 69488
    },
    {
      "buffer" : 0,
      "byteOffset" : 835516,
      "byteLength" : 69488
    },
    {
      "buffer" : 0,
      "byteOffset" : 905004,
      "byteLength" : 2196
    },
    {
      "buffer" : 0,
      "byteOffset" : 907200,
      "byteLength" : 5184
    },
    {
      "buffer" : 0,
      "byteOffset" : 912384,
      "byteLength" : 5184
    },
    {
      "buffer" : 0,
      "byteOffset" : 917568,
      "byteLength" : 6912
    },
    {
      "buffer" : 0,
      "byteOffset" : 924480,
      "byteLength" : 3456
    },
    {
      "buffer" : 0,
      "byteOffset" : 927936,
      "byteLength" : 3456
    },
    {
      "buffer" : 0,
      "byteOffset" : 931392,
      "byteLength" : 3456
    },
    {
      "buffer" : 0,
      "byteOffset" : 934848,
      "byteLength" : 3456
    },
    {
      "buffer" : 0,
      "byteOffset" : 938304,
      "byteLength" : 624
    },
    {
      "buffer" : 0,
      "byteOffset" : 938928,
      "byteLength" : 2304
    },
    {
      "buffer" : 0,
      "byteOffset" : 941232,
      "byteLength" : 2304
    },
    {
      "buffer" : 0,
      "byteOffset" : 943536,
      "byteLength" : 3072
    },
    {
      "buffer" : 0,
      "byteOffset" : 946608,
      "byteLength" : 1536
    },
    {
      "buffer" : 0,
      "byteOffset" : 948144,
      "byteLength" : 1536
    },
    {
      "buffer" : 0,
      "byteOffset" : 949680,
      "byteLength" : 1536
    },
    {
      "buffer" : 0,
      "byteOffset" : 951216,
      "byteLength" : 1536
    },
    {
      "buffer" : 0,
      "byteOffset" : 952752,
      "byteLength" : 12816
    },
    {
      "buffer" : 0,
      "byteOffset" : 965568,
      "byteLength" : 28380
    },
    {
      "buffer" : 0,
      "byteOffset" : 993948,
      "byteLength" : 28380
    },
    {
      "buffer" : 0,
      "byteOffset" : 1022328,
      "byteLength" : 37840
    },
    {
      "buffer" : 0,
      "byteOffset" : 1060168,
      "byteLength" : 18920
    },
    {
      "buffer" : 0,
      "byteOffset" : 1079088,
      "byteLength" : 18920
    },
    {
      "buffer" : 0,
      "byteOffset" : 1098008,
      "byteLength" : 18920
    },
    {
      "buffer" : 0,
      "byteOffset" : 1116928,
      "byteLength" : 18920
    },
    {
      "buffer" : 0,
      "byteOffset" : 1135848,
      "byteLength" : 35388
    },
    {
      "buffer" : 0,
      "byteOffset" : 1171236,
      "byteLength" : 65496
    },
    {
      "buffer" : 0,
      "byteOffset" : 1236732,
      "byteLength" : 65496
    },
    {
      "buffer" : 0,
      "byteOffset" : 1302228,
      "byteLength" : 87328
    },
    {
      "buffer" : 0,
      "byteOffset" : 1389556,
      "byteLength" : 43664
    },
    {
      "buffer" : 0,
      "byteOffset" : 1433220,
      "byteLength" : 43664
    },
    {
      "buffer" : 0,
      "byteOffset" : 1476884,
      "byteLength" : 43664
    },
    {
      "buffer" : 0,
      "byteOffset" : 1520548,
      "byteLength" : 43664
    },
    {
      "buffer" : 0,
      "byteOffset" : 1564212,
      "byteLength" : 12
    },
    {
      "buffer" : 0,
      "byteOffset" : 1564224,
      "byteLength" : 48
    },
    {
      "buffer" : 0,
      "byteOffset" : 1564272,
      "byteLength" : 48
    },
    {
      "buffer" : 0,
      "byteOffset" : 1564320,
      "byteLength" : 64
    },
    {
      "buffer" : 0,
      "byteOffset" : 1564384,
      "byteLength" : 32
    },
    {
      "buffer" : 0,
      "byteOffset" : 1564416,
      "byteLength" : 32
    },
    {
      "buffer" : 0,
      "byteOffset" : 1564448,
      "byteLength" : 32
    },
    {
      "buffer" : 0,
      "byteOffset" : 1564480,
      "byteLength" : 32
    },
    {
      "buffer" : 0,
      "byteOffset" : 1564512,
      "byteLength" : 684
    },
    {
      "buffer" : 0,
      "byteOffset" : 1565196,
      "byteLength" : 1668
    },
    {
      "buffer" : 0,
      "byteOffset" : 1566864,
      "byteLength" : 1668
    },
    {
      "buffer" : 0,
      "byteOffset" : 1568532,
      "byteLength" : 2224
    },
    {
      "buffer" : 0,
      "byteOffset" : 1570756,
      "byteLength" : 1112
    },
    {
      "buffer" : 0,
      "byteOffset" : 1571868,
      "byteLength" : 1112
    },
    {
      "buffer" : 0,
      "byteOffset" : 1572980,
      "byteLength" : 1112
    },
    {
      "buffer" : 0,
      "byteOffset" : 1574092,
      "byteLength" : 1112
    },
    {
      "buffer" : 0,
      "byteOffset" : 1575204,
      "byteLength" : 1380
    },
    {
      "buffer" : 0,
      "byteOffset" : 1576584,
      "byteLength" : 3168
    },
    {
      "buffer" : 0,
      "byteOffset" : 1579752,
      "byteLength" : 3168
    },
    {
      "buffer" : 0,
      "byteOffset" : 1582920,
      "byteLength" : 4224
    },
    {
      "buffer" : 0,
      "byteOffset" : 1587144,
      "byteLength" : 2112
    },
    {
      "buffer" : 0,
      "byteOffset" : 1589256,
      "byteLength" : 2112
    },
    {
      "buffer" : 0,
      "byteOffset" : 1591368,
      "byteLength" : 2112
    },
    {
      "buffer" : 0,
      "byteOffset" : 1593480,
      "byteLength" : 2112
    },
    {
      "buffer" : 0,
      "byteOffset" : 1595592,
      "byteLength" : 2396
    },
    {
      "buffer" : 0,
      "byteOffset" : 1597988,
      "byteLength" : 5028
    },
    {
      "buffer" : 0,
      "byteOffset" : 1603016,
      "byteLength" : 5028
    },
    {
      "buffer" : 0,
      "byteOffset" : 1608044,
      "byteLength" : 6704
    },
    {
      "buffer" : 0,
      "byteOffset" : 1614748,
      "byteLength" : 3352
    },
    {
      "buffer" : 0,
      "byteOffset" : 1618100,
      "byteLength" : 3352
    },
    {
      "buffer" : 0,
      "byteOffset" : 1621452,
      "byteLength" : 3352
    },
    {
      "buffer" : 0,
      "byteOffset" : 1624804,
      "byteLength" : 3352
    }
  ],
  "accessors" : [
    {
      "bufferView" : 0,
      "componentType" : 5123,
      "count" : 3570,
      "type" : "SCALAR"
    },
    {
      "bufferView" : 1,
      "min" : [ -36.2259, 0.945937, -22.8478 ],
      "max" : [ 36.2259, 27.6908, 23.101 ],
      "componentType" : 5126,
      "count" : 1322,
      "type" : "VEC3"
    },
    {
      "bufferView" : 2,
      "componentType" : 5126,
      "count" : 1322,
      "type" : "VEC3"
    },
    {
      "bufferView" : 3,
      "componentType" : 5126,
      "count" : 1322,
      "type" : "VEC4"
    },
    {
      "bufferView" : 4,
      "componentType" : 5126,
      "count" : 1322,
      "type" : "VEC2"
    },
    {
      "bufferView" : 5,
      "componentType" : 5126,
      "count" : 1322,
      "type" : "VEC2"
    },
    {
      "bufferView" : 6,
      "componentType" : 5126,
      "count" : 1322,
      "type" : "VEC2"
    },
    {
      "bufferView" : 7,
      "componentType" : 5126,
      "count" : 1322,
      "type" : "VEC2"
    },
    {
      "bufferView" : 8,
      "componentType" : 5123,
      "count" : 5610,
      "type" : "SCALAR"
    },
    {
      "bufferView" : 9,
      "min" : [ -37.2628, 4.54682, -23.8736 ],
      "max" : [ 37.2628, 27.2182, 23.9694 ],
      "componentType" : 5126,
      "count" : 1880,
      "type" : "VEC3"
    },
    {
      "bufferView" : 10,
      "componentType" : 5126,
      "count" : 1880,
      "type" : "VEC3"
    },
    {
      "bufferView" : 11,
      "componentType" : 5126,
      "count" : 1880,
      "type" : "VEC4"
    },
    {
      "bufferView" : 12,
      "componentType" : 5126,
      "count" : 1880,
      "type" : "VEC2"
    },
    {
      "bufferView" : 13,
      "componentType" : 5126,
      "count" : 1880,
      "type" : "VEC2"
    },
    {
      "bufferView" : 14,
      "componentType" : 5126,
      "count" : 1880,
      "type" : "VEC2"
    },
    {
      "bufferView" : 15,
      "componentType" : 5126,
      "count" : 1880,
      "type" : "VEC2"
    },
    {
      "bufferView" : 16,
      "componentType" : 5123,
      "count" : 36,
      "type" : "SCALAR"
    },
    {
      "bufferView" : 17,
      "min" : [ -18.8722, 1.09551, 2.57856 ],
      "max" : [ 25.0158, 4.49951, 20.267 ],
      "componentType" : 5126,
      "count" : 24,
      "type" : "VEC3"
    },
    {
      "bufferView" : 18,
      "componentType" : 5126,
      "count" : 24,
      "type" : "VEC3"
    },
    {
      "bufferView" : 19,
      "componentType" : 5126,
      "count" : 24,
      "type" : "VEC4"
    },
    {
      "bufferView" : 20,
      "componentType" : 5126,
      "count" : 24,
      "type" : "VEC2"
    },
    {
      "bufferView" : 21,
      "componentType" : 5126,
      "count" : 24,
      "type" : "VEC2"
    },
    {
      "bufferView" : 22,
      "componentType" : 5126,
      "count" : 24,
      "type" : "VEC2"
    },
    {
      "bufferView" : 23,
      "componentType" : 5126,
      "count" : 24,
      "type" : "VEC2"
    },
    {
      "bufferView" : 24,
      "componentType" : 5123,
      "count" : 14454,
      "type" : "SCALAR"
    },
    {
      "bufferView" : 25,
      "min" : [ -36.7007, 0.997507, -23.3016 ],
      "max" : [ 36.6807, 27.3034, 23.0025 ],
      "componentType" : 5126,
      "count" : 8686,
      "type" : "VEC3"
    },
    {
      "bufferView" : 26,
      "componentType" : 5126,
      "count" : 8686,
      "type" : "VEC3"
    },
    {
      "bufferView" : 27,
      "componentType" : 5126,
      "count" : 8686,
      "type" : "VEC4"
    },
    {
      "bufferView" : 28,
      "componentType" : 5126,
      "count" : 8686,
      "type" : "VEC2"
    },
    {
      "bufferView" : 29,
      "componentType" : 5126,
      "count" : 8686,
      "type" : "VEC2"
    },
    {
      "bufferView" : 30,
      "componentType" : 5126,
      "count" : 8686,
      "type" : "VEC2"
    },
    {
      "bufferView" : 31,
      "componentType" : 5126,
      "count" : 8686,
      "type" : "VEC2"
    },
    {
      "bufferView" : 32,
      "componentType" : 5123,
      "count" : 1098,
      "type" : "SCALAR"
    },
    {
      "bufferView" : 33,
      "min" : [ -36.0972, 0.972201, -22.8164 ],
      "max" : [ 35.8903, 26.2038, 22.9575 ],
      "componentType" : 5126,
      "count" : 432,
      "type" : "VEC3"
    },
    {
      "bufferView" : 34,
      "componentType" : 5126,
      "count" : 432,
      "type" : "VEC3"
    },
    {
      "bufferView" : 35,
      "componentType" : 5126,
      "count" : 432,
      "type" : "VEC4"
    },
    {
      "bufferView" : 36,
      "componentType" : 5126,
      "count" : 432,
      "type" : "VEC2"
    },
    {
      "bufferView" : 37,
      "componentType" : 5126,
      "count" : 432,
      "type" : "VEC2"
    },
    {
      "bufferView" : 38,
      "componentType" : 5126,
      "count" : 432,
      "type" : "VEC2"
    },
    {
      "bufferView" : 39,
      "componentType" : 5126,
      "count" : 432,
      "type" : "VEC2"
    },
    {
      "bufferView" : 40,
      "componentType" : 5123,
      "count" : 312,
      "type" : "SCALAR"
    },
    {
      "bufferView" : 41,
      "min" : [ -35.6787, 3.56318, -21.9337 ],
      "max" : [ 35.4718, 27.2375, 20.7812 ],
      "componentType" : 5126,
      "count" : 192,
      "type" : "VEC3"
    },
    {
      "bufferView" : 42,
      "componentType" : 5126,
      "count" : 192,
      "type" : "VEC3"
    },
    {
      "bufferView" : 43,
      "componentType" : 5126,
      "count" : 192,
      "type" : "VEC4"
    },
    {
      "bufferView" : 44,
      "componentType" : 5126,
      "count" : 192,
      "type" : "VEC2"
    },
    {
      "bufferView" : 45,
      "componentType" : 5126,
      "count" : 192,
      "type" : "VEC2"
    },
    {
      "bufferView" : 46,
      "componentType" : 5126,
      "count" : 192,
      "type" : "VEC2"
    },
    {
      "bufferView" : 47,
      "componentType" : 5126,
      "count" : 192,
      "type" : "VEC2"
    },
    {
      "bufferView" : 48,
      "componentType" : 5123,
      "count" : 6408,
      "type" : "SCALAR"
    },
    {
      "bufferView" : 49,
      "min" : [ -38.3319, -0.00249756, -25.0511 ],
      "max" : [ 38.3319, 35.4445, 25.0511 ],
      "componentType" : 5126,
      "count" : 2365,
      "type" : "VEC3"
    },
    {
      "bufferView" : 50,
      "componentType" : 5126,
      "count" : 2365,
      "type" : "VEC3"
    },
    {
      "bufferView" : 51,
      "componentType" : 5126,
      "count" : 2365,
      "type" : "VEC4"
    },
    {
      "bufferView" : 52,
      "componentType" : 5126,
      "count" : 2365,
      "type" : "VEC2"
    },
    {
      "bufferView" : 53,
      "componentType" : 5126,
      "count" : 2365,
      "type" : "VEC2"
    },
    {
      "bufferView" : 54,
      "componentType" : 5126,
      "count" : 2365,
      "type" : "VEC2"
    },
    {
      "bufferView" : 55,
      "componentType" : 5126,
      "count" : 2365,
      "type" : "VEC2"
    },
    {
      "bufferView" : 56,
      "componentType" : 5123,
      "count" : 17694,
      "type" : "SCALAR"
    },
    {
      "bufferView" : 57,
      "min" : [ -36.0876, 7.38056, -22.6958 ],
      "max" : [ 36.0005, 29.2407, 22.9019 ],
      "componentType" : 5126,
      "count" : 5458,
      "type" : "VEC3"
    },
    {
      "bufferView" : 58,
      "componentType" : 5126,
      "count" : 5458,
      "type" : "VEC3"
    },
    {
      "bufferView" : 59,
      "componentType" : 5126,
      "count" : 5458,
      "type" : "VEC4"
    },
    {
      "bufferView" : 60,
      "componentType" : 5126,
      "count" : 5458,
      "type" : "VEC2"
    },
    {
      "bufferView" : 61,
      "componentType" : 5126,
      "count" : 5458,
      "type" : "VEC2"
    },
    {
      "bufferView" : 62,
      "componentType" : 5126,
      "count" : 5458,
      "type" : "VEC2"
    },
    {
      "bufferView" : 63,
      "componentType" : 5126,
      "count" : 5458,
      "type" : "VEC2"
    },
    {
      "bufferView" : 64,
      "componentType" : 5123,
      "count" : 6,
      "type" : "SCALAR"
    },
    {
      "bufferView" : 65,
      "min" : [ -1.77179, 5.61647, 21.3639 ],
      "max" : [ 1.70841, 6.70712, 21.9124 ],
      "componentType" : 5126,
      "count" : 4,
      "type" : "VEC3"
    },
    {
      "bufferView" : 66,
      "componentType" : 5126,
      "count" : 4,
      "type" : "VEC3"
    },
    {
      "bufferView" : 67,
      "componentType" : 5126,
      "count" : 4,
      "type" : "VEC4"
    },
    {
      "bufferView" : 68,
      "componentType" : 5126,
      "count" : 4,
      "type" : "VEC2"
    },
    {
      "bufferView" : 69,
      "componentType" : 5126,
      "count" : 4,
      "type" : "VEC2"
    },
    {
      "bufferView" : 70,
      "componentType" : 5126,
      "count" : 4,
      "type" : "VEC2"
    },
    {
      "bufferView" : 71,
      "componentType" : 5126,
      "count" : 4,
      "type" : "VEC2"
    },
    {
      "bufferView" : 72,
      "componentType" : 5123,
      "count" : 342,
      "type" : "SCALAR"
    },
    {
      "bufferView" : 73,
      "min" : [ -2.58881, 21.9707, 15.75 ],
      "max" : [ 2.6265, 26.0084, 17.4835 ],
      "componentType" : 5126,
      "count" : 139,
      "type" : "VEC3"
    },
    {
      "bufferView" : 74,
      "componentType" : 5126,
      "count" : 139,
      "type" : "VEC3"
    },
    {
      "bufferView" : 75,
      "componentType" : 5126,
      "count" : 139,
      "type" : "VEC4"
    },
    {
      "bufferView" : 76,
      "componentType" : 5126,
      "count" : 139,
      "type" : "VEC2"
    },
    {
      "bufferView" : 77,
      "componentType" : 5126,
      "count" : 139,
      "type" : "VEC2"
    },
    {
      "bufferView" : 78,
      "componentType" : 5126,
      "count" : 139,
      "type" : "VEC2"
    },
    {
      "bufferView" : 79,
      "componentType" : 5126,
      "count" : 139,
      "type" : "VEC2"
    },
    {
      "bufferView" : 80,
      "componentType" : 5123,
      "count" : 690,
      "type" : "SCALAR"
    },
    {
      "bufferView" : 81,
      "min" : [ -14.5234, 19.5004, -10.9771 ],
      "max" : [ 14.5287, 26.0014, 17.9577 ],
      "componentType" : 5126,
      "count" : 264,
      "type" : "VEC3"
    },
    {
      "bufferView" : 82,
      "componentType" : 5126,
      "count" : 264,
      "type" : "VEC3"
    },
    {
      "bufferView" : 83,
      "componentType" : 5126,
      "count" : 264,
      "type" : "VEC4"
    },
    {
      "bufferView" : 84,
      "componentType" : 5126,
      "count" : 264,
      "type" : "VEC2"
    },
    {
      "bufferView" : 85,
      "componentType" : 5126,
      "count" : 264,
      "type" : "VEC2"
    },
    {
      "bufferView" : 86,
      "componentType" : 5126,
      "count" : 264,
      "type" : "VEC2"
    },
    {
      "bufferView" : 87,
      "componentType" : 5126,
      "count" : 264,
      "type" : "VEC2"
    },
    {
      "bufferView" : 88,
      "componentType" : 5123,
      "count" : 1197,
      "type" : "SCALAR"
    },
    {
      "bufferView" : 89,
      "min" : [ -33.5231, 0.997512, -20.2423 ],
      "max" : [ 33.5231, 10.1013, 21.4153 ],
      "componentType" : 5126,
      "count" : 419,
      "type" : "VEC3"
    },
    {
      "bufferView" : 90,
      "componentType" : 5126,
      "count" : 419,
      "type" : "VEC3"
    },
    {
      "bufferView" : 91,
      "componentType" : 5126,
      "count" : 419,
      "type" : "VEC4"
    },
    {
      "bufferView" : 92,
      "componentType" : 5126,
      "count" : 419,
      "type" : "VEC2"
    },
    {
      "bufferView" : 93,
      "componentType" : 5126,
      "count" : 419,
      "type" : "VEC2"
    },
    {
      "bufferView" : 94,
      "componentType" : 5126,
      "count" : 419,
      "type" : "VEC2"
    },
    {
      "bufferView" : 95,
      "componentType" : 5126,
      "count" : 419,
      "type" : "VEC2"
    }
  ]
}
