{
  "asset" : {
    "generator" : "UE Viewer (umodel) build 1544 based",
    "version" : "2.0"
  },
  "scene" : 0,
  "scenes" : [
    {
      "nodes" : [ 0 ]
    }
  ],
  "nodes" : [
    {
      "name" : "SM_ENV_LKNVLD_CommonBuilding_A5",
      "mesh" : 0
    }
  ],
  "materials" : [
    {
      "name" : "MI_ENV_LKNVLD_CommonBuilding_B",
      "pbrMetallicRoughness" : {
        "baseColorFactor" : [ 0.3, 0.3, 0.3, 1.0 ],
        "metallicFactor" : 0.1,
        "roughnessFactor" : 0.5
      }
    },
    {
      "name" : "MI_ENV_LKNVLD_WoodBoard_Natural_Yellowed_LOD",
      "pbrMetallicRoughness" : {
        "baseColorFactor" : [ 0.9, 0.3, 0.3, 1.0 ],
        "metallicFactor" : 0.1,
        "roughnessFactor" : 0.5
      }
    }
  ],
  "meshes" : [
    {
      "primitives" : [
        {
          "attributes" : {
            "POSITION" : 1,
            "NORMAL" : 2,
            "TANGENT" : 3,
            "TEXCOORD_0" : 4,
            "TEXCOORD_1" : 5,
            "TEXCOORD_2" : 6,
            "TEXCOORD_3" : 7
          },
          "indices" : 0,
          "material" : 0
        },
        {
          "attributes" : {
            "POSITION" : 9,
            "NORMAL" : 10,
            "TANGENT" : 11,
            "TEXCOORD_0" : 12,
            "TEXCOORD_1" : 13,
            "TEXCOORD_2" : 14,
            "TEXCOORD_3" : 15
          },
          "indices" : 8,
          "material" : 1
        }
      ],
      "name" : "SM_ENV_LKNVLD_CommonBuilding_A5"
    }
  ],
  "buffers" : [
    {
      "uri" : "SM_ENV_LKNVLD_CommonBuilding_A5.bin",
      "byteLength" : 75828
    }
  ],
  "bufferViews" : [
    {
      "buffer" : 0,
      "byteOffset" : 0,
      "byteLength" : 3900
    },
    {
      "buffer" : 0,
      "byteOffset" : 3900,
      "byteLength" : 11736
    },
    {
      "buffer" : 0,
      "byteOffset" : 15636,
      "byteLength" : 11736
    },
    {
      "buffer" : 0,
      "byteOffset" : 27372,
      "byteLength" : 15648
    },
    {
      "buffer" : 0,
      "byteOffset" : 43020,
      "byteLength" : 7824
    },
    {
      "buffer" : 0,
      "byteOffset" : 50844,
      "byteLength" : 7824
    },
    {
      "buffer" : 0,
      "byteOffset" : 58668,
      "byteLength" : 7824
    },
    {
      "buffer" : 0,
      "byteOffset" : 66492,
      "byteLength" : 7824
    },
    {
      "buffer" : 0,
      "byteOffset" : 74316,
      "byteLength" : 72
    },
    {
      "buffer" : 0,
      "byteOffset" : 74388,
      "byteLength" : 240
    },
    {
      "buffer" : 0,
      "byteOffset" : 74628,
      "byteLength" : 240
    },
    {
      "buffer" : 0,
      "byteOffset" : 74868,
      "byteLength" : 320
    },
    {
      "buffer" : 0,
      "byteOffset" : 75188,
      "byteLength" : 160
    },
    {
      "buffer" : 0,
      "byteOffset" : 75348,
      "byteLength" : 160
    },
    {
      "buffer" : 0,
      "byteOffset" : 75508,
      "byteLength" : 160
    },
    {
      "buffer" : 0,
      "byteOffset" : 75668,
      "byteLength" : 160
    }
  ],
  "accessors" : [
    {
      "bufferView" : 0,
      "componentType" : 5123,
      "count" : 1950,
      "type" : "SCALAR"
    },
    {
      "bufferView" : 1,
      "min" : [ -24.0027, 25.2, 155.02 ],
      "max" : [ 24.0943, 33.8841, 162.98 ],
      "componentType" : 5126,
      "count" : 978,
      "type" : "VEC3"
    },
    {
      "bufferView" : 2,
      "componentType" : 5126,
      "count" : 978,
      "type" : "VEC3"
    },
    {
      "bufferView" : 3,
      "componentType" : 5126,
      "count" : 978,
      "type" : "VEC4"
    },
    {
      "bufferView" : 4,
      "componentType" : 5126,
      "count" : 978,
      "type" : "VEC2"
    },
    {
      "bufferView" : 5,
      "componentType" : 5126,
      "count" : 978,
      "type" : "VEC2"
    },
    {
      "bufferView" : 6,
      "componentType" : 5126,
      "count" : 978,
      "type" : "VEC2"
    },
    {
      "bufferView" : 7,
      "componentType" : 5126,
      "count" : 978,
      "type" : "VEC2"
    },
    {
      "bufferView" : 8,
      "componentType" : 5123,
      "count" : 36,
      "type" : "SCALAR"
    },
    {
      "bufferView" : 9,
      "min" : [ -23.4084, 25.8414, 155.65 ],
      "max" : [ 23.5916, 29.3927, 162.35 ],
      "componentType" : 5126,
      "count" : 20,
      "type" : "VEC3"
    },
    {
      "bufferView" : 10,
      "componentType" : 5126,
      "count" : 20,
      "type" : "VEC3"
    },
    {
      "bufferView" : 11,
      "componentType" : 5126,
      "count" : 20,
      "type" : "VEC4"
    },
    {
      "bufferView" : 12,
      "componentType" : 5126,
      "count" : 20,
      "type" : "VEC2"
    },
    {
      "bufferView" : 13,
      "componentType" : 5126,
      "count" : 20,
      "type" : "VEC2"
    },
    {
      "bufferView" : 14,
      "componentType" : 5126,
      "count" : 20,
      "type" : "VEC2"
    },
    {
      "bufferView" : 15,
      "componentType" : 5126,
      "count" : 20,
      "type" : "VEC2"
    }
  ]
}
