{
  "asset" : {
    "generator" : "UE Viewer (umodel) build 1544 based",
    "version" : "2.0"
  },
  "scene" : 0,
  "scenes" : [
    {
      "nodes" : [ 0 ]
    }
  ],
  "nodes" : [
    {
      "name" : "SM_ENV_LKNVLD_RockMiddle_I_Lod2",
      "mesh" : 0
    }
  ],
  "materials" : [
    {
      "name" : "MI_ENV_LKNVLD_MiddleRock_A_LOD",
      "pbrMetallicRoughness" : {
        "baseColorFactor" : [ 0.3, 0.3, 0.3, 1.0 ],
        "metallicFactor" : 0.1,
        "roughnessFactor" : 0.5
      }
    }
  ],
  "meshes" : [
    {
      "primitives" : [
        {
          "attributes" : {
            "POSITION" : 1,
            "NORMAL" : 2,
            "TANGENT" : 3,
            "COLOR_0" : 4,
            "TEXCOORD_0" : 5,
            "TEXCOORD_1" : 6,
            "TEXCOORD_2" : 7,
            "TEXCOORD_3" : 8
          },
          "indices" : 0,
          "material" : 0
        }
      ],
      "name" : "SM_ENV_LKNVLD_RockMiddle_I_Lod2"
    }
  ],
  "buffers" : [
    {
      "uri" : "SM_ENV_LKNVLD_RockMiddle_I_Lod2.bin",
      "byteLength" : 22600
    }
  ],
  "bufferViews" : [
    {
      "buffer" : 0,
      "byteOffset" : 0,
      "byteLength" : 1776
    },
    {
      "buffer" : 0,
      "byteOffset" : 1776,
      "byteLength" : 3288
    },
    {
      "buffer" : 0,
      "byteOffset" : 5064,
      "byteLength" : 3288
    },
    {
      "buffer" : 0,
      "byteOffset" : 8352,
      "byteLength" : 4384
    },
    {
      "buffer" : 0,
      "byteOffset" : 12736,
      "byteLength" : 1096
    },
    {
      "buffer" : 0,
      "byteOffset" : 13832,
      "byteLength" : 2192
    },
    {
      "buffer" : 0,
      "byteOffset" : 16024,
      "byteLength" : 2192
    },
    {
      "buffer" : 0,
      "byteOffset" : 18216,
      "byteLength" : 2192
    },
    {
      "buffer" : 0,
      "byteOffset" : 20408,
      "byteLength" : 2192
    }
  ],
  "accessors" : [
    {
      "bufferView" : 0,
      "componentType" : 5123,
      "count" : 888,
      "type" : "SCALAR"
    },
    {
      "bufferView" : 1,
      "min" : [ 27.0471, -0.248171, -25.1891 ],
      "max" : [ 34.7719, 0.520518, -20.0693 ],
      "componentType" : 5126,
      "count" : 274,
      "type" : "VEC3"
    },
    {
      "bufferView" : 2,
      "componentType" : 5126,
      "count" : 274,
      "type" : "VEC3"
    },
    {
      "bufferView" : 3,
      "componentType" : 5126,
      "count" : 274,
      "type" : "VEC4"
    },
    {
      "bufferView" : 4,
      "normalized" : true,
      "componentType" : 5121,
      "count" : 274,
      "type" : "VEC4"
    },
    {
      "bufferView" : 5,
      "componentType" : 5126,
      "count" : 274,
      "type" : "VEC2"
    },
    {
      "bufferView" : 6,
      "componentType" : 5126,
      "count" : 274,
      "type" : "VEC2"
    },
    {
      "bufferView" : 7,
      "componentType" : 5126,
      "count" : 274,
      "type" : "VEC2"
    },
    {
      "bufferView" : 8,
      "componentType" : 5126,
      "count" : 274,
      "type" : "VEC2"
    }
  ]
}
