{
  "asset" : {
    "generator" : "UE Viewer (umodel) build 1544 based",
    "version" : "2.0"
  },
  "scene" : 0,
  "scenes" : [
    {
      "nodes" : [ 0 ]
    }
  ],
  "nodes" : [
    {
      "name" : "SM_ENV_LKNVLD_WallSet_PlatformB_Lod1",
      "mesh" : 0
    }
  ],
  "materials" : [
    {
      "name" : "MI_ENV_LKNVLD_WoodWallSet",
      "pbrMetallicRoughness" : {
        "baseColorFactor" : [ 0.3, 0.3, 0.3, 1.0 ],
        "metallicFactor" : 0.1,
        "roughnessFactor" : 0.5
      }
    },
    {
      "name" : "MI_ENV_LKNVLD_WoodPlain_Red",
      "pbrMetallicRoughness" : {
        "baseColorFactor" : [ 0.9, 0.3, 0.3, 1.0 ],
        "metallicFactor" : 0.1,
        "roughnessFactor" : 0.5
      }
    },
    {
      "name" : "MI_T_ENV_LKNVLD_StoneTrim",
      "pbrMetallicRoughness" : {
        "baseColorFactor" : [ 0.3, 0.9, 0.3, 1.0 ],
        "metallicFactor" : 0.1,
        "roughnessFactor" : 0.5
      }
    },
    {
      "name" : "MI_ENV_LKNVLD_WoodWallSet_Red",
      "pbrMetallicRoughness" : {
        "baseColorFactor" : [ 0.3, 0.3, 0.9, 1.0 ],
        "metallicFactor" : 0.1,
        "roughnessFactor" : 0.5
      }
    },
    {
      "name" : "MI_ENV_LKNVLD_Eaves_B",
      "pbrMetallicRoughness" : {
        "baseColorFactor" : [ 0.9, 0.9, 0.9, 1.0 ],
        "metallicFactor" : 0.1,
        "roughnessFactor" : 0.5
      }
    },
    {
      "name" : "MI_ENV_LKNVLD_Signboard_A",
      "pbrMetallicRoughness" : {
        "baseColorFactor" : [ 0.9, 0.9, 0.3, 1.0 ],
        "metallicFactor" : 0.1,
        "roughnessFactor" : 0.5
      }
    },
    {
      "name" : "MI_ENV_LKNVLD_WoodBoard_Natural_Lighter",
      "pbrMetallicRoughness" : {
        "baseColorFactor" : [ 0.9, 0.3, 0.9, 1.0 ],
        "metallicFactor" : 0.1,
        "roughnessFactor" : 0.5
      }
    }
  ],
  "meshes" : [
    {
      "primitives" : [
        {
          "attributes" : {
            "POSITION" : 1,
            "NORMAL" : 2,
            "TANGENT" : 3,
            "TEXCOORD_0" : 4,
            "TEXCOORD_1" : 5,
            "TEXCOORD_2" : 6,
            "TEXCOORD_3" : 7
          },
          "indices" : 0,
          "material" : 0
        },
        {
          "attributes" : {
            "POSITION" : 9,
            "NORMAL" : 10,
            "TANGENT" : 11,
            "TEXCOORD_0" : 12,
            "TEXCOORD_1" : 13,
            "TEXCOORD_2" : 14,
            "TEXCOORD_3" : 15
          },
          "indices" : 8,
          "material" : 1
        },
        {
          "attributes" : {
            "POSITION" : 17,
            "NORMAL" : 18,
            "TANGENT" : 19,
            "TEXCOORD_0" : 20,
            "TEXCOORD_1" : 21,
            "TEXCOORD_2" : 22,
            "TEXCOORD_3" : 23
          },
          "indices" : 16,
          "material" : 2
        },
        {
          "attributes" : {
            "POSITION" : 25,
            "NORMAL" : 26,
            "TANGENT" : 27,
            "TEXCOORD_0" : 28,
            "TEXCOORD_1" : 29,
            "TEXCOORD_2" : 30,
            "TEXCOORD_3" : 31
          },
          "indices" : 24,
          "material" : 3
        },
        {
          "attributes" : {
            "POSITION" : 33,
            "NORMAL" : 34,
            "TANGENT" : 35,
            "TEXCOORD_0" : 36,
            "TEXCOORD_1" : 37,
            "TEXCOORD_2" : 38,
            "TEXCOORD_3" : 39
          },
          "indices" : 32,
          "material" : 4
        },
        {
          "attributes" : {
            "POSITION" : 41,
            "NORMAL" : 42,
            "TANGENT" : 43,
            "TEXCOORD_0" : 44,
            "TEXCOORD_1" : 45,
            "TEXCOORD_2" : 46,
            "TEXCOORD_3" : 47
          },
          "indices" : 40,
          "material" : 5
        },
        {
          "attributes" : {
            "POSITION" : 49,
            "NORMAL" : 50,
            "TANGENT" : 51,
            "TEXCOORD_0" : 52,
            "TEXCOORD_1" : 53,
            "TEXCOORD_2" : 54,
            "TEXCOORD_3" : 55
          },
          "indices" : 48,
          "material" : 6
        }
      ],
      "name" : "SM_ENV_LKNVLD_WallSet_PlatformB_Lod1"
    }
  ],
  "buffers" : [
    {
      "uri" : "SM_ENV_LKNVLD_WallSet_PlatformB_Lod1.bin",
      "byteLength" : 469424
    }
  ],
  "bufferViews" : [
    {
      "buffer" : 0,
      "byteOffset" : 0,
      "byteLength" : 3900
    },
    {
      "buffer" : 0,
      "byteOffset" : 3900,
      "byteLength" : 10920
    },
    {
      "buffer" : 0,
      "byteOffset" : 14820,
      "byteLength" : 10920
    },
    {
      "buffer" : 0,
      "byteOffset" : 25740,
      "byteLength" : 14560
    },
    {
      "buffer" : 0,
      "byteOffset" : 40300,
      "byteLength" : 7280
    },
    {
      "buffer" : 0,
      "byteOffset" : 47580,
      "byteLength" : 7280
    },
    {
      "buffer" : 0,
      "byteOffset" : 54860,
      "byteLength" : 7280
    },
    {
      "buffer" : 0,
      "byteOffset" : 62140,
      "byteLength" : 7280
    },
    {
      "buffer" : 0,
      "byteOffset" : 69420,
      "byteLength" : 12204
    },
    {
      "buffer" : 0,
      "byteOffset" : 81624,
      "byteLength" : 42660
    },
    {
      "buffer" : 0,
      "byteOffset" : 124284,
      "byteLength" : 42660
    },
    {
      "buffer" : 0,
      "byteOffset" : 166944,
      "byteLength" : 56880
    },
    {
      "buffer" : 0,
      "byteOffset" : 223824,
      "byteLength" : 28440
    },
    {
      "buffer" : 0,
      "byteOffset" : 252264,
      "byteLength" : 28440
    },
    {
      "buffer" : 0,
      "byteOffset" : 280704,
      "byteLength" : 28440
    },
    {
      "buffer" : 0,
      "byteOffset" : 309144,
      "byteLength" : 28440
    },
    {
      "buffer" : 0,
      "byteOffset" : 337584,
      "byteLength" : 1596
    },
    {
      "buffer" : 0,
      "byteOffset" : 339180,
      "byteLength" : 3324
    },
    {
      "buffer" : 0,
      "byteOffset" : 342504,
      "byteLength" : 3324
    },
    {
      "buffer" : 0,
      "byteOffset" : 345828,
      "byteLength" : 4432
    },
    {
      "buffer" : 0,
      "byteOffset" : 350260,
      "byteLength" : 2216
    },
    {
      "buffer" : 0,
      "byteOffset" : 352476,
      "byteLength" : 2216
    },
    {
      "buffer" : 0,
      "byteOffset" : 354692,
      "byteLength" : 2216
    },
    {
      "buffer" : 0,
      "byteOffset" : 356908,
      "byteLength" : 2216
    },
    {
      "buffer" : 0,
      "byteOffset" : 359124,
      "byteLength" : 432
    },
    {
      "buffer" : 0,
      "byteOffset" : 359556,
      "byteLength" : 984
    },
    {
      "buffer" : 0,
      "byteOffset" : 360540,
      "byteLength" : 984
    },
    {
      "buffer" : 0,
      "byteOffset" : 361524,
      "byteLength" : 1312
    },
    {
      "buffer" : 0,
      "byteOffset" : 362836,
      "byteLength" : 656
    },
    {
      "buffer" : 0,
      "byteOffset" : 363492,
      "byteLength" : 656
    },
    {
      "buffer" : 0,
      "byteOffset" : 364148,
      "byteLength" : 656
    },
    {
      "buffer" : 0,
      "byteOffset" : 364804,
      "byteLength" : 656
    },
    {
      "buffer" : 0,
      "byteOffset" : 365460,
      "byteLength" : 1128
    },
    {
      "buffer" : 0,
      "byteOffset" : 366588,
      "byteLength" : 3768
    },
    {
      "buffer" : 0,
      "byteOffset" : 370356,
      "byteLength" : 3768
    },
    {
      "buffer" : 0,
      "byteOffset" : 374124,
      "byteLength" : 5024
    },
    {
      "buffer" : 0,
      "byteOffset" : 379148,
      "byteLength" : 2512
    },
    {
      "buffer" : 0,
      "byteOffset" : 381660,
      "byteLength" : 2512
    },
    {
      "buffer" : 0,
      "byteOffset" : 384172,
      "byteLength" : 2512
    },
    {
      "buffer" : 0,
      "byteOffset" : 386684,
      "byteLength" : 2512
    },
    {
      "buffer" : 0,
      "byteOffset" : 389196,
      "byteLength" : 4376
    },
    {
      "buffer" : 0,
      "byteOffset" : 393572,
      "byteLength" : 12516
    },
    {
      "buffer" : 0,
      "byteOffset" : 406088,
      "byteLength" : 12516
    },
    {
      "buffer" : 0,
      "byteOffset" : 418604,
      "byteLength" : 16688
    },
    {
      "buffer" : 0,
      "byteOffset" : 435292,
      "byteLength" : 8344
    },
    {
      "buffer" : 0,
      "byteOffset" : 443636,
      "byteLength" : 8344
    },
    {
      "buffer" : 0,
      "byteOffset" : 451980,
      "byteLength" : 8344
    },
    {
      "buffer" : 0,
      "byteOffset" : 460324,
      "byteLength" : 8344
    },
    {
      "buffer" : 0,
      "byteOffset" : 468668,
      "byteLength" : 36
    },
    {
      "buffer" : 0,
      "byteOffset" : 468704,
      "byteLength" : 120
    },
    {
      "buffer" : 0,
      "byteOffset" : 468824,
      "byteLength" : 120
    },
    {
      "buffer" : 0,
      "byteOffset" : 468944,
      "byteLength" : 160
    },
    {
      "buffer" : 0,
      "byteOffset" : 469104,
      "byteLength" : 80
    },
    {
      "buffer" : 0,
      "byteOffset" : 469184,
      "byteLength" : 80
    },
    {
      "buffer" : 0,
      "byteOffset" : 469264,
      "byteLength" : 80
    },
    {
      "buffer" : 0,
      "byteOffset" : 469344,
      "byteLength" : 80
    }
  ],
  "accessors" : [
    {
      "bufferView" : 0,
      "componentType" : 5123,
      "count" : 1950,
      "type" : "SCALAR"
    },
    {
      "bufferView" : 1,
      "min" : [ -59.7614, 0.298723, -15.2545 ],
      "max" : [ -17.4978, 6.2, 29.4188 ],
      "componentType" : 5126,
      "count" : 910,
      "type" : "VEC3"
    },
    {
      "bufferView" : 2,
      "componentType" : 5126,
      "count" : 910,
      "type" : "VEC3"
    },
    {
      "bufferView" : 3,
      "componentType" : 5126,
      "count" : 910,
      "type" : "VEC4"
    },
    {
      "bufferView" : 4,
      "componentType" : 5126,
      "count" : 910,
      "type" : "VEC2"
    },
    {
      "bufferView" : 5,
      "componentType" : 5126,
      "count" : 910,
      "type" : "VEC2"
    },
    {
      "bufferView" : 6,
      "componentType" : 5126,
      "count" : 910,
      "type" : "VEC2"
    },
    {
      "bufferView" : 7,
      "componentType" : 5126,
      "count" : 910,
      "type" : "VEC2"
    },
    {
      "bufferView" : 8,
      "componentType" : 5123,
      "count" : 6102,
      "type" : "SCALAR"
    },
    {
      "bufferView" : 9,
      "min" : [ -65.0971, 0.699998, -16.0418 ],
      "max" : [ -16.6596, 7.6, 51.6978 ],
      "componentType" : 5126,
      "count" : 3555,
      "type" : "VEC3"
    },
    {
      "bufferView" : 10,
      "componentType" : 5126,
      "count" : 3555,
      "type" : "VEC3"
    },
    {
      "bufferView" : 11,
      "componentType" : 5126,
      "count" : 3555,
      "type" : "VEC4"
    },
    {
      "bufferView" : 12,
      "componentType" : 5126,
      "count" : 3555,
      "type" : "VEC2"
    },
    {
      "bufferView" : 13,
      "componentType" : 5126,
      "count" : 3555,
      "type" : "VEC2"
    },
    {
      "bufferView" : 14,
      "componentType" : 5126,
      "count" : 3555,
      "type" : "VEC2"
    },
    {
      "bufferView" : 15,
      "componentType" : 5126,
      "count" : 3555,
      "type" : "VEC2"
    },
    {
      "bufferView" : 16,
      "componentType" : 5123,
      "count" : 798,
      "type" : "SCALAR"
    },
    {
      "bufferView" : 17,
      "min" : [ -59.8055, -0.00134779, -15.3134 ],
      "max" : [ -17.4253, 0.300421, 29.4914 ],
      "componentType" : 5126,
      "count" : 277,
      "type" : "VEC3"
    },
    {
      "bufferView" : 18,
      "componentType" : 5126,
      "count" : 277,
      "type" : "VEC3"
    },
    {
      "bufferView" : 19,
      "componentType" : 5126,
      "count" : 277,
      "type" : "VEC4"
    },
    {
      "bufferView" : 20,
      "componentType" : 5126,
      "count" : 277,
      "type" : "VEC2"
    },
    {
      "bufferView" : 21,
      "componentType" : 5126,
      "count" : 277,
      "type" : "VEC2"
    },
    {
      "bufferView" : 22,
      "componentType" : 5126,
      "count" : 277,
      "type" : "VEC2"
    },
    {
      "bufferView" : 23,
      "componentType" : 5126,
      "count" : 277,
      "type" : "VEC2"
    },
    {
      "bufferView" : 24,
      "componentType" : 5123,
      "count" : 216,
      "type" : "SCALAR"
    },
    {
      "bufferView" : 25,
      "min" : [ -59.7473, 0.798742, -15.2361 ],
      "max" : [ -17.5158, 1.50038, 29.4009 ],
      "componentType" : 5126,
      "count" : 82,
      "type" : "VEC3"
    },
    {
      "bufferView" : 26,
      "componentType" : 5126,
      "count" : 82,
      "type" : "VEC3"
    },
    {
      "bufferView" : 27,
      "componentType" : 5126,
      "count" : 82,
      "type" : "VEC4"
    },
    {
      "bufferView" : 28,
      "componentType" : 5126,
      "count" : 82,
      "type" : "VEC2"
    },
    {
      "bufferView" : 29,
      "componentType" : 5126,
      "count" : 82,
      "type" : "VEC2"
    },
    {
      "bufferView" : 30,
      "componentType" : 5126,
      "count" : 82,
      "type" : "VEC2"
    },
    {
      "bufferView" : 31,
      "componentType" : 5126,
      "count" : 82,
      "type" : "VEC2"
    },
    {
      "bufferView" : 32,
      "componentType" : 5123,
      "count" : 564,
      "type" : "SCALAR"
    },
    {
      "bufferView" : 33,
      "min" : [ -59.2665, 5.07001, -16.0146 ],
      "max" : [ -16.6596, 5.60191, 28.8933 ],
      "componentType" : 5126,
      "count" : 314,
      "type" : "VEC3"
    },
    {
      "bufferView" : 34,
      "componentType" : 5126,
      "count" : 314,
      "type" : "VEC3"
    },
    {
      "bufferView" : 35,
      "componentType" : 5126,
      "count" : 314,
      "type" : "VEC4"
    },
    {
      "bufferView" : 36,
      "componentType" : 5126,
      "count" : 314,
      "type" : "VEC2"
    },
    {
      "bufferView" : 37,
      "componentType" : 5126,
      "count" : 314,
      "type" : "VEC2"
    },
    {
      "bufferView" : 38,
      "componentType" : 5126,
      "count" : 314,
      "type" : "VEC2"
    },
    {
      "bufferView" : 39,
      "componentType" : 5126,
      "count" : 314,
      "type" : "VEC2"
    },
    {
      "bufferView" : 40,
      "componentType" : 5123,
      "count" : 2187,
      "type" : "SCALAR"
    },
    {
      "bufferView" : 41,
      "min" : [ -59.8071, 4.8, -16.0146 ],
      "max" : [ -16.6596, 8.12, 29.4964 ],
      "componentType" : 5126,
      "count" : 1043,
      "type" : "VEC3"
    },
    {
      "bufferView" : 42,
      "componentType" : 5126,
      "count" : 1043,
      "type" : "VEC3"
    },
    {
      "bufferView" : 43,
      "componentType" : 5126,
      "count" : 1043,
      "type" : "VEC4"
    },
    {
      "bufferView" : 44,
      "componentType" : 5126,
      "count" : 1043,
      "type" : "VEC2"
    },
    {
      "bufferView" : 45,
      "componentType" : 5126,
      "count" : 1043,
      "type" : "VEC2"
    },
    {
      "bufferView" : 46,
      "componentType" : 5126,
      "count" : 1043,
      "type" : "VEC2"
    },
    {
      "bufferView" : 47,
      "componentType" : 5126,
      "count" : 1043,
      "type" : "VEC2"
    },
    {
      "bufferView" : 48,
      "componentType" : 5123,
      "count" : 18,
      "type" : "SCALAR"
    },
    {
      "bufferView" : 49,
      "min" : [ -64.3971, 5.99999, -15.1071 ],
      "max" : [ -18, 6, 50.7107 ],
      "componentType" : 5126,
      "count" : 10,
      "type" : "VEC3"
    },
    {
      "bufferView" : 50,
      "componentType" : 5126,
      "count" : 10,
      "type" : "VEC3"
    },
    {
      "bufferView" : 51,
      "componentType" : 5126,
      "count" : 10,
      "type" : "VEC4"
    },
    {
      "bufferView" : 52,
      "componentType" : 5126,
      "count" : 10,
      "type" : "VEC2"
    },
    {
      "bufferView" : 53,
      "componentType" : 5126,
      "count" : 10,
      "type" : "VEC2"
    },
    {
      "bufferView" : 54,
      "componentType" : 5126,
      "count" : 10,
      "type" : "VEC2"
    },
    {
      "bufferView" : 55,
      "componentType" : 5126,
      "count" : 10,
      "type" : "VEC2"
    }
  ]
}
