{
  "asset" : {
    "generator" : "UE Viewer (umodel) build 1544 based",
    "version" : "2.0"
  },
  "scene" : 0,
  "scenes" : [
    {
      "nodes" : [ 0 ]
    }
  ],
  "nodes" : [
    {
      "name" : "SM_ENV_LKNVLD_WallSet_Bend_Lod2",
      "mesh" : 0
    }
  ],
  "materials" : [
    {
      "name" : "MI_ENV_LKNVLD_WoodPlain_Red_LOD",
      "pbrMetallicRoughness" : {
        "baseColorFactor" : [ 0.3, 0.3, 0.3, 1.0 ],
        "metallicFactor" : 0.1,
        "roughnessFactor" : 0.5
      }
    },
    {
      "name" : "MI_ENV_LKNVLD_WoodWallSet_LOD",
      "pbrMetallicRoughness" : {
        "baseColorFactor" : [ 0.9, 0.3, 0.3, 1.0 ],
        "metallicFactor" : 0.1,
        "roughnessFactor" : 0.5
      }
    },
    {
      "name" : "MI_ENV_LKNVLD_Signboard_A",
      "pbrMetallicRoughness" : {
        "baseColorFactor" : [ 0.3, 0.9, 0.3, 1.0 ],
        "metallicFactor" : 0.1,
        "roughnessFactor" : 0.5
      }
    },
    {
      "name" : "MI_ENV_LKNVLD_Eaves_B_LOD",
      "pbrMetallicRoughness" : {
        "baseColorFactor" : [ 0.3, 0.3, 0.9, 1.0 ],
        "metallicFactor" : 0.1,
        "roughnessFactor" : 0.5
      }
    },
    {
      "name" : "MI_ENV_LKNVLD_StoneTrim_Ground_LOD",
      "pbrMetallicRoughness" : {
        "baseColorFactor" : [ 0.9, 0.9, 0.9, 1.0 ],
        "metallicFactor" : 0.1,
        "roughnessFactor" : 0.5
      }
    },
    {
      "name" : "MI_ENV_LKNVLD_WoodBoard_Natural_Lighter_LOD",
      "pbrMetallicRoughness" : {
        "baseColorFactor" : [ 0.9, 0.9, 0.3, 1.0 ],
        "metallicFactor" : 0.1,
        "roughnessFactor" : 0.5
      }
    },
    {
      "name" : "MI_ENV_LKNVLD_WoodWallSet_Red_LOD",
      "pbrMetallicRoughness" : {
        "baseColorFactor" : [ 0.9, 0.3, 0.9, 1.0 ],
        "metallicFactor" : 0.1,
        "roughnessFactor" : 0.5
      }
    }
  ],
  "meshes" : [
    {
      "primitives" : [
        {
          "attributes" : {
            "POSITION" : 1,
            "NORMAL" : 2,
            "TANGENT" : 3,
            "TEXCOORD_0" : 4,
            "TEXCOORD_1" : 5,
            "TEXCOORD_2" : 6,
            "TEXCOORD_3" : 7
          },
          "indices" : 0,
          "material" : 0
        },
        {
          "attributes" : {
            "POSITION" : 9,
            "NORMAL" : 10,
            "TANGENT" : 11,
            "TEXCOORD_0" : 12,
            "TEXCOORD_1" : 13,
            "TEXCOORD_2" : 14,
            "TEXCOORD_3" : 15
          },
          "indices" : 8,
          "material" : 1
        },
        {
          "attributes" : {
            "POSITION" : 17,
            "NORMAL" : 18,
            "TANGENT" : 19,
            "TEXCOORD_0" : 20,
            "TEXCOORD_1" : 21,
            "TEXCOORD_2" : 22,
            "TEXCOORD_3" : 23
          },
          "indices" : 16,
          "material" : 2
        },
        {
          "attributes" : {
            "POSITION" : 25,
            "NORMAL" : 26,
            "TANGENT" : 27,
            "TEXCOORD_0" : 28,
            "TEXCOORD_1" : 29,
            "TEXCOORD_2" : 30,
            "TEXCOORD_3" : 31
          },
          "indices" : 24,
          "material" : 3
        },
        {
          "attributes" : {
            "POSITION" : 33,
            "NORMAL" : 34,
            "TANGENT" : 35,
            "TEXCOORD_0" : 36,
            "TEXCOORD_1" : 37,
            "TEXCOORD_2" : 38,
            "TEXCOORD_3" : 39
          },
          "indices" : 32,
          "material" : 4
        },
        {
          "attributes" : {
            "POSITION" : 41,
            "NORMAL" : 42,
            "TANGENT" : 43,
            "TEXCOORD_0" : 44,
            "TEXCOORD_1" : 45,
            "TEXCOORD_2" : 46,
            "TEXCOORD_3" : 47
          },
          "indices" : 40,
          "material" : 5
        },
        {
          "attributes" : {
            "POSITION" : 49,
            "NORMAL" : 50,
            "TANGENT" : 51,
            "TEXCOORD_0" : 52,
            "TEXCOORD_1" : 53,
            "TEXCOORD_2" : 54,
            "TEXCOORD_3" : 55
          },
          "indices" : 48,
          "material" : 6
        }
      ],
      "name" : "SM_ENV_LKNVLD_WallSet_Bend_Lod2"
    }
  ],
  "buffers" : [
    {
      "uri" : "SM_ENV_LKNVLD_WallSet_Bend_Lod2.bin",
      "byteLength" : 710044
    }
  ],
  "bufferViews" : [
    {
      "buffer" : 0,
      "byteOffset" : 0,
      "byteLength" : 18788
    },
    {
      "buffer" : 0,
      "byteOffset" : 18788,
      "byteLength" : 67644
    },
    {
      "buffer" : 0,
      "byteOffset" : 86432,
      "byteLength" : 67644
    },
    {
      "buffer" : 0,
      "byteOffset" : 154076,
      "byteLength" : 90192
    },
    {
      "buffer" : 0,
      "byteOffset" : 244268,
      "byteLength" : 45096
    },
    {
      "buffer" : 0,
      "byteOffset" : 289364,
      "byteLength" : 45096
    },
    {
      "buffer" : 0,
      "byteOffset" : 334460,
      "byteLength" : 45096
    },
    {
      "buffer" : 0,
      "byteOffset" : 379556,
      "byteLength" : 45096
    },
    {
      "buffer" : 0,
      "byteOffset" : 424652,
      "byteLength" : 5736
    },
    {
      "buffer" : 0,
      "byteOffset" : 430388,
      "byteLength" : 17784
    },
    {
      "buffer" : 0,
      "byteOffset" : 448172,
      "byteLength" : 17784
    },
    {
      "buffer" : 0,
      "byteOffset" : 465956,
      "byteLength" : 23712
    },
    {
      "buffer" : 0,
      "byteOffset" : 489668,
      "byteLength" : 11856
    },
    {
      "buffer" : 0,
      "byteOffset" : 501524,
      "byteLength" : 11856
    },
    {
      "buffer" : 0,
      "byteOffset" : 513380,
      "byteLength" : 11856
    },
    {
      "buffer" : 0,
      "byteOffset" : 525236,
      "byteLength" : 11856
    },
    {
      "buffer" : 0,
      "byteOffset" : 537092,
      "byteLength" : 4532
    },
    {
      "buffer" : 0,
      "byteOffset" : 541624,
      "byteLength" : 14088
    },
    {
      "buffer" : 0,
      "byteOffset" : 555712,
      "byteLength" : 14088
    },
    {
      "buffer" : 0,
      "byteOffset" : 569800,
      "byteLength" : 18784
    },
    {
      "buffer" : 0,
      "byteOffset" : 588584,
      "byteLength" : 9392
    },
    {
      "buffer" : 0,
      "byteOffset" : 597976,
      "byteLength" : 9392
    },
    {
      "buffer" : 0,
      "byteOffset" : 607368,
      "byteLength" : 9392
    },
    {
      "buffer" : 0,
      "byteOffset" : 616760,
      "byteLength" : 9392
    },
    {
      "buffer" : 0,
      "byteOffset" : 626152,
      "byteLength" : 1764
    },
    {
      "buffer" : 0,
      "byteOffset" : 627916,
      "byteLength" : 5736
    },
    {
      "buffer" : 0,
      "byteOffset" : 633652,
      "byteLength" : 5736
    },
    {
      "buffer" : 0,
      "byteOffset" : 639388,
      "byteLength" : 7648
    },
    {
      "buffer" : 0,
      "byteOffset" : 647036,
      "byteLength" : 3824
    },
    {
      "buffer" : 0,
      "byteOffset" : 650860,
      "byteLength" : 3824
    },
    {
      "buffer" : 0,
      "byteOffset" : 654684,
      "byteLength" : 3824
    },
    {
      "buffer" : 0,
      "byteOffset" : 658508,
      "byteLength" : 3824
    },
    {
      "buffer" : 0,
      "byteOffset" : 662332,
      "byteLength" : 2292
    },
    {
      "buffer" : 0,
      "byteOffset" : 664624,
      "byteLength" : 5100
    },
    {
      "buffer" : 0,
      "byteOffset" : 669724,
      "byteLength" : 5100
    },
    {
      "buffer" : 0,
      "byteOffset" : 674824,
      "byteLength" : 6800
    },
    {
      "buffer" : 0,
      "byteOffset" : 681624,
      "byteLength" : 3400
    },
    {
      "buffer" : 0,
      "byteOffset" : 685024,
      "byteLength" : 3400
    },
    {
      "buffer" : 0,
      "byteOffset" : 688424,
      "byteLength" : 3400
    },
    {
      "buffer" : 0,
      "byteOffset" : 691824,
      "byteLength" : 3400
    },
    {
      "buffer" : 0,
      "byteOffset" : 695224,
      "byteLength" : 60
    },
    {
      "buffer" : 0,
      "byteOffset" : 695284,
      "byteLength" : 216
    },
    {
      "buffer" : 0,
      "byteOffset" : 695500,
      "byteLength" : 216
    },
    {
      "buffer" : 0,
      "byteOffset" : 695716,
      "byteLength" : 288
    },
    {
      "buffer" : 0,
      "byteOffset" : 696004,
      "byteLength" : 144
    },
    {
      "buffer" : 0,
      "byteOffset" : 696148,
      "byteLength" : 144
    },
    {
      "buffer" : 0,
      "byteOffset" : 696292,
      "byteLength" : 144
    },
    {
      "buffer" : 0,
      "byteOffset" : 696436,
      "byteLength" : 144
    },
    {
      "buffer" : 0,
      "byteOffset" : 696580,
      "byteLength" : 936
    },
    {
      "buffer" : 0,
      "byteOffset" : 697516,
      "byteLength" : 2088
    },
    {
      "buffer" : 0,
      "byteOffset" : 699604,
      "byteLength" : 2088
    },
    {
      "buffer" : 0,
      "byteOffset" : 701692,
      "byteLength" : 2784
    },
    {
      "buffer" : 0,
      "byteOffset" : 704476,
      "byteLength" : 1392
    },
    {
      "buffer" : 0,
      "byteOffset" : 705868,
      "byteLength" : 1392
    },
    {
      "buffer" : 0,
      "byteOffset" : 707260,
      "byteLength" : 1392
    },
    {
      "buffer" : 0,
      "byteOffset" : 708652,
      "byteLength" : 1392
    }
  ],
  "accessors" : [
    {
      "bufferView" : 0,
      "componentType" : 5123,
      "count" : 9393,
      "type" : "SCALAR"
    },
    {
      "bufferView" : 1,
      "min" : [ 33.4868, 0.7, -50.6174 ],
      "max" : [ 67.4188, 7.6, -13.0337 ],
      "componentType" : 5126,
      "count" : 5637,
      "type" : "VEC3"
    },
    {
      "bufferView" : 2,
      "componentType" : 5126,
      "count" : 5637,
      "type" : "VEC3"
    },
    {
      "bufferView" : 3,
      "componentType" : 5126,
      "count" : 5637,
      "type" : "VEC4"
    },
    {
      "bufferView" : 4,
      "componentType" : 5126,
      "count" : 5637,
      "type" : "VEC2"
    },
    {
      "bufferView" : 5,
      "componentType" : 5126,
      "count" : 5637,
      "type" : "VEC2"
    },
    {
      "bufferView" : 6,
      "componentType" : 5126,
      "count" : 5637,
      "type" : "VEC2"
    },
    {
      "bufferView" : 7,
      "componentType" : 5126,
      "count" : 5637,
      "type" : "VEC2"
    },
    {
      "bufferView" : 8,
      "componentType" : 5123,
      "count" : 2868,
      "type" : "SCALAR"
    },
    {
      "bufferView" : 9,
      "min" : [ 34.1112, 0.282653, -50.5525 ],
      "max" : [ 66.5737, 6.2, -13.2257 ],
      "componentType" : 5126,
      "count" : 1482,
      "type" : "VEC3"
    },
    {
      "bufferView" : 10,
      "componentType" : 5126,
      "count" : 1482,
      "type" : "VEC3"
    },
    {
      "bufferView" : 11,
      "componentType" : 5126,
      "count" : 1482,
      "type" : "VEC4"
    },
    {
      "bufferView" : 12,
      "componentType" : 5126,
      "count" : 1482,
      "type" : "VEC2"
    },
    {
      "bufferView" : 13,
      "componentType" : 5126,
      "count" : 1482,
      "type" : "VEC2"
    },
    {
      "bufferView" : 14,
      "componentType" : 5126,
      "count" : 1482,
      "type" : "VEC2"
    },
    {
      "bufferView" : 15,
      "componentType" : 5126,
      "count" : 1482,
      "type" : "VEC2"
    },
    {
      "bufferView" : 16,
      "componentType" : 5123,
      "count" : 2265,
      "type" : "SCALAR"
    },
    {
      "bufferView" : 17,
      "min" : [ 35.6685, 4.8, -50.6174 ],
      "max" : [ 67.4188, 8.12, -15.6186 ],
      "componentType" : 5126,
      "count" : 1174,
      "type" : "VEC3"
    },
    {
      "bufferView" : 18,
      "componentType" : 5126,
      "count" : 1174,
      "type" : "VEC3"
    },
    {
      "bufferView" : 19,
      "componentType" : 5126,
      "count" : 1174,
      "type" : "VEC4"
    },
    {
      "bufferView" : 20,
      "componentType" : 5126,
      "count" : 1174,
      "type" : "VEC2"
    },
    {
      "bufferView" : 21,
      "componentType" : 5126,
      "count" : 1174,
      "type" : "VEC2"
    },
    {
      "bufferView" : 22,
      "componentType" : 5126,
      "count" : 1174,
      "type" : "VEC2"
    },
    {
      "bufferView" : 23,
      "componentType" : 5126,
      "count" : 1174,
      "type" : "VEC2"
    },
    {
      "bufferView" : 24,
      "componentType" : 5123,
      "count" : 882,
      "type" : "SCALAR"
    },
    {
      "bufferView" : 25,
      "min" : [ 35.6685, 5.07002, -50.1639 ],
      "max" : [ 67.4188, 5.6, -15.6186 ],
      "componentType" : 5126,
      "count" : 478,
      "type" : "VEC3"
    },
    {
      "bufferView" : 26,
      "componentType" : 5126,
      "count" : 478,
      "type" : "VEC3"
    },
    {
      "bufferView" : 27,
      "componentType" : 5126,
      "count" : 478,
      "type" : "VEC4"
    },
    {
      "bufferView" : 28,
      "componentType" : 5126,
      "count" : 478,
      "type" : "VEC2"
    },
    {
      "bufferView" : 29,
      "componentType" : 5126,
      "count" : 478,
      "type" : "VEC2"
    },
    {
      "bufferView" : 30,
      "componentType" : 5126,
      "count" : 478,
      "type" : "VEC2"
    },
    {
      "bufferView" : 31,
      "componentType" : 5126,
      "count" : 478,
      "type" : "VEC2"
    },
    {
      "bufferView" : 32,
      "componentType" : 5123,
      "count" : 1146,
      "type" : "SCALAR"
    },
    {
      "bufferView" : 33,
      "min" : [ 34.0477, -0.252936, -50.6122 ],
      "max" : [ 66.6327, 0.300003, -13.2933 ],
      "componentType" : 5126,
      "count" : 425,
      "type" : "VEC3"
    },
    {
      "bufferView" : 34,
      "componentType" : 5126,
      "count" : 425,
      "type" : "VEC3"
    },
    {
      "bufferView" : 35,
      "componentType" : 5126,
      "count" : 425,
      "type" : "VEC4"
    },
    {
      "bufferView" : 36,
      "componentType" : 5126,
      "count" : 425,
      "type" : "VEC2"
    },
    {
      "bufferView" : 37,
      "componentType" : 5126,
      "count" : 425,
      "type" : "VEC2"
    },
    {
      "bufferView" : 38,
      "componentType" : 5126,
      "count" : 425,
      "type" : "VEC2"
    },
    {
      "bufferView" : 39,
      "componentType" : 5126,
      "count" : 425,
      "type" : "VEC2"
    },
    {
      "bufferView" : 40,
      "componentType" : 5123,
      "count" : 30,
      "type" : "SCALAR"
    },
    {
      "bufferView" : 41,
      "min" : [ 33.9818, 4.06725, -50.4029 ],
      "max" : [ 66.0863, 6.00125, -13.0387 ],
      "componentType" : 5126,
      "count" : 18,
      "type" : "VEC3"
    },
    {
      "bufferView" : 42,
      "componentType" : 5126,
      "count" : 18,
      "type" : "VEC3"
    },
    {
      "bufferView" : 43,
      "componentType" : 5126,
      "count" : 18,
      "type" : "VEC4"
    },
    {
      "bufferView" : 44,
      "componentType" : 5126,
      "count" : 18,
      "type" : "VEC2"
    },
    {
      "bufferView" : 45,
      "componentType" : 5126,
      "count" : 18,
      "type" : "VEC2"
    },
    {
      "bufferView" : 46,
      "componentType" : 5126,
      "count" : 18,
      "type" : "VEC2"
    },
    {
      "bufferView" : 47,
      "componentType" : 5126,
      "count" : 18,
      "type" : "VEC2"
    },
    {
      "bufferView" : 48,
      "componentType" : 5123,
      "count" : 468,
      "type" : "SCALAR"
    },
    {
      "bufferView" : 49,
      "min" : [ 47.9346, 0.800001, -50.532 ],
      "max" : [ 66.5552, 1.5, -23.8677 ],
      "componentType" : 5126,
      "count" : 174,
      "type" : "VEC3"
    },
    {
      "bufferView" : 50,
      "componentType" : 5126,
      "count" : 174,
      "type" : "VEC3"
    },
    {
      "bufferView" : 51,
      "componentType" : 5126,
      "count" : 174,
      "type" : "VEC4"
    },
    {
      "bufferView" : 52,
      "componentType" : 5126,
      "count" : 174,
      "type" : "VEC2"
    },
    {
      "bufferView" : 53,
      "componentType" : 5126,
      "count" : 174,
      "type" : "VEC2"
    },
    {
      "bufferView" : 54,
      "componentType" : 5126,
      "count" : 174,
      "type" : "VEC2"
    },
    {
      "bufferView" : 55,
      "componentType" : 5126,
      "count" : 174,
      "type" : "VEC2"
    }
  ]
}
