{
  "asset" : {
    "generator" : "UE Viewer (umodel) build 1544 based",
    "version" : "2.0"
  },
  "scene" : 0,
  "scenes" : [
    {
      "nodes" : [ 0 ]
    }
  ],
  "nodes" : [
    {
      "name" : "SM_ENV_LKNVLD_TreeSet_I",
      "mesh" : 0
    }
  ],
  "materials" : [
    {
      "name" : "MI_ENV_LKNVLD_Tree_A_Masked_CameraTrans",
      "pbrMetallicRoughness" : {
        "baseColorFactor" : [ 0.3, 0.3, 0.3, 1.0 ],
        "metallicFactor" : 0.1,
        "roughnessFactor" : 0.5
      }
    },
    {
      "name" : "MI_ENV_LKNVLD_LeafMasked_A",
      "pbrMetallicRoughness" : {
        "baseColorFactor" : [ 0.9, 0.3, 0.3, 1.0 ],
        "metallicFactor" : 0.1,
        "roughnessFactor" : 0.5
      }
    },
    {
      "name" : "MI_ENV_LKNVLD_Leaf_A",
      "pbrMetallicRoughness" : {
        "baseColorFactor" : [ 0.3, 0.9, 0.3, 1.0 ],
        "metallicFactor" : 0.1,
        "roughnessFactor" : 0.5
      }
    }
  ],
  "meshes" : [
    {
      "primitives" : [
        {
          "attributes" : {
            "POSITION" : 1,
            "NORMAL" : 2,
            "TANGENT" : 3,
            "COLOR_0" : 4,
            "TEXCOORD_0" : 5,
            "TEXCOORD_1" : 6,
            "TEXCOORD_2" : 7,
            "TEXCOORD_3" : 8
          },
          "indices" : 0,
          "material" : 0
        },
        {
          "attributes" : {
            "POSITION" : 10,
            "NORMAL" : 11,
            "TANGENT" : 12,
            "COLOR_0" : 13,
            "TEXCOORD_0" : 14,
            "TEXCOORD_1" : 15,
            "TEXCOORD_2" : 16,
            "TEXCOORD_3" : 17
          },
          "indices" : 9,
          "material" : 1
        },
        {
          "attributes" : {
            "POSITION" : 19,
            "NORMAL" : 20,
            "TANGENT" : 21,
            "COLOR_0" : 22,
            "TEXCOORD_0" : 23,
            "TEXCOORD_1" : 24,
            "TEXCOORD_2" : 25,
            "TEXCOORD_3" : 26
          },
          "indices" : 18,
          "material" : 2
        }
      ],
      "name" : "SM_ENV_LKNVLD_TreeSet_I"
    }
  ],
  "buffers" : [
    {
      "uri" : "SM_ENV_LKNVLD_TreeSet_I.bin",
      "byteLength" : 2418040
    }
  ],
  "bufferViews" : [
    {
      "buffer" : 0,
      "byteOffset" : 0,
      "byteLength" : 28304
    },
    {
      "buffer" : 0,
      "byteOffset" : 28304,
      "byteLength" : 39324
    },
    {
      "buffer" : 0,
      "byteOffset" : 67628,
      "byteLength" : 39324
    },
    {
      "buffer" : 0,
      "byteOffset" : 106952,
      "byteLength" : 52432
    },
    {
      "buffer" : 0,
      "byteOffset" : 159384,
      "byteLength" : 13108
    },
    {
      "buffer" : 0,
      "byteOffset" : 172492,
      "byteLength" : 26216
    },
    {
      "buffer" : 0,
      "byteOffset" : 198708,
      "byteLength" : 26216
    },
    {
      "buffer" : 0,
      "byteOffset" : 224924,
      "byteLength" : 26216
    },
    {
      "buffer" : 0,
      "byteOffset" : 251140,
      "byteLength" : 26216
    },
    {
      "buffer" : 0,
      "byteOffset" : 277356,
      "byteLength" : 91652
    },
    {
      "buffer" : 0,
      "byteOffset" : 369008,
      "byteLength" : 244452
    },
    {
      "buffer" : 0,
      "byteOffset" : 613460,
      "byteLength" : 244452
    },
    {
      "buffer" : 0,
      "byteOffset" : 857912,
      "byteLength" : 325936
    },
    {
      "buffer" : 0,
      "byteOffset" : 1183848,
      "byteLength" : 81484
    },
    {
      "buffer" : 0,
      "byteOffset" : 1265332,
      "byteLength" : 162968
    },
    {
      "buffer" : 0,
      "byteOffset" : 1428300,
      "byteLength" : 162968
    },
    {
      "buffer" : 0,
      "byteOffset" : 1591268,
      "byteLength" : 162968
    },
    {
      "buffer" : 0,
      "byteOffset" : 1754236,
      "byteLength" : 162968
    },
    {
      "buffer" : 0,
      "byteOffset" : 1917204,
      "byteLength" : 42176
    },
    {
      "buffer" : 0,
      "byteOffset" : 1959380,
      "byteLength" : 72420
    },
    {
      "buffer" : 0,
      "byteOffset" : 2031800,
      "byteLength" : 72420
    },
    {
      "buffer" : 0,
      "byteOffset" : 2104220,
      "byteLength" : 96560
    },
    {
      "buffer" : 0,
      "byteOffset" : 2200780,
      "byteLength" : 24140
    },
    {
      "buffer" : 0,
      "byteOffset" : 2224920,
      "byteLength" : 48280
    },
    {
      "buffer" : 0,
      "byteOffset" : 2273200,
      "byteLength" : 48280
    },
    {
      "buffer" : 0,
      "byteOffset" : 2321480,
      "byteLength" : 48280
    },
    {
      "buffer" : 0,
      "byteOffset" : 2369760,
      "byteLength" : 48280
    }
  ],
  "accessors" : [
    {
      "bufferView" : 0,
      "componentType" : 5123,
      "count" : 14151,
      "type" : "SCALAR"
    },
    {
      "bufferView" : 1,
      "min" : [ -41.0599, -0.590608, -66.306 ],
      "max" : [ -25.3855, 10.5404, -42.8385 ],
      "componentType" : 5126,
      "count" : 3277,
      "type" : "VEC3"
    },
    {
      "bufferView" : 2,
      "componentType" : 5126,
      "count" : 3277,
      "type" : "VEC3"
    },
    {
      "bufferView" : 3,
      "componentType" : 5126,
      "count" : 3277,
      "type" : "VEC4"
    },
    {
      "bufferView" : 4,
      "normalized" : true,
      "componentType" : 5121,
      "count" : 3277,
      "type" : "VEC4"
    },
    {
      "bufferView" : 5,
      "componentType" : 5126,
      "count" : 3277,
      "type" : "VEC2"
    },
    {
      "bufferView" : 6,
      "componentType" : 5126,
      "count" : 3277,
      "type" : "VEC2"
    },
    {
      "bufferView" : 7,
      "componentType" : 5126,
      "count" : 3277,
      "type" : "VEC2"
    },
    {
      "bufferView" : 8,
      "componentType" : 5126,
      "count" : 3277,
      "type" : "VEC2"
    },
    {
      "bufferView" : 9,
      "componentType" : 5123,
      "count" : 45825,
      "type" : "SCALAR"
    },
    {
      "bufferView" : 10,
      "min" : [ -41.6236, 3.56404, -67.7552 ],
      "max" : [ -24.8921, 13.2851, -41.7956 ],
      "componentType" : 5126,
      "count" : 20371,
      "type" : "VEC3"
    },
    {
      "bufferView" : 11,
      "componentType" : 5126,
      "count" : 20371,
      "type" : "VEC3"
    },
    {
      "bufferView" : 12,
      "componentType" : 5126,
      "count" : 20371,
      "type" : "VEC4"
    },
    {
      "bufferView" : 13,
      "normalized" : true,
      "componentType" : 5121,
      "count" : 20371,
      "type" : "VEC4"
    },
    {
      "bufferView" : 14,
      "componentType" : 5126,
      "count" : 20371,
      "type" : "VEC2"
    },
    {
      "bufferView" : 15,
      "componentType" : 5126,
      "count" : 20371,
      "type" : "VEC2"
    },
    {
      "bufferView" : 16,
      "componentType" : 5126,
      "count" : 20371,
      "type" : "VEC2"
    },
    {
      "bufferView" : 17,
      "componentType" : 5126,
      "count" : 20371,
      "type" : "VEC2"
    },
    {
      "bufferView" : 18,
      "componentType" : 5123,
      "count" : 21087,
      "type" : "SCALAR"
    },
    {
      "bufferView" : 19,
      "min" : [ -41.4509, 3.71125, -67.5697 ],
      "max" : [ -25.0745, 13.136, -41.9738 ],
      "componentType" : 5126,
      "count" : 6035,
      "type" : "VEC3"
    },
    {
      "bufferView" : 20,
      "componentType" : 5126,
      "count" : 6035,
      "type" : "VEC3"
    },
    {
      "bufferView" : 21,
      "componentType" : 5126,
      "count" : 6035,
      "type" : "VEC4"
    },
    {
      "bufferView" : 22,
      "normalized" : true,
      "componentType" : 5121,
      "count" : 6035,
      "type" : "VEC4"
    },
    {
      "bufferView" : 23,
      "componentType" : 5126,
      "count" : 6035,
      "type" : "VEC2"
    },
    {
      "bufferView" : 24,
      "componentType" : 5126,
      "count" : 6035,
      "type" : "VEC2"
    },
    {
      "bufferView" : 25,
      "componentType" : 5126,
      "count" : 6035,
      "type" : "VEC2"
    },
    {
      "bufferView" : 26,
      "componentType" : 5126,
      "count" : 6035,
      "type" : "VEC2"
    }
  ]
}
