{
  "asset" : {
    "generator" : "UE Viewer (umodel) build 1544 based",
    "version" : "2.0"
  },
  "scene" : 0,
  "scenes" : [
    {
      "nodes" : [ 0 ]
    }
  ],
  "nodes" : [
    {
      "name" : "SM_ENV_LKNVLD_Event_HL_Balloon_A",
      "mesh" : 0
    }
  ],
  "materials" : [
    {
      "name" : "MI_ENV_LKNVLD_Event_HL_Balloon_A",
      "pbrMetallicRoughness" : {
        "baseColorFactor" : [ 0.3, 0.3, 0.3, 1.0 ],
        "metallicFactor" : 0.1,
        "roughnessFactor" : 0.5
      }
    }
  ],
  "meshes" : [
    {
      "primitives" : [
        {
          "attributes" : {
            "POSITION" : 1,
            "NORMAL" : 2,
            "TANGENT" : 3,
            "TEXCOORD_0" : 4,
            "TEXCOORD_1" : 5
          },
          "indices" : 0,
          "material" : 0
        }
      ],
      "name" : "SM_ENV_LKNVLD_Event_HL_Balloon_A"
    }
  ],
  "buffers" : [
    {
      "uri" : "SM_ENV_LKNVLD_Event_HL_Balloon_A.bin",
      "byteLength" : 284080
    }
  ],
  "bufferViews" : [
    {
      "buffer" : 0,
      "byteOffset" : 0,
      "byteLength" : 30960
    },
    {
      "buffer" : 0,
      "byteOffset" : 30960,
      "byteLength" : 54240
    },
    {
      "buffer" : 0,
      "byteOffset" : 85200,
      "byteLength" : 54240
    },
    {
      "buffer" : 0,
      "byteOffset" : 139440,
      "byteLength" : 72320
    },
    {
      "buffer" : 0,
      "byteOffset" : 211760,
      "byteLength" : 36160
    },
    {
      "buffer" : 0,
      "byteOffset" : 247920,
      "byteLength" : 36160
    }
  ],
  "accessors" : [
    {
      "bufferView" : 0,
      "componentType" : 5123,
      "count" : 15480,
      "type" : "SCALAR"
    },
    {
      "bufferView" : 1,
      "min" : [ -31.8394, -3.38578, -74.5945 ],
      "max" : [ 36.6456, 21.5979, 66.7715 ],
      "componentType" : 5126,
      "count" : 4520,
      "type" : "VEC3"
    },
    {
      "bufferView" : 2,
      "componentType" : 5126,
      "count" : 4520,
      "type" : "VEC3"
    },
    {
      "bufferView" : 3,
      "componentType" : 5126,
      "count" : 4520,
      "type" : "VEC4"
    },
    {
      "bufferView" : 4,
      "componentType" : 5126,
      "count" : 4520,
      "type" : "VEC2"
    },
    {
      "bufferView" : 5,
      "componentType" : 5126,
      "count" : 4520,
      "type" : "VEC2"
    }
  ]
}
