{
  "asset" : {
    "generator" : "UE Viewer (umodel) build 1544 based",
    "version" : "2.0"
  },
  "scene" : 0,
  "scenes" : [
    {
      "nodes" : [ 0 ]
    }
  ],
  "nodes" : [
    {
      "name" : "SM_ENV_LKNVLD_RockMiddle_H_Lod3",
      "mesh" : 0
    }
  ],
  "materials" : [
    {
      "name" : "MI_ENV_LKNVLD_MiddleRock_A_LOD",
      "pbrMetallicRoughness" : {
        "baseColorFactor" : [ 0.3, 0.3, 0.3, 1.0 ],
        "metallicFactor" : 0.1,
        "roughnessFactor" : 0.5
      }
    }
  ],
  "meshes" : [
    {
      "primitives" : [
        {
          "attributes" : {
            "POSITION" : 1,
            "NORMAL" : 2,
            "TANGENT" : 3,
            "COLOR_0" : 4,
            "TEXCOORD_0" : 5,
            "TEXCOORD_1" : 6,
            "TEXCOORD_2" : 7,
            "TEXCOORD_3" : 8
          },
          "indices" : 0,
          "material" : 0
        }
      ],
      "name" : "SM_ENV_LKNVLD_RockMiddle_H_Lod3"
    }
  ],
  "buffers" : [
    {
      "uri" : "SM_ENV_LKNVLD_RockMiddle_H_Lod3.bin",
      "byteLength" : 12456
    }
  ],
  "bufferViews" : [
    {
      "buffer" : 0,
      "byteOffset" : 0,
      "byteLength" : 980
    },
    {
      "buffer" : 0,
      "byteOffset" : 980,
      "byteLength" : 1812
    },
    {
      "buffer" : 0,
      "byteOffset" : 2792,
      "byteLength" : 1812
    },
    {
      "buffer" : 0,
      "byteOffset" : 4604,
      "byteLength" : 2416
    },
    {
      "buffer" : 0,
      "byteOffset" : 7020,
      "byteLength" : 604
    },
    {
      "buffer" : 0,
      "byteOffset" : 7624,
      "byteLength" : 1208
    },
    {
      "buffer" : 0,
      "byteOffset" : 8832,
      "byteLength" : 1208
    },
    {
      "buffer" : 0,
      "byteOffset" : 10040,
      "byteLength" : 1208
    },
    {
      "buffer" : 0,
      "byteOffset" : 11248,
      "byteLength" : 1208
    }
  ],
  "accessors" : [
    {
      "bufferView" : 0,
      "componentType" : 5123,
      "count" : 489,
      "type" : "SCALAR"
    },
    {
      "bufferView" : 1,
      "min" : [ 35.6411, -0.30298, -29.8526 ],
      "max" : [ 41.1681, 1.65267, -25.0132 ],
      "componentType" : 5126,
      "count" : 151,
      "type" : "VEC3"
    },
    {
      "bufferView" : 2,
      "componentType" : 5126,
      "count" : 151,
      "type" : "VEC3"
    },
    {
      "bufferView" : 3,
      "componentType" : 5126,
      "count" : 151,
      "type" : "VEC4"
    },
    {
      "bufferView" : 4,
      "normalized" : true,
      "componentType" : 5121,
      "count" : 151,
      "type" : "VEC4"
    },
    {
      "bufferView" : 5,
      "componentType" : 5126,
      "count" : 151,
      "type" : "VEC2"
    },
    {
      "bufferView" : 6,
      "componentType" : 5126,
      "count" : 151,
      "type" : "VEC2"
    },
    {
      "bufferView" : 7,
      "componentType" : 5126,
      "count" : 151,
      "type" : "VEC2"
    },
    {
      "bufferView" : 8,
      "componentType" : 5126,
      "count" : 151,
      "type" : "VEC2"
    }
  ]
}
