{
  "asset" : {
    "generator" : "UE Viewer (umodel) build 1544 based",
    "version" : "2.0"
  },
  "scene" : 0,
  "scenes" : [
    {
      "nodes" : [ 0 ]
    }
  ],
  "nodes" : [
    {
      "name" : "SM_ENV_LKNVLD_Hokage_Gate_Wall_Lod3",
      "mesh" : 0
    }
  ],
  "materials" : [
    {
      "name" : "MI_ENV_LKNVLD_WoodBoard_Natural_Yellowed_LOD",
      "pbrMetallicRoughness" : {
        "baseColorFactor" : [ 0.3, 0.3, 0.3, 1.0 ],
        "metallicFactor" : 0.1,
        "roughnessFactor" : 0.5
      }
    },
    {
      "name" : "MI_ENV_LKNVLD_WoodPlain_Brown_LOD",
      "pbrMetallicRoughness" : {
        "baseColorFactor" : [ 0.9, 0.3, 0.3, 1.0 ],
        "metallicFactor" : 0.1,
        "roughnessFactor" : 0.5
      }
    },
    {
      "name" : "MI_ENV_LKNVLD_Plaster_Pink_LOD",
      "pbrMetallicRoughness" : {
        "baseColorFactor" : [ 0.3, 0.9, 0.3, 1.0 ],
        "metallicFactor" : 0.1,
        "roughnessFactor" : 0.5
      }
    },
    {
      "name" : "MI_ENV_LKNVLD_Plaster_Beige_LOD",
      "pbrMetallicRoughness" : {
        "baseColorFactor" : [ 0.3, 0.3, 0.9, 1.0 ],
        "metallicFactor" : 0.1,
        "roughnessFactor" : 0.5
      }
    },
    {
      "name" : "MI_T_ENV_LKNVLD_StoneTrim_LOD",
      "pbrMetallicRoughness" : {
        "baseColorFactor" : [ 0.9, 0.9, 0.9, 1.0 ],
        "metallicFactor" : 0.1,
        "roughnessFactor" : 0.5
      }
    },
    {
      "name" : "MI_ENV_LKNVLD_RoofTiles_Yellow_LOD",
      "pbrMetallicRoughness" : {
        "baseColorFactor" : [ 0.9, 0.9, 0.3, 1.0 ],
        "metallicFactor" : 0.1,
        "roughnessFactor" : 0.5
      }
    },
    {
      "name" : "MI_ENV_LKNVLD_RoofTiles_Grey_LOD",
      "pbrMetallicRoughness" : {
        "baseColorFactor" : [ 0.9, 0.3, 0.9, 1.0 ],
        "metallicFactor" : 0.1,
        "roughnessFactor" : 0.5
      }
    },
    {
      "name" : "MI_ENV_LKNVLD_Pipe_G_LOD",
      "pbrMetallicRoughness" : {
        "baseColorFactor" : [ 0.3, 0.9, 0.9, 1.0 ],
        "metallicFactor" : 0.1,
        "roughnessFactor" : 0.5
      }
    }
  ],
  "meshes" : [
    {
      "primitives" : [
        {
          "attributes" : {
            "POSITION" : 1,
            "NORMAL" : 2,
            "TANGENT" : 3,
            "TEXCOORD_0" : 4,
            "TEXCOORD_1" : 5,
            "TEXCOORD_2" : 6,
            "TEXCOORD_3" : 7
          },
          "indices" : 0,
          "material" : 0
        },
        {
          "attributes" : {
            "POSITION" : 9,
            "NORMAL" : 10,
            "TANGENT" : 11,
            "TEXCOORD_0" : 12,
            "TEXCOORD_1" : 13,
            "TEXCOORD_2" : 14,
            "TEXCOORD_3" : 15
          },
          "indices" : 8,
          "material" : 1
        },
        {
          "attributes" : {
            "POSITION" : 17,
            "NORMAL" : 18,
            "TANGENT" : 19,
            "TEXCOORD_0" : 20,
            "TEXCOORD_1" : 21,
            "TEXCOORD_2" : 22,
            "TEXCOORD_3" : 23
          },
          "indices" : 16,
          "material" : 2
        },
        {
          "attributes" : {
            "POSITION" : 25,
            "NORMAL" : 26,
            "TANGENT" : 27,
            "TEXCOORD_0" : 28,
            "TEXCOORD_1" : 29,
            "TEXCOORD_2" : 30,
            "TEXCOORD_3" : 31
          },
          "indices" : 24,
          "material" : 3
        },
        {
          "attributes" : {
            "POSITION" : 33,
            "NORMAL" : 34,
            "TANGENT" : 35,
            "TEXCOORD_0" : 36,
            "TEXCOORD_1" : 37,
            "TEXCOORD_2" : 38,
            "TEXCOORD_3" : 39
          },
          "indices" : 32,
          "material" : 4
        },
        {
          "attributes" : {
            "POSITION" : 41,
            "NORMAL" : 42,
            "TANGENT" : 43,
            "TEXCOORD_0" : 44,
            "TEXCOORD_1" : 45,
            "TEXCOORD_2" : 46,
            "TEXCOORD_3" : 47
          },
          "indices" : 40,
          "material" : 5
        },
        {
          "attributes" : {
            "POSITION" : 49,
            "NORMAL" : 50,
            "TANGENT" : 51,
            "TEXCOORD_0" : 52,
            "TEXCOORD_1" : 53,
            "TEXCOORD_2" : 54,
            "TEXCOORD_3" : 55
          },
          "indices" : 48,
          "material" : 6
        },
        {
          "attributes" : {
            "POSITION" : 57,
            "NORMAL" : 58,
            "TANGENT" : 59,
            "TEXCOORD_0" : 60,
            "TEXCOORD_1" : 61,
            "TEXCOORD_2" : 62,
            "TEXCOORD_3" : 63
          },
          "indices" : 56,
          "material" : 7
        }
      ],
      "name" : "SM_ENV_LKNVLD_Hokage_Gate_Wall_Lod3"
    }
  ],
  "buffers" : [
    {
      "uri" : "SM_ENV_LKNVLD_Hokage_Gate_Wall_Lod3.bin",
      "byteLength" : 444096
    }
  ],
  "bufferViews" : [
    {
      "buffer" : 0,
      "byteOffset" : 0,
      "byteLength" : 620
    },
    {
      "buffer" : 0,
      "byteOffset" : 620,
      "byteLength" : 2052
    },
    {
      "buffer" : 0,
      "byteOffset" : 2672,
      "byteLength" : 2052
    },
    {
      "buffer" : 0,
      "byteOffset" : 4724,
      "byteLength" : 2736
    },
    {
      "buffer" : 0,
      "byteOffset" : 7460,
      "byteLength" : 1368
    },
    {
      "buffer" : 0,
      "byteOffset" : 8828,
      "byteLength" : 1368
    },
    {
      "buffer" : 0,
      "byteOffset" : 10196,
      "byteLength" : 1368
    },
    {
      "buffer" : 0,
      "byteOffset" : 11564,
      "byteLength" : 1368
    },
    {
      "buffer" : 0,
      "byteOffset" : 12932,
      "byteLength" : 8180
    },
    {
      "buffer" : 0,
      "byteOffset" : 21112,
      "byteLength" : 32652
    },
    {
      "buffer" : 0,
      "byteOffset" : 53764,
      "byteLength" : 32652
    },
    {
      "buffer" : 0,
      "byteOffset" : 86416,
      "byteLength" : 43536
    },
    {
      "buffer" : 0,
      "byteOffset" : 129952,
      "byteLength" : 21768
    },
    {
      "buffer" : 0,
      "byteOffset" : 151720,
      "byteLength" : 21768
    },
    {
      "buffer" : 0,
      "byteOffset" : 173488,
      "byteLength" : 21768
    },
    {
      "buffer" : 0,
      "byteOffset" : 195256,
      "byteLength" : 21768
    },
    {
      "buffer" : 0,
      "byteOffset" : 217024,
      "byteLength" : 120
    },
    {
      "buffer" : 0,
      "byteOffset" : 217144,
      "byteLength" : 456
    },
    {
      "buffer" : 0,
      "byteOffset" : 217600,
      "byteLength" : 456
    },
    {
      "buffer" : 0,
      "byteOffset" : 218056,
      "byteLength" : 608
    },
    {
      "buffer" : 0,
      "byteOffset" : 218664,
      "byteLength" : 304
    },
    {
      "buffer" : 0,
      "byteOffset" : 218968,
      "byteLength" : 304
    },
    {
      "buffer" : 0,
      "byteOffset" : 219272,
      "byteLength" : 304
    },
    {
      "buffer" : 0,
      "byteOffset" : 219576,
      "byteLength" : 304
    },
    {
      "buffer" : 0,
      "byteOffset" : 219880,
      "byteLength" : 128
    },
    {
      "buffer" : 0,
      "byteOffset" : 220008,
      "byteLength" : 300
    },
    {
      "buffer" : 0,
      "byteOffset" : 220308,
      "byteLength" : 300
    },
    {
      "buffer" : 0,
      "byteOffset" : 220608,
      "byteLength" : 400
    },
    {
      "buffer" : 0,
      "byteOffset" : 221008,
      "byteLength" : 200
    },
    {
      "buffer" : 0,
      "byteOffset" : 221208,
      "byteLength" : 200
    },
    {
      "buffer" : 0,
      "byteOffset" : 221408,
      "byteLength" : 200
    },
    {
      "buffer" : 0,
      "byteOffset" : 221608,
      "byteLength" : 200
    },
    {
      "buffer" : 0,
      "byteOffset" : 221808,
      "byteLength" : 176
    },
    {
      "buffer" : 0,
      "byteOffset" : 221984,
      "byteLength" : 540
    },
    {
      "buffer" : 0,
      "byteOffset" : 222524,
      "byteLength" : 540
    },
    {
      "buffer" : 0,
      "byteOffset" : 223064,
      "byteLength" : 720
    },
    {
      "buffer" : 0,
      "byteOffset" : 223784,
      "byteLength" : 360
    },
    {
      "buffer" : 0,
      "byteOffset" : 224144,
      "byteLength" : 360
    },
    {
      "buffer" : 0,
      "byteOffset" : 224504,
      "byteLength" : 360
    },
    {
      "buffer" : 0,
      "byteOffset" : 224864,
      "byteLength" : 360
    },
    {
      "buffer" : 0,
      "byteOffset" : 225224,
      "byteLength" : 8924
    },
    {
      "buffer" : 0,
      "byteOffset" : 234148,
      "byteLength" : 18060
    },
    {
      "buffer" : 0,
      "byteOffset" : 252208,
      "byteLength" : 18060
    },
    {
      "buffer" : 0,
      "byteOffset" : 270268,
      "byteLength" : 24080
    },
    {
      "buffer" : 0,
      "byteOffset" : 294348,
      "byteLength" : 12040
    },
    {
      "buffer" : 0,
      "byteOffset" : 306388,
      "byteLength" : 12040
    },
    {
      "buffer" : 0,
      "byteOffset" : 318428,
      "byteLength" : 12040
    },
    {
      "buffer" : 0,
      "byteOffset" : 330468,
      "byteLength" : 12040
    },
    {
      "buffer" : 0,
      "byteOffset" : 342508,
      "byteLength" : 4616
    },
    {
      "buffer" : 0,
      "byteOffset" : 347124,
      "byteLength" : 8772
    },
    {
      "buffer" : 0,
      "byteOffset" : 355896,
      "byteLength" : 8772
    },
    {
      "buffer" : 0,
      "byteOffset" : 364668,
      "byteLength" : 11696
    },
    {
      "buffer" : 0,
      "byteOffset" : 376364,
      "byteLength" : 5848
    },
    {
      "buffer" : 0,
      "byteOffset" : 382212,
      "byteLength" : 5848
    },
    {
      "buffer" : 0,
      "byteOffset" : 388060,
      "byteLength" : 5848
    },
    {
      "buffer" : 0,
      "byteOffset" : 393908,
      "byteLength" : 5848
    },
    {
      "buffer" : 0,
      "byteOffset" : 399756,
      "byteLength" : 2724
    },
    {
      "buffer" : 0,
      "byteOffset" : 402480,
      "byteLength" : 6936
    },
    {
      "buffer" : 0,
      "byteOffset" : 409416,
      "byteLength" : 6936
    },
    {
      "buffer" : 0,
      "byteOffset" : 416352,
      "byteLength" : 9248
    },
    {
      "buffer" : 0,
      "byteOffset" : 425600,
      "byteLength" : 4624
    },
    {
      "buffer" : 0,
      "byteOffset" : 430224,
      "byteLength" : 4624
    },
    {
      "buffer" : 0,
      "byteOffset" : 434848,
      "byteLength" : 4624
    },
    {
      "buffer" : 0,
      "byteOffset" : 439472,
      "byteLength" : 4624
    }
  ],
  "accessors" : [
    {
      "bufferView" : 0,
      "componentType" : 5123,
      "count" : 309,
      "type" : "SCALAR"
    },
    {
      "bufferView" : 1,
      "min" : [ 6.09384, 12.3068, -95.9579 ],
      "max" : [ 24.8496, 17.7913, -70.548 ],
      "componentType" : 5126,
      "count" : 171,
      "type" : "VEC3"
    },
    {
      "bufferView" : 2,
      "componentType" : 5126,
      "count" : 171,
      "type" : "VEC3"
    },
    {
      "bufferView" : 3,
      "componentType" : 5126,
      "count" : 171,
      "type" : "VEC4"
    },
    {
      "bufferView" : 4,
      "componentType" : 5126,
      "count" : 171,
      "type" : "VEC2"
    },
    {
      "bufferView" : 5,
      "componentType" : 5126,
      "count" : 171,
      "type" : "VEC2"
    },
    {
      "bufferView" : 6,
      "componentType" : 5126,
      "count" : 171,
      "type" : "VEC2"
    },
    {
      "bufferView" : 7,
      "componentType" : 5126,
      "count" : 171,
      "type" : "VEC2"
    },
    {
      "bufferView" : 8,
      "componentType" : 5123,
      "count" : 4089,
      "type" : "SCALAR"
    },
    {
      "bufferView" : 9,
      "min" : [ 6.76892, 15.6551, -95.9464 ],
      "max" : [ 24.6429, 15.9651, -70.9034 ],
      "componentType" : 5126,
      "count" : 2721,
      "type" : "VEC3"
    },
    {
      "bufferView" : 10,
      "componentType" : 5126,
      "count" : 2721,
      "type" : "VEC3"
    },
    {
      "bufferView" : 11,
      "componentType" : 5126,
      "count" : 2721,
      "type" : "VEC4"
    },
    {
      "bufferView" : 12,
      "componentType" : 5126,
      "count" : 2721,
      "type" : "VEC2"
    },
    {
      "bufferView" : 13,
      "componentType" : 5126,
      "count" : 2721,
      "type" : "VEC2"
    },
    {
      "bufferView" : 14,
      "componentType" : 5126,
      "count" : 2721,
      "type" : "VEC2"
    },
    {
      "bufferView" : 15,
      "componentType" : 5126,
      "count" : 2721,
      "type" : "VEC2"
    },
    {
      "bufferView" : 16,
      "componentType" : 5123,
      "count" : 60,
      "type" : "SCALAR"
    },
    {
      "bufferView" : 17,
      "min" : [ 6.76892, 12.3007, -95.9279 ],
      "max" : [ 24.0091, 13.3136, -71.4397 ],
      "componentType" : 5126,
      "count" : 38,
      "type" : "VEC3"
    },
    {
      "bufferView" : 18,
      "componentType" : 5126,
      "count" : 38,
      "type" : "VEC3"
    },
    {
      "bufferView" : 19,
      "componentType" : 5126,
      "count" : 38,
      "type" : "VEC4"
    },
    {
      "bufferView" : 20,
      "componentType" : 5126,
      "count" : 38,
      "type" : "VEC2"
    },
    {
      "bufferView" : 21,
      "componentType" : 5126,
      "count" : 38,
      "type" : "VEC2"
    },
    {
      "bufferView" : 22,
      "componentType" : 5126,
      "count" : 38,
      "type" : "VEC2"
    },
    {
      "bufferView" : 23,
      "componentType" : 5126,
      "count" : 38,
      "type" : "VEC2"
    },
    {
      "bufferView" : 24,
      "componentType" : 5123,
      "count" : 63,
      "type" : "SCALAR"
    },
    {
      "bufferView" : 25,
      "min" : [ 6.76892, 13.282, -95.9276 ],
      "max" : [ 23.9609, 15.6627, -71.4776 ],
      "componentType" : 5126,
      "count" : 25,
      "type" : "VEC3"
    },
    {
      "bufferView" : 26,
      "componentType" : 5126,
      "count" : 25,
      "type" : "VEC3"
    },
    {
      "bufferView" : 27,
      "componentType" : 5126,
      "count" : 25,
      "type" : "VEC4"
    },
    {
      "bufferView" : 28,
      "componentType" : 5126,
      "count" : 25,
      "type" : "VEC2"
    },
    {
      "bufferView" : 29,
      "componentType" : 5126,
      "count" : 25,
      "type" : "VEC2"
    },
    {
      "bufferView" : 30,
      "componentType" : 5126,
      "count" : 25,
      "type" : "VEC2"
    },
    {
      "bufferView" : 31,
      "componentType" : 5126,
      "count" : 25,
      "type" : "VEC2"
    },
    {
      "bufferView" : 32,
      "componentType" : 5123,
      "count" : 87,
      "type" : "SCALAR"
    },
    {
      "bufferView" : 33,
      "min" : [ 6.77245, 12.0007, -95.9469 ],
      "max" : [ 24.2114, 12.3569, -71.3101 ],
      "componentType" : 5126,
      "count" : 45,
      "type" : "VEC3"
    },
    {
      "bufferView" : 34,
      "componentType" : 5126,
      "count" : 45,
      "type" : "VEC3"
    },
    {
      "bufferView" : 35,
      "componentType" : 5126,
      "count" : 45,
      "type" : "VEC4"
    },
    {
      "bufferView" : 36,
      "componentType" : 5126,
      "count" : 45,
      "type" : "VEC2"
    },
    {
      "bufferView" : 37,
      "componentType" : 5126,
      "count" : 45,
      "type" : "VEC2"
    },
    {
      "bufferView" : 38,
      "componentType" : 5126,
      "count" : 45,
      "type" : "VEC2"
    },
    {
      "bufferView" : 39,
      "componentType" : 5126,
      "count" : 45,
      "type" : "VEC2"
    },
    {
      "bufferView" : 40,
      "componentType" : 5123,
      "count" : 4461,
      "type" : "SCALAR"
    },
    {
      "bufferView" : 41,
      "min" : [ 6.23095, 15.9198, -95.9617 ],
      "max" : [ 24.9289, 17.8142, -70.6687 ],
      "componentType" : 5126,
      "count" : 1505,
      "type" : "VEC3"
    },
    {
      "bufferView" : 42,
      "componentType" : 5126,
      "count" : 1505,
      "type" : "VEC3"
    },
    {
      "bufferView" : 43,
      "componentType" : 5126,
      "count" : 1505,
      "type" : "VEC4"
    },
    {
      "bufferView" : 44,
      "componentType" : 5126,
      "count" : 1505,
      "type" : "VEC2"
    },
    {
      "bufferView" : 45,
      "componentType" : 5126,
      "count" : 1505,
      "type" : "VEC2"
    },
    {
      "bufferView" : 46,
      "componentType" : 5126,
      "count" : 1505,
      "type" : "VEC2"
    },
    {
      "bufferView" : 47,
      "componentType" : 5126,
      "count" : 1505,
      "type" : "VEC2"
    },
    {
      "bufferView" : 48,
      "componentType" : 5123,
      "count" : 2307,
      "type" : "SCALAR"
    },
    {
      "bufferView" : 49,
      "min" : [ 6.02201, 15.9228, -95.9784 ],
      "max" : [ 24.992, 18.0705, -72.3677 ],
      "componentType" : 5126,
      "count" : 731,
      "type" : "VEC3"
    },
    {
      "bufferView" : 50,
      "componentType" : 5126,
      "count" : 731,
      "type" : "VEC3"
    },
    {
      "bufferView" : 51,
      "componentType" : 5126,
      "count" : 731,
      "type" : "VEC4"
    },
    {
      "bufferView" : 52,
      "componentType" : 5126,
      "count" : 731,
      "type" : "VEC2"
    },
    {
      "bufferView" : 53,
      "componentType" : 5126,
      "count" : 731,
      "type" : "VEC2"
    },
    {
      "bufferView" : 54,
      "componentType" : 5126,
      "count" : 731,
      "type" : "VEC2"
    },
    {
      "bufferView" : 55,
      "componentType" : 5126,
      "count" : 731,
      "type" : "VEC2"
    },
    {
      "bufferView" : 56,
      "componentType" : 5123,
      "count" : 1362,
      "type" : "SCALAR"
    },
    {
      "bufferView" : 57,
      "min" : [ 6.00001, 16.6904, -96.147 ],
      "max" : [ 24.1276, 17.6388, -71.9444 ],
      "componentType" : 5126,
      "count" : 578,
      "type" : "VEC3"
    },
    {
      "bufferView" : 58,
      "componentType" : 5126,
      "count" : 578,
      "type" : "VEC3"
    },
    {
      "bufferView" : 59,
      "componentType" : 5126,
      "count" : 578,
      "type" : "VEC4"
    },
    {
      "bufferView" : 60,
      "componentType" : 5126,
      "count" : 578,
      "type" : "VEC2"
    },
    {
      "bufferView" : 61,
      "componentType" : 5126,
      "count" : 578,
      "type" : "VEC2"
    },
    {
      "bufferView" : 62,
      "componentType" : 5126,
      "count" : 578,
      "type" : "VEC2"
    },
    {
      "bufferView" : 63,
      "componentType" : 5126,
      "count" : 578,
      "type" : "VEC2"
    }
  ]
}
