{
  "asset" : {
    "generator" : "UE Viewer (umodel) build 1544 based",
    "version" : "2.0"
  },
  "scene" : 0,
  "scenes" : [
    {
      "nodes" : [ 0 ]
    }
  ],
  "nodes" : [
    {
      "name" : "SM_ENV_LKNVLD_Building_B_Lod2",
      "mesh" : 0
    }
  ],
  "materials" : [
    {
      "name" : "MI_LKNVLD_Plaster_Backdrop_Gold_LOD",
      "pbrMetallicRoughness" : {
        "baseColorFactor" : [ 0.3, 0.3, 0.3, 1.0 ],
        "metallicFactor" : 0.1,
        "roughnessFactor" : 0.5
      }
    },
    {
      "name" : "MI_LKNVLD_Plaster_Backdrop_Dark2_LOD",
      "pbrMetallicRoughness" : {
        "baseColorFactor" : [ 0.9, 0.3, 0.3, 1.0 ],
        "metallicFactor" : 0.1,
        "roughnessFactor" : 0.5
      }
    },
    {
      "name" : "MI_ENV_LKNVLD_WoodBoard_Red_LOD",
      "pbrMetallicRoughness" : {
        "baseColorFactor" : [ 0.3, 0.9, 0.3, 1.0 ],
        "metallicFactor" : 0.1,
        "roughnessFactor" : 0.5
      }
    },
    {
      "name" : "MI_ENV_LKNVLD_Pipe_F_LOD",
      "pbrMetallicRoughness" : {
        "baseColorFactor" : [ 0.3, 0.3, 0.9, 1.0 ],
        "metallicFactor" : 0.1,
        "roughnessFactor" : 0.5
      }
    },
    {
      "name" : "MI_ENV_LKNVLD_WoodBoard_Natural_Lighter_LOD",
      "pbrMetallicRoughness" : {
        "baseColorFactor" : [ 0.9, 0.9, 0.9, 1.0 ],
        "metallicFactor" : 0.1,
        "roughnessFactor" : 0.5
      }
    },
    {
      "name" : "MI_LKNVLD_Plaster_Backdrop_Beige_LOD",
      "pbrMetallicRoughness" : {
        "baseColorFactor" : [ 0.9, 0.9, 0.3, 1.0 ],
        "metallicFactor" : 0.1,
        "roughnessFactor" : 0.5
      }
    },
    {
      "name" : "MI_LKNVLD_Plaster_Backdrop_Dark_LOD",
      "pbrMetallicRoughness" : {
        "baseColorFactor" : [ 0.9, 0.3, 0.9, 1.0 ],
        "metallicFactor" : 0.1,
        "roughnessFactor" : 0.5
      }
    },
    {
      "name" : "MI_ENV_LKNVLD_Aircon_I",
      "pbrMetallicRoughness" : {
        "baseColorFactor" : [ 0.3, 0.9, 0.9, 1.0 ],
        "metallicFactor" : 0.1,
        "roughnessFactor" : 0.5
      }
    },
    {
      "name" : "MI_ENV_LKNVLD_Windows_A",
      "pbrMetallicRoughness" : {
        "baseColorFactor" : [ 1, 0.3, 0.3, 1.0 ],
        "metallicFactor" : 0.1,
        "roughnessFactor" : 0.5
      }
    }
  ],
  "meshes" : [
    {
      "primitives" : [
        {
          "attributes" : {
            "POSITION" : 1,
            "NORMAL" : 2,
            "TANGENT" : 3,
            "TEXCOORD_0" : 4,
            "TEXCOORD_1" : 5,
            "TEXCOORD_2" : 6,
            "TEXCOORD_3" : 7
          },
          "indices" : 0,
          "material" : 0
        },
        {
          "attributes" : {
            "POSITION" : 9,
            "NORMAL" : 10,
            "TANGENT" : 11,
            "TEXCOORD_0" : 12,
            "TEXCOORD_1" : 13,
            "TEXCOORD_2" : 14,
            "TEXCOORD_3" : 15
          },
          "indices" : 8,
          "material" : 1
        },
        {
          "attributes" : {
            "POSITION" : 17,
            "NORMAL" : 18,
            "TANGENT" : 19,
            "TEXCOORD_0" : 20,
            "TEXCOORD_1" : 21,
            "TEXCOORD_2" : 22,
            "TEXCOORD_3" : 23
          },
          "indices" : 16,
          "material" : 2
        },
        {
          "attributes" : {
            "POSITION" : 25,
            "NORMAL" : 26,
            "TANGENT" : 27,
            "TEXCOORD_0" : 28,
            "TEXCOORD_1" : 29,
            "TEXCOORD_2" : 30,
            "TEXCOORD_3" : 31
          },
          "indices" : 24,
          "material" : 3
        },
        {
          "attributes" : {
            "POSITION" : 33,
            "NORMAL" : 34,
            "TANGENT" : 35,
            "TEXCOORD_0" : 36,
            "TEXCOORD_1" : 37,
            "TEXCOORD_2" : 38,
            "TEXCOORD_3" : 39
          },
          "indices" : 32,
          "material" : 4
        },
        {
          "attributes" : {
            "POSITION" : 41,
            "NORMAL" : 42,
            "TANGENT" : 43,
            "TEXCOORD_0" : 44,
            "TEXCOORD_1" : 45,
            "TEXCOORD_2" : 46,
            "TEXCOORD_3" : 47
          },
          "indices" : 40,
          "material" : 5
        },
        {
          "attributes" : {
            "POSITION" : 49,
            "NORMAL" : 50,
            "TANGENT" : 51,
            "TEXCOORD_0" : 52,
            "TEXCOORD_1" : 53,
            "TEXCOORD_2" : 54,
            "TEXCOORD_3" : 55
          },
          "indices" : 48,
          "material" : 6
        },
        {
          "attributes" : {
            "POSITION" : 57,
            "NORMAL" : 58,
            "TANGENT" : 59,
            "TEXCOORD_0" : 60,
            "TEXCOORD_1" : 61,
            "TEXCOORD_2" : 62,
            "TEXCOORD_3" : 63
          },
          "indices" : 56,
          "material" : 7
        },
        {
          "attributes" : {
            "POSITION" : 65,
            "NORMAL" : 66,
            "TANGENT" : 67,
            "TEXCOORD_0" : 68,
            "TEXCOORD_1" : 69,
            "TEXCOORD_2" : 70,
            "TEXCOORD_3" : 71
          },
          "indices" : 64,
          "material" : 8
        }
      ],
      "name" : "SM_ENV_LKNVLD_Building_B_Lod2"
    }
  ],
  "buffers" : [
    {
      "uri" : "SM_ENV_LKNVLD_Building_B_Lod2.bin",
      "byteLength" : 789256
    }
  ],
  "bufferViews" : [
    {
      "buffer" : 0,
      "byteOffset" : 0,
      "byteLength" : 3672
    },
    {
      "buffer" : 0,
      "byteOffset" : 3672,
      "byteLength" : 14340
    },
    {
      "buffer" : 0,
      "byteOffset" : 18012,
      "byteLength" : 14340
    },
    {
      "buffer" : 0,
      "byteOffset" : 32352,
      "byteLength" : 19120
    },
    {
      "buffer" : 0,
      "byteOffset" : 51472,
      "byteLength" : 9560
    },
    {
      "buffer" : 0,
      "byteOffset" : 61032,
      "byteLength" : 9560
    },
    {
      "buffer" : 0,
      "byteOffset" : 70592,
      "byteLength" : 9560
    },
    {
      "buffer" : 0,
      "byteOffset" : 80152,
      "byteLength" : 9560
    },
    {
      "buffer" : 0,
      "byteOffset" : 89712,
      "byteLength" : 7484
    },
    {
      "buffer" : 0,
      "byteOffset" : 97196,
      "byteLength" : 34608
    },
    {
      "buffer" : 0,
      "byteOffset" : 131804,
      "byteLength" : 34608
    },
    {
      "buffer" : 0,
      "byteOffset" : 166412,
      "byteLength" : 46144
    },
    {
      "buffer" : 0,
      "byteOffset" : 212556,
      "byteLength" : 23072
    },
    {
      "buffer" : 0,
      "byteOffset" : 235628,
      "byteLength" : 23072
    },
    {
      "buffer" : 0,
      "byteOffset" : 258700,
      "byteLength" : 23072
    },
    {
      "buffer" : 0,
      "byteOffset" : 281772,
      "byteLength" : 23072
    },
    {
      "buffer" : 0,
      "byteOffset" : 304844,
      "byteLength" : 4308
    },
    {
      "buffer" : 0,
      "byteOffset" : 309152,
      "byteLength" : 17268
    },
    {
      "buffer" : 0,
      "byteOffset" : 326420,
      "byteLength" : 17268
    },
    {
      "buffer" : 0,
      "byteOffset" : 343688,
      "byteLength" : 23024
    },
    {
      "buffer" : 0,
      "byteOffset" : 366712,
      "byteLength" : 11512
    },
    {
      "buffer" : 0,
      "byteOffset" : 378224,
      "byteLength" : 11512
    },
    {
      "buffer" : 0,
      "byteOffset" : 389736,
      "byteLength" : 11512
    },
    {
      "buffer" : 0,
      "byteOffset" : 401248,
      "byteLength" : 11512
    },
    {
      "buffer" : 0,
      "byteOffset" : 412760,
      "byteLength" : 9716
    },
    {
      "buffer" : 0,
      "byteOffset" : 422476,
      "byteLength" : 23004
    },
    {
      "buffer" : 0,
      "byteOffset" : 445480,
      "byteLength" : 23004
    },
    {
      "buffer" : 0,
      "byteOffset" : 468484,
      "byteLength" : 30672
    },
    {
      "buffer" : 0,
      "byteOffset" : 499156,
      "byteLength" : 15336
    },
    {
      "buffer" : 0,
      "byteOffset" : 514492,
      "byteLength" : 15336
    },
    {
      "buffer" : 0,
      "byteOffset" : 529828,
      "byteLength" : 15336
    },
    {
      "buffer" : 0,
      "byteOffset" : 545164,
      "byteLength" : 15336
    },
    {
      "buffer" : 0,
      "byteOffset" : 560500,
      "byteLength" : 5700
    },
    {
      "buffer" : 0,
      "byteOffset" : 566200,
      "byteLength" : 25344
    },
    {
      "buffer" : 0,
      "byteOffset" : 591544,
      "byteLength" : 25344
    },
    {
      "buffer" : 0,
      "byteOffset" : 616888,
      "byteLength" : 33792
    },
    {
      "buffer" : 0,
      "byteOffset" : 650680,
      "byteLength" : 16896
    },
    {
      "buffer" : 0,
      "byteOffset" : 667576,
      "byteLength" : 16896
    },
    {
      "buffer" : 0,
      "byteOffset" : 684472,
      "byteLength" : 16896
    },
    {
      "buffer" : 0,
      "byteOffset" : 701368,
      "byteLength" : 16896
    },
    {
      "buffer" : 0,
      "byteOffset" : 718264,
      "byteLength" : 1176
    },
    {
      "buffer" : 0,
      "byteOffset" : 719440,
      "byteLength" : 3732
    },
    {
      "buffer" : 0,
      "byteOffset" : 723172,
      "byteLength" : 3732
    },
    {
      "buffer" : 0,
      "byteOffset" : 726904,
      "byteLength" : 4976
    },
    {
      "buffer" : 0,
      "byteOffset" : 731880,
      "byteLength" : 2488
    },
    {
      "buffer" : 0,
      "byteOffset" : 734368,
      "byteLength" : 2488
    },
    {
      "buffer" : 0,
      "byteOffset" : 736856,
      "byteLength" : 2488
    },
    {
      "buffer" : 0,
      "byteOffset" : 739344,
      "byteLength" : 2488
    },
    {
      "buffer" : 0,
      "byteOffset" : 741832,
      "byteLength" : 612
    },
    {
      "buffer" : 0,
      "byteOffset" : 742444,
      "byteLength" : 2904
    },
    {
      "buffer" : 0,
      "byteOffset" : 745348,
      "byteLength" : 2904
    },
    {
      "buffer" : 0,
      "byteOffset" : 748252,
      "byteLength" : 3872
    },
    {
      "buffer" : 0,
      "byteOffset" : 752124,
      "byteLength" : 1936
    },
    {
      "buffer" : 0,
      "byteOffset" : 754060,
      "byteLength" : 1936
    },
    {
      "buffer" : 0,
      "byteOffset" : 755996,
      "byteLength" : 1936
    },
    {
      "buffer" : 0,
      "byteOffset" : 757932,
      "byteLength" : 1936
    },
    {
      "buffer" : 0,
      "byteOffset" : 759868,
      "byteLength" : 636
    },
    {
      "buffer" : 0,
      "byteOffset" : 760504,
      "byteLength" : 2892
    },
    {
      "buffer" : 0,
      "byteOffset" : 763396,
      "byteLength" : 2892
    },
    {
      "buffer" : 0,
      "byteOffset" : 766288,
      "byteLength" : 3856
    },
    {
      "buffer" : 0,
      "byteOffset" : 770144,
      "byteLength" : 1928
    },
    {
      "buffer" : 0,
      "byteOffset" : 772072,
      "byteLength" : 1928
    },
    {
      "buffer" : 0,
      "byteOffset" : 774000,
      "byteLength" : 1928
    },
    {
      "buffer" : 0,
      "byteOffset" : 775928,
      "byteLength" : 1928
    },
    {
      "buffer" : 0,
      "byteOffset" : 777856,
      "byteLength" : 456
    },
    {
      "buffer" : 0,
      "byteOffset" : 778312,
      "byteLength" : 1824
    },
    {
      "buffer" : 0,
      "byteOffset" : 780136,
      "byteLength" : 1824
    },
    {
      "buffer" : 0,
      "byteOffset" : 781960,
      "byteLength" : 2432
    },
    {
      "buffer" : 0,
      "byteOffset" : 784392,
      "byteLength" : 1216
    },
    {
      "buffer" : 0,
      "byteOffset" : 785608,
      "byteLength" : 1216
    },
    {
      "buffer" : 0,
      "byteOffset" : 786824,
      "byteLength" : 1216
    },
    {
      "buffer" : 0,
      "byteOffset" : 788040,
      "byteLength" : 1216
    }
  ],
  "accessors" : [
    {
      "bufferView" : 0,
      "componentType" : 5123,
      "count" : 1836,
      "type" : "SCALAR"
    },
    {
      "bufferView" : 1,
      "min" : [ 30.5641, 11.7852, -115.692 ],
      "max" : [ 59.4359, 29.2, -86.5678 ],
      "componentType" : 5126,
      "count" : 1195,
      "type" : "VEC3"
    },
    {
      "bufferView" : 2,
      "componentType" : 5126,
      "count" : 1195,
      "type" : "VEC3"
    },
    {
      "bufferView" : 3,
      "componentType" : 5126,
      "count" : 1195,
      "type" : "VEC4"
    },
    {
      "bufferView" : 4,
      "componentType" : 5126,
      "count" : 1195,
      "type" : "VEC2"
    },
    {
      "bufferView" : 5,
      "componentType" : 5126,
      "count" : 1195,
      "type" : "VEC2"
    },
    {
      "bufferView" : 6,
      "componentType" : 5126,
      "count" : 1195,
      "type" : "VEC2"
    },
    {
      "bufferView" : 7,
      "componentType" : 5126,
      "count" : 1195,
      "type" : "VEC2"
    },
    {
      "bufferView" : 8,
      "componentType" : 5123,
      "count" : 3741,
      "type" : "SCALAR"
    },
    {
      "bufferView" : 9,
      "min" : [ 30.9972, 6.3, -115.25 ],
      "max" : [ 59.0028, 25.1869, -82.0821 ],
      "componentType" : 5126,
      "count" : 2884,
      "type" : "VEC3"
    },
    {
      "bufferView" : 10,
      "componentType" : 5126,
      "count" : 2884,
      "type" : "VEC3"
    },
    {
      "bufferView" : 11,
      "componentType" : 5126,
      "count" : 2884,
      "type" : "VEC4"
    },
    {
      "bufferView" : 12,
      "componentType" : 5126,
      "count" : 2884,
      "type" : "VEC2"
    },
    {
      "bufferView" : 13,
      "componentType" : 5126,
      "count" : 2884,
      "type" : "VEC2"
    },
    {
      "bufferView" : 14,
      "componentType" : 5126,
      "count" : 2884,
      "type" : "VEC2"
    },
    {
      "bufferView" : 15,
      "componentType" : 5126,
      "count" : 2884,
      "type" : "VEC2"
    },
    {
      "bufferView" : 16,
      "componentType" : 5123,
      "count" : 2154,
      "type" : "SCALAR"
    },
    {
      "bufferView" : 17,
      "min" : [ 30.9974, 12.0996, -115.25 ],
      "max" : [ 59.0026, 24.8014, -82.0821 ],
      "componentType" : 5126,
      "count" : 1439,
      "type" : "VEC3"
    },
    {
      "bufferView" : 18,
      "componentType" : 5126,
      "count" : 1439,
      "type" : "VEC3"
    },
    {
      "bufferView" : 19,
      "componentType" : 5126,
      "count" : 1439,
      "type" : "VEC4"
    },
    {
      "bufferView" : 20,
      "componentType" : 5126,
      "count" : 1439,
      "type" : "VEC2"
    },
    {
      "bufferView" : 21,
      "componentType" : 5126,
      "count" : 1439,
      "type" : "VEC2"
    },
    {
      "bufferView" : 22,
      "componentType" : 5126,
      "count" : 1439,
      "type" : "VEC2"
    },
    {
      "bufferView" : 23,
      "componentType" : 5126,
      "count" : 1439,
      "type" : "VEC2"
    },
    {
      "bufferView" : 24,
      "componentType" : 5123,
      "count" : 4857,
      "type" : "SCALAR"
    },
    {
      "bufferView" : 25,
      "min" : [ 31.6666, 11.3957, -115.381 ],
      "max" : [ 58.5509, 25.3236, -83.5546 ],
      "componentType" : 5126,
      "count" : 1917,
      "type" : "VEC3"
    },
    {
      "bufferView" : 26,
      "componentType" : 5126,
      "count" : 1917,
      "type" : "VEC3"
    },
    {
      "bufferView" : 27,
      "componentType" : 5126,
      "count" : 1917,
      "type" : "VEC4"
    },
    {
      "bufferView" : 28,
      "componentType" : 5126,
      "count" : 1917,
      "type" : "VEC2"
    },
    {
      "bufferView" : 29,
      "componentType" : 5126,
      "count" : 1917,
      "type" : "VEC2"
    },
    {
      "bufferView" : 30,
      "componentType" : 5126,
      "count" : 1917,
      "type" : "VEC2"
    },
    {
      "bufferView" : 31,
      "componentType" : 5126,
      "count" : 1917,
      "type" : "VEC2"
    },
    {
      "bufferView" : 32,
      "componentType" : 5123,
      "count" : 2850,
      "type" : "SCALAR"
    },
    {
      "bufferView" : 33,
      "min" : [ 31.15, 7.20059, -114.85 ],
      "max" : [ 58.85, 18, -82.4568 ],
      "componentType" : 5126,
      "count" : 2112,
      "type" : "VEC3"
    },
    {
      "bufferView" : 34,
      "componentType" : 5126,
      "count" : 2112,
      "type" : "VEC3"
    },
    {
      "bufferView" : 35,
      "componentType" : 5126,
      "count" : 2112,
      "type" : "VEC4"
    },
    {
      "bufferView" : 36,
      "componentType" : 5126,
      "count" : 2112,
      "type" : "VEC2"
    },
    {
      "bufferView" : 37,
      "componentType" : 5126,
      "count" : 2112,
      "type" : "VEC2"
    },
    {
      "bufferView" : 38,
      "componentType" : 5126,
      "count" : 2112,
      "type" : "VEC2"
    },
    {
      "bufferView" : 39,
      "componentType" : 5126,
      "count" : 2112,
      "type" : "VEC2"
    },
    {
      "bufferView" : 40,
      "componentType" : 5123,
      "count" : 588,
      "type" : "SCALAR"
    },
    {
      "bufferView" : 41,
      "min" : [ 31.15, 7.20059, -114.85 ],
      "max" : [ 58.85, 17.85, -82.945 ],
      "componentType" : 5126,
      "count" : 311,
      "type" : "VEC3"
    },
    {
      "bufferView" : 42,
      "componentType" : 5126,
      "count" : 311,
      "type" : "VEC3"
    },
    {
      "bufferView" : 43,
      "componentType" : 5126,
      "count" : 311,
      "type" : "VEC4"
    },
    {
      "bufferView" : 44,
      "componentType" : 5126,
      "count" : 311,
      "type" : "VEC2"
    },
    {
      "bufferView" : 45,
      "componentType" : 5126,
      "count" : 311,
      "type" : "VEC2"
    },
    {
      "bufferView" : 46,
      "componentType" : 5126,
      "count" : 311,
      "type" : "VEC2"
    },
    {
      "bufferView" : 47,
      "componentType" : 5126,
      "count" : 311,
      "type" : "VEC2"
    },
    {
      "bufferView" : 48,
      "componentType" : 5123,
      "count" : 306,
      "type" : "SCALAR"
    },
    {
      "bufferView" : 49,
      "min" : [ 30.5, 6, -115.5 ],
      "max" : [ 59.5, 6.4, -81.48 ],
      "componentType" : 5126,
      "count" : 242,
      "type" : "VEC3"
    },
    {
      "bufferView" : 50,
      "componentType" : 5126,
      "count" : 242,
      "type" : "VEC3"
    },
    {
      "bufferView" : 51,
      "componentType" : 5126,
      "count" : 242,
      "type" : "VEC4"
    },
    {
      "bufferView" : 52,
      "componentType" : 5126,
      "count" : 242,
      "type" : "VEC2"
    },
    {
      "bufferView" : 53,
      "componentType" : 5126,
      "count" : 242,
      "type" : "VEC2"
    },
    {
      "bufferView" : 54,
      "componentType" : 5126,
      "count" : 242,
      "type" : "VEC2"
    },
    {
      "bufferView" : 55,
      "componentType" : 5126,
      "count" : 242,
      "type" : "VEC2"
    },
    {
      "bufferView" : 56,
      "componentType" : 5123,
      "count" : 318,
      "type" : "SCALAR"
    },
    {
      "bufferView" : 57,
      "min" : [ 30.5284, 6.03734, -112.745 ],
      "max" : [ 59.4633, 14.8731, -82.9371 ],
      "componentType" : 5126,
      "count" : 241,
      "type" : "VEC3"
    },
    {
      "bufferView" : 58,
      "componentType" : 5126,
      "count" : 241,
      "type" : "VEC3"
    },
    {
      "bufferView" : 59,
      "componentType" : 5126,
      "count" : 241,
      "type" : "VEC4"
    },
    {
      "bufferView" : 60,
      "componentType" : 5126,
      "count" : 241,
      "type" : "VEC2"
    },
    {
      "bufferView" : 61,
      "componentType" : 5126,
      "count" : 241,
      "type" : "VEC2"
    },
    {
      "bufferView" : 62,
      "componentType" : 5126,
      "count" : 241,
      "type" : "VEC2"
    },
    {
      "bufferView" : 63,
      "componentType" : 5126,
      "count" : 241,
      "type" : "VEC2"
    },
    {
      "bufferView" : 64,
      "componentType" : 5123,
      "count" : 228,
      "type" : "SCALAR"
    },
    {
      "bufferView" : 65,
      "min" : [ 31.95, 8.95, -111.899 ],
      "max" : [ 58.05, 17.459, -82.9933 ],
      "componentType" : 5126,
      "count" : 152,
      "type" : "VEC3"
    },
    {
      "bufferView" : 66,
      "componentType" : 5126,
      "count" : 152,
      "type" : "VEC3"
    },
    {
      "bufferView" : 67,
      "componentType" : 5126,
      "count" : 152,
      "type" : "VEC4"
    },
    {
      "bufferView" : 68,
      "componentType" : 5126,
      "count" : 152,
      "type" : "VEC2"
    },
    {
      "bufferView" : 69,
      "componentType" : 5126,
      "count" : 152,
      "type" : "VEC2"
    },
    {
      "bufferView" : 70,
      "componentType" : 5126,
      "count" : 152,
      "type" : "VEC2"
    },
    {
      "bufferView" : 71,
      "componentType" : 5126,
      "count" : 152,
      "type" : "VEC2"
    }
  ]
}
