{
  "asset" : {
    "generator" : "UE Viewer (umodel) build 1544 based",
    "version" : "2.0"
  },
  "scene" : 0,
  "scenes" : [
    {
      "nodes" : [ 0 ]
    }
  ],
  "nodes" : [
    {
      "name" : "SM_ENV_LKNVLD_Flags_A",
      "mesh" : 0
    }
  ],
  "materials" : [
    {
      "name" : "MI_ENV_LKNVLD_Event_Flags_A",
      "pbrMetallicRoughness" : {
        "baseColorFactor" : [ 0.3, 0.3, 0.3, 1.0 ],
        "metallicFactor" : 0.1,
        "roughnessFactor" : 0.5
      }
    }
  ],
  "meshes" : [
    {
      "primitives" : [
        {
          "attributes" : {
            "POSITION" : 1,
            "NORMAL" : 2,
            "TANGENT" : 3,
            "TEXCOORD_0" : 4,
            "TEXCOORD_1" : 5,
            "TEXCOORD_2" : 6,
            "TEXCOORD_3" : 7
          },
          "indices" : 0,
          "material" : 0
        }
      ],
      "name" : "SM_ENV_LKNVLD_Flags_A"
    }
  ],
  "buffers" : [
    {
      "uri" : "SM_ENV_LKNVLD_Flags_A.bin",
      "byteLength" : 190656
    }
  ],
  "bufferViews" : [
    {
      "buffer" : 0,
      "byteOffset" : 0,
      "byteLength" : 7632
    },
    {
      "buffer" : 0,
      "byteOffset" : 7632,
      "byteLength" : 30504
    },
    {
      "buffer" : 0,
      "byteOffset" : 38136,
      "byteLength" : 30504
    },
    {
      "buffer" : 0,
      "byteOffset" : 68640,
      "byteLength" : 40672
    },
    {
      "buffer" : 0,
      "byteOffset" : 109312,
      "byteLength" : 20336
    },
    {
      "buffer" : 0,
      "byteOffset" : 129648,
      "byteLength" : 20336
    },
    {
      "buffer" : 0,
      "byteOffset" : 149984,
      "byteLength" : 20336
    },
    {
      "buffer" : 0,
      "byteOffset" : 170320,
      "byteLength" : 20336
    }
  ],
  "accessors" : [
    {
      "bufferView" : 0,
      "componentType" : 5123,
      "count" : 3816,
      "type" : "SCALAR"
    },
    {
      "bufferView" : 1,
      "min" : [ -117.086, 14.3555, -55.717 ],
      "max" : [ 110.633, 41.8898, 72.7351 ],
      "componentType" : 5126,
      "count" : 2542,
      "type" : "VEC3"
    },
    {
      "bufferView" : 2,
      "componentType" : 5126,
      "count" : 2542,
      "type" : "VEC3"
    },
    {
      "bufferView" : 3,
      "componentType" : 5126,
      "count" : 2542,
      "type" : "VEC4"
    },
    {
      "bufferView" : 4,
      "componentType" : 5126,
      "count" : 2542,
      "type" : "VEC2"
    },
    {
      "bufferView" : 5,
      "componentType" : 5126,
      "count" : 2542,
      "type" : "VEC2"
    },
    {
      "bufferView" : 6,
      "componentType" : 5126,
      "count" : 2542,
      "type" : "VEC2"
    },
    {
      "bufferView" : 7,
      "componentType" : 5126,
      "count" : 2542,
      "type" : "VEC2"
    }
  ]
}
