{
  "asset" : {
    "generator" : "UE Viewer (umodel) build 1544 based",
    "version" : "2.0"
  },
  "scene" : 0,
  "scenes" : [
    {
      "nodes" : [ 0 ]
    }
  ],
  "nodes" : [
    {
      "name" : "SM_ENV_LKNVLD_TreeSet_I_Lod1",
      "mesh" : 0
    }
  ],
  "materials" : [
    {
      "name" : "MI_ENV_LKNVLD_Tree_A_Masked_CameraTrans",
      "pbrMetallicRoughness" : {
        "baseColorFactor" : [ 0.3, 0.3, 0.3, 1.0 ],
        "metallicFactor" : 0.1,
        "roughnessFactor" : 0.5
      }
    },
    {
      "name" : "MI_ENV_LKNVLD_LeafMasked_A",
      "pbrMetallicRoughness" : {
        "baseColorFactor" : [ 0.9, 0.3, 0.3, 1.0 ],
        "metallicFactor" : 0.1,
        "roughnessFactor" : 0.5
      }
    },
    {
      "name" : "MI_ENV_LKNVLD_Leaf_A",
      "pbrMetallicRoughness" : {
        "baseColorFactor" : [ 0.3, 0.9, 0.3, 1.0 ],
        "metallicFactor" : 0.1,
        "roughnessFactor" : 0.5
      }
    }
  ],
  "meshes" : [
    {
      "primitives" : [
        {
          "attributes" : {
            "POSITION" : 1,
            "NORMAL" : 2,
            "TANGENT" : 3,
            "COLOR_0" : 4,
            "TEXCOORD_0" : 5,
            "TEXCOORD_1" : 6,
            "TEXCOORD_2" : 7,
            "TEXCOORD_3" : 8
          },
          "indices" : 0,
          "material" : 0
        },
        {
          "attributes" : {
            "POSITION" : 10,
            "NORMAL" : 11,
            "TANGENT" : 12,
            "COLOR_0" : 13,
            "TEXCOORD_0" : 14,
            "TEXCOORD_1" : 15,
            "TEXCOORD_2" : 16,
            "TEXCOORD_3" : 17
          },
          "indices" : 9,
          "material" : 1
        },
        {
          "attributes" : {
            "POSITION" : 19,
            "NORMAL" : 20,
            "TANGENT" : 21,
            "COLOR_0" : 22,
            "TEXCOORD_0" : 23,
            "TEXCOORD_1" : 24,
            "TEXCOORD_2" : 25,
            "TEXCOORD_3" : 26
          },
          "indices" : 18,
          "material" : 2
        }
      ],
      "name" : "SM_ENV_LKNVLD_TreeSet_I_Lod1"
    }
  ],
  "buffers" : [
    {
      "uri" : "SM_ENV_LKNVLD_TreeSet_I_Lod1.bin",
      "byteLength" : 2258352
    }
  ],
  "bufferViews" : [
    {
      "buffer" : 0,
      "byteOffset" : 0,
      "byteLength" : 7140
    },
    {
      "buffer" : 0,
      "byteOffset" : 7140,
      "byteLength" : 30216
    },
    {
      "buffer" : 0,
      "byteOffset" : 37356,
      "byteLength" : 30216
    },
    {
      "buffer" : 0,
      "byteOffset" : 67572,
      "byteLength" : 40288
    },
    {
      "buffer" : 0,
      "byteOffset" : 107860,
      "byteLength" : 10072
    },
    {
      "buffer" : 0,
      "byteOffset" : 117932,
      "byteLength" : 20144
    },
    {
      "buffer" : 0,
      "byteOffset" : 138076,
      "byteLength" : 20144
    },
    {
      "buffer" : 0,
      "byteOffset" : 158220,
      "byteLength" : 20144
    },
    {
      "buffer" : 0,
      "byteOffset" : 178364,
      "byteLength" : 20144
    },
    {
      "buffer" : 0,
      "byteOffset" : 198508,
      "byteLength" : 88260
    },
    {
      "buffer" : 0,
      "byteOffset" : 286768,
      "byteLength" : 241020
    },
    {
      "buffer" : 0,
      "byteOffset" : 527788,
      "byteLength" : 241020
    },
    {
      "buffer" : 0,
      "byteOffset" : 768808,
      "byteLength" : 321360
    },
    {
      "buffer" : 0,
      "byteOffset" : 1090168,
      "byteLength" : 80340
    },
    {
      "buffer" : 0,
      "byteOffset" : 1170508,
      "byteLength" : 160680
    },
    {
      "buffer" : 0,
      "byteOffset" : 1331188,
      "byteLength" : 160680
    },
    {
      "buffer" : 0,
      "byteOffset" : 1491868,
      "byteLength" : 160680
    },
    {
      "buffer" : 0,
      "byteOffset" : 1652548,
      "byteLength" : 160680
    },
    {
      "buffer" : 0,
      "byteOffset" : 1813228,
      "byteLength" : 18080
    },
    {
      "buffer" : 0,
      "byteOffset" : 1831308,
      "byteLength" : 67428
    },
    {
      "buffer" : 0,
      "byteOffset" : 1898736,
      "byteLength" : 67428
    },
    {
      "buffer" : 0,
      "byteOffset" : 1966164,
      "byteLength" : 89904
    },
    {
      "buffer" : 0,
      "byteOffset" : 2056068,
      "byteLength" : 22476
    },
    {
      "buffer" : 0,
      "byteOffset" : 2078544,
      "byteLength" : 44952
    },
    {
      "buffer" : 0,
      "byteOffset" : 2123496,
      "byteLength" : 44952
    },
    {
      "buffer" : 0,
      "byteOffset" : 2168448,
      "byteLength" : 44952
    },
    {
      "buffer" : 0,
      "byteOffset" : 2213400,
      "byteLength" : 44952
    }
  ],
  "accessors" : [
    {
      "bufferView" : 0,
      "componentType" : 5123,
      "count" : 3570,
      "type" : "SCALAR"
    },
    {
      "bufferView" : 1,
      "min" : [ -40.2838, -0.590608, -65.7751 ],
      "max" : [ -26.1523, 10.5404, -42.8385 ],
      "componentType" : 5126,
      "count" : 2518,
      "type" : "VEC3"
    },
    {
      "bufferView" : 2,
      "componentType" : 5126,
      "count" : 2518,
      "type" : "VEC3"
    },
    {
      "bufferView" : 3,
      "componentType" : 5126,
      "count" : 2518,
      "type" : "VEC4"
    },
    {
      "bufferView" : 4,
      "normalized" : true,
      "componentType" : 5121,
      "count" : 2518,
      "type" : "VEC4"
    },
    {
      "bufferView" : 5,
      "componentType" : 5126,
      "count" : 2518,
      "type" : "VEC2"
    },
    {
      "bufferView" : 6,
      "componentType" : 5126,
      "count" : 2518,
      "type" : "VEC2"
    },
    {
      "bufferView" : 7,
      "componentType" : 5126,
      "count" : 2518,
      "type" : "VEC2"
    },
    {
      "bufferView" : 8,
      "componentType" : 5126,
      "count" : 2518,
      "type" : "VEC2"
    },
    {
      "bufferView" : 9,
      "componentType" : 5123,
      "count" : 44130,
      "type" : "SCALAR"
    },
    {
      "bufferView" : 10,
      "min" : [ -41.6236, 3.56404, -67.7552 ],
      "max" : [ -24.8921, 13.2851, -41.7956 ],
      "componentType" : 5126,
      "count" : 20085,
      "type" : "VEC3"
    },
    {
      "bufferView" : 11,
      "componentType" : 5126,
      "count" : 20085,
      "type" : "VEC3"
    },
    {
      "bufferView" : 12,
      "componentType" : 5126,
      "count" : 20085,
      "type" : "VEC4"
    },
    {
      "bufferView" : 13,
      "normalized" : true,
      "componentType" : 5121,
      "count" : 20085,
      "type" : "VEC4"
    },
    {
      "bufferView" : 14,
      "componentType" : 5126,
      "count" : 20085,
      "type" : "VEC2"
    },
    {
      "bufferView" : 15,
      "componentType" : 5126,
      "count" : 20085,
      "type" : "VEC2"
    },
    {
      "bufferView" : 16,
      "componentType" : 5126,
      "count" : 20085,
      "type" : "VEC2"
    },
    {
      "bufferView" : 17,
      "componentType" : 5126,
      "count" : 20085,
      "type" : "VEC2"
    },
    {
      "bufferView" : 18,
      "componentType" : 5123,
      "count" : 9039,
      "type" : "SCALAR"
    },
    {
      "bufferView" : 19,
      "min" : [ -41.4509, 3.78346, -67.5613 ],
      "max" : [ -25.0745, 13.1264, -41.9738 ],
      "componentType" : 5126,
      "count" : 5619,
      "type" : "VEC3"
    },
    {
      "bufferView" : 20,
      "componentType" : 5126,
      "count" : 5619,
      "type" : "VEC3"
    },
    {
      "bufferView" : 21,
      "componentType" : 5126,
      "count" : 5619,
      "type" : "VEC4"
    },
    {
      "bufferView" : 22,
      "normalized" : true,
      "componentType" : 5121,
      "count" : 5619,
      "type" : "VEC4"
    },
    {
      "bufferView" : 23,
      "componentType" : 5126,
      "count" : 5619,
      "type" : "VEC2"
    },
    {
      "bufferView" : 24,
      "componentType" : 5126,
      "count" : 5619,
      "type" : "VEC2"
    },
    {
      "bufferView" : 25,
      "componentType" : 5126,
      "count" : 5619,
      "type" : "VEC2"
    },
    {
      "bufferView" : 26,
      "componentType" : 5126,
      "count" : 5619,
      "type" : "VEC2"
    }
  ]
}
