{
  "asset" : {
    "generator" : "UE Viewer (umodel) build 1544 based",
    "version" : "2.0"
  },
  "scene" : 0,
  "scenes" : [
    {
      "nodes" : [ 0 ]
    }
  ],
  "nodes" : [
    {
      "name" : "SM_ENV_LKNVLD_GardenLantern_A_Lod1",
      "mesh" : 0
    }
  ],
  "materials" : [
    {
      "name" : "MI_ENV_LKNVLD_GardenLantern_A",
      "pbrMetallicRoughness" : {
        "baseColorFactor" : [ 0.3, 0.3, 0.3, 1.0 ],
        "metallicFactor" : 0.1,
        "roughnessFactor" : 0.5
      }
    }
  ],
  "meshes" : [
    {
      "primitives" : [
        {
          "attributes" : {
            "POSITION" : 1,
            "NORMAL" : 2,
            "TANGENT" : 3,
            "COLOR_0" : 4,
            "TEXCOORD_0" : 5,
            "TEXCOORD_1" : 6,
            "TEXCOORD_2" : 7,
            "TEXCOORD_3" : 8
          },
          "indices" : 0,
          "material" : 0
        }
      ],
      "name" : "SM_ENV_LKNVLD_GardenLantern_A_Lod1"
    }
  ],
  "buffers" : [
    {
      "uri" : "SM_ENV_LKNVLD_GardenLantern_A_Lod1.bin",
      "byteLength" : 208444
    }
  ],
  "bufferViews" : [
    {
      "buffer" : 0,
      "byteOffset" : 0,
      "byteLength" : 15708
    },
    {
      "buffer" : 0,
      "byteOffset" : 15708,
      "byteLength" : 30432
    },
    {
      "buffer" : 0,
      "byteOffset" : 46140,
      "byteLength" : 30432
    },
    {
      "buffer" : 0,
      "byteOffset" : 76572,
      "byteLength" : 40576
    },
    {
      "buffer" : 0,
      "byteOffset" : 117148,
      "byteLength" : 10144
    },
    {
      "buffer" : 0,
      "byteOffset" : 127292,
      "byteLength" : 20288
    },
    {
      "buffer" : 0,
      "byteOffset" : 147580,
      "byteLength" : 20288
    },
    {
      "buffer" : 0,
      "byteOffset" : 167868,
      "byteLength" : 20288
    },
    {
      "buffer" : 0,
      "byteOffset" : 188156,
      "byteLength" : 20288
    }
  ],
  "accessors" : [
    {
      "bufferView" : 0,
      "componentType" : 5123,
      "count" : 7854,
      "type" : "SCALAR"
    },
    {
      "bufferView" : 1,
      "min" : [ -0.694429, -5.0249e-06, -0.772441 ],
      "max" : [ 0.694429, 4.73039, 0.772441 ],
      "componentType" : 5126,
      "count" : 2536,
      "type" : "VEC3"
    },
    {
      "bufferView" : 2,
      "componentType" : 5126,
      "count" : 2536,
      "type" : "VEC3"
    },
    {
      "bufferView" : 3,
      "componentType" : 5126,
      "count" : 2536,
      "type" : "VEC4"
    },
    {
      "bufferView" : 4,
      "normalized" : true,
      "componentType" : 5121,
      "count" : 2536,
      "type" : "VEC4"
    },
    {
      "bufferView" : 5,
      "componentType" : 5126,
      "count" : 2536,
      "type" : "VEC2"
    },
    {
      "bufferView" : 6,
      "componentType" : 5126,
      "count" : 2536,
      "type" : "VEC2"
    },
    {
      "bufferView" : 7,
      "componentType" : 5126,
      "count" : 2536,
      "type" : "VEC2"
    },
    {
      "bufferView" : 8,
      "componentType" : 5126,
      "count" : 2536,
      "type" : "VEC2"
    }
  ]
}
