{
  "asset" : {
    "generator" : "UE Viewer (umodel) build 1544 based",
    "version" : "2.0"
  },
  "scene" : 0,
  "scenes" : [
    {
      "nodes" : [ 0 ]
    }
  ],
  "nodes" : [
    {
      "name" : "SM_ENV_LKNVLD_HL_Neputa_Naruto",
      "mesh" : 0
    }
  ],
  "materials" : [
    {
      "name" : "MI_ENV_LKNVLD_WoodPlain_Red",
      "pbrMetallicRoughness" : {
        "baseColorFactor" : [ 0.3, 0.3, 0.3, 1.0 ],
        "metallicFactor" : 0.1,
        "roughnessFactor" : 0.5
      }
    },
    {
      "name" : "MI_ENV_LKNVLD_WoodBoard_Natural_Lighter",
      "pbrMetallicRoughness" : {
        "baseColorFactor" : [ 0.9, 0.3, 0.3, 1.0 ],
        "metallicFactor" : 0.1,
        "roughnessFactor" : 0.5
      }
    },
    {
      "name" : "MI_ENV_LKNVLD_Neputa_Sasuke",
      "pbrMetallicRoughness" : {
        "baseColorFactor" : [ 0.3, 0.9, 0.3, 1.0 ],
        "metallicFactor" : 0.1,
        "roughnessFactor" : 0.5
      }
    },
    {
      "name" : "MI_ENV_LKNVLD_Neputa_Sasuke_EFX",
      "pbrMetallicRoughness" : {
        "baseColorFactor" : [ 0.3, 0.3, 0.9, 1.0 ],
        "metallicFactor" : 0.1,
        "roughnessFactor" : 0.5
      }
    },
    {
      "name" : "MI_ENV_LKNVLD_Neputa_Naruto",
      "pbrMetallicRoughness" : {
        "baseColorFactor" : [ 0.9, 0.9, 0.9, 1.0 ],
        "metallicFactor" : 0.1,
        "roughnessFactor" : 0.5
      }
    },
    {
      "name" : "MI_ENV_LKNVLD_Neputa_Naruto_EFX",
      "pbrMetallicRoughness" : {
        "baseColorFactor" : [ 0.9, 0.9, 0.3, 1.0 ],
        "metallicFactor" : 0.1,
        "roughnessFactor" : 0.5
      }
    }
  ],
  "meshes" : [
    {
      "primitives" : [
        {
          "attributes" : {
            "POSITION" : 1,
            "NORMAL" : 2,
            "TANGENT" : 3,
            "COLOR_0" : 4,
            "TEXCOORD_0" : 5,
            "TEXCOORD_1" : 6,
            "TEXCOORD_2" : 7,
            "TEXCOORD_3" : 8
          },
          "indices" : 0,
          "material" : 0
        },
        {
          "attributes" : {
            "POSITION" : 10,
            "NORMAL" : 11,
            "TANGENT" : 12,
            "COLOR_0" : 13,
            "TEXCOORD_0" : 14,
            "TEXCOORD_1" : 15,
            "TEXCOORD_2" : 16,
            "TEXCOORD_3" : 17
          },
          "indices" : 9,
          "material" : 1
        },
        {
          "attributes" : {
            "POSITION" : 19,
            "NORMAL" : 20,
            "TANGENT" : 21,
            "COLOR_0" : 22,
            "TEXCOORD_0" : 23,
            "TEXCOORD_1" : 24,
            "TEXCOORD_2" : 25,
            "TEXCOORD_3" : 26
          },
          "indices" : 18,
          "material" : 2
        },
        {
          "attributes" : {
            "POSITION" : 28,
            "NORMAL" : 29,
            "TANGENT" : 30,
            "COLOR_0" : 31,
            "TEXCOORD_0" : 32,
            "TEXCOORD_1" : 33,
            "TEXCOORD_2" : 34,
            "TEXCOORD_3" : 35
          },
          "indices" : 27,
          "material" : 3
        },
        {
          "attributes" : {
            "POSITION" : 37,
            "NORMAL" : 38,
            "TANGENT" : 39,
            "COLOR_0" : 40,
            "TEXCOORD_0" : 41,
            "TEXCOORD_1" : 42,
            "TEXCOORD_2" : 43,
            "TEXCOORD_3" : 44
          },
          "indices" : 36,
          "material" : 4
        },
        {
          "attributes" : {
            "POSITION" : 46,
            "NORMAL" : 47,
            "TANGENT" : 48,
            "COLOR_0" : 49,
            "TEXCOORD_0" : 50,
            "TEXCOORD_1" : 51,
            "TEXCOORD_2" : 52,
            "TEXCOORD_3" : 53
          },
          "indices" : 45,
          "material" : 5
        }
      ],
      "name" : "SM_ENV_LKNVLD_HL_Neputa_Naruto"
    }
  ],
  "buffers" : [
    {
      "uri" : "SM_ENV_LKNVLD_HL_Neputa_Naruto.bin",
      "byteLength" : 967564
    }
  ],
  "bufferViews" : [
    {
      "buffer" : 0,
      "byteOffset" : 0,
      "byteLength" : 8256
    },
    {
      "buffer" : 0,
      "byteOffset" : 8256,
      "byteLength" : 12480
    },
    {
      "buffer" : 0,
      "byteOffset" : 20736,
      "byteLength" : 12480
    },
    {
      "buffer" : 0,
      "byteOffset" : 33216,
      "byteLength" : 16640
    },
    {
      "buffer" : 0,
      "byteOffset" : 49856,
      "byteLength" : 4160
    },
    {
      "buffer" : 0,
      "byteOffset" : 54016,
      "byteLength" : 8320
    },
    {
      "buffer" : 0,
      "byteOffset" : 62336,
      "byteLength" : 8320
    },
    {
      "buffer" : 0,
      "byteOffset" : 70656,
      "byteLength" : 8320
    },
    {
      "buffer" : 0,
      "byteOffset" : 78976,
      "byteLength" : 8320
    },
    {
      "buffer" : 0,
      "byteOffset" : 87296,
      "byteLength" : 96
    },
    {
      "buffer" : 0,
      "byteOffset" : 87392,
      "byteLength" : 216
    },
    {
      "buffer" : 0,
      "byteOffset" : 87608,
      "byteLength" : 216
    },
    {
      "buffer" : 0,
      "byteOffset" : 87824,
      "byteLength" : 288
    },
    {
      "buffer" : 0,
      "byteOffset" : 88112,
      "byteLength" : 72
    },
    {
      "buffer" : 0,
      "byteOffset" : 88184,
      "byteLength" : 144
    },
    {
      "buffer" : 0,
      "byteOffset" : 88328,
      "byteLength" : 144
    },
    {
      "buffer" : 0,
      "byteOffset" : 88472,
      "byteLength" : 144
    },
    {
      "buffer" : 0,
      "byteOffset" : 88616,
      "byteLength" : 144
    },
    {
      "buffer" : 0,
      "byteOffset" : 88760,
      "byteLength" : 30392
    },
    {
      "buffer" : 0,
      "byteOffset" : 119152,
      "byteLength" : 44388
    },
    {
      "buffer" : 0,
      "byteOffset" : 163540,
      "byteLength" : 44388
    },
    {
      "buffer" : 0,
      "byteOffset" : 207928,
      "byteLength" : 59184
    },
    {
      "buffer" : 0,
      "byteOffset" : 267112,
      "byteLength" : 14796
    },
    {
      "buffer" : 0,
      "byteOffset" : 281908,
      "byteLength" : 29592
    },
    {
      "buffer" : 0,
      "byteOffset" : 311500,
      "byteLength" : 29592
    },
    {
      "buffer" : 0,
      "byteOffset" : 341092,
      "byteLength" : 29592
    },
    {
      "buffer" : 0,
      "byteOffset" : 370684,
      "byteLength" : 29592
    },
    {
      "buffer" : 0,
      "byteOffset" : 400276,
      "byteLength" : 14168
    },
    {
      "buffer" : 0,
      "byteOffset" : 414444,
      "byteLength" : 19404
    },
    {
      "buffer" : 0,
      "byteOffset" : 433848,
      "byteLength" : 19404
    },
    {
      "buffer" : 0,
      "byteOffset" : 453252,
      "byteLength" : 25872
    },
    {
      "buffer" : 0,
      "byteOffset" : 479124,
      "byteLength" : 6468
    },
    {
      "buffer" : 0,
      "byteOffset" : 485592,
      "byteLength" : 12936
    },
    {
      "buffer" : 0,
      "byteOffset" : 498528,
      "byteLength" : 12936
    },
    {
      "buffer" : 0,
      "byteOffset" : 511464,
      "byteLength" : 12936
    },
    {
      "buffer" : 0,
      "byteOffset" : 524400,
      "byteLength" : 12936
    },
    {
      "buffer" : 0,
      "byteOffset" : 537336,
      "byteLength" : 25632
    },
    {
      "buffer" : 0,
      "byteOffset" : 562968,
      "byteLength" : 36492
    },
    {
      "buffer" : 0,
      "byteOffset" : 599460,
      "byteLength" : 36492
    },
    {
      "buffer" : 0,
      "byteOffset" : 635952,
      "byteLength" : 48656
    },
    {
      "buffer" : 0,
      "byteOffset" : 684608,
      "byteLength" : 12164
    },
    {
      "buffer" : 0,
      "byteOffset" : 696772,
      "byteLength" : 24328
    },
    {
      "buffer" : 0,
      "byteOffset" : 721100,
      "byteLength" : 24328
    },
    {
      "buffer" : 0,
      "byteOffset" : 745428,
      "byteLength" : 24328
    },
    {
      "buffer" : 0,
      "byteOffset" : 769756,
      "byteLength" : 24328
    },
    {
      "buffer" : 0,
      "byteOffset" : 794084,
      "byteLength" : 20112
    },
    {
      "buffer" : 0,
      "byteOffset" : 814196,
      "byteLength" : 24216
    },
    {
      "buffer" : 0,
      "byteOffset" : 838412,
      "byteLength" : 24216
    },
    {
      "buffer" : 0,
      "byteOffset" : 862628,
      "byteLength" : 32288
    },
    {
      "buffer" : 0,
      "byteOffset" : 894916,
      "byteLength" : 8072
    },
    {
      "buffer" : 0,
      "byteOffset" : 902988,
      "byteLength" : 16144
    },
    {
      "buffer" : 0,
      "byteOffset" : 919132,
      "byteLength" : 16144
    },
    {
      "buffer" : 0,
      "byteOffset" : 935276,
      "byteLength" : 16144
    },
    {
      "buffer" : 0,
      "byteOffset" : 951420,
      "byteLength" : 16144
    }
  ],
  "accessors" : [
    {
      "bufferView" : 0,
      "componentType" : 5123,
      "count" : 4128,
      "type" : "SCALAR"
    },
    {
      "bufferView" : 1,
      "min" : [ -19.3674, 5.5, 60 ],
      "max" : [ 19.3674, 10, 72 ],
      "componentType" : 5126,
      "count" : 1040,
      "type" : "VEC3"
    },
    {
      "bufferView" : 2,
      "componentType" : 5126,
      "count" : 1040,
      "type" : "VEC3"
    },
    {
      "bufferView" : 3,
      "componentType" : 5126,
      "count" : 1040,
      "type" : "VEC4"
    },
    {
      "bufferView" : 4,
      "normalized" : true,
      "componentType" : 5121,
      "count" : 1040,
      "type" : "VEC4"
    },
    {
      "bufferView" : 5,
      "componentType" : 5126,
      "count" : 1040,
      "type" : "VEC2"
    },
    {
      "bufferView" : 6,
      "componentType" : 5126,
      "count" : 1040,
      "type" : "VEC2"
    },
    {
      "bufferView" : 7,
      "componentType" : 5126,
      "count" : 1040,
      "type" : "VEC2"
    },
    {
      "bufferView" : 8,
      "componentType" : 5126,
      "count" : 1040,
      "type" : "VEC2"
    },
    {
      "bufferView" : 9,
      "componentType" : 5123,
      "count" : 48,
      "type" : "SCALAR"
    },
    {
      "bufferView" : 10,
      "min" : [ -19.1, 9.27312, 60.4 ],
      "max" : [ 19.1, 10, 71.7 ],
      "componentType" : 5126,
      "count" : 18,
      "type" : "VEC3"
    },
    {
      "bufferView" : 11,
      "componentType" : 5126,
      "count" : 18,
      "type" : "VEC3"
    },
    {
      "bufferView" : 12,
      "componentType" : 5126,
      "count" : 18,
      "type" : "VEC4"
    },
    {
      "bufferView" : 13,
      "normalized" : true,
      "componentType" : 5121,
      "count" : 18,
      "type" : "VEC4"
    },
    {
      "bufferView" : 14,
      "componentType" : 5126,
      "count" : 18,
      "type" : "VEC2"
    },
    {
      "bufferView" : 15,
      "componentType" : 5126,
      "count" : 18,
      "type" : "VEC2"
    },
    {
      "bufferView" : 16,
      "componentType" : 5126,
      "count" : 18,
      "type" : "VEC2"
    },
    {
      "bufferView" : 17,
      "componentType" : 5126,
      "count" : 18,
      "type" : "VEC2"
    },
    {
      "bufferView" : 18,
      "componentType" : 5123,
      "count" : 15195,
      "type" : "SCALAR"
    },
    {
      "bufferView" : 19,
      "min" : [ -18.591, 9.4878, 51.6127 ],
      "max" : [ 0.745713, 25.55, 70.6706 ],
      "componentType" : 5126,
      "count" : 3699,
      "type" : "VEC3"
    },
    {
      "bufferView" : 20,
      "componentType" : 5126,
      "count" : 3699,
      "type" : "VEC3"
    },
    {
      "bufferView" : 21,
      "componentType" : 5126,
      "count" : 3699,
      "type" : "VEC4"
    },
    {
      "bufferView" : 22,
      "normalized" : true,
      "componentType" : 5121,
      "count" : 3699,
      "type" : "VEC4"
    },
    {
      "bufferView" : 23,
      "componentType" : 5126,
      "count" : 3699,
      "type" : "VEC2"
    },
    {
      "bufferView" : 24,
      "componentType" : 5126,
      "count" : 3699,
      "type" : "VEC2"
    },
    {
      "bufferView" : 25,
      "componentType" : 5126,
      "count" : 3699,
      "type" : "VEC2"
    },
    {
      "bufferView" : 26,
      "componentType" : 5126,
      "count" : 3699,
      "type" : "VEC2"
    },
    {
      "bufferView" : 27,
      "componentType" : 5123,
      "count" : 7083,
      "type" : "SCALAR"
    },
    {
      "bufferView" : 28,
      "min" : [ -22.0022, 9.64347, 52.1856 ],
      "max" : [ 14.3038, 30.7864, 74.3224 ],
      "componentType" : 5126,
      "count" : 1617,
      "type" : "VEC3"
    },
    {
      "bufferView" : 29,
      "componentType" : 5126,
      "count" : 1617,
      "type" : "VEC3"
    },
    {
      "bufferView" : 30,
      "componentType" : 5126,
      "count" : 1617,
      "type" : "VEC4"
    },
    {
      "bufferView" : 31,
      "normalized" : true,
      "componentType" : 5121,
      "count" : 1617,
      "type" : "VEC4"
    },
    {
      "bufferView" : 32,
      "componentType" : 5126,
      "count" : 1617,
      "type" : "VEC2"
    },
    {
      "bufferView" : 33,
      "componentType" : 5126,
      "count" : 1617,
      "type" : "VEC2"
    },
    {
      "bufferView" : 34,
      "componentType" : 5126,
      "count" : 1617,
      "type" : "VEC2"
    },
    {
      "bufferView" : 35,
      "componentType" : 5126,
      "count" : 1617,
      "type" : "VEC2"
    },
    {
      "bufferView" : 36,
      "componentType" : 5123,
      "count" : 12816,
      "type" : "SCALAR"
    },
    {
      "bufferView" : 37,
      "min" : [ 2.01248, 9.70974, 51.3099 ],
      "max" : [ 18.313, 23.8359, 69.9028 ],
      "componentType" : 5126,
      "count" : 3041,
      "type" : "VEC3"
    },
    {
      "bufferView" : 38,
      "componentType" : 5126,
      "count" : 3041,
      "type" : "VEC3"
    },
    {
      "bufferView" : 39,
      "componentType" : 5126,
      "count" : 3041,
      "type" : "VEC4"
    },
    {
      "bufferView" : 40,
      "normalized" : true,
      "componentType" : 5121,
      "count" : 3041,
      "type" : "VEC4"
    },
    {
      "bufferView" : 41,
      "componentType" : 5126,
      "count" : 3041,
      "type" : "VEC2"
    },
    {
      "bufferView" : 42,
      "componentType" : 5126,
      "count" : 3041,
      "type" : "VEC2"
    },
    {
      "bufferView" : 43,
      "componentType" : 5126,
      "count" : 3041,
      "type" : "VEC2"
    },
    {
      "bufferView" : 44,
      "componentType" : 5126,
      "count" : 3041,
      "type" : "VEC2"
    },
    {
      "bufferView" : 45,
      "componentType" : 5123,
      "count" : 10056,
      "type" : "SCALAR"
    },
    {
      "bufferView" : 46,
      "min" : [ -0.705685, 9.85871, 57.6097 ],
      "max" : [ 21.4218, 28.531, 73.6344 ],
      "componentType" : 5126,
      "count" : 2018,
      "type" : "VEC3"
    },
    {
      "bufferView" : 47,
      "componentType" : 5126,
      "count" : 2018,
      "type" : "VEC3"
    },
    {
      "bufferView" : 48,
      "componentType" : 5126,
      "count" : 2018,
      "type" : "VEC4"
    },
    {
      "bufferView" : 49,
      "normalized" : true,
      "componentType" : 5121,
      "count" : 2018,
      "type" : "VEC4"
    },
    {
      "bufferView" : 50,
      "componentType" : 5126,
      "count" : 2018,
      "type" : "VEC2"
    },
    {
      "bufferView" : 51,
      "componentType" : 5126,
      "count" : 2018,
      "type" : "VEC2"
    },
    {
      "bufferView" : 52,
      "componentType" : 5126,
      "count" : 2018,
      "type" : "VEC2"
    },
    {
      "bufferView" : 53,
      "componentType" : 5126,
      "count" : 2018,
      "type" : "VEC2"
    }
  ]
}
