{
  "asset" : {
    "generator" : "UE Viewer (umodel) build 1544 based",
    "version" : "2.0"
  },
  "scene" : 0,
  "scenes" : [
    {
      "nodes" : [ 0 ]
    }
  ],
  "nodes" : [
    {
      "name" : "SM_ENV_LKNVLD_TreeSet_C_Lod3",
      "mesh" : 0
    }
  ],
  "materials" : [
    {
      "name" : "MI_ENV_LKNVLD_Tree_A_Masked_CameraTrans",
      "pbrMetallicRoughness" : {
        "baseColorFactor" : [ 0.3, 0.3, 0.3, 1.0 ],
        "metallicFactor" : 0.1,
        "roughnessFactor" : 0.5
      }
    },
    {
      "name" : "MI_ENV_LKNVLD_LeafMasked_A",
      "pbrMetallicRoughness" : {
        "baseColorFactor" : [ 0.9, 0.3, 0.3, 1.0 ],
        "metallicFactor" : 0.1,
        "roughnessFactor" : 0.5
      }
    },
    {
      "name" : "MI_ENV_LKNVLD_Leaf_A",
      "pbrMetallicRoughness" : {
        "baseColorFactor" : [ 0.3, 0.9, 0.3, 1.0 ],
        "metallicFactor" : 0.1,
        "roughnessFactor" : 0.5
      }
    }
  ],
  "meshes" : [
    {
      "primitives" : [
        {
          "attributes" : {
            "POSITION" : 1,
            "NORMAL" : 2,
            "TANGENT" : 3,
            "COLOR_0" : 4,
            "TEXCOORD_0" : 5,
            "TEXCOORD_1" : 6,
            "TEXCOORD_2" : 7,
            "TEXCOORD_3" : 8
          },
          "indices" : 0,
          "material" : 0
        },
        {
          "attributes" : {
            "POSITION" : 10,
            "NORMAL" : 11,
            "TANGENT" : 12,
            "COLOR_0" : 13,
            "TEXCOORD_0" : 14,
            "TEXCOORD_1" : 15,
            "TEXCOORD_2" : 16,
            "TEXCOORD_3" : 17
          },
          "indices" : 9,
          "material" : 1
        },
        {
          "attributes" : {
            "POSITION" : 19,
            "NORMAL" : 20,
            "TANGENT" : 21,
            "COLOR_0" : 22,
            "TEXCOORD_0" : 23,
            "TEXCOORD_1" : 24,
            "TEXCOORD_2" : 25,
            "TEXCOORD_3" : 26
          },
          "indices" : 18,
          "material" : 2
        }
      ],
      "name" : "SM_ENV_LKNVLD_TreeSet_C_Lod3"
    }
  ],
  "buffers" : [
    {
      "uri" : "SM_ENV_LKNVLD_TreeSet_C_Lod3.bin",
      "byteLength" : 1180200
    }
  ],
  "bufferViews" : [
    {
      "buffer" : 0,
      "byteOffset" : 0,
      "byteLength" : 1968
    },
    {
      "buffer" : 0,
      "byteOffset" : 1968,
      "byteLength" : 9444
    },
    {
      "buffer" : 0,
      "byteOffset" : 11412,
      "byteLength" : 9444
    },
    {
      "buffer" : 0,
      "byteOffset" : 20856,
      "byteLength" : 12592
    },
    {
      "buffer" : 0,
      "byteOffset" : 33448,
      "byteLength" : 3148
    },
    {
      "buffer" : 0,
      "byteOffset" : 36596,
      "byteLength" : 6296
    },
    {
      "buffer" : 0,
      "byteOffset" : 42892,
      "byteLength" : 6296
    },
    {
      "buffer" : 0,
      "byteOffset" : 49188,
      "byteLength" : 6296
    },
    {
      "buffer" : 0,
      "byteOffset" : 55484,
      "byteLength" : 6296
    },
    {
      "buffer" : 0,
      "byteOffset" : 61780,
      "byteLength" : 31688
    },
    {
      "buffer" : 0,
      "byteOffset" : 93468,
      "byteLength" : 138336
    },
    {
      "buffer" : 0,
      "byteOffset" : 231804,
      "byteLength" : 138336
    },
    {
      "buffer" : 0,
      "byteOffset" : 370140,
      "byteLength" : 184448
    },
    {
      "buffer" : 0,
      "byteOffset" : 554588,
      "byteLength" : 46112
    },
    {
      "buffer" : 0,
      "byteOffset" : 600700,
      "byteLength" : 92224
    },
    {
      "buffer" : 0,
      "byteOffset" : 692924,
      "byteLength" : 92224
    },
    {
      "buffer" : 0,
      "byteOffset" : 785148,
      "byteLength" : 92224
    },
    {
      "buffer" : 0,
      "byteOffset" : 877372,
      "byteLength" : 92224
    },
    {
      "buffer" : 0,
      "byteOffset" : 969596,
      "byteLength" : 6240
    },
    {
      "buffer" : 0,
      "byteOffset" : 975836,
      "byteLength" : 32268
    },
    {
      "buffer" : 0,
      "byteOffset" : 1008104,
      "byteLength" : 32268
    },
    {
      "buffer" : 0,
      "byteOffset" : 1040372,
      "byteLength" : 43024
    },
    {
      "buffer" : 0,
      "byteOffset" : 1083396,
      "byteLength" : 10756
    },
    {
      "buffer" : 0,
      "byteOffset" : 1094152,
      "byteLength" : 21512
    },
    {
      "buffer" : 0,
      "byteOffset" : 1115664,
      "byteLength" : 21512
    },
    {
      "buffer" : 0,
      "byteOffset" : 1137176,
      "byteLength" : 21512
    },
    {
      "buffer" : 0,
      "byteOffset" : 1158688,
      "byteLength" : 21512
    }
  ],
  "accessors" : [
    {
      "bufferView" : 0,
      "componentType" : 5123,
      "count" : 984,
      "type" : "SCALAR"
    },
    {
      "bufferView" : 1,
      "min" : [ 46.9678, -0.290597, -46.049 ],
      "max" : [ 59.5994, 7.57765, -34.0701 ],
      "componentType" : 5126,
      "count" : 787,
      "type" : "VEC3"
    },
    {
      "bufferView" : 2,
      "componentType" : 5126,
      "count" : 787,
      "type" : "VEC3"
    },
    {
      "bufferView" : 3,
      "componentType" : 5126,
      "count" : 787,
      "type" : "VEC4"
    },
    {
      "bufferView" : 4,
      "normalized" : true,
      "componentType" : 5121,
      "count" : 787,
      "type" : "VEC4"
    },
    {
      "bufferView" : 5,
      "componentType" : 5126,
      "count" : 787,
      "type" : "VEC2"
    },
    {
      "bufferView" : 6,
      "componentType" : 5126,
      "count" : 787,
      "type" : "VEC2"
    },
    {
      "bufferView" : 7,
      "componentType" : 5126,
      "count" : 787,
      "type" : "VEC2"
    },
    {
      "bufferView" : 8,
      "componentType" : 5126,
      "count" : 787,
      "type" : "VEC2"
    },
    {
      "bufferView" : 9,
      "componentType" : 5123,
      "count" : 15843,
      "type" : "SCALAR"
    },
    {
      "bufferView" : 10,
      "min" : [ 44.7725, 3.7928, -48.0775 ],
      "max" : [ 61.9871, 8.89674, -32.961 ],
      "componentType" : 5126,
      "count" : 11528,
      "type" : "VEC3"
    },
    {
      "bufferView" : 11,
      "componentType" : 5126,
      "count" : 11528,
      "type" : "VEC3"
    },
    {
      "bufferView" : 12,
      "componentType" : 5126,
      "count" : 11528,
      "type" : "VEC4"
    },
    {
      "bufferView" : 13,
      "normalized" : true,
      "componentType" : 5121,
      "count" : 11528,
      "type" : "VEC4"
    },
    {
      "bufferView" : 14,
      "componentType" : 5126,
      "count" : 11528,
      "type" : "VEC2"
    },
    {
      "bufferView" : 15,
      "componentType" : 5126,
      "count" : 11528,
      "type" : "VEC2"
    },
    {
      "bufferView" : 16,
      "componentType" : 5126,
      "count" : 11528,
      "type" : "VEC2"
    },
    {
      "bufferView" : 17,
      "componentType" : 5126,
      "count" : 11528,
      "type" : "VEC2"
    },
    {
      "bufferView" : 18,
      "componentType" : 5123,
      "count" : 3120,
      "type" : "SCALAR"
    },
    {
      "bufferView" : 19,
      "min" : [ 45.1135, 4.00496, -47.8919 ],
      "max" : [ 61.7465, 8.64217, -33.1032 ],
      "componentType" : 5126,
      "count" : 2689,
      "type" : "VEC3"
    },
    {
      "bufferView" : 20,
      "componentType" : 5126,
      "count" : 2689,
      "type" : "VEC3"
    },
    {
      "bufferView" : 21,
      "componentType" : 5126,
      "count" : 2689,
      "type" : "VEC4"
    },
    {
      "bufferView" : 22,
      "normalized" : true,
      "componentType" : 5121,
      "count" : 2689,
      "type" : "VEC4"
    },
    {
      "bufferView" : 23,
      "componentType" : 5126,
      "count" : 2689,
      "type" : "VEC2"
    },
    {
      "bufferView" : 24,
      "componentType" : 5126,
      "count" : 2689,
      "type" : "VEC2"
    },
    {
      "bufferView" : 25,
      "componentType" : 5126,
      "count" : 2689,
      "type" : "VEC2"
    },
    {
      "bufferView" : 26,
      "componentType" : 5126,
      "count" : 2689,
      "type" : "VEC2"
    }
  ]
}
