{
  "asset" : {
    "generator" : "UE Viewer (umodel) build 1544 based",
    "version" : "2.0"
  },
  "scene" : 0,
  "scenes" : [
    {
      "nodes" : [ 0 ]
    }
  ],
  "nodes" : [
    {
      "name" : "SM_ENV_LKNVLD_PaperLantern_A_Lod1",
      "mesh" : 0
    }
  ],
  "materials" : [
    {
      "name" : "MI_ENV_LKNVLD_PaperLantern_A",
      "pbrMetallicRoughness" : {
        "baseColorFactor" : [ 0.3, 0.3, 0.3, 1.0 ],
        "metallicFactor" : 0.1,
        "roughnessFactor" : 0.5
      }
    }
  ],
  "meshes" : [
    {
      "primitives" : [
        {
          "attributes" : {
            "POSITION" : 1,
            "NORMAL" : 2,
            "TANGENT" : 3,
            "TEXCOORD_0" : 4,
            "TEXCOORD_1" : 5,
            "TEXCOORD_2" : 6,
            "TEXCOORD_3" : 7
          },
          "indices" : 0,
          "material" : 0
        }
      ],
      "name" : "SM_ENV_LKNVLD_PaperLantern_A_Lod1"
    }
  ],
  "buffers" : [
    {
      "uri" : "SM_ENV_LKNVLD_PaperLantern_A_Lod1.bin",
      "byteLength" : 49788
    }
  ],
  "bufferViews" : [
    {
      "buffer" : 0,
      "byteOffset" : 0,
      "byteLength" : 4644
    },
    {
      "buffer" : 0,
      "byteOffset" : 4644,
      "byteLength" : 7524
    },
    {
      "buffer" : 0,
      "byteOffset" : 12168,
      "byteLength" : 7524
    },
    {
      "buffer" : 0,
      "byteOffset" : 19692,
      "byteLength" : 10032
    },
    {
      "buffer" : 0,
      "byteOffset" : 29724,
      "byteLength" : 5016
    },
    {
      "buffer" : 0,
      "byteOffset" : 34740,
      "byteLength" : 5016
    },
    {
      "buffer" : 0,
      "byteOffset" : 39756,
      "byteLength" : 5016
    },
    {
      "buffer" : 0,
      "byteOffset" : 44772,
      "byteLength" : 5016
    }
  ],
  "accessors" : [
    {
      "bufferView" : 0,
      "componentType" : 5123,
      "count" : 2322,
      "type" : "SCALAR"
    },
    {
      "bufferView" : 1,
      "min" : [ -0.218751, 0.0190397, -0.218751 ],
      "max" : [ 0.218751, 0.998182, 0.218751 ],
      "componentType" : 5126,
      "count" : 627,
      "type" : "VEC3"
    },
    {
      "bufferView" : 2,
      "componentType" : 5126,
      "count" : 627,
      "type" : "VEC3"
    },
    {
      "bufferView" : 3,
      "componentType" : 5126,
      "count" : 627,
      "type" : "VEC4"
    },
    {
      "bufferView" : 4,
      "componentType" : 5126,
      "count" : 627,
      "type" : "VEC2"
    },
    {
      "bufferView" : 5,
      "componentType" : 5126,
      "count" : 627,
      "type" : "VEC2"
    },
    {
      "bufferView" : 6,
      "componentType" : 5126,
      "count" : 627,
      "type" : "VEC2"
    },
    {
      "bufferView" : 7,
      "componentType" : 5126,
      "count" : 627,
      "type" : "VEC2"
    }
  ]
}
