{
  "asset" : {
    "generator" : "UE Viewer (umodel) build 1544 based",
    "version" : "2.0"
  },
  "scene" : 0,
  "scenes" : [
    {
      "nodes" : [ 0 ]
    }
  ],
  "nodes" : [
    {
      "name" : "SM_ENV_LKNVLD_VRArena_Front",
      "mesh" : 0
    }
  ],
  "materials" : [
    {
      "name" : "MI_ENV_LKNVLD_WoodPlain_Red",
      "pbrMetallicRoughness" : {
        "baseColorFactor" : [ 0.3, 0.3, 0.3, 1.0 ],
        "metallicFactor" : 0.1,
        "roughnessFactor" : 0.5
      }
    },
    {
      "name" : "MI_ENV_LKNVLD_WoodWallSet",
      "pbrMetallicRoughness" : {
        "baseColorFactor" : [ 0.9, 0.3, 0.3, 1.0 ],
        "metallicFactor" : 0.1,
        "roughnessFactor" : 0.5
      }
    },
    {
      "name" : "MI_ENV_LKNVLD_Signboard_A",
      "pbrMetallicRoughness" : {
        "baseColorFactor" : [ 0.3, 0.9, 0.3, 1.0 ],
        "metallicFactor" : 0.1,
        "roughnessFactor" : 0.5
      }
    },
    {
      "name" : "MI_ENV_LKNVLD_Signboard_B",
      "pbrMetallicRoughness" : {
        "baseColorFactor" : [ 0.3, 0.3, 0.9, 1.0 ],
        "metallicFactor" : 0.1,
        "roughnessFactor" : 0.5
      }
    },
    {
      "name" : "MI_T_ENV_LKNVLD_StoneTrim",
      "pbrMetallicRoughness" : {
        "baseColorFactor" : [ 0.9, 0.9, 0.9, 1.0 ],
        "metallicFactor" : 0.1,
        "roughnessFactor" : 0.5
      }
    },
    {
      "name" : "MI_ENV_LKNVLD_WoodWallSet_Red",
      "pbrMetallicRoughness" : {
        "baseColorFactor" : [ 0.9, 0.9, 0.3, 1.0 ],
        "metallicFactor" : 0.1,
        "roughnessFactor" : 0.5
      }
    },
    {
      "name" : "MI_ENV_LKNVLD_MetalRoofDark",
      "pbrMetallicRoughness" : {
        "baseColorFactor" : [ 0.9, 0.3, 0.9, 1.0 ],
        "metallicFactor" : 0.1,
        "roughnessFactor" : 0.5
      }
    },
    {
      "name" : "MI_ENV_LKNVLD_Eaves_B",
      "pbrMetallicRoughness" : {
        "baseColorFactor" : [ 0.3, 0.9, 0.9, 1.0 ],
        "metallicFactor" : 0.1,
        "roughnessFactor" : 0.5
      }
    },
    {
      "name" : "MI_ENV_LKNVLD_Eaves_A",
      "pbrMetallicRoughness" : {
        "baseColorFactor" : [ 1, 0.3, 0.3, 1.0 ],
        "metallicFactor" : 0.1,
        "roughnessFactor" : 0.5
      }
    },
    {
      "name" : "MI_ENV_LKNVLD_Plaster_Purple",
      "pbrMetallicRoughness" : {
        "baseColorFactor" : [ 0.6, 0.3, 0.3, 1.0 ],
        "metallicFactor" : 0.1,
        "roughnessFactor" : 0.5
      }
    },
    {
      "name" : "MI_ENV_LKNVLD_Lantern_A",
      "pbrMetallicRoughness" : {
        "baseColorFactor" : [ 1, 0.9, 0.3, 1.0 ],
        "metallicFactor" : 0.1,
        "roughnessFactor" : 0.5
      }
    },
    {
      "name" : "MI_ENV_LKNVLD_WoodBoard_Purple",
      "pbrMetallicRoughness" : {
        "baseColorFactor" : [ 1, 0.3, 0.9, 1.0 ],
        "metallicFactor" : 0.1,
        "roughnessFactor" : 0.5
      }
    },
    {
      "name" : "MI_ENV_LKNVLD_Plaster",
      "pbrMetallicRoughness" : {
        "baseColorFactor" : [ 0.6, 0.9, 0.9, 1.0 ],
        "metallicFactor" : 0.1,
        "roughnessFactor" : 0.5
      }
    },
    {
      "name" : "MI_ENV_LKNVLD_Plaster",
      "pbrMetallicRoughness" : {
        "baseColorFactor" : [ 0.6, 0.9, 0.3, 1.0 ],
        "metallicFactor" : 0.1,
        "roughnessFactor" : 0.5
      }
    },
    {
      "name" : "MI_ENV_LKNVLD_Plaster_Dark",
      "pbrMetallicRoughness" : {
        "baseColorFactor" : [ 0.6, 0.3, 0.9, 1.0 ],
        "metallicFactor" : 0.1,
        "roughnessFactor" : 0.5
      }
    },
    {
      "name" : "MI_ENV_LKNVLD_WoodBoard_Natural",
      "pbrMetallicRoughness" : {
        "baseColorFactor" : [ 1, 0.9, 0.9, 1.0 ],
        "metallicFactor" : 0.1,
        "roughnessFactor" : 0.5
      }
    },
    {
      "name" : "MI_ENV_LKNVLD_MetalRoof_Orange",
      "pbrMetallicRoughness" : {
        "baseColorFactor" : [ 0.3, 1, 0.3, 1.0 ],
        "metallicFactor" : 0.1,
        "roughnessFactor" : 0.5
      }
    },
    {
      "name" : "MI_ENV_LKNVLD_Metal_C",
      "pbrMetallicRoughness" : {
        "baseColorFactor" : [ 0.9, 1, 0.3, 1.0 ],
        "metallicFactor" : 0.1,
        "roughnessFactor" : 0.5
      }
    },
    {
      "name" : "MI_ENV_LKNVLD_Aircon_A",
      "pbrMetallicRoughness" : {
        "baseColorFactor" : [ 0.3, 0.6, 0.3, 1.0 ],
        "metallicFactor" : 0.1,
        "roughnessFactor" : 0.5
      }
    },
    {
      "name" : "MI_T_ENV_LKNVLD_StoneStairs",
      "pbrMetallicRoughness" : {
        "baseColorFactor" : [ 0.3, 1, 0.9, 1.0 ],
        "metallicFactor" : 0.1,
        "roughnessFactor" : 0.5
      }
    },
    {
      "name" : "MI_ENV_LKNVLD_Door_A",
      "pbrMetallicRoughness" : {
        "baseColorFactor" : [ 0.9, 0.6, 0.9, 1.0 ],
        "metallicFactor" : 0.1,
        "roughnessFactor" : 0.5
      }
    }
  ],
  "meshes" : [
    {
      "primitives" : [
        {
          "attributes" : {
            "POSITION" : 1,
            "NORMAL" : 2,
            "TANGENT" : 3,
            "TEXCOORD_0" : 4,
            "TEXCOORD_1" : 5,
            "TEXCOORD_2" : 6,
            "TEXCOORD_3" : 7
          },
          "indices" : 0,
          "material" : 0
        },
        {
          "attributes" : {
            "POSITION" : 9,
            "NORMAL" : 10,
            "TANGENT" : 11,
            "TEXCOORD_0" : 12,
            "TEXCOORD_1" : 13,
            "TEXCOORD_2" : 14,
            "TEXCOORD_3" : 15
          },
          "indices" : 8,
          "material" : 1
        },
        {
          "attributes" : {
            "POSITION" : 17,
            "NORMAL" : 18,
            "TANGENT" : 19,
            "TEXCOORD_0" : 20,
            "TEXCOORD_1" : 21,
            "TEXCOORD_2" : 22,
            "TEXCOORD_3" : 23
          },
          "indices" : 16,
          "material" : 2
        },
        {
          "attributes" : {
            "POSITION" : 25,
            "NORMAL" : 26,
            "TANGENT" : 27,
            "TEXCOORD_0" : 28,
            "TEXCOORD_1" : 29,
            "TEXCOORD_2" : 30,
            "TEXCOORD_3" : 31
          },
          "indices" : 24,
          "material" : 3
        },
        {
          "attributes" : {
            "POSITION" : 33,
            "NORMAL" : 34,
            "TANGENT" : 35,
            "TEXCOORD_0" : 36,
            "TEXCOORD_1" : 37,
            "TEXCOORD_2" : 38,
            "TEXCOORD_3" : 39
          },
          "indices" : 32,
          "material" : 4
        },
        {
          "attributes" : {
            "POSITION" : 41,
            "NORMAL" : 42,
            "TANGENT" : 43,
            "TEXCOORD_0" : 44,
            "TEXCOORD_1" : 45,
            "TEXCOORD_2" : 46,
            "TEXCOORD_3" : 47
          },
          "indices" : 40,
          "material" : 5
        },
        {
          "attributes" : {
            "POSITION" : 49,
            "NORMAL" : 50,
            "TANGENT" : 51,
            "TEXCOORD_0" : 52,
            "TEXCOORD_1" : 53,
            "TEXCOORD_2" : 54,
            "TEXCOORD_3" : 55
          },
          "indices" : 48,
          "material" : 6
        },
        {
          "attributes" : {
            "POSITION" : 57,
            "NORMAL" : 58,
            "TANGENT" : 59,
            "TEXCOORD_0" : 60,
            "TEXCOORD_1" : 61,
            "TEXCOORD_2" : 62,
            "TEXCOORD_3" : 63
          },
          "indices" : 56,
          "material" : 7
        },
        {
          "attributes" : {
            "POSITION" : 65,
            "NORMAL" : 66,
            "TANGENT" : 67,
            "TEXCOORD_0" : 68,
            "TEXCOORD_1" : 69,
            "TEXCOORD_2" : 70,
            "TEXCOORD_3" : 71
          },
          "indices" : 64,
          "material" : 8
        },
        {
          "attributes" : {
            "POSITION" : 73,
            "NORMAL" : 74,
            "TANGENT" : 75,
            "TEXCOORD_0" : 76,
            "TEXCOORD_1" : 77,
            "TEXCOORD_2" : 78,
            "TEXCOORD_3" : 79
          },
          "indices" : 72,
          "material" : 9
        },
        {
          "attributes" : {
            "POSITION" : 81,
            "NORMAL" : 82,
            "TANGENT" : 83,
            "TEXCOORD_0" : 84,
            "TEXCOORD_1" : 85,
            "TEXCOORD_2" : 86,
            "TEXCOORD_3" : 87
          },
          "indices" : 80,
          "material" : 10
        },
        {
          "attributes" : {
            "POSITION" : 89,
            "NORMAL" : 90,
            "TANGENT" : 91,
            "TEXCOORD_0" : 92,
            "TEXCOORD_1" : 93,
            "TEXCOORD_2" : 94,
            "TEXCOORD_3" : 95
          },
          "indices" : 88,
          "material" : 11
        },
        {
          "attributes" : {
            "POSITION" : 97,
            "NORMAL" : 98,
            "TANGENT" : 99,
            "TEXCOORD_0" : 100,
            "TEXCOORD_1" : 101,
            "TEXCOORD_2" : 102,
            "TEXCOORD_3" : 103
          },
          "indices" : 96,
          "material" : 12
        },
        {
          "attributes" : {
            "POSITION" : 105,
            "NORMAL" : 106,
            "TANGENT" : 107,
            "TEXCOORD_0" : 108,
            "TEXCOORD_1" : 109,
            "TEXCOORD_2" : 110,
            "TEXCOORD_3" : 111
          },
          "indices" : 104,
          "material" : 13
        },
        {
          "attributes" : {
            "POSITION" : 113,
            "NORMAL" : 114,
            "TANGENT" : 115,
            "TEXCOORD_0" : 116,
            "TEXCOORD_1" : 117,
            "TEXCOORD_2" : 118,
            "TEXCOORD_3" : 119
          },
          "indices" : 112,
          "material" : 14
        },
        {
          "attributes" : {
            "POSITION" : 121,
            "NORMAL" : 122,
            "TANGENT" : 123,
            "TEXCOORD_0" : 124,
            "TEXCOORD_1" : 125,
            "TEXCOORD_2" : 126,
            "TEXCOORD_3" : 127
          },
          "indices" : 120,
          "material" : 15
        },
        {
          "attributes" : {
            "POSITION" : 129,
            "NORMAL" : 130,
            "TANGENT" : 131,
            "TEXCOORD_0" : 132,
            "TEXCOORD_1" : 133,
            "TEXCOORD_2" : 134,
            "TEXCOORD_3" : 135
          },
          "indices" : 128,
          "material" : 16
        },
        {
          "attributes" : {
            "POSITION" : 137,
            "NORMAL" : 138,
            "TANGENT" : 139,
            "TEXCOORD_0" : 140,
            "TEXCOORD_1" : 141,
            "TEXCOORD_2" : 142,
            "TEXCOORD_3" : 143
          },
          "indices" : 136,
          "material" : 17
        },
        {
          "attributes" : {
            "POSITION" : 145,
            "NORMAL" : 146,
            "TANGENT" : 147,
            "TEXCOORD_0" : 148,
            "TEXCOORD_1" : 149,
            "TEXCOORD_2" : 150,
            "TEXCOORD_3" : 151
          },
          "indices" : 144,
          "material" : 18
        },
        {
          "attributes" : {
            "POSITION" : 153,
            "NORMAL" : 154,
            "TANGENT" : 155,
            "TEXCOORD_0" : 156,
            "TEXCOORD_1" : 157,
            "TEXCOORD_2" : 158,
            "TEXCOORD_3" : 159
          },
          "indices" : 152,
          "material" : 19
        },
        {
          "attributes" : {
            "POSITION" : 161,
            "NORMAL" : 162,
            "TANGENT" : 163,
            "TEXCOORD_0" : 164,
            "TEXCOORD_1" : 165,
            "TEXCOORD_2" : 166,
            "TEXCOORD_3" : 167
          },
          "indices" : 160,
          "material" : 20
        }
      ],
      "name" : "SM_ENV_LKNVLD_VRArena_Front"
    }
  ],
  "buffers" : [
    {
      "uri" : "SM_ENV_LKNVLD_VRArena_Front.bin",
      "byteLength" : 2209932
    }
  ],
  "bufferViews" : [
    {
      "buffer" : 0,
      "byteOffset" : 0,
      "byteLength" : 33348
    },
    {
      "buffer" : 0,
      "byteOffset" : 33348,
      "byteLength" : 95184
    },
    {
      "buffer" : 0,
      "byteOffset" : 128532,
      "byteLength" : 95184
    },
    {
      "buffer" : 0,
      "byteOffset" : 223716,
      "byteLength" : 126912
    },
    {
      "buffer" : 0,
      "byteOffset" : 350628,
      "byteLength" : 63456
    },
    {
      "buffer" : 0,
      "byteOffset" : 414084,
      "byteLength" : 63456
    },
    {
      "buffer" : 0,
      "byteOffset" : 477540,
      "byteLength" : 63456
    },
    {
      "buffer" : 0,
      "byteOffset" : 540996,
      "byteLength" : 63456
    },
    {
      "buffer" : 0,
      "byteOffset" : 604452,
      "byteLength" : 22716
    },
    {
      "buffer" : 0,
      "byteOffset" : 627168,
      "byteLength" : 52896
    },
    {
      "buffer" : 0,
      "byteOffset" : 680064,
      "byteLength" : 52896
    },
    {
      "buffer" : 0,
      "byteOffset" : 732960,
      "byteLength" : 70528
    },
    {
      "buffer" : 0,
      "byteOffset" : 803488,
      "byteLength" : 35264
    },
    {
      "buffer" : 0,
      "byteOffset" : 838752,
      "byteLength" : 35264
    },
    {
      "buffer" : 0,
      "byteOffset" : 874016,
      "byteLength" : 35264
    },
    {
      "buffer" : 0,
      "byteOffset" : 909280,
      "byteLength" : 35264
    },
    {
      "buffer" : 0,
      "byteOffset" : 944544,
      "byteLength" : 17928
    },
    {
      "buffer" : 0,
      "byteOffset" : 962472,
      "byteLength" : 42696
    },
    {
      "buffer" : 0,
      "byteOffset" : 1005168,
      "byteLength" : 42696
    },
    {
      "buffer" : 0,
      "byteOffset" : 1047864,
      "byteLength" : 56928
    },
    {
      "buffer" : 0,
      "byteOffset" : 1104792,
      "byteLength" : 28464
    },
    {
      "buffer" : 0,
      "byteOffset" : 1133256,
      "byteLength" : 28464
    },
    {
      "buffer" : 0,
      "byteOffset" : 1161720,
      "byteLength" : 28464
    },
    {
      "buffer" : 0,
      "byteOffset" : 1190184,
      "byteLength" : 28464
    },
    {
      "buffer" : 0,
      "byteOffset" : 1218648,
      "byteLength" : 240
    },
    {
      "buffer" : 0,
      "byteOffset" : 1218888,
      "byteLength" : 528
    },
    {
      "buffer" : 0,
      "byteOffset" : 1219416,
      "byteLength" : 528
    },
    {
      "buffer" : 0,
      "byteOffset" : 1219944,
      "byteLength" : 704
    },
    {
      "buffer" : 0,
      "byteOffset" : 1220648,
      "byteLength" : 352
    },
    {
      "buffer" : 0,
      "byteOffset" : 1221000,
      "byteLength" : 352
    },
    {
      "buffer" : 0,
      "byteOffset" : 1221352,
      "byteLength" : 352
    },
    {
      "buffer" : 0,
      "byteOffset" : 1221704,
      "byteLength" : 352
    },
    {
      "buffer" : 0,
      "byteOffset" : 1222056,
      "byteLength" : 14432
    },
    {
      "buffer" : 0,
      "byteOffset" : 1236488,
      "byteLength" : 19896
    },
    {
      "buffer" : 0,
      "byteOffset" : 1256384,
      "byteLength" : 19896
    },
    {
      "buffer" : 0,
      "byteOffset" : 1276280,
      "byteLength" : 26528
    },
    {
      "buffer" : 0,
      "byteOffset" : 1302808,
      "byteLength" : 13264
    },
    {
      "buffer" : 0,
      "byteOffset" : 1316072,
      "byteLength" : 13264
    },
    {
      "buffer" : 0,
      "byteOffset" : 1329336,
      "byteLength" : 13264
    },
    {
      "buffer" : 0,
      "byteOffset" : 1342600,
      "byteLength" : 13264
    },
    {
      "buffer" : 0,
      "byteOffset" : 1355864,
      "byteLength" : 2076
    },
    {
      "buffer" : 0,
      "byteOffset" : 1357940,
      "byteLength" : 4248
    },
    {
      "buffer" : 0,
      "byteOffset" : 1362188,
      "byteLength" : 4248
    },
    {
      "buffer" : 0,
      "byteOffset" : 1366436,
      "byteLength" : 5664
    },
    {
      "buffer" : 0,
      "byteOffset" : 1372100,
      "byteLength" : 2832
    },
    {
      "buffer" : 0,
      "byteOffset" : 1374932,
      "byteLength" : 2832
    },
    {
      "buffer" : 0,
      "byteOffset" : 1377764,
      "byteLength" : 2832
    },
    {
      "buffer" : 0,
      "byteOffset" : 1380596,
      "byteLength" : 2832
    },
    {
      "buffer" : 0,
      "byteOffset" : 1383428,
      "byteLength" : 4388
    },
    {
      "buffer" : 0,
      "byteOffset" : 1387816,
      "byteLength" : 15156
    },
    {
      "buffer" : 0,
      "byteOffset" : 1402972,
      "byteLength" : 15156
    },
    {
      "buffer" : 0,
      "byteOffset" : 1418128,
      "byteLength" : 20208
    },
    {
      "buffer" : 0,
      "byteOffset" : 1438336,
      "byteLength" : 10104
    },
    {
      "buffer" : 0,
      "byteOffset" : 1448440,
      "byteLength" : 10104
    },
    {
      "buffer" : 0,
      "byteOffset" : 1458544,
      "byteLength" : 10104
    },
    {
      "buffer" : 0,
      "byteOffset" : 1468648,
      "byteLength" : 10104
    },
    {
      "buffer" : 0,
      "byteOffset" : 1478752,
      "byteLength" : 10992
    },
    {
      "buffer" : 0,
      "byteOffset" : 1489744,
      "byteLength" : 24696
    },
    {
      "buffer" : 0,
      "byteOffset" : 1514440,
      "byteLength" : 24696
    },
    {
      "buffer" : 0,
      "byteOffset" : 1539136,
      "byteLength" : 32928
    },
    {
      "buffer" : 0,
      "byteOffset" : 1572064,
      "byteLength" : 16464
    },
    {
      "buffer" : 0,
      "byteOffset" : 1588528,
      "byteLength" : 16464
    },
    {
      "buffer" : 0,
      "byteOffset" : 1604992,
      "byteLength" : 16464
    },
    {
      "buffer" : 0,
      "byteOffset" : 1621456,
      "byteLength" : 16464
    },
    {
      "buffer" : 0,
      "byteOffset" : 1637920,
      "byteLength" : 5796
    },
    {
      "buffer" : 0,
      "byteOffset" : 1643716,
      "byteLength" : 13464
    },
    {
      "buffer" : 0,
      "byteOffset" : 1657180,
      "byteLength" : 13464
    },
    {
      "buffer" : 0,
      "byteOffset" : 1670644,
      "byteLength" : 17952
    },
    {
      "buffer" : 0,
      "byteOffset" : 1688596,
      "byteLength" : 8976
    },
    {
      "buffer" : 0,
      "byteOffset" : 1697572,
      "byteLength" : 8976
    },
    {
      "buffer" : 0,
      "byteOffset" : 1706548,
      "byteLength" : 8976
    },
    {
      "buffer" : 0,
      "byteOffset" : 1715524,
      "byteLength" : 8976
    },
    {
      "buffer" : 0,
      "byteOffset" : 1724500,
      "byteLength" : 1500
    },
    {
      "buffer" : 0,
      "byteOffset" : 1726000,
      "byteLength" : 2820
    },
    {
      "buffer" : 0,
      "byteOffset" : 1728820,
      "byteLength" : 2820
    },
    {
      "buffer" : 0,
      "byteOffset" : 1731640,
      "byteLength" : 3760
    },
    {
      "buffer" : 0,
      "byteOffset" : 1735400,
      "byteLength" : 1880
    },
    {
      "buffer" : 0,
      "byteOffset" : 1737280,
      "byteLength" : 1880
    },
    {
      "buffer" : 0,
      "byteOffset" : 1739160,
      "byteLength" : 1880
    },
    {
      "buffer" : 0,
      "byteOffset" : 1741040,
      "byteLength" : 1880
    },
    {
      "buffer" : 0,
      "byteOffset" : 1742920,
      "byteLength" : 408
    },
    {
      "buffer" : 0,
      "byteOffset" : 1743328,
      "byteLength" : 912
    },
    {
      "buffer" : 0,
      "byteOffset" : 1744240,
      "byteLength" : 912
    },
    {
      "buffer" : 0,
      "byteOffset" : 1745152,
      "byteLength" : 1216
    },
    {
      "buffer" : 0,
      "byteOffset" : 1746368,
      "byteLength" : 608
    },
    {
      "buffer" : 0,
      "byteOffset" : 1746976,
      "byteLength" : 608
    },
    {
      "buffer" : 0,
      "byteOffset" : 1747584,
      "byteLength" : 608
    },
    {
      "buffer" : 0,
      "byteOffset" : 1748192,
      "byteLength" : 608
    },
    {
      "buffer" : 0,
      "byteOffset" : 1748800,
      "byteLength" : 2424
    },
    {
      "buffer" : 0,
      "byteOffset" : 1751224,
      "byteLength" : 5208
    },
    {
      "buffer" : 0,
      "byteOffset" : 1756432,
      "byteLength" : 5208
    },
    {
      "buffer" : 0,
      "byteOffset" : 1761640,
      "byteLength" : 6944
    },
    {
      "buffer" : 0,
      "byteOffset" : 1768584,
      "byteLength" : 3472
    },
    {
      "buffer" : 0,
      "byteOffset" : 1772056,
      "byteLength" : 3472
    },
    {
      "buffer" : 0,
      "byteOffset" : 1775528,
      "byteLength" : 3472
    },
    {
      "buffer" : 0,
      "byteOffset" : 1779000,
      "byteLength" : 3472
    },
    {
      "buffer" : 0,
      "byteOffset" : 1782472,
      "byteLength" : 456
    },
    {
      "buffer" : 0,
      "byteOffset" : 1782928,
      "byteLength" : 1056
    },
    {
      "buffer" : 0,
      "byteOffset" : 1783984,
      "byteLength" : 1056
    },
    {
      "buffer" : 0,
      "byteOffset" : 1785040,
      "byteLength" : 1408
    },
    {
      "buffer" : 0,
      "byteOffset" : 1786448,
      "byteLength" : 704
    },
    {
      "buffer" : 0,
      "byteOffset" : 1787152,
      "byteLength" : 704
    },
    {
      "buffer" : 0,
      "byteOffset" : 1787856,
      "byteLength" : 704
    },
    {
      "buffer" : 0,
      "byteOffset" : 1788560,
      "byteLength" : 704
    },
    {
      "buffer" : 0,
      "byteOffset" : 1789264,
      "byteLength" : 2964
    },
    {
      "buffer" : 0,
      "byteOffset" : 1792228,
      "byteLength" : 6672
    },
    {
      "buffer" : 0,
      "byteOffset" : 1798900,
      "byteLength" : 6672
    },
    {
      "buffer" : 0,
      "byteOffset" : 1805572,
      "byteLength" : 8896
    },
    {
      "buffer" : 0,
      "byteOffset" : 1814468,
      "byteLength" : 4448
    },
    {
      "buffer" : 0,
      "byteOffset" : 1818916,
      "byteLength" : 4448
    },
    {
      "buffer" : 0,
      "byteOffset" : 1823364,
      "byteLength" : 4448
    },
    {
      "buffer" : 0,
      "byteOffset" : 1827812,
      "byteLength" : 4448
    },
    {
      "buffer" : 0,
      "byteOffset" : 1832260,
      "byteLength" : 108
    },
    {
      "buffer" : 0,
      "byteOffset" : 1832368,
      "byteLength" : 432
    },
    {
      "buffer" : 0,
      "byteOffset" : 1832800,
      "byteLength" : 432
    },
    {
      "buffer" : 0,
      "byteOffset" : 1833232,
      "byteLength" : 576
    },
    {
      "buffer" : 0,
      "byteOffset" : 1833808,
      "byteLength" : 288
    },
    {
      "buffer" : 0,
      "byteOffset" : 1834096,
      "byteLength" : 288
    },
    {
      "buffer" : 0,
      "byteOffset" : 1834384,
      "byteLength" : 288
    },
    {
      "buffer" : 0,
      "byteOffset" : 1834672,
      "byteLength" : 288
    },
    {
      "buffer" : 0,
      "byteOffset" : 1834960,
      "byteLength" : 276
    },
    {
      "buffer" : 0,
      "byteOffset" : 1835236,
      "byteLength" : 1032
    },
    {
      "buffer" : 0,
      "byteOffset" : 1836268,
      "byteLength" : 1032
    },
    {
      "buffer" : 0,
      "byteOffset" : 1837300,
      "byteLength" : 1376
    },
    {
      "buffer" : 0,
      "byteOffset" : 1838676,
      "byteLength" : 688
    },
    {
      "buffer" : 0,
      "byteOffset" : 1839364,
      "byteLength" : 688
    },
    {
      "buffer" : 0,
      "byteOffset" : 1840052,
      "byteLength" : 688
    },
    {
      "buffer" : 0,
      "byteOffset" : 1840740,
      "byteLength" : 688
    },
    {
      "buffer" : 0,
      "byteOffset" : 1841428,
      "byteLength" : 3456
    },
    {
      "buffer" : 0,
      "byteOffset" : 1844884,
      "byteLength" : 5880
    },
    {
      "buffer" : 0,
      "byteOffset" : 1850764,
      "byteLength" : 5880
    },
    {
      "buffer" : 0,
      "byteOffset" : 1856644,
      "byteLength" : 7840
    },
    {
      "buffer" : 0,
      "byteOffset" : 1864484,
      "byteLength" : 3920
    },
    {
      "buffer" : 0,
      "byteOffset" : 1868404,
      "byteLength" : 3920
    },
    {
      "buffer" : 0,
      "byteOffset" : 1872324,
      "byteLength" : 3920
    },
    {
      "buffer" : 0,
      "byteOffset" : 1876244,
      "byteLength" : 3920
    },
    {
      "buffer" : 0,
      "byteOffset" : 1880164,
      "byteLength" : 288
    },
    {
      "buffer" : 0,
      "byteOffset" : 1880452,
      "byteLength" : 1152
    },
    {
      "buffer" : 0,
      "byteOffset" : 1881604,
      "byteLength" : 1152
    },
    {
      "buffer" : 0,
      "byteOffset" : 1882756,
      "byteLength" : 1536
    },
    {
      "buffer" : 0,
      "byteOffset" : 1884292,
      "byteLength" : 768
    },
    {
      "buffer" : 0,
      "byteOffset" : 1885060,
      "byteLength" : 768
    },
    {
      "buffer" : 0,
      "byteOffset" : 1885828,
      "byteLength" : 768
    },
    {
      "buffer" : 0,
      "byteOffset" : 1886596,
      "byteLength" : 768
    },
    {
      "buffer" : 0,
      "byteOffset" : 1887364,
      "byteLength" : 5592
    },
    {
      "buffer" : 0,
      "byteOffset" : 1892956,
      "byteLength" : 16980
    },
    {
      "buffer" : 0,
      "byteOffset" : 1909936,
      "byteLength" : 16980
    },
    {
      "buffer" : 0,
      "byteOffset" : 1926916,
      "byteLength" : 22640
    },
    {
      "buffer" : 0,
      "byteOffset" : 1949556,
      "byteLength" : 11320
    },
    {
      "buffer" : 0,
      "byteOffset" : 1960876,
      "byteLength" : 11320
    },
    {
      "buffer" : 0,
      "byteOffset" : 1972196,
      "byteLength" : 11320
    },
    {
      "buffer" : 0,
      "byteOffset" : 1983516,
      "byteLength" : 11320
    },
    {
      "buffer" : 0,
      "byteOffset" : 1994836,
      "byteLength" : 2528
    },
    {
      "buffer" : 0,
      "byteOffset" : 1997364,
      "byteLength" : 5220
    },
    {
      "buffer" : 0,
      "byteOffset" : 2002584,
      "byteLength" : 5220
    },
    {
      "buffer" : 0,
      "byteOffset" : 2007804,
      "byteLength" : 6960
    },
    {
      "buffer" : 0,
      "byteOffset" : 2014764,
      "byteLength" : 3480
    },
    {
      "buffer" : 0,
      "byteOffset" : 2018244,
      "byteLength" : 3480
    },
    {
      "buffer" : 0,
      "byteOffset" : 2021724,
      "byteLength" : 3480
    },
    {
      "buffer" : 0,
      "byteOffset" : 2025204,
      "byteLength" : 3480
    },
    {
      "buffer" : 0,
      "byteOffset" : 2028684,
      "byteLength" : 11904
    },
    {
      "buffer" : 0,
      "byteOffset" : 2040588,
      "byteLength" : 28224
    },
    {
      "buffer" : 0,
      "byteOffset" : 2068812,
      "byteLength" : 28224
    },
    {
      "buffer" : 0,
      "byteOffset" : 2097036,
      "byteLength" : 37632
    },
    {
      "buffer" : 0,
      "byteOffset" : 2134668,
      "byteLength" : 18816
    },
    {
      "buffer" : 0,
      "byteOffset" : 2153484,
      "byteLength" : 18816
    },
    {
      "buffer" : 0,
      "byteOffset" : 2172300,
      "byteLength" : 18816
    },
    {
      "buffer" : 0,
      "byteOffset" : 2191116,
      "byteLength" : 18816
    }
  ],
  "accessors" : [
    {
      "bufferView" : 0,
      "componentType" : 5123,
      "count" : 16674,
      "type" : "SCALAR"
    },
    {
      "bufferView" : 1,
      "min" : [ 16.6595, 0.699998, -14.3682 ],
      "max" : [ 65.7582, 11.559, 51.831 ],
      "componentType" : 5126,
      "count" : 7932,
      "type" : "VEC3"
    },
    {
      "bufferView" : 2,
      "componentType" : 5126,
      "count" : 7932,
      "type" : "VEC3"
    },
    {
      "bufferView" : 3,
      "componentType" : 5126,
      "count" : 7932,
      "type" : "VEC4"
    },
    {
      "bufferView" : 4,
      "componentType" : 5126,
      "count" : 7932,
      "type" : "VEC2"
    },
    {
      "bufferView" : 5,
      "componentType" : 5126,
      "count" : 7932,
      "type" : "VEC2"
    },
    {
      "bufferView" : 6,
      "componentType" : 5126,
      "count" : 7932,
      "type" : "VEC2"
    },
    {
      "bufferView" : 7,
      "componentType" : 5126,
      "count" : 7932,
      "type" : "VEC2"
    },
    {
      "bufferView" : 8,
      "componentType" : 5123,
      "count" : 11358,
      "type" : "SCALAR"
    },
    {
      "bufferView" : 9,
      "min" : [ 17.3858, 0.299999, -13.6178 ],
      "max" : [ 64.94, 8.2, 29.6142 ],
      "componentType" : 5126,
      "count" : 4408,
      "type" : "VEC3"
    },
    {
      "bufferView" : 10,
      "componentType" : 5126,
      "count" : 4408,
      "type" : "VEC3"
    },
    {
      "bufferView" : 11,
      "componentType" : 5126,
      "count" : 4408,
      "type" : "VEC4"
    },
    {
      "bufferView" : 12,
      "componentType" : 5126,
      "count" : 4408,
      "type" : "VEC2"
    },
    {
      "bufferView" : 13,
      "componentType" : 5126,
      "count" : 4408,
      "type" : "VEC2"
    },
    {
      "bufferView" : 14,
      "componentType" : 5126,
      "count" : 4408,
      "type" : "VEC2"
    },
    {
      "bufferView" : 15,
      "componentType" : 5126,
      "count" : 4408,
      "type" : "VEC2"
    },
    {
      "bufferView" : 16,
      "componentType" : 5123,
      "count" : 8964,
      "type" : "SCALAR"
    },
    {
      "bufferView" : 17,
      "min" : [ 16.6298, 1.15549, -14.4008 ],
      "max" : [ 65.7908, 10.7349, 29.6659 ],
      "componentType" : 5126,
      "count" : 3558,
      "type" : "VEC3"
    },
    {
      "bufferView" : 18,
      "componentType" : 5126,
      "count" : 3558,
      "type" : "VEC3"
    },
    {
      "bufferView" : 19,
      "componentType" : 5126,
      "count" : 3558,
      "type" : "VEC4"
    },
    {
      "bufferView" : 20,
      "componentType" : 5126,
      "count" : 3558,
      "type" : "VEC2"
    },
    {
      "bufferView" : 21,
      "componentType" : 5126,
      "count" : 3558,
      "type" : "VEC2"
    },
    {
      "bufferView" : 22,
      "componentType" : 5126,
      "count" : 3558,
      "type" : "VEC2"
    },
    {
      "bufferView" : 23,
      "componentType" : 5126,
      "count" : 3558,
      "type" : "VEC2"
    },
    {
      "bufferView" : 24,
      "componentType" : 5123,
      "count" : 120,
      "type" : "SCALAR"
    },
    {
      "bufferView" : 25,
      "min" : [ 33.4129, 7.49172, -4.19521 ],
      "max" : [ 33.4129, 10.825, 4.1952 ],
      "componentType" : 5126,
      "count" : 44,
      "type" : "VEC3"
    },
    {
      "bufferView" : 26,
      "componentType" : 5126,
      "count" : 44,
      "type" : "VEC3"
    },
    {
      "bufferView" : 27,
      "componentType" : 5126,
      "count" : 44,
      "type" : "VEC4"
    },
    {
      "bufferView" : 28,
      "componentType" : 5126,
      "count" : 44,
      "type" : "VEC2"
    },
    {
      "bufferView" : 29,
      "componentType" : 5126,
      "count" : 44,
      "type" : "VEC2"
    },
    {
      "bufferView" : 30,
      "componentType" : 5126,
      "count" : 44,
      "type" : "VEC2"
    },
    {
      "bufferView" : 31,
      "componentType" : 5126,
      "count" : 44,
      "type" : "VEC2"
    },
    {
      "bufferView" : 32,
      "componentType" : 5123,
      "count" : 7215,
      "type" : "SCALAR"
    },
    {
      "bufferView" : 33,
      "min" : [ 17.3375, -1.98364e-06, -13.58 ],
      "max" : [ 64.9883, 4.48469, 29.6626 ],
      "componentType" : 5126,
      "count" : 1658,
      "type" : "VEC3"
    },
    {
      "bufferView" : 34,
      "componentType" : 5126,
      "count" : 1658,
      "type" : "VEC3"
    },
    {
      "bufferView" : 35,
      "componentType" : 5126,
      "count" : 1658,
      "type" : "VEC4"
    },
    {
      "bufferView" : 36,
      "componentType" : 5126,
      "count" : 1658,
      "type" : "VEC2"
    },
    {
      "bufferView" : 37,
      "componentType" : 5126,
      "count" : 1658,
      "type" : "VEC2"
    },
    {
      "bufferView" : 38,
      "componentType" : 5126,
      "count" : 1658,
      "type" : "VEC2"
    },
    {
      "bufferView" : 39,
      "componentType" : 5126,
      "count" : 1658,
      "type" : "VEC2"
    },
    {
      "bufferView" : 40,
      "componentType" : 5123,
      "count" : 1038,
      "type" : "SCALAR"
    },
    {
      "bufferView" : 41,
      "min" : [ 17.4341, 0.8, -13.4833 ],
      "max" : [ 64.8917, 7.8221, 29.5659 ],
      "componentType" : 5126,
      "count" : 354,
      "type" : "VEC3"
    },
    {
      "bufferView" : 42,
      "componentType" : 5126,
      "count" : 354,
      "type" : "VEC3"
    },
    {
      "bufferView" : 43,
      "componentType" : 5126,
      "count" : 354,
      "type" : "VEC4"
    },
    {
      "bufferView" : 44,
      "componentType" : 5126,
      "count" : 354,
      "type" : "VEC2"
    },
    {
      "bufferView" : 45,
      "componentType" : 5126,
      "count" : 354,
      "type" : "VEC2"
    },
    {
      "bufferView" : 46,
      "componentType" : 5126,
      "count" : 354,
      "type" : "VEC2"
    },
    {
      "bufferView" : 47,
      "componentType" : 5126,
      "count" : 354,
      "type" : "VEC2"
    },
    {
      "bufferView" : 48,
      "componentType" : 5123,
      "count" : 2193,
      "type" : "SCALAR"
    },
    {
      "bufferView" : 49,
      "min" : [ 24.2857, 5.30139, -9.67916 ],
      "max" : [ 38.3444, 8.2, 20.2674 ],
      "componentType" : 5126,
      "count" : 1263,
      "type" : "VEC3"
    },
    {
      "bufferView" : 50,
      "componentType" : 5126,
      "count" : 1263,
      "type" : "VEC3"
    },
    {
      "bufferView" : 51,
      "componentType" : 5126,
      "count" : 1263,
      "type" : "VEC4"
    },
    {
      "bufferView" : 52,
      "componentType" : 5126,
      "count" : 1263,
      "type" : "VEC2"
    },
    {
      "bufferView" : 53,
      "componentType" : 5126,
      "count" : 1263,
      "type" : "VEC2"
    },
    {
      "bufferView" : 54,
      "componentType" : 5126,
      "count" : 1263,
      "type" : "VEC2"
    },
    {
      "bufferView" : 55,
      "componentType" : 5126,
      "count" : 1263,
      "type" : "VEC2"
    },
    {
      "bufferView" : 56,
      "componentType" : 5123,
      "count" : 5496,
      "type" : "SCALAR"
    },
    {
      "bufferView" : 57,
      "min" : [ 16.6298, 4.77354, -14.4008 ],
      "max" : [ 65.7908, 11.559, 28.9982 ],
      "componentType" : 5126,
      "count" : 2058,
      "type" : "VEC3"
    },
    {
      "bufferView" : 58,
      "componentType" : 5126,
      "count" : 2058,
      "type" : "VEC3"
    },
    {
      "bufferView" : 59,
      "componentType" : 5126,
      "count" : 2058,
      "type" : "VEC4"
    },
    {
      "bufferView" : 60,
      "componentType" : 5126,
      "count" : 2058,
      "type" : "VEC2"
    },
    {
      "bufferView" : 61,
      "componentType" : 5126,
      "count" : 2058,
      "type" : "VEC2"
    },
    {
      "bufferView" : 62,
      "componentType" : 5126,
      "count" : 2058,
      "type" : "VEC2"
    },
    {
      "bufferView" : 63,
      "componentType" : 5126,
      "count" : 2058,
      "type" : "VEC2"
    },
    {
      "bufferView" : 64,
      "componentType" : 5123,
      "count" : 2898,
      "type" : "SCALAR"
    },
    {
      "bufferView" : 65,
      "min" : [ 20.0902, 6.42505, 15.6313 ],
      "max" : [ 28.2697, 8.54963, 23.8109 ],
      "componentType" : 5126,
      "count" : 1122,
      "type" : "VEC3"
    },
    {
      "bufferView" : 66,
      "componentType" : 5126,
      "count" : 1122,
      "type" : "VEC3"
    },
    {
      "bufferView" : 67,
      "componentType" : 5126,
      "count" : 1122,
      "type" : "VEC4"
    },
    {
      "bufferView" : 68,
      "componentType" : 5126,
      "count" : 1122,
      "type" : "VEC2"
    },
    {
      "bufferView" : 69,
      "componentType" : 5126,
      "count" : 1122,
      "type" : "VEC2"
    },
    {
      "bufferView" : 70,
      "componentType" : 5126,
      "count" : 1122,
      "type" : "VEC2"
    },
    {
      "bufferView" : 71,
      "componentType" : 5126,
      "count" : 1122,
      "type" : "VEC2"
    },
    {
      "bufferView" : 72,
      "componentType" : 5123,
      "count" : 750,
      "type" : "SCALAR"
    },
    {
      "bufferView" : 73,
      "min" : [ 20.1247, 6.42505, 15.6659 ],
      "max" : [ 28.4111, 8.54963, 23.9523 ],
      "componentType" : 5126,
      "count" : 235,
      "type" : "VEC3"
    },
    {
      "bufferView" : 74,
      "componentType" : 5126,
      "count" : 235,
      "type" : "VEC3"
    },
    {
      "bufferView" : 75,
      "componentType" : 5126,
      "count" : 235,
      "type" : "VEC4"
    },
    {
      "bufferView" : 76,
      "componentType" : 5126,
      "count" : 235,
      "type" : "VEC2"
    },
    {
      "bufferView" : 77,
      "componentType" : 5126,
      "count" : 235,
      "type" : "VEC2"
    },
    {
      "bufferView" : 78,
      "componentType" : 5126,
      "count" : 235,
      "type" : "VEC2"
    },
    {
      "bufferView" : 79,
      "componentType" : 5126,
      "count" : 235,
      "type" : "VEC2"
    },
    {
      "bufferView" : 80,
      "componentType" : 5123,
      "count" : 204,
      "type" : "SCALAR"
    },
    {
      "bufferView" : 81,
      "min" : [ 24.1112, 2.12213, 19.6522 ],
      "max" : [ 24.7888, 2.28066, 20.3298 ],
      "componentType" : 5126,
      "count" : 76,
      "type" : "VEC3"
    },
    {
      "bufferView" : 82,
      "componentType" : 5126,
      "count" : 76,
      "type" : "VEC3"
    },
    {
      "bufferView" : 83,
      "componentType" : 5126,
      "count" : 76,
      "type" : "VEC4"
    },
    {
      "bufferView" : 84,
      "componentType" : 5126,
      "count" : 76,
      "type" : "VEC2"
    },
    {
      "bufferView" : 85,
      "componentType" : 5126,
      "count" : 76,
      "type" : "VEC2"
    },
    {
      "bufferView" : 86,
      "componentType" : 5126,
      "count" : 76,
      "type" : "VEC2"
    },
    {
      "bufferView" : 87,
      "componentType" : 5126,
      "count" : 76,
      "type" : "VEC2"
    },
    {
      "bufferView" : 88,
      "componentType" : 5123,
      "count" : 1212,
      "type" : "SCALAR"
    },
    {
      "bufferView" : 89,
      "min" : [ 20.4683, 6.77189, -9.80651 ],
      "max" : [ 38.4717, 8.2, 24.6006 ],
      "componentType" : 5126,
      "count" : 434,
      "type" : "VEC3"
    },
    {
      "bufferView" : 90,
      "componentType" : 5126,
      "count" : 434,
      "type" : "VEC3"
    },
    {
      "bufferView" : 91,
      "componentType" : 5126,
      "count" : 434,
      "type" : "VEC4"
    },
    {
      "bufferView" : 92,
      "componentType" : 5126,
      "count" : 434,
      "type" : "VEC2"
    },
    {
      "bufferView" : 93,
      "componentType" : 5126,
      "count" : 434,
      "type" : "VEC2"
    },
    {
      "bufferView" : 94,
      "componentType" : 5126,
      "count" : 434,
      "type" : "VEC2"
    },
    {
      "bufferView" : 95,
      "componentType" : 5126,
      "count" : 434,
      "type" : "VEC2"
    },
    {
      "bufferView" : 96,
      "componentType" : 5123,
      "count" : 228,
      "type" : "SCALAR"
    },
    {
      "bufferView" : 97,
      "min" : [ 23.7919, 6.3, -9.64991 ],
      "max" : [ 38.3151, 8.11099, 20.7756 ],
      "componentType" : 5126,
      "count" : 88,
      "type" : "VEC3"
    },
    {
      "bufferView" : 98,
      "componentType" : 5126,
      "count" : 88,
      "type" : "VEC3"
    },
    {
      "bufferView" : 99,
      "componentType" : 5126,
      "count" : 88,
      "type" : "VEC4"
    },
    {
      "bufferView" : 100,
      "componentType" : 5126,
      "count" : 88,
      "type" : "VEC2"
    },
    {
      "bufferView" : 101,
      "componentType" : 5126,
      "count" : 88,
      "type" : "VEC2"
    },
    {
      "bufferView" : 102,
      "componentType" : 5126,
      "count" : 88,
      "type" : "VEC2"
    },
    {
      "bufferView" : 103,
      "componentType" : 5126,
      "count" : 88,
      "type" : "VEC2"
    },
    {
      "bufferView" : 104,
      "componentType" : 5123,
      "count" : 1482,
      "type" : "SCALAR"
    },
    {
      "bufferView" : 105,
      "min" : [ 22.965, 1.5, -6.45335 ],
      "max" : [ 35.3544, 11.1304, 22.7488 ],
      "componentType" : 5126,
      "count" : 556,
      "type" : "VEC3"
    },
    {
      "bufferView" : 106,
      "componentType" : 5126,
      "count" : 556,
      "type" : "VEC3"
    },
    {
      "bufferView" : 107,
      "componentType" : 5126,
      "count" : 556,
      "type" : "VEC4"
    },
    {
      "bufferView" : 108,
      "componentType" : 5126,
      "count" : 556,
      "type" : "VEC2"
    },
    {
      "bufferView" : 109,
      "componentType" : 5126,
      "count" : 556,
      "type" : "VEC2"
    },
    {
      "bufferView" : 110,
      "componentType" : 5126,
      "count" : 556,
      "type" : "VEC2"
    },
    {
      "bufferView" : 111,
      "componentType" : 5126,
      "count" : 556,
      "type" : "VEC2"
    },
    {
      "bufferView" : 112,
      "componentType" : 5123,
      "count" : 54,
      "type" : "SCALAR"
    },
    {
      "bufferView" : 113,
      "min" : [ 33.2429, 4, -4.3952 ],
      "max" : [ 49, 9.69196, 4.39519 ],
      "componentType" : 5126,
      "count" : 36,
      "type" : "VEC3"
    },
    {
      "bufferView" : 114,
      "componentType" : 5126,
      "count" : 36,
      "type" : "VEC3"
    },
    {
      "bufferView" : 115,
      "componentType" : 5126,
      "count" : 36,
      "type" : "VEC4"
    },
    {
      "bufferView" : 116,
      "componentType" : 5126,
      "count" : 36,
      "type" : "VEC2"
    },
    {
      "bufferView" : 117,
      "componentType" : 5126,
      "count" : 36,
      "type" : "VEC2"
    },
    {
      "bufferView" : 118,
      "componentType" : 5126,
      "count" : 36,
      "type" : "VEC2"
    },
    {
      "bufferView" : 119,
      "componentType" : 5126,
      "count" : 36,
      "type" : "VEC2"
    },
    {
      "bufferView" : 120,
      "componentType" : 5123,
      "count" : 138,
      "type" : "SCALAR"
    },
    {
      "bufferView" : 121,
      "min" : [ 18, 6, -13.0648 ],
      "max" : [ 64.3971, 6.3, 50.8439 ],
      "componentType" : 5126,
      "count" : 86,
      "type" : "VEC3"
    },
    {
      "bufferView" : 122,
      "componentType" : 5126,
      "count" : 86,
      "type" : "VEC3"
    },
    {
      "bufferView" : 123,
      "componentType" : 5126,
      "count" : 86,
      "type" : "VEC4"
    },
    {
      "bufferView" : 124,
      "componentType" : 5126,
      "count" : 86,
      "type" : "VEC2"
    },
    {
      "bufferView" : 125,
      "componentType" : 5126,
      "count" : 86,
      "type" : "VEC2"
    },
    {
      "bufferView" : 126,
      "componentType" : 5126,
      "count" : 86,
      "type" : "VEC2"
    },
    {
      "bufferView" : 127,
      "componentType" : 5126,
      "count" : 86,
      "type" : "VEC2"
    },
    {
      "bufferView" : 128,
      "componentType" : 5123,
      "count" : 1728,
      "type" : "SCALAR"
    },
    {
      "bufferView" : 129,
      "min" : [ 36.4375, 8.2, -9.84972 ],
      "max" : [ 38.5149, 10.1682, 8.98499 ],
      "componentType" : 5126,
      "count" : 490,
      "type" : "VEC3"
    },
    {
      "bufferView" : 130,
      "componentType" : 5126,
      "count" : 490,
      "type" : "VEC3"
    },
    {
      "bufferView" : 131,
      "componentType" : 5126,
      "count" : 490,
      "type" : "VEC4"
    },
    {
      "bufferView" : 132,
      "componentType" : 5126,
      "count" : 490,
      "type" : "VEC2"
    },
    {
      "bufferView" : 133,
      "componentType" : 5126,
      "count" : 490,
      "type" : "VEC2"
    },
    {
      "bufferView" : 134,
      "componentType" : 5126,
      "count" : 490,
      "type" : "VEC2"
    },
    {
      "bufferView" : 135,
      "componentType" : 5126,
      "count" : 490,
      "type" : "VEC2"
    },
    {
      "bufferView" : 136,
      "componentType" : 5123,
      "count" : 144,
      "type" : "SCALAR"
    },
    {
      "bufferView" : 137,
      "min" : [ 33.4721, 11.0308, -5.72787 ],
      "max" : [ 34.5279, 12.2358, 5.72786 ],
      "componentType" : 5126,
      "count" : 96,
      "type" : "VEC3"
    },
    {
      "bufferView" : 138,
      "componentType" : 5126,
      "count" : 96,
      "type" : "VEC3"
    },
    {
      "bufferView" : 139,
      "componentType" : 5126,
      "count" : 96,
      "type" : "VEC4"
    },
    {
      "bufferView" : 140,
      "componentType" : 5126,
      "count" : 96,
      "type" : "VEC2"
    },
    {
      "bufferView" : 141,
      "componentType" : 5126,
      "count" : 96,
      "type" : "VEC2"
    },
    {
      "bufferView" : 142,
      "componentType" : 5126,
      "count" : 96,
      "type" : "VEC2"
    },
    {
      "bufferView" : 143,
      "componentType" : 5126,
      "count" : 96,
      "type" : "VEC2"
    },
    {
      "bufferView" : 144,
      "componentType" : 5123,
      "count" : 2796,
      "type" : "SCALAR"
    },
    {
      "bufferView" : 145,
      "min" : [ 33.3886, 10.377, -5.81139 ],
      "max" : [ 34.6114, 13.6048, 5.81138 ],
      "componentType" : 5126,
      "count" : 1415,
      "type" : "VEC3"
    },
    {
      "bufferView" : 146,
      "componentType" : 5126,
      "count" : 1415,
      "type" : "VEC3"
    },
    {
      "bufferView" : 147,
      "componentType" : 5126,
      "count" : 1415,
      "type" : "VEC4"
    },
    {
      "bufferView" : 148,
      "componentType" : 5126,
      "count" : 1415,
      "type" : "VEC2"
    },
    {
      "bufferView" : 149,
      "componentType" : 5126,
      "count" : 1415,
      "type" : "VEC2"
    },
    {
      "bufferView" : 150,
      "componentType" : 5126,
      "count" : 1415,
      "type" : "VEC2"
    },
    {
      "bufferView" : 151,
      "componentType" : 5126,
      "count" : 1415,
      "type" : "VEC2"
    },
    {
      "bufferView" : 152,
      "componentType" : 5123,
      "count" : 1263,
      "type" : "SCALAR"
    },
    {
      "bufferView" : 153,
      "min" : [ 22.4118, -0.0105736, -2.84722 ],
      "max" : [ 41.9373, 4.05568, 22.7418 ],
      "componentType" : 5126,
      "count" : 435,
      "type" : "VEC3"
    },
    {
      "bufferView" : 154,
      "componentType" : 5126,
      "count" : 435,
      "type" : "VEC3"
    },
    {
      "bufferView" : 155,
      "componentType" : 5126,
      "count" : 435,
      "type" : "VEC4"
    },
    {
      "bufferView" : 156,
      "componentType" : 5126,
      "count" : 435,
      "type" : "VEC2"
    },
    {
      "bufferView" : 157,
      "componentType" : 5126,
      "count" : 435,
      "type" : "VEC2"
    },
    {
      "bufferView" : 158,
      "componentType" : 5126,
      "count" : 435,
      "type" : "VEC2"
    },
    {
      "bufferView" : 159,
      "componentType" : 5126,
      "count" : 435,
      "type" : "VEC2"
    },
    {
      "bufferView" : 160,
      "componentType" : 5123,
      "count" : 5952,
      "type" : "SCALAR"
    },
    {
      "bufferView" : 161,
      "min" : [ 22.6408, 0.319324, 18.159 ],
      "max" : [ 27.2534, 4.5867, 22.7729 ],
      "componentType" : 5126,
      "count" : 2352,
      "type" : "VEC3"
    },
    {
      "bufferView" : 162,
      "componentType" : 5126,
      "count" : 2352,
      "type" : "VEC3"
    },
    {
      "bufferView" : 163,
      "componentType" : 5126,
      "count" : 2352,
      "type" : "VEC4"
    },
    {
      "bufferView" : 164,
      "componentType" : 5126,
      "count" : 2352,
      "type" : "VEC2"
    },
    {
      "bufferView" : 165,
      "componentType" : 5126,
      "count" : 2352,
      "type" : "VEC2"
    },
    {
      "bufferView" : 166,
      "componentType" : 5126,
      "count" : 2352,
      "type" : "VEC2"
    },
    {
      "bufferView" : 167,
      "componentType" : 5126,
      "count" : 2352,
      "type" : "VEC2"
    }
  ]
}
