{
  "asset" : {
    "generator" : "UE Viewer (umodel) build 1544 based",
    "version" : "2.0"
  },
  "scene" : 0,
  "scenes" : [
    {
      "nodes" : [ 0 ]
    }
  ],
  "nodes" : [
    {
      "name" : "SM_ENV_LKNVLD_RockMiddle_G",
      "mesh" : 0
    }
  ],
  "materials" : [
    {
      "name" : "MI_ENV_LKNVLD_MiddleRock_A",
      "pbrMetallicRoughness" : {
        "baseColorFactor" : [ 0.3, 0.3, 0.3, 1.0 ],
        "metallicFactor" : 0.1,
        "roughnessFactor" : 0.5
      }
    }
  ],
  "meshes" : [
    {
      "primitives" : [
        {
          "attributes" : {
            "POSITION" : 1,
            "NORMAL" : 2,
            "TANGENT" : 3,
            "COLOR_0" : 4,
            "TEXCOORD_0" : 5,
            "TEXCOORD_1" : 6,
            "TEXCOORD_2" : 7,
            "TEXCOORD_3" : 8
          },
          "indices" : 0,
          "material" : 0
        }
      ],
      "name" : "SM_ENV_LKNVLD_RockMiddle_G"
    }
  ],
  "buffers" : [
    {
      "uri" : "SM_ENV_LKNVLD_RockMiddle_G.bin",
      "byteLength" : 47644
    }
  ],
  "bufferViews" : [
    {
      "buffer" : 0,
      "byteOffset" : 0,
      "byteLength" : 3944
    },
    {
      "buffer" : 0,
      "byteOffset" : 3944,
      "byteLength" : 6900
    },
    {
      "buffer" : 0,
      "byteOffset" : 10844,
      "byteLength" : 6900
    },
    {
      "buffer" : 0,
      "byteOffset" : 17744,
      "byteLength" : 9200
    },
    {
      "buffer" : 0,
      "byteOffset" : 26944,
      "byteLength" : 2300
    },
    {
      "buffer" : 0,
      "byteOffset" : 29244,
      "byteLength" : 4600
    },
    {
      "buffer" : 0,
      "byteOffset" : 33844,
      "byteLength" : 4600
    },
    {
      "buffer" : 0,
      "byteOffset" : 38444,
      "byteLength" : 4600
    },
    {
      "buffer" : 0,
      "byteOffset" : 43044,
      "byteLength" : 4600
    }
  ],
  "accessors" : [
    {
      "bufferView" : 0,
      "componentType" : 5123,
      "count" : 1971,
      "type" : "SCALAR"
    },
    {
      "bufferView" : 1,
      "min" : [ 33.7633, -0.310052, -56.6257 ],
      "max" : [ 40.5729, 1.62808, -46.8694 ],
      "componentType" : 5126,
      "count" : 575,
      "type" : "VEC3"
    },
    {
      "bufferView" : 2,
      "componentType" : 5126,
      "count" : 575,
      "type" : "VEC3"
    },
    {
      "bufferView" : 3,
      "componentType" : 5126,
      "count" : 575,
      "type" : "VEC4"
    },
    {
      "bufferView" : 4,
      "normalized" : true,
      "componentType" : 5121,
      "count" : 575,
      "type" : "VEC4"
    },
    {
      "bufferView" : 5,
      "componentType" : 5126,
      "count" : 575,
      "type" : "VEC2"
    },
    {
      "bufferView" : 6,
      "componentType" : 5126,
      "count" : 575,
      "type" : "VEC2"
    },
    {
      "bufferView" : 7,
      "componentType" : 5126,
      "count" : 575,
      "type" : "VEC2"
    },
    {
      "bufferView" : 8,
      "componentType" : 5126,
      "count" : 575,
      "type" : "VEC2"
    }
  ]
}
