{
  "asset" : {
    "generator" : "UE Viewer (umodel) build 1544 based",
    "version" : "2.0"
  },
  "scene" : 0,
  "scenes" : [
    {
      "nodes" : [ 0 ]
    }
  ],
  "nodes" : [
    {
      "name" : "SM_ENV_LKNVLD_WallSet_Connector_Lod3",
      "mesh" : 0
    }
  ],
  "materials" : [
    {
      "name" : "MI_ENV_LKNVLD_WoodPlain_Red_LOD",
      "pbrMetallicRoughness" : {
        "baseColorFactor" : [ 0.3, 0.3, 0.3, 1.0 ],
        "metallicFactor" : 0.1,
        "roughnessFactor" : 0.5
      }
    },
    {
      "name" : "MI_ENV_LKNVLD_WoodWallSet_LOD",
      "pbrMetallicRoughness" : {
        "baseColorFactor" : [ 0.9, 0.3, 0.3, 1.0 ],
        "metallicFactor" : 0.1,
        "roughnessFactor" : 0.5
      }
    },
    {
      "name" : "MI_ENV_LKNVLD_Signboard_A",
      "pbrMetallicRoughness" : {
        "baseColorFactor" : [ 0.3, 0.9, 0.3, 1.0 ],
        "metallicFactor" : 0.1,
        "roughnessFactor" : 0.5
      }
    },
    {
      "name" : "MI_T_ENV_LKNVLD_StoneTrim_LOD",
      "pbrMetallicRoughness" : {
        "baseColorFactor" : [ 0.3, 0.3, 0.9, 1.0 ],
        "metallicFactor" : 0.1,
        "roughnessFactor" : 0.5
      }
    },
    {
      "name" : "MI_ENV_LKNVLD_WoodWallSet_Red_LOD",
      "pbrMetallicRoughness" : {
        "baseColorFactor" : [ 0.9, 0.9, 0.9, 1.0 ],
        "metallicFactor" : 0.1,
        "roughnessFactor" : 0.5
      }
    },
    {
      "name" : "MI_ENV_LKNVLD_Eaves_B_LOD",
      "pbrMetallicRoughness" : {
        "baseColorFactor" : [ 0.9, 0.9, 0.3, 1.0 ],
        "metallicFactor" : 0.1,
        "roughnessFactor" : 0.5
      }
    },
    {
      "name" : "MI_ENV_LKNVLD_WoodBoard_Natural_Lighter_LOD",
      "pbrMetallicRoughness" : {
        "baseColorFactor" : [ 0.9, 0.3, 0.9, 1.0 ],
        "metallicFactor" : 0.1,
        "roughnessFactor" : 0.5
      }
    }
  ],
  "meshes" : [
    {
      "primitives" : [
        {
          "attributes" : {
            "POSITION" : 1,
            "NORMAL" : 2,
            "TANGENT" : 3,
            "TEXCOORD_0" : 4,
            "TEXCOORD_1" : 5,
            "TEXCOORD_2" : 6,
            "TEXCOORD_3" : 7
          },
          "indices" : 0,
          "material" : 0
        },
        {
          "attributes" : {
            "POSITION" : 9,
            "NORMAL" : 10,
            "TANGENT" : 11,
            "TEXCOORD_0" : 12,
            "TEXCOORD_1" : 13,
            "TEXCOORD_2" : 14,
            "TEXCOORD_3" : 15
          },
          "indices" : 8,
          "material" : 1
        },
        {
          "attributes" : {
            "POSITION" : 17,
            "NORMAL" : 18,
            "TANGENT" : 19,
            "TEXCOORD_0" : 20,
            "TEXCOORD_1" : 21,
            "TEXCOORD_2" : 22,
            "TEXCOORD_3" : 23
          },
          "indices" : 16,
          "material" : 2
        },
        {
          "attributes" : {
            "POSITION" : 25,
            "NORMAL" : 26,
            "TANGENT" : 27,
            "TEXCOORD_0" : 28,
            "TEXCOORD_1" : 29,
            "TEXCOORD_2" : 30,
            "TEXCOORD_3" : 31
          },
          "indices" : 24,
          "material" : 3
        },
        {
          "attributes" : {
            "POSITION" : 33,
            "NORMAL" : 34,
            "TANGENT" : 35,
            "TEXCOORD_0" : 36,
            "TEXCOORD_1" : 37,
            "TEXCOORD_2" : 38,
            "TEXCOORD_3" : 39
          },
          "indices" : 32,
          "material" : 4
        },
        {
          "attributes" : {
            "POSITION" : 41,
            "NORMAL" : 42,
            "TANGENT" : 43,
            "TEXCOORD_0" : 44,
            "TEXCOORD_1" : 45,
            "TEXCOORD_2" : 46,
            "TEXCOORD_3" : 47
          },
          "indices" : 40,
          "material" : 5
        },
        {
          "attributes" : {
            "POSITION" : 49,
            "NORMAL" : 50,
            "TANGENT" : 51,
            "TEXCOORD_0" : 52,
            "TEXCOORD_1" : 53,
            "TEXCOORD_2" : 54,
            "TEXCOORD_3" : 55
          },
          "indices" : 48,
          "material" : 6
        }
      ],
      "name" : "SM_ENV_LKNVLD_WallSet_Connector_Lod3"
    }
  ],
  "buffers" : [
    {
      "uri" : "SM_ENV_LKNVLD_WallSet_Connector_Lod3.bin",
      "byteLength" : 249708
    }
  ],
  "bufferViews" : [
    {
      "buffer" : 0,
      "byteOffset" : 0,
      "byteLength" : 6788
    },
    {
      "buffer" : 0,
      "byteOffset" : 6788,
      "byteLength" : 27216
    },
    {
      "buffer" : 0,
      "byteOffset" : 34004,
      "byteLength" : 27216
    },
    {
      "buffer" : 0,
      "byteOffset" : 61220,
      "byteLength" : 36288
    },
    {
      "buffer" : 0,
      "byteOffset" : 97508,
      "byteLength" : 18144
    },
    {
      "buffer" : 0,
      "byteOffset" : 115652,
      "byteLength" : 18144
    },
    {
      "buffer" : 0,
      "byteOffset" : 133796,
      "byteLength" : 18144
    },
    {
      "buffer" : 0,
      "byteOffset" : 151940,
      "byteLength" : 18144
    },
    {
      "buffer" : 0,
      "byteOffset" : 170084,
      "byteLength" : 872
    },
    {
      "buffer" : 0,
      "byteOffset" : 170956,
      "byteLength" : 3312
    },
    {
      "buffer" : 0,
      "byteOffset" : 174268,
      "byteLength" : 3312
    },
    {
      "buffer" : 0,
      "byteOffset" : 177580,
      "byteLength" : 4416
    },
    {
      "buffer" : 0,
      "byteOffset" : 181996,
      "byteLength" : 2208
    },
    {
      "buffer" : 0,
      "byteOffset" : 184204,
      "byteLength" : 2208
    },
    {
      "buffer" : 0,
      "byteOffset" : 186412,
      "byteLength" : 2208
    },
    {
      "buffer" : 0,
      "byteOffset" : 188620,
      "byteLength" : 2208
    },
    {
      "buffer" : 0,
      "byteOffset" : 190828,
      "byteLength" : 1560
    },
    {
      "buffer" : 0,
      "byteOffset" : 192388,
      "byteLength" : 5556
    },
    {
      "buffer" : 0,
      "byteOffset" : 197944,
      "byteLength" : 5556
    },
    {
      "buffer" : 0,
      "byteOffset" : 203500,
      "byteLength" : 7408
    },
    {
      "buffer" : 0,
      "byteOffset" : 210908,
      "byteLength" : 3704
    },
    {
      "buffer" : 0,
      "byteOffset" : 214612,
      "byteLength" : 3704
    },
    {
      "buffer" : 0,
      "byteOffset" : 218316,
      "byteLength" : 3704
    },
    {
      "buffer" : 0,
      "byteOffset" : 222020,
      "byteLength" : 3704
    },
    {
      "buffer" : 0,
      "byteOffset" : 225724,
      "byteLength" : 264
    },
    {
      "buffer" : 0,
      "byteOffset" : 225988,
      "byteLength" : 792
    },
    {
      "buffer" : 0,
      "byteOffset" : 226780,
      "byteLength" : 792
    },
    {
      "buffer" : 0,
      "byteOffset" : 227572,
      "byteLength" : 1056
    },
    {
      "buffer" : 0,
      "byteOffset" : 228628,
      "byteLength" : 528
    },
    {
      "buffer" : 0,
      "byteOffset" : 229156,
      "byteLength" : 528
    },
    {
      "buffer" : 0,
      "byteOffset" : 229684,
      "byteLength" : 528
    },
    {
      "buffer" : 0,
      "byteOffset" : 230212,
      "byteLength" : 528
    },
    {
      "buffer" : 0,
      "byteOffset" : 230740,
      "byteLength" : 44
    },
    {
      "buffer" : 0,
      "byteOffset" : 230784,
      "byteLength" : 108
    },
    {
      "buffer" : 0,
      "byteOffset" : 230892,
      "byteLength" : 108
    },
    {
      "buffer" : 0,
      "byteOffset" : 231000,
      "byteLength" : 144
    },
    {
      "buffer" : 0,
      "byteOffset" : 231144,
      "byteLength" : 72
    },
    {
      "buffer" : 0,
      "byteOffset" : 231216,
      "byteLength" : 72
    },
    {
      "buffer" : 0,
      "byteOffset" : 231288,
      "byteLength" : 72
    },
    {
      "buffer" : 0,
      "byteOffset" : 231360,
      "byteLength" : 72
    },
    {
      "buffer" : 0,
      "byteOffset" : 231432,
      "byteLength" : 840
    },
    {
      "buffer" : 0,
      "byteOffset" : 232272,
      "byteLength" : 2856
    },
    {
      "buffer" : 0,
      "byteOffset" : 235128,
      "byteLength" : 2856
    },
    {
      "buffer" : 0,
      "byteOffset" : 237984,
      "byteLength" : 3808
    },
    {
      "buffer" : 0,
      "byteOffset" : 241792,
      "byteLength" : 1904
    },
    {
      "buffer" : 0,
      "byteOffset" : 243696,
      "byteLength" : 1904
    },
    {
      "buffer" : 0,
      "byteOffset" : 245600,
      "byteLength" : 1904
    },
    {
      "buffer" : 0,
      "byteOffset" : 247504,
      "byteLength" : 1904
    },
    {
      "buffer" : 0,
      "byteOffset" : 249408,
      "byteLength" : 12
    },
    {
      "buffer" : 0,
      "byteOffset" : 249420,
      "byteLength" : 48
    },
    {
      "buffer" : 0,
      "byteOffset" : 249468,
      "byteLength" : 48
    },
    {
      "buffer" : 0,
      "byteOffset" : 249516,
      "byteLength" : 64
    },
    {
      "buffer" : 0,
      "byteOffset" : 249580,
      "byteLength" : 32
    },
    {
      "buffer" : 0,
      "byteOffset" : 249612,
      "byteLength" : 32
    },
    {
      "buffer" : 0,
      "byteOffset" : 249644,
      "byteLength" : 32
    },
    {
      "buffer" : 0,
      "byteOffset" : 249676,
      "byteLength" : 32
    }
  ],
  "accessors" : [
    {
      "bufferView" : 0,
      "componentType" : 5123,
      "count" : 3393,
      "type" : "SCALAR"
    },
    {
      "bufferView" : 1,
      "min" : [ 16.686, 0.699997, 28.6314 ],
      "max" : [ 22.5084, 7.6, 61.1816 ],
      "componentType" : 5126,
      "count" : 2268,
      "type" : "VEC3"
    },
    {
      "bufferView" : 2,
      "componentType" : 5126,
      "count" : 2268,
      "type" : "VEC3"
    },
    {
      "bufferView" : 3,
      "componentType" : 5126,
      "count" : 2268,
      "type" : "VEC4"
    },
    {
      "bufferView" : 4,
      "componentType" : 5126,
      "count" : 2268,
      "type" : "VEC2"
    },
    {
      "bufferView" : 5,
      "componentType" : 5126,
      "count" : 2268,
      "type" : "VEC2"
    },
    {
      "bufferView" : 6,
      "componentType" : 5126,
      "count" : 2268,
      "type" : "VEC2"
    },
    {
      "bufferView" : 7,
      "componentType" : 5126,
      "count" : 2268,
      "type" : "VEC2"
    },
    {
      "bufferView" : 8,
      "componentType" : 5123,
      "count" : 435,
      "type" : "SCALAR"
    },
    {
      "bufferView" : 9,
      "min" : [ 17.335, 0.299998, 28.688 ],
      "max" : [ 22.4255, 6.2, 61.1764 ],
      "componentType" : 5126,
      "count" : 276,
      "type" : "VEC3"
    },
    {
      "bufferView" : 10,
      "componentType" : 5126,
      "count" : 276,
      "type" : "VEC3"
    },
    {
      "bufferView" : 11,
      "componentType" : 5126,
      "count" : 276,
      "type" : "VEC4"
    },
    {
      "bufferView" : 12,
      "componentType" : 5126,
      "count" : 276,
      "type" : "VEC2"
    },
    {
      "bufferView" : 13,
      "componentType" : 5126,
      "count" : 276,
      "type" : "VEC2"
    },
    {
      "bufferView" : 14,
      "componentType" : 5126,
      "count" : 276,
      "type" : "VEC2"
    },
    {
      "bufferView" : 15,
      "componentType" : 5126,
      "count" : 276,
      "type" : "VEC2"
    },
    {
      "bufferView" : 16,
      "componentType" : 5123,
      "count" : 780,
      "type" : "SCALAR"
    },
    {
      "bufferView" : 17,
      "min" : [ 16.686, 4.8, 28.6175 ],
      "max" : [ 22.446, 8.12, 60.627 ],
      "componentType" : 5126,
      "count" : 463,
      "type" : "VEC3"
    },
    {
      "bufferView" : 18,
      "componentType" : 5126,
      "count" : 463,
      "type" : "VEC3"
    },
    {
      "bufferView" : 19,
      "componentType" : 5126,
      "count" : 463,
      "type" : "VEC4"
    },
    {
      "bufferView" : 20,
      "componentType" : 5126,
      "count" : 463,
      "type" : "VEC2"
    },
    {
      "bufferView" : 21,
      "componentType" : 5126,
      "count" : 463,
      "type" : "VEC2"
    },
    {
      "bufferView" : 22,
      "componentType" : 5126,
      "count" : 463,
      "type" : "VEC2"
    },
    {
      "bufferView" : 23,
      "componentType" : 5126,
      "count" : 463,
      "type" : "VEC2"
    },
    {
      "bufferView" : 24,
      "componentType" : 5123,
      "count" : 132,
      "type" : "SCALAR"
    },
    {
      "bufferView" : 25,
      "min" : [ 17.2821, -3.05176e-06, 28.9097 ],
      "max" : [ 18.0951, 0.300002, 61.1764 ],
      "componentType" : 5126,
      "count" : 66,
      "type" : "VEC3"
    },
    {
      "bufferView" : 26,
      "componentType" : 5126,
      "count" : 66,
      "type" : "VEC3"
    },
    {
      "bufferView" : 27,
      "componentType" : 5126,
      "count" : 66,
      "type" : "VEC4"
    },
    {
      "bufferView" : 28,
      "componentType" : 5126,
      "count" : 66,
      "type" : "VEC2"
    },
    {
      "bufferView" : 29,
      "componentType" : 5126,
      "count" : 66,
      "type" : "VEC2"
    },
    {
      "bufferView" : 30,
      "componentType" : 5126,
      "count" : 66,
      "type" : "VEC2"
    },
    {
      "bufferView" : 31,
      "componentType" : 5126,
      "count" : 66,
      "type" : "VEC2"
    },
    {
      "bufferView" : 32,
      "componentType" : 5123,
      "count" : 21,
      "type" : "SCALAR"
    },
    {
      "bufferView" : 33,
      "min" : [ 17.3774, 0.800001, 60.3673 ],
      "max" : [ 18.0708, 1.6, 61.1413 ],
      "componentType" : 5126,
      "count" : 9,
      "type" : "VEC3"
    },
    {
      "bufferView" : 34,
      "componentType" : 5126,
      "count" : 9,
      "type" : "VEC3"
    },
    {
      "bufferView" : 35,
      "componentType" : 5126,
      "count" : 9,
      "type" : "VEC4"
    },
    {
      "bufferView" : 36,
      "componentType" : 5126,
      "count" : 9,
      "type" : "VEC2"
    },
    {
      "bufferView" : 37,
      "componentType" : 5126,
      "count" : 9,
      "type" : "VEC2"
    },
    {
      "bufferView" : 38,
      "componentType" : 5126,
      "count" : 9,
      "type" : "VEC2"
    },
    {
      "bufferView" : 39,
      "componentType" : 5126,
      "count" : 9,
      "type" : "VEC2"
    },
    {
      "bufferView" : 40,
      "componentType" : 5123,
      "count" : 420,
      "type" : "SCALAR"
    },
    {
      "bufferView" : 41,
      "min" : [ 16.686, 5.07002, 31.7511 ],
      "max" : [ 17.8623, 5.6, 60.627 ],
      "componentType" : 5126,
      "count" : 238,
      "type" : "VEC3"
    },
    {
      "bufferView" : 42,
      "componentType" : 5126,
      "count" : 238,
      "type" : "VEC3"
    },
    {
      "bufferView" : 43,
      "componentType" : 5126,
      "count" : 238,
      "type" : "VEC4"
    },
    {
      "bufferView" : 44,
      "componentType" : 5126,
      "count" : 238,
      "type" : "VEC2"
    },
    {
      "bufferView" : 45,
      "componentType" : 5126,
      "count" : 238,
      "type" : "VEC2"
    },
    {
      "bufferView" : 46,
      "componentType" : 5126,
      "count" : 238,
      "type" : "VEC2"
    },
    {
      "bufferView" : 47,
      "componentType" : 5126,
      "count" : 238,
      "type" : "VEC2"
    },
    {
      "bufferView" : 48,
      "componentType" : 5123,
      "count" : 6,
      "type" : "SCALAR"
    },
    {
      "bufferView" : 49,
      "min" : [ 18.0083, 5.97741, 37.5465 ],
      "max" : [ 22.0083, 5.97741, 60.6493 ],
      "componentType" : 5126,
      "count" : 4,
      "type" : "VEC3"
    },
    {
      "bufferView" : 50,
      "componentType" : 5126,
      "count" : 4,
      "type" : "VEC3"
    },
    {
      "bufferView" : 51,
      "componentType" : 5126,
      "count" : 4,
      "type" : "VEC4"
    },
    {
      "bufferView" : 52,
      "componentType" : 5126,
      "count" : 4,
      "type" : "VEC2"
    },
    {
      "bufferView" : 53,
      "componentType" : 5126,
      "count" : 4,
      "type" : "VEC2"
    },
    {
      "bufferView" : 54,
      "componentType" : 5126,
      "count" : 4,
      "type" : "VEC2"
    },
    {
      "bufferView" : 55,
      "componentType" : 5126,
      "count" : 4,
      "type" : "VEC2"
    }
  ]
}
