{
  "asset" : {
    "generator" : "UE Viewer (umodel) build 1544 based",
    "version" : "2.0"
  },
  "scene" : 0,
  "scenes" : [
    {
      "nodes" : [ 0 ]
    }
  ],
  "nodes" : [
    {
      "name" : "SM_ENV_LKNVLD_Stall_K",
      "mesh" : 0
    }
  ],
  "materials" : [
    {
      "name" : "MI_ENV_LKNVLD_Stall_A",
      "pbrMetallicRoughness" : {
        "baseColorFactor" : [ 0.3, 0.3, 0.3, 1.0 ],
        "metallicFactor" : 0.1,
        "roughnessFactor" : 0.5
      }
    },
    {
      "name" : "MI_ENV_LKNVLD_Stall_K",
      "pbrMetallicRoughness" : {
        "baseColorFactor" : [ 0.9, 0.3, 0.3, 1.0 ],
        "metallicFactor" : 0.1,
        "roughnessFactor" : 0.5
      }
    },
    {
      "name" : "MI_ENV_LKNVLD_Pipe_A_Trans",
      "pbrMetallicRoughness" : {
        "baseColorFactor" : [ 0.3, 0.9, 0.3, 1.0 ],
        "metallicFactor" : 0.1,
        "roughnessFactor" : 0.5
      }
    },
    {
      "name" : "MI_ENV_LKNVLD_Bench_A",
      "pbrMetallicRoughness" : {
        "baseColorFactor" : [ 0.3, 0.3, 0.9, 1.0 ],
        "metallicFactor" : 0.1,
        "roughnessFactor" : 0.5
      }
    },
    {
      "name" : "MI_LKNVLD_Water_A",
      "pbrMetallicRoughness" : {
        "baseColorFactor" : [ 0.9, 0.9, 0.9, 1.0 ],
        "metallicFactor" : 0.1,
        "roughnessFactor" : 0.5
      }
    },
    {
      "name" : "MI_ENV_LKNVLD_WoodBoard_A",
      "pbrMetallicRoughness" : {
        "baseColorFactor" : [ 0.9, 0.9, 0.3, 1.0 ],
        "metallicFactor" : 0.1,
        "roughnessFactor" : 0.5
      }
    },
    {
      "name" : "MI_ENV_LKNVLD_Stall_02a",
      "pbrMetallicRoughness" : {
        "baseColorFactor" : [ 0.9, 0.3, 0.9, 1.0 ],
        "metallicFactor" : 0.1,
        "roughnessFactor" : 0.5
      }
    },
    {
      "name" : "MI_ENV_LKNVLD_Sticker_02",
      "pbrMetallicRoughness" : {
        "baseColorFactor" : [ 0.3, 0.9, 0.9, 1.0 ],
        "metallicFactor" : 0.1,
        "roughnessFactor" : 0.5
      }
    },
    {
      "name" : "MI_ENV_LKNVLD_Roof_A",
      "pbrMetallicRoughness" : {
        "baseColorFactor" : [ 1, 0.3, 0.3, 1.0 ],
        "metallicFactor" : 0.1,
        "roughnessFactor" : 0.5
      }
    }
  ],
  "meshes" : [
    {
      "primitives" : [
        {
          "attributes" : {
            "POSITION" : 1,
            "NORMAL" : 2,
            "TANGENT" : 3,
            "COLOR_0" : 4,
            "TEXCOORD_0" : 5,
            "TEXCOORD_1" : 6,
            "TEXCOORD_2" : 7,
            "TEXCOORD_3" : 8
          },
          "indices" : 0,
          "material" : 0
        },
        {
          "attributes" : {
            "POSITION" : 10,
            "NORMAL" : 11,
            "TANGENT" : 12,
            "COLOR_0" : 13,
            "TEXCOORD_0" : 14,
            "TEXCOORD_1" : 15,
            "TEXCOORD_2" : 16,
            "TEXCOORD_3" : 17
          },
          "indices" : 9,
          "material" : 1
        },
        {
          "attributes" : {
            "POSITION" : 19,
            "NORMAL" : 20,
            "TANGENT" : 21,
            "COLOR_0" : 22,
            "TEXCOORD_0" : 23,
            "TEXCOORD_1" : 24,
            "TEXCOORD_2" : 25,
            "TEXCOORD_3" : 26
          },
          "indices" : 18,
          "material" : 2
        },
        {
          "attributes" : {
            "POSITION" : 28,
            "NORMAL" : 29,
            "TANGENT" : 30,
            "COLOR_0" : 31,
            "TEXCOORD_0" : 32,
            "TEXCOORD_1" : 33,
            "TEXCOORD_2" : 34,
            "TEXCOORD_3" : 35
          },
          "indices" : 27,
          "material" : 3
        },
        {
          "attributes" : {
            "POSITION" : 37,
            "NORMAL" : 38,
            "TANGENT" : 39,
            "COLOR_0" : 40,
            "TEXCOORD_0" : 41,
            "TEXCOORD_1" : 42,
            "TEXCOORD_2" : 43,
            "TEXCOORD_3" : 44
          },
          "indices" : 36,
          "material" : 4
        },
        {
          "attributes" : {
            "POSITION" : 46,
            "NORMAL" : 47,
            "TANGENT" : 48,
            "COLOR_0" : 49,
            "TEXCOORD_0" : 50,
            "TEXCOORD_1" : 51,
            "TEXCOORD_2" : 52,
            "TEXCOORD_3" : 53
          },
          "indices" : 45,
          "material" : 5
        },
        {
          "attributes" : {
            "POSITION" : 55,
            "NORMAL" : 56,
            "TANGENT" : 57,
            "COLOR_0" : 58,
            "TEXCOORD_0" : 59,
            "TEXCOORD_1" : 60,
            "TEXCOORD_2" : 61,
            "TEXCOORD_3" : 62
          },
          "indices" : 54,
          "material" : 6
        },
        {
          "attributes" : {
            "POSITION" : 64,
            "NORMAL" : 65,
            "TANGENT" : 66,
            "COLOR_0" : 67,
            "TEXCOORD_0" : 68,
            "TEXCOORD_1" : 69,
            "TEXCOORD_2" : 70,
            "TEXCOORD_3" : 71
          },
          "indices" : 63,
          "material" : 7
        },
        {
          "attributes" : {
            "POSITION" : 73,
            "NORMAL" : 74,
            "TANGENT" : 75,
            "COLOR_0" : 76,
            "TEXCOORD_0" : 77,
            "TEXCOORD_1" : 78,
            "TEXCOORD_2" : 79,
            "TEXCOORD_3" : 80
          },
          "indices" : 72,
          "material" : 8
        }
      ],
      "name" : "SM_ENV_LKNVLD_Stall_K"
    }
  ],
  "buffers" : [
    {
      "uri" : "SM_ENV_LKNVLD_Stall_K.bin",
      "byteLength" : 1182108
    }
  ],
  "bufferViews" : [
    {
      "buffer" : 0,
      "byteOffset" : 0,
      "byteLength" : 6840
    },
    {
      "buffer" : 0,
      "byteOffset" : 6840,
      "byteLength" : 17340
    },
    {
      "buffer" : 0,
      "byteOffset" : 24180,
      "byteLength" : 17340
    },
    {
      "buffer" : 0,
      "byteOffset" : 41520,
      "byteLength" : 23120
    },
    {
      "buffer" : 0,
      "byteOffset" : 64640,
      "byteLength" : 5780
    },
    {
      "buffer" : 0,
      "byteOffset" : 70420,
      "byteLength" : 11560
    },
    {
      "buffer" : 0,
      "byteOffset" : 81980,
      "byteLength" : 11560
    },
    {
      "buffer" : 0,
      "byteOffset" : 93540,
      "byteLength" : 11560
    },
    {
      "buffer" : 0,
      "byteOffset" : 105100,
      "byteLength" : 11560
    },
    {
      "buffer" : 0,
      "byteOffset" : 116660,
      "byteLength" : 83760
    },
    {
      "buffer" : 0,
      "byteOffset" : 200420,
      "byteLength" : 110076
    },
    {
      "buffer" : 0,
      "byteOffset" : 310496,
      "byteLength" : 110076
    },
    {
      "buffer" : 0,
      "byteOffset" : 420572,
      "byteLength" : 146768
    },
    {
      "buffer" : 0,
      "byteOffset" : 567340,
      "byteLength" : 36692
    },
    {
      "buffer" : 0,
      "byteOffset" : 604032,
      "byteLength" : 73384
    },
    {
      "buffer" : 0,
      "byteOffset" : 677416,
      "byteLength" : 73384
    },
    {
      "buffer" : 0,
      "byteOffset" : 750800,
      "byteLength" : 73384
    },
    {
      "buffer" : 0,
      "byteOffset" : 824184,
      "byteLength" : 73384
    },
    {
      "buffer" : 0,
      "byteOffset" : 897568,
      "byteLength" : 6624
    },
    {
      "buffer" : 0,
      "byteOffset" : 904192,
      "byteLength" : 12432
    },
    {
      "buffer" : 0,
      "byteOffset" : 916624,
      "byteLength" : 12432
    },
    {
      "buffer" : 0,
      "byteOffset" : 929056,
      "byteLength" : 16576
    },
    {
      "buffer" : 0,
      "byteOffset" : 945632,
      "byteLength" : 4144
    },
    {
      "buffer" : 0,
      "byteOffset" : 949776,
      "byteLength" : 8288
    },
    {
      "buffer" : 0,
      "byteOffset" : 958064,
      "byteLength" : 8288
    },
    {
      "buffer" : 0,
      "byteOffset" : 966352,
      "byteLength" : 8288
    },
    {
      "buffer" : 0,
      "byteOffset" : 974640,
      "byteLength" : 8288
    },
    {
      "buffer" : 0,
      "byteOffset" : 982928,
      "byteLength" : 744
    },
    {
      "buffer" : 0,
      "byteOffset" : 983672,
      "byteLength" : 2880
    },
    {
      "buffer" : 0,
      "byteOffset" : 986552,
      "byteLength" : 2880
    },
    {
      "buffer" : 0,
      "byteOffset" : 989432,
      "byteLength" : 3840
    },
    {
      "buffer" : 0,
      "byteOffset" : 993272,
      "byteLength" : 960
    },
    {
      "buffer" : 0,
      "byteOffset" : 994232,
      "byteLength" : 1920
    },
    {
      "buffer" : 0,
      "byteOffset" : 996152,
      "byteLength" : 1920
    },
    {
      "buffer" : 0,
      "byteOffset" : 998072,
      "byteLength" : 1920
    },
    {
      "buffer" : 0,
      "byteOffset" : 999992,
      "byteLength" : 1920
    },
    {
      "buffer" : 0,
      "byteOffset" : 1001912,
      "byteLength" : 6804
    },
    {
      "buffer" : 0,
      "byteOffset" : 1008716,
      "byteLength" : 7500
    },
    {
      "buffer" : 0,
      "byteOffset" : 1016216,
      "byteLength" : 7500
    },
    {
      "buffer" : 0,
      "byteOffset" : 1023716,
      "byteLength" : 10000
    },
    {
      "buffer" : 0,
      "byteOffset" : 1033716,
      "byteLength" : 2500
    },
    {
      "buffer" : 0,
      "byteOffset" : 1036216,
      "byteLength" : 5000
    },
    {
      "buffer" : 0,
      "byteOffset" : 1041216,
      "byteLength" : 5000
    },
    {
      "buffer" : 0,
      "byteOffset" : 1046216,
      "byteLength" : 5000
    },
    {
      "buffer" : 0,
      "byteOffset" : 1051216,
      "byteLength" : 5000
    },
    {
      "buffer" : 0,
      "byteOffset" : 1056216,
      "byteLength" : 2664
    },
    {
      "buffer" : 0,
      "byteOffset" : 1058880,
      "byteLength" : 9384
    },
    {
      "buffer" : 0,
      "byteOffset" : 1068264,
      "byteLength" : 9384
    },
    {
      "buffer" : 0,
      "byteOffset" : 1077648,
      "byteLength" : 12512
    },
    {
      "buffer" : 0,
      "byteOffset" : 1090160,
      "byteLength" : 3128
    },
    {
      "buffer" : 0,
      "byteOffset" : 1093288,
      "byteLength" : 6256
    },
    {
      "buffer" : 0,
      "byteOffset" : 1099544,
      "byteLength" : 6256
    },
    {
      "buffer" : 0,
      "byteOffset" : 1105800,
      "byteLength" : 6256
    },
    {
      "buffer" : 0,
      "byteOffset" : 1112056,
      "byteLength" : 6256
    },
    {
      "buffer" : 0,
      "byteOffset" : 1118312,
      "byteLength" : 6384
    },
    {
      "buffer" : 0,
      "byteOffset" : 1124696,
      "byteLength" : 6984
    },
    {
      "buffer" : 0,
      "byteOffset" : 1131680,
      "byteLength" : 6984
    },
    {
      "buffer" : 0,
      "byteOffset" : 1138664,
      "byteLength" : 9312
    },
    {
      "buffer" : 0,
      "byteOffset" : 1147976,
      "byteLength" : 2328
    },
    {
      "buffer" : 0,
      "byteOffset" : 1150304,
      "byteLength" : 4656
    },
    {
      "buffer" : 0,
      "byteOffset" : 1154960,
      "byteLength" : 4656
    },
    {
      "buffer" : 0,
      "byteOffset" : 1159616,
      "byteLength" : 4656
    },
    {
      "buffer" : 0,
      "byteOffset" : 1164272,
      "byteLength" : 4656
    },
    {
      "buffer" : 0,
      "byteOffset" : 1168928,
      "byteLength" : 128
    },
    {
      "buffer" : 0,
      "byteOffset" : 1169056,
      "byteLength" : 564
    },
    {
      "buffer" : 0,
      "byteOffset" : 1169620,
      "byteLength" : 564
    },
    {
      "buffer" : 0,
      "byteOffset" : 1170184,
      "byteLength" : 752
    },
    {
      "buffer" : 0,
      "byteOffset" : 1170936,
      "byteLength" : 188
    },
    {
      "buffer" : 0,
      "byteOffset" : 1171124,
      "byteLength" : 376
    },
    {
      "buffer" : 0,
      "byteOffset" : 1171500,
      "byteLength" : 376
    },
    {
      "buffer" : 0,
      "byteOffset" : 1171876,
      "byteLength" : 376
    },
    {
      "buffer" : 0,
      "byteOffset" : 1172252,
      "byteLength" : 376
    },
    {
      "buffer" : 0,
      "byteOffset" : 1172628,
      "byteLength" : 360
    },
    {
      "buffer" : 0,
      "byteOffset" : 1172988,
      "byteLength" : 1440
    },
    {
      "buffer" : 0,
      "byteOffset" : 1174428,
      "byteLength" : 1440
    },
    {
      "buffer" : 0,
      "byteOffset" : 1175868,
      "byteLength" : 1920
    },
    {
      "buffer" : 0,
      "byteOffset" : 1177788,
      "byteLength" : 480
    },
    {
      "buffer" : 0,
      "byteOffset" : 1178268,
      "byteLength" : 960
    },
    {
      "buffer" : 0,
      "byteOffset" : 1179228,
      "byteLength" : 960
    },
    {
      "buffer" : 0,
      "byteOffset" : 1180188,
      "byteLength" : 960
    },
    {
      "buffer" : 0,
      "byteOffset" : 1181148,
      "byteLength" : 960
    }
  ],
  "accessors" : [
    {
      "bufferView" : 0,
      "componentType" : 5123,
      "count" : 3420,
      "type" : "SCALAR"
    },
    {
      "bufferView" : 1,
      "min" : [ -1.45901, 2.01575, 0.706074 ],
      "max" : [ 1.42957, 2.59592, 1.00058 ],
      "componentType" : 5126,
      "count" : 1445,
      "type" : "VEC3"
    },
    {
      "bufferView" : 2,
      "componentType" : 5126,
      "count" : 1445,
      "type" : "VEC3"
    },
    {
      "bufferView" : 3,
      "componentType" : 5126,
      "count" : 1445,
      "type" : "VEC4"
    },
    {
      "bufferView" : 4,
      "normalized" : true,
      "componentType" : 5121,
      "count" : 1445,
      "type" : "VEC4"
    },
    {
      "bufferView" : 5,
      "componentType" : 5126,
      "count" : 1445,
      "type" : "VEC2"
    },
    {
      "bufferView" : 6,
      "componentType" : 5126,
      "count" : 1445,
      "type" : "VEC2"
    },
    {
      "bufferView" : 7,
      "componentType" : 5126,
      "count" : 1445,
      "type" : "VEC2"
    },
    {
      "bufferView" : 8,
      "componentType" : 5126,
      "count" : 1445,
      "type" : "VEC2"
    },
    {
      "bufferView" : 9,
      "componentType" : 5123,
      "count" : 41880,
      "type" : "SCALAR"
    },
    {
      "bufferView" : 10,
      "min" : [ -1.26463, 0.00370556, -0.197167 ],
      "max" : [ 1.17008, 2.58094, 1.22093 ],
      "componentType" : 5126,
      "count" : 9173,
      "type" : "VEC3"
    },
    {
      "bufferView" : 11,
      "componentType" : 5126,
      "count" : 9173,
      "type" : "VEC3"
    },
    {
      "bufferView" : 12,
      "componentType" : 5126,
      "count" : 9173,
      "type" : "VEC4"
    },
    {
      "bufferView" : 13,
      "normalized" : true,
      "componentType" : 5121,
      "count" : 9173,
      "type" : "VEC4"
    },
    {
      "bufferView" : 14,
      "componentType" : 5126,
      "count" : 9173,
      "type" : "VEC2"
    },
    {
      "bufferView" : 15,
      "componentType" : 5126,
      "count" : 9173,
      "type" : "VEC2"
    },
    {
      "bufferView" : 16,
      "componentType" : 5126,
      "count" : 9173,
      "type" : "VEC2"
    },
    {
      "bufferView" : 17,
      "componentType" : 5126,
      "count" : 9173,
      "type" : "VEC2"
    },
    {
      "bufferView" : 18,
      "componentType" : 5123,
      "count" : 3312,
      "type" : "SCALAR"
    },
    {
      "bufferView" : 19,
      "min" : [ -0.127092, 0.0533642, -1.14722 ],
      "max" : [ 1.33795, 2.84844, 0.746959 ],
      "componentType" : 5126,
      "count" : 1036,
      "type" : "VEC3"
    },
    {
      "bufferView" : 20,
      "componentType" : 5126,
      "count" : 1036,
      "type" : "VEC3"
    },
    {
      "bufferView" : 21,
      "componentType" : 5126,
      "count" : 1036,
      "type" : "VEC4"
    },
    {
      "bufferView" : 22,
      "normalized" : true,
      "componentType" : 5121,
      "count" : 1036,
      "type" : "VEC4"
    },
    {
      "bufferView" : 23,
      "componentType" : 5126,
      "count" : 1036,
      "type" : "VEC2"
    },
    {
      "bufferView" : 24,
      "componentType" : 5126,
      "count" : 1036,
      "type" : "VEC2"
    },
    {
      "bufferView" : 25,
      "componentType" : 5126,
      "count" : 1036,
      "type" : "VEC2"
    },
    {
      "bufferView" : 26,
      "componentType" : 5126,
      "count" : 1036,
      "type" : "VEC2"
    },
    {
      "bufferView" : 27,
      "componentType" : 5123,
      "count" : 372,
      "type" : "SCALAR"
    },
    {
      "bufferView" : 28,
      "min" : [ -1.08229, -0.00392198, -0.911538 ],
      "max" : [ 1.08884, 0.444506, -0.250347 ],
      "componentType" : 5126,
      "count" : 240,
      "type" : "VEC3"
    },
    {
      "bufferView" : 29,
      "componentType" : 5126,
      "count" : 240,
      "type" : "VEC3"
    },
    {
      "bufferView" : 30,
      "componentType" : 5126,
      "count" : 240,
      "type" : "VEC4"
    },
    {
      "bufferView" : 31,
      "normalized" : true,
      "componentType" : 5121,
      "count" : 240,
      "type" : "VEC4"
    },
    {
      "bufferView" : 32,
      "componentType" : 5126,
      "count" : 240,
      "type" : "VEC2"
    },
    {
      "bufferView" : 33,
      "componentType" : 5126,
      "count" : 240,
      "type" : "VEC2"
    },
    {
      "bufferView" : 34,
      "componentType" : 5126,
      "count" : 240,
      "type" : "VEC2"
    },
    {
      "bufferView" : 35,
      "componentType" : 5126,
      "count" : 240,
      "type" : "VEC2"
    },
    {
      "bufferView" : 36,
      "componentType" : 5123,
      "count" : 3402,
      "type" : "SCALAR"
    },
    {
      "bufferView" : 37,
      "min" : [ -1.21363, 0.234135, -0.152913 ],
      "max" : [ 0.904622, 0.274264, 1.17329 ],
      "componentType" : 5126,
      "count" : 625,
      "type" : "VEC3"
    },
    {
      "bufferView" : 38,
      "componentType" : 5126,
      "count" : 625,
      "type" : "VEC3"
    },
    {
      "bufferView" : 39,
      "componentType" : 5126,
      "count" : 625,
      "type" : "VEC4"
    },
    {
      "bufferView" : 40,
      "normalized" : true,
      "componentType" : 5121,
      "count" : 625,
      "type" : "VEC4"
    },
    {
      "bufferView" : 41,
      "componentType" : 5126,
      "count" : 625,
      "type" : "VEC2"
    },
    {
      "bufferView" : 42,
      "componentType" : 5126,
      "count" : 625,
      "type" : "VEC2"
    },
    {
      "bufferView" : 43,
      "componentType" : 5126,
      "count" : 625,
      "type" : "VEC2"
    },
    {
      "bufferView" : 44,
      "componentType" : 5126,
      "count" : 625,
      "type" : "VEC2"
    },
    {
      "bufferView" : 45,
      "componentType" : 5123,
      "count" : 1332,
      "type" : "SCALAR"
    },
    {
      "bufferView" : 46,
      "min" : [ -1.23841, -0.0153989, -1.04629 ],
      "max" : [ 1.24496, 3.15768, 1.24338 ],
      "componentType" : 5126,
      "count" : 782,
      "type" : "VEC3"
    },
    {
      "bufferView" : 47,
      "componentType" : 5126,
      "count" : 782,
      "type" : "VEC3"
    },
    {
      "bufferView" : 48,
      "componentType" : 5126,
      "count" : 782,
      "type" : "VEC4"
    },
    {
      "bufferView" : 49,
      "normalized" : true,
      "componentType" : 5121,
      "count" : 782,
      "type" : "VEC4"
    },
    {
      "bufferView" : 50,
      "componentType" : 5126,
      "count" : 782,
      "type" : "VEC2"
    },
    {
      "bufferView" : 51,
      "componentType" : 5126,
      "count" : 782,
      "type" : "VEC2"
    },
    {
      "bufferView" : 52,
      "componentType" : 5126,
      "count" : 782,
      "type" : "VEC2"
    },
    {
      "bufferView" : 53,
      "componentType" : 5126,
      "count" : 782,
      "type" : "VEC2"
    },
    {
      "bufferView" : 54,
      "componentType" : 5123,
      "count" : 3192,
      "type" : "SCALAR"
    },
    {
      "bufferView" : 55,
      "min" : [ -1.18215, 1.02159, -1.03183 ],
      "max" : [ 1.28209, 2.83304, -0.0607791 ],
      "componentType" : 5126,
      "count" : 582,
      "type" : "VEC3"
    },
    {
      "bufferView" : 56,
      "componentType" : 5126,
      "count" : 582,
      "type" : "VEC3"
    },
    {
      "bufferView" : 57,
      "componentType" : 5126,
      "count" : 582,
      "type" : "VEC4"
    },
    {
      "bufferView" : 58,
      "normalized" : true,
      "componentType" : 5121,
      "count" : 582,
      "type" : "VEC4"
    },
    {
      "bufferView" : 59,
      "componentType" : 5126,
      "count" : 582,
      "type" : "VEC2"
    },
    {
      "bufferView" : 60,
      "componentType" : 5126,
      "count" : 582,
      "type" : "VEC2"
    },
    {
      "bufferView" : 61,
      "componentType" : 5126,
      "count" : 582,
      "type" : "VEC2"
    },
    {
      "bufferView" : 62,
      "componentType" : 5126,
      "count" : 582,
      "type" : "VEC2"
    },
    {
      "bufferView" : 63,
      "componentType" : 5123,
      "count" : 63,
      "type" : "SCALAR"
    },
    {
      "bufferView" : 64,
      "min" : [ -1.20919, 1.50891, -1.04298 ],
      "max" : [ 1.22069, 3.03343, 0.403842 ],
      "componentType" : 5126,
      "count" : 47,
      "type" : "VEC3"
    },
    {
      "bufferView" : 65,
      "componentType" : 5126,
      "count" : 47,
      "type" : "VEC3"
    },
    {
      "bufferView" : 66,
      "componentType" : 5126,
      "count" : 47,
      "type" : "VEC4"
    },
    {
      "bufferView" : 67,
      "normalized" : true,
      "componentType" : 5121,
      "count" : 47,
      "type" : "VEC4"
    },
    {
      "bufferView" : 68,
      "componentType" : 5126,
      "count" : 47,
      "type" : "VEC2"
    },
    {
      "bufferView" : 69,
      "componentType" : 5126,
      "count" : 47,
      "type" : "VEC2"
    },
    {
      "bufferView" : 70,
      "componentType" : 5126,
      "count" : 47,
      "type" : "VEC2"
    },
    {
      "bufferView" : 71,
      "componentType" : 5126,
      "count" : 47,
      "type" : "VEC2"
    },
    {
      "bufferView" : 72,
      "componentType" : 5123,
      "count" : 180,
      "type" : "SCALAR"
    },
    {
      "bufferView" : 73,
      "min" : [ -1.51003, 2.57818, -1.2411 ],
      "max" : [ 1.50565, 3.23904, 0.997613 ],
      "componentType" : 5126,
      "count" : 120,
      "type" : "VEC3"
    },
    {
      "bufferView" : 74,
      "componentType" : 5126,
      "count" : 120,
      "type" : "VEC3"
    },
    {
      "bufferView" : 75,
      "componentType" : 5126,
      "count" : 120,
      "type" : "VEC4"
    },
    {
      "bufferView" : 76,
      "normalized" : true,
      "componentType" : 5121,
      "count" : 120,
      "type" : "VEC4"
    },
    {
      "bufferView" : 77,
      "componentType" : 5126,
      "count" : 120,
      "type" : "VEC2"
    },
    {
      "bufferView" : 78,
      "componentType" : 5126,
      "count" : 120,
      "type" : "VEC2"
    },
    {
      "bufferView" : 79,
      "componentType" : 5126,
      "count" : 120,
      "type" : "VEC2"
    },
    {
      "bufferView" : 80,
      "componentType" : 5126,
      "count" : 120,
      "type" : "VEC2"
    }
  ]
}
