{
  "asset" : {
    "generator" : "UE Viewer (umodel) build 1544 based",
    "version" : "2.0"
  },
  "scene" : 0,
  "scenes" : [
    {
      "nodes" : [ 0 ]
    }
  ],
  "nodes" : [
    {
      "name" : "SM_ENV_LKNVLD_RockMiddle_B_Lod3",
      "mesh" : 0
    }
  ],
  "materials" : [
    {
      "name" : "MI_ENV_LKNVLD_MiddleRock_A",
      "pbrMetallicRoughness" : {
        "baseColorFactor" : [ 0.3, 0.3, 0.3, 1.0 ],
        "metallicFactor" : 0.1,
        "roughnessFactor" : 0.5
      }
    }
  ],
  "meshes" : [
    {
      "primitives" : [
        {
          "attributes" : {
            "POSITION" : 1,
            "NORMAL" : 2,
            "TANGENT" : 3,
            "COLOR_0" : 4,
            "TEXCOORD_0" : 5,
            "TEXCOORD_1" : 6,
            "TEXCOORD_2" : 7,
            "TEXCOORD_3" : 8
          },
          "indices" : 0,
          "material" : 0
        }
      ],
      "name" : "SM_ENV_LKNVLD_RockMiddle_B_Lod3"
    }
  ],
  "buffers" : [
    {
      "uri" : "SM_ENV_LKNVLD_RockMiddle_B_Lod3.bin",
      "byteLength" : 19868
    }
  ],
  "bufferViews" : [
    {
      "buffer" : 0,
      "byteOffset" : 0,
      "byteLength" : 1704
    },
    {
      "buffer" : 0,
      "byteOffset" : 1704,
      "byteLength" : 2868
    },
    {
      "buffer" : 0,
      "byteOffset" : 4572,
      "byteLength" : 2868
    },
    {
      "buffer" : 0,
      "byteOffset" : 7440,
      "byteLength" : 3824
    },
    {
      "buffer" : 0,
      "byteOffset" : 11264,
      "byteLength" : 956
    },
    {
      "buffer" : 0,
      "byteOffset" : 12220,
      "byteLength" : 1912
    },
    {
      "buffer" : 0,
      "byteOffset" : 14132,
      "byteLength" : 1912
    },
    {
      "buffer" : 0,
      "byteOffset" : 16044,
      "byteLength" : 1912
    },
    {
      "buffer" : 0,
      "byteOffset" : 17956,
      "byteLength" : 1912
    }
  ],
  "accessors" : [
    {
      "bufferView" : 0,
      "componentType" : 5123,
      "count" : 852,
      "type" : "SCALAR"
    },
    {
      "bufferView" : 1,
      "min" : [ -35.75, -0.311827, -28.0602 ],
      "max" : [ -29.4936, 1.04822, -23.9576 ],
      "componentType" : 5126,
      "count" : 239,
      "type" : "VEC3"
    },
    {
      "bufferView" : 2,
      "componentType" : 5126,
      "count" : 239,
      "type" : "VEC3"
    },
    {
      "bufferView" : 3,
      "componentType" : 5126,
      "count" : 239,
      "type" : "VEC4"
    },
    {
      "bufferView" : 4,
      "normalized" : true,
      "componentType" : 5121,
      "count" : 239,
      "type" : "VEC4"
    },
    {
      "bufferView" : 5,
      "componentType" : 5126,
      "count" : 239,
      "type" : "VEC2"
    },
    {
      "bufferView" : 6,
      "componentType" : 5126,
      "count" : 239,
      "type" : "VEC2"
    },
    {
      "bufferView" : 7,
      "componentType" : 5126,
      "count" : 239,
      "type" : "VEC2"
    },
    {
      "bufferView" : 8,
      "componentType" : 5126,
      "count" : 239,
      "type" : "VEC2"
    }
  ]
}
