{
  "asset" : {
    "generator" : "UE Viewer (umodel) build 1544 based",
    "version" : "2.0"
  },
  "scene" : 0,
  "scenes" : [
    {
      "nodes" : [ 0 ]
    }
  ],
  "nodes" : [
    {
      "name" : "SM_ENV_LKNVLD_TreeSet_B_Lod2",
      "mesh" : 0
    }
  ],
  "materials" : [
    {
      "name" : "MI_ENV_LKNVLD_Tree_A_Masked_CameraTrans",
      "pbrMetallicRoughness" : {
        "baseColorFactor" : [ 0.3, 0.3, 0.3, 1.0 ],
        "metallicFactor" : 0.1,
        "roughnessFactor" : 0.5
      }
    },
    {
      "name" : "MI_ENV_LKNVLD_LeafMasked_A",
      "pbrMetallicRoughness" : {
        "baseColorFactor" : [ 0.9, 0.3, 0.3, 1.0 ],
        "metallicFactor" : 0.1,
        "roughnessFactor" : 0.5
      }
    },
    {
      "name" : "MI_ENV_LKNVLD_Leaf_A",
      "pbrMetallicRoughness" : {
        "baseColorFactor" : [ 0.3, 0.9, 0.3, 1.0 ],
        "metallicFactor" : 0.1,
        "roughnessFactor" : 0.5
      }
    }
  ],
  "meshes" : [
    {
      "primitives" : [
        {
          "attributes" : {
            "POSITION" : 1,
            "NORMAL" : 2,
            "TANGENT" : 3,
            "COLOR_0" : 4,
            "TEXCOORD_0" : 5,
            "TEXCOORD_1" : 6,
            "TEXCOORD_2" : 7,
            "TEXCOORD_3" : 8
          },
          "indices" : 0,
          "material" : 0
        },
        {
          "attributes" : {
            "POSITION" : 10,
            "NORMAL" : 11,
            "TANGENT" : 12,
            "COLOR_0" : 13,
            "TEXCOORD_0" : 14,
            "TEXCOORD_1" : 15,
            "TEXCOORD_2" : 16,
            "TEXCOORD_3" : 17
          },
          "indices" : 9,
          "material" : 1
        },
        {
          "attributes" : {
            "POSITION" : 19,
            "NORMAL" : 20,
            "TANGENT" : 21,
            "COLOR_0" : 22,
            "TEXCOORD_0" : 23,
            "TEXCOORD_1" : 24,
            "TEXCOORD_2" : 25,
            "TEXCOORD_3" : 26
          },
          "indices" : 18,
          "material" : 2
        }
      ],
      "name" : "SM_ENV_LKNVLD_TreeSet_B_Lod2"
    }
  ],
  "buffers" : [
    {
      "uri" : "SM_ENV_LKNVLD_TreeSet_B_Lod2.bin",
      "byteLength" : 1856392
    }
  ],
  "bufferViews" : [
    {
      "buffer" : 0,
      "byteOffset" : 0,
      "byteLength" : 3408
    },
    {
      "buffer" : 0,
      "byteOffset" : 3408,
      "byteLength" : 15756
    },
    {
      "buffer" : 0,
      "byteOffset" : 19164,
      "byteLength" : 15756
    },
    {
      "buffer" : 0,
      "byteOffset" : 34920,
      "byteLength" : 21008
    },
    {
      "buffer" : 0,
      "byteOffset" : 55928,
      "byteLength" : 5252
    },
    {
      "buffer" : 0,
      "byteOffset" : 61180,
      "byteLength" : 10504
    },
    {
      "buffer" : 0,
      "byteOffset" : 71684,
      "byteLength" : 10504
    },
    {
      "buffer" : 0,
      "byteOffset" : 82188,
      "byteLength" : 10504
    },
    {
      "buffer" : 0,
      "byteOffset" : 92692,
      "byteLength" : 10504
    },
    {
      "buffer" : 0,
      "byteOffset" : 103196,
      "byteLength" : 65460
    },
    {
      "buffer" : 0,
      "byteOffset" : 168656,
      "byteLength" : 217440
    },
    {
      "buffer" : 0,
      "byteOffset" : 386096,
      "byteLength" : 217440
    },
    {
      "buffer" : 0,
      "byteOffset" : 603536,
      "byteLength" : 289920
    },
    {
      "buffer" : 0,
      "byteOffset" : 893456,
      "byteLength" : 72480
    },
    {
      "buffer" : 0,
      "byteOffset" : 965936,
      "byteLength" : 144960
    },
    {
      "buffer" : 0,
      "byteOffset" : 1110896,
      "byteLength" : 144960
    },
    {
      "buffer" : 0,
      "byteOffset" : 1255856,
      "byteLength" : 144960
    },
    {
      "buffer" : 0,
      "byteOffset" : 1400816,
      "byteLength" : 144960
    },
    {
      "buffer" : 0,
      "byteOffset" : 1545776,
      "byteLength" : 10340
    },
    {
      "buffer" : 0,
      "byteOffset" : 1556116,
      "byteLength" : 47412
    },
    {
      "buffer" : 0,
      "byteOffset" : 1603528,
      "byteLength" : 47412
    },
    {
      "buffer" : 0,
      "byteOffset" : 1650940,
      "byteLength" : 63216
    },
    {
      "buffer" : 0,
      "byteOffset" : 1714156,
      "byteLength" : 15804
    },
    {
      "buffer" : 0,
      "byteOffset" : 1729960,
      "byteLength" : 31608
    },
    {
      "buffer" : 0,
      "byteOffset" : 1761568,
      "byteLength" : 31608
    },
    {
      "buffer" : 0,
      "byteOffset" : 1793176,
      "byteLength" : 31608
    },
    {
      "buffer" : 0,
      "byteOffset" : 1824784,
      "byteLength" : 31608
    }
  ],
  "accessors" : [
    {
      "bufferView" : 0,
      "componentType" : 5123,
      "count" : 1704,
      "type" : "SCALAR"
    },
    {
      "bufferView" : 1,
      "min" : [ 16.3433, -0.566401, -45.5923 ],
      "max" : [ 31.9521, 9.7519, -31.5911 ],
      "componentType" : 5126,
      "count" : 1313,
      "type" : "VEC3"
    },
    {
      "bufferView" : 2,
      "componentType" : 5126,
      "count" : 1313,
      "type" : "VEC3"
    },
    {
      "bufferView" : 3,
      "componentType" : 5126,
      "count" : 1313,
      "type" : "VEC4"
    },
    {
      "bufferView" : 4,
      "normalized" : true,
      "componentType" : 5121,
      "count" : 1313,
      "type" : "VEC4"
    },
    {
      "bufferView" : 5,
      "componentType" : 5126,
      "count" : 1313,
      "type" : "VEC2"
    },
    {
      "bufferView" : 6,
      "componentType" : 5126,
      "count" : 1313,
      "type" : "VEC2"
    },
    {
      "bufferView" : 7,
      "componentType" : 5126,
      "count" : 1313,
      "type" : "VEC2"
    },
    {
      "bufferView" : 8,
      "componentType" : 5126,
      "count" : 1313,
      "type" : "VEC2"
    },
    {
      "bufferView" : 9,
      "componentType" : 5123,
      "count" : 32730,
      "type" : "SCALAR"
    },
    {
      "bufferView" : 10,
      "min" : [ 13.0419, 3.57284, -47.6363 ],
      "max" : [ 34.1525, 13.4486, -29.6481 ],
      "componentType" : 5126,
      "count" : 18120,
      "type" : "VEC3"
    },
    {
      "bufferView" : 11,
      "componentType" : 5126,
      "count" : 18120,
      "type" : "VEC3"
    },
    {
      "bufferView" : 12,
      "componentType" : 5126,
      "count" : 18120,
      "type" : "VEC4"
    },
    {
      "bufferView" : 13,
      "normalized" : true,
      "componentType" : 5121,
      "count" : 18120,
      "type" : "VEC4"
    },
    {
      "bufferView" : 14,
      "componentType" : 5126,
      "count" : 18120,
      "type" : "VEC2"
    },
    {
      "bufferView" : 15,
      "componentType" : 5126,
      "count" : 18120,
      "type" : "VEC2"
    },
    {
      "bufferView" : 16,
      "componentType" : 5126,
      "count" : 18120,
      "type" : "VEC2"
    },
    {
      "bufferView" : 17,
      "componentType" : 5126,
      "count" : 18120,
      "type" : "VEC2"
    },
    {
      "bufferView" : 18,
      "componentType" : 5123,
      "count" : 5169,
      "type" : "SCALAR"
    },
    {
      "bufferView" : 19,
      "min" : [ 13.2438, 3.78199, -47.3803 ],
      "max" : [ 33.9352, 13.2883, -29.8926 ],
      "componentType" : 5126,
      "count" : 3951,
      "type" : "VEC3"
    },
    {
      "bufferView" : 20,
      "componentType" : 5126,
      "count" : 3951,
      "type" : "VEC3"
    },
    {
      "bufferView" : 21,
      "componentType" : 5126,
      "count" : 3951,
      "type" : "VEC4"
    },
    {
      "bufferView" : 22,
      "normalized" : true,
      "componentType" : 5121,
      "count" : 3951,
      "type" : "VEC4"
    },
    {
      "bufferView" : 23,
      "componentType" : 5126,
      "count" : 3951,
      "type" : "VEC2"
    },
    {
      "bufferView" : 24,
      "componentType" : 5126,
      "count" : 3951,
      "type" : "VEC2"
    },
    {
      "bufferView" : 25,
      "componentType" : 5126,
      "count" : 3951,
      "type" : "VEC2"
    },
    {
      "bufferView" : 26,
      "componentType" : 5126,
      "count" : 3951,
      "type" : "VEC2"
    }
  ]
}
