{
  "asset" : {
    "generator" : "UE Viewer (umodel) build 1544 based",
    "version" : "2.0"
  },
  "scene" : 0,
  "scenes" : [
    {
      "nodes" : [ 0 ]
    }
  ],
  "nodes" : [
    {
      "name" : "SM_ENV_LKNVLD_Shop_Tori_Lod2",
      "mesh" : 0
    }
  ],
  "materials" : [
    {
      "name" : "MI_ENV_LKNVLD_ClanTorii_A_LOD",
      "pbrMetallicRoughness" : {
        "baseColorFactor" : [ 0.3, 0.3, 0.3, 1.0 ],
        "metallicFactor" : 0.1,
        "roughnessFactor" : 0.5
      }
    },
    {
      "name" : "MI_ENV_LKNVLD_StrawRope_A",
      "pbrMetallicRoughness" : {
        "baseColorFactor" : [ 0.9, 0.3, 0.3, 1.0 ],
        "metallicFactor" : 0.1,
        "roughnessFactor" : 0.5
      }
    }
  ],
  "meshes" : [
    {
      "primitives" : [
        {
          "attributes" : {
            "POSITION" : 1,
            "NORMAL" : 2,
            "TANGENT" : 3,
            "COLOR_0" : 4,
            "TEXCOORD_0" : 5,
            "TEXCOORD_1" : 6,
            "TEXCOORD_2" : 7,
            "TEXCOORD_3" : 8
          },
          "indices" : 0,
          "material" : 0
        },
        {
          "attributes" : {
            "POSITION" : 10,
            "NORMAL" : 11,
            "TANGENT" : 12,
            "COLOR_0" : 13,
            "TEXCOORD_0" : 14,
            "TEXCOORD_1" : 15,
            "TEXCOORD_2" : 16,
            "TEXCOORD_3" : 17
          },
          "indices" : 9,
          "material" : 1
        }
      ],
      "name" : "SM_ENV_LKNVLD_Shop_Tori_Lod2"
    }
  ],
  "buffers" : [
    {
      "uri" : "SM_ENV_LKNVLD_Shop_Tori_Lod2.bin",
      "byteLength" : 251264
    }
  ],
  "bufferViews" : [
    {
      "buffer" : 0,
      "byteOffset" : 0,
      "byteLength" : 2496
    },
    {
      "buffer" : 0,
      "byteOffset" : 2496,
      "byteLength" : 6072
    },
    {
      "buffer" : 0,
      "byteOffset" : 8568,
      "byteLength" : 6072
    },
    {
      "buffer" : 0,
      "byteOffset" : 14640,
      "byteLength" : 8096
    },
    {
      "buffer" : 0,
      "byteOffset" : 22736,
      "byteLength" : 2024
    },
    {
      "buffer" : 0,
      "byteOffset" : 24760,
      "byteLength" : 4048
    },
    {
      "buffer" : 0,
      "byteOffset" : 28808,
      "byteLength" : 4048
    },
    {
      "buffer" : 0,
      "byteOffset" : 32856,
      "byteLength" : 4048
    },
    {
      "buffer" : 0,
      "byteOffset" : 36904,
      "byteLength" : 4048
    },
    {
      "buffer" : 0,
      "byteOffset" : 40952,
      "byteLength" : 12180
    },
    {
      "buffer" : 0,
      "byteOffset" : 53132,
      "byteLength" : 31284
    },
    {
      "buffer" : 0,
      "byteOffset" : 84416,
      "byteLength" : 31284
    },
    {
      "buffer" : 0,
      "byteOffset" : 115700,
      "byteLength" : 41712
    },
    {
      "buffer" : 0,
      "byteOffset" : 157412,
      "byteLength" : 10428
    },
    {
      "buffer" : 0,
      "byteOffset" : 167840,
      "byteLength" : 20856
    },
    {
      "buffer" : 0,
      "byteOffset" : 188696,
      "byteLength" : 20856
    },
    {
      "buffer" : 0,
      "byteOffset" : 209552,
      "byteLength" : 20856
    },
    {
      "buffer" : 0,
      "byteOffset" : 230408,
      "byteLength" : 20856
    }
  ],
  "accessors" : [
    {
      "bufferView" : 0,
      "componentType" : 5123,
      "count" : 1248,
      "type" : "SCALAR"
    },
    {
      "bufferView" : 1,
      "min" : [ -32.7412, 5.88384, 17.3949 ],
      "max" : [ -24.6216, 16.4439, 25.5145 ],
      "componentType" : 5126,
      "count" : 506,
      "type" : "VEC3"
    },
    {
      "bufferView" : 2,
      "componentType" : 5126,
      "count" : 506,
      "type" : "VEC3"
    },
    {
      "bufferView" : 3,
      "componentType" : 5126,
      "count" : 506,
      "type" : "VEC4"
    },
    {
      "bufferView" : 4,
      "normalized" : true,
      "componentType" : 5121,
      "count" : 506,
      "type" : "VEC4"
    },
    {
      "bufferView" : 5,
      "componentType" : 5126,
      "count" : 506,
      "type" : "VEC2"
    },
    {
      "bufferView" : 6,
      "componentType" : 5126,
      "count" : 506,
      "type" : "VEC2"
    },
    {
      "bufferView" : 7,
      "componentType" : 5126,
      "count" : 506,
      "type" : "VEC2"
    },
    {
      "bufferView" : 8,
      "componentType" : 5126,
      "count" : 506,
      "type" : "VEC2"
    },
    {
      "bufferView" : 9,
      "componentType" : 5123,
      "count" : 6090,
      "type" : "SCALAR"
    },
    {
      "bufferView" : 10,
      "min" : [ -31.3961, 10.9791, 18.7644 ],
      "max" : [ -25.9486, 14.2039, 24.2118 ],
      "componentType" : 5126,
      "count" : 2607,
      "type" : "VEC3"
    },
    {
      "bufferView" : 11,
      "componentType" : 5126,
      "count" : 2607,
      "type" : "VEC3"
    },
    {
      "bufferView" : 12,
      "componentType" : 5126,
      "count" : 2607,
      "type" : "VEC4"
    },
    {
      "bufferView" : 13,
      "normalized" : true,
      "componentType" : 5121,
      "count" : 2607,
      "type" : "VEC4"
    },
    {
      "bufferView" : 14,
      "componentType" : 5126,
      "count" : 2607,
      "type" : "VEC2"
    },
    {
      "bufferView" : 15,
      "componentType" : 5126,
      "count" : 2607,
      "type" : "VEC2"
    },
    {
      "bufferView" : 16,
      "componentType" : 5126,
      "count" : 2607,
      "type" : "VEC2"
    },
    {
      "bufferView" : 17,
      "componentType" : 5126,
      "count" : 2607,
      "type" : "VEC2"
    }
  ]
}
