{
  "asset" : {
    "generator" : "UE Viewer (umodel) build 1544 based",
    "version" : "2.0"
  },
  "scene" : 0,
  "scenes" : [
    {
      "nodes" : [ 0 ]
    }
  ],
  "nodes" : [
    {
      "name" : "SM_ENV_LKNVLD_Torii_Sun_Lod1",
      "mesh" : 0
    }
  ],
  "materials" : [
    {
      "name" : "MI_ENV_LKNVLD_RoughTiles",
      "pbrMetallicRoughness" : {
        "baseColorFactor" : [ 0.3, 0.3, 0.3, 1.0 ],
        "metallicFactor" : 0.1,
        "roughnessFactor" : 0.5
      }
    },
    {
      "name" : "MI_ENV_LKNVLD_StoneTrim_Ground",
      "pbrMetallicRoughness" : {
        "baseColorFactor" : [ 0.9, 0.3, 0.3, 1.0 ],
        "metallicFactor" : 0.1,
        "roughnessFactor" : 0.5
      }
    },
    {
      "name" : "MI_ENV_LKNVLD_Eaves_F",
      "pbrMetallicRoughness" : {
        "baseColorFactor" : [ 0.3, 0.9, 0.3, 1.0 ],
        "metallicFactor" : 0.1,
        "roughnessFactor" : 0.5
      }
    },
    {
      "name" : "MI_ENV_LKNVLD_Rope_A_Animated",
      "pbrMetallicRoughness" : {
        "baseColorFactor" : [ 0.3, 0.3, 0.9, 1.0 ],
        "metallicFactor" : 0.1,
        "roughnessFactor" : 0.5
      }
    },
    {
      "name" : "MI_ENV_LKNVLD_ClanSignboard_J",
      "pbrMetallicRoughness" : {
        "baseColorFactor" : [ 0.9, 0.9, 0.9, 1.0 ],
        "metallicFactor" : 0.1,
        "roughnessFactor" : 0.5
      }
    },
    {
      "name" : "MI_ENV_LKNVLD_WoodTorii_A",
      "pbrMetallicRoughness" : {
        "baseColorFactor" : [ 0.9, 0.9, 0.3, 1.0 ],
        "metallicFactor" : 0.1,
        "roughnessFactor" : 0.5
      }
    }
  ],
  "meshes" : [
    {
      "primitives" : [
        {
          "attributes" : {
            "POSITION" : 1,
            "NORMAL" : 2,
            "TANGENT" : 3,
            "TEXCOORD_0" : 4,
            "TEXCOORD_1" : 5,
            "TEXCOORD_2" : 6,
            "TEXCOORD_3" : 7
          },
          "indices" : 0,
          "material" : 0
        },
        {
          "attributes" : {
            "POSITION" : 9,
            "NORMAL" : 10,
            "TANGENT" : 11,
            "TEXCOORD_0" : 12,
            "TEXCOORD_1" : 13,
            "TEXCOORD_2" : 14,
            "TEXCOORD_3" : 15
          },
          "indices" : 8,
          "material" : 1
        },
        {
          "attributes" : {
            "POSITION" : 17,
            "NORMAL" : 18,
            "TANGENT" : 19,
            "TEXCOORD_0" : 20,
            "TEXCOORD_1" : 21,
            "TEXCOORD_2" : 22,
            "TEXCOORD_3" : 23
          },
          "indices" : 16,
          "material" : 2
        },
        {
          "attributes" : {
            "POSITION" : 25,
            "NORMAL" : 26,
            "TANGENT" : 27,
            "TEXCOORD_0" : 28,
            "TEXCOORD_1" : 29,
            "TEXCOORD_2" : 30,
            "TEXCOORD_3" : 31
          },
          "indices" : 24,
          "material" : 3
        },
        {
          "attributes" : {
            "POSITION" : 33,
            "NORMAL" : 34,
            "TANGENT" : 35,
            "TEXCOORD_0" : 36,
            "TEXCOORD_1" : 37,
            "TEXCOORD_2" : 38,
            "TEXCOORD_3" : 39
          },
          "indices" : 32,
          "material" : 4
        },
        {
          "attributes" : {
            "POSITION" : 41,
            "NORMAL" : 42,
            "TANGENT" : 43,
            "TEXCOORD_0" : 44,
            "TEXCOORD_1" : 45,
            "TEXCOORD_2" : 46,
            "TEXCOORD_3" : 47
          },
          "indices" : 40,
          "material" : 5
        }
      ],
      "name" : "SM_ENV_LKNVLD_Torii_Sun_Lod1"
    }
  ],
  "buffers" : [
    {
      "uri" : "SM_ENV_LKNVLD_Torii_Sun_Lod1.bin",
      "byteLength" : 246660
    }
  ],
  "bufferViews" : [
    {
      "buffer" : 0,
      "byteOffset" : 0,
      "byteLength" : 1452
    },
    {
      "buffer" : 0,
      "byteOffset" : 1452,
      "byteLength" : 4344
    },
    {
      "buffer" : 0,
      "byteOffset" : 5796,
      "byteLength" : 4344
    },
    {
      "buffer" : 0,
      "byteOffset" : 10140,
      "byteLength" : 5792
    },
    {
      "buffer" : 0,
      "byteOffset" : 15932,
      "byteLength" : 2896
    },
    {
      "buffer" : 0,
      "byteOffset" : 18828,
      "byteLength" : 2896
    },
    {
      "buffer" : 0,
      "byteOffset" : 21724,
      "byteLength" : 2896
    },
    {
      "buffer" : 0,
      "byteOffset" : 24620,
      "byteLength" : 2896
    },
    {
      "buffer" : 0,
      "byteOffset" : 27516,
      "byteLength" : 312
    },
    {
      "buffer" : 0,
      "byteOffset" : 27828,
      "byteLength" : 864
    },
    {
      "buffer" : 0,
      "byteOffset" : 28692,
      "byteLength" : 864
    },
    {
      "buffer" : 0,
      "byteOffset" : 29556,
      "byteLength" : 1152
    },
    {
      "buffer" : 0,
      "byteOffset" : 30708,
      "byteLength" : 576
    },
    {
      "buffer" : 0,
      "byteOffset" : 31284,
      "byteLength" : 576
    },
    {
      "buffer" : 0,
      "byteOffset" : 31860,
      "byteLength" : 576
    },
    {
      "buffer" : 0,
      "byteOffset" : 32436,
      "byteLength" : 576
    },
    {
      "buffer" : 0,
      "byteOffset" : 33012,
      "byteLength" : 2304
    },
    {
      "buffer" : 0,
      "byteOffset" : 35316,
      "byteLength" : 6336
    },
    {
      "buffer" : 0,
      "byteOffset" : 41652,
      "byteLength" : 6336
    },
    {
      "buffer" : 0,
      "byteOffset" : 47988,
      "byteLength" : 8448
    },
    {
      "buffer" : 0,
      "byteOffset" : 56436,
      "byteLength" : 4224
    },
    {
      "buffer" : 0,
      "byteOffset" : 60660,
      "byteLength" : 4224
    },
    {
      "buffer" : 0,
      "byteOffset" : 64884,
      "byteLength" : 4224
    },
    {
      "buffer" : 0,
      "byteOffset" : 69108,
      "byteLength" : 4224
    },
    {
      "buffer" : 0,
      "byteOffset" : 73332,
      "byteLength" : 4584
    },
    {
      "buffer" : 0,
      "byteOffset" : 77916,
      "byteLength" : 7500
    },
    {
      "buffer" : 0,
      "byteOffset" : 85416,
      "byteLength" : 7500
    },
    {
      "buffer" : 0,
      "byteOffset" : 92916,
      "byteLength" : 10000
    },
    {
      "buffer" : 0,
      "byteOffset" : 102916,
      "byteLength" : 5000
    },
    {
      "buffer" : 0,
      "byteOffset" : 107916,
      "byteLength" : 5000
    },
    {
      "buffer" : 0,
      "byteOffset" : 112916,
      "byteLength" : 5000
    },
    {
      "buffer" : 0,
      "byteOffset" : 117916,
      "byteLength" : 5000
    },
    {
      "buffer" : 0,
      "byteOffset" : 122916,
      "byteLength" : 732
    },
    {
      "buffer" : 0,
      "byteOffset" : 123648,
      "byteLength" : 2544
    },
    {
      "buffer" : 0,
      "byteOffset" : 126192,
      "byteLength" : 2544
    },
    {
      "buffer" : 0,
      "byteOffset" : 128736,
      "byteLength" : 3392
    },
    {
      "buffer" : 0,
      "byteOffset" : 132128,
      "byteLength" : 1696
    },
    {
      "buffer" : 0,
      "byteOffset" : 133824,
      "byteLength" : 1696
    },
    {
      "buffer" : 0,
      "byteOffset" : 135520,
      "byteLength" : 1696
    },
    {
      "buffer" : 0,
      "byteOffset" : 137216,
      "byteLength" : 1696
    },
    {
      "buffer" : 0,
      "byteOffset" : 138912,
      "byteLength" : 6804
    },
    {
      "buffer" : 0,
      "byteOffset" : 145716,
      "byteLength" : 16824
    },
    {
      "buffer" : 0,
      "byteOffset" : 162540,
      "byteLength" : 16824
    },
    {
      "buffer" : 0,
      "byteOffset" : 179364,
      "byteLength" : 22432
    },
    {
      "buffer" : 0,
      "byteOffset" : 201796,
      "byteLength" : 11216
    },
    {
      "buffer" : 0,
      "byteOffset" : 213012,
      "byteLength" : 11216
    },
    {
      "buffer" : 0,
      "byteOffset" : 224228,
      "byteLength" : 11216
    },
    {
      "buffer" : 0,
      "byteOffset" : 235444,
      "byteLength" : 11216
    }
  ],
  "accessors" : [
    {
      "bufferView" : 0,
      "componentType" : 5123,
      "count" : 726,
      "type" : "SCALAR"
    },
    {
      "bufferView" : 1,
      "min" : [ -4.77909, -0.0641648, -1.30426 ],
      "max" : [ 4.78108, 0.565984, 1.25585 ],
      "componentType" : 5126,
      "count" : 362,
      "type" : "VEC3"
    },
    {
      "bufferView" : 2,
      "componentType" : 5126,
      "count" : 362,
      "type" : "VEC3"
    },
    {
      "bufferView" : 3,
      "componentType" : 5126,
      "count" : 362,
      "type" : "VEC4"
    },
    {
      "bufferView" : 4,
      "componentType" : 5126,
      "count" : 362,
      "type" : "VEC2"
    },
    {
      "bufferView" : 5,
      "componentType" : 5126,
      "count" : 362,
      "type" : "VEC2"
    },
    {
      "bufferView" : 6,
      "componentType" : 5126,
      "count" : 362,
      "type" : "VEC2"
    },
    {
      "bufferView" : 7,
      "componentType" : 5126,
      "count" : 362,
      "type" : "VEC2"
    },
    {
      "bufferView" : 8,
      "componentType" : 5123,
      "count" : 156,
      "type" : "SCALAR"
    },
    {
      "bufferView" : 9,
      "min" : [ -4.73558, 0.0984014, -1.26111 ],
      "max" : [ 4.73793, 0.523717, 1.2127 ],
      "componentType" : 5126,
      "count" : 72,
      "type" : "VEC3"
    },
    {
      "bufferView" : 10,
      "componentType" : 5126,
      "count" : 72,
      "type" : "VEC3"
    },
    {
      "bufferView" : 11,
      "componentType" : 5126,
      "count" : 72,
      "type" : "VEC4"
    },
    {
      "bufferView" : 12,
      "componentType" : 5126,
      "count" : 72,
      "type" : "VEC2"
    },
    {
      "bufferView" : 13,
      "componentType" : 5126,
      "count" : 72,
      "type" : "VEC2"
    },
    {
      "bufferView" : 14,
      "componentType" : 5126,
      "count" : 72,
      "type" : "VEC2"
    },
    {
      "bufferView" : 15,
      "componentType" : 5126,
      "count" : 72,
      "type" : "VEC2"
    },
    {
      "bufferView" : 16,
      "componentType" : 5123,
      "count" : 1152,
      "type" : "SCALAR"
    },
    {
      "bufferView" : 17,
      "min" : [ -6.80527, 9.36376, -1.02486 ],
      "max" : [ 6.80527, 13.0413, 1.04293 ],
      "componentType" : 5126,
      "count" : 528,
      "type" : "VEC3"
    },
    {
      "bufferView" : 18,
      "componentType" : 5126,
      "count" : 528,
      "type" : "VEC3"
    },
    {
      "bufferView" : 19,
      "componentType" : 5126,
      "count" : 528,
      "type" : "VEC4"
    },
    {
      "bufferView" : 20,
      "componentType" : 5126,
      "count" : 528,
      "type" : "VEC2"
    },
    {
      "bufferView" : 21,
      "componentType" : 5126,
      "count" : 528,
      "type" : "VEC2"
    },
    {
      "bufferView" : 22,
      "componentType" : 5126,
      "count" : 528,
      "type" : "VEC2"
    },
    {
      "bufferView" : 23,
      "componentType" : 5126,
      "count" : 528,
      "type" : "VEC2"
    },
    {
      "bufferView" : 24,
      "componentType" : 5123,
      "count" : 2292,
      "type" : "SCALAR"
    },
    {
      "bufferView" : 25,
      "min" : [ -3.74277, 7.8237, 0.328598 ],
      "max" : [ 3.74277, 9.98905, 0.784179 ],
      "componentType" : 5126,
      "count" : 625,
      "type" : "VEC3"
    },
    {
      "bufferView" : 26,
      "componentType" : 5126,
      "count" : 625,
      "type" : "VEC3"
    },
    {
      "bufferView" : 27,
      "componentType" : 5126,
      "count" : 625,
      "type" : "VEC4"
    },
    {
      "bufferView" : 28,
      "componentType" : 5126,
      "count" : 625,
      "type" : "VEC2"
    },
    {
      "bufferView" : 29,
      "componentType" : 5126,
      "count" : 625,
      "type" : "VEC2"
    },
    {
      "bufferView" : 30,
      "componentType" : 5126,
      "count" : 625,
      "type" : "VEC2"
    },
    {
      "bufferView" : 31,
      "componentType" : 5126,
      "count" : 625,
      "type" : "VEC2"
    },
    {
      "bufferView" : 32,
      "componentType" : 5123,
      "count" : 366,
      "type" : "SCALAR"
    },
    {
      "bufferView" : 33,
      "min" : [ -0.548356, 10.129, 0.0503185 ],
      "max" : [ 0.548355, 11.7701, 0.428534 ],
      "componentType" : 5126,
      "count" : 212,
      "type" : "VEC3"
    },
    {
      "bufferView" : 34,
      "componentType" : 5126,
      "count" : 212,
      "type" : "VEC3"
    },
    {
      "bufferView" : 35,
      "componentType" : 5126,
      "count" : 212,
      "type" : "VEC4"
    },
    {
      "bufferView" : 36,
      "componentType" : 5126,
      "count" : 212,
      "type" : "VEC2"
    },
    {
      "bufferView" : 37,
      "componentType" : 5126,
      "count" : 212,
      "type" : "VEC2"
    },
    {
      "bufferView" : 38,
      "componentType" : 5126,
      "count" : 212,
      "type" : "VEC2"
    },
    {
      "bufferView" : 39,
      "componentType" : 5126,
      "count" : 212,
      "type" : "VEC2"
    },
    {
      "bufferView" : 40,
      "componentType" : 5123,
      "count" : 3402,
      "type" : "SCALAR"
    },
    {
      "bufferView" : 41,
      "min" : [ -6.7228, 0.5, -1.02122 ],
      "max" : [ 6.7228, 12.7252, 1.03928 ],
      "componentType" : 5126,
      "count" : 1402,
      "type" : "VEC3"
    },
    {
      "bufferView" : 42,
      "componentType" : 5126,
      "count" : 1402,
      "type" : "VEC3"
    },
    {
      "bufferView" : 43,
      "componentType" : 5126,
      "count" : 1402,
      "type" : "VEC4"
    },
    {
      "bufferView" : 44,
      "componentType" : 5126,
      "count" : 1402,
      "type" : "VEC2"
    },
    {
      "bufferView" : 45,
      "componentType" : 5126,
      "count" : 1402,
      "type" : "VEC2"
    },
    {
      "bufferView" : 46,
      "componentType" : 5126,
      "count" : 1402,
      "type" : "VEC2"
    },
    {
      "bufferView" : 47,
      "componentType" : 5126,
      "count" : 1402,
      "type" : "VEC2"
    }
  ]
}
