{
  "asset" : {
    "generator" : "UE Viewer (umodel) build 1544 based",
    "version" : "2.0"
  },
  "scene" : 0,
  "scenes" : [
    {
      "nodes" : [ 0 ]
    }
  ],
  "nodes" : [
    {
      "name" : "SM_ENV_LKNVLD_UtilityPole_B_Lod3",
      "mesh" : 0
    }
  ],
  "materials" : [
    {
      "name" : "MI_ENV_LKNVLD_UtilityPole_A",
      "pbrMetallicRoughness" : {
        "baseColorFactor" : [ 0.3, 0.3, 0.3, 1.0 ],
        "metallicFactor" : 0.1,
        "roughnessFactor" : 0.5
      }
    },
    {
      "name" : "MI_ENV_LKNVLD_BigPipe_B",
      "pbrMetallicRoughness" : {
        "baseColorFactor" : [ 0.9, 0.3, 0.3, 1.0 ],
        "metallicFactor" : 0.1,
        "roughnessFactor" : 0.5
      }
    },
    {
      "name" : "MI_ENV_LKNVLD_Sticker_01",
      "pbrMetallicRoughness" : {
        "baseColorFactor" : [ 0.3, 0.9, 0.3, 1.0 ],
        "metallicFactor" : 0.1,
        "roughnessFactor" : 0.5
      }
    }
  ],
  "meshes" : [
    {
      "primitives" : [
        {
          "attributes" : {
            "POSITION" : 1,
            "NORMAL" : 2,
            "TANGENT" : 3,
            "COLOR_0" : 4,
            "TEXCOORD_0" : 5,
            "TEXCOORD_1" : 6,
            "TEXCOORD_2" : 7,
            "TEXCOORD_3" : 8
          },
          "indices" : 0,
          "material" : 0
        },
        {
          "attributes" : {
            "POSITION" : 10,
            "NORMAL" : 11,
            "TANGENT" : 12,
            "COLOR_0" : 13,
            "TEXCOORD_0" : 14,
            "TEXCOORD_1" : 15,
            "TEXCOORD_2" : 16,
            "TEXCOORD_3" : 17
          },
          "indices" : 9,
          "material" : 1
        },
        {
          "attributes" : {
            "POSITION" : 19,
            "NORMAL" : 20,
            "TANGENT" : 21,
            "COLOR_0" : 22,
            "TEXCOORD_0" : 23,
            "TEXCOORD_1" : 24,
            "TEXCOORD_2" : 25,
            "TEXCOORD_3" : 26
          },
          "indices" : 18,
          "material" : 2
        }
      ],
      "name" : "SM_ENV_LKNVLD_UtilityPole_B_Lod3"
    }
  ],
  "buffers" : [
    {
      "uri" : "SM_ENV_LKNVLD_UtilityPole_B_Lod3.bin",
      "byteLength" : 222620
    }
  ],
  "bufferViews" : [
    {
      "buffer" : 0,
      "byteOffset" : 0,
      "byteLength" : 13460
    },
    {
      "buffer" : 0,
      "byteOffset" : 13460,
      "byteLength" : 30192
    },
    {
      "buffer" : 0,
      "byteOffset" : 43652,
      "byteLength" : 30192
    },
    {
      "buffer" : 0,
      "byteOffset" : 73844,
      "byteLength" : 40256
    },
    {
      "buffer" : 0,
      "byteOffset" : 114100,
      "byteLength" : 10064
    },
    {
      "buffer" : 0,
      "byteOffset" : 124164,
      "byteLength" : 20128
    },
    {
      "buffer" : 0,
      "byteOffset" : 144292,
      "byteLength" : 20128
    },
    {
      "buffer" : 0,
      "byteOffset" : 164420,
      "byteLength" : 20128
    },
    {
      "buffer" : 0,
      "byteOffset" : 184548,
      "byteLength" : 20128
    },
    {
      "buffer" : 0,
      "byteOffset" : 204676,
      "byteLength" : 1508
    },
    {
      "buffer" : 0,
      "byteOffset" : 206184,
      "byteLength" : 2220
    },
    {
      "buffer" : 0,
      "byteOffset" : 208404,
      "byteLength" : 2220
    },
    {
      "buffer" : 0,
      "byteOffset" : 210624,
      "byteLength" : 2960
    },
    {
      "buffer" : 0,
      "byteOffset" : 213584,
      "byteLength" : 740
    },
    {
      "buffer" : 0,
      "byteOffset" : 214324,
      "byteLength" : 1480
    },
    {
      "buffer" : 0,
      "byteOffset" : 215804,
      "byteLength" : 1480
    },
    {
      "buffer" : 0,
      "byteOffset" : 217284,
      "byteLength" : 1480
    },
    {
      "buffer" : 0,
      "byteOffset" : 218764,
      "byteLength" : 1480
    },
    {
      "buffer" : 0,
      "byteOffset" : 220244,
      "byteLength" : 96
    },
    {
      "buffer" : 0,
      "byteOffset" : 220340,
      "byteLength" : 360
    },
    {
      "buffer" : 0,
      "byteOffset" : 220700,
      "byteLength" : 360
    },
    {
      "buffer" : 0,
      "byteOffset" : 221060,
      "byteLength" : 480
    },
    {
      "buffer" : 0,
      "byteOffset" : 221540,
      "byteLength" : 120
    },
    {
      "buffer" : 0,
      "byteOffset" : 221660,
      "byteLength" : 240
    },
    {
      "buffer" : 0,
      "byteOffset" : 221900,
      "byteLength" : 240
    },
    {
      "buffer" : 0,
      "byteOffset" : 222140,
      "byteLength" : 240
    },
    {
      "buffer" : 0,
      "byteOffset" : 222380,
      "byteLength" : 240
    }
  ],
  "accessors" : [
    {
      "bufferView" : 0,
      "componentType" : 5123,
      "count" : 6729,
      "type" : "SCALAR"
    },
    {
      "bufferView" : 1,
      "min" : [ -0.274248, -0.387099, -0.448283 ],
      "max" : [ 0.529635, 11.3309, 1.68605 ],
      "componentType" : 5126,
      "count" : 2516,
      "type" : "VEC3"
    },
    {
      "bufferView" : 2,
      "componentType" : 5126,
      "count" : 2516,
      "type" : "VEC3"
    },
    {
      "bufferView" : 3,
      "componentType" : 5126,
      "count" : 2516,
      "type" : "VEC4"
    },
    {
      "bufferView" : 4,
      "normalized" : true,
      "componentType" : 5121,
      "count" : 2516,
      "type" : "VEC4"
    },
    {
      "bufferView" : 5,
      "componentType" : 5126,
      "count" : 2516,
      "type" : "VEC2"
    },
    {
      "bufferView" : 6,
      "componentType" : 5126,
      "count" : 2516,
      "type" : "VEC2"
    },
    {
      "bufferView" : 7,
      "componentType" : 5126,
      "count" : 2516,
      "type" : "VEC2"
    },
    {
      "bufferView" : 8,
      "componentType" : 5126,
      "count" : 2516,
      "type" : "VEC2"
    },
    {
      "bufferView" : 9,
      "componentType" : 5123,
      "count" : 753,
      "type" : "SCALAR"
    },
    {
      "bufferView" : 10,
      "min" : [ -0.296305, 3.55782, -0.296305 ],
      "max" : [ 0.367455, 7.20668, 0.296304 ],
      "componentType" : 5126,
      "count" : 185,
      "type" : "VEC3"
    },
    {
      "bufferView" : 11,
      "componentType" : 5126,
      "count" : 185,
      "type" : "VEC3"
    },
    {
      "bufferView" : 12,
      "componentType" : 5126,
      "count" : 185,
      "type" : "VEC4"
    },
    {
      "bufferView" : 13,
      "normalized" : true,
      "componentType" : 5121,
      "count" : 185,
      "type" : "VEC4"
    },
    {
      "bufferView" : 14,
      "componentType" : 5126,
      "count" : 185,
      "type" : "VEC2"
    },
    {
      "bufferView" : 15,
      "componentType" : 5126,
      "count" : 185,
      "type" : "VEC2"
    },
    {
      "bufferView" : 16,
      "componentType" : 5126,
      "count" : 185,
      "type" : "VEC2"
    },
    {
      "bufferView" : 17,
      "componentType" : 5126,
      "count" : 185,
      "type" : "VEC2"
    },
    {
      "bufferView" : 18,
      "componentType" : 5123,
      "count" : 48,
      "type" : "SCALAR"
    },
    {
      "bufferView" : 19,
      "min" : [ -0.0342204, 0.341298, -0.285838 ],
      "max" : [ 0.295216, 4.28628, 0.199334 ],
      "componentType" : 5126,
      "count" : 30,
      "type" : "VEC3"
    },
    {
      "bufferView" : 20,
      "componentType" : 5126,
      "count" : 30,
      "type" : "VEC3"
    },
    {
      "bufferView" : 21,
      "componentType" : 5126,
      "count" : 30,
      "type" : "VEC4"
    },
    {
      "bufferView" : 22,
      "normalized" : true,
      "componentType" : 5121,
      "count" : 30,
      "type" : "VEC4"
    },
    {
      "bufferView" : 23,
      "componentType" : 5126,
      "count" : 30,
      "type" : "VEC2"
    },
    {
      "bufferView" : 24,
      "componentType" : 5126,
      "count" : 30,
      "type" : "VEC2"
    },
    {
      "bufferView" : 25,
      "componentType" : 5126,
      "count" : 30,
      "type" : "VEC2"
    },
    {
      "bufferView" : 26,
      "componentType" : 5126,
      "count" : 30,
      "type" : "VEC2"
    }
  ]
}
