{
  "asset" : {
    "generator" : "UE Viewer (umodel) build 1544 based",
    "version" : "2.0"
  },
  "scene" : 0,
  "scenes" : [
    {
      "nodes" : [ 0 ]
    }
  ],
  "nodes" : [
    {
      "name" : "SM_ENV_LKNVLD_Event_SL_Bench_E",
      "mesh" : 0
    }
  ],
  "materials" : [
    {
      "name" : "MI_ENV_LKNVLD_Bench_A",
      "pbrMetallicRoughness" : {
        "baseColorFactor" : [ 0.3, 0.3, 0.3, 1.0 ],
        "metallicFactor" : 0.1,
        "roughnessFactor" : 0.5
      }
    }
  ],
  "meshes" : [
    {
      "primitives" : [
        {
          "attributes" : {
            "POSITION" : 1,
            "NORMAL" : 2,
            "TANGENT" : 3,
            "COLOR_0" : 4,
            "TEXCOORD_0" : 5,
            "TEXCOORD_1" : 6,
            "TEXCOORD_2" : 7,
            "TEXCOORD_3" : 8
          },
          "indices" : 0,
          "material" : 0
        }
      ],
      "name" : "SM_ENV_LKNVLD_Event_SL_Bench_E"
    }
  ],
  "buffers" : [
    {
      "uri" : "SM_ENV_LKNVLD_Event_SL_Bench_E.bin",
      "byteLength" : 274288
    }
  ],
  "bufferViews" : [
    {
      "buffer" : 0,
      "byteOffset" : 0,
      "byteLength" : 10416
    },
    {
      "buffer" : 0,
      "byteOffset" : 10416,
      "byteLength" : 41664
    },
    {
      "buffer" : 0,
      "byteOffset" : 52080,
      "byteLength" : 41664
    },
    {
      "buffer" : 0,
      "byteOffset" : 93744,
      "byteLength" : 55552
    },
    {
      "buffer" : 0,
      "byteOffset" : 149296,
      "byteLength" : 13888
    },
    {
      "buffer" : 0,
      "byteOffset" : 163184,
      "byteLength" : 27776
    },
    {
      "buffer" : 0,
      "byteOffset" : 190960,
      "byteLength" : 27776
    },
    {
      "buffer" : 0,
      "byteOffset" : 218736,
      "byteLength" : 27776
    },
    {
      "buffer" : 0,
      "byteOffset" : 246512,
      "byteLength" : 27776
    }
  ],
  "accessors" : [
    {
      "bufferView" : 0,
      "componentType" : 5123,
      "count" : 5208,
      "type" : "SCALAR"
    },
    {
      "bufferView" : 1,
      "min" : [ -7.03583, -0.299127, 30.9993 ],
      "max" : [ 7.07007, 0.175873, 53.9428 ],
      "componentType" : 5126,
      "count" : 3472,
      "type" : "VEC3"
    },
    {
      "bufferView" : 2,
      "componentType" : 5126,
      "count" : 3472,
      "type" : "VEC3"
    },
    {
      "bufferView" : 3,
      "componentType" : 5126,
      "count" : 3472,
      "type" : "VEC4"
    },
    {
      "bufferView" : 4,
      "normalized" : true,
      "componentType" : 5121,
      "count" : 3472,
      "type" : "VEC4"
    },
    {
      "bufferView" : 5,
      "componentType" : 5126,
      "count" : 3472,
      "type" : "VEC2"
    },
    {
      "bufferView" : 6,
      "componentType" : 5126,
      "count" : 3472,
      "type" : "VEC2"
    },
    {
      "bufferView" : 7,
      "componentType" : 5126,
      "count" : 3472,
      "type" : "VEC2"
    },
    {
      "bufferView" : 8,
      "componentType" : 5126,
      "count" : 3472,
      "type" : "VEC2"
    }
  ]
}
