{
  "asset" : {
    "generator" : "UE Viewer (umodel) build 1544 based",
    "version" : "2.0"
  },
  "scene" : 0,
  "scenes" : [
    {
      "nodes" : [ 0 ]
    }
  ],
  "nodes" : [
    {
      "name" : "SM_ENV_LKNVLD_RockMiddle_D_Lod3",
      "mesh" : 0
    }
  ],
  "materials" : [
    {
      "name" : "MI_ENV_LKNVLD_MiddleRock_A_LOD",
      "pbrMetallicRoughness" : {
        "baseColorFactor" : [ 0.3, 0.3, 0.3, 1.0 ],
        "metallicFactor" : 0.1,
        "roughnessFactor" : 0.5
      }
    }
  ],
  "meshes" : [
    {
      "primitives" : [
        {
          "attributes" : {
            "POSITION" : 1,
            "NORMAL" : 2,
            "TANGENT" : 3,
            "COLOR_0" : 4,
            "TEXCOORD_0" : 5,
            "TEXCOORD_1" : 6,
            "TEXCOORD_2" : 7,
            "TEXCOORD_3" : 8
          },
          "indices" : 0,
          "material" : 0
        }
      ],
      "name" : "SM_ENV_LKNVLD_RockMiddle_D_Lod3"
    }
  ],
  "buffers" : [
    {
      "uri" : "SM_ENV_LKNVLD_RockMiddle_D_Lod3.bin",
      "byteLength" : 22044
    }
  ],
  "bufferViews" : [
    {
      "buffer" : 0,
      "byteOffset" : 0,
      "byteLength" : 1676
    },
    {
      "buffer" : 0,
      "byteOffset" : 1676,
      "byteLength" : 3216
    },
    {
      "buffer" : 0,
      "byteOffset" : 4892,
      "byteLength" : 3216
    },
    {
      "buffer" : 0,
      "byteOffset" : 8108,
      "byteLength" : 4288
    },
    {
      "buffer" : 0,
      "byteOffset" : 12396,
      "byteLength" : 1072
    },
    {
      "buffer" : 0,
      "byteOffset" : 13468,
      "byteLength" : 2144
    },
    {
      "buffer" : 0,
      "byteOffset" : 15612,
      "byteLength" : 2144
    },
    {
      "buffer" : 0,
      "byteOffset" : 17756,
      "byteLength" : 2144
    },
    {
      "buffer" : 0,
      "byteOffset" : 19900,
      "byteLength" : 2144
    }
  ],
  "accessors" : [
    {
      "bufferView" : 0,
      "componentType" : 5123,
      "count" : 837,
      "type" : "SCALAR"
    },
    {
      "bufferView" : 1,
      "min" : [ -26.9702, -0.397664, -45.0718 ],
      "max" : [ -22.8603, 1.10082, -36.5167 ],
      "componentType" : 5126,
      "count" : 268,
      "type" : "VEC3"
    },
    {
      "bufferView" : 2,
      "componentType" : 5126,
      "count" : 268,
      "type" : "VEC3"
    },
    {
      "bufferView" : 3,
      "componentType" : 5126,
      "count" : 268,
      "type" : "VEC4"
    },
    {
      "bufferView" : 4,
      "normalized" : true,
      "componentType" : 5121,
      "count" : 268,
      "type" : "VEC4"
    },
    {
      "bufferView" : 5,
      "componentType" : 5126,
      "count" : 268,
      "type" : "VEC2"
    },
    {
      "bufferView" : 6,
      "componentType" : 5126,
      "count" : 268,
      "type" : "VEC2"
    },
    {
      "bufferView" : 7,
      "componentType" : 5126,
      "count" : 268,
      "type" : "VEC2"
    },
    {
      "bufferView" : 8,
      "componentType" : 5126,
      "count" : 268,
      "type" : "VEC2"
    }
  ]
}
