{
  "asset" : {
    "generator" : "UE Viewer (umodel) build 1544 based",
    "version" : "2.0"
  },
  "scene" : 0,
  "scenes" : [
    {
      "nodes" : [ 0 ]
    }
  ],
  "nodes" : [
    {
      "name" : "SM_ENV_LKNVLD_FarTree_A",
      "mesh" : 0
    }
  ],
  "materials" : [
    {
      "name" : "MI_ENV_LKNVLD_FarTree_A",
      "pbrMetallicRoughness" : {
        "baseColorFactor" : [ 0.3, 0.3, 0.3, 1.0 ],
        "metallicFactor" : 0.1,
        "roughnessFactor" : 0.5
      }
    }
  ],
  "meshes" : [
    {
      "primitives" : [
        {
          "attributes" : {
            "POSITION" : 1,
            "NORMAL" : 2,
            "TANGENT" : 3,
            "COLOR_0" : 4,
            "TEXCOORD_0" : 5,
            "TEXCOORD_1" : 6,
            "TEXCOORD_2" : 7,
            "TEXCOORD_3" : 8
          },
          "indices" : 0,
          "material" : 0
        }
      ],
      "name" : "SM_ENV_LKNVLD_FarTree_A"
    }
  ],
  "buffers" : [
    {
      "uri" : "SM_ENV_LKNVLD_FarTree_A.bin",
      "byteLength" : 1384
    }
  ],
  "bufferViews" : [
    {
      "buffer" : 0,
      "byteOffset" : 0,
      "byteLength" : 92
    },
    {
      "buffer" : 0,
      "byteOffset" : 92,
      "byteLength" : 204
    },
    {
      "buffer" : 0,
      "byteOffset" : 296,
      "byteLength" : 204
    },
    {
      "buffer" : 0,
      "byteOffset" : 500,
      "byteLength" : 272
    },
    {
      "buffer" : 0,
      "byteOffset" : 772,
      "byteLength" : 68
    },
    {
      "buffer" : 0,
      "byteOffset" : 840,
      "byteLength" : 136
    },
    {
      "buffer" : 0,
      "byteOffset" : 976,
      "byteLength" : 136
    },
    {
      "buffer" : 0,
      "byteOffset" : 1112,
      "byteLength" : 136
    },
    {
      "buffer" : 0,
      "byteOffset" : 1248,
      "byteLength" : 136
    }
  ],
  "accessors" : [
    {
      "bufferView" : 0,
      "componentType" : 5123,
      "count" : 45,
      "type" : "SCALAR"
    },
    {
      "bufferView" : 1,
      "min" : [ -28.9388, 0, -4.27449 ],
      "max" : [ 29.4187, 21.9963, 4.83833 ],
      "componentType" : 5126,
      "count" : 17,
      "type" : "VEC3"
    },
    {
      "bufferView" : 2,
      "componentType" : 5126,
      "count" : 17,
      "type" : "VEC3"
    },
    {
      "bufferView" : 3,
      "componentType" : 5126,
      "count" : 17,
      "type" : "VEC4"
    },
    {
      "bufferView" : 4,
      "normalized" : true,
      "componentType" : 5121,
      "count" : 17,
      "type" : "VEC4"
    },
    {
      "bufferView" : 5,
      "componentType" : 5126,
      "count" : 17,
      "type" : "VEC2"
    },
    {
      "bufferView" : 6,
      "componentType" : 5126,
      "count" : 17,
      "type" : "VEC2"
    },
    {
      "bufferView" : 7,
      "componentType" : 5126,
      "count" : 17,
      "type" : "VEC2"
    },
    {
      "bufferView" : 8,
      "componentType" : 5126,
      "count" : 17,
      "type" : "VEC2"
    }
  ]
}
