{
  "asset" : {
    "generator" : "UE Viewer (umodel) build 1544 based",
    "version" : "2.0"
  },
  "scene" : 0,
  "scenes" : [
    {
      "nodes" : [ 0 ]
    }
  ],
  "nodes" : [
    {
      "name" : "SM_ENV_LKNVLD_TreeSet_R_Lod2",
      "mesh" : 0
    }
  ],
  "materials" : [
    {
      "name" : "MI_ENV_LKNVLD_LeafMasked_A",
      "pbrMetallicRoughness" : {
        "baseColorFactor" : [ 0.3, 0.3, 0.3, 1.0 ],
        "metallicFactor" : 0.1,
        "roughnessFactor" : 0.5
      }
    },
    {
      "name" : "MI_ENV_LKNVLD_Leaf_A",
      "pbrMetallicRoughness" : {
        "baseColorFactor" : [ 0.9, 0.3, 0.3, 1.0 ],
        "metallicFactor" : 0.1,
        "roughnessFactor" : 0.5
      }
    }
  ],
  "meshes" : [
    {
      "primitives" : [
        {
          "attributes" : {
            "POSITION" : 1,
            "NORMAL" : 2,
            "TANGENT" : 3,
            "TEXCOORD_0" : 4,
            "TEXCOORD_1" : 5,
            "TEXCOORD_2" : 6,
            "TEXCOORD_3" : 7
          },
          "indices" : 0,
          "material" : 0
        },
        {
          "attributes" : {
            "POSITION" : 9,
            "NORMAL" : 10,
            "TANGENT" : 11,
            "TEXCOORD_0" : 12,
            "TEXCOORD_1" : 13,
            "TEXCOORD_2" : 14,
            "TEXCOORD_3" : 15
          },
          "indices" : 8,
          "material" : 1
        }
      ],
      "name" : "SM_ENV_LKNVLD_TreeSet_R_Lod2"
    }
  ],
  "buffers" : [
    {
      "uri" : "SM_ENV_LKNVLD_TreeSet_R_Lod2.bin",
      "byteLength" : 364188
    }
  ],
  "bufferViews" : [
    {
      "buffer" : 0,
      "byteOffset" : 0,
      "byteLength" : 17112
    },
    {
      "buffer" : 0,
      "byteOffset" : 17112,
      "byteLength" : 52236
    },
    {
      "buffer" : 0,
      "byteOffset" : 69348,
      "byteLength" : 52236
    },
    {
      "buffer" : 0,
      "byteOffset" : 121584,
      "byteLength" : 69648
    },
    {
      "buffer" : 0,
      "byteOffset" : 191232,
      "byteLength" : 34824
    },
    {
      "buffer" : 0,
      "byteOffset" : 226056,
      "byteLength" : 34824
    },
    {
      "buffer" : 0,
      "byteOffset" : 260880,
      "byteLength" : 34824
    },
    {
      "buffer" : 0,
      "byteOffset" : 295704,
      "byteLength" : 34824
    },
    {
      "buffer" : 0,
      "byteOffset" : 330528,
      "byteLength" : 3996
    },
    {
      "buffer" : 0,
      "byteOffset" : 334524,
      "byteLength" : 4944
    },
    {
      "buffer" : 0,
      "byteOffset" : 339468,
      "byteLength" : 4944
    },
    {
      "buffer" : 0,
      "byteOffset" : 344412,
      "byteLength" : 6592
    },
    {
      "buffer" : 0,
      "byteOffset" : 351004,
      "byteLength" : 3296
    },
    {
      "buffer" : 0,
      "byteOffset" : 354300,
      "byteLength" : 3296
    },
    {
      "buffer" : 0,
      "byteOffset" : 357596,
      "byteLength" : 3296
    },
    {
      "buffer" : 0,
      "byteOffset" : 360892,
      "byteLength" : 3296
    }
  ],
  "accessors" : [
    {
      "bufferView" : 0,
      "componentType" : 5123,
      "count" : 8556,
      "type" : "SCALAR"
    },
    {
      "bufferView" : 1,
      "min" : [ 13.6069, 6.12234, -128.418 ],
      "max" : [ 36.2574, 42.942, -90.1313 ],
      "componentType" : 5126,
      "count" : 4353,
      "type" : "VEC3"
    },
    {
      "bufferView" : 2,
      "componentType" : 5126,
      "count" : 4353,
      "type" : "VEC3"
    },
    {
      "bufferView" : 3,
      "componentType" : 5126,
      "count" : 4353,
      "type" : "VEC4"
    },
    {
      "bufferView" : 4,
      "componentType" : 5126,
      "count" : 4353,
      "type" : "VEC2"
    },
    {
      "bufferView" : 5,
      "componentType" : 5126,
      "count" : 4353,
      "type" : "VEC2"
    },
    {
      "bufferView" : 6,
      "componentType" : 5126,
      "count" : 4353,
      "type" : "VEC2"
    },
    {
      "bufferView" : 7,
      "componentType" : 5126,
      "count" : 4353,
      "type" : "VEC2"
    },
    {
      "bufferView" : 8,
      "componentType" : 5123,
      "count" : 1998,
      "type" : "SCALAR"
    },
    {
      "bufferView" : 9,
      "min" : [ 13.9096, 6.40403, -127.935 ],
      "max" : [ 35.904, 42.4222, -90.3222 ],
      "componentType" : 5126,
      "count" : 412,
      "type" : "VEC3"
    },
    {
      "bufferView" : 10,
      "componentType" : 5126,
      "count" : 412,
      "type" : "VEC3"
    },
    {
      "bufferView" : 11,
      "componentType" : 5126,
      "count" : 412,
      "type" : "VEC4"
    },
    {
      "bufferView" : 12,
      "componentType" : 5126,
      "count" : 412,
      "type" : "VEC2"
    },
    {
      "bufferView" : 13,
      "componentType" : 5126,
      "count" : 412,
      "type" : "VEC2"
    },
    {
      "bufferView" : 14,
      "componentType" : 5126,
      "count" : 412,
      "type" : "VEC2"
    },
    {
      "bufferView" : 15,
      "componentType" : 5126,
      "count" : 412,
      "type" : "VEC2"
    }
  ]
}
