{
  "asset" : {
    "generator" : "UE Viewer (umodel) build 1544 based",
    "version" : "2.0"
  },
  "scene" : 0,
  "scenes" : [
    {
      "nodes" : [ 0 ]
    }
  ],
  "nodes" : [
    {
      "name" : "SM_ENV_LKNVLD_GardenLantern_A_Lod2",
      "mesh" : 0
    }
  ],
  "materials" : [
    {
      "name" : "MI_ENV_LKNVLD_GardenLantern_A",
      "pbrMetallicRoughness" : {
        "baseColorFactor" : [ 0.3, 0.3, 0.3, 1.0 ],
        "metallicFactor" : 0.1,
        "roughnessFactor" : 0.5
      }
    }
  ],
  "meshes" : [
    {
      "primitives" : [
        {
          "attributes" : {
            "POSITION" : 1,
            "NORMAL" : 2,
            "TANGENT" : 3,
            "COLOR_0" : 4,
            "TEXCOORD_0" : 5,
            "TEXCOORD_1" : 6,
            "TEXCOORD_2" : 7,
            "TEXCOORD_3" : 8
          },
          "indices" : 0,
          "material" : 0
        }
      ],
      "name" : "SM_ENV_LKNVLD_GardenLantern_A_Lod2"
    }
  ],
  "buffers" : [
    {
      "uri" : "SM_ENV_LKNVLD_GardenLantern_A_Lod2.bin",
      "byteLength" : 157064
    }
  ],
  "bufferViews" : [
    {
      "buffer" : 0,
      "byteOffset" : 0,
      "byteLength" : 10992
    },
    {
      "buffer" : 0,
      "byteOffset" : 10992,
      "byteLength" : 23064
    },
    {
      "buffer" : 0,
      "byteOffset" : 34056,
      "byteLength" : 23064
    },
    {
      "buffer" : 0,
      "byteOffset" : 57120,
      "byteLength" : 30752
    },
    {
      "buffer" : 0,
      "byteOffset" : 87872,
      "byteLength" : 7688
    },
    {
      "buffer" : 0,
      "byteOffset" : 95560,
      "byteLength" : 15376
    },
    {
      "buffer" : 0,
      "byteOffset" : 110936,
      "byteLength" : 15376
    },
    {
      "buffer" : 0,
      "byteOffset" : 126312,
      "byteLength" : 15376
    },
    {
      "buffer" : 0,
      "byteOffset" : 141688,
      "byteLength" : 15376
    }
  ],
  "accessors" : [
    {
      "bufferView" : 0,
      "componentType" : 5123,
      "count" : 5496,
      "type" : "SCALAR"
    },
    {
      "bufferView" : 1,
      "min" : [ -0.694429, -5.0249e-06, -0.763775 ],
      "max" : [ 0.694429, 4.73039, 0.763775 ],
      "componentType" : 5126,
      "count" : 1922,
      "type" : "VEC3"
    },
    {
      "bufferView" : 2,
      "componentType" : 5126,
      "count" : 1922,
      "type" : "VEC3"
    },
    {
      "bufferView" : 3,
      "componentType" : 5126,
      "count" : 1922,
      "type" : "VEC4"
    },
    {
      "bufferView" : 4,
      "normalized" : true,
      "componentType" : 5121,
      "count" : 1922,
      "type" : "VEC4"
    },
    {
      "bufferView" : 5,
      "componentType" : 5126,
      "count" : 1922,
      "type" : "VEC2"
    },
    {
      "bufferView" : 6,
      "componentType" : 5126,
      "count" : 1922,
      "type" : "VEC2"
    },
    {
      "bufferView" : 7,
      "componentType" : 5126,
      "count" : 1922,
      "type" : "VEC2"
    },
    {
      "bufferView" : 8,
      "componentType" : 5126,
      "count" : 1922,
      "type" : "VEC2"
    }
  ]
}
