{
  "asset" : {
    "generator" : "UE Viewer (umodel) build 1544 based",
    "version" : "2.0"
  },
  "scene" : 0,
  "scenes" : [
    {
      "nodes" : [ 0 ]
    }
  ],
  "nodes" : [
    {
      "name" : "SM_ENV_LKNVLD_Torii_Sun_Lod2",
      "mesh" : 0
    }
  ],
  "materials" : [
    {
      "name" : "MI_ENV_LKNVLD_RoughTiles_LOD",
      "pbrMetallicRoughness" : {
        "baseColorFactor" : [ 0.3, 0.3, 0.3, 1.0 ],
        "metallicFactor" : 0.1,
        "roughnessFactor" : 0.5
      }
    },
    {
      "name" : "MI_ENV_LKNVLD_StoneTrim_Ground_LOD",
      "pbrMetallicRoughness" : {
        "baseColorFactor" : [ 0.9, 0.3, 0.3, 1.0 ],
        "metallicFactor" : 0.1,
        "roughnessFactor" : 0.5
      }
    },
    {
      "name" : "MI_ENV_LKNVLD_Eaves_F_LOD",
      "pbrMetallicRoughness" : {
        "baseColorFactor" : [ 0.3, 0.9, 0.3, 1.0 ],
        "metallicFactor" : 0.1,
        "roughnessFactor" : 0.5
      }
    },
    {
      "name" : "MI_ENV_LKNVLD_Rope_A_Animated",
      "pbrMetallicRoughness" : {
        "baseColorFactor" : [ 0.3, 0.3, 0.9, 1.0 ],
        "metallicFactor" : 0.1,
        "roughnessFactor" : 0.5
      }
    },
    {
      "name" : "MI_ENV_LKNVLD_ClanSignboard_J",
      "pbrMetallicRoughness" : {
        "baseColorFactor" : [ 0.9, 0.9, 0.9, 1.0 ],
        "metallicFactor" : 0.1,
        "roughnessFactor" : 0.5
      }
    },
    {
      "name" : "MI_ENV_LKNVLD_WoodTorii_A_LOD",
      "pbrMetallicRoughness" : {
        "baseColorFactor" : [ 0.9, 0.9, 0.3, 1.0 ],
        "metallicFactor" : 0.1,
        "roughnessFactor" : 0.5
      }
    }
  ],
  "meshes" : [
    {
      "primitives" : [
        {
          "attributes" : {
            "POSITION" : 1,
            "NORMAL" : 2,
            "TANGENT" : 3,
            "TEXCOORD_0" : 4,
            "TEXCOORD_1" : 5,
            "TEXCOORD_2" : 6,
            "TEXCOORD_3" : 7
          },
          "indices" : 0,
          "material" : 0
        },
        {
          "attributes" : {
            "POSITION" : 9,
            "NORMAL" : 10,
            "TANGENT" : 11,
            "TEXCOORD_0" : 12,
            "TEXCOORD_1" : 13,
            "TEXCOORD_2" : 14,
            "TEXCOORD_3" : 15
          },
          "indices" : 8,
          "material" : 1
        },
        {
          "attributes" : {
            "POSITION" : 17,
            "NORMAL" : 18,
            "TANGENT" : 19,
            "TEXCOORD_0" : 20,
            "TEXCOORD_1" : 21,
            "TEXCOORD_2" : 22,
            "TEXCOORD_3" : 23
          },
          "indices" : 16,
          "material" : 2
        },
        {
          "attributes" : {
            "POSITION" : 25,
            "NORMAL" : 26,
            "TANGENT" : 27,
            "TEXCOORD_0" : 28,
            "TEXCOORD_1" : 29,
            "TEXCOORD_2" : 30,
            "TEXCOORD_3" : 31
          },
          "indices" : 24,
          "material" : 3
        },
        {
          "attributes" : {
            "POSITION" : 33,
            "NORMAL" : 34,
            "TANGENT" : 35,
            "TEXCOORD_0" : 36,
            "TEXCOORD_1" : 37,
            "TEXCOORD_2" : 38,
            "TEXCOORD_3" : 39
          },
          "indices" : 32,
          "material" : 4
        },
        {
          "attributes" : {
            "POSITION" : 41,
            "NORMAL" : 42,
            "TANGENT" : 43,
            "TEXCOORD_0" : 44,
            "TEXCOORD_1" : 45,
            "TEXCOORD_2" : 46,
            "TEXCOORD_3" : 47
          },
          "indices" : 40,
          "material" : 5
        }
      ],
      "name" : "SM_ENV_LKNVLD_Torii_Sun_Lod2"
    }
  ],
  "buffers" : [
    {
      "uri" : "SM_ENV_LKNVLD_Torii_Sun_Lod2.bin",
      "byteLength" : 191972
    }
  ],
  "bufferViews" : [
    {
      "buffer" : 0,
      "byteOffset" : 0,
      "byteLength" : 1392
    },
    {
      "buffer" : 0,
      "byteOffset" : 1392,
      "byteLength" : 4224
    },
    {
      "buffer" : 0,
      "byteOffset" : 5616,
      "byteLength" : 4224
    },
    {
      "buffer" : 0,
      "byteOffset" : 9840,
      "byteLength" : 5632
    },
    {
      "buffer" : 0,
      "byteOffset" : 15472,
      "byteLength" : 2816
    },
    {
      "buffer" : 0,
      "byteOffset" : 18288,
      "byteLength" : 2816
    },
    {
      "buffer" : 0,
      "byteOffset" : 21104,
      "byteLength" : 2816
    },
    {
      "buffer" : 0,
      "byteOffset" : 23920,
      "byteLength" : 2816
    },
    {
      "buffer" : 0,
      "byteOffset" : 26736,
      "byteLength" : 312
    },
    {
      "buffer" : 0,
      "byteOffset" : 27048,
      "byteLength" : 864
    },
    {
      "buffer" : 0,
      "byteOffset" : 27912,
      "byteLength" : 864
    },
    {
      "buffer" : 0,
      "byteOffset" : 28776,
      "byteLength" : 1152
    },
    {
      "buffer" : 0,
      "byteOffset" : 29928,
      "byteLength" : 576
    },
    {
      "buffer" : 0,
      "byteOffset" : 30504,
      "byteLength" : 576
    },
    {
      "buffer" : 0,
      "byteOffset" : 31080,
      "byteLength" : 576
    },
    {
      "buffer" : 0,
      "byteOffset" : 31656,
      "byteLength" : 576
    },
    {
      "buffer" : 0,
      "byteOffset" : 32232,
      "byteLength" : 1580
    },
    {
      "buffer" : 0,
      "byteOffset" : 33812,
      "byteLength" : 4812
    },
    {
      "buffer" : 0,
      "byteOffset" : 38624,
      "byteLength" : 4812
    },
    {
      "buffer" : 0,
      "byteOffset" : 43436,
      "byteLength" : 6416
    },
    {
      "buffer" : 0,
      "byteOffset" : 49852,
      "byteLength" : 3208
    },
    {
      "buffer" : 0,
      "byteOffset" : 53060,
      "byteLength" : 3208
    },
    {
      "buffer" : 0,
      "byteOffset" : 56268,
      "byteLength" : 3208
    },
    {
      "buffer" : 0,
      "byteOffset" : 59476,
      "byteLength" : 3208
    },
    {
      "buffer" : 0,
      "byteOffset" : 62684,
      "byteLength" : 1704
    },
    {
      "buffer" : 0,
      "byteOffset" : 64388,
      "byteLength" : 3948
    },
    {
      "buffer" : 0,
      "byteOffset" : 68336,
      "byteLength" : 3948
    },
    {
      "buffer" : 0,
      "byteOffset" : 72284,
      "byteLength" : 5264
    },
    {
      "buffer" : 0,
      "byteOffset" : 77548,
      "byteLength" : 2632
    },
    {
      "buffer" : 0,
      "byteOffset" : 80180,
      "byteLength" : 2632
    },
    {
      "buffer" : 0,
      "byteOffset" : 82812,
      "byteLength" : 2632
    },
    {
      "buffer" : 0,
      "byteOffset" : 85444,
      "byteLength" : 2632
    },
    {
      "buffer" : 0,
      "byteOffset" : 88076,
      "byteLength" : 444
    },
    {
      "buffer" : 0,
      "byteOffset" : 88520,
      "byteLength" : 1392
    },
    {
      "buffer" : 0,
      "byteOffset" : 89912,
      "byteLength" : 1392
    },
    {
      "buffer" : 0,
      "byteOffset" : 91304,
      "byteLength" : 1856
    },
    {
      "buffer" : 0,
      "byteOffset" : 93160,
      "byteLength" : 928
    },
    {
      "buffer" : 0,
      "byteOffset" : 94088,
      "byteLength" : 928
    },
    {
      "buffer" : 0,
      "byteOffset" : 95016,
      "byteLength" : 928
    },
    {
      "buffer" : 0,
      "byteOffset" : 95944,
      "byteLength" : 928
    },
    {
      "buffer" : 0,
      "byteOffset" : 96872,
      "byteLength" : 5892
    },
    {
      "buffer" : 0,
      "byteOffset" : 102764,
      "byteLength" : 14868
    },
    {
      "buffer" : 0,
      "byteOffset" : 117632,
      "byteLength" : 14868
    },
    {
      "buffer" : 0,
      "byteOffset" : 132500,
      "byteLength" : 19824
    },
    {
      "buffer" : 0,
      "byteOffset" : 152324,
      "byteLength" : 9912
    },
    {
      "buffer" : 0,
      "byteOffset" : 162236,
      "byteLength" : 9912
    },
    {
      "buffer" : 0,
      "byteOffset" : 172148,
      "byteLength" : 9912
    },
    {
      "buffer" : 0,
      "byteOffset" : 182060,
      "byteLength" : 9912
    }
  ],
  "accessors" : [
    {
      "bufferView" : 0,
      "componentType" : 5123,
      "count" : 696,
      "type" : "SCALAR"
    },
    {
      "bufferView" : 1,
      "min" : [ -4.77909, -0.0641648, -1.30426 ],
      "max" : [ 4.78108, 0.565984, 1.25585 ],
      "componentType" : 5126,
      "count" : 352,
      "type" : "VEC3"
    },
    {
      "bufferView" : 2,
      "componentType" : 5126,
      "count" : 352,
      "type" : "VEC3"
    },
    {
      "bufferView" : 3,
      "componentType" : 5126,
      "count" : 352,
      "type" : "VEC4"
    },
    {
      "bufferView" : 4,
      "componentType" : 5126,
      "count" : 352,
      "type" : "VEC2"
    },
    {
      "bufferView" : 5,
      "componentType" : 5126,
      "count" : 352,
      "type" : "VEC2"
    },
    {
      "bufferView" : 6,
      "componentType" : 5126,
      "count" : 352,
      "type" : "VEC2"
    },
    {
      "bufferView" : 7,
      "componentType" : 5126,
      "count" : 352,
      "type" : "VEC2"
    },
    {
      "bufferView" : 8,
      "componentType" : 5123,
      "count" : 156,
      "type" : "SCALAR"
    },
    {
      "bufferView" : 9,
      "min" : [ -4.73558, 0.0984014, -1.26111 ],
      "max" : [ 4.73793, 0.523717, 1.2127 ],
      "componentType" : 5126,
      "count" : 72,
      "type" : "VEC3"
    },
    {
      "bufferView" : 10,
      "componentType" : 5126,
      "count" : 72,
      "type" : "VEC3"
    },
    {
      "bufferView" : 11,
      "componentType" : 5126,
      "count" : 72,
      "type" : "VEC4"
    },
    {
      "bufferView" : 12,
      "componentType" : 5126,
      "count" : 72,
      "type" : "VEC2"
    },
    {
      "bufferView" : 13,
      "componentType" : 5126,
      "count" : 72,
      "type" : "VEC2"
    },
    {
      "bufferView" : 14,
      "componentType" : 5126,
      "count" : 72,
      "type" : "VEC2"
    },
    {
      "bufferView" : 15,
      "componentType" : 5126,
      "count" : 72,
      "type" : "VEC2"
    },
    {
      "bufferView" : 16,
      "componentType" : 5123,
      "count" : 789,
      "type" : "SCALAR"
    },
    {
      "bufferView" : 17,
      "min" : [ -6.80527, 9.36376, -1.02486 ],
      "max" : [ 6.80527, 13.0413, 1.04293 ],
      "componentType" : 5126,
      "count" : 401,
      "type" : "VEC3"
    },
    {
      "bufferView" : 18,
      "componentType" : 5126,
      "count" : 401,
      "type" : "VEC3"
    },
    {
      "bufferView" : 19,
      "componentType" : 5126,
      "count" : 401,
      "type" : "VEC4"
    },
    {
      "bufferView" : 20,
      "componentType" : 5126,
      "count" : 401,
      "type" : "VEC2"
    },
    {
      "bufferView" : 21,
      "componentType" : 5126,
      "count" : 401,
      "type" : "VEC2"
    },
    {
      "bufferView" : 22,
      "componentType" : 5126,
      "count" : 401,
      "type" : "VEC2"
    },
    {
      "bufferView" : 23,
      "componentType" : 5126,
      "count" : 401,
      "type" : "VEC2"
    },
    {
      "bufferView" : 24,
      "componentType" : 5123,
      "count" : 852,
      "type" : "SCALAR"
    },
    {
      "bufferView" : 25,
      "min" : [ -3.74277, 7.8237, 0.328598 ],
      "max" : [ 3.74277, 9.98905, 0.784179 ],
      "componentType" : 5126,
      "count" : 329,
      "type" : "VEC3"
    },
    {
      "bufferView" : 26,
      "componentType" : 5126,
      "count" : 329,
      "type" : "VEC3"
    },
    {
      "bufferView" : 27,
      "componentType" : 5126,
      "count" : 329,
      "type" : "VEC4"
    },
    {
      "bufferView" : 28,
      "componentType" : 5126,
      "count" : 329,
      "type" : "VEC2"
    },
    {
      "bufferView" : 29,
      "componentType" : 5126,
      "count" : 329,
      "type" : "VEC2"
    },
    {
      "bufferView" : 30,
      "componentType" : 5126,
      "count" : 329,
      "type" : "VEC2"
    },
    {
      "bufferView" : 31,
      "componentType" : 5126,
      "count" : 329,
      "type" : "VEC2"
    },
    {
      "bufferView" : 32,
      "componentType" : 5123,
      "count" : 222,
      "type" : "SCALAR"
    },
    {
      "bufferView" : 33,
      "min" : [ -0.535865, 10.1385, 0.0503185 ],
      "max" : [ 0.535865, 11.7548, 0.428534 ],
      "componentType" : 5126,
      "count" : 116,
      "type" : "VEC3"
    },
    {
      "bufferView" : 34,
      "componentType" : 5126,
      "count" : 116,
      "type" : "VEC3"
    },
    {
      "bufferView" : 35,
      "componentType" : 5126,
      "count" : 116,
      "type" : "VEC4"
    },
    {
      "bufferView" : 36,
      "componentType" : 5126,
      "count" : 116,
      "type" : "VEC2"
    },
    {
      "bufferView" : 37,
      "componentType" : 5126,
      "count" : 116,
      "type" : "VEC2"
    },
    {
      "bufferView" : 38,
      "componentType" : 5126,
      "count" : 116,
      "type" : "VEC2"
    },
    {
      "bufferView" : 39,
      "componentType" : 5126,
      "count" : 116,
      "type" : "VEC2"
    },
    {
      "bufferView" : 40,
      "componentType" : 5123,
      "count" : 2946,
      "type" : "SCALAR"
    },
    {
      "bufferView" : 41,
      "min" : [ -6.7228, 0.5, -1.02122 ],
      "max" : [ 6.7228, 12.7252, 1.03928 ],
      "componentType" : 5126,
      "count" : 1239,
      "type" : "VEC3"
    },
    {
      "bufferView" : 42,
      "componentType" : 5126,
      "count" : 1239,
      "type" : "VEC3"
    },
    {
      "bufferView" : 43,
      "componentType" : 5126,
      "count" : 1239,
      "type" : "VEC4"
    },
    {
      "bufferView" : 44,
      "componentType" : 5126,
      "count" : 1239,
      "type" : "VEC2"
    },
    {
      "bufferView" : 45,
      "componentType" : 5126,
      "count" : 1239,
      "type" : "VEC2"
    },
    {
      "bufferView" : 46,
      "componentType" : 5126,
      "count" : 1239,
      "type" : "VEC2"
    },
    {
      "bufferView" : 47,
      "componentType" : 5126,
      "count" : 1239,
      "type" : "VEC2"
    }
  ]
}
