{
  "asset" : {
    "generator" : "UE Viewer (umodel) build 1544 based",
    "version" : "2.0"
  },
  "scene" : 0,
  "scenes" : [
    {
      "nodes" : [ 0 ]
    }
  ],
  "nodes" : [
    {
      "name" : "SM_ENV_LKNVLD_Event_SL_Line_A",
      "mesh" : 0
    }
  ],
  "materials" : [
    {
      "name" : "MI_ENV_LKNVLD_Neon_A1",
      "pbrMetallicRoughness" : {
        "baseColorFactor" : [ 0.3, 0.3, 0.3, 1.0 ],
        "metallicFactor" : 0.1,
        "roughnessFactor" : 0.5
      }
    }
  ],
  "meshes" : [
    {
      "primitives" : [
        {
          "attributes" : {
            "POSITION" : 1,
            "NORMAL" : 2,
            "TANGENT" : 3,
            "TEXCOORD_0" : 4,
            "TEXCOORD_1" : 5
          },
          "indices" : 0,
          "material" : 0
        }
      ],
      "name" : "SM_ENV_LKNVLD_Event_SL_Line_A"
    }
  ],
  "buffers" : [
    {
      "uri" : "SM_ENV_LKNVLD_Event_SL_Line_A.bin",
      "byteLength" : 107180
    }
  ],
  "bufferViews" : [
    {
      "buffer" : 0,
      "byteOffset" : 0,
      "byteLength" : 8396
    },
    {
      "buffer" : 0,
      "byteOffset" : 8396,
      "byteLength" : 21168
    },
    {
      "buffer" : 0,
      "byteOffset" : 29564,
      "byteLength" : 21168
    },
    {
      "buffer" : 0,
      "byteOffset" : 50732,
      "byteLength" : 28224
    },
    {
      "buffer" : 0,
      "byteOffset" : 78956,
      "byteLength" : 14112
    },
    {
      "buffer" : 0,
      "byteOffset" : 93068,
      "byteLength" : 14112
    }
  ],
  "accessors" : [
    {
      "bufferView" : 0,
      "componentType" : 5123,
      "count" : 4197,
      "type" : "SCALAR"
    },
    {
      "bufferView" : 1,
      "min" : [ -56.8576, 0.464123, -19.4105 ],
      "max" : [ -17.6293, 40.6051, 48.1719 ],
      "componentType" : 5126,
      "count" : 1764,
      "type" : "VEC3"
    },
    {
      "bufferView" : 2,
      "componentType" : 5126,
      "count" : 1764,
      "type" : "VEC3"
    },
    {
      "bufferView" : 3,
      "componentType" : 5126,
      "count" : 1764,
      "type" : "VEC4"
    },
    {
      "bufferView" : 4,
      "componentType" : 5126,
      "count" : 1764,
      "type" : "VEC2"
    },
    {
      "bufferView" : 5,
      "componentType" : 5126,
      "count" : 1764,
      "type" : "VEC2"
    }
  ]
}
