{
  "asset" : {
    "generator" : "UE Viewer (umodel) build 1544 based",
    "version" : "2.0"
  },
  "scene" : 0,
  "scenes" : [
    {
      "nodes" : [ 0 ]
    }
  ],
  "nodes" : [
    {
      "name" : "SM_ENV_LKNVLD_Umbrella_A_Lod1",
      "mesh" : 0
    }
  ],
  "materials" : [
    {
      "name" : "MI_LKNVLD_Umbrella_A",
      "pbrMetallicRoughness" : {
        "baseColorFactor" : [ 0.3, 0.3, 0.3, 1.0 ],
        "metallicFactor" : 0.1,
        "roughnessFactor" : 0.5
      }
    }
  ],
  "meshes" : [
    {
      "primitives" : [
        {
          "attributes" : {
            "POSITION" : 1,
            "NORMAL" : 2,
            "TANGENT" : 3,
            "TEXCOORD_0" : 4,
            "TEXCOORD_1" : 5,
            "TEXCOORD_2" : 6,
            "TEXCOORD_3" : 7
          },
          "indices" : 0,
          "material" : 0
        }
      ],
      "name" : "SM_ENV_LKNVLD_Umbrella_A_Lod1"
    }
  ],
  "buffers" : [
    {
      "uri" : "SM_ENV_LKNVLD_Umbrella_A_Lod1.bin",
      "byteLength" : 196080
    }
  ],
  "bufferViews" : [
    {
      "buffer" : 0,
      "byteOffset" : 0,
      "byteLength" : 13128
    },
    {
      "buffer" : 0,
      "byteOffset" : 13128,
      "byteLength" : 30492
    },
    {
      "buffer" : 0,
      "byteOffset" : 43620,
      "byteLength" : 30492
    },
    {
      "buffer" : 0,
      "byteOffset" : 74112,
      "byteLength" : 40656
    },
    {
      "buffer" : 0,
      "byteOffset" : 114768,
      "byteLength" : 20328
    },
    {
      "buffer" : 0,
      "byteOffset" : 135096,
      "byteLength" : 20328
    },
    {
      "buffer" : 0,
      "byteOffset" : 155424,
      "byteLength" : 20328
    },
    {
      "buffer" : 0,
      "byteOffset" : 175752,
      "byteLength" : 20328
    }
  ],
  "accessors" : [
    {
      "bufferView" : 0,
      "componentType" : 5123,
      "count" : 6564,
      "type" : "SCALAR"
    },
    {
      "bufferView" : 1,
      "min" : [ -1.97627, -0.00252426, -1.96858 ],
      "max" : [ 1.97627, 2.64531, 1.98395 ],
      "componentType" : 5126,
      "count" : 2541,
      "type" : "VEC3"
    },
    {
      "bufferView" : 2,
      "componentType" : 5126,
      "count" : 2541,
      "type" : "VEC3"
    },
    {
      "bufferView" : 3,
      "componentType" : 5126,
      "count" : 2541,
      "type" : "VEC4"
    },
    {
      "bufferView" : 4,
      "componentType" : 5126,
      "count" : 2541,
      "type" : "VEC2"
    },
    {
      "bufferView" : 5,
      "componentType" : 5126,
      "count" : 2541,
      "type" : "VEC2"
    },
    {
      "bufferView" : 6,
      "componentType" : 5126,
      "count" : 2541,
      "type" : "VEC2"
    },
    {
      "bufferView" : 7,
      "componentType" : 5126,
      "count" : 2541,
      "type" : "VEC2"
    }
  ]
}
