{
  "asset" : {
    "generator" : "UE Viewer (umodel) build 1544 based",
    "version" : "2.0"
  },
  "scene" : 0,
  "scenes" : [
    {
      "nodes" : [ 0 ]
    }
  ],
  "nodes" : [
    {
      "name" : "SM_ENV_LKNVLD_OFUDA",
      "mesh" : 0
    }
  ],
  "materials" : [
    {
      "name" : "MI_ENV_LKNVLD_Sticker_02",
      "pbrMetallicRoughness" : {
        "baseColorFactor" : [ 0.3, 0.3, 0.3, 1.0 ],
        "metallicFactor" : 0.1,
        "roughnessFactor" : 0.5
      }
    }
  ],
  "meshes" : [
    {
      "primitives" : [
        {
          "attributes" : {
            "POSITION" : 1,
            "NORMAL" : 2,
            "TANGENT" : 3,
            "TEXCOORD_0" : 4,
            "TEXCOORD_1" : 5,
            "TEXCOORD_2" : 6,
            "TEXCOORD_3" : 7
          },
          "indices" : 0,
          "material" : 0
        }
      ],
      "name" : "SM_ENV_LKNVLD_OFUDA"
    }
  ],
  "buffers" : [
    {
      "uri" : "SM_ENV_LKNVLD_OFUDA.bin",
      "byteLength" : 61412
    }
  ],
  "bufferViews" : [
    {
      "buffer" : 0,
      "byteOffset" : 0,
      "byteLength" : 3164
    },
    {
      "buffer" : 0,
      "byteOffset" : 3164,
      "byteLength" : 9708
    },
    {
      "buffer" : 0,
      "byteOffset" : 12872,
      "byteLength" : 9708
    },
    {
      "buffer" : 0,
      "byteOffset" : 22580,
      "byteLength" : 12944
    },
    {
      "buffer" : 0,
      "byteOffset" : 35524,
      "byteLength" : 6472
    },
    {
      "buffer" : 0,
      "byteOffset" : 41996,
      "byteLength" : 6472
    },
    {
      "buffer" : 0,
      "byteOffset" : 48468,
      "byteLength" : 6472
    },
    {
      "buffer" : 0,
      "byteOffset" : 54940,
      "byteLength" : 6472
    }
  ],
  "accessors" : [
    {
      "bufferView" : 0,
      "componentType" : 5123,
      "count" : 1581,
      "type" : "SCALAR"
    },
    {
      "bufferView" : 1,
      "min" : [ -64.2358, 0.369532, -46.1277 ],
      "max" : [ 64.2358, 5.02815, 66.5354 ],
      "componentType" : 5126,
      "count" : 809,
      "type" : "VEC3"
    },
    {
      "bufferView" : 2,
      "componentType" : 5126,
      "count" : 809,
      "type" : "VEC3"
    },
    {
      "bufferView" : 3,
      "componentType" : 5126,
      "count" : 809,
      "type" : "VEC4"
    },
    {
      "bufferView" : 4,
      "componentType" : 5126,
      "count" : 809,
      "type" : "VEC2"
    },
    {
      "bufferView" : 5,
      "componentType" : 5126,
      "count" : 809,
      "type" : "VEC2"
    },
    {
      "bufferView" : 6,
      "componentType" : 5126,
      "count" : 809,
      "type" : "VEC2"
    },
    {
      "bufferView" : 7,
      "componentType" : 5126,
      "count" : 809,
      "type" : "VEC2"
    }
  ]
}
