{
  "asset" : {
    "generator" : "UE Viewer (umodel) build 1544 based",
    "version" : "2.0"
  },
  "scene" : 0,
  "scenes" : [
    {
      "nodes" : [ 0 ]
    }
  ],
  "nodes" : [
    {
      "name" : "SM_ENV_LKNVLD_KaoiwaFront_A",
      "mesh" : 0
    }
  ],
  "materials" : [
    {
      "name" : "MI_ENV_LKNVLD_KaoiwaBuildings_B",
      "pbrMetallicRoughness" : {
        "baseColorFactor" : [ 0.3, 0.3, 0.3, 1.0 ],
        "metallicFactor" : 0.1,
        "roughnessFactor" : 0.5
      }
    }
  ],
  "meshes" : [
    {
      "primitives" : [
        {
          "attributes" : {
            "POSITION" : 1,
            "NORMAL" : 2,
            "TANGENT" : 3,
            "TEXCOORD_0" : 4,
            "TEXCOORD_1" : 5,
            "TEXCOORD_2" : 6,
            "TEXCOORD_3" : 7
          },
          "indices" : 0,
          "material" : 0
        }
      ],
      "name" : "SM_ENV_LKNVLD_KaoiwaFront_A"
    }
  ],
  "buffers" : [
    {
      "uri" : "SM_ENV_LKNVLD_KaoiwaFront_A.bin",
      "byteLength" : 59928
    }
  ],
  "bufferViews" : [
    {
      "buffer" : 0,
      "byteOffset" : 0,
      "byteLength" : 2472
    },
    {
      "buffer" : 0,
      "byteOffset" : 2472,
      "byteLength" : 9576
    },
    {
      "buffer" : 0,
      "byteOffset" : 12048,
      "byteLength" : 9576
    },
    {
      "buffer" : 0,
      "byteOffset" : 21624,
      "byteLength" : 12768
    },
    {
      "buffer" : 0,
      "byteOffset" : 34392,
      "byteLength" : 6384
    },
    {
      "buffer" : 0,
      "byteOffset" : 40776,
      "byteLength" : 6384
    },
    {
      "buffer" : 0,
      "byteOffset" : 47160,
      "byteLength" : 6384
    },
    {
      "buffer" : 0,
      "byteOffset" : 53544,
      "byteLength" : 6384
    }
  ],
  "accessors" : [
    {
      "bufferView" : 0,
      "componentType" : 5123,
      "count" : 1236,
      "type" : "SCALAR"
    },
    {
      "bufferView" : 1,
      "min" : [ -213.27, -116.344, -45.3135 ],
      "max" : [ 209.206, 79.6803, 14.7643 ],
      "componentType" : 5126,
      "count" : 798,
      "type" : "VEC3"
    },
    {
      "bufferView" : 2,
      "componentType" : 5126,
      "count" : 798,
      "type" : "VEC3"
    },
    {
      "bufferView" : 3,
      "componentType" : 5126,
      "count" : 798,
      "type" : "VEC4"
    },
    {
      "bufferView" : 4,
      "componentType" : 5126,
      "count" : 798,
      "type" : "VEC2"
    },
    {
      "bufferView" : 5,
      "componentType" : 5126,
      "count" : 798,
      "type" : "VEC2"
    },
    {
      "bufferView" : 6,
      "componentType" : 5126,
      "count" : 798,
      "type" : "VEC2"
    },
    {
      "bufferView" : 7,
      "componentType" : 5126,
      "count" : 798,
      "type" : "VEC2"
    }
  ]
}
