{
  "asset" : {
    "generator" : "UE Viewer (umodel) build 1544 based",
    "version" : "2.0"
  },
  "scene" : 0,
  "scenes" : [
    {
      "nodes" : [ 0 ]
    }
  ],
  "nodes" : [
    {
      "name" : "SM_ENV_LKNVLD_Event_HL_WoodenStage_A_Lod2",
      "mesh" : 0
    }
  ],
  "materials" : [
    {
      "name" : "MI_ENV_LKNVLD_PaperLantern_A_3_Trans",
      "pbrMetallicRoughness" : {
        "baseColorFactor" : [ 0.3, 0.3, 0.3, 1.0 ],
        "metallicFactor" : 0.1,
        "roughnessFactor" : 0.5
      }
    },
    {
      "name" : "MI_ENV_LKNVLD_WoodBoard_Natural_Yellowed",
      "pbrMetallicRoughness" : {
        "baseColorFactor" : [ 0.9, 0.3, 0.3, 1.0 ],
        "metallicFactor" : 0.1,
        "roughnessFactor" : 0.5
      }
    },
    {
      "name" : "MI_ENV_LKNVLD_Event_HL_WoodPlain_A_Trans",
      "pbrMetallicRoughness" : {
        "baseColorFactor" : [ 0.3, 0.9, 0.3, 1.0 ],
        "metallicFactor" : 0.1,
        "roughnessFactor" : 0.5
      }
    },
    {
      "name" : "MI_ENV_LKNVLD_Event_HL_WoodenStage_Emissive_A_Trans",
      "pbrMetallicRoughness" : {
        "baseColorFactor" : [ 0.3, 0.3, 0.9, 1.0 ],
        "metallicFactor" : 0.1,
        "roughnessFactor" : 0.5
      }
    },
    {
      "name" : "MI_ENV_LKNVLD_Aircon_C",
      "pbrMetallicRoughness" : {
        "baseColorFactor" : [ 0.9, 0.9, 0.9, 1.0 ],
        "metallicFactor" : 0.1,
        "roughnessFactor" : 0.5
      }
    },
    {
      "name" : "MI_ENV_LKNVLD_Event_HL_Metal_A_Trans",
      "pbrMetallicRoughness" : {
        "baseColorFactor" : [ 0.9, 0.9, 0.3, 1.0 ],
        "metallicFactor" : 0.1,
        "roughnessFactor" : 0.5
      }
    },
    {
      "name" : "MI_ENV_LKNVLD_Pipe_E_Trans",
      "pbrMetallicRoughness" : {
        "baseColorFactor" : [ 0.9, 0.3, 0.9, 1.0 ],
        "metallicFactor" : 0.1,
        "roughnessFactor" : 0.5
      }
    },
    {
      "name" : "MI_ENV_LKNVLD_BigPipe_B_Trans",
      "pbrMetallicRoughness" : {
        "baseColorFactor" : [ 0.3, 0.9, 0.9, 1.0 ],
        "metallicFactor" : 0.1,
        "roughnessFactor" : 0.5
      }
    },
    {
      "name" : "MI_ENV_LKNVLD_Pipe_A_Trans",
      "pbrMetallicRoughness" : {
        "baseColorFactor" : [ 1, 0.3, 0.3, 1.0 ],
        "metallicFactor" : 0.1,
        "roughnessFactor" : 0.5
      }
    },
    {
      "name" : "MI_ENV_LKNVLD_Sticker_02",
      "pbrMetallicRoughness" : {
        "baseColorFactor" : [ 0.6, 0.3, 0.3, 1.0 ],
        "metallicFactor" : 0.1,
        "roughnessFactor" : 0.5
      }
    },
    {
      "name" : "MI_ENV_LKNVLD_WoodBoard_Natural_Lighter",
      "pbrMetallicRoughness" : {
        "baseColorFactor" : [ 1, 0.9, 0.3, 1.0 ],
        "metallicFactor" : 0.1,
        "roughnessFactor" : 0.5
      }
    }
  ],
  "meshes" : [
    {
      "primitives" : [
        {
          "attributes" : {
            "POSITION" : 1,
            "NORMAL" : 2,
            "TANGENT" : 3,
            "COLOR_0" : 4,
            "TEXCOORD_0" : 5,
            "TEXCOORD_1" : 6,
            "TEXCOORD_2" : 7,
            "TEXCOORD_3" : 8
          },
          "indices" : 0,
          "material" : 0
        },
        {
          "attributes" : {
            "POSITION" : 10,
            "NORMAL" : 11,
            "TANGENT" : 12,
            "COLOR_0" : 13,
            "TEXCOORD_0" : 14,
            "TEXCOORD_1" : 15,
            "TEXCOORD_2" : 16,
            "TEXCOORD_3" : 17
          },
          "indices" : 9,
          "material" : 1
        },
        {
          "attributes" : {
            "POSITION" : 19,
            "NORMAL" : 20,
            "TANGENT" : 21,
            "COLOR_0" : 22,
            "TEXCOORD_0" : 23,
            "TEXCOORD_1" : 24,
            "TEXCOORD_2" : 25,
            "TEXCOORD_3" : 26
          },
          "indices" : 18,
          "material" : 2
        },
        {
          "attributes" : {
            "POSITION" : 28,
            "NORMAL" : 29,
            "TANGENT" : 30,
            "COLOR_0" : 31,
            "TEXCOORD_0" : 32,
            "TEXCOORD_1" : 33,
            "TEXCOORD_2" : 34,
            "TEXCOORD_3" : 35
          },
          "indices" : 27,
          "material" : 3
        },
        {
          "attributes" : {
            "POSITION" : 37,
            "NORMAL" : 38,
            "TANGENT" : 39,
            "COLOR_0" : 40,
            "TEXCOORD_0" : 41,
            "TEXCOORD_1" : 42,
            "TEXCOORD_2" : 43,
            "TEXCOORD_3" : 44
          },
          "indices" : 36,
          "material" : 4
        },
        {
          "attributes" : {
            "POSITION" : 46,
            "NORMAL" : 47,
            "TANGENT" : 48,
            "COLOR_0" : 49,
            "TEXCOORD_0" : 50,
            "TEXCOORD_1" : 51,
            "TEXCOORD_2" : 52,
            "TEXCOORD_3" : 53
          },
          "indices" : 45,
          "material" : 5
        },
        {
          "attributes" : {
            "POSITION" : 55,
            "NORMAL" : 56,
            "TANGENT" : 57,
            "COLOR_0" : 58,
            "TEXCOORD_0" : 59,
            "TEXCOORD_1" : 60,
            "TEXCOORD_2" : 61,
            "TEXCOORD_3" : 62
          },
          "indices" : 54,
          "material" : 6
        },
        {
          "attributes" : {
            "POSITION" : 64,
            "NORMAL" : 65,
            "TANGENT" : 66,
            "COLOR_0" : 67,
            "TEXCOORD_0" : 68,
            "TEXCOORD_1" : 69,
            "TEXCOORD_2" : 70,
            "TEXCOORD_3" : 71
          },
          "indices" : 63,
          "material" : 7
        },
        {
          "attributes" : {
            "POSITION" : 73,
            "NORMAL" : 74,
            "TANGENT" : 75,
            "COLOR_0" : 76,
            "TEXCOORD_0" : 77,
            "TEXCOORD_1" : 78,
            "TEXCOORD_2" : 79,
            "TEXCOORD_3" : 80
          },
          "indices" : 72,
          "material" : 8
        },
        {
          "attributes" : {
            "POSITION" : 82,
            "NORMAL" : 83,
            "TANGENT" : 84,
            "COLOR_0" : 85,
            "TEXCOORD_0" : 86,
            "TEXCOORD_1" : 87,
            "TEXCOORD_2" : 88,
            "TEXCOORD_3" : 89
          },
          "indices" : 81,
          "material" : 9
        },
        {
          "attributes" : {
            "POSITION" : 91,
            "NORMAL" : 92,
            "TANGENT" : 93,
            "COLOR_0" : 94,
            "TEXCOORD_0" : 95,
            "TEXCOORD_1" : 96,
            "TEXCOORD_2" : 97,
            "TEXCOORD_3" : 98
          },
          "indices" : 90,
          "material" : 10
        }
      ],
      "name" : "SM_ENV_LKNVLD_Event_HL_WoodenStage_A_Lod2"
    }
  ],
  "buffers" : [
    {
      "uri" : "SM_ENV_LKNVLD_Event_HL_WoodenStage_A_Lod2.bin",
      "byteLength" : 2493072
    }
  ],
  "bufferViews" : [
    {
      "buffer" : 0,
      "byteOffset" : 0,
      "byteLength" : 1844
    },
    {
      "buffer" : 0,
      "byteOffset" : 1844,
      "byteLength" : 3684
    },
    {
      "buffer" : 0,
      "byteOffset" : 5528,
      "byteLength" : 3684
    },
    {
      "buffer" : 0,
      "byteOffset" : 9212,
      "byteLength" : 4912
    },
    {
      "buffer" : 0,
      "byteOffset" : 14124,
      "byteLength" : 1228
    },
    {
      "buffer" : 0,
      "byteOffset" : 15352,
      "byteLength" : 2456
    },
    {
      "buffer" : 0,
      "byteOffset" : 17808,
      "byteLength" : 2456
    },
    {
      "buffer" : 0,
      "byteOffset" : 20264,
      "byteLength" : 2456
    },
    {
      "buffer" : 0,
      "byteOffset" : 22720,
      "byteLength" : 2456
    },
    {
      "buffer" : 0,
      "byteOffset" : 25176,
      "byteLength" : 564
    },
    {
      "buffer" : 0,
      "byteOffset" : 25740,
      "byteLength" : 1176
    },
    {
      "buffer" : 0,
      "byteOffset" : 26916,
      "byteLength" : 1176
    },
    {
      "buffer" : 0,
      "byteOffset" : 28092,
      "byteLength" : 1568
    },
    {
      "buffer" : 0,
      "byteOffset" : 29660,
      "byteLength" : 392
    },
    {
      "buffer" : 0,
      "byteOffset" : 30052,
      "byteLength" : 784
    },
    {
      "buffer" : 0,
      "byteOffset" : 30836,
      "byteLength" : 784
    },
    {
      "buffer" : 0,
      "byteOffset" : 31620,
      "byteLength" : 784
    },
    {
      "buffer" : 0,
      "byteOffset" : 32404,
      "byteLength" : 784
    },
    {
      "buffer" : 0,
      "byteOffset" : 33188,
      "byteLength" : 7680
    },
    {
      "buffer" : 0,
      "byteOffset" : 40868,
      "byteLength" : 19104
    },
    {
      "buffer" : 0,
      "byteOffset" : 59972,
      "byteLength" : 19104
    },
    {
      "buffer" : 0,
      "byteOffset" : 79076,
      "byteLength" : 25472
    },
    {
      "buffer" : 0,
      "byteOffset" : 104548,
      "byteLength" : 6368
    },
    {
      "buffer" : 0,
      "byteOffset" : 110916,
      "byteLength" : 12736
    },
    {
      "buffer" : 0,
      "byteOffset" : 123652,
      "byteLength" : 12736
    },
    {
      "buffer" : 0,
      "byteOffset" : 136388,
      "byteLength" : 12736
    },
    {
      "buffer" : 0,
      "byteOffset" : 149124,
      "byteLength" : 12736
    },
    {
      "buffer" : 0,
      "byteOffset" : 161860,
      "byteLength" : 151308
    },
    {
      "buffer" : 0,
      "byteOffset" : 313168,
      "byteLength" : 271800
    },
    {
      "buffer" : 0,
      "byteOffset" : 584968,
      "byteLength" : 271800
    },
    {
      "buffer" : 0,
      "byteOffset" : 856768,
      "byteLength" : 362400
    },
    {
      "buffer" : 0,
      "byteOffset" : 1219168,
      "byteLength" : 90600
    },
    {
      "buffer" : 0,
      "byteOffset" : 1309768,
      "byteLength" : 181200
    },
    {
      "buffer" : 0,
      "byteOffset" : 1490968,
      "byteLength" : 181200
    },
    {
      "buffer" : 0,
      "byteOffset" : 1672168,
      "byteLength" : 181200
    },
    {
      "buffer" : 0,
      "byteOffset" : 1853368,
      "byteLength" : 181200
    },
    {
      "buffer" : 0,
      "byteOffset" : 2034568,
      "byteLength" : 4220
    },
    {
      "buffer" : 0,
      "byteOffset" : 2038788,
      "byteLength" : 8736
    },
    {
      "buffer" : 0,
      "byteOffset" : 2047524,
      "byteLength" : 8736
    },
    {
      "buffer" : 0,
      "byteOffset" : 2056260,
      "byteLength" : 11648
    },
    {
      "buffer" : 0,
      "byteOffset" : 2067908,
      "byteLength" : 2912
    },
    {
      "buffer" : 0,
      "byteOffset" : 2070820,
      "byteLength" : 5824
    },
    {
      "buffer" : 0,
      "byteOffset" : 2076644,
      "byteLength" : 5824
    },
    {
      "buffer" : 0,
      "byteOffset" : 2082468,
      "byteLength" : 5824
    },
    {
      "buffer" : 0,
      "byteOffset" : 2088292,
      "byteLength" : 5824
    },
    {
      "buffer" : 0,
      "byteOffset" : 2094116,
      "byteLength" : 10808
    },
    {
      "buffer" : 0,
      "byteOffset" : 2104924,
      "byteLength" : 28176
    },
    {
      "buffer" : 0,
      "byteOffset" : 2133100,
      "byteLength" : 28176
    },
    {
      "buffer" : 0,
      "byteOffset" : 2161276,
      "byteLength" : 37568
    },
    {
      "buffer" : 0,
      "byteOffset" : 2198844,
      "byteLength" : 9392
    },
    {
      "buffer" : 0,
      "byteOffset" : 2208236,
      "byteLength" : 18784
    },
    {
      "buffer" : 0,
      "byteOffset" : 2227020,
      "byteLength" : 18784
    },
    {
      "buffer" : 0,
      "byteOffset" : 2245804,
      "byteLength" : 18784
    },
    {
      "buffer" : 0,
      "byteOffset" : 2264588,
      "byteLength" : 18784
    },
    {
      "buffer" : 0,
      "byteOffset" : 2283372,
      "byteLength" : 11604
    },
    {
      "buffer" : 0,
      "byteOffset" : 2294976,
      "byteLength" : 15300
    },
    {
      "buffer" : 0,
      "byteOffset" : 2310276,
      "byteLength" : 15300
    },
    {
      "buffer" : 0,
      "byteOffset" : 2325576,
      "byteLength" : 20400
    },
    {
      "buffer" : 0,
      "byteOffset" : 2345976,
      "byteLength" : 5100
    },
    {
      "buffer" : 0,
      "byteOffset" : 2351076,
      "byteLength" : 10200
    },
    {
      "buffer" : 0,
      "byteOffset" : 2361276,
      "byteLength" : 10200
    },
    {
      "buffer" : 0,
      "byteOffset" : 2371476,
      "byteLength" : 10200
    },
    {
      "buffer" : 0,
      "byteOffset" : 2381676,
      "byteLength" : 10200
    },
    {
      "buffer" : 0,
      "byteOffset" : 2391876,
      "byteLength" : 1332
    },
    {
      "buffer" : 0,
      "byteOffset" : 2393208,
      "byteLength" : 2412
    },
    {
      "buffer" : 0,
      "byteOffset" : 2395620,
      "byteLength" : 2412
    },
    {
      "buffer" : 0,
      "byteOffset" : 2398032,
      "byteLength" : 3216
    },
    {
      "buffer" : 0,
      "byteOffset" : 2401248,
      "byteLength" : 804
    },
    {
      "buffer" : 0,
      "byteOffset" : 2402052,
      "byteLength" : 1608
    },
    {
      "buffer" : 0,
      "byteOffset" : 2403660,
      "byteLength" : 1608
    },
    {
      "buffer" : 0,
      "byteOffset" : 2405268,
      "byteLength" : 1608
    },
    {
      "buffer" : 0,
      "byteOffset" : 2406876,
      "byteLength" : 1608
    },
    {
      "buffer" : 0,
      "byteOffset" : 2408484,
      "byteLength" : 2688
    },
    {
      "buffer" : 0,
      "byteOffset" : 2411172,
      "byteLength" : 8256
    },
    {
      "buffer" : 0,
      "byteOffset" : 2419428,
      "byteLength" : 8256
    },
    {
      "buffer" : 0,
      "byteOffset" : 2427684,
      "byteLength" : 11008
    },
    {
      "buffer" : 0,
      "byteOffset" : 2438692,
      "byteLength" : 2752
    },
    {
      "buffer" : 0,
      "byteOffset" : 2441444,
      "byteLength" : 5504
    },
    {
      "buffer" : 0,
      "byteOffset" : 2446948,
      "byteLength" : 5504
    },
    {
      "buffer" : 0,
      "byteOffset" : 2452452,
      "byteLength" : 5504
    },
    {
      "buffer" : 0,
      "byteOffset" : 2457956,
      "byteLength" : 5504
    },
    {
      "buffer" : 0,
      "byteOffset" : 2463460,
      "byteLength" : 228
    },
    {
      "buffer" : 0,
      "byteOffset" : 2463688,
      "byteLength" : 648
    },
    {
      "buffer" : 0,
      "byteOffset" : 2464336,
      "byteLength" : 648
    },
    {
      "buffer" : 0,
      "byteOffset" : 2464984,
      "byteLength" : 864
    },
    {
      "buffer" : 0,
      "byteOffset" : 2465848,
      "byteLength" : 216
    },
    {
      "buffer" : 0,
      "byteOffset" : 2466064,
      "byteLength" : 432
    },
    {
      "buffer" : 0,
      "byteOffset" : 2466496,
      "byteLength" : 432
    },
    {
      "buffer" : 0,
      "byteOffset" : 2466928,
      "byteLength" : 432
    },
    {
      "buffer" : 0,
      "byteOffset" : 2467360,
      "byteLength" : 432
    },
    {
      "buffer" : 0,
      "byteOffset" : 2467792,
      "byteLength" : 960
    },
    {
      "buffer" : 0,
      "byteOffset" : 2468752,
      "byteLength" : 3840
    },
    {
      "buffer" : 0,
      "byteOffset" : 2472592,
      "byteLength" : 3840
    },
    {
      "buffer" : 0,
      "byteOffset" : 2476432,
      "byteLength" : 5120
    },
    {
      "buffer" : 0,
      "byteOffset" : 2481552,
      "byteLength" : 1280
    },
    {
      "buffer" : 0,
      "byteOffset" : 2482832,
      "byteLength" : 2560
    },
    {
      "buffer" : 0,
      "byteOffset" : 2485392,
      "byteLength" : 2560
    },
    {
      "buffer" : 0,
      "byteOffset" : 2487952,
      "byteLength" : 2560
    },
    {
      "buffer" : 0,
      "byteOffset" : 2490512,
      "byteLength" : 2560
    }
  ],
  "accessors" : [
    {
      "bufferView" : 0,
      "componentType" : 5123,
      "count" : 921,
      "type" : "SCALAR"
    },
    {
      "bufferView" : 1,
      "min" : [ -0.430781, 3.39148, -0.430781 ],
      "max" : [ 0.426692, 5.11543, 0.426692 ],
      "componentType" : 5126,
      "count" : 307,
      "type" : "VEC3"
    },
    {
      "bufferView" : 2,
      "componentType" : 5126,
      "count" : 307,
      "type" : "VEC3"
    },
    {
      "bufferView" : 3,
      "componentType" : 5126,
      "count" : 307,
      "type" : "VEC4"
    },
    {
      "bufferView" : 4,
      "normalized" : true,
      "componentType" : 5121,
      "count" : 307,
      "type" : "VEC4"
    },
    {
      "bufferView" : 5,
      "componentType" : 5126,
      "count" : 307,
      "type" : "VEC2"
    },
    {
      "bufferView" : 6,
      "componentType" : 5126,
      "count" : 307,
      "type" : "VEC2"
    },
    {
      "bufferView" : 7,
      "componentType" : 5126,
      "count" : 307,
      "type" : "VEC2"
    },
    {
      "bufferView" : 8,
      "componentType" : 5126,
      "count" : 307,
      "type" : "VEC2"
    },
    {
      "bufferView" : 9,
      "componentType" : 5123,
      "count" : 282,
      "type" : "SCALAR"
    },
    {
      "bufferView" : 10,
      "min" : [ -2.96935, 1.27821, -2.96935 ],
      "max" : [ 2.96936, 1.39211, 2.96936 ],
      "componentType" : 5126,
      "count" : 98,
      "type" : "VEC3"
    },
    {
      "bufferView" : 11,
      "componentType" : 5126,
      "count" : 98,
      "type" : "VEC3"
    },
    {
      "bufferView" : 12,
      "componentType" : 5126,
      "count" : 98,
      "type" : "VEC4"
    },
    {
      "bufferView" : 13,
      "normalized" : true,
      "componentType" : 5121,
      "count" : 98,
      "type" : "VEC4"
    },
    {
      "bufferView" : 14,
      "componentType" : 5126,
      "count" : 98,
      "type" : "VEC2"
    },
    {
      "bufferView" : 15,
      "componentType" : 5126,
      "count" : 98,
      "type" : "VEC2"
    },
    {
      "bufferView" : 16,
      "componentType" : 5126,
      "count" : 98,
      "type" : "VEC2"
    },
    {
      "bufferView" : 17,
      "componentType" : 5126,
      "count" : 98,
      "type" : "VEC2"
    },
    {
      "bufferView" : 18,
      "componentType" : 5123,
      "count" : 3840,
      "type" : "SCALAR"
    },
    {
      "bufferView" : 19,
      "min" : [ -7.42549, 0.487159, -7.42549 ],
      "max" : [ 7.42549, 8.97255, 7.42549 ],
      "componentType" : 5126,
      "count" : 1592,
      "type" : "VEC3"
    },
    {
      "bufferView" : 20,
      "componentType" : 5126,
      "count" : 1592,
      "type" : "VEC3"
    },
    {
      "bufferView" : 21,
      "componentType" : 5126,
      "count" : 1592,
      "type" : "VEC4"
    },
    {
      "bufferView" : 22,
      "normalized" : true,
      "componentType" : 5121,
      "count" : 1592,
      "type" : "VEC4"
    },
    {
      "bufferView" : 23,
      "componentType" : 5126,
      "count" : 1592,
      "type" : "VEC2"
    },
    {
      "bufferView" : 24,
      "componentType" : 5126,
      "count" : 1592,
      "type" : "VEC2"
    },
    {
      "bufferView" : 25,
      "componentType" : 5126,
      "count" : 1592,
      "type" : "VEC2"
    },
    {
      "bufferView" : 26,
      "componentType" : 5126,
      "count" : 1592,
      "type" : "VEC2"
    },
    {
      "bufferView" : 27,
      "componentType" : 5123,
      "count" : 75654,
      "type" : "SCALAR"
    },
    {
      "bufferView" : 28,
      "min" : [ -6.01946, 0.428763, -6.01946 ],
      "max" : [ 6.01946, 10.9415, 6.01946 ],
      "componentType" : 5126,
      "count" : 22650,
      "type" : "VEC3"
    },
    {
      "bufferView" : 29,
      "componentType" : 5126,
      "count" : 22650,
      "type" : "VEC3"
    },
    {
      "bufferView" : 30,
      "componentType" : 5126,
      "count" : 22650,
      "type" : "VEC4"
    },
    {
      "bufferView" : 31,
      "normalized" : true,
      "componentType" : 5121,
      "count" : 22650,
      "type" : "VEC4"
    },
    {
      "bufferView" : 32,
      "componentType" : 5126,
      "count" : 22650,
      "type" : "VEC2"
    },
    {
      "bufferView" : 33,
      "componentType" : 5126,
      "count" : 22650,
      "type" : "VEC2"
    },
    {
      "bufferView" : 34,
      "componentType" : 5126,
      "count" : 22650,
      "type" : "VEC2"
    },
    {
      "bufferView" : 35,
      "componentType" : 5126,
      "count" : 22650,
      "type" : "VEC2"
    },
    {
      "bufferView" : 36,
      "componentType" : 5123,
      "count" : 2109,
      "type" : "SCALAR"
    },
    {
      "bufferView" : 37,
      "min" : [ -2.55265, 1.37709, -2.55342 ],
      "max" : [ 2.56379, 4.66233, 2.57263 ],
      "componentType" : 5126,
      "count" : 728,
      "type" : "VEC3"
    },
    {
      "bufferView" : 38,
      "componentType" : 5126,
      "count" : 728,
      "type" : "VEC3"
    },
    {
      "bufferView" : 39,
      "componentType" : 5126,
      "count" : 728,
      "type" : "VEC4"
    },
    {
      "bufferView" : 40,
      "normalized" : true,
      "componentType" : 5121,
      "count" : 728,
      "type" : "VEC4"
    },
    {
      "bufferView" : 41,
      "componentType" : 5126,
      "count" : 728,
      "type" : "VEC2"
    },
    {
      "bufferView" : 42,
      "componentType" : 5126,
      "count" : 728,
      "type" : "VEC2"
    },
    {
      "bufferView" : 43,
      "componentType" : 5126,
      "count" : 728,
      "type" : "VEC2"
    },
    {
      "bufferView" : 44,
      "componentType" : 5126,
      "count" : 728,
      "type" : "VEC2"
    },
    {
      "bufferView" : 45,
      "componentType" : 5123,
      "count" : 5403,
      "type" : "SCALAR"
    },
    {
      "bufferView" : 46,
      "min" : [ -9.58688, -5.87274e-16, -9.59092 ],
      "max" : [ 9.58688, 9.02542, 9.59091 ],
      "componentType" : 5126,
      "count" : 2348,
      "type" : "VEC3"
    },
    {
      "bufferView" : 47,
      "componentType" : 5126,
      "count" : 2348,
      "type" : "VEC3"
    },
    {
      "bufferView" : 48,
      "componentType" : 5126,
      "count" : 2348,
      "type" : "VEC4"
    },
    {
      "bufferView" : 49,
      "normalized" : true,
      "componentType" : 5121,
      "count" : 2348,
      "type" : "VEC4"
    },
    {
      "bufferView" : 50,
      "componentType" : 5126,
      "count" : 2348,
      "type" : "VEC2"
    },
    {
      "bufferView" : 51,
      "componentType" : 5126,
      "count" : 2348,
      "type" : "VEC2"
    },
    {
      "bufferView" : 52,
      "componentType" : 5126,
      "count" : 2348,
      "type" : "VEC2"
    },
    {
      "bufferView" : 53,
      "componentType" : 5126,
      "count" : 2348,
      "type" : "VEC2"
    },
    {
      "bufferView" : 54,
      "componentType" : 5123,
      "count" : 5802,
      "type" : "SCALAR"
    },
    {
      "bufferView" : 55,
      "min" : [ -4.56417, 0.562305, -5.92378 ],
      "max" : [ 5.92341, 6.11664, 5.91157 ],
      "componentType" : 5126,
      "count" : 1275,
      "type" : "VEC3"
    },
    {
      "bufferView" : 56,
      "componentType" : 5126,
      "count" : 1275,
      "type" : "VEC3"
    },
    {
      "bufferView" : 57,
      "componentType" : 5126,
      "count" : 1275,
      "type" : "VEC4"
    },
    {
      "bufferView" : 58,
      "normalized" : true,
      "componentType" : 5121,
      "count" : 1275,
      "type" : "VEC4"
    },
    {
      "bufferView" : 59,
      "componentType" : 5126,
      "count" : 1275,
      "type" : "VEC2"
    },
    {
      "bufferView" : 60,
      "componentType" : 5126,
      "count" : 1275,
      "type" : "VEC2"
    },
    {
      "bufferView" : 61,
      "componentType" : 5126,
      "count" : 1275,
      "type" : "VEC2"
    },
    {
      "bufferView" : 62,
      "componentType" : 5126,
      "count" : 1275,
      "type" : "VEC2"
    },
    {
      "bufferView" : 63,
      "componentType" : 5123,
      "count" : 666,
      "type" : "SCALAR"
    },
    {
      "bufferView" : 64,
      "min" : [ -3.18321, 0.653063, -5.48152 ],
      "max" : [ 3.38132, 6.11408, 4.41898 ],
      "componentType" : 5126,
      "count" : 201,
      "type" : "VEC3"
    },
    {
      "bufferView" : 65,
      "componentType" : 5126,
      "count" : 201,
      "type" : "VEC3"
    },
    {
      "bufferView" : 66,
      "componentType" : 5126,
      "count" : 201,
      "type" : "VEC4"
    },
    {
      "bufferView" : 67,
      "normalized" : true,
      "componentType" : 5121,
      "count" : 201,
      "type" : "VEC4"
    },
    {
      "bufferView" : 68,
      "componentType" : 5126,
      "count" : 201,
      "type" : "VEC2"
    },
    {
      "bufferView" : 69,
      "componentType" : 5126,
      "count" : 201,
      "type" : "VEC2"
    },
    {
      "bufferView" : 70,
      "componentType" : 5126,
      "count" : 201,
      "type" : "VEC2"
    },
    {
      "bufferView" : 71,
      "componentType" : 5126,
      "count" : 201,
      "type" : "VEC2"
    },
    {
      "bufferView" : 72,
      "componentType" : 5123,
      "count" : 1344,
      "type" : "SCALAR"
    },
    {
      "bufferView" : 73,
      "min" : [ -4.58375, 1.02697, -2.31309 ],
      "max" : [ 4.5, 5.51689, 4.59639 ],
      "componentType" : 5126,
      "count" : 688,
      "type" : "VEC3"
    },
    {
      "bufferView" : 74,
      "componentType" : 5126,
      "count" : 688,
      "type" : "VEC3"
    },
    {
      "bufferView" : 75,
      "componentType" : 5126,
      "count" : 688,
      "type" : "VEC4"
    },
    {
      "bufferView" : 76,
      "normalized" : true,
      "componentType" : 5121,
      "count" : 688,
      "type" : "VEC4"
    },
    {
      "bufferView" : 77,
      "componentType" : 5126,
      "count" : 688,
      "type" : "VEC2"
    },
    {
      "bufferView" : 78,
      "componentType" : 5126,
      "count" : 688,
      "type" : "VEC2"
    },
    {
      "bufferView" : 79,
      "componentType" : 5126,
      "count" : 688,
      "type" : "VEC2"
    },
    {
      "bufferView" : 80,
      "componentType" : 5126,
      "count" : 688,
      "type" : "VEC2"
    },
    {
      "bufferView" : 81,
      "componentType" : 5123,
      "count" : 114,
      "type" : "SCALAR"
    },
    {
      "bufferView" : 82,
      "min" : [ -1.99996, 2.42161, -1.94702 ],
      "max" : [ 2.01165, 3.79676, 1.97505 ],
      "componentType" : 5126,
      "count" : 54,
      "type" : "VEC3"
    },
    {
      "bufferView" : 83,
      "componentType" : 5126,
      "count" : 54,
      "type" : "VEC3"
    },
    {
      "bufferView" : 84,
      "componentType" : 5126,
      "count" : 54,
      "type" : "VEC4"
    },
    {
      "bufferView" : 85,
      "normalized" : true,
      "componentType" : 5121,
      "count" : 54,
      "type" : "VEC4"
    },
    {
      "bufferView" : 86,
      "componentType" : 5126,
      "count" : 54,
      "type" : "VEC2"
    },
    {
      "bufferView" : 87,
      "componentType" : 5126,
      "count" : 54,
      "type" : "VEC2"
    },
    {
      "bufferView" : 88,
      "componentType" : 5126,
      "count" : 54,
      "type" : "VEC2"
    },
    {
      "bufferView" : 89,
      "componentType" : 5126,
      "count" : 54,
      "type" : "VEC2"
    },
    {
      "bufferView" : 90,
      "componentType" : 5123,
      "count" : 480,
      "type" : "SCALAR"
    },
    {
      "bufferView" : 91,
      "min" : [ -9.28526, 0.332361, -9.28527 ],
      "max" : [ 9.28526, 0.332361, 9.28526 ],
      "componentType" : 5126,
      "count" : 320,
      "type" : "VEC3"
    },
    {
      "bufferView" : 92,
      "componentType" : 5126,
      "count" : 320,
      "type" : "VEC3"
    },
    {
      "bufferView" : 93,
      "componentType" : 5126,
      "count" : 320,
      "type" : "VEC4"
    },
    {
      "bufferView" : 94,
      "normalized" : true,
      "componentType" : 5121,
      "count" : 320,
      "type" : "VEC4"
    },
    {
      "bufferView" : 95,
      "componentType" : 5126,
      "count" : 320,
      "type" : "VEC2"
    },
    {
      "bufferView" : 96,
      "componentType" : 5126,
      "count" : 320,
      "type" : "VEC2"
    },
    {
      "bufferView" : 97,
      "componentType" : 5126,
      "count" : 320,
      "type" : "VEC2"
    },
    {
      "bufferView" : 98,
      "componentType" : 5126,
      "count" : 320,
      "type" : "VEC2"
    }
  ]
}
