{
  "asset" : {
    "generator" : "UE Viewer (umodel) build 1544 based",
    "version" : "2.0"
  },
  "scene" : 0,
  "scenes" : [
    {
      "nodes" : [ 0 ]
    }
  ],
  "nodes" : [
    {
      "name" : "SM_ENV_LKNVLD_TreeSet_D",
      "mesh" : 0
    }
  ],
  "materials" : [
    {
      "name" : "MI_ENV_LKNVLD_LeafMasked_A",
      "pbrMetallicRoughness" : {
        "baseColorFactor" : [ 0.3, 0.3, 0.3, 1.0 ],
        "metallicFactor" : 0.1,
        "roughnessFactor" : 0.5
      }
    },
    {
      "name" : "MI_ENV_LKNVLD_Leaf_A",
      "pbrMetallicRoughness" : {
        "baseColorFactor" : [ 0.9, 0.3, 0.3, 1.0 ],
        "metallicFactor" : 0.1,
        "roughnessFactor" : 0.5
      }
    },
    {
      "name" : "MI_ENV_LKNVLD_Tree_A_Masked_CameraTrans",
      "pbrMetallicRoughness" : {
        "baseColorFactor" : [ 0.3, 0.9, 0.3, 1.0 ],
        "metallicFactor" : 0.1,
        "roughnessFactor" : 0.5
      }
    }
  ],
  "meshes" : [
    {
      "primitives" : [
        {
          "attributes" : {
            "POSITION" : 1,
            "NORMAL" : 2,
            "TANGENT" : 3,
            "COLOR_0" : 4,
            "TEXCOORD_0" : 5,
            "TEXCOORD_1" : 6,
            "TEXCOORD_2" : 7,
            "TEXCOORD_3" : 8
          },
          "indices" : 0,
          "material" : 0
        },
        {
          "attributes" : {
            "POSITION" : 10,
            "NORMAL" : 11,
            "TANGENT" : 12,
            "COLOR_0" : 13,
            "TEXCOORD_0" : 14,
            "TEXCOORD_1" : 15,
            "TEXCOORD_2" : 16,
            "TEXCOORD_3" : 17
          },
          "indices" : 9,
          "material" : 1
        },
        {
          "attributes" : {
            "POSITION" : 19,
            "NORMAL" : 20,
            "TANGENT" : 21,
            "COLOR_0" : 22,
            "TEXCOORD_0" : 23,
            "TEXCOORD_1" : 24,
            "TEXCOORD_2" : 25,
            "TEXCOORD_3" : 26
          },
          "indices" : 18,
          "material" : 2
        }
      ],
      "name" : "SM_ENV_LKNVLD_TreeSet_D"
    }
  ],
  "buffers" : [
    {
      "uri" : "SM_ENV_LKNVLD_TreeSet_D.bin",
      "byteLength" : 2377744
    }
  ],
  "bufferViews" : [
    {
      "buffer" : 0,
      "byteOffset" : 0,
      "byteLength" : 89204
    },
    {
      "buffer" : 0,
      "byteOffset" : 89204,
      "byteLength" : 237960
    },
    {
      "buffer" : 0,
      "byteOffset" : 327164,
      "byteLength" : 237960
    },
    {
      "buffer" : 0,
      "byteOffset" : 565124,
      "byteLength" : 317280
    },
    {
      "buffer" : 0,
      "byteOffset" : 882404,
      "byteLength" : 79320
    },
    {
      "buffer" : 0,
      "byteOffset" : 961724,
      "byteLength" : 158640
    },
    {
      "buffer" : 0,
      "byteOffset" : 1120364,
      "byteLength" : 158640
    },
    {
      "buffer" : 0,
      "byteOffset" : 1279004,
      "byteLength" : 158640
    },
    {
      "buffer" : 0,
      "byteOffset" : 1437644,
      "byteLength" : 158640
    },
    {
      "buffer" : 0,
      "byteOffset" : 1596284,
      "byteLength" : 42176
    },
    {
      "buffer" : 0,
      "byteOffset" : 1638460,
      "byteLength" : 72924
    },
    {
      "buffer" : 0,
      "byteOffset" : 1711384,
      "byteLength" : 72924
    },
    {
      "buffer" : 0,
      "byteOffset" : 1784308,
      "byteLength" : 97232
    },
    {
      "buffer" : 0,
      "byteOffset" : 1881540,
      "byteLength" : 24308
    },
    {
      "buffer" : 0,
      "byteOffset" : 1905848,
      "byteLength" : 48616
    },
    {
      "buffer" : 0,
      "byteOffset" : 1954464,
      "byteLength" : 48616
    },
    {
      "buffer" : 0,
      "byteOffset" : 2003080,
      "byteLength" : 48616
    },
    {
      "buffer" : 0,
      "byteOffset" : 2051696,
      "byteLength" : 48616
    },
    {
      "buffer" : 0,
      "byteOffset" : 2100312,
      "byteLength" : 28304
    },
    {
      "buffer" : 0,
      "byteOffset" : 2128616,
      "byteLength" : 39336
    },
    {
      "buffer" : 0,
      "byteOffset" : 2167952,
      "byteLength" : 39336
    },
    {
      "buffer" : 0,
      "byteOffset" : 2207288,
      "byteLength" : 52448
    },
    {
      "buffer" : 0,
      "byteOffset" : 2259736,
      "byteLength" : 13112
    },
    {
      "buffer" : 0,
      "byteOffset" : 2272848,
      "byteLength" : 26224
    },
    {
      "buffer" : 0,
      "byteOffset" : 2299072,
      "byteLength" : 26224
    },
    {
      "buffer" : 0,
      "byteOffset" : 2325296,
      "byteLength" : 26224
    },
    {
      "buffer" : 0,
      "byteOffset" : 2351520,
      "byteLength" : 26224
    }
  ],
  "accessors" : [
    {
      "bufferView" : 0,
      "componentType" : 5123,
      "count" : 44601,
      "type" : "SCALAR"
    },
    {
      "bufferView" : 1,
      "min" : [ 50.6209, 3.5617, -71.6586 ],
      "max" : [ 64.1081, 13.3603, -49.2527 ],
      "componentType" : 5126,
      "count" : 19830,
      "type" : "VEC3"
    },
    {
      "bufferView" : 2,
      "componentType" : 5126,
      "count" : 19830,
      "type" : "VEC3"
    },
    {
      "bufferView" : 3,
      "componentType" : 5126,
      "count" : 19830,
      "type" : "VEC4"
    },
    {
      "bufferView" : 4,
      "normalized" : true,
      "componentType" : 5121,
      "count" : 19830,
      "type" : "VEC4"
    },
    {
      "bufferView" : 5,
      "componentType" : 5126,
      "count" : 19830,
      "type" : "VEC2"
    },
    {
      "bufferView" : 6,
      "componentType" : 5126,
      "count" : 19830,
      "type" : "VEC2"
    },
    {
      "bufferView" : 7,
      "componentType" : 5126,
      "count" : 19830,
      "type" : "VEC2"
    },
    {
      "bufferView" : 8,
      "componentType" : 5126,
      "count" : 19830,
      "type" : "VEC2"
    },
    {
      "bufferView" : 9,
      "componentType" : 5123,
      "count" : 21087,
      "type" : "SCALAR"
    },
    {
      "bufferView" : 10,
      "min" : [ 50.8177, 3.7213, -71.4529 ],
      "max" : [ 63.9025, 13.2106, -49.4199 ],
      "componentType" : 5126,
      "count" : 6077,
      "type" : "VEC3"
    },
    {
      "bufferView" : 11,
      "componentType" : 5126,
      "count" : 6077,
      "type" : "VEC3"
    },
    {
      "bufferView" : 12,
      "componentType" : 5126,
      "count" : 6077,
      "type" : "VEC4"
    },
    {
      "bufferView" : 13,
      "normalized" : true,
      "componentType" : 5121,
      "count" : 6077,
      "type" : "VEC4"
    },
    {
      "bufferView" : 14,
      "componentType" : 5126,
      "count" : 6077,
      "type" : "VEC2"
    },
    {
      "bufferView" : 15,
      "componentType" : 5126,
      "count" : 6077,
      "type" : "VEC2"
    },
    {
      "bufferView" : 16,
      "componentType" : 5126,
      "count" : 6077,
      "type" : "VEC2"
    },
    {
      "bufferView" : 17,
      "componentType" : 5126,
      "count" : 6077,
      "type" : "VEC2"
    },
    {
      "bufferView" : 18,
      "componentType" : 5123,
      "count" : 14151,
      "type" : "SCALAR"
    },
    {
      "bufferView" : 19,
      "min" : [ 51.8245, -0.567711, -70.7205 ],
      "max" : [ 63.4135, 10.6052, -50.2078 ],
      "componentType" : 5126,
      "count" : 3278,
      "type" : "VEC3"
    },
    {
      "bufferView" : 20,
      "componentType" : 5126,
      "count" : 3278,
      "type" : "VEC3"
    },
    {
      "bufferView" : 21,
      "componentType" : 5126,
      "count" : 3278,
      "type" : "VEC4"
    },
    {
      "bufferView" : 22,
      "normalized" : true,
      "componentType" : 5121,
      "count" : 3278,
      "type" : "VEC4"
    },
    {
      "bufferView" : 23,
      "componentType" : 5126,
      "count" : 3278,
      "type" : "VEC2"
    },
    {
      "bufferView" : 24,
      "componentType" : 5126,
      "count" : 3278,
      "type" : "VEC2"
    },
    {
      "bufferView" : 25,
      "componentType" : 5126,
      "count" : 3278,
      "type" : "VEC2"
    },
    {
      "bufferView" : 26,
      "componentType" : 5126,
      "count" : 3278,
      "type" : "VEC2"
    }
  ]
}
