{
  "asset" : {
    "generator" : "UE Viewer (umodel) build 1544 based",
    "version" : "2.0"
  },
  "scene" : 0,
  "scenes" : [
    {
      "nodes" : [ 0 ]
    }
  ],
  "nodes" : [
    {
      "name" : "SM_ENV_LKNVLD_Torii_Moon_Lod3",
      "mesh" : 0
    }
  ],
  "materials" : [
    {
      "name" : "MI_ENV_LKNVLD_Eaves_F_LOD",
      "pbrMetallicRoughness" : {
        "baseColorFactor" : [ 0.3, 0.3, 0.3, 1.0 ],
        "metallicFactor" : 0.1,
        "roughnessFactor" : 0.5
      }
    },
    {
      "name" : "MI_ENV_LKNVLD_WoodTorii_A_LOD",
      "pbrMetallicRoughness" : {
        "baseColorFactor" : [ 0.9, 0.3, 0.3, 1.0 ],
        "metallicFactor" : 0.1,
        "roughnessFactor" : 0.5
      }
    },
    {
      "name" : "MI_ENV_LKNVLD_RoughTiles_LOD",
      "pbrMetallicRoughness" : {
        "baseColorFactor" : [ 0.3, 0.9, 0.3, 1.0 ],
        "metallicFactor" : 0.1,
        "roughnessFactor" : 0.5
      }
    },
    {
      "name" : "MI_ENV_LKNVLD_StoneTrim_Ground_LOD",
      "pbrMetallicRoughness" : {
        "baseColorFactor" : [ 0.3, 0.3, 0.9, 1.0 ],
        "metallicFactor" : 0.1,
        "roughnessFactor" : 0.5
      }
    },
    {
      "name" : "MI_ENV_LKNVLD_Rope_A_Animated",
      "pbrMetallicRoughness" : {
        "baseColorFactor" : [ 0.9, 0.9, 0.9, 1.0 ],
        "metallicFactor" : 0.1,
        "roughnessFactor" : 0.5
      }
    },
    {
      "name" : "MI_ENV_LKNVLD_ClanSignboard_J",
      "pbrMetallicRoughness" : {
        "baseColorFactor" : [ 0.9, 0.9, 0.3, 1.0 ],
        "metallicFactor" : 0.1,
        "roughnessFactor" : 0.5
      }
    }
  ],
  "meshes" : [
    {
      "primitives" : [
        {
          "attributes" : {
            "POSITION" : 1,
            "NORMAL" : 2,
            "TANGENT" : 3,
            "TEXCOORD_0" : 4,
            "TEXCOORD_1" : 5,
            "TEXCOORD_2" : 6,
            "TEXCOORD_3" : 7
          },
          "indices" : 0,
          "material" : 0
        },
        {
          "attributes" : {
            "POSITION" : 9,
            "NORMAL" : 10,
            "TANGENT" : 11,
            "TEXCOORD_0" : 12,
            "TEXCOORD_1" : 13,
            "TEXCOORD_2" : 14,
            "TEXCOORD_3" : 15
          },
          "indices" : 8,
          "material" : 1
        },
        {
          "attributes" : {
            "POSITION" : 17,
            "NORMAL" : 18,
            "TANGENT" : 19,
            "TEXCOORD_0" : 20,
            "TEXCOORD_1" : 21,
            "TEXCOORD_2" : 22,
            "TEXCOORD_3" : 23
          },
          "indices" : 16,
          "material" : 2
        },
        {
          "attributes" : {
            "POSITION" : 25,
            "NORMAL" : 26,
            "TANGENT" : 27,
            "TEXCOORD_0" : 28,
            "TEXCOORD_1" : 29,
            "TEXCOORD_2" : 30,
            "TEXCOORD_3" : 31
          },
          "indices" : 24,
          "material" : 3
        },
        {
          "attributes" : {
            "POSITION" : 33,
            "NORMAL" : 34,
            "TANGENT" : 35,
            "TEXCOORD_0" : 36,
            "TEXCOORD_1" : 37,
            "TEXCOORD_2" : 38,
            "TEXCOORD_3" : 39
          },
          "indices" : 32,
          "material" : 4
        },
        {
          "attributes" : {
            "POSITION" : 41,
            "NORMAL" : 42,
            "TANGENT" : 43,
            "TEXCOORD_0" : 44,
            "TEXCOORD_1" : 45,
            "TEXCOORD_2" : 46,
            "TEXCOORD_3" : 47
          },
          "indices" : 40,
          "material" : 5
        }
      ],
      "name" : "SM_ENV_LKNVLD_Torii_Moon_Lod3"
    }
  ],
  "buffers" : [
    {
      "uri" : "SM_ENV_LKNVLD_Torii_Moon_Lod3.bin",
      "byteLength" : 142276
    }
  ],
  "bufferViews" : [
    {
      "buffer" : 0,
      "byteOffset" : 0,
      "byteLength" : 1196
    },
    {
      "buffer" : 0,
      "byteOffset" : 1196,
      "byteLength" : 3876
    },
    {
      "buffer" : 0,
      "byteOffset" : 5072,
      "byteLength" : 3876
    },
    {
      "buffer" : 0,
      "byteOffset" : 8948,
      "byteLength" : 5168
    },
    {
      "buffer" : 0,
      "byteOffset" : 14116,
      "byteLength" : 2584
    },
    {
      "buffer" : 0,
      "byteOffset" : 16700,
      "byteLength" : 2584
    },
    {
      "buffer" : 0,
      "byteOffset" : 19284,
      "byteLength" : 2584
    },
    {
      "buffer" : 0,
      "byteOffset" : 21868,
      "byteLength" : 2584
    },
    {
      "buffer" : 0,
      "byteOffset" : 24452,
      "byteLength" : 4620
    },
    {
      "buffer" : 0,
      "byteOffset" : 29072,
      "byteLength" : 12300
    },
    {
      "buffer" : 0,
      "byteOffset" : 41372,
      "byteLength" : 12300
    },
    {
      "buffer" : 0,
      "byteOffset" : 53672,
      "byteLength" : 16400
    },
    {
      "buffer" : 0,
      "byteOffset" : 70072,
      "byteLength" : 8200
    },
    {
      "buffer" : 0,
      "byteOffset" : 78272,
      "byteLength" : 8200
    },
    {
      "buffer" : 0,
      "byteOffset" : 86472,
      "byteLength" : 8200
    },
    {
      "buffer" : 0,
      "byteOffset" : 94672,
      "byteLength" : 8200
    },
    {
      "buffer" : 0,
      "byteOffset" : 102872,
      "byteLength" : 564
    },
    {
      "buffer" : 0,
      "byteOffset" : 103436,
      "byteLength" : 1968
    },
    {
      "buffer" : 0,
      "byteOffset" : 105404,
      "byteLength" : 1968
    },
    {
      "buffer" : 0,
      "byteOffset" : 107372,
      "byteLength" : 2624
    },
    {
      "buffer" : 0,
      "byteOffset" : 109996,
      "byteLength" : 1312
    },
    {
      "buffer" : 0,
      "byteOffset" : 111308,
      "byteLength" : 1312
    },
    {
      "buffer" : 0,
      "byteOffset" : 112620,
      "byteLength" : 1312
    },
    {
      "buffer" : 0,
      "byteOffset" : 113932,
      "byteLength" : 1312
    },
    {
      "buffer" : 0,
      "byteOffset" : 115244,
      "byteLength" : 236
    },
    {
      "buffer" : 0,
      "byteOffset" : 115480,
      "byteLength" : 804
    },
    {
      "buffer" : 0,
      "byteOffset" : 116284,
      "byteLength" : 804
    },
    {
      "buffer" : 0,
      "byteOffset" : 117088,
      "byteLength" : 1072
    },
    {
      "buffer" : 0,
      "byteOffset" : 118160,
      "byteLength" : 536
    },
    {
      "buffer" : 0,
      "byteOffset" : 118696,
      "byteLength" : 536
    },
    {
      "buffer" : 0,
      "byteOffset" : 119232,
      "byteLength" : 536
    },
    {
      "buffer" : 0,
      "byteOffset" : 119768,
      "byteLength" : 536
    },
    {
      "buffer" : 0,
      "byteOffset" : 120304,
      "byteLength" : 1008
    },
    {
      "buffer" : 0,
      "byteOffset" : 121312,
      "byteLength" : 2340
    },
    {
      "buffer" : 0,
      "byteOffset" : 123652,
      "byteLength" : 2340
    },
    {
      "buffer" : 0,
      "byteOffset" : 125992,
      "byteLength" : 3120
    },
    {
      "buffer" : 0,
      "byteOffset" : 129112,
      "byteLength" : 1560
    },
    {
      "buffer" : 0,
      "byteOffset" : 130672,
      "byteLength" : 1560
    },
    {
      "buffer" : 0,
      "byteOffset" : 132232,
      "byteLength" : 1560
    },
    {
      "buffer" : 0,
      "byteOffset" : 133792,
      "byteLength" : 1560
    },
    {
      "buffer" : 0,
      "byteOffset" : 135352,
      "byteLength" : 300
    },
    {
      "buffer" : 0,
      "byteOffset" : 135652,
      "byteLength" : 1104
    },
    {
      "buffer" : 0,
      "byteOffset" : 136756,
      "byteLength" : 1104
    },
    {
      "buffer" : 0,
      "byteOffset" : 137860,
      "byteLength" : 1472
    },
    {
      "buffer" : 0,
      "byteOffset" : 139332,
      "byteLength" : 736
    },
    {
      "buffer" : 0,
      "byteOffset" : 140068,
      "byteLength" : 736
    },
    {
      "buffer" : 0,
      "byteOffset" : 140804,
      "byteLength" : 736
    },
    {
      "buffer" : 0,
      "byteOffset" : 141540,
      "byteLength" : 736
    }
  ],
  "accessors" : [
    {
      "bufferView" : 0,
      "componentType" : 5123,
      "count" : 597,
      "type" : "SCALAR"
    },
    {
      "bufferView" : 1,
      "min" : [ -6.80527, 9.36376, -1.02486 ],
      "max" : [ 6.80527, 13.0413, 1.04293 ],
      "componentType" : 5126,
      "count" : 323,
      "type" : "VEC3"
    },
    {
      "bufferView" : 2,
      "componentType" : 5126,
      "count" : 323,
      "type" : "VEC3"
    },
    {
      "bufferView" : 3,
      "componentType" : 5126,
      "count" : 323,
      "type" : "VEC4"
    },
    {
      "bufferView" : 4,
      "componentType" : 5126,
      "count" : 323,
      "type" : "VEC2"
    },
    {
      "bufferView" : 5,
      "componentType" : 5126,
      "count" : 323,
      "type" : "VEC2"
    },
    {
      "bufferView" : 6,
      "componentType" : 5126,
      "count" : 323,
      "type" : "VEC2"
    },
    {
      "bufferView" : 7,
      "componentType" : 5126,
      "count" : 323,
      "type" : "VEC2"
    },
    {
      "bufferView" : 8,
      "componentType" : 5123,
      "count" : 2310,
      "type" : "SCALAR"
    },
    {
      "bufferView" : 9,
      "min" : [ -6.7228, 0.5, -1.02122 ],
      "max" : [ 6.7228, 12.7252, 1.03928 ],
      "componentType" : 5126,
      "count" : 1025,
      "type" : "VEC3"
    },
    {
      "bufferView" : 10,
      "componentType" : 5126,
      "count" : 1025,
      "type" : "VEC3"
    },
    {
      "bufferView" : 11,
      "componentType" : 5126,
      "count" : 1025,
      "type" : "VEC4"
    },
    {
      "bufferView" : 12,
      "componentType" : 5126,
      "count" : 1025,
      "type" : "VEC2"
    },
    {
      "bufferView" : 13,
      "componentType" : 5126,
      "count" : 1025,
      "type" : "VEC2"
    },
    {
      "bufferView" : 14,
      "componentType" : 5126,
      "count" : 1025,
      "type" : "VEC2"
    },
    {
      "bufferView" : 15,
      "componentType" : 5126,
      "count" : 1025,
      "type" : "VEC2"
    },
    {
      "bufferView" : 16,
      "componentType" : 5123,
      "count" : 282,
      "type" : "SCALAR"
    },
    {
      "bufferView" : 17,
      "min" : [ -4.77909, -0.0641648, -1.30426 ],
      "max" : [ 4.78108, 0.562456, 1.25585 ],
      "componentType" : 5126,
      "count" : 164,
      "type" : "VEC3"
    },
    {
      "bufferView" : 18,
      "componentType" : 5126,
      "count" : 164,
      "type" : "VEC3"
    },
    {
      "bufferView" : 19,
      "componentType" : 5126,
      "count" : 164,
      "type" : "VEC4"
    },
    {
      "bufferView" : 20,
      "componentType" : 5126,
      "count" : 164,
      "type" : "VEC2"
    },
    {
      "bufferView" : 21,
      "componentType" : 5126,
      "count" : 164,
      "type" : "VEC2"
    },
    {
      "bufferView" : 22,
      "componentType" : 5126,
      "count" : 164,
      "type" : "VEC2"
    },
    {
      "bufferView" : 23,
      "componentType" : 5126,
      "count" : 164,
      "type" : "VEC2"
    },
    {
      "bufferView" : 24,
      "componentType" : 5123,
      "count" : 117,
      "type" : "SCALAR"
    },
    {
      "bufferView" : 25,
      "min" : [ -4.73558, 0.0984014, -1.26111 ],
      "max" : [ 4.73793, 0.523717, 1.2127 ],
      "componentType" : 5126,
      "count" : 67,
      "type" : "VEC3"
    },
    {
      "bufferView" : 26,
      "componentType" : 5126,
      "count" : 67,
      "type" : "VEC3"
    },
    {
      "bufferView" : 27,
      "componentType" : 5126,
      "count" : 67,
      "type" : "VEC4"
    },
    {
      "bufferView" : 28,
      "componentType" : 5126,
      "count" : 67,
      "type" : "VEC2"
    },
    {
      "bufferView" : 29,
      "componentType" : 5126,
      "count" : 67,
      "type" : "VEC2"
    },
    {
      "bufferView" : 30,
      "componentType" : 5126,
      "count" : 67,
      "type" : "VEC2"
    },
    {
      "bufferView" : 31,
      "componentType" : 5126,
      "count" : 67,
      "type" : "VEC2"
    },
    {
      "bufferView" : 32,
      "componentType" : 5123,
      "count" : 504,
      "type" : "SCALAR"
    },
    {
      "bufferView" : 33,
      "min" : [ -3.74277, 7.8237, 0.370359 ],
      "max" : [ 3.74277, 9.98905, 0.775795 ],
      "componentType" : 5126,
      "count" : 195,
      "type" : "VEC3"
    },
    {
      "bufferView" : 34,
      "componentType" : 5126,
      "count" : 195,
      "type" : "VEC3"
    },
    {
      "bufferView" : 35,
      "componentType" : 5126,
      "count" : 195,
      "type" : "VEC4"
    },
    {
      "bufferView" : 36,
      "componentType" : 5126,
      "count" : 195,
      "type" : "VEC2"
    },
    {
      "bufferView" : 37,
      "componentType" : 5126,
      "count" : 195,
      "type" : "VEC2"
    },
    {
      "bufferView" : 38,
      "componentType" : 5126,
      "count" : 195,
      "type" : "VEC2"
    },
    {
      "bufferView" : 39,
      "componentType" : 5126,
      "count" : 195,
      "type" : "VEC2"
    },
    {
      "bufferView" : 40,
      "componentType" : 5123,
      "count" : 150,
      "type" : "SCALAR"
    },
    {
      "bufferView" : 41,
      "min" : [ -0.535865, 10.1385, 0.0503185 ],
      "max" : [ 0.535865, 11.7548, 0.428534 ],
      "componentType" : 5126,
      "count" : 92,
      "type" : "VEC3"
    },
    {
      "bufferView" : 42,
      "componentType" : 5126,
      "count" : 92,
      "type" : "VEC3"
    },
    {
      "bufferView" : 43,
      "componentType" : 5126,
      "count" : 92,
      "type" : "VEC4"
    },
    {
      "bufferView" : 44,
      "componentType" : 5126,
      "count" : 92,
      "type" : "VEC2"
    },
    {
      "bufferView" : 45,
      "componentType" : 5126,
      "count" : 92,
      "type" : "VEC2"
    },
    {
      "bufferView" : 46,
      "componentType" : 5126,
      "count" : 92,
      "type" : "VEC2"
    },
    {
      "bufferView" : 47,
      "componentType" : 5126,
      "count" : 92,
      "type" : "VEC2"
    }
  ]
}
