{
  "asset" : {
    "generator" : "UE Viewer (umodel) build 1544 based",
    "version" : "2.0"
  },
  "scene" : 0,
  "scenes" : [
    {
      "nodes" : [ 0 ]
    }
  ],
  "nodes" : [
    {
      "name" : "SM_ENV_LKNVLD_CommonBuilding_A",
      "mesh" : 0
    }
  ],
  "materials" : [
    {
      "name" : "MI_ENV_LKNVLD_CommonBuilding_A",
      "pbrMetallicRoughness" : {
        "baseColorFactor" : [ 0.3, 0.3, 0.3, 1.0 ],
        "metallicFactor" : 0.1,
        "roughnessFactor" : 0.5
      }
    },
    {
      "name" : "MI_ENV_LKNVLD_Windows_A",
      "pbrMetallicRoughness" : {
        "baseColorFactor" : [ 0.9, 0.3, 0.3, 1.0 ],
        "metallicFactor" : 0.1,
        "roughnessFactor" : 0.5
      }
    },
    {
      "name" : "MI_ENV_LKNVLD_Signboard_A",
      "pbrMetallicRoughness" : {
        "baseColorFactor" : [ 0.3, 0.9, 0.3, 1.0 ],
        "metallicFactor" : 0.1,
        "roughnessFactor" : 0.5
      }
    }
  ],
  "meshes" : [
    {
      "primitives" : [
        {
          "attributes" : {
            "POSITION" : 1,
            "NORMAL" : 2,
            "TANGENT" : 3,
            "TEXCOORD_0" : 4,
            "TEXCOORD_1" : 5,
            "TEXCOORD_2" : 6,
            "TEXCOORD_3" : 7
          },
          "indices" : 0,
          "material" : 0
        },
        {
          "attributes" : {
            "POSITION" : 9,
            "NORMAL" : 10,
            "TANGENT" : 11,
            "TEXCOORD_0" : 12,
            "TEXCOORD_1" : 13,
            "TEXCOORD_2" : 14,
            "TEXCOORD_3" : 15
          },
          "indices" : 8,
          "material" : 1
        },
        {
          "attributes" : {
            "POSITION" : 17,
            "NORMAL" : 18,
            "TANGENT" : 19,
            "TEXCOORD_0" : 20,
            "TEXCOORD_1" : 21,
            "TEXCOORD_2" : 22,
            "TEXCOORD_3" : 23
          },
          "indices" : 16,
          "material" : 2
        }
      ],
      "name" : "SM_ENV_LKNVLD_CommonBuilding_A"
    }
  ],
  "buffers" : [
    {
      "uri" : "SM_ENV_LKNVLD_CommonBuilding_A.bin",
      "byteLength" : 1031816
    }
  ],
  "bufferViews" : [
    {
      "buffer" : 0,
      "byteOffset" : 0,
      "byteLength" : 50664
    },
    {
      "buffer" : 0,
      "byteOffset" : 50664,
      "byteLength" : 156756
    },
    {
      "buffer" : 0,
      "byteOffset" : 207420,
      "byteLength" : 156756
    },
    {
      "buffer" : 0,
      "byteOffset" : 364176,
      "byteLength" : 209008
    },
    {
      "buffer" : 0,
      "byteOffset" : 573184,
      "byteLength" : 104504
    },
    {
      "buffer" : 0,
      "byteOffset" : 677688,
      "byteLength" : 104504
    },
    {
      "buffer" : 0,
      "byteOffset" : 782192,
      "byteLength" : 104504
    },
    {
      "buffer" : 0,
      "byteOffset" : 886696,
      "byteLength" : 104504
    },
    {
      "buffer" : 0,
      "byteOffset" : 991200,
      "byteLength" : 1536
    },
    {
      "buffer" : 0,
      "byteOffset" : 992736,
      "byteLength" : 6144
    },
    {
      "buffer" : 0,
      "byteOffset" : 998880,
      "byteLength" : 6144
    },
    {
      "buffer" : 0,
      "byteOffset" : 1005024,
      "byteLength" : 8192
    },
    {
      "buffer" : 0,
      "byteOffset" : 1013216,
      "byteLength" : 4096
    },
    {
      "buffer" : 0,
      "byteOffset" : 1017312,
      "byteLength" : 4096
    },
    {
      "buffer" : 0,
      "byteOffset" : 1021408,
      "byteLength" : 4096
    },
    {
      "buffer" : 0,
      "byteOffset" : 1025504,
      "byteLength" : 4096
    },
    {
      "buffer" : 0,
      "byteOffset" : 1029600,
      "byteLength" : 128
    },
    {
      "buffer" : 0,
      "byteOffset" : 1029728,
      "byteLength" : 348
    },
    {
      "buffer" : 0,
      "byteOffset" : 1030076,
      "byteLength" : 348
    },
    {
      "buffer" : 0,
      "byteOffset" : 1030424,
      "byteLength" : 464
    },
    {
      "buffer" : 0,
      "byteOffset" : 1030888,
      "byteLength" : 232
    },
    {
      "buffer" : 0,
      "byteOffset" : 1031120,
      "byteLength" : 232
    },
    {
      "buffer" : 0,
      "byteOffset" : 1031352,
      "byteLength" : 232
    },
    {
      "buffer" : 0,
      "byteOffset" : 1031584,
      "byteLength" : 232
    }
  ],
  "accessors" : [
    {
      "bufferView" : 0,
      "componentType" : 5123,
      "count" : 25332,
      "type" : "SCALAR"
    },
    {
      "bufferView" : 1,
      "min" : [ -105.505, 0, -73.0666 ],
      "max" : [ -70.4952, 42.0031, -48.9334 ],
      "componentType" : 5126,
      "count" : 13063,
      "type" : "VEC3"
    },
    {
      "bufferView" : 2,
      "componentType" : 5126,
      "count" : 13063,
      "type" : "VEC3"
    },
    {
      "bufferView" : 3,
      "componentType" : 5126,
      "count" : 13063,
      "type" : "VEC4"
    },
    {
      "bufferView" : 4,
      "componentType" : 5126,
      "count" : 13063,
      "type" : "VEC2"
    },
    {
      "bufferView" : 5,
      "componentType" : 5126,
      "count" : 13063,
      "type" : "VEC2"
    },
    {
      "bufferView" : 6,
      "componentType" : 5126,
      "count" : 13063,
      "type" : "VEC2"
    },
    {
      "bufferView" : 7,
      "componentType" : 5126,
      "count" : 13063,
      "type" : "VEC2"
    },
    {
      "bufferView" : 8,
      "componentType" : 5123,
      "count" : 768,
      "type" : "SCALAR"
    },
    {
      "bufferView" : 9,
      "min" : [ -101.876, 11.6656, -67.7603 ],
      "max" : [ -74.1241, 40.218, -54.2397 ],
      "componentType" : 5126,
      "count" : 512,
      "type" : "VEC3"
    },
    {
      "bufferView" : 10,
      "componentType" : 5126,
      "count" : 512,
      "type" : "VEC3"
    },
    {
      "bufferView" : 11,
      "componentType" : 5126,
      "count" : 512,
      "type" : "VEC4"
    },
    {
      "bufferView" : 12,
      "componentType" : 5126,
      "count" : 512,
      "type" : "VEC2"
    },
    {
      "bufferView" : 13,
      "componentType" : 5126,
      "count" : 512,
      "type" : "VEC2"
    },
    {
      "bufferView" : 14,
      "componentType" : 5126,
      "count" : 512,
      "type" : "VEC2"
    },
    {
      "bufferView" : 15,
      "componentType" : 5126,
      "count" : 512,
      "type" : "VEC2"
    },
    {
      "bufferView" : 16,
      "componentType" : 5123,
      "count" : 63,
      "type" : "SCALAR"
    },
    {
      "bufferView" : 17,
      "min" : [ -105.527, 11.1359, -61.5578 ],
      "max" : [ -70.4725, 41.5846, -60.3708 ],
      "componentType" : 5126,
      "count" : 29,
      "type" : "VEC3"
    },
    {
      "bufferView" : 18,
      "componentType" : 5126,
      "count" : 29,
      "type" : "VEC3"
    },
    {
      "bufferView" : 19,
      "componentType" : 5126,
      "count" : 29,
      "type" : "VEC4"
    },
    {
      "bufferView" : 20,
      "componentType" : 5126,
      "count" : 29,
      "type" : "VEC2"
    },
    {
      "bufferView" : 21,
      "componentType" : 5126,
      "count" : 29,
      "type" : "VEC2"
    },
    {
      "bufferView" : 22,
      "componentType" : 5126,
      "count" : 29,
      "type" : "VEC2"
    },
    {
      "bufferView" : 23,
      "componentType" : 5126,
      "count" : 29,
      "type" : "VEC2"
    }
  ]
}
