{
  "asset" : {
    "generator" : "UE Viewer (umodel) build 1544 based",
    "version" : "2.0"
  },
  "scene" : 0,
  "scenes" : [
    {
      "nodes" : [ 0 ]
    }
  ],
  "nodes" : [
    {
      "name" : "SM_ENV_LKNVLD_Cat_A_Lod3",
      "mesh" : 0
    }
  ],
  "materials" : [
    {
      "name" : "MI_ENV_LKNVLD_LuckyCatSignboard_A",
      "pbrMetallicRoughness" : {
        "baseColorFactor" : [ 0.3, 0.3, 0.3, 1.0 ],
        "metallicFactor" : 0.1,
        "roughnessFactor" : 0.5
      }
    },
    {
      "name" : "MI_ENV_LKNVLD_LuckyCat_A",
      "pbrMetallicRoughness" : {
        "baseColorFactor" : [ 0.9, 0.3, 0.3, 1.0 ],
        "metallicFactor" : 0.1,
        "roughnessFactor" : 0.5
      }
    }
  ],
  "meshes" : [
    {
      "primitives" : [
        {
          "attributes" : {
            "POSITION" : 1,
            "NORMAL" : 2,
            "TANGENT" : 3,
            "TEXCOORD_0" : 4,
            "TEXCOORD_1" : 5,
            "TEXCOORD_2" : 6,
            "TEXCOORD_3" : 7
          },
          "indices" : 0,
          "material" : 0
        },
        {
          "attributes" : {
            "POSITION" : 9,
            "NORMAL" : 10,
            "TANGENT" : 11,
            "TEXCOORD_0" : 12,
            "TEXCOORD_1" : 13,
            "TEXCOORD_2" : 14,
            "TEXCOORD_3" : 15
          },
          "indices" : 8,
          "material" : 1
        }
      ],
      "name" : "SM_ENV_LKNVLD_Cat_A_Lod3"
    }
  ],
  "buffers" : [
    {
      "uri" : "SM_ENV_LKNVLD_Cat_A_Lod3.bin",
      "byteLength" : 141276
    }
  ],
  "bufferViews" : [
    {
      "buffer" : 0,
      "byteOffset" : 0,
      "byteLength" : 504
    },
    {
      "buffer" : 0,
      "byteOffset" : 504,
      "byteLength" : 1296
    },
    {
      "buffer" : 0,
      "byteOffset" : 1800,
      "byteLength" : 1296
    },
    {
      "buffer" : 0,
      "byteOffset" : 3096,
      "byteLength" : 1728
    },
    {
      "buffer" : 0,
      "byteOffset" : 4824,
      "byteLength" : 864
    },
    {
      "buffer" : 0,
      "byteOffset" : 5688,
      "byteLength" : 864
    },
    {
      "buffer" : 0,
      "byteOffset" : 6552,
      "byteLength" : 864
    },
    {
      "buffer" : 0,
      "byteOffset" : 7416,
      "byteLength" : 864
    },
    {
      "buffer" : 0,
      "byteOffset" : 8280,
      "byteLength" : 12540
    },
    {
      "buffer" : 0,
      "byteOffset" : 20820,
      "byteLength" : 20076
    },
    {
      "buffer" : 0,
      "byteOffset" : 40896,
      "byteLength" : 20076
    },
    {
      "buffer" : 0,
      "byteOffset" : 60972,
      "byteLength" : 26768
    },
    {
      "buffer" : 0,
      "byteOffset" : 87740,
      "byteLength" : 13384
    },
    {
      "buffer" : 0,
      "byteOffset" : 101124,
      "byteLength" : 13384
    },
    {
      "buffer" : 0,
      "byteOffset" : 114508,
      "byteLength" : 13384
    },
    {
      "buffer" : 0,
      "byteOffset" : 127892,
      "byteLength" : 13384
    }
  ],
  "accessors" : [
    {
      "bufferView" : 0,
      "componentType" : 5123,
      "count" : 252,
      "type" : "SCALAR"
    },
    {
      "bufferView" : 1,
      "min" : [ -30.6933, 5.99999, 15.6863 ],
      "max" : [ -23.3128, 7.3817, 23.1075 ],
      "componentType" : 5126,
      "count" : 108,
      "type" : "VEC3"
    },
    {
      "bufferView" : 2,
      "componentType" : 5126,
      "count" : 108,
      "type" : "VEC3"
    },
    {
      "bufferView" : 3,
      "componentType" : 5126,
      "count" : 108,
      "type" : "VEC4"
    },
    {
      "bufferView" : 4,
      "componentType" : 5126,
      "count" : 108,
      "type" : "VEC2"
    },
    {
      "bufferView" : 5,
      "componentType" : 5126,
      "count" : 108,
      "type" : "VEC2"
    },
    {
      "bufferView" : 6,
      "componentType" : 5126,
      "count" : 108,
      "type" : "VEC2"
    },
    {
      "bufferView" : 7,
      "componentType" : 5126,
      "count" : 108,
      "type" : "VEC2"
    },
    {
      "bufferView" : 8,
      "componentType" : 5123,
      "count" : 6270,
      "type" : "SCALAR"
    },
    {
      "bufferView" : 9,
      "min" : [ -32.1432, 5.99999, 15.4036 ],
      "max" : [ -23.0453, 9.7163, 24.5401 ],
      "componentType" : 5126,
      "count" : 1673,
      "type" : "VEC3"
    },
    {
      "bufferView" : 10,
      "componentType" : 5126,
      "count" : 1673,
      "type" : "VEC3"
    },
    {
      "bufferView" : 11,
      "componentType" : 5126,
      "count" : 1673,
      "type" : "VEC4"
    },
    {
      "bufferView" : 12,
      "componentType" : 5126,
      "count" : 1673,
      "type" : "VEC2"
    },
    {
      "bufferView" : 13,
      "componentType" : 5126,
      "count" : 1673,
      "type" : "VEC2"
    },
    {
      "bufferView" : 14,
      "componentType" : 5126,
      "count" : 1673,
      "type" : "VEC2"
    },
    {
      "bufferView" : 15,
      "componentType" : 5126,
      "count" : 1673,
      "type" : "VEC2"
    }
  ]
}
