{
  "asset" : {
    "generator" : "UE Viewer (umodel) build 1544 based",
    "version" : "2.0"
  },
  "scene" : 0,
  "scenes" : [
    {
      "nodes" : [ 0 ]
    }
  ],
  "nodes" : [
    {
      "name" : "SM_ENV_LKNVLD_TreeSet_N_Lod1",
      "mesh" : 0
    }
  ],
  "materials" : [
    {
      "name" : "MI_ENV_LKNVLD_LeafMasked_A",
      "pbrMetallicRoughness" : {
        "baseColorFactor" : [ 0.3, 0.3, 0.3, 1.0 ],
        "metallicFactor" : 0.1,
        "roughnessFactor" : 0.5
      }
    },
    {
      "name" : "MI_ENV_LKNVLD_Leaf_A",
      "pbrMetallicRoughness" : {
        "baseColorFactor" : [ 0.9, 0.3, 0.3, 1.0 ],
        "metallicFactor" : 0.1,
        "roughnessFactor" : 0.5
      }
    },
    {
      "name" : "MI_ENV_LKNVLD_Tree_A",
      "pbrMetallicRoughness" : {
        "baseColorFactor" : [ 0.3, 0.9, 0.3, 1.0 ],
        "metallicFactor" : 0.1,
        "roughnessFactor" : 0.5
      }
    }
  ],
  "meshes" : [
    {
      "primitives" : [
        {
          "attributes" : {
            "POSITION" : 1,
            "NORMAL" : 2,
            "TANGENT" : 3,
            "COLOR_0" : 4,
            "TEXCOORD_0" : 5,
            "TEXCOORD_1" : 6,
            "TEXCOORD_2" : 7,
            "TEXCOORD_3" : 8
          },
          "indices" : 0,
          "material" : 0
        },
        {
          "attributes" : {
            "POSITION" : 10,
            "NORMAL" : 11,
            "TANGENT" : 12,
            "COLOR_0" : 13,
            "TEXCOORD_0" : 14,
            "TEXCOORD_1" : 15,
            "TEXCOORD_2" : 16,
            "TEXCOORD_3" : 17
          },
          "indices" : 9,
          "material" : 1
        },
        {
          "attributes" : {
            "POSITION" : 19,
            "NORMAL" : 20,
            "TANGENT" : 21,
            "COLOR_0" : 22,
            "TEXCOORD_0" : 23,
            "TEXCOORD_1" : 24,
            "TEXCOORD_2" : 25,
            "TEXCOORD_3" : 26
          },
          "indices" : 18,
          "material" : 2
        }
      ],
      "name" : "SM_ENV_LKNVLD_TreeSet_N_Lod1"
    }
  ],
  "buffers" : [
    {
      "uri" : "SM_ENV_LKNVLD_TreeSet_N_Lod1.bin",
      "byteLength" : 2189852
    }
  ],
  "bufferViews" : [
    {
      "buffer" : 0,
      "byteOffset" : 0,
      "byteLength" : 89220
    },
    {
      "buffer" : 0,
      "byteOffset" : 89220,
      "byteLength" : 249696
    },
    {
      "buffer" : 0,
      "byteOffset" : 338916,
      "byteLength" : 249696
    },
    {
      "buffer" : 0,
      "byteOffset" : 588612,
      "byteLength" : 332928
    },
    {
      "buffer" : 0,
      "byteOffset" : 921540,
      "byteLength" : 83232
    },
    {
      "buffer" : 0,
      "byteOffset" : 1004772,
      "byteLength" : 166464
    },
    {
      "buffer" : 0,
      "byteOffset" : 1171236,
      "byteLength" : 166464
    },
    {
      "buffer" : 0,
      "byteOffset" : 1337700,
      "byteLength" : 166464
    },
    {
      "buffer" : 0,
      "byteOffset" : 1504164,
      "byteLength" : 166464
    },
    {
      "buffer" : 0,
      "byteOffset" : 1670628,
      "byteLength" : 19896
    },
    {
      "buffer" : 0,
      "byteOffset" : 1690524,
      "byteLength" : 43704
    },
    {
      "buffer" : 0,
      "byteOffset" : 1734228,
      "byteLength" : 43704
    },
    {
      "buffer" : 0,
      "byteOffset" : 1777932,
      "byteLength" : 58272
    },
    {
      "buffer" : 0,
      "byteOffset" : 1836204,
      "byteLength" : 14568
    },
    {
      "buffer" : 0,
      "byteOffset" : 1850772,
      "byteLength" : 29136
    },
    {
      "buffer" : 0,
      "byteOffset" : 1879908,
      "byteLength" : 29136
    },
    {
      "buffer" : 0,
      "byteOffset" : 1909044,
      "byteLength" : 29136
    },
    {
      "buffer" : 0,
      "byteOffset" : 1938180,
      "byteLength" : 29136
    },
    {
      "buffer" : 0,
      "byteOffset" : 1967316,
      "byteLength" : 8064
    },
    {
      "buffer" : 0,
      "byteOffset" : 1975380,
      "byteLength" : 33864
    },
    {
      "buffer" : 0,
      "byteOffset" : 2009244,
      "byteLength" : 33864
    },
    {
      "buffer" : 0,
      "byteOffset" : 2043108,
      "byteLength" : 45152
    },
    {
      "buffer" : 0,
      "byteOffset" : 2088260,
      "byteLength" : 11288
    },
    {
      "buffer" : 0,
      "byteOffset" : 2099548,
      "byteLength" : 22576
    },
    {
      "buffer" : 0,
      "byteOffset" : 2122124,
      "byteLength" : 22576
    },
    {
      "buffer" : 0,
      "byteOffset" : 2144700,
      "byteLength" : 22576
    },
    {
      "buffer" : 0,
      "byteOffset" : 2167276,
      "byteLength" : 22576
    }
  ],
  "accessors" : [
    {
      "bufferView" : 0,
      "componentType" : 5123,
      "count" : 44610,
      "type" : "SCALAR"
    },
    {
      "bufferView" : 1,
      "min" : [ -74.7813, 6.10651, -92.9357 ],
      "max" : [ -55.1299, 19.5864, -72.9553 ],
      "componentType" : 5126,
      "count" : 20808,
      "type" : "VEC3"
    },
    {
      "bufferView" : 2,
      "componentType" : 5126,
      "count" : 20808,
      "type" : "VEC3"
    },
    {
      "bufferView" : 3,
      "componentType" : 5126,
      "count" : 20808,
      "type" : "VEC4"
    },
    {
      "bufferView" : 4,
      "normalized" : true,
      "componentType" : 5121,
      "count" : 20808,
      "type" : "VEC4"
    },
    {
      "bufferView" : 5,
      "componentType" : 5126,
      "count" : 20808,
      "type" : "VEC2"
    },
    {
      "bufferView" : 6,
      "componentType" : 5126,
      "count" : 20808,
      "type" : "VEC2"
    },
    {
      "bufferView" : 7,
      "componentType" : 5126,
      "count" : 20808,
      "type" : "VEC2"
    },
    {
      "bufferView" : 8,
      "componentType" : 5126,
      "count" : 20808,
      "type" : "VEC2"
    },
    {
      "bufferView" : 9,
      "componentType" : 5123,
      "count" : 9948,
      "type" : "SCALAR"
    },
    {
      "bufferView" : 10,
      "min" : [ -74.5778, 6.28652, -92.6609 ],
      "max" : [ -55.3328, 19.4277, -73.1943 ],
      "componentType" : 5126,
      "count" : 3642,
      "type" : "VEC3"
    },
    {
      "bufferView" : 11,
      "componentType" : 5126,
      "count" : 3642,
      "type" : "VEC3"
    },
    {
      "bufferView" : 12,
      "componentType" : 5126,
      "count" : 3642,
      "type" : "VEC4"
    },
    {
      "bufferView" : 13,
      "normalized" : true,
      "componentType" : 5121,
      "count" : 3642,
      "type" : "VEC4"
    },
    {
      "bufferView" : 14,
      "componentType" : 5126,
      "count" : 3642,
      "type" : "VEC2"
    },
    {
      "bufferView" : 15,
      "componentType" : 5126,
      "count" : 3642,
      "type" : "VEC2"
    },
    {
      "bufferView" : 16,
      "componentType" : 5126,
      "count" : 3642,
      "type" : "VEC2"
    },
    {
      "bufferView" : 17,
      "componentType" : 5126,
      "count" : 3642,
      "type" : "VEC2"
    },
    {
      "bufferView" : 18,
      "componentType" : 5123,
      "count" : 4032,
      "type" : "SCALAR"
    },
    {
      "bufferView" : 19,
      "min" : [ -73.78, 0.526004, -91.0438 ],
      "max" : [ -56.1362, 16.842, -74.0927 ],
      "componentType" : 5126,
      "count" : 2822,
      "type" : "VEC3"
    },
    {
      "bufferView" : 20,
      "componentType" : 5126,
      "count" : 2822,
      "type" : "VEC3"
    },
    {
      "bufferView" : 21,
      "componentType" : 5126,
      "count" : 2822,
      "type" : "VEC4"
    },
    {
      "bufferView" : 22,
      "normalized" : true,
      "componentType" : 5121,
      "count" : 2822,
      "type" : "VEC4"
    },
    {
      "bufferView" : 23,
      "componentType" : 5126,
      "count" : 2822,
      "type" : "VEC2"
    },
    {
      "bufferView" : 24,
      "componentType" : 5126,
      "count" : 2822,
      "type" : "VEC2"
    },
    {
      "bufferView" : 25,
      "componentType" : 5126,
      "count" : 2822,
      "type" : "VEC2"
    },
    {
      "bufferView" : 26,
      "componentType" : 5126,
      "count" : 2822,
      "type" : "VEC2"
    }
  ]
}
