{
  "asset" : {
    "generator" : "UE Viewer (umodel) build 1544 based",
    "version" : "2.0"
  },
  "scene" : 0,
  "scenes" : [
    {
      "nodes" : [ 0 ]
    }
  ],
  "nodes" : [
    {
      "name" : "SM_ENV_LKNVLD_WallSet_Straight_Lod2",
      "mesh" : 0
    }
  ],
  "materials" : [
    {
      "name" : "MI_ENV_LKNVLD_WoodPlain_Red_LOD",
      "pbrMetallicRoughness" : {
        "baseColorFactor" : [ 0.3, 0.3, 0.3, 1.0 ],
        "metallicFactor" : 0.1,
        "roughnessFactor" : 0.5
      }
    },
    {
      "name" : "MI_ENV_LKNVLD_WoodWallSet_LOD",
      "pbrMetallicRoughness" : {
        "baseColorFactor" : [ 0.9, 0.3, 0.3, 1.0 ],
        "metallicFactor" : 0.1,
        "roughnessFactor" : 0.5
      }
    },
    {
      "name" : "MI_ENV_LKNVLD_Signboard_A",
      "pbrMetallicRoughness" : {
        "baseColorFactor" : [ 0.3, 0.9, 0.3, 1.0 ],
        "metallicFactor" : 0.1,
        "roughnessFactor" : 0.5
      }
    },
    {
      "name" : "MI_ENV_LKNVLD_Eaves_B_LOD",
      "pbrMetallicRoughness" : {
        "baseColorFactor" : [ 0.3, 0.3, 0.9, 1.0 ],
        "metallicFactor" : 0.1,
        "roughnessFactor" : 0.5
      }
    },
    {
      "name" : "MI_ENV_LKNVLD_StoneTrim_Ground_LOD",
      "pbrMetallicRoughness" : {
        "baseColorFactor" : [ 0.9, 0.9, 0.9, 1.0 ],
        "metallicFactor" : 0.1,
        "roughnessFactor" : 0.5
      }
    },
    {
      "name" : "MI_ENV_LKNVLD_WoodBoard_Natural_Lighter_LOD",
      "pbrMetallicRoughness" : {
        "baseColorFactor" : [ 0.9, 0.9, 0.3, 1.0 ],
        "metallicFactor" : 0.1,
        "roughnessFactor" : 0.5
      }
    }
  ],
  "meshes" : [
    {
      "primitives" : [
        {
          "attributes" : {
            "POSITION" : 1,
            "NORMAL" : 2,
            "TANGENT" : 3,
            "TEXCOORD_0" : 4,
            "TEXCOORD_1" : 5,
            "TEXCOORD_2" : 6,
            "TEXCOORD_3" : 7
          },
          "indices" : 0,
          "material" : 0
        },
        {
          "attributes" : {
            "POSITION" : 9,
            "NORMAL" : 10,
            "TANGENT" : 11,
            "TEXCOORD_0" : 12,
            "TEXCOORD_1" : 13,
            "TEXCOORD_2" : 14,
            "TEXCOORD_3" : 15
          },
          "indices" : 8,
          "material" : 1
        },
        {
          "attributes" : {
            "POSITION" : 17,
            "NORMAL" : 18,
            "TANGENT" : 19,
            "TEXCOORD_0" : 20,
            "TEXCOORD_1" : 21,
            "TEXCOORD_2" : 22,
            "TEXCOORD_3" : 23
          },
          "indices" : 16,
          "material" : 2
        },
        {
          "attributes" : {
            "POSITION" : 25,
            "NORMAL" : 26,
            "TANGENT" : 27,
            "TEXCOORD_0" : 28,
            "TEXCOORD_1" : 29,
            "TEXCOORD_2" : 30,
            "TEXCOORD_3" : 31
          },
          "indices" : 24,
          "material" : 3
        },
        {
          "attributes" : {
            "POSITION" : 33,
            "NORMAL" : 34,
            "TANGENT" : 35,
            "TEXCOORD_0" : 36,
            "TEXCOORD_1" : 37,
            "TEXCOORD_2" : 38,
            "TEXCOORD_3" : 39
          },
          "indices" : 32,
          "material" : 4
        },
        {
          "attributes" : {
            "POSITION" : 41,
            "NORMAL" : 42,
            "TANGENT" : 43,
            "TEXCOORD_0" : 44,
            "TEXCOORD_1" : 45,
            "TEXCOORD_2" : 46,
            "TEXCOORD_3" : 47
          },
          "indices" : 40,
          "material" : 5
        }
      ],
      "name" : "SM_ENV_LKNVLD_WallSet_Straight_Lod2"
    }
  ],
  "buffers" : [
    {
      "uri" : "SM_ENV_LKNVLD_WallSet_Straight_Lod2.bin",
      "byteLength" : 328372
    }
  ],
  "bufferViews" : [
    {
      "buffer" : 0,
      "byteOffset" : 0,
      "byteLength" : 9656
    },
    {
      "buffer" : 0,
      "byteOffset" : 9656,
      "byteLength" : 35604
    },
    {
      "buffer" : 0,
      "byteOffset" : 45260,
      "byteLength" : 35604
    },
    {
      "buffer" : 0,
      "byteOffset" : 80864,
      "byteLength" : 47472
    },
    {
      "buffer" : 0,
      "byteOffset" : 128336,
      "byteLength" : 23736
    },
    {
      "buffer" : 0,
      "byteOffset" : 152072,
      "byteLength" : 23736
    },
    {
      "buffer" : 0,
      "byteOffset" : 175808,
      "byteLength" : 23736
    },
    {
      "buffer" : 0,
      "byteOffset" : 199544,
      "byteLength" : 23736
    },
    {
      "buffer" : 0,
      "byteOffset" : 223280,
      "byteLength" : 1692
    },
    {
      "buffer" : 0,
      "byteOffset" : 224972,
      "byteLength" : 5784
    },
    {
      "buffer" : 0,
      "byteOffset" : 230756,
      "byteLength" : 5784
    },
    {
      "buffer" : 0,
      "byteOffset" : 236540,
      "byteLength" : 7712
    },
    {
      "buffer" : 0,
      "byteOffset" : 244252,
      "byteLength" : 3856
    },
    {
      "buffer" : 0,
      "byteOffset" : 248108,
      "byteLength" : 3856
    },
    {
      "buffer" : 0,
      "byteOffset" : 251964,
      "byteLength" : 3856
    },
    {
      "buffer" : 0,
      "byteOffset" : 255820,
      "byteLength" : 3856
    },
    {
      "buffer" : 0,
      "byteOffset" : 259676,
      "byteLength" : 2052
    },
    {
      "buffer" : 0,
      "byteOffset" : 261728,
      "byteLength" : 6792
    },
    {
      "buffer" : 0,
      "byteOffset" : 268520,
      "byteLength" : 6792
    },
    {
      "buffer" : 0,
      "byteOffset" : 275312,
      "byteLength" : 9056
    },
    {
      "buffer" : 0,
      "byteOffset" : 284368,
      "byteLength" : 4528
    },
    {
      "buffer" : 0,
      "byteOffset" : 288896,
      "byteLength" : 4528
    },
    {
      "buffer" : 0,
      "byteOffset" : 293424,
      "byteLength" : 4528
    },
    {
      "buffer" : 0,
      "byteOffset" : 297952,
      "byteLength" : 4528
    },
    {
      "buffer" : 0,
      "byteOffset" : 302480,
      "byteLength" : 972
    },
    {
      "buffer" : 0,
      "byteOffset" : 303452,
      "byteLength" : 3072
    },
    {
      "buffer" : 0,
      "byteOffset" : 306524,
      "byteLength" : 3072
    },
    {
      "buffer" : 0,
      "byteOffset" : 309596,
      "byteLength" : 4096
    },
    {
      "buffer" : 0,
      "byteOffset" : 313692,
      "byteLength" : 2048
    },
    {
      "buffer" : 0,
      "byteOffset" : 315740,
      "byteLength" : 2048
    },
    {
      "buffer" : 0,
      "byteOffset" : 317788,
      "byteLength" : 2048
    },
    {
      "buffer" : 0,
      "byteOffset" : 319836,
      "byteLength" : 2048
    },
    {
      "buffer" : 0,
      "byteOffset" : 321884,
      "byteLength" : 356
    },
    {
      "buffer" : 0,
      "byteOffset" : 322240,
      "byteLength" : 972
    },
    {
      "buffer" : 0,
      "byteOffset" : 323212,
      "byteLength" : 972
    },
    {
      "buffer" : 0,
      "byteOffset" : 324184,
      "byteLength" : 1296
    },
    {
      "buffer" : 0,
      "byteOffset" : 325480,
      "byteLength" : 648
    },
    {
      "buffer" : 0,
      "byteOffset" : 326128,
      "byteLength" : 648
    },
    {
      "buffer" : 0,
      "byteOffset" : 326776,
      "byteLength" : 648
    },
    {
      "buffer" : 0,
      "byteOffset" : 327424,
      "byteLength" : 648
    },
    {
      "buffer" : 0,
      "byteOffset" : 328072,
      "byteLength" : 12
    },
    {
      "buffer" : 0,
      "byteOffset" : 328084,
      "byteLength" : 48
    },
    {
      "buffer" : 0,
      "byteOffset" : 328132,
      "byteLength" : 48
    },
    {
      "buffer" : 0,
      "byteOffset" : 328180,
      "byteLength" : 64
    },
    {
      "buffer" : 0,
      "byteOffset" : 328244,
      "byteLength" : 32
    },
    {
      "buffer" : 0,
      "byteOffset" : 328276,
      "byteLength" : 32
    },
    {
      "buffer" : 0,
      "byteOffset" : 328308,
      "byteLength" : 32
    },
    {
      "buffer" : 0,
      "byteOffset" : 328340,
      "byteLength" : 32
    }
  ],
  "accessors" : [
    {
      "bufferView" : 0,
      "componentType" : 5123,
      "count" : 4827,
      "type" : "SCALAR"
    },
    {
      "bufferView" : 1,
      "min" : [ -2.7918, 0.699998, -0.305942 ],
      "max" : [ 2.7918, 7.57616, 29.5681 ],
      "componentType" : 5126,
      "count" : 2967,
      "type" : "VEC3"
    },
    {
      "bufferView" : 2,
      "componentType" : 5126,
      "count" : 2967,
      "type" : "VEC3"
    },
    {
      "bufferView" : 3,
      "componentType" : 5126,
      "count" : 2967,
      "type" : "VEC4"
    },
    {
      "bufferView" : 4,
      "componentType" : 5126,
      "count" : 2967,
      "type" : "VEC2"
    },
    {
      "bufferView" : 5,
      "componentType" : 5126,
      "count" : 2967,
      "type" : "VEC2"
    },
    {
      "bufferView" : 6,
      "componentType" : 5126,
      "count" : 2967,
      "type" : "VEC2"
    },
    {
      "bufferView" : 7,
      "componentType" : 5126,
      "count" : 2967,
      "type" : "VEC2"
    },
    {
      "bufferView" : 8,
      "componentType" : 5123,
      "count" : 846,
      "type" : "SCALAR"
    },
    {
      "bufferView" : 9,
      "min" : [ -2.1695, 0.299998, -0.297339 ],
      "max" : [ 2.74468, 6.17616, 29.527 ],
      "componentType" : 5126,
      "count" : 482,
      "type" : "VEC3"
    },
    {
      "bufferView" : 10,
      "componentType" : 5126,
      "count" : 482,
      "type" : "VEC3"
    },
    {
      "bufferView" : 11,
      "componentType" : 5126,
      "count" : 482,
      "type" : "VEC4"
    },
    {
      "bufferView" : 12,
      "componentType" : 5126,
      "count" : 482,
      "type" : "VEC2"
    },
    {
      "bufferView" : 13,
      "componentType" : 5126,
      "count" : 482,
      "type" : "VEC2"
    },
    {
      "bufferView" : 14,
      "componentType" : 5126,
      "count" : 482,
      "type" : "VEC2"
    },
    {
      "bufferView" : 15,
      "componentType" : 5126,
      "count" : 482,
      "type" : "VEC2"
    },
    {
      "bufferView" : 16,
      "componentType" : 5123,
      "count" : 1026,
      "type" : "SCALAR"
    },
    {
      "bufferView" : 17,
      "min" : [ -2.7918, 4.8, -0.220522 ],
      "max" : [ 2.7652, 8.09616, 26.335 ],
      "componentType" : 5126,
      "count" : 566,
      "type" : "VEC3"
    },
    {
      "bufferView" : 18,
      "componentType" : 5126,
      "count" : 566,
      "type" : "VEC3"
    },
    {
      "bufferView" : 19,
      "componentType" : 5126,
      "count" : 566,
      "type" : "VEC4"
    },
    {
      "bufferView" : 20,
      "componentType" : 5126,
      "count" : 566,
      "type" : "VEC2"
    },
    {
      "bufferView" : 21,
      "componentType" : 5126,
      "count" : 566,
      "type" : "VEC2"
    },
    {
      "bufferView" : 22,
      "componentType" : 5126,
      "count" : 566,
      "type" : "VEC2"
    },
    {
      "bufferView" : 23,
      "componentType" : 5126,
      "count" : 566,
      "type" : "VEC2"
    },
    {
      "bufferView" : 24,
      "componentType" : 5123,
      "count" : 486,
      "type" : "SCALAR"
    },
    {
      "bufferView" : 25,
      "min" : [ -2.7918, 5.07002, -0.147715 ],
      "max" : [ -1.8543, 5.6, 26.335 ],
      "componentType" : 5126,
      "count" : 256,
      "type" : "VEC3"
    },
    {
      "bufferView" : 26,
      "componentType" : 5126,
      "count" : 256,
      "type" : "VEC3"
    },
    {
      "bufferView" : 27,
      "componentType" : 5126,
      "count" : 256,
      "type" : "VEC4"
    },
    {
      "bufferView" : 28,
      "componentType" : 5126,
      "count" : 256,
      "type" : "VEC2"
    },
    {
      "bufferView" : 29,
      "componentType" : 5126,
      "count" : 256,
      "type" : "VEC2"
    },
    {
      "bufferView" : 30,
      "componentType" : 5126,
      "count" : 256,
      "type" : "VEC2"
    },
    {
      "bufferView" : 31,
      "componentType" : 5126,
      "count" : 256,
      "type" : "VEC2"
    },
    {
      "bufferView" : 32,
      "componentType" : 5123,
      "count" : 177,
      "type" : "SCALAR"
    },
    {
      "bufferView" : 33,
      "min" : [ -1.98747, -0.234174, -0.297339 ],
      "max" : [ -1.70946, 0.300001, 29.527 ],
      "componentType" : 5126,
      "count" : 81,
      "type" : "VEC3"
    },
    {
      "bufferView" : 34,
      "componentType" : 5126,
      "count" : 81,
      "type" : "VEC3"
    },
    {
      "bufferView" : 35,
      "componentType" : 5126,
      "count" : 81,
      "type" : "VEC4"
    },
    {
      "bufferView" : 36,
      "componentType" : 5126,
      "count" : 81,
      "type" : "VEC2"
    },
    {
      "bufferView" : 37,
      "componentType" : 5126,
      "count" : 81,
      "type" : "VEC2"
    },
    {
      "bufferView" : 38,
      "componentType" : 5126,
      "count" : 81,
      "type" : "VEC2"
    },
    {
      "bufferView" : 39,
      "componentType" : 5126,
      "count" : 81,
      "type" : "VEC2"
    },
    {
      "bufferView" : 40,
      "componentType" : 5123,
      "count" : 6,
      "type" : "SCALAR"
    },
    {
      "bufferView" : 41,
      "min" : [ -1.70822, 5.97741, 0.00458984 ],
      "max" : [ 2.29178, 5.97741, 29.5369 ],
      "componentType" : 5126,
      "count" : 4,
      "type" : "VEC3"
    },
    {
      "bufferView" : 42,
      "componentType" : 5126,
      "count" : 4,
      "type" : "VEC3"
    },
    {
      "bufferView" : 43,
      "componentType" : 5126,
      "count" : 4,
      "type" : "VEC4"
    },
    {
      "bufferView" : 44,
      "componentType" : 5126,
      "count" : 4,
      "type" : "VEC2"
    },
    {
      "bufferView" : 45,
      "componentType" : 5126,
      "count" : 4,
      "type" : "VEC2"
    },
    {
      "bufferView" : 46,
      "componentType" : 5126,
      "count" : 4,
      "type" : "VEC2"
    },
    {
      "bufferView" : 47,
      "componentType" : 5126,
      "count" : 4,
      "type" : "VEC2"
    }
  ]
}
