{
  "asset" : {
    "generator" : "UE Viewer (umodel) build 1544 based",
    "version" : "2.0"
  },
  "scene" : 0,
  "scenes" : [
    {
      "nodes" : [ 0 ]
    }
  ],
  "nodes" : [
    {
      "name" : "SM_ENV_LKNVLD_RockMiddle_G_Lod2",
      "mesh" : 0
    }
  ],
  "materials" : [
    {
      "name" : "MI_ENV_LKNVLD_MiddleRock_A_LOD",
      "pbrMetallicRoughness" : {
        "baseColorFactor" : [ 0.3, 0.3, 0.3, 1.0 ],
        "metallicFactor" : 0.1,
        "roughnessFactor" : 0.5
      }
    }
  ],
  "meshes" : [
    {
      "primitives" : [
        {
          "attributes" : {
            "POSITION" : 1,
            "NORMAL" : 2,
            "TANGENT" : 3,
            "COLOR_0" : 4,
            "TEXCOORD_0" : 5,
            "TEXCOORD_1" : 6,
            "TEXCOORD_2" : 7,
            "TEXCOORD_3" : 8
          },
          "indices" : 0,
          "material" : 0
        }
      ],
      "name" : "SM_ENV_LKNVLD_RockMiddle_G_Lod2"
    }
  ],
  "buffers" : [
    {
      "uri" : "SM_ENV_LKNVLD_RockMiddle_G_Lod2.bin",
      "byteLength" : 24728
    }
  ],
  "bufferViews" : [
    {
      "buffer" : 0,
      "byteOffset" : 0,
      "byteLength" : 1928
    },
    {
      "buffer" : 0,
      "byteOffset" : 1928,
      "byteLength" : 3600
    },
    {
      "buffer" : 0,
      "byteOffset" : 5528,
      "byteLength" : 3600
    },
    {
      "buffer" : 0,
      "byteOffset" : 9128,
      "byteLength" : 4800
    },
    {
      "buffer" : 0,
      "byteOffset" : 13928,
      "byteLength" : 1200
    },
    {
      "buffer" : 0,
      "byteOffset" : 15128,
      "byteLength" : 2400
    },
    {
      "buffer" : 0,
      "byteOffset" : 17528,
      "byteLength" : 2400
    },
    {
      "buffer" : 0,
      "byteOffset" : 19928,
      "byteLength" : 2400
    },
    {
      "buffer" : 0,
      "byteOffset" : 22328,
      "byteLength" : 2400
    }
  ],
  "accessors" : [
    {
      "bufferView" : 0,
      "componentType" : 5123,
      "count" : 963,
      "type" : "SCALAR"
    },
    {
      "bufferView" : 1,
      "min" : [ 33.7633, -0.310052, -56.6257 ],
      "max" : [ 40.5729, 1.60992, -46.8694 ],
      "componentType" : 5126,
      "count" : 300,
      "type" : "VEC3"
    },
    {
      "bufferView" : 2,
      "componentType" : 5126,
      "count" : 300,
      "type" : "VEC3"
    },
    {
      "bufferView" : 3,
      "componentType" : 5126,
      "count" : 300,
      "type" : "VEC4"
    },
    {
      "bufferView" : 4,
      "normalized" : true,
      "componentType" : 5121,
      "count" : 300,
      "type" : "VEC4"
    },
    {
      "bufferView" : 5,
      "componentType" : 5126,
      "count" : 300,
      "type" : "VEC2"
    },
    {
      "bufferView" : 6,
      "componentType" : 5126,
      "count" : 300,
      "type" : "VEC2"
    },
    {
      "bufferView" : 7,
      "componentType" : 5126,
      "count" : 300,
      "type" : "VEC2"
    },
    {
      "bufferView" : 8,
      "componentType" : 5126,
      "count" : 300,
      "type" : "VEC2"
    }
  ]
}
