{
  "asset" : {
    "generator" : "UE Viewer (umodel) build 1544 based",
    "version" : "2.0"
  },
  "scene" : 0,
  "scenes" : [
    {
      "nodes" : [ 0 ]
    }
  ],
  "nodes" : [
    {
      "name" : "SM_ENV_LKNVLD_WallSet_BendPlus",
      "mesh" : 0
    }
  ],
  "materials" : [
    {
      "name" : "MI_ENV_LKNVLD_WoodPlain_Red",
      "pbrMetallicRoughness" : {
        "baseColorFactor" : [ 0.3, 0.3, 0.3, 1.0 ],
        "metallicFactor" : 0.1,
        "roughnessFactor" : 0.5
      }
    },
    {
      "name" : "MI_ENV_LKNVLD_Eaves_B",
      "pbrMetallicRoughness" : {
        "baseColorFactor" : [ 0.9, 0.3, 0.3, 1.0 ],
        "metallicFactor" : 0.1,
        "roughnessFactor" : 0.5
      }
    },
    {
      "name" : "MI_ENV_LKNVLD_Signboard_A",
      "pbrMetallicRoughness" : {
        "baseColorFactor" : [ 0.3, 0.9, 0.3, 1.0 ],
        "metallicFactor" : 0.1,
        "roughnessFactor" : 0.5
      }
    },
    {
      "name" : "MI_ENV_LKNVLD_WoodWallSet",
      "pbrMetallicRoughness" : {
        "baseColorFactor" : [ 0.3, 0.3, 0.9, 1.0 ],
        "metallicFactor" : 0.1,
        "roughnessFactor" : 0.5
      }
    },
    {
      "name" : "MI_ENV_LKNVLD_StoneTrim_Ground",
      "pbrMetallicRoughness" : {
        "baseColorFactor" : [ 0.9, 0.9, 0.9, 1.0 ],
        "metallicFactor" : 0.1,
        "roughnessFactor" : 0.5
      }
    }
  ],
  "meshes" : [
    {
      "primitives" : [
        {
          "attributes" : {
            "POSITION" : 1,
            "NORMAL" : 2,
            "TANGENT" : 3,
            "TEXCOORD_0" : 4,
            "TEXCOORD_1" : 5,
            "TEXCOORD_2" : 6,
            "TEXCOORD_3" : 7
          },
          "indices" : 0,
          "material" : 0
        },
        {
          "attributes" : {
            "POSITION" : 9,
            "NORMAL" : 10,
            "TANGENT" : 11,
            "TEXCOORD_0" : 12,
            "TEXCOORD_1" : 13,
            "TEXCOORD_2" : 14,
            "TEXCOORD_3" : 15
          },
          "indices" : 8,
          "material" : 1
        },
        {
          "attributes" : {
            "POSITION" : 17,
            "NORMAL" : 18,
            "TANGENT" : 19,
            "TEXCOORD_0" : 20,
            "TEXCOORD_1" : 21,
            "TEXCOORD_2" : 22,
            "TEXCOORD_3" : 23
          },
          "indices" : 16,
          "material" : 2
        },
        {
          "attributes" : {
            "POSITION" : 25,
            "NORMAL" : 26,
            "TANGENT" : 27,
            "TEXCOORD_0" : 28,
            "TEXCOORD_1" : 29,
            "TEXCOORD_2" : 30,
            "TEXCOORD_3" : 31
          },
          "indices" : 24,
          "material" : 3
        },
        {
          "attributes" : {
            "POSITION" : 33,
            "NORMAL" : 34,
            "TANGENT" : 35,
            "TEXCOORD_0" : 36,
            "TEXCOORD_1" : 37,
            "TEXCOORD_2" : 38,
            "TEXCOORD_3" : 39
          },
          "indices" : 32,
          "material" : 4
        }
      ],
      "name" : "SM_ENV_LKNVLD_WallSet_BendPlus"
    }
  ],
  "buffers" : [
    {
      "uri" : "SM_ENV_LKNVLD_WallSet_BendPlus.bin",
      "byteLength" : 306228
    }
  ],
  "bufferViews" : [
    {
      "buffer" : 0,
      "byteOffset" : 0,
      "byteLength" : 8196
    },
    {
      "buffer" : 0,
      "byteOffset" : 8196,
      "byteLength" : 28116
    },
    {
      "buffer" : 0,
      "byteOffset" : 36312,
      "byteLength" : 28116
    },
    {
      "buffer" : 0,
      "byteOffset" : 64428,
      "byteLength" : 37488
    },
    {
      "buffer" : 0,
      "byteOffset" : 101916,
      "byteLength" : 18744
    },
    {
      "buffer" : 0,
      "byteOffset" : 120660,
      "byteLength" : 18744
    },
    {
      "buffer" : 0,
      "byteOffset" : 139404,
      "byteLength" : 18744
    },
    {
      "buffer" : 0,
      "byteOffset" : 158148,
      "byteLength" : 18744
    },
    {
      "buffer" : 0,
      "byteOffset" : 176892,
      "byteLength" : 1440
    },
    {
      "buffer" : 0,
      "byteOffset" : 178332,
      "byteLength" : 3648
    },
    {
      "buffer" : 0,
      "byteOffset" : 181980,
      "byteLength" : 3648
    },
    {
      "buffer" : 0,
      "byteOffset" : 185628,
      "byteLength" : 4864
    },
    {
      "buffer" : 0,
      "byteOffset" : 190492,
      "byteLength" : 2432
    },
    {
      "buffer" : 0,
      "byteOffset" : 192924,
      "byteLength" : 2432
    },
    {
      "buffer" : 0,
      "byteOffset" : 195356,
      "byteLength" : 2432
    },
    {
      "buffer" : 0,
      "byteOffset" : 197788,
      "byteLength" : 2432
    },
    {
      "buffer" : 0,
      "byteOffset" : 200220,
      "byteLength" : 2784
    },
    {
      "buffer" : 0,
      "byteOffset" : 203004,
      "byteLength" : 8256
    },
    {
      "buffer" : 0,
      "byteOffset" : 211260,
      "byteLength" : 8256
    },
    {
      "buffer" : 0,
      "byteOffset" : 219516,
      "byteLength" : 11008
    },
    {
      "buffer" : 0,
      "byteOffset" : 230524,
      "byteLength" : 5504
    },
    {
      "buffer" : 0,
      "byteOffset" : 236028,
      "byteLength" : 5504
    },
    {
      "buffer" : 0,
      "byteOffset" : 241532,
      "byteLength" : 5504
    },
    {
      "buffer" : 0,
      "byteOffset" : 247036,
      "byteLength" : 5504
    },
    {
      "buffer" : 0,
      "byteOffset" : 252540,
      "byteLength" : 1776
    },
    {
      "buffer" : 0,
      "byteOffset" : 254316,
      "byteLength" : 4608
    },
    {
      "buffer" : 0,
      "byteOffset" : 258924,
      "byteLength" : 4608
    },
    {
      "buffer" : 0,
      "byteOffset" : 263532,
      "byteLength" : 6144
    },
    {
      "buffer" : 0,
      "byteOffset" : 269676,
      "byteLength" : 3072
    },
    {
      "buffer" : 0,
      "byteOffset" : 272748,
      "byteLength" : 3072
    },
    {
      "buffer" : 0,
      "byteOffset" : 275820,
      "byteLength" : 3072
    },
    {
      "buffer" : 0,
      "byteOffset" : 278892,
      "byteLength" : 3072
    },
    {
      "buffer" : 0,
      "byteOffset" : 281964,
      "byteLength" : 2376
    },
    {
      "buffer" : 0,
      "byteOffset" : 284340,
      "byteLength" : 3648
    },
    {
      "buffer" : 0,
      "byteOffset" : 287988,
      "byteLength" : 3648
    },
    {
      "buffer" : 0,
      "byteOffset" : 291636,
      "byteLength" : 4864
    },
    {
      "buffer" : 0,
      "byteOffset" : 296500,
      "byteLength" : 2432
    },
    {
      "buffer" : 0,
      "byteOffset" : 298932,
      "byteLength" : 2432
    },
    {
      "buffer" : 0,
      "byteOffset" : 301364,
      "byteLength" : 2432
    },
    {
      "buffer" : 0,
      "byteOffset" : 303796,
      "byteLength" : 2432
    }
  ],
  "accessors" : [
    {
      "bufferView" : 0,
      "componentType" : 5123,
      "count" : 4098,
      "type" : "SCALAR"
    },
    {
      "bufferView" : 1,
      "min" : [ 40.3145, 0.699998, -39.7466 ],
      "max" : [ 66.588, 6.04459, -13.4109 ],
      "componentType" : 5126,
      "count" : 2343,
      "type" : "VEC3"
    },
    {
      "bufferView" : 2,
      "componentType" : 5126,
      "count" : 2343,
      "type" : "VEC3"
    },
    {
      "bufferView" : 3,
      "componentType" : 5126,
      "count" : 2343,
      "type" : "VEC4"
    },
    {
      "bufferView" : 4,
      "componentType" : 5126,
      "count" : 2343,
      "type" : "VEC2"
    },
    {
      "bufferView" : 5,
      "componentType" : 5126,
      "count" : 2343,
      "type" : "VEC2"
    },
    {
      "bufferView" : 6,
      "componentType" : 5126,
      "count" : 2343,
      "type" : "VEC2"
    },
    {
      "bufferView" : 7,
      "componentType" : 5126,
      "count" : 2343,
      "type" : "VEC2"
    },
    {
      "bufferView" : 8,
      "componentType" : 5123,
      "count" : 720,
      "type" : "SCALAR"
    },
    {
      "bufferView" : 9,
      "min" : [ 41.6239, 5.07002, -36.8843 ],
      "max" : [ 64.2445, 5.6, -14.2637 ],
      "componentType" : 5126,
      "count" : 304,
      "type" : "VEC3"
    },
    {
      "bufferView" : 10,
      "componentType" : 5126,
      "count" : 304,
      "type" : "VEC3"
    },
    {
      "bufferView" : 11,
      "componentType" : 5126,
      "count" : 304,
      "type" : "VEC4"
    },
    {
      "bufferView" : 12,
      "componentType" : 5126,
      "count" : 304,
      "type" : "VEC2"
    },
    {
      "bufferView" : 13,
      "componentType" : 5126,
      "count" : 304,
      "type" : "VEC2"
    },
    {
      "bufferView" : 14,
      "componentType" : 5126,
      "count" : 304,
      "type" : "VEC2"
    },
    {
      "bufferView" : 15,
      "componentType" : 5126,
      "count" : 304,
      "type" : "VEC2"
    },
    {
      "bufferView" : 16,
      "componentType" : 5123,
      "count" : 1392,
      "type" : "SCALAR"
    },
    {
      "bufferView" : 17,
      "min" : [ 41.3742, 4.8, -37.1341 ],
      "max" : [ 64.2445, 5.6, -14.2637 ],
      "componentType" : 5126,
      "count" : 688,
      "type" : "VEC3"
    },
    {
      "bufferView" : 18,
      "componentType" : 5126,
      "count" : 688,
      "type" : "VEC3"
    },
    {
      "bufferView" : 19,
      "componentType" : 5126,
      "count" : 688,
      "type" : "VEC4"
    },
    {
      "bufferView" : 20,
      "componentType" : 5126,
      "count" : 688,
      "type" : "VEC2"
    },
    {
      "bufferView" : 21,
      "componentType" : 5126,
      "count" : 688,
      "type" : "VEC2"
    },
    {
      "bufferView" : 22,
      "componentType" : 5126,
      "count" : 688,
      "type" : "VEC2"
    },
    {
      "bufferView" : 23,
      "componentType" : 5126,
      "count" : 688,
      "type" : "VEC2"
    },
    {
      "bufferView" : 24,
      "componentType" : 5123,
      "count" : 888,
      "type" : "SCALAR"
    },
    {
      "bufferView" : 25,
      "min" : [ 40.6608, 0.299998, -39.7466 ],
      "max" : [ 66.2948, 5.5, -14.1538 ],
      "componentType" : 5126,
      "count" : 384,
      "type" : "VEC3"
    },
    {
      "bufferView" : 26,
      "componentType" : 5126,
      "count" : 384,
      "type" : "VEC3"
    },
    {
      "bufferView" : 27,
      "componentType" : 5126,
      "count" : 384,
      "type" : "VEC4"
    },
    {
      "bufferView" : 28,
      "componentType" : 5126,
      "count" : 384,
      "type" : "VEC2"
    },
    {
      "bufferView" : 29,
      "componentType" : 5126,
      "count" : 384,
      "type" : "VEC2"
    },
    {
      "bufferView" : 30,
      "componentType" : 5126,
      "count" : 384,
      "type" : "VEC2"
    },
    {
      "bufferView" : 31,
      "componentType" : 5126,
      "count" : 384,
      "type" : "VEC2"
    },
    {
      "bufferView" : 32,
      "componentType" : 5123,
      "count" : 1188,
      "type" : "SCALAR"
    },
    {
      "bufferView" : 33,
      "min" : [ 40.7718, -0.234174, -39.7069 ],
      "max" : [ 66.3626, 0.300002, -14.116 ],
      "componentType" : 5126,
      "count" : 304,
      "type" : "VEC3"
    },
    {
      "bufferView" : 34,
      "componentType" : 5126,
      "count" : 304,
      "type" : "VEC3"
    },
    {
      "bufferView" : 35,
      "componentType" : 5126,
      "count" : 304,
      "type" : "VEC4"
    },
    {
      "bufferView" : 36,
      "componentType" : 5126,
      "count" : 304,
      "type" : "VEC2"
    },
    {
      "bufferView" : 37,
      "componentType" : 5126,
      "count" : 304,
      "type" : "VEC2"
    },
    {
      "bufferView" : 38,
      "componentType" : 5126,
      "count" : 304,
      "type" : "VEC2"
    },
    {
      "bufferView" : 39,
      "componentType" : 5126,
      "count" : 304,
      "type" : "VEC2"
    }
  ]
}
