{
  "asset" : {
    "generator" : "UE Viewer (umodel) build 1544 based",
    "version" : "2.0"
  },
  "scene" : 0,
  "scenes" : [
    {
      "nodes" : [ 0 ]
    }
  ],
  "nodes" : [
    {
      "name" : "SM_ENV_LKNVLD_Shop_Front_Lod2",
      "mesh" : 0
    }
  ],
  "materials" : [
    {
      "name" : "MI_ENV_LKNVLD_WoodBoard_Pink_LOD",
      "pbrMetallicRoughness" : {
        "baseColorFactor" : [ 0.3, 0.3, 0.3, 1.0 ],
        "metallicFactor" : 0.1,
        "roughnessFactor" : 0.5
      }
    },
    {
      "name" : "MI_ENV_LKNVLD_Eaves_D_LOD",
      "pbrMetallicRoughness" : {
        "baseColorFactor" : [ 0.9, 0.3, 0.3, 1.0 ],
        "metallicFactor" : 0.1,
        "roughnessFactor" : 0.5
      }
    },
    {
      "name" : "MI_ENV_LKNVLD_ClanSignboard_F",
      "pbrMetallicRoughness" : {
        "baseColorFactor" : [ 0.3, 0.9, 0.3, 1.0 ],
        "metallicFactor" : 0.1,
        "roughnessFactor" : 0.5
      }
    },
    {
      "name" : "MI_ENV_LKNVLD_Curtain_D_LOD",
      "pbrMetallicRoughness" : {
        "baseColorFactor" : [ 0.3, 0.3, 0.9, 1.0 ],
        "metallicFactor" : 0.1,
        "roughnessFactor" : 0.5
      }
    },
    {
      "name" : "MI_ENV_LKNVLD_WoodBoard_Red_LOD",
      "pbrMetallicRoughness" : {
        "baseColorFactor" : [ 0.9, 0.9, 0.9, 1.0 ],
        "metallicFactor" : 0.1,
        "roughnessFactor" : 0.5
      }
    },
    {
      "name" : "MI_ENV_LKNVLD_Plaster_Beige_LOD",
      "pbrMetallicRoughness" : {
        "baseColorFactor" : [ 0.9, 0.9, 0.3, 1.0 ],
        "metallicFactor" : 0.1,
        "roughnessFactor" : 0.5
      }
    },
    {
      "name" : "MI_ENV_LKNVLD_Plaster_Pink_LOD",
      "pbrMetallicRoughness" : {
        "baseColorFactor" : [ 0.9, 0.3, 0.9, 1.0 ],
        "metallicFactor" : 0.1,
        "roughnessFactor" : 0.5
      }
    },
    {
      "name" : "MI_ENV_LKNVLD_WoodWallSet_LOD",
      "pbrMetallicRoughness" : {
        "baseColorFactor" : [ 0.3, 0.9, 0.9, 1.0 ],
        "metallicFactor" : 0.1,
        "roughnessFactor" : 0.5
      }
    },
    {
      "name" : "MI_ENV_LKNVLD_Windows_A",
      "pbrMetallicRoughness" : {
        "baseColorFactor" : [ 1, 0.3, 0.3, 1.0 ],
        "metallicFactor" : 0.1,
        "roughnessFactor" : 0.5
      }
    },
    {
      "name" : "MI_T_ENV_LKNVLD_StoneTrim_LOD",
      "pbrMetallicRoughness" : {
        "baseColorFactor" : [ 0.6, 0.3, 0.3, 1.0 ],
        "metallicFactor" : 0.1,
        "roughnessFactor" : 0.5
      }
    }
  ],
  "meshes" : [
    {
      "primitives" : [
        {
          "attributes" : {
            "POSITION" : 1,
            "NORMAL" : 2,
            "TANGENT" : 3,
            "COLOR_0" : 4,
            "TEXCOORD_0" : 5,
            "TEXCOORD_1" : 6,
            "TEXCOORD_2" : 7,
            "TEXCOORD_3" : 8
          },
          "indices" : 0,
          "material" : 0
        },
        {
          "attributes" : {
            "POSITION" : 10,
            "NORMAL" : 11,
            "TANGENT" : 12,
            "COLOR_0" : 13,
            "TEXCOORD_0" : 14,
            "TEXCOORD_1" : 15,
            "TEXCOORD_2" : 16,
            "TEXCOORD_3" : 17
          },
          "indices" : 9,
          "material" : 1
        },
        {
          "attributes" : {
            "POSITION" : 19,
            "NORMAL" : 20,
            "TANGENT" : 21,
            "COLOR_0" : 22,
            "TEXCOORD_0" : 23,
            "TEXCOORD_1" : 24,
            "TEXCOORD_2" : 25,
            "TEXCOORD_3" : 26
          },
          "indices" : 18,
          "material" : 2
        },
        {
          "attributes" : {
            "POSITION" : 28,
            "NORMAL" : 29,
            "TANGENT" : 30,
            "COLOR_0" : 31,
            "TEXCOORD_0" : 32,
            "TEXCOORD_1" : 33,
            "TEXCOORD_2" : 34,
            "TEXCOORD_3" : 35
          },
          "indices" : 27,
          "material" : 3
        },
        {
          "attributes" : {
            "POSITION" : 37,
            "NORMAL" : 38,
            "TANGENT" : 39,
            "COLOR_0" : 40,
            "TEXCOORD_0" : 41,
            "TEXCOORD_1" : 42,
            "TEXCOORD_2" : 43,
            "TEXCOORD_3" : 44
          },
          "indices" : 36,
          "material" : 4
        },
        {
          "attributes" : {
            "POSITION" : 46,
            "NORMAL" : 47,
            "TANGENT" : 48,
            "COLOR_0" : 49,
            "TEXCOORD_0" : 50,
            "TEXCOORD_1" : 51,
            "TEXCOORD_2" : 52,
            "TEXCOORD_3" : 53
          },
          "indices" : 45,
          "material" : 5
        },
        {
          "attributes" : {
            "POSITION" : 55,
            "NORMAL" : 56,
            "TANGENT" : 57,
            "COLOR_0" : 58,
            "TEXCOORD_0" : 59,
            "TEXCOORD_1" : 60,
            "TEXCOORD_2" : 61,
            "TEXCOORD_3" : 62
          },
          "indices" : 54,
          "material" : 6
        },
        {
          "attributes" : {
            "POSITION" : 64,
            "NORMAL" : 65,
            "TANGENT" : 66,
            "COLOR_0" : 67,
            "TEXCOORD_0" : 68,
            "TEXCOORD_1" : 69,
            "TEXCOORD_2" : 70,
            "TEXCOORD_3" : 71
          },
          "indices" : 63,
          "material" : 7
        },
        {
          "attributes" : {
            "POSITION" : 73,
            "NORMAL" : 74,
            "TANGENT" : 75,
            "COLOR_0" : 76,
            "TEXCOORD_0" : 77,
            "TEXCOORD_1" : 78,
            "TEXCOORD_2" : 79,
            "TEXCOORD_3" : 80
          },
          "indices" : 72,
          "material" : 8
        },
        {
          "attributes" : {
            "POSITION" : 82,
            "NORMAL" : 83,
            "TANGENT" : 84,
            "COLOR_0" : 85,
            "TEXCOORD_0" : 86,
            "TEXCOORD_1" : 87,
            "TEXCOORD_2" : 88,
            "TEXCOORD_3" : 89
          },
          "indices" : 81,
          "material" : 9
        }
      ],
      "name" : "SM_ENV_LKNVLD_Shop_Front_Lod2"
    }
  ],
  "buffers" : [
    {
      "uri" : "SM_ENV_LKNVLD_Shop_Front_Lod2.bin",
      "byteLength" : 257992
    }
  ],
  "bufferViews" : [
    {
      "buffer" : 0,
      "byteOffset" : 0,
      "byteLength" : 720
    },
    {
      "buffer" : 0,
      "byteOffset" : 720,
      "byteLength" : 1752
    },
    {
      "buffer" : 0,
      "byteOffset" : 2472,
      "byteLength" : 1752
    },
    {
      "buffer" : 0,
      "byteOffset" : 4224,
      "byteLength" : 2336
    },
    {
      "buffer" : 0,
      "byteOffset" : 6560,
      "byteLength" : 584
    },
    {
      "buffer" : 0,
      "byteOffset" : 7144,
      "byteLength" : 1168
    },
    {
      "buffer" : 0,
      "byteOffset" : 8312,
      "byteLength" : 1168
    },
    {
      "buffer" : 0,
      "byteOffset" : 9480,
      "byteLength" : 1168
    },
    {
      "buffer" : 0,
      "byteOffset" : 10648,
      "byteLength" : 1168
    },
    {
      "buffer" : 0,
      "byteOffset" : 11816,
      "byteLength" : 3096
    },
    {
      "buffer" : 0,
      "byteOffset" : 14912,
      "byteLength" : 8796
    },
    {
      "buffer" : 0,
      "byteOffset" : 23708,
      "byteLength" : 8796
    },
    {
      "buffer" : 0,
      "byteOffset" : 32504,
      "byteLength" : 11728
    },
    {
      "buffer" : 0,
      "byteOffset" : 44232,
      "byteLength" : 2932
    },
    {
      "buffer" : 0,
      "byteOffset" : 47164,
      "byteLength" : 5864
    },
    {
      "buffer" : 0,
      "byteOffset" : 53028,
      "byteLength" : 5864
    },
    {
      "buffer" : 0,
      "byteOffset" : 58892,
      "byteLength" : 5864
    },
    {
      "buffer" : 0,
      "byteOffset" : 64756,
      "byteLength" : 5864
    },
    {
      "buffer" : 0,
      "byteOffset" : 70620,
      "byteLength" : 92
    },
    {
      "buffer" : 0,
      "byteOffset" : 70712,
      "byteLength" : 300
    },
    {
      "buffer" : 0,
      "byteOffset" : 71012,
      "byteLength" : 300
    },
    {
      "buffer" : 0,
      "byteOffset" : 71312,
      "byteLength" : 400
    },
    {
      "buffer" : 0,
      "byteOffset" : 71712,
      "byteLength" : 100
    },
    {
      "buffer" : 0,
      "byteOffset" : 71812,
      "byteLength" : 200
    },
    {
      "buffer" : 0,
      "byteOffset" : 72012,
      "byteLength" : 200
    },
    {
      "buffer" : 0,
      "byteOffset" : 72212,
      "byteLength" : 200
    },
    {
      "buffer" : 0,
      "byteOffset" : 72412,
      "byteLength" : 200
    },
    {
      "buffer" : 0,
      "byteOffset" : 72612,
      "byteLength" : 324
    },
    {
      "buffer" : 0,
      "byteOffset" : 72936,
      "byteLength" : 780
    },
    {
      "buffer" : 0,
      "byteOffset" : 73716,
      "byteLength" : 780
    },
    {
      "buffer" : 0,
      "byteOffset" : 74496,
      "byteLength" : 1040
    },
    {
      "buffer" : 0,
      "byteOffset" : 75536,
      "byteLength" : 260
    },
    {
      "buffer" : 0,
      "byteOffset" : 75796,
      "byteLength" : 520
    },
    {
      "buffer" : 0,
      "byteOffset" : 76316,
      "byteLength" : 520
    },
    {
      "buffer" : 0,
      "byteOffset" : 76836,
      "byteLength" : 520
    },
    {
      "buffer" : 0,
      "byteOffset" : 77356,
      "byteLength" : 520
    },
    {
      "buffer" : 0,
      "byteOffset" : 77876,
      "byteLength" : 1052
    },
    {
      "buffer" : 0,
      "byteOffset" : 78928,
      "byteLength" : 3996
    },
    {
      "buffer" : 0,
      "byteOffset" : 82924,
      "byteLength" : 3996
    },
    {
      "buffer" : 0,
      "byteOffset" : 86920,
      "byteLength" : 5328
    },
    {
      "buffer" : 0,
      "byteOffset" : 92248,
      "byteLength" : 1332
    },
    {
      "buffer" : 0,
      "byteOffset" : 93580,
      "byteLength" : 2664
    },
    {
      "buffer" : 0,
      "byteOffset" : 96244,
      "byteLength" : 2664
    },
    {
      "buffer" : 0,
      "byteOffset" : 98908,
      "byteLength" : 2664
    },
    {
      "buffer" : 0,
      "byteOffset" : 101572,
      "byteLength" : 2664
    },
    {
      "buffer" : 0,
      "byteOffset" : 104236,
      "byteLength" : 288
    },
    {
      "buffer" : 0,
      "byteOffset" : 104524,
      "byteLength" : 1056
    },
    {
      "buffer" : 0,
      "byteOffset" : 105580,
      "byteLength" : 1056
    },
    {
      "buffer" : 0,
      "byteOffset" : 106636,
      "byteLength" : 1408
    },
    {
      "buffer" : 0,
      "byteOffset" : 108044,
      "byteLength" : 352
    },
    {
      "buffer" : 0,
      "byteOffset" : 108396,
      "byteLength" : 704
    },
    {
      "buffer" : 0,
      "byteOffset" : 109100,
      "byteLength" : 704
    },
    {
      "buffer" : 0,
      "byteOffset" : 109804,
      "byteLength" : 704
    },
    {
      "buffer" : 0,
      "byteOffset" : 110508,
      "byteLength" : 704
    },
    {
      "buffer" : 0,
      "byteOffset" : 111212,
      "byteLength" : 684
    },
    {
      "buffer" : 0,
      "byteOffset" : 111896,
      "byteLength" : 1680
    },
    {
      "buffer" : 0,
      "byteOffset" : 113576,
      "byteLength" : 1680
    },
    {
      "buffer" : 0,
      "byteOffset" : 115256,
      "byteLength" : 2240
    },
    {
      "buffer" : 0,
      "byteOffset" : 117496,
      "byteLength" : 560
    },
    {
      "buffer" : 0,
      "byteOffset" : 118056,
      "byteLength" : 1120
    },
    {
      "buffer" : 0,
      "byteOffset" : 119176,
      "byteLength" : 1120
    },
    {
      "buffer" : 0,
      "byteOffset" : 120296,
      "byteLength" : 1120
    },
    {
      "buffer" : 0,
      "byteOffset" : 121416,
      "byteLength" : 1120
    },
    {
      "buffer" : 0,
      "byteOffset" : 122536,
      "byteLength" : 5504
    },
    {
      "buffer" : 0,
      "byteOffset" : 128040,
      "byteLength" : 16800
    },
    {
      "buffer" : 0,
      "byteOffset" : 144840,
      "byteLength" : 16800
    },
    {
      "buffer" : 0,
      "byteOffset" : 161640,
      "byteLength" : 22400
    },
    {
      "buffer" : 0,
      "byteOffset" : 184040,
      "byteLength" : 5600
    },
    {
      "buffer" : 0,
      "byteOffset" : 189640,
      "byteLength" : 11200
    },
    {
      "buffer" : 0,
      "byteOffset" : 200840,
      "byteLength" : 11200
    },
    {
      "buffer" : 0,
      "byteOffset" : 212040,
      "byteLength" : 11200
    },
    {
      "buffer" : 0,
      "byteOffset" : 223240,
      "byteLength" : 11200
    },
    {
      "buffer" : 0,
      "byteOffset" : 234440,
      "byteLength" : 288
    },
    {
      "buffer" : 0,
      "byteOffset" : 234728,
      "byteLength" : 756
    },
    {
      "buffer" : 0,
      "byteOffset" : 235484,
      "byteLength" : 756
    },
    {
      "buffer" : 0,
      "byteOffset" : 236240,
      "byteLength" : 1008
    },
    {
      "buffer" : 0,
      "byteOffset" : 237248,
      "byteLength" : 252
    },
    {
      "buffer" : 0,
      "byteOffset" : 237500,
      "byteLength" : 504
    },
    {
      "buffer" : 0,
      "byteOffset" : 238004,
      "byteLength" : 504
    },
    {
      "buffer" : 0,
      "byteOffset" : 238508,
      "byteLength" : 504
    },
    {
      "buffer" : 0,
      "byteOffset" : 239012,
      "byteLength" : 504
    },
    {
      "buffer" : 0,
      "byteOffset" : 239516,
      "byteLength" : 1148
    },
    {
      "buffer" : 0,
      "byteOffset" : 240664,
      "byteLength" : 2736
    },
    {
      "buffer" : 0,
      "byteOffset" : 243400,
      "byteLength" : 2736
    },
    {
      "buffer" : 0,
      "byteOffset" : 246136,
      "byteLength" : 3648
    },
    {
      "buffer" : 0,
      "byteOffset" : 249784,
      "byteLength" : 912
    },
    {
      "buffer" : 0,
      "byteOffset" : 250696,
      "byteLength" : 1824
    },
    {
      "buffer" : 0,
      "byteOffset" : 252520,
      "byteLength" : 1824
    },
    {
      "buffer" : 0,
      "byteOffset" : 254344,
      "byteLength" : 1824
    },
    {
      "buffer" : 0,
      "byteOffset" : 256168,
      "byteLength" : 1824
    }
  ],
  "accessors" : [
    {
      "bufferView" : 0,
      "componentType" : 5123,
      "count" : 360,
      "type" : "SCALAR"
    },
    {
      "bufferView" : 1,
      "min" : [ -27.8656, 0.189947, 16.2953 ],
      "max" : [ -23.5486, 3.11837, 20.6123 ],
      "componentType" : 5126,
      "count" : 146,
      "type" : "VEC3"
    },
    {
      "bufferView" : 2,
      "componentType" : 5126,
      "count" : 146,
      "type" : "VEC3"
    },
    {
      "bufferView" : 3,
      "componentType" : 5126,
      "count" : 146,
      "type" : "VEC4"
    },
    {
      "bufferView" : 4,
      "normalized" : true,
      "componentType" : 5121,
      "count" : 146,
      "type" : "VEC4"
    },
    {
      "bufferView" : 5,
      "componentType" : 5126,
      "count" : 146,
      "type" : "VEC2"
    },
    {
      "bufferView" : 6,
      "componentType" : 5126,
      "count" : 146,
      "type" : "VEC2"
    },
    {
      "bufferView" : 7,
      "componentType" : 5126,
      "count" : 146,
      "type" : "VEC2"
    },
    {
      "bufferView" : 8,
      "componentType" : 5126,
      "count" : 146,
      "type" : "VEC2"
    },
    {
      "bufferView" : 9,
      "componentType" : 5123,
      "count" : 1548,
      "type" : "SCALAR"
    },
    {
      "bufferView" : 10,
      "min" : [ -29.8942, 0.500003, 14.2885 ],
      "max" : [ -21.5311, 8.95, 22.6515 ],
      "componentType" : 5126,
      "count" : 733,
      "type" : "VEC3"
    },
    {
      "bufferView" : 11,
      "componentType" : 5126,
      "count" : 733,
      "type" : "VEC3"
    },
    {
      "bufferView" : 12,
      "componentType" : 5126,
      "count" : 733,
      "type" : "VEC4"
    },
    {
      "bufferView" : 13,
      "normalized" : true,
      "componentType" : 5121,
      "count" : 733,
      "type" : "VEC4"
    },
    {
      "bufferView" : 14,
      "componentType" : 5126,
      "count" : 733,
      "type" : "VEC2"
    },
    {
      "bufferView" : 15,
      "componentType" : 5126,
      "count" : 733,
      "type" : "VEC2"
    },
    {
      "bufferView" : 16,
      "componentType" : 5126,
      "count" : 733,
      "type" : "VEC2"
    },
    {
      "bufferView" : 17,
      "componentType" : 5126,
      "count" : 733,
      "type" : "VEC2"
    },
    {
      "bufferView" : 18,
      "componentType" : 5123,
      "count" : 45,
      "type" : "SCALAR"
    },
    {
      "bufferView" : 19,
      "min" : [ -26.8946, 5.83374, 17.1378 ],
      "max" : [ -24.3826, 7.4222, 19.6676 ],
      "componentType" : 5126,
      "count" : 25,
      "type" : "VEC3"
    },
    {
      "bufferView" : 20,
      "componentType" : 5126,
      "count" : 25,
      "type" : "VEC3"
    },
    {
      "bufferView" : 21,
      "componentType" : 5126,
      "count" : 25,
      "type" : "VEC4"
    },
    {
      "bufferView" : 22,
      "normalized" : true,
      "componentType" : 5121,
      "count" : 25,
      "type" : "VEC4"
    },
    {
      "bufferView" : 23,
      "componentType" : 5126,
      "count" : 25,
      "type" : "VEC2"
    },
    {
      "bufferView" : 24,
      "componentType" : 5126,
      "count" : 25,
      "type" : "VEC2"
    },
    {
      "bufferView" : 25,
      "componentType" : 5126,
      "count" : 25,
      "type" : "VEC2"
    },
    {
      "bufferView" : 26,
      "componentType" : 5126,
      "count" : 25,
      "type" : "VEC2"
    },
    {
      "bufferView" : 27,
      "componentType" : 5123,
      "count" : 162,
      "type" : "SCALAR"
    },
    {
      "bufferView" : 28,
      "min" : [ -27.2291, 3.71505, 17.369 ],
      "max" : [ -24.6165, 4.89677, 19.9816 ],
      "componentType" : 5126,
      "count" : 65,
      "type" : "VEC3"
    },
    {
      "bufferView" : 29,
      "componentType" : 5126,
      "count" : 65,
      "type" : "VEC3"
    },
    {
      "bufferView" : 30,
      "componentType" : 5126,
      "count" : 65,
      "type" : "VEC4"
    },
    {
      "bufferView" : 31,
      "normalized" : true,
      "componentType" : 5121,
      "count" : 65,
      "type" : "VEC4"
    },
    {
      "bufferView" : 32,
      "componentType" : 5126,
      "count" : 65,
      "type" : "VEC2"
    },
    {
      "bufferView" : 33,
      "componentType" : 5126,
      "count" : 65,
      "type" : "VEC2"
    },
    {
      "bufferView" : 34,
      "componentType" : 5126,
      "count" : 65,
      "type" : "VEC2"
    },
    {
      "bufferView" : 35,
      "componentType" : 5126,
      "count" : 65,
      "type" : "VEC2"
    },
    {
      "bufferView" : 36,
      "componentType" : 5123,
      "count" : 525,
      "type" : "SCALAR"
    },
    {
      "bufferView" : 37,
      "min" : [ -30.3799, 0.464885, 14.6796 ],
      "max" : [ -21.9222, 7.98975, 23.0474 ],
      "componentType" : 5126,
      "count" : 333,
      "type" : "VEC3"
    },
    {
      "bufferView" : 38,
      "componentType" : 5126,
      "count" : 333,
      "type" : "VEC3"
    },
    {
      "bufferView" : 39,
      "componentType" : 5126,
      "count" : 333,
      "type" : "VEC4"
    },
    {
      "bufferView" : 40,
      "normalized" : true,
      "componentType" : 5121,
      "count" : 333,
      "type" : "VEC4"
    },
    {
      "bufferView" : 41,
      "componentType" : 5126,
      "count" : 333,
      "type" : "VEC2"
    },
    {
      "bufferView" : 42,
      "componentType" : 5126,
      "count" : 333,
      "type" : "VEC2"
    },
    {
      "bufferView" : 43,
      "componentType" : 5126,
      "count" : 333,
      "type" : "VEC2"
    },
    {
      "bufferView" : 44,
      "componentType" : 5126,
      "count" : 333,
      "type" : "VEC2"
    },
    {
      "bufferView" : 45,
      "componentType" : 5123,
      "count" : 144,
      "type" : "SCALAR"
    },
    {
      "bufferView" : 46,
      "min" : [ -30.1544, 1.41325, 15.4888 ],
      "max" : [ -22.7314, 5.53942, 22.9117 ],
      "componentType" : 5126,
      "count" : 88,
      "type" : "VEC3"
    },
    {
      "bufferView" : 47,
      "componentType" : 5126,
      "count" : 88,
      "type" : "VEC3"
    },
    {
      "bufferView" : 48,
      "componentType" : 5126,
      "count" : 88,
      "type" : "VEC4"
    },
    {
      "bufferView" : 49,
      "normalized" : true,
      "componentType" : 5121,
      "count" : 88,
      "type" : "VEC4"
    },
    {
      "bufferView" : 50,
      "componentType" : 5126,
      "count" : 88,
      "type" : "VEC2"
    },
    {
      "bufferView" : 51,
      "componentType" : 5126,
      "count" : 88,
      "type" : "VEC2"
    },
    {
      "bufferView" : 52,
      "componentType" : 5126,
      "count" : 88,
      "type" : "VEC2"
    },
    {
      "bufferView" : 53,
      "componentType" : 5126,
      "count" : 88,
      "type" : "VEC2"
    },
    {
      "bufferView" : 54,
      "componentType" : 5123,
      "count" : 342,
      "type" : "SCALAR"
    },
    {
      "bufferView" : 55,
      "min" : [ -30.1407, 3.4967, 15.5057 ],
      "max" : [ -22.7483, 7.95, 22.8981 ],
      "componentType" : 5126,
      "count" : 140,
      "type" : "VEC3"
    },
    {
      "bufferView" : 56,
      "componentType" : 5126,
      "count" : 140,
      "type" : "VEC3"
    },
    {
      "bufferView" : 57,
      "componentType" : 5126,
      "count" : 140,
      "type" : "VEC4"
    },
    {
      "bufferView" : 58,
      "normalized" : true,
      "componentType" : 5121,
      "count" : 140,
      "type" : "VEC4"
    },
    {
      "bufferView" : 59,
      "componentType" : 5126,
      "count" : 140,
      "type" : "VEC2"
    },
    {
      "bufferView" : 60,
      "componentType" : 5126,
      "count" : 140,
      "type" : "VEC2"
    },
    {
      "bufferView" : 61,
      "componentType" : 5126,
      "count" : 140,
      "type" : "VEC2"
    },
    {
      "bufferView" : 62,
      "componentType" : 5126,
      "count" : 140,
      "type" : "VEC2"
    },
    {
      "bufferView" : 63,
      "componentType" : 5123,
      "count" : 2751,
      "type" : "SCALAR"
    },
    {
      "bufferView" : 64,
      "min" : [ -30.1933, -0.0256486, 15.0062 ],
      "max" : [ -22.2488, 6.5047, 22.9507 ],
      "componentType" : 5126,
      "count" : 1400,
      "type" : "VEC3"
    },
    {
      "bufferView" : 65,
      "componentType" : 5126,
      "count" : 1400,
      "type" : "VEC3"
    },
    {
      "bufferView" : 66,
      "componentType" : 5126,
      "count" : 1400,
      "type" : "VEC4"
    },
    {
      "bufferView" : 67,
      "normalized" : true,
      "componentType" : 5121,
      "count" : 1400,
      "type" : "VEC4"
    },
    {
      "bufferView" : 68,
      "componentType" : 5126,
      "count" : 1400,
      "type" : "VEC2"
    },
    {
      "bufferView" : 69,
      "componentType" : 5126,
      "count" : 1400,
      "type" : "VEC2"
    },
    {
      "bufferView" : 70,
      "componentType" : 5126,
      "count" : 1400,
      "type" : "VEC2"
    },
    {
      "bufferView" : 71,
      "componentType" : 5126,
      "count" : 1400,
      "type" : "VEC2"
    },
    {
      "bufferView" : 72,
      "componentType" : 5123,
      "count" : 144,
      "type" : "SCALAR"
    },
    {
      "bufferView" : 73,
      "min" : [ -27.7463, 0.597499, 16.3794 ],
      "max" : [ -23.6327, 2.62876, 20.493 ],
      "componentType" : 5126,
      "count" : 63,
      "type" : "VEC3"
    },
    {
      "bufferView" : 74,
      "componentType" : 5126,
      "count" : 63,
      "type" : "VEC3"
    },
    {
      "bufferView" : 75,
      "componentType" : 5126,
      "count" : 63,
      "type" : "VEC4"
    },
    {
      "bufferView" : 76,
      "normalized" : true,
      "componentType" : 5121,
      "count" : 63,
      "type" : "VEC4"
    },
    {
      "bufferView" : 77,
      "componentType" : 5126,
      "count" : 63,
      "type" : "VEC2"
    },
    {
      "bufferView" : 78,
      "componentType" : 5126,
      "count" : 63,
      "type" : "VEC2"
    },
    {
      "bufferView" : 79,
      "componentType" : 5126,
      "count" : 63,
      "type" : "VEC2"
    },
    {
      "bufferView" : 80,
      "componentType" : 5126,
      "count" : 63,
      "type" : "VEC2"
    },
    {
      "bufferView" : 81,
      "componentType" : 5123,
      "count" : 573,
      "type" : "SCALAR"
    },
    {
      "bufferView" : 82,
      "min" : [ -30.4295, -0.0256521, 14.8761 ],
      "max" : [ -22.1187, 0.500029, 23.1869 ],
      "componentType" : 5126,
      "count" : 228,
      "type" : "VEC3"
    },
    {
      "bufferView" : 83,
      "componentType" : 5126,
      "count" : 228,
      "type" : "VEC3"
    },
    {
      "bufferView" : 84,
      "componentType" : 5126,
      "count" : 228,
      "type" : "VEC4"
    },
    {
      "bufferView" : 85,
      "normalized" : true,
      "componentType" : 5121,
      "count" : 228,
      "type" : "VEC4"
    },
    {
      "bufferView" : 86,
      "componentType" : 5126,
      "count" : 228,
      "type" : "VEC2"
    },
    {
      "bufferView" : 87,
      "componentType" : 5126,
      "count" : 228,
      "type" : "VEC2"
    },
    {
      "bufferView" : 88,
      "componentType" : 5126,
      "count" : 228,
      "type" : "VEC2"
    },
    {
      "bufferView" : 89,
      "componentType" : 5126,
      "count" : 228,
      "type" : "VEC2"
    }
  ]
}
