{
  "asset" : {
    "generator" : "UE Viewer (umodel) build 1544 based",
    "version" : "2.0"
  },
  "scene" : 0,
  "scenes" : [
    {
      "nodes" : [ 0 ]
    }
  ],
  "nodes" : [
    {
      "name" : "SM_ENV_LKNVLD_InnSignboard_B_Lod2",
      "mesh" : 0
    }
  ],
  "materials" : [
    {
      "name" : "MI_ENV_LKNVLD_WoodPlain_Brown_LOD",
      "pbrMetallicRoughness" : {
        "baseColorFactor" : [ 0.3, 0.3, 0.3, 1.0 ],
        "metallicFactor" : 0.1,
        "roughnessFactor" : 0.5
      }
    },
    {
      "name" : "MI_ENV_LKNVLD_InnSignboard_C",
      "pbrMetallicRoughness" : {
        "baseColorFactor" : [ 0.9, 0.3, 0.3, 1.0 ],
        "metallicFactor" : 0.1,
        "roughnessFactor" : 0.5
      }
    },
    {
      "name" : "MI_ENV_LKNVLD_Roof_A_LOD",
      "pbrMetallicRoughness" : {
        "baseColorFactor" : [ 0.3, 0.9, 0.3, 1.0 ],
        "metallicFactor" : 0.1,
        "roughnessFactor" : 0.5
      }
    }
  ],
  "meshes" : [
    {
      "primitives" : [
        {
          "attributes" : {
            "POSITION" : 1,
            "NORMAL" : 2,
            "TANGENT" : 3,
            "TEXCOORD_0" : 4,
            "TEXCOORD_1" : 5,
            "TEXCOORD_2" : 6,
            "TEXCOORD_3" : 7
          },
          "indices" : 0,
          "material" : 0
        },
        {
          "attributes" : {
            "POSITION" : 9,
            "NORMAL" : 10,
            "TANGENT" : 11,
            "TEXCOORD_0" : 12,
            "TEXCOORD_1" : 13,
            "TEXCOORD_2" : 14,
            "TEXCOORD_3" : 15
          },
          "indices" : 8,
          "material" : 1
        },
        {
          "attributes" : {
            "POSITION" : 17,
            "NORMAL" : 18,
            "TANGENT" : 19,
            "TEXCOORD_0" : 20,
            "TEXCOORD_1" : 21,
            "TEXCOORD_2" : 22,
            "TEXCOORD_3" : 23
          },
          "indices" : 16,
          "material" : 2
        }
      ],
      "name" : "SM_ENV_LKNVLD_InnSignboard_B_Lod2"
    }
  ],
  "buffers" : [
    {
      "uri" : "SM_ENV_LKNVLD_InnSignboard_B_Lod2.bin",
      "byteLength" : 103872
    }
  ],
  "bufferViews" : [
    {
      "buffer" : 0,
      "byteOffset" : 0,
      "byteLength" : 2076
    },
    {
      "buffer" : 0,
      "byteOffset" : 2076,
      "byteLength" : 7080
    },
    {
      "buffer" : 0,
      "byteOffset" : 9156,
      "byteLength" : 7080
    },
    {
      "buffer" : 0,
      "byteOffset" : 16236,
      "byteLength" : 9440
    },
    {
      "buffer" : 0,
      "byteOffset" : 25676,
      "byteLength" : 4720
    },
    {
      "buffer" : 0,
      "byteOffset" : 30396,
      "byteLength" : 4720
    },
    {
      "buffer" : 0,
      "byteOffset" : 35116,
      "byteLength" : 4720
    },
    {
      "buffer" : 0,
      "byteOffset" : 39836,
      "byteLength" : 4720
    },
    {
      "buffer" : 0,
      "byteOffset" : 44556,
      "byteLength" : 1908
    },
    {
      "buffer" : 0,
      "byteOffset" : 46464,
      "byteLength" : 3240
    },
    {
      "buffer" : 0,
      "byteOffset" : 49704,
      "byteLength" : 3240
    },
    {
      "buffer" : 0,
      "byteOffset" : 52944,
      "byteLength" : 4320
    },
    {
      "buffer" : 0,
      "byteOffset" : 57264,
      "byteLength" : 2160
    },
    {
      "buffer" : 0,
      "byteOffset" : 59424,
      "byteLength" : 2160
    },
    {
      "buffer" : 0,
      "byteOffset" : 61584,
      "byteLength" : 2160
    },
    {
      "buffer" : 0,
      "byteOffset" : 63744,
      "byteLength" : 2160
    },
    {
      "buffer" : 0,
      "byteOffset" : 65904,
      "byteLength" : 1824
    },
    {
      "buffer" : 0,
      "byteOffset" : 67728,
      "byteLength" : 6024
    },
    {
      "buffer" : 0,
      "byteOffset" : 73752,
      "byteLength" : 6024
    },
    {
      "buffer" : 0,
      "byteOffset" : 79776,
      "byteLength" : 8032
    },
    {
      "buffer" : 0,
      "byteOffset" : 87808,
      "byteLength" : 4016
    },
    {
      "buffer" : 0,
      "byteOffset" : 91824,
      "byteLength" : 4016
    },
    {
      "buffer" : 0,
      "byteOffset" : 95840,
      "byteLength" : 4016
    },
    {
      "buffer" : 0,
      "byteOffset" : 99856,
      "byteLength" : 4016
    }
  ],
  "accessors" : [
    {
      "bufferView" : 0,
      "componentType" : 5123,
      "count" : 1038,
      "type" : "SCALAR"
    },
    {
      "bufferView" : 1,
      "min" : [ -1.18901, -1.13687e-15, -0.432884 ],
      "max" : [ 0.103118, 2.67026, 0.432884 ],
      "componentType" : 5126,
      "count" : 590,
      "type" : "VEC3"
    },
    {
      "bufferView" : 2,
      "componentType" : 5126,
      "count" : 590,
      "type" : "VEC3"
    },
    {
      "bufferView" : 3,
      "componentType" : 5126,
      "count" : 590,
      "type" : "VEC4"
    },
    {
      "bufferView" : 4,
      "componentType" : 5126,
      "count" : 590,
      "type" : "VEC2"
    },
    {
      "bufferView" : 5,
      "componentType" : 5126,
      "count" : 590,
      "type" : "VEC2"
    },
    {
      "bufferView" : 6,
      "componentType" : 5126,
      "count" : 590,
      "type" : "VEC2"
    },
    {
      "bufferView" : 7,
      "componentType" : 5126,
      "count" : 590,
      "type" : "VEC2"
    },
    {
      "bufferView" : 8,
      "componentType" : 5123,
      "count" : 954,
      "type" : "SCALAR"
    },
    {
      "bufferView" : 9,
      "min" : [ -1.02249, 1.39431, -0.336804 ],
      "max" : [ -0.34861, 2.34049, 0.337071 ],
      "componentType" : 5126,
      "count" : 270,
      "type" : "VEC3"
    },
    {
      "bufferView" : 10,
      "componentType" : 5126,
      "count" : 270,
      "type" : "VEC3"
    },
    {
      "bufferView" : 11,
      "componentType" : 5126,
      "count" : 270,
      "type" : "VEC4"
    },
    {
      "bufferView" : 12,
      "componentType" : 5126,
      "count" : 270,
      "type" : "VEC2"
    },
    {
      "bufferView" : 13,
      "componentType" : 5126,
      "count" : 270,
      "type" : "VEC2"
    },
    {
      "bufferView" : 14,
      "componentType" : 5126,
      "count" : 270,
      "type" : "VEC2"
    },
    {
      "bufferView" : 15,
      "componentType" : 5126,
      "count" : 270,
      "type" : "VEC2"
    },
    {
      "bufferView" : 16,
      "componentType" : 5123,
      "count" : 912,
      "type" : "SCALAR"
    },
    {
      "bufferView" : 17,
      "min" : [ -1.04752, 2.16735, -0.50198 ],
      "max" : [ -0.133357, 2.60031, 0.50198 ],
      "componentType" : 5126,
      "count" : 502,
      "type" : "VEC3"
    },
    {
      "bufferView" : 18,
      "componentType" : 5126,
      "count" : 502,
      "type" : "VEC3"
    },
    {
      "bufferView" : 19,
      "componentType" : 5126,
      "count" : 502,
      "type" : "VEC4"
    },
    {
      "bufferView" : 20,
      "componentType" : 5126,
      "count" : 502,
      "type" : "VEC2"
    },
    {
      "bufferView" : 21,
      "componentType" : 5126,
      "count" : 502,
      "type" : "VEC2"
    },
    {
      "bufferView" : 22,
      "componentType" : 5126,
      "count" : 502,
      "type" : "VEC2"
    },
    {
      "bufferView" : 23,
      "componentType" : 5126,
      "count" : 502,
      "type" : "VEC2"
    }
  ]
}
