{
  "asset" : {
    "generator" : "UE Viewer (umodel) build 1544 based",
    "version" : "2.0"
  },
  "scene" : 0,
  "scenes" : [
    {
      "nodes" : [ 0 ]
    }
  ],
  "nodes" : [
    {
      "name" : "SM_ENV_LKNVLD_InnSignboard_B_Lod1",
      "mesh" : 0
    }
  ],
  "materials" : [
    {
      "name" : "MI_ENV_LKNVLD_WoodPlain_Brown",
      "pbrMetallicRoughness" : {
        "baseColorFactor" : [ 0.3, 0.3, 0.3, 1.0 ],
        "metallicFactor" : 0.1,
        "roughnessFactor" : 0.5
      }
    },
    {
      "name" : "MI_ENV_LKNVLD_InnSignboard_C",
      "pbrMetallicRoughness" : {
        "baseColorFactor" : [ 0.9, 0.3, 0.3, 1.0 ],
        "metallicFactor" : 0.1,
        "roughnessFactor" : 0.5
      }
    },
    {
      "name" : "MI_ENV_LKNVLD_Roof_A",
      "pbrMetallicRoughness" : {
        "baseColorFactor" : [ 0.3, 0.9, 0.3, 1.0 ],
        "metallicFactor" : 0.1,
        "roughnessFactor" : 0.5
      }
    }
  ],
  "meshes" : [
    {
      "primitives" : [
        {
          "attributes" : {
            "POSITION" : 1,
            "NORMAL" : 2,
            "TANGENT" : 3,
            "TEXCOORD_0" : 4,
            "TEXCOORD_1" : 5,
            "TEXCOORD_2" : 6,
            "TEXCOORD_3" : 7
          },
          "indices" : 0,
          "material" : 0
        },
        {
          "attributes" : {
            "POSITION" : 9,
            "NORMAL" : 10,
            "TANGENT" : 11,
            "TEXCOORD_0" : 12,
            "TEXCOORD_1" : 13,
            "TEXCOORD_2" : 14,
            "TEXCOORD_3" : 15
          },
          "indices" : 8,
          "material" : 1
        },
        {
          "attributes" : {
            "POSITION" : 17,
            "NORMAL" : 18,
            "TANGENT" : 19,
            "TEXCOORD_0" : 20,
            "TEXCOORD_1" : 21,
            "TEXCOORD_2" : 22,
            "TEXCOORD_3" : 23
          },
          "indices" : 16,
          "material" : 2
        }
      ],
      "name" : "SM_ENV_LKNVLD_InnSignboard_B_Lod1"
    }
  ],
  "buffers" : [
    {
      "uri" : "SM_ENV_LKNVLD_InnSignboard_B_Lod1.bin",
      "byteLength" : 129044
    }
  ],
  "bufferViews" : [
    {
      "buffer" : 0,
      "byteOffset" : 0,
      "byteLength" : 2564
    },
    {
      "buffer" : 0,
      "byteOffset" : 2564,
      "byteLength" : 7944
    },
    {
      "buffer" : 0,
      "byteOffset" : 10508,
      "byteLength" : 7944
    },
    {
      "buffer" : 0,
      "byteOffset" : 18452,
      "byteLength" : 10592
    },
    {
      "buffer" : 0,
      "byteOffset" : 29044,
      "byteLength" : 5296
    },
    {
      "buffer" : 0,
      "byteOffset" : 34340,
      "byteLength" : 5296
    },
    {
      "buffer" : 0,
      "byteOffset" : 39636,
      "byteLength" : 5296
    },
    {
      "buffer" : 0,
      "byteOffset" : 44932,
      "byteLength" : 5296
    },
    {
      "buffer" : 0,
      "byteOffset" : 50228,
      "byteLength" : 3396
    },
    {
      "buffer" : 0,
      "byteOffset" : 53624,
      "byteLength" : 4728
    },
    {
      "buffer" : 0,
      "byteOffset" : 58352,
      "byteLength" : 4728
    },
    {
      "buffer" : 0,
      "byteOffset" : 63080,
      "byteLength" : 6304
    },
    {
      "buffer" : 0,
      "byteOffset" : 69384,
      "byteLength" : 3152
    },
    {
      "buffer" : 0,
      "byteOffset" : 72536,
      "byteLength" : 3152
    },
    {
      "buffer" : 0,
      "byteOffset" : 75688,
      "byteLength" : 3152
    },
    {
      "buffer" : 0,
      "byteOffset" : 78840,
      "byteLength" : 3152
    },
    {
      "buffer" : 0,
      "byteOffset" : 81992,
      "byteLength" : 2340
    },
    {
      "buffer" : 0,
      "byteOffset" : 84332,
      "byteLength" : 7452
    },
    {
      "buffer" : 0,
      "byteOffset" : 91784,
      "byteLength" : 7452
    },
    {
      "buffer" : 0,
      "byteOffset" : 99236,
      "byteLength" : 9936
    },
    {
      "buffer" : 0,
      "byteOffset" : 109172,
      "byteLength" : 4968
    },
    {
      "buffer" : 0,
      "byteOffset" : 114140,
      "byteLength" : 4968
    },
    {
      "buffer" : 0,
      "byteOffset" : 119108,
      "byteLength" : 4968
    },
    {
      "buffer" : 0,
      "byteOffset" : 124076,
      "byteLength" : 4968
    }
  ],
  "accessors" : [
    {
      "bufferView" : 0,
      "componentType" : 5123,
      "count" : 1281,
      "type" : "SCALAR"
    },
    {
      "bufferView" : 1,
      "min" : [ -1.18901, -1.13687e-15, -0.432926 ],
      "max" : [ 0.103118, 2.67026, 0.432926 ],
      "componentType" : 5126,
      "count" : 662,
      "type" : "VEC3"
    },
    {
      "bufferView" : 2,
      "componentType" : 5126,
      "count" : 662,
      "type" : "VEC3"
    },
    {
      "bufferView" : 3,
      "componentType" : 5126,
      "count" : 662,
      "type" : "VEC4"
    },
    {
      "bufferView" : 4,
      "componentType" : 5126,
      "count" : 662,
      "type" : "VEC2"
    },
    {
      "bufferView" : 5,
      "componentType" : 5126,
      "count" : 662,
      "type" : "VEC2"
    },
    {
      "bufferView" : 6,
      "componentType" : 5126,
      "count" : 662,
      "type" : "VEC2"
    },
    {
      "bufferView" : 7,
      "componentType" : 5126,
      "count" : 662,
      "type" : "VEC2"
    },
    {
      "bufferView" : 8,
      "componentType" : 5123,
      "count" : 1698,
      "type" : "SCALAR"
    },
    {
      "bufferView" : 9,
      "min" : [ -1.02249, 1.39431, -0.340524 ],
      "max" : [ -0.347726, 2.34049, 0.337071 ],
      "componentType" : 5126,
      "count" : 394,
      "type" : "VEC3"
    },
    {
      "bufferView" : 10,
      "componentType" : 5126,
      "count" : 394,
      "type" : "VEC3"
    },
    {
      "bufferView" : 11,
      "componentType" : 5126,
      "count" : 394,
      "type" : "VEC4"
    },
    {
      "bufferView" : 12,
      "componentType" : 5126,
      "count" : 394,
      "type" : "VEC2"
    },
    {
      "bufferView" : 13,
      "componentType" : 5126,
      "count" : 394,
      "type" : "VEC2"
    },
    {
      "bufferView" : 14,
      "componentType" : 5126,
      "count" : 394,
      "type" : "VEC2"
    },
    {
      "bufferView" : 15,
      "componentType" : 5126,
      "count" : 394,
      "type" : "VEC2"
    },
    {
      "bufferView" : 16,
      "componentType" : 5123,
      "count" : 1170,
      "type" : "SCALAR"
    },
    {
      "bufferView" : 17,
      "min" : [ -1.04752, 2.16735, -0.50198 ],
      "max" : [ -0.133357, 2.60031, 0.50198 ],
      "componentType" : 5126,
      "count" : 621,
      "type" : "VEC3"
    },
    {
      "bufferView" : 18,
      "componentType" : 5126,
      "count" : 621,
      "type" : "VEC3"
    },
    {
      "bufferView" : 19,
      "componentType" : 5126,
      "count" : 621,
      "type" : "VEC4"
    },
    {
      "bufferView" : 20,
      "componentType" : 5126,
      "count" : 621,
      "type" : "VEC2"
    },
    {
      "bufferView" : 21,
      "componentType" : 5126,
      "count" : 621,
      "type" : "VEC2"
    },
    {
      "bufferView" : 22,
      "componentType" : 5126,
      "count" : 621,
      "type" : "VEC2"
    },
    {
      "bufferView" : 23,
      "componentType" : 5126,
      "count" : 621,
      "type" : "VEC2"
    }
  ]
}
