{
  "asset" : {
    "generator" : "UE Viewer (umodel) build 1544 based",
    "version" : "2.0"
  },
  "scene" : 0,
  "scenes" : [
    {
      "nodes" : [ 0 ]
    }
  ],
  "nodes" : [
    {
      "name" : "SM_ENV_LKNVLD_RockMiddle_C",
      "mesh" : 0
    }
  ],
  "materials" : [
    {
      "name" : "MI_ENV_LKNVLD_MiddleRock_A",
      "pbrMetallicRoughness" : {
        "baseColorFactor" : [ 0.3, 0.3, 0.3, 1.0 ],
        "metallicFactor" : 0.1,
        "roughnessFactor" : 0.5
      }
    }
  ],
  "meshes" : [
    {
      "primitives" : [
        {
          "attributes" : {
            "POSITION" : 1,
            "NORMAL" : 2,
            "TANGENT" : 3,
            "COLOR_0" : 4,
            "TEXCOORD_0" : 5,
            "TEXCOORD_1" : 6,
            "TEXCOORD_2" : 7,
            "TEXCOORD_3" : 8
          },
          "indices" : 0,
          "material" : 0
        }
      ],
      "name" : "SM_ENV_LKNVLD_RockMiddle_C"
    }
  ],
  "buffers" : [
    {
      "uri" : "SM_ENV_LKNVLD_RockMiddle_C.bin",
      "byteLength" : 55312
    }
  ],
  "bufferViews" : [
    {
      "buffer" : 0,
      "byteOffset" : 0,
      "byteLength" : 4088
    },
    {
      "buffer" : 0,
      "byteOffset" : 4088,
      "byteLength" : 8088
    },
    {
      "buffer" : 0,
      "byteOffset" : 12176,
      "byteLength" : 8088
    },
    {
      "buffer" : 0,
      "byteOffset" : 20264,
      "byteLength" : 10784
    },
    {
      "buffer" : 0,
      "byteOffset" : 31048,
      "byteLength" : 2696
    },
    {
      "buffer" : 0,
      "byteOffset" : 33744,
      "byteLength" : 5392
    },
    {
      "buffer" : 0,
      "byteOffset" : 39136,
      "byteLength" : 5392
    },
    {
      "buffer" : 0,
      "byteOffset" : 44528,
      "byteLength" : 5392
    },
    {
      "buffer" : 0,
      "byteOffset" : 49920,
      "byteLength" : 5392
    }
  ],
  "accessors" : [
    {
      "bufferView" : 0,
      "componentType" : 5123,
      "count" : 2043,
      "type" : "SCALAR"
    },
    {
      "bufferView" : 1,
      "min" : [ -41.9933, -0.292944, -53.1428 ],
      "max" : [ -30.4981, 1.68147, -44.6562 ],
      "componentType" : 5126,
      "count" : 674,
      "type" : "VEC3"
    },
    {
      "bufferView" : 2,
      "componentType" : 5126,
      "count" : 674,
      "type" : "VEC3"
    },
    {
      "bufferView" : 3,
      "componentType" : 5126,
      "count" : 674,
      "type" : "VEC4"
    },
    {
      "bufferView" : 4,
      "normalized" : true,
      "componentType" : 5121,
      "count" : 674,
      "type" : "VEC4"
    },
    {
      "bufferView" : 5,
      "componentType" : 5126,
      "count" : 674,
      "type" : "VEC2"
    },
    {
      "bufferView" : 6,
      "componentType" : 5126,
      "count" : 674,
      "type" : "VEC2"
    },
    {
      "bufferView" : 7,
      "componentType" : 5126,
      "count" : 674,
      "type" : "VEC2"
    },
    {
      "bufferView" : 8,
      "componentType" : 5126,
      "count" : 674,
      "type" : "VEC2"
    }
  ]
}
