{
  "asset" : {
    "generator" : "UE Viewer (umodel) build 1544 based",
    "version" : "2.0"
  },
  "scene" : 0,
  "scenes" : [
    {
      "nodes" : [ 0 ]
    }
  ],
  "nodes" : [
    {
      "name" : "SM_ENV_LKNVLD_Event_SL_Line_Ground_A",
      "mesh" : 0
    }
  ],
  "materials" : [
    {
      "name" : "MI_ENV_LKNVLD_Stall_I",
      "pbrMetallicRoughness" : {
        "baseColorFactor" : [ 0.3, 0.3, 0.3, 1.0 ],
        "metallicFactor" : 0.1,
        "roughnessFactor" : 0.5
      }
    },
    {
      "name" : "MI_ENV_LKNVLD_Neon_A1",
      "pbrMetallicRoughness" : {
        "baseColorFactor" : [ 0.9, 0.3, 0.3, 1.0 ],
        "metallicFactor" : 0.1,
        "roughnessFactor" : 0.5
      }
    }
  ],
  "meshes" : [
    {
      "primitives" : [
        {
          "attributes" : {
            "POSITION" : 1,
            "NORMAL" : 2,
            "TANGENT" : 3,
            "COLOR_0" : 4,
            "TEXCOORD_0" : 5,
            "TEXCOORD_1" : 6,
            "TEXCOORD_2" : 7,
            "TEXCOORD_3" : 8
          },
          "indices" : 0,
          "material" : 0
        },
        {
          "attributes" : {
            "POSITION" : 10,
            "NORMAL" : 11,
            "TANGENT" : 12,
            "COLOR_0" : 13,
            "TEXCOORD_0" : 14,
            "TEXCOORD_1" : 15,
            "TEXCOORD_2" : 16,
            "TEXCOORD_3" : 17
          },
          "indices" : 9,
          "material" : 1
        }
      ],
      "name" : "SM_ENV_LKNVLD_Event_SL_Line_Ground_A"
    }
  ],
  "buffers" : [
    {
      "uri" : "SM_ENV_LKNVLD_Event_SL_Line_Ground_A.bin",
      "byteLength" : 252732
    }
  ],
  "bufferViews" : [
    {
      "buffer" : 0,
      "byteOffset" : 0,
      "byteLength" : 9240
    },
    {
      "buffer" : 0,
      "byteOffset" : 9240,
      "byteLength" : 33360
    },
    {
      "buffer" : 0,
      "byteOffset" : 42600,
      "byteLength" : 33360
    },
    {
      "buffer" : 0,
      "byteOffset" : 75960,
      "byteLength" : 44480
    },
    {
      "buffer" : 0,
      "byteOffset" : 120440,
      "byteLength" : 11120
    },
    {
      "buffer" : 0,
      "byteOffset" : 131560,
      "byteLength" : 22240
    },
    {
      "buffer" : 0,
      "byteOffset" : 153800,
      "byteLength" : 22240
    },
    {
      "buffer" : 0,
      "byteOffset" : 176040,
      "byteLength" : 22240
    },
    {
      "buffer" : 0,
      "byteOffset" : 198280,
      "byteLength" : 22240
    },
    {
      "buffer" : 0,
      "byteOffset" : 220520,
      "byteLength" : 1584
    },
    {
      "buffer" : 0,
      "byteOffset" : 222104,
      "byteLength" : 4836
    },
    {
      "buffer" : 0,
      "byteOffset" : 226940,
      "byteLength" : 4836
    },
    {
      "buffer" : 0,
      "byteOffset" : 231776,
      "byteLength" : 6448
    },
    {
      "buffer" : 0,
      "byteOffset" : 238224,
      "byteLength" : 1612
    },
    {
      "buffer" : 0,
      "byteOffset" : 239836,
      "byteLength" : 3224
    },
    {
      "buffer" : 0,
      "byteOffset" : 243060,
      "byteLength" : 3224
    },
    {
      "buffer" : 0,
      "byteOffset" : 246284,
      "byteLength" : 3224
    },
    {
      "buffer" : 0,
      "byteOffset" : 249508,
      "byteLength" : 3224
    }
  ],
  "accessors" : [
    {
      "bufferView" : 0,
      "componentType" : 5123,
      "count" : 4620,
      "type" : "SCALAR"
    },
    {
      "bufferView" : 1,
      "min" : [ -26.9834, -0.409146, -30.5332 ],
      "max" : [ 26.9717, -0.0593052, 67.2957 ],
      "componentType" : 5126,
      "count" : 2780,
      "type" : "VEC3"
    },
    {
      "bufferView" : 2,
      "componentType" : 5126,
      "count" : 2780,
      "type" : "VEC3"
    },
    {
      "bufferView" : 3,
      "componentType" : 5126,
      "count" : 2780,
      "type" : "VEC4"
    },
    {
      "bufferView" : 4,
      "normalized" : true,
      "componentType" : 5121,
      "count" : 2780,
      "type" : "VEC4"
    },
    {
      "bufferView" : 5,
      "componentType" : 5126,
      "count" : 2780,
      "type" : "VEC2"
    },
    {
      "bufferView" : 6,
      "componentType" : 5126,
      "count" : 2780,
      "type" : "VEC2"
    },
    {
      "bufferView" : 7,
      "componentType" : 5126,
      "count" : 2780,
      "type" : "VEC2"
    },
    {
      "bufferView" : 8,
      "componentType" : 5126,
      "count" : 2780,
      "type" : "VEC2"
    },
    {
      "bufferView" : 9,
      "componentType" : 5123,
      "count" : 792,
      "type" : "SCALAR"
    },
    {
      "bufferView" : 10,
      "min" : [ -26.9727, -0.426586, -30.5277 ],
      "max" : [ 26.9757, -0.0925186, 67.265 ],
      "componentType" : 5126,
      "count" : 403,
      "type" : "VEC3"
    },
    {
      "bufferView" : 11,
      "componentType" : 5126,
      "count" : 403,
      "type" : "VEC3"
    },
    {
      "bufferView" : 12,
      "componentType" : 5126,
      "count" : 403,
      "type" : "VEC4"
    },
    {
      "bufferView" : 13,
      "normalized" : true,
      "componentType" : 5121,
      "count" : 403,
      "type" : "VEC4"
    },
    {
      "bufferView" : 14,
      "componentType" : 5126,
      "count" : 403,
      "type" : "VEC2"
    },
    {
      "bufferView" : 15,
      "componentType" : 5126,
      "count" : 403,
      "type" : "VEC2"
    },
    {
      "bufferView" : 16,
      "componentType" : 5126,
      "count" : 403,
      "type" : "VEC2"
    },
    {
      "bufferView" : 17,
      "componentType" : 5126,
      "count" : 403,
      "type" : "VEC2"
    }
  ]
}
