{
  "asset" : {
    "generator" : "UE Viewer (umodel) build 1544 based",
    "version" : "2.0"
  },
  "scene" : 0,
  "scenes" : [
    {
      "nodes" : [ 0 ]
    }
  ],
  "nodes" : [
    {
      "name" : "SM_ENV_LKNVLD_Ninkai_Taremaku_A",
      "mesh" : 0
    }
  ],
  "materials" : [
    {
      "name" : "MI_ENV_LKNVLD_Ninkai_Makimono_A",
      "pbrMetallicRoughness" : {
        "baseColorFactor" : [ 0.3, 0.3, 0.3, 1.0 ],
        "metallicFactor" : 0.1,
        "roughnessFactor" : 0.5
      }
    }
  ],
  "meshes" : [
    {
      "primitives" : [
        {
          "attributes" : {
            "POSITION" : 1,
            "NORMAL" : 2,
            "TANGENT" : 3,
            "COLOR_0" : 4,
            "TEXCOORD_0" : 5,
            "TEXCOORD_1" : 6,
            "TEXCOORD_2" : 7,
            "TEXCOORD_3" : 8
          },
          "indices" : 0,
          "material" : 0
        }
      ],
      "name" : "SM_ENV_LKNVLD_Ninkai_Taremaku_A"
    }
  ],
  "buffers" : [
    {
      "uri" : "SM_ENV_LKNVLD_Ninkai_Taremaku_A.bin",
      "byteLength" : 39384
    }
  ],
  "bufferViews" : [
    {
      "buffer" : 0,
      "byteOffset" : 0,
      "byteLength" : 2448
    },
    {
      "buffer" : 0,
      "byteOffset" : 2448,
      "byteLength" : 5832
    },
    {
      "buffer" : 0,
      "byteOffset" : 8280,
      "byteLength" : 5832
    },
    {
      "buffer" : 0,
      "byteOffset" : 14112,
      "byteLength" : 7776
    },
    {
      "buffer" : 0,
      "byteOffset" : 21888,
      "byteLength" : 1944
    },
    {
      "buffer" : 0,
      "byteOffset" : 23832,
      "byteLength" : 3888
    },
    {
      "buffer" : 0,
      "byteOffset" : 27720,
      "byteLength" : 3888
    },
    {
      "buffer" : 0,
      "byteOffset" : 31608,
      "byteLength" : 3888
    },
    {
      "buffer" : 0,
      "byteOffset" : 35496,
      "byteLength" : 3888
    }
  ],
  "accessors" : [
    {
      "bufferView" : 0,
      "componentType" : 5123,
      "count" : 1224,
      "type" : "SCALAR"
    },
    {
      "bufferView" : 1,
      "min" : [ -70.2291, 18.2297, -64.3044 ],
      "max" : [ 66.0438, 34.2154, 86.8733 ],
      "componentType" : 5126,
      "count" : 486,
      "type" : "VEC3"
    },
    {
      "bufferView" : 2,
      "componentType" : 5126,
      "count" : 486,
      "type" : "VEC3"
    },
    {
      "bufferView" : 3,
      "componentType" : 5126,
      "count" : 486,
      "type" : "VEC4"
    },
    {
      "bufferView" : 4,
      "normalized" : true,
      "componentType" : 5121,
      "count" : 486,
      "type" : "VEC4"
    },
    {
      "bufferView" : 5,
      "componentType" : 5126,
      "count" : 486,
      "type" : "VEC2"
    },
    {
      "bufferView" : 6,
      "componentType" : 5126,
      "count" : 486,
      "type" : "VEC2"
    },
    {
      "bufferView" : 7,
      "componentType" : 5126,
      "count" : 486,
      "type" : "VEC2"
    },
    {
      "bufferView" : 8,
      "componentType" : 5126,
      "count" : 486,
      "type" : "VEC2"
    }
  ]
}
