{
  "asset" : {
    "generator" : "UE Viewer (umodel) build 1544 based",
    "version" : "2.0"
  },
  "scene" : 0,
  "scenes" : [
    {
      "nodes" : [ 0 ]
    }
  ],
  "nodes" : [
    {
      "name" : "SM_ENV_LKNVLD_PaperLantern_C",
      "mesh" : 0
    }
  ],
  "materials" : [
    {
      "name" : "MI_ENV_LKNVLD_Bench_A",
      "pbrMetallicRoughness" : {
        "baseColorFactor" : [ 0.3, 0.3, 0.3, 1.0 ],
        "metallicFactor" : 0.1,
        "roughnessFactor" : 0.5
      }
    },
    {
      "name" : "MI_ENV_LKNVLD_Sticker_01",
      "pbrMetallicRoughness" : {
        "baseColorFactor" : [ 0.9, 0.3, 0.3, 1.0 ],
        "metallicFactor" : 0.1,
        "roughnessFactor" : 0.5
      }
    }
  ],
  "meshes" : [
    {
      "primitives" : [
        {
          "attributes" : {
            "POSITION" : 1,
            "NORMAL" : 2,
            "TANGENT" : 3,
            "COLOR_0" : 4,
            "TEXCOORD_0" : 5,
            "TEXCOORD_1" : 6,
            "TEXCOORD_2" : 7,
            "TEXCOORD_3" : 8
          },
          "indices" : 0,
          "material" : 0
        },
        {
          "attributes" : {
            "POSITION" : 10,
            "NORMAL" : 11,
            "TANGENT" : 12,
            "COLOR_0" : 13,
            "TEXCOORD_0" : 14,
            "TEXCOORD_1" : 15,
            "TEXCOORD_2" : 16,
            "TEXCOORD_3" : 17
          },
          "indices" : 9,
          "material" : 1
        }
      ],
      "name" : "SM_ENV_LKNVLD_PaperLantern_C"
    }
  ],
  "buffers" : [
    {
      "uri" : "SM_ENV_LKNVLD_PaperLantern_C.bin",
      "byteLength" : 29828
    }
  ],
  "bufferViews" : [
    {
      "buffer" : 0,
      "byteOffset" : 0,
      "byteLength" : 1248
    },
    {
      "buffer" : 0,
      "byteOffset" : 1248,
      "byteLength" : 4176
    },
    {
      "buffer" : 0,
      "byteOffset" : 5424,
      "byteLength" : 4176
    },
    {
      "buffer" : 0,
      "byteOffset" : 9600,
      "byteLength" : 5568
    },
    {
      "buffer" : 0,
      "byteOffset" : 15168,
      "byteLength" : 1392
    },
    {
      "buffer" : 0,
      "byteOffset" : 16560,
      "byteLength" : 2784
    },
    {
      "buffer" : 0,
      "byteOffset" : 19344,
      "byteLength" : 2784
    },
    {
      "buffer" : 0,
      "byteOffset" : 22128,
      "byteLength" : 2784
    },
    {
      "buffer" : 0,
      "byteOffset" : 24912,
      "byteLength" : 2784
    },
    {
      "buffer" : 0,
      "byteOffset" : 27696,
      "byteLength" : 80
    },
    {
      "buffer" : 0,
      "byteOffset" : 27776,
      "byteLength" : 324
    },
    {
      "buffer" : 0,
      "byteOffset" : 28100,
      "byteLength" : 324
    },
    {
      "buffer" : 0,
      "byteOffset" : 28424,
      "byteLength" : 432
    },
    {
      "buffer" : 0,
      "byteOffset" : 28856,
      "byteLength" : 108
    },
    {
      "buffer" : 0,
      "byteOffset" : 28964,
      "byteLength" : 216
    },
    {
      "buffer" : 0,
      "byteOffset" : 29180,
      "byteLength" : 216
    },
    {
      "buffer" : 0,
      "byteOffset" : 29396,
      "byteLength" : 216
    },
    {
      "buffer" : 0,
      "byteOffset" : 29612,
      "byteLength" : 216
    }
  ],
  "accessors" : [
    {
      "bufferView" : 0,
      "componentType" : 5123,
      "count" : 624,
      "type" : "SCALAR"
    },
    {
      "bufferView" : 1,
      "min" : [ -0.196902, 0, -0.196586 ],
      "max" : [ 0.196902, 0.984375, 0.196586 ],
      "componentType" : 5126,
      "count" : 348,
      "type" : "VEC3"
    },
    {
      "bufferView" : 2,
      "componentType" : 5126,
      "count" : 348,
      "type" : "VEC3"
    },
    {
      "bufferView" : 3,
      "componentType" : 5126,
      "count" : 348,
      "type" : "VEC4"
    },
    {
      "bufferView" : 4,
      "normalized" : true,
      "componentType" : 5121,
      "count" : 348,
      "type" : "VEC4"
    },
    {
      "bufferView" : 5,
      "componentType" : 5126,
      "count" : 348,
      "type" : "VEC2"
    },
    {
      "bufferView" : 6,
      "componentType" : 5126,
      "count" : 348,
      "type" : "VEC2"
    },
    {
      "bufferView" : 7,
      "componentType" : 5126,
      "count" : 348,
      "type" : "VEC2"
    },
    {
      "bufferView" : 8,
      "componentType" : 5126,
      "count" : 348,
      "type" : "VEC2"
    },
    {
      "bufferView" : 9,
      "componentType" : 5123,
      "count" : 39,
      "type" : "SCALAR"
    },
    {
      "bufferView" : 10,
      "min" : [ -0.201601, 0.0661312, -0.2017 ],
      "max" : [ 0.198237, 0.921129, 0.201767 ],
      "componentType" : 5126,
      "count" : 27,
      "type" : "VEC3"
    },
    {
      "bufferView" : 11,
      "componentType" : 5126,
      "count" : 27,
      "type" : "VEC3"
    },
    {
      "bufferView" : 12,
      "componentType" : 5126,
      "count" : 27,
      "type" : "VEC4"
    },
    {
      "bufferView" : 13,
      "normalized" : true,
      "componentType" : 5121,
      "count" : 27,
      "type" : "VEC4"
    },
    {
      "bufferView" : 14,
      "componentType" : 5126,
      "count" : 27,
      "type" : "VEC2"
    },
    {
      "bufferView" : 15,
      "componentType" : 5126,
      "count" : 27,
      "type" : "VEC2"
    },
    {
      "bufferView" : 16,
      "componentType" : 5126,
      "count" : 27,
      "type" : "VEC2"
    },
    {
      "bufferView" : 17,
      "componentType" : 5126,
      "count" : 27,
      "type" : "VEC2"
    }
  ]
}
