{
  "asset" : {
    "generator" : "UE Viewer (umodel) build 1544 based",
    "version" : "2.0"
  },
  "scene" : 0,
  "scenes" : [
    {
      "nodes" : [ 0 ]
    }
  ],
  "nodes" : [
    {
      "name" : "SM_ENV_LKNVLD_UmbrellaStand_A",
      "mesh" : 0
    }
  ],
  "materials" : [
    {
      "name" : "MI_LKNVLD_Umbrella_A",
      "pbrMetallicRoughness" : {
        "baseColorFactor" : [ 0.3, 0.3, 0.3, 1.0 ],
        "metallicFactor" : 0.1,
        "roughnessFactor" : 0.5
      }
    }
  ],
  "meshes" : [
    {
      "primitives" : [
        {
          "attributes" : {
            "POSITION" : 1,
            "NORMAL" : 2,
            "TANGENT" : 3,
            "TEXCOORD_0" : 4,
            "TEXCOORD_1" : 5,
            "TEXCOORD_2" : 6,
            "TEXCOORD_3" : 7
          },
          "indices" : 0,
          "material" : 0
        }
      ],
      "name" : "SM_ENV_LKNVLD_UmbrellaStand_A"
    }
  ],
  "buffers" : [
    {
      "uri" : "SM_ENV_LKNVLD_UmbrellaStand_A.bin",
      "byteLength" : 35880
    }
  ],
  "bufferViews" : [
    {
      "buffer" : 0,
      "byteOffset" : 0,
      "byteLength" : 2688
    },
    {
      "buffer" : 0,
      "byteOffset" : 2688,
      "byteLength" : 5532
    },
    {
      "buffer" : 0,
      "byteOffset" : 8220,
      "byteLength" : 5532
    },
    {
      "buffer" : 0,
      "byteOffset" : 13752,
      "byteLength" : 7376
    },
    {
      "buffer" : 0,
      "byteOffset" : 21128,
      "byteLength" : 3688
    },
    {
      "buffer" : 0,
      "byteOffset" : 24816,
      "byteLength" : 3688
    },
    {
      "buffer" : 0,
      "byteOffset" : 28504,
      "byteLength" : 3688
    },
    {
      "buffer" : 0,
      "byteOffset" : 32192,
      "byteLength" : 3688
    }
  ],
  "accessors" : [
    {
      "bufferView" : 0,
      "componentType" : 5123,
      "count" : 1344,
      "type" : "SCALAR"
    },
    {
      "bufferView" : 1,
      "min" : [ -0.270814, -1.52588e-07, -0.262854 ],
      "max" : [ 0.270814, 0.568127, 0.28038 ],
      "componentType" : 5126,
      "count" : 461,
      "type" : "VEC3"
    },
    {
      "bufferView" : 2,
      "componentType" : 5126,
      "count" : 461,
      "type" : "VEC3"
    },
    {
      "bufferView" : 3,
      "componentType" : 5126,
      "count" : 461,
      "type" : "VEC4"
    },
    {
      "bufferView" : 4,
      "componentType" : 5126,
      "count" : 461,
      "type" : "VEC2"
    },
    {
      "bufferView" : 5,
      "componentType" : 5126,
      "count" : 461,
      "type" : "VEC2"
    },
    {
      "bufferView" : 6,
      "componentType" : 5126,
      "count" : 461,
      "type" : "VEC2"
    },
    {
      "bufferView" : 7,
      "componentType" : 5126,
      "count" : 461,
      "type" : "VEC2"
    }
  ]
}
