{
  "asset" : {
    "generator" : "UE Viewer (umodel) build 1544 based",
    "version" : "2.0"
  },
  "scene" : 0,
  "scenes" : [
    {
      "nodes" : [ 0 ]
    }
  ],
  "nodes" : [
    {
      "name" : "SM_ENV_LKNVLD_ShopFlag_A",
      "mesh" : 0
    }
  ],
  "materials" : [
    {
      "name" : "MI_ENV_LKNVLD_Curtain_B",
      "pbrMetallicRoughness" : {
        "baseColorFactor" : [ 0.3, 0.3, 0.3, 1.0 ],
        "metallicFactor" : 0.1,
        "roughnessFactor" : 0.5
      }
    },
    {
      "name" : "MI_ENV_LKNVLD_MetalRoofDark",
      "pbrMetallicRoughness" : {
        "baseColorFactor" : [ 0.9, 0.3, 0.3, 1.0 ],
        "metallicFactor" : 0.1,
        "roughnessFactor" : 0.5
      }
    }
  ],
  "meshes" : [
    {
      "primitives" : [
        {
          "attributes" : {
            "POSITION" : 1,
            "NORMAL" : 2,
            "TANGENT" : 3,
            "COLOR_0" : 4,
            "TEXCOORD_0" : 5,
            "TEXCOORD_1" : 6,
            "TEXCOORD_2" : 7,
            "TEXCOORD_3" : 8
          },
          "indices" : 0,
          "material" : 0
        },
        {
          "attributes" : {
            "POSITION" : 10,
            "NORMAL" : 11,
            "TANGENT" : 12,
            "COLOR_0" : 13,
            "TEXCOORD_0" : 14,
            "TEXCOORD_1" : 15,
            "TEXCOORD_2" : 16,
            "TEXCOORD_3" : 17
          },
          "indices" : 9,
          "material" : 1
        }
      ],
      "name" : "SM_ENV_LKNVLD_ShopFlag_A"
    }
  ],
  "buffers" : [
    {
      "uri" : "SM_ENV_LKNVLD_ShopFlag_A.bin",
      "byteLength" : 111752
    }
  ],
  "bufferViews" : [
    {
      "buffer" : 0,
      "byteOffset" : 0,
      "byteLength" : 4872
    },
    {
      "buffer" : 0,
      "byteOffset" : 4872,
      "byteLength" : 9240
    },
    {
      "buffer" : 0,
      "byteOffset" : 14112,
      "byteLength" : 9240
    },
    {
      "buffer" : 0,
      "byteOffset" : 23352,
      "byteLength" : 12320
    },
    {
      "buffer" : 0,
      "byteOffset" : 35672,
      "byteLength" : 3080
    },
    {
      "buffer" : 0,
      "byteOffset" : 38752,
      "byteLength" : 6160
    },
    {
      "buffer" : 0,
      "byteOffset" : 44912,
      "byteLength" : 6160
    },
    {
      "buffer" : 0,
      "byteOffset" : 51072,
      "byteLength" : 6160
    },
    {
      "buffer" : 0,
      "byteOffset" : 57232,
      "byteLength" : 6160
    },
    {
      "buffer" : 0,
      "byteOffset" : 63392,
      "byteLength" : 4128
    },
    {
      "buffer" : 0,
      "byteOffset" : 67520,
      "byteLength" : 6984
    },
    {
      "buffer" : 0,
      "byteOffset" : 74504,
      "byteLength" : 6984
    },
    {
      "buffer" : 0,
      "byteOffset" : 81488,
      "byteLength" : 9312
    },
    {
      "buffer" : 0,
      "byteOffset" : 90800,
      "byteLength" : 2328
    },
    {
      "buffer" : 0,
      "byteOffset" : 93128,
      "byteLength" : 4656
    },
    {
      "buffer" : 0,
      "byteOffset" : 97784,
      "byteLength" : 4656
    },
    {
      "buffer" : 0,
      "byteOffset" : 102440,
      "byteLength" : 4656
    },
    {
      "buffer" : 0,
      "byteOffset" : 107096,
      "byteLength" : 4656
    }
  ],
  "accessors" : [
    {
      "bufferView" : 0,
      "componentType" : 5123,
      "count" : 2436,
      "type" : "SCALAR"
    },
    {
      "bufferView" : 1,
      "min" : [ -36.0198, 7.2949, 12.865 ],
      "max" : [ -19.845, 22.6073, 28.8987 ],
      "componentType" : 5126,
      "count" : 770,
      "type" : "VEC3"
    },
    {
      "bufferView" : 2,
      "componentType" : 5126,
      "count" : 770,
      "type" : "VEC3"
    },
    {
      "bufferView" : 3,
      "componentType" : 5126,
      "count" : 770,
      "type" : "VEC4"
    },
    {
      "bufferView" : 4,
      "normalized" : true,
      "componentType" : 5121,
      "count" : 770,
      "type" : "VEC4"
    },
    {
      "bufferView" : 5,
      "componentType" : 5126,
      "count" : 770,
      "type" : "VEC2"
    },
    {
      "bufferView" : 6,
      "componentType" : 5126,
      "count" : 770,
      "type" : "VEC2"
    },
    {
      "bufferView" : 7,
      "componentType" : 5126,
      "count" : 770,
      "type" : "VEC2"
    },
    {
      "bufferView" : 8,
      "componentType" : 5126,
      "count" : 770,
      "type" : "VEC2"
    },
    {
      "bufferView" : 9,
      "componentType" : 5123,
      "count" : 2064,
      "type" : "SCALAR"
    },
    {
      "bufferView" : 10,
      "min" : [ -36.6265, 5.89911, 11.3943 ],
      "max" : [ -18.3878, 22.6441, 29.4375 ],
      "componentType" : 5126,
      "count" : 582,
      "type" : "VEC3"
    },
    {
      "bufferView" : 11,
      "componentType" : 5126,
      "count" : 582,
      "type" : "VEC3"
    },
    {
      "bufferView" : 12,
      "componentType" : 5126,
      "count" : 582,
      "type" : "VEC4"
    },
    {
      "bufferView" : 13,
      "normalized" : true,
      "componentType" : 5121,
      "count" : 582,
      "type" : "VEC4"
    },
    {
      "bufferView" : 14,
      "componentType" : 5126,
      "count" : 582,
      "type" : "VEC2"
    },
    {
      "bufferView" : 15,
      "componentType" : 5126,
      "count" : 582,
      "type" : "VEC2"
    },
    {
      "bufferView" : 16,
      "componentType" : 5126,
      "count" : 582,
      "type" : "VEC2"
    },
    {
      "bufferView" : 17,
      "componentType" : 5126,
      "count" : 582,
      "type" : "VEC2"
    }
  ]
}
