{
  "asset" : {
    "generator" : "UE Viewer (umodel) build 1544 based",
    "version" : "2.0"
  },
  "scene" : 0,
  "scenes" : [
    {
      "nodes" : [ 0 ]
    }
  ],
  "nodes" : [
    {
      "name" : "SM_ENV_LKNVLD_Cat_HL_Lod2",
      "mesh" : 0
    }
  ],
  "materials" : [
    {
      "name" : "MI_ENV_LKNVLD_LuckyCatSignboard_A",
      "pbrMetallicRoughness" : {
        "baseColorFactor" : [ 0.3, 0.3, 0.3, 1.0 ],
        "metallicFactor" : 0.1,
        "roughnessFactor" : 0.5
      }
    },
    {
      "name" : "MI_ENV_LKNVLD_LuckyCat_HL_Gray",
      "pbrMetallicRoughness" : {
        "baseColorFactor" : [ 0.9, 0.3, 0.3, 1.0 ],
        "metallicFactor" : 0.1,
        "roughnessFactor" : 0.5
      }
    }
  ],
  "meshes" : [
    {
      "primitives" : [
        {
          "attributes" : {
            "POSITION" : 1,
            "NORMAL" : 2,
            "TANGENT" : 3,
            "TEXCOORD_0" : 4,
            "TEXCOORD_1" : 5,
            "TEXCOORD_2" : 6,
            "TEXCOORD_3" : 7
          },
          "indices" : 0,
          "material" : 0
        },
        {
          "attributes" : {
            "POSITION" : 9,
            "NORMAL" : 10,
            "TANGENT" : 11,
            "TEXCOORD_0" : 12,
            "TEXCOORD_1" : 13,
            "TEXCOORD_2" : 14,
            "TEXCOORD_3" : 15
          },
          "indices" : 8,
          "material" : 1
        }
      ],
      "name" : "SM_ENV_LKNVLD_Cat_HL_Lod2"
    }
  ],
  "buffers" : [
    {
      "uri" : "SM_ENV_LKNVLD_Cat_HL_Lod2.bin",
      "byteLength" : 188916
    }
  ],
  "bufferViews" : [
    {
      "buffer" : 0,
      "byteOffset" : 0,
      "byteLength" : 624
    },
    {
      "buffer" : 0,
      "byteOffset" : 624,
      "byteLength" : 1488
    },
    {
      "buffer" : 0,
      "byteOffset" : 2112,
      "byteLength" : 1488
    },
    {
      "buffer" : 0,
      "byteOffset" : 3600,
      "byteLength" : 1984
    },
    {
      "buffer" : 0,
      "byteOffset" : 5584,
      "byteLength" : 992
    },
    {
      "buffer" : 0,
      "byteOffset" : 6576,
      "byteLength" : 992
    },
    {
      "buffer" : 0,
      "byteOffset" : 7568,
      "byteLength" : 992
    },
    {
      "buffer" : 0,
      "byteOffset" : 8560,
      "byteLength" : 992
    },
    {
      "buffer" : 0,
      "byteOffset" : 9552,
      "byteLength" : 18012
    },
    {
      "buffer" : 0,
      "byteOffset" : 27564,
      "byteLength" : 26892
    },
    {
      "buffer" : 0,
      "byteOffset" : 54456,
      "byteLength" : 26892
    },
    {
      "buffer" : 0,
      "byteOffset" : 81348,
      "byteLength" : 35856
    },
    {
      "buffer" : 0,
      "byteOffset" : 117204,
      "byteLength" : 17928
    },
    {
      "buffer" : 0,
      "byteOffset" : 135132,
      "byteLength" : 17928
    },
    {
      "buffer" : 0,
      "byteOffset" : 153060,
      "byteLength" : 17928
    },
    {
      "buffer" : 0,
      "byteOffset" : 170988,
      "byteLength" : 17928
    }
  ],
  "accessors" : [
    {
      "bufferView" : 0,
      "componentType" : 5123,
      "count" : 312,
      "type" : "SCALAR"
    },
    {
      "bufferView" : 1,
      "min" : [ -30.6933, 5.99999, 15.6863 ],
      "max" : [ -23.3128, 7.3817, 23.1075 ],
      "componentType" : 5126,
      "count" : 124,
      "type" : "VEC3"
    },
    {
      "bufferView" : 2,
      "componentType" : 5126,
      "count" : 124,
      "type" : "VEC3"
    },
    {
      "bufferView" : 3,
      "componentType" : 5126,
      "count" : 124,
      "type" : "VEC4"
    },
    {
      "bufferView" : 4,
      "componentType" : 5126,
      "count" : 124,
      "type" : "VEC2"
    },
    {
      "bufferView" : 5,
      "componentType" : 5126,
      "count" : 124,
      "type" : "VEC2"
    },
    {
      "bufferView" : 6,
      "componentType" : 5126,
      "count" : 124,
      "type" : "VEC2"
    },
    {
      "bufferView" : 7,
      "componentType" : 5126,
      "count" : 124,
      "type" : "VEC2"
    },
    {
      "bufferView" : 8,
      "componentType" : 5123,
      "count" : 9006,
      "type" : "SCALAR"
    },
    {
      "bufferView" : 9,
      "min" : [ -32.1432, 5.99999, 15.4036 ],
      "max" : [ -23.0453, 9.7163, 24.5401 ],
      "componentType" : 5126,
      "count" : 2241,
      "type" : "VEC3"
    },
    {
      "bufferView" : 10,
      "componentType" : 5126,
      "count" : 2241,
      "type" : "VEC3"
    },
    {
      "bufferView" : 11,
      "componentType" : 5126,
      "count" : 2241,
      "type" : "VEC4"
    },
    {
      "bufferView" : 12,
      "componentType" : 5126,
      "count" : 2241,
      "type" : "VEC2"
    },
    {
      "bufferView" : 13,
      "componentType" : 5126,
      "count" : 2241,
      "type" : "VEC2"
    },
    {
      "bufferView" : 14,
      "componentType" : 5126,
      "count" : 2241,
      "type" : "VEC2"
    },
    {
      "bufferView" : 15,
      "componentType" : 5126,
      "count" : 2241,
      "type" : "VEC2"
    }
  ]
}
