{
  "asset" : {
    "generator" : "UE Viewer (umodel) build 1544 based",
    "version" : "2.0"
  },
  "scene" : 0,
  "scenes" : [
    {
      "nodes" : [ 0 ]
    }
  ],
  "nodes" : [
    {
      "name" : "SM_ENV_LKNVLD_VRArena_Front_Lod3",
      "mesh" : 0
    }
  ],
  "materials" : [
    {
      "name" : "MI_ENV_LKNVLD_WoodPlain_Red_LOD",
      "pbrMetallicRoughness" : {
        "baseColorFactor" : [ 0.3, 0.3, 0.3, 1.0 ],
        "metallicFactor" : 0.1,
        "roughnessFactor" : 0.5
      }
    },
    {
      "name" : "MI_ENV_LKNVLD_WoodWallSet_LOD",
      "pbrMetallicRoughness" : {
        "baseColorFactor" : [ 0.9, 0.3, 0.3, 1.0 ],
        "metallicFactor" : 0.1,
        "roughnessFactor" : 0.5
      }
    },
    {
      "name" : "MI_ENV_LKNVLD_Signboard_A",
      "pbrMetallicRoughness" : {
        "baseColorFactor" : [ 0.3, 0.9, 0.3, 1.0 ],
        "metallicFactor" : 0.1,
        "roughnessFactor" : 0.5
      }
    },
    {
      "name" : "MI_ENV_LKNVLD_Signboard_B",
      "pbrMetallicRoughness" : {
        "baseColorFactor" : [ 0.3, 0.3, 0.9, 1.0 ],
        "metallicFactor" : 0.1,
        "roughnessFactor" : 0.5
      }
    },
    {
      "name" : "MI_T_ENV_LKNVLD_StoneTrim_LOD",
      "pbrMetallicRoughness" : {
        "baseColorFactor" : [ 0.9, 0.9, 0.9, 1.0 ],
        "metallicFactor" : 0.1,
        "roughnessFactor" : 0.5
      }
    },
    {
      "name" : "MI_ENV_LKNVLD_WoodWallSet_Red_LOD",
      "pbrMetallicRoughness" : {
        "baseColorFactor" : [ 0.9, 0.9, 0.3, 1.0 ],
        "metallicFactor" : 0.1,
        "roughnessFactor" : 0.5
      }
    },
    {
      "name" : "MI_ENV_LKNVLD_Eaves_B_LOD",
      "pbrMetallicRoughness" : {
        "baseColorFactor" : [ 0.9, 0.3, 0.9, 1.0 ],
        "metallicFactor" : 0.1,
        "roughnessFactor" : 0.5
      }
    },
    {
      "name" : "MI_ENV_LKNVLD_Eaves_A_LOD",
      "pbrMetallicRoughness" : {
        "baseColorFactor" : [ 0.3, 0.9, 0.9, 1.0 ],
        "metallicFactor" : 0.1,
        "roughnessFactor" : 0.5
      }
    },
    {
      "name" : "MI_ENV_LKNVLD_Plaster_Purple_LOD",
      "pbrMetallicRoughness" : {
        "baseColorFactor" : [ 1, 0.3, 0.3, 1.0 ],
        "metallicFactor" : 0.1,
        "roughnessFactor" : 0.5
      }
    },
    {
      "name" : "MI_ENV_LKNVLD_Lantern_A",
      "pbrMetallicRoughness" : {
        "baseColorFactor" : [ 0.6, 0.3, 0.3, 1.0 ],
        "metallicFactor" : 0.1,
        "roughnessFactor" : 0.5
      }
    },
    {
      "name" : "MI_ENV_LKNVLD_WoodBoard_Purple_LOD",
      "pbrMetallicRoughness" : {
        "baseColorFactor" : [ 1, 0.9, 0.3, 1.0 ],
        "metallicFactor" : 0.1,
        "roughnessFactor" : 0.5
      }
    },
    {
      "name" : "MI_ENV_LKNVLD_MetalRoofDark_LOD",
      "pbrMetallicRoughness" : {
        "baseColorFactor" : [ 1, 0.3, 0.9, 1.0 ],
        "metallicFactor" : 0.1,
        "roughnessFactor" : 0.5
      }
    },
    {
      "name" : "MI_ENV_LKNVLD_Plaster_LOD",
      "pbrMetallicRoughness" : {
        "baseColorFactor" : [ 0.6, 0.9, 0.9, 1.0 ],
        "metallicFactor" : 0.1,
        "roughnessFactor" : 0.5
      }
    },
    {
      "name" : "MI_ENV_LKNVLD_Plaster_LOD",
      "pbrMetallicRoughness" : {
        "baseColorFactor" : [ 0.6, 0.9, 0.3, 1.0 ],
        "metallicFactor" : 0.1,
        "roughnessFactor" : 0.5
      }
    },
    {
      "name" : "MI_ENV_LKNVLD_Plaster_Dark_LOD",
      "pbrMetallicRoughness" : {
        "baseColorFactor" : [ 0.6, 0.3, 0.9, 1.0 ],
        "metallicFactor" : 0.1,
        "roughnessFactor" : 0.5
      }
    },
    {
      "name" : "MI_ENV_LKNVLD_WoodBoard_Natural_LOD",
      "pbrMetallicRoughness" : {
        "baseColorFactor" : [ 1, 0.9, 0.9, 1.0 ],
        "metallicFactor" : 0.1,
        "roughnessFactor" : 0.5
      }
    },
    {
      "name" : "MI_ENV_LKNVLD_MetalRoof_Orange_LOD",
      "pbrMetallicRoughness" : {
        "baseColorFactor" : [ 0.3, 1, 0.3, 1.0 ],
        "metallicFactor" : 0.1,
        "roughnessFactor" : 0.5
      }
    },
    {
      "name" : "MI_ENV_LKNVLD_Metal_C_LOD",
      "pbrMetallicRoughness" : {
        "baseColorFactor" : [ 0.9, 1, 0.3, 1.0 ],
        "metallicFactor" : 0.1,
        "roughnessFactor" : 0.5
      }
    },
    {
      "name" : "MI_ENV_LKNVLD_Aircon_A",
      "pbrMetallicRoughness" : {
        "baseColorFactor" : [ 0.3, 0.6, 0.3, 1.0 ],
        "metallicFactor" : 0.1,
        "roughnessFactor" : 0.5
      }
    },
    {
      "name" : "MI_T_ENV_LKNVLD_StoneStairs_LOD",
      "pbrMetallicRoughness" : {
        "baseColorFactor" : [ 0.3, 1, 0.9, 1.0 ],
        "metallicFactor" : 0.1,
        "roughnessFactor" : 0.5
      }
    },
    {
      "name" : "MI_ENV_LKNVLD_Door_A",
      "pbrMetallicRoughness" : {
        "baseColorFactor" : [ 0.9, 0.6, 0.9, 1.0 ],
        "metallicFactor" : 0.1,
        "roughnessFactor" : 0.5
      }
    }
  ],
  "meshes" : [
    {
      "primitives" : [
        {
          "attributes" : {
            "POSITION" : 1,
            "NORMAL" : 2,
            "TANGENT" : 3,
            "TEXCOORD_0" : 4,
            "TEXCOORD_1" : 5,
            "TEXCOORD_2" : 6,
            "TEXCOORD_3" : 7
          },
          "indices" : 0,
          "material" : 0
        },
        {
          "attributes" : {
            "POSITION" : 9,
            "NORMAL" : 10,
            "TANGENT" : 11,
            "TEXCOORD_0" : 12,
            "TEXCOORD_1" : 13,
            "TEXCOORD_2" : 14,
            "TEXCOORD_3" : 15
          },
          "indices" : 8,
          "material" : 1
        },
        {
          "attributes" : {
            "POSITION" : 17,
            "NORMAL" : 18,
            "TANGENT" : 19,
            "TEXCOORD_0" : 20,
            "TEXCOORD_1" : 21,
            "TEXCOORD_2" : 22,
            "TEXCOORD_3" : 23
          },
          "indices" : 16,
          "material" : 2
        },
        {
          "attributes" : {
            "POSITION" : 25,
            "NORMAL" : 26,
            "TANGENT" : 27,
            "TEXCOORD_0" : 28,
            "TEXCOORD_1" : 29,
            "TEXCOORD_2" : 30,
            "TEXCOORD_3" : 31
          },
          "indices" : 24,
          "material" : 3
        },
        {
          "attributes" : {
            "POSITION" : 33,
            "NORMAL" : 34,
            "TANGENT" : 35,
            "TEXCOORD_0" : 36,
            "TEXCOORD_1" : 37,
            "TEXCOORD_2" : 38,
            "TEXCOORD_3" : 39
          },
          "indices" : 32,
          "material" : 4
        },
        {
          "attributes" : {
            "POSITION" : 41,
            "NORMAL" : 42,
            "TANGENT" : 43,
            "TEXCOORD_0" : 44,
            "TEXCOORD_1" : 45,
            "TEXCOORD_2" : 46,
            "TEXCOORD_3" : 47
          },
          "indices" : 40,
          "material" : 5
        },
        {
          "attributes" : {
            "POSITION" : 49,
            "NORMAL" : 50,
            "TANGENT" : 51,
            "TEXCOORD_0" : 52,
            "TEXCOORD_1" : 53,
            "TEXCOORD_2" : 54,
            "TEXCOORD_3" : 55
          },
          "indices" : 48,
          "material" : 6
        },
        {
          "attributes" : {
            "POSITION" : 57,
            "NORMAL" : 58,
            "TANGENT" : 59,
            "TEXCOORD_0" : 60,
            "TEXCOORD_1" : 61,
            "TEXCOORD_2" : 62,
            "TEXCOORD_3" : 63
          },
          "indices" : 56,
          "material" : 7
        },
        {
          "attributes" : {
            "POSITION" : 65,
            "NORMAL" : 66,
            "TANGENT" : 67,
            "TEXCOORD_0" : 68,
            "TEXCOORD_1" : 69,
            "TEXCOORD_2" : 70,
            "TEXCOORD_3" : 71
          },
          "indices" : 64,
          "material" : 8
        },
        {
          "attributes" : {
            "POSITION" : 73,
            "NORMAL" : 74,
            "TANGENT" : 75,
            "TEXCOORD_0" : 76,
            "TEXCOORD_1" : 77,
            "TEXCOORD_2" : 78,
            "TEXCOORD_3" : 79
          },
          "indices" : 72,
          "material" : 9
        },
        {
          "attributes" : {
            "POSITION" : 81,
            "NORMAL" : 82,
            "TANGENT" : 83,
            "TEXCOORD_0" : 84,
            "TEXCOORD_1" : 85,
            "TEXCOORD_2" : 86,
            "TEXCOORD_3" : 87
          },
          "indices" : 80,
          "material" : 10
        },
        {
          "attributes" : {
            "POSITION" : 89,
            "NORMAL" : 90,
            "TANGENT" : 91,
            "TEXCOORD_0" : 92,
            "TEXCOORD_1" : 93,
            "TEXCOORD_2" : 94,
            "TEXCOORD_3" : 95
          },
          "indices" : 88,
          "material" : 11
        },
        {
          "attributes" : {
            "POSITION" : 97,
            "NORMAL" : 98,
            "TANGENT" : 99,
            "TEXCOORD_0" : 100,
            "TEXCOORD_1" : 101,
            "TEXCOORD_2" : 102,
            "TEXCOORD_3" : 103
          },
          "indices" : 96,
          "material" : 12
        },
        {
          "attributes" : {
            "POSITION" : 105,
            "NORMAL" : 106,
            "TANGENT" : 107,
            "TEXCOORD_0" : 108,
            "TEXCOORD_1" : 109,
            "TEXCOORD_2" : 110,
            "TEXCOORD_3" : 111
          },
          "indices" : 104,
          "material" : 13
        },
        {
          "attributes" : {
            "POSITION" : 113,
            "NORMAL" : 114,
            "TANGENT" : 115,
            "TEXCOORD_0" : 116,
            "TEXCOORD_1" : 117,
            "TEXCOORD_2" : 118,
            "TEXCOORD_3" : 119
          },
          "indices" : 112,
          "material" : 14
        },
        {
          "attributes" : {
            "POSITION" : 121,
            "NORMAL" : 122,
            "TANGENT" : 123,
            "TEXCOORD_0" : 124,
            "TEXCOORD_1" : 125,
            "TEXCOORD_2" : 126,
            "TEXCOORD_3" : 127
          },
          "indices" : 120,
          "material" : 15
        },
        {
          "attributes" : {
            "POSITION" : 129,
            "NORMAL" : 130,
            "TANGENT" : 131,
            "TEXCOORD_0" : 132,
            "TEXCOORD_1" : 133,
            "TEXCOORD_2" : 134,
            "TEXCOORD_3" : 135
          },
          "indices" : 128,
          "material" : 16
        },
        {
          "attributes" : {
            "POSITION" : 137,
            "NORMAL" : 138,
            "TANGENT" : 139,
            "TEXCOORD_0" : 140,
            "TEXCOORD_1" : 141,
            "TEXCOORD_2" : 142,
            "TEXCOORD_3" : 143
          },
          "indices" : 136,
          "material" : 17
        },
        {
          "attributes" : {
            "POSITION" : 145,
            "NORMAL" : 146,
            "TANGENT" : 147,
            "TEXCOORD_0" : 148,
            "TEXCOORD_1" : 149,
            "TEXCOORD_2" : 150,
            "TEXCOORD_3" : 151
          },
          "indices" : 144,
          "material" : 18
        },
        {
          "attributes" : {
            "POSITION" : 153,
            "NORMAL" : 154,
            "TANGENT" : 155,
            "TEXCOORD_0" : 156,
            "TEXCOORD_1" : 157,
            "TEXCOORD_2" : 158,
            "TEXCOORD_3" : 159
          },
          "indices" : 152,
          "material" : 19
        },
        {
          "attributes" : {
            "POSITION" : 161,
            "NORMAL" : 162,
            "TANGENT" : 163,
            "TEXCOORD_0" : 164,
            "TEXCOORD_1" : 165,
            "TEXCOORD_2" : 166,
            "TEXCOORD_3" : 167
          },
          "indices" : 160,
          "material" : 20
        }
      ],
      "name" : "SM_ENV_LKNVLD_VRArena_Front_Lod3"
    }
  ],
  "buffers" : [
    {
      "uri" : "SM_ENV_LKNVLD_VRArena_Front_Lod3.bin",
      "byteLength" : 1012472
    }
  ],
  "bufferViews" : [
    {
      "buffer" : 0,
      "byteOffset" : 0,
      "byteLength" : 19224
    },
    {
      "buffer" : 0,
      "byteOffset" : 19224,
      "byteLength" : 70224
    },
    {
      "buffer" : 0,
      "byteOffset" : 89448,
      "byteLength" : 70224
    },
    {
      "buffer" : 0,
      "byteOffset" : 159672,
      "byteLength" : 93632
    },
    {
      "buffer" : 0,
      "byteOffset" : 253304,
      "byteLength" : 46816
    },
    {
      "buffer" : 0,
      "byteOffset" : 300120,
      "byteLength" : 46816
    },
    {
      "buffer" : 0,
      "byteOffset" : 346936,
      "byteLength" : 46816
    },
    {
      "buffer" : 0,
      "byteOffset" : 393752,
      "byteLength" : 46816
    },
    {
      "buffer" : 0,
      "byteOffset" : 440568,
      "byteLength" : 7412
    },
    {
      "buffer" : 0,
      "byteOffset" : 447980,
      "byteLength" : 21852
    },
    {
      "buffer" : 0,
      "byteOffset" : 469832,
      "byteLength" : 21852
    },
    {
      "buffer" : 0,
      "byteOffset" : 491684,
      "byteLength" : 29136
    },
    {
      "buffer" : 0,
      "byteOffset" : 520820,
      "byteLength" : 14568
    },
    {
      "buffer" : 0,
      "byteOffset" : 535388,
      "byteLength" : 14568
    },
    {
      "buffer" : 0,
      "byteOffset" : 549956,
      "byteLength" : 14568
    },
    {
      "buffer" : 0,
      "byteOffset" : 564524,
      "byteLength" : 14568
    },
    {
      "buffer" : 0,
      "byteOffset" : 579092,
      "byteLength" : 6348
    },
    {
      "buffer" : 0,
      "byteOffset" : 585440,
      "byteLength" : 19752
    },
    {
      "buffer" : 0,
      "byteOffset" : 605192,
      "byteLength" : 19752
    },
    {
      "buffer" : 0,
      "byteOffset" : 624944,
      "byteLength" : 26336
    },
    {
      "buffer" : 0,
      "byteOffset" : 651280,
      "byteLength" : 13168
    },
    {
      "buffer" : 0,
      "byteOffset" : 664448,
      "byteLength" : 13168
    },
    {
      "buffer" : 0,
      "byteOffset" : 677616,
      "byteLength" : 13168
    },
    {
      "buffer" : 0,
      "byteOffset" : 690784,
      "byteLength" : 13168
    },
    {
      "buffer" : 0,
      "byteOffset" : 703952,
      "byteLength" : 216
    },
    {
      "buffer" : 0,
      "byteOffset" : 704168,
      "byteLength" : 480
    },
    {
      "buffer" : 0,
      "byteOffset" : 704648,
      "byteLength" : 480
    },
    {
      "buffer" : 0,
      "byteOffset" : 705128,
      "byteLength" : 640
    },
    {
      "buffer" : 0,
      "byteOffset" : 705768,
      "byteLength" : 320
    },
    {
      "buffer" : 0,
      "byteOffset" : 706088,
      "byteLength" : 320
    },
    {
      "buffer" : 0,
      "byteOffset" : 706408,
      "byteLength" : 320
    },
    {
      "buffer" : 0,
      "byteOffset" : 706728,
      "byteLength" : 320
    },
    {
      "buffer" : 0,
      "byteOffset" : 707048,
      "byteLength" : 2972
    },
    {
      "buffer" : 0,
      "byteOffset" : 710020,
      "byteLength" : 7380
    },
    {
      "buffer" : 0,
      "byteOffset" : 717400,
      "byteLength" : 7380
    },
    {
      "buffer" : 0,
      "byteOffset" : 724780,
      "byteLength" : 9840
    },
    {
      "buffer" : 0,
      "byteOffset" : 734620,
      "byteLength" : 4920
    },
    {
      "buffer" : 0,
      "byteOffset" : 739540,
      "byteLength" : 4920
    },
    {
      "buffer" : 0,
      "byteOffset" : 744460,
      "byteLength" : 4920
    },
    {
      "buffer" : 0,
      "byteOffset" : 749380,
      "byteLength" : 4920
    },
    {
      "buffer" : 0,
      "byteOffset" : 754300,
      "byteLength" : 660
    },
    {
      "buffer" : 0,
      "byteOffset" : 754960,
      "byteLength" : 1608
    },
    {
      "buffer" : 0,
      "byteOffset" : 756568,
      "byteLength" : 1608
    },
    {
      "buffer" : 0,
      "byteOffset" : 758176,
      "byteLength" : 2144
    },
    {
      "buffer" : 0,
      "byteOffset" : 760320,
      "byteLength" : 1072
    },
    {
      "buffer" : 0,
      "byteOffset" : 761392,
      "byteLength" : 1072
    },
    {
      "buffer" : 0,
      "byteOffset" : 762464,
      "byteLength" : 1072
    },
    {
      "buffer" : 0,
      "byteOffset" : 763536,
      "byteLength" : 1072
    },
    {
      "buffer" : 0,
      "byteOffset" : 764608,
      "byteLength" : 3440
    },
    {
      "buffer" : 0,
      "byteOffset" : 768048,
      "byteLength" : 10128
    },
    {
      "buffer" : 0,
      "byteOffset" : 778176,
      "byteLength" : 10128
    },
    {
      "buffer" : 0,
      "byteOffset" : 788304,
      "byteLength" : 13504
    },
    {
      "buffer" : 0,
      "byteOffset" : 801808,
      "byteLength" : 6752
    },
    {
      "buffer" : 0,
      "byteOffset" : 808560,
      "byteLength" : 6752
    },
    {
      "buffer" : 0,
      "byteOffset" : 815312,
      "byteLength" : 6752
    },
    {
      "buffer" : 0,
      "byteOffset" : 822064,
      "byteLength" : 6752
    },
    {
      "buffer" : 0,
      "byteOffset" : 828816,
      "byteLength" : 768
    },
    {
      "buffer" : 0,
      "byteOffset" : 829584,
      "byteLength" : 2928
    },
    {
      "buffer" : 0,
      "byteOffset" : 832512,
      "byteLength" : 2928
    },
    {
      "buffer" : 0,
      "byteOffset" : 835440,
      "byteLength" : 3904
    },
    {
      "buffer" : 0,
      "byteOffset" : 839344,
      "byteLength" : 1952
    },
    {
      "buffer" : 0,
      "byteOffset" : 841296,
      "byteLength" : 1952
    },
    {
      "buffer" : 0,
      "byteOffset" : 843248,
      "byteLength" : 1952
    },
    {
      "buffer" : 0,
      "byteOffset" : 845200,
      "byteLength" : 1952
    },
    {
      "buffer" : 0,
      "byteOffset" : 847152,
      "byteLength" : 480
    },
    {
      "buffer" : 0,
      "byteOffset" : 847632,
      "byteLength" : 1296
    },
    {
      "buffer" : 0,
      "byteOffset" : 848928,
      "byteLength" : 1296
    },
    {
      "buffer" : 0,
      "byteOffset" : 850224,
      "byteLength" : 1728
    },
    {
      "buffer" : 0,
      "byteOffset" : 851952,
      "byteLength" : 864
    },
    {
      "buffer" : 0,
      "byteOffset" : 852816,
      "byteLength" : 864
    },
    {
      "buffer" : 0,
      "byteOffset" : 853680,
      "byteLength" : 864
    },
    {
      "buffer" : 0,
      "byteOffset" : 854544,
      "byteLength" : 864
    },
    {
      "buffer" : 0,
      "byteOffset" : 855408,
      "byteLength" : 104
    },
    {
      "buffer" : 0,
      "byteOffset" : 855512,
      "byteLength" : 300
    },
    {
      "buffer" : 0,
      "byteOffset" : 855812,
      "byteLength" : 300
    },
    {
      "buffer" : 0,
      "byteOffset" : 856112,
      "byteLength" : 400
    },
    {
      "buffer" : 0,
      "byteOffset" : 856512,
      "byteLength" : 200
    },
    {
      "buffer" : 0,
      "byteOffset" : 856712,
      "byteLength" : 200
    },
    {
      "buffer" : 0,
      "byteOffset" : 856912,
      "byteLength" : 200
    },
    {
      "buffer" : 0,
      "byteOffset" : 857112,
      "byteLength" : 200
    },
    {
      "buffer" : 0,
      "byteOffset" : 857312,
      "byteLength" : 812
    },
    {
      "buffer" : 0,
      "byteOffset" : 858124,
      "byteLength" : 2004
    },
    {
      "buffer" : 0,
      "byteOffset" : 860128,
      "byteLength" : 2004
    },
    {
      "buffer" : 0,
      "byteOffset" : 862132,
      "byteLength" : 2672
    },
    {
      "buffer" : 0,
      "byteOffset" : 864804,
      "byteLength" : 1336
    },
    {
      "buffer" : 0,
      "byteOffset" : 866140,
      "byteLength" : 1336
    },
    {
      "buffer" : 0,
      "byteOffset" : 867476,
      "byteLength" : 1336
    },
    {
      "buffer" : 0,
      "byteOffset" : 868812,
      "byteLength" : 1336
    },
    {
      "buffer" : 0,
      "byteOffset" : 870148,
      "byteLength" : 144
    },
    {
      "buffer" : 0,
      "byteOffset" : 870292,
      "byteLength" : 576
    },
    {
      "buffer" : 0,
      "byteOffset" : 870868,
      "byteLength" : 576
    },
    {
      "buffer" : 0,
      "byteOffset" : 871444,
      "byteLength" : 768
    },
    {
      "buffer" : 0,
      "byteOffset" : 872212,
      "byteLength" : 384
    },
    {
      "buffer" : 0,
      "byteOffset" : 872596,
      "byteLength" : 384
    },
    {
      "buffer" : 0,
      "byteOffset" : 872980,
      "byteLength" : 384
    },
    {
      "buffer" : 0,
      "byteOffset" : 873364,
      "byteLength" : 384
    },
    {
      "buffer" : 0,
      "byteOffset" : 873748,
      "byteLength" : 408
    },
    {
      "buffer" : 0,
      "byteOffset" : 874156,
      "byteLength" : 864
    },
    {
      "buffer" : 0,
      "byteOffset" : 875020,
      "byteLength" : 864
    },
    {
      "buffer" : 0,
      "byteOffset" : 875884,
      "byteLength" : 1152
    },
    {
      "buffer" : 0,
      "byteOffset" : 877036,
      "byteLength" : 576
    },
    {
      "buffer" : 0,
      "byteOffset" : 877612,
      "byteLength" : 576
    },
    {
      "buffer" : 0,
      "byteOffset" : 878188,
      "byteLength" : 576
    },
    {
      "buffer" : 0,
      "byteOffset" : 878764,
      "byteLength" : 576
    },
    {
      "buffer" : 0,
      "byteOffset" : 879340,
      "byteLength" : 968
    },
    {
      "buffer" : 0,
      "byteOffset" : 880308,
      "byteLength" : 2748
    },
    {
      "buffer" : 0,
      "byteOffset" : 883056,
      "byteLength" : 2748
    },
    {
      "buffer" : 0,
      "byteOffset" : 885804,
      "byteLength" : 3664
    },
    {
      "buffer" : 0,
      "byteOffset" : 889468,
      "byteLength" : 1832
    },
    {
      "buffer" : 0,
      "byteOffset" : 891300,
      "byteLength" : 1832
    },
    {
      "buffer" : 0,
      "byteOffset" : 893132,
      "byteLength" : 1832
    },
    {
      "buffer" : 0,
      "byteOffset" : 894964,
      "byteLength" : 1832
    },
    {
      "buffer" : 0,
      "byteOffset" : 896796,
      "byteLength" : 108
    },
    {
      "buffer" : 0,
      "byteOffset" : 896904,
      "byteLength" : 432
    },
    {
      "buffer" : 0,
      "byteOffset" : 897336,
      "byteLength" : 432
    },
    {
      "buffer" : 0,
      "byteOffset" : 897768,
      "byteLength" : 576
    },
    {
      "buffer" : 0,
      "byteOffset" : 898344,
      "byteLength" : 288
    },
    {
      "buffer" : 0,
      "byteOffset" : 898632,
      "byteLength" : 288
    },
    {
      "buffer" : 0,
      "byteOffset" : 898920,
      "byteLength" : 288
    },
    {
      "buffer" : 0,
      "byteOffset" : 899208,
      "byteLength" : 288
    },
    {
      "buffer" : 0,
      "byteOffset" : 899496,
      "byteLength" : 228
    },
    {
      "buffer" : 0,
      "byteOffset" : 899724,
      "byteLength" : 888
    },
    {
      "buffer" : 0,
      "byteOffset" : 900612,
      "byteLength" : 888
    },
    {
      "buffer" : 0,
      "byteOffset" : 901500,
      "byteLength" : 1184
    },
    {
      "buffer" : 0,
      "byteOffset" : 902684,
      "byteLength" : 592
    },
    {
      "buffer" : 0,
      "byteOffset" : 903276,
      "byteLength" : 592
    },
    {
      "buffer" : 0,
      "byteOffset" : 903868,
      "byteLength" : 592
    },
    {
      "buffer" : 0,
      "byteOffset" : 904460,
      "byteLength" : 592
    },
    {
      "buffer" : 0,
      "byteOffset" : 905052,
      "byteLength" : 720
    },
    {
      "buffer" : 0,
      "byteOffset" : 905772,
      "byteLength" : 1548
    },
    {
      "buffer" : 0,
      "byteOffset" : 907320,
      "byteLength" : 1548
    },
    {
      "buffer" : 0,
      "byteOffset" : 908868,
      "byteLength" : 2064
    },
    {
      "buffer" : 0,
      "byteOffset" : 910932,
      "byteLength" : 1032
    },
    {
      "buffer" : 0,
      "byteOffset" : 911964,
      "byteLength" : 1032
    },
    {
      "buffer" : 0,
      "byteOffset" : 912996,
      "byteLength" : 1032
    },
    {
      "buffer" : 0,
      "byteOffset" : 914028,
      "byteLength" : 1032
    },
    {
      "buffer" : 0,
      "byteOffset" : 915060,
      "byteLength" : 288
    },
    {
      "buffer" : 0,
      "byteOffset" : 915348,
      "byteLength" : 1152
    },
    {
      "buffer" : 0,
      "byteOffset" : 916500,
      "byteLength" : 1152
    },
    {
      "buffer" : 0,
      "byteOffset" : 917652,
      "byteLength" : 1536
    },
    {
      "buffer" : 0,
      "byteOffset" : 919188,
      "byteLength" : 768
    },
    {
      "buffer" : 0,
      "byteOffset" : 919956,
      "byteLength" : 768
    },
    {
      "buffer" : 0,
      "byteOffset" : 920724,
      "byteLength" : 768
    },
    {
      "buffer" : 0,
      "byteOffset" : 921492,
      "byteLength" : 768
    },
    {
      "buffer" : 0,
      "byteOffset" : 922260,
      "byteLength" : 1740
    },
    {
      "buffer" : 0,
      "byteOffset" : 924000,
      "byteLength" : 5892
    },
    {
      "buffer" : 0,
      "byteOffset" : 929892,
      "byteLength" : 5892
    },
    {
      "buffer" : 0,
      "byteOffset" : 935784,
      "byteLength" : 7856
    },
    {
      "buffer" : 0,
      "byteOffset" : 943640,
      "byteLength" : 3928
    },
    {
      "buffer" : 0,
      "byteOffset" : 947568,
      "byteLength" : 3928
    },
    {
      "buffer" : 0,
      "byteOffset" : 951496,
      "byteLength" : 3928
    },
    {
      "buffer" : 0,
      "byteOffset" : 955424,
      "byteLength" : 3928
    },
    {
      "buffer" : 0,
      "byteOffset" : 959352,
      "byteLength" : 860
    },
    {
      "buffer" : 0,
      "byteOffset" : 960212,
      "byteLength" : 3192
    },
    {
      "buffer" : 0,
      "byteOffset" : 963404,
      "byteLength" : 3192
    },
    {
      "buffer" : 0,
      "byteOffset" : 966596,
      "byteLength" : 4256
    },
    {
      "buffer" : 0,
      "byteOffset" : 970852,
      "byteLength" : 2128
    },
    {
      "buffer" : 0,
      "byteOffset" : 972980,
      "byteLength" : 2128
    },
    {
      "buffer" : 0,
      "byteOffset" : 975108,
      "byteLength" : 2128
    },
    {
      "buffer" : 0,
      "byteOffset" : 977236,
      "byteLength" : 2128
    },
    {
      "buffer" : 0,
      "byteOffset" : 979364,
      "byteLength" : 1428
    },
    {
      "buffer" : 0,
      "byteOffset" : 980792,
      "byteLength" : 5280
    },
    {
      "buffer" : 0,
      "byteOffset" : 986072,
      "byteLength" : 5280
    },
    {
      "buffer" : 0,
      "byteOffset" : 991352,
      "byteLength" : 7040
    },
    {
      "buffer" : 0,
      "byteOffset" : 998392,
      "byteLength" : 3520
    },
    {
      "buffer" : 0,
      "byteOffset" : 1001912,
      "byteLength" : 3520
    },
    {
      "buffer" : 0,
      "byteOffset" : 1005432,
      "byteLength" : 3520
    },
    {
      "buffer" : 0,
      "byteOffset" : 1008952,
      "byteLength" : 3520
    }
  ],
  "accessors" : [
    {
      "bufferView" : 0,
      "componentType" : 5123,
      "count" : 9612,
      "type" : "SCALAR"
    },
    {
      "bufferView" : 1,
      "min" : [ 16.6298, 0.699998, -14.4008 ],
      "max" : [ 65.7908, 11.559, 51.831 ],
      "componentType" : 5126,
      "count" : 5852,
      "type" : "VEC3"
    },
    {
      "bufferView" : 2,
      "componentType" : 5126,
      "count" : 5852,
      "type" : "VEC3"
    },
    {
      "bufferView" : 3,
      "componentType" : 5126,
      "count" : 5852,
      "type" : "VEC4"
    },
    {
      "bufferView" : 4,
      "componentType" : 5126,
      "count" : 5852,
      "type" : "VEC2"
    },
    {
      "bufferView" : 5,
      "componentType" : 5126,
      "count" : 5852,
      "type" : "VEC2"
    },
    {
      "bufferView" : 6,
      "componentType" : 5126,
      "count" : 5852,
      "type" : "VEC2"
    },
    {
      "bufferView" : 7,
      "componentType" : 5126,
      "count" : 5852,
      "type" : "VEC2"
    },
    {
      "bufferView" : 8,
      "componentType" : 5123,
      "count" : 3705,
      "type" : "SCALAR"
    },
    {
      "bufferView" : 9,
      "min" : [ 17.3858, 0.299999, -13.6178 ],
      "max" : [ 64.94, 8.2, 29.6042 ],
      "componentType" : 5126,
      "count" : 1821,
      "type" : "VEC3"
    },
    {
      "bufferView" : 10,
      "componentType" : 5126,
      "count" : 1821,
      "type" : "VEC3"
    },
    {
      "bufferView" : 11,
      "componentType" : 5126,
      "count" : 1821,
      "type" : "VEC4"
    },
    {
      "bufferView" : 12,
      "componentType" : 5126,
      "count" : 1821,
      "type" : "VEC2"
    },
    {
      "bufferView" : 13,
      "componentType" : 5126,
      "count" : 1821,
      "type" : "VEC2"
    },
    {
      "bufferView" : 14,
      "componentType" : 5126,
      "count" : 1821,
      "type" : "VEC2"
    },
    {
      "bufferView" : 15,
      "componentType" : 5126,
      "count" : 1821,
      "type" : "VEC2"
    },
    {
      "bufferView" : 16,
      "componentType" : 5123,
      "count" : 3174,
      "type" : "SCALAR"
    },
    {
      "bufferView" : 17,
      "min" : [ 16.6298, 2.20139, -14.4008 ],
      "max" : [ 65.7908, 10.7349, 29.6464 ],
      "componentType" : 5126,
      "count" : 1646,
      "type" : "VEC3"
    },
    {
      "bufferView" : 18,
      "componentType" : 5126,
      "count" : 1646,
      "type" : "VEC3"
    },
    {
      "bufferView" : 19,
      "componentType" : 5126,
      "count" : 1646,
      "type" : "VEC4"
    },
    {
      "bufferView" : 20,
      "componentType" : 5126,
      "count" : 1646,
      "type" : "VEC2"
    },
    {
      "bufferView" : 21,
      "componentType" : 5126,
      "count" : 1646,
      "type" : "VEC2"
    },
    {
      "bufferView" : 22,
      "componentType" : 5126,
      "count" : 1646,
      "type" : "VEC2"
    },
    {
      "bufferView" : 23,
      "componentType" : 5126,
      "count" : 1646,
      "type" : "VEC2"
    },
    {
      "bufferView" : 24,
      "componentType" : 5123,
      "count" : 108,
      "type" : "SCALAR"
    },
    {
      "bufferView" : 25,
      "min" : [ 33.4129, 7.49172, -4.19521 ],
      "max" : [ 33.4129, 10.825, 4.1952 ],
      "componentType" : 5126,
      "count" : 40,
      "type" : "VEC3"
    },
    {
      "bufferView" : 26,
      "componentType" : 5126,
      "count" : 40,
      "type" : "VEC3"
    },
    {
      "bufferView" : 27,
      "componentType" : 5126,
      "count" : 40,
      "type" : "VEC4"
    },
    {
      "bufferView" : 28,
      "componentType" : 5126,
      "count" : 40,
      "type" : "VEC2"
    },
    {
      "bufferView" : 29,
      "componentType" : 5126,
      "count" : 40,
      "type" : "VEC2"
    },
    {
      "bufferView" : 30,
      "componentType" : 5126,
      "count" : 40,
      "type" : "VEC2"
    },
    {
      "bufferView" : 31,
      "componentType" : 5126,
      "count" : 40,
      "type" : "VEC2"
    },
    {
      "bufferView" : 32,
      "componentType" : 5123,
      "count" : 1485,
      "type" : "SCALAR"
    },
    {
      "bufferView" : 33,
      "min" : [ 17.3375, -1.37329e-06, -13.58 ],
      "max" : [ 64.9883, 4.48469, 29.6431 ],
      "componentType" : 5126,
      "count" : 615,
      "type" : "VEC3"
    },
    {
      "bufferView" : 34,
      "componentType" : 5126,
      "count" : 615,
      "type" : "VEC3"
    },
    {
      "bufferView" : 35,
      "componentType" : 5126,
      "count" : 615,
      "type" : "VEC4"
    },
    {
      "bufferView" : 36,
      "componentType" : 5126,
      "count" : 615,
      "type" : "VEC2"
    },
    {
      "bufferView" : 37,
      "componentType" : 5126,
      "count" : 615,
      "type" : "VEC2"
    },
    {
      "bufferView" : 38,
      "componentType" : 5126,
      "count" : 615,
      "type" : "VEC2"
    },
    {
      "bufferView" : 39,
      "componentType" : 5126,
      "count" : 615,
      "type" : "VEC2"
    },
    {
      "bufferView" : 40,
      "componentType" : 5123,
      "count" : 330,
      "type" : "SCALAR"
    },
    {
      "bufferView" : 41,
      "min" : [ 17.4502, 0.8, -13.5215 ],
      "max" : [ 64.8917, 7.8221, 29.5498 ],
      "componentType" : 5126,
      "count" : 134,
      "type" : "VEC3"
    },
    {
      "bufferView" : 42,
      "componentType" : 5126,
      "count" : 134,
      "type" : "VEC3"
    },
    {
      "bufferView" : 43,
      "componentType" : 5126,
      "count" : 134,
      "type" : "VEC4"
    },
    {
      "bufferView" : 44,
      "componentType" : 5126,
      "count" : 134,
      "type" : "VEC2"
    },
    {
      "bufferView" : 45,
      "componentType" : 5126,
      "count" : 134,
      "type" : "VEC2"
    },
    {
      "bufferView" : 46,
      "componentType" : 5126,
      "count" : 134,
      "type" : "VEC2"
    },
    {
      "bufferView" : 47,
      "componentType" : 5126,
      "count" : 134,
      "type" : "VEC2"
    },
    {
      "bufferView" : 48,
      "componentType" : 5123,
      "count" : 1719,
      "type" : "SCALAR"
    },
    {
      "bufferView" : 49,
      "min" : [ 16.6298, 4.77354, -14.4008 ],
      "max" : [ 65.7908, 11.559, 28.9982 ],
      "componentType" : 5126,
      "count" : 844,
      "type" : "VEC3"
    },
    {
      "bufferView" : 50,
      "componentType" : 5126,
      "count" : 844,
      "type" : "VEC3"
    },
    {
      "bufferView" : 51,
      "componentType" : 5126,
      "count" : 844,
      "type" : "VEC4"
    },
    {
      "bufferView" : 52,
      "componentType" : 5126,
      "count" : 844,
      "type" : "VEC2"
    },
    {
      "bufferView" : 53,
      "componentType" : 5126,
      "count" : 844,
      "type" : "VEC2"
    },
    {
      "bufferView" : 54,
      "componentType" : 5126,
      "count" : 844,
      "type" : "VEC2"
    },
    {
      "bufferView" : 55,
      "componentType" : 5126,
      "count" : 844,
      "type" : "VEC2"
    },
    {
      "bufferView" : 56,
      "componentType" : 5123,
      "count" : 384,
      "type" : "SCALAR"
    },
    {
      "bufferView" : 57,
      "min" : [ 20.0902, 6.42505, 15.6659 ],
      "max" : [ 28.2697, 8.54963, 23.8108 ],
      "componentType" : 5126,
      "count" : 244,
      "type" : "VEC3"
    },
    {
      "bufferView" : 58,
      "componentType" : 5126,
      "count" : 244,
      "type" : "VEC3"
    },
    {
      "bufferView" : 59,
      "componentType" : 5126,
      "count" : 244,
      "type" : "VEC4"
    },
    {
      "bufferView" : 60,
      "componentType" : 5126,
      "count" : 244,
      "type" : "VEC2"
    },
    {
      "bufferView" : 61,
      "componentType" : 5126,
      "count" : 244,
      "type" : "VEC2"
    },
    {
      "bufferView" : 62,
      "componentType" : 5126,
      "count" : 244,
      "type" : "VEC2"
    },
    {
      "bufferView" : 63,
      "componentType" : 5126,
      "count" : 244,
      "type" : "VEC2"
    },
    {
      "bufferView" : 64,
      "componentType" : 5123,
      "count" : 240,
      "type" : "SCALAR"
    },
    {
      "bufferView" : 65,
      "min" : [ 20.1247, 6.42505, 15.6659 ],
      "max" : [ 28.4111, 8.54963, 23.9523 ],
      "componentType" : 5126,
      "count" : 108,
      "type" : "VEC3"
    },
    {
      "bufferView" : 66,
      "componentType" : 5126,
      "count" : 108,
      "type" : "VEC3"
    },
    {
      "bufferView" : 67,
      "componentType" : 5126,
      "count" : 108,
      "type" : "VEC4"
    },
    {
      "bufferView" : 68,
      "componentType" : 5126,
      "count" : 108,
      "type" : "VEC2"
    },
    {
      "bufferView" : 69,
      "componentType" : 5126,
      "count" : 108,
      "type" : "VEC2"
    },
    {
      "bufferView" : 70,
      "componentType" : 5126,
      "count" : 108,
      "type" : "VEC2"
    },
    {
      "bufferView" : 71,
      "componentType" : 5126,
      "count" : 108,
      "type" : "VEC2"
    },
    {
      "bufferView" : 72,
      "componentType" : 5123,
      "count" : 51,
      "type" : "SCALAR"
    },
    {
      "bufferView" : 73,
      "min" : [ 24.1262, 2.12213, 19.6672 ],
      "max" : [ 24.7888, 2.28066, 20.3298 ],
      "componentType" : 5126,
      "count" : 25,
      "type" : "VEC3"
    },
    {
      "bufferView" : 74,
      "componentType" : 5126,
      "count" : 25,
      "type" : "VEC3"
    },
    {
      "bufferView" : 75,
      "componentType" : 5126,
      "count" : 25,
      "type" : "VEC4"
    },
    {
      "bufferView" : 76,
      "componentType" : 5126,
      "count" : 25,
      "type" : "VEC2"
    },
    {
      "bufferView" : 77,
      "componentType" : 5126,
      "count" : 25,
      "type" : "VEC2"
    },
    {
      "bufferView" : 78,
      "componentType" : 5126,
      "count" : 25,
      "type" : "VEC2"
    },
    {
      "bufferView" : 79,
      "componentType" : 5126,
      "count" : 25,
      "type" : "VEC2"
    },
    {
      "bufferView" : 80,
      "componentType" : 5123,
      "count" : 405,
      "type" : "SCALAR"
    },
    {
      "bufferView" : 81,
      "min" : [ 20.4683, 6.77189, -9.84972 ],
      "max" : [ 38.5149, 8.2, 24.6006 ],
      "componentType" : 5126,
      "count" : 167,
      "type" : "VEC3"
    },
    {
      "bufferView" : 82,
      "componentType" : 5126,
      "count" : 167,
      "type" : "VEC3"
    },
    {
      "bufferView" : 83,
      "componentType" : 5126,
      "count" : 167,
      "type" : "VEC4"
    },
    {
      "bufferView" : 84,
      "componentType" : 5126,
      "count" : 167,
      "type" : "VEC2"
    },
    {
      "bufferView" : 85,
      "componentType" : 5126,
      "count" : 167,
      "type" : "VEC2"
    },
    {
      "bufferView" : 86,
      "componentType" : 5126,
      "count" : 167,
      "type" : "VEC2"
    },
    {
      "bufferView" : 87,
      "componentType" : 5126,
      "count" : 167,
      "type" : "VEC2"
    },
    {
      "bufferView" : 88,
      "componentType" : 5123,
      "count" : 72,
      "type" : "SCALAR"
    },
    {
      "bufferView" : 89,
      "min" : [ 36.6373, 6.6166, -9.55583 ],
      "max" : [ 37.5128, 8.2, 8.35848 ],
      "componentType" : 5126,
      "count" : 48,
      "type" : "VEC3"
    },
    {
      "bufferView" : 90,
      "componentType" : 5126,
      "count" : 48,
      "type" : "VEC3"
    },
    {
      "bufferView" : 91,
      "componentType" : 5126,
      "count" : 48,
      "type" : "VEC4"
    },
    {
      "bufferView" : 92,
      "componentType" : 5126,
      "count" : 48,
      "type" : "VEC2"
    },
    {
      "bufferView" : 93,
      "componentType" : 5126,
      "count" : 48,
      "type" : "VEC2"
    },
    {
      "bufferView" : 94,
      "componentType" : 5126,
      "count" : 48,
      "type" : "VEC2"
    },
    {
      "bufferView" : 95,
      "componentType" : 5126,
      "count" : 48,
      "type" : "VEC2"
    },
    {
      "bufferView" : 96,
      "componentType" : 5123,
      "count" : 204,
      "type" : "SCALAR"
    },
    {
      "bufferView" : 97,
      "min" : [ 23.7919, 6.3, -9.64991 ],
      "max" : [ 38.3151, 8.11099, 20.7473 ],
      "componentType" : 5126,
      "count" : 72,
      "type" : "VEC3"
    },
    {
      "bufferView" : 98,
      "componentType" : 5126,
      "count" : 72,
      "type" : "VEC3"
    },
    {
      "bufferView" : 99,
      "componentType" : 5126,
      "count" : 72,
      "type" : "VEC4"
    },
    {
      "bufferView" : 100,
      "componentType" : 5126,
      "count" : 72,
      "type" : "VEC2"
    },
    {
      "bufferView" : 101,
      "componentType" : 5126,
      "count" : 72,
      "type" : "VEC2"
    },
    {
      "bufferView" : 102,
      "componentType" : 5126,
      "count" : 72,
      "type" : "VEC2"
    },
    {
      "bufferView" : 103,
      "componentType" : 5126,
      "count" : 72,
      "type" : "VEC2"
    },
    {
      "bufferView" : 104,
      "componentType" : 5123,
      "count" : 483,
      "type" : "SCALAR"
    },
    {
      "bufferView" : 105,
      "min" : [ 22.965, 1.5, -6.45335 ],
      "max" : [ 35.3544, 11.1304, 22.7488 ],
      "componentType" : 5126,
      "count" : 229,
      "type" : "VEC3"
    },
    {
      "bufferView" : 106,
      "componentType" : 5126,
      "count" : 229,
      "type" : "VEC3"
    },
    {
      "bufferView" : 107,
      "componentType" : 5126,
      "count" : 229,
      "type" : "VEC4"
    },
    {
      "bufferView" : 108,
      "componentType" : 5126,
      "count" : 229,
      "type" : "VEC2"
    },
    {
      "bufferView" : 109,
      "componentType" : 5126,
      "count" : 229,
      "type" : "VEC2"
    },
    {
      "bufferView" : 110,
      "componentType" : 5126,
      "count" : 229,
      "type" : "VEC2"
    },
    {
      "bufferView" : 111,
      "componentType" : 5126,
      "count" : 229,
      "type" : "VEC2"
    },
    {
      "bufferView" : 112,
      "componentType" : 5123,
      "count" : 54,
      "type" : "SCALAR"
    },
    {
      "bufferView" : 113,
      "min" : [ 33.2429, 4, -4.3952 ],
      "max" : [ 49, 9.69196, 4.39519 ],
      "componentType" : 5126,
      "count" : 36,
      "type" : "VEC3"
    },
    {
      "bufferView" : 114,
      "componentType" : 5126,
      "count" : 36,
      "type" : "VEC3"
    },
    {
      "bufferView" : 115,
      "componentType" : 5126,
      "count" : 36,
      "type" : "VEC4"
    },
    {
      "bufferView" : 116,
      "componentType" : 5126,
      "count" : 36,
      "type" : "VEC2"
    },
    {
      "bufferView" : 117,
      "componentType" : 5126,
      "count" : 36,
      "type" : "VEC2"
    },
    {
      "bufferView" : 118,
      "componentType" : 5126,
      "count" : 36,
      "type" : "VEC2"
    },
    {
      "bufferView" : 119,
      "componentType" : 5126,
      "count" : 36,
      "type" : "VEC2"
    },
    {
      "bufferView" : 120,
      "componentType" : 5123,
      "count" : 114,
      "type" : "SCALAR"
    },
    {
      "bufferView" : 121,
      "min" : [ 18, 6, -13.0648 ],
      "max" : [ 64.3971, 6.3, 50.8439 ],
      "componentType" : 5126,
      "count" : 74,
      "type" : "VEC3"
    },
    {
      "bufferView" : 122,
      "componentType" : 5126,
      "count" : 74,
      "type" : "VEC3"
    },
    {
      "bufferView" : 123,
      "componentType" : 5126,
      "count" : 74,
      "type" : "VEC4"
    },
    {
      "bufferView" : 124,
      "componentType" : 5126,
      "count" : 74,
      "type" : "VEC2"
    },
    {
      "bufferView" : 125,
      "componentType" : 5126,
      "count" : 74,
      "type" : "VEC2"
    },
    {
      "bufferView" : 126,
      "componentType" : 5126,
      "count" : 74,
      "type" : "VEC2"
    },
    {
      "bufferView" : 127,
      "componentType" : 5126,
      "count" : 74,
      "type" : "VEC2"
    },
    {
      "bufferView" : 128,
      "componentType" : 5123,
      "count" : 360,
      "type" : "SCALAR"
    },
    {
      "bufferView" : 129,
      "min" : [ 36.4375, 8.2, -9.84972 ],
      "max" : [ 38.5149, 10.1682, 8.98499 ],
      "componentType" : 5126,
      "count" : 129,
      "type" : "VEC3"
    },
    {
      "bufferView" : 130,
      "componentType" : 5126,
      "count" : 129,
      "type" : "VEC3"
    },
    {
      "bufferView" : 131,
      "componentType" : 5126,
      "count" : 129,
      "type" : "VEC4"
    },
    {
      "bufferView" : 132,
      "componentType" : 5126,
      "count" : 129,
      "type" : "VEC2"
    },
    {
      "bufferView" : 133,
      "componentType" : 5126,
      "count" : 129,
      "type" : "VEC2"
    },
    {
      "bufferView" : 134,
      "componentType" : 5126,
      "count" : 129,
      "type" : "VEC2"
    },
    {
      "bufferView" : 135,
      "componentType" : 5126,
      "count" : 129,
      "type" : "VEC2"
    },
    {
      "bufferView" : 136,
      "componentType" : 5123,
      "count" : 144,
      "type" : "SCALAR"
    },
    {
      "bufferView" : 137,
      "min" : [ 33.4721, 11.0308, -5.72787 ],
      "max" : [ 34.5279, 12.2358, 5.72786 ],
      "componentType" : 5126,
      "count" : 96,
      "type" : "VEC3"
    },
    {
      "bufferView" : 138,
      "componentType" : 5126,
      "count" : 96,
      "type" : "VEC3"
    },
    {
      "bufferView" : 139,
      "componentType" : 5126,
      "count" : 96,
      "type" : "VEC4"
    },
    {
      "bufferView" : 140,
      "componentType" : 5126,
      "count" : 96,
      "type" : "VEC2"
    },
    {
      "bufferView" : 141,
      "componentType" : 5126,
      "count" : 96,
      "type" : "VEC2"
    },
    {
      "bufferView" : 142,
      "componentType" : 5126,
      "count" : 96,
      "type" : "VEC2"
    },
    {
      "bufferView" : 143,
      "componentType" : 5126,
      "count" : 96,
      "type" : "VEC2"
    },
    {
      "bufferView" : 144,
      "componentType" : 5123,
      "count" : 870,
      "type" : "SCALAR"
    },
    {
      "bufferView" : 145,
      "min" : [ 33.3886, 10.377, -5.81139 ],
      "max" : [ 34.6114, 13.6048, 5.81138 ],
      "componentType" : 5126,
      "count" : 491,
      "type" : "VEC3"
    },
    {
      "bufferView" : 146,
      "componentType" : 5126,
      "count" : 491,
      "type" : "VEC3"
    },
    {
      "bufferView" : 147,
      "componentType" : 5126,
      "count" : 491,
      "type" : "VEC4"
    },
    {
      "bufferView" : 148,
      "componentType" : 5126,
      "count" : 491,
      "type" : "VEC2"
    },
    {
      "bufferView" : 149,
      "componentType" : 5126,
      "count" : 491,
      "type" : "VEC2"
    },
    {
      "bufferView" : 150,
      "componentType" : 5126,
      "count" : 491,
      "type" : "VEC2"
    },
    {
      "bufferView" : 151,
      "componentType" : 5126,
      "count" : 491,
      "type" : "VEC2"
    },
    {
      "bufferView" : 152,
      "componentType" : 5123,
      "count" : 429,
      "type" : "SCALAR"
    },
    {
      "bufferView" : 153,
      "min" : [ 22.4118, -0.0105736, -2.84722 ],
      "max" : [ 41.9373, 4.05568, 22.7418 ],
      "componentType" : 5126,
      "count" : 266,
      "type" : "VEC3"
    },
    {
      "bufferView" : 154,
      "componentType" : 5126,
      "count" : 266,
      "type" : "VEC3"
    },
    {
      "bufferView" : 155,
      "componentType" : 5126,
      "count" : 266,
      "type" : "VEC4"
    },
    {
      "bufferView" : 156,
      "componentType" : 5126,
      "count" : 266,
      "type" : "VEC2"
    },
    {
      "bufferView" : 157,
      "componentType" : 5126,
      "count" : 266,
      "type" : "VEC2"
    },
    {
      "bufferView" : 158,
      "componentType" : 5126,
      "count" : 266,
      "type" : "VEC2"
    },
    {
      "bufferView" : 159,
      "componentType" : 5126,
      "count" : 266,
      "type" : "VEC2"
    },
    {
      "bufferView" : 160,
      "componentType" : 5123,
      "count" : 714,
      "type" : "SCALAR"
    },
    {
      "bufferView" : 161,
      "min" : [ 22.6408, 0.319324, 18.159 ],
      "max" : [ 27.2534, 4.5867, 22.7729 ],
      "componentType" : 5126,
      "count" : 440,
      "type" : "VEC3"
    },
    {
      "bufferView" : 162,
      "componentType" : 5126,
      "count" : 440,
      "type" : "VEC3"
    },
    {
      "bufferView" : 163,
      "componentType" : 5126,
      "count" : 440,
      "type" : "VEC4"
    },
    {
      "bufferView" : 164,
      "componentType" : 5126,
      "count" : 440,
      "type" : "VEC2"
    },
    {
      "bufferView" : 165,
      "componentType" : 5126,
      "count" : 440,
      "type" : "VEC2"
    },
    {
      "bufferView" : 166,
      "componentType" : 5126,
      "count" : 440,
      "type" : "VEC2"
    },
    {
      "bufferView" : 167,
      "componentType" : 5126,
      "count" : 440,
      "type" : "VEC2"
    }
  ]
}
