{
  "asset" : {
    "generator" : "UE Viewer (umodel) build 1544 based",
    "version" : "2.0"
  },
  "scene" : 0,
  "scenes" : [
    {
      "nodes" : [ 0 ]
    }
  ],
  "nodes" : [
    {
      "name" : "SM_ENV_LKNVLD_VideoScreen_03",
      "mesh" : 0
    }
  ],
  "materials" : [
    {
      "name" : "MI_ENV_KNVLLG_AnimatedScreen_01",
      "pbrMetallicRoughness" : {
        "baseColorFactor" : [ 0.3, 0.3, 0.3, 1.0 ],
        "metallicFactor" : 0.1,
        "roughnessFactor" : 0.5
      }
    }
  ],
  "meshes" : [
    {
      "primitives" : [
        {
          "attributes" : {
            "POSITION" : 1,
            "NORMAL" : 2,
            "TANGENT" : 3,
            "TEXCOORD_0" : 4,
            "TEXCOORD_1" : 5,
            "TEXCOORD_2" : 6,
            "TEXCOORD_3" : 7
          },
          "indices" : 0,
          "material" : 0
        }
      ],
      "name" : "SM_ENV_LKNVLD_VideoScreen_03"
    }
  ],
  "buffers" : [
    {
      "uri" : "SM_ENV_LKNVLD_VideoScreen_03.bin",
      "byteLength" : 1548
    }
  ],
  "bufferViews" : [
    {
      "buffer" : 0,
      "byteOffset" : 0,
      "byteLength" : 108
    },
    {
      "buffer" : 0,
      "byteOffset" : 108,
      "byteLength" : 240
    },
    {
      "buffer" : 0,
      "byteOffset" : 348,
      "byteLength" : 240
    },
    {
      "buffer" : 0,
      "byteOffset" : 588,
      "byteLength" : 320
    },
    {
      "buffer" : 0,
      "byteOffset" : 908,
      "byteLength" : 160
    },
    {
      "buffer" : 0,
      "byteOffset" : 1068,
      "byteLength" : 160
    },
    {
      "buffer" : 0,
      "byteOffset" : 1228,
      "byteLength" : 160
    },
    {
      "buffer" : 0,
      "byteOffset" : 1388,
      "byteLength" : 160
    }
  ],
  "accessors" : [
    {
      "bufferView" : 0,
      "componentType" : 5123,
      "count" : 54,
      "type" : "SCALAR"
    },
    {
      "bufferView" : 1,
      "min" : [ 5.98835, 1.53701, -40.4803 ],
      "max" : [ 12.4526, 5.17785, -37.3604 ],
      "componentType" : 5126,
      "count" : 20,
      "type" : "VEC3"
    },
    {
      "bufferView" : 2,
      "componentType" : 5126,
      "count" : 20,
      "type" : "VEC3"
    },
    {
      "bufferView" : 3,
      "componentType" : 5126,
      "count" : 20,
      "type" : "VEC4"
    },
    {
      "bufferView" : 4,
      "componentType" : 5126,
      "count" : 20,
      "type" : "VEC2"
    },
    {
      "bufferView" : 5,
      "componentType" : 5126,
      "count" : 20,
      "type" : "VEC2"
    },
    {
      "bufferView" : 6,
      "componentType" : 5126,
      "count" : 20,
      "type" : "VEC2"
    },
    {
      "bufferView" : 7,
      "componentType" : 5126,
      "count" : 20,
      "type" : "VEC2"
    }
  ]
}
