{
  "asset" : {
    "generator" : "UE Viewer (umodel) build 1544 based",
    "version" : "2.0"
  },
  "scene" : 0,
  "scenes" : [
    {
      "nodes" : [ 0 ]
    }
  ],
  "nodes" : [
    {
      "name" : "SM_ENV_LKNVLD_Hatago_Structure_Lod3",
      "mesh" : 0
    }
  ],
  "materials" : [
    {
      "name" : "MI_ENV_LKNVLD_WoodPlain_Brown_LOD",
      "pbrMetallicRoughness" : {
        "baseColorFactor" : [ 0.3, 0.3, 0.3, 1.0 ],
        "metallicFactor" : 0.1,
        "roughnessFactor" : 0.5
      }
    },
    {
      "name" : "MI_ENV_LKNVLD_MetalRoof_Green_LOD",
      "pbrMetallicRoughness" : {
        "baseColorFactor" : [ 0.9, 0.3, 0.3, 1.0 ],
        "metallicFactor" : 0.1,
        "roughnessFactor" : 0.5
      }
    },
    {
      "name" : "MI_ENV_LKNVLD_BambooWall_LOD",
      "pbrMetallicRoughness" : {
        "baseColorFactor" : [ 0.3, 0.9, 0.3, 1.0 ],
        "metallicFactor" : 0.1,
        "roughnessFactor" : 0.5
      }
    },
    {
      "name" : "MI_ENV_LKNVLD_Aircon_D",
      "pbrMetallicRoughness" : {
        "baseColorFactor" : [ 0.3, 0.3, 0.9, 1.0 ],
        "metallicFactor" : 0.1,
        "roughnessFactor" : 0.5
      }
    },
    {
      "name" : "MI_ENV_LKNVLD_Aircon_E",
      "pbrMetallicRoughness" : {
        "baseColorFactor" : [ 0.9, 0.9, 0.9, 1.0 ],
        "metallicFactor" : 0.1,
        "roughnessFactor" : 0.5
      }
    },
    {
      "name" : "MI_ENV_LKNVLD_Eaves_E_LOD",
      "pbrMetallicRoughness" : {
        "baseColorFactor" : [ 0.9, 0.9, 0.3, 1.0 ],
        "metallicFactor" : 0.1,
        "roughnessFactor" : 0.5
      }
    },
    {
      "name" : "MI_ENV_LKNVLD_Aircon_F",
      "pbrMetallicRoughness" : {
        "baseColorFactor" : [ 0.9, 0.3, 0.9, 1.0 ],
        "metallicFactor" : 0.1,
        "roughnessFactor" : 0.5
      }
    },
    {
      "name" : "MI_ENV_LKNVLD_Pipe_A_LOD",
      "pbrMetallicRoughness" : {
        "baseColorFactor" : [ 0.3, 0.9, 0.9, 1.0 ],
        "metallicFactor" : 0.1,
        "roughnessFactor" : 0.5
      }
    },
    {
      "name" : "MI_ENV_LKNVLD_Plaster_LOD",
      "pbrMetallicRoughness" : {
        "baseColorFactor" : [ 1, 0.3, 0.3, 1.0 ],
        "metallicFactor" : 0.1,
        "roughnessFactor" : 0.5
      }
    },
    {
      "name" : "MI_ENV_LKNVLD_BuildingInside_A",
      "pbrMetallicRoughness" : {
        "baseColorFactor" : [ 0.6, 0.3, 0.3, 1.0 ],
        "metallicFactor" : 0.1,
        "roughnessFactor" : 0.5
      }
    },
    {
      "name" : "MI_ENV_LKNVLD_WoodWindows_B",
      "pbrMetallicRoughness" : {
        "baseColorFactor" : [ 1, 0.9, 0.3, 1.0 ],
        "metallicFactor" : 0.1,
        "roughnessFactor" : 0.5
      }
    },
    {
      "name" : "MI_ENV_LKNVLD_ClanSignboard_G_LOD",
      "pbrMetallicRoughness" : {
        "baseColorFactor" : [ 1, 0.3, 0.9, 1.0 ],
        "metallicFactor" : 0.1,
        "roughnessFactor" : 0.5
      }
    },
    {
      "name" : "MI_ENV_LKNVLD_Aircon_G",
      "pbrMetallicRoughness" : {
        "baseColorFactor" : [ 0.6, 0.9, 0.9, 1.0 ],
        "metallicFactor" : 0.1,
        "roughnessFactor" : 0.5
      }
    },
    {
      "name" : "MI_ENV_LKNVLD_MetalRoof_LOD",
      "pbrMetallicRoughness" : {
        "baseColorFactor" : [ 0.6, 0.9, 0.3, 1.0 ],
        "metallicFactor" : 0.1,
        "roughnessFactor" : 0.5
      }
    }
  ],
  "meshes" : [
    {
      "primitives" : [
        {
          "attributes" : {
            "POSITION" : 1,
            "NORMAL" : 2,
            "TANGENT" : 3,
            "COLOR_0" : 4,
            "TEXCOORD_0" : 5,
            "TEXCOORD_1" : 6,
            "TEXCOORD_2" : 7,
            "TEXCOORD_3" : 8
          },
          "indices" : 0,
          "material" : 0
        },
        {
          "attributes" : {
            "POSITION" : 10,
            "NORMAL" : 11,
            "TANGENT" : 12,
            "COLOR_0" : 13,
            "TEXCOORD_0" : 14,
            "TEXCOORD_1" : 15,
            "TEXCOORD_2" : 16,
            "TEXCOORD_3" : 17
          },
          "indices" : 9,
          "material" : 1
        },
        {
          "attributes" : {
            "POSITION" : 19,
            "NORMAL" : 20,
            "TANGENT" : 21,
            "COLOR_0" : 22,
            "TEXCOORD_0" : 23,
            "TEXCOORD_1" : 24,
            "TEXCOORD_2" : 25,
            "TEXCOORD_3" : 26
          },
          "indices" : 18,
          "material" : 2
        },
        {
          "attributes" : {
            "POSITION" : 28,
            "NORMAL" : 29,
            "TANGENT" : 30,
            "COLOR_0" : 31,
            "TEXCOORD_0" : 32,
            "TEXCOORD_1" : 33,
            "TEXCOORD_2" : 34,
            "TEXCOORD_3" : 35
          },
          "indices" : 27,
          "material" : 3
        },
        {
          "attributes" : {
            "POSITION" : 37,
            "NORMAL" : 38,
            "TANGENT" : 39,
            "COLOR_0" : 40,
            "TEXCOORD_0" : 41,
            "TEXCOORD_1" : 42,
            "TEXCOORD_2" : 43,
            "TEXCOORD_3" : 44
          },
          "indices" : 36,
          "material" : 4
        },
        {
          "attributes" : {
            "POSITION" : 46,
            "NORMAL" : 47,
            "TANGENT" : 48,
            "COLOR_0" : 49,
            "TEXCOORD_0" : 50,
            "TEXCOORD_1" : 51,
            "TEXCOORD_2" : 52,
            "TEXCOORD_3" : 53
          },
          "indices" : 45,
          "material" : 5
        },
        {
          "attributes" : {
            "POSITION" : 55,
            "NORMAL" : 56,
            "TANGENT" : 57,
            "COLOR_0" : 58,
            "TEXCOORD_0" : 59,
            "TEXCOORD_1" : 60,
            "TEXCOORD_2" : 61,
            "TEXCOORD_3" : 62
          },
          "indices" : 54,
          "material" : 6
        },
        {
          "attributes" : {
            "POSITION" : 64,
            "NORMAL" : 65,
            "TANGENT" : 66,
            "COLOR_0" : 67,
            "TEXCOORD_0" : 68,
            "TEXCOORD_1" : 69,
            "TEXCOORD_2" : 70,
            "TEXCOORD_3" : 71
          },
          "indices" : 63,
          "material" : 7
        },
        {
          "attributes" : {
            "POSITION" : 73,
            "NORMAL" : 74,
            "TANGENT" : 75,
            "COLOR_0" : 76,
            "TEXCOORD_0" : 77,
            "TEXCOORD_1" : 78,
            "TEXCOORD_2" : 79,
            "TEXCOORD_3" : 80
          },
          "indices" : 72,
          "material" : 8
        },
        {
          "attributes" : {
            "POSITION" : 82,
            "NORMAL" : 83,
            "TANGENT" : 84,
            "COLOR_0" : 85,
            "TEXCOORD_0" : 86,
            "TEXCOORD_1" : 87,
            "TEXCOORD_2" : 88,
            "TEXCOORD_3" : 89
          },
          "indices" : 81,
          "material" : 9
        },
        {
          "attributes" : {
            "POSITION" : 91,
            "NORMAL" : 92,
            "TANGENT" : 93,
            "COLOR_0" : 94,
            "TEXCOORD_0" : 95,
            "TEXCOORD_1" : 96,
            "TEXCOORD_2" : 97,
            "TEXCOORD_3" : 98
          },
          "indices" : 90,
          "material" : 10
        },
        {
          "attributes" : {
            "POSITION" : 100,
            "NORMAL" : 101,
            "TANGENT" : 102,
            "COLOR_0" : 103,
            "TEXCOORD_0" : 104,
            "TEXCOORD_1" : 105,
            "TEXCOORD_2" : 106,
            "TEXCOORD_3" : 107
          },
          "indices" : 99,
          "material" : 11
        },
        {
          "attributes" : {
            "POSITION" : 109,
            "NORMAL" : 110,
            "TANGENT" : 111,
            "COLOR_0" : 112,
            "TEXCOORD_0" : 113,
            "TEXCOORD_1" : 114,
            "TEXCOORD_2" : 115,
            "TEXCOORD_3" : 116
          },
          "indices" : 108,
          "material" : 12
        },
        {
          "attributes" : {
            "POSITION" : 118,
            "NORMAL" : 119,
            "TANGENT" : 120,
            "COLOR_0" : 121,
            "TEXCOORD_0" : 122,
            "TEXCOORD_1" : 123,
            "TEXCOORD_2" : 124,
            "TEXCOORD_3" : 125
          },
          "indices" : 117,
          "material" : 13
        }
      ],
      "name" : "SM_ENV_LKNVLD_Hatago_Structure_Lod3"
    }
  ],
  "buffers" : [
    {
      "uri" : "SM_ENV_LKNVLD_Hatago_Structure_Lod3.bin",
      "byteLength" : 855888
    }
  ],
  "bufferViews" : [
    {
      "buffer" : 0,
      "byteOffset" : 0,
      "byteLength" : 16160
    },
    {
      "buffer" : 0,
      "byteOffset" : 16160,
      "byteLength" : 58380
    },
    {
      "buffer" : 0,
      "byteOffset" : 74540,
      "byteLength" : 58380
    },
    {
      "buffer" : 0,
      "byteOffset" : 132920,
      "byteLength" : 77840
    },
    {
      "buffer" : 0,
      "byteOffset" : 210760,
      "byteLength" : 19460
    },
    {
      "buffer" : 0,
      "byteOffset" : 230220,
      "byteLength" : 38920
    },
    {
      "buffer" : 0,
      "byteOffset" : 269140,
      "byteLength" : 38920
    },
    {
      "buffer" : 0,
      "byteOffset" : 308060,
      "byteLength" : 38920
    },
    {
      "buffer" : 0,
      "byteOffset" : 346980,
      "byteLength" : 38920
    },
    {
      "buffer" : 0,
      "byteOffset" : 385900,
      "byteLength" : 3392
    },
    {
      "buffer" : 0,
      "byteOffset" : 389292,
      "byteLength" : 8088
    },
    {
      "buffer" : 0,
      "byteOffset" : 397380,
      "byteLength" : 8088
    },
    {
      "buffer" : 0,
      "byteOffset" : 405468,
      "byteLength" : 10784
    },
    {
      "buffer" : 0,
      "byteOffset" : 416252,
      "byteLength" : 2696
    },
    {
      "buffer" : 0,
      "byteOffset" : 418948,
      "byteLength" : 5392
    },
    {
      "buffer" : 0,
      "byteOffset" : 424340,
      "byteLength" : 5392
    },
    {
      "buffer" : 0,
      "byteOffset" : 429732,
      "byteLength" : 5392
    },
    {
      "buffer" : 0,
      "byteOffset" : 435124,
      "byteLength" : 5392
    },
    {
      "buffer" : 0,
      "byteOffset" : 440516,
      "byteLength" : 1592
    },
    {
      "buffer" : 0,
      "byteOffset" : 442108,
      "byteLength" : 5220
    },
    {
      "buffer" : 0,
      "byteOffset" : 447328,
      "byteLength" : 5220
    },
    {
      "buffer" : 0,
      "byteOffset" : 452548,
      "byteLength" : 6960
    },
    {
      "buffer" : 0,
      "byteOffset" : 459508,
      "byteLength" : 1740
    },
    {
      "buffer" : 0,
      "byteOffset" : 461248,
      "byteLength" : 3480
    },
    {
      "buffer" : 0,
      "byteOffset" : 464728,
      "byteLength" : 3480
    },
    {
      "buffer" : 0,
      "byteOffset" : 468208,
      "byteLength" : 3480
    },
    {
      "buffer" : 0,
      "byteOffset" : 471688,
      "byteLength" : 3480
    },
    {
      "buffer" : 0,
      "byteOffset" : 475168,
      "byteLength" : 624
    },
    {
      "buffer" : 0,
      "byteOffset" : 475792,
      "byteLength" : 1440
    },
    {
      "buffer" : 0,
      "byteOffset" : 477232,
      "byteLength" : 1440
    },
    {
      "buffer" : 0,
      "byteOffset" : 478672,
      "byteLength" : 1920
    },
    {
      "buffer" : 0,
      "byteOffset" : 480592,
      "byteLength" : 480
    },
    {
      "buffer" : 0,
      "byteOffset" : 481072,
      "byteLength" : 960
    },
    {
      "buffer" : 0,
      "byteOffset" : 482032,
      "byteLength" : 960
    },
    {
      "buffer" : 0,
      "byteOffset" : 482992,
      "byteLength" : 960
    },
    {
      "buffer" : 0,
      "byteOffset" : 483952,
      "byteLength" : 960
    },
    {
      "buffer" : 0,
      "byteOffset" : 484912,
      "byteLength" : 264
    },
    {
      "buffer" : 0,
      "byteOffset" : 485176,
      "byteLength" : 540
    },
    {
      "buffer" : 0,
      "byteOffset" : 485716,
      "byteLength" : 540
    },
    {
      "buffer" : 0,
      "byteOffset" : 486256,
      "byteLength" : 720
    },
    {
      "buffer" : 0,
      "byteOffset" : 486976,
      "byteLength" : 180
    },
    {
      "buffer" : 0,
      "byteOffset" : 487156,
      "byteLength" : 360
    },
    {
      "buffer" : 0,
      "byteOffset" : 487516,
      "byteLength" : 360
    },
    {
      "buffer" : 0,
      "byteOffset" : 487876,
      "byteLength" : 360
    },
    {
      "buffer" : 0,
      "byteOffset" : 488236,
      "byteLength" : 360
    },
    {
      "buffer" : 0,
      "byteOffset" : 488596,
      "byteLength" : 1340
    },
    {
      "buffer" : 0,
      "byteOffset" : 489936,
      "byteLength" : 4728
    },
    {
      "buffer" : 0,
      "byteOffset" : 494664,
      "byteLength" : 4728
    },
    {
      "buffer" : 0,
      "byteOffset" : 499392,
      "byteLength" : 6304
    },
    {
      "buffer" : 0,
      "byteOffset" : 505696,
      "byteLength" : 1576
    },
    {
      "buffer" : 0,
      "byteOffset" : 507272,
      "byteLength" : 3152
    },
    {
      "buffer" : 0,
      "byteOffset" : 510424,
      "byteLength" : 3152
    },
    {
      "buffer" : 0,
      "byteOffset" : 513576,
      "byteLength" : 3152
    },
    {
      "buffer" : 0,
      "byteOffset" : 516728,
      "byteLength" : 3152
    },
    {
      "buffer" : 0,
      "byteOffset" : 519880,
      "byteLength" : 120
    },
    {
      "buffer" : 0,
      "byteOffset" : 520000,
      "byteLength" : 480
    },
    {
      "buffer" : 0,
      "byteOffset" : 520480,
      "byteLength" : 480
    },
    {
      "buffer" : 0,
      "byteOffset" : 520960,
      "byteLength" : 640
    },
    {
      "buffer" : 0,
      "byteOffset" : 521600,
      "byteLength" : 160
    },
    {
      "buffer" : 0,
      "byteOffset" : 521760,
      "byteLength" : 320
    },
    {
      "buffer" : 0,
      "byteOffset" : 522080,
      "byteLength" : 320
    },
    {
      "buffer" : 0,
      "byteOffset" : 522400,
      "byteLength" : 320
    },
    {
      "buffer" : 0,
      "byteOffset" : 522720,
      "byteLength" : 320
    },
    {
      "buffer" : 0,
      "byteOffset" : 523040,
      "byteLength" : 6656
    },
    {
      "buffer" : 0,
      "byteOffset" : 529696,
      "byteLength" : 17208
    },
    {
      "buffer" : 0,
      "byteOffset" : 546904,
      "byteLength" : 17208
    },
    {
      "buffer" : 0,
      "byteOffset" : 564112,
      "byteLength" : 22944
    },
    {
      "buffer" : 0,
      "byteOffset" : 587056,
      "byteLength" : 5736
    },
    {
      "buffer" : 0,
      "byteOffset" : 592792,
      "byteLength" : 11472
    },
    {
      "buffer" : 0,
      "byteOffset" : 604264,
      "byteLength" : 11472
    },
    {
      "buffer" : 0,
      "byteOffset" : 615736,
      "byteLength" : 11472
    },
    {
      "buffer" : 0,
      "byteOffset" : 627208,
      "byteLength" : 11472
    },
    {
      "buffer" : 0,
      "byteOffset" : 638680,
      "byteLength" : 872
    },
    {
      "buffer" : 0,
      "byteOffset" : 639552,
      "byteLength" : 3324
    },
    {
      "buffer" : 0,
      "byteOffset" : 642876,
      "byteLength" : 3324
    },
    {
      "buffer" : 0,
      "byteOffset" : 646200,
      "byteLength" : 4432
    },
    {
      "buffer" : 0,
      "byteOffset" : 650632,
      "byteLength" : 1108
    },
    {
      "buffer" : 0,
      "byteOffset" : 651740,
      "byteLength" : 2216
    },
    {
      "buffer" : 0,
      "byteOffset" : 653956,
      "byteLength" : 2216
    },
    {
      "buffer" : 0,
      "byteOffset" : 656172,
      "byteLength" : 2216
    },
    {
      "buffer" : 0,
      "byteOffset" : 658388,
      "byteLength" : 2216
    },
    {
      "buffer" : 0,
      "byteOffset" : 660604,
      "byteLength" : 60
    },
    {
      "buffer" : 0,
      "byteOffset" : 660664,
      "byteLength" : 240
    },
    {
      "buffer" : 0,
      "byteOffset" : 660904,
      "byteLength" : 240
    },
    {
      "buffer" : 0,
      "byteOffset" : 661144,
      "byteLength" : 320
    },
    {
      "buffer" : 0,
      "byteOffset" : 661464,
      "byteLength" : 80
    },
    {
      "buffer" : 0,
      "byteOffset" : 661544,
      "byteLength" : 160
    },
    {
      "buffer" : 0,
      "byteOffset" : 661704,
      "byteLength" : 160
    },
    {
      "buffer" : 0,
      "byteOffset" : 661864,
      "byteLength" : 160
    },
    {
      "buffer" : 0,
      "byteOffset" : 662024,
      "byteLength" : 160
    },
    {
      "buffer" : 0,
      "byteOffset" : 662184,
      "byteLength" : 552
    },
    {
      "buffer" : 0,
      "byteOffset" : 662736,
      "byteLength" : 2208
    },
    {
      "buffer" : 0,
      "byteOffset" : 664944,
      "byteLength" : 2208
    },
    {
      "buffer" : 0,
      "byteOffset" : 667152,
      "byteLength" : 2944
    },
    {
      "buffer" : 0,
      "byteOffset" : 670096,
      "byteLength" : 736
    },
    {
      "buffer" : 0,
      "byteOffset" : 670832,
      "byteLength" : 1472
    },
    {
      "buffer" : 0,
      "byteOffset" : 672304,
      "byteLength" : 1472
    },
    {
      "buffer" : 0,
      "byteOffset" : 673776,
      "byteLength" : 1472
    },
    {
      "buffer" : 0,
      "byteOffset" : 675248,
      "byteLength" : 1472
    },
    {
      "buffer" : 0,
      "byteOffset" : 676720,
      "byteLength" : 188
    },
    {
      "buffer" : 0,
      "byteOffset" : 676908,
      "byteLength" : 732
    },
    {
      "buffer" : 0,
      "byteOffset" : 677640,
      "byteLength" : 732
    },
    {
      "buffer" : 0,
      "byteOffset" : 678372,
      "byteLength" : 976
    },
    {
      "buffer" : 0,
      "byteOffset" : 679348,
      "byteLength" : 244
    },
    {
      "buffer" : 0,
      "byteOffset" : 679592,
      "byteLength" : 488
    },
    {
      "buffer" : 0,
      "byteOffset" : 680080,
      "byteLength" : 488
    },
    {
      "buffer" : 0,
      "byteOffset" : 680568,
      "byteLength" : 488
    },
    {
      "buffer" : 0,
      "byteOffset" : 681056,
      "byteLength" : 488
    },
    {
      "buffer" : 0,
      "byteOffset" : 681544,
      "byteLength" : 192
    },
    {
      "buffer" : 0,
      "byteOffset" : 681736,
      "byteLength" : 576
    },
    {
      "buffer" : 0,
      "byteOffset" : 682312,
      "byteLength" : 576
    },
    {
      "buffer" : 0,
      "byteOffset" : 682888,
      "byteLength" : 768
    },
    {
      "buffer" : 0,
      "byteOffset" : 683656,
      "byteLength" : 192
    },
    {
      "buffer" : 0,
      "byteOffset" : 683848,
      "byteLength" : 384
    },
    {
      "buffer" : 0,
      "byteOffset" : 684232,
      "byteLength" : 384
    },
    {
      "buffer" : 0,
      "byteOffset" : 684616,
      "byteLength" : 384
    },
    {
      "buffer" : 0,
      "byteOffset" : 685000,
      "byteLength" : 384
    },
    {
      "buffer" : 0,
      "byteOffset" : 685384,
      "byteLength" : 8244
    },
    {
      "buffer" : 0,
      "byteOffset" : 693628,
      "byteLength" : 25620
    },
    {
      "buffer" : 0,
      "byteOffset" : 719248,
      "byteLength" : 25620
    },
    {
      "buffer" : 0,
      "byteOffset" : 744868,
      "byteLength" : 34160
    },
    {
      "buffer" : 0,
      "byteOffset" : 779028,
      "byteLength" : 8540
    },
    {
      "buffer" : 0,
      "byteOffset" : 787568,
      "byteLength" : 17080
    },
    {
      "buffer" : 0,
      "byteOffset" : 804648,
      "byteLength" : 17080
    },
    {
      "buffer" : 0,
      "byteOffset" : 821728,
      "byteLength" : 17080
    },
    {
      "buffer" : 0,
      "byteOffset" : 838808,
      "byteLength" : 17080
    }
  ],
  "accessors" : [
    {
      "bufferView" : 0,
      "componentType" : 5123,
      "count" : 8079,
      "type" : "SCALAR"
    },
    {
      "bufferView" : 1,
      "min" : [ -56.8465, 5.7063, -19.2322 ],
      "max" : [ -35.2139, 28.7375, 18.4038 ],
      "componentType" : 5126,
      "count" : 4865,
      "type" : "VEC3"
    },
    {
      "bufferView" : 2,
      "componentType" : 5126,
      "count" : 4865,
      "type" : "VEC3"
    },
    {
      "bufferView" : 3,
      "componentType" : 5126,
      "count" : 4865,
      "type" : "VEC4"
    },
    {
      "bufferView" : 4,
      "normalized" : true,
      "componentType" : 5121,
      "count" : 4865,
      "type" : "VEC4"
    },
    {
      "bufferView" : 5,
      "componentType" : 5126,
      "count" : 4865,
      "type" : "VEC2"
    },
    {
      "bufferView" : 6,
      "componentType" : 5126,
      "count" : 4865,
      "type" : "VEC2"
    },
    {
      "bufferView" : 7,
      "componentType" : 5126,
      "count" : 4865,
      "type" : "VEC2"
    },
    {
      "bufferView" : 8,
      "componentType" : 5126,
      "count" : 4865,
      "type" : "VEC2"
    },
    {
      "bufferView" : 9,
      "componentType" : 5123,
      "count" : 1695,
      "type" : "SCALAR"
    },
    {
      "bufferView" : 10,
      "min" : [ -56.8464, 10.345, -19.2322 ],
      "max" : [ -35.2692, 29.4911, 18.4038 ],
      "componentType" : 5126,
      "count" : 674,
      "type" : "VEC3"
    },
    {
      "bufferView" : 11,
      "componentType" : 5126,
      "count" : 674,
      "type" : "VEC3"
    },
    {
      "bufferView" : 12,
      "componentType" : 5126,
      "count" : 674,
      "type" : "VEC4"
    },
    {
      "bufferView" : 13,
      "normalized" : true,
      "componentType" : 5121,
      "count" : 674,
      "type" : "VEC4"
    },
    {
      "bufferView" : 14,
      "componentType" : 5126,
      "count" : 674,
      "type" : "VEC2"
    },
    {
      "bufferView" : 15,
      "componentType" : 5126,
      "count" : 674,
      "type" : "VEC2"
    },
    {
      "bufferView" : 16,
      "componentType" : 5126,
      "count" : 674,
      "type" : "VEC2"
    },
    {
      "bufferView" : 17,
      "componentType" : 5126,
      "count" : 674,
      "type" : "VEC2"
    },
    {
      "bufferView" : 18,
      "componentType" : 5123,
      "count" : 795,
      "type" : "SCALAR"
    },
    {
      "bufferView" : 19,
      "min" : [ -54.2948, 5.90641, -16.3696 ],
      "max" : [ -37.3837, 28.8398, 15.5721 ],
      "componentType" : 5126,
      "count" : 435,
      "type" : "VEC3"
    },
    {
      "bufferView" : 20,
      "componentType" : 5126,
      "count" : 435,
      "type" : "VEC3"
    },
    {
      "bufferView" : 21,
      "componentType" : 5126,
      "count" : 435,
      "type" : "VEC4"
    },
    {
      "bufferView" : 22,
      "normalized" : true,
      "componentType" : 5121,
      "count" : 435,
      "type" : "VEC4"
    },
    {
      "bufferView" : 23,
      "componentType" : 5126,
      "count" : 435,
      "type" : "VEC2"
    },
    {
      "bufferView" : 24,
      "componentType" : 5126,
      "count" : 435,
      "type" : "VEC2"
    },
    {
      "bufferView" : 25,
      "componentType" : 5126,
      "count" : 435,
      "type" : "VEC2"
    },
    {
      "bufferView" : 26,
      "componentType" : 5126,
      "count" : 435,
      "type" : "VEC2"
    },
    {
      "bufferView" : 27,
      "componentType" : 5123,
      "count" : 312,
      "type" : "SCALAR"
    },
    {
      "bufferView" : 28,
      "min" : [ -53.2412, 25.8081, -9.8116 ],
      "max" : [ -41.7716, 26.5132, 8.99077 ],
      "componentType" : 5126,
      "count" : 120,
      "type" : "VEC3"
    },
    {
      "bufferView" : 29,
      "componentType" : 5126,
      "count" : 120,
      "type" : "VEC3"
    },
    {
      "bufferView" : 30,
      "componentType" : 5126,
      "count" : 120,
      "type" : "VEC4"
    },
    {
      "bufferView" : 31,
      "normalized" : true,
      "componentType" : 5121,
      "count" : 120,
      "type" : "VEC4"
    },
    {
      "bufferView" : 32,
      "componentType" : 5126,
      "count" : 120,
      "type" : "VEC2"
    },
    {
      "bufferView" : 33,
      "componentType" : 5126,
      "count" : 120,
      "type" : "VEC2"
    },
    {
      "bufferView" : 34,
      "componentType" : 5126,
      "count" : 120,
      "type" : "VEC2"
    },
    {
      "bufferView" : 35,
      "componentType" : 5126,
      "count" : 120,
      "type" : "VEC2"
    },
    {
      "bufferView" : 36,
      "componentType" : 5123,
      "count" : 132,
      "type" : "SCALAR"
    },
    {
      "bufferView" : 37,
      "min" : [ -41.8315, 26.7643, -0.988765 ],
      "max" : [ -40.6212, 28.4703, 0.162235 ],
      "componentType" : 5126,
      "count" : 45,
      "type" : "VEC3"
    },
    {
      "bufferView" : 38,
      "componentType" : 5126,
      "count" : 45,
      "type" : "VEC3"
    },
    {
      "bufferView" : 39,
      "componentType" : 5126,
      "count" : 45,
      "type" : "VEC4"
    },
    {
      "bufferView" : 40,
      "normalized" : true,
      "componentType" : 5121,
      "count" : 45,
      "type" : "VEC4"
    },
    {
      "bufferView" : 41,
      "componentType" : 5126,
      "count" : 45,
      "type" : "VEC2"
    },
    {
      "bufferView" : 42,
      "componentType" : 5126,
      "count" : 45,
      "type" : "VEC2"
    },
    {
      "bufferView" : 43,
      "componentType" : 5126,
      "count" : 45,
      "type" : "VEC2"
    },
    {
      "bufferView" : 44,
      "componentType" : 5126,
      "count" : 45,
      "type" : "VEC2"
    },
    {
      "bufferView" : 45,
      "componentType" : 5123,
      "count" : 669,
      "type" : "SCALAR"
    },
    {
      "bufferView" : 46,
      "min" : [ -54.879, 13.5412, -9.65465 ],
      "max" : [ -35.2275, 29.5264, 8.86132 ],
      "componentType" : 5126,
      "count" : 394,
      "type" : "VEC3"
    },
    {
      "bufferView" : 47,
      "componentType" : 5126,
      "count" : 394,
      "type" : "VEC3"
    },
    {
      "bufferView" : 48,
      "componentType" : 5126,
      "count" : 394,
      "type" : "VEC4"
    },
    {
      "bufferView" : 49,
      "normalized" : true,
      "componentType" : 5121,
      "count" : 394,
      "type" : "VEC4"
    },
    {
      "bufferView" : 50,
      "componentType" : 5126,
      "count" : 394,
      "type" : "VEC2"
    },
    {
      "bufferView" : 51,
      "componentType" : 5126,
      "count" : 394,
      "type" : "VEC2"
    },
    {
      "bufferView" : 52,
      "componentType" : 5126,
      "count" : 394,
      "type" : "VEC2"
    },
    {
      "bufferView" : 53,
      "componentType" : 5126,
      "count" : 394,
      "type" : "VEC2"
    },
    {
      "bufferView" : 54,
      "componentType" : 5123,
      "count" : 60,
      "type" : "SCALAR"
    },
    {
      "bufferView" : 55,
      "min" : [ -37.8879, 15.1207, -9.43787 ],
      "max" : [ -37.0921, 20.4209, 0.24505 ],
      "componentType" : 5126,
      "count" : 40,
      "type" : "VEC3"
    },
    {
      "bufferView" : 56,
      "componentType" : 5126,
      "count" : 40,
      "type" : "VEC3"
    },
    {
      "bufferView" : 57,
      "componentType" : 5126,
      "count" : 40,
      "type" : "VEC4"
    },
    {
      "bufferView" : 58,
      "normalized" : true,
      "componentType" : 5121,
      "count" : 40,
      "type" : "VEC4"
    },
    {
      "bufferView" : 59,
      "componentType" : 5126,
      "count" : 40,
      "type" : "VEC2"
    },
    {
      "bufferView" : 60,
      "componentType" : 5126,
      "count" : 40,
      "type" : "VEC2"
    },
    {
      "bufferView" : 61,
      "componentType" : 5126,
      "count" : 40,
      "type" : "VEC2"
    },
    {
      "bufferView" : 62,
      "componentType" : 5126,
      "count" : 40,
      "type" : "VEC2"
    },
    {
      "bufferView" : 63,
      "componentType" : 5123,
      "count" : 3327,
      "type" : "SCALAR"
    },
    {
      "bufferView" : 64,
      "min" : [ -56.4474, 11.7064, -18.0362 ],
      "max" : [ -35.8619, 27.8801, 17.2827 ],
      "componentType" : 5126,
      "count" : 1434,
      "type" : "VEC3"
    },
    {
      "bufferView" : 65,
      "componentType" : 5126,
      "count" : 1434,
      "type" : "VEC3"
    },
    {
      "bufferView" : 66,
      "componentType" : 5126,
      "count" : 1434,
      "type" : "VEC4"
    },
    {
      "bufferView" : 67,
      "normalized" : true,
      "componentType" : 5121,
      "count" : 1434,
      "type" : "VEC4"
    },
    {
      "bufferView" : 68,
      "componentType" : 5126,
      "count" : 1434,
      "type" : "VEC2"
    },
    {
      "bufferView" : 69,
      "componentType" : 5126,
      "count" : 1434,
      "type" : "VEC2"
    },
    {
      "bufferView" : 70,
      "componentType" : 5126,
      "count" : 1434,
      "type" : "VEC2"
    },
    {
      "bufferView" : 71,
      "componentType" : 5126,
      "count" : 1434,
      "type" : "VEC2"
    },
    {
      "bufferView" : 72,
      "componentType" : 5123,
      "count" : 435,
      "type" : "SCALAR"
    },
    {
      "bufferView" : 73,
      "min" : [ -54.723, 5.70633, -16.6217 ],
      "max" : [ -37.4945, 28.6569, 15.7933 ],
      "componentType" : 5126,
      "count" : 277,
      "type" : "VEC3"
    },
    {
      "bufferView" : 74,
      "componentType" : 5126,
      "count" : 277,
      "type" : "VEC3"
    },
    {
      "bufferView" : 75,
      "componentType" : 5126,
      "count" : 277,
      "type" : "VEC4"
    },
    {
      "bufferView" : 76,
      "normalized" : true,
      "componentType" : 5121,
      "count" : 277,
      "type" : "VEC4"
    },
    {
      "bufferView" : 77,
      "componentType" : 5126,
      "count" : 277,
      "type" : "VEC2"
    },
    {
      "bufferView" : 78,
      "componentType" : 5126,
      "count" : 277,
      "type" : "VEC2"
    },
    {
      "bufferView" : 79,
      "componentType" : 5126,
      "count" : 277,
      "type" : "VEC2"
    },
    {
      "bufferView" : 80,
      "componentType" : 5126,
      "count" : 277,
      "type" : "VEC2"
    },
    {
      "bufferView" : 81,
      "componentType" : 5123,
      "count" : 30,
      "type" : "SCALAR"
    },
    {
      "bufferView" : 82,
      "min" : [ -43.0124, 5.70641, -0.0712756 ],
      "max" : [ -39.0124, 10.3064, 5.8772 ],
      "componentType" : 5126,
      "count" : 20,
      "type" : "VEC3"
    },
    {
      "bufferView" : 83,
      "componentType" : 5126,
      "count" : 20,
      "type" : "VEC3"
    },
    {
      "bufferView" : 84,
      "componentType" : 5126,
      "count" : 20,
      "type" : "VEC4"
    },
    {
      "bufferView" : 85,
      "normalized" : true,
      "componentType" : 5121,
      "count" : 20,
      "type" : "VEC4"
    },
    {
      "bufferView" : 86,
      "componentType" : 5126,
      "count" : 20,
      "type" : "VEC2"
    },
    {
      "bufferView" : 87,
      "componentType" : 5126,
      "count" : 20,
      "type" : "VEC2"
    },
    {
      "bufferView" : 88,
      "componentType" : 5126,
      "count" : 20,
      "type" : "VEC2"
    },
    {
      "bufferView" : 89,
      "componentType" : 5126,
      "count" : 20,
      "type" : "VEC2"
    },
    {
      "bufferView" : 90,
      "componentType" : 5123,
      "count" : 276,
      "type" : "SCALAR"
    },
    {
      "bufferView" : 91,
      "min" : [ -54.046, 5.85633, -16.6256 ],
      "max" : [ -37.4378, 21.7666, 15.1011 ],
      "componentType" : 5126,
      "count" : 184,
      "type" : "VEC3"
    },
    {
      "bufferView" : 92,
      "componentType" : 5126,
      "count" : 184,
      "type" : "VEC3"
    },
    {
      "bufferView" : 93,
      "componentType" : 5126,
      "count" : 184,
      "type" : "VEC4"
    },
    {
      "bufferView" : 94,
      "normalized" : true,
      "componentType" : 5121,
      "count" : 184,
      "type" : "VEC4"
    },
    {
      "bufferView" : 95,
      "componentType" : 5126,
      "count" : 184,
      "type" : "VEC2"
    },
    {
      "bufferView" : 96,
      "componentType" : 5126,
      "count" : 184,
      "type" : "VEC2"
    },
    {
      "bufferView" : 97,
      "componentType" : 5126,
      "count" : 184,
      "type" : "VEC2"
    },
    {
      "bufferView" : 98,
      "componentType" : 5126,
      "count" : 184,
      "type" : "VEC2"
    },
    {
      "bufferView" : 99,
      "componentType" : 5123,
      "count" : 93,
      "type" : "SCALAR"
    },
    {
      "bufferView" : 100,
      "min" : [ -36.5991, 11.4403, 1.39043 ],
      "max" : [ -35.8357, 12.6477, 4.34698 ],
      "componentType" : 5126,
      "count" : 61,
      "type" : "VEC3"
    },
    {
      "bufferView" : 101,
      "componentType" : 5126,
      "count" : 61,
      "type" : "VEC3"
    },
    {
      "bufferView" : 102,
      "componentType" : 5126,
      "count" : 61,
      "type" : "VEC4"
    },
    {
      "bufferView" : 103,
      "normalized" : true,
      "componentType" : 5121,
      "count" : 61,
      "type" : "VEC4"
    },
    {
      "bufferView" : 104,
      "componentType" : 5126,
      "count" : 61,
      "type" : "VEC2"
    },
    {
      "bufferView" : 105,
      "componentType" : 5126,
      "count" : 61,
      "type" : "VEC2"
    },
    {
      "bufferView" : 106,
      "componentType" : 5126,
      "count" : 61,
      "type" : "VEC2"
    },
    {
      "bufferView" : 107,
      "componentType" : 5126,
      "count" : 61,
      "type" : "VEC2"
    },
    {
      "bufferView" : 108,
      "componentType" : 5123,
      "count" : 96,
      "type" : "SCALAR"
    },
    {
      "bufferView" : 109,
      "min" : [ -40.9004, 24.2761, -9.4307 ],
      "max" : [ -38.9528, 26.452, 8.59493 ],
      "componentType" : 5126,
      "count" : 48,
      "type" : "VEC3"
    },
    {
      "bufferView" : 110,
      "componentType" : 5126,
      "count" : 48,
      "type" : "VEC3"
    },
    {
      "bufferView" : 111,
      "componentType" : 5126,
      "count" : 48,
      "type" : "VEC4"
    },
    {
      "bufferView" : 112,
      "normalized" : true,
      "componentType" : 5121,
      "count" : 48,
      "type" : "VEC4"
    },
    {
      "bufferView" : 113,
      "componentType" : 5126,
      "count" : 48,
      "type" : "VEC2"
    },
    {
      "bufferView" : 114,
      "componentType" : 5126,
      "count" : 48,
      "type" : "VEC2"
    },
    {
      "bufferView" : 115,
      "componentType" : 5126,
      "count" : 48,
      "type" : "VEC2"
    },
    {
      "bufferView" : 116,
      "componentType" : 5126,
      "count" : 48,
      "type" : "VEC2"
    },
    {
      "bufferView" : 117,
      "componentType" : 5123,
      "count" : 4122,
      "type" : "SCALAR"
    },
    {
      "bufferView" : 118,
      "min" : [ -56.3916, 5.70633, -17.6251 ],
      "max" : [ -35.7241, 30.9305, 16.9231 ],
      "componentType" : 5126,
      "count" : 2135,
      "type" : "VEC3"
    },
    {
      "bufferView" : 119,
      "componentType" : 5126,
      "count" : 2135,
      "type" : "VEC3"
    },
    {
      "bufferView" : 120,
      "componentType" : 5126,
      "count" : 2135,
      "type" : "VEC4"
    },
    {
      "bufferView" : 121,
      "normalized" : true,
      "componentType" : 5121,
      "count" : 2135,
      "type" : "VEC4"
    },
    {
      "bufferView" : 122,
      "componentType" : 5126,
      "count" : 2135,
      "type" : "VEC2"
    },
    {
      "bufferView" : 123,
      "componentType" : 5126,
      "count" : 2135,
      "type" : "VEC2"
    },
    {
      "bufferView" : 124,
      "componentType" : 5126,
      "count" : 2135,
      "type" : "VEC2"
    },
    {
      "bufferView" : 125,
      "componentType" : 5126,
      "count" : 2135,
      "type" : "VEC2"
    }
  ]
}
