{
  "asset" : {
    "generator" : "UE Viewer (umodel) build 1544 based",
    "version" : "2.0"
  },
  "scene" : 0,
  "scenes" : [
    {
      "nodes" : [ 0 ]
    }
  ],
  "nodes" : [
    {
      "name" : "SM_ENV_LKNVLD_Stall_J",
      "mesh" : 0
    }
  ],
  "materials" : [
    {
      "name" : "MI_ENV_LKNVLD_Stall_J",
      "pbrMetallicRoughness" : {
        "baseColorFactor" : [ 0.3, 0.3, 0.3, 1.0 ],
        "metallicFactor" : 0.1,
        "roughnessFactor" : 0.5
      }
    },
    {
      "name" : "MI_ENV_LKNVLD_Roof_Aa",
      "pbrMetallicRoughness" : {
        "baseColorFactor" : [ 0.9, 0.3, 0.3, 1.0 ],
        "metallicFactor" : 0.1,
        "roughnessFactor" : 0.5
      }
    }
  ],
  "meshes" : [
    {
      "primitives" : [
        {
          "attributes" : {
            "POSITION" : 1,
            "NORMAL" : 2,
            "TANGENT" : 3,
            "COLOR_0" : 4,
            "TEXCOORD_0" : 5,
            "TEXCOORD_1" : 6,
            "TEXCOORD_2" : 7,
            "TEXCOORD_3" : 8
          },
          "indices" : 0,
          "material" : 0
        },
        {
          "attributes" : {
            "POSITION" : 10,
            "NORMAL" : 11,
            "TANGENT" : 12,
            "COLOR_0" : 13,
            "TEXCOORD_0" : 14,
            "TEXCOORD_1" : 15,
            "TEXCOORD_2" : 16,
            "TEXCOORD_3" : 17
          },
          "indices" : 9,
          "material" : 1
        }
      ],
      "name" : "SM_ENV_LKNVLD_Stall_J"
    }
  ],
  "buffers" : [
    {
      "uri" : "SM_ENV_LKNVLD_Stall_J.bin",
      "byteLength" : 2151520
    }
  ],
  "bufferViews" : [
    {
      "buffer" : 0,
      "byteOffset" : 0,
      "byteLength" : 179508
    },
    {
      "buffer" : 0,
      "byteOffset" : 179508,
      "byteLength" : 310476
    },
    {
      "buffer" : 0,
      "byteOffset" : 489984,
      "byteLength" : 310476
    },
    {
      "buffer" : 0,
      "byteOffset" : 800460,
      "byteLength" : 413968
    },
    {
      "buffer" : 0,
      "byteOffset" : 1214428,
      "byteLength" : 103492
    },
    {
      "buffer" : 0,
      "byteOffset" : 1317920,
      "byteLength" : 206984
    },
    {
      "buffer" : 0,
      "byteOffset" : 1524904,
      "byteLength" : 206984
    },
    {
      "buffer" : 0,
      "byteOffset" : 1731888,
      "byteLength" : 206984
    },
    {
      "buffer" : 0,
      "byteOffset" : 1938872,
      "byteLength" : 206984
    },
    {
      "buffer" : 0,
      "byteOffset" : 2145856,
      "byteLength" : 192
    },
    {
      "buffer" : 0,
      "byteOffset" : 2146048,
      "byteLength" : 864
    },
    {
      "buffer" : 0,
      "byteOffset" : 2146912,
      "byteLength" : 864
    },
    {
      "buffer" : 0,
      "byteOffset" : 2147776,
      "byteLength" : 1152
    },
    {
      "buffer" : 0,
      "byteOffset" : 2148928,
      "byteLength" : 288
    },
    {
      "buffer" : 0,
      "byteOffset" : 2149216,
      "byteLength" : 576
    },
    {
      "buffer" : 0,
      "byteOffset" : 2149792,
      "byteLength" : 576
    },
    {
      "buffer" : 0,
      "byteOffset" : 2150368,
      "byteLength" : 576
    },
    {
      "buffer" : 0,
      "byteOffset" : 2150944,
      "byteLength" : 576
    }
  ],
  "accessors" : [
    {
      "bufferView" : 0,
      "componentType" : 5123,
      "count" : 89754,
      "type" : "SCALAR"
    },
    {
      "bufferView" : 1,
      "min" : [ -1.28728, -0.00639924, -0.415105 ],
      "max" : [ 1.31639, 2.39306, 0.439831 ],
      "componentType" : 5126,
      "count" : 25873,
      "type" : "VEC3"
    },
    {
      "bufferView" : 2,
      "componentType" : 5126,
      "count" : 25873,
      "type" : "VEC3"
    },
    {
      "bufferView" : 3,
      "componentType" : 5126,
      "count" : 25873,
      "type" : "VEC4"
    },
    {
      "bufferView" : 4,
      "normalized" : true,
      "componentType" : 5121,
      "count" : 25873,
      "type" : "VEC4"
    },
    {
      "bufferView" : 5,
      "componentType" : 5126,
      "count" : 25873,
      "type" : "VEC2"
    },
    {
      "bufferView" : 6,
      "componentType" : 5126,
      "count" : 25873,
      "type" : "VEC2"
    },
    {
      "bufferView" : 7,
      "componentType" : 5126,
      "count" : 25873,
      "type" : "VEC2"
    },
    {
      "bufferView" : 8,
      "componentType" : 5126,
      "count" : 25873,
      "type" : "VEC2"
    },
    {
      "bufferView" : 9,
      "componentType" : 5123,
      "count" : 96,
      "type" : "SCALAR"
    },
    {
      "bufferView" : 10,
      "min" : [ -1.24348, 1.91759, -0.539985 ],
      "max" : [ 1.24485, 2.26436, 0.539985 ],
      "componentType" : 5126,
      "count" : 72,
      "type" : "VEC3"
    },
    {
      "bufferView" : 11,
      "componentType" : 5126,
      "count" : 72,
      "type" : "VEC3"
    },
    {
      "bufferView" : 12,
      "componentType" : 5126,
      "count" : 72,
      "type" : "VEC4"
    },
    {
      "bufferView" : 13,
      "normalized" : true,
      "componentType" : 5121,
      "count" : 72,
      "type" : "VEC4"
    },
    {
      "bufferView" : 14,
      "componentType" : 5126,
      "count" : 72,
      "type" : "VEC2"
    },
    {
      "bufferView" : 15,
      "componentType" : 5126,
      "count" : 72,
      "type" : "VEC2"
    },
    {
      "bufferView" : 16,
      "componentType" : 5126,
      "count" : 72,
      "type" : "VEC2"
    },
    {
      "bufferView" : 17,
      "componentType" : 5126,
      "count" : 72,
      "type" : "VEC2"
    }
  ]
}
