{
  "asset" : {
    "generator" : "UE Viewer (umodel) build 1544 based",
    "version" : "2.0"
  },
  "scene" : 0,
  "scenes" : [
    {
      "nodes" : [ 0 ]
    }
  ],
  "nodes" : [
    {
      "name" : "SM_ENV_LKNVLD_Hokage_Gate_Front",
      "mesh" : 0
    }
  ],
  "materials" : [
    {
      "name" : "MI_T_ENV_LKNVLD_StoneTrim",
      "pbrMetallicRoughness" : {
        "baseColorFactor" : [ 0.3, 0.3, 0.3, 1.0 ],
        "metallicFactor" : 0.1,
        "roughnessFactor" : 0.5
      }
    },
    {
      "name" : "MI_ENV_LKNVLD_WoodPlain_Red",
      "pbrMetallicRoughness" : {
        "baseColorFactor" : [ 0.9, 0.3, 0.3, 1.0 ],
        "metallicFactor" : 0.1,
        "roughnessFactor" : 0.5
      }
    },
    {
      "name" : "MI_ENV_LKNVLD_Door_D",
      "pbrMetallicRoughness" : {
        "baseColorFactor" : [ 0.3, 0.9, 0.3, 1.0 ],
        "metallicFactor" : 0.1,
        "roughnessFactor" : 0.5
      }
    },
    {
      "name" : "MI_ENV_LKNVLD_WoodBoard_Natural_Yellowed",
      "pbrMetallicRoughness" : {
        "baseColorFactor" : [ 0.3, 0.3, 0.9, 1.0 ],
        "metallicFactor" : 0.1,
        "roughnessFactor" : 0.5
      }
    },
    {
      "name" : "MI_ENV_LKNVLD_Plaster_Beige",
      "pbrMetallicRoughness" : {
        "baseColorFactor" : [ 0.9, 0.9, 0.9, 1.0 ],
        "metallicFactor" : 0.1,
        "roughnessFactor" : 0.5
      }
    },
    {
      "name" : "MI_ENV_LKNVLD_RoofTiles_Grey",
      "pbrMetallicRoughness" : {
        "baseColorFactor" : [ 0.9, 0.9, 0.3, 1.0 ],
        "metallicFactor" : 0.1,
        "roughnessFactor" : 0.5
      }
    },
    {
      "name" : "MI_ENV_LKNVLD_WoodPlain_Brown",
      "pbrMetallicRoughness" : {
        "baseColorFactor" : [ 0.9, 0.3, 0.9, 1.0 ],
        "metallicFactor" : 0.1,
        "roughnessFactor" : 0.5
      }
    },
    {
      "name" : "MI_ENV_LKNVLD_Plaster_Dark",
      "pbrMetallicRoughness" : {
        "baseColorFactor" : [ 0.3, 0.9, 0.9, 1.0 ],
        "metallicFactor" : 0.1,
        "roughnessFactor" : 0.5
      }
    },
    {
      "name" : "MI_ENV_LKNVLD_MetalRoofDark",
      "pbrMetallicRoughness" : {
        "baseColorFactor" : [ 1, 0.3, 0.3, 1.0 ],
        "metallicFactor" : 0.1,
        "roughnessFactor" : 0.5
      }
    },
    {
      "name" : "MI_ENV_LKNVLD_RoofTiles_Yellow",
      "pbrMetallicRoughness" : {
        "baseColorFactor" : [ 0.6, 0.3, 0.3, 1.0 ],
        "metallicFactor" : 0.1,
        "roughnessFactor" : 0.5
      }
    }
  ],
  "meshes" : [
    {
      "primitives" : [
        {
          "attributes" : {
            "POSITION" : 1,
            "NORMAL" : 2,
            "TANGENT" : 3,
            "TEXCOORD_0" : 4,
            "TEXCOORD_1" : 5,
            "TEXCOORD_2" : 6,
            "TEXCOORD_3" : 7
          },
          "indices" : 0,
          "material" : 0
        },
        {
          "attributes" : {
            "POSITION" : 9,
            "NORMAL" : 10,
            "TANGENT" : 11,
            "TEXCOORD_0" : 12,
            "TEXCOORD_1" : 13,
            "TEXCOORD_2" : 14,
            "TEXCOORD_3" : 15
          },
          "indices" : 8,
          "material" : 1
        },
        {
          "attributes" : {
            "POSITION" : 17,
            "NORMAL" : 18,
            "TANGENT" : 19,
            "TEXCOORD_0" : 20,
            "TEXCOORD_1" : 21,
            "TEXCOORD_2" : 22,
            "TEXCOORD_3" : 23
          },
          "indices" : 16,
          "material" : 2
        },
        {
          "attributes" : {
            "POSITION" : 25,
            "NORMAL" : 26,
            "TANGENT" : 27,
            "TEXCOORD_0" : 28,
            "TEXCOORD_1" : 29,
            "TEXCOORD_2" : 30,
            "TEXCOORD_3" : 31
          },
          "indices" : 24,
          "material" : 3
        },
        {
          "attributes" : {
            "POSITION" : 33,
            "NORMAL" : 34,
            "TANGENT" : 35,
            "TEXCOORD_0" : 36,
            "TEXCOORD_1" : 37,
            "TEXCOORD_2" : 38,
            "TEXCOORD_3" : 39
          },
          "indices" : 32,
          "material" : 4
        },
        {
          "attributes" : {
            "POSITION" : 41,
            "NORMAL" : 42,
            "TANGENT" : 43,
            "TEXCOORD_0" : 44,
            "TEXCOORD_1" : 45,
            "TEXCOORD_2" : 46,
            "TEXCOORD_3" : 47
          },
          "indices" : 40,
          "material" : 5
        },
        {
          "attributes" : {
            "POSITION" : 49,
            "NORMAL" : 50,
            "TANGENT" : 51,
            "TEXCOORD_0" : 52,
            "TEXCOORD_1" : 53,
            "TEXCOORD_2" : 54,
            "TEXCOORD_3" : 55
          },
          "indices" : 48,
          "material" : 6
        },
        {
          "attributes" : {
            "POSITION" : 57,
            "NORMAL" : 58,
            "TANGENT" : 59,
            "TEXCOORD_0" : 60,
            "TEXCOORD_1" : 61,
            "TEXCOORD_2" : 62,
            "TEXCOORD_3" : 63
          },
          "indices" : 56,
          "material" : 7
        },
        {
          "attributes" : {
            "POSITION" : 65,
            "NORMAL" : 66,
            "TANGENT" : 67,
            "TEXCOORD_0" : 68,
            "TEXCOORD_1" : 69,
            "TEXCOORD_2" : 70,
            "TEXCOORD_3" : 71
          },
          "indices" : 64,
          "material" : 8
        },
        {
          "attributes" : {
            "POSITION" : 73,
            "NORMAL" : 74,
            "TANGENT" : 75,
            "TEXCOORD_0" : 76,
            "TEXCOORD_1" : 77,
            "TEXCOORD_2" : 78,
            "TEXCOORD_3" : 79
          },
          "indices" : 72,
          "material" : 9
        }
      ],
      "name" : "SM_ENV_LKNVLD_Hokage_Gate_Front"
    }
  ],
  "buffers" : [
    {
      "uri" : "SM_ENV_LKNVLD_Hokage_Gate_Front.bin",
      "byteLength" : 788164
    }
  ],
  "bufferViews" : [
    {
      "buffer" : 0,
      "byteOffset" : 0,
      "byteLength" : 1632
    },
    {
      "buffer" : 0,
      "byteOffset" : 1632,
      "byteLength" : 2160
    },
    {
      "buffer" : 0,
      "byteOffset" : 3792,
      "byteLength" : 2160
    },
    {
      "buffer" : 0,
      "byteOffset" : 5952,
      "byteLength" : 2880
    },
    {
      "buffer" : 0,
      "byteOffset" : 8832,
      "byteLength" : 1440
    },
    {
      "buffer" : 0,
      "byteOffset" : 10272,
      "byteLength" : 1440
    },
    {
      "buffer" : 0,
      "byteOffset" : 11712,
      "byteLength" : 1440
    },
    {
      "buffer" : 0,
      "byteOffset" : 13152,
      "byteLength" : 1440
    },
    {
      "buffer" : 0,
      "byteOffset" : 14592,
      "byteLength" : 3708
    },
    {
      "buffer" : 0,
      "byteOffset" : 18300,
      "byteLength" : 9744
    },
    {
      "buffer" : 0,
      "byteOffset" : 28044,
      "byteLength" : 9744
    },
    {
      "buffer" : 0,
      "byteOffset" : 37788,
      "byteLength" : 12992
    },
    {
      "buffer" : 0,
      "byteOffset" : 50780,
      "byteLength" : 6496
    },
    {
      "buffer" : 0,
      "byteOffset" : 57276,
      "byteLength" : 6496
    },
    {
      "buffer" : 0,
      "byteOffset" : 63772,
      "byteLength" : 6496
    },
    {
      "buffer" : 0,
      "byteOffset" : 70268,
      "byteLength" : 6496
    },
    {
      "buffer" : 0,
      "byteOffset" : 76764,
      "byteLength" : 3440
    },
    {
      "buffer" : 0,
      "byteOffset" : 80204,
      "byteLength" : 6240
    },
    {
      "buffer" : 0,
      "byteOffset" : 86444,
      "byteLength" : 6240
    },
    {
      "buffer" : 0,
      "byteOffset" : 92684,
      "byteLength" : 8320
    },
    {
      "buffer" : 0,
      "byteOffset" : 101004,
      "byteLength" : 4160
    },
    {
      "buffer" : 0,
      "byteOffset" : 105164,
      "byteLength" : 4160
    },
    {
      "buffer" : 0,
      "byteOffset" : 109324,
      "byteLength" : 4160
    },
    {
      "buffer" : 0,
      "byteOffset" : 113484,
      "byteLength" : 4160
    },
    {
      "buffer" : 0,
      "byteOffset" : 117644,
      "byteLength" : 5496
    },
    {
      "buffer" : 0,
      "byteOffset" : 123140,
      "byteLength" : 15744
    },
    {
      "buffer" : 0,
      "byteOffset" : 138884,
      "byteLength" : 15744
    },
    {
      "buffer" : 0,
      "byteOffset" : 154628,
      "byteLength" : 20992
    },
    {
      "buffer" : 0,
      "byteOffset" : 175620,
      "byteLength" : 10496
    },
    {
      "buffer" : 0,
      "byteOffset" : 186116,
      "byteLength" : 10496
    },
    {
      "buffer" : 0,
      "byteOffset" : 196612,
      "byteLength" : 10496
    },
    {
      "buffer" : 0,
      "byteOffset" : 207108,
      "byteLength" : 10496
    },
    {
      "buffer" : 0,
      "byteOffset" : 217604,
      "byteLength" : 132
    },
    {
      "buffer" : 0,
      "byteOffset" : 217736,
      "byteLength" : 480
    },
    {
      "buffer" : 0,
      "byteOffset" : 218216,
      "byteLength" : 480
    },
    {
      "buffer" : 0,
      "byteOffset" : 218696,
      "byteLength" : 640
    },
    {
      "buffer" : 0,
      "byteOffset" : 219336,
      "byteLength" : 320
    },
    {
      "buffer" : 0,
      "byteOffset" : 219656,
      "byteLength" : 320
    },
    {
      "buffer" : 0,
      "byteOffset" : 219976,
      "byteLength" : 320
    },
    {
      "buffer" : 0,
      "byteOffset" : 220296,
      "byteLength" : 320
    },
    {
      "buffer" : 0,
      "byteOffset" : 220616,
      "byteLength" : 6720
    },
    {
      "buffer" : 0,
      "byteOffset" : 227336,
      "byteLength" : 8808
    },
    {
      "buffer" : 0,
      "byteOffset" : 236144,
      "byteLength" : 8808
    },
    {
      "buffer" : 0,
      "byteOffset" : 244952,
      "byteLength" : 11744
    },
    {
      "buffer" : 0,
      "byteOffset" : 256696,
      "byteLength" : 5872
    },
    {
      "buffer" : 0,
      "byteOffset" : 262568,
      "byteLength" : 5872
    },
    {
      "buffer" : 0,
      "byteOffset" : 268440,
      "byteLength" : 5872
    },
    {
      "buffer" : 0,
      "byteOffset" : 274312,
      "byteLength" : 5872
    },
    {
      "buffer" : 0,
      "byteOffset" : 280184,
      "byteLength" : 9840
    },
    {
      "buffer" : 0,
      "byteOffset" : 290024,
      "byteLength" : 38784
    },
    {
      "buffer" : 0,
      "byteOffset" : 328808,
      "byteLength" : 38784
    },
    {
      "buffer" : 0,
      "byteOffset" : 367592,
      "byteLength" : 51712
    },
    {
      "buffer" : 0,
      "byteOffset" : 419304,
      "byteLength" : 25856
    },
    {
      "buffer" : 0,
      "byteOffset" : 445160,
      "byteLength" : 25856
    },
    {
      "buffer" : 0,
      "byteOffset" : 471016,
      "byteLength" : 25856
    },
    {
      "buffer" : 0,
      "byteOffset" : 496872,
      "byteLength" : 25856
    },
    {
      "buffer" : 0,
      "byteOffset" : 522728,
      "byteLength" : 8952
    },
    {
      "buffer" : 0,
      "byteOffset" : 531680,
      "byteLength" : 11424
    },
    {
      "buffer" : 0,
      "byteOffset" : 543104,
      "byteLength" : 11424
    },
    {
      "buffer" : 0,
      "byteOffset" : 554528,
      "byteLength" : 15232
    },
    {
      "buffer" : 0,
      "byteOffset" : 569760,
      "byteLength" : 7616
    },
    {
      "buffer" : 0,
      "byteOffset" : 577376,
      "byteLength" : 7616
    },
    {
      "buffer" : 0,
      "byteOffset" : 584992,
      "byteLength" : 7616
    },
    {
      "buffer" : 0,
      "byteOffset" : 592608,
      "byteLength" : 7616
    },
    {
      "buffer" : 0,
      "byteOffset" : 600224,
      "byteLength" : 1224
    },
    {
      "buffer" : 0,
      "byteOffset" : 601448,
      "byteLength" : 2028
    },
    {
      "buffer" : 0,
      "byteOffset" : 603476,
      "byteLength" : 2028
    },
    {
      "buffer" : 0,
      "byteOffset" : 605504,
      "byteLength" : 2704
    },
    {
      "buffer" : 0,
      "byteOffset" : 608208,
      "byteLength" : 1352
    },
    {
      "buffer" : 0,
      "byteOffset" : 609560,
      "byteLength" : 1352
    },
    {
      "buffer" : 0,
      "byteOffset" : 610912,
      "byteLength" : 1352
    },
    {
      "buffer" : 0,
      "byteOffset" : 612264,
      "byteLength" : 1352
    },
    {
      "buffer" : 0,
      "byteOffset" : 613616,
      "byteLength" : 17948
    },
    {
      "buffer" : 0,
      "byteOffset" : 631564,
      "byteLength" : 26100
    },
    {
      "buffer" : 0,
      "byteOffset" : 657664,
      "byteLength" : 26100
    },
    {
      "buffer" : 0,
      "byteOffset" : 683764,
      "byteLength" : 34800
    },
    {
      "buffer" : 0,
      "byteOffset" : 718564,
      "byteLength" : 17400
    },
    {
      "buffer" : 0,
      "byteOffset" : 735964,
      "byteLength" : 17400
    },
    {
      "buffer" : 0,
      "byteOffset" : 753364,
      "byteLength" : 17400
    },
    {
      "buffer" : 0,
      "byteOffset" : 770764,
      "byteLength" : 17400
    }
  ],
  "accessors" : [
    {
      "bufferView" : 0,
      "componentType" : 5123,
      "count" : 816,
      "type" : "SCALAR"
    },
    {
      "bufferView" : 1,
      "min" : [ -7.06046, 12, -71.454 ],
      "max" : [ 7.06046, 12.3379, -69.9711 ],
      "componentType" : 5126,
      "count" : 180,
      "type" : "VEC3"
    },
    {
      "bufferView" : 2,
      "componentType" : 5126,
      "count" : 180,
      "type" : "VEC3"
    },
    {
      "bufferView" : 3,
      "componentType" : 5126,
      "count" : 180,
      "type" : "VEC4"
    },
    {
      "bufferView" : 4,
      "componentType" : 5126,
      "count" : 180,
      "type" : "VEC2"
    },
    {
      "bufferView" : 5,
      "componentType" : 5126,
      "count" : 180,
      "type" : "VEC2"
    },
    {
      "bufferView" : 6,
      "componentType" : 5126,
      "count" : 180,
      "type" : "VEC2"
    },
    {
      "bufferView" : 7,
      "componentType" : 5126,
      "count" : 180,
      "type" : "VEC2"
    },
    {
      "bufferView" : 8,
      "componentType" : 5123,
      "count" : 1854,
      "type" : "SCALAR"
    },
    {
      "bufferView" : 9,
      "min" : [ -6.8705, 12.3379, -75.069 ],
      "max" : [ 6.87029, 18, -70.157 ],
      "componentType" : 5126,
      "count" : 812,
      "type" : "VEC3"
    },
    {
      "bufferView" : 10,
      "componentType" : 5126,
      "count" : 812,
      "type" : "VEC3"
    },
    {
      "bufferView" : 11,
      "componentType" : 5126,
      "count" : 812,
      "type" : "VEC4"
    },
    {
      "bufferView" : 12,
      "componentType" : 5126,
      "count" : 812,
      "type" : "VEC2"
    },
    {
      "bufferView" : 13,
      "componentType" : 5126,
      "count" : 812,
      "type" : "VEC2"
    },
    {
      "bufferView" : 14,
      "componentType" : 5126,
      "count" : 812,
      "type" : "VEC2"
    },
    {
      "bufferView" : 15,
      "componentType" : 5126,
      "count" : 812,
      "type" : "VEC2"
    },
    {
      "bufferView" : 16,
      "componentType" : 5123,
      "count" : 1719,
      "type" : "SCALAR"
    },
    {
      "bufferView" : 17,
      "min" : [ -4.55, 12.15, -71.2898 ],
      "max" : [ 4.55, 17.915, -70.3614 ],
      "componentType" : 5126,
      "count" : 520,
      "type" : "VEC3"
    },
    {
      "bufferView" : 18,
      "componentType" : 5126,
      "count" : 520,
      "type" : "VEC3"
    },
    {
      "bufferView" : 19,
      "componentType" : 5126,
      "count" : 520,
      "type" : "VEC4"
    },
    {
      "bufferView" : 20,
      "componentType" : 5126,
      "count" : 520,
      "type" : "VEC2"
    },
    {
      "bufferView" : 21,
      "componentType" : 5126,
      "count" : 520,
      "type" : "VEC2"
    },
    {
      "bufferView" : 22,
      "componentType" : 5126,
      "count" : 520,
      "type" : "VEC2"
    },
    {
      "bufferView" : 23,
      "componentType" : 5126,
      "count" : 520,
      "type" : "VEC2"
    },
    {
      "bufferView" : 24,
      "componentType" : 5123,
      "count" : 2748,
      "type" : "SCALAR"
    },
    {
      "bufferView" : 25,
      "min" : [ -8, 11.9479, -76.5455 ],
      "max" : [ 8, 21.9394, -68.5987 ],
      "componentType" : 5126,
      "count" : 1312,
      "type" : "VEC3"
    },
    {
      "bufferView" : 26,
      "componentType" : 5126,
      "count" : 1312,
      "type" : "VEC3"
    },
    {
      "bufferView" : 27,
      "componentType" : 5126,
      "count" : 1312,
      "type" : "VEC4"
    },
    {
      "bufferView" : 28,
      "componentType" : 5126,
      "count" : 1312,
      "type" : "VEC2"
    },
    {
      "bufferView" : 29,
      "componentType" : 5126,
      "count" : 1312,
      "type" : "VEC2"
    },
    {
      "bufferView" : 30,
      "componentType" : 5126,
      "count" : 1312,
      "type" : "VEC2"
    },
    {
      "bufferView" : 31,
      "componentType" : 5126,
      "count" : 1312,
      "type" : "VEC2"
    },
    {
      "bufferView" : 32,
      "componentType" : 5123,
      "count" : 66,
      "type" : "SCALAR"
    },
    {
      "bufferView" : 33,
      "min" : [ -6, 12.15, -74.6701 ],
      "max" : [ 6.00001, 21.9347, -70.5084 ],
      "componentType" : 5126,
      "count" : 40,
      "type" : "VEC3"
    },
    {
      "bufferView" : 34,
      "componentType" : 5126,
      "count" : 40,
      "type" : "VEC3"
    },
    {
      "bufferView" : 35,
      "componentType" : 5126,
      "count" : 40,
      "type" : "VEC4"
    },
    {
      "bufferView" : 36,
      "componentType" : 5126,
      "count" : 40,
      "type" : "VEC2"
    },
    {
      "bufferView" : 37,
      "componentType" : 5126,
      "count" : 40,
      "type" : "VEC2"
    },
    {
      "bufferView" : 38,
      "componentType" : 5126,
      "count" : 40,
      "type" : "VEC2"
    },
    {
      "bufferView" : 39,
      "componentType" : 5126,
      "count" : 40,
      "type" : "VEC2"
    },
    {
      "bufferView" : 40,
      "componentType" : 5123,
      "count" : 3360,
      "type" : "SCALAR"
    },
    {
      "bufferView" : 41,
      "min" : [ -8.1565, 18.3021, -76.7538 ],
      "max" : [ 8.1565, 22.2122, -68.3815 ],
      "componentType" : 5126,
      "count" : 734,
      "type" : "VEC3"
    },
    {
      "bufferView" : 42,
      "componentType" : 5126,
      "count" : 734,
      "type" : "VEC3"
    },
    {
      "bufferView" : 43,
      "componentType" : 5126,
      "count" : 734,
      "type" : "VEC4"
    },
    {
      "bufferView" : 44,
      "componentType" : 5126,
      "count" : 734,
      "type" : "VEC2"
    },
    {
      "bufferView" : 45,
      "componentType" : 5126,
      "count" : 734,
      "type" : "VEC2"
    },
    {
      "bufferView" : 46,
      "componentType" : 5126,
      "count" : 734,
      "type" : "VEC2"
    },
    {
      "bufferView" : 47,
      "componentType" : 5126,
      "count" : 734,
      "type" : "VEC2"
    },
    {
      "bufferView" : 48,
      "componentType" : 5123,
      "count" : 4920,
      "type" : "SCALAR"
    },
    {
      "bufferView" : 49,
      "min" : [ -7.97366, 17.897, -76.4562 ],
      "max" : [ 7.95295, 19.9811, -68.6334 ],
      "componentType" : 5126,
      "count" : 3232,
      "type" : "VEC3"
    },
    {
      "bufferView" : 50,
      "componentType" : 5126,
      "count" : 3232,
      "type" : "VEC3"
    },
    {
      "bufferView" : 51,
      "componentType" : 5126,
      "count" : 3232,
      "type" : "VEC4"
    },
    {
      "bufferView" : 52,
      "componentType" : 5126,
      "count" : 3232,
      "type" : "VEC2"
    },
    {
      "bufferView" : 53,
      "componentType" : 5126,
      "count" : 3232,
      "type" : "VEC2"
    },
    {
      "bufferView" : 54,
      "componentType" : 5126,
      "count" : 3232,
      "type" : "VEC2"
    },
    {
      "bufferView" : 55,
      "componentType" : 5126,
      "count" : 3232,
      "type" : "VEC2"
    },
    {
      "bufferView" : 56,
      "componentType" : 5123,
      "count" : 4476,
      "type" : "SCALAR"
    },
    {
      "bufferView" : 57,
      "min" : [ -7.17166, 21.6748, -72.813 ],
      "max" : [ 7.17166, 23.026, -72.2495 ],
      "componentType" : 5126,
      "count" : 952,
      "type" : "VEC3"
    },
    {
      "bufferView" : 58,
      "componentType" : 5126,
      "count" : 952,
      "type" : "VEC3"
    },
    {
      "bufferView" : 59,
      "componentType" : 5126,
      "count" : 952,
      "type" : "VEC4"
    },
    {
      "bufferView" : 60,
      "componentType" : 5126,
      "count" : 952,
      "type" : "VEC2"
    },
    {
      "bufferView" : 61,
      "componentType" : 5126,
      "count" : 952,
      "type" : "VEC2"
    },
    {
      "bufferView" : 62,
      "componentType" : 5126,
      "count" : 952,
      "type" : "VEC2"
    },
    {
      "bufferView" : 63,
      "componentType" : 5126,
      "count" : 952,
      "type" : "VEC2"
    },
    {
      "bufferView" : 64,
      "componentType" : 5123,
      "count" : 612,
      "type" : "SCALAR"
    },
    {
      "bufferView" : 65,
      "min" : [ -5.86256, 21.8225, -72.8603 ],
      "max" : [ 5.86256, 22.7215, -72.2495 ],
      "componentType" : 5126,
      "count" : 169,
      "type" : "VEC3"
    },
    {
      "bufferView" : 66,
      "componentType" : 5126,
      "count" : 169,
      "type" : "VEC3"
    },
    {
      "bufferView" : 67,
      "componentType" : 5126,
      "count" : 169,
      "type" : "VEC4"
    },
    {
      "bufferView" : 68,
      "componentType" : 5126,
      "count" : 169,
      "type" : "VEC2"
    },
    {
      "bufferView" : 69,
      "componentType" : 5126,
      "count" : 169,
      "type" : "VEC2"
    },
    {
      "bufferView" : 70,
      "componentType" : 5126,
      "count" : 169,
      "type" : "VEC2"
    },
    {
      "bufferView" : 71,
      "componentType" : 5126,
      "count" : 169,
      "type" : "VEC2"
    },
    {
      "bufferView" : 72,
      "componentType" : 5123,
      "count" : 8973,
      "type" : "SCALAR"
    },
    {
      "bufferView" : 73,
      "min" : [ -8.16982, 18.0983, -76.7068 ],
      "max" : [ 8.16982, 22.151, -68.4454 ],
      "componentType" : 5126,
      "count" : 2175,
      "type" : "VEC3"
    },
    {
      "bufferView" : 74,
      "componentType" : 5126,
      "count" : 2175,
      "type" : "VEC3"
    },
    {
      "bufferView" : 75,
      "componentType" : 5126,
      "count" : 2175,
      "type" : "VEC4"
    },
    {
      "bufferView" : 76,
      "componentType" : 5126,
      "count" : 2175,
      "type" : "VEC2"
    },
    {
      "bufferView" : 77,
      "componentType" : 5126,
      "count" : 2175,
      "type" : "VEC2"
    },
    {
      "bufferView" : 78,
      "componentType" : 5126,
      "count" : 2175,
      "type" : "VEC2"
    },
    {
      "bufferView" : 79,
      "componentType" : 5126,
      "count" : 2175,
      "type" : "VEC2"
    }
  ]
}
