{
  "asset" : {
    "generator" : "UE Viewer (umodel) build 1544 based",
    "version" : "2.0"
  },
  "scene" : 0,
  "scenes" : [
    {
      "nodes" : [ 0 ]
    }
  ],
  "nodes" : [
    {
      "name" : "SM_ENV_LKNVLD_WallSet_Connector_Lod2",
      "mesh" : 0
    }
  ],
  "materials" : [
    {
      "name" : "MI_ENV_LKNVLD_WoodPlain_Red_LOD",
      "pbrMetallicRoughness" : {
        "baseColorFactor" : [ 0.3, 0.3, 0.3, 1.0 ],
        "metallicFactor" : 0.1,
        "roughnessFactor" : 0.5
      }
    },
    {
      "name" : "MI_ENV_LKNVLD_WoodWallSet_LOD",
      "pbrMetallicRoughness" : {
        "baseColorFactor" : [ 0.9, 0.3, 0.3, 1.0 ],
        "metallicFactor" : 0.1,
        "roughnessFactor" : 0.5
      }
    },
    {
      "name" : "MI_ENV_LKNVLD_Signboard_A",
      "pbrMetallicRoughness" : {
        "baseColorFactor" : [ 0.3, 0.9, 0.3, 1.0 ],
        "metallicFactor" : 0.1,
        "roughnessFactor" : 0.5
      }
    },
    {
      "name" : "MI_T_ENV_LKNVLD_StoneTrim_LOD",
      "pbrMetallicRoughness" : {
        "baseColorFactor" : [ 0.3, 0.3, 0.9, 1.0 ],
        "metallicFactor" : 0.1,
        "roughnessFactor" : 0.5
      }
    },
    {
      "name" : "MI_ENV_LKNVLD_WoodWallSet_Red_LOD",
      "pbrMetallicRoughness" : {
        "baseColorFactor" : [ 0.9, 0.9, 0.9, 1.0 ],
        "metallicFactor" : 0.1,
        "roughnessFactor" : 0.5
      }
    },
    {
      "name" : "MI_ENV_LKNVLD_Eaves_B_LOD",
      "pbrMetallicRoughness" : {
        "baseColorFactor" : [ 0.9, 0.9, 0.3, 1.0 ],
        "metallicFactor" : 0.1,
        "roughnessFactor" : 0.5
      }
    },
    {
      "name" : "MI_ENV_LKNVLD_WoodBoard_Natural_Lighter_LOD",
      "pbrMetallicRoughness" : {
        "baseColorFactor" : [ 0.9, 0.3, 0.9, 1.0 ],
        "metallicFactor" : 0.1,
        "roughnessFactor" : 0.5
      }
    }
  ],
  "meshes" : [
    {
      "primitives" : [
        {
          "attributes" : {
            "POSITION" : 1,
            "NORMAL" : 2,
            "TANGENT" : 3,
            "TEXCOORD_0" : 4,
            "TEXCOORD_1" : 5,
            "TEXCOORD_2" : 6,
            "TEXCOORD_3" : 7
          },
          "indices" : 0,
          "material" : 0
        },
        {
          "attributes" : {
            "POSITION" : 9,
            "NORMAL" : 10,
            "TANGENT" : 11,
            "TEXCOORD_0" : 12,
            "TEXCOORD_1" : 13,
            "TEXCOORD_2" : 14,
            "TEXCOORD_3" : 15
          },
          "indices" : 8,
          "material" : 1
        },
        {
          "attributes" : {
            "POSITION" : 17,
            "NORMAL" : 18,
            "TANGENT" : 19,
            "TEXCOORD_0" : 20,
            "TEXCOORD_1" : 21,
            "TEXCOORD_2" : 22,
            "TEXCOORD_3" : 23
          },
          "indices" : 16,
          "material" : 2
        },
        {
          "attributes" : {
            "POSITION" : 25,
            "NORMAL" : 26,
            "TANGENT" : 27,
            "TEXCOORD_0" : 28,
            "TEXCOORD_1" : 29,
            "TEXCOORD_2" : 30,
            "TEXCOORD_3" : 31
          },
          "indices" : 24,
          "material" : 3
        },
        {
          "attributes" : {
            "POSITION" : 33,
            "NORMAL" : 34,
            "TANGENT" : 35,
            "TEXCOORD_0" : 36,
            "TEXCOORD_1" : 37,
            "TEXCOORD_2" : 38,
            "TEXCOORD_3" : 39
          },
          "indices" : 32,
          "material" : 4
        },
        {
          "attributes" : {
            "POSITION" : 41,
            "NORMAL" : 42,
            "TANGENT" : 43,
            "TEXCOORD_0" : 44,
            "TEXCOORD_1" : 45,
            "TEXCOORD_2" : 46,
            "TEXCOORD_3" : 47
          },
          "indices" : 40,
          "material" : 5
        },
        {
          "attributes" : {
            "POSITION" : 49,
            "NORMAL" : 50,
            "TANGENT" : 51,
            "TEXCOORD_0" : 52,
            "TEXCOORD_1" : 53,
            "TEXCOORD_2" : 54,
            "TEXCOORD_3" : 55
          },
          "indices" : 48,
          "material" : 6
        }
      ],
      "name" : "SM_ENV_LKNVLD_WallSet_Connector_Lod2"
    }
  ],
  "buffers" : [
    {
      "uri" : "SM_ENV_LKNVLD_WallSet_Connector_Lod2.bin",
      "byteLength" : 328244
    }
  ],
  "bufferViews" : [
    {
      "buffer" : 0,
      "byteOffset" : 0,
      "byteLength" : 9332
    },
    {
      "buffer" : 0,
      "byteOffset" : 9332,
      "byteLength" : 34752
    },
    {
      "buffer" : 0,
      "byteOffset" : 44084,
      "byteLength" : 34752
    },
    {
      "buffer" : 0,
      "byteOffset" : 78836,
      "byteLength" : 46336
    },
    {
      "buffer" : 0,
      "byteOffset" : 125172,
      "byteLength" : 23168
    },
    {
      "buffer" : 0,
      "byteOffset" : 148340,
      "byteLength" : 23168
    },
    {
      "buffer" : 0,
      "byteOffset" : 171508,
      "byteLength" : 23168
    },
    {
      "buffer" : 0,
      "byteOffset" : 194676,
      "byteLength" : 23168
    },
    {
      "buffer" : 0,
      "byteOffset" : 217844,
      "byteLength" : 1740
    },
    {
      "buffer" : 0,
      "byteOffset" : 219584,
      "byteLength" : 5676
    },
    {
      "buffer" : 0,
      "byteOffset" : 225260,
      "byteLength" : 5676
    },
    {
      "buffer" : 0,
      "byteOffset" : 230936,
      "byteLength" : 7568
    },
    {
      "buffer" : 0,
      "byteOffset" : 238504,
      "byteLength" : 3784
    },
    {
      "buffer" : 0,
      "byteOffset" : 242288,
      "byteLength" : 3784
    },
    {
      "buffer" : 0,
      "byteOffset" : 246072,
      "byteLength" : 3784
    },
    {
      "buffer" : 0,
      "byteOffset" : 249856,
      "byteLength" : 3784
    },
    {
      "buffer" : 0,
      "byteOffset" : 253640,
      "byteLength" : 2088
    },
    {
      "buffer" : 0,
      "byteOffset" : 255728,
      "byteLength" : 6984
    },
    {
      "buffer" : 0,
      "byteOffset" : 262712,
      "byteLength" : 6984
    },
    {
      "buffer" : 0,
      "byteOffset" : 269696,
      "byteLength" : 9312
    },
    {
      "buffer" : 0,
      "byteOffset" : 279008,
      "byteLength" : 4656
    },
    {
      "buffer" : 0,
      "byteOffset" : 283664,
      "byteLength" : 4656
    },
    {
      "buffer" : 0,
      "byteOffset" : 288320,
      "byteLength" : 4656
    },
    {
      "buffer" : 0,
      "byteOffset" : 292976,
      "byteLength" : 4656
    },
    {
      "buffer" : 0,
      "byteOffset" : 297632,
      "byteLength" : 528
    },
    {
      "buffer" : 0,
      "byteOffset" : 298160,
      "byteLength" : 1368
    },
    {
      "buffer" : 0,
      "byteOffset" : 299528,
      "byteLength" : 1368
    },
    {
      "buffer" : 0,
      "byteOffset" : 300896,
      "byteLength" : 1824
    },
    {
      "buffer" : 0,
      "byteOffset" : 302720,
      "byteLength" : 912
    },
    {
      "buffer" : 0,
      "byteOffset" : 303632,
      "byteLength" : 912
    },
    {
      "buffer" : 0,
      "byteOffset" : 304544,
      "byteLength" : 912
    },
    {
      "buffer" : 0,
      "byteOffset" : 305456,
      "byteLength" : 912
    },
    {
      "buffer" : 0,
      "byteOffset" : 306368,
      "byteLength" : 48
    },
    {
      "buffer" : 0,
      "byteOffset" : 306416,
      "byteLength" : 120
    },
    {
      "buffer" : 0,
      "byteOffset" : 306536,
      "byteLength" : 120
    },
    {
      "buffer" : 0,
      "byteOffset" : 306656,
      "byteLength" : 160
    },
    {
      "buffer" : 0,
      "byteOffset" : 306816,
      "byteLength" : 80
    },
    {
      "buffer" : 0,
      "byteOffset" : 306896,
      "byteLength" : 80
    },
    {
      "buffer" : 0,
      "byteOffset" : 306976,
      "byteLength" : 80
    },
    {
      "buffer" : 0,
      "byteOffset" : 307056,
      "byteLength" : 80
    },
    {
      "buffer" : 0,
      "byteOffset" : 307136,
      "byteLength" : 1080
    },
    {
      "buffer" : 0,
      "byteOffset" : 308216,
      "byteLength" : 3288
    },
    {
      "buffer" : 0,
      "byteOffset" : 311504,
      "byteLength" : 3288
    },
    {
      "buffer" : 0,
      "byteOffset" : 314792,
      "byteLength" : 4384
    },
    {
      "buffer" : 0,
      "byteOffset" : 319176,
      "byteLength" : 2192
    },
    {
      "buffer" : 0,
      "byteOffset" : 321368,
      "byteLength" : 2192
    },
    {
      "buffer" : 0,
      "byteOffset" : 323560,
      "byteLength" : 2192
    },
    {
      "buffer" : 0,
      "byteOffset" : 325752,
      "byteLength" : 2192
    },
    {
      "buffer" : 0,
      "byteOffset" : 327944,
      "byteLength" : 12
    },
    {
      "buffer" : 0,
      "byteOffset" : 327956,
      "byteLength" : 48
    },
    {
      "buffer" : 0,
      "byteOffset" : 328004,
      "byteLength" : 48
    },
    {
      "buffer" : 0,
      "byteOffset" : 328052,
      "byteLength" : 64
    },
    {
      "buffer" : 0,
      "byteOffset" : 328116,
      "byteLength" : 32
    },
    {
      "buffer" : 0,
      "byteOffset" : 328148,
      "byteLength" : 32
    },
    {
      "buffer" : 0,
      "byteOffset" : 328180,
      "byteLength" : 32
    },
    {
      "buffer" : 0,
      "byteOffset" : 328212,
      "byteLength" : 32
    }
  ],
  "accessors" : [
    {
      "bufferView" : 0,
      "componentType" : 5123,
      "count" : 4665,
      "type" : "SCALAR"
    },
    {
      "bufferView" : 1,
      "min" : [ 16.686, 0.699997, 28.6314 ],
      "max" : [ 22.5084, 7.6, 61.1816 ],
      "componentType" : 5126,
      "count" : 2896,
      "type" : "VEC3"
    },
    {
      "bufferView" : 2,
      "componentType" : 5126,
      "count" : 2896,
      "type" : "VEC3"
    },
    {
      "bufferView" : 3,
      "componentType" : 5126,
      "count" : 2896,
      "type" : "VEC4"
    },
    {
      "bufferView" : 4,
      "componentType" : 5126,
      "count" : 2896,
      "type" : "VEC2"
    },
    {
      "bufferView" : 5,
      "componentType" : 5126,
      "count" : 2896,
      "type" : "VEC2"
    },
    {
      "bufferView" : 6,
      "componentType" : 5126,
      "count" : 2896,
      "type" : "VEC2"
    },
    {
      "bufferView" : 7,
      "componentType" : 5126,
      "count" : 2896,
      "type" : "VEC2"
    },
    {
      "bufferView" : 8,
      "componentType" : 5123,
      "count" : 870,
      "type" : "SCALAR"
    },
    {
      "bufferView" : 9,
      "min" : [ 17.335, 0.299998, 28.688 ],
      "max" : [ 22.4255, 6.2, 61.1431 ],
      "componentType" : 5126,
      "count" : 473,
      "type" : "VEC3"
    },
    {
      "bufferView" : 10,
      "componentType" : 5126,
      "count" : 473,
      "type" : "VEC3"
    },
    {
      "bufferView" : 11,
      "componentType" : 5126,
      "count" : 473,
      "type" : "VEC4"
    },
    {
      "bufferView" : 12,
      "componentType" : 5126,
      "count" : 473,
      "type" : "VEC2"
    },
    {
      "bufferView" : 13,
      "componentType" : 5126,
      "count" : 473,
      "type" : "VEC2"
    },
    {
      "bufferView" : 14,
      "componentType" : 5126,
      "count" : 473,
      "type" : "VEC2"
    },
    {
      "bufferView" : 15,
      "componentType" : 5126,
      "count" : 473,
      "type" : "VEC2"
    },
    {
      "bufferView" : 16,
      "componentType" : 5123,
      "count" : 1044,
      "type" : "SCALAR"
    },
    {
      "bufferView" : 17,
      "min" : [ 16.686, 4.8, 28.6175 ],
      "max" : [ 22.446, 8.12, 61.1816 ],
      "componentType" : 5126,
      "count" : 582,
      "type" : "VEC3"
    },
    {
      "bufferView" : 18,
      "componentType" : 5126,
      "count" : 582,
      "type" : "VEC3"
    },
    {
      "bufferView" : 19,
      "componentType" : 5126,
      "count" : 582,
      "type" : "VEC4"
    },
    {
      "bufferView" : 20,
      "componentType" : 5126,
      "count" : 582,
      "type" : "VEC2"
    },
    {
      "bufferView" : 21,
      "componentType" : 5126,
      "count" : 582,
      "type" : "VEC2"
    },
    {
      "bufferView" : 22,
      "componentType" : 5126,
      "count" : 582,
      "type" : "VEC2"
    },
    {
      "bufferView" : 23,
      "componentType" : 5126,
      "count" : 582,
      "type" : "VEC2"
    },
    {
      "bufferView" : 24,
      "componentType" : 5123,
      "count" : 264,
      "type" : "SCALAR"
    },
    {
      "bufferView" : 25,
      "min" : [ 17.2769, -3.05176e-06, 28.9097 ],
      "max" : [ 18.0951, 0.300003, 61.1764 ],
      "componentType" : 5126,
      "count" : 114,
      "type" : "VEC3"
    },
    {
      "bufferView" : 26,
      "componentType" : 5126,
      "count" : 114,
      "type" : "VEC3"
    },
    {
      "bufferView" : 27,
      "componentType" : 5126,
      "count" : 114,
      "type" : "VEC4"
    },
    {
      "bufferView" : 28,
      "componentType" : 5126,
      "count" : 114,
      "type" : "VEC2"
    },
    {
      "bufferView" : 29,
      "componentType" : 5126,
      "count" : 114,
      "type" : "VEC2"
    },
    {
      "bufferView" : 30,
      "componentType" : 5126,
      "count" : 114,
      "type" : "VEC2"
    },
    {
      "bufferView" : 31,
      "componentType" : 5126,
      "count" : 114,
      "type" : "VEC2"
    },
    {
      "bufferView" : 32,
      "componentType" : 5123,
      "count" : 24,
      "type" : "SCALAR"
    },
    {
      "bufferView" : 33,
      "min" : [ 17.3774, 0.800001, 60.3673 ],
      "max" : [ 18.0708, 1.5, 61.1413 ],
      "componentType" : 5126,
      "count" : 10,
      "type" : "VEC3"
    },
    {
      "bufferView" : 34,
      "componentType" : 5126,
      "count" : 10,
      "type" : "VEC3"
    },
    {
      "bufferView" : 35,
      "componentType" : 5126,
      "count" : 10,
      "type" : "VEC4"
    },
    {
      "bufferView" : 36,
      "componentType" : 5126,
      "count" : 10,
      "type" : "VEC2"
    },
    {
      "bufferView" : 37,
      "componentType" : 5126,
      "count" : 10,
      "type" : "VEC2"
    },
    {
      "bufferView" : 38,
      "componentType" : 5126,
      "count" : 10,
      "type" : "VEC2"
    },
    {
      "bufferView" : 39,
      "componentType" : 5126,
      "count" : 10,
      "type" : "VEC2"
    },
    {
      "bufferView" : 40,
      "componentType" : 5123,
      "count" : 540,
      "type" : "SCALAR"
    },
    {
      "bufferView" : 41,
      "min" : [ 16.686, 5.07002, 31.7511 ],
      "max" : [ 17.8623, 5.6, 60.627 ],
      "componentType" : 5126,
      "count" : 274,
      "type" : "VEC3"
    },
    {
      "bufferView" : 42,
      "componentType" : 5126,
      "count" : 274,
      "type" : "VEC3"
    },
    {
      "bufferView" : 43,
      "componentType" : 5126,
      "count" : 274,
      "type" : "VEC4"
    },
    {
      "bufferView" : 44,
      "componentType" : 5126,
      "count" : 274,
      "type" : "VEC2"
    },
    {
      "bufferView" : 45,
      "componentType" : 5126,
      "count" : 274,
      "type" : "VEC2"
    },
    {
      "bufferView" : 46,
      "componentType" : 5126,
      "count" : 274,
      "type" : "VEC2"
    },
    {
      "bufferView" : 47,
      "componentType" : 5126,
      "count" : 274,
      "type" : "VEC2"
    },
    {
      "bufferView" : 48,
      "componentType" : 5123,
      "count" : 6,
      "type" : "SCALAR"
    },
    {
      "bufferView" : 49,
      "min" : [ 18.0083, 5.97741, 37.5465 ],
      "max" : [ 22.0083, 5.97741, 60.6493 ],
      "componentType" : 5126,
      "count" : 4,
      "type" : "VEC3"
    },
    {
      "bufferView" : 50,
      "componentType" : 5126,
      "count" : 4,
      "type" : "VEC3"
    },
    {
      "bufferView" : 51,
      "componentType" : 5126,
      "count" : 4,
      "type" : "VEC4"
    },
    {
      "bufferView" : 52,
      "componentType" : 5126,
      "count" : 4,
      "type" : "VEC2"
    },
    {
      "bufferView" : 53,
      "componentType" : 5126,
      "count" : 4,
      "type" : "VEC2"
    },
    {
      "bufferView" : 54,
      "componentType" : 5126,
      "count" : 4,
      "type" : "VEC2"
    },
    {
      "bufferView" : 55,
      "componentType" : 5126,
      "count" : 4,
      "type" : "VEC2"
    }
  ]
}
