{
  "asset" : {
    "generator" : "UE Viewer (umodel) build 1544 based",
    "version" : "2.0"
  },
  "scene" : 0,
  "scenes" : [
    {
      "nodes" : [ 0 ]
    }
  ],
  "nodes" : [
    {
      "name" : "SM_ENV_LKNVLD_TreeSet_G_Lod3",
      "mesh" : 0
    }
  ],
  "materials" : [
    {
      "name" : "MI_ENV_LKNVLD_Tree_A_Masked_CameraTrans",
      "pbrMetallicRoughness" : {
        "baseColorFactor" : [ 0.3, 0.3, 0.3, 1.0 ],
        "metallicFactor" : 0.1,
        "roughnessFactor" : 0.5
      }
    },
    {
      "name" : "MI_ENV_LKNVLD_LeafMasked_A",
      "pbrMetallicRoughness" : {
        "baseColorFactor" : [ 0.9, 0.3, 0.3, 1.0 ],
        "metallicFactor" : 0.1,
        "roughnessFactor" : 0.5
      }
    },
    {
      "name" : "MI_ENV_LKNVLD_Leaf_A",
      "pbrMetallicRoughness" : {
        "baseColorFactor" : [ 0.3, 0.9, 0.3, 1.0 ],
        "metallicFactor" : 0.1,
        "roughnessFactor" : 0.5
      }
    }
  ],
  "meshes" : [
    {
      "primitives" : [
        {
          "attributes" : {
            "POSITION" : 1,
            "NORMAL" : 2,
            "TANGENT" : 3,
            "COLOR_0" : 4,
            "TEXCOORD_0" : 5,
            "TEXCOORD_1" : 6,
            "TEXCOORD_2" : 7,
            "TEXCOORD_3" : 8
          },
          "indices" : 0,
          "material" : 0
        },
        {
          "attributes" : {
            "POSITION" : 10,
            "NORMAL" : 11,
            "TANGENT" : 12,
            "COLOR_0" : 13,
            "TEXCOORD_0" : 14,
            "TEXCOORD_1" : 15,
            "TEXCOORD_2" : 16,
            "TEXCOORD_3" : 17
          },
          "indices" : 9,
          "material" : 1
        },
        {
          "attributes" : {
            "POSITION" : 19,
            "NORMAL" : 20,
            "TANGENT" : 21,
            "COLOR_0" : 22,
            "TEXCOORD_0" : 23,
            "TEXCOORD_1" : 24,
            "TEXCOORD_2" : 25,
            "TEXCOORD_3" : 26
          },
          "indices" : 18,
          "material" : 2
        }
      ],
      "name" : "SM_ENV_LKNVLD_TreeSet_G_Lod3"
    }
  ],
  "buffers" : [
    {
      "uri" : "SM_ENV_LKNVLD_TreeSet_G_Lod3.bin",
      "byteLength" : 1545052
    }
  ],
  "bufferViews" : [
    {
      "buffer" : 0,
      "byteOffset" : 0,
      "byteLength" : 2952
    },
    {
      "buffer" : 0,
      "byteOffset" : 2952,
      "byteLength" : 14508
    },
    {
      "buffer" : 0,
      "byteOffset" : 17460,
      "byteLength" : 14508
    },
    {
      "buffer" : 0,
      "byteOffset" : 31968,
      "byteLength" : 19344
    },
    {
      "buffer" : 0,
      "byteOffset" : 51312,
      "byteLength" : 4836
    },
    {
      "buffer" : 0,
      "byteOffset" : 56148,
      "byteLength" : 9672
    },
    {
      "buffer" : 0,
      "byteOffset" : 65820,
      "byteLength" : 9672
    },
    {
      "buffer" : 0,
      "byteOffset" : 75492,
      "byteLength" : 9672
    },
    {
      "buffer" : 0,
      "byteOffset" : 85164,
      "byteLength" : 9672
    },
    {
      "buffer" : 0,
      "byteOffset" : 94836,
      "byteLength" : 43260
    },
    {
      "buffer" : 0,
      "byteOffset" : 138096,
      "byteLength" : 196020
    },
    {
      "buffer" : 0,
      "byteOffset" : 334116,
      "byteLength" : 196020
    },
    {
      "buffer" : 0,
      "byteOffset" : 530136,
      "byteLength" : 261360
    },
    {
      "buffer" : 0,
      "byteOffset" : 791496,
      "byteLength" : 65340
    },
    {
      "buffer" : 0,
      "byteOffset" : 856836,
      "byteLength" : 130680
    },
    {
      "buffer" : 0,
      "byteOffset" : 987516,
      "byteLength" : 130680
    },
    {
      "buffer" : 0,
      "byteOffset" : 1118196,
      "byteLength" : 130680
    },
    {
      "buffer" : 0,
      "byteOffset" : 1248876,
      "byteLength" : 130680
    },
    {
      "buffer" : 0,
      "byteOffset" : 1379556,
      "byteLength" : 9392
    },
    {
      "buffer" : 0,
      "byteOffset" : 1388948,
      "byteLength" : 24648
    },
    {
      "buffer" : 0,
      "byteOffset" : 1413596,
      "byteLength" : 24648
    },
    {
      "buffer" : 0,
      "byteOffset" : 1438244,
      "byteLength" : 32864
    },
    {
      "buffer" : 0,
      "byteOffset" : 1471108,
      "byteLength" : 8216
    },
    {
      "buffer" : 0,
      "byteOffset" : 1479324,
      "byteLength" : 16432
    },
    {
      "buffer" : 0,
      "byteOffset" : 1495756,
      "byteLength" : 16432
    },
    {
      "buffer" : 0,
      "byteOffset" : 1512188,
      "byteLength" : 16432
    },
    {
      "buffer" : 0,
      "byteOffset" : 1528620,
      "byteLength" : 16432
    }
  ],
  "accessors" : [
    {
      "bufferView" : 0,
      "componentType" : 5123,
      "count" : 1476,
      "type" : "SCALAR"
    },
    {
      "bufferView" : 1,
      "min" : [ -45.4306, -0.355507, -30.5365 ],
      "max" : [ -29.6822, 9.96707, -17.3266 ],
      "componentType" : 5126,
      "count" : 1209,
      "type" : "VEC3"
    },
    {
      "bufferView" : 2,
      "componentType" : 5126,
      "count" : 1209,
      "type" : "VEC3"
    },
    {
      "bufferView" : 3,
      "componentType" : 5126,
      "count" : 1209,
      "type" : "VEC4"
    },
    {
      "bufferView" : 4,
      "normalized" : true,
      "componentType" : 5121,
      "count" : 1209,
      "type" : "VEC4"
    },
    {
      "bufferView" : 5,
      "componentType" : 5126,
      "count" : 1209,
      "type" : "VEC2"
    },
    {
      "bufferView" : 6,
      "componentType" : 5126,
      "count" : 1209,
      "type" : "VEC2"
    },
    {
      "bufferView" : 7,
      "componentType" : 5126,
      "count" : 1209,
      "type" : "VEC2"
    },
    {
      "bufferView" : 8,
      "componentType" : 5126,
      "count" : 1209,
      "type" : "VEC2"
    },
    {
      "bufferView" : 9,
      "componentType" : 5123,
      "count" : 21630,
      "type" : "SCALAR"
    },
    {
      "bufferView" : 10,
      "min" : [ -47.234, 3.10052, -33.0656 ],
      "max" : [ -28.8264, 13.6408, -15.573 ],
      "componentType" : 5126,
      "count" : 16335,
      "type" : "VEC3"
    },
    {
      "bufferView" : 11,
      "componentType" : 5126,
      "count" : 16335,
      "type" : "VEC3"
    },
    {
      "bufferView" : 12,
      "componentType" : 5126,
      "count" : 16335,
      "type" : "VEC4"
    },
    {
      "bufferView" : 13,
      "normalized" : true,
      "componentType" : 5121,
      "count" : 16335,
      "type" : "VEC4"
    },
    {
      "bufferView" : 14,
      "componentType" : 5126,
      "count" : 16335,
      "type" : "VEC2"
    },
    {
      "bufferView" : 15,
      "componentType" : 5126,
      "count" : 16335,
      "type" : "VEC2"
    },
    {
      "bufferView" : 16,
      "componentType" : 5126,
      "count" : 16335,
      "type" : "VEC2"
    },
    {
      "bufferView" : 17,
      "componentType" : 5126,
      "count" : 16335,
      "type" : "VEC2"
    },
    {
      "bufferView" : 18,
      "componentType" : 5123,
      "count" : 4695,
      "type" : "SCALAR"
    },
    {
      "bufferView" : 19,
      "min" : [ -47.0023, 3.28009, -32.7881 ],
      "max" : [ -29.0047, 13.4815, -15.7478 ],
      "componentType" : 5126,
      "count" : 2054,
      "type" : "VEC3"
    },
    {
      "bufferView" : 20,
      "componentType" : 5126,
      "count" : 2054,
      "type" : "VEC3"
    },
    {
      "bufferView" : 21,
      "componentType" : 5126,
      "count" : 2054,
      "type" : "VEC4"
    },
    {
      "bufferView" : 22,
      "normalized" : true,
      "componentType" : 5121,
      "count" : 2054,
      "type" : "VEC4"
    },
    {
      "bufferView" : 23,
      "componentType" : 5126,
      "count" : 2054,
      "type" : "VEC2"
    },
    {
      "bufferView" : 24,
      "componentType" : 5126,
      "count" : 2054,
      "type" : "VEC2"
    },
    {
      "bufferView" : 25,
      "componentType" : 5126,
      "count" : 2054,
      "type" : "VEC2"
    },
    {
      "bufferView" : 26,
      "componentType" : 5126,
      "count" : 2054,
      "type" : "VEC2"
    }
  ]
}
