{
  "asset" : {
    "generator" : "UE Viewer (umodel) build 1544 based",
    "version" : "2.0"
  },
  "scene" : 0,
  "scenes" : [
    {
      "nodes" : [ 0 ]
    }
  ],
  "nodes" : [
    {
      "name" : "SM_ENV_LKNVLD_TreeSet_D_Lod3",
      "mesh" : 0
    }
  ],
  "materials" : [
    {
      "name" : "MI_ENV_LKNVLD_LeafMasked_A",
      "pbrMetallicRoughness" : {
        "baseColorFactor" : [ 0.3, 0.3, 0.3, 1.0 ],
        "metallicFactor" : 0.1,
        "roughnessFactor" : 0.5
      }
    },
    {
      "name" : "MI_ENV_LKNVLD_Leaf_A",
      "pbrMetallicRoughness" : {
        "baseColorFactor" : [ 0.9, 0.3, 0.3, 1.0 ],
        "metallicFactor" : 0.1,
        "roughnessFactor" : 0.5
      }
    },
    {
      "name" : "MI_ENV_LKNVLD_Tree_A_Masked_CameraTrans",
      "pbrMetallicRoughness" : {
        "baseColorFactor" : [ 0.3, 0.9, 0.3, 1.0 ],
        "metallicFactor" : 0.1,
        "roughnessFactor" : 0.5
      }
    }
  ],
  "meshes" : [
    {
      "primitives" : [
        {
          "attributes" : {
            "POSITION" : 1,
            "NORMAL" : 2,
            "TANGENT" : 3,
            "COLOR_0" : 4,
            "TEXCOORD_0" : 5,
            "TEXCOORD_1" : 6,
            "TEXCOORD_2" : 7,
            "TEXCOORD_3" : 8
          },
          "indices" : 0,
          "material" : 0
        },
        {
          "attributes" : {
            "POSITION" : 10,
            "NORMAL" : 11,
            "TANGENT" : 12,
            "COLOR_0" : 13,
            "TEXCOORD_0" : 14,
            "TEXCOORD_1" : 15,
            "TEXCOORD_2" : 16,
            "TEXCOORD_3" : 17
          },
          "indices" : 9,
          "material" : 1
        },
        {
          "attributes" : {
            "POSITION" : 19,
            "NORMAL" : 20,
            "TANGENT" : 21,
            "COLOR_0" : 22,
            "TEXCOORD_0" : 23,
            "TEXCOORD_1" : 24,
            "TEXCOORD_2" : 25,
            "TEXCOORD_3" : 26
          },
          "indices" : 18,
          "material" : 2
        }
      ],
      "name" : "SM_ENV_LKNVLD_TreeSet_D_Lod3"
    }
  ],
  "buffers" : [
    {
      "uri" : "SM_ENV_LKNVLD_TreeSet_D_Lod3.bin",
      "byteLength" : 1630328
    }
  ],
  "bufferViews" : [
    {
      "buffer" : 0,
      "byteOffset" : 0,
      "byteLength" : 42648
    },
    {
      "buffer" : 0,
      "byteOffset" : 42648,
      "byteLength" : 191328
    },
    {
      "buffer" : 0,
      "byteOffset" : 233976,
      "byteLength" : 191328
    },
    {
      "buffer" : 0,
      "byteOffset" : 425304,
      "byteLength" : 255104
    },
    {
      "buffer" : 0,
      "byteOffset" : 680408,
      "byteLength" : 63776
    },
    {
      "buffer" : 0,
      "byteOffset" : 744184,
      "byteLength" : 127552
    },
    {
      "buffer" : 0,
      "byteOffset" : 871736,
      "byteLength" : 127552
    },
    {
      "buffer" : 0,
      "byteOffset" : 999288,
      "byteLength" : 127552
    },
    {
      "buffer" : 0,
      "byteOffset" : 1126840,
      "byteLength" : 127552
    },
    {
      "buffer" : 0,
      "byteOffset" : 1254392,
      "byteLength" : 9320
    },
    {
      "buffer" : 0,
      "byteOffset" : 1263712,
      "byteLength" : 44136
    },
    {
      "buffer" : 0,
      "byteOffset" : 1307848,
      "byteLength" : 44136
    },
    {
      "buffer" : 0,
      "byteOffset" : 1351984,
      "byteLength" : 58848
    },
    {
      "buffer" : 0,
      "byteOffset" : 1410832,
      "byteLength" : 14712
    },
    {
      "buffer" : 0,
      "byteOffset" : 1425544,
      "byteLength" : 29424
    },
    {
      "buffer" : 0,
      "byteOffset" : 1454968,
      "byteLength" : 29424
    },
    {
      "buffer" : 0,
      "byteOffset" : 1484392,
      "byteLength" : 29424
    },
    {
      "buffer" : 0,
      "byteOffset" : 1513816,
      "byteLength" : 29424
    },
    {
      "buffer" : 0,
      "byteOffset" : 1543240,
      "byteLength" : 2804
    },
    {
      "buffer" : 0,
      "byteOffset" : 1546044,
      "byteLength" : 13308
    },
    {
      "buffer" : 0,
      "byteOffset" : 1559352,
      "byteLength" : 13308
    },
    {
      "buffer" : 0,
      "byteOffset" : 1572660,
      "byteLength" : 17744
    },
    {
      "buffer" : 0,
      "byteOffset" : 1590404,
      "byteLength" : 4436
    },
    {
      "buffer" : 0,
      "byteOffset" : 1594840,
      "byteLength" : 8872
    },
    {
      "buffer" : 0,
      "byteOffset" : 1603712,
      "byteLength" : 8872
    },
    {
      "buffer" : 0,
      "byteOffset" : 1612584,
      "byteLength" : 8872
    },
    {
      "buffer" : 0,
      "byteOffset" : 1621456,
      "byteLength" : 8872
    }
  ],
  "accessors" : [
    {
      "bufferView" : 0,
      "componentType" : 5123,
      "count" : 21324,
      "type" : "SCALAR"
    },
    {
      "bufferView" : 1,
      "min" : [ 50.6209, 3.5617, -71.6586 ],
      "max" : [ 64.1081, 13.3603, -49.2527 ],
      "componentType" : 5126,
      "count" : 15944,
      "type" : "VEC3"
    },
    {
      "bufferView" : 2,
      "componentType" : 5126,
      "count" : 15944,
      "type" : "VEC3"
    },
    {
      "bufferView" : 3,
      "componentType" : 5126,
      "count" : 15944,
      "type" : "VEC4"
    },
    {
      "bufferView" : 4,
      "normalized" : true,
      "componentType" : 5121,
      "count" : 15944,
      "type" : "VEC4"
    },
    {
      "bufferView" : 5,
      "componentType" : 5126,
      "count" : 15944,
      "type" : "VEC2"
    },
    {
      "bufferView" : 6,
      "componentType" : 5126,
      "count" : 15944,
      "type" : "VEC2"
    },
    {
      "bufferView" : 7,
      "componentType" : 5126,
      "count" : 15944,
      "type" : "VEC2"
    },
    {
      "bufferView" : 8,
      "componentType" : 5126,
      "count" : 15944,
      "type" : "VEC2"
    },
    {
      "bufferView" : 9,
      "componentType" : 5123,
      "count" : 4659,
      "type" : "SCALAR"
    },
    {
      "bufferView" : 10,
      "min" : [ 50.8177, 3.774, -71.4529 ],
      "max" : [ 63.9025, 13.2009, -49.4199 ],
      "componentType" : 5126,
      "count" : 3678,
      "type" : "VEC3"
    },
    {
      "bufferView" : 11,
      "componentType" : 5126,
      "count" : 3678,
      "type" : "VEC3"
    },
    {
      "bufferView" : 12,
      "componentType" : 5126,
      "count" : 3678,
      "type" : "VEC4"
    },
    {
      "bufferView" : 13,
      "normalized" : true,
      "componentType" : 5121,
      "count" : 3678,
      "type" : "VEC4"
    },
    {
      "bufferView" : 14,
      "componentType" : 5126,
      "count" : 3678,
      "type" : "VEC2"
    },
    {
      "bufferView" : 15,
      "componentType" : 5126,
      "count" : 3678,
      "type" : "VEC2"
    },
    {
      "bufferView" : 16,
      "componentType" : 5126,
      "count" : 3678,
      "type" : "VEC2"
    },
    {
      "bufferView" : 17,
      "componentType" : 5126,
      "count" : 3678,
      "type" : "VEC2"
    },
    {
      "bufferView" : 18,
      "componentType" : 5123,
      "count" : 1401,
      "type" : "SCALAR"
    },
    {
      "bufferView" : 19,
      "min" : [ 52.6235, -0.567711, -68.7744 ],
      "max" : [ 61.7322, 9.68649, -50.4821 ],
      "componentType" : 5126,
      "count" : 1109,
      "type" : "VEC3"
    },
    {
      "bufferView" : 20,
      "componentType" : 5126,
      "count" : 1109,
      "type" : "VEC3"
    },
    {
      "bufferView" : 21,
      "componentType" : 5126,
      "count" : 1109,
      "type" : "VEC4"
    },
    {
      "bufferView" : 22,
      "normalized" : true,
      "componentType" : 5121,
      "count" : 1109,
      "type" : "VEC4"
    },
    {
      "bufferView" : 23,
      "componentType" : 5126,
      "count" : 1109,
      "type" : "VEC2"
    },
    {
      "bufferView" : 24,
      "componentType" : 5126,
      "count" : 1109,
      "type" : "VEC2"
    },
    {
      "bufferView" : 25,
      "componentType" : 5126,
      "count" : 1109,
      "type" : "VEC2"
    },
    {
      "bufferView" : 26,
      "componentType" : 5126,
      "count" : 1109,
      "type" : "VEC2"
    }
  ]
}
