{
  "asset" : {
    "generator" : "UE Viewer (umodel) build 1544 based",
    "version" : "2.0"
  },
  "scene" : 0,
  "scenes" : [
    {
      "nodes" : [ 0 ]
    }
  ],
  "nodes" : [
    {
      "name" : "SM_ENV_LKNVLD_Tree_B_Lod1",
      "mesh" : 0
    }
  ],
  "materials" : [
    {
      "name" : "MI_ENV_LKNVLD_Tree_A",
      "pbrMetallicRoughness" : {
        "baseColorFactor" : [ 0.3, 0.3, 0.3, 1.0 ],
        "metallicFactor" : 0.1,
        "roughnessFactor" : 0.5
      }
    },
    {
      "name" : "MI_ENV_LKNVLD_LeafMasked_A",
      "pbrMetallicRoughness" : {
        "baseColorFactor" : [ 0.9, 0.3, 0.3, 1.0 ],
        "metallicFactor" : 0.1,
        "roughnessFactor" : 0.5
      }
    },
    {
      "name" : "MI_ENV_LKNVLD_Leaf_A",
      "pbrMetallicRoughness" : {
        "baseColorFactor" : [ 0.3, 0.9, 0.3, 1.0 ],
        "metallicFactor" : 0.1,
        "roughnessFactor" : 0.5
      }
    }
  ],
  "meshes" : [
    {
      "primitives" : [
        {
          "attributes" : {
            "POSITION" : 1,
            "NORMAL" : 2,
            "TANGENT" : 3,
            "COLOR_0" : 4,
            "TEXCOORD_0" : 5,
            "TEXCOORD_1" : 6,
            "TEXCOORD_2" : 7,
            "TEXCOORD_3" : 8
          },
          "indices" : 0,
          "material" : 0
        },
        {
          "attributes" : {
            "POSITION" : 10,
            "NORMAL" : 11,
            "TANGENT" : 12,
            "COLOR_0" : 13,
            "TEXCOORD_0" : 14,
            "TEXCOORD_1" : 15,
            "TEXCOORD_2" : 16,
            "TEXCOORD_3" : 17
          },
          "indices" : 9,
          "material" : 1
        },
        {
          "attributes" : {
            "POSITION" : 19,
            "NORMAL" : 20,
            "TANGENT" : 21,
            "COLOR_0" : 22,
            "TEXCOORD_0" : 23,
            "TEXCOORD_1" : 24,
            "TEXCOORD_2" : 25,
            "TEXCOORD_3" : 26
          },
          "indices" : 18,
          "material" : 2
        }
      ],
      "name" : "SM_ENV_LKNVLD_Tree_B_Lod1"
    }
  ],
  "buffers" : [
    {
      "uri" : "SM_ENV_LKNVLD_Tree_B_Lod1.bin",
      "byteLength" : 489924
    }
  ],
  "bufferViews" : [
    {
      "buffer" : 0,
      "byteOffset" : 0,
      "byteLength" : 1592
    },
    {
      "buffer" : 0,
      "byteOffset" : 1592,
      "byteLength" : 7092
    },
    {
      "buffer" : 0,
      "byteOffset" : 8684,
      "byteLength" : 7092
    },
    {
      "buffer" : 0,
      "byteOffset" : 15776,
      "byteLength" : 9456
    },
    {
      "buffer" : 0,
      "byteOffset" : 25232,
      "byteLength" : 2364
    },
    {
      "buffer" : 0,
      "byteOffset" : 27596,
      "byteLength" : 4728
    },
    {
      "buffer" : 0,
      "byteOffset" : 32324,
      "byteLength" : 4728
    },
    {
      "buffer" : 0,
      "byteOffset" : 37052,
      "byteLength" : 4728
    },
    {
      "buffer" : 0,
      "byteOffset" : 41780,
      "byteLength" : 4728
    },
    {
      "buffer" : 0,
      "byteOffset" : 46508,
      "byteLength" : 21584
    },
    {
      "buffer" : 0,
      "byteOffset" : 68092,
      "byteLength" : 57552
    },
    {
      "buffer" : 0,
      "byteOffset" : 125644,
      "byteLength" : 57552
    },
    {
      "buffer" : 0,
      "byteOffset" : 183196,
      "byteLength" : 76736
    },
    {
      "buffer" : 0,
      "byteOffset" : 259932,
      "byteLength" : 19184
    },
    {
      "buffer" : 0,
      "byteOffset" : 279116,
      "byteLength" : 38368
    },
    {
      "buffer" : 0,
      "byteOffset" : 317484,
      "byteLength" : 38368
    },
    {
      "buffer" : 0,
      "byteOffset" : 355852,
      "byteLength" : 38368
    },
    {
      "buffer" : 0,
      "byteOffset" : 394220,
      "byteLength" : 38368
    },
    {
      "buffer" : 0,
      "byteOffset" : 432588,
      "byteLength" : 4136
    },
    {
      "buffer" : 0,
      "byteOffset" : 436724,
      "byteLength" : 8400
    },
    {
      "buffer" : 0,
      "byteOffset" : 445124,
      "byteLength" : 8400
    },
    {
      "buffer" : 0,
      "byteOffset" : 453524,
      "byteLength" : 11200
    },
    {
      "buffer" : 0,
      "byteOffset" : 464724,
      "byteLength" : 2800
    },
    {
      "buffer" : 0,
      "byteOffset" : 467524,
      "byteLength" : 5600
    },
    {
      "buffer" : 0,
      "byteOffset" : 473124,
      "byteLength" : 5600
    },
    {
      "buffer" : 0,
      "byteOffset" : 478724,
      "byteLength" : 5600
    },
    {
      "buffer" : 0,
      "byteOffset" : 484324,
      "byteLength" : 5600
    }
  ],
  "accessors" : [
    {
      "bufferView" : 0,
      "componentType" : 5123,
      "count" : 795,
      "type" : "SCALAR"
    },
    {
      "bufferView" : 1,
      "min" : [ -2.17623, -0.228456, -2.38989 ],
      "max" : [ 1.9232, 7.68376, 1.43543 ],
      "componentType" : 5126,
      "count" : 591,
      "type" : "VEC3"
    },
    {
      "bufferView" : 2,
      "componentType" : 5126,
      "count" : 591,
      "type" : "VEC3"
    },
    {
      "bufferView" : 3,
      "componentType" : 5126,
      "count" : 591,
      "type" : "VEC4"
    },
    {
      "bufferView" : 4,
      "normalized" : true,
      "componentType" : 5121,
      "count" : 591,
      "type" : "VEC4"
    },
    {
      "bufferView" : 5,
      "componentType" : 5126,
      "count" : 591,
      "type" : "VEC2"
    },
    {
      "bufferView" : 6,
      "componentType" : 5126,
      "count" : 591,
      "type" : "VEC2"
    },
    {
      "bufferView" : 7,
      "componentType" : 5126,
      "count" : 591,
      "type" : "VEC2"
    },
    {
      "bufferView" : 8,
      "componentType" : 5126,
      "count" : 591,
      "type" : "VEC2"
    },
    {
      "bufferView" : 9,
      "componentType" : 5123,
      "count" : 10791,
      "type" : "SCALAR"
    },
    {
      "bufferView" : 10,
      "min" : [ -4.26926, 3.95788, -4.19044 ],
      "max" : [ 2.99466, 9.03309, 3.60756 ],
      "componentType" : 5126,
      "count" : 4796,
      "type" : "VEC3"
    },
    {
      "bufferView" : 11,
      "componentType" : 5126,
      "count" : 4796,
      "type" : "VEC3"
    },
    {
      "bufferView" : 12,
      "componentType" : 5126,
      "count" : 4796,
      "type" : "VEC4"
    },
    {
      "bufferView" : 13,
      "normalized" : true,
      "componentType" : 5121,
      "count" : 4796,
      "type" : "VEC4"
    },
    {
      "bufferView" : 14,
      "componentType" : 5126,
      "count" : 4796,
      "type" : "VEC2"
    },
    {
      "bufferView" : 15,
      "componentType" : 5126,
      "count" : 4796,
      "type" : "VEC2"
    },
    {
      "bufferView" : 16,
      "componentType" : 5126,
      "count" : 4796,
      "type" : "VEC2"
    },
    {
      "bufferView" : 17,
      "componentType" : 5126,
      "count" : 4796,
      "type" : "VEC2"
    },
    {
      "bufferView" : 18,
      "componentType" : 5123,
      "count" : 2067,
      "type" : "SCALAR"
    },
    {
      "bufferView" : 19,
      "min" : [ -4.04971, 4.17539, -3.94098 ],
      "max" : [ 2.7891, 8.77269, 3.42815 ],
      "componentType" : 5126,
      "count" : 700,
      "type" : "VEC3"
    },
    {
      "bufferView" : 20,
      "componentType" : 5126,
      "count" : 700,
      "type" : "VEC3"
    },
    {
      "bufferView" : 21,
      "componentType" : 5126,
      "count" : 700,
      "type" : "VEC4"
    },
    {
      "bufferView" : 22,
      "normalized" : true,
      "componentType" : 5121,
      "count" : 700,
      "type" : "VEC4"
    },
    {
      "bufferView" : 23,
      "componentType" : 5126,
      "count" : 700,
      "type" : "VEC2"
    },
    {
      "bufferView" : 24,
      "componentType" : 5126,
      "count" : 700,
      "type" : "VEC2"
    },
    {
      "bufferView" : 25,
      "componentType" : 5126,
      "count" : 700,
      "type" : "VEC2"
    },
    {
      "bufferView" : 26,
      "componentType" : 5126,
      "count" : 700,
      "type" : "VEC2"
    }
  ]
}
