{
  "asset" : {
    "generator" : "UE Viewer (umodel) build 1544 based",
    "version" : "2.0"
  },
  "scene" : 0,
  "scenes" : [
    {
      "nodes" : [ 0 ]
    }
  ],
  "nodes" : [
    {
      "name" : "SM_ENV_LKNVLD_Hokage_Gate_Wall",
      "mesh" : 0
    }
  ],
  "materials" : [
    {
      "name" : "MI_ENV_LKNVLD_WoodBoard_Natural_Yellowed",
      "pbrMetallicRoughness" : {
        "baseColorFactor" : [ 0.3, 0.3, 0.3, 1.0 ],
        "metallicFactor" : 0.1,
        "roughnessFactor" : 0.5
      }
    },
    {
      "name" : "MI_ENV_LKNVLD_WoodPlain_Brown",
      "pbrMetallicRoughness" : {
        "baseColorFactor" : [ 0.9, 0.3, 0.3, 1.0 ],
        "metallicFactor" : 0.1,
        "roughnessFactor" : 0.5
      }
    },
    {
      "name" : "MI_ENV_LKNVLD_Plaster_Beige",
      "pbrMetallicRoughness" : {
        "baseColorFactor" : [ 0.3, 0.9, 0.3, 1.0 ],
        "metallicFactor" : 0.1,
        "roughnessFactor" : 0.5
      }
    },
    {
      "name" : "MI_ENV_LKNVLD_Plaster_Pink",
      "pbrMetallicRoughness" : {
        "baseColorFactor" : [ 0.3, 0.3, 0.9, 1.0 ],
        "metallicFactor" : 0.1,
        "roughnessFactor" : 0.5
      }
    },
    {
      "name" : "MI_T_ENV_LKNVLD_StoneTrim",
      "pbrMetallicRoughness" : {
        "baseColorFactor" : [ 0.9, 0.9, 0.9, 1.0 ],
        "metallicFactor" : 0.1,
        "roughnessFactor" : 0.5
      }
    },
    {
      "name" : "MI_ENV_LKNVLD_RoofTiles_Yellow",
      "pbrMetallicRoughness" : {
        "baseColorFactor" : [ 0.9, 0.9, 0.3, 1.0 ],
        "metallicFactor" : 0.1,
        "roughnessFactor" : 0.5
      }
    },
    {
      "name" : "MI_ENV_LKNVLD_RoofTiles_Grey",
      "pbrMetallicRoughness" : {
        "baseColorFactor" : [ 0.9, 0.3, 0.9, 1.0 ],
        "metallicFactor" : 0.1,
        "roughnessFactor" : 0.5
      }
    },
    {
      "name" : "MI_ENV_LKNVLD_Pipe_G",
      "pbrMetallicRoughness" : {
        "baseColorFactor" : [ 0.3, 0.9, 0.9, 1.0 ],
        "metallicFactor" : 0.1,
        "roughnessFactor" : 0.5
      }
    }
  ],
  "meshes" : [
    {
      "primitives" : [
        {
          "attributes" : {
            "POSITION" : 1,
            "NORMAL" : 2,
            "TANGENT" : 3,
            "TEXCOORD_0" : 4,
            "TEXCOORD_1" : 5,
            "TEXCOORD_2" : 6,
            "TEXCOORD_3" : 7
          },
          "indices" : 0,
          "material" : 0
        },
        {
          "attributes" : {
            "POSITION" : 9,
            "NORMAL" : 10,
            "TANGENT" : 11,
            "TEXCOORD_0" : 12,
            "TEXCOORD_1" : 13,
            "TEXCOORD_2" : 14,
            "TEXCOORD_3" : 15
          },
          "indices" : 8,
          "material" : 1
        },
        {
          "attributes" : {
            "POSITION" : 17,
            "NORMAL" : 18,
            "TANGENT" : 19,
            "TEXCOORD_0" : 20,
            "TEXCOORD_1" : 21,
            "TEXCOORD_2" : 22,
            "TEXCOORD_3" : 23
          },
          "indices" : 16,
          "material" : 2
        },
        {
          "attributes" : {
            "POSITION" : 25,
            "NORMAL" : 26,
            "TANGENT" : 27,
            "TEXCOORD_0" : 28,
            "TEXCOORD_1" : 29,
            "TEXCOORD_2" : 30,
            "TEXCOORD_3" : 31
          },
          "indices" : 24,
          "material" : 3
        },
        {
          "attributes" : {
            "POSITION" : 33,
            "NORMAL" : 34,
            "TANGENT" : 35,
            "TEXCOORD_0" : 36,
            "TEXCOORD_1" : 37,
            "TEXCOORD_2" : 38,
            "TEXCOORD_3" : 39
          },
          "indices" : 32,
          "material" : 4
        },
        {
          "attributes" : {
            "POSITION" : 41,
            "NORMAL" : 42,
            "TANGENT" : 43,
            "TEXCOORD_0" : 44,
            "TEXCOORD_1" : 45,
            "TEXCOORD_2" : 46,
            "TEXCOORD_3" : 47
          },
          "indices" : 40,
          "material" : 5
        },
        {
          "attributes" : {
            "POSITION" : 49,
            "NORMAL" : 50,
            "TANGENT" : 51,
            "TEXCOORD_0" : 52,
            "TEXCOORD_1" : 53,
            "TEXCOORD_2" : 54,
            "TEXCOORD_3" : 55
          },
          "indices" : 48,
          "material" : 6
        },
        {
          "attributes" : {
            "POSITION" : 57,
            "NORMAL" : 58,
            "TANGENT" : 59,
            "TEXCOORD_0" : 60,
            "TEXCOORD_1" : 61,
            "TEXCOORD_2" : 62,
            "TEXCOORD_3" : 63
          },
          "indices" : 56,
          "material" : 7
        }
      ],
      "name" : "SM_ENV_LKNVLD_Hokage_Gate_Wall"
    }
  ],
  "buffers" : [
    {
      "uri" : "SM_ENV_LKNVLD_Hokage_Gate_Wall.bin",
      "byteLength" : 563008
    }
  ],
  "bufferViews" : [
    {
      "buffer" : 0,
      "byteOffset" : 0,
      "byteLength" : 1280
    },
    {
      "buffer" : 0,
      "byteOffset" : 1280,
      "byteLength" : 3204
    },
    {
      "buffer" : 0,
      "byteOffset" : 4484,
      "byteLength" : 3204
    },
    {
      "buffer" : 0,
      "byteOffset" : 7688,
      "byteLength" : 4272
    },
    {
      "buffer" : 0,
      "byteOffset" : 11960,
      "byteLength" : 2136
    },
    {
      "buffer" : 0,
      "byteOffset" : 14096,
      "byteLength" : 2136
    },
    {
      "buffer" : 0,
      "byteOffset" : 16232,
      "byteLength" : 2136
    },
    {
      "buffer" : 0,
      "byteOffset" : 18368,
      "byteLength" : 2136
    },
    {
      "buffer" : 0,
      "byteOffset" : 20504,
      "byteLength" : 8400
    },
    {
      "buffer" : 0,
      "byteOffset" : 28904,
      "byteLength" : 32856
    },
    {
      "buffer" : 0,
      "byteOffset" : 61760,
      "byteLength" : 32856
    },
    {
      "buffer" : 0,
      "byteOffset" : 94616,
      "byteLength" : 43808
    },
    {
      "buffer" : 0,
      "byteOffset" : 138424,
      "byteLength" : 21904
    },
    {
      "buffer" : 0,
      "byteOffset" : 160328,
      "byteLength" : 21904
    },
    {
      "buffer" : 0,
      "byteOffset" : 182232,
      "byteLength" : 21904
    },
    {
      "buffer" : 0,
      "byteOffset" : 204136,
      "byteLength" : 21904
    },
    {
      "buffer" : 0,
      "byteOffset" : 226040,
      "byteLength" : 576
    },
    {
      "buffer" : 0,
      "byteOffset" : 226616,
      "byteLength" : 1044
    },
    {
      "buffer" : 0,
      "byteOffset" : 227660,
      "byteLength" : 1044
    },
    {
      "buffer" : 0,
      "byteOffset" : 228704,
      "byteLength" : 1392
    },
    {
      "buffer" : 0,
      "byteOffset" : 230096,
      "byteLength" : 696
    },
    {
      "buffer" : 0,
      "byteOffset" : 230792,
      "byteLength" : 696
    },
    {
      "buffer" : 0,
      "byteOffset" : 231488,
      "byteLength" : 696
    },
    {
      "buffer" : 0,
      "byteOffset" : 232184,
      "byteLength" : 696
    },
    {
      "buffer" : 0,
      "byteOffset" : 232880,
      "byteLength" : 576
    },
    {
      "buffer" : 0,
      "byteOffset" : 233456,
      "byteLength" : 1392
    },
    {
      "buffer" : 0,
      "byteOffset" : 234848,
      "byteLength" : 1392
    },
    {
      "buffer" : 0,
      "byteOffset" : 236240,
      "byteLength" : 1856
    },
    {
      "buffer" : 0,
      "byteOffset" : 238096,
      "byteLength" : 928
    },
    {
      "buffer" : 0,
      "byteOffset" : 239024,
      "byteLength" : 928
    },
    {
      "buffer" : 0,
      "byteOffset" : 239952,
      "byteLength" : 928
    },
    {
      "buffer" : 0,
      "byteOffset" : 240880,
      "byteLength" : 928
    },
    {
      "buffer" : 0,
      "byteOffset" : 241808,
      "byteLength" : 1200
    },
    {
      "buffer" : 0,
      "byteOffset" : 243008,
      "byteLength" : 1680
    },
    {
      "buffer" : 0,
      "byteOffset" : 244688,
      "byteLength" : 1680
    },
    {
      "buffer" : 0,
      "byteOffset" : 246368,
      "byteLength" : 2240
    },
    {
      "buffer" : 0,
      "byteOffset" : 248608,
      "byteLength" : 1120
    },
    {
      "buffer" : 0,
      "byteOffset" : 249728,
      "byteLength" : 1120
    },
    {
      "buffer" : 0,
      "byteOffset" : 250848,
      "byteLength" : 1120
    },
    {
      "buffer" : 0,
      "byteOffset" : 251968,
      "byteLength" : 1120
    },
    {
      "buffer" : 0,
      "byteOffset" : 253088,
      "byteLength" : 13640
    },
    {
      "buffer" : 0,
      "byteOffset" : 266728,
      "byteLength" : 20364
    },
    {
      "buffer" : 0,
      "byteOffset" : 287092,
      "byteLength" : 20364
    },
    {
      "buffer" : 0,
      "byteOffset" : 307456,
      "byteLength" : 27152
    },
    {
      "buffer" : 0,
      "byteOffset" : 334608,
      "byteLength" : 13576
    },
    {
      "buffer" : 0,
      "byteOffset" : 348184,
      "byteLength" : 13576
    },
    {
      "buffer" : 0,
      "byteOffset" : 361760,
      "byteLength" : 13576
    },
    {
      "buffer" : 0,
      "byteOffset" : 375336,
      "byteLength" : 13576
    },
    {
      "buffer" : 0,
      "byteOffset" : 388912,
      "byteLength" : 8892
    },
    {
      "buffer" : 0,
      "byteOffset" : 397804,
      "byteLength" : 13056
    },
    {
      "buffer" : 0,
      "byteOffset" : 410860,
      "byteLength" : 13056
    },
    {
      "buffer" : 0,
      "byteOffset" : 423916,
      "byteLength" : 17408
    },
    {
      "buffer" : 0,
      "byteOffset" : 441324,
      "byteLength" : 8704
    },
    {
      "buffer" : 0,
      "byteOffset" : 450028,
      "byteLength" : 8704
    },
    {
      "buffer" : 0,
      "byteOffset" : 458732,
      "byteLength" : 8704
    },
    {
      "buffer" : 0,
      "byteOffset" : 467436,
      "byteLength" : 8704
    },
    {
      "buffer" : 0,
      "byteOffset" : 476140,
      "byteLength" : 6948
    },
    {
      "buffer" : 0,
      "byteOffset" : 483088,
      "byteLength" : 13320
    },
    {
      "buffer" : 0,
      "byteOffset" : 496408,
      "byteLength" : 13320
    },
    {
      "buffer" : 0,
      "byteOffset" : 509728,
      "byteLength" : 17760
    },
    {
      "buffer" : 0,
      "byteOffset" : 527488,
      "byteLength" : 8880
    },
    {
      "buffer" : 0,
      "byteOffset" : 536368,
      "byteLength" : 8880
    },
    {
      "buffer" : 0,
      "byteOffset" : 545248,
      "byteLength" : 8880
    },
    {
      "buffer" : 0,
      "byteOffset" : 554128,
      "byteLength" : 8880
    }
  ],
  "accessors" : [
    {
      "bufferView" : 0,
      "componentType" : 5123,
      "count" : 639,
      "type" : "SCALAR"
    },
    {
      "bufferView" : 1,
      "min" : [ 6.09384, 12.3068, -95.9579 ],
      "max" : [ 24.8496, 17.7913, -70.548 ],
      "componentType" : 5126,
      "count" : 267,
      "type" : "VEC3"
    },
    {
      "bufferView" : 2,
      "componentType" : 5126,
      "count" : 267,
      "type" : "VEC3"
    },
    {
      "bufferView" : 3,
      "componentType" : 5126,
      "count" : 267,
      "type" : "VEC4"
    },
    {
      "bufferView" : 4,
      "componentType" : 5126,
      "count" : 267,
      "type" : "VEC2"
    },
    {
      "bufferView" : 5,
      "componentType" : 5126,
      "count" : 267,
      "type" : "VEC2"
    },
    {
      "bufferView" : 6,
      "componentType" : 5126,
      "count" : 267,
      "type" : "VEC2"
    },
    {
      "bufferView" : 7,
      "componentType" : 5126,
      "count" : 267,
      "type" : "VEC2"
    },
    {
      "bufferView" : 8,
      "componentType" : 5123,
      "count" : 4200,
      "type" : "SCALAR"
    },
    {
      "bufferView" : 9,
      "min" : [ 6.76892, 15.6551, -95.9464 ],
      "max" : [ 24.6429, 15.9651, -70.9034 ],
      "componentType" : 5126,
      "count" : 2738,
      "type" : "VEC3"
    },
    {
      "bufferView" : 10,
      "componentType" : 5126,
      "count" : 2738,
      "type" : "VEC3"
    },
    {
      "bufferView" : 11,
      "componentType" : 5126,
      "count" : 2738,
      "type" : "VEC4"
    },
    {
      "bufferView" : 12,
      "componentType" : 5126,
      "count" : 2738,
      "type" : "VEC2"
    },
    {
      "bufferView" : 13,
      "componentType" : 5126,
      "count" : 2738,
      "type" : "VEC2"
    },
    {
      "bufferView" : 14,
      "componentType" : 5126,
      "count" : 2738,
      "type" : "VEC2"
    },
    {
      "bufferView" : 15,
      "componentType" : 5126,
      "count" : 2738,
      "type" : "VEC2"
    },
    {
      "bufferView" : 16,
      "componentType" : 5123,
      "count" : 288,
      "type" : "SCALAR"
    },
    {
      "bufferView" : 17,
      "min" : [ 6.76892, 13.2789, -95.9276 ],
      "max" : [ 23.9625, 15.6627, -71.4776 ],
      "componentType" : 5126,
      "count" : 87,
      "type" : "VEC3"
    },
    {
      "bufferView" : 18,
      "componentType" : 5126,
      "count" : 87,
      "type" : "VEC3"
    },
    {
      "bufferView" : 19,
      "componentType" : 5126,
      "count" : 87,
      "type" : "VEC4"
    },
    {
      "bufferView" : 20,
      "componentType" : 5126,
      "count" : 87,
      "type" : "VEC2"
    },
    {
      "bufferView" : 21,
      "componentType" : 5126,
      "count" : 87,
      "type" : "VEC2"
    },
    {
      "bufferView" : 22,
      "componentType" : 5126,
      "count" : 87,
      "type" : "VEC2"
    },
    {
      "bufferView" : 23,
      "componentType" : 5126,
      "count" : 87,
      "type" : "VEC2"
    },
    {
      "bufferView" : 24,
      "componentType" : 5123,
      "count" : 288,
      "type" : "SCALAR"
    },
    {
      "bufferView" : 25,
      "min" : [ 6.76892, 12.3007, -95.9279 ],
      "max" : [ 24.0091, 13.3136, -71.4397 ],
      "componentType" : 5126,
      "count" : 116,
      "type" : "VEC3"
    },
    {
      "bufferView" : 26,
      "componentType" : 5126,
      "count" : 116,
      "type" : "VEC3"
    },
    {
      "bufferView" : 27,
      "componentType" : 5126,
      "count" : 116,
      "type" : "VEC4"
    },
    {
      "bufferView" : 28,
      "componentType" : 5126,
      "count" : 116,
      "type" : "VEC2"
    },
    {
      "bufferView" : 29,
      "componentType" : 5126,
      "count" : 116,
      "type" : "VEC2"
    },
    {
      "bufferView" : 30,
      "componentType" : 5126,
      "count" : 116,
      "type" : "VEC2"
    },
    {
      "bufferView" : 31,
      "componentType" : 5126,
      "count" : 116,
      "type" : "VEC2"
    },
    {
      "bufferView" : 32,
      "componentType" : 5123,
      "count" : 600,
      "type" : "SCALAR"
    },
    {
      "bufferView" : 33,
      "min" : [ 6.77245, 12.0007, -95.9469 ],
      "max" : [ 24.2114, 12.3569, -71.3101 ],
      "componentType" : 5126,
      "count" : 140,
      "type" : "VEC3"
    },
    {
      "bufferView" : 34,
      "componentType" : 5126,
      "count" : 140,
      "type" : "VEC3"
    },
    {
      "bufferView" : 35,
      "componentType" : 5126,
      "count" : 140,
      "type" : "VEC4"
    },
    {
      "bufferView" : 36,
      "componentType" : 5126,
      "count" : 140,
      "type" : "VEC2"
    },
    {
      "bufferView" : 37,
      "componentType" : 5126,
      "count" : 140,
      "type" : "VEC2"
    },
    {
      "bufferView" : 38,
      "componentType" : 5126,
      "count" : 140,
      "type" : "VEC2"
    },
    {
      "bufferView" : 39,
      "componentType" : 5126,
      "count" : 140,
      "type" : "VEC2"
    },
    {
      "bufferView" : 40,
      "componentType" : 5123,
      "count" : 6819,
      "type" : "SCALAR"
    },
    {
      "bufferView" : 41,
      "min" : [ 6.23095, 15.9198, -95.9617 ],
      "max" : [ 24.9289, 17.8142, -70.6687 ],
      "componentType" : 5126,
      "count" : 1697,
      "type" : "VEC3"
    },
    {
      "bufferView" : 42,
      "componentType" : 5126,
      "count" : 1697,
      "type" : "VEC3"
    },
    {
      "bufferView" : 43,
      "componentType" : 5126,
      "count" : 1697,
      "type" : "VEC4"
    },
    {
      "bufferView" : 44,
      "componentType" : 5126,
      "count" : 1697,
      "type" : "VEC2"
    },
    {
      "bufferView" : 45,
      "componentType" : 5126,
      "count" : 1697,
      "type" : "VEC2"
    },
    {
      "bufferView" : 46,
      "componentType" : 5126,
      "count" : 1697,
      "type" : "VEC2"
    },
    {
      "bufferView" : 47,
      "componentType" : 5126,
      "count" : 1697,
      "type" : "VEC2"
    },
    {
      "bufferView" : 48,
      "componentType" : 5123,
      "count" : 4446,
      "type" : "SCALAR"
    },
    {
      "bufferView" : 49,
      "min" : [ 6.02201, 15.9228, -95.9784 ],
      "max" : [ 24.992, 18.0705, -72.3677 ],
      "componentType" : 5126,
      "count" : 1088,
      "type" : "VEC3"
    },
    {
      "bufferView" : 50,
      "componentType" : 5126,
      "count" : 1088,
      "type" : "VEC3"
    },
    {
      "bufferView" : 51,
      "componentType" : 5126,
      "count" : 1088,
      "type" : "VEC4"
    },
    {
      "bufferView" : 52,
      "componentType" : 5126,
      "count" : 1088,
      "type" : "VEC2"
    },
    {
      "bufferView" : 53,
      "componentType" : 5126,
      "count" : 1088,
      "type" : "VEC2"
    },
    {
      "bufferView" : 54,
      "componentType" : 5126,
      "count" : 1088,
      "type" : "VEC2"
    },
    {
      "bufferView" : 55,
      "componentType" : 5126,
      "count" : 1088,
      "type" : "VEC2"
    },
    {
      "bufferView" : 56,
      "componentType" : 5123,
      "count" : 3474,
      "type" : "SCALAR"
    },
    {
      "bufferView" : 57,
      "min" : [ 6.00001, 16.6904, -96.1497 ],
      "max" : [ 24.1392, 17.6388, -71.9212 ],
      "componentType" : 5126,
      "count" : 1110,
      "type" : "VEC3"
    },
    {
      "bufferView" : 58,
      "componentType" : 5126,
      "count" : 1110,
      "type" : "VEC3"
    },
    {
      "bufferView" : 59,
      "componentType" : 5126,
      "count" : 1110,
      "type" : "VEC4"
    },
    {
      "bufferView" : 60,
      "componentType" : 5126,
      "count" : 1110,
      "type" : "VEC2"
    },
    {
      "bufferView" : 61,
      "componentType" : 5126,
      "count" : 1110,
      "type" : "VEC2"
    },
    {
      "bufferView" : 62,
      "componentType" : 5126,
      "count" : 1110,
      "type" : "VEC2"
    },
    {
      "bufferView" : 63,
      "componentType" : 5126,
      "count" : 1110,
      "type" : "VEC2"
    }
  ]
}
