{
  "asset" : {
    "generator" : "UE Viewer (umodel) build 1544 based",
    "version" : "2.0"
  },
  "scene" : 0,
  "scenes" : [
    {
      "nodes" : [ 0 ]
    }
  ],
  "nodes" : [
    {
      "name" : "SM_ENV_LKNVLD_RockMiddle_F",
      "mesh" : 0
    }
  ],
  "materials" : [
    {
      "name" : "MI_ENV_LKNVLD_MiddleRock_A",
      "pbrMetallicRoughness" : {
        "baseColorFactor" : [ 0.3, 0.3, 0.3, 1.0 ],
        "metallicFactor" : 0.1,
        "roughnessFactor" : 0.5
      }
    }
  ],
  "meshes" : [
    {
      "primitives" : [
        {
          "attributes" : {
            "POSITION" : 1,
            "NORMAL" : 2,
            "TANGENT" : 3,
            "COLOR_0" : 4,
            "TEXCOORD_0" : 5,
            "TEXCOORD_1" : 6,
            "TEXCOORD_2" : 7,
            "TEXCOORD_3" : 8
          },
          "indices" : 0,
          "material" : 0
        }
      ],
      "name" : "SM_ENV_LKNVLD_RockMiddle_F"
    }
  ],
  "buffers" : [
    {
      "uri" : "SM_ENV_LKNVLD_RockMiddle_F.bin",
      "byteLength" : 51192
    }
  ],
  "bufferViews" : [
    {
      "buffer" : 0,
      "byteOffset" : 0,
      "byteLength" : 4224
    },
    {
      "buffer" : 0,
      "byteOffset" : 4224,
      "byteLength" : 7416
    },
    {
      "buffer" : 0,
      "byteOffset" : 11640,
      "byteLength" : 7416
    },
    {
      "buffer" : 0,
      "byteOffset" : 19056,
      "byteLength" : 9888
    },
    {
      "buffer" : 0,
      "byteOffset" : 28944,
      "byteLength" : 2472
    },
    {
      "buffer" : 0,
      "byteOffset" : 31416,
      "byteLength" : 4944
    },
    {
      "buffer" : 0,
      "byteOffset" : 36360,
      "byteLength" : 4944
    },
    {
      "buffer" : 0,
      "byteOffset" : 41304,
      "byteLength" : 4944
    },
    {
      "buffer" : 0,
      "byteOffset" : 46248,
      "byteLength" : 4944
    }
  ],
  "accessors" : [
    {
      "bufferView" : 0,
      "componentType" : 5123,
      "count" : 2112,
      "type" : "SCALAR"
    },
    {
      "bufferView" : 1,
      "min" : [ 15.4622, -0.315249, -33.6806 ],
      "max" : [ 19.7473, 0.638456, -29.6663 ],
      "componentType" : 5126,
      "count" : 618,
      "type" : "VEC3"
    },
    {
      "bufferView" : 2,
      "componentType" : 5126,
      "count" : 618,
      "type" : "VEC3"
    },
    {
      "bufferView" : 3,
      "componentType" : 5126,
      "count" : 618,
      "type" : "VEC4"
    },
    {
      "bufferView" : 4,
      "normalized" : true,
      "componentType" : 5121,
      "count" : 618,
      "type" : "VEC4"
    },
    {
      "bufferView" : 5,
      "componentType" : 5126,
      "count" : 618,
      "type" : "VEC2"
    },
    {
      "bufferView" : 6,
      "componentType" : 5126,
      "count" : 618,
      "type" : "VEC2"
    },
    {
      "bufferView" : 7,
      "componentType" : 5126,
      "count" : 618,
      "type" : "VEC2"
    },
    {
      "bufferView" : 8,
      "componentType" : 5126,
      "count" : 618,
      "type" : "VEC2"
    }
  ]
}
