{
  "asset" : {
    "generator" : "UE Viewer (umodel) build 1544 based",
    "version" : "2.0"
  },
  "scene" : 0,
  "scenes" : [
    {
      "nodes" : [ 0 ]
    }
  ],
  "nodes" : [
    {
      "name" : "SM_ENV_LKNVLD_TreeSet_R",
      "mesh" : 0
    }
  ],
  "materials" : [
    {
      "name" : "MI_ENV_LKNVLD_LeafMasked_A",
      "pbrMetallicRoughness" : {
        "baseColorFactor" : [ 0.3, 0.3, 0.3, 1.0 ],
        "metallicFactor" : 0.1,
        "roughnessFactor" : 0.5
      }
    },
    {
      "name" : "MI_ENV_LKNVLD_Leaf_A",
      "pbrMetallicRoughness" : {
        "baseColorFactor" : [ 0.9, 0.3, 0.3, 1.0 ],
        "metallicFactor" : 0.1,
        "roughnessFactor" : 0.5
      }
    }
  ],
  "meshes" : [
    {
      "primitives" : [
        {
          "attributes" : {
            "POSITION" : 1,
            "NORMAL" : 2,
            "TANGENT" : 3,
            "TEXCOORD_0" : 4,
            "TEXCOORD_1" : 5,
            "TEXCOORD_2" : 6,
            "TEXCOORD_3" : 7
          },
          "indices" : 0,
          "material" : 0
        },
        {
          "attributes" : {
            "POSITION" : 9,
            "NORMAL" : 10,
            "TANGENT" : 11,
            "TEXCOORD_0" : 12,
            "TEXCOORD_1" : 13,
            "TEXCOORD_2" : 14,
            "TEXCOORD_3" : 15
          },
          "indices" : 8,
          "material" : 1
        }
      ],
      "name" : "SM_ENV_LKNVLD_TreeSet_R"
    }
  ],
  "buffers" : [
    {
      "uri" : "SM_ENV_LKNVLD_TreeSet_R.bin",
      "byteLength" : 523416
    }
  ],
  "bufferViews" : [
    {
      "buffer" : 0,
      "byteOffset" : 0,
      "byteLength" : 20232
    },
    {
      "buffer" : 0,
      "byteOffset" : 20232,
      "byteLength" : 55572
    },
    {
      "buffer" : 0,
      "byteOffset" : 75804,
      "byteLength" : 55572
    },
    {
      "buffer" : 0,
      "byteOffset" : 131376,
      "byteLength" : 74096
    },
    {
      "buffer" : 0,
      "byteOffset" : 205472,
      "byteLength" : 37048
    },
    {
      "buffer" : 0,
      "byteOffset" : 242520,
      "byteLength" : 37048
    },
    {
      "buffer" : 0,
      "byteOffset" : 279568,
      "byteLength" : 37048
    },
    {
      "buffer" : 0,
      "byteOffset" : 316616,
      "byteLength" : 37048
    },
    {
      "buffer" : 0,
      "byteOffset" : 353664,
      "byteLength" : 22872
    },
    {
      "buffer" : 0,
      "byteOffset" : 376536,
      "byteLength" : 24480
    },
    {
      "buffer" : 0,
      "byteOffset" : 401016,
      "byteLength" : 24480
    },
    {
      "buffer" : 0,
      "byteOffset" : 425496,
      "byteLength" : 32640
    },
    {
      "buffer" : 0,
      "byteOffset" : 458136,
      "byteLength" : 16320
    },
    {
      "buffer" : 0,
      "byteOffset" : 474456,
      "byteLength" : 16320
    },
    {
      "buffer" : 0,
      "byteOffset" : 490776,
      "byteLength" : 16320
    },
    {
      "buffer" : 0,
      "byteOffset" : 507096,
      "byteLength" : 16320
    }
  ],
  "accessors" : [
    {
      "bufferView" : 0,
      "componentType" : 5123,
      "count" : 10116,
      "type" : "SCALAR"
    },
    {
      "bufferView" : 1,
      "min" : [ 13.6069, 6.12234, -128.418 ],
      "max" : [ 36.2574, 42.942, -90.1313 ],
      "componentType" : 5126,
      "count" : 4631,
      "type" : "VEC3"
    },
    {
      "bufferView" : 2,
      "componentType" : 5126,
      "count" : 4631,
      "type" : "VEC3"
    },
    {
      "bufferView" : 3,
      "componentType" : 5126,
      "count" : 4631,
      "type" : "VEC4"
    },
    {
      "bufferView" : 4,
      "componentType" : 5126,
      "count" : 4631,
      "type" : "VEC2"
    },
    {
      "bufferView" : 5,
      "componentType" : 5126,
      "count" : 4631,
      "type" : "VEC2"
    },
    {
      "bufferView" : 6,
      "componentType" : 5126,
      "count" : 4631,
      "type" : "VEC2"
    },
    {
      "bufferView" : 7,
      "componentType" : 5126,
      "count" : 4631,
      "type" : "VEC2"
    },
    {
      "bufferView" : 8,
      "componentType" : 5123,
      "count" : 11436,
      "type" : "SCALAR"
    },
    {
      "bufferView" : 9,
      "min" : [ 13.9096, 6.38245, -128.046 ],
      "max" : [ 36.042, 42.5734, -90.3055 ],
      "componentType" : 5126,
      "count" : 2040,
      "type" : "VEC3"
    },
    {
      "bufferView" : 10,
      "componentType" : 5126,
      "count" : 2040,
      "type" : "VEC3"
    },
    {
      "bufferView" : 11,
      "componentType" : 5126,
      "count" : 2040,
      "type" : "VEC4"
    },
    {
      "bufferView" : 12,
      "componentType" : 5126,
      "count" : 2040,
      "type" : "VEC2"
    },
    {
      "bufferView" : 13,
      "componentType" : 5126,
      "count" : 2040,
      "type" : "VEC2"
    },
    {
      "bufferView" : 14,
      "componentType" : 5126,
      "count" : 2040,
      "type" : "VEC2"
    },
    {
      "bufferView" : 15,
      "componentType" : 5126,
      "count" : 2040,
      "type" : "VEC2"
    }
  ]
}
