{
  "asset" : {
    "generator" : "UE Viewer (umodel) build 1544 based",
    "version" : "2.0"
  },
  "scene" : 0,
  "scenes" : [
    {
      "nodes" : [ 0 ]
    }
  ],
  "nodes" : [
    {
      "name" : "SM_ENV_LKNVLD_RockMiddle_C_Lod3",
      "mesh" : 0
    }
  ],
  "materials" : [
    {
      "name" : "MI_ENV_LKNVLD_MiddleRock_A_LOD",
      "pbrMetallicRoughness" : {
        "baseColorFactor" : [ 0.3, 0.3, 0.3, 1.0 ],
        "metallicFactor" : 0.1,
        "roughnessFactor" : 0.5
      }
    }
  ],
  "meshes" : [
    {
      "primitives" : [
        {
          "attributes" : {
            "POSITION" : 1,
            "NORMAL" : 2,
            "TANGENT" : 3,
            "COLOR_0" : 4,
            "TEXCOORD_0" : 5,
            "TEXCOORD_1" : 6,
            "TEXCOORD_2" : 7,
            "TEXCOORD_3" : 8
          },
          "indices" : 0,
          "material" : 0
        }
      ],
      "name" : "SM_ENV_LKNVLD_RockMiddle_C_Lod3"
    }
  ],
  "buffers" : [
    {
      "uri" : "SM_ENV_LKNVLD_RockMiddle_C_Lod3.bin",
      "byteLength" : 17360
    }
  ],
  "bufferViews" : [
    {
      "buffer" : 0,
      "byteOffset" : 0,
      "byteLength" : 1400
    },
    {
      "buffer" : 0,
      "byteOffset" : 1400,
      "byteLength" : 2520
    },
    {
      "buffer" : 0,
      "byteOffset" : 3920,
      "byteLength" : 2520
    },
    {
      "buffer" : 0,
      "byteOffset" : 6440,
      "byteLength" : 3360
    },
    {
      "buffer" : 0,
      "byteOffset" : 9800,
      "byteLength" : 840
    },
    {
      "buffer" : 0,
      "byteOffset" : 10640,
      "byteLength" : 1680
    },
    {
      "buffer" : 0,
      "byteOffset" : 12320,
      "byteLength" : 1680
    },
    {
      "buffer" : 0,
      "byteOffset" : 14000,
      "byteLength" : 1680
    },
    {
      "buffer" : 0,
      "byteOffset" : 15680,
      "byteLength" : 1680
    }
  ],
  "accessors" : [
    {
      "bufferView" : 0,
      "componentType" : 5123,
      "count" : 699,
      "type" : "SCALAR"
    },
    {
      "bufferView" : 1,
      "min" : [ -41.9812, -0.291138, -53.1428 ],
      "max" : [ -30.4981, 1.66996, -44.6562 ],
      "componentType" : 5126,
      "count" : 210,
      "type" : "VEC3"
    },
    {
      "bufferView" : 2,
      "componentType" : 5126,
      "count" : 210,
      "type" : "VEC3"
    },
    {
      "bufferView" : 3,
      "componentType" : 5126,
      "count" : 210,
      "type" : "VEC4"
    },
    {
      "bufferView" : 4,
      "normalized" : true,
      "componentType" : 5121,
      "count" : 210,
      "type" : "VEC4"
    },
    {
      "bufferView" : 5,
      "componentType" : 5126,
      "count" : 210,
      "type" : "VEC2"
    },
    {
      "bufferView" : 6,
      "componentType" : 5126,
      "count" : 210,
      "type" : "VEC2"
    },
    {
      "bufferView" : 7,
      "componentType" : 5126,
      "count" : 210,
      "type" : "VEC2"
    },
    {
      "bufferView" : 8,
      "componentType" : 5126,
      "count" : 210,
      "type" : "VEC2"
    }
  ]
}
