{
  "asset" : {
    "generator" : "UE Viewer (umodel) build 1544 based",
    "version" : "2.0"
  },
  "scene" : 0,
  "scenes" : [
    {
      "nodes" : [ 0 ]
    }
  ],
  "nodes" : [
    {
      "name" : "SM_ENV_LKNVLD_Ground_COL",
      "mesh" : 0
    }
  ],
  "materials" : [
    {
      "name" : "MI_Concrete",
      "pbrMetallicRoughness" : {
        "baseColorFactor" : [ 0.3, 0.3, 0.3, 1.0 ],
        "metallicFactor" : 0.1,
        "roughnessFactor" : 0.5
      }
    },
    {
      "name" : "MI_Rock",
      "pbrMetallicRoughness" : {
        "baseColorFactor" : [ 0.9, 0.3, 0.3, 1.0 ],
        "metallicFactor" : 0.1,
        "roughnessFactor" : 0.5
      }
    },
    {
      "name" : "MI_Grass",
      "pbrMetallicRoughness" : {
        "baseColorFactor" : [ 0.3, 0.9, 0.3, 1.0 ],
        "metallicFactor" : 0.1,
        "roughnessFactor" : 0.5
      }
    },
    {
      "name" : "MI_Dirt",
      "pbrMetallicRoughness" : {
        "baseColorFactor" : [ 0.3, 0.3, 0.9, 1.0 ],
        "metallicFactor" : 0.1,
        "roughnessFactor" : 0.5
      }
    },
    {
      "name" : "MI_Wood",
      "pbrMetallicRoughness" : {
        "baseColorFactor" : [ 0.9, 0.9, 0.9, 1.0 ],
        "metallicFactor" : 0.1,
        "roughnessFactor" : 0.5
      }
    }
  ],
  "meshes" : [
    {
      "primitives" : [
        {
          "attributes" : {
            "POSITION" : 1,
            "NORMAL" : 2,
            "TANGENT" : 3,
            "COLOR_0" : 4,
            "TEXCOORD_0" : 5,
            "TEXCOORD_1" : 6,
            "TEXCOORD_2" : 7,
            "TEXCOORD_3" : 8,
            "TEXCOORD_4" : 9
          },
          "indices" : 0,
          "material" : 0
        },
        {
          "attributes" : {
            "POSITION" : 11,
            "NORMAL" : 12,
            "TANGENT" : 13,
            "COLOR_0" : 14,
            "TEXCOORD_0" : 15,
            "TEXCOORD_1" : 16,
            "TEXCOORD_2" : 17,
            "TEXCOORD_3" : 18,
            "TEXCOORD_4" : 19
          },
          "indices" : 10,
          "material" : 1
        },
        {
          "attributes" : {
            "POSITION" : 21,
            "NORMAL" : 22,
            "TANGENT" : 23,
            "COLOR_0" : 24,
            "TEXCOORD_0" : 25,
            "TEXCOORD_1" : 26,
            "TEXCOORD_2" : 27,
            "TEXCOORD_3" : 28,
            "TEXCOORD_4" : 29
          },
          "indices" : 20,
          "material" : 2
        },
        {
          "attributes" : {
            "POSITION" : 31,
            "NORMAL" : 32,
            "TANGENT" : 33,
            "COLOR_0" : 34,
            "TEXCOORD_0" : 35,
            "TEXCOORD_1" : 36,
            "TEXCOORD_2" : 37,
            "TEXCOORD_3" : 38,
            "TEXCOORD_4" : 39
          },
          "indices" : 30,
          "material" : 3
        },
        {
          "attributes" : {
            "POSITION" : 41,
            "NORMAL" : 42,
            "TANGENT" : 43,
            "COLOR_0" : 44,
            "TEXCOORD_0" : 45,
            "TEXCOORD_1" : 46,
            "TEXCOORD_2" : 47,
            "TEXCOORD_3" : 48,
            "TEXCOORD_4" : 49
          },
          "indices" : 40,
          "material" : 4
        }
      ],
      "name" : "SM_ENV_LKNVLD_Ground_COL"
    }
  ],
  "buffers" : [
    {
      "uri" : "SM_ENV_LKNVLD_Ground_COL.bin",
      "byteLength" : 625892
    }
  ],
  "bufferViews" : [
    {
      "buffer" : 0,
      "byteOffset" : 0,
      "byteLength" : 3228
    },
    {
      "buffer" : 0,
      "byteOffset" : 3228,
      "byteLength" : 15624
    },
    {
      "buffer" : 0,
      "byteOffset" : 18852,
      "byteLength" : 15624
    },
    {
      "buffer" : 0,
      "byteOffset" : 34476,
      "byteLength" : 20832
    },
    {
      "buffer" : 0,
      "byteOffset" : 55308,
      "byteLength" : 5208
    },
    {
      "buffer" : 0,
      "byteOffset" : 60516,
      "byteLength" : 10416
    },
    {
      "buffer" : 0,
      "byteOffset" : 70932,
      "byteLength" : 10416
    },
    {
      "buffer" : 0,
      "byteOffset" : 81348,
      "byteLength" : 10416
    },
    {
      "buffer" : 0,
      "byteOffset" : 91764,
      "byteLength" : 10416
    },
    {
      "buffer" : 0,
      "byteOffset" : 102180,
      "byteLength" : 10416
    },
    {
      "buffer" : 0,
      "byteOffset" : 112596,
      "byteLength" : 4640
    },
    {
      "buffer" : 0,
      "byteOffset" : 117236,
      "byteLength" : 23724
    },
    {
      "buffer" : 0,
      "byteOffset" : 140960,
      "byteLength" : 23724
    },
    {
      "buffer" : 0,
      "byteOffset" : 164684,
      "byteLength" : 31632
    },
    {
      "buffer" : 0,
      "byteOffset" : 196316,
      "byteLength" : 7908
    },
    {
      "buffer" : 0,
      "byteOffset" : 204224,
      "byteLength" : 15816
    },
    {
      "buffer" : 0,
      "byteOffset" : 220040,
      "byteLength" : 15816
    },
    {
      "buffer" : 0,
      "byteOffset" : 235856,
      "byteLength" : 15816
    },
    {
      "buffer" : 0,
      "byteOffset" : 251672,
      "byteLength" : 15816
    },
    {
      "buffer" : 0,
      "byteOffset" : 267488,
      "byteLength" : 15816
    },
    {
      "buffer" : 0,
      "byteOffset" : 283304,
      "byteLength" : 7692
    },
    {
      "buffer" : 0,
      "byteOffset" : 290996,
      "byteLength" : 43644
    },
    {
      "buffer" : 0,
      "byteOffset" : 334640,
      "byteLength" : 43644
    },
    {
      "buffer" : 0,
      "byteOffset" : 378284,
      "byteLength" : 58192
    },
    {
      "buffer" : 0,
      "byteOffset" : 436476,
      "byteLength" : 14548
    },
    {
      "buffer" : 0,
      "byteOffset" : 451024,
      "byteLength" : 29096
    },
    {
      "buffer" : 0,
      "byteOffset" : 480120,
      "byteLength" : 29096
    },
    {
      "buffer" : 0,
      "byteOffset" : 509216,
      "byteLength" : 29096
    },
    {
      "buffer" : 0,
      "byteOffset" : 538312,
      "byteLength" : 29096
    },
    {
      "buffer" : 0,
      "byteOffset" : 567408,
      "byteLength" : 29096
    },
    {
      "buffer" : 0,
      "byteOffset" : 596504,
      "byteLength" : 708
    },
    {
      "buffer" : 0,
      "byteOffset" : 597212,
      "byteLength" : 3384
    },
    {
      "buffer" : 0,
      "byteOffset" : 600596,
      "byteLength" : 3384
    },
    {
      "buffer" : 0,
      "byteOffset" : 603980,
      "byteLength" : 4512
    },
    {
      "buffer" : 0,
      "byteOffset" : 608492,
      "byteLength" : 1128
    },
    {
      "buffer" : 0,
      "byteOffset" : 609620,
      "byteLength" : 2256
    },
    {
      "buffer" : 0,
      "byteOffset" : 611876,
      "byteLength" : 2256
    },
    {
      "buffer" : 0,
      "byteOffset" : 614132,
      "byteLength" : 2256
    },
    {
      "buffer" : 0,
      "byteOffset" : 616388,
      "byteLength" : 2256
    },
    {
      "buffer" : 0,
      "byteOffset" : 618644,
      "byteLength" : 2256
    },
    {
      "buffer" : 0,
      "byteOffset" : 620900,
      "byteLength" : 120
    },
    {
      "buffer" : 0,
      "byteOffset" : 621020,
      "byteLength" : 696
    },
    {
      "buffer" : 0,
      "byteOffset" : 621716,
      "byteLength" : 696
    },
    {
      "buffer" : 0,
      "byteOffset" : 622412,
      "byteLength" : 928
    },
    {
      "buffer" : 0,
      "byteOffset" : 623340,
      "byteLength" : 232
    },
    {
      "buffer" : 0,
      "byteOffset" : 623572,
      "byteLength" : 464
    },
    {
      "buffer" : 0,
      "byteOffset" : 624036,
      "byteLength" : 464
    },
    {
      "buffer" : 0,
      "byteOffset" : 624500,
      "byteLength" : 464
    },
    {
      "buffer" : 0,
      "byteOffset" : 624964,
      "byteLength" : 464
    },
    {
      "buffer" : 0,
      "byteOffset" : 625428,
      "byteLength" : 464
    }
  ],
  "accessors" : [
    {
      "bufferView" : 0,
      "componentType" : 5123,
      "count" : 1614,
      "type" : "SCALAR"
    },
    {
      "bufferView" : 1,
      "min" : [ -43.019, -11.7135, -84.289 ],
      "max" : [ 66.6856, 18.6506, 65.0001 ],
      "componentType" : 5126,
      "count" : 1302,
      "type" : "VEC3"
    },
    {
      "bufferView" : 2,
      "componentType" : 5126,
      "count" : 1302,
      "type" : "VEC3"
    },
    {
      "bufferView" : 3,
      "componentType" : 5126,
      "count" : 1302,
      "type" : "VEC4"
    },
    {
      "bufferView" : 4,
      "normalized" : true,
      "componentType" : 5121,
      "count" : 1302,
      "type" : "VEC4"
    },
    {
      "bufferView" : 5,
      "componentType" : 5126,
      "count" : 1302,
      "type" : "VEC2"
    },
    {
      "bufferView" : 6,
      "componentType" : 5126,
      "count" : 1302,
      "type" : "VEC2"
    },
    {
      "bufferView" : 7,
      "componentType" : 5126,
      "count" : 1302,
      "type" : "VEC2"
    },
    {
      "bufferView" : 8,
      "componentType" : 5126,
      "count" : 1302,
      "type" : "VEC2"
    },
    {
      "bufferView" : 9,
      "componentType" : 5126,
      "count" : 1302,
      "type" : "VEC2"
    },
    {
      "bufferView" : 10,
      "componentType" : 5123,
      "count" : 2319,
      "type" : "SCALAR"
    },
    {
      "bufferView" : 11,
      "min" : [ -63.6126, -0.847553, -82.5385 ],
      "max" : [ 63.6126, 12.3091, 65.0001 ],
      "componentType" : 5126,
      "count" : 1977,
      "type" : "VEC3"
    },
    {
      "bufferView" : 12,
      "componentType" : 5126,
      "count" : 1977,
      "type" : "VEC3"
    },
    {
      "bufferView" : 13,
      "componentType" : 5126,
      "count" : 1977,
      "type" : "VEC4"
    },
    {
      "bufferView" : 14,
      "normalized" : true,
      "componentType" : 5121,
      "count" : 1977,
      "type" : "VEC4"
    },
    {
      "bufferView" : 15,
      "componentType" : 5126,
      "count" : 1977,
      "type" : "VEC2"
    },
    {
      "bufferView" : 16,
      "componentType" : 5126,
      "count" : 1977,
      "type" : "VEC2"
    },
    {
      "bufferView" : 17,
      "componentType" : 5126,
      "count" : 1977,
      "type" : "VEC2"
    },
    {
      "bufferView" : 18,
      "componentType" : 5126,
      "count" : 1977,
      "type" : "VEC2"
    },
    {
      "bufferView" : 19,
      "componentType" : 5126,
      "count" : 1977,
      "type" : "VEC2"
    },
    {
      "bufferView" : 20,
      "componentType" : 5123,
      "count" : 3846,
      "type" : "SCALAR"
    },
    {
      "bufferView" : 21,
      "min" : [ -62, -0.287684, -72.2702 ],
      "max" : [ 62.5497, 0.311129, 65.0001 ],
      "componentType" : 5126,
      "count" : 3637,
      "type" : "VEC3"
    },
    {
      "bufferView" : 22,
      "componentType" : 5126,
      "count" : 3637,
      "type" : "VEC3"
    },
    {
      "bufferView" : 23,
      "componentType" : 5126,
      "count" : 3637,
      "type" : "VEC4"
    },
    {
      "bufferView" : 24,
      "normalized" : true,
      "componentType" : 5121,
      "count" : 3637,
      "type" : "VEC4"
    },
    {
      "bufferView" : 25,
      "componentType" : 5126,
      "count" : 3637,
      "type" : "VEC2"
    },
    {
      "bufferView" : 26,
      "componentType" : 5126,
      "count" : 3637,
      "type" : "VEC2"
    },
    {
      "bufferView" : 27,
      "componentType" : 5126,
      "count" : 3637,
      "type" : "VEC2"
    },
    {
      "bufferView" : 28,
      "componentType" : 5126,
      "count" : 3637,
      "type" : "VEC2"
    },
    {
      "bufferView" : 29,
      "componentType" : 5126,
      "count" : 3637,
      "type" : "VEC2"
    },
    {
      "bufferView" : 30,
      "componentType" : 5123,
      "count" : 354,
      "type" : "SCALAR"
    },
    {
      "bufferView" : 31,
      "min" : [ -70.1927, -0.714324, -65.4495 ],
      "max" : [ 70.1502, -0.066523, 65.0001 ],
      "componentType" : 5126,
      "count" : 282,
      "type" : "VEC3"
    },
    {
      "bufferView" : 32,
      "componentType" : 5126,
      "count" : 282,
      "type" : "VEC3"
    },
    {
      "bufferView" : 33,
      "componentType" : 5126,
      "count" : 282,
      "type" : "VEC4"
    },
    {
      "bufferView" : 34,
      "normalized" : true,
      "componentType" : 5121,
      "count" : 282,
      "type" : "VEC4"
    },
    {
      "bufferView" : 35,
      "componentType" : 5126,
      "count" : 282,
      "type" : "VEC2"
    },
    {
      "bufferView" : 36,
      "componentType" : 5126,
      "count" : 282,
      "type" : "VEC2"
    },
    {
      "bufferView" : 37,
      "componentType" : 5126,
      "count" : 282,
      "type" : "VEC2"
    },
    {
      "bufferView" : 38,
      "componentType" : 5126,
      "count" : 282,
      "type" : "VEC2"
    },
    {
      "bufferView" : 39,
      "componentType" : 5126,
      "count" : 282,
      "type" : "VEC2"
    },
    {
      "bufferView" : 40,
      "componentType" : 5123,
      "count" : 60,
      "type" : "SCALAR"
    },
    {
      "bufferView" : 41,
      "min" : [ -17.867, -0.212713, -31.0698 ],
      "max" : [ 17.867, -0.170246, 65.0001 ],
      "componentType" : 5126,
      "count" : 58,
      "type" : "VEC3"
    },
    {
      "bufferView" : 42,
      "componentType" : 5126,
      "count" : 58,
      "type" : "VEC3"
    },
    {
      "bufferView" : 43,
      "componentType" : 5126,
      "count" : 58,
      "type" : "VEC4"
    },
    {
      "bufferView" : 44,
      "normalized" : true,
      "componentType" : 5121,
      "count" : 58,
      "type" : "VEC4"
    },
    {
      "bufferView" : 45,
      "componentType" : 5126,
      "count" : 58,
      "type" : "VEC2"
    },
    {
      "bufferView" : 46,
      "componentType" : 5126,
      "count" : 58,
      "type" : "VEC2"
    },
    {
      "bufferView" : 47,
      "componentType" : 5126,
      "count" : 58,
      "type" : "VEC2"
    },
    {
      "bufferView" : 48,
      "componentType" : 5126,
      "count" : 58,
      "type" : "VEC2"
    },
    {
      "bufferView" : 49,
      "componentType" : 5126,
      "count" : 58,
      "type" : "VEC2"
    }
  ]
}
