{
  "asset" : {
    "generator" : "UE Viewer (umodel) build 1544 based",
    "version" : "2.0"
  },
  "scene" : 0,
  "scenes" : [
    {
      "nodes" : [ 0 ]
    }
  ],
  "nodes" : [
    {
      "name" : "SM_ENV_LKNVLD_Building_A_Lod2",
      "mesh" : 0
    }
  ],
  "materials" : [
    {
      "name" : "MI_ENV_LKNVLD_Roof_J_LOD",
      "pbrMetallicRoughness" : {
        "baseColorFactor" : [ 0.3, 0.3, 0.3, 1.0 ],
        "metallicFactor" : 0.1,
        "roughnessFactor" : 0.5
      }
    },
    {
      "name" : "MI_ENV_LKNVLD_Roof_F_LOD",
      "pbrMetallicRoughness" : {
        "baseColorFactor" : [ 0.9, 0.3, 0.3, 1.0 ],
        "metallicFactor" : 0.1,
        "roughnessFactor" : 0.5
      }
    },
    {
      "name" : "MI_ENV_LKNVLD_ConcreteWall_N_LOD",
      "pbrMetallicRoughness" : {
        "baseColorFactor" : [ 0.3, 0.9, 0.3, 1.0 ],
        "metallicFactor" : 0.1,
        "roughnessFactor" : 0.5
      }
    },
    {
      "name" : "MI_ENV_LKNVLD_WoodWindows_G",
      "pbrMetallicRoughness" : {
        "baseColorFactor" : [ 0.3, 0.3, 0.9, 1.0 ],
        "metallicFactor" : 0.1,
        "roughnessFactor" : 0.5
      }
    },
    {
      "name" : "MI_ENV_LKNVLD_Metal_A",
      "pbrMetallicRoughness" : {
        "baseColorFactor" : [ 0.9, 0.9, 0.9, 1.0 ],
        "metallicFactor" : 0.1,
        "roughnessFactor" : 0.5
      }
    },
    {
      "name" : "MI_ENV_LKNVLD_ConcreteFloor_C_LOD",
      "pbrMetallicRoughness" : {
        "baseColorFactor" : [ 0.9, 0.9, 0.3, 1.0 ],
        "metallicFactor" : 0.1,
        "roughnessFactor" : 0.5
      }
    },
    {
      "name" : "MI_ENV_LKNVLD_ConcreteWall_F_LOD",
      "pbrMetallicRoughness" : {
        "baseColorFactor" : [ 0.9, 0.3, 0.9, 1.0 ],
        "metallicFactor" : 0.1,
        "roughnessFactor" : 0.5
      }
    },
    {
      "name" : "MI_ENV_LKNVLD_ConcreteWall_C_LOD",
      "pbrMetallicRoughness" : {
        "baseColorFactor" : [ 0.3, 0.9, 0.9, 1.0 ],
        "metallicFactor" : 0.1,
        "roughnessFactor" : 0.5
      }
    },
    {
      "name" : "MI_ENV_LKNVLD_WoodPillar_A_LOD",
      "pbrMetallicRoughness" : {
        "baseColorFactor" : [ 1, 0.3, 0.3, 1.0 ],
        "metallicFactor" : 0.1,
        "roughnessFactor" : 0.5
      }
    },
    {
      "name" : "MI_ENV_LKNVLD_ConcreteFloor_F_LOD",
      "pbrMetallicRoughness" : {
        "baseColorFactor" : [ 0.6, 0.3, 0.3, 1.0 ],
        "metallicFactor" : 0.1,
        "roughnessFactor" : 0.5
      }
    },
    {
      "name" : "MI_ENV_LKNVLD_Roof_C_LOD",
      "pbrMetallicRoughness" : {
        "baseColorFactor" : [ 1, 0.9, 0.3, 1.0 ],
        "metallicFactor" : 0.1,
        "roughnessFactor" : 0.5
      }
    },
    {
      "name" : "MI_ENV_LKNVLD_Pipe_E_LOD",
      "pbrMetallicRoughness" : {
        "baseColorFactor" : [ 1, 0.3, 0.9, 1.0 ],
        "metallicFactor" : 0.1,
        "roughnessFactor" : 0.5
      }
    }
  ],
  "meshes" : [
    {
      "primitives" : [
        {
          "attributes" : {
            "POSITION" : 1,
            "NORMAL" : 2,
            "TANGENT" : 3,
            "TEXCOORD_0" : 4,
            "TEXCOORD_1" : 5,
            "TEXCOORD_2" : 6,
            "TEXCOORD_3" : 7
          },
          "indices" : 0,
          "material" : 0
        },
        {
          "attributes" : {
            "POSITION" : 9,
            "NORMAL" : 10,
            "TANGENT" : 11,
            "TEXCOORD_0" : 12,
            "TEXCOORD_1" : 13,
            "TEXCOORD_2" : 14,
            "TEXCOORD_3" : 15
          },
          "indices" : 8,
          "material" : 1
        },
        {
          "attributes" : {
            "POSITION" : 17,
            "NORMAL" : 18,
            "TANGENT" : 19,
            "TEXCOORD_0" : 20,
            "TEXCOORD_1" : 21,
            "TEXCOORD_2" : 22,
            "TEXCOORD_3" : 23
          },
          "indices" : 16,
          "material" : 2
        },
        {
          "attributes" : {
            "POSITION" : 25,
            "NORMAL" : 26,
            "TANGENT" : 27,
            "TEXCOORD_0" : 28,
            "TEXCOORD_1" : 29,
            "TEXCOORD_2" : 30,
            "TEXCOORD_3" : 31
          },
          "indices" : 24,
          "material" : 3
        },
        {
          "attributes" : {
            "POSITION" : 33,
            "NORMAL" : 34,
            "TANGENT" : 35,
            "TEXCOORD_0" : 36,
            "TEXCOORD_1" : 37,
            "TEXCOORD_2" : 38,
            "TEXCOORD_3" : 39
          },
          "indices" : 32,
          "material" : 4
        },
        {
          "attributes" : {
            "POSITION" : 41,
            "NORMAL" : 42,
            "TANGENT" : 43,
            "TEXCOORD_0" : 44,
            "TEXCOORD_1" : 45,
            "TEXCOORD_2" : 46,
            "TEXCOORD_3" : 47
          },
          "indices" : 40,
          "material" : 5
        },
        {
          "attributes" : {
            "POSITION" : 49,
            "NORMAL" : 50,
            "TANGENT" : 51,
            "TEXCOORD_0" : 52,
            "TEXCOORD_1" : 53,
            "TEXCOORD_2" : 54,
            "TEXCOORD_3" : 55
          },
          "indices" : 48,
          "material" : 6
        },
        {
          "attributes" : {
            "POSITION" : 57,
            "NORMAL" : 58,
            "TANGENT" : 59,
            "TEXCOORD_0" : 60,
            "TEXCOORD_1" : 61,
            "TEXCOORD_2" : 62,
            "TEXCOORD_3" : 63
          },
          "indices" : 56,
          "material" : 7
        },
        {
          "attributes" : {
            "POSITION" : 65,
            "NORMAL" : 66,
            "TANGENT" : 67,
            "TEXCOORD_0" : 68,
            "TEXCOORD_1" : 69,
            "TEXCOORD_2" : 70,
            "TEXCOORD_3" : 71
          },
          "indices" : 64,
          "material" : 8
        },
        {
          "attributes" : {
            "POSITION" : 73,
            "NORMAL" : 74,
            "TANGENT" : 75,
            "TEXCOORD_0" : 76,
            "TEXCOORD_1" : 77,
            "TEXCOORD_2" : 78,
            "TEXCOORD_3" : 79
          },
          "indices" : 72,
          "material" : 9
        },
        {
          "attributes" : {
            "POSITION" : 81,
            "NORMAL" : 82,
            "TANGENT" : 83,
            "TEXCOORD_0" : 84,
            "TEXCOORD_1" : 85,
            "TEXCOORD_2" : 86,
            "TEXCOORD_3" : 87
          },
          "indices" : 80,
          "material" : 10
        },
        {
          "attributes" : {
            "POSITION" : 89,
            "NORMAL" : 90,
            "TANGENT" : 91,
            "TEXCOORD_0" : 92,
            "TEXCOORD_1" : 93,
            "TEXCOORD_2" : 94,
            "TEXCOORD_3" : 95
          },
          "indices" : 88,
          "material" : 11
        }
      ],
      "name" : "SM_ENV_LKNVLD_Building_A_Lod2"
    }
  ],
  "buffers" : [
    {
      "uri" : "SM_ENV_LKNVLD_Building_A_Lod2.bin",
      "byteLength" : 528716
    }
  ],
  "bufferViews" : [
    {
      "buffer" : 0,
      "byteOffset" : 0,
      "byteLength" : 660
    },
    {
      "buffer" : 0,
      "byteOffset" : 660,
      "byteLength" : 1872
    },
    {
      "buffer" : 0,
      "byteOffset" : 2532,
      "byteLength" : 1872
    },
    {
      "buffer" : 0,
      "byteOffset" : 4404,
      "byteLength" : 2496
    },
    {
      "buffer" : 0,
      "byteOffset" : 6900,
      "byteLength" : 1248
    },
    {
      "buffer" : 0,
      "byteOffset" : 8148,
      "byteLength" : 1248
    },
    {
      "buffer" : 0,
      "byteOffset" : 9396,
      "byteLength" : 1248
    },
    {
      "buffer" : 0,
      "byteOffset" : 10644,
      "byteLength" : 1248
    },
    {
      "buffer" : 0,
      "byteOffset" : 11892,
      "byteLength" : 576
    },
    {
      "buffer" : 0,
      "byteOffset" : 12468,
      "byteLength" : 2304
    },
    {
      "buffer" : 0,
      "byteOffset" : 14772,
      "byteLength" : 2304
    },
    {
      "buffer" : 0,
      "byteOffset" : 17076,
      "byteLength" : 3072
    },
    {
      "buffer" : 0,
      "byteOffset" : 20148,
      "byteLength" : 1536
    },
    {
      "buffer" : 0,
      "byteOffset" : 21684,
      "byteLength" : 1536
    },
    {
      "buffer" : 0,
      "byteOffset" : 23220,
      "byteLength" : 1536
    },
    {
      "buffer" : 0,
      "byteOffset" : 24756,
      "byteLength" : 1536
    },
    {
      "buffer" : 0,
      "byteOffset" : 26292,
      "byteLength" : 4632
    },
    {
      "buffer" : 0,
      "byteOffset" : 30924,
      "byteLength" : 11556
    },
    {
      "buffer" : 0,
      "byteOffset" : 42480,
      "byteLength" : 11556
    },
    {
      "buffer" : 0,
      "byteOffset" : 54036,
      "byteLength" : 15408
    },
    {
      "buffer" : 0,
      "byteOffset" : 69444,
      "byteLength" : 7704
    },
    {
      "buffer" : 0,
      "byteOffset" : 77148,
      "byteLength" : 7704
    },
    {
      "buffer" : 0,
      "byteOffset" : 84852,
      "byteLength" : 7704
    },
    {
      "buffer" : 0,
      "byteOffset" : 92556,
      "byteLength" : 7704
    },
    {
      "buffer" : 0,
      "byteOffset" : 100260,
      "byteLength" : 480
    },
    {
      "buffer" : 0,
      "byteOffset" : 100740,
      "byteLength" : 1536
    },
    {
      "buffer" : 0,
      "byteOffset" : 102276,
      "byteLength" : 1536
    },
    {
      "buffer" : 0,
      "byteOffset" : 103812,
      "byteLength" : 2048
    },
    {
      "buffer" : 0,
      "byteOffset" : 105860,
      "byteLength" : 1024
    },
    {
      "buffer" : 0,
      "byteOffset" : 106884,
      "byteLength" : 1024
    },
    {
      "buffer" : 0,
      "byteOffset" : 107908,
      "byteLength" : 1024
    },
    {
      "buffer" : 0,
      "byteOffset" : 108932,
      "byteLength" : 1024
    },
    {
      "buffer" : 0,
      "byteOffset" : 109956,
      "byteLength" : 384
    },
    {
      "buffer" : 0,
      "byteOffset" : 110340,
      "byteLength" : 1536
    },
    {
      "buffer" : 0,
      "byteOffset" : 111876,
      "byteLength" : 1536
    },
    {
      "buffer" : 0,
      "byteOffset" : 113412,
      "byteLength" : 2048
    },
    {
      "buffer" : 0,
      "byteOffset" : 115460,
      "byteLength" : 1024
    },
    {
      "buffer" : 0,
      "byteOffset" : 116484,
      "byteLength" : 1024
    },
    {
      "buffer" : 0,
      "byteOffset" : 117508,
      "byteLength" : 1024
    },
    {
      "buffer" : 0,
      "byteOffset" : 118532,
      "byteLength" : 1024
    },
    {
      "buffer" : 0,
      "byteOffset" : 119556,
      "byteLength" : 96
    },
    {
      "buffer" : 0,
      "byteOffset" : 119652,
      "byteLength" : 384
    },
    {
      "buffer" : 0,
      "byteOffset" : 120036,
      "byteLength" : 384
    },
    {
      "buffer" : 0,
      "byteOffset" : 120420,
      "byteLength" : 512
    },
    {
      "buffer" : 0,
      "byteOffset" : 120932,
      "byteLength" : 256
    },
    {
      "buffer" : 0,
      "byteOffset" : 121188,
      "byteLength" : 256
    },
    {
      "buffer" : 0,
      "byteOffset" : 121444,
      "byteLength" : 256
    },
    {
      "buffer" : 0,
      "byteOffset" : 121700,
      "byteLength" : 256
    },
    {
      "buffer" : 0,
      "byteOffset" : 121956,
      "byteLength" : 1152
    },
    {
      "buffer" : 0,
      "byteOffset" : 123108,
      "byteLength" : 2496
    },
    {
      "buffer" : 0,
      "byteOffset" : 125604,
      "byteLength" : 2496
    },
    {
      "buffer" : 0,
      "byteOffset" : 128100,
      "byteLength" : 3328
    },
    {
      "buffer" : 0,
      "byteOffset" : 131428,
      "byteLength" : 1664
    },
    {
      "buffer" : 0,
      "byteOffset" : 133092,
      "byteLength" : 1664
    },
    {
      "buffer" : 0,
      "byteOffset" : 134756,
      "byteLength" : 1664
    },
    {
      "buffer" : 0,
      "byteOffset" : 136420,
      "byteLength" : 1664
    },
    {
      "buffer" : 0,
      "byteOffset" : 138084,
      "byteLength" : 768
    },
    {
      "buffer" : 0,
      "byteOffset" : 138852,
      "byteLength" : 2040
    },
    {
      "buffer" : 0,
      "byteOffset" : 140892,
      "byteLength" : 2040
    },
    {
      "buffer" : 0,
      "byteOffset" : 142932,
      "byteLength" : 2720
    },
    {
      "buffer" : 0,
      "byteOffset" : 145652,
      "byteLength" : 1360
    },
    {
      "buffer" : 0,
      "byteOffset" : 147012,
      "byteLength" : 1360
    },
    {
      "buffer" : 0,
      "byteOffset" : 148372,
      "byteLength" : 1360
    },
    {
      "buffer" : 0,
      "byteOffset" : 149732,
      "byteLength" : 1360
    },
    {
      "buffer" : 0,
      "byteOffset" : 151092,
      "byteLength" : 11556
    },
    {
      "buffer" : 0,
      "byteOffset" : 162648,
      "byteLength" : 46224
    },
    {
      "buffer" : 0,
      "byteOffset" : 208872,
      "byteLength" : 46224
    },
    {
      "buffer" : 0,
      "byteOffset" : 255096,
      "byteLength" : 61632
    },
    {
      "buffer" : 0,
      "byteOffset" : 316728,
      "byteLength" : 30816
    },
    {
      "buffer" : 0,
      "byteOffset" : 347544,
      "byteLength" : 30816
    },
    {
      "buffer" : 0,
      "byteOffset" : 378360,
      "byteLength" : 30816
    },
    {
      "buffer" : 0,
      "byteOffset" : 409176,
      "byteLength" : 30816
    },
    {
      "buffer" : 0,
      "byteOffset" : 439992,
      "byteLength" : 192
    },
    {
      "buffer" : 0,
      "byteOffset" : 440184,
      "byteLength" : 768
    },
    {
      "buffer" : 0,
      "byteOffset" : 440952,
      "byteLength" : 768
    },
    {
      "buffer" : 0,
      "byteOffset" : 441720,
      "byteLength" : 1024
    },
    {
      "buffer" : 0,
      "byteOffset" : 442744,
      "byteLength" : 512
    },
    {
      "buffer" : 0,
      "byteOffset" : 443256,
      "byteLength" : 512
    },
    {
      "buffer" : 0,
      "byteOffset" : 443768,
      "byteLength" : 512
    },
    {
      "buffer" : 0,
      "byteOffset" : 444280,
      "byteLength" : 512
    },
    {
      "buffer" : 0,
      "byteOffset" : 444792,
      "byteLength" : 432
    },
    {
      "buffer" : 0,
      "byteOffset" : 445224,
      "byteLength" : 1728
    },
    {
      "buffer" : 0,
      "byteOffset" : 446952,
      "byteLength" : 1728
    },
    {
      "buffer" : 0,
      "byteOffset" : 448680,
      "byteLength" : 2304
    },
    {
      "buffer" : 0,
      "byteOffset" : 450984,
      "byteLength" : 1152
    },
    {
      "buffer" : 0,
      "byteOffset" : 452136,
      "byteLength" : 1152
    },
    {
      "buffer" : 0,
      "byteOffset" : 453288,
      "byteLength" : 1152
    },
    {
      "buffer" : 0,
      "byteOffset" : 454440,
      "byteLength" : 1152
    },
    {
      "buffer" : 0,
      "byteOffset" : 455592,
      "byteLength" : 5012
    },
    {
      "buffer" : 0,
      "byteOffset" : 460604,
      "byteLength" : 11352
    },
    {
      "buffer" : 0,
      "byteOffset" : 471956,
      "byteLength" : 11352
    },
    {
      "buffer" : 0,
      "byteOffset" : 483308,
      "byteLength" : 15136
    },
    {
      "buffer" : 0,
      "byteOffset" : 498444,
      "byteLength" : 7568
    },
    {
      "buffer" : 0,
      "byteOffset" : 506012,
      "byteLength" : 7568
    },
    {
      "buffer" : 0,
      "byteOffset" : 513580,
      "byteLength" : 7568
    },
    {
      "buffer" : 0,
      "byteOffset" : 521148,
      "byteLength" : 7568
    }
  ],
  "accessors" : [
    {
      "bufferView" : 0,
      "componentType" : 5123,
      "count" : 330,
      "type" : "SCALAR"
    },
    {
      "bufferView" : 1,
      "min" : [ -53.55, 12.094, -103.05 ],
      "max" : [ -36.45, 22.8739, -79.95 ],
      "componentType" : 5126,
      "count" : 156,
      "type" : "VEC3"
    },
    {
      "bufferView" : 2,
      "componentType" : 5126,
      "count" : 156,
      "type" : "VEC3"
    },
    {
      "bufferView" : 3,
      "componentType" : 5126,
      "count" : 156,
      "type" : "VEC4"
    },
    {
      "bufferView" : 4,
      "componentType" : 5126,
      "count" : 156,
      "type" : "VEC2"
    },
    {
      "bufferView" : 5,
      "componentType" : 5126,
      "count" : 156,
      "type" : "VEC2"
    },
    {
      "bufferView" : 6,
      "componentType" : 5126,
      "count" : 156,
      "type" : "VEC2"
    },
    {
      "bufferView" : 7,
      "componentType" : 5126,
      "count" : 156,
      "type" : "VEC2"
    },
    {
      "bufferView" : 8,
      "componentType" : 5123,
      "count" : 288,
      "type" : "SCALAR"
    },
    {
      "bufferView" : 9,
      "min" : [ -53.55, 6.6, -103.05 ],
      "max" : [ -36.45, 19.094, -79.95 ],
      "componentType" : 5126,
      "count" : 192,
      "type" : "VEC3"
    },
    {
      "bufferView" : 10,
      "componentType" : 5126,
      "count" : 192,
      "type" : "VEC3"
    },
    {
      "bufferView" : 11,
      "componentType" : 5126,
      "count" : 192,
      "type" : "VEC4"
    },
    {
      "bufferView" : 12,
      "componentType" : 5126,
      "count" : 192,
      "type" : "VEC2"
    },
    {
      "bufferView" : 13,
      "componentType" : 5126,
      "count" : 192,
      "type" : "VEC2"
    },
    {
      "bufferView" : 14,
      "componentType" : 5126,
      "count" : 192,
      "type" : "VEC2"
    },
    {
      "bufferView" : 15,
      "componentType" : 5126,
      "count" : 192,
      "type" : "VEC2"
    },
    {
      "bufferView" : 16,
      "componentType" : 5123,
      "count" : 2316,
      "type" : "SCALAR"
    },
    {
      "bufferView" : 17,
      "min" : [ -54.3416, 12.2939, -103.837 ],
      "max" : [ -35.688, 23.3036, -79.182 ],
      "componentType" : 5126,
      "count" : 963,
      "type" : "VEC3"
    },
    {
      "bufferView" : 18,
      "componentType" : 5126,
      "count" : 963,
      "type" : "VEC3"
    },
    {
      "bufferView" : 19,
      "componentType" : 5126,
      "count" : 963,
      "type" : "VEC4"
    },
    {
      "bufferView" : 20,
      "componentType" : 5126,
      "count" : 963,
      "type" : "VEC2"
    },
    {
      "bufferView" : 21,
      "componentType" : 5126,
      "count" : 963,
      "type" : "VEC2"
    },
    {
      "bufferView" : 22,
      "componentType" : 5126,
      "count" : 963,
      "type" : "VEC2"
    },
    {
      "bufferView" : 23,
      "componentType" : 5126,
      "count" : 963,
      "type" : "VEC2"
    },
    {
      "bufferView" : 24,
      "componentType" : 5123,
      "count" : 240,
      "type" : "SCALAR"
    },
    {
      "bufferView" : 25,
      "min" : [ -47.7508, 7.4543, -100.52 ],
      "max" : [ -38.98, 23.009, -82.48 ],
      "componentType" : 5126,
      "count" : 128,
      "type" : "VEC3"
    },
    {
      "bufferView" : 26,
      "componentType" : 5126,
      "count" : 128,
      "type" : "VEC3"
    },
    {
      "bufferView" : 27,
      "componentType" : 5126,
      "count" : 128,
      "type" : "VEC4"
    },
    {
      "bufferView" : 28,
      "componentType" : 5126,
      "count" : 128,
      "type" : "VEC2"
    },
    {
      "bufferView" : 29,
      "componentType" : 5126,
      "count" : 128,
      "type" : "VEC2"
    },
    {
      "bufferView" : 30,
      "componentType" : 5126,
      "count" : 128,
      "type" : "VEC2"
    },
    {
      "bufferView" : 31,
      "componentType" : 5126,
      "count" : 128,
      "type" : "VEC2"
    },
    {
      "bufferView" : 32,
      "componentType" : 5123,
      "count" : 192,
      "type" : "SCALAR"
    },
    {
      "bufferView" : 33,
      "min" : [ -48.26, 6.65, -100.6 ],
      "max" : [ -41.74, 9.9, -82.4 ],
      "componentType" : 5126,
      "count" : 128,
      "type" : "VEC3"
    },
    {
      "bufferView" : 34,
      "componentType" : 5126,
      "count" : 128,
      "type" : "VEC3"
    },
    {
      "bufferView" : 35,
      "componentType" : 5126,
      "count" : 128,
      "type" : "VEC4"
    },
    {
      "bufferView" : 36,
      "componentType" : 5126,
      "count" : 128,
      "type" : "VEC2"
    },
    {
      "bufferView" : 37,
      "componentType" : 5126,
      "count" : 128,
      "type" : "VEC2"
    },
    {
      "bufferView" : 38,
      "componentType" : 5126,
      "count" : 128,
      "type" : "VEC2"
    },
    {
      "bufferView" : 39,
      "componentType" : 5126,
      "count" : 128,
      "type" : "VEC2"
    },
    {
      "bufferView" : 40,
      "componentType" : 5123,
      "count" : 48,
      "type" : "SCALAR"
    },
    {
      "bufferView" : 41,
      "min" : [ -51, 6.6, -100.5 ],
      "max" : [ -39, 19, -82.5 ],
      "componentType" : 5126,
      "count" : 32,
      "type" : "VEC3"
    },
    {
      "bufferView" : 42,
      "componentType" : 5126,
      "count" : 32,
      "type" : "VEC3"
    },
    {
      "bufferView" : 43,
      "componentType" : 5126,
      "count" : 32,
      "type" : "VEC4"
    },
    {
      "bufferView" : 44,
      "componentType" : 5126,
      "count" : 32,
      "type" : "VEC2"
    },
    {
      "bufferView" : 45,
      "componentType" : 5126,
      "count" : 32,
      "type" : "VEC2"
    },
    {
      "bufferView" : 46,
      "componentType" : 5126,
      "count" : 32,
      "type" : "VEC2"
    },
    {
      "bufferView" : 47,
      "componentType" : 5126,
      "count" : 32,
      "type" : "VEC2"
    },
    {
      "bufferView" : 48,
      "componentType" : 5123,
      "count" : 576,
      "type" : "SCALAR"
    },
    {
      "bufferView" : 49,
      "min" : [ -52.65, 6.6, -102.15 ],
      "max" : [ -37.35, 12, -80.85 ],
      "componentType" : 5126,
      "count" : 208,
      "type" : "VEC3"
    },
    {
      "bufferView" : 50,
      "componentType" : 5126,
      "count" : 208,
      "type" : "VEC3"
    },
    {
      "bufferView" : 51,
      "componentType" : 5126,
      "count" : 208,
      "type" : "VEC4"
    },
    {
      "bufferView" : 52,
      "componentType" : 5126,
      "count" : 208,
      "type" : "VEC2"
    },
    {
      "bufferView" : 53,
      "componentType" : 5126,
      "count" : 208,
      "type" : "VEC2"
    },
    {
      "bufferView" : 54,
      "componentType" : 5126,
      "count" : 208,
      "type" : "VEC2"
    },
    {
      "bufferView" : 55,
      "componentType" : 5126,
      "count" : 208,
      "type" : "VEC2"
    },
    {
      "bufferView" : 56,
      "componentType" : 5123,
      "count" : 384,
      "type" : "SCALAR"
    },
    {
      "bufferView" : 57,
      "min" : [ -52.65, 7.53125, -102.15 ],
      "max" : [ -37.35, 19, -80.85 ],
      "componentType" : 5126,
      "count" : 170,
      "type" : "VEC3"
    },
    {
      "bufferView" : 58,
      "componentType" : 5126,
      "count" : 170,
      "type" : "VEC3"
    },
    {
      "bufferView" : 59,
      "componentType" : 5126,
      "count" : 170,
      "type" : "VEC4"
    },
    {
      "bufferView" : 60,
      "componentType" : 5126,
      "count" : 170,
      "type" : "VEC2"
    },
    {
      "bufferView" : 61,
      "componentType" : 5126,
      "count" : 170,
      "type" : "VEC2"
    },
    {
      "bufferView" : 62,
      "componentType" : 5126,
      "count" : 170,
      "type" : "VEC2"
    },
    {
      "bufferView" : 63,
      "componentType" : 5126,
      "count" : 170,
      "type" : "VEC2"
    },
    {
      "bufferView" : 64,
      "componentType" : 5123,
      "count" : 5778,
      "type" : "SCALAR"
    },
    {
      "bufferView" : 65,
      "min" : [ -51.35, 6.6, -102.7 ],
      "max" : [ -36.8, 19, -80.3 ],
      "componentType" : 5126,
      "count" : 3852,
      "type" : "VEC3"
    },
    {
      "bufferView" : 66,
      "componentType" : 5126,
      "count" : 3852,
      "type" : "VEC3"
    },
    {
      "bufferView" : 67,
      "componentType" : 5126,
      "count" : 3852,
      "type" : "VEC4"
    },
    {
      "bufferView" : 68,
      "componentType" : 5126,
      "count" : 3852,
      "type" : "VEC2"
    },
    {
      "bufferView" : 69,
      "componentType" : 5126,
      "count" : 3852,
      "type" : "VEC2"
    },
    {
      "bufferView" : 70,
      "componentType" : 5126,
      "count" : 3852,
      "type" : "VEC2"
    },
    {
      "bufferView" : 71,
      "componentType" : 5126,
      "count" : 3852,
      "type" : "VEC2"
    },
    {
      "bufferView" : 72,
      "componentType" : 5123,
      "count" : 96,
      "type" : "SCALAR"
    },
    {
      "bufferView" : 73,
      "min" : [ -54.65, 6, -104.15 ],
      "max" : [ -35.35, 6.6, -78.85 ],
      "componentType" : 5126,
      "count" : 64,
      "type" : "VEC3"
    },
    {
      "bufferView" : 74,
      "componentType" : 5126,
      "count" : 64,
      "type" : "VEC3"
    },
    {
      "bufferView" : 75,
      "componentType" : 5126,
      "count" : 64,
      "type" : "VEC4"
    },
    {
      "bufferView" : 76,
      "componentType" : 5126,
      "count" : 64,
      "type" : "VEC2"
    },
    {
      "bufferView" : 77,
      "componentType" : 5126,
      "count" : 64,
      "type" : "VEC2"
    },
    {
      "bufferView" : 78,
      "componentType" : 5126,
      "count" : 64,
      "type" : "VEC2"
    },
    {
      "bufferView" : 79,
      "componentType" : 5126,
      "count" : 64,
      "type" : "VEC2"
    },
    {
      "bufferView" : 80,
      "componentType" : 5123,
      "count" : 216,
      "type" : "SCALAR"
    },
    {
      "bufferView" : 81,
      "min" : [ -53.43, 6.65, -102.93 ],
      "max" : [ -36.57, 19, -80.07 ],
      "componentType" : 5126,
      "count" : 144,
      "type" : "VEC3"
    },
    {
      "bufferView" : 82,
      "componentType" : 5126,
      "count" : 144,
      "type" : "VEC3"
    },
    {
      "bufferView" : 83,
      "componentType" : 5126,
      "count" : 144,
      "type" : "VEC4"
    },
    {
      "bufferView" : 84,
      "componentType" : 5126,
      "count" : 144,
      "type" : "VEC2"
    },
    {
      "bufferView" : 85,
      "componentType" : 5126,
      "count" : 144,
      "type" : "VEC2"
    },
    {
      "bufferView" : 86,
      "componentType" : 5126,
      "count" : 144,
      "type" : "VEC2"
    },
    {
      "bufferView" : 87,
      "componentType" : 5126,
      "count" : 144,
      "type" : "VEC2"
    },
    {
      "bufferView" : 88,
      "componentType" : 5123,
      "count" : 2505,
      "type" : "SCALAR"
    },
    {
      "bufferView" : 89,
      "min" : [ -51.9412, 11.7558, -102.28 ],
      "max" : [ -36.2083, 21.0523, -82.481 ],
      "componentType" : 5126,
      "count" : 946,
      "type" : "VEC3"
    },
    {
      "bufferView" : 90,
      "componentType" : 5126,
      "count" : 946,
      "type" : "VEC3"
    },
    {
      "bufferView" : 91,
      "componentType" : 5126,
      "count" : 946,
      "type" : "VEC4"
    },
    {
      "bufferView" : 92,
      "componentType" : 5126,
      "count" : 946,
      "type" : "VEC2"
    },
    {
      "bufferView" : 93,
      "componentType" : 5126,
      "count" : 946,
      "type" : "VEC2"
    },
    {
      "bufferView" : 94,
      "componentType" : 5126,
      "count" : 946,
      "type" : "VEC2"
    },
    {
      "bufferView" : 95,
      "componentType" : 5126,
      "count" : 946,
      "type" : "VEC2"
    }
  ]
}
