{
  "asset" : {
    "generator" : "UE Viewer (umodel) build 1544 based",
    "version" : "2.0"
  },
  "scene" : 0,
  "scenes" : [
    {
      "nodes" : [ 0 ]
    }
  ],
  "nodes" : [
    {
      "name" : "SM_ENV_LKNVLD_RockMiddle_E_Lod2",
      "mesh" : 0
    }
  ],
  "materials" : [
    {
      "name" : "MI_ENV_LKNVLD_MiddleRock_A_LOD",
      "pbrMetallicRoughness" : {
        "baseColorFactor" : [ 0.3, 0.3, 0.3, 1.0 ],
        "metallicFactor" : 0.1,
        "roughnessFactor" : 0.5
      }
    }
  ],
  "meshes" : [
    {
      "primitives" : [
        {
          "attributes" : {
            "POSITION" : 1,
            "NORMAL" : 2,
            "TANGENT" : 3,
            "COLOR_0" : 4,
            "TEXCOORD_0" : 5,
            "TEXCOORD_1" : 6,
            "TEXCOORD_2" : 7,
            "TEXCOORD_3" : 8
          },
          "indices" : 0,
          "material" : 0
        }
      ],
      "name" : "SM_ENV_LKNVLD_RockMiddle_E_Lod2"
    }
  ],
  "buffers" : [
    {
      "uri" : "SM_ENV_LKNVLD_RockMiddle_E_Lod2.bin",
      "byteLength" : 21312
    }
  ],
  "bufferViews" : [
    {
      "buffer" : 0,
      "byteOffset" : 0,
      "byteLength" : 1704
    },
    {
      "buffer" : 0,
      "byteOffset" : 1704,
      "byteLength" : 3096
    },
    {
      "buffer" : 0,
      "byteOffset" : 4800,
      "byteLength" : 3096
    },
    {
      "buffer" : 0,
      "byteOffset" : 7896,
      "byteLength" : 4128
    },
    {
      "buffer" : 0,
      "byteOffset" : 12024,
      "byteLength" : 1032
    },
    {
      "buffer" : 0,
      "byteOffset" : 13056,
      "byteLength" : 2064
    },
    {
      "buffer" : 0,
      "byteOffset" : 15120,
      "byteLength" : 2064
    },
    {
      "buffer" : 0,
      "byteOffset" : 17184,
      "byteLength" : 2064
    },
    {
      "buffer" : 0,
      "byteOffset" : 19248,
      "byteLength" : 2064
    }
  ],
  "accessors" : [
    {
      "bufferView" : 0,
      "componentType" : 5123,
      "count" : 852,
      "type" : "SCALAR"
    },
    {
      "bufferView" : 1,
      "min" : [ -20.7541, -0.361532, -37.2607 ],
      "max" : [ -12.9341, 1.49518, -29.9798 ],
      "componentType" : 5126,
      "count" : 258,
      "type" : "VEC3"
    },
    {
      "bufferView" : 2,
      "componentType" : 5126,
      "count" : 258,
      "type" : "VEC3"
    },
    {
      "bufferView" : 3,
      "componentType" : 5126,
      "count" : 258,
      "type" : "VEC4"
    },
    {
      "bufferView" : 4,
      "normalized" : true,
      "componentType" : 5121,
      "count" : 258,
      "type" : "VEC4"
    },
    {
      "bufferView" : 5,
      "componentType" : 5126,
      "count" : 258,
      "type" : "VEC2"
    },
    {
      "bufferView" : 6,
      "componentType" : 5126,
      "count" : 258,
      "type" : "VEC2"
    },
    {
      "bufferView" : 7,
      "componentType" : 5126,
      "count" : 258,
      "type" : "VEC2"
    },
    {
      "bufferView" : 8,
      "componentType" : 5126,
      "count" : 258,
      "type" : "VEC2"
    }
  ]
}
