{
  "asset" : {
    "generator" : "UE Viewer (umodel) build 1544 based",
    "version" : "2.0"
  },
  "scene" : 0,
  "scenes" : [
    {
      "nodes" : [ 0 ]
    }
  ],
  "nodes" : [
    {
      "name" : "SM_ENV_LKNVLD_Shop_Tori",
      "mesh" : 0
    }
  ],
  "materials" : [
    {
      "name" : "MI_ENV_LKNVLD_ClanTorii_A",
      "pbrMetallicRoughness" : {
        "baseColorFactor" : [ 0.3, 0.3, 0.3, 1.0 ],
        "metallicFactor" : 0.1,
        "roughnessFactor" : 0.5
      }
    },
    {
      "name" : "MI_ENV_LKNVLD_StrawRope_A",
      "pbrMetallicRoughness" : {
        "baseColorFactor" : [ 0.9, 0.3, 0.3, 1.0 ],
        "metallicFactor" : 0.1,
        "roughnessFactor" : 0.5
      }
    }
  ],
  "meshes" : [
    {
      "primitives" : [
        {
          "attributes" : {
            "POSITION" : 1,
            "NORMAL" : 2,
            "TANGENT" : 3,
            "COLOR_0" : 4,
            "TEXCOORD_0" : 5,
            "TEXCOORD_1" : 6,
            "TEXCOORD_2" : 7,
            "TEXCOORD_3" : 8
          },
          "indices" : 0,
          "material" : 0
        },
        {
          "attributes" : {
            "POSITION" : 10,
            "NORMAL" : 11,
            "TANGENT" : 12,
            "COLOR_0" : 13,
            "TEXCOORD_0" : 14,
            "TEXCOORD_1" : 15,
            "TEXCOORD_2" : 16,
            "TEXCOORD_3" : 17
          },
          "indices" : 9,
          "material" : 1
        }
      ],
      "name" : "SM_ENV_LKNVLD_Shop_Tori"
    }
  ],
  "buffers" : [
    {
      "uri" : "SM_ENV_LKNVLD_Shop_Tori.bin",
      "byteLength" : 375704
    }
  ],
  "bufferViews" : [
    {
      "buffer" : 0,
      "byteOffset" : 0,
      "byteLength" : 3132
    },
    {
      "buffer" : 0,
      "byteOffset" : 3132,
      "byteLength" : 7296
    },
    {
      "buffer" : 0,
      "byteOffset" : 10428,
      "byteLength" : 7296
    },
    {
      "buffer" : 0,
      "byteOffset" : 17724,
      "byteLength" : 9728
    },
    {
      "buffer" : 0,
      "byteOffset" : 27452,
      "byteLength" : 2432
    },
    {
      "buffer" : 0,
      "byteOffset" : 29884,
      "byteLength" : 4864
    },
    {
      "buffer" : 0,
      "byteOffset" : 34748,
      "byteLength" : 4864
    },
    {
      "buffer" : 0,
      "byteOffset" : 39612,
      "byteLength" : 4864
    },
    {
      "buffer" : 0,
      "byteOffset" : 44476,
      "byteLength" : 4864
    },
    {
      "buffer" : 0,
      "byteOffset" : 49340,
      "byteLength" : 26772
    },
    {
      "buffer" : 0,
      "byteOffset" : 76112,
      "byteLength" : 47304
    },
    {
      "buffer" : 0,
      "byteOffset" : 123416,
      "byteLength" : 47304
    },
    {
      "buffer" : 0,
      "byteOffset" : 170720,
      "byteLength" : 63072
    },
    {
      "buffer" : 0,
      "byteOffset" : 233792,
      "byteLength" : 15768
    },
    {
      "buffer" : 0,
      "byteOffset" : 249560,
      "byteLength" : 31536
    },
    {
      "buffer" : 0,
      "byteOffset" : 281096,
      "byteLength" : 31536
    },
    {
      "buffer" : 0,
      "byteOffset" : 312632,
      "byteLength" : 31536
    },
    {
      "buffer" : 0,
      "byteOffset" : 344168,
      "byteLength" : 31536
    }
  ],
  "accessors" : [
    {
      "bufferView" : 0,
      "componentType" : 5123,
      "count" : 1566,
      "type" : "SCALAR"
    },
    {
      "bufferView" : 1,
      "min" : [ -32.7412, 5.88384, 17.3949 ],
      "max" : [ -24.6216, 16.4439, 25.5145 ],
      "componentType" : 5126,
      "count" : 608,
      "type" : "VEC3"
    },
    {
      "bufferView" : 2,
      "componentType" : 5126,
      "count" : 608,
      "type" : "VEC3"
    },
    {
      "bufferView" : 3,
      "componentType" : 5126,
      "count" : 608,
      "type" : "VEC4"
    },
    {
      "bufferView" : 4,
      "normalized" : true,
      "componentType" : 5121,
      "count" : 608,
      "type" : "VEC4"
    },
    {
      "bufferView" : 5,
      "componentType" : 5126,
      "count" : 608,
      "type" : "VEC2"
    },
    {
      "bufferView" : 6,
      "componentType" : 5126,
      "count" : 608,
      "type" : "VEC2"
    },
    {
      "bufferView" : 7,
      "componentType" : 5126,
      "count" : 608,
      "type" : "VEC2"
    },
    {
      "bufferView" : 8,
      "componentType" : 5126,
      "count" : 608,
      "type" : "VEC2"
    },
    {
      "bufferView" : 9,
      "componentType" : 5123,
      "count" : 13386,
      "type" : "SCALAR"
    },
    {
      "bufferView" : 10,
      "min" : [ -31.3975, 10.9791, 18.7644 ],
      "max" : [ -25.9486, 14.2133, 24.2133 ],
      "componentType" : 5126,
      "count" : 3942,
      "type" : "VEC3"
    },
    {
      "bufferView" : 11,
      "componentType" : 5126,
      "count" : 3942,
      "type" : "VEC3"
    },
    {
      "bufferView" : 12,
      "componentType" : 5126,
      "count" : 3942,
      "type" : "VEC4"
    },
    {
      "bufferView" : 13,
      "normalized" : true,
      "componentType" : 5121,
      "count" : 3942,
      "type" : "VEC4"
    },
    {
      "bufferView" : 14,
      "componentType" : 5126,
      "count" : 3942,
      "type" : "VEC2"
    },
    {
      "bufferView" : 15,
      "componentType" : 5126,
      "count" : 3942,
      "type" : "VEC2"
    },
    {
      "bufferView" : 16,
      "componentType" : 5126,
      "count" : 3942,
      "type" : "VEC2"
    },
    {
      "bufferView" : 17,
      "componentType" : 5126,
      "count" : 3942,
      "type" : "VEC2"
    }
  ]
}
