{
  "asset" : {
    "generator" : "UE Viewer (umodel) build 1544 based",
    "version" : "2.0"
  },
  "scene" : 0,
  "scenes" : [
    {
      "nodes" : [ 0 ]
    }
  ],
  "nodes" : [
    {
      "name" : "SM_ENV_LKNVLD_Shop_Structure_Lod2",
      "mesh" : 0
    }
  ],
  "materials" : [
    {
      "name" : "MI_ENV_LKNVLD_WoodBoard_Natural_Yellowed_LOD",
      "pbrMetallicRoughness" : {
        "baseColorFactor" : [ 0.3, 0.3, 0.3, 1.0 ],
        "metallicFactor" : 0.1,
        "roughnessFactor" : 0.5
      }
    },
    {
      "name" : "MI_ENV_LKNVLD_WoodBoard_Natural_LOD",
      "pbrMetallicRoughness" : {
        "baseColorFactor" : [ 0.9, 0.3, 0.3, 1.0 ],
        "metallicFactor" : 0.1,
        "roughnessFactor" : 0.5
      }
    },
    {
      "name" : "MI_ENV_LKNVLD_Windows_A",
      "pbrMetallicRoughness" : {
        "baseColorFactor" : [ 0.3, 0.9, 0.3, 1.0 ],
        "metallicFactor" : 0.1,
        "roughnessFactor" : 0.5
      }
    },
    {
      "name" : "MI_ENV_LKNVLD_Plaster_LOD",
      "pbrMetallicRoughness" : {
        "baseColorFactor" : [ 0.3, 0.3, 0.9, 1.0 ],
        "metallicFactor" : 0.1,
        "roughnessFactor" : 0.5
      }
    },
    {
      "name" : "MI_ENV_LKNVLD_MetalRoofDark_LOD",
      "pbrMetallicRoughness" : {
        "baseColorFactor" : [ 0.9, 0.9, 0.9, 1.0 ],
        "metallicFactor" : 0.1,
        "roughnessFactor" : 0.5
      }
    },
    {
      "name" : "MI_ENV_LKNVLD_MetalRoof_DarkBlue_LOD",
      "pbrMetallicRoughness" : {
        "baseColorFactor" : [ 0.9, 0.9, 0.3, 1.0 ],
        "metallicFactor" : 0.1,
        "roughnessFactor" : 0.5
      }
    },
    {
      "name" : "MI_ENV_LKNVLD_Plaster_Dark_LOD",
      "pbrMetallicRoughness" : {
        "baseColorFactor" : [ 0.9, 0.3, 0.9, 1.0 ],
        "metallicFactor" : 0.1,
        "roughnessFactor" : 0.5
      }
    },
    {
      "name" : "MI_ENV_LKNVLD_Curtain_C_LOD",
      "pbrMetallicRoughness" : {
        "baseColorFactor" : [ 0.3, 0.9, 0.9, 1.0 ],
        "metallicFactor" : 0.1,
        "roughnessFactor" : 0.5
      }
    },
    {
      "name" : "MI_ENV_LKNVLD_ClanSignboard_D_LOD",
      "pbrMetallicRoughness" : {
        "baseColorFactor" : [ 1, 0.3, 0.3, 1.0 ],
        "metallicFactor" : 0.1,
        "roughnessFactor" : 0.5
      }
    },
    {
      "name" : "MI_ENV_LKNVLD_Aircon_B",
      "pbrMetallicRoughness" : {
        "baseColorFactor" : [ 0.6, 0.3, 0.3, 1.0 ],
        "metallicFactor" : 0.1,
        "roughnessFactor" : 0.5
      }
    },
    {
      "name" : "MI_ENV_LKNVLD_Eaves_C_LOD",
      "pbrMetallicRoughness" : {
        "baseColorFactor" : [ 1, 0.9, 0.3, 1.0 ],
        "metallicFactor" : 0.1,
        "roughnessFactor" : 0.5
      }
    },
    {
      "name" : "MI_ENV_LKNVLD_ClanSignboard_E",
      "pbrMetallicRoughness" : {
        "baseColorFactor" : [ 1, 0.3, 0.9, 1.0 ],
        "metallicFactor" : 0.1,
        "roughnessFactor" : 0.5
      }
    },
    {
      "name" : "MI_ENV_LKNVLD_Aircon_C",
      "pbrMetallicRoughness" : {
        "baseColorFactor" : [ 0.6, 0.9, 0.9, 1.0 ],
        "metallicFactor" : 0.1,
        "roughnessFactor" : 0.5
      }
    },
    {
      "name" : "MI_ENV_LKNVLD_Pipe_C_LOD",
      "pbrMetallicRoughness" : {
        "baseColorFactor" : [ 0.6, 0.9, 0.3, 1.0 ],
        "metallicFactor" : 0.1,
        "roughnessFactor" : 0.5
      }
    },
    {
      "name" : "MI_ENV_LKNVLD_MetalRoof_LOD",
      "pbrMetallicRoughness" : {
        "baseColorFactor" : [ 0.6, 0.3, 0.9, 1.0 ],
        "metallicFactor" : 0.1,
        "roughnessFactor" : 0.5
      }
    },
    {
      "name" : "MI_ENV_LKNVLD_BuildingInside_A",
      "pbrMetallicRoughness" : {
        "baseColorFactor" : [ 1, 0.9, 0.9, 1.0 ],
        "metallicFactor" : 0.1,
        "roughnessFactor" : 0.5
      }
    }
  ],
  "meshes" : [
    {
      "primitives" : [
        {
          "attributes" : {
            "POSITION" : 1,
            "NORMAL" : 2,
            "TANGENT" : 3,
            "COLOR_0" : 4,
            "TEXCOORD_0" : 5,
            "TEXCOORD_1" : 6,
            "TEXCOORD_2" : 7,
            "TEXCOORD_3" : 8
          },
          "indices" : 0,
          "material" : 0
        },
        {
          "attributes" : {
            "POSITION" : 10,
            "NORMAL" : 11,
            "TANGENT" : 12,
            "COLOR_0" : 13,
            "TEXCOORD_0" : 14,
            "TEXCOORD_1" : 15,
            "TEXCOORD_2" : 16,
            "TEXCOORD_3" : 17
          },
          "indices" : 9,
          "material" : 1
        },
        {
          "attributes" : {
            "POSITION" : 19,
            "NORMAL" : 20,
            "TANGENT" : 21,
            "COLOR_0" : 22,
            "TEXCOORD_0" : 23,
            "TEXCOORD_1" : 24,
            "TEXCOORD_2" : 25,
            "TEXCOORD_3" : 26
          },
          "indices" : 18,
          "material" : 2
        },
        {
          "attributes" : {
            "POSITION" : 28,
            "NORMAL" : 29,
            "TANGENT" : 30,
            "COLOR_0" : 31,
            "TEXCOORD_0" : 32,
            "TEXCOORD_1" : 33,
            "TEXCOORD_2" : 34,
            "TEXCOORD_3" : 35
          },
          "indices" : 27,
          "material" : 3
        },
        {
          "attributes" : {
            "POSITION" : 37,
            "NORMAL" : 38,
            "TANGENT" : 39,
            "COLOR_0" : 40,
            "TEXCOORD_0" : 41,
            "TEXCOORD_1" : 42,
            "TEXCOORD_2" : 43,
            "TEXCOORD_3" : 44
          },
          "indices" : 36,
          "material" : 4
        },
        {
          "attributes" : {
            "POSITION" : 46,
            "NORMAL" : 47,
            "TANGENT" : 48,
            "COLOR_0" : 49,
            "TEXCOORD_0" : 50,
            "TEXCOORD_1" : 51,
            "TEXCOORD_2" : 52,
            "TEXCOORD_3" : 53
          },
          "indices" : 45,
          "material" : 5
        },
        {
          "attributes" : {
            "POSITION" : 55,
            "NORMAL" : 56,
            "TANGENT" : 57,
            "COLOR_0" : 58,
            "TEXCOORD_0" : 59,
            "TEXCOORD_1" : 60,
            "TEXCOORD_2" : 61,
            "TEXCOORD_3" : 62
          },
          "indices" : 54,
          "material" : 6
        },
        {
          "attributes" : {
            "POSITION" : 64,
            "NORMAL" : 65,
            "TANGENT" : 66,
            "COLOR_0" : 67,
            "TEXCOORD_0" : 68,
            "TEXCOORD_1" : 69,
            "TEXCOORD_2" : 70,
            "TEXCOORD_3" : 71
          },
          "indices" : 63,
          "material" : 7
        },
        {
          "attributes" : {
            "POSITION" : 73,
            "NORMAL" : 74,
            "TANGENT" : 75,
            "COLOR_0" : 76,
            "TEXCOORD_0" : 77,
            "TEXCOORD_1" : 78,
            "TEXCOORD_2" : 79,
            "TEXCOORD_3" : 80
          },
          "indices" : 72,
          "material" : 8
        },
        {
          "attributes" : {
            "POSITION" : 82,
            "NORMAL" : 83,
            "TANGENT" : 84,
            "COLOR_0" : 85,
            "TEXCOORD_0" : 86,
            "TEXCOORD_1" : 87,
            "TEXCOORD_2" : 88,
            "TEXCOORD_3" : 89
          },
          "indices" : 81,
          "material" : 9
        },
        {
          "attributes" : {
            "POSITION" : 91,
            "NORMAL" : 92,
            "TANGENT" : 93,
            "COLOR_0" : 94,
            "TEXCOORD_0" : 95,
            "TEXCOORD_1" : 96,
            "TEXCOORD_2" : 97,
            "TEXCOORD_3" : 98
          },
          "indices" : 90,
          "material" : 10
        },
        {
          "attributes" : {
            "POSITION" : 100,
            "NORMAL" : 101,
            "TANGENT" : 102,
            "COLOR_0" : 103,
            "TEXCOORD_0" : 104,
            "TEXCOORD_1" : 105,
            "TEXCOORD_2" : 106,
            "TEXCOORD_3" : 107
          },
          "indices" : 99,
          "material" : 11
        },
        {
          "attributes" : {
            "POSITION" : 109,
            "NORMAL" : 110,
            "TANGENT" : 111,
            "COLOR_0" : 112,
            "TEXCOORD_0" : 113,
            "TEXCOORD_1" : 114,
            "TEXCOORD_2" : 115,
            "TEXCOORD_3" : 116
          },
          "indices" : 108,
          "material" : 12
        },
        {
          "attributes" : {
            "POSITION" : 118,
            "NORMAL" : 119,
            "TANGENT" : 120,
            "COLOR_0" : 121,
            "TEXCOORD_0" : 122,
            "TEXCOORD_1" : 123,
            "TEXCOORD_2" : 124,
            "TEXCOORD_3" : 125
          },
          "indices" : 117,
          "material" : 13
        },
        {
          "attributes" : {
            "POSITION" : 127,
            "NORMAL" : 128,
            "TANGENT" : 129,
            "COLOR_0" : 130,
            "TEXCOORD_0" : 131,
            "TEXCOORD_1" : 132,
            "TEXCOORD_2" : 133,
            "TEXCOORD_3" : 134
          },
          "indices" : 126,
          "material" : 14
        },
        {
          "attributes" : {
            "POSITION" : 136,
            "NORMAL" : 137,
            "TANGENT" : 138,
            "COLOR_0" : 139,
            "TEXCOORD_0" : 140,
            "TEXCOORD_1" : 141,
            "TEXCOORD_2" : 142,
            "TEXCOORD_3" : 143
          },
          "indices" : 135,
          "material" : 15
        }
      ],
      "name" : "SM_ENV_LKNVLD_Shop_Structure_Lod2"
    }
  ],
  "buffers" : [
    {
      "uri" : "SM_ENV_LKNVLD_Shop_Structure_Lod2.bin",
      "byteLength" : 1569736
    }
  ],
  "bufferViews" : [
    {
      "buffer" : 0,
      "byteOffset" : 0,
      "byteLength" : 768
    },
    {
      "buffer" : 0,
      "byteOffset" : 768,
      "byteLength" : 3048
    },
    {
      "buffer" : 0,
      "byteOffset" : 3816,
      "byteLength" : 3048
    },
    {
      "buffer" : 0,
      "byteOffset" : 6864,
      "byteLength" : 4064
    },
    {
      "buffer" : 0,
      "byteOffset" : 10928,
      "byteLength" : 1016
    },
    {
      "buffer" : 0,
      "byteOffset" : 11944,
      "byteLength" : 2032
    },
    {
      "buffer" : 0,
      "byteOffset" : 13976,
      "byteLength" : 2032
    },
    {
      "buffer" : 0,
      "byteOffset" : 16008,
      "byteLength" : 2032
    },
    {
      "buffer" : 0,
      "byteOffset" : 18040,
      "byteLength" : 2032
    },
    {
      "buffer" : 0,
      "byteOffset" : 20072,
      "byteLength" : 10868
    },
    {
      "buffer" : 0,
      "byteOffset" : 30940,
      "byteLength" : 41544
    },
    {
      "buffer" : 0,
      "byteOffset" : 72484,
      "byteLength" : 41544
    },
    {
      "buffer" : 0,
      "byteOffset" : 114028,
      "byteLength" : 55392
    },
    {
      "buffer" : 0,
      "byteOffset" : 169420,
      "byteLength" : 13848
    },
    {
      "buffer" : 0,
      "byteOffset" : 183268,
      "byteLength" : 27696
    },
    {
      "buffer" : 0,
      "byteOffset" : 210964,
      "byteLength" : 27696
    },
    {
      "buffer" : 0,
      "byteOffset" : 238660,
      "byteLength" : 27696
    },
    {
      "buffer" : 0,
      "byteOffset" : 266356,
      "byteLength" : 27696
    },
    {
      "buffer" : 0,
      "byteOffset" : 294052,
      "byteLength" : 720
    },
    {
      "buffer" : 0,
      "byteOffset" : 294772,
      "byteLength" : 2688
    },
    {
      "buffer" : 0,
      "byteOffset" : 297460,
      "byteLength" : 2688
    },
    {
      "buffer" : 0,
      "byteOffset" : 300148,
      "byteLength" : 3584
    },
    {
      "buffer" : 0,
      "byteOffset" : 303732,
      "byteLength" : 896
    },
    {
      "buffer" : 0,
      "byteOffset" : 304628,
      "byteLength" : 1792
    },
    {
      "buffer" : 0,
      "byteOffset" : 306420,
      "byteLength" : 1792
    },
    {
      "buffer" : 0,
      "byteOffset" : 308212,
      "byteLength" : 1792
    },
    {
      "buffer" : 0,
      "byteOffset" : 310004,
      "byteLength" : 1792
    },
    {
      "buffer" : 0,
      "byteOffset" : 311796,
      "byteLength" : 3644
    },
    {
      "buffer" : 0,
      "byteOffset" : 315440,
      "byteLength" : 10188
    },
    {
      "buffer" : 0,
      "byteOffset" : 325628,
      "byteLength" : 10188
    },
    {
      "buffer" : 0,
      "byteOffset" : 335816,
      "byteLength" : 13584
    },
    {
      "buffer" : 0,
      "byteOffset" : 349400,
      "byteLength" : 3396
    },
    {
      "buffer" : 0,
      "byteOffset" : 352796,
      "byteLength" : 6792
    },
    {
      "buffer" : 0,
      "byteOffset" : 359588,
      "byteLength" : 6792
    },
    {
      "buffer" : 0,
      "byteOffset" : 366380,
      "byteLength" : 6792
    },
    {
      "buffer" : 0,
      "byteOffset" : 373172,
      "byteLength" : 6792
    },
    {
      "buffer" : 0,
      "byteOffset" : 379964,
      "byteLength" : 9068
    },
    {
      "buffer" : 0,
      "byteOffset" : 389032,
      "byteLength" : 34356
    },
    {
      "buffer" : 0,
      "byteOffset" : 423388,
      "byteLength" : 34356
    },
    {
      "buffer" : 0,
      "byteOffset" : 457744,
      "byteLength" : 45808
    },
    {
      "buffer" : 0,
      "byteOffset" : 503552,
      "byteLength" : 11452
    },
    {
      "buffer" : 0,
      "byteOffset" : 515004,
      "byteLength" : 22904
    },
    {
      "buffer" : 0,
      "byteOffset" : 537908,
      "byteLength" : 22904
    },
    {
      "buffer" : 0,
      "byteOffset" : 560812,
      "byteLength" : 22904
    },
    {
      "buffer" : 0,
      "byteOffset" : 583716,
      "byteLength" : 22904
    },
    {
      "buffer" : 0,
      "byteOffset" : 606620,
      "byteLength" : 3648
    },
    {
      "buffer" : 0,
      "byteOffset" : 610268,
      "byteLength" : 12144
    },
    {
      "buffer" : 0,
      "byteOffset" : 622412,
      "byteLength" : 12144
    },
    {
      "buffer" : 0,
      "byteOffset" : 634556,
      "byteLength" : 16192
    },
    {
      "buffer" : 0,
      "byteOffset" : 650748,
      "byteLength" : 4048
    },
    {
      "buffer" : 0,
      "byteOffset" : 654796,
      "byteLength" : 8096
    },
    {
      "buffer" : 0,
      "byteOffset" : 662892,
      "byteLength" : 8096
    },
    {
      "buffer" : 0,
      "byteOffset" : 670988,
      "byteLength" : 8096
    },
    {
      "buffer" : 0,
      "byteOffset" : 679084,
      "byteLength" : 8096
    },
    {
      "buffer" : 0,
      "byteOffset" : 687180,
      "byteLength" : 4896
    },
    {
      "buffer" : 0,
      "byteOffset" : 692076,
      "byteLength" : 19248
    },
    {
      "buffer" : 0,
      "byteOffset" : 711324,
      "byteLength" : 19248
    },
    {
      "buffer" : 0,
      "byteOffset" : 730572,
      "byteLength" : 25664
    },
    {
      "buffer" : 0,
      "byteOffset" : 756236,
      "byteLength" : 6416
    },
    {
      "buffer" : 0,
      "byteOffset" : 762652,
      "byteLength" : 12832
    },
    {
      "buffer" : 0,
      "byteOffset" : 775484,
      "byteLength" : 12832
    },
    {
      "buffer" : 0,
      "byteOffset" : 788316,
      "byteLength" : 12832
    },
    {
      "buffer" : 0,
      "byteOffset" : 801148,
      "byteLength" : 12832
    },
    {
      "buffer" : 0,
      "byteOffset" : 813980,
      "byteLength" : 1320
    },
    {
      "buffer" : 0,
      "byteOffset" : 815300,
      "byteLength" : 3612
    },
    {
      "buffer" : 0,
      "byteOffset" : 818912,
      "byteLength" : 3612
    },
    {
      "buffer" : 0,
      "byteOffset" : 822524,
      "byteLength" : 4816
    },
    {
      "buffer" : 0,
      "byteOffset" : 827340,
      "byteLength" : 1204
    },
    {
      "buffer" : 0,
      "byteOffset" : 828544,
      "byteLength" : 2408
    },
    {
      "buffer" : 0,
      "byteOffset" : 830952,
      "byteLength" : 2408
    },
    {
      "buffer" : 0,
      "byteOffset" : 833360,
      "byteLength" : 2408
    },
    {
      "buffer" : 0,
      "byteOffset" : 835768,
      "byteLength" : 2408
    },
    {
      "buffer" : 0,
      "byteOffset" : 838176,
      "byteLength" : 264
    },
    {
      "buffer" : 0,
      "byteOffset" : 838440,
      "byteLength" : 672
    },
    {
      "buffer" : 0,
      "byteOffset" : 839112,
      "byteLength" : 672
    },
    {
      "buffer" : 0,
      "byteOffset" : 839784,
      "byteLength" : 896
    },
    {
      "buffer" : 0,
      "byteOffset" : 840680,
      "byteLength" : 224
    },
    {
      "buffer" : 0,
      "byteOffset" : 840904,
      "byteLength" : 448
    },
    {
      "buffer" : 0,
      "byteOffset" : 841352,
      "byteLength" : 448
    },
    {
      "buffer" : 0,
      "byteOffset" : 841800,
      "byteLength" : 448
    },
    {
      "buffer" : 0,
      "byteOffset" : 842248,
      "byteLength" : 448
    },
    {
      "buffer" : 0,
      "byteOffset" : 842696,
      "byteLength" : 504
    },
    {
      "buffer" : 0,
      "byteOffset" : 843200,
      "byteLength" : 1104
    },
    {
      "buffer" : 0,
      "byteOffset" : 844304,
      "byteLength" : 1104
    },
    {
      "buffer" : 0,
      "byteOffset" : 845408,
      "byteLength" : 1472
    },
    {
      "buffer" : 0,
      "byteOffset" : 846880,
      "byteLength" : 368
    },
    {
      "buffer" : 0,
      "byteOffset" : 847248,
      "byteLength" : 736
    },
    {
      "buffer" : 0,
      "byteOffset" : 847984,
      "byteLength" : 736
    },
    {
      "buffer" : 0,
      "byteOffset" : 848720,
      "byteLength" : 736
    },
    {
      "buffer" : 0,
      "byteOffset" : 849456,
      "byteLength" : 736
    },
    {
      "buffer" : 0,
      "byteOffset" : 850192,
      "byteLength" : 2592
    },
    {
      "buffer" : 0,
      "byteOffset" : 852784,
      "byteLength" : 6864
    },
    {
      "buffer" : 0,
      "byteOffset" : 859648,
      "byteLength" : 6864
    },
    {
      "buffer" : 0,
      "byteOffset" : 866512,
      "byteLength" : 9152
    },
    {
      "buffer" : 0,
      "byteOffset" : 875664,
      "byteLength" : 2288
    },
    {
      "buffer" : 0,
      "byteOffset" : 877952,
      "byteLength" : 4576
    },
    {
      "buffer" : 0,
      "byteOffset" : 882528,
      "byteLength" : 4576
    },
    {
      "buffer" : 0,
      "byteOffset" : 887104,
      "byteLength" : 4576
    },
    {
      "buffer" : 0,
      "byteOffset" : 891680,
      "byteLength" : 4576
    },
    {
      "buffer" : 0,
      "byteOffset" : 896256,
      "byteLength" : 2256
    },
    {
      "buffer" : 0,
      "byteOffset" : 898512,
      "byteLength" : 3696
    },
    {
      "buffer" : 0,
      "byteOffset" : 902208,
      "byteLength" : 3696
    },
    {
      "buffer" : 0,
      "byteOffset" : 905904,
      "byteLength" : 4928
    },
    {
      "buffer" : 0,
      "byteOffset" : 910832,
      "byteLength" : 1232
    },
    {
      "buffer" : 0,
      "byteOffset" : 912064,
      "byteLength" : 2464
    },
    {
      "buffer" : 0,
      "byteOffset" : 914528,
      "byteLength" : 2464
    },
    {
      "buffer" : 0,
      "byteOffset" : 916992,
      "byteLength" : 2464
    },
    {
      "buffer" : 0,
      "byteOffset" : 919456,
      "byteLength" : 2464
    },
    {
      "buffer" : 0,
      "byteOffset" : 921920,
      "byteLength" : 16800
    },
    {
      "buffer" : 0,
      "byteOffset" : 938720,
      "byteLength" : 31236
    },
    {
      "buffer" : 0,
      "byteOffset" : 969956,
      "byteLength" : 31236
    },
    {
      "buffer" : 0,
      "byteOffset" : 1001192,
      "byteLength" : 41648
    },
    {
      "buffer" : 0,
      "byteOffset" : 1042840,
      "byteLength" : 10412
    },
    {
      "buffer" : 0,
      "byteOffset" : 1053252,
      "byteLength" : 20824
    },
    {
      "buffer" : 0,
      "byteOffset" : 1074076,
      "byteLength" : 20824
    },
    {
      "buffer" : 0,
      "byteOffset" : 1094900,
      "byteLength" : 20824
    },
    {
      "buffer" : 0,
      "byteOffset" : 1115724,
      "byteLength" : 20824
    },
    {
      "buffer" : 0,
      "byteOffset" : 1136548,
      "byteLength" : 33096
    },
    {
      "buffer" : 0,
      "byteOffset" : 1169644,
      "byteLength" : 61584
    },
    {
      "buffer" : 0,
      "byteOffset" : 1231228,
      "byteLength" : 61584
    },
    {
      "buffer" : 0,
      "byteOffset" : 1292812,
      "byteLength" : 82112
    },
    {
      "buffer" : 0,
      "byteOffset" : 1374924,
      "byteLength" : 20528
    },
    {
      "buffer" : 0,
      "byteOffset" : 1395452,
      "byteLength" : 41056
    },
    {
      "buffer" : 0,
      "byteOffset" : 1436508,
      "byteLength" : 41056
    },
    {
      "buffer" : 0,
      "byteOffset" : 1477564,
      "byteLength" : 41056
    },
    {
      "buffer" : 0,
      "byteOffset" : 1518620,
      "byteLength" : 41056
    },
    {
      "buffer" : 0,
      "byteOffset" : 1559676,
      "byteLength" : 576
    },
    {
      "buffer" : 0,
      "byteOffset" : 1560252,
      "byteLength" : 1248
    },
    {
      "buffer" : 0,
      "byteOffset" : 1561500,
      "byteLength" : 1248
    },
    {
      "buffer" : 0,
      "byteOffset" : 1562748,
      "byteLength" : 1664
    },
    {
      "buffer" : 0,
      "byteOffset" : 1564412,
      "byteLength" : 416
    },
    {
      "buffer" : 0,
      "byteOffset" : 1564828,
      "byteLength" : 832
    },
    {
      "buffer" : 0,
      "byteOffset" : 1565660,
      "byteLength" : 832
    },
    {
      "buffer" : 0,
      "byteOffset" : 1566492,
      "byteLength" : 832
    },
    {
      "buffer" : 0,
      "byteOffset" : 1567324,
      "byteLength" : 832
    },
    {
      "buffer" : 0,
      "byteOffset" : 1568156,
      "byteLength" : 60
    },
    {
      "buffer" : 0,
      "byteOffset" : 1568216,
      "byteLength" : 240
    },
    {
      "buffer" : 0,
      "byteOffset" : 1568456,
      "byteLength" : 240
    },
    {
      "buffer" : 0,
      "byteOffset" : 1568696,
      "byteLength" : 320
    },
    {
      "buffer" : 0,
      "byteOffset" : 1569016,
      "byteLength" : 80
    },
    {
      "buffer" : 0,
      "byteOffset" : 1569096,
      "byteLength" : 160
    },
    {
      "buffer" : 0,
      "byteOffset" : 1569256,
      "byteLength" : 160
    },
    {
      "buffer" : 0,
      "byteOffset" : 1569416,
      "byteLength" : 160
    },
    {
      "buffer" : 0,
      "byteOffset" : 1569576,
      "byteLength" : 160
    }
  ],
  "accessors" : [
    {
      "bufferView" : 0,
      "componentType" : 5123,
      "count" : 384,
      "type" : "SCALAR"
    },
    {
      "bufferView" : 1,
      "min" : [ -53.4169, 6.13686, 15.1442 ],
      "max" : [ -22.3654, 35.3826, 46.1957 ],
      "componentType" : 5126,
      "count" : 254,
      "type" : "VEC3"
    },
    {
      "bufferView" : 2,
      "componentType" : 5126,
      "count" : 254,
      "type" : "VEC3"
    },
    {
      "bufferView" : 3,
      "componentType" : 5126,
      "count" : 254,
      "type" : "VEC4"
    },
    {
      "bufferView" : 4,
      "normalized" : true,
      "componentType" : 5121,
      "count" : 254,
      "type" : "VEC4"
    },
    {
      "bufferView" : 5,
      "componentType" : 5126,
      "count" : 254,
      "type" : "VEC2"
    },
    {
      "bufferView" : 6,
      "componentType" : 5126,
      "count" : 254,
      "type" : "VEC2"
    },
    {
      "bufferView" : 7,
      "componentType" : 5126,
      "count" : 254,
      "type" : "VEC2"
    },
    {
      "bufferView" : 8,
      "componentType" : 5126,
      "count" : 254,
      "type" : "VEC2"
    },
    {
      "bufferView" : 9,
      "componentType" : 5123,
      "count" : 5433,
      "type" : "SCALAR"
    },
    {
      "bufferView" : 10,
      "min" : [ -53.4639, 6.03686, 15.0959 ],
      "max" : [ -22.3171, 35.5036, 46.2426 ],
      "componentType" : 5126,
      "count" : 3462,
      "type" : "VEC3"
    },
    {
      "bufferView" : 11,
      "componentType" : 5126,
      "count" : 3462,
      "type" : "VEC3"
    },
    {
      "bufferView" : 12,
      "componentType" : 5126,
      "count" : 3462,
      "type" : "VEC4"
    },
    {
      "bufferView" : 13,
      "normalized" : true,
      "componentType" : 5121,
      "count" : 3462,
      "type" : "VEC4"
    },
    {
      "bufferView" : 14,
      "componentType" : 5126,
      "count" : 3462,
      "type" : "VEC2"
    },
    {
      "bufferView" : 15,
      "componentType" : 5126,
      "count" : 3462,
      "type" : "VEC2"
    },
    {
      "bufferView" : 16,
      "componentType" : 5126,
      "count" : 3462,
      "type" : "VEC2"
    },
    {
      "bufferView" : 17,
      "componentType" : 5126,
      "count" : 3462,
      "type" : "VEC2"
    },
    {
      "bufferView" : 18,
      "componentType" : 5123,
      "count" : 360,
      "type" : "SCALAR"
    },
    {
      "bufferView" : 19,
      "min" : [ -50.2709, 7.24831, 15.4232 ],
      "max" : [ -22.6444, 40.1481, 42.9815 ],
      "componentType" : 5126,
      "count" : 224,
      "type" : "VEC3"
    },
    {
      "bufferView" : 20,
      "componentType" : 5126,
      "count" : 224,
      "type" : "VEC3"
    },
    {
      "bufferView" : 21,
      "componentType" : 5126,
      "count" : 224,
      "type" : "VEC4"
    },
    {
      "bufferView" : 22,
      "normalized" : true,
      "componentType" : 5121,
      "count" : 224,
      "type" : "VEC4"
    },
    {
      "bufferView" : 23,
      "componentType" : 5126,
      "count" : 224,
      "type" : "VEC2"
    },
    {
      "bufferView" : 24,
      "componentType" : 5126,
      "count" : 224,
      "type" : "VEC2"
    },
    {
      "bufferView" : 25,
      "componentType" : 5126,
      "count" : 224,
      "type" : "VEC2"
    },
    {
      "bufferView" : 26,
      "componentType" : 5126,
      "count" : 224,
      "type" : "VEC2"
    },
    {
      "bufferView" : 27,
      "componentType" : 5123,
      "count" : 1821,
      "type" : "SCALAR"
    },
    {
      "bufferView" : 28,
      "min" : [ -53.406, 7.43299, 14.4452 ],
      "max" : [ -21.4941, 40.3231, 46.1848 ],
      "componentType" : 5126,
      "count" : 849,
      "type" : "VEC3"
    },
    {
      "bufferView" : 29,
      "componentType" : 5126,
      "count" : 849,
      "type" : "VEC3"
    },
    {
      "bufferView" : 30,
      "componentType" : 5126,
      "count" : 849,
      "type" : "VEC4"
    },
    {
      "bufferView" : 31,
      "normalized" : true,
      "componentType" : 5121,
      "count" : 849,
      "type" : "VEC4"
    },
    {
      "bufferView" : 32,
      "componentType" : 5126,
      "count" : 849,
      "type" : "VEC2"
    },
    {
      "bufferView" : 33,
      "componentType" : 5126,
      "count" : 849,
      "type" : "VEC2"
    },
    {
      "bufferView" : 34,
      "componentType" : 5126,
      "count" : 849,
      "type" : "VEC2"
    },
    {
      "bufferView" : 35,
      "componentType" : 5126,
      "count" : 849,
      "type" : "VEC2"
    },
    {
      "bufferView" : 36,
      "componentType" : 5123,
      "count" : 4533,
      "type" : "SCALAR"
    },
    {
      "bufferView" : 37,
      "min" : [ -52.6141, 6.9444, 14.1379 ],
      "max" : [ -21.3714, 31.2072, 45.3737 ],
      "componentType" : 5126,
      "count" : 2863,
      "type" : "VEC3"
    },
    {
      "bufferView" : 38,
      "componentType" : 5126,
      "count" : 2863,
      "type" : "VEC3"
    },
    {
      "bufferView" : 39,
      "componentType" : 5126,
      "count" : 2863,
      "type" : "VEC4"
    },
    {
      "bufferView" : 40,
      "normalized" : true,
      "componentType" : 5121,
      "count" : 2863,
      "type" : "VEC4"
    },
    {
      "bufferView" : 41,
      "componentType" : 5126,
      "count" : 2863,
      "type" : "VEC2"
    },
    {
      "bufferView" : 42,
      "componentType" : 5126,
      "count" : 2863,
      "type" : "VEC2"
    },
    {
      "bufferView" : 43,
      "componentType" : 5126,
      "count" : 2863,
      "type" : "VEC2"
    },
    {
      "bufferView" : 44,
      "componentType" : 5126,
      "count" : 2863,
      "type" : "VEC2"
    },
    {
      "bufferView" : 45,
      "componentType" : 5123,
      "count" : 1824,
      "type" : "SCALAR"
    },
    {
      "bufferView" : 46,
      "min" : [ -55.5458, 9.98895, 12.4967 ],
      "max" : [ -19.718, 41.3975, 48.3246 ],
      "componentType" : 5126,
      "count" : 1012,
      "type" : "VEC3"
    },
    {
      "bufferView" : 47,
      "componentType" : 5126,
      "count" : 1012,
      "type" : "VEC3"
    },
    {
      "bufferView" : 48,
      "componentType" : 5126,
      "count" : 1012,
      "type" : "VEC4"
    },
    {
      "bufferView" : 49,
      "normalized" : true,
      "componentType" : 5121,
      "count" : 1012,
      "type" : "VEC4"
    },
    {
      "bufferView" : 50,
      "componentType" : 5126,
      "count" : 1012,
      "type" : "VEC2"
    },
    {
      "bufferView" : 51,
      "componentType" : 5126,
      "count" : 1012,
      "type" : "VEC2"
    },
    {
      "bufferView" : 52,
      "componentType" : 5126,
      "count" : 1012,
      "type" : "VEC2"
    },
    {
      "bufferView" : 53,
      "componentType" : 5126,
      "count" : 1012,
      "type" : "VEC2"
    },
    {
      "bufferView" : 54,
      "componentType" : 5123,
      "count" : 2448,
      "type" : "SCALAR"
    },
    {
      "bufferView" : 55,
      "min" : [ -53.8294, 6, 14.6468 ],
      "max" : [ -21.868, 36.2536, 46.6082 ],
      "componentType" : 5126,
      "count" : 1604,
      "type" : "VEC3"
    },
    {
      "bufferView" : 56,
      "componentType" : 5126,
      "count" : 1604,
      "type" : "VEC3"
    },
    {
      "bufferView" : 57,
      "componentType" : 5126,
      "count" : 1604,
      "type" : "VEC4"
    },
    {
      "bufferView" : 58,
      "normalized" : true,
      "componentType" : 5121,
      "count" : 1604,
      "type" : "VEC4"
    },
    {
      "bufferView" : 59,
      "componentType" : 5126,
      "count" : 1604,
      "type" : "VEC2"
    },
    {
      "bufferView" : 60,
      "componentType" : 5126,
      "count" : 1604,
      "type" : "VEC2"
    },
    {
      "bufferView" : 61,
      "componentType" : 5126,
      "count" : 1604,
      "type" : "VEC2"
    },
    {
      "bufferView" : 62,
      "componentType" : 5126,
      "count" : 1604,
      "type" : "VEC2"
    },
    {
      "bufferView" : 63,
      "componentType" : 5123,
      "count" : 660,
      "type" : "SCALAR"
    },
    {
      "bufferView" : 64,
      "min" : [ -32.1584, 9.22463, 20.5278 ],
      "max" : [ -27.7887, 11.3107, 24.9343 ],
      "componentType" : 5126,
      "count" : 301,
      "type" : "VEC3"
    },
    {
      "bufferView" : 65,
      "componentType" : 5126,
      "count" : 301,
      "type" : "VEC3"
    },
    {
      "bufferView" : 66,
      "componentType" : 5126,
      "count" : 301,
      "type" : "VEC4"
    },
    {
      "bufferView" : 67,
      "normalized" : true,
      "componentType" : 5121,
      "count" : 301,
      "type" : "VEC4"
    },
    {
      "bufferView" : 68,
      "componentType" : 5126,
      "count" : 301,
      "type" : "VEC2"
    },
    {
      "bufferView" : 69,
      "componentType" : 5126,
      "count" : 301,
      "type" : "VEC2"
    },
    {
      "bufferView" : 70,
      "componentType" : 5126,
      "count" : 301,
      "type" : "VEC2"
    },
    {
      "bufferView" : 71,
      "componentType" : 5126,
      "count" : 301,
      "type" : "VEC2"
    },
    {
      "bufferView" : 72,
      "componentType" : 5123,
      "count" : 132,
      "type" : "SCALAR"
    },
    {
      "bufferView" : 73,
      "min" : [ -35.7814, 34.5373, 23.0557 ],
      "max" : [ -30.2769, 37.7558, 28.5602 ],
      "componentType" : 5126,
      "count" : 56,
      "type" : "VEC3"
    },
    {
      "bufferView" : 74,
      "componentType" : 5126,
      "count" : 56,
      "type" : "VEC3"
    },
    {
      "bufferView" : 75,
      "componentType" : 5126,
      "count" : 56,
      "type" : "VEC4"
    },
    {
      "bufferView" : 76,
      "normalized" : true,
      "componentType" : 5121,
      "count" : 56,
      "type" : "VEC4"
    },
    {
      "bufferView" : 77,
      "componentType" : 5126,
      "count" : 56,
      "type" : "VEC2"
    },
    {
      "bufferView" : 78,
      "componentType" : 5126,
      "count" : 56,
      "type" : "VEC2"
    },
    {
      "bufferView" : 79,
      "componentType" : 5126,
      "count" : 56,
      "type" : "VEC2"
    },
    {
      "bufferView" : 80,
      "componentType" : 5126,
      "count" : 56,
      "type" : "VEC2"
    },
    {
      "bufferView" : 81,
      "componentType" : 5123,
      "count" : 252,
      "type" : "SCALAR"
    },
    {
      "bufferView" : 82,
      "min" : [ -50.8771, 24.9138, 20.2082 ],
      "max" : [ -27.4294, 31.9036, 43.6559 ],
      "componentType" : 5126,
      "count" : 92,
      "type" : "VEC3"
    },
    {
      "bufferView" : 83,
      "componentType" : 5126,
      "count" : 92,
      "type" : "VEC3"
    },
    {
      "bufferView" : 84,
      "componentType" : 5126,
      "count" : 92,
      "type" : "VEC4"
    },
    {
      "bufferView" : 85,
      "normalized" : true,
      "componentType" : 5121,
      "count" : 92,
      "type" : "VEC4"
    },
    {
      "bufferView" : 86,
      "componentType" : 5126,
      "count" : 92,
      "type" : "VEC2"
    },
    {
      "bufferView" : 87,
      "componentType" : 5126,
      "count" : 92,
      "type" : "VEC2"
    },
    {
      "bufferView" : 88,
      "componentType" : 5126,
      "count" : 92,
      "type" : "VEC2"
    },
    {
      "bufferView" : 89,
      "componentType" : 5126,
      "count" : 92,
      "type" : "VEC2"
    },
    {
      "bufferView" : 90,
      "componentType" : 5123,
      "count" : 1296,
      "type" : "SCALAR"
    },
    {
      "bufferView" : 91,
      "min" : [ -50.8624, 36.416, 16.2951 ],
      "max" : [ -23.5163, 41.5434, 43.6412 ],
      "componentType" : 5126,
      "count" : 572,
      "type" : "VEC3"
    },
    {
      "bufferView" : 92,
      "componentType" : 5126,
      "count" : 572,
      "type" : "VEC3"
    },
    {
      "bufferView" : 93,
      "componentType" : 5126,
      "count" : 572,
      "type" : "VEC4"
    },
    {
      "bufferView" : 94,
      "normalized" : true,
      "componentType" : 5121,
      "count" : 572,
      "type" : "VEC4"
    },
    {
      "bufferView" : 95,
      "componentType" : 5126,
      "count" : 572,
      "type" : "VEC2"
    },
    {
      "bufferView" : 96,
      "componentType" : 5126,
      "count" : 572,
      "type" : "VEC2"
    },
    {
      "bufferView" : 97,
      "componentType" : 5126,
      "count" : 572,
      "type" : "VEC2"
    },
    {
      "bufferView" : 98,
      "componentType" : 5126,
      "count" : 572,
      "type" : "VEC2"
    },
    {
      "bufferView" : 99,
      "componentType" : 5123,
      "count" : 1128,
      "type" : "SCALAR"
    },
    {
      "bufferView" : 100,
      "min" : [ -32.0564, 19.6233, 18.1404 ],
      "max" : [ -25.3608, 21.5349, 24.836 ],
      "componentType" : 5126,
      "count" : 308,
      "type" : "VEC3"
    },
    {
      "bufferView" : 101,
      "componentType" : 5126,
      "count" : 308,
      "type" : "VEC3"
    },
    {
      "bufferView" : 102,
      "componentType" : 5126,
      "count" : 308,
      "type" : "VEC4"
    },
    {
      "bufferView" : 103,
      "normalized" : true,
      "componentType" : 5121,
      "count" : 308,
      "type" : "VEC4"
    },
    {
      "bufferView" : 104,
      "componentType" : 5126,
      "count" : 308,
      "type" : "VEC2"
    },
    {
      "bufferView" : 105,
      "componentType" : 5126,
      "count" : 308,
      "type" : "VEC2"
    },
    {
      "bufferView" : 106,
      "componentType" : 5126,
      "count" : 308,
      "type" : "VEC2"
    },
    {
      "bufferView" : 107,
      "componentType" : 5126,
      "count" : 308,
      "type" : "VEC2"
    },
    {
      "bufferView" : 108,
      "componentType" : 5123,
      "count" : 8400,
      "type" : "SCALAR"
    },
    {
      "bufferView" : 109,
      "min" : [ -55.2741, 9.29445, 12.6064 ],
      "max" : [ -19.7776, 22.6068, 47.009 ],
      "componentType" : 5126,
      "count" : 2603,
      "type" : "VEC3"
    },
    {
      "bufferView" : 110,
      "componentType" : 5126,
      "count" : 2603,
      "type" : "VEC3"
    },
    {
      "bufferView" : 111,
      "componentType" : 5126,
      "count" : 2603,
      "type" : "VEC4"
    },
    {
      "bufferView" : 112,
      "normalized" : true,
      "componentType" : 5121,
      "count" : 2603,
      "type" : "VEC4"
    },
    {
      "bufferView" : 113,
      "componentType" : 5126,
      "count" : 2603,
      "type" : "VEC2"
    },
    {
      "bufferView" : 114,
      "componentType" : 5126,
      "count" : 2603,
      "type" : "VEC2"
    },
    {
      "bufferView" : 115,
      "componentType" : 5126,
      "count" : 2603,
      "type" : "VEC2"
    },
    {
      "bufferView" : 116,
      "componentType" : 5126,
      "count" : 2603,
      "type" : "VEC2"
    },
    {
      "bufferView" : 117,
      "componentType" : 5123,
      "count" : 16548,
      "type" : "SCALAR"
    },
    {
      "bufferView" : 118,
      "min" : [ -51.6732, 6.01554, 14.5135 ],
      "max" : [ -21.7157, 36.3155, 42.0291 ],
      "componentType" : 5126,
      "count" : 5132,
      "type" : "VEC3"
    },
    {
      "bufferView" : 119,
      "componentType" : 5126,
      "count" : 5132,
      "type" : "VEC3"
    },
    {
      "bufferView" : 120,
      "componentType" : 5126,
      "count" : 5132,
      "type" : "VEC4"
    },
    {
      "bufferView" : 121,
      "normalized" : true,
      "componentType" : 5121,
      "count" : 5132,
      "type" : "VEC4"
    },
    {
      "bufferView" : 122,
      "componentType" : 5126,
      "count" : 5132,
      "type" : "VEC2"
    },
    {
      "bufferView" : 123,
      "componentType" : 5126,
      "count" : 5132,
      "type" : "VEC2"
    },
    {
      "bufferView" : 124,
      "componentType" : 5126,
      "count" : 5132,
      "type" : "VEC2"
    },
    {
      "bufferView" : 125,
      "componentType" : 5126,
      "count" : 5132,
      "type" : "VEC2"
    },
    {
      "bufferView" : 126,
      "componentType" : 5123,
      "count" : 288,
      "type" : "SCALAR"
    },
    {
      "bufferView" : 127,
      "min" : [ -50.8271, 24.5913, 20.2582 ],
      "max" : [ -27.4794, 31.4689, 43.6059 ],
      "componentType" : 5126,
      "count" : 104,
      "type" : "VEC3"
    },
    {
      "bufferView" : 128,
      "componentType" : 5126,
      "count" : 104,
      "type" : "VEC3"
    },
    {
      "bufferView" : 129,
      "componentType" : 5126,
      "count" : 104,
      "type" : "VEC4"
    },
    {
      "bufferView" : 130,
      "normalized" : true,
      "componentType" : 5121,
      "count" : 104,
      "type" : "VEC4"
    },
    {
      "bufferView" : 131,
      "componentType" : 5126,
      "count" : 104,
      "type" : "VEC2"
    },
    {
      "bufferView" : 132,
      "componentType" : 5126,
      "count" : 104,
      "type" : "VEC2"
    },
    {
      "bufferView" : 133,
      "componentType" : 5126,
      "count" : 104,
      "type" : "VEC2"
    },
    {
      "bufferView" : 134,
      "componentType" : 5126,
      "count" : 104,
      "type" : "VEC2"
    },
    {
      "bufferView" : 135,
      "componentType" : 5123,
      "count" : 30,
      "type" : "SCALAR"
    },
    {
      "bufferView" : 136,
      "min" : [ -35.4264, 6.04191, 21.3409 ],
      "max" : [ -28.6053, 9.73686, 28.162 ],
      "componentType" : 5126,
      "count" : 20,
      "type" : "VEC3"
    },
    {
      "bufferView" : 137,
      "componentType" : 5126,
      "count" : 20,
      "type" : "VEC3"
    },
    {
      "bufferView" : 138,
      "componentType" : 5126,
      "count" : 20,
      "type" : "VEC4"
    },
    {
      "bufferView" : 139,
      "normalized" : true,
      "componentType" : 5121,
      "count" : 20,
      "type" : "VEC4"
    },
    {
      "bufferView" : 140,
      "componentType" : 5126,
      "count" : 20,
      "type" : "VEC2"
    },
    {
      "bufferView" : 141,
      "componentType" : 5126,
      "count" : 20,
      "type" : "VEC2"
    },
    {
      "bufferView" : 142,
      "componentType" : 5126,
      "count" : 20,
      "type" : "VEC2"
    },
    {
      "bufferView" : 143,
      "componentType" : 5126,
      "count" : 20,
      "type" : "VEC2"
    }
  ]
}
