{
  "asset" : {
    "generator" : "UE Viewer (umodel) build 1544 based",
    "version" : "2.0"
  },
  "scene" : 0,
  "scenes" : [
    {
      "nodes" : [ 0 ]
    }
  ],
  "nodes" : [
    {
      "name" : "SM_ENV_LKNVLD_Hatago_Flag_Lod3",
      "mesh" : 0
    }
  ],
  "materials" : [
    {
      "name" : "MI_ENV_LKNVLD_Curtain_E",
      "pbrMetallicRoughness" : {
        "baseColorFactor" : [ 0.3, 0.3, 0.3, 1.0 ],
        "metallicFactor" : 0.1,
        "roughnessFactor" : 0.5
      }
    },
    {
      "name" : "MI_ENV_LKNVLD_MetalRoofDark_LOD",
      "pbrMetallicRoughness" : {
        "baseColorFactor" : [ 0.9, 0.3, 0.3, 1.0 ],
        "metallicFactor" : 0.1,
        "roughnessFactor" : 0.5
      }
    }
  ],
  "meshes" : [
    {
      "primitives" : [
        {
          "attributes" : {
            "POSITION" : 1,
            "NORMAL" : 2,
            "TANGENT" : 3,
            "TEXCOORD_0" : 4,
            "TEXCOORD_1" : 5,
            "TEXCOORD_2" : 6,
            "TEXCOORD_3" : 7
          },
          "indices" : 0,
          "material" : 0
        },
        {
          "attributes" : {
            "POSITION" : 9,
            "NORMAL" : 10,
            "TANGENT" : 11,
            "TEXCOORD_0" : 12,
            "TEXCOORD_1" : 13,
            "TEXCOORD_2" : 14,
            "TEXCOORD_3" : 15
          },
          "indices" : 8,
          "material" : 1
        }
      ],
      "name" : "SM_ENV_LKNVLD_Hatago_Flag_Lod3"
    }
  ],
  "buffers" : [
    {
      "uri" : "SM_ENV_LKNVLD_Hatago_Flag_Lod3.bin",
      "byteLength" : 53804
    }
  ],
  "bufferViews" : [
    {
      "buffer" : 0,
      "byteOffset" : 0,
      "byteLength" : 2324
    },
    {
      "buffer" : 0,
      "byteOffset" : 2324,
      "byteLength" : 6252
    },
    {
      "buffer" : 0,
      "byteOffset" : 8576,
      "byteLength" : 6252
    },
    {
      "buffer" : 0,
      "byteOffset" : 14828,
      "byteLength" : 8336
    },
    {
      "buffer" : 0,
      "byteOffset" : 23164,
      "byteLength" : 4168
    },
    {
      "buffer" : 0,
      "byteOffset" : 27332,
      "byteLength" : 4168
    },
    {
      "buffer" : 0,
      "byteOffset" : 31500,
      "byteLength" : 4168
    },
    {
      "buffer" : 0,
      "byteOffset" : 35668,
      "byteLength" : 4168
    },
    {
      "buffer" : 0,
      "byteOffset" : 39836,
      "byteLength" : 576
    },
    {
      "buffer" : 0,
      "byteOffset" : 40412,
      "byteLength" : 2232
    },
    {
      "buffer" : 0,
      "byteOffset" : 42644,
      "byteLength" : 2232
    },
    {
      "buffer" : 0,
      "byteOffset" : 44876,
      "byteLength" : 2976
    },
    {
      "buffer" : 0,
      "byteOffset" : 47852,
      "byteLength" : 1488
    },
    {
      "buffer" : 0,
      "byteOffset" : 49340,
      "byteLength" : 1488
    },
    {
      "buffer" : 0,
      "byteOffset" : 50828,
      "byteLength" : 1488
    },
    {
      "buffer" : 0,
      "byteOffset" : 52316,
      "byteLength" : 1488
    }
  ],
  "accessors" : [
    {
      "bufferView" : 0,
      "componentType" : 5123,
      "count" : 1161,
      "type" : "SCALAR"
    },
    {
      "bufferView" : 1,
      "min" : [ -37.3802, 11.0336, -7.4641 ],
      "max" : [ -35.9363, 15.5038, -3.4311 ],
      "componentType" : 5126,
      "count" : 521,
      "type" : "VEC3"
    },
    {
      "bufferView" : 2,
      "componentType" : 5126,
      "count" : 521,
      "type" : "VEC3"
    },
    {
      "bufferView" : 3,
      "componentType" : 5126,
      "count" : 521,
      "type" : "VEC4"
    },
    {
      "bufferView" : 4,
      "componentType" : 5126,
      "count" : 521,
      "type" : "VEC2"
    },
    {
      "bufferView" : 5,
      "componentType" : 5126,
      "count" : 521,
      "type" : "VEC2"
    },
    {
      "bufferView" : 6,
      "componentType" : 5126,
      "count" : 521,
      "type" : "VEC2"
    },
    {
      "bufferView" : 7,
      "componentType" : 5126,
      "count" : 521,
      "type" : "VEC2"
    },
    {
      "bufferView" : 8,
      "componentType" : 5123,
      "count" : 288,
      "type" : "SCALAR"
    },
    {
      "bufferView" : 9,
      "min" : [ -37.3936, 10.9468, -7.49901 ],
      "max" : [ -35.9619, 15.4832, -3.38424 ],
      "componentType" : 5126,
      "count" : 186,
      "type" : "VEC3"
    },
    {
      "bufferView" : 10,
      "componentType" : 5126,
      "count" : 186,
      "type" : "VEC3"
    },
    {
      "bufferView" : 11,
      "componentType" : 5126,
      "count" : 186,
      "type" : "VEC4"
    },
    {
      "bufferView" : 12,
      "componentType" : 5126,
      "count" : 186,
      "type" : "VEC2"
    },
    {
      "bufferView" : 13,
      "componentType" : 5126,
      "count" : 186,
      "type" : "VEC2"
    },
    {
      "bufferView" : 14,
      "componentType" : 5126,
      "count" : 186,
      "type" : "VEC2"
    },
    {
      "bufferView" : 15,
      "componentType" : 5126,
      "count" : 186,
      "type" : "VEC2"
    }
  ]
}
