{
  "asset" : {
    "generator" : "UE Viewer (umodel) build 1544 based",
    "version" : "2.0"
  },
  "scene" : 0,
  "scenes" : [
    {
      "nodes" : [ 0 ]
    }
  ],
  "nodes" : [
    {
      "name" : "SM_ENV_LKNVLD_WallSet_Bridge_Lod1",
      "mesh" : 0
    }
  ],
  "materials" : [
    {
      "name" : "MI_ENV_LKNVLD_MetalRoof_Green",
      "pbrMetallicRoughness" : {
        "baseColorFactor" : [ 0.3, 0.3, 0.3, 1.0 ],
        "metallicFactor" : 0.1,
        "roughnessFactor" : 0.5
      }
    },
    {
      "name" : "MI_ENV_LKNVLD_WoodPlain_Red_LOD",
      "pbrMetallicRoughness" : {
        "baseColorFactor" : [ 0.9, 0.3, 0.3, 1.0 ],
        "metallicFactor" : 0.1,
        "roughnessFactor" : 0.5
      }
    },
    {
      "name" : "MI_ENV_LKNVLD_WoodWallSet_LOD",
      "pbrMetallicRoughness" : {
        "baseColorFactor" : [ 0.3, 0.9, 0.3, 1.0 ],
        "metallicFactor" : 0.1,
        "roughnessFactor" : 0.5
      }
    },
    {
      "name" : "MI_ENV_LKNVLD_StoneTrim_Ground_LOD",
      "pbrMetallicRoughness" : {
        "baseColorFactor" : [ 0.3, 0.3, 0.9, 1.0 ],
        "metallicFactor" : 0.1,
        "roughnessFactor" : 0.5
      }
    },
    {
      "name" : "MI_ENV_LKNVLD_WoodWallSet_Red_LOD",
      "pbrMetallicRoughness" : {
        "baseColorFactor" : [ 0.9, 0.9, 0.9, 1.0 ],
        "metallicFactor" : 0.1,
        "roughnessFactor" : 0.5
      }
    },
    {
      "name" : "MI_ENV_LKNVLD_Signboard_A",
      "pbrMetallicRoughness" : {
        "baseColorFactor" : [ 0.9, 0.9, 0.3, 1.0 ],
        "metallicFactor" : 0.1,
        "roughnessFactor" : 0.5
      }
    },
    {
      "name" : "MI_ENV_LKNVLD_Eaves_B_LOD",
      "pbrMetallicRoughness" : {
        "baseColorFactor" : [ 0.9, 0.3, 0.9, 1.0 ],
        "metallicFactor" : 0.1,
        "roughnessFactor" : 0.5
      }
    },
    {
      "name" : "MI_ENV_LKNVLD_WoodBoard_Natural_Lighter_LOD",
      "pbrMetallicRoughness" : {
        "baseColorFactor" : [ 0.3, 0.9, 0.9, 1.0 ],
        "metallicFactor" : 0.1,
        "roughnessFactor" : 0.5
      }
    }
  ],
  "meshes" : [
    {
      "primitives" : [
        {
          "attributes" : {
            "POSITION" : 1,
            "NORMAL" : 2,
            "TANGENT" : 3,
            "TEXCOORD_0" : 4,
            "TEXCOORD_1" : 5,
            "TEXCOORD_2" : 6,
            "TEXCOORD_3" : 7
          },
          "indices" : 0,
          "material" : 0
        },
        {
          "attributes" : {
            "POSITION" : 9,
            "NORMAL" : 10,
            "TANGENT" : 11,
            "TEXCOORD_0" : 12,
            "TEXCOORD_1" : 13,
            "TEXCOORD_2" : 14,
            "TEXCOORD_3" : 15
          },
          "indices" : 8,
          "material" : 1
        },
        {
          "attributes" : {
            "POSITION" : 17,
            "NORMAL" : 18,
            "TANGENT" : 19,
            "TEXCOORD_0" : 20,
            "TEXCOORD_1" : 21,
            "TEXCOORD_2" : 22,
            "TEXCOORD_3" : 23
          },
          "indices" : 16,
          "material" : 2
        },
        {
          "attributes" : {
            "POSITION" : 25,
            "NORMAL" : 26,
            "TANGENT" : 27,
            "TEXCOORD_0" : 28,
            "TEXCOORD_1" : 29,
            "TEXCOORD_2" : 30,
            "TEXCOORD_3" : 31
          },
          "indices" : 24,
          "material" : 3
        },
        {
          "attributes" : {
            "POSITION" : 33,
            "NORMAL" : 34,
            "TANGENT" : 35,
            "TEXCOORD_0" : 36,
            "TEXCOORD_1" : 37,
            "TEXCOORD_2" : 38,
            "TEXCOORD_3" : 39
          },
          "indices" : 32,
          "material" : 4
        },
        {
          "attributes" : {
            "POSITION" : 41,
            "NORMAL" : 42,
            "TANGENT" : 43,
            "TEXCOORD_0" : 44,
            "TEXCOORD_1" : 45,
            "TEXCOORD_2" : 46,
            "TEXCOORD_3" : 47
          },
          "indices" : 40,
          "material" : 5
        },
        {
          "attributes" : {
            "POSITION" : 49,
            "NORMAL" : 50,
            "TANGENT" : 51,
            "TEXCOORD_0" : 52,
            "TEXCOORD_1" : 53,
            "TEXCOORD_2" : 54,
            "TEXCOORD_3" : 55
          },
          "indices" : 48,
          "material" : 6
        },
        {
          "attributes" : {
            "POSITION" : 57,
            "NORMAL" : 58,
            "TANGENT" : 59,
            "TEXCOORD_0" : 60,
            "TEXCOORD_1" : 61,
            "TEXCOORD_2" : 62,
            "TEXCOORD_3" : 63
          },
          "indices" : 56,
          "material" : 7
        }
      ],
      "name" : "SM_ENV_LKNVLD_WallSet_Bridge_Lod1"
    }
  ],
  "buffers" : [
    {
      "uri" : "SM_ENV_LKNVLD_WallSet_Bridge_Lod1.bin",
      "byteLength" : 1056544
    }
  ],
  "bufferViews" : [
    {
      "buffer" : 0,
      "byteOffset" : 0,
      "byteLength" : 48
    },
    {
      "buffer" : 0,
      "byteOffset" : 48,
      "byteLength" : 192
    },
    {
      "buffer" : 0,
      "byteOffset" : 240,
      "byteLength" : 192
    },
    {
      "buffer" : 0,
      "byteOffset" : 432,
      "byteLength" : 256
    },
    {
      "buffer" : 0,
      "byteOffset" : 688,
      "byteLength" : 128
    },
    {
      "buffer" : 0,
      "byteOffset" : 816,
      "byteLength" : 128
    },
    {
      "buffer" : 0,
      "byteOffset" : 944,
      "byteLength" : 128
    },
    {
      "buffer" : 0,
      "byteOffset" : 1072,
      "byteLength" : 128
    },
    {
      "buffer" : 0,
      "byteOffset" : 1200,
      "byteLength" : 25640
    },
    {
      "buffer" : 0,
      "byteOffset" : 26840,
      "byteLength" : 80484
    },
    {
      "buffer" : 0,
      "byteOffset" : 107324,
      "byteLength" : 80484
    },
    {
      "buffer" : 0,
      "byteOffset" : 187808,
      "byteLength" : 107312
    },
    {
      "buffer" : 0,
      "byteOffset" : 295120,
      "byteLength" : 53656
    },
    {
      "buffer" : 0,
      "byteOffset" : 348776,
      "byteLength" : 53656
    },
    {
      "buffer" : 0,
      "byteOffset" : 402432,
      "byteLength" : 53656
    },
    {
      "buffer" : 0,
      "byteOffset" : 456088,
      "byteLength" : 53656
    },
    {
      "buffer" : 0,
      "byteOffset" : 509744,
      "byteLength" : 16656
    },
    {
      "buffer" : 0,
      "byteOffset" : 526400,
      "byteLength" : 47616
    },
    {
      "buffer" : 0,
      "byteOffset" : 574016,
      "byteLength" : 47616
    },
    {
      "buffer" : 0,
      "byteOffset" : 621632,
      "byteLength" : 63488
    },
    {
      "buffer" : 0,
      "byteOffset" : 685120,
      "byteLength" : 31744
    },
    {
      "buffer" : 0,
      "byteOffset" : 716864,
      "byteLength" : 31744
    },
    {
      "buffer" : 0,
      "byteOffset" : 748608,
      "byteLength" : 31744
    },
    {
      "buffer" : 0,
      "byteOffset" : 780352,
      "byteLength" : 31744
    },
    {
      "buffer" : 0,
      "byteOffset" : 812096,
      "byteLength" : 2484
    },
    {
      "buffer" : 0,
      "byteOffset" : 814580,
      "byteLength" : 4884
    },
    {
      "buffer" : 0,
      "byteOffset" : 819464,
      "byteLength" : 4884
    },
    {
      "buffer" : 0,
      "byteOffset" : 824348,
      "byteLength" : 6512
    },
    {
      "buffer" : 0,
      "byteOffset" : 830860,
      "byteLength" : 3256
    },
    {
      "buffer" : 0,
      "byteOffset" : 834116,
      "byteLength" : 3256
    },
    {
      "buffer" : 0,
      "byteOffset" : 837372,
      "byteLength" : 3256
    },
    {
      "buffer" : 0,
      "byteOffset" : 840628,
      "byteLength" : 3256
    },
    {
      "buffer" : 0,
      "byteOffset" : 843884,
      "byteLength" : 1212
    },
    {
      "buffer" : 0,
      "byteOffset" : 845096,
      "byteLength" : 3360
    },
    {
      "buffer" : 0,
      "byteOffset" : 848456,
      "byteLength" : 3360
    },
    {
      "buffer" : 0,
      "byteOffset" : 851816,
      "byteLength" : 4480
    },
    {
      "buffer" : 0,
      "byteOffset" : 856296,
      "byteLength" : 2240
    },
    {
      "buffer" : 0,
      "byteOffset" : 858536,
      "byteLength" : 2240
    },
    {
      "buffer" : 0,
      "byteOffset" : 860776,
      "byteLength" : 2240
    },
    {
      "buffer" : 0,
      "byteOffset" : 863016,
      "byteLength" : 2240
    },
    {
      "buffer" : 0,
      "byteOffset" : 865256,
      "byteLength" : 9456
    },
    {
      "buffer" : 0,
      "byteOffset" : 874712,
      "byteLength" : 23232
    },
    {
      "buffer" : 0,
      "byteOffset" : 897944,
      "byteLength" : 23232
    },
    {
      "buffer" : 0,
      "byteOffset" : 921176,
      "byteLength" : 30976
    },
    {
      "buffer" : 0,
      "byteOffset" : 952152,
      "byteLength" : 15488
    },
    {
      "buffer" : 0,
      "byteOffset" : 967640,
      "byteLength" : 15488
    },
    {
      "buffer" : 0,
      "byteOffset" : 983128,
      "byteLength" : 15488
    },
    {
      "buffer" : 0,
      "byteOffset" : 998616,
      "byteLength" : 15488
    },
    {
      "buffer" : 0,
      "byteOffset" : 1014104,
      "byteLength" : 1752
    },
    {
      "buffer" : 0,
      "byteOffset" : 1015856,
      "byteLength" : 6384
    },
    {
      "buffer" : 0,
      "byteOffset" : 1022240,
      "byteLength" : 6384
    },
    {
      "buffer" : 0,
      "byteOffset" : 1028624,
      "byteLength" : 8512
    },
    {
      "buffer" : 0,
      "byteOffset" : 1037136,
      "byteLength" : 4256
    },
    {
      "buffer" : 0,
      "byteOffset" : 1041392,
      "byteLength" : 4256
    },
    {
      "buffer" : 0,
      "byteOffset" : 1045648,
      "byteLength" : 4256
    },
    {
      "buffer" : 0,
      "byteOffset" : 1049904,
      "byteLength" : 4256
    },
    {
      "buffer" : 0,
      "byteOffset" : 1054160,
      "byteLength" : 152
    },
    {
      "buffer" : 0,
      "byteOffset" : 1054312,
      "byteLength" : 372
    },
    {
      "buffer" : 0,
      "byteOffset" : 1054684,
      "byteLength" : 372
    },
    {
      "buffer" : 0,
      "byteOffset" : 1055056,
      "byteLength" : 496
    },
    {
      "buffer" : 0,
      "byteOffset" : 1055552,
      "byteLength" : 248
    },
    {
      "buffer" : 0,
      "byteOffset" : 1055800,
      "byteLength" : 248
    },
    {
      "buffer" : 0,
      "byteOffset" : 1056048,
      "byteLength" : 248
    },
    {
      "buffer" : 0,
      "byteOffset" : 1056296,
      "byteLength" : 248
    }
  ],
  "accessors" : [
    {
      "bufferView" : 0,
      "componentType" : 5123,
      "count" : 24,
      "type" : "SCALAR"
    },
    {
      "bufferView" : 1,
      "min" : [ -4.29724, 0.264704, 64.114 ],
      "max" : [ 4.22171, 1.01122, 64.1177 ],
      "componentType" : 5126,
      "count" : 16,
      "type" : "VEC3"
    },
    {
      "bufferView" : 2,
      "componentType" : 5126,
      "count" : 16,
      "type" : "VEC3"
    },
    {
      "bufferView" : 3,
      "componentType" : 5126,
      "count" : 16,
      "type" : "VEC4"
    },
    {
      "bufferView" : 4,
      "componentType" : 5126,
      "count" : 16,
      "type" : "VEC2"
    },
    {
      "bufferView" : 5,
      "componentType" : 5126,
      "count" : 16,
      "type" : "VEC2"
    },
    {
      "bufferView" : 6,
      "componentType" : 5126,
      "count" : 16,
      "type" : "VEC2"
    },
    {
      "bufferView" : 7,
      "componentType" : 5126,
      "count" : 16,
      "type" : "VEC2"
    },
    {
      "bufferView" : 8,
      "componentType" : 5123,
      "count" : 12819,
      "type" : "SCALAR"
    },
    {
      "bufferView" : 9,
      "min" : [ -22.4503, -0.153507, 59.615 ],
      "max" : [ 22.4503, 8.72991, 72.1713 ],
      "componentType" : 5126,
      "count" : 6707,
      "type" : "VEC3"
    },
    {
      "bufferView" : 10,
      "componentType" : 5126,
      "count" : 6707,
      "type" : "VEC3"
    },
    {
      "bufferView" : 11,
      "componentType" : 5126,
      "count" : 6707,
      "type" : "VEC4"
    },
    {
      "bufferView" : 12,
      "componentType" : 5126,
      "count" : 6707,
      "type" : "VEC2"
    },
    {
      "bufferView" : 13,
      "componentType" : 5126,
      "count" : 6707,
      "type" : "VEC2"
    },
    {
      "bufferView" : 14,
      "componentType" : 5126,
      "count" : 6707,
      "type" : "VEC2"
    },
    {
      "bufferView" : 15,
      "componentType" : 5126,
      "count" : 6707,
      "type" : "VEC2"
    },
    {
      "bufferView" : 16,
      "componentType" : 5123,
      "count" : 8328,
      "type" : "SCALAR"
    },
    {
      "bufferView" : 17,
      "min" : [ -22.4503, -0.0166668, 60.4601 ],
      "max" : [ 22.4503, 7.49463, 71.3262 ],
      "componentType" : 5126,
      "count" : 3968,
      "type" : "VEC3"
    },
    {
      "bufferView" : 18,
      "componentType" : 5126,
      "count" : 3968,
      "type" : "VEC3"
    },
    {
      "bufferView" : 19,
      "componentType" : 5126,
      "count" : 3968,
      "type" : "VEC4"
    },
    {
      "bufferView" : 20,
      "componentType" : 5126,
      "count" : 3968,
      "type" : "VEC2"
    },
    {
      "bufferView" : 21,
      "componentType" : 5126,
      "count" : 3968,
      "type" : "VEC2"
    },
    {
      "bufferView" : 22,
      "componentType" : 5126,
      "count" : 3968,
      "type" : "VEC2"
    },
    {
      "bufferView" : 23,
      "componentType" : 5126,
      "count" : 3968,
      "type" : "VEC2"
    },
    {
      "bufferView" : 24,
      "componentType" : 5123,
      "count" : 1242,
      "type" : "SCALAR"
    },
    {
      "bufferView" : 25,
      "min" : [ -22.4503, -0.316669, 60.4011 ],
      "max" : [ 22.4503, 0.300002, 71.3852 ],
      "componentType" : 5126,
      "count" : 407,
      "type" : "VEC3"
    },
    {
      "bufferView" : 26,
      "componentType" : 5126,
      "count" : 407,
      "type" : "VEC3"
    },
    {
      "bufferView" : 27,
      "componentType" : 5126,
      "count" : 407,
      "type" : "VEC4"
    },
    {
      "bufferView" : 28,
      "componentType" : 5126,
      "count" : 407,
      "type" : "VEC2"
    },
    {
      "bufferView" : 29,
      "componentType" : 5126,
      "count" : 407,
      "type" : "VEC2"
    },
    {
      "bufferView" : 30,
      "componentType" : 5126,
      "count" : 407,
      "type" : "VEC2"
    },
    {
      "bufferView" : 31,
      "componentType" : 5126,
      "count" : 407,
      "type" : "VEC2"
    },
    {
      "bufferView" : 32,
      "componentType" : 5123,
      "count" : 606,
      "type" : "SCALAR"
    },
    {
      "bufferView" : 33,
      "min" : [ -10.7491, -0.287797, 60.4786 ],
      "max" : [ 10.7491, 1.5, 71.3077 ],
      "componentType" : 5126,
      "count" : 280,
      "type" : "VEC3"
    },
    {
      "bufferView" : 34,
      "componentType" : 5126,
      "count" : 280,
      "type" : "VEC3"
    },
    {
      "bufferView" : 35,
      "componentType" : 5126,
      "count" : 280,
      "type" : "VEC4"
    },
    {
      "bufferView" : 36,
      "componentType" : 5126,
      "count" : 280,
      "type" : "VEC2"
    },
    {
      "bufferView" : 37,
      "componentType" : 5126,
      "count" : 280,
      "type" : "VEC2"
    },
    {
      "bufferView" : 38,
      "componentType" : 5126,
      "count" : 280,
      "type" : "VEC2"
    },
    {
      "bufferView" : 39,
      "componentType" : 5126,
      "count" : 280,
      "type" : "VEC2"
    },
    {
      "bufferView" : 40,
      "componentType" : 5123,
      "count" : 4728,
      "type" : "SCALAR"
    },
    {
      "bufferView" : 41,
      "min" : [ -22.4061, 1.582, 59.615 ],
      "max" : [ 22.4061, 9.24991, 72.1713 ],
      "componentType" : 5126,
      "count" : 1936,
      "type" : "VEC3"
    },
    {
      "bufferView" : 42,
      "componentType" : 5126,
      "count" : 1936,
      "type" : "VEC3"
    },
    {
      "bufferView" : 43,
      "componentType" : 5126,
      "count" : 1936,
      "type" : "VEC4"
    },
    {
      "bufferView" : 44,
      "componentType" : 5126,
      "count" : 1936,
      "type" : "VEC2"
    },
    {
      "bufferView" : 45,
      "componentType" : 5126,
      "count" : 1936,
      "type" : "VEC2"
    },
    {
      "bufferView" : 46,
      "componentType" : 5126,
      "count" : 1936,
      "type" : "VEC2"
    },
    {
      "bufferView" : 47,
      "componentType" : 5126,
      "count" : 1936,
      "type" : "VEC2"
    },
    {
      "bufferView" : 48,
      "componentType" : 5123,
      "count" : 876,
      "type" : "SCALAR"
    },
    {
      "bufferView" : 49,
      "min" : [ -13.7539, 0.128155, 59.615 ],
      "max" : [ 13.7539, 5.6, 72.1713 ],
      "componentType" : 5126,
      "count" : 532,
      "type" : "VEC3"
    },
    {
      "bufferView" : 50,
      "componentType" : 5126,
      "count" : 532,
      "type" : "VEC3"
    },
    {
      "bufferView" : 51,
      "componentType" : 5126,
      "count" : 532,
      "type" : "VEC4"
    },
    {
      "bufferView" : 52,
      "componentType" : 5126,
      "count" : 532,
      "type" : "VEC2"
    },
    {
      "bufferView" : 53,
      "componentType" : 5126,
      "count" : 532,
      "type" : "VEC2"
    },
    {
      "bufferView" : 54,
      "componentType" : 5126,
      "count" : 532,
      "type" : "VEC2"
    },
    {
      "bufferView" : 55,
      "componentType" : 5126,
      "count" : 532,
      "type" : "VEC2"
    },
    {
      "bufferView" : 56,
      "componentType" : 5123,
      "count" : 75,
      "type" : "SCALAR"
    },
    {
      "bufferView" : 57,
      "min" : [ -22.4503, 5.97742, 61.0007 ],
      "max" : [ 22.4503, 7.344, 70.8252 ],
      "componentType" : 5126,
      "count" : 31,
      "type" : "VEC3"
    },
    {
      "bufferView" : 58,
      "componentType" : 5126,
      "count" : 31,
      "type" : "VEC3"
    },
    {
      "bufferView" : 59,
      "componentType" : 5126,
      "count" : 31,
      "type" : "VEC4"
    },
    {
      "bufferView" : 60,
      "componentType" : 5126,
      "count" : 31,
      "type" : "VEC2"
    },
    {
      "bufferView" : 61,
      "componentType" : 5126,
      "count" : 31,
      "type" : "VEC2"
    },
    {
      "bufferView" : 62,
      "componentType" : 5126,
      "count" : 31,
      "type" : "VEC2"
    },
    {
      "bufferView" : 63,
      "componentType" : 5126,
      "count" : 31,
      "type" : "VEC2"
    }
  ]
}
