{
  "asset" : {
    "generator" : "UE Viewer (umodel) build 1544 based",
    "version" : "2.0"
  },
  "scene" : 0,
  "scenes" : [
    {
      "nodes" : [ 0 ]
    }
  ],
  "nodes" : [
    {
      "name" : "SM_ENV_LKNVLD_Umbrella_A",
      "mesh" : 0
    }
  ],
  "materials" : [
    {
      "name" : "MI_LKNVLD_Umbrella_A",
      "pbrMetallicRoughness" : {
        "baseColorFactor" : [ 0.3, 0.3, 0.3, 1.0 ],
        "metallicFactor" : 0.1,
        "roughnessFactor" : 0.5
      }
    }
  ],
  "meshes" : [
    {
      "primitives" : [
        {
          "attributes" : {
            "POSITION" : 1,
            "NORMAL" : 2,
            "TANGENT" : 3,
            "TEXCOORD_0" : 4,
            "TEXCOORD_1" : 5,
            "TEXCOORD_2" : 6,
            "TEXCOORD_3" : 7
          },
          "indices" : 0,
          "material" : 0
        }
      ],
      "name" : "SM_ENV_LKNVLD_Umbrella_A"
    }
  ],
  "buffers" : [
    {
      "uri" : "SM_ENV_LKNVLD_Umbrella_A.bin",
      "byteLength" : 253848
    }
  ],
  "bufferViews" : [
    {
      "buffer" : 0,
      "byteOffset" : 0,
      "byteLength" : 18768
    },
    {
      "buffer" : 0,
      "byteOffset" : 18768,
      "byteLength" : 39180
    },
    {
      "buffer" : 0,
      "byteOffset" : 57948,
      "byteLength" : 39180
    },
    {
      "buffer" : 0,
      "byteOffset" : 97128,
      "byteLength" : 52240
    },
    {
      "buffer" : 0,
      "byteOffset" : 149368,
      "byteLength" : 26120
    },
    {
      "buffer" : 0,
      "byteOffset" : 175488,
      "byteLength" : 26120
    },
    {
      "buffer" : 0,
      "byteOffset" : 201608,
      "byteLength" : 26120
    },
    {
      "buffer" : 0,
      "byteOffset" : 227728,
      "byteLength" : 26120
    }
  ],
  "accessors" : [
    {
      "bufferView" : 0,
      "componentType" : 5123,
      "count" : 9384,
      "type" : "SCALAR"
    },
    {
      "bufferView" : 1,
      "min" : [ -1.97627, -0.00252426, -1.96858 ],
      "max" : [ 1.97627, 2.64606, 1.98395 ],
      "componentType" : 5126,
      "count" : 3265,
      "type" : "VEC3"
    },
    {
      "bufferView" : 2,
      "componentType" : 5126,
      "count" : 3265,
      "type" : "VEC3"
    },
    {
      "bufferView" : 3,
      "componentType" : 5126,
      "count" : 3265,
      "type" : "VEC4"
    },
    {
      "bufferView" : 4,
      "componentType" : 5126,
      "count" : 3265,
      "type" : "VEC2"
    },
    {
      "bufferView" : 5,
      "componentType" : 5126,
      "count" : 3265,
      "type" : "VEC2"
    },
    {
      "bufferView" : 6,
      "componentType" : 5126,
      "count" : 3265,
      "type" : "VEC2"
    },
    {
      "bufferView" : 7,
      "componentType" : 5126,
      "count" : 3265,
      "type" : "VEC2"
    }
  ]
}
