{
  "asset" : {
    "generator" : "UE Viewer (umodel) build 1544 based",
    "version" : "2.0"
  },
  "scene" : 0,
  "scenes" : [
    {
      "nodes" : [ 0 ]
    }
  ],
  "nodes" : [
    {
      "name" : "SM_ENV_LKNVLD_WallSet_PlatformB_Lod2",
      "mesh" : 0
    }
  ],
  "materials" : [
    {
      "name" : "MI_ENV_LKNVLD_WoodWallSet_LOD",
      "pbrMetallicRoughness" : {
        "baseColorFactor" : [ 0.3, 0.3, 0.3, 1.0 ],
        "metallicFactor" : 0.1,
        "roughnessFactor" : 0.5
      }
    },
    {
      "name" : "MI_ENV_LKNVLD_WoodPlain_Red_LOD",
      "pbrMetallicRoughness" : {
        "baseColorFactor" : [ 0.9, 0.3, 0.3, 1.0 ],
        "metallicFactor" : 0.1,
        "roughnessFactor" : 0.5
      }
    },
    {
      "name" : "MI_T_ENV_LKNVLD_StoneTrim_LOD",
      "pbrMetallicRoughness" : {
        "baseColorFactor" : [ 0.3, 0.9, 0.3, 1.0 ],
        "metallicFactor" : 0.1,
        "roughnessFactor" : 0.5
      }
    },
    {
      "name" : "MI_ENV_LKNVLD_WoodWallSet_Red_LOD",
      "pbrMetallicRoughness" : {
        "baseColorFactor" : [ 0.3, 0.3, 0.9, 1.0 ],
        "metallicFactor" : 0.1,
        "roughnessFactor" : 0.5
      }
    },
    {
      "name" : "MI_ENV_LKNVLD_Eaves_B_LOD",
      "pbrMetallicRoughness" : {
        "baseColorFactor" : [ 0.9, 0.9, 0.9, 1.0 ],
        "metallicFactor" : 0.1,
        "roughnessFactor" : 0.5
      }
    },
    {
      "name" : "MI_ENV_LKNVLD_Signboard_A",
      "pbrMetallicRoughness" : {
        "baseColorFactor" : [ 0.9, 0.9, 0.3, 1.0 ],
        "metallicFactor" : 0.1,
        "roughnessFactor" : 0.5
      }
    },
    {
      "name" : "MI_ENV_LKNVLD_WoodBoard_Natural_Lighter_LOD",
      "pbrMetallicRoughness" : {
        "baseColorFactor" : [ 0.9, 0.3, 0.9, 1.0 ],
        "metallicFactor" : 0.1,
        "roughnessFactor" : 0.5
      }
    }
  ],
  "meshes" : [
    {
      "primitives" : [
        {
          "attributes" : {
            "POSITION" : 1,
            "NORMAL" : 2,
            "TANGENT" : 3,
            "TEXCOORD_0" : 4,
            "TEXCOORD_1" : 5,
            "TEXCOORD_2" : 6,
            "TEXCOORD_3" : 7
          },
          "indices" : 0,
          "material" : 0
        },
        {
          "attributes" : {
            "POSITION" : 9,
            "NORMAL" : 10,
            "TANGENT" : 11,
            "TEXCOORD_0" : 12,
            "TEXCOORD_1" : 13,
            "TEXCOORD_2" : 14,
            "TEXCOORD_3" : 15
          },
          "indices" : 8,
          "material" : 1
        },
        {
          "attributes" : {
            "POSITION" : 17,
            "NORMAL" : 18,
            "TANGENT" : 19,
            "TEXCOORD_0" : 20,
            "TEXCOORD_1" : 21,
            "TEXCOORD_2" : 22,
            "TEXCOORD_3" : 23
          },
          "indices" : 16,
          "material" : 2
        },
        {
          "attributes" : {
            "POSITION" : 25,
            "NORMAL" : 26,
            "TANGENT" : 27,
            "TEXCOORD_0" : 28,
            "TEXCOORD_1" : 29,
            "TEXCOORD_2" : 30,
            "TEXCOORD_3" : 31
          },
          "indices" : 24,
          "material" : 3
        },
        {
          "attributes" : {
            "POSITION" : 33,
            "NORMAL" : 34,
            "TANGENT" : 35,
            "TEXCOORD_0" : 36,
            "TEXCOORD_1" : 37,
            "TEXCOORD_2" : 38,
            "TEXCOORD_3" : 39
          },
          "indices" : 32,
          "material" : 4
        },
        {
          "attributes" : {
            "POSITION" : 41,
            "NORMAL" : 42,
            "TANGENT" : 43,
            "TEXCOORD_0" : 44,
            "TEXCOORD_1" : 45,
            "TEXCOORD_2" : 46,
            "TEXCOORD_3" : 47
          },
          "indices" : 40,
          "material" : 5
        },
        {
          "attributes" : {
            "POSITION" : 49,
            "NORMAL" : 50,
            "TANGENT" : 51,
            "TEXCOORD_0" : 52,
            "TEXCOORD_1" : 53,
            "TEXCOORD_2" : 54,
            "TEXCOORD_3" : 55
          },
          "indices" : 48,
          "material" : 6
        }
      ],
      "name" : "SM_ENV_LKNVLD_WallSet_PlatformB_Lod2"
    }
  ],
  "buffers" : [
    {
      "uri" : "SM_ENV_LKNVLD_WallSet_PlatformB_Lod2.bin",
      "byteLength" : 366560
    }
  ],
  "bufferViews" : [
    {
      "buffer" : 0,
      "byteOffset" : 0,
      "byteLength" : 2028
    },
    {
      "buffer" : 0,
      "byteOffset" : 2028,
      "byteLength" : 6276
    },
    {
      "buffer" : 0,
      "byteOffset" : 8304,
      "byteLength" : 6276
    },
    {
      "buffer" : 0,
      "byteOffset" : 14580,
      "byteLength" : 8368
    },
    {
      "buffer" : 0,
      "byteOffset" : 22948,
      "byteLength" : 4184
    },
    {
      "buffer" : 0,
      "byteOffset" : 27132,
      "byteLength" : 4184
    },
    {
      "buffer" : 0,
      "byteOffset" : 31316,
      "byteLength" : 4184
    },
    {
      "buffer" : 0,
      "byteOffset" : 35500,
      "byteLength" : 4184
    },
    {
      "buffer" : 0,
      "byteOffset" : 39684,
      "byteLength" : 10140
    },
    {
      "buffer" : 0,
      "byteOffset" : 49824,
      "byteLength" : 38676
    },
    {
      "buffer" : 0,
      "byteOffset" : 88500,
      "byteLength" : 38676
    },
    {
      "buffer" : 0,
      "byteOffset" : 127176,
      "byteLength" : 51568
    },
    {
      "buffer" : 0,
      "byteOffset" : 178744,
      "byteLength" : 25784
    },
    {
      "buffer" : 0,
      "byteOffset" : 204528,
      "byteLength" : 25784
    },
    {
      "buffer" : 0,
      "byteOffset" : 230312,
      "byteLength" : 25784
    },
    {
      "buffer" : 0,
      "byteOffset" : 256096,
      "byteLength" : 25784
    },
    {
      "buffer" : 0,
      "byteOffset" : 281880,
      "byteLength" : 960
    },
    {
      "buffer" : 0,
      "byteOffset" : 282840,
      "byteLength" : 2148
    },
    {
      "buffer" : 0,
      "byteOffset" : 284988,
      "byteLength" : 2148
    },
    {
      "buffer" : 0,
      "byteOffset" : 287136,
      "byteLength" : 2864
    },
    {
      "buffer" : 0,
      "byteOffset" : 290000,
      "byteLength" : 1432
    },
    {
      "buffer" : 0,
      "byteOffset" : 291432,
      "byteLength" : 1432
    },
    {
      "buffer" : 0,
      "byteOffset" : 292864,
      "byteLength" : 1432
    },
    {
      "buffer" : 0,
      "byteOffset" : 294296,
      "byteLength" : 1432
    },
    {
      "buffer" : 0,
      "byteOffset" : 295728,
      "byteLength" : 408
    },
    {
      "buffer" : 0,
      "byteOffset" : 296136,
      "byteLength" : 936
    },
    {
      "buffer" : 0,
      "byteOffset" : 297072,
      "byteLength" : 936
    },
    {
      "buffer" : 0,
      "byteOffset" : 298008,
      "byteLength" : 1248
    },
    {
      "buffer" : 0,
      "byteOffset" : 299256,
      "byteLength" : 624
    },
    {
      "buffer" : 0,
      "byteOffset" : 299880,
      "byteLength" : 624
    },
    {
      "buffer" : 0,
      "byteOffset" : 300504,
      "byteLength" : 624
    },
    {
      "buffer" : 0,
      "byteOffset" : 301128,
      "byteLength" : 624
    },
    {
      "buffer" : 0,
      "byteOffset" : 301752,
      "byteLength" : 936
    },
    {
      "buffer" : 0,
      "byteOffset" : 302688,
      "byteLength" : 3336
    },
    {
      "buffer" : 0,
      "byteOffset" : 306024,
      "byteLength" : 3336
    },
    {
      "buffer" : 0,
      "byteOffset" : 309360,
      "byteLength" : 4448
    },
    {
      "buffer" : 0,
      "byteOffset" : 313808,
      "byteLength" : 2224
    },
    {
      "buffer" : 0,
      "byteOffset" : 316032,
      "byteLength" : 2224
    },
    {
      "buffer" : 0,
      "byteOffset" : 318256,
      "byteLength" : 2224
    },
    {
      "buffer" : 0,
      "byteOffset" : 320480,
      "byteLength" : 2224
    },
    {
      "buffer" : 0,
      "byteOffset" : 322704,
      "byteLength" : 2060
    },
    {
      "buffer" : 0,
      "byteOffset" : 324764,
      "byteLength" : 6840
    },
    {
      "buffer" : 0,
      "byteOffset" : 331604,
      "byteLength" : 6840
    },
    {
      "buffer" : 0,
      "byteOffset" : 338444,
      "byteLength" : 9120
    },
    {
      "buffer" : 0,
      "byteOffset" : 347564,
      "byteLength" : 4560
    },
    {
      "buffer" : 0,
      "byteOffset" : 352124,
      "byteLength" : 4560
    },
    {
      "buffer" : 0,
      "byteOffset" : 356684,
      "byteLength" : 4560
    },
    {
      "buffer" : 0,
      "byteOffset" : 361244,
      "byteLength" : 4560
    },
    {
      "buffer" : 0,
      "byteOffset" : 365804,
      "byteLength" : 36
    },
    {
      "buffer" : 0,
      "byteOffset" : 365840,
      "byteLength" : 120
    },
    {
      "buffer" : 0,
      "byteOffset" : 365960,
      "byteLength" : 120
    },
    {
      "buffer" : 0,
      "byteOffset" : 366080,
      "byteLength" : 160
    },
    {
      "buffer" : 0,
      "byteOffset" : 366240,
      "byteLength" : 80
    },
    {
      "buffer" : 0,
      "byteOffset" : 366320,
      "byteLength" : 80
    },
    {
      "buffer" : 0,
      "byteOffset" : 366400,
      "byteLength" : 80
    },
    {
      "buffer" : 0,
      "byteOffset" : 366480,
      "byteLength" : 80
    }
  ],
  "accessors" : [
    {
      "bufferView" : 0,
      "componentType" : 5123,
      "count" : 1014,
      "type" : "SCALAR"
    },
    {
      "bufferView" : 1,
      "min" : [ -59.7614, 0.281304, -15.2545 ],
      "max" : [ -17.4978, 6.2, 29.4112 ],
      "componentType" : 5126,
      "count" : 523,
      "type" : "VEC3"
    },
    {
      "bufferView" : 2,
      "componentType" : 5126,
      "count" : 523,
      "type" : "VEC3"
    },
    {
      "bufferView" : 3,
      "componentType" : 5126,
      "count" : 523,
      "type" : "VEC4"
    },
    {
      "bufferView" : 4,
      "componentType" : 5126,
      "count" : 523,
      "type" : "VEC2"
    },
    {
      "bufferView" : 5,
      "componentType" : 5126,
      "count" : 523,
      "type" : "VEC2"
    },
    {
      "bufferView" : 6,
      "componentType" : 5126,
      "count" : 523,
      "type" : "VEC2"
    },
    {
      "bufferView" : 7,
      "componentType" : 5126,
      "count" : 523,
      "type" : "VEC2"
    },
    {
      "bufferView" : 8,
      "componentType" : 5123,
      "count" : 5070,
      "type" : "SCALAR"
    },
    {
      "bufferView" : 9,
      "min" : [ -65.0971, 0.699999, -16.0418 ],
      "max" : [ -16.6596, 7.6, 51.6978 ],
      "componentType" : 5126,
      "count" : 3223,
      "type" : "VEC3"
    },
    {
      "bufferView" : 10,
      "componentType" : 5126,
      "count" : 3223,
      "type" : "VEC3"
    },
    {
      "bufferView" : 11,
      "componentType" : 5126,
      "count" : 3223,
      "type" : "VEC4"
    },
    {
      "bufferView" : 12,
      "componentType" : 5126,
      "count" : 3223,
      "type" : "VEC2"
    },
    {
      "bufferView" : 13,
      "componentType" : 5126,
      "count" : 3223,
      "type" : "VEC2"
    },
    {
      "bufferView" : 14,
      "componentType" : 5126,
      "count" : 3223,
      "type" : "VEC2"
    },
    {
      "bufferView" : 15,
      "componentType" : 5126,
      "count" : 3223,
      "type" : "VEC2"
    },
    {
      "bufferView" : 16,
      "componentType" : 5123,
      "count" : 480,
      "type" : "SCALAR"
    },
    {
      "bufferView" : 17,
      "min" : [ -59.8055, -0.00134779, -15.3134 ],
      "max" : [ -17.4253, 0.300421, 29.4914 ],
      "componentType" : 5126,
      "count" : 179,
      "type" : "VEC3"
    },
    {
      "bufferView" : 18,
      "componentType" : 5126,
      "count" : 179,
      "type" : "VEC3"
    },
    {
      "bufferView" : 19,
      "componentType" : 5126,
      "count" : 179,
      "type" : "VEC4"
    },
    {
      "bufferView" : 20,
      "componentType" : 5126,
      "count" : 179,
      "type" : "VEC2"
    },
    {
      "bufferView" : 21,
      "componentType" : 5126,
      "count" : 179,
      "type" : "VEC2"
    },
    {
      "bufferView" : 22,
      "componentType" : 5126,
      "count" : 179,
      "type" : "VEC2"
    },
    {
      "bufferView" : 23,
      "componentType" : 5126,
      "count" : 179,
      "type" : "VEC2"
    },
    {
      "bufferView" : 24,
      "componentType" : 5123,
      "count" : 204,
      "type" : "SCALAR"
    },
    {
      "bufferView" : 25,
      "min" : [ -59.7473, 0.798742, -15.2361 ],
      "max" : [ -17.5158, 1.50038, 29.4009 ],
      "componentType" : 5126,
      "count" : 78,
      "type" : "VEC3"
    },
    {
      "bufferView" : 26,
      "componentType" : 5126,
      "count" : 78,
      "type" : "VEC3"
    },
    {
      "bufferView" : 27,
      "componentType" : 5126,
      "count" : 78,
      "type" : "VEC4"
    },
    {
      "bufferView" : 28,
      "componentType" : 5126,
      "count" : 78,
      "type" : "VEC2"
    },
    {
      "bufferView" : 29,
      "componentType" : 5126,
      "count" : 78,
      "type" : "VEC2"
    },
    {
      "bufferView" : 30,
      "componentType" : 5126,
      "count" : 78,
      "type" : "VEC2"
    },
    {
      "bufferView" : 31,
      "componentType" : 5126,
      "count" : 78,
      "type" : "VEC2"
    },
    {
      "bufferView" : 32,
      "componentType" : 5123,
      "count" : 468,
      "type" : "SCALAR"
    },
    {
      "bufferView" : 33,
      "min" : [ -59.2665, 5.07001, -16.0146 ],
      "max" : [ -16.6596, 5.60191, 28.8933 ],
      "componentType" : 5126,
      "count" : 278,
      "type" : "VEC3"
    },
    {
      "bufferView" : 34,
      "componentType" : 5126,
      "count" : 278,
      "type" : "VEC3"
    },
    {
      "bufferView" : 35,
      "componentType" : 5126,
      "count" : 278,
      "type" : "VEC4"
    },
    {
      "bufferView" : 36,
      "componentType" : 5126,
      "count" : 278,
      "type" : "VEC2"
    },
    {
      "bufferView" : 37,
      "componentType" : 5126,
      "count" : 278,
      "type" : "VEC2"
    },
    {
      "bufferView" : 38,
      "componentType" : 5126,
      "count" : 278,
      "type" : "VEC2"
    },
    {
      "bufferView" : 39,
      "componentType" : 5126,
      "count" : 278,
      "type" : "VEC2"
    },
    {
      "bufferView" : 40,
      "componentType" : 5123,
      "count" : 1029,
      "type" : "SCALAR"
    },
    {
      "bufferView" : 41,
      "min" : [ -59.5523, 4.8, -16.0146 ],
      "max" : [ -16.6596, 8.12, 29.4805 ],
      "componentType" : 5126,
      "count" : 570,
      "type" : "VEC3"
    },
    {
      "bufferView" : 42,
      "componentType" : 5126,
      "count" : 570,
      "type" : "VEC3"
    },
    {
      "bufferView" : 43,
      "componentType" : 5126,
      "count" : 570,
      "type" : "VEC4"
    },
    {
      "bufferView" : 44,
      "componentType" : 5126,
      "count" : 570,
      "type" : "VEC2"
    },
    {
      "bufferView" : 45,
      "componentType" : 5126,
      "count" : 570,
      "type" : "VEC2"
    },
    {
      "bufferView" : 46,
      "componentType" : 5126,
      "count" : 570,
      "type" : "VEC2"
    },
    {
      "bufferView" : 47,
      "componentType" : 5126,
      "count" : 570,
      "type" : "VEC2"
    },
    {
      "bufferView" : 48,
      "componentType" : 5123,
      "count" : 18,
      "type" : "SCALAR"
    },
    {
      "bufferView" : 49,
      "min" : [ -64.3971, 5.99999, -15.1071 ],
      "max" : [ -18, 6, 50.7107 ],
      "componentType" : 5126,
      "count" : 10,
      "type" : "VEC3"
    },
    {
      "bufferView" : 50,
      "componentType" : 5126,
      "count" : 10,
      "type" : "VEC3"
    },
    {
      "bufferView" : 51,
      "componentType" : 5126,
      "count" : 10,
      "type" : "VEC4"
    },
    {
      "bufferView" : 52,
      "componentType" : 5126,
      "count" : 10,
      "type" : "VEC2"
    },
    {
      "bufferView" : 53,
      "componentType" : 5126,
      "count" : 10,
      "type" : "VEC2"
    },
    {
      "bufferView" : 54,
      "componentType" : 5126,
      "count" : 10,
      "type" : "VEC2"
    },
    {
      "bufferView" : 55,
      "componentType" : 5126,
      "count" : 10,
      "type" : "VEC2"
    }
  ]
}
