{
  "asset" : {
    "generator" : "UE Viewer (umodel) build 1544 based",
    "version" : "2.0"
  },
  "scene" : 0,
  "scenes" : [
    {
      "nodes" : [ 0 ]
    }
  ],
  "nodes" : [
    {
      "name" : "SM_ENV_LKNVLD_Shop_Structure",
      "mesh" : 0
    }
  ],
  "materials" : [
    {
      "name" : "MI_ENV_LKNVLD_WoodBoard_Natural_Yellowed",
      "pbrMetallicRoughness" : {
        "baseColorFactor" : [ 0.3, 0.3, 0.3, 1.0 ],
        "metallicFactor" : 0.1,
        "roughnessFactor" : 0.5
      }
    },
    {
      "name" : "MI_ENV_LKNVLD_WoodBoard_Natural",
      "pbrMetallicRoughness" : {
        "baseColorFactor" : [ 0.9, 0.3, 0.3, 1.0 ],
        "metallicFactor" : 0.1,
        "roughnessFactor" : 0.5
      }
    },
    {
      "name" : "MI_ENV_LKNVLD_Windows_A",
      "pbrMetallicRoughness" : {
        "baseColorFactor" : [ 0.3, 0.9, 0.3, 1.0 ],
        "metallicFactor" : 0.1,
        "roughnessFactor" : 0.5
      }
    },
    {
      "name" : "MI_ENV_LKNVLD_Plaster",
      "pbrMetallicRoughness" : {
        "baseColorFactor" : [ 0.3, 0.3, 0.9, 1.0 ],
        "metallicFactor" : 0.1,
        "roughnessFactor" : 0.5
      }
    },
    {
      "name" : "MI_ENV_LKNVLD_MetalRoofDark",
      "pbrMetallicRoughness" : {
        "baseColorFactor" : [ 0.9, 0.9, 0.9, 1.0 ],
        "metallicFactor" : 0.1,
        "roughnessFactor" : 0.5
      }
    },
    {
      "name" : "MI_ENV_LKNVLD_MetalRoof_DarkBlue",
      "pbrMetallicRoughness" : {
        "baseColorFactor" : [ 0.9, 0.9, 0.3, 1.0 ],
        "metallicFactor" : 0.1,
        "roughnessFactor" : 0.5
      }
    },
    {
      "name" : "MI_ENV_LKNVLD_Plaster_Dark",
      "pbrMetallicRoughness" : {
        "baseColorFactor" : [ 0.9, 0.3, 0.9, 1.0 ],
        "metallicFactor" : 0.1,
        "roughnessFactor" : 0.5
      }
    },
    {
      "name" : "MI_ENV_LKNVLD_Curtain_C",
      "pbrMetallicRoughness" : {
        "baseColorFactor" : [ 0.3, 0.9, 0.9, 1.0 ],
        "metallicFactor" : 0.1,
        "roughnessFactor" : 0.5
      }
    },
    {
      "name" : "MI_ENV_LKNVLD_ClanSignboard_D",
      "pbrMetallicRoughness" : {
        "baseColorFactor" : [ 1, 0.3, 0.3, 1.0 ],
        "metallicFactor" : 0.1,
        "roughnessFactor" : 0.5
      }
    },
    {
      "name" : "MI_ENV_LKNVLD_Aircon_B",
      "pbrMetallicRoughness" : {
        "baseColorFactor" : [ 0.6, 0.3, 0.3, 1.0 ],
        "metallicFactor" : 0.1,
        "roughnessFactor" : 0.5
      }
    },
    {
      "name" : "MI_ENV_LKNVLD_Eaves_C",
      "pbrMetallicRoughness" : {
        "baseColorFactor" : [ 1, 0.9, 0.3, 1.0 ],
        "metallicFactor" : 0.1,
        "roughnessFactor" : 0.5
      }
    },
    {
      "name" : "MI_ENV_LKNVLD_ClanSignboard_E",
      "pbrMetallicRoughness" : {
        "baseColorFactor" : [ 1, 0.3, 0.9, 1.0 ],
        "metallicFactor" : 0.1,
        "roughnessFactor" : 0.5
      }
    },
    {
      "name" : "MI_ENV_LKNVLD_Aircon_C",
      "pbrMetallicRoughness" : {
        "baseColorFactor" : [ 0.6, 0.9, 0.9, 1.0 ],
        "metallicFactor" : 0.1,
        "roughnessFactor" : 0.5
      }
    },
    {
      "name" : "MI_ENV_LKNVLD_Pipe_C",
      "pbrMetallicRoughness" : {
        "baseColorFactor" : [ 0.6, 0.9, 0.3, 1.0 ],
        "metallicFactor" : 0.1,
        "roughnessFactor" : 0.5
      }
    },
    {
      "name" : "MI_ENV_LKNVLD_MetalRoof",
      "pbrMetallicRoughness" : {
        "baseColorFactor" : [ 0.6, 0.3, 0.9, 1.0 ],
        "metallicFactor" : 0.1,
        "roughnessFactor" : 0.5
      }
    },
    {
      "name" : "MI_ENV_LKNVLD_BuildingInside_A",
      "pbrMetallicRoughness" : {
        "baseColorFactor" : [ 1, 0.9, 0.9, 1.0 ],
        "metallicFactor" : 0.1,
        "roughnessFactor" : 0.5
      }
    }
  ],
  "meshes" : [
    {
      "primitives" : [
        {
          "attributes" : {
            "POSITION" : 1,
            "NORMAL" : 2,
            "TANGENT" : 3,
            "COLOR_0" : 4,
            "TEXCOORD_0" : 5,
            "TEXCOORD_1" : 6,
            "TEXCOORD_2" : 7,
            "TEXCOORD_3" : 8
          },
          "indices" : 0,
          "material" : 0
        },
        {
          "attributes" : {
            "POSITION" : 10,
            "NORMAL" : 11,
            "TANGENT" : 12,
            "COLOR_0" : 13,
            "TEXCOORD_0" : 14,
            "TEXCOORD_1" : 15,
            "TEXCOORD_2" : 16,
            "TEXCOORD_3" : 17
          },
          "indices" : 9,
          "material" : 1
        },
        {
          "attributes" : {
            "POSITION" : 19,
            "NORMAL" : 20,
            "TANGENT" : 21,
            "COLOR_0" : 22,
            "TEXCOORD_0" : 23,
            "TEXCOORD_1" : 24,
            "TEXCOORD_2" : 25,
            "TEXCOORD_3" : 26
          },
          "indices" : 18,
          "material" : 2
        },
        {
          "attributes" : {
            "POSITION" : 28,
            "NORMAL" : 29,
            "TANGENT" : 30,
            "COLOR_0" : 31,
            "TEXCOORD_0" : 32,
            "TEXCOORD_1" : 33,
            "TEXCOORD_2" : 34,
            "TEXCOORD_3" : 35
          },
          "indices" : 27,
          "material" : 3
        },
        {
          "attributes" : {
            "POSITION" : 37,
            "NORMAL" : 38,
            "TANGENT" : 39,
            "COLOR_0" : 40,
            "TEXCOORD_0" : 41,
            "TEXCOORD_1" : 42,
            "TEXCOORD_2" : 43,
            "TEXCOORD_3" : 44
          },
          "indices" : 36,
          "material" : 4
        },
        {
          "attributes" : {
            "POSITION" : 46,
            "NORMAL" : 47,
            "TANGENT" : 48,
            "COLOR_0" : 49,
            "TEXCOORD_0" : 50,
            "TEXCOORD_1" : 51,
            "TEXCOORD_2" : 52,
            "TEXCOORD_3" : 53
          },
          "indices" : 45,
          "material" : 5
        },
        {
          "attributes" : {
            "POSITION" : 55,
            "NORMAL" : 56,
            "TANGENT" : 57,
            "COLOR_0" : 58,
            "TEXCOORD_0" : 59,
            "TEXCOORD_1" : 60,
            "TEXCOORD_2" : 61,
            "TEXCOORD_3" : 62
          },
          "indices" : 54,
          "material" : 6
        },
        {
          "attributes" : {
            "POSITION" : 64,
            "NORMAL" : 65,
            "TANGENT" : 66,
            "COLOR_0" : 67,
            "TEXCOORD_0" : 68,
            "TEXCOORD_1" : 69,
            "TEXCOORD_2" : 70,
            "TEXCOORD_3" : 71
          },
          "indices" : 63,
          "material" : 7
        },
        {
          "attributes" : {
            "POSITION" : 73,
            "NORMAL" : 74,
            "TANGENT" : 75,
            "COLOR_0" : 76,
            "TEXCOORD_0" : 77,
            "TEXCOORD_1" : 78,
            "TEXCOORD_2" : 79,
            "TEXCOORD_3" : 80
          },
          "indices" : 72,
          "material" : 8
        },
        {
          "attributes" : {
            "POSITION" : 82,
            "NORMAL" : 83,
            "TANGENT" : 84,
            "COLOR_0" : 85,
            "TEXCOORD_0" : 86,
            "TEXCOORD_1" : 87,
            "TEXCOORD_2" : 88,
            "TEXCOORD_3" : 89
          },
          "indices" : 81,
          "material" : 9
        },
        {
          "attributes" : {
            "POSITION" : 91,
            "NORMAL" : 92,
            "TANGENT" : 93,
            "COLOR_0" : 94,
            "TEXCOORD_0" : 95,
            "TEXCOORD_1" : 96,
            "TEXCOORD_2" : 97,
            "TEXCOORD_3" : 98
          },
          "indices" : 90,
          "material" : 10
        },
        {
          "attributes" : {
            "POSITION" : 100,
            "NORMAL" : 101,
            "TANGENT" : 102,
            "COLOR_0" : 103,
            "TEXCOORD_0" : 104,
            "TEXCOORD_1" : 105,
            "TEXCOORD_2" : 106,
            "TEXCOORD_3" : 107
          },
          "indices" : 99,
          "material" : 11
        },
        {
          "attributes" : {
            "POSITION" : 109,
            "NORMAL" : 110,
            "TANGENT" : 111,
            "COLOR_0" : 112,
            "TEXCOORD_0" : 113,
            "TEXCOORD_1" : 114,
            "TEXCOORD_2" : 115,
            "TEXCOORD_3" : 116
          },
          "indices" : 108,
          "material" : 12
        },
        {
          "attributes" : {
            "POSITION" : 118,
            "NORMAL" : 119,
            "TANGENT" : 120,
            "COLOR_0" : 121,
            "TEXCOORD_0" : 122,
            "TEXCOORD_1" : 123,
            "TEXCOORD_2" : 124,
            "TEXCOORD_3" : 125
          },
          "indices" : 117,
          "material" : 13
        },
        {
          "attributes" : {
            "POSITION" : 127,
            "NORMAL" : 128,
            "TANGENT" : 129,
            "COLOR_0" : 130,
            "TEXCOORD_0" : 131,
            "TEXCOORD_1" : 132,
            "TEXCOORD_2" : 133,
            "TEXCOORD_3" : 134
          },
          "indices" : 126,
          "material" : 14
        },
        {
          "attributes" : {
            "POSITION" : 136,
            "NORMAL" : 137,
            "TANGENT" : 138,
            "COLOR_0" : 139,
            "TEXCOORD_0" : 140,
            "TEXCOORD_1" : 141,
            "TEXCOORD_2" : 142,
            "TEXCOORD_3" : 143
          },
          "indices" : 135,
          "material" : 15
        }
      ],
      "name" : "SM_ENV_LKNVLD_Shop_Structure"
    }
  ],
  "buffers" : [
    {
      "uri" : "SM_ENV_LKNVLD_Shop_Structure.bin",
      "byteLength" : 2765560
    }
  ],
  "bufferViews" : [
    {
      "buffer" : 0,
      "byteOffset" : 0,
      "byteLength" : 804
    },
    {
      "buffer" : 0,
      "byteOffset" : 804,
      "byteLength" : 3120
    },
    {
      "buffer" : 0,
      "byteOffset" : 3924,
      "byteLength" : 3120
    },
    {
      "buffer" : 0,
      "byteOffset" : 7044,
      "byteLength" : 4160
    },
    {
      "buffer" : 0,
      "byteOffset" : 11204,
      "byteLength" : 1040
    },
    {
      "buffer" : 0,
      "byteOffset" : 12244,
      "byteLength" : 2080
    },
    {
      "buffer" : 0,
      "byteOffset" : 14324,
      "byteLength" : 2080
    },
    {
      "buffer" : 0,
      "byteOffset" : 16404,
      "byteLength" : 2080
    },
    {
      "buffer" : 0,
      "byteOffset" : 18484,
      "byteLength" : 2080
    },
    {
      "buffer" : 0,
      "byteOffset" : 20564,
      "byteLength" : 12912
    },
    {
      "buffer" : 0,
      "byteOffset" : 33476,
      "byteLength" : 48552
    },
    {
      "buffer" : 0,
      "byteOffset" : 82028,
      "byteLength" : 48552
    },
    {
      "buffer" : 0,
      "byteOffset" : 130580,
      "byteLength" : 64736
    },
    {
      "buffer" : 0,
      "byteOffset" : 195316,
      "byteLength" : 16184
    },
    {
      "buffer" : 0,
      "byteOffset" : 211500,
      "byteLength" : 32368
    },
    {
      "buffer" : 0,
      "byteOffset" : 243868,
      "byteLength" : 32368
    },
    {
      "buffer" : 0,
      "byteOffset" : 276236,
      "byteLength" : 32368
    },
    {
      "buffer" : 0,
      "byteOffset" : 308604,
      "byteLength" : 32368
    },
    {
      "buffer" : 0,
      "byteOffset" : 340972,
      "byteLength" : 720
    },
    {
      "buffer" : 0,
      "byteOffset" : 341692,
      "byteLength" : 2688
    },
    {
      "buffer" : 0,
      "byteOffset" : 344380,
      "byteLength" : 2688
    },
    {
      "buffer" : 0,
      "byteOffset" : 347068,
      "byteLength" : 3584
    },
    {
      "buffer" : 0,
      "byteOffset" : 350652,
      "byteLength" : 896
    },
    {
      "buffer" : 0,
      "byteOffset" : 351548,
      "byteLength" : 1792
    },
    {
      "buffer" : 0,
      "byteOffset" : 353340,
      "byteLength" : 1792
    },
    {
      "buffer" : 0,
      "byteOffset" : 355132,
      "byteLength" : 1792
    },
    {
      "buffer" : 0,
      "byteOffset" : 356924,
      "byteLength" : 1792
    },
    {
      "buffer" : 0,
      "byteOffset" : 358716,
      "byteLength" : 4988
    },
    {
      "buffer" : 0,
      "byteOffset" : 363704,
      "byteLength" : 13056
    },
    {
      "buffer" : 0,
      "byteOffset" : 376760,
      "byteLength" : 13056
    },
    {
      "buffer" : 0,
      "byteOffset" : 389816,
      "byteLength" : 17408
    },
    {
      "buffer" : 0,
      "byteOffset" : 407224,
      "byteLength" : 4352
    },
    {
      "buffer" : 0,
      "byteOffset" : 411576,
      "byteLength" : 8704
    },
    {
      "buffer" : 0,
      "byteOffset" : 420280,
      "byteLength" : 8704
    },
    {
      "buffer" : 0,
      "byteOffset" : 428984,
      "byteLength" : 8704
    },
    {
      "buffer" : 0,
      "byteOffset" : 437688,
      "byteLength" : 8704
    },
    {
      "buffer" : 0,
      "byteOffset" : 446392,
      "byteLength" : 22080
    },
    {
      "buffer" : 0,
      "byteOffset" : 468472,
      "byteLength" : 77952
    },
    {
      "buffer" : 0,
      "byteOffset" : 546424,
      "byteLength" : 77952
    },
    {
      "buffer" : 0,
      "byteOffset" : 624376,
      "byteLength" : 103936
    },
    {
      "buffer" : 0,
      "byteOffset" : 728312,
      "byteLength" : 25984
    },
    {
      "buffer" : 0,
      "byteOffset" : 754296,
      "byteLength" : 51968
    },
    {
      "buffer" : 0,
      "byteOffset" : 806264,
      "byteLength" : 51968
    },
    {
      "buffer" : 0,
      "byteOffset" : 858232,
      "byteLength" : 51968
    },
    {
      "buffer" : 0,
      "byteOffset" : 910200,
      "byteLength" : 51968
    },
    {
      "buffer" : 0,
      "byteOffset" : 962168,
      "byteLength" : 7536
    },
    {
      "buffer" : 0,
      "byteOffset" : 969704,
      "byteLength" : 19368
    },
    {
      "buffer" : 0,
      "byteOffset" : 989072,
      "byteLength" : 19368
    },
    {
      "buffer" : 0,
      "byteOffset" : 1008440,
      "byteLength" : 25824
    },
    {
      "buffer" : 0,
      "byteOffset" : 1034264,
      "byteLength" : 6456
    },
    {
      "buffer" : 0,
      "byteOffset" : 1040720,
      "byteLength" : 12912
    },
    {
      "buffer" : 0,
      "byteOffset" : 1053632,
      "byteLength" : 12912
    },
    {
      "buffer" : 0,
      "byteOffset" : 1066544,
      "byteLength" : 12912
    },
    {
      "buffer" : 0,
      "byteOffset" : 1079456,
      "byteLength" : 12912
    },
    {
      "buffer" : 0,
      "byteOffset" : 1092368,
      "byteLength" : 8264
    },
    {
      "buffer" : 0,
      "byteOffset" : 1100632,
      "byteLength" : 23616
    },
    {
      "buffer" : 0,
      "byteOffset" : 1124248,
      "byteLength" : 23616
    },
    {
      "buffer" : 0,
      "byteOffset" : 1147864,
      "byteLength" : 31488
    },
    {
      "buffer" : 0,
      "byteOffset" : 1179352,
      "byteLength" : 7872
    },
    {
      "buffer" : 0,
      "byteOffset" : 1187224,
      "byteLength" : 15744
    },
    {
      "buffer" : 0,
      "byteOffset" : 1202968,
      "byteLength" : 15744
    },
    {
      "buffer" : 0,
      "byteOffset" : 1218712,
      "byteLength" : 15744
    },
    {
      "buffer" : 0,
      "byteOffset" : 1234456,
      "byteLength" : 15744
    },
    {
      "buffer" : 0,
      "byteOffset" : 1250200,
      "byteLength" : 18644
    },
    {
      "buffer" : 0,
      "byteOffset" : 1268844,
      "byteLength" : 26760
    },
    {
      "buffer" : 0,
      "byteOffset" : 1295604,
      "byteLength" : 26760
    },
    {
      "buffer" : 0,
      "byteOffset" : 1322364,
      "byteLength" : 35680
    },
    {
      "buffer" : 0,
      "byteOffset" : 1358044,
      "byteLength" : 8920
    },
    {
      "buffer" : 0,
      "byteOffset" : 1366964,
      "byteLength" : 17840
    },
    {
      "buffer" : 0,
      "byteOffset" : 1384804,
      "byteLength" : 17840
    },
    {
      "buffer" : 0,
      "byteOffset" : 1402644,
      "byteLength" : 17840
    },
    {
      "buffer" : 0,
      "byteOffset" : 1420484,
      "byteLength" : 17840
    },
    {
      "buffer" : 0,
      "byteOffset" : 1438324,
      "byteLength" : 456
    },
    {
      "buffer" : 0,
      "byteOffset" : 1438780,
      "byteLength" : 1056
    },
    {
      "buffer" : 0,
      "byteOffset" : 1439836,
      "byteLength" : 1056
    },
    {
      "buffer" : 0,
      "byteOffset" : 1440892,
      "byteLength" : 1408
    },
    {
      "buffer" : 0,
      "byteOffset" : 1442300,
      "byteLength" : 352
    },
    {
      "buffer" : 0,
      "byteOffset" : 1442652,
      "byteLength" : 704
    },
    {
      "buffer" : 0,
      "byteOffset" : 1443356,
      "byteLength" : 704
    },
    {
      "buffer" : 0,
      "byteOffset" : 1444060,
      "byteLength" : 704
    },
    {
      "buffer" : 0,
      "byteOffset" : 1444764,
      "byteLength" : 704
    },
    {
      "buffer" : 0,
      "byteOffset" : 1445468,
      "byteLength" : 504
    },
    {
      "buffer" : 0,
      "byteOffset" : 1445972,
      "byteLength" : 1104
    },
    {
      "buffer" : 0,
      "byteOffset" : 1447076,
      "byteLength" : 1104
    },
    {
      "buffer" : 0,
      "byteOffset" : 1448180,
      "byteLength" : 1472
    },
    {
      "buffer" : 0,
      "byteOffset" : 1449652,
      "byteLength" : 368
    },
    {
      "buffer" : 0,
      "byteOffset" : 1450020,
      "byteLength" : 736
    },
    {
      "buffer" : 0,
      "byteOffset" : 1450756,
      "byteLength" : 736
    },
    {
      "buffer" : 0,
      "byteOffset" : 1451492,
      "byteLength" : 736
    },
    {
      "buffer" : 0,
      "byteOffset" : 1452228,
      "byteLength" : 736
    },
    {
      "buffer" : 0,
      "byteOffset" : 1452964,
      "byteLength" : 2832
    },
    {
      "buffer" : 0,
      "byteOffset" : 1455796,
      "byteLength" : 7200
    },
    {
      "buffer" : 0,
      "byteOffset" : 1462996,
      "byteLength" : 7200
    },
    {
      "buffer" : 0,
      "byteOffset" : 1470196,
      "byteLength" : 9600
    },
    {
      "buffer" : 0,
      "byteOffset" : 1479796,
      "byteLength" : 2400
    },
    {
      "buffer" : 0,
      "byteOffset" : 1482196,
      "byteLength" : 4800
    },
    {
      "buffer" : 0,
      "byteOffset" : 1486996,
      "byteLength" : 4800
    },
    {
      "buffer" : 0,
      "byteOffset" : 1491796,
      "byteLength" : 4800
    },
    {
      "buffer" : 0,
      "byteOffset" : 1496596,
      "byteLength" : 4800
    },
    {
      "buffer" : 0,
      "byteOffset" : 1501396,
      "byteLength" : 3984
    },
    {
      "buffer" : 0,
      "byteOffset" : 1505380,
      "byteLength" : 5568
    },
    {
      "buffer" : 0,
      "byteOffset" : 1510948,
      "byteLength" : 5568
    },
    {
      "buffer" : 0,
      "byteOffset" : 1516516,
      "byteLength" : 7424
    },
    {
      "buffer" : 0,
      "byteOffset" : 1523940,
      "byteLength" : 1856
    },
    {
      "buffer" : 0,
      "byteOffset" : 1525796,
      "byteLength" : 3712
    },
    {
      "buffer" : 0,
      "byteOffset" : 1529508,
      "byteLength" : 3712
    },
    {
      "buffer" : 0,
      "byteOffset" : 1533220,
      "byteLength" : 3712
    },
    {
      "buffer" : 0,
      "byteOffset" : 1536932,
      "byteLength" : 3712
    },
    {
      "buffer" : 0,
      "byteOffset" : 1540644,
      "byteLength" : 51396
    },
    {
      "buffer" : 0,
      "byteOffset" : 1592040,
      "byteLength" : 92304
    },
    {
      "buffer" : 0,
      "byteOffset" : 1684344,
      "byteLength" : 92304
    },
    {
      "buffer" : 0,
      "byteOffset" : 1776648,
      "byteLength" : 123072
    },
    {
      "buffer" : 0,
      "byteOffset" : 1899720,
      "byteLength" : 30768
    },
    {
      "buffer" : 0,
      "byteOffset" : 1930488,
      "byteLength" : 61536
    },
    {
      "buffer" : 0,
      "byteOffset" : 1992024,
      "byteLength" : 61536
    },
    {
      "buffer" : 0,
      "byteOffset" : 2053560,
      "byteLength" : 61536
    },
    {
      "buffer" : 0,
      "byteOffset" : 2115096,
      "byteLength" : 61536
    },
    {
      "buffer" : 0,
      "byteOffset" : 2176632,
      "byteLength" : 50136
    },
    {
      "buffer" : 0,
      "byteOffset" : 2226768,
      "byteLength" : 83484
    },
    {
      "buffer" : 0,
      "byteOffset" : 2310252,
      "byteLength" : 83484
    },
    {
      "buffer" : 0,
      "byteOffset" : 2393736,
      "byteLength" : 111312
    },
    {
      "buffer" : 0,
      "byteOffset" : 2505048,
      "byteLength" : 27828
    },
    {
      "buffer" : 0,
      "byteOffset" : 2532876,
      "byteLength" : 55656
    },
    {
      "buffer" : 0,
      "byteOffset" : 2588532,
      "byteLength" : 55656
    },
    {
      "buffer" : 0,
      "byteOffset" : 2644188,
      "byteLength" : 55656
    },
    {
      "buffer" : 0,
      "byteOffset" : 2699844,
      "byteLength" : 55656
    },
    {
      "buffer" : 0,
      "byteOffset" : 2755500,
      "byteLength" : 576
    },
    {
      "buffer" : 0,
      "byteOffset" : 2756076,
      "byteLength" : 1248
    },
    {
      "buffer" : 0,
      "byteOffset" : 2757324,
      "byteLength" : 1248
    },
    {
      "buffer" : 0,
      "byteOffset" : 2758572,
      "byteLength" : 1664
    },
    {
      "buffer" : 0,
      "byteOffset" : 2760236,
      "byteLength" : 416
    },
    {
      "buffer" : 0,
      "byteOffset" : 2760652,
      "byteLength" : 832
    },
    {
      "buffer" : 0,
      "byteOffset" : 2761484,
      "byteLength" : 832
    },
    {
      "buffer" : 0,
      "byteOffset" : 2762316,
      "byteLength" : 832
    },
    {
      "buffer" : 0,
      "byteOffset" : 2763148,
      "byteLength" : 832
    },
    {
      "buffer" : 0,
      "byteOffset" : 2763980,
      "byteLength" : 60
    },
    {
      "buffer" : 0,
      "byteOffset" : 2764040,
      "byteLength" : 240
    },
    {
      "buffer" : 0,
      "byteOffset" : 2764280,
      "byteLength" : 240
    },
    {
      "buffer" : 0,
      "byteOffset" : 2764520,
      "byteLength" : 320
    },
    {
      "buffer" : 0,
      "byteOffset" : 2764840,
      "byteLength" : 80
    },
    {
      "buffer" : 0,
      "byteOffset" : 2764920,
      "byteLength" : 160
    },
    {
      "buffer" : 0,
      "byteOffset" : 2765080,
      "byteLength" : 160
    },
    {
      "buffer" : 0,
      "byteOffset" : 2765240,
      "byteLength" : 160
    },
    {
      "buffer" : 0,
      "byteOffset" : 2765400,
      "byteLength" : 160
    }
  ],
  "accessors" : [
    {
      "bufferView" : 0,
      "componentType" : 5123,
      "count" : 402,
      "type" : "SCALAR"
    },
    {
      "bufferView" : 1,
      "min" : [ -53.4169, 6.13686, 15.1442 ],
      "max" : [ -22.3654, 35.3826, 46.1957 ],
      "componentType" : 5126,
      "count" : 260,
      "type" : "VEC3"
    },
    {
      "bufferView" : 2,
      "componentType" : 5126,
      "count" : 260,
      "type" : "VEC3"
    },
    {
      "bufferView" : 3,
      "componentType" : 5126,
      "count" : 260,
      "type" : "VEC4"
    },
    {
      "bufferView" : 4,
      "normalized" : true,
      "componentType" : 5121,
      "count" : 260,
      "type" : "VEC4"
    },
    {
      "bufferView" : 5,
      "componentType" : 5126,
      "count" : 260,
      "type" : "VEC2"
    },
    {
      "bufferView" : 6,
      "componentType" : 5126,
      "count" : 260,
      "type" : "VEC2"
    },
    {
      "bufferView" : 7,
      "componentType" : 5126,
      "count" : 260,
      "type" : "VEC2"
    },
    {
      "bufferView" : 8,
      "componentType" : 5126,
      "count" : 260,
      "type" : "VEC2"
    },
    {
      "bufferView" : 9,
      "componentType" : 5123,
      "count" : 6456,
      "type" : "SCALAR"
    },
    {
      "bufferView" : 10,
      "min" : [ -53.4639, 6.03686, 15.0959 ],
      "max" : [ -22.3171, 35.5036, 46.2426 ],
      "componentType" : 5126,
      "count" : 4046,
      "type" : "VEC3"
    },
    {
      "bufferView" : 11,
      "componentType" : 5126,
      "count" : 4046,
      "type" : "VEC3"
    },
    {
      "bufferView" : 12,
      "componentType" : 5126,
      "count" : 4046,
      "type" : "VEC4"
    },
    {
      "bufferView" : 13,
      "normalized" : true,
      "componentType" : 5121,
      "count" : 4046,
      "type" : "VEC4"
    },
    {
      "bufferView" : 14,
      "componentType" : 5126,
      "count" : 4046,
      "type" : "VEC2"
    },
    {
      "bufferView" : 15,
      "componentType" : 5126,
      "count" : 4046,
      "type" : "VEC2"
    },
    {
      "bufferView" : 16,
      "componentType" : 5126,
      "count" : 4046,
      "type" : "VEC2"
    },
    {
      "bufferView" : 17,
      "componentType" : 5126,
      "count" : 4046,
      "type" : "VEC2"
    },
    {
      "bufferView" : 18,
      "componentType" : 5123,
      "count" : 360,
      "type" : "SCALAR"
    },
    {
      "bufferView" : 19,
      "min" : [ -50.2709, 7.24831, 15.4232 ],
      "max" : [ -22.6444, 40.1481, 42.9815 ],
      "componentType" : 5126,
      "count" : 224,
      "type" : "VEC3"
    },
    {
      "bufferView" : 20,
      "componentType" : 5126,
      "count" : 224,
      "type" : "VEC3"
    },
    {
      "bufferView" : 21,
      "componentType" : 5126,
      "count" : 224,
      "type" : "VEC4"
    },
    {
      "bufferView" : 22,
      "normalized" : true,
      "componentType" : 5121,
      "count" : 224,
      "type" : "VEC4"
    },
    {
      "bufferView" : 23,
      "componentType" : 5126,
      "count" : 224,
      "type" : "VEC2"
    },
    {
      "bufferView" : 24,
      "componentType" : 5126,
      "count" : 224,
      "type" : "VEC2"
    },
    {
      "bufferView" : 25,
      "componentType" : 5126,
      "count" : 224,
      "type" : "VEC2"
    },
    {
      "bufferView" : 26,
      "componentType" : 5126,
      "count" : 224,
      "type" : "VEC2"
    },
    {
      "bufferView" : 27,
      "componentType" : 5123,
      "count" : 2493,
      "type" : "SCALAR"
    },
    {
      "bufferView" : 28,
      "min" : [ -53.406, 7.43299, 14.4452 ],
      "max" : [ -21.4941, 40.3231, 46.1848 ],
      "componentType" : 5126,
      "count" : 1088,
      "type" : "VEC3"
    },
    {
      "bufferView" : 29,
      "componentType" : 5126,
      "count" : 1088,
      "type" : "VEC3"
    },
    {
      "bufferView" : 30,
      "componentType" : 5126,
      "count" : 1088,
      "type" : "VEC4"
    },
    {
      "bufferView" : 31,
      "normalized" : true,
      "componentType" : 5121,
      "count" : 1088,
      "type" : "VEC4"
    },
    {
      "bufferView" : 32,
      "componentType" : 5126,
      "count" : 1088,
      "type" : "VEC2"
    },
    {
      "bufferView" : 33,
      "componentType" : 5126,
      "count" : 1088,
      "type" : "VEC2"
    },
    {
      "bufferView" : 34,
      "componentType" : 5126,
      "count" : 1088,
      "type" : "VEC2"
    },
    {
      "bufferView" : 35,
      "componentType" : 5126,
      "count" : 1088,
      "type" : "VEC2"
    },
    {
      "bufferView" : 36,
      "componentType" : 5123,
      "count" : 11040,
      "type" : "SCALAR"
    },
    {
      "bufferView" : 37,
      "min" : [ -52.6186, 6.9444, 14.1209 ],
      "max" : [ -21.3544, 31.2182, 45.3782 ],
      "componentType" : 5126,
      "count" : 6496,
      "type" : "VEC3"
    },
    {
      "bufferView" : 38,
      "componentType" : 5126,
      "count" : 6496,
      "type" : "VEC3"
    },
    {
      "bufferView" : 39,
      "componentType" : 5126,
      "count" : 6496,
      "type" : "VEC4"
    },
    {
      "bufferView" : 40,
      "normalized" : true,
      "componentType" : 5121,
      "count" : 6496,
      "type" : "VEC4"
    },
    {
      "bufferView" : 41,
      "componentType" : 5126,
      "count" : 6496,
      "type" : "VEC2"
    },
    {
      "bufferView" : 42,
      "componentType" : 5126,
      "count" : 6496,
      "type" : "VEC2"
    },
    {
      "bufferView" : 43,
      "componentType" : 5126,
      "count" : 6496,
      "type" : "VEC2"
    },
    {
      "bufferView" : 44,
      "componentType" : 5126,
      "count" : 6496,
      "type" : "VEC2"
    },
    {
      "bufferView" : 45,
      "componentType" : 5123,
      "count" : 3768,
      "type" : "SCALAR"
    },
    {
      "bufferView" : 46,
      "min" : [ -55.5458, 9.98895, 12.4967 ],
      "max" : [ -19.718, 41.3975, 48.3246 ],
      "componentType" : 5126,
      "count" : 1614,
      "type" : "VEC3"
    },
    {
      "bufferView" : 47,
      "componentType" : 5126,
      "count" : 1614,
      "type" : "VEC3"
    },
    {
      "bufferView" : 48,
      "componentType" : 5126,
      "count" : 1614,
      "type" : "VEC4"
    },
    {
      "bufferView" : 49,
      "normalized" : true,
      "componentType" : 5121,
      "count" : 1614,
      "type" : "VEC4"
    },
    {
      "bufferView" : 50,
      "componentType" : 5126,
      "count" : 1614,
      "type" : "VEC2"
    },
    {
      "bufferView" : 51,
      "componentType" : 5126,
      "count" : 1614,
      "type" : "VEC2"
    },
    {
      "bufferView" : 52,
      "componentType" : 5126,
      "count" : 1614,
      "type" : "VEC2"
    },
    {
      "bufferView" : 53,
      "componentType" : 5126,
      "count" : 1614,
      "type" : "VEC2"
    },
    {
      "bufferView" : 54,
      "componentType" : 5123,
      "count" : 4131,
      "type" : "SCALAR"
    },
    {
      "bufferView" : 55,
      "min" : [ -53.8294, 6, 14.6468 ],
      "max" : [ -21.868, 36.2536, 46.6082 ],
      "componentType" : 5126,
      "count" : 1968,
      "type" : "VEC3"
    },
    {
      "bufferView" : 56,
      "componentType" : 5126,
      "count" : 1968,
      "type" : "VEC3"
    },
    {
      "bufferView" : 57,
      "componentType" : 5126,
      "count" : 1968,
      "type" : "VEC4"
    },
    {
      "bufferView" : 58,
      "normalized" : true,
      "componentType" : 5121,
      "count" : 1968,
      "type" : "VEC4"
    },
    {
      "bufferView" : 59,
      "componentType" : 5126,
      "count" : 1968,
      "type" : "VEC2"
    },
    {
      "bufferView" : 60,
      "componentType" : 5126,
      "count" : 1968,
      "type" : "VEC2"
    },
    {
      "bufferView" : 61,
      "componentType" : 5126,
      "count" : 1968,
      "type" : "VEC2"
    },
    {
      "bufferView" : 62,
      "componentType" : 5126,
      "count" : 1968,
      "type" : "VEC2"
    },
    {
      "bufferView" : 63,
      "componentType" : 5123,
      "count" : 9321,
      "type" : "SCALAR"
    },
    {
      "bufferView" : 64,
      "min" : [ -32.1704, 9.20788, 20.5237 ],
      "max" : [ -27.7767, 11.3197, 24.9343 ],
      "componentType" : 5126,
      "count" : 2230,
      "type" : "VEC3"
    },
    {
      "bufferView" : 65,
      "componentType" : 5126,
      "count" : 2230,
      "type" : "VEC3"
    },
    {
      "bufferView" : 66,
      "componentType" : 5126,
      "count" : 2230,
      "type" : "VEC4"
    },
    {
      "bufferView" : 67,
      "normalized" : true,
      "componentType" : 5121,
      "count" : 2230,
      "type" : "VEC4"
    },
    {
      "bufferView" : 68,
      "componentType" : 5126,
      "count" : 2230,
      "type" : "VEC2"
    },
    {
      "bufferView" : 69,
      "componentType" : 5126,
      "count" : 2230,
      "type" : "VEC2"
    },
    {
      "bufferView" : 70,
      "componentType" : 5126,
      "count" : 2230,
      "type" : "VEC2"
    },
    {
      "bufferView" : 71,
      "componentType" : 5126,
      "count" : 2230,
      "type" : "VEC2"
    },
    {
      "bufferView" : 72,
      "componentType" : 5123,
      "count" : 228,
      "type" : "SCALAR"
    },
    {
      "bufferView" : 73,
      "min" : [ -35.7814, 34.5373, 23.0557 ],
      "max" : [ -30.2769, 37.7558, 28.5602 ],
      "componentType" : 5126,
      "count" : 88,
      "type" : "VEC3"
    },
    {
      "bufferView" : 74,
      "componentType" : 5126,
      "count" : 88,
      "type" : "VEC3"
    },
    {
      "bufferView" : 75,
      "componentType" : 5126,
      "count" : 88,
      "type" : "VEC4"
    },
    {
      "bufferView" : 76,
      "normalized" : true,
      "componentType" : 5121,
      "count" : 88,
      "type" : "VEC4"
    },
    {
      "bufferView" : 77,
      "componentType" : 5126,
      "count" : 88,
      "type" : "VEC2"
    },
    {
      "bufferView" : 78,
      "componentType" : 5126,
      "count" : 88,
      "type" : "VEC2"
    },
    {
      "bufferView" : 79,
      "componentType" : 5126,
      "count" : 88,
      "type" : "VEC2"
    },
    {
      "bufferView" : 80,
      "componentType" : 5126,
      "count" : 88,
      "type" : "VEC2"
    },
    {
      "bufferView" : 81,
      "componentType" : 5123,
      "count" : 252,
      "type" : "SCALAR"
    },
    {
      "bufferView" : 82,
      "min" : [ -50.8771, 24.9138, 20.2082 ],
      "max" : [ -27.4294, 31.9036, 43.6559 ],
      "componentType" : 5126,
      "count" : 92,
      "type" : "VEC3"
    },
    {
      "bufferView" : 83,
      "componentType" : 5126,
      "count" : 92,
      "type" : "VEC3"
    },
    {
      "bufferView" : 84,
      "componentType" : 5126,
      "count" : 92,
      "type" : "VEC4"
    },
    {
      "bufferView" : 85,
      "normalized" : true,
      "componentType" : 5121,
      "count" : 92,
      "type" : "VEC4"
    },
    {
      "bufferView" : 86,
      "componentType" : 5126,
      "count" : 92,
      "type" : "VEC2"
    },
    {
      "bufferView" : 87,
      "componentType" : 5126,
      "count" : 92,
      "type" : "VEC2"
    },
    {
      "bufferView" : 88,
      "componentType" : 5126,
      "count" : 92,
      "type" : "VEC2"
    },
    {
      "bufferView" : 89,
      "componentType" : 5126,
      "count" : 92,
      "type" : "VEC2"
    },
    {
      "bufferView" : 90,
      "componentType" : 5123,
      "count" : 1416,
      "type" : "SCALAR"
    },
    {
      "bufferView" : 91,
      "min" : [ -50.8624, 36.416, 16.2951 ],
      "max" : [ -23.5163, 41.5434, 43.6412 ],
      "componentType" : 5126,
      "count" : 600,
      "type" : "VEC3"
    },
    {
      "bufferView" : 92,
      "componentType" : 5126,
      "count" : 600,
      "type" : "VEC3"
    },
    {
      "bufferView" : 93,
      "componentType" : 5126,
      "count" : 600,
      "type" : "VEC4"
    },
    {
      "bufferView" : 94,
      "normalized" : true,
      "componentType" : 5121,
      "count" : 600,
      "type" : "VEC4"
    },
    {
      "bufferView" : 95,
      "componentType" : 5126,
      "count" : 600,
      "type" : "VEC2"
    },
    {
      "bufferView" : 96,
      "componentType" : 5126,
      "count" : 600,
      "type" : "VEC2"
    },
    {
      "bufferView" : 97,
      "componentType" : 5126,
      "count" : 600,
      "type" : "VEC2"
    },
    {
      "bufferView" : 98,
      "componentType" : 5126,
      "count" : 600,
      "type" : "VEC2"
    },
    {
      "bufferView" : 99,
      "componentType" : 5123,
      "count" : 1992,
      "type" : "SCALAR"
    },
    {
      "bufferView" : 100,
      "min" : [ -32.0621, 19.6233, 18.1346 ],
      "max" : [ -25.355, 21.5349, 24.8417 ],
      "componentType" : 5126,
      "count" : 464,
      "type" : "VEC3"
    },
    {
      "bufferView" : 101,
      "componentType" : 5126,
      "count" : 464,
      "type" : "VEC3"
    },
    {
      "bufferView" : 102,
      "componentType" : 5126,
      "count" : 464,
      "type" : "VEC4"
    },
    {
      "bufferView" : 103,
      "normalized" : true,
      "componentType" : 5121,
      "count" : 464,
      "type" : "VEC4"
    },
    {
      "bufferView" : 104,
      "componentType" : 5126,
      "count" : 464,
      "type" : "VEC2"
    },
    {
      "bufferView" : 105,
      "componentType" : 5126,
      "count" : 464,
      "type" : "VEC2"
    },
    {
      "bufferView" : 106,
      "componentType" : 5126,
      "count" : 464,
      "type" : "VEC2"
    },
    {
      "bufferView" : 107,
      "componentType" : 5126,
      "count" : 464,
      "type" : "VEC2"
    },
    {
      "bufferView" : 108,
      "componentType" : 5123,
      "count" : 25698,
      "type" : "SCALAR"
    },
    {
      "bufferView" : 109,
      "min" : [ -55.2741, 9.29445, 12.6064 ],
      "max" : [ -19.7776, 22.7457, 47.009 ],
      "componentType" : 5126,
      "count" : 7692,
      "type" : "VEC3"
    },
    {
      "bufferView" : 110,
      "componentType" : 5126,
      "count" : 7692,
      "type" : "VEC3"
    },
    {
      "bufferView" : 111,
      "componentType" : 5126,
      "count" : 7692,
      "type" : "VEC4"
    },
    {
      "bufferView" : 112,
      "normalized" : true,
      "componentType" : 5121,
      "count" : 7692,
      "type" : "VEC4"
    },
    {
      "bufferView" : 113,
      "componentType" : 5126,
      "count" : 7692,
      "type" : "VEC2"
    },
    {
      "bufferView" : 114,
      "componentType" : 5126,
      "count" : 7692,
      "type" : "VEC2"
    },
    {
      "bufferView" : 115,
      "componentType" : 5126,
      "count" : 7692,
      "type" : "VEC2"
    },
    {
      "bufferView" : 116,
      "componentType" : 5126,
      "count" : 7692,
      "type" : "VEC2"
    },
    {
      "bufferView" : 117,
      "componentType" : 5123,
      "count" : 25068,
      "type" : "SCALAR"
    },
    {
      "bufferView" : 118,
      "min" : [ -51.6732, 6.01554, 14.5135 ],
      "max" : [ -21.7157, 36.3155, 42.0291 ],
      "componentType" : 5126,
      "count" : 6957,
      "type" : "VEC3"
    },
    {
      "bufferView" : 119,
      "componentType" : 5126,
      "count" : 6957,
      "type" : "VEC3"
    },
    {
      "bufferView" : 120,
      "componentType" : 5126,
      "count" : 6957,
      "type" : "VEC4"
    },
    {
      "bufferView" : 121,
      "normalized" : true,
      "componentType" : 5121,
      "count" : 6957,
      "type" : "VEC4"
    },
    {
      "bufferView" : 122,
      "componentType" : 5126,
      "count" : 6957,
      "type" : "VEC2"
    },
    {
      "bufferView" : 123,
      "componentType" : 5126,
      "count" : 6957,
      "type" : "VEC2"
    },
    {
      "bufferView" : 124,
      "componentType" : 5126,
      "count" : 6957,
      "type" : "VEC2"
    },
    {
      "bufferView" : 125,
      "componentType" : 5126,
      "count" : 6957,
      "type" : "VEC2"
    },
    {
      "bufferView" : 126,
      "componentType" : 5123,
      "count" : 288,
      "type" : "SCALAR"
    },
    {
      "bufferView" : 127,
      "min" : [ -50.8271, 24.5913, 20.2582 ],
      "max" : [ -27.4794, 31.4689, 43.6059 ],
      "componentType" : 5126,
      "count" : 104,
      "type" : "VEC3"
    },
    {
      "bufferView" : 128,
      "componentType" : 5126,
      "count" : 104,
      "type" : "VEC3"
    },
    {
      "bufferView" : 129,
      "componentType" : 5126,
      "count" : 104,
      "type" : "VEC4"
    },
    {
      "bufferView" : 130,
      "normalized" : true,
      "componentType" : 5121,
      "count" : 104,
      "type" : "VEC4"
    },
    {
      "bufferView" : 131,
      "componentType" : 5126,
      "count" : 104,
      "type" : "VEC2"
    },
    {
      "bufferView" : 132,
      "componentType" : 5126,
      "count" : 104,
      "type" : "VEC2"
    },
    {
      "bufferView" : 133,
      "componentType" : 5126,
      "count" : 104,
      "type" : "VEC2"
    },
    {
      "bufferView" : 134,
      "componentType" : 5126,
      "count" : 104,
      "type" : "VEC2"
    },
    {
      "bufferView" : 135,
      "componentType" : 5123,
      "count" : 30,
      "type" : "SCALAR"
    },
    {
      "bufferView" : 136,
      "min" : [ -35.4264, 6.04191, 21.3409 ],
      "max" : [ -28.6053, 9.73686, 28.162 ],
      "componentType" : 5126,
      "count" : 20,
      "type" : "VEC3"
    },
    {
      "bufferView" : 137,
      "componentType" : 5126,
      "count" : 20,
      "type" : "VEC3"
    },
    {
      "bufferView" : 138,
      "componentType" : 5126,
      "count" : 20,
      "type" : "VEC4"
    },
    {
      "bufferView" : 139,
      "normalized" : true,
      "componentType" : 5121,
      "count" : 20,
      "type" : "VEC4"
    },
    {
      "bufferView" : 140,
      "componentType" : 5126,
      "count" : 20,
      "type" : "VEC2"
    },
    {
      "bufferView" : 141,
      "componentType" : 5126,
      "count" : 20,
      "type" : "VEC2"
    },
    {
      "bufferView" : 142,
      "componentType" : 5126,
      "count" : 20,
      "type" : "VEC2"
    },
    {
      "bufferView" : 143,
      "componentType" : 5126,
      "count" : 20,
      "type" : "VEC2"
    }
  ]
}
