{
  "asset" : {
    "generator" : "UE Viewer (umodel) build 1544 based",
    "version" : "2.0"
  },
  "scene" : 0,
  "scenes" : [
    {
      "nodes" : [ 0 ]
    }
  ],
  "nodes" : [
    {
      "name" : "SM_ENV_LKNVLD_TreeSet_L_Lod1",
      "mesh" : 0
    }
  ],
  "materials" : [
    {
      "name" : "MI_ENV_LKNVLD_Tree_A",
      "pbrMetallicRoughness" : {
        "baseColorFactor" : [ 0.3, 0.3, 0.3, 1.0 ],
        "metallicFactor" : 0.1,
        "roughnessFactor" : 0.5
      }
    },
    {
      "name" : "MI_ENV_LKNVLD_LeafMasked_A",
      "pbrMetallicRoughness" : {
        "baseColorFactor" : [ 0.9, 0.3, 0.3, 1.0 ],
        "metallicFactor" : 0.1,
        "roughnessFactor" : 0.5
      }
    },
    {
      "name" : "MI_ENV_LKNVLD_Leaf_A",
      "pbrMetallicRoughness" : {
        "baseColorFactor" : [ 0.3, 0.9, 0.3, 1.0 ],
        "metallicFactor" : 0.1,
        "roughnessFactor" : 0.5
      }
    }
  ],
  "meshes" : [
    {
      "primitives" : [
        {
          "attributes" : {
            "POSITION" : 1,
            "NORMAL" : 2,
            "TANGENT" : 3,
            "COLOR_0" : 4,
            "TEXCOORD_0" : 5,
            "TEXCOORD_1" : 6,
            "TEXCOORD_2" : 7,
            "TEXCOORD_3" : 8
          },
          "indices" : 0,
          "material" : 0
        },
        {
          "attributes" : {
            "POSITION" : 10,
            "NORMAL" : 11,
            "TANGENT" : 12,
            "COLOR_0" : 13,
            "TEXCOORD_0" : 14,
            "TEXCOORD_1" : 15,
            "TEXCOORD_2" : 16,
            "TEXCOORD_3" : 17
          },
          "indices" : 9,
          "material" : 1
        },
        {
          "attributes" : {
            "POSITION" : 19,
            "NORMAL" : 20,
            "TANGENT" : 21,
            "COLOR_0" : 22,
            "TEXCOORD_0" : 23,
            "TEXCOORD_1" : 24,
            "TEXCOORD_2" : 25,
            "TEXCOORD_3" : 26
          },
          "indices" : 18,
          "material" : 2
        }
      ],
      "name" : "SM_ENV_LKNVLD_TreeSet_L_Lod1"
    }
  ],
  "buffers" : [
    {
      "uri" : "SM_ENV_LKNVLD_TreeSet_L_Lod1.bin",
      "byteLength" : 1467008
    }
  ],
  "bufferViews" : [
    {
      "buffer" : 0,
      "byteOffset" : 0,
      "byteLength" : 4932
    },
    {
      "buffer" : 0,
      "byteOffset" : 4932,
      "byteLength" : 21996
    },
    {
      "buffer" : 0,
      "byteOffset" : 26928,
      "byteLength" : 21996
    },
    {
      "buffer" : 0,
      "byteOffset" : 48924,
      "byteLength" : 29328
    },
    {
      "buffer" : 0,
      "byteOffset" : 78252,
      "byteLength" : 7332
    },
    {
      "buffer" : 0,
      "byteOffset" : 85584,
      "byteLength" : 14664
    },
    {
      "buffer" : 0,
      "byteOffset" : 100248,
      "byteLength" : 14664
    },
    {
      "buffer" : 0,
      "byteOffset" : 114912,
      "byteLength" : 14664
    },
    {
      "buffer" : 0,
      "byteOffset" : 129576,
      "byteLength" : 14664
    },
    {
      "buffer" : 0,
      "byteOffset" : 144240,
      "byteLength" : 64332
    },
    {
      "buffer" : 0,
      "byteOffset" : 208572,
      "byteLength" : 171552
    },
    {
      "buffer" : 0,
      "byteOffset" : 380124,
      "byteLength" : 171552
    },
    {
      "buffer" : 0,
      "byteOffset" : 551676,
      "byteLength" : 228736
    },
    {
      "buffer" : 0,
      "byteOffset" : 780412,
      "byteLength" : 57184
    },
    {
      "buffer" : 0,
      "byteOffset" : 837596,
      "byteLength" : 114368
    },
    {
      "buffer" : 0,
      "byteOffset" : 951964,
      "byteLength" : 114368
    },
    {
      "buffer" : 0,
      "byteOffset" : 1066332,
      "byteLength" : 114368
    },
    {
      "buffer" : 0,
      "byteOffset" : 1180700,
      "byteLength" : 114368
    },
    {
      "buffer" : 0,
      "byteOffset" : 1295068,
      "byteLength" : 12416
    },
    {
      "buffer" : 0,
      "byteOffset" : 1307484,
      "byteLength" : 25188
    },
    {
      "buffer" : 0,
      "byteOffset" : 1332672,
      "byteLength" : 25188
    },
    {
      "buffer" : 0,
      "byteOffset" : 1357860,
      "byteLength" : 33584
    },
    {
      "buffer" : 0,
      "byteOffset" : 1391444,
      "byteLength" : 8396
    },
    {
      "buffer" : 0,
      "byteOffset" : 1399840,
      "byteLength" : 16792
    },
    {
      "buffer" : 0,
      "byteOffset" : 1416632,
      "byteLength" : 16792
    },
    {
      "buffer" : 0,
      "byteOffset" : 1433424,
      "byteLength" : 16792
    },
    {
      "buffer" : 0,
      "byteOffset" : 1450216,
      "byteLength" : 16792
    }
  ],
  "accessors" : [
    {
      "bufferView" : 0,
      "componentType" : 5123,
      "count" : 2466,
      "type" : "SCALAR"
    },
    {
      "bufferView" : 1,
      "min" : [ 69.1115, -0.624774, -60.268 ],
      "max" : [ 80.6938, 11.2344, -40.0132 ],
      "componentType" : 5126,
      "count" : 1833,
      "type" : "VEC3"
    },
    {
      "bufferView" : 2,
      "componentType" : 5126,
      "count" : 1833,
      "type" : "VEC3"
    },
    {
      "bufferView" : 3,
      "componentType" : 5126,
      "count" : 1833,
      "type" : "VEC4"
    },
    {
      "bufferView" : 4,
      "normalized" : true,
      "componentType" : 5121,
      "count" : 1833,
      "type" : "VEC4"
    },
    {
      "bufferView" : 5,
      "componentType" : 5126,
      "count" : 1833,
      "type" : "VEC2"
    },
    {
      "bufferView" : 6,
      "componentType" : 5126,
      "count" : 1833,
      "type" : "VEC2"
    },
    {
      "bufferView" : 7,
      "componentType" : 5126,
      "count" : 1833,
      "type" : "VEC2"
    },
    {
      "bufferView" : 8,
      "componentType" : 5126,
      "count" : 1833,
      "type" : "VEC2"
    },
    {
      "bufferView" : 9,
      "componentType" : 5123,
      "count" : 32166,
      "type" : "SCALAR"
    },
    {
      "bufferView" : 10,
      "min" : [ 66.8795, 4.38912, -62.8018 ],
      "max" : [ 81.7255, 12.9955, -37.4624 ],
      "componentType" : 5126,
      "count" : 14296,
      "type" : "VEC3"
    },
    {
      "bufferView" : 11,
      "componentType" : 5126,
      "count" : 14296,
      "type" : "VEC3"
    },
    {
      "bufferView" : 12,
      "componentType" : 5126,
      "count" : 14296,
      "type" : "VEC4"
    },
    {
      "bufferView" : 13,
      "normalized" : true,
      "componentType" : 5121,
      "count" : 14296,
      "type" : "VEC4"
    },
    {
      "bufferView" : 14,
      "componentType" : 5126,
      "count" : 14296,
      "type" : "VEC2"
    },
    {
      "bufferView" : 15,
      "componentType" : 5126,
      "count" : 14296,
      "type" : "VEC2"
    },
    {
      "bufferView" : 16,
      "componentType" : 5126,
      "count" : 14296,
      "type" : "VEC2"
    },
    {
      "bufferView" : 17,
      "componentType" : 5126,
      "count" : 14296,
      "type" : "VEC2"
    },
    {
      "bufferView" : 18,
      "componentType" : 5123,
      "count" : 6207,
      "type" : "SCALAR"
    },
    {
      "bufferView" : 19,
      "min" : [ 67.1269, 4.64725, -62.558 ],
      "max" : [ 81.4427, 12.6556, -37.7089 ],
      "componentType" : 5126,
      "count" : 2099,
      "type" : "VEC3"
    },
    {
      "bufferView" : 20,
      "componentType" : 5126,
      "count" : 2099,
      "type" : "VEC3"
    },
    {
      "bufferView" : 21,
      "componentType" : 5126,
      "count" : 2099,
      "type" : "VEC4"
    },
    {
      "bufferView" : 22,
      "normalized" : true,
      "componentType" : 5121,
      "count" : 2099,
      "type" : "VEC4"
    },
    {
      "bufferView" : 23,
      "componentType" : 5126,
      "count" : 2099,
      "type" : "VEC2"
    },
    {
      "bufferView" : 24,
      "componentType" : 5126,
      "count" : 2099,
      "type" : "VEC2"
    },
    {
      "bufferView" : 25,
      "componentType" : 5126,
      "count" : 2099,
      "type" : "VEC2"
    },
    {
      "bufferView" : 26,
      "componentType" : 5126,
      "count" : 2099,
      "type" : "VEC2"
    }
  ]
}
