{
  "asset" : {
    "generator" : "UE Viewer (umodel) build 1544 based",
    "version" : "2.0"
  },
  "scene" : 0,
  "scenes" : [
    {
      "nodes" : [ 0 ]
    }
  ],
  "nodes" : [
    {
      "name" : "SM_ENV_LKNVLD_TreeSet_P_Lod2",
      "mesh" : 0
    }
  ],
  "materials" : [
    {
      "name" : "MI_ENV_LKNVLD_LeafMasked_A",
      "pbrMetallicRoughness" : {
        "baseColorFactor" : [ 0.3, 0.3, 0.3, 1.0 ],
        "metallicFactor" : 0.1,
        "roughnessFactor" : 0.5
      }
    },
    {
      "name" : "MI_ENV_LKNVLD_Leaf_A",
      "pbrMetallicRoughness" : {
        "baseColorFactor" : [ 0.9, 0.3, 0.3, 1.0 ],
        "metallicFactor" : 0.1,
        "roughnessFactor" : 0.5
      }
    },
    {
      "name" : "MI_ENV_LKNVLD_Tree_A",
      "pbrMetallicRoughness" : {
        "baseColorFactor" : [ 0.3, 0.9, 0.3, 1.0 ],
        "metallicFactor" : 0.1,
        "roughnessFactor" : 0.5
      }
    }
  ],
  "meshes" : [
    {
      "primitives" : [
        {
          "attributes" : {
            "POSITION" : 1,
            "NORMAL" : 2,
            "TANGENT" : 3,
            "COLOR_0" : 4,
            "TEXCOORD_0" : 5,
            "TEXCOORD_1" : 6,
            "TEXCOORD_2" : 7,
            "TEXCOORD_3" : 8
          },
          "indices" : 0,
          "material" : 0
        },
        {
          "attributes" : {
            "POSITION" : 10,
            "NORMAL" : 11,
            "TANGENT" : 12,
            "COLOR_0" : 13,
            "TEXCOORD_0" : 14,
            "TEXCOORD_1" : 15,
            "TEXCOORD_2" : 16,
            "TEXCOORD_3" : 17
          },
          "indices" : 9,
          "material" : 1
        },
        {
          "attributes" : {
            "POSITION" : 19,
            "NORMAL" : 20,
            "TANGENT" : 21,
            "COLOR_0" : 22,
            "TEXCOORD_0" : 23,
            "TEXCOORD_1" : 24,
            "TEXCOORD_2" : 25,
            "TEXCOORD_3" : 26
          },
          "indices" : 18,
          "material" : 2
        }
      ],
      "name" : "SM_ENV_LKNVLD_TreeSet_P_Lod2"
    }
  ],
  "buffers" : [
    {
      "uri" : "SM_ENV_LKNVLD_TreeSet_P_Lod2.bin",
      "byteLength" : 1028072
    }
  ],
  "bufferViews" : [
    {
      "buffer" : 0,
      "byteOffset" : 0,
      "byteLength" : 32328
    },
    {
      "buffer" : 0,
      "byteOffset" : 32328,
      "byteLength" : 120948
    },
    {
      "buffer" : 0,
      "byteOffset" : 153276,
      "byteLength" : 120948
    },
    {
      "buffer" : 0,
      "byteOffset" : 274224,
      "byteLength" : 161264
    },
    {
      "buffer" : 0,
      "byteOffset" : 435488,
      "byteLength" : 40316
    },
    {
      "buffer" : 0,
      "byteOffset" : 475804,
      "byteLength" : 80632
    },
    {
      "buffer" : 0,
      "byteOffset" : 556436,
      "byteLength" : 80632
    },
    {
      "buffer" : 0,
      "byteOffset" : 637068,
      "byteLength" : 80632
    },
    {
      "buffer" : 0,
      "byteOffset" : 717700,
      "byteLength" : 80632
    },
    {
      "buffer" : 0,
      "byteOffset" : 798332,
      "byteLength" : 8436
    },
    {
      "buffer" : 0,
      "byteOffset" : 806768,
      "byteLength" : 21084
    },
    {
      "buffer" : 0,
      "byteOffset" : 827852,
      "byteLength" : 21084
    },
    {
      "buffer" : 0,
      "byteOffset" : 848936,
      "byteLength" : 28112
    },
    {
      "buffer" : 0,
      "byteOffset" : 877048,
      "byteLength" : 7028
    },
    {
      "buffer" : 0,
      "byteOffset" : 884076,
      "byteLength" : 14056
    },
    {
      "buffer" : 0,
      "byteOffset" : 898132,
      "byteLength" : 14056
    },
    {
      "buffer" : 0,
      "byteOffset" : 912188,
      "byteLength" : 14056
    },
    {
      "buffer" : 0,
      "byteOffset" : 926244,
      "byteLength" : 14056
    },
    {
      "buffer" : 0,
      "byteOffset" : 940300,
      "byteLength" : 3032
    },
    {
      "buffer" : 0,
      "byteOffset" : 943332,
      "byteLength" : 13380
    },
    {
      "buffer" : 0,
      "byteOffset" : 956712,
      "byteLength" : 13380
    },
    {
      "buffer" : 0,
      "byteOffset" : 970092,
      "byteLength" : 17840
    },
    {
      "buffer" : 0,
      "byteOffset" : 987932,
      "byteLength" : 4460
    },
    {
      "buffer" : 0,
      "byteOffset" : 992392,
      "byteLength" : 8920
    },
    {
      "buffer" : 0,
      "byteOffset" : 1001312,
      "byteLength" : 8920
    },
    {
      "buffer" : 0,
      "byteOffset" : 1010232,
      "byteLength" : 8920
    },
    {
      "buffer" : 0,
      "byteOffset" : 1019152,
      "byteLength" : 8920
    }
  ],
  "accessors" : [
    {
      "bufferView" : 0,
      "componentType" : 5123,
      "count" : 16164,
      "type" : "SCALAR"
    },
    {
      "bufferView" : 1,
      "min" : [ -68.8332, 4.17494, -31.0443 ],
      "max" : [ -55.1146, 18.1848, -11.2592 ],
      "componentType" : 5126,
      "count" : 10079,
      "type" : "VEC3"
    },
    {
      "bufferView" : 2,
      "componentType" : 5126,
      "count" : 10079,
      "type" : "VEC3"
    },
    {
      "bufferView" : 3,
      "componentType" : 5126,
      "count" : 10079,
      "type" : "VEC4"
    },
    {
      "bufferView" : 4,
      "normalized" : true,
      "componentType" : 5121,
      "count" : 10079,
      "type" : "VEC4"
    },
    {
      "bufferView" : 5,
      "componentType" : 5126,
      "count" : 10079,
      "type" : "VEC2"
    },
    {
      "bufferView" : 6,
      "componentType" : 5126,
      "count" : 10079,
      "type" : "VEC2"
    },
    {
      "bufferView" : 7,
      "componentType" : 5126,
      "count" : 10079,
      "type" : "VEC2"
    },
    {
      "bufferView" : 8,
      "componentType" : 5126,
      "count" : 10079,
      "type" : "VEC2"
    },
    {
      "bufferView" : 9,
      "componentType" : 5123,
      "count" : 4218,
      "type" : "SCALAR"
    },
    {
      "bufferView" : 10,
      "min" : [ -68.6447, 4.3998, -30.7529 ],
      "max" : [ -55.4362, 17.967, -11.4116 ],
      "componentType" : 5126,
      "count" : 1757,
      "type" : "VEC3"
    },
    {
      "bufferView" : 11,
      "componentType" : 5126,
      "count" : 1757,
      "type" : "VEC3"
    },
    {
      "bufferView" : 12,
      "componentType" : 5126,
      "count" : 1757,
      "type" : "VEC4"
    },
    {
      "bufferView" : 13,
      "normalized" : true,
      "componentType" : 5121,
      "count" : 1757,
      "type" : "VEC4"
    },
    {
      "bufferView" : 14,
      "componentType" : 5126,
      "count" : 1757,
      "type" : "VEC2"
    },
    {
      "bufferView" : 15,
      "componentType" : 5126,
      "count" : 1757,
      "type" : "VEC2"
    },
    {
      "bufferView" : 16,
      "componentType" : 5126,
      "count" : 1757,
      "type" : "VEC2"
    },
    {
      "bufferView" : 17,
      "componentType" : 5126,
      "count" : 1757,
      "type" : "VEC2"
    },
    {
      "bufferView" : 18,
      "componentType" : 5123,
      "count" : 1515,
      "type" : "SCALAR"
    },
    {
      "bufferView" : 19,
      "min" : [ -67.052, -0.854178, -29.7533 ],
      "max" : [ -57.6566, 14.4188, -13.4848 ],
      "componentType" : 5126,
      "count" : 1115,
      "type" : "VEC3"
    },
    {
      "bufferView" : 20,
      "componentType" : 5126,
      "count" : 1115,
      "type" : "VEC3"
    },
    {
      "bufferView" : 21,
      "componentType" : 5126,
      "count" : 1115,
      "type" : "VEC4"
    },
    {
      "bufferView" : 22,
      "normalized" : true,
      "componentType" : 5121,
      "count" : 1115,
      "type" : "VEC4"
    },
    {
      "bufferView" : 23,
      "componentType" : 5126,
      "count" : 1115,
      "type" : "VEC2"
    },
    {
      "bufferView" : 24,
      "componentType" : 5126,
      "count" : 1115,
      "type" : "VEC2"
    },
    {
      "bufferView" : 25,
      "componentType" : 5126,
      "count" : 1115,
      "type" : "VEC2"
    },
    {
      "bufferView" : 26,
      "componentType" : 5126,
      "count" : 1115,
      "type" : "VEC2"
    }
  ]
}
