{
  "asset" : {
    "generator" : "UE Viewer (umodel) build 1544 based",
    "version" : "2.0"
  },
  "scene" : 0,
  "scenes" : [
    {
      "nodes" : [ 0 ]
    }
  ],
  "nodes" : [
    {
      "name" : "SM_ENV_LKNVLD_Hatago_Front_Lod2",
      "mesh" : 0
    }
  ],
  "materials" : [
    {
      "name" : "MI_ENV_LKNVLD_Eaves_E",
      "pbrMetallicRoughness" : {
        "baseColorFactor" : [ 0.3, 0.3, 0.3, 1.0 ],
        "metallicFactor" : 0.1,
        "roughnessFactor" : 0.5
      }
    },
    {
      "name" : "MI_ENV_LKNVLD_RoofTiles_Green",
      "pbrMetallicRoughness" : {
        "baseColorFactor" : [ 0.9, 0.3, 0.3, 1.0 ],
        "metallicFactor" : 0.1,
        "roughnessFactor" : 0.5
      }
    },
    {
      "name" : "MI_ENV_LKNVLD_Aircon_E",
      "pbrMetallicRoughness" : {
        "baseColorFactor" : [ 0.3, 0.9, 0.3, 1.0 ],
        "metallicFactor" : 0.1,
        "roughnessFactor" : 0.5
      }
    },
    {
      "name" : "MI_ENV_LKNVLD_WoodWindows_D",
      "pbrMetallicRoughness" : {
        "baseColorFactor" : [ 0.3, 0.3, 0.9, 1.0 ],
        "metallicFactor" : 0.1,
        "roughnessFactor" : 0.5
      }
    },
    {
      "name" : "MI_ENV_LKNVLD_WoodPlain_Beige",
      "pbrMetallicRoughness" : {
        "baseColorFactor" : [ 0.9, 0.9, 0.9, 1.0 ],
        "metallicFactor" : 0.1,
        "roughnessFactor" : 0.5
      }
    },
    {
      "name" : "MI_ENV_LKNVLD_BambooWall",
      "pbrMetallicRoughness" : {
        "baseColorFactor" : [ 0.9, 0.9, 0.3, 1.0 ],
        "metallicFactor" : 0.1,
        "roughnessFactor" : 0.5
      }
    },
    {
      "name" : "MI_ENV_LKNVLD_Aircon_H",
      "pbrMetallicRoughness" : {
        "baseColorFactor" : [ 0.9, 0.3, 0.9, 1.0 ],
        "metallicFactor" : 0.1,
        "roughnessFactor" : 0.5
      }
    },
    {
      "name" : "MI_ENV_LKNVLD_MetalRoof_Green",
      "pbrMetallicRoughness" : {
        "baseColorFactor" : [ 0.3, 0.9, 0.9, 1.0 ],
        "metallicFactor" : 0.1,
        "roughnessFactor" : 0.5
      }
    },
    {
      "name" : "MI_ENV_LKNVLD_Curtain_F",
      "pbrMetallicRoughness" : {
        "baseColorFactor" : [ 1, 0.3, 0.3, 1.0 ],
        "metallicFactor" : 0.1,
        "roughnessFactor" : 0.5
      }
    },
    {
      "name" : "MI_ENV_LKNVLD_WoodPlain_Brown",
      "pbrMetallicRoughness" : {
        "baseColorFactor" : [ 0.6, 0.3, 0.3, 1.0 ],
        "metallicFactor" : 0.1,
        "roughnessFactor" : 0.5
      }
    },
    {
      "name" : "MI_ENV_LKNVLD_ClanSignboard_I",
      "pbrMetallicRoughness" : {
        "baseColorFactor" : [ 1, 0.9, 0.3, 1.0 ],
        "metallicFactor" : 0.1,
        "roughnessFactor" : 0.5
      }
    },
    {
      "name" : "MI_ENV_LKNVLD_Plaster_White",
      "pbrMetallicRoughness" : {
        "baseColorFactor" : [ 1, 0.3, 0.9, 1.0 ],
        "metallicFactor" : 0.1,
        "roughnessFactor" : 0.5
      }
    },
    {
      "name" : "MI_ENV_LKNVLD_WoodWindows_C",
      "pbrMetallicRoughness" : {
        "baseColorFactor" : [ 0.6, 0.9, 0.9, 1.0 ],
        "metallicFactor" : 0.1,
        "roughnessFactor" : 0.5
      }
    },
    {
      "name" : "MI_ENV_LKNVLD_MetalRoofDark",
      "pbrMetallicRoughness" : {
        "baseColorFactor" : [ 0.6, 0.9, 0.3, 1.0 ],
        "metallicFactor" : 0.1,
        "roughnessFactor" : 0.5
      }
    },
    {
      "name" : "MI_T_ENV_LKNVLD_StoneStairs",
      "pbrMetallicRoughness" : {
        "baseColorFactor" : [ 0.6, 0.3, 0.9, 1.0 ],
        "metallicFactor" : 0.1,
        "roughnessFactor" : 0.5
      }
    },
    {
      "name" : "MI_T_ENV_LKNVLD_StoneTrim",
      "pbrMetallicRoughness" : {
        "baseColorFactor" : [ 1, 0.9, 0.9, 1.0 ],
        "metallicFactor" : 0.1,
        "roughnessFactor" : 0.5
      }
    },
    {
      "name" : "MI_ENV_LKNVLD_ClanSignboard_H",
      "pbrMetallicRoughness" : {
        "baseColorFactor" : [ 0.3, 1, 0.3, 1.0 ],
        "metallicFactor" : 0.1,
        "roughnessFactor" : 0.5
      }
    },
    {
      "name" : "MI_ENV_LKNVLD_Pipe_A",
      "pbrMetallicRoughness" : {
        "baseColorFactor" : [ 0.9, 1, 0.3, 1.0 ],
        "metallicFactor" : 0.1,
        "roughnessFactor" : 0.5
      }
    }
  ],
  "meshes" : [
    {
      "primitives" : [
        {
          "attributes" : {
            "POSITION" : 1,
            "NORMAL" : 2,
            "TANGENT" : 3,
            "COLOR_0" : 4,
            "TEXCOORD_0" : 5,
            "TEXCOORD_1" : 6,
            "TEXCOORD_2" : 7,
            "TEXCOORD_3" : 8
          },
          "indices" : 0,
          "material" : 0
        },
        {
          "attributes" : {
            "POSITION" : 10,
            "NORMAL" : 11,
            "TANGENT" : 12,
            "COLOR_0" : 13,
            "TEXCOORD_0" : 14,
            "TEXCOORD_1" : 15,
            "TEXCOORD_2" : 16,
            "TEXCOORD_3" : 17
          },
          "indices" : 9,
          "material" : 1
        },
        {
          "attributes" : {
            "POSITION" : 19,
            "NORMAL" : 20,
            "TANGENT" : 21,
            "COLOR_0" : 22,
            "TEXCOORD_0" : 23,
            "TEXCOORD_1" : 24,
            "TEXCOORD_2" : 25,
            "TEXCOORD_3" : 26
          },
          "indices" : 18,
          "material" : 2
        },
        {
          "attributes" : {
            "POSITION" : 28,
            "NORMAL" : 29,
            "TANGENT" : 30,
            "COLOR_0" : 31,
            "TEXCOORD_0" : 32,
            "TEXCOORD_1" : 33,
            "TEXCOORD_2" : 34,
            "TEXCOORD_3" : 35
          },
          "indices" : 27,
          "material" : 3
        },
        {
          "attributes" : {
            "POSITION" : 37,
            "NORMAL" : 38,
            "TANGENT" : 39,
            "COLOR_0" : 40,
            "TEXCOORD_0" : 41,
            "TEXCOORD_1" : 42,
            "TEXCOORD_2" : 43,
            "TEXCOORD_3" : 44
          },
          "indices" : 36,
          "material" : 4
        },
        {
          "attributes" : {
            "POSITION" : 46,
            "NORMAL" : 47,
            "TANGENT" : 48,
            "COLOR_0" : 49,
            "TEXCOORD_0" : 50,
            "TEXCOORD_1" : 51,
            "TEXCOORD_2" : 52,
            "TEXCOORD_3" : 53
          },
          "indices" : 45,
          "material" : 5
        },
        {
          "attributes" : {
            "POSITION" : 55,
            "NORMAL" : 56,
            "TANGENT" : 57,
            "COLOR_0" : 58,
            "TEXCOORD_0" : 59,
            "TEXCOORD_1" : 60,
            "TEXCOORD_2" : 61,
            "TEXCOORD_3" : 62
          },
          "indices" : 54,
          "material" : 6
        },
        {
          "attributes" : {
            "POSITION" : 64,
            "NORMAL" : 65,
            "TANGENT" : 66,
            "COLOR_0" : 67,
            "TEXCOORD_0" : 68,
            "TEXCOORD_1" : 69,
            "TEXCOORD_2" : 70,
            "TEXCOORD_3" : 71
          },
          "indices" : 63,
          "material" : 7
        },
        {
          "attributes" : {
            "POSITION" : 73,
            "NORMAL" : 74,
            "TANGENT" : 75,
            "COLOR_0" : 76,
            "TEXCOORD_0" : 77,
            "TEXCOORD_1" : 78,
            "TEXCOORD_2" : 79,
            "TEXCOORD_3" : 80
          },
          "indices" : 72,
          "material" : 8
        },
        {
          "attributes" : {
            "POSITION" : 82,
            "NORMAL" : 83,
            "TANGENT" : 84,
            "COLOR_0" : 85,
            "TEXCOORD_0" : 86,
            "TEXCOORD_1" : 87,
            "TEXCOORD_2" : 88,
            "TEXCOORD_3" : 89
          },
          "indices" : 81,
          "material" : 9
        },
        {
          "attributes" : {
            "POSITION" : 91,
            "NORMAL" : 92,
            "TANGENT" : 93,
            "COLOR_0" : 94,
            "TEXCOORD_0" : 95,
            "TEXCOORD_1" : 96,
            "TEXCOORD_2" : 97,
            "TEXCOORD_3" : 98
          },
          "indices" : 90,
          "material" : 10
        },
        {
          "attributes" : {
            "POSITION" : 100,
            "NORMAL" : 101,
            "TANGENT" : 102,
            "COLOR_0" : 103,
            "TEXCOORD_0" : 104,
            "TEXCOORD_1" : 105,
            "TEXCOORD_2" : 106,
            "TEXCOORD_3" : 107
          },
          "indices" : 99,
          "material" : 11
        },
        {
          "attributes" : {
            "POSITION" : 109,
            "NORMAL" : 110,
            "TANGENT" : 111,
            "COLOR_0" : 112,
            "TEXCOORD_0" : 113,
            "TEXCOORD_1" : 114,
            "TEXCOORD_2" : 115,
            "TEXCOORD_3" : 116
          },
          "indices" : 108,
          "material" : 12
        },
        {
          "attributes" : {
            "POSITION" : 118,
            "NORMAL" : 119,
            "TANGENT" : 120,
            "COLOR_0" : 121,
            "TEXCOORD_0" : 122,
            "TEXCOORD_1" : 123,
            "TEXCOORD_2" : 124,
            "TEXCOORD_3" : 125
          },
          "indices" : 117,
          "material" : 13
        },
        {
          "attributes" : {
            "POSITION" : 127,
            "NORMAL" : 128,
            "TANGENT" : 129,
            "COLOR_0" : 130,
            "TEXCOORD_0" : 131,
            "TEXCOORD_1" : 132,
            "TEXCOORD_2" : 133,
            "TEXCOORD_3" : 134
          },
          "indices" : 126,
          "material" : 14
        },
        {
          "attributes" : {
            "POSITION" : 136,
            "NORMAL" : 137,
            "TANGENT" : 138,
            "COLOR_0" : 139,
            "TEXCOORD_0" : 140,
            "TEXCOORD_1" : 141,
            "TEXCOORD_2" : 142,
            "TEXCOORD_3" : 143
          },
          "indices" : 135,
          "material" : 15
        },
        {
          "attributes" : {
            "POSITION" : 145,
            "NORMAL" : 146,
            "TANGENT" : 147,
            "COLOR_0" : 148,
            "TEXCOORD_0" : 149,
            "TEXCOORD_1" : 150,
            "TEXCOORD_2" : 151,
            "TEXCOORD_3" : 152
          },
          "indices" : 144,
          "material" : 16
        },
        {
          "attributes" : {
            "POSITION" : 154,
            "NORMAL" : 155,
            "TANGENT" : 156,
            "COLOR_0" : 157,
            "TEXCOORD_0" : 158,
            "TEXCOORD_1" : 159,
            "TEXCOORD_2" : 160,
            "TEXCOORD_3" : 161
          },
          "indices" : 153,
          "material" : 17
        }
      ],
      "name" : "SM_ENV_LKNVLD_Hatago_Front_Lod2"
    }
  ],
  "buffers" : [
    {
      "uri" : "SM_ENV_LKNVLD_Hatago_Front_Lod2.bin",
      "byteLength" : 453524
    }
  ],
  "bufferViews" : [
    {
      "buffer" : 0,
      "byteOffset" : 0,
      "byteLength" : 3036
    },
    {
      "buffer" : 0,
      "byteOffset" : 3036,
      "byteLength" : 11292
    },
    {
      "buffer" : 0,
      "byteOffset" : 14328,
      "byteLength" : 11292
    },
    {
      "buffer" : 0,
      "byteOffset" : 25620,
      "byteLength" : 15056
    },
    {
      "buffer" : 0,
      "byteOffset" : 40676,
      "byteLength" : 3764
    },
    {
      "buffer" : 0,
      "byteOffset" : 44440,
      "byteLength" : 7528
    },
    {
      "buffer" : 0,
      "byteOffset" : 51968,
      "byteLength" : 7528
    },
    {
      "buffer" : 0,
      "byteOffset" : 59496,
      "byteLength" : 7528
    },
    {
      "buffer" : 0,
      "byteOffset" : 67024,
      "byteLength" : 7528
    },
    {
      "buffer" : 0,
      "byteOffset" : 74552,
      "byteLength" : 6336
    },
    {
      "buffer" : 0,
      "byteOffset" : 80888,
      "byteLength" : 11352
    },
    {
      "buffer" : 0,
      "byteOffset" : 92240,
      "byteLength" : 11352
    },
    {
      "buffer" : 0,
      "byteOffset" : 103592,
      "byteLength" : 15136
    },
    {
      "buffer" : 0,
      "byteOffset" : 118728,
      "byteLength" : 3784
    },
    {
      "buffer" : 0,
      "byteOffset" : 122512,
      "byteLength" : 7568
    },
    {
      "buffer" : 0,
      "byteOffset" : 130080,
      "byteLength" : 7568
    },
    {
      "buffer" : 0,
      "byteOffset" : 137648,
      "byteLength" : 7568
    },
    {
      "buffer" : 0,
      "byteOffset" : 145216,
      "byteLength" : 7568
    },
    {
      "buffer" : 0,
      "byteOffset" : 152784,
      "byteLength" : 2352
    },
    {
      "buffer" : 0,
      "byteOffset" : 155136,
      "byteLength" : 3912
    },
    {
      "buffer" : 0,
      "byteOffset" : 159048,
      "byteLength" : 3912
    },
    {
      "buffer" : 0,
      "byteOffset" : 162960,
      "byteLength" : 5216
    },
    {
      "buffer" : 0,
      "byteOffset" : 168176,
      "byteLength" : 1304
    },
    {
      "buffer" : 0,
      "byteOffset" : 169480,
      "byteLength" : 2608
    },
    {
      "buffer" : 0,
      "byteOffset" : 172088,
      "byteLength" : 2608
    },
    {
      "buffer" : 0,
      "byteOffset" : 174696,
      "byteLength" : 2608
    },
    {
      "buffer" : 0,
      "byteOffset" : 177304,
      "byteLength" : 2608
    },
    {
      "buffer" : 0,
      "byteOffset" : 179912,
      "byteLength" : 48
    },
    {
      "buffer" : 0,
      "byteOffset" : 179960,
      "byteLength" : 192
    },
    {
      "buffer" : 0,
      "byteOffset" : 180152,
      "byteLength" : 192
    },
    {
      "buffer" : 0,
      "byteOffset" : 180344,
      "byteLength" : 256
    },
    {
      "buffer" : 0,
      "byteOffset" : 180600,
      "byteLength" : 64
    },
    {
      "buffer" : 0,
      "byteOffset" : 180664,
      "byteLength" : 128
    },
    {
      "buffer" : 0,
      "byteOffset" : 180792,
      "byteLength" : 128
    },
    {
      "buffer" : 0,
      "byteOffset" : 180920,
      "byteLength" : 128
    },
    {
      "buffer" : 0,
      "byteOffset" : 181048,
      "byteLength" : 128
    },
    {
      "buffer" : 0,
      "byteOffset" : 181176,
      "byteLength" : 600
    },
    {
      "buffer" : 0,
      "byteOffset" : 181776,
      "byteLength" : 2376
    },
    {
      "buffer" : 0,
      "byteOffset" : 184152,
      "byteLength" : 2376
    },
    {
      "buffer" : 0,
      "byteOffset" : 186528,
      "byteLength" : 3168
    },
    {
      "buffer" : 0,
      "byteOffset" : 189696,
      "byteLength" : 792
    },
    {
      "buffer" : 0,
      "byteOffset" : 190488,
      "byteLength" : 1584
    },
    {
      "buffer" : 0,
      "byteOffset" : 192072,
      "byteLength" : 1584
    },
    {
      "buffer" : 0,
      "byteOffset" : 193656,
      "byteLength" : 1584
    },
    {
      "buffer" : 0,
      "byteOffset" : 195240,
      "byteLength" : 1584
    },
    {
      "buffer" : 0,
      "byteOffset" : 196824,
      "byteLength" : 4616
    },
    {
      "buffer" : 0,
      "byteOffset" : 201440,
      "byteLength" : 6048
    },
    {
      "buffer" : 0,
      "byteOffset" : 207488,
      "byteLength" : 6048
    },
    {
      "buffer" : 0,
      "byteOffset" : 213536,
      "byteLength" : 8064
    },
    {
      "buffer" : 0,
      "byteOffset" : 221600,
      "byteLength" : 2016
    },
    {
      "buffer" : 0,
      "byteOffset" : 223616,
      "byteLength" : 4032
    },
    {
      "buffer" : 0,
      "byteOffset" : 227648,
      "byteLength" : 4032
    },
    {
      "buffer" : 0,
      "byteOffset" : 231680,
      "byteLength" : 4032
    },
    {
      "buffer" : 0,
      "byteOffset" : 235712,
      "byteLength" : 4032
    },
    {
      "buffer" : 0,
      "byteOffset" : 239744,
      "byteLength" : 144
    },
    {
      "buffer" : 0,
      "byteOffset" : 239888,
      "byteLength" : 576
    },
    {
      "buffer" : 0,
      "byteOffset" : 240464,
      "byteLength" : 576
    },
    {
      "buffer" : 0,
      "byteOffset" : 241040,
      "byteLength" : 768
    },
    {
      "buffer" : 0,
      "byteOffset" : 241808,
      "byteLength" : 192
    },
    {
      "buffer" : 0,
      "byteOffset" : 242000,
      "byteLength" : 384
    },
    {
      "buffer" : 0,
      "byteOffset" : 242384,
      "byteLength" : 384
    },
    {
      "buffer" : 0,
      "byteOffset" : 242768,
      "byteLength" : 384
    },
    {
      "buffer" : 0,
      "byteOffset" : 243152,
      "byteLength" : 384
    },
    {
      "buffer" : 0,
      "byteOffset" : 243536,
      "byteLength" : 648
    },
    {
      "buffer" : 0,
      "byteOffset" : 244184,
      "byteLength" : 1956
    },
    {
      "buffer" : 0,
      "byteOffset" : 246140,
      "byteLength" : 1956
    },
    {
      "buffer" : 0,
      "byteOffset" : 248096,
      "byteLength" : 2608
    },
    {
      "buffer" : 0,
      "byteOffset" : 250704,
      "byteLength" : 652
    },
    {
      "buffer" : 0,
      "byteOffset" : 251356,
      "byteLength" : 1304
    },
    {
      "buffer" : 0,
      "byteOffset" : 252660,
      "byteLength" : 1304
    },
    {
      "buffer" : 0,
      "byteOffset" : 253964,
      "byteLength" : 1304
    },
    {
      "buffer" : 0,
      "byteOffset" : 255268,
      "byteLength" : 1304
    },
    {
      "buffer" : 0,
      "byteOffset" : 256572,
      "byteLength" : 440
    },
    {
      "buffer" : 0,
      "byteOffset" : 257012,
      "byteLength" : 972
    },
    {
      "buffer" : 0,
      "byteOffset" : 257984,
      "byteLength" : 972
    },
    {
      "buffer" : 0,
      "byteOffset" : 258956,
      "byteLength" : 1296
    },
    {
      "buffer" : 0,
      "byteOffset" : 260252,
      "byteLength" : 324
    },
    {
      "buffer" : 0,
      "byteOffset" : 260576,
      "byteLength" : 648
    },
    {
      "buffer" : 0,
      "byteOffset" : 261224,
      "byteLength" : 648
    },
    {
      "buffer" : 0,
      "byteOffset" : 261872,
      "byteLength" : 648
    },
    {
      "buffer" : 0,
      "byteOffset" : 262520,
      "byteLength" : 648
    },
    {
      "buffer" : 0,
      "byteOffset" : 263168,
      "byteLength" : 3696
    },
    {
      "buffer" : 0,
      "byteOffset" : 266864,
      "byteLength" : 10428
    },
    {
      "buffer" : 0,
      "byteOffset" : 277292,
      "byteLength" : 10428
    },
    {
      "buffer" : 0,
      "byteOffset" : 287720,
      "byteLength" : 13904
    },
    {
      "buffer" : 0,
      "byteOffset" : 301624,
      "byteLength" : 3476
    },
    {
      "buffer" : 0,
      "byteOffset" : 305100,
      "byteLength" : 6952
    },
    {
      "buffer" : 0,
      "byteOffset" : 312052,
      "byteLength" : 6952
    },
    {
      "buffer" : 0,
      "byteOffset" : 319004,
      "byteLength" : 6952
    },
    {
      "buffer" : 0,
      "byteOffset" : 325956,
      "byteLength" : 6952
    },
    {
      "buffer" : 0,
      "byteOffset" : 332908,
      "byteLength" : 3444
    },
    {
      "buffer" : 0,
      "byteOffset" : 336352,
      "byteLength" : 8412
    },
    {
      "buffer" : 0,
      "byteOffset" : 344764,
      "byteLength" : 8412
    },
    {
      "buffer" : 0,
      "byteOffset" : 353176,
      "byteLength" : 11216
    },
    {
      "buffer" : 0,
      "byteOffset" : 364392,
      "byteLength" : 2804
    },
    {
      "buffer" : 0,
      "byteOffset" : 367196,
      "byteLength" : 5608
    },
    {
      "buffer" : 0,
      "byteOffset" : 372804,
      "byteLength" : 5608
    },
    {
      "buffer" : 0,
      "byteOffset" : 378412,
      "byteLength" : 5608
    },
    {
      "buffer" : 0,
      "byteOffset" : 384020,
      "byteLength" : 5608
    },
    {
      "buffer" : 0,
      "byteOffset" : 389628,
      "byteLength" : 212
    },
    {
      "buffer" : 0,
      "byteOffset" : 389840,
      "byteLength" : 756
    },
    {
      "buffer" : 0,
      "byteOffset" : 390596,
      "byteLength" : 756
    },
    {
      "buffer" : 0,
      "byteOffset" : 391352,
      "byteLength" : 1008
    },
    {
      "buffer" : 0,
      "byteOffset" : 392360,
      "byteLength" : 252
    },
    {
      "buffer" : 0,
      "byteOffset" : 392612,
      "byteLength" : 504
    },
    {
      "buffer" : 0,
      "byteOffset" : 393116,
      "byteLength" : 504
    },
    {
      "buffer" : 0,
      "byteOffset" : 393620,
      "byteLength" : 504
    },
    {
      "buffer" : 0,
      "byteOffset" : 394124,
      "byteLength" : 504
    },
    {
      "buffer" : 0,
      "byteOffset" : 394628,
      "byteLength" : 132
    },
    {
      "buffer" : 0,
      "byteOffset" : 394760,
      "byteLength" : 480
    },
    {
      "buffer" : 0,
      "byteOffset" : 395240,
      "byteLength" : 480
    },
    {
      "buffer" : 0,
      "byteOffset" : 395720,
      "byteLength" : 640
    },
    {
      "buffer" : 0,
      "byteOffset" : 396360,
      "byteLength" : 160
    },
    {
      "buffer" : 0,
      "byteOffset" : 396520,
      "byteLength" : 320
    },
    {
      "buffer" : 0,
      "byteOffset" : 396840,
      "byteLength" : 320
    },
    {
      "buffer" : 0,
      "byteOffset" : 397160,
      "byteLength" : 320
    },
    {
      "buffer" : 0,
      "byteOffset" : 397480,
      "byteLength" : 320
    },
    {
      "buffer" : 0,
      "byteOffset" : 397800,
      "byteLength" : 240
    },
    {
      "buffer" : 0,
      "byteOffset" : 398040,
      "byteLength" : 864
    },
    {
      "buffer" : 0,
      "byteOffset" : 398904,
      "byteLength" : 864
    },
    {
      "buffer" : 0,
      "byteOffset" : 399768,
      "byteLength" : 1152
    },
    {
      "buffer" : 0,
      "byteOffset" : 400920,
      "byteLength" : 288
    },
    {
      "buffer" : 0,
      "byteOffset" : 401208,
      "byteLength" : 576
    },
    {
      "buffer" : 0,
      "byteOffset" : 401784,
      "byteLength" : 576
    },
    {
      "buffer" : 0,
      "byteOffset" : 402360,
      "byteLength" : 576
    },
    {
      "buffer" : 0,
      "byteOffset" : 402936,
      "byteLength" : 576
    },
    {
      "buffer" : 0,
      "byteOffset" : 403512,
      "byteLength" : 644
    },
    {
      "buffer" : 0,
      "byteOffset" : 404156,
      "byteLength" : 1908
    },
    {
      "buffer" : 0,
      "byteOffset" : 406064,
      "byteLength" : 1908
    },
    {
      "buffer" : 0,
      "byteOffset" : 407972,
      "byteLength" : 2544
    },
    {
      "buffer" : 0,
      "byteOffset" : 410516,
      "byteLength" : 636
    },
    {
      "buffer" : 0,
      "byteOffset" : 411152,
      "byteLength" : 1272
    },
    {
      "buffer" : 0,
      "byteOffset" : 412424,
      "byteLength" : 1272
    },
    {
      "buffer" : 0,
      "byteOffset" : 413696,
      "byteLength" : 1272
    },
    {
      "buffer" : 0,
      "byteOffset" : 414968,
      "byteLength" : 1272
    },
    {
      "buffer" : 0,
      "byteOffset" : 416240,
      "byteLength" : 708
    },
    {
      "buffer" : 0,
      "byteOffset" : 416948,
      "byteLength" : 1632
    },
    {
      "buffer" : 0,
      "byteOffset" : 418580,
      "byteLength" : 1632
    },
    {
      "buffer" : 0,
      "byteOffset" : 420212,
      "byteLength" : 2176
    },
    {
      "buffer" : 0,
      "byteOffset" : 422388,
      "byteLength" : 544
    },
    {
      "buffer" : 0,
      "byteOffset" : 422932,
      "byteLength" : 1088
    },
    {
      "buffer" : 0,
      "byteOffset" : 424020,
      "byteLength" : 1088
    },
    {
      "buffer" : 0,
      "byteOffset" : 425108,
      "byteLength" : 1088
    },
    {
      "buffer" : 0,
      "byteOffset" : 426196,
      "byteLength" : 1088
    },
    {
      "buffer" : 0,
      "byteOffset" : 427284,
      "byteLength" : 696
    },
    {
      "buffer" : 0,
      "byteOffset" : 427980,
      "byteLength" : 1428
    },
    {
      "buffer" : 0,
      "byteOffset" : 429408,
      "byteLength" : 1428
    },
    {
      "buffer" : 0,
      "byteOffset" : 430836,
      "byteLength" : 1904
    },
    {
      "buffer" : 0,
      "byteOffset" : 432740,
      "byteLength" : 476
    },
    {
      "buffer" : 0,
      "byteOffset" : 433216,
      "byteLength" : 952
    },
    {
      "buffer" : 0,
      "byteOffset" : 434168,
      "byteLength" : 952
    },
    {
      "buffer" : 0,
      "byteOffset" : 435120,
      "byteLength" : 952
    },
    {
      "buffer" : 0,
      "byteOffset" : 436072,
      "byteLength" : 952
    },
    {
      "buffer" : 0,
      "byteOffset" : 437024,
      "byteLength" : 1452
    },
    {
      "buffer" : 0,
      "byteOffset" : 438476,
      "byteLength" : 2376
    },
    {
      "buffer" : 0,
      "byteOffset" : 440852,
      "byteLength" : 2376
    },
    {
      "buffer" : 0,
      "byteOffset" : 443228,
      "byteLength" : 3168
    },
    {
      "buffer" : 0,
      "byteOffset" : 446396,
      "byteLength" : 792
    },
    {
      "buffer" : 0,
      "byteOffset" : 447188,
      "byteLength" : 1584
    },
    {
      "buffer" : 0,
      "byteOffset" : 448772,
      "byteLength" : 1584
    },
    {
      "buffer" : 0,
      "byteOffset" : 450356,
      "byteLength" : 1584
    },
    {
      "buffer" : 0,
      "byteOffset" : 451940,
      "byteLength" : 1584
    }
  ],
  "accessors" : [
    {
      "bufferView" : 0,
      "componentType" : 5123,
      "count" : 1518,
      "type" : "SCALAR"
    },
    {
      "bufferView" : 1,
      "min" : [ -33.4972, 4.1635, -8.44826 ],
      "max" : [ -29.4227, 6.91912, 7.89424 ],
      "componentType" : 5126,
      "count" : 941,
      "type" : "VEC3"
    },
    {
      "bufferView" : 2,
      "componentType" : 5126,
      "count" : 941,
      "type" : "VEC3"
    },
    {
      "bufferView" : 3,
      "componentType" : 5126,
      "count" : 941,
      "type" : "VEC4"
    },
    {
      "bufferView" : 4,
      "normalized" : true,
      "componentType" : 5121,
      "count" : 941,
      "type" : "VEC4"
    },
    {
      "bufferView" : 5,
      "componentType" : 5126,
      "count" : 941,
      "type" : "VEC2"
    },
    {
      "bufferView" : 6,
      "componentType" : 5126,
      "count" : 941,
      "type" : "VEC2"
    },
    {
      "bufferView" : 7,
      "componentType" : 5126,
      "count" : 941,
      "type" : "VEC2"
    },
    {
      "bufferView" : 8,
      "componentType" : 5126,
      "count" : 941,
      "type" : "VEC2"
    },
    {
      "bufferView" : 9,
      "componentType" : 5123,
      "count" : 3168,
      "type" : "SCALAR"
    },
    {
      "bufferView" : 10,
      "min" : [ -33.4972, 6.66311, -7.40516 ],
      "max" : [ -30.7552, 9.12774, 6.85004 ],
      "componentType" : 5126,
      "count" : 946,
      "type" : "VEC3"
    },
    {
      "bufferView" : 11,
      "componentType" : 5126,
      "count" : 946,
      "type" : "VEC3"
    },
    {
      "bufferView" : 12,
      "componentType" : 5126,
      "count" : 946,
      "type" : "VEC4"
    },
    {
      "bufferView" : 13,
      "normalized" : true,
      "componentType" : 5121,
      "count" : 946,
      "type" : "VEC4"
    },
    {
      "bufferView" : 14,
      "componentType" : 5126,
      "count" : 946,
      "type" : "VEC2"
    },
    {
      "bufferView" : 15,
      "componentType" : 5126,
      "count" : 946,
      "type" : "VEC2"
    },
    {
      "bufferView" : 16,
      "componentType" : 5126,
      "count" : 946,
      "type" : "VEC2"
    },
    {
      "bufferView" : 17,
      "componentType" : 5126,
      "count" : 946,
      "type" : "VEC2"
    },
    {
      "bufferView" : 18,
      "componentType" : 5123,
      "count" : 1176,
      "type" : "SCALAR"
    },
    {
      "bufferView" : 19,
      "min" : [ -30.669, 4.12499, -7.21268 ],
      "max" : [ -29.8734, 5.81089, 6.6152 ],
      "componentType" : 5126,
      "count" : 326,
      "type" : "VEC3"
    },
    {
      "bufferView" : 20,
      "componentType" : 5126,
      "count" : 326,
      "type" : "VEC3"
    },
    {
      "bufferView" : 21,
      "componentType" : 5126,
      "count" : 326,
      "type" : "VEC4"
    },
    {
      "bufferView" : 22,
      "normalized" : true,
      "componentType" : 5121,
      "count" : 326,
      "type" : "VEC4"
    },
    {
      "bufferView" : 23,
      "componentType" : 5126,
      "count" : 326,
      "type" : "VEC2"
    },
    {
      "bufferView" : 24,
      "componentType" : 5126,
      "count" : 326,
      "type" : "VEC2"
    },
    {
      "bufferView" : 25,
      "componentType" : 5126,
      "count" : 326,
      "type" : "VEC2"
    },
    {
      "bufferView" : 26,
      "componentType" : 5126,
      "count" : 326,
      "type" : "VEC2"
    },
    {
      "bufferView" : 27,
      "componentType" : 5123,
      "count" : 24,
      "type" : "SCALAR"
    },
    {
      "bufferView" : 28,
      "min" : [ -31.6361, 1.23786, -3.69546 ],
      "max" : [ -31.5361, 4.0006, 3.14154 ],
      "componentType" : 5126,
      "count" : 16,
      "type" : "VEC3"
    },
    {
      "bufferView" : 29,
      "componentType" : 5126,
      "count" : 16,
      "type" : "VEC3"
    },
    {
      "bufferView" : 30,
      "componentType" : 5126,
      "count" : 16,
      "type" : "VEC4"
    },
    {
      "bufferView" : 31,
      "normalized" : true,
      "componentType" : 5121,
      "count" : 16,
      "type" : "VEC4"
    },
    {
      "bufferView" : 32,
      "componentType" : 5126,
      "count" : 16,
      "type" : "VEC2"
    },
    {
      "bufferView" : 33,
      "componentType" : 5126,
      "count" : 16,
      "type" : "VEC2"
    },
    {
      "bufferView" : 34,
      "componentType" : 5126,
      "count" : 16,
      "type" : "VEC2"
    },
    {
      "bufferView" : 35,
      "componentType" : 5126,
      "count" : 16,
      "type" : "VEC2"
    },
    {
      "bufferView" : 36,
      "componentType" : 5123,
      "count" : 300,
      "type" : "SCALAR"
    },
    {
      "bufferView" : 37,
      "min" : [ -31.6361, 0.327986, -4.19546 ],
      "max" : [ -31.3054, 4.1635, 3.64144 ],
      "componentType" : 5126,
      "count" : 198,
      "type" : "VEC3"
    },
    {
      "bufferView" : 38,
      "componentType" : 5126,
      "count" : 198,
      "type" : "VEC3"
    },
    {
      "bufferView" : 39,
      "componentType" : 5126,
      "count" : 198,
      "type" : "VEC4"
    },
    {
      "bufferView" : 40,
      "normalized" : true,
      "componentType" : 5121,
      "count" : 198,
      "type" : "VEC4"
    },
    {
      "bufferView" : 41,
      "componentType" : 5126,
      "count" : 198,
      "type" : "VEC2"
    },
    {
      "bufferView" : 42,
      "componentType" : 5126,
      "count" : 198,
      "type" : "VEC2"
    },
    {
      "bufferView" : 43,
      "componentType" : 5126,
      "count" : 198,
      "type" : "VEC2"
    },
    {
      "bufferView" : 44,
      "componentType" : 5126,
      "count" : 198,
      "type" : "VEC2"
    },
    {
      "bufferView" : 45,
      "componentType" : 5123,
      "count" : 2307,
      "type" : "SCALAR"
    },
    {
      "bufferView" : 46,
      "min" : [ -32.8251, 0.407258, -7.48461 ],
      "max" : [ -30.7612, 6.61915, 6.93252 ],
      "componentType" : 5126,
      "count" : 504,
      "type" : "VEC3"
    },
    {
      "bufferView" : 47,
      "componentType" : 5126,
      "count" : 504,
      "type" : "VEC3"
    },
    {
      "bufferView" : 48,
      "componentType" : 5126,
      "count" : 504,
      "type" : "VEC4"
    },
    {
      "bufferView" : 49,
      "normalized" : true,
      "componentType" : 5121,
      "count" : 504,
      "type" : "VEC4"
    },
    {
      "bufferView" : 50,
      "componentType" : 5126,
      "count" : 504,
      "type" : "VEC2"
    },
    {
      "bufferView" : 51,
      "componentType" : 5126,
      "count" : 504,
      "type" : "VEC2"
    },
    {
      "bufferView" : 52,
      "componentType" : 5126,
      "count" : 504,
      "type" : "VEC2"
    },
    {
      "bufferView" : 53,
      "componentType" : 5126,
      "count" : 504,
      "type" : "VEC2"
    },
    {
      "bufferView" : 54,
      "componentType" : 5123,
      "count" : 72,
      "type" : "SCALAR"
    },
    {
      "bufferView" : 55,
      "min" : [ -31.5661, 0.327986, -4.19546 ],
      "max" : [ -31.3658, 4.11426, 3.64144 ],
      "componentType" : 5126,
      "count" : 48,
      "type" : "VEC3"
    },
    {
      "bufferView" : 56,
      "componentType" : 5126,
      "count" : 48,
      "type" : "VEC3"
    },
    {
      "bufferView" : 57,
      "componentType" : 5126,
      "count" : 48,
      "type" : "VEC4"
    },
    {
      "bufferView" : 58,
      "normalized" : true,
      "componentType" : 5121,
      "count" : 48,
      "type" : "VEC4"
    },
    {
      "bufferView" : 59,
      "componentType" : 5126,
      "count" : 48,
      "type" : "VEC2"
    },
    {
      "bufferView" : 60,
      "componentType" : 5126,
      "count" : 48,
      "type" : "VEC2"
    },
    {
      "bufferView" : 61,
      "componentType" : 5126,
      "count" : 48,
      "type" : "VEC2"
    },
    {
      "bufferView" : 62,
      "componentType" : 5126,
      "count" : 48,
      "type" : "VEC2"
    },
    {
      "bufferView" : 63,
      "componentType" : 5123,
      "count" : 324,
      "type" : "SCALAR"
    },
    {
      "bufferView" : 64,
      "min" : [ -33.3808, 3.61529, -7.4056 ],
      "max" : [ -30.8108, 8.62813, 6.85917 ],
      "componentType" : 5126,
      "count" : 163,
      "type" : "VEC3"
    },
    {
      "bufferView" : 65,
      "componentType" : 5126,
      "count" : 163,
      "type" : "VEC3"
    },
    {
      "bufferView" : 66,
      "componentType" : 5126,
      "count" : 163,
      "type" : "VEC4"
    },
    {
      "bufferView" : 67,
      "normalized" : true,
      "componentType" : 5121,
      "count" : 163,
      "type" : "VEC4"
    },
    {
      "bufferView" : 68,
      "componentType" : 5126,
      "count" : 163,
      "type" : "VEC2"
    },
    {
      "bufferView" : 69,
      "componentType" : 5126,
      "count" : 163,
      "type" : "VEC2"
    },
    {
      "bufferView" : 70,
      "componentType" : 5126,
      "count" : 163,
      "type" : "VEC2"
    },
    {
      "bufferView" : 71,
      "componentType" : 5126,
      "count" : 163,
      "type" : "VEC2"
    },
    {
      "bufferView" : 72,
      "componentType" : 5123,
      "count" : 219,
      "type" : "SCALAR"
    },
    {
      "bufferView" : 73,
      "min" : [ -31.3464, 3.39238, -4.19546 ],
      "max" : [ -31.2772, 4.10059, 3.64154 ],
      "componentType" : 5126,
      "count" : 81,
      "type" : "VEC3"
    },
    {
      "bufferView" : 74,
      "componentType" : 5126,
      "count" : 81,
      "type" : "VEC3"
    },
    {
      "bufferView" : 75,
      "componentType" : 5126,
      "count" : 81,
      "type" : "VEC4"
    },
    {
      "bufferView" : 76,
      "normalized" : true,
      "componentType" : 5121,
      "count" : 81,
      "type" : "VEC4"
    },
    {
      "bufferView" : 77,
      "componentType" : 5126,
      "count" : 81,
      "type" : "VEC2"
    },
    {
      "bufferView" : 78,
      "componentType" : 5126,
      "count" : 81,
      "type" : "VEC2"
    },
    {
      "bufferView" : 79,
      "componentType" : 5126,
      "count" : 81,
      "type" : "VEC2"
    },
    {
      "bufferView" : 80,
      "componentType" : 5126,
      "count" : 81,
      "type" : "VEC2"
    },
    {
      "bufferView" : 81,
      "componentType" : 5123,
      "count" : 1848,
      "type" : "SCALAR"
    },
    {
      "bufferView" : 82,
      "min" : [ -34.1243, 0.231933, -8.36277 ],
      "max" : [ -30.8108, 8.48919, 7.79937 ],
      "componentType" : 5126,
      "count" : 869,
      "type" : "VEC3"
    },
    {
      "bufferView" : 83,
      "componentType" : 5126,
      "count" : 869,
      "type" : "VEC3"
    },
    {
      "bufferView" : 84,
      "componentType" : 5126,
      "count" : 869,
      "type" : "VEC4"
    },
    {
      "bufferView" : 85,
      "normalized" : true,
      "componentType" : 5121,
      "count" : 869,
      "type" : "VEC4"
    },
    {
      "bufferView" : 86,
      "componentType" : 5126,
      "count" : 869,
      "type" : "VEC2"
    },
    {
      "bufferView" : 87,
      "componentType" : 5126,
      "count" : 869,
      "type" : "VEC2"
    },
    {
      "bufferView" : 88,
      "componentType" : 5126,
      "count" : 869,
      "type" : "VEC2"
    },
    {
      "bufferView" : 89,
      "componentType" : 5126,
      "count" : 869,
      "type" : "VEC2"
    },
    {
      "bufferView" : 90,
      "componentType" : 5123,
      "count" : 1722,
      "type" : "SCALAR"
    },
    {
      "bufferView" : 91,
      "min" : [ -33.4758, 2.23082, -7.48378 ],
      "max" : [ -30.6278, 9.35246, 6.93734 ],
      "componentType" : 5126,
      "count" : 701,
      "type" : "VEC3"
    },
    {
      "bufferView" : 92,
      "componentType" : 5126,
      "count" : 701,
      "type" : "VEC3"
    },
    {
      "bufferView" : 93,
      "componentType" : 5126,
      "count" : 701,
      "type" : "VEC4"
    },
    {
      "bufferView" : 94,
      "normalized" : true,
      "componentType" : 5121,
      "count" : 701,
      "type" : "VEC4"
    },
    {
      "bufferView" : 95,
      "componentType" : 5126,
      "count" : 701,
      "type" : "VEC2"
    },
    {
      "bufferView" : 96,
      "componentType" : 5126,
      "count" : 701,
      "type" : "VEC2"
    },
    {
      "bufferView" : 97,
      "componentType" : 5126,
      "count" : 701,
      "type" : "VEC2"
    },
    {
      "bufferView" : 98,
      "componentType" : 5126,
      "count" : 701,
      "type" : "VEC2"
    },
    {
      "bufferView" : 99,
      "componentType" : 5123,
      "count" : 105,
      "type" : "SCALAR"
    },
    {
      "bufferView" : 100,
      "min" : [ -34.0976, 0.167507, -6.92421 ],
      "max" : [ -31.3261, 7.61503, 6.36579 ],
      "componentType" : 5126,
      "count" : 63,
      "type" : "VEC3"
    },
    {
      "bufferView" : 101,
      "componentType" : 5126,
      "count" : 63,
      "type" : "VEC3"
    },
    {
      "bufferView" : 102,
      "componentType" : 5126,
      "count" : 63,
      "type" : "VEC4"
    },
    {
      "bufferView" : 103,
      "normalized" : true,
      "componentType" : 5121,
      "count" : 63,
      "type" : "VEC4"
    },
    {
      "bufferView" : 104,
      "componentType" : 5126,
      "count" : 63,
      "type" : "VEC2"
    },
    {
      "bufferView" : 105,
      "componentType" : 5126,
      "count" : 63,
      "type" : "VEC2"
    },
    {
      "bufferView" : 106,
      "componentType" : 5126,
      "count" : 63,
      "type" : "VEC2"
    },
    {
      "bufferView" : 107,
      "componentType" : 5126,
      "count" : 63,
      "type" : "VEC2"
    },
    {
      "bufferView" : 108,
      "componentType" : 5123,
      "count" : 66,
      "type" : "SCALAR"
    },
    {
      "bufferView" : 109,
      "min" : [ -31.4561, 4.46292, -6.49078 ],
      "max" : [ -31.4361, 8.4701, 5.93687 ],
      "componentType" : 5126,
      "count" : 40,
      "type" : "VEC3"
    },
    {
      "bufferView" : 110,
      "componentType" : 5126,
      "count" : 40,
      "type" : "VEC3"
    },
    {
      "bufferView" : 111,
      "componentType" : 5126,
      "count" : 40,
      "type" : "VEC4"
    },
    {
      "bufferView" : 112,
      "normalized" : true,
      "componentType" : 5121,
      "count" : 40,
      "type" : "VEC4"
    },
    {
      "bufferView" : 113,
      "componentType" : 5126,
      "count" : 40,
      "type" : "VEC2"
    },
    {
      "bufferView" : 114,
      "componentType" : 5126,
      "count" : 40,
      "type" : "VEC2"
    },
    {
      "bufferView" : 115,
      "componentType" : 5126,
      "count" : 40,
      "type" : "VEC2"
    },
    {
      "bufferView" : 116,
      "componentType" : 5126,
      "count" : 40,
      "type" : "VEC2"
    },
    {
      "bufferView" : 117,
      "componentType" : 5123,
      "count" : 120,
      "type" : "SCALAR"
    },
    {
      "bufferView" : 118,
      "min" : [ -32.6512, 6.03544, -6.29506 ],
      "max" : [ -31.0915, 7.27969, 5.74104 ],
      "componentType" : 5126,
      "count" : 72,
      "type" : "VEC3"
    },
    {
      "bufferView" : 119,
      "componentType" : 5126,
      "count" : 72,
      "type" : "VEC3"
    },
    {
      "bufferView" : 120,
      "componentType" : 5126,
      "count" : 72,
      "type" : "VEC4"
    },
    {
      "bufferView" : 121,
      "normalized" : true,
      "componentType" : 5121,
      "count" : 72,
      "type" : "VEC4"
    },
    {
      "bufferView" : 122,
      "componentType" : 5126,
      "count" : 72,
      "type" : "VEC2"
    },
    {
      "bufferView" : 123,
      "componentType" : 5126,
      "count" : 72,
      "type" : "VEC2"
    },
    {
      "bufferView" : 124,
      "componentType" : 5126,
      "count" : 72,
      "type" : "VEC2"
    },
    {
      "bufferView" : 125,
      "componentType" : 5126,
      "count" : 72,
      "type" : "VEC2"
    },
    {
      "bufferView" : 126,
      "componentType" : 5123,
      "count" : 321,
      "type" : "SCALAR"
    },
    {
      "bufferView" : 127,
      "min" : [ -31.6268, -0.0625775, -4.0289 ],
      "max" : [ -30.4464, 0.390703, 3.45375 ],
      "componentType" : 5126,
      "count" : 159,
      "type" : "VEC3"
    },
    {
      "bufferView" : 128,
      "componentType" : 5126,
      "count" : 159,
      "type" : "VEC3"
    },
    {
      "bufferView" : 129,
      "componentType" : 5126,
      "count" : 159,
      "type" : "VEC4"
    },
    {
      "bufferView" : 130,
      "normalized" : true,
      "componentType" : 5121,
      "count" : 159,
      "type" : "VEC4"
    },
    {
      "bufferView" : 131,
      "componentType" : 5126,
      "count" : 159,
      "type" : "VEC2"
    },
    {
      "bufferView" : 132,
      "componentType" : 5126,
      "count" : 159,
      "type" : "VEC2"
    },
    {
      "bufferView" : 133,
      "componentType" : 5126,
      "count" : 159,
      "type" : "VEC2"
    },
    {
      "bufferView" : 134,
      "componentType" : 5126,
      "count" : 159,
      "type" : "VEC2"
    },
    {
      "bufferView" : 135,
      "componentType" : 5123,
      "count" : 354,
      "type" : "SCALAR"
    },
    {
      "bufferView" : 136,
      "min" : [ -33.9912, -0.0694544, -7.65146 ],
      "max" : [ -30.646, 0.440082, 7.09634 ],
      "componentType" : 5126,
      "count" : 136,
      "type" : "VEC3"
    },
    {
      "bufferView" : 137,
      "componentType" : 5126,
      "count" : 136,
      "type" : "VEC3"
    },
    {
      "bufferView" : 138,
      "componentType" : 5126,
      "count" : 136,
      "type" : "VEC4"
    },
    {
      "bufferView" : 139,
      "normalized" : true,
      "componentType" : 5121,
      "count" : 136,
      "type" : "VEC4"
    },
    {
      "bufferView" : 140,
      "componentType" : 5126,
      "count" : 136,
      "type" : "VEC2"
    },
    {
      "bufferView" : 141,
      "componentType" : 5126,
      "count" : 136,
      "type" : "VEC2"
    },
    {
      "bufferView" : 142,
      "componentType" : 5126,
      "count" : 136,
      "type" : "VEC2"
    },
    {
      "bufferView" : 143,
      "componentType" : 5126,
      "count" : 136,
      "type" : "VEC2"
    },
    {
      "bufferView" : 144,
      "componentType" : 5123,
      "count" : 348,
      "type" : "SCALAR"
    },
    {
      "bufferView" : 145,
      "min" : [ -31.1617, 5.63974, -2.41429 ],
      "max" : [ -30.7806, 7.08664, 1.88858 ],
      "componentType" : 5126,
      "count" : 119,
      "type" : "VEC3"
    },
    {
      "bufferView" : 146,
      "componentType" : 5126,
      "count" : 119,
      "type" : "VEC3"
    },
    {
      "bufferView" : 147,
      "componentType" : 5126,
      "count" : 119,
      "type" : "VEC4"
    },
    {
      "bufferView" : 148,
      "normalized" : true,
      "componentType" : 5121,
      "count" : 119,
      "type" : "VEC4"
    },
    {
      "bufferView" : 149,
      "componentType" : 5126,
      "count" : 119,
      "type" : "VEC2"
    },
    {
      "bufferView" : 150,
      "componentType" : 5126,
      "count" : 119,
      "type" : "VEC2"
    },
    {
      "bufferView" : 151,
      "componentType" : 5126,
      "count" : 119,
      "type" : "VEC2"
    },
    {
      "bufferView" : 152,
      "componentType" : 5126,
      "count" : 119,
      "type" : "VEC2"
    },
    {
      "bufferView" : 153,
      "componentType" : 5123,
      "count" : 726,
      "type" : "SCALAR"
    },
    {
      "bufferView" : 154,
      "min" : [ -32.7384, 5.82044, -7.17516 ],
      "max" : [ -30.9771, 6.21225, 6.61904 ],
      "componentType" : 5126,
      "count" : 198,
      "type" : "VEC3"
    },
    {
      "bufferView" : 155,
      "componentType" : 5126,
      "count" : 198,
      "type" : "VEC3"
    },
    {
      "bufferView" : 156,
      "componentType" : 5126,
      "count" : 198,
      "type" : "VEC4"
    },
    {
      "bufferView" : 157,
      "normalized" : true,
      "componentType" : 5121,
      "count" : 198,
      "type" : "VEC4"
    },
    {
      "bufferView" : 158,
      "componentType" : 5126,
      "count" : 198,
      "type" : "VEC2"
    },
    {
      "bufferView" : 159,
      "componentType" : 5126,
      "count" : 198,
      "type" : "VEC2"
    },
    {
      "bufferView" : 160,
      "componentType" : 5126,
      "count" : 198,
      "type" : "VEC2"
    },
    {
      "bufferView" : 161,
      "componentType" : 5126,
      "count" : 198,
      "type" : "VEC2"
    }
  ]
}
