{
  "asset" : {
    "generator" : "UE Viewer (umodel) build 1544 based",
    "version" : "2.0"
  },
  "scene" : 0,
  "scenes" : [
    {
      "nodes" : [ 0 ]
    }
  ],
  "nodes" : [
    {
      "name" : "SM_ENV_LKNVLD_WallSet_PlatformB_Lod3",
      "mesh" : 0
    }
  ],
  "materials" : [
    {
      "name" : "MI_ENV_LKNVLD_WoodWallSet_LOD",
      "pbrMetallicRoughness" : {
        "baseColorFactor" : [ 0.3, 0.3, 0.3, 1.0 ],
        "metallicFactor" : 0.1,
        "roughnessFactor" : 0.5
      }
    },
    {
      "name" : "MI_ENV_LKNVLD_WoodPlain_Red_LOD",
      "pbrMetallicRoughness" : {
        "baseColorFactor" : [ 0.9, 0.3, 0.3, 1.0 ],
        "metallicFactor" : 0.1,
        "roughnessFactor" : 0.5
      }
    },
    {
      "name" : "MI_T_ENV_LKNVLD_StoneTrim_LOD",
      "pbrMetallicRoughness" : {
        "baseColorFactor" : [ 0.3, 0.9, 0.3, 1.0 ],
        "metallicFactor" : 0.1,
        "roughnessFactor" : 0.5
      }
    },
    {
      "name" : "MI_ENV_LKNVLD_WoodWallSet_Red_LOD",
      "pbrMetallicRoughness" : {
        "baseColorFactor" : [ 0.3, 0.3, 0.9, 1.0 ],
        "metallicFactor" : 0.1,
        "roughnessFactor" : 0.5
      }
    },
    {
      "name" : "MI_ENV_LKNVLD_Eaves_B_LOD",
      "pbrMetallicRoughness" : {
        "baseColorFactor" : [ 0.9, 0.9, 0.9, 1.0 ],
        "metallicFactor" : 0.1,
        "roughnessFactor" : 0.5
      }
    },
    {
      "name" : "MI_ENV_LKNVLD_Signboard_A",
      "pbrMetallicRoughness" : {
        "baseColorFactor" : [ 0.9, 0.9, 0.3, 1.0 ],
        "metallicFactor" : 0.1,
        "roughnessFactor" : 0.5
      }
    },
    {
      "name" : "MI_ENV_LKNVLD_WoodBoard_Natural_Lighter_LOD",
      "pbrMetallicRoughness" : {
        "baseColorFactor" : [ 0.9, 0.3, 0.9, 1.0 ],
        "metallicFactor" : 0.1,
        "roughnessFactor" : 0.5
      }
    }
  ],
  "meshes" : [
    {
      "primitives" : [
        {
          "attributes" : {
            "POSITION" : 1,
            "NORMAL" : 2,
            "TANGENT" : 3,
            "TEXCOORD_0" : 4,
            "TEXCOORD_1" : 5,
            "TEXCOORD_2" : 6,
            "TEXCOORD_3" : 7
          },
          "indices" : 0,
          "material" : 0
        },
        {
          "attributes" : {
            "POSITION" : 9,
            "NORMAL" : 10,
            "TANGENT" : 11,
            "TEXCOORD_0" : 12,
            "TEXCOORD_1" : 13,
            "TEXCOORD_2" : 14,
            "TEXCOORD_3" : 15
          },
          "indices" : 8,
          "material" : 1
        },
        {
          "attributes" : {
            "POSITION" : 17,
            "NORMAL" : 18,
            "TANGENT" : 19,
            "TEXCOORD_0" : 20,
            "TEXCOORD_1" : 21,
            "TEXCOORD_2" : 22,
            "TEXCOORD_3" : 23
          },
          "indices" : 16,
          "material" : 2
        },
        {
          "attributes" : {
            "POSITION" : 25,
            "NORMAL" : 26,
            "TANGENT" : 27,
            "TEXCOORD_0" : 28,
            "TEXCOORD_1" : 29,
            "TEXCOORD_2" : 30,
            "TEXCOORD_3" : 31
          },
          "indices" : 24,
          "material" : 3
        },
        {
          "attributes" : {
            "POSITION" : 33,
            "NORMAL" : 34,
            "TANGENT" : 35,
            "TEXCOORD_0" : 36,
            "TEXCOORD_1" : 37,
            "TEXCOORD_2" : 38,
            "TEXCOORD_3" : 39
          },
          "indices" : 32,
          "material" : 4
        },
        {
          "attributes" : {
            "POSITION" : 41,
            "NORMAL" : 42,
            "TANGENT" : 43,
            "TEXCOORD_0" : 44,
            "TEXCOORD_1" : 45,
            "TEXCOORD_2" : 46,
            "TEXCOORD_3" : 47
          },
          "indices" : 40,
          "material" : 5
        },
        {
          "attributes" : {
            "POSITION" : 49,
            "NORMAL" : 50,
            "TANGENT" : 51,
            "TEXCOORD_0" : 52,
            "TEXCOORD_1" : 53,
            "TEXCOORD_2" : 54,
            "TEXCOORD_3" : 55
          },
          "indices" : 48,
          "material" : 6
        }
      ],
      "name" : "SM_ENV_LKNVLD_WallSet_PlatformB_Lod3"
    }
  ],
  "buffers" : [
    {
      "uri" : "SM_ENV_LKNVLD_WallSet_PlatformB_Lod3.bin",
      "byteLength" : 279872
    }
  ],
  "bufferViews" : [
    {
      "buffer" : 0,
      "byteOffset" : 0,
      "byteLength" : 1196
    },
    {
      "buffer" : 0,
      "byteOffset" : 1196,
      "byteLength" : 3888
    },
    {
      "buffer" : 0,
      "byteOffset" : 5084,
      "byteLength" : 3888
    },
    {
      "buffer" : 0,
      "byteOffset" : 8972,
      "byteLength" : 5184
    },
    {
      "buffer" : 0,
      "byteOffset" : 14156,
      "byteLength" : 2592
    },
    {
      "buffer" : 0,
      "byteOffset" : 16748,
      "byteLength" : 2592
    },
    {
      "buffer" : 0,
      "byteOffset" : 19340,
      "byteLength" : 2592
    },
    {
      "buffer" : 0,
      "byteOffset" : 21932,
      "byteLength" : 2592
    },
    {
      "buffer" : 0,
      "byteOffset" : 24524,
      "byteLength" : 7140
    },
    {
      "buffer" : 0,
      "byteOffset" : 31664,
      "byteLength" : 29376
    },
    {
      "buffer" : 0,
      "byteOffset" : 61040,
      "byteLength" : 29376
    },
    {
      "buffer" : 0,
      "byteOffset" : 90416,
      "byteLength" : 39168
    },
    {
      "buffer" : 0,
      "byteOffset" : 129584,
      "byteLength" : 19584
    },
    {
      "buffer" : 0,
      "byteOffset" : 149168,
      "byteLength" : 19584
    },
    {
      "buffer" : 0,
      "byteOffset" : 168752,
      "byteLength" : 19584
    },
    {
      "buffer" : 0,
      "byteOffset" : 188336,
      "byteLength" : 19584
    },
    {
      "buffer" : 0,
      "byteOffset" : 207920,
      "byteLength" : 428
    },
    {
      "buffer" : 0,
      "byteOffset" : 208348,
      "byteLength" : 1236
    },
    {
      "buffer" : 0,
      "byteOffset" : 209584,
      "byteLength" : 1236
    },
    {
      "buffer" : 0,
      "byteOffset" : 210820,
      "byteLength" : 1648
    },
    {
      "buffer" : 0,
      "byteOffset" : 212468,
      "byteLength" : 824
    },
    {
      "buffer" : 0,
      "byteOffset" : 213292,
      "byteLength" : 824
    },
    {
      "buffer" : 0,
      "byteOffset" : 214116,
      "byteLength" : 824
    },
    {
      "buffer" : 0,
      "byteOffset" : 214940,
      "byteLength" : 824
    },
    {
      "buffer" : 0,
      "byteOffset" : 215764,
      "byteLength" : 296
    },
    {
      "buffer" : 0,
      "byteOffset" : 216060,
      "byteLength" : 708
    },
    {
      "buffer" : 0,
      "byteOffset" : 216768,
      "byteLength" : 708
    },
    {
      "buffer" : 0,
      "byteOffset" : 217476,
      "byteLength" : 944
    },
    {
      "buffer" : 0,
      "byteOffset" : 218420,
      "byteLength" : 472
    },
    {
      "buffer" : 0,
      "byteOffset" : 218892,
      "byteLength" : 472
    },
    {
      "buffer" : 0,
      "byteOffset" : 219364,
      "byteLength" : 472
    },
    {
      "buffer" : 0,
      "byteOffset" : 219836,
      "byteLength" : 472
    },
    {
      "buffer" : 0,
      "byteOffset" : 220308,
      "byteLength" : 924
    },
    {
      "buffer" : 0,
      "byteOffset" : 221232,
      "byteLength" : 3312
    },
    {
      "buffer" : 0,
      "byteOffset" : 224544,
      "byteLength" : 3312
    },
    {
      "buffer" : 0,
      "byteOffset" : 227856,
      "byteLength" : 4416
    },
    {
      "buffer" : 0,
      "byteOffset" : 232272,
      "byteLength" : 2208
    },
    {
      "buffer" : 0,
      "byteOffset" : 234480,
      "byteLength" : 2208
    },
    {
      "buffer" : 0,
      "byteOffset" : 236688,
      "byteLength" : 2208
    },
    {
      "buffer" : 0,
      "byteOffset" : 238896,
      "byteLength" : 2208
    },
    {
      "buffer" : 0,
      "byteOffset" : 241104,
      "byteLength" : 1580
    },
    {
      "buffer" : 0,
      "byteOffset" : 242684,
      "byteLength" : 6072
    },
    {
      "buffer" : 0,
      "byteOffset" : 248756,
      "byteLength" : 6072
    },
    {
      "buffer" : 0,
      "byteOffset" : 254828,
      "byteLength" : 8096
    },
    {
      "buffer" : 0,
      "byteOffset" : 262924,
      "byteLength" : 4048
    },
    {
      "buffer" : 0,
      "byteOffset" : 266972,
      "byteLength" : 4048
    },
    {
      "buffer" : 0,
      "byteOffset" : 271020,
      "byteLength" : 4048
    },
    {
      "buffer" : 0,
      "byteOffset" : 275068,
      "byteLength" : 4048
    },
    {
      "buffer" : 0,
      "byteOffset" : 279116,
      "byteLength" : 36
    },
    {
      "buffer" : 0,
      "byteOffset" : 279152,
      "byteLength" : 120
    },
    {
      "buffer" : 0,
      "byteOffset" : 279272,
      "byteLength" : 120
    },
    {
      "buffer" : 0,
      "byteOffset" : 279392,
      "byteLength" : 160
    },
    {
      "buffer" : 0,
      "byteOffset" : 279552,
      "byteLength" : 80
    },
    {
      "buffer" : 0,
      "byteOffset" : 279632,
      "byteLength" : 80
    },
    {
      "buffer" : 0,
      "byteOffset" : 279712,
      "byteLength" : 80
    },
    {
      "buffer" : 0,
      "byteOffset" : 279792,
      "byteLength" : 80
    }
  ],
  "accessors" : [
    {
      "bufferView" : 0,
      "componentType" : 5123,
      "count" : 597,
      "type" : "SCALAR"
    },
    {
      "bufferView" : 1,
      "min" : [ -59.7612, 0.265078, -15.2545 ],
      "max" : [ -17.4978, 6.2, 29.4112 ],
      "componentType" : 5126,
      "count" : 324,
      "type" : "VEC3"
    },
    {
      "bufferView" : 2,
      "componentType" : 5126,
      "count" : 324,
      "type" : "VEC3"
    },
    {
      "bufferView" : 3,
      "componentType" : 5126,
      "count" : 324,
      "type" : "VEC4"
    },
    {
      "bufferView" : 4,
      "componentType" : 5126,
      "count" : 324,
      "type" : "VEC2"
    },
    {
      "bufferView" : 5,
      "componentType" : 5126,
      "count" : 324,
      "type" : "VEC2"
    },
    {
      "bufferView" : 6,
      "componentType" : 5126,
      "count" : 324,
      "type" : "VEC2"
    },
    {
      "bufferView" : 7,
      "componentType" : 5126,
      "count" : 324,
      "type" : "VEC2"
    },
    {
      "bufferView" : 8,
      "componentType" : 5123,
      "count" : 3570,
      "type" : "SCALAR"
    },
    {
      "bufferView" : 9,
      "min" : [ -65.0971, 0.699999, -16.0418 ],
      "max" : [ -16.6596, 7.6, 51.6978 ],
      "componentType" : 5126,
      "count" : 2448,
      "type" : "VEC3"
    },
    {
      "bufferView" : 10,
      "componentType" : 5126,
      "count" : 2448,
      "type" : "VEC3"
    },
    {
      "bufferView" : 11,
      "componentType" : 5126,
      "count" : 2448,
      "type" : "VEC4"
    },
    {
      "bufferView" : 12,
      "componentType" : 5126,
      "count" : 2448,
      "type" : "VEC2"
    },
    {
      "bufferView" : 13,
      "componentType" : 5126,
      "count" : 2448,
      "type" : "VEC2"
    },
    {
      "bufferView" : 14,
      "componentType" : 5126,
      "count" : 2448,
      "type" : "VEC2"
    },
    {
      "bufferView" : 15,
      "componentType" : 5126,
      "count" : 2448,
      "type" : "VEC2"
    },
    {
      "bufferView" : 16,
      "componentType" : 5123,
      "count" : 213,
      "type" : "SCALAR"
    },
    {
      "bufferView" : 17,
      "min" : [ -59.8055, -0.00134779, -15.3134 ],
      "max" : [ -17.4404, 0.300421, 29.4677 ],
      "componentType" : 5126,
      "count" : 103,
      "type" : "VEC3"
    },
    {
      "bufferView" : 18,
      "componentType" : 5126,
      "count" : 103,
      "type" : "VEC3"
    },
    {
      "bufferView" : 19,
      "componentType" : 5126,
      "count" : 103,
      "type" : "VEC4"
    },
    {
      "bufferView" : 20,
      "componentType" : 5126,
      "count" : 103,
      "type" : "VEC2"
    },
    {
      "bufferView" : 21,
      "componentType" : 5126,
      "count" : 103,
      "type" : "VEC2"
    },
    {
      "bufferView" : 22,
      "componentType" : 5126,
      "count" : 103,
      "type" : "VEC2"
    },
    {
      "bufferView" : 23,
      "componentType" : 5126,
      "count" : 103,
      "type" : "VEC2"
    },
    {
      "bufferView" : 24,
      "componentType" : 5123,
      "count" : 147,
      "type" : "SCALAR"
    },
    {
      "bufferView" : 25,
      "min" : [ -59.7473, 0.798742, -15.2361 ],
      "max" : [ -17.5158, 1.6, 29.4009 ],
      "componentType" : 5126,
      "count" : 59,
      "type" : "VEC3"
    },
    {
      "bufferView" : 26,
      "componentType" : 5126,
      "count" : 59,
      "type" : "VEC3"
    },
    {
      "bufferView" : 27,
      "componentType" : 5126,
      "count" : 59,
      "type" : "VEC4"
    },
    {
      "bufferView" : 28,
      "componentType" : 5126,
      "count" : 59,
      "type" : "VEC2"
    },
    {
      "bufferView" : 29,
      "componentType" : 5126,
      "count" : 59,
      "type" : "VEC2"
    },
    {
      "bufferView" : 30,
      "componentType" : 5126,
      "count" : 59,
      "type" : "VEC2"
    },
    {
      "bufferView" : 31,
      "componentType" : 5126,
      "count" : 59,
      "type" : "VEC2"
    },
    {
      "bufferView" : 32,
      "componentType" : 5123,
      "count" : 462,
      "type" : "SCALAR"
    },
    {
      "bufferView" : 33,
      "min" : [ -59.2665, 5.07001, -16.0146 ],
      "max" : [ -16.6596, 5.60191, 28.8933 ],
      "componentType" : 5126,
      "count" : 276,
      "type" : "VEC3"
    },
    {
      "bufferView" : 34,
      "componentType" : 5126,
      "count" : 276,
      "type" : "VEC3"
    },
    {
      "bufferView" : 35,
      "componentType" : 5126,
      "count" : 276,
      "type" : "VEC4"
    },
    {
      "bufferView" : 36,
      "componentType" : 5126,
      "count" : 276,
      "type" : "VEC2"
    },
    {
      "bufferView" : 37,
      "componentType" : 5126,
      "count" : 276,
      "type" : "VEC2"
    },
    {
      "bufferView" : 38,
      "componentType" : 5126,
      "count" : 276,
      "type" : "VEC2"
    },
    {
      "bufferView" : 39,
      "componentType" : 5126,
      "count" : 276,
      "type" : "VEC2"
    },
    {
      "bufferView" : 40,
      "componentType" : 5123,
      "count" : 789,
      "type" : "SCALAR"
    },
    {
      "bufferView" : 41,
      "min" : [ -59.5523, 4.8, -16.0146 ],
      "max" : [ -16.6596, 8.12, 29.3159 ],
      "componentType" : 5126,
      "count" : 506,
      "type" : "VEC3"
    },
    {
      "bufferView" : 42,
      "componentType" : 5126,
      "count" : 506,
      "type" : "VEC3"
    },
    {
      "bufferView" : 43,
      "componentType" : 5126,
      "count" : 506,
      "type" : "VEC4"
    },
    {
      "bufferView" : 44,
      "componentType" : 5126,
      "count" : 506,
      "type" : "VEC2"
    },
    {
      "bufferView" : 45,
      "componentType" : 5126,
      "count" : 506,
      "type" : "VEC2"
    },
    {
      "bufferView" : 46,
      "componentType" : 5126,
      "count" : 506,
      "type" : "VEC2"
    },
    {
      "bufferView" : 47,
      "componentType" : 5126,
      "count" : 506,
      "type" : "VEC2"
    },
    {
      "bufferView" : 48,
      "componentType" : 5123,
      "count" : 18,
      "type" : "SCALAR"
    },
    {
      "bufferView" : 49,
      "min" : [ -64.3971, 5.99999, -15.1071 ],
      "max" : [ -18, 6, 50.7107 ],
      "componentType" : 5126,
      "count" : 10,
      "type" : "VEC3"
    },
    {
      "bufferView" : 50,
      "componentType" : 5126,
      "count" : 10,
      "type" : "VEC3"
    },
    {
      "bufferView" : 51,
      "componentType" : 5126,
      "count" : 10,
      "type" : "VEC4"
    },
    {
      "bufferView" : 52,
      "componentType" : 5126,
      "count" : 10,
      "type" : "VEC2"
    },
    {
      "bufferView" : 53,
      "componentType" : 5126,
      "count" : 10,
      "type" : "VEC2"
    },
    {
      "bufferView" : 54,
      "componentType" : 5126,
      "count" : 10,
      "type" : "VEC2"
    },
    {
      "bufferView" : 55,
      "componentType" : 5126,
      "count" : 10,
      "type" : "VEC2"
    }
  ]
}
