{
  "asset" : {
    "generator" : "UE Viewer (umodel) build 1544 based",
    "version" : "2.0"
  },
  "scene" : 0,
  "scenes" : [
    {
      "nodes" : [ 0 ]
    }
  ],
  "nodes" : [
    {
      "name" : "SM_ENV_LKNVLD_Building_C_Lod3",
      "mesh" : 0
    }
  ],
  "materials" : [
    {
      "name" : "MI_ENV_LKNVLD_RoofTiles_LOD",
      "pbrMetallicRoughness" : {
        "baseColorFactor" : [ 0.3, 0.3, 0.3, 1.0 ],
        "metallicFactor" : 0.1,
        "roughnessFactor" : 0.5
      }
    },
    {
      "name" : "MI_ENV_LKNVLD_Roof_C_LOD",
      "pbrMetallicRoughness" : {
        "baseColorFactor" : [ 0.9, 0.3, 0.3, 1.0 ],
        "metallicFactor" : 0.1,
        "roughnessFactor" : 0.5
      }
    },
    {
      "name" : "MI_ENV_LKNVLD_Lantern_B",
      "pbrMetallicRoughness" : {
        "baseColorFactor" : [ 0.3, 0.9, 0.3, 1.0 ],
        "metallicFactor" : 0.1,
        "roughnessFactor" : 0.5
      }
    },
    {
      "name" : "MI_ENV_LKNVLD_WoodPillar_A_LOD",
      "pbrMetallicRoughness" : {
        "baseColorFactor" : [ 0.3, 0.3, 0.9, 1.0 ],
        "metallicFactor" : 0.1,
        "roughnessFactor" : 0.5
      }
    },
    {
      "name" : "MI_ENV_LKNVLD_WoodPillar_D_LOD",
      "pbrMetallicRoughness" : {
        "baseColorFactor" : [ 0.9, 0.9, 0.9, 1.0 ],
        "metallicFactor" : 0.1,
        "roughnessFactor" : 0.5
      }
    },
    {
      "name" : "MI_ENV_LKNVLD_Pipe_D_LOD",
      "pbrMetallicRoughness" : {
        "baseColorFactor" : [ 0.9, 0.9, 0.3, 1.0 ],
        "metallicFactor" : 0.1,
        "roughnessFactor" : 0.5
      }
    },
    {
      "name" : "MI_ENV_LKNVLD_ConcreteFloor_C_LOD",
      "pbrMetallicRoughness" : {
        "baseColorFactor" : [ 0.9, 0.3, 0.9, 1.0 ],
        "metallicFactor" : 0.1,
        "roughnessFactor" : 0.5
      }
    },
    {
      "name" : "MI_T_ENV_LKNVLD_StoneTrim_LOD",
      "pbrMetallicRoughness" : {
        "baseColorFactor" : [ 0.3, 0.9, 0.9, 1.0 ],
        "metallicFactor" : 0.1,
        "roughnessFactor" : 0.5
      }
    },
    {
      "name" : "MI_ENV_LKNVLD_RoughTiles_LOD",
      "pbrMetallicRoughness" : {
        "baseColorFactor" : [ 1, 0.3, 0.3, 1.0 ],
        "metallicFactor" : 0.1,
        "roughnessFactor" : 0.5
      }
    },
    {
      "name" : "MI_T_ENV_LKNVLD_StoneStairs_LOD",
      "pbrMetallicRoughness" : {
        "baseColorFactor" : [ 0.6, 0.3, 0.3, 1.0 ],
        "metallicFactor" : 0.1,
        "roughnessFactor" : 0.5
      }
    },
    {
      "name" : "MI_ENV_LKNVLD_Woodwall_A_LOD",
      "pbrMetallicRoughness" : {
        "baseColorFactor" : [ 1, 0.9, 0.3, 1.0 ],
        "metallicFactor" : 0.1,
        "roughnessFactor" : 0.5
      }
    },
    {
      "name" : "MI_ENV_LKNVLD_ConcreteWall_K_LOD",
      "pbrMetallicRoughness" : {
        "baseColorFactor" : [ 1, 0.3, 0.9, 1.0 ],
        "metallicFactor" : 0.1,
        "roughnessFactor" : 0.5
      }
    },
    {
      "name" : "MI_ENV_LKNVLD_ClanSignboard_K_LOD",
      "pbrMetallicRoughness" : {
        "baseColorFactor" : [ 0.6, 0.9, 0.9, 1.0 ],
        "metallicFactor" : 0.1,
        "roughnessFactor" : 0.5
      }
    },
    {
      "name" : "MI_ENV_LKNVLD_WoodPillar_B_LOD",
      "pbrMetallicRoughness" : {
        "baseColorFactor" : [ 0.6, 0.9, 0.3, 1.0 ],
        "metallicFactor" : 0.1,
        "roughnessFactor" : 0.5
      }
    },
    {
      "name" : "MI_ENV_LKNVLD_Door_C",
      "pbrMetallicRoughness" : {
        "baseColorFactor" : [ 0.6, 0.3, 0.9, 1.0 ],
        "metallicFactor" : 0.1,
        "roughnessFactor" : 0.5
      }
    },
    {
      "name" : "MI_ENV_LKNVLD_WoodWindows_E",
      "pbrMetallicRoughness" : {
        "baseColorFactor" : [ 1, 0.9, 0.9, 1.0 ],
        "metallicFactor" : 0.1,
        "roughnessFactor" : 0.5
      }
    },
    {
      "name" : "MI_ENV_LKNVLD_WoodWindows_F",
      "pbrMetallicRoughness" : {
        "baseColorFactor" : [ 0.3, 1, 0.3, 1.0 ],
        "metallicFactor" : 0.1,
        "roughnessFactor" : 0.5
      }
    }
  ],
  "meshes" : [
    {
      "primitives" : [
        {
          "attributes" : {
            "POSITION" : 1,
            "NORMAL" : 2,
            "TANGENT" : 3,
            "TEXCOORD_0" : 4,
            "TEXCOORD_1" : 5,
            "TEXCOORD_2" : 6,
            "TEXCOORD_3" : 7
          },
          "indices" : 0,
          "material" : 0
        },
        {
          "attributes" : {
            "POSITION" : 9,
            "NORMAL" : 10,
            "TANGENT" : 11,
            "TEXCOORD_0" : 12,
            "TEXCOORD_1" : 13,
            "TEXCOORD_2" : 14,
            "TEXCOORD_3" : 15
          },
          "indices" : 8,
          "material" : 1
        },
        {
          "attributes" : {
            "POSITION" : 17,
            "NORMAL" : 18,
            "TANGENT" : 19,
            "TEXCOORD_0" : 20,
            "TEXCOORD_1" : 21,
            "TEXCOORD_2" : 22,
            "TEXCOORD_3" : 23
          },
          "indices" : 16,
          "material" : 2
        },
        {
          "attributes" : {
            "POSITION" : 25,
            "NORMAL" : 26,
            "TANGENT" : 27,
            "TEXCOORD_0" : 28,
            "TEXCOORD_1" : 29,
            "TEXCOORD_2" : 30,
            "TEXCOORD_3" : 31
          },
          "indices" : 24,
          "material" : 3
        },
        {
          "attributes" : {
            "POSITION" : 33,
            "NORMAL" : 34,
            "TANGENT" : 35,
            "TEXCOORD_0" : 36,
            "TEXCOORD_1" : 37,
            "TEXCOORD_2" : 38,
            "TEXCOORD_3" : 39
          },
          "indices" : 32,
          "material" : 4
        },
        {
          "attributes" : {
            "POSITION" : 41,
            "NORMAL" : 42,
            "TANGENT" : 43,
            "TEXCOORD_0" : 44,
            "TEXCOORD_1" : 45,
            "TEXCOORD_2" : 46,
            "TEXCOORD_3" : 47
          },
          "indices" : 40,
          "material" : 5
        },
        {
          "attributes" : {
            "POSITION" : 49,
            "NORMAL" : 50,
            "TANGENT" : 51,
            "TEXCOORD_0" : 52,
            "TEXCOORD_1" : 53,
            "TEXCOORD_2" : 54,
            "TEXCOORD_3" : 55
          },
          "indices" : 48,
          "material" : 6
        },
        {
          "attributes" : {
            "POSITION" : 57,
            "NORMAL" : 58,
            "TANGENT" : 59,
            "TEXCOORD_0" : 60,
            "TEXCOORD_1" : 61,
            "TEXCOORD_2" : 62,
            "TEXCOORD_3" : 63
          },
          "indices" : 56,
          "material" : 7
        },
        {
          "attributes" : {
            "POSITION" : 65,
            "NORMAL" : 66,
            "TANGENT" : 67,
            "TEXCOORD_0" : 68,
            "TEXCOORD_1" : 69,
            "TEXCOORD_2" : 70,
            "TEXCOORD_3" : 71
          },
          "indices" : 64,
          "material" : 8
        },
        {
          "attributes" : {
            "POSITION" : 73,
            "NORMAL" : 74,
            "TANGENT" : 75,
            "TEXCOORD_0" : 76,
            "TEXCOORD_1" : 77,
            "TEXCOORD_2" : 78,
            "TEXCOORD_3" : 79
          },
          "indices" : 72,
          "material" : 9
        },
        {
          "attributes" : {
            "POSITION" : 81,
            "NORMAL" : 82,
            "TANGENT" : 83,
            "TEXCOORD_0" : 84,
            "TEXCOORD_1" : 85,
            "TEXCOORD_2" : 86,
            "TEXCOORD_3" : 87
          },
          "indices" : 80,
          "material" : 10
        },
        {
          "attributes" : {
            "POSITION" : 89,
            "NORMAL" : 90,
            "TANGENT" : 91,
            "TEXCOORD_0" : 92,
            "TEXCOORD_1" : 93,
            "TEXCOORD_2" : 94,
            "TEXCOORD_3" : 95
          },
          "indices" : 88,
          "material" : 11
        },
        {
          "attributes" : {
            "POSITION" : 97,
            "NORMAL" : 98,
            "TANGENT" : 99,
            "TEXCOORD_0" : 100,
            "TEXCOORD_1" : 101,
            "TEXCOORD_2" : 102,
            "TEXCOORD_3" : 103
          },
          "indices" : 96,
          "material" : 12
        },
        {
          "attributes" : {
            "POSITION" : 105,
            "NORMAL" : 106,
            "TANGENT" : 107,
            "TEXCOORD_0" : 108,
            "TEXCOORD_1" : 109,
            "TEXCOORD_2" : 110,
            "TEXCOORD_3" : 111
          },
          "indices" : 104,
          "material" : 13
        },
        {
          "attributes" : {
            "POSITION" : 113,
            "NORMAL" : 114,
            "TANGENT" : 115,
            "TEXCOORD_0" : 116,
            "TEXCOORD_1" : 117,
            "TEXCOORD_2" : 118,
            "TEXCOORD_3" : 119
          },
          "indices" : 112,
          "material" : 14
        },
        {
          "attributes" : {
            "POSITION" : 121,
            "NORMAL" : 122,
            "TANGENT" : 123,
            "TEXCOORD_0" : 124,
            "TEXCOORD_1" : 125,
            "TEXCOORD_2" : 126,
            "TEXCOORD_3" : 127
          },
          "indices" : 120,
          "material" : 15
        },
        {
          "attributes" : {
            "POSITION" : 129,
            "NORMAL" : 130,
            "TANGENT" : 131,
            "TEXCOORD_0" : 132,
            "TEXCOORD_1" : 133,
            "TEXCOORD_2" : 134,
            "TEXCOORD_3" : 135
          },
          "indices" : 128,
          "material" : 16
        }
      ],
      "name" : "SM_ENV_LKNVLD_Building_C_Lod3"
    }
  ],
  "buffers" : [
    {
      "uri" : "SM_ENV_LKNVLD_Building_C_Lod3.bin",
      "byteLength" : 987232
    }
  ],
  "bufferViews" : [
    {
      "buffer" : 0,
      "byteOffset" : 0,
      "byteLength" : 30632
    },
    {
      "buffer" : 0,
      "byteOffset" : 30632,
      "byteLength" : 54996
    },
    {
      "buffer" : 0,
      "byteOffset" : 85628,
      "byteLength" : 54996
    },
    {
      "buffer" : 0,
      "byteOffset" : 140624,
      "byteLength" : 73328
    },
    {
      "buffer" : 0,
      "byteOffset" : 213952,
      "byteLength" : 36664
    },
    {
      "buffer" : 0,
      "byteOffset" : 250616,
      "byteLength" : 36664
    },
    {
      "buffer" : 0,
      "byteOffset" : 287280,
      "byteLength" : 36664
    },
    {
      "buffer" : 0,
      "byteOffset" : 323944,
      "byteLength" : 36664
    },
    {
      "buffer" : 0,
      "byteOffset" : 360608,
      "byteLength" : 396
    },
    {
      "buffer" : 0,
      "byteOffset" : 361004,
      "byteLength" : 1584
    },
    {
      "buffer" : 0,
      "byteOffset" : 362588,
      "byteLength" : 1584
    },
    {
      "buffer" : 0,
      "byteOffset" : 364172,
      "byteLength" : 2112
    },
    {
      "buffer" : 0,
      "byteOffset" : 366284,
      "byteLength" : 1056
    },
    {
      "buffer" : 0,
      "byteOffset" : 367340,
      "byteLength" : 1056
    },
    {
      "buffer" : 0,
      "byteOffset" : 368396,
      "byteLength" : 1056
    },
    {
      "buffer" : 0,
      "byteOffset" : 369452,
      "byteLength" : 1056
    },
    {
      "buffer" : 0,
      "byteOffset" : 370508,
      "byteLength" : 1476
    },
    {
      "buffer" : 0,
      "byteOffset" : 371984,
      "byteLength" : 3696
    },
    {
      "buffer" : 0,
      "byteOffset" : 375680,
      "byteLength" : 3696
    },
    {
      "buffer" : 0,
      "byteOffset" : 379376,
      "byteLength" : 4928
    },
    {
      "buffer" : 0,
      "byteOffset" : 384304,
      "byteLength" : 2464
    },
    {
      "buffer" : 0,
      "byteOffset" : 386768,
      "byteLength" : 2464
    },
    {
      "buffer" : 0,
      "byteOffset" : 389232,
      "byteLength" : 2464
    },
    {
      "buffer" : 0,
      "byteOffset" : 391696,
      "byteLength" : 2464
    },
    {
      "buffer" : 0,
      "byteOffset" : 394160,
      "byteLength" : 17340
    },
    {
      "buffer" : 0,
      "byteOffset" : 411500,
      "byteLength" : 68712
    },
    {
      "buffer" : 0,
      "byteOffset" : 480212,
      "byteLength" : 68712
    },
    {
      "buffer" : 0,
      "byteOffset" : 548924,
      "byteLength" : 91616
    },
    {
      "buffer" : 0,
      "byteOffset" : 640540,
      "byteLength" : 45808
    },
    {
      "buffer" : 0,
      "byteOffset" : 686348,
      "byteLength" : 45808
    },
    {
      "buffer" : 0,
      "byteOffset" : 732156,
      "byteLength" : 45808
    },
    {
      "buffer" : 0,
      "byteOffset" : 777964,
      "byteLength" : 45808
    },
    {
      "buffer" : 0,
      "byteOffset" : 823772,
      "byteLength" : 2868
    },
    {
      "buffer" : 0,
      "byteOffset" : 826640,
      "byteLength" : 7032
    },
    {
      "buffer" : 0,
      "byteOffset" : 833672,
      "byteLength" : 7032
    },
    {
      "buffer" : 0,
      "byteOffset" : 840704,
      "byteLength" : 9376
    },
    {
      "buffer" : 0,
      "byteOffset" : 850080,
      "byteLength" : 4688
    },
    {
      "buffer" : 0,
      "byteOffset" : 854768,
      "byteLength" : 4688
    },
    {
      "buffer" : 0,
      "byteOffset" : 859456,
      "byteLength" : 4688
    },
    {
      "buffer" : 0,
      "byteOffset" : 864144,
      "byteLength" : 4688
    },
    {
      "buffer" : 0,
      "byteOffset" : 868832,
      "byteLength" : 4716
    },
    {
      "buffer" : 0,
      "byteOffset" : 873548,
      "byteLength" : 8940
    },
    {
      "buffer" : 0,
      "byteOffset" : 882488,
      "byteLength" : 8940
    },
    {
      "buffer" : 0,
      "byteOffset" : 891428,
      "byteLength" : 11920
    },
    {
      "buffer" : 0,
      "byteOffset" : 903348,
      "byteLength" : 5960
    },
    {
      "buffer" : 0,
      "byteOffset" : 909308,
      "byteLength" : 5960
    },
    {
      "buffer" : 0,
      "byteOffset" : 915268,
      "byteLength" : 5960
    },
    {
      "buffer" : 0,
      "byteOffset" : 921228,
      "byteLength" : 5960
    },
    {
      "buffer" : 0,
      "byteOffset" : 927188,
      "byteLength" : 120
    },
    {
      "buffer" : 0,
      "byteOffset" : 927308,
      "byteLength" : 432
    },
    {
      "buffer" : 0,
      "byteOffset" : 927740,
      "byteLength" : 432
    },
    {
      "buffer" : 0,
      "byteOffset" : 928172,
      "byteLength" : 576
    },
    {
      "buffer" : 0,
      "byteOffset" : 928748,
      "byteLength" : 288
    },
    {
      "buffer" : 0,
      "byteOffset" : 929036,
      "byteLength" : 288
    },
    {
      "buffer" : 0,
      "byteOffset" : 929324,
      "byteLength" : 288
    },
    {
      "buffer" : 0,
      "byteOffset" : 929612,
      "byteLength" : 288
    },
    {
      "buffer" : 0,
      "byteOffset" : 929900,
      "byteLength" : 104
    },
    {
      "buffer" : 0,
      "byteOffset" : 930004,
      "byteLength" : 204
    },
    {
      "buffer" : 0,
      "byteOffset" : 930208,
      "byteLength" : 204
    },
    {
      "buffer" : 0,
      "byteOffset" : 930412,
      "byteLength" : 272
    },
    {
      "buffer" : 0,
      "byteOffset" : 930684,
      "byteLength" : 136
    },
    {
      "buffer" : 0,
      "byteOffset" : 930820,
      "byteLength" : 136
    },
    {
      "buffer" : 0,
      "byteOffset" : 930956,
      "byteLength" : 136
    },
    {
      "buffer" : 0,
      "byteOffset" : 931092,
      "byteLength" : 136
    },
    {
      "buffer" : 0,
      "byteOffset" : 931228,
      "byteLength" : 588
    },
    {
      "buffer" : 0,
      "byteOffset" : 931816,
      "byteLength" : 1572
    },
    {
      "buffer" : 0,
      "byteOffset" : 933388,
      "byteLength" : 1572
    },
    {
      "buffer" : 0,
      "byteOffset" : 934960,
      "byteLength" : 2096
    },
    {
      "buffer" : 0,
      "byteOffset" : 937056,
      "byteLength" : 1048
    },
    {
      "buffer" : 0,
      "byteOffset" : 938104,
      "byteLength" : 1048
    },
    {
      "buffer" : 0,
      "byteOffset" : 939152,
      "byteLength" : 1048
    },
    {
      "buffer" : 0,
      "byteOffset" : 940200,
      "byteLength" : 1048
    },
    {
      "buffer" : 0,
      "byteOffset" : 941248,
      "byteLength" : 96
    },
    {
      "buffer" : 0,
      "byteOffset" : 941344,
      "byteLength" : 288
    },
    {
      "buffer" : 0,
      "byteOffset" : 941632,
      "byteLength" : 288
    },
    {
      "buffer" : 0,
      "byteOffset" : 941920,
      "byteLength" : 384
    },
    {
      "buffer" : 0,
      "byteOffset" : 942304,
      "byteLength" : 192
    },
    {
      "buffer" : 0,
      "byteOffset" : 942496,
      "byteLength" : 192
    },
    {
      "buffer" : 0,
      "byteOffset" : 942688,
      "byteLength" : 192
    },
    {
      "buffer" : 0,
      "byteOffset" : 942880,
      "byteLength" : 192
    },
    {
      "buffer" : 0,
      "byteOffset" : 943072,
      "byteLength" : 960
    },
    {
      "buffer" : 0,
      "byteOffset" : 944032,
      "byteLength" : 2160
    },
    {
      "buffer" : 0,
      "byteOffset" : 946192,
      "byteLength" : 2160
    },
    {
      "buffer" : 0,
      "byteOffset" : 948352,
      "byteLength" : 2880
    },
    {
      "buffer" : 0,
      "byteOffset" : 951232,
      "byteLength" : 1440
    },
    {
      "buffer" : 0,
      "byteOffset" : 952672,
      "byteLength" : 1440
    },
    {
      "buffer" : 0,
      "byteOffset" : 954112,
      "byteLength" : 1440
    },
    {
      "buffer" : 0,
      "byteOffset" : 955552,
      "byteLength" : 1440
    },
    {
      "buffer" : 0,
      "byteOffset" : 956992,
      "byteLength" : 1152
    },
    {
      "buffer" : 0,
      "byteOffset" : 958144,
      "byteLength" : 2592
    },
    {
      "buffer" : 0,
      "byteOffset" : 960736,
      "byteLength" : 2592
    },
    {
      "buffer" : 0,
      "byteOffset" : 963328,
      "byteLength" : 3456
    },
    {
      "buffer" : 0,
      "byteOffset" : 966784,
      "byteLength" : 1728
    },
    {
      "buffer" : 0,
      "byteOffset" : 968512,
      "byteLength" : 1728
    },
    {
      "buffer" : 0,
      "byteOffset" : 970240,
      "byteLength" : 1728
    },
    {
      "buffer" : 0,
      "byteOffset" : 971968,
      "byteLength" : 1728
    },
    {
      "buffer" : 0,
      "byteOffset" : 973696,
      "byteLength" : 96
    },
    {
      "buffer" : 0,
      "byteOffset" : 973792,
      "byteLength" : 240
    },
    {
      "buffer" : 0,
      "byteOffset" : 974032,
      "byteLength" : 240
    },
    {
      "buffer" : 0,
      "byteOffset" : 974272,
      "byteLength" : 320
    },
    {
      "buffer" : 0,
      "byteOffset" : 974592,
      "byteLength" : 160
    },
    {
      "buffer" : 0,
      "byteOffset" : 974752,
      "byteLength" : 160
    },
    {
      "buffer" : 0,
      "byteOffset" : 974912,
      "byteLength" : 160
    },
    {
      "buffer" : 0,
      "byteOffset" : 975072,
      "byteLength" : 160
    },
    {
      "buffer" : 0,
      "byteOffset" : 975232,
      "byteLength" : 120
    },
    {
      "buffer" : 0,
      "byteOffset" : 975352,
      "byteLength" : 480
    },
    {
      "buffer" : 0,
      "byteOffset" : 975832,
      "byteLength" : 480
    },
    {
      "buffer" : 0,
      "byteOffset" : 976312,
      "byteLength" : 640
    },
    {
      "buffer" : 0,
      "byteOffset" : 976952,
      "byteLength" : 320
    },
    {
      "buffer" : 0,
      "byteOffset" : 977272,
      "byteLength" : 320
    },
    {
      "buffer" : 0,
      "byteOffset" : 977592,
      "byteLength" : 320
    },
    {
      "buffer" : 0,
      "byteOffset" : 977912,
      "byteLength" : 320
    },
    {
      "buffer" : 0,
      "byteOffset" : 978232,
      "byteLength" : 24
    },
    {
      "buffer" : 0,
      "byteOffset" : 978256,
      "byteLength" : 96
    },
    {
      "buffer" : 0,
      "byteOffset" : 978352,
      "byteLength" : 96
    },
    {
      "buffer" : 0,
      "byteOffset" : 978448,
      "byteLength" : 128
    },
    {
      "buffer" : 0,
      "byteOffset" : 978576,
      "byteLength" : 64
    },
    {
      "buffer" : 0,
      "byteOffset" : 978640,
      "byteLength" : 64
    },
    {
      "buffer" : 0,
      "byteOffset" : 978704,
      "byteLength" : 64
    },
    {
      "buffer" : 0,
      "byteOffset" : 978768,
      "byteLength" : 64
    },
    {
      "buffer" : 0,
      "byteOffset" : 978832,
      "byteLength" : 312
    },
    {
      "buffer" : 0,
      "byteOffset" : 979144,
      "byteLength" : 1248
    },
    {
      "buffer" : 0,
      "byteOffset" : 980392,
      "byteLength" : 1248
    },
    {
      "buffer" : 0,
      "byteOffset" : 981640,
      "byteLength" : 1664
    },
    {
      "buffer" : 0,
      "byteOffset" : 983304,
      "byteLength" : 832
    },
    {
      "buffer" : 0,
      "byteOffset" : 984136,
      "byteLength" : 832
    },
    {
      "buffer" : 0,
      "byteOffset" : 984968,
      "byteLength" : 832
    },
    {
      "buffer" : 0,
      "byteOffset" : 985800,
      "byteLength" : 832
    },
    {
      "buffer" : 0,
      "byteOffset" : 986632,
      "byteLength" : 24
    },
    {
      "buffer" : 0,
      "byteOffset" : 986656,
      "byteLength" : 96
    },
    {
      "buffer" : 0,
      "byteOffset" : 986752,
      "byteLength" : 96
    },
    {
      "buffer" : 0,
      "byteOffset" : 986848,
      "byteLength" : 128
    },
    {
      "buffer" : 0,
      "byteOffset" : 986976,
      "byteLength" : 64
    },
    {
      "buffer" : 0,
      "byteOffset" : 987040,
      "byteLength" : 64
    },
    {
      "buffer" : 0,
      "byteOffset" : 987104,
      "byteLength" : 64
    },
    {
      "buffer" : 0,
      "byteOffset" : 987168,
      "byteLength" : 64
    }
  ],
  "accessors" : [
    {
      "bufferView" : 0,
      "componentType" : 5123,
      "count" : 15315,
      "type" : "SCALAR"
    },
    {
      "bufferView" : 1,
      "min" : [ -61.704, 6.01458, -70.6039 ],
      "max" : [ -37.3007, 20.0365, -52.4255 ],
      "componentType" : 5126,
      "count" : 4583,
      "type" : "VEC3"
    },
    {
      "bufferView" : 2,
      "componentType" : 5126,
      "count" : 4583,
      "type" : "VEC3"
    },
    {
      "bufferView" : 3,
      "componentType" : 5126,
      "count" : 4583,
      "type" : "VEC4"
    },
    {
      "bufferView" : 4,
      "componentType" : 5126,
      "count" : 4583,
      "type" : "VEC2"
    },
    {
      "bufferView" : 5,
      "componentType" : 5126,
      "count" : 4583,
      "type" : "VEC2"
    },
    {
      "bufferView" : 6,
      "componentType" : 5126,
      "count" : 4583,
      "type" : "VEC2"
    },
    {
      "bufferView" : 7,
      "componentType" : 5126,
      "count" : 4583,
      "type" : "VEC2"
    },
    {
      "bufferView" : 8,
      "componentType" : 5123,
      "count" : 198,
      "type" : "SCALAR"
    },
    {
      "bufferView" : 9,
      "min" : [ -61.3, 1.1, -70.3 ],
      "max" : [ -37.7, 15.4421, -52.71 ],
      "componentType" : 5126,
      "count" : 132,
      "type" : "VEC3"
    },
    {
      "bufferView" : 10,
      "componentType" : 5126,
      "count" : 132,
      "type" : "VEC3"
    },
    {
      "bufferView" : 11,
      "componentType" : 5126,
      "count" : 132,
      "type" : "VEC4"
    },
    {
      "bufferView" : 12,
      "componentType" : 5126,
      "count" : 132,
      "type" : "VEC2"
    },
    {
      "bufferView" : 13,
      "componentType" : 5126,
      "count" : 132,
      "type" : "VEC2"
    },
    {
      "bufferView" : 14,
      "componentType" : 5126,
      "count" : 132,
      "type" : "VEC2"
    },
    {
      "bufferView" : 15,
      "componentType" : 5126,
      "count" : 132,
      "type" : "VEC2"
    },
    {
      "bufferView" : 16,
      "componentType" : 5123,
      "count" : 738,
      "type" : "SCALAR"
    },
    {
      "bufferView" : 17,
      "min" : [ -62.0555, 3.60195, -70.9725 ],
      "max" : [ -37.1519, 5.78693, -52.019 ],
      "componentType" : 5126,
      "count" : 308,
      "type" : "VEC3"
    },
    {
      "bufferView" : 18,
      "componentType" : 5126,
      "count" : 308,
      "type" : "VEC3"
    },
    {
      "bufferView" : 19,
      "componentType" : 5126,
      "count" : 308,
      "type" : "VEC4"
    },
    {
      "bufferView" : 20,
      "componentType" : 5126,
      "count" : 308,
      "type" : "VEC2"
    },
    {
      "bufferView" : 21,
      "componentType" : 5126,
      "count" : 308,
      "type" : "VEC2"
    },
    {
      "bufferView" : 22,
      "componentType" : 5126,
      "count" : 308,
      "type" : "VEC2"
    },
    {
      "bufferView" : 23,
      "componentType" : 5126,
      "count" : 308,
      "type" : "VEC2"
    },
    {
      "bufferView" : 24,
      "componentType" : 5123,
      "count" : 8670,
      "type" : "SCALAR"
    },
    {
      "bufferView" : 25,
      "min" : [ -61.3031, 0.8, -70.2919 ],
      "max" : [ -37.6994, 19.4426, -52.7069 ],
      "componentType" : 5126,
      "count" : 5726,
      "type" : "VEC3"
    },
    {
      "bufferView" : 26,
      "componentType" : 5126,
      "count" : 5726,
      "type" : "VEC3"
    },
    {
      "bufferView" : 27,
      "componentType" : 5126,
      "count" : 5726,
      "type" : "VEC4"
    },
    {
      "bufferView" : 28,
      "componentType" : 5126,
      "count" : 5726,
      "type" : "VEC2"
    },
    {
      "bufferView" : 29,
      "componentType" : 5126,
      "count" : 5726,
      "type" : "VEC2"
    },
    {
      "bufferView" : 30,
      "componentType" : 5126,
      "count" : 5726,
      "type" : "VEC2"
    },
    {
      "bufferView" : 31,
      "componentType" : 5126,
      "count" : 5726,
      "type" : "VEC2"
    },
    {
      "bufferView" : 32,
      "componentType" : 5123,
      "count" : 1434,
      "type" : "SCALAR"
    },
    {
      "bufferView" : 33,
      "min" : [ -62.6642, 5.90704, -71.6358 ],
      "max" : [ -36.3132, 20.5817, -51.4588 ],
      "componentType" : 5126,
      "count" : 586,
      "type" : "VEC3"
    },
    {
      "bufferView" : 34,
      "componentType" : 5126,
      "count" : 586,
      "type" : "VEC3"
    },
    {
      "bufferView" : 35,
      "componentType" : 5126,
      "count" : 586,
      "type" : "VEC4"
    },
    {
      "bufferView" : 36,
      "componentType" : 5126,
      "count" : 586,
      "type" : "VEC2"
    },
    {
      "bufferView" : 37,
      "componentType" : 5126,
      "count" : 586,
      "type" : "VEC2"
    },
    {
      "bufferView" : 38,
      "componentType" : 5126,
      "count" : 586,
      "type" : "VEC2"
    },
    {
      "bufferView" : 39,
      "componentType" : 5126,
      "count" : 586,
      "type" : "VEC2"
    },
    {
      "bufferView" : 40,
      "componentType" : 5123,
      "count" : 2358,
      "type" : "SCALAR"
    },
    {
      "bufferView" : 41,
      "min" : [ -59.0287, 8.04378, -68.1615 ],
      "max" : [ -39.7672, 16.8697, -54.4518 ],
      "componentType" : 5126,
      "count" : 745,
      "type" : "VEC3"
    },
    {
      "bufferView" : 42,
      "componentType" : 5126,
      "count" : 745,
      "type" : "VEC3"
    },
    {
      "bufferView" : 43,
      "componentType" : 5126,
      "count" : 745,
      "type" : "VEC4"
    },
    {
      "bufferView" : 44,
      "componentType" : 5126,
      "count" : 745,
      "type" : "VEC2"
    },
    {
      "bufferView" : 45,
      "componentType" : 5126,
      "count" : 745,
      "type" : "VEC2"
    },
    {
      "bufferView" : 46,
      "componentType" : 5126,
      "count" : 745,
      "type" : "VEC2"
    },
    {
      "bufferView" : 47,
      "componentType" : 5126,
      "count" : 745,
      "type" : "VEC2"
    },
    {
      "bufferView" : 48,
      "componentType" : 5123,
      "count" : 60,
      "type" : "SCALAR"
    },
    {
      "bufferView" : 49,
      "min" : [ -58.5, 2.1, -67.5 ],
      "max" : [ -40.5, 15.4421, -55.5 ],
      "componentType" : 5126,
      "count" : 36,
      "type" : "VEC3"
    },
    {
      "bufferView" : 50,
      "componentType" : 5126,
      "count" : 36,
      "type" : "VEC3"
    },
    {
      "bufferView" : 51,
      "componentType" : 5126,
      "count" : 36,
      "type" : "VEC4"
    },
    {
      "bufferView" : 52,
      "componentType" : 5126,
      "count" : 36,
      "type" : "VEC2"
    },
    {
      "bufferView" : 53,
      "componentType" : 5126,
      "count" : 36,
      "type" : "VEC2"
    },
    {
      "bufferView" : 54,
      "componentType" : 5126,
      "count" : 36,
      "type" : "VEC2"
    },
    {
      "bufferView" : 55,
      "componentType" : 5126,
      "count" : 36,
      "type" : "VEC2"
    },
    {
      "bufferView" : 56,
      "componentType" : 5123,
      "count" : 51,
      "type" : "SCALAR"
    },
    {
      "bufferView" : 57,
      "min" : [ -59.4, 0.799999, -69.3 ],
      "max" : [ -39.6, 10, -53.7 ],
      "componentType" : 5126,
      "count" : 17,
      "type" : "VEC3"
    },
    {
      "bufferView" : 58,
      "componentType" : 5126,
      "count" : 17,
      "type" : "VEC3"
    },
    {
      "bufferView" : 59,
      "componentType" : 5126,
      "count" : 17,
      "type" : "VEC4"
    },
    {
      "bufferView" : 60,
      "componentType" : 5126,
      "count" : 17,
      "type" : "VEC2"
    },
    {
      "bufferView" : 61,
      "componentType" : 5126,
      "count" : 17,
      "type" : "VEC2"
    },
    {
      "bufferView" : 62,
      "componentType" : 5126,
      "count" : 17,
      "type" : "VEC2"
    },
    {
      "bufferView" : 63,
      "componentType" : 5126,
      "count" : 17,
      "type" : "VEC2"
    },
    {
      "bufferView" : 64,
      "componentType" : 5123,
      "count" : 294,
      "type" : "SCALAR"
    },
    {
      "bufferView" : 65,
      "min" : [ -59.9, -3.66211e-06, -69.8 ],
      "max" : [ -39.1, 1.05, -51.6 ],
      "componentType" : 5126,
      "count" : 131,
      "type" : "VEC3"
    },
    {
      "bufferView" : 66,
      "componentType" : 5126,
      "count" : 131,
      "type" : "VEC3"
    },
    {
      "bufferView" : 67,
      "componentType" : 5126,
      "count" : 131,
      "type" : "VEC4"
    },
    {
      "bufferView" : 68,
      "componentType" : 5126,
      "count" : 131,
      "type" : "VEC2"
    },
    {
      "bufferView" : 69,
      "componentType" : 5126,
      "count" : 131,
      "type" : "VEC2"
    },
    {
      "bufferView" : 70,
      "componentType" : 5126,
      "count" : 131,
      "type" : "VEC2"
    },
    {
      "bufferView" : 71,
      "componentType" : 5126,
      "count" : 131,
      "type" : "VEC2"
    },
    {
      "bufferView" : 72,
      "componentType" : 5123,
      "count" : 48,
      "type" : "SCALAR"
    },
    {
      "bufferView" : 73,
      "min" : [ -52.2, -1.2207e-06, -53.7 ],
      "max" : [ -46.8, 0.800003, -51.7 ],
      "componentType" : 5126,
      "count" : 24,
      "type" : "VEC3"
    },
    {
      "bufferView" : 74,
      "componentType" : 5126,
      "count" : 24,
      "type" : "VEC3"
    },
    {
      "bufferView" : 75,
      "componentType" : 5126,
      "count" : 24,
      "type" : "VEC4"
    },
    {
      "bufferView" : 76,
      "componentType" : 5126,
      "count" : 24,
      "type" : "VEC2"
    },
    {
      "bufferView" : 77,
      "componentType" : 5126,
      "count" : 24,
      "type" : "VEC2"
    },
    {
      "bufferView" : 78,
      "componentType" : 5126,
      "count" : 24,
      "type" : "VEC2"
    },
    {
      "bufferView" : 79,
      "componentType" : 5126,
      "count" : 24,
      "type" : "VEC2"
    },
    {
      "bufferView" : 80,
      "componentType" : 5123,
      "count" : 480,
      "type" : "SCALAR"
    },
    {
      "bufferView" : 81,
      "min" : [ -59.3, 1.58, -68.3 ],
      "max" : [ -39.7, 14.4861, -54.7 ],
      "componentType" : 5126,
      "count" : 180,
      "type" : "VEC3"
    },
    {
      "bufferView" : 82,
      "componentType" : 5126,
      "count" : 180,
      "type" : "VEC3"
    },
    {
      "bufferView" : 83,
      "componentType" : 5126,
      "count" : 180,
      "type" : "VEC4"
    },
    {
      "bufferView" : 84,
      "componentType" : 5126,
      "count" : 180,
      "type" : "VEC2"
    },
    {
      "bufferView" : 85,
      "componentType" : 5126,
      "count" : 180,
      "type" : "VEC2"
    },
    {
      "bufferView" : 86,
      "componentType" : 5126,
      "count" : 180,
      "type" : "VEC2"
    },
    {
      "bufferView" : 87,
      "componentType" : 5126,
      "count" : 180,
      "type" : "VEC2"
    },
    {
      "bufferView" : 88,
      "componentType" : 5123,
      "count" : 576,
      "type" : "SCALAR"
    },
    {
      "bufferView" : 89,
      "min" : [ -59.35, 0.8, -68.35 ],
      "max" : [ -39.65, 5.48934, -54.65 ],
      "componentType" : 5126,
      "count" : 216,
      "type" : "VEC3"
    },
    {
      "bufferView" : 90,
      "componentType" : 5126,
      "count" : 216,
      "type" : "VEC3"
    },
    {
      "bufferView" : 91,
      "componentType" : 5126,
      "count" : 216,
      "type" : "VEC4"
    },
    {
      "bufferView" : 92,
      "componentType" : 5126,
      "count" : 216,
      "type" : "VEC2"
    },
    {
      "bufferView" : 93,
      "componentType" : 5126,
      "count" : 216,
      "type" : "VEC2"
    },
    {
      "bufferView" : 94,
      "componentType" : 5126,
      "count" : 216,
      "type" : "VEC2"
    },
    {
      "bufferView" : 95,
      "componentType" : 5126,
      "count" : 216,
      "type" : "VEC2"
    },
    {
      "bufferView" : 96,
      "componentType" : 5123,
      "count" : 48,
      "type" : "SCALAR"
    },
    {
      "bufferView" : 97,
      "min" : [ -53.0464, 2.01061, -54.9536 ],
      "max" : [ -45.9536, 4.2727, -54.7 ],
      "componentType" : 5126,
      "count" : 20,
      "type" : "VEC3"
    },
    {
      "bufferView" : 98,
      "componentType" : 5126,
      "count" : 20,
      "type" : "VEC3"
    },
    {
      "bufferView" : 99,
      "componentType" : 5126,
      "count" : 20,
      "type" : "VEC4"
    },
    {
      "bufferView" : 100,
      "componentType" : 5126,
      "count" : 20,
      "type" : "VEC2"
    },
    {
      "bufferView" : 101,
      "componentType" : 5126,
      "count" : 20,
      "type" : "VEC2"
    },
    {
      "bufferView" : 102,
      "componentType" : 5126,
      "count" : 20,
      "type" : "VEC2"
    },
    {
      "bufferView" : 103,
      "componentType" : 5126,
      "count" : 20,
      "type" : "VEC2"
    },
    {
      "bufferView" : 104,
      "componentType" : 5123,
      "count" : 60,
      "type" : "SCALAR"
    },
    {
      "bufferView" : 105,
      "min" : [ -51.1, 1.1, -55.5 ],
      "max" : [ -47.9, 4.5, -55.45 ],
      "componentType" : 5126,
      "count" : 40,
      "type" : "VEC3"
    },
    {
      "bufferView" : 106,
      "componentType" : 5126,
      "count" : 40,
      "type" : "VEC3"
    },
    {
      "bufferView" : 107,
      "componentType" : 5126,
      "count" : 40,
      "type" : "VEC4"
    },
    {
      "bufferView" : 108,
      "componentType" : 5126,
      "count" : 40,
      "type" : "VEC2"
    },
    {
      "bufferView" : 109,
      "componentType" : 5126,
      "count" : 40,
      "type" : "VEC2"
    },
    {
      "bufferView" : 110,
      "componentType" : 5126,
      "count" : 40,
      "type" : "VEC2"
    },
    {
      "bufferView" : 111,
      "componentType" : 5126,
      "count" : 40,
      "type" : "VEC2"
    },
    {
      "bufferView" : 112,
      "componentType" : 5123,
      "count" : 12,
      "type" : "SCALAR"
    },
    {
      "bufferView" : 113,
      "min" : [ -51, 1.2, -55.5 ],
      "max" : [ -48, 4.4, -55.5 ],
      "componentType" : 5126,
      "count" : 8,
      "type" : "VEC3"
    },
    {
      "bufferView" : 114,
      "componentType" : 5126,
      "count" : 8,
      "type" : "VEC3"
    },
    {
      "bufferView" : 115,
      "componentType" : 5126,
      "count" : 8,
      "type" : "VEC4"
    },
    {
      "bufferView" : 116,
      "componentType" : 5126,
      "count" : 8,
      "type" : "VEC2"
    },
    {
      "bufferView" : 117,
      "componentType" : 5126,
      "count" : 8,
      "type" : "VEC2"
    },
    {
      "bufferView" : 118,
      "componentType" : 5126,
      "count" : 8,
      "type" : "VEC2"
    },
    {
      "bufferView" : 119,
      "componentType" : 5126,
      "count" : 8,
      "type" : "VEC2"
    },
    {
      "bufferView" : 120,
      "componentType" : 5123,
      "count" : 156,
      "type" : "SCALAR"
    },
    {
      "bufferView" : 121,
      "min" : [ -58.51, 2.725, -67.51 ],
      "max" : [ -40.49, 13.3168, -55.49 ],
      "componentType" : 5126,
      "count" : 104,
      "type" : "VEC3"
    },
    {
      "bufferView" : 122,
      "componentType" : 5126,
      "count" : 104,
      "type" : "VEC3"
    },
    {
      "bufferView" : 123,
      "componentType" : 5126,
      "count" : 104,
      "type" : "VEC4"
    },
    {
      "bufferView" : 124,
      "componentType" : 5126,
      "count" : 104,
      "type" : "VEC2"
    },
    {
      "bufferView" : 125,
      "componentType" : 5126,
      "count" : 104,
      "type" : "VEC2"
    },
    {
      "bufferView" : 126,
      "componentType" : 5126,
      "count" : 104,
      "type" : "VEC2"
    },
    {
      "bufferView" : 127,
      "componentType" : 5126,
      "count" : 104,
      "type" : "VEC2"
    },
    {
      "bufferView" : 128,
      "componentType" : 5123,
      "count" : 12,
      "type" : "SCALAR"
    },
    {
      "bufferView" : 129,
      "min" : [ -54.6852, 17.2259, -63.3344 ],
      "max" : [ -44.3148, 19.2915, -59.6672 ],
      "componentType" : 5126,
      "count" : 8,
      "type" : "VEC3"
    },
    {
      "bufferView" : 130,
      "componentType" : 5126,
      "count" : 8,
      "type" : "VEC3"
    },
    {
      "bufferView" : 131,
      "componentType" : 5126,
      "count" : 8,
      "type" : "VEC4"
    },
    {
      "bufferView" : 132,
      "componentType" : 5126,
      "count" : 8,
      "type" : "VEC2"
    },
    {
      "bufferView" : 133,
      "componentType" : 5126,
      "count" : 8,
      "type" : "VEC2"
    },
    {
      "bufferView" : 134,
      "componentType" : 5126,
      "count" : 8,
      "type" : "VEC2"
    },
    {
      "bufferView" : 135,
      "componentType" : 5126,
      "count" : 8,
      "type" : "VEC2"
    }
  ]
}
