{
  "asset" : {
    "generator" : "UE Viewer (umodel) build 1544 based",
    "version" : "2.0"
  },
  "scene" : 0,
  "scenes" : [
    {
      "nodes" : [ 0 ]
    }
  ],
  "nodes" : [
    {
      "name" : "SM_ENV_LKNVLD_Stall_F",
      "mesh" : 0
    }
  ],
  "materials" : [
    {
      "name" : "MI_ENV_LKNVLD_Roof_Aa",
      "pbrMetallicRoughness" : {
        "baseColorFactor" : [ 0.3, 0.3, 0.3, 1.0 ],
        "metallicFactor" : 0.1,
        "roughnessFactor" : 0.5
      }
    },
    {
      "name" : "MI_ENV_LKNVLD_Stall_03",
      "pbrMetallicRoughness" : {
        "baseColorFactor" : [ 0.9, 0.3, 0.3, 1.0 ],
        "metallicFactor" : 0.1,
        "roughnessFactor" : 0.5
      }
    },
    {
      "name" : "MI_ENV_LKNVLD_Stall_I",
      "pbrMetallicRoughness" : {
        "baseColorFactor" : [ 0.3, 0.9, 0.3, 1.0 ],
        "metallicFactor" : 0.1,
        "roughnessFactor" : 0.5
      }
    },
    {
      "name" : "MI_ENV_LKNVLD_Stall_Emissive_03",
      "pbrMetallicRoughness" : {
        "baseColorFactor" : [ 0.3, 0.3, 0.9, 1.0 ],
        "metallicFactor" : 0.1,
        "roughnessFactor" : 0.5
      }
    }
  ],
  "meshes" : [
    {
      "primitives" : [
        {
          "attributes" : {
            "POSITION" : 1,
            "NORMAL" : 2,
            "TANGENT" : 3,
            "COLOR_0" : 4,
            "TEXCOORD_0" : 5,
            "TEXCOORD_1" : 6,
            "TEXCOORD_2" : 7,
            "TEXCOORD_3" : 8
          },
          "indices" : 0,
          "material" : 0
        },
        {
          "attributes" : {
            "POSITION" : 10,
            "NORMAL" : 11,
            "TANGENT" : 12,
            "COLOR_0" : 13,
            "TEXCOORD_0" : 14,
            "TEXCOORD_1" : 15,
            "TEXCOORD_2" : 16,
            "TEXCOORD_3" : 17
          },
          "indices" : 9,
          "material" : 1
        },
        {
          "attributes" : {
            "POSITION" : 19,
            "NORMAL" : 20,
            "TANGENT" : 21,
            "COLOR_0" : 22,
            "TEXCOORD_0" : 23,
            "TEXCOORD_1" : 24,
            "TEXCOORD_2" : 25,
            "TEXCOORD_3" : 26
          },
          "indices" : 18,
          "material" : 2
        },
        {
          "attributes" : {
            "POSITION" : 28,
            "NORMAL" : 29,
            "TANGENT" : 30,
            "COLOR_0" : 31,
            "TEXCOORD_0" : 32,
            "TEXCOORD_1" : 33,
            "TEXCOORD_2" : 34,
            "TEXCOORD_3" : 35
          },
          "indices" : 27,
          "material" : 3
        }
      ],
      "name" : "SM_ENV_LKNVLD_Stall_F"
    }
  ],
  "buffers" : [
    {
      "uri" : "SM_ENV_LKNVLD_Stall_F.bin",
      "byteLength" : 1092840
    }
  ],
  "bufferViews" : [
    {
      "buffer" : 0,
      "byteOffset" : 0,
      "byteLength" : 384
    },
    {
      "buffer" : 0,
      "byteOffset" : 384,
      "byteLength" : 1728
    },
    {
      "buffer" : 0,
      "byteOffset" : 2112,
      "byteLength" : 1728
    },
    {
      "buffer" : 0,
      "byteOffset" : 3840,
      "byteLength" : 2304
    },
    {
      "buffer" : 0,
      "byteOffset" : 6144,
      "byteLength" : 576
    },
    {
      "buffer" : 0,
      "byteOffset" : 6720,
      "byteLength" : 1152
    },
    {
      "buffer" : 0,
      "byteOffset" : 7872,
      "byteLength" : 1152
    },
    {
      "buffer" : 0,
      "byteOffset" : 9024,
      "byteLength" : 1152
    },
    {
      "buffer" : 0,
      "byteOffset" : 10176,
      "byteLength" : 1152
    },
    {
      "buffer" : 0,
      "byteOffset" : 11328,
      "byteLength" : 43128
    },
    {
      "buffer" : 0,
      "byteOffset" : 54456,
      "byteLength" : 73992
    },
    {
      "buffer" : 0,
      "byteOffset" : 128448,
      "byteLength" : 73992
    },
    {
      "buffer" : 0,
      "byteOffset" : 202440,
      "byteLength" : 98656
    },
    {
      "buffer" : 0,
      "byteOffset" : 301096,
      "byteLength" : 24664
    },
    {
      "buffer" : 0,
      "byteOffset" : 325760,
      "byteLength" : 49328
    },
    {
      "buffer" : 0,
      "byteOffset" : 375088,
      "byteLength" : 49328
    },
    {
      "buffer" : 0,
      "byteOffset" : 424416,
      "byteLength" : 49328
    },
    {
      "buffer" : 0,
      "byteOffset" : 473744,
      "byteLength" : 49328
    },
    {
      "buffer" : 0,
      "byteOffset" : 523072,
      "byteLength" : 30948
    },
    {
      "buffer" : 0,
      "byteOffset" : 554020,
      "byteLength" : 83508
    },
    {
      "buffer" : 0,
      "byteOffset" : 637528,
      "byteLength" : 83508
    },
    {
      "buffer" : 0,
      "byteOffset" : 721036,
      "byteLength" : 111344
    },
    {
      "buffer" : 0,
      "byteOffset" : 832380,
      "byteLength" : 27836
    },
    {
      "buffer" : 0,
      "byteOffset" : 860216,
      "byteLength" : 55672
    },
    {
      "buffer" : 0,
      "byteOffset" : 915888,
      "byteLength" : 55672
    },
    {
      "buffer" : 0,
      "byteOffset" : 971560,
      "byteLength" : 55672
    },
    {
      "buffer" : 0,
      "byteOffset" : 1027232,
      "byteLength" : 55672
    },
    {
      "buffer" : 0,
      "byteOffset" : 1082904,
      "byteLength" : 816
    },
    {
      "buffer" : 0,
      "byteOffset" : 1083720,
      "byteLength" : 1440
    },
    {
      "buffer" : 0,
      "byteOffset" : 1085160,
      "byteLength" : 1440
    },
    {
      "buffer" : 0,
      "byteOffset" : 1086600,
      "byteLength" : 1920
    },
    {
      "buffer" : 0,
      "byteOffset" : 1088520,
      "byteLength" : 480
    },
    {
      "buffer" : 0,
      "byteOffset" : 1089000,
      "byteLength" : 960
    },
    {
      "buffer" : 0,
      "byteOffset" : 1089960,
      "byteLength" : 960
    },
    {
      "buffer" : 0,
      "byteOffset" : 1090920,
      "byteLength" : 960
    },
    {
      "buffer" : 0,
      "byteOffset" : 1091880,
      "byteLength" : 960
    }
  ],
  "accessors" : [
    {
      "bufferView" : 0,
      "componentType" : 5123,
      "count" : 192,
      "type" : "SCALAR"
    },
    {
      "bufferView" : 1,
      "min" : [ -4.37914, 1.91759, -1.12487 ],
      "max" : [ 1.21362, 2.91045, 2.28273 ],
      "componentType" : 5126,
      "count" : 144,
      "type" : "VEC3"
    },
    {
      "bufferView" : 2,
      "componentType" : 5126,
      "count" : 144,
      "type" : "VEC3"
    },
    {
      "bufferView" : 3,
      "componentType" : 5126,
      "count" : 144,
      "type" : "VEC4"
    },
    {
      "bufferView" : 4,
      "normalized" : true,
      "componentType" : 5121,
      "count" : 144,
      "type" : "VEC4"
    },
    {
      "bufferView" : 5,
      "componentType" : 5126,
      "count" : 144,
      "type" : "VEC2"
    },
    {
      "bufferView" : 6,
      "componentType" : 5126,
      "count" : 144,
      "type" : "VEC2"
    },
    {
      "bufferView" : 7,
      "componentType" : 5126,
      "count" : 144,
      "type" : "VEC2"
    },
    {
      "bufferView" : 8,
      "componentType" : 5126,
      "count" : 144,
      "type" : "VEC2"
    },
    {
      "bufferView" : 9,
      "componentType" : 5123,
      "count" : 21564,
      "type" : "SCALAR"
    },
    {
      "bufferView" : 10,
      "min" : [ -4.05744, 0.0983725, -0.846059 ],
      "max" : [ 1.36692, 3.06887, 1.95999 ],
      "componentType" : 5126,
      "count" : 6166,
      "type" : "VEC3"
    },
    {
      "bufferView" : 11,
      "componentType" : 5126,
      "count" : 6166,
      "type" : "VEC3"
    },
    {
      "bufferView" : 12,
      "componentType" : 5126,
      "count" : 6166,
      "type" : "VEC4"
    },
    {
      "bufferView" : 13,
      "normalized" : true,
      "componentType" : 5121,
      "count" : 6166,
      "type" : "VEC4"
    },
    {
      "bufferView" : 14,
      "componentType" : 5126,
      "count" : 6166,
      "type" : "VEC2"
    },
    {
      "bufferView" : 15,
      "componentType" : 5126,
      "count" : 6166,
      "type" : "VEC2"
    },
    {
      "bufferView" : 16,
      "componentType" : 5126,
      "count" : 6166,
      "type" : "VEC2"
    },
    {
      "bufferView" : 17,
      "componentType" : 5126,
      "count" : 6166,
      "type" : "VEC2"
    },
    {
      "bufferView" : 18,
      "componentType" : 5123,
      "count" : 15474,
      "type" : "SCALAR"
    },
    {
      "bufferView" : 19,
      "min" : [ -4.16964, -0.00639924, -1.53906 ],
      "max" : [ 1.66925, 2.91061, 2.07254 ],
      "componentType" : 5126,
      "count" : 6959,
      "type" : "VEC3"
    },
    {
      "bufferView" : 20,
      "componentType" : 5126,
      "count" : 6959,
      "type" : "VEC3"
    },
    {
      "bufferView" : 21,
      "componentType" : 5126,
      "count" : 6959,
      "type" : "VEC4"
    },
    {
      "bufferView" : 22,
      "normalized" : true,
      "componentType" : 5121,
      "count" : 6959,
      "type" : "VEC4"
    },
    {
      "bufferView" : 23,
      "componentType" : 5126,
      "count" : 6959,
      "type" : "VEC2"
    },
    {
      "bufferView" : 24,
      "componentType" : 5126,
      "count" : 6959,
      "type" : "VEC2"
    },
    {
      "bufferView" : 25,
      "componentType" : 5126,
      "count" : 6959,
      "type" : "VEC2"
    },
    {
      "bufferView" : 26,
      "componentType" : 5126,
      "count" : 6959,
      "type" : "VEC2"
    },
    {
      "bufferView" : 27,
      "componentType" : 5123,
      "count" : 408,
      "type" : "SCALAR"
    },
    {
      "bufferView" : 28,
      "min" : [ -0.191695, 2.15912, -0.13688 ],
      "max" : [ -0.0681667, 2.31251, -0.0169697 ],
      "componentType" : 5126,
      "count" : 120,
      "type" : "VEC3"
    },
    {
      "bufferView" : 29,
      "componentType" : 5126,
      "count" : 120,
      "type" : "VEC3"
    },
    {
      "bufferView" : 30,
      "componentType" : 5126,
      "count" : 120,
      "type" : "VEC4"
    },
    {
      "bufferView" : 31,
      "normalized" : true,
      "componentType" : 5121,
      "count" : 120,
      "type" : "VEC4"
    },
    {
      "bufferView" : 32,
      "componentType" : 5126,
      "count" : 120,
      "type" : "VEC2"
    },
    {
      "bufferView" : 33,
      "componentType" : 5126,
      "count" : 120,
      "type" : "VEC2"
    },
    {
      "bufferView" : 34,
      "componentType" : 5126,
      "count" : 120,
      "type" : "VEC2"
    },
    {
      "bufferView" : 35,
      "componentType" : 5126,
      "count" : 120,
      "type" : "VEC2"
    }
  ]
}
