{
  "asset" : {
    "generator" : "UE Viewer (umodel) build 1544 based",
    "version" : "2.0"
  },
  "scene" : 0,
  "scenes" : [
    {
      "nodes" : [ 0 ]
    }
  ],
  "nodes" : [
    {
      "name" : "SM_ENV_LKNVLD_WallSet_Bridge_Lod2",
      "mesh" : 0
    }
  ],
  "materials" : [
    {
      "name" : "MI_ENV_LKNVLD_MetalRoof_Green",
      "pbrMetallicRoughness" : {
        "baseColorFactor" : [ 0.3, 0.3, 0.3, 1.0 ],
        "metallicFactor" : 0.1,
        "roughnessFactor" : 0.5
      }
    },
    {
      "name" : "MI_ENV_LKNVLD_WoodPlain_Red_LOD",
      "pbrMetallicRoughness" : {
        "baseColorFactor" : [ 0.9, 0.3, 0.3, 1.0 ],
        "metallicFactor" : 0.1,
        "roughnessFactor" : 0.5
      }
    },
    {
      "name" : "MI_ENV_LKNVLD_WoodWallSet_LOD",
      "pbrMetallicRoughness" : {
        "baseColorFactor" : [ 0.3, 0.9, 0.3, 1.0 ],
        "metallicFactor" : 0.1,
        "roughnessFactor" : 0.5
      }
    },
    {
      "name" : "MI_ENV_LKNVLD_WoodWallSet_Red_LOD",
      "pbrMetallicRoughness" : {
        "baseColorFactor" : [ 0.3, 0.3, 0.9, 1.0 ],
        "metallicFactor" : 0.1,
        "roughnessFactor" : 0.5
      }
    },
    {
      "name" : "MI_ENV_LKNVLD_Signboard_A",
      "pbrMetallicRoughness" : {
        "baseColorFactor" : [ 0.9, 0.9, 0.9, 1.0 ],
        "metallicFactor" : 0.1,
        "roughnessFactor" : 0.5
      }
    },
    {
      "name" : "MI_ENV_LKNVLD_Eaves_B_LOD",
      "pbrMetallicRoughness" : {
        "baseColorFactor" : [ 0.9, 0.9, 0.3, 1.0 ],
        "metallicFactor" : 0.1,
        "roughnessFactor" : 0.5
      }
    },
    {
      "name" : "MI_ENV_LKNVLD_StoneTrim_Ground_LOD",
      "pbrMetallicRoughness" : {
        "baseColorFactor" : [ 0.9, 0.3, 0.9, 1.0 ],
        "metallicFactor" : 0.1,
        "roughnessFactor" : 0.5
      }
    },
    {
      "name" : "MI_ENV_LKNVLD_WoodBoard_Natural_Lighter_LOD",
      "pbrMetallicRoughness" : {
        "baseColorFactor" : [ 0.3, 0.9, 0.9, 1.0 ],
        "metallicFactor" : 0.1,
        "roughnessFactor" : 0.5
      }
    }
  ],
  "meshes" : [
    {
      "primitives" : [
        {
          "attributes" : {
            "POSITION" : 1,
            "NORMAL" : 2,
            "TANGENT" : 3,
            "TEXCOORD_0" : 4,
            "TEXCOORD_1" : 5,
            "TEXCOORD_2" : 6,
            "TEXCOORD_3" : 7
          },
          "indices" : 0,
          "material" : 0
        },
        {
          "attributes" : {
            "POSITION" : 9,
            "NORMAL" : 10,
            "TANGENT" : 11,
            "TEXCOORD_0" : 12,
            "TEXCOORD_1" : 13,
            "TEXCOORD_2" : 14,
            "TEXCOORD_3" : 15
          },
          "indices" : 8,
          "material" : 1
        },
        {
          "attributes" : {
            "POSITION" : 17,
            "NORMAL" : 18,
            "TANGENT" : 19,
            "TEXCOORD_0" : 20,
            "TEXCOORD_1" : 21,
            "TEXCOORD_2" : 22,
            "TEXCOORD_3" : 23
          },
          "indices" : 16,
          "material" : 2
        },
        {
          "attributes" : {
            "POSITION" : 25,
            "NORMAL" : 26,
            "TANGENT" : 27,
            "TEXCOORD_0" : 28,
            "TEXCOORD_1" : 29,
            "TEXCOORD_2" : 30,
            "TEXCOORD_3" : 31
          },
          "indices" : 24,
          "material" : 3
        },
        {
          "attributes" : {
            "POSITION" : 33,
            "NORMAL" : 34,
            "TANGENT" : 35,
            "TEXCOORD_0" : 36,
            "TEXCOORD_1" : 37,
            "TEXCOORD_2" : 38,
            "TEXCOORD_3" : 39
          },
          "indices" : 32,
          "material" : 4
        },
        {
          "attributes" : {
            "POSITION" : 41,
            "NORMAL" : 42,
            "TANGENT" : 43,
            "TEXCOORD_0" : 44,
            "TEXCOORD_1" : 45,
            "TEXCOORD_2" : 46,
            "TEXCOORD_3" : 47
          },
          "indices" : 40,
          "material" : 5
        },
        {
          "attributes" : {
            "POSITION" : 49,
            "NORMAL" : 50,
            "TANGENT" : 51,
            "TEXCOORD_0" : 52,
            "TEXCOORD_1" : 53,
            "TEXCOORD_2" : 54,
            "TEXCOORD_3" : 55
          },
          "indices" : 48,
          "material" : 6
        },
        {
          "attributes" : {
            "POSITION" : 57,
            "NORMAL" : 58,
            "TANGENT" : 59,
            "TEXCOORD_0" : 60,
            "TEXCOORD_1" : 61,
            "TEXCOORD_2" : 62,
            "TEXCOORD_3" : 63
          },
          "indices" : 56,
          "material" : 7
        }
      ],
      "name" : "SM_ENV_LKNVLD_WallSet_Bridge_Lod2"
    }
  ],
  "buffers" : [
    {
      "uri" : "SM_ENV_LKNVLD_WallSet_Bridge_Lod2.bin",
      "byteLength" : 666316
    }
  ],
  "bufferViews" : [
    {
      "buffer" : 0,
      "byteOffset" : 0,
      "byteLength" : 48
    },
    {
      "buffer" : 0,
      "byteOffset" : 48,
      "byteLength" : 192
    },
    {
      "buffer" : 0,
      "byteOffset" : 240,
      "byteLength" : 192
    },
    {
      "buffer" : 0,
      "byteOffset" : 432,
      "byteLength" : 256
    },
    {
      "buffer" : 0,
      "byteOffset" : 688,
      "byteLength" : 128
    },
    {
      "buffer" : 0,
      "byteOffset" : 816,
      "byteLength" : 128
    },
    {
      "buffer" : 0,
      "byteOffset" : 944,
      "byteLength" : 128
    },
    {
      "buffer" : 0,
      "byteOffset" : 1072,
      "byteLength" : 128
    },
    {
      "buffer" : 0,
      "byteOffset" : 1200,
      "byteLength" : 15732
    },
    {
      "buffer" : 0,
      "byteOffset" : 16932,
      "byteLength" : 58608
    },
    {
      "buffer" : 0,
      "byteOffset" : 75540,
      "byteLength" : 58608
    },
    {
      "buffer" : 0,
      "byteOffset" : 134148,
      "byteLength" : 78144
    },
    {
      "buffer" : 0,
      "byteOffset" : 212292,
      "byteLength" : 39072
    },
    {
      "buffer" : 0,
      "byteOffset" : 251364,
      "byteLength" : 39072
    },
    {
      "buffer" : 0,
      "byteOffset" : 290436,
      "byteLength" : 39072
    },
    {
      "buffer" : 0,
      "byteOffset" : 329508,
      "byteLength" : 39072
    },
    {
      "buffer" : 0,
      "byteOffset" : 368580,
      "byteLength" : 7728
    },
    {
      "buffer" : 0,
      "byteOffset" : 376308,
      "byteLength" : 25824
    },
    {
      "buffer" : 0,
      "byteOffset" : 402132,
      "byteLength" : 25824
    },
    {
      "buffer" : 0,
      "byteOffset" : 427956,
      "byteLength" : 34432
    },
    {
      "buffer" : 0,
      "byteOffset" : 462388,
      "byteLength" : 17216
    },
    {
      "buffer" : 0,
      "byteOffset" : 479604,
      "byteLength" : 17216
    },
    {
      "buffer" : 0,
      "byteOffset" : 496820,
      "byteLength" : 17216
    },
    {
      "buffer" : 0,
      "byteOffset" : 514036,
      "byteLength" : 17216
    },
    {
      "buffer" : 0,
      "byteOffset" : 531252,
      "byteLength" : 812
    },
    {
      "buffer" : 0,
      "byteOffset" : 532064,
      "byteLength" : 2412
    },
    {
      "buffer" : 0,
      "byteOffset" : 534476,
      "byteLength" : 2412
    },
    {
      "buffer" : 0,
      "byteOffset" : 536888,
      "byteLength" : 3216
    },
    {
      "buffer" : 0,
      "byteOffset" : 540104,
      "byteLength" : 1608
    },
    {
      "buffer" : 0,
      "byteOffset" : 541712,
      "byteLength" : 1608
    },
    {
      "buffer" : 0,
      "byteOffset" : 543320,
      "byteLength" : 1608
    },
    {
      "buffer" : 0,
      "byteOffset" : 544928,
      "byteLength" : 1608
    },
    {
      "buffer" : 0,
      "byteOffset" : 546536,
      "byteLength" : 3084
    },
    {
      "buffer" : 0,
      "byteOffset" : 549620,
      "byteLength" : 10548
    },
    {
      "buffer" : 0,
      "byteOffset" : 560168,
      "byteLength" : 10548
    },
    {
      "buffer" : 0,
      "byteOffset" : 570716,
      "byteLength" : 14064
    },
    {
      "buffer" : 0,
      "byteOffset" : 584780,
      "byteLength" : 7032
    },
    {
      "buffer" : 0,
      "byteOffset" : 591812,
      "byteLength" : 7032
    },
    {
      "buffer" : 0,
      "byteOffset" : 598844,
      "byteLength" : 7032
    },
    {
      "buffer" : 0,
      "byteOffset" : 605876,
      "byteLength" : 7032
    },
    {
      "buffer" : 0,
      "byteOffset" : 612908,
      "byteLength" : 1656
    },
    {
      "buffer" : 0,
      "byteOffset" : 614564,
      "byteLength" : 6192
    },
    {
      "buffer" : 0,
      "byteOffset" : 620756,
      "byteLength" : 6192
    },
    {
      "buffer" : 0,
      "byteOffset" : 626948,
      "byteLength" : 8256
    },
    {
      "buffer" : 0,
      "byteOffset" : 635204,
      "byteLength" : 4128
    },
    {
      "buffer" : 0,
      "byteOffset" : 639332,
      "byteLength" : 4128
    },
    {
      "buffer" : 0,
      "byteOffset" : 643460,
      "byteLength" : 4128
    },
    {
      "buffer" : 0,
      "byteOffset" : 647588,
      "byteLength" : 4128
    },
    {
      "buffer" : 0,
      "byteOffset" : 651716,
      "byteLength" : 740
    },
    {
      "buffer" : 0,
      "byteOffset" : 652456,
      "byteLength" : 2004
    },
    {
      "buffer" : 0,
      "byteOffset" : 654460,
      "byteLength" : 2004
    },
    {
      "buffer" : 0,
      "byteOffset" : 656464,
      "byteLength" : 2672
    },
    {
      "buffer" : 0,
      "byteOffset" : 659136,
      "byteLength" : 1336
    },
    {
      "buffer" : 0,
      "byteOffset" : 660472,
      "byteLength" : 1336
    },
    {
      "buffer" : 0,
      "byteOffset" : 661808,
      "byteLength" : 1336
    },
    {
      "buffer" : 0,
      "byteOffset" : 663144,
      "byteLength" : 1336
    },
    {
      "buffer" : 0,
      "byteOffset" : 664480,
      "byteLength" : 108
    },
    {
      "buffer" : 0,
      "byteOffset" : 664588,
      "byteLength" : 288
    },
    {
      "buffer" : 0,
      "byteOffset" : 664876,
      "byteLength" : 288
    },
    {
      "buffer" : 0,
      "byteOffset" : 665164,
      "byteLength" : 384
    },
    {
      "buffer" : 0,
      "byteOffset" : 665548,
      "byteLength" : 192
    },
    {
      "buffer" : 0,
      "byteOffset" : 665740,
      "byteLength" : 192
    },
    {
      "buffer" : 0,
      "byteOffset" : 665932,
      "byteLength" : 192
    },
    {
      "buffer" : 0,
      "byteOffset" : 666124,
      "byteLength" : 192
    }
  ],
  "accessors" : [
    {
      "bufferView" : 0,
      "componentType" : 5123,
      "count" : 24,
      "type" : "SCALAR"
    },
    {
      "bufferView" : 1,
      "min" : [ -4.29724, 0.264704, 64.114 ],
      "max" : [ 4.22171, 1.01122, 64.1177 ],
      "componentType" : 5126,
      "count" : 16,
      "type" : "VEC3"
    },
    {
      "bufferView" : 2,
      "componentType" : 5126,
      "count" : 16,
      "type" : "VEC3"
    },
    {
      "bufferView" : 3,
      "componentType" : 5126,
      "count" : 16,
      "type" : "VEC4"
    },
    {
      "bufferView" : 4,
      "componentType" : 5126,
      "count" : 16,
      "type" : "VEC2"
    },
    {
      "bufferView" : 5,
      "componentType" : 5126,
      "count" : 16,
      "type" : "VEC2"
    },
    {
      "bufferView" : 6,
      "componentType" : 5126,
      "count" : 16,
      "type" : "VEC2"
    },
    {
      "bufferView" : 7,
      "componentType" : 5126,
      "count" : 16,
      "type" : "VEC2"
    },
    {
      "bufferView" : 8,
      "componentType" : 5123,
      "count" : 7866,
      "type" : "SCALAR"
    },
    {
      "bufferView" : 9,
      "min" : [ -22.4503, -0.153505, 59.615 ],
      "max" : [ 22.4503, 8.72991, 72.1713 ],
      "componentType" : 5126,
      "count" : 4884,
      "type" : "VEC3"
    },
    {
      "bufferView" : 10,
      "componentType" : 5126,
      "count" : 4884,
      "type" : "VEC3"
    },
    {
      "bufferView" : 11,
      "componentType" : 5126,
      "count" : 4884,
      "type" : "VEC4"
    },
    {
      "bufferView" : 12,
      "componentType" : 5126,
      "count" : 4884,
      "type" : "VEC2"
    },
    {
      "bufferView" : 13,
      "componentType" : 5126,
      "count" : 4884,
      "type" : "VEC2"
    },
    {
      "bufferView" : 14,
      "componentType" : 5126,
      "count" : 4884,
      "type" : "VEC2"
    },
    {
      "bufferView" : 15,
      "componentType" : 5126,
      "count" : 4884,
      "type" : "VEC2"
    },
    {
      "bufferView" : 16,
      "componentType" : 5123,
      "count" : 3864,
      "type" : "SCALAR"
    },
    {
      "bufferView" : 17,
      "min" : [ -22.4503, -0.0166668, 60.4601 ],
      "max" : [ 22.4503, 7.49463, 71.312 ],
      "componentType" : 5126,
      "count" : 2152,
      "type" : "VEC3"
    },
    {
      "bufferView" : 18,
      "componentType" : 5126,
      "count" : 2152,
      "type" : "VEC3"
    },
    {
      "bufferView" : 19,
      "componentType" : 5126,
      "count" : 2152,
      "type" : "VEC4"
    },
    {
      "bufferView" : 20,
      "componentType" : 5126,
      "count" : 2152,
      "type" : "VEC2"
    },
    {
      "bufferView" : 21,
      "componentType" : 5126,
      "count" : 2152,
      "type" : "VEC2"
    },
    {
      "bufferView" : 22,
      "componentType" : 5126,
      "count" : 2152,
      "type" : "VEC2"
    },
    {
      "bufferView" : 23,
      "componentType" : 5126,
      "count" : 2152,
      "type" : "VEC2"
    },
    {
      "bufferView" : 24,
      "componentType" : 5123,
      "count" : 405,
      "type" : "SCALAR"
    },
    {
      "bufferView" : 25,
      "min" : [ -10.7491, -0.287795, 60.4786 ],
      "max" : [ 10.7491, 1.6, 71.3077 ],
      "componentType" : 5126,
      "count" : 201,
      "type" : "VEC3"
    },
    {
      "bufferView" : 26,
      "componentType" : 5126,
      "count" : 201,
      "type" : "VEC3"
    },
    {
      "bufferView" : 27,
      "componentType" : 5126,
      "count" : 201,
      "type" : "VEC4"
    },
    {
      "bufferView" : 28,
      "componentType" : 5126,
      "count" : 201,
      "type" : "VEC2"
    },
    {
      "bufferView" : 29,
      "componentType" : 5126,
      "count" : 201,
      "type" : "VEC2"
    },
    {
      "bufferView" : 30,
      "componentType" : 5126,
      "count" : 201,
      "type" : "VEC2"
    },
    {
      "bufferView" : 31,
      "componentType" : 5126,
      "count" : 201,
      "type" : "VEC2"
    },
    {
      "bufferView" : 32,
      "componentType" : 5123,
      "count" : 1542,
      "type" : "SCALAR"
    },
    {
      "bufferView" : 33,
      "min" : [ -22.4061, 1.582, 59.615 ],
      "max" : [ 22.4061, 9.24991, 72.1713 ],
      "componentType" : 5126,
      "count" : 879,
      "type" : "VEC3"
    },
    {
      "bufferView" : 34,
      "componentType" : 5126,
      "count" : 879,
      "type" : "VEC3"
    },
    {
      "bufferView" : 35,
      "componentType" : 5126,
      "count" : 879,
      "type" : "VEC4"
    },
    {
      "bufferView" : 36,
      "componentType" : 5126,
      "count" : 879,
      "type" : "VEC2"
    },
    {
      "bufferView" : 37,
      "componentType" : 5126,
      "count" : 879,
      "type" : "VEC2"
    },
    {
      "bufferView" : 38,
      "componentType" : 5126,
      "count" : 879,
      "type" : "VEC2"
    },
    {
      "bufferView" : 39,
      "componentType" : 5126,
      "count" : 879,
      "type" : "VEC2"
    },
    {
      "bufferView" : 40,
      "componentType" : 5123,
      "count" : 828,
      "type" : "SCALAR"
    },
    {
      "bufferView" : 41,
      "min" : [ -13.7539, 0.121332, 59.615 ],
      "max" : [ 13.7539, 5.6, 72.1713 ],
      "componentType" : 5126,
      "count" : 516,
      "type" : "VEC3"
    },
    {
      "bufferView" : 42,
      "componentType" : 5126,
      "count" : 516,
      "type" : "VEC3"
    },
    {
      "bufferView" : 43,
      "componentType" : 5126,
      "count" : 516,
      "type" : "VEC4"
    },
    {
      "bufferView" : 44,
      "componentType" : 5126,
      "count" : 516,
      "type" : "VEC2"
    },
    {
      "bufferView" : 45,
      "componentType" : 5126,
      "count" : 516,
      "type" : "VEC2"
    },
    {
      "bufferView" : 46,
      "componentType" : 5126,
      "count" : 516,
      "type" : "VEC2"
    },
    {
      "bufferView" : 47,
      "componentType" : 5126,
      "count" : 516,
      "type" : "VEC2"
    },
    {
      "bufferView" : 48,
      "componentType" : 5123,
      "count" : 369,
      "type" : "SCALAR"
    },
    {
      "bufferView" : 49,
      "min" : [ -22.4503, -0.316669, 60.4011 ],
      "max" : [ 22.4503, 0.300002, 71.3146 ],
      "componentType" : 5126,
      "count" : 167,
      "type" : "VEC3"
    },
    {
      "bufferView" : 50,
      "componentType" : 5126,
      "count" : 167,
      "type" : "VEC3"
    },
    {
      "bufferView" : 51,
      "componentType" : 5126,
      "count" : 167,
      "type" : "VEC4"
    },
    {
      "bufferView" : 52,
      "componentType" : 5126,
      "count" : 167,
      "type" : "VEC2"
    },
    {
      "bufferView" : 53,
      "componentType" : 5126,
      "count" : 167,
      "type" : "VEC2"
    },
    {
      "bufferView" : 54,
      "componentType" : 5126,
      "count" : 167,
      "type" : "VEC2"
    },
    {
      "bufferView" : 55,
      "componentType" : 5126,
      "count" : 167,
      "type" : "VEC2"
    },
    {
      "bufferView" : 56,
      "componentType" : 5123,
      "count" : 54,
      "type" : "SCALAR"
    },
    {
      "bufferView" : 57,
      "min" : [ -22.4503, 5.97742, 61.0007 ],
      "max" : [ 22.4503, 7.344, 70.8252 ],
      "componentType" : 5126,
      "count" : 24,
      "type" : "VEC3"
    },
    {
      "bufferView" : 58,
      "componentType" : 5126,
      "count" : 24,
      "type" : "VEC3"
    },
    {
      "bufferView" : 59,
      "componentType" : 5126,
      "count" : 24,
      "type" : "VEC4"
    },
    {
      "bufferView" : 60,
      "componentType" : 5126,
      "count" : 24,
      "type" : "VEC2"
    },
    {
      "bufferView" : 61,
      "componentType" : 5126,
      "count" : 24,
      "type" : "VEC2"
    },
    {
      "bufferView" : 62,
      "componentType" : 5126,
      "count" : 24,
      "type" : "VEC2"
    },
    {
      "bufferView" : 63,
      "componentType" : 5126,
      "count" : 24,
      "type" : "VEC2"
    }
  ]
}
