{
  "asset" : {
    "generator" : "UE Viewer (umodel) build 1544 based",
    "version" : "2.0"
  },
  "scene" : 0,
  "scenes" : [
    {
      "nodes" : [ 0 ]
    }
  ],
  "nodes" : [
    {
      "name" : "SM_ENV_LKNVLD_RockMiddle_B_Lod1",
      "mesh" : 0
    }
  ],
  "materials" : [
    {
      "name" : "MI_ENV_LKNVLD_MiddleRock_A",
      "pbrMetallicRoughness" : {
        "baseColorFactor" : [ 0.3, 0.3, 0.3, 1.0 ],
        "metallicFactor" : 0.1,
        "roughnessFactor" : 0.5
      }
    }
  ],
  "meshes" : [
    {
      "primitives" : [
        {
          "attributes" : {
            "POSITION" : 1,
            "NORMAL" : 2,
            "TANGENT" : 3,
            "COLOR_0" : 4,
            "TEXCOORD_0" : 5,
            "TEXCOORD_1" : 6,
            "TEXCOORD_2" : 7,
            "TEXCOORD_3" : 8
          },
          "indices" : 0,
          "material" : 0
        }
      ],
      "name" : "SM_ENV_LKNVLD_RockMiddle_B_Lod1"
    }
  ],
  "buffers" : [
    {
      "uri" : "SM_ENV_LKNVLD_RockMiddle_B_Lod1.bin",
      "byteLength" : 38388
    }
  ],
  "bufferViews" : [
    {
      "buffer" : 0,
      "byteOffset" : 0,
      "byteLength" : 3504
    },
    {
      "buffer" : 0,
      "byteOffset" : 3504,
      "byteLength" : 5508
    },
    {
      "buffer" : 0,
      "byteOffset" : 9012,
      "byteLength" : 5508
    },
    {
      "buffer" : 0,
      "byteOffset" : 14520,
      "byteLength" : 7344
    },
    {
      "buffer" : 0,
      "byteOffset" : 21864,
      "byteLength" : 1836
    },
    {
      "buffer" : 0,
      "byteOffset" : 23700,
      "byteLength" : 3672
    },
    {
      "buffer" : 0,
      "byteOffset" : 27372,
      "byteLength" : 3672
    },
    {
      "buffer" : 0,
      "byteOffset" : 31044,
      "byteLength" : 3672
    },
    {
      "buffer" : 0,
      "byteOffset" : 34716,
      "byteLength" : 3672
    }
  ],
  "accessors" : [
    {
      "bufferView" : 0,
      "componentType" : 5123,
      "count" : 1752,
      "type" : "SCALAR"
    },
    {
      "bufferView" : 1,
      "min" : [ -35.7565, -0.311827, -28.0823 ],
      "max" : [ -29.4924, 1.04822, -23.9576 ],
      "componentType" : 5126,
      "count" : 459,
      "type" : "VEC3"
    },
    {
      "bufferView" : 2,
      "componentType" : 5126,
      "count" : 459,
      "type" : "VEC3"
    },
    {
      "bufferView" : 3,
      "componentType" : 5126,
      "count" : 459,
      "type" : "VEC4"
    },
    {
      "bufferView" : 4,
      "normalized" : true,
      "componentType" : 5121,
      "count" : 459,
      "type" : "VEC4"
    },
    {
      "bufferView" : 5,
      "componentType" : 5126,
      "count" : 459,
      "type" : "VEC2"
    },
    {
      "bufferView" : 6,
      "componentType" : 5126,
      "count" : 459,
      "type" : "VEC2"
    },
    {
      "bufferView" : 7,
      "componentType" : 5126,
      "count" : 459,
      "type" : "VEC2"
    },
    {
      "bufferView" : 8,
      "componentType" : 5126,
      "count" : 459,
      "type" : "VEC2"
    }
  ]
}
