{
  "asset" : {
    "generator" : "UE Viewer (umodel) build 1544 based",
    "version" : "2.0"
  },
  "scene" : 0,
  "scenes" : [
    {
      "nodes" : [ 0 ]
    }
  ],
  "nodes" : [
    {
      "name" : "SM_ENV_LKNVLD_TreeSet_M_Lod2",
      "mesh" : 0
    }
  ],
  "materials" : [
    {
      "name" : "MI_ENV_LKNVLD_LeafMasked_A",
      "pbrMetallicRoughness" : {
        "baseColorFactor" : [ 0.3, 0.3, 0.3, 1.0 ],
        "metallicFactor" : 0.1,
        "roughnessFactor" : 0.5
      }
    },
    {
      "name" : "MI_ENV_LKNVLD_Leaf_A",
      "pbrMetallicRoughness" : {
        "baseColorFactor" : [ 0.9, 0.3, 0.3, 1.0 ],
        "metallicFactor" : 0.1,
        "roughnessFactor" : 0.5
      }
    },
    {
      "name" : "MI_ENV_LKNVLD_Tree_A",
      "pbrMetallicRoughness" : {
        "baseColorFactor" : [ 0.3, 0.9, 0.3, 1.0 ],
        "metallicFactor" : 0.1,
        "roughnessFactor" : 0.5
      }
    }
  ],
  "meshes" : [
    {
      "primitives" : [
        {
          "attributes" : {
            "POSITION" : 1,
            "NORMAL" : 2,
            "TANGENT" : 3,
            "COLOR_0" : 4,
            "TEXCOORD_0" : 5,
            "TEXCOORD_1" : 6,
            "TEXCOORD_2" : 7,
            "TEXCOORD_3" : 8
          },
          "indices" : 0,
          "material" : 0
        },
        {
          "attributes" : {
            "POSITION" : 10,
            "NORMAL" : 11,
            "TANGENT" : 12,
            "COLOR_0" : 13,
            "TEXCOORD_0" : 14,
            "TEXCOORD_1" : 15,
            "TEXCOORD_2" : 16,
            "TEXCOORD_3" : 17
          },
          "indices" : 9,
          "material" : 1
        },
        {
          "attributes" : {
            "POSITION" : 19,
            "NORMAL" : 20,
            "TANGENT" : 21,
            "COLOR_0" : 22,
            "TEXCOORD_0" : 23,
            "TEXCOORD_1" : 24,
            "TEXCOORD_2" : 25,
            "TEXCOORD_3" : 26
          },
          "indices" : 18,
          "material" : 2
        }
      ],
      "name" : "SM_ENV_LKNVLD_TreeSet_M_Lod2"
    }
  ],
  "buffers" : [
    {
      "uri" : "SM_ENV_LKNVLD_TreeSet_M_Lod2.bin",
      "byteLength" : 1442260
    }
  ],
  "bufferViews" : [
    {
      "buffer" : 0,
      "byteOffset" : 0,
      "byteLength" : 48992
    },
    {
      "buffer" : 0,
      "byteOffset" : 48992,
      "byteLength" : 174660
    },
    {
      "buffer" : 0,
      "byteOffset" : 223652,
      "byteLength" : 174660
    },
    {
      "buffer" : 0,
      "byteOffset" : 398312,
      "byteLength" : 232880
    },
    {
      "buffer" : 0,
      "byteOffset" : 631192,
      "byteLength" : 58220
    },
    {
      "buffer" : 0,
      "byteOffset" : 689412,
      "byteLength" : 116440
    },
    {
      "buffer" : 0,
      "byteOffset" : 805852,
      "byteLength" : 116440
    },
    {
      "buffer" : 0,
      "byteOffset" : 922292,
      "byteLength" : 116440
    },
    {
      "buffer" : 0,
      "byteOffset" : 1038732,
      "byteLength" : 116440
    },
    {
      "buffer" : 0,
      "byteOffset" : 1155172,
      "byteLength" : 10628
    },
    {
      "buffer" : 0,
      "byteOffset" : 1165800,
      "byteLength" : 26604
    },
    {
      "buffer" : 0,
      "byteOffset" : 1192404,
      "byteLength" : 26604
    },
    {
      "buffer" : 0,
      "byteOffset" : 1219008,
      "byteLength" : 35472
    },
    {
      "buffer" : 0,
      "byteOffset" : 1254480,
      "byteLength" : 8868
    },
    {
      "buffer" : 0,
      "byteOffset" : 1263348,
      "byteLength" : 17736
    },
    {
      "buffer" : 0,
      "byteOffset" : 1281084,
      "byteLength" : 17736
    },
    {
      "buffer" : 0,
      "byteOffset" : 1298820,
      "byteLength" : 17736
    },
    {
      "buffer" : 0,
      "byteOffset" : 1316556,
      "byteLength" : 17736
    },
    {
      "buffer" : 0,
      "byteOffset" : 1334292,
      "byteLength" : 3620
    },
    {
      "buffer" : 0,
      "byteOffset" : 1337912,
      "byteLength" : 16476
    },
    {
      "buffer" : 0,
      "byteOffset" : 1354388,
      "byteLength" : 16476
    },
    {
      "buffer" : 0,
      "byteOffset" : 1370864,
      "byteLength" : 21968
    },
    {
      "buffer" : 0,
      "byteOffset" : 1392832,
      "byteLength" : 5492
    },
    {
      "buffer" : 0,
      "byteOffset" : 1398324,
      "byteLength" : 10984
    },
    {
      "buffer" : 0,
      "byteOffset" : 1409308,
      "byteLength" : 10984
    },
    {
      "buffer" : 0,
      "byteOffset" : 1420292,
      "byteLength" : 10984
    },
    {
      "buffer" : 0,
      "byteOffset" : 1431276,
      "byteLength" : 10984
    }
  ],
  "accessors" : [
    {
      "bufferView" : 0,
      "componentType" : 5123,
      "count" : 24495,
      "type" : "SCALAR"
    },
    {
      "bufferView" : 1,
      "min" : [ 48.9262, 5.46275, -86.0275 ],
      "max" : [ 79.5176, 16.826, -62.348 ],
      "componentType" : 5126,
      "count" : 14555,
      "type" : "VEC3"
    },
    {
      "bufferView" : 2,
      "componentType" : 5126,
      "count" : 14555,
      "type" : "VEC3"
    },
    {
      "bufferView" : 3,
      "componentType" : 5126,
      "count" : 14555,
      "type" : "VEC4"
    },
    {
      "bufferView" : 4,
      "normalized" : true,
      "componentType" : 5121,
      "count" : 14555,
      "type" : "VEC4"
    },
    {
      "bufferView" : 5,
      "componentType" : 5126,
      "count" : 14555,
      "type" : "VEC2"
    },
    {
      "bufferView" : 6,
      "componentType" : 5126,
      "count" : 14555,
      "type" : "VEC2"
    },
    {
      "bufferView" : 7,
      "componentType" : 5126,
      "count" : 14555,
      "type" : "VEC2"
    },
    {
      "bufferView" : 8,
      "componentType" : 5126,
      "count" : 14555,
      "type" : "VEC2"
    },
    {
      "bufferView" : 9,
      "componentType" : 5123,
      "count" : 5313,
      "type" : "SCALAR"
    },
    {
      "bufferView" : 10,
      "min" : [ 49.1798, 5.64324, -85.8446 ],
      "max" : [ 79.2451, 16.6157, -62.6201 ],
      "componentType" : 5126,
      "count" : 2217,
      "type" : "VEC3"
    },
    {
      "bufferView" : 11,
      "componentType" : 5126,
      "count" : 2217,
      "type" : "VEC3"
    },
    {
      "bufferView" : 12,
      "componentType" : 5126,
      "count" : 2217,
      "type" : "VEC4"
    },
    {
      "bufferView" : 13,
      "normalized" : true,
      "componentType" : 5121,
      "count" : 2217,
      "type" : "VEC4"
    },
    {
      "bufferView" : 14,
      "componentType" : 5126,
      "count" : 2217,
      "type" : "VEC2"
    },
    {
      "bufferView" : 15,
      "componentType" : 5126,
      "count" : 2217,
      "type" : "VEC2"
    },
    {
      "bufferView" : 16,
      "componentType" : 5126,
      "count" : 2217,
      "type" : "VEC2"
    },
    {
      "bufferView" : 17,
      "componentType" : 5126,
      "count" : 2217,
      "type" : "VEC2"
    },
    {
      "bufferView" : 18,
      "componentType" : 5123,
      "count" : 1809,
      "type" : "SCALAR"
    },
    {
      "bufferView" : 19,
      "min" : [ 52.0319, -1.56473, -83.4487 ],
      "max" : [ 77.1259, 13.4527, -64.604 ],
      "componentType" : 5126,
      "count" : 1373,
      "type" : "VEC3"
    },
    {
      "bufferView" : 20,
      "componentType" : 5126,
      "count" : 1373,
      "type" : "VEC3"
    },
    {
      "bufferView" : 21,
      "componentType" : 5126,
      "count" : 1373,
      "type" : "VEC4"
    },
    {
      "bufferView" : 22,
      "normalized" : true,
      "componentType" : 5121,
      "count" : 1373,
      "type" : "VEC4"
    },
    {
      "bufferView" : 23,
      "componentType" : 5126,
      "count" : 1373,
      "type" : "VEC2"
    },
    {
      "bufferView" : 24,
      "componentType" : 5126,
      "count" : 1373,
      "type" : "VEC2"
    },
    {
      "bufferView" : 25,
      "componentType" : 5126,
      "count" : 1373,
      "type" : "VEC2"
    },
    {
      "bufferView" : 26,
      "componentType" : 5126,
      "count" : 1373,
      "type" : "VEC2"
    }
  ]
}
