{
  "asset" : {
    "generator" : "UE Viewer (umodel) build 1544 based",
    "version" : "2.0"
  },
  "scene" : 0,
  "scenes" : [
    {
      "nodes" : [ 0 ]
    }
  ],
  "nodes" : [
    {
      "name" : "SM_ENV_LKNVLD_StrawRope_F_Lod3",
      "mesh" : 0
    }
  ],
  "materials" : [
    {
      "name" : "MI_ENV_LKNVLD_StrawRope_F",
      "pbrMetallicRoughness" : {
        "baseColorFactor" : [ 0.3, 0.3, 0.3, 1.0 ],
        "metallicFactor" : 0.1,
        "roughnessFactor" : 0.5
      }
    }
  ],
  "meshes" : [
    {
      "primitives" : [
        {
          "attributes" : {
            "POSITION" : 1,
            "NORMAL" : 2,
            "TANGENT" : 3,
            "TEXCOORD_0" : 4,
            "TEXCOORD_1" : 5,
            "TEXCOORD_2" : 6,
            "TEXCOORD_3" : 7
          },
          "indices" : 0,
          "material" : 0
        }
      ],
      "name" : "SM_ENV_LKNVLD_StrawRope_F_Lod3"
    }
  ],
  "buffers" : [
    {
      "uri" : "SM_ENV_LKNVLD_StrawRope_F_Lod3.bin",
      "byteLength" : 71808
    }
  ],
  "bufferViews" : [
    {
      "buffer" : 0,
      "byteOffset" : 0,
      "byteLength" : 4056
    },
    {
      "buffer" : 0,
      "byteOffset" : 4056,
      "byteLength" : 11292
    },
    {
      "buffer" : 0,
      "byteOffset" : 15348,
      "byteLength" : 11292
    },
    {
      "buffer" : 0,
      "byteOffset" : 26640,
      "byteLength" : 15056
    },
    {
      "buffer" : 0,
      "byteOffset" : 41696,
      "byteLength" : 7528
    },
    {
      "buffer" : 0,
      "byteOffset" : 49224,
      "byteLength" : 7528
    },
    {
      "buffer" : 0,
      "byteOffset" : 56752,
      "byteLength" : 7528
    },
    {
      "buffer" : 0,
      "byteOffset" : 64280,
      "byteLength" : 7528
    }
  ],
  "accessors" : [
    {
      "bufferView" : 0,
      "componentType" : 5123,
      "count" : 2028,
      "type" : "SCALAR"
    },
    {
      "bufferView" : 1,
      "min" : [ -4.6044, -2.28963, -0.247761 ],
      "max" : [ 4.58728, 2.15505, 0.336727 ],
      "componentType" : 5126,
      "count" : 941,
      "type" : "VEC3"
    },
    {
      "bufferView" : 2,
      "componentType" : 5126,
      "count" : 941,
      "type" : "VEC3"
    },
    {
      "bufferView" : 3,
      "componentType" : 5126,
      "count" : 941,
      "type" : "VEC4"
    },
    {
      "bufferView" : 4,
      "componentType" : 5126,
      "count" : 941,
      "type" : "VEC2"
    },
    {
      "bufferView" : 5,
      "componentType" : 5126,
      "count" : 941,
      "type" : "VEC2"
    },
    {
      "bufferView" : 6,
      "componentType" : 5126,
      "count" : 941,
      "type" : "VEC2"
    },
    {
      "bufferView" : 7,
      "componentType" : 5126,
      "count" : 941,
      "type" : "VEC2"
    }
  ]
}
