{
  "asset" : {
    "generator" : "UE Viewer (umodel) build 1544 based",
    "version" : "2.0"
  },
  "scene" : 0,
  "scenes" : [
    {
      "nodes" : [ 0 ]
    }
  ],
  "nodes" : [
    {
      "name" : "SM_ENV_LKNVLD_Building_C_Lod1",
      "mesh" : 0
    }
  ],
  "materials" : [
    {
      "name" : "MI_ENV_LKNVLD_RoofTiles",
      "pbrMetallicRoughness" : {
        "baseColorFactor" : [ 0.3, 0.3, 0.3, 1.0 ],
        "metallicFactor" : 0.1,
        "roughnessFactor" : 0.5
      }
    },
    {
      "name" : "MI_ENV_LKNVLD_Roof_C",
      "pbrMetallicRoughness" : {
        "baseColorFactor" : [ 0.9, 0.3, 0.3, 1.0 ],
        "metallicFactor" : 0.1,
        "roughnessFactor" : 0.5
      }
    },
    {
      "name" : "MI_ENV_LKNVLD_Lantern_B",
      "pbrMetallicRoughness" : {
        "baseColorFactor" : [ 0.3, 0.9, 0.3, 1.0 ],
        "metallicFactor" : 0.1,
        "roughnessFactor" : 0.5
      }
    },
    {
      "name" : "MI_ENV_LKNVLD_WoodPillar_A",
      "pbrMetallicRoughness" : {
        "baseColorFactor" : [ 0.3, 0.3, 0.9, 1.0 ],
        "metallicFactor" : 0.1,
        "roughnessFactor" : 0.5
      }
    },
    {
      "name" : "MI_ENV_LKNVLD_WoodPillar_D",
      "pbrMetallicRoughness" : {
        "baseColorFactor" : [ 0.9, 0.9, 0.9, 1.0 ],
        "metallicFactor" : 0.1,
        "roughnessFactor" : 0.5
      }
    },
    {
      "name" : "MI_ENV_LKNVLD_Pipe_D",
      "pbrMetallicRoughness" : {
        "baseColorFactor" : [ 0.9, 0.9, 0.3, 1.0 ],
        "metallicFactor" : 0.1,
        "roughnessFactor" : 0.5
      }
    },
    {
      "name" : "MI_ENV_LKNVLD_ConcreteFloor_C",
      "pbrMetallicRoughness" : {
        "baseColorFactor" : [ 0.9, 0.3, 0.9, 1.0 ],
        "metallicFactor" : 0.1,
        "roughnessFactor" : 0.5
      }
    },
    {
      "name" : "MI_T_ENV_LKNVLD_StoneTrim",
      "pbrMetallicRoughness" : {
        "baseColorFactor" : [ 0.3, 0.9, 0.9, 1.0 ],
        "metallicFactor" : 0.1,
        "roughnessFactor" : 0.5
      }
    },
    {
      "name" : "MI_ENV_LKNVLD_RoughTiles",
      "pbrMetallicRoughness" : {
        "baseColorFactor" : [ 1, 0.3, 0.3, 1.0 ],
        "metallicFactor" : 0.1,
        "roughnessFactor" : 0.5
      }
    },
    {
      "name" : "MI_T_ENV_LKNVLD_StoneStairs",
      "pbrMetallicRoughness" : {
        "baseColorFactor" : [ 0.6, 0.3, 0.3, 1.0 ],
        "metallicFactor" : 0.1,
        "roughnessFactor" : 0.5
      }
    },
    {
      "name" : "MI_ENV_LKNVLD_Woodwall_A",
      "pbrMetallicRoughness" : {
        "baseColorFactor" : [ 1, 0.9, 0.3, 1.0 ],
        "metallicFactor" : 0.1,
        "roughnessFactor" : 0.5
      }
    },
    {
      "name" : "MI_ENV_LKNVLD_ConcreteWall_K",
      "pbrMetallicRoughness" : {
        "baseColorFactor" : [ 1, 0.3, 0.9, 1.0 ],
        "metallicFactor" : 0.1,
        "roughnessFactor" : 0.5
      }
    },
    {
      "name" : "MI_ENV_LKNVLD_ClanSignboard_K",
      "pbrMetallicRoughness" : {
        "baseColorFactor" : [ 0.6, 0.9, 0.9, 1.0 ],
        "metallicFactor" : 0.1,
        "roughnessFactor" : 0.5
      }
    },
    {
      "name" : "MI_ENV_LKNVLD_WoodPillar_B",
      "pbrMetallicRoughness" : {
        "baseColorFactor" : [ 0.6, 0.9, 0.3, 1.0 ],
        "metallicFactor" : 0.1,
        "roughnessFactor" : 0.5
      }
    },
    {
      "name" : "MI_ENV_LKNVLD_Door_C",
      "pbrMetallicRoughness" : {
        "baseColorFactor" : [ 0.6, 0.3, 0.9, 1.0 ],
        "metallicFactor" : 0.1,
        "roughnessFactor" : 0.5
      }
    },
    {
      "name" : "MI_ENV_LKNVLD_WoodWindows_E",
      "pbrMetallicRoughness" : {
        "baseColorFactor" : [ 1, 0.9, 0.9, 1.0 ],
        "metallicFactor" : 0.1,
        "roughnessFactor" : 0.5
      }
    },
    {
      "name" : "MI_ENV_LKNVLD_WoodWindows_F",
      "pbrMetallicRoughness" : {
        "baseColorFactor" : [ 0.3, 1, 0.3, 1.0 ],
        "metallicFactor" : 0.1,
        "roughnessFactor" : 0.5
      }
    }
  ],
  "meshes" : [
    {
      "primitives" : [
        {
          "attributes" : {
            "POSITION" : 1,
            "NORMAL" : 2,
            "TANGENT" : 3,
            "TEXCOORD_0" : 4,
            "TEXCOORD_1" : 5,
            "TEXCOORD_2" : 6,
            "TEXCOORD_3" : 7
          },
          "indices" : 0,
          "material" : 0
        },
        {
          "attributes" : {
            "POSITION" : 9,
            "NORMAL" : 10,
            "TANGENT" : 11,
            "TEXCOORD_0" : 12,
            "TEXCOORD_1" : 13,
            "TEXCOORD_2" : 14,
            "TEXCOORD_3" : 15
          },
          "indices" : 8,
          "material" : 1
        },
        {
          "attributes" : {
            "POSITION" : 17,
            "NORMAL" : 18,
            "TANGENT" : 19,
            "TEXCOORD_0" : 20,
            "TEXCOORD_1" : 21,
            "TEXCOORD_2" : 22,
            "TEXCOORD_3" : 23
          },
          "indices" : 16,
          "material" : 2
        },
        {
          "attributes" : {
            "POSITION" : 25,
            "NORMAL" : 26,
            "TANGENT" : 27,
            "TEXCOORD_0" : 28,
            "TEXCOORD_1" : 29,
            "TEXCOORD_2" : 30,
            "TEXCOORD_3" : 31
          },
          "indices" : 24,
          "material" : 3
        },
        {
          "attributes" : {
            "POSITION" : 33,
            "NORMAL" : 34,
            "TANGENT" : 35,
            "TEXCOORD_0" : 36,
            "TEXCOORD_1" : 37,
            "TEXCOORD_2" : 38,
            "TEXCOORD_3" : 39
          },
          "indices" : 32,
          "material" : 4
        },
        {
          "attributes" : {
            "POSITION" : 41,
            "NORMAL" : 42,
            "TANGENT" : 43,
            "TEXCOORD_0" : 44,
            "TEXCOORD_1" : 45,
            "TEXCOORD_2" : 46,
            "TEXCOORD_3" : 47
          },
          "indices" : 40,
          "material" : 5
        },
        {
          "attributes" : {
            "POSITION" : 49,
            "NORMAL" : 50,
            "TANGENT" : 51,
            "TEXCOORD_0" : 52,
            "TEXCOORD_1" : 53,
            "TEXCOORD_2" : 54,
            "TEXCOORD_3" : 55
          },
          "indices" : 48,
          "material" : 6
        },
        {
          "attributes" : {
            "POSITION" : 57,
            "NORMAL" : 58,
            "TANGENT" : 59,
            "TEXCOORD_0" : 60,
            "TEXCOORD_1" : 61,
            "TEXCOORD_2" : 62,
            "TEXCOORD_3" : 63
          },
          "indices" : 56,
          "material" : 7
        },
        {
          "attributes" : {
            "POSITION" : 65,
            "NORMAL" : 66,
            "TANGENT" : 67,
            "TEXCOORD_0" : 68,
            "TEXCOORD_1" : 69,
            "TEXCOORD_2" : 70,
            "TEXCOORD_3" : 71
          },
          "indices" : 64,
          "material" : 8
        },
        {
          "attributes" : {
            "POSITION" : 73,
            "NORMAL" : 74,
            "TANGENT" : 75,
            "TEXCOORD_0" : 76,
            "TEXCOORD_1" : 77,
            "TEXCOORD_2" : 78,
            "TEXCOORD_3" : 79
          },
          "indices" : 72,
          "material" : 9
        },
        {
          "attributes" : {
            "POSITION" : 81,
            "NORMAL" : 82,
            "TANGENT" : 83,
            "TEXCOORD_0" : 84,
            "TEXCOORD_1" : 85,
            "TEXCOORD_2" : 86,
            "TEXCOORD_3" : 87
          },
          "indices" : 80,
          "material" : 10
        },
        {
          "attributes" : {
            "POSITION" : 89,
            "NORMAL" : 90,
            "TANGENT" : 91,
            "TEXCOORD_0" : 92,
            "TEXCOORD_1" : 93,
            "TEXCOORD_2" : 94,
            "TEXCOORD_3" : 95
          },
          "indices" : 88,
          "material" : 11
        },
        {
          "attributes" : {
            "POSITION" : 97,
            "NORMAL" : 98,
            "TANGENT" : 99,
            "TEXCOORD_0" : 100,
            "TEXCOORD_1" : 101,
            "TEXCOORD_2" : 102,
            "TEXCOORD_3" : 103
          },
          "indices" : 96,
          "material" : 12
        },
        {
          "attributes" : {
            "POSITION" : 105,
            "NORMAL" : 106,
            "TANGENT" : 107,
            "TEXCOORD_0" : 108,
            "TEXCOORD_1" : 109,
            "TEXCOORD_2" : 110,
            "TEXCOORD_3" : 111
          },
          "indices" : 104,
          "material" : 13
        },
        {
          "attributes" : {
            "POSITION" : 113,
            "NORMAL" : 114,
            "TANGENT" : 115,
            "TEXCOORD_0" : 116,
            "TEXCOORD_1" : 117,
            "TEXCOORD_2" : 118,
            "TEXCOORD_3" : 119
          },
          "indices" : 112,
          "material" : 14
        },
        {
          "attributes" : {
            "POSITION" : 121,
            "NORMAL" : 122,
            "TANGENT" : 123,
            "TEXCOORD_0" : 124,
            "TEXCOORD_1" : 125,
            "TEXCOORD_2" : 126,
            "TEXCOORD_3" : 127
          },
          "indices" : 120,
          "material" : 15
        },
        {
          "attributes" : {
            "POSITION" : 129,
            "NORMAL" : 130,
            "TANGENT" : 131,
            "TEXCOORD_0" : 132,
            "TEXCOORD_1" : 133,
            "TEXCOORD_2" : 134,
            "TEXCOORD_3" : 135
          },
          "indices" : 128,
          "material" : 16
        }
      ],
      "name" : "SM_ENV_LKNVLD_Building_C_Lod1"
    }
  ],
  "buffers" : [
    {
      "uri" : "SM_ENV_LKNVLD_Building_C_Lod1.bin",
      "byteLength" : 1247344
    }
  ],
  "bufferViews" : [
    {
      "buffer" : 0,
      "byteOffset" : 0,
      "byteLength" : 43152
    },
    {
      "buffer" : 0,
      "byteOffset" : 43152,
      "byteLength" : 70920
    },
    {
      "buffer" : 0,
      "byteOffset" : 114072,
      "byteLength" : 70920
    },
    {
      "buffer" : 0,
      "byteOffset" : 184992,
      "byteLength" : 94560
    },
    {
      "buffer" : 0,
      "byteOffset" : 279552,
      "byteLength" : 47280
    },
    {
      "buffer" : 0,
      "byteOffset" : 326832,
      "byteLength" : 47280
    },
    {
      "buffer" : 0,
      "byteOffset" : 374112,
      "byteLength" : 47280
    },
    {
      "buffer" : 0,
      "byteOffset" : 421392,
      "byteLength" : 47280
    },
    {
      "buffer" : 0,
      "byteOffset" : 468672,
      "byteLength" : 396
    },
    {
      "buffer" : 0,
      "byteOffset" : 469068,
      "byteLength" : 1584
    },
    {
      "buffer" : 0,
      "byteOffset" : 470652,
      "byteLength" : 1584
    },
    {
      "buffer" : 0,
      "byteOffset" : 472236,
      "byteLength" : 2112
    },
    {
      "buffer" : 0,
      "byteOffset" : 474348,
      "byteLength" : 1056
    },
    {
      "buffer" : 0,
      "byteOffset" : 475404,
      "byteLength" : 1056
    },
    {
      "buffer" : 0,
      "byteOffset" : 476460,
      "byteLength" : 1056
    },
    {
      "buffer" : 0,
      "byteOffset" : 477516,
      "byteLength" : 1056
    },
    {
      "buffer" : 0,
      "byteOffset" : 478572,
      "byteLength" : 2916
    },
    {
      "buffer" : 0,
      "byteOffset" : 481488,
      "byteLength" : 7128
    },
    {
      "buffer" : 0,
      "byteOffset" : 488616,
      "byteLength" : 7128
    },
    {
      "buffer" : 0,
      "byteOffset" : 495744,
      "byteLength" : 9504
    },
    {
      "buffer" : 0,
      "byteOffset" : 505248,
      "byteLength" : 4752
    },
    {
      "buffer" : 0,
      "byteOffset" : 510000,
      "byteLength" : 4752
    },
    {
      "buffer" : 0,
      "byteOffset" : 514752,
      "byteLength" : 4752
    },
    {
      "buffer" : 0,
      "byteOffset" : 519504,
      "byteLength" : 4752
    },
    {
      "buffer" : 0,
      "byteOffset" : 524256,
      "byteLength" : 20712
    },
    {
      "buffer" : 0,
      "byteOffset" : 544968,
      "byteLength" : 80832
    },
    {
      "buffer" : 0,
      "byteOffset" : 625800,
      "byteLength" : 80832
    },
    {
      "buffer" : 0,
      "byteOffset" : 706632,
      "byteLength" : 107776
    },
    {
      "buffer" : 0,
      "byteOffset" : 814408,
      "byteLength" : 53888
    },
    {
      "buffer" : 0,
      "byteOffset" : 868296,
      "byteLength" : 53888
    },
    {
      "buffer" : 0,
      "byteOffset" : 922184,
      "byteLength" : 53888
    },
    {
      "buffer" : 0,
      "byteOffset" : 976072,
      "byteLength" : 53888
    },
    {
      "buffer" : 0,
      "byteOffset" : 1029960,
      "byteLength" : 3240
    },
    {
      "buffer" : 0,
      "byteOffset" : 1033200,
      "byteLength" : 7776
    },
    {
      "buffer" : 0,
      "byteOffset" : 1040976,
      "byteLength" : 7776
    },
    {
      "buffer" : 0,
      "byteOffset" : 1048752,
      "byteLength" : 10368
    },
    {
      "buffer" : 0,
      "byteOffset" : 1059120,
      "byteLength" : 5184
    },
    {
      "buffer" : 0,
      "byteOffset" : 1064304,
      "byteLength" : 5184
    },
    {
      "buffer" : 0,
      "byteOffset" : 1069488,
      "byteLength" : 5184
    },
    {
      "buffer" : 0,
      "byteOffset" : 1074672,
      "byteLength" : 5184
    },
    {
      "buffer" : 0,
      "byteOffset" : 1079856,
      "byteLength" : 8988
    },
    {
      "buffer" : 0,
      "byteOffset" : 1088844,
      "byteLength" : 14136
    },
    {
      "buffer" : 0,
      "byteOffset" : 1102980,
      "byteLength" : 14136
    },
    {
      "buffer" : 0,
      "byteOffset" : 1117116,
      "byteLength" : 18848
    },
    {
      "buffer" : 0,
      "byteOffset" : 1135964,
      "byteLength" : 9424
    },
    {
      "buffer" : 0,
      "byteOffset" : 1145388,
      "byteLength" : 9424
    },
    {
      "buffer" : 0,
      "byteOffset" : 1154812,
      "byteLength" : 9424
    },
    {
      "buffer" : 0,
      "byteOffset" : 1164236,
      "byteLength" : 9424
    },
    {
      "buffer" : 0,
      "byteOffset" : 1173660,
      "byteLength" : 120
    },
    {
      "buffer" : 0,
      "byteOffset" : 1173780,
      "byteLength" : 432
    },
    {
      "buffer" : 0,
      "byteOffset" : 1174212,
      "byteLength" : 432
    },
    {
      "buffer" : 0,
      "byteOffset" : 1174644,
      "byteLength" : 576
    },
    {
      "buffer" : 0,
      "byteOffset" : 1175220,
      "byteLength" : 288
    },
    {
      "buffer" : 0,
      "byteOffset" : 1175508,
      "byteLength" : 288
    },
    {
      "buffer" : 0,
      "byteOffset" : 1175796,
      "byteLength" : 288
    },
    {
      "buffer" : 0,
      "byteOffset" : 1176084,
      "byteLength" : 288
    },
    {
      "buffer" : 0,
      "byteOffset" : 1176372,
      "byteLength" : 116
    },
    {
      "buffer" : 0,
      "byteOffset" : 1176488,
      "byteLength" : 228
    },
    {
      "buffer" : 0,
      "byteOffset" : 1176716,
      "byteLength" : 228
    },
    {
      "buffer" : 0,
      "byteOffset" : 1176944,
      "byteLength" : 304
    },
    {
      "buffer" : 0,
      "byteOffset" : 1177248,
      "byteLength" : 152
    },
    {
      "buffer" : 0,
      "byteOffset" : 1177400,
      "byteLength" : 152
    },
    {
      "buffer" : 0,
      "byteOffset" : 1177552,
      "byteLength" : 152
    },
    {
      "buffer" : 0,
      "byteOffset" : 1177704,
      "byteLength" : 152
    },
    {
      "buffer" : 0,
      "byteOffset" : 1177856,
      "byteLength" : 776
    },
    {
      "buffer" : 0,
      "byteOffset" : 1178632,
      "byteLength" : 1848
    },
    {
      "buffer" : 0,
      "byteOffset" : 1180480,
      "byteLength" : 1848
    },
    {
      "buffer" : 0,
      "byteOffset" : 1182328,
      "byteLength" : 2464
    },
    {
      "buffer" : 0,
      "byteOffset" : 1184792,
      "byteLength" : 1232
    },
    {
      "buffer" : 0,
      "byteOffset" : 1186024,
      "byteLength" : 1232
    },
    {
      "buffer" : 0,
      "byteOffset" : 1187256,
      "byteLength" : 1232
    },
    {
      "buffer" : 0,
      "byteOffset" : 1188488,
      "byteLength" : 1232
    },
    {
      "buffer" : 0,
      "byteOffset" : 1189720,
      "byteLength" : 96
    },
    {
      "buffer" : 0,
      "byteOffset" : 1189816,
      "byteLength" : 288
    },
    {
      "buffer" : 0,
      "byteOffset" : 1190104,
      "byteLength" : 288
    },
    {
      "buffer" : 0,
      "byteOffset" : 1190392,
      "byteLength" : 384
    },
    {
      "buffer" : 0,
      "byteOffset" : 1190776,
      "byteLength" : 192
    },
    {
      "buffer" : 0,
      "byteOffset" : 1190968,
      "byteLength" : 192
    },
    {
      "buffer" : 0,
      "byteOffset" : 1191160,
      "byteLength" : 192
    },
    {
      "buffer" : 0,
      "byteOffset" : 1191352,
      "byteLength" : 192
    },
    {
      "buffer" : 0,
      "byteOffset" : 1191544,
      "byteLength" : 960
    },
    {
      "buffer" : 0,
      "byteOffset" : 1192504,
      "byteLength" : 2160
    },
    {
      "buffer" : 0,
      "byteOffset" : 1194664,
      "byteLength" : 2160
    },
    {
      "buffer" : 0,
      "byteOffset" : 1196824,
      "byteLength" : 2880
    },
    {
      "buffer" : 0,
      "byteOffset" : 1199704,
      "byteLength" : 1440
    },
    {
      "buffer" : 0,
      "byteOffset" : 1201144,
      "byteLength" : 1440
    },
    {
      "buffer" : 0,
      "byteOffset" : 1202584,
      "byteLength" : 1440
    },
    {
      "buffer" : 0,
      "byteOffset" : 1204024,
      "byteLength" : 1440
    },
    {
      "buffer" : 0,
      "byteOffset" : 1205464,
      "byteLength" : 2304
    },
    {
      "buffer" : 0,
      "byteOffset" : 1207768,
      "byteLength" : 3888
    },
    {
      "buffer" : 0,
      "byteOffset" : 1211656,
      "byteLength" : 3888
    },
    {
      "buffer" : 0,
      "byteOffset" : 1215544,
      "byteLength" : 5184
    },
    {
      "buffer" : 0,
      "byteOffset" : 1220728,
      "byteLength" : 2592
    },
    {
      "buffer" : 0,
      "byteOffset" : 1223320,
      "byteLength" : 2592
    },
    {
      "buffer" : 0,
      "byteOffset" : 1225912,
      "byteLength" : 2592
    },
    {
      "buffer" : 0,
      "byteOffset" : 1228504,
      "byteLength" : 2592
    },
    {
      "buffer" : 0,
      "byteOffset" : 1231096,
      "byteLength" : 96
    },
    {
      "buffer" : 0,
      "byteOffset" : 1231192,
      "byteLength" : 240
    },
    {
      "buffer" : 0,
      "byteOffset" : 1231432,
      "byteLength" : 240
    },
    {
      "buffer" : 0,
      "byteOffset" : 1231672,
      "byteLength" : 320
    },
    {
      "buffer" : 0,
      "byteOffset" : 1231992,
      "byteLength" : 160
    },
    {
      "buffer" : 0,
      "byteOffset" : 1232152,
      "byteLength" : 160
    },
    {
      "buffer" : 0,
      "byteOffset" : 1232312,
      "byteLength" : 160
    },
    {
      "buffer" : 0,
      "byteOffset" : 1232472,
      "byteLength" : 160
    },
    {
      "buffer" : 0,
      "byteOffset" : 1232632,
      "byteLength" : 240
    },
    {
      "buffer" : 0,
      "byteOffset" : 1232872,
      "byteLength" : 912
    },
    {
      "buffer" : 0,
      "byteOffset" : 1233784,
      "byteLength" : 912
    },
    {
      "buffer" : 0,
      "byteOffset" : 1234696,
      "byteLength" : 1216
    },
    {
      "buffer" : 0,
      "byteOffset" : 1235912,
      "byteLength" : 608
    },
    {
      "buffer" : 0,
      "byteOffset" : 1236520,
      "byteLength" : 608
    },
    {
      "buffer" : 0,
      "byteOffset" : 1237128,
      "byteLength" : 608
    },
    {
      "buffer" : 0,
      "byteOffset" : 1237736,
      "byteLength" : 608
    },
    {
      "buffer" : 0,
      "byteOffset" : 1238344,
      "byteLength" : 24
    },
    {
      "buffer" : 0,
      "byteOffset" : 1238368,
      "byteLength" : 96
    },
    {
      "buffer" : 0,
      "byteOffset" : 1238464,
      "byteLength" : 96
    },
    {
      "buffer" : 0,
      "byteOffset" : 1238560,
      "byteLength" : 128
    },
    {
      "buffer" : 0,
      "byteOffset" : 1238688,
      "byteLength" : 64
    },
    {
      "buffer" : 0,
      "byteOffset" : 1238752,
      "byteLength" : 64
    },
    {
      "buffer" : 0,
      "byteOffset" : 1238816,
      "byteLength" : 64
    },
    {
      "buffer" : 0,
      "byteOffset" : 1238880,
      "byteLength" : 64
    },
    {
      "buffer" : 0,
      "byteOffset" : 1238944,
      "byteLength" : 312
    },
    {
      "buffer" : 0,
      "byteOffset" : 1239256,
      "byteLength" : 1248
    },
    {
      "buffer" : 0,
      "byteOffset" : 1240504,
      "byteLength" : 1248
    },
    {
      "buffer" : 0,
      "byteOffset" : 1241752,
      "byteLength" : 1664
    },
    {
      "buffer" : 0,
      "byteOffset" : 1243416,
      "byteLength" : 832
    },
    {
      "buffer" : 0,
      "byteOffset" : 1244248,
      "byteLength" : 832
    },
    {
      "buffer" : 0,
      "byteOffset" : 1245080,
      "byteLength" : 832
    },
    {
      "buffer" : 0,
      "byteOffset" : 1245912,
      "byteLength" : 832
    },
    {
      "buffer" : 0,
      "byteOffset" : 1246744,
      "byteLength" : 24
    },
    {
      "buffer" : 0,
      "byteOffset" : 1246768,
      "byteLength" : 96
    },
    {
      "buffer" : 0,
      "byteOffset" : 1246864,
      "byteLength" : 96
    },
    {
      "buffer" : 0,
      "byteOffset" : 1246960,
      "byteLength" : 128
    },
    {
      "buffer" : 0,
      "byteOffset" : 1247088,
      "byteLength" : 64
    },
    {
      "buffer" : 0,
      "byteOffset" : 1247152,
      "byteLength" : 64
    },
    {
      "buffer" : 0,
      "byteOffset" : 1247216,
      "byteLength" : 64
    },
    {
      "buffer" : 0,
      "byteOffset" : 1247280,
      "byteLength" : 64
    }
  ],
  "accessors" : [
    {
      "bufferView" : 0,
      "componentType" : 5123,
      "count" : 21576,
      "type" : "SCALAR"
    },
    {
      "bufferView" : 1,
      "min" : [ -61.704, 6.01458, -70.6039 ],
      "max" : [ -37.3007, 20.0365, -52.4255 ],
      "componentType" : 5126,
      "count" : 5910,
      "type" : "VEC3"
    },
    {
      "bufferView" : 2,
      "componentType" : 5126,
      "count" : 5910,
      "type" : "VEC3"
    },
    {
      "bufferView" : 3,
      "componentType" : 5126,
      "count" : 5910,
      "type" : "VEC4"
    },
    {
      "bufferView" : 4,
      "componentType" : 5126,
      "count" : 5910,
      "type" : "VEC2"
    },
    {
      "bufferView" : 5,
      "componentType" : 5126,
      "count" : 5910,
      "type" : "VEC2"
    },
    {
      "bufferView" : 6,
      "componentType" : 5126,
      "count" : 5910,
      "type" : "VEC2"
    },
    {
      "bufferView" : 7,
      "componentType" : 5126,
      "count" : 5910,
      "type" : "VEC2"
    },
    {
      "bufferView" : 8,
      "componentType" : 5123,
      "count" : 198,
      "type" : "SCALAR"
    },
    {
      "bufferView" : 9,
      "min" : [ -61.3, 1.1, -70.3 ],
      "max" : [ -37.7, 15.4421, -52.71 ],
      "componentType" : 5126,
      "count" : 132,
      "type" : "VEC3"
    },
    {
      "bufferView" : 10,
      "componentType" : 5126,
      "count" : 132,
      "type" : "VEC3"
    },
    {
      "bufferView" : 11,
      "componentType" : 5126,
      "count" : 132,
      "type" : "VEC4"
    },
    {
      "bufferView" : 12,
      "componentType" : 5126,
      "count" : 132,
      "type" : "VEC2"
    },
    {
      "bufferView" : 13,
      "componentType" : 5126,
      "count" : 132,
      "type" : "VEC2"
    },
    {
      "bufferView" : 14,
      "componentType" : 5126,
      "count" : 132,
      "type" : "VEC2"
    },
    {
      "bufferView" : 15,
      "componentType" : 5126,
      "count" : 132,
      "type" : "VEC2"
    },
    {
      "bufferView" : 16,
      "componentType" : 5123,
      "count" : 1458,
      "type" : "SCALAR"
    },
    {
      "bufferView" : 17,
      "min" : [ -62.0555, 3.60195, -70.9725 ],
      "max" : [ -37.1519, 5.97973, -52.019 ],
      "componentType" : 5126,
      "count" : 594,
      "type" : "VEC3"
    },
    {
      "bufferView" : 18,
      "componentType" : 5126,
      "count" : 594,
      "type" : "VEC3"
    },
    {
      "bufferView" : 19,
      "componentType" : 5126,
      "count" : 594,
      "type" : "VEC4"
    },
    {
      "bufferView" : 20,
      "componentType" : 5126,
      "count" : 594,
      "type" : "VEC2"
    },
    {
      "bufferView" : 21,
      "componentType" : 5126,
      "count" : 594,
      "type" : "VEC2"
    },
    {
      "bufferView" : 22,
      "componentType" : 5126,
      "count" : 594,
      "type" : "VEC2"
    },
    {
      "bufferView" : 23,
      "componentType" : 5126,
      "count" : 594,
      "type" : "VEC2"
    },
    {
      "bufferView" : 24,
      "componentType" : 5123,
      "count" : 10356,
      "type" : "SCALAR"
    },
    {
      "bufferView" : 25,
      "min" : [ -61.3031, 0.8, -70.2919 ],
      "max" : [ -37.6994, 19.4426, -52.7069 ],
      "componentType" : 5126,
      "count" : 6736,
      "type" : "VEC3"
    },
    {
      "bufferView" : 26,
      "componentType" : 5126,
      "count" : 6736,
      "type" : "VEC3"
    },
    {
      "bufferView" : 27,
      "componentType" : 5126,
      "count" : 6736,
      "type" : "VEC4"
    },
    {
      "bufferView" : 28,
      "componentType" : 5126,
      "count" : 6736,
      "type" : "VEC2"
    },
    {
      "bufferView" : 29,
      "componentType" : 5126,
      "count" : 6736,
      "type" : "VEC2"
    },
    {
      "bufferView" : 30,
      "componentType" : 5126,
      "count" : 6736,
      "type" : "VEC2"
    },
    {
      "bufferView" : 31,
      "componentType" : 5126,
      "count" : 6736,
      "type" : "VEC2"
    },
    {
      "bufferView" : 32,
      "componentType" : 5123,
      "count" : 1620,
      "type" : "SCALAR"
    },
    {
      "bufferView" : 33,
      "min" : [ -62.6642, 5.90704, -71.6358 ],
      "max" : [ -36.3132, 20.5817, -51.4588 ],
      "componentType" : 5126,
      "count" : 648,
      "type" : "VEC3"
    },
    {
      "bufferView" : 34,
      "componentType" : 5126,
      "count" : 648,
      "type" : "VEC3"
    },
    {
      "bufferView" : 35,
      "componentType" : 5126,
      "count" : 648,
      "type" : "VEC4"
    },
    {
      "bufferView" : 36,
      "componentType" : 5126,
      "count" : 648,
      "type" : "VEC2"
    },
    {
      "bufferView" : 37,
      "componentType" : 5126,
      "count" : 648,
      "type" : "VEC2"
    },
    {
      "bufferView" : 38,
      "componentType" : 5126,
      "count" : 648,
      "type" : "VEC2"
    },
    {
      "bufferView" : 39,
      "componentType" : 5126,
      "count" : 648,
      "type" : "VEC2"
    },
    {
      "bufferView" : 40,
      "componentType" : 5123,
      "count" : 4494,
      "type" : "SCALAR"
    },
    {
      "bufferView" : 41,
      "min" : [ -59.098, 8.00618, -68.2227 ],
      "max" : [ -39.7672, 16.8697, -54.4518 ],
      "componentType" : 5126,
      "count" : 1178,
      "type" : "VEC3"
    },
    {
      "bufferView" : 42,
      "componentType" : 5126,
      "count" : 1178,
      "type" : "VEC3"
    },
    {
      "bufferView" : 43,
      "componentType" : 5126,
      "count" : 1178,
      "type" : "VEC4"
    },
    {
      "bufferView" : 44,
      "componentType" : 5126,
      "count" : 1178,
      "type" : "VEC2"
    },
    {
      "bufferView" : 45,
      "componentType" : 5126,
      "count" : 1178,
      "type" : "VEC2"
    },
    {
      "bufferView" : 46,
      "componentType" : 5126,
      "count" : 1178,
      "type" : "VEC2"
    },
    {
      "bufferView" : 47,
      "componentType" : 5126,
      "count" : 1178,
      "type" : "VEC2"
    },
    {
      "bufferView" : 48,
      "componentType" : 5123,
      "count" : 60,
      "type" : "SCALAR"
    },
    {
      "bufferView" : 49,
      "min" : [ -58.5, 2.1, -67.5 ],
      "max" : [ -40.5, 15.4421, -55.5 ],
      "componentType" : 5126,
      "count" : 36,
      "type" : "VEC3"
    },
    {
      "bufferView" : 50,
      "componentType" : 5126,
      "count" : 36,
      "type" : "VEC3"
    },
    {
      "bufferView" : 51,
      "componentType" : 5126,
      "count" : 36,
      "type" : "VEC4"
    },
    {
      "bufferView" : 52,
      "componentType" : 5126,
      "count" : 36,
      "type" : "VEC2"
    },
    {
      "bufferView" : 53,
      "componentType" : 5126,
      "count" : 36,
      "type" : "VEC2"
    },
    {
      "bufferView" : 54,
      "componentType" : 5126,
      "count" : 36,
      "type" : "VEC2"
    },
    {
      "bufferView" : 55,
      "componentType" : 5126,
      "count" : 36,
      "type" : "VEC2"
    },
    {
      "bufferView" : 56,
      "componentType" : 5123,
      "count" : 57,
      "type" : "SCALAR"
    },
    {
      "bufferView" : 57,
      "min" : [ -59.4, 0.799999, -69.3 ],
      "max" : [ -39.6, 10, -53.7 ],
      "componentType" : 5126,
      "count" : 19,
      "type" : "VEC3"
    },
    {
      "bufferView" : 58,
      "componentType" : 5126,
      "count" : 19,
      "type" : "VEC3"
    },
    {
      "bufferView" : 59,
      "componentType" : 5126,
      "count" : 19,
      "type" : "VEC4"
    },
    {
      "bufferView" : 60,
      "componentType" : 5126,
      "count" : 19,
      "type" : "VEC2"
    },
    {
      "bufferView" : 61,
      "componentType" : 5126,
      "count" : 19,
      "type" : "VEC2"
    },
    {
      "bufferView" : 62,
      "componentType" : 5126,
      "count" : 19,
      "type" : "VEC2"
    },
    {
      "bufferView" : 63,
      "componentType" : 5126,
      "count" : 19,
      "type" : "VEC2"
    },
    {
      "bufferView" : 64,
      "componentType" : 5123,
      "count" : 387,
      "type" : "SCALAR"
    },
    {
      "bufferView" : 65,
      "min" : [ -59.9, -3.66211e-06, -69.8 ],
      "max" : [ -39.1, 1.05, -51.6 ],
      "componentType" : 5126,
      "count" : 154,
      "type" : "VEC3"
    },
    {
      "bufferView" : 66,
      "componentType" : 5126,
      "count" : 154,
      "type" : "VEC3"
    },
    {
      "bufferView" : 67,
      "componentType" : 5126,
      "count" : 154,
      "type" : "VEC4"
    },
    {
      "bufferView" : 68,
      "componentType" : 5126,
      "count" : 154,
      "type" : "VEC2"
    },
    {
      "bufferView" : 69,
      "componentType" : 5126,
      "count" : 154,
      "type" : "VEC2"
    },
    {
      "bufferView" : 70,
      "componentType" : 5126,
      "count" : 154,
      "type" : "VEC2"
    },
    {
      "bufferView" : 71,
      "componentType" : 5126,
      "count" : 154,
      "type" : "VEC2"
    },
    {
      "bufferView" : 72,
      "componentType" : 5123,
      "count" : 48,
      "type" : "SCALAR"
    },
    {
      "bufferView" : 73,
      "min" : [ -52.2, -1.2207e-06, -53.7 ],
      "max" : [ -46.8, 0.800003, -51.7 ],
      "componentType" : 5126,
      "count" : 24,
      "type" : "VEC3"
    },
    {
      "bufferView" : 74,
      "componentType" : 5126,
      "count" : 24,
      "type" : "VEC3"
    },
    {
      "bufferView" : 75,
      "componentType" : 5126,
      "count" : 24,
      "type" : "VEC4"
    },
    {
      "bufferView" : 76,
      "componentType" : 5126,
      "count" : 24,
      "type" : "VEC2"
    },
    {
      "bufferView" : 77,
      "componentType" : 5126,
      "count" : 24,
      "type" : "VEC2"
    },
    {
      "bufferView" : 78,
      "componentType" : 5126,
      "count" : 24,
      "type" : "VEC2"
    },
    {
      "bufferView" : 79,
      "componentType" : 5126,
      "count" : 24,
      "type" : "VEC2"
    },
    {
      "bufferView" : 80,
      "componentType" : 5123,
      "count" : 480,
      "type" : "SCALAR"
    },
    {
      "bufferView" : 81,
      "min" : [ -59.3, 1.58, -68.3 ],
      "max" : [ -39.7, 14.4861, -54.7 ],
      "componentType" : 5126,
      "count" : 180,
      "type" : "VEC3"
    },
    {
      "bufferView" : 82,
      "componentType" : 5126,
      "count" : 180,
      "type" : "VEC3"
    },
    {
      "bufferView" : 83,
      "componentType" : 5126,
      "count" : 180,
      "type" : "VEC4"
    },
    {
      "bufferView" : 84,
      "componentType" : 5126,
      "count" : 180,
      "type" : "VEC2"
    },
    {
      "bufferView" : 85,
      "componentType" : 5126,
      "count" : 180,
      "type" : "VEC2"
    },
    {
      "bufferView" : 86,
      "componentType" : 5126,
      "count" : 180,
      "type" : "VEC2"
    },
    {
      "bufferView" : 87,
      "componentType" : 5126,
      "count" : 180,
      "type" : "VEC2"
    },
    {
      "bufferView" : 88,
      "componentType" : 5123,
      "count" : 1152,
      "type" : "SCALAR"
    },
    {
      "bufferView" : 89,
      "min" : [ -59.35, 0.8, -68.35 ],
      "max" : [ -39.65, 5.48934, -54.65 ],
      "componentType" : 5126,
      "count" : 324,
      "type" : "VEC3"
    },
    {
      "bufferView" : 90,
      "componentType" : 5126,
      "count" : 324,
      "type" : "VEC3"
    },
    {
      "bufferView" : 91,
      "componentType" : 5126,
      "count" : 324,
      "type" : "VEC4"
    },
    {
      "bufferView" : 92,
      "componentType" : 5126,
      "count" : 324,
      "type" : "VEC2"
    },
    {
      "bufferView" : 93,
      "componentType" : 5126,
      "count" : 324,
      "type" : "VEC2"
    },
    {
      "bufferView" : 94,
      "componentType" : 5126,
      "count" : 324,
      "type" : "VEC2"
    },
    {
      "bufferView" : 95,
      "componentType" : 5126,
      "count" : 324,
      "type" : "VEC2"
    },
    {
      "bufferView" : 96,
      "componentType" : 5123,
      "count" : 48,
      "type" : "SCALAR"
    },
    {
      "bufferView" : 97,
      "min" : [ -53.0311, 2.06061, -54.8982 ],
      "max" : [ -45.9689, 4.2227, -54.68 ],
      "componentType" : 5126,
      "count" : 20,
      "type" : "VEC3"
    },
    {
      "bufferView" : 98,
      "componentType" : 5126,
      "count" : 20,
      "type" : "VEC3"
    },
    {
      "bufferView" : 99,
      "componentType" : 5126,
      "count" : 20,
      "type" : "VEC4"
    },
    {
      "bufferView" : 100,
      "componentType" : 5126,
      "count" : 20,
      "type" : "VEC2"
    },
    {
      "bufferView" : 101,
      "componentType" : 5126,
      "count" : 20,
      "type" : "VEC2"
    },
    {
      "bufferView" : 102,
      "componentType" : 5126,
      "count" : 20,
      "type" : "VEC2"
    },
    {
      "bufferView" : 103,
      "componentType" : 5126,
      "count" : 20,
      "type" : "VEC2"
    },
    {
      "bufferView" : 104,
      "componentType" : 5123,
      "count" : 120,
      "type" : "SCALAR"
    },
    {
      "bufferView" : 105,
      "min" : [ -51.1, 1.1, -55.5 ],
      "max" : [ -47.9, 4.5, -55.45 ],
      "componentType" : 5126,
      "count" : 76,
      "type" : "VEC3"
    },
    {
      "bufferView" : 106,
      "componentType" : 5126,
      "count" : 76,
      "type" : "VEC3"
    },
    {
      "bufferView" : 107,
      "componentType" : 5126,
      "count" : 76,
      "type" : "VEC4"
    },
    {
      "bufferView" : 108,
      "componentType" : 5126,
      "count" : 76,
      "type" : "VEC2"
    },
    {
      "bufferView" : 109,
      "componentType" : 5126,
      "count" : 76,
      "type" : "VEC2"
    },
    {
      "bufferView" : 110,
      "componentType" : 5126,
      "count" : 76,
      "type" : "VEC2"
    },
    {
      "bufferView" : 111,
      "componentType" : 5126,
      "count" : 76,
      "type" : "VEC2"
    },
    {
      "bufferView" : 112,
      "componentType" : 5123,
      "count" : 12,
      "type" : "SCALAR"
    },
    {
      "bufferView" : 113,
      "min" : [ -51, 1.2, -55.5 ],
      "max" : [ -48, 4.4, -55.5 ],
      "componentType" : 5126,
      "count" : 8,
      "type" : "VEC3"
    },
    {
      "bufferView" : 114,
      "componentType" : 5126,
      "count" : 8,
      "type" : "VEC3"
    },
    {
      "bufferView" : 115,
      "componentType" : 5126,
      "count" : 8,
      "type" : "VEC4"
    },
    {
      "bufferView" : 116,
      "componentType" : 5126,
      "count" : 8,
      "type" : "VEC2"
    },
    {
      "bufferView" : 117,
      "componentType" : 5126,
      "count" : 8,
      "type" : "VEC2"
    },
    {
      "bufferView" : 118,
      "componentType" : 5126,
      "count" : 8,
      "type" : "VEC2"
    },
    {
      "bufferView" : 119,
      "componentType" : 5126,
      "count" : 8,
      "type" : "VEC2"
    },
    {
      "bufferView" : 120,
      "componentType" : 5123,
      "count" : 156,
      "type" : "SCALAR"
    },
    {
      "bufferView" : 121,
      "min" : [ -58.51, 2.725, -67.51 ],
      "max" : [ -40.49, 13.3168, -55.49 ],
      "componentType" : 5126,
      "count" : 104,
      "type" : "VEC3"
    },
    {
      "bufferView" : 122,
      "componentType" : 5126,
      "count" : 104,
      "type" : "VEC3"
    },
    {
      "bufferView" : 123,
      "componentType" : 5126,
      "count" : 104,
      "type" : "VEC4"
    },
    {
      "bufferView" : 124,
      "componentType" : 5126,
      "count" : 104,
      "type" : "VEC2"
    },
    {
      "bufferView" : 125,
      "componentType" : 5126,
      "count" : 104,
      "type" : "VEC2"
    },
    {
      "bufferView" : 126,
      "componentType" : 5126,
      "count" : 104,
      "type" : "VEC2"
    },
    {
      "bufferView" : 127,
      "componentType" : 5126,
      "count" : 104,
      "type" : "VEC2"
    },
    {
      "bufferView" : 128,
      "componentType" : 5123,
      "count" : 12,
      "type" : "SCALAR"
    },
    {
      "bufferView" : 129,
      "min" : [ -54.6852, 17.2259, -63.3344 ],
      "max" : [ -44.3148, 19.2915, -59.6672 ],
      "componentType" : 5126,
      "count" : 8,
      "type" : "VEC3"
    },
    {
      "bufferView" : 130,
      "componentType" : 5126,
      "count" : 8,
      "type" : "VEC3"
    },
    {
      "bufferView" : 131,
      "componentType" : 5126,
      "count" : 8,
      "type" : "VEC4"
    },
    {
      "bufferView" : 132,
      "componentType" : 5126,
      "count" : 8,
      "type" : "VEC2"
    },
    {
      "bufferView" : 133,
      "componentType" : 5126,
      "count" : 8,
      "type" : "VEC2"
    },
    {
      "bufferView" : 134,
      "componentType" : 5126,
      "count" : 8,
      "type" : "VEC2"
    },
    {
      "bufferView" : 135,
      "componentType" : 5126,
      "count" : 8,
      "type" : "VEC2"
    }
  ]
}
