{
  "asset" : {
    "generator" : "UE Viewer (umodel) build 1544 based",
    "version" : "2.0"
  },
  "scene" : 0,
  "scenes" : [
    {
      "nodes" : [ 0 ]
    }
  ],
  "nodes" : [
    {
      "name" : "SM_ENV_LKNVLD_WallSet_Bend",
      "mesh" : 0
    }
  ],
  "materials" : [
    {
      "name" : "MI_ENV_LKNVLD_WoodPlain_Red",
      "pbrMetallicRoughness" : {
        "baseColorFactor" : [ 0.3, 0.3, 0.3, 1.0 ],
        "metallicFactor" : 0.1,
        "roughnessFactor" : 0.5
      }
    },
    {
      "name" : "MI_ENV_LKNVLD_WoodWallSet",
      "pbrMetallicRoughness" : {
        "baseColorFactor" : [ 0.9, 0.3, 0.3, 1.0 ],
        "metallicFactor" : 0.1,
        "roughnessFactor" : 0.5
      }
    },
    {
      "name" : "MI_ENV_LKNVLD_Signboard_A",
      "pbrMetallicRoughness" : {
        "baseColorFactor" : [ 0.3, 0.9, 0.3, 1.0 ],
        "metallicFactor" : 0.1,
        "roughnessFactor" : 0.5
      }
    },
    {
      "name" : "MI_ENV_LKNVLD_Eaves_B",
      "pbrMetallicRoughness" : {
        "baseColorFactor" : [ 0.3, 0.3, 0.9, 1.0 ],
        "metallicFactor" : 0.1,
        "roughnessFactor" : 0.5
      }
    },
    {
      "name" : "MI_ENV_LKNVLD_StoneTrim_Ground",
      "pbrMetallicRoughness" : {
        "baseColorFactor" : [ 0.9, 0.9, 0.9, 1.0 ],
        "metallicFactor" : 0.1,
        "roughnessFactor" : 0.5
      }
    },
    {
      "name" : "MI_ENV_LKNVLD_WoodBoard_Natural_Lighter",
      "pbrMetallicRoughness" : {
        "baseColorFactor" : [ 0.9, 0.9, 0.3, 1.0 ],
        "metallicFactor" : 0.1,
        "roughnessFactor" : 0.5
      }
    },
    {
      "name" : "MI_ENV_LKNVLD_WoodWallSet_Red",
      "pbrMetallicRoughness" : {
        "baseColorFactor" : [ 0.9, 0.3, 0.9, 1.0 ],
        "metallicFactor" : 0.1,
        "roughnessFactor" : 0.5
      }
    }
  ],
  "meshes" : [
    {
      "primitives" : [
        {
          "attributes" : {
            "POSITION" : 1,
            "NORMAL" : 2,
            "TANGENT" : 3,
            "TEXCOORD_0" : 4,
            "TEXCOORD_1" : 5,
            "TEXCOORD_2" : 6,
            "TEXCOORD_3" : 7
          },
          "indices" : 0,
          "material" : 0
        },
        {
          "attributes" : {
            "POSITION" : 9,
            "NORMAL" : 10,
            "TANGENT" : 11,
            "TEXCOORD_0" : 12,
            "TEXCOORD_1" : 13,
            "TEXCOORD_2" : 14,
            "TEXCOORD_3" : 15
          },
          "indices" : 8,
          "material" : 1
        },
        {
          "attributes" : {
            "POSITION" : 17,
            "NORMAL" : 18,
            "TANGENT" : 19,
            "TEXCOORD_0" : 20,
            "TEXCOORD_1" : 21,
            "TEXCOORD_2" : 22,
            "TEXCOORD_3" : 23
          },
          "indices" : 16,
          "material" : 2
        },
        {
          "attributes" : {
            "POSITION" : 25,
            "NORMAL" : 26,
            "TANGENT" : 27,
            "TEXCOORD_0" : 28,
            "TEXCOORD_1" : 29,
            "TEXCOORD_2" : 30,
            "TEXCOORD_3" : 31
          },
          "indices" : 24,
          "material" : 3
        },
        {
          "attributes" : {
            "POSITION" : 33,
            "NORMAL" : 34,
            "TANGENT" : 35,
            "TEXCOORD_0" : 36,
            "TEXCOORD_1" : 37,
            "TEXCOORD_2" : 38,
            "TEXCOORD_3" : 39
          },
          "indices" : 32,
          "material" : 4
        },
        {
          "attributes" : {
            "POSITION" : 41,
            "NORMAL" : 42,
            "TANGENT" : 43,
            "TEXCOORD_0" : 44,
            "TEXCOORD_1" : 45,
            "TEXCOORD_2" : 46,
            "TEXCOORD_3" : 47
          },
          "indices" : 40,
          "material" : 5
        },
        {
          "attributes" : {
            "POSITION" : 49,
            "NORMAL" : 50,
            "TANGENT" : 51,
            "TEXCOORD_0" : 52,
            "TEXCOORD_1" : 53,
            "TEXCOORD_2" : 54,
            "TEXCOORD_3" : 55
          },
          "indices" : 48,
          "material" : 6
        }
      ],
      "name" : "SM_ENV_LKNVLD_WallSet_Bend"
    }
  ],
  "buffers" : [
    {
      "uri" : "SM_ENV_LKNVLD_WallSet_Bend.bin",
      "byteLength" : 1137952
    }
  ],
  "bufferViews" : [
    {
      "buffer" : 0,
      "byteOffset" : 0,
      "byteLength" : 27200
    },
    {
      "buffer" : 0,
      "byteOffset" : 27200,
      "byteLength" : 82500
    },
    {
      "buffer" : 0,
      "byteOffset" : 109700,
      "byteLength" : 82500
    },
    {
      "buffer" : 0,
      "byteOffset" : 192200,
      "byteLength" : 110000
    },
    {
      "buffer" : 0,
      "byteOffset" : 302200,
      "byteLength" : 55000
    },
    {
      "buffer" : 0,
      "byteOffset" : 357200,
      "byteLength" : 55000
    },
    {
      "buffer" : 0,
      "byteOffset" : 412200,
      "byteLength" : 55000
    },
    {
      "buffer" : 0,
      "byteOffset" : 467200,
      "byteLength" : 55000
    },
    {
      "buffer" : 0,
      "byteOffset" : 522200,
      "byteLength" : 17676
    },
    {
      "buffer" : 0,
      "byteOffset" : 539876,
      "byteLength" : 42960
    },
    {
      "buffer" : 0,
      "byteOffset" : 582836,
      "byteLength" : 42960
    },
    {
      "buffer" : 0,
      "byteOffset" : 625796,
      "byteLength" : 57280
    },
    {
      "buffer" : 0,
      "byteOffset" : 683076,
      "byteLength" : 28640
    },
    {
      "buffer" : 0,
      "byteOffset" : 711716,
      "byteLength" : 28640
    },
    {
      "buffer" : 0,
      "byteOffset" : 740356,
      "byteLength" : 28640
    },
    {
      "buffer" : 0,
      "byteOffset" : 768996,
      "byteLength" : 28640
    },
    {
      "buffer" : 0,
      "byteOffset" : 797636,
      "byteLength" : 12948
    },
    {
      "buffer" : 0,
      "byteOffset" : 810584,
      "byteLength" : 30312
    },
    {
      "buffer" : 0,
      "byteOffset" : 840896,
      "byteLength" : 30312
    },
    {
      "buffer" : 0,
      "byteOffset" : 871208,
      "byteLength" : 40416
    },
    {
      "buffer" : 0,
      "byteOffset" : 911624,
      "byteLength" : 20208
    },
    {
      "buffer" : 0,
      "byteOffset" : 931832,
      "byteLength" : 20208
    },
    {
      "buffer" : 0,
      "byteOffset" : 952040,
      "byteLength" : 20208
    },
    {
      "buffer" : 0,
      "byteOffset" : 972248,
      "byteLength" : 20208
    },
    {
      "buffer" : 0,
      "byteOffset" : 992456,
      "byteLength" : 2772
    },
    {
      "buffer" : 0,
      "byteOffset" : 995228,
      "byteLength" : 7176
    },
    {
      "buffer" : 0,
      "byteOffset" : 1002404,
      "byteLength" : 7176
    },
    {
      "buffer" : 0,
      "byteOffset" : 1009580,
      "byteLength" : 9568
    },
    {
      "buffer" : 0,
      "byteOffset" : 1019148,
      "byteLength" : 4784
    },
    {
      "buffer" : 0,
      "byteOffset" : 1023932,
      "byteLength" : 4784
    },
    {
      "buffer" : 0,
      "byteOffset" : 1028716,
      "byteLength" : 4784
    },
    {
      "buffer" : 0,
      "byteOffset" : 1033500,
      "byteLength" : 4784
    },
    {
      "buffer" : 0,
      "byteOffset" : 1038284,
      "byteLength" : 7052
    },
    {
      "buffer" : 0,
      "byteOffset" : 1045336,
      "byteLength" : 10860
    },
    {
      "buffer" : 0,
      "byteOffset" : 1056196,
      "byteLength" : 10860
    },
    {
      "buffer" : 0,
      "byteOffset" : 1067056,
      "byteLength" : 14480
    },
    {
      "buffer" : 0,
      "byteOffset" : 1081536,
      "byteLength" : 7240
    },
    {
      "buffer" : 0,
      "byteOffset" : 1088776,
      "byteLength" : 7240
    },
    {
      "buffer" : 0,
      "byteOffset" : 1096016,
      "byteLength" : 7240
    },
    {
      "buffer" : 0,
      "byteOffset" : 1103256,
      "byteLength" : 7240
    },
    {
      "buffer" : 0,
      "byteOffset" : 1110496,
      "byteLength" : 96
    },
    {
      "buffer" : 0,
      "byteOffset" : 1110592,
      "byteLength" : 288
    },
    {
      "buffer" : 0,
      "byteOffset" : 1110880,
      "byteLength" : 288
    },
    {
      "buffer" : 0,
      "byteOffset" : 1111168,
      "byteLength" : 384
    },
    {
      "buffer" : 0,
      "byteOffset" : 1111552,
      "byteLength" : 192
    },
    {
      "buffer" : 0,
      "byteOffset" : 1111744,
      "byteLength" : 192
    },
    {
      "buffer" : 0,
      "byteOffset" : 1111936,
      "byteLength" : 192
    },
    {
      "buffer" : 0,
      "byteOffset" : 1112128,
      "byteLength" : 192
    },
    {
      "buffer" : 0,
      "byteOffset" : 1112320,
      "byteLength" : 1872
    },
    {
      "buffer" : 0,
      "byteOffset" : 1114192,
      "byteLength" : 3960
    },
    {
      "buffer" : 0,
      "byteOffset" : 1118152,
      "byteLength" : 3960
    },
    {
      "buffer" : 0,
      "byteOffset" : 1122112,
      "byteLength" : 5280
    },
    {
      "buffer" : 0,
      "byteOffset" : 1127392,
      "byteLength" : 2640
    },
    {
      "buffer" : 0,
      "byteOffset" : 1130032,
      "byteLength" : 2640
    },
    {
      "buffer" : 0,
      "byteOffset" : 1132672,
      "byteLength" : 2640
    },
    {
      "buffer" : 0,
      "byteOffset" : 1135312,
      "byteLength" : 2640
    }
  ],
  "accessors" : [
    {
      "bufferView" : 0,
      "componentType" : 5123,
      "count" : 13599,
      "type" : "SCALAR"
    },
    {
      "bufferView" : 1,
      "min" : [ 33.4868, 0.7, -50.6174 ],
      "max" : [ 67.4188, 7.6, -13.0337 ],
      "componentType" : 5126,
      "count" : 6875,
      "type" : "VEC3"
    },
    {
      "bufferView" : 2,
      "componentType" : 5126,
      "count" : 6875,
      "type" : "VEC3"
    },
    {
      "bufferView" : 3,
      "componentType" : 5126,
      "count" : 6875,
      "type" : "VEC4"
    },
    {
      "bufferView" : 4,
      "componentType" : 5126,
      "count" : 6875,
      "type" : "VEC2"
    },
    {
      "bufferView" : 5,
      "componentType" : 5126,
      "count" : 6875,
      "type" : "VEC2"
    },
    {
      "bufferView" : 6,
      "componentType" : 5126,
      "count" : 6875,
      "type" : "VEC2"
    },
    {
      "bufferView" : 7,
      "componentType" : 5126,
      "count" : 6875,
      "type" : "VEC2"
    },
    {
      "bufferView" : 8,
      "componentType" : 5123,
      "count" : 8838,
      "type" : "SCALAR"
    },
    {
      "bufferView" : 9,
      "min" : [ 34.1112, 0.299999, -50.5952 ],
      "max" : [ 66.574, 6.2, -13.2257 ],
      "componentType" : 5126,
      "count" : 3580,
      "type" : "VEC3"
    },
    {
      "bufferView" : 10,
      "componentType" : 5126,
      "count" : 3580,
      "type" : "VEC3"
    },
    {
      "bufferView" : 11,
      "componentType" : 5126,
      "count" : 3580,
      "type" : "VEC4"
    },
    {
      "bufferView" : 12,
      "componentType" : 5126,
      "count" : 3580,
      "type" : "VEC2"
    },
    {
      "bufferView" : 13,
      "componentType" : 5126,
      "count" : 3580,
      "type" : "VEC2"
    },
    {
      "bufferView" : 14,
      "componentType" : 5126,
      "count" : 3580,
      "type" : "VEC2"
    },
    {
      "bufferView" : 15,
      "componentType" : 5126,
      "count" : 3580,
      "type" : "VEC2"
    },
    {
      "bufferView" : 16,
      "componentType" : 5123,
      "count" : 6474,
      "type" : "SCALAR"
    },
    {
      "bufferView" : 17,
      "min" : [ 35.6685, 4.8, -50.6174 ],
      "max" : [ 67.4188, 8.12, -15.3688 ],
      "componentType" : 5126,
      "count" : 2526,
      "type" : "VEC3"
    },
    {
      "bufferView" : 18,
      "componentType" : 5126,
      "count" : 2526,
      "type" : "VEC3"
    },
    {
      "bufferView" : 19,
      "componentType" : 5126,
      "count" : 2526,
      "type" : "VEC4"
    },
    {
      "bufferView" : 20,
      "componentType" : 5126,
      "count" : 2526,
      "type" : "VEC2"
    },
    {
      "bufferView" : 21,
      "componentType" : 5126,
      "count" : 2526,
      "type" : "VEC2"
    },
    {
      "bufferView" : 22,
      "componentType" : 5126,
      "count" : 2526,
      "type" : "VEC2"
    },
    {
      "bufferView" : 23,
      "componentType" : 5126,
      "count" : 2526,
      "type" : "VEC2"
    },
    {
      "bufferView" : 24,
      "componentType" : 5123,
      "count" : 1386,
      "type" : "SCALAR"
    },
    {
      "bufferView" : 25,
      "min" : [ 35.6685, 5.07002, -50.1639 ],
      "max" : [ 67.4188, 5.6, -15.6186 ],
      "componentType" : 5126,
      "count" : 598,
      "type" : "VEC3"
    },
    {
      "bufferView" : 26,
      "componentType" : 5126,
      "count" : 598,
      "type" : "VEC3"
    },
    {
      "bufferView" : 27,
      "componentType" : 5126,
      "count" : 598,
      "type" : "VEC4"
    },
    {
      "bufferView" : 28,
      "componentType" : 5126,
      "count" : 598,
      "type" : "VEC2"
    },
    {
      "bufferView" : 29,
      "componentType" : 5126,
      "count" : 598,
      "type" : "VEC2"
    },
    {
      "bufferView" : 30,
      "componentType" : 5126,
      "count" : 598,
      "type" : "VEC2"
    },
    {
      "bufferView" : 31,
      "componentType" : 5126,
      "count" : 598,
      "type" : "VEC2"
    },
    {
      "bufferView" : 32,
      "componentType" : 5123,
      "count" : 3525,
      "type" : "SCALAR"
    },
    {
      "bufferView" : 33,
      "min" : [ 34.0477, -0.252936, -50.6122 ],
      "max" : [ 66.6327, 0.300004, -13.2933 ],
      "componentType" : 5126,
      "count" : 905,
      "type" : "VEC3"
    },
    {
      "bufferView" : 34,
      "componentType" : 5126,
      "count" : 905,
      "type" : "VEC3"
    },
    {
      "bufferView" : 35,
      "componentType" : 5126,
      "count" : 905,
      "type" : "VEC4"
    },
    {
      "bufferView" : 36,
      "componentType" : 5126,
      "count" : 905,
      "type" : "VEC2"
    },
    {
      "bufferView" : 37,
      "componentType" : 5126,
      "count" : 905,
      "type" : "VEC2"
    },
    {
      "bufferView" : 38,
      "componentType" : 5126,
      "count" : 905,
      "type" : "VEC2"
    },
    {
      "bufferView" : 39,
      "componentType" : 5126,
      "count" : 905,
      "type" : "VEC2"
    },
    {
      "bufferView" : 40,
      "componentType" : 5123,
      "count" : 48,
      "type" : "SCALAR"
    },
    {
      "bufferView" : 41,
      "min" : [ 33.9818, 4.06725, -50.4029 ],
      "max" : [ 66.0069, 6.00125, -13.0387 ],
      "componentType" : 5126,
      "count" : 24,
      "type" : "VEC3"
    },
    {
      "bufferView" : 42,
      "componentType" : 5126,
      "count" : 24,
      "type" : "VEC3"
    },
    {
      "bufferView" : 43,
      "componentType" : 5126,
      "count" : 24,
      "type" : "VEC4"
    },
    {
      "bufferView" : 44,
      "componentType" : 5126,
      "count" : 24,
      "type" : "VEC2"
    },
    {
      "bufferView" : 45,
      "componentType" : 5126,
      "count" : 24,
      "type" : "VEC2"
    },
    {
      "bufferView" : 46,
      "componentType" : 5126,
      "count" : 24,
      "type" : "VEC2"
    },
    {
      "bufferView" : 47,
      "componentType" : 5126,
      "count" : 24,
      "type" : "VEC2"
    },
    {
      "bufferView" : 48,
      "componentType" : 5123,
      "count" : 936,
      "type" : "SCALAR"
    },
    {
      "bufferView" : 49,
      "min" : [ 47.9215, 0.800001, -50.532 ],
      "max" : [ 66.5552, 1.5, -23.8545 ],
      "componentType" : 5126,
      "count" : 330,
      "type" : "VEC3"
    },
    {
      "bufferView" : 50,
      "componentType" : 5126,
      "count" : 330,
      "type" : "VEC3"
    },
    {
      "bufferView" : 51,
      "componentType" : 5126,
      "count" : 330,
      "type" : "VEC4"
    },
    {
      "bufferView" : 52,
      "componentType" : 5126,
      "count" : 330,
      "type" : "VEC2"
    },
    {
      "bufferView" : 53,
      "componentType" : 5126,
      "count" : 330,
      "type" : "VEC2"
    },
    {
      "bufferView" : 54,
      "componentType" : 5126,
      "count" : 330,
      "type" : "VEC2"
    },
    {
      "bufferView" : 55,
      "componentType" : 5126,
      "count" : 330,
      "type" : "VEC2"
    }
  ]
}
