{
  "asset" : {
    "generator" : "UE Viewer (umodel) build 1544 based",
    "version" : "2.0"
  },
  "scene" : 0,
  "scenes" : [
    {
      "nodes" : [ 0 ]
    }
  ],
  "nodes" : [
    {
      "name" : "SM_ENV_LKNVLD_Shop_Tori_Lod1",
      "mesh" : 0
    }
  ],
  "materials" : [
    {
      "name" : "MI_ENV_LKNVLD_ClanTorii_A",
      "pbrMetallicRoughness" : {
        "baseColorFactor" : [ 0.3, 0.3, 0.3, 1.0 ],
        "metallicFactor" : 0.1,
        "roughnessFactor" : 0.5
      }
    },
    {
      "name" : "MI_ENV_LKNVLD_StrawRope_A",
      "pbrMetallicRoughness" : {
        "baseColorFactor" : [ 0.9, 0.3, 0.3, 1.0 ],
        "metallicFactor" : 0.1,
        "roughnessFactor" : 0.5
      }
    }
  ],
  "meshes" : [
    {
      "primitives" : [
        {
          "attributes" : {
            "POSITION" : 1,
            "NORMAL" : 2,
            "TANGENT" : 3,
            "COLOR_0" : 4,
            "TEXCOORD_0" : 5,
            "TEXCOORD_1" : 6,
            "TEXCOORD_2" : 7,
            "TEXCOORD_3" : 8
          },
          "indices" : 0,
          "material" : 0
        },
        {
          "attributes" : {
            "POSITION" : 10,
            "NORMAL" : 11,
            "TANGENT" : 12,
            "COLOR_0" : 13,
            "TEXCOORD_0" : 14,
            "TEXCOORD_1" : 15,
            "TEXCOORD_2" : 16,
            "TEXCOORD_3" : 17
          },
          "indices" : 9,
          "material" : 1
        }
      ],
      "name" : "SM_ENV_LKNVLD_Shop_Tori_Lod1"
    }
  ],
  "buffers" : [
    {
      "uri" : "SM_ENV_LKNVLD_Shop_Tori_Lod1.bin",
      "byteLength" : 293756
    }
  ],
  "bufferViews" : [
    {
      "buffer" : 0,
      "byteOffset" : 0,
      "byteLength" : 2736
    },
    {
      "buffer" : 0,
      "byteOffset" : 2736,
      "byteLength" : 6552
    },
    {
      "buffer" : 0,
      "byteOffset" : 9288,
      "byteLength" : 6552
    },
    {
      "buffer" : 0,
      "byteOffset" : 15840,
      "byteLength" : 8736
    },
    {
      "buffer" : 0,
      "byteOffset" : 24576,
      "byteLength" : 2184
    },
    {
      "buffer" : 0,
      "byteOffset" : 26760,
      "byteLength" : 4368
    },
    {
      "buffer" : 0,
      "byteOffset" : 31128,
      "byteLength" : 4368
    },
    {
      "buffer" : 0,
      "byteOffset" : 35496,
      "byteLength" : 4368
    },
    {
      "buffer" : 0,
      "byteOffset" : 39864,
      "byteLength" : 4368
    },
    {
      "buffer" : 0,
      "byteOffset" : 44232,
      "byteLength" : 18864
    },
    {
      "buffer" : 0,
      "byteOffset" : 63096,
      "byteLength" : 36420
    },
    {
      "buffer" : 0,
      "byteOffset" : 99516,
      "byteLength" : 36420
    },
    {
      "buffer" : 0,
      "byteOffset" : 135936,
      "byteLength" : 48560
    },
    {
      "buffer" : 0,
      "byteOffset" : 184496,
      "byteLength" : 12140
    },
    {
      "buffer" : 0,
      "byteOffset" : 196636,
      "byteLength" : 24280
    },
    {
      "buffer" : 0,
      "byteOffset" : 220916,
      "byteLength" : 24280
    },
    {
      "buffer" : 0,
      "byteOffset" : 245196,
      "byteLength" : 24280
    },
    {
      "buffer" : 0,
      "byteOffset" : 269476,
      "byteLength" : 24280
    }
  ],
  "accessors" : [
    {
      "bufferView" : 0,
      "componentType" : 5123,
      "count" : 1368,
      "type" : "SCALAR"
    },
    {
      "bufferView" : 1,
      "min" : [ -32.7412, 5.88384, 17.3949 ],
      "max" : [ -24.6216, 16.4439, 25.5145 ],
      "componentType" : 5126,
      "count" : 546,
      "type" : "VEC3"
    },
    {
      "bufferView" : 2,
      "componentType" : 5126,
      "count" : 546,
      "type" : "VEC3"
    },
    {
      "bufferView" : 3,
      "componentType" : 5126,
      "count" : 546,
      "type" : "VEC4"
    },
    {
      "bufferView" : 4,
      "normalized" : true,
      "componentType" : 5121,
      "count" : 546,
      "type" : "VEC4"
    },
    {
      "bufferView" : 5,
      "componentType" : 5126,
      "count" : 546,
      "type" : "VEC2"
    },
    {
      "bufferView" : 6,
      "componentType" : 5126,
      "count" : 546,
      "type" : "VEC2"
    },
    {
      "bufferView" : 7,
      "componentType" : 5126,
      "count" : 546,
      "type" : "VEC2"
    },
    {
      "bufferView" : 8,
      "componentType" : 5126,
      "count" : 546,
      "type" : "VEC2"
    },
    {
      "bufferView" : 9,
      "componentType" : 5123,
      "count" : 9432,
      "type" : "SCALAR"
    },
    {
      "bufferView" : 10,
      "min" : [ -31.3961, 10.9791, 18.7644 ],
      "max" : [ -25.9486, 14.2133, 24.2118 ],
      "componentType" : 5126,
      "count" : 3035,
      "type" : "VEC3"
    },
    {
      "bufferView" : 11,
      "componentType" : 5126,
      "count" : 3035,
      "type" : "VEC3"
    },
    {
      "bufferView" : 12,
      "componentType" : 5126,
      "count" : 3035,
      "type" : "VEC4"
    },
    {
      "bufferView" : 13,
      "normalized" : true,
      "componentType" : 5121,
      "count" : 3035,
      "type" : "VEC4"
    },
    {
      "bufferView" : 14,
      "componentType" : 5126,
      "count" : 3035,
      "type" : "VEC2"
    },
    {
      "bufferView" : 15,
      "componentType" : 5126,
      "count" : 3035,
      "type" : "VEC2"
    },
    {
      "bufferView" : 16,
      "componentType" : 5126,
      "count" : 3035,
      "type" : "VEC2"
    },
    {
      "bufferView" : 17,
      "componentType" : 5126,
      "count" : 3035,
      "type" : "VEC2"
    }
  ]
}
