{
  "asset" : {
    "generator" : "UE Viewer (umodel) build 1544 based",
    "version" : "2.0"
  },
  "scene" : 0,
  "scenes" : [
    {
      "nodes" : [ 0 ]
    }
  ],
  "nodes" : [
    {
      "name" : "SM_ENV_LKNVLD_RockMiddle_I",
      "mesh" : 0
    }
  ],
  "materials" : [
    {
      "name" : "MI_ENV_LKNVLD_MiddleRock_A",
      "pbrMetallicRoughness" : {
        "baseColorFactor" : [ 0.3, 0.3, 0.3, 1.0 ],
        "metallicFactor" : 0.1,
        "roughnessFactor" : 0.5
      }
    }
  ],
  "meshes" : [
    {
      "primitives" : [
        {
          "attributes" : {
            "POSITION" : 1,
            "NORMAL" : 2,
            "TANGENT" : 3,
            "COLOR_0" : 4,
            "TEXCOORD_0" : 5,
            "TEXCOORD_1" : 6,
            "TEXCOORD_2" : 7,
            "TEXCOORD_3" : 8
          },
          "indices" : 0,
          "material" : 0
        }
      ],
      "name" : "SM_ENV_LKNVLD_RockMiddle_I"
    }
  ],
  "buffers" : [
    {
      "uri" : "SM_ENV_LKNVLD_RockMiddle_I.bin",
      "byteLength" : 43696
    }
  ],
  "bufferViews" : [
    {
      "buffer" : 0,
      "byteOffset" : 0,
      "byteLength" : 3644
    },
    {
      "buffer" : 0,
      "byteOffset" : 3644,
      "byteLength" : 6324
    },
    {
      "buffer" : 0,
      "byteOffset" : 9968,
      "byteLength" : 6324
    },
    {
      "buffer" : 0,
      "byteOffset" : 16292,
      "byteLength" : 8432
    },
    {
      "buffer" : 0,
      "byteOffset" : 24724,
      "byteLength" : 2108
    },
    {
      "buffer" : 0,
      "byteOffset" : 26832,
      "byteLength" : 4216
    },
    {
      "buffer" : 0,
      "byteOffset" : 31048,
      "byteLength" : 4216
    },
    {
      "buffer" : 0,
      "byteOffset" : 35264,
      "byteLength" : 4216
    },
    {
      "buffer" : 0,
      "byteOffset" : 39480,
      "byteLength" : 4216
    }
  ],
  "accessors" : [
    {
      "bufferView" : 0,
      "componentType" : 5123,
      "count" : 1821,
      "type" : "SCALAR"
    },
    {
      "bufferView" : 1,
      "min" : [ 27.0471, -0.248171, -25.1937 ],
      "max" : [ 34.7719, 0.520518, -20.0693 ],
      "componentType" : 5126,
      "count" : 527,
      "type" : "VEC3"
    },
    {
      "bufferView" : 2,
      "componentType" : 5126,
      "count" : 527,
      "type" : "VEC3"
    },
    {
      "bufferView" : 3,
      "componentType" : 5126,
      "count" : 527,
      "type" : "VEC4"
    },
    {
      "bufferView" : 4,
      "normalized" : true,
      "componentType" : 5121,
      "count" : 527,
      "type" : "VEC4"
    },
    {
      "bufferView" : 5,
      "componentType" : 5126,
      "count" : 527,
      "type" : "VEC2"
    },
    {
      "bufferView" : 6,
      "componentType" : 5126,
      "count" : 527,
      "type" : "VEC2"
    },
    {
      "bufferView" : 7,
      "componentType" : 5126,
      "count" : 527,
      "type" : "VEC2"
    },
    {
      "bufferView" : 8,
      "componentType" : 5126,
      "count" : 527,
      "type" : "VEC2"
    }
  ]
}
