{
  "asset" : {
    "generator" : "UE Viewer (umodel) build 1544 based",
    "version" : "2.0"
  },
  "scene" : 0,
  "scenes" : [
    {
      "nodes" : [ 0 ]
    }
  ],
  "nodes" : [
    {
      "name" : "SM_ENV_LKNVLD_InnSignboard_B_Lod3",
      "mesh" : 0
    }
  ],
  "materials" : [
    {
      "name" : "MI_ENV_LKNVLD_WoodPlain_Brown_LOD",
      "pbrMetallicRoughness" : {
        "baseColorFactor" : [ 0.3, 0.3, 0.3, 1.0 ],
        "metallicFactor" : 0.1,
        "roughnessFactor" : 0.5
      }
    },
    {
      "name" : "MI_ENV_LKNVLD_InnSignboard_C",
      "pbrMetallicRoughness" : {
        "baseColorFactor" : [ 0.9, 0.3, 0.3, 1.0 ],
        "metallicFactor" : 0.1,
        "roughnessFactor" : 0.5
      }
    },
    {
      "name" : "MI_ENV_LKNVLD_Roof_A_LOD",
      "pbrMetallicRoughness" : {
        "baseColorFactor" : [ 0.3, 0.9, 0.3, 1.0 ],
        "metallicFactor" : 0.1,
        "roughnessFactor" : 0.5
      }
    }
  ],
  "meshes" : [
    {
      "primitives" : [
        {
          "attributes" : {
            "POSITION" : 1,
            "NORMAL" : 2,
            "TANGENT" : 3,
            "TEXCOORD_0" : 4,
            "TEXCOORD_1" : 5,
            "TEXCOORD_2" : 6,
            "TEXCOORD_3" : 7
          },
          "indices" : 0,
          "material" : 0
        },
        {
          "attributes" : {
            "POSITION" : 9,
            "NORMAL" : 10,
            "TANGENT" : 11,
            "TEXCOORD_0" : 12,
            "TEXCOORD_1" : 13,
            "TEXCOORD_2" : 14,
            "TEXCOORD_3" : 15
          },
          "indices" : 8,
          "material" : 1
        },
        {
          "attributes" : {
            "POSITION" : 17,
            "NORMAL" : 18,
            "TANGENT" : 19,
            "TEXCOORD_0" : 20,
            "TEXCOORD_1" : 21,
            "TEXCOORD_2" : 22,
            "TEXCOORD_3" : 23
          },
          "indices" : 16,
          "material" : 2
        }
      ],
      "name" : "SM_ENV_LKNVLD_InnSignboard_B_Lod3"
    }
  ],
  "buffers" : [
    {
      "uri" : "SM_ENV_LKNVLD_InnSignboard_B_Lod3.bin",
      "byteLength" : 79440
    }
  ],
  "bufferViews" : [
    {
      "buffer" : 0,
      "byteOffset" : 0,
      "byteLength" : 1692
    },
    {
      "buffer" : 0,
      "byteOffset" : 1692,
      "byteLength" : 6084
    },
    {
      "buffer" : 0,
      "byteOffset" : 7776,
      "byteLength" : 6084
    },
    {
      "buffer" : 0,
      "byteOffset" : 13860,
      "byteLength" : 8112
    },
    {
      "buffer" : 0,
      "byteOffset" : 21972,
      "byteLength" : 4056
    },
    {
      "buffer" : 0,
      "byteOffset" : 26028,
      "byteLength" : 4056
    },
    {
      "buffer" : 0,
      "byteOffset" : 30084,
      "byteLength" : 4056
    },
    {
      "buffer" : 0,
      "byteOffset" : 34140,
      "byteLength" : 4056
    },
    {
      "buffer" : 0,
      "byteOffset" : 38196,
      "byteLength" : 1032
    },
    {
      "buffer" : 0,
      "byteOffset" : 39228,
      "byteLength" : 1896
    },
    {
      "buffer" : 0,
      "byteOffset" : 41124,
      "byteLength" : 1896
    },
    {
      "buffer" : 0,
      "byteOffset" : 43020,
      "byteLength" : 2528
    },
    {
      "buffer" : 0,
      "byteOffset" : 45548,
      "byteLength" : 1264
    },
    {
      "buffer" : 0,
      "byteOffset" : 46812,
      "byteLength" : 1264
    },
    {
      "buffer" : 0,
      "byteOffset" : 48076,
      "byteLength" : 1264
    },
    {
      "buffer" : 0,
      "byteOffset" : 49340,
      "byteLength" : 1264
    },
    {
      "buffer" : 0,
      "byteOffset" : 50604,
      "byteLength" : 1332
    },
    {
      "buffer" : 0,
      "byteOffset" : 51936,
      "byteLength" : 4584
    },
    {
      "buffer" : 0,
      "byteOffset" : 56520,
      "byteLength" : 4584
    },
    {
      "buffer" : 0,
      "byteOffset" : 61104,
      "byteLength" : 6112
    },
    {
      "buffer" : 0,
      "byteOffset" : 67216,
      "byteLength" : 3056
    },
    {
      "buffer" : 0,
      "byteOffset" : 70272,
      "byteLength" : 3056
    },
    {
      "buffer" : 0,
      "byteOffset" : 73328,
      "byteLength" : 3056
    },
    {
      "buffer" : 0,
      "byteOffset" : 76384,
      "byteLength" : 3056
    }
  ],
  "accessors" : [
    {
      "bufferView" : 0,
      "componentType" : 5123,
      "count" : 846,
      "type" : "SCALAR"
    },
    {
      "bufferView" : 1,
      "min" : [ -1.18901, -1.13687e-15, -0.432884 ],
      "max" : [ 0.103118, 2.67026, 0.432884 ],
      "componentType" : 5126,
      "count" : 507,
      "type" : "VEC3"
    },
    {
      "bufferView" : 2,
      "componentType" : 5126,
      "count" : 507,
      "type" : "VEC3"
    },
    {
      "bufferView" : 3,
      "componentType" : 5126,
      "count" : 507,
      "type" : "VEC4"
    },
    {
      "bufferView" : 4,
      "componentType" : 5126,
      "count" : 507,
      "type" : "VEC2"
    },
    {
      "bufferView" : 5,
      "componentType" : 5126,
      "count" : 507,
      "type" : "VEC2"
    },
    {
      "bufferView" : 6,
      "componentType" : 5126,
      "count" : 507,
      "type" : "VEC2"
    },
    {
      "bufferView" : 7,
      "componentType" : 5126,
      "count" : 507,
      "type" : "VEC2"
    },
    {
      "bufferView" : 8,
      "componentType" : 5123,
      "count" : 516,
      "type" : "SCALAR"
    },
    {
      "bufferView" : 9,
      "min" : [ -1.02249, 1.39431, -0.336804 ],
      "max" : [ -0.34861, 2.32019, 0.337071 ],
      "componentType" : 5126,
      "count" : 158,
      "type" : "VEC3"
    },
    {
      "bufferView" : 10,
      "componentType" : 5126,
      "count" : 158,
      "type" : "VEC3"
    },
    {
      "bufferView" : 11,
      "componentType" : 5126,
      "count" : 158,
      "type" : "VEC4"
    },
    {
      "bufferView" : 12,
      "componentType" : 5126,
      "count" : 158,
      "type" : "VEC2"
    },
    {
      "bufferView" : 13,
      "componentType" : 5126,
      "count" : 158,
      "type" : "VEC2"
    },
    {
      "bufferView" : 14,
      "componentType" : 5126,
      "count" : 158,
      "type" : "VEC2"
    },
    {
      "bufferView" : 15,
      "componentType" : 5126,
      "count" : 158,
      "type" : "VEC2"
    },
    {
      "bufferView" : 16,
      "componentType" : 5123,
      "count" : 666,
      "type" : "SCALAR"
    },
    {
      "bufferView" : 17,
      "min" : [ -1.04752, 2.16735, -0.50198 ],
      "max" : [ -0.133357, 2.60031, 0.50198 ],
      "componentType" : 5126,
      "count" : 382,
      "type" : "VEC3"
    },
    {
      "bufferView" : 18,
      "componentType" : 5126,
      "count" : 382,
      "type" : "VEC3"
    },
    {
      "bufferView" : 19,
      "componentType" : 5126,
      "count" : 382,
      "type" : "VEC4"
    },
    {
      "bufferView" : 20,
      "componentType" : 5126,
      "count" : 382,
      "type" : "VEC2"
    },
    {
      "bufferView" : 21,
      "componentType" : 5126,
      "count" : 382,
      "type" : "VEC2"
    },
    {
      "bufferView" : 22,
      "componentType" : 5126,
      "count" : 382,
      "type" : "VEC2"
    },
    {
      "bufferView" : 23,
      "componentType" : 5126,
      "count" : 382,
      "type" : "VEC2"
    }
  ]
}
