{
  "asset" : {
    "generator" : "UE Viewer (umodel) build 1544 based",
    "version" : "2.0"
  },
  "scene" : 0,
  "scenes" : [
    {
      "nodes" : [ 0 ]
    }
  ],
  "nodes" : [
    {
      "name" : "SM_ENV_LKNVLD_RockMiddle_B",
      "mesh" : 0
    }
  ],
  "materials" : [
    {
      "name" : "MI_ENV_LKNVLD_MiddleRock_A",
      "pbrMetallicRoughness" : {
        "baseColorFactor" : [ 0.3, 0.3, 0.3, 1.0 ],
        "metallicFactor" : 0.1,
        "roughnessFactor" : 0.5
      }
    }
  ],
  "meshes" : [
    {
      "primitives" : [
        {
          "attributes" : {
            "POSITION" : 1,
            "NORMAL" : 2,
            "TANGENT" : 3,
            "COLOR_0" : 4,
            "TEXCOORD_0" : 5,
            "TEXCOORD_1" : 6,
            "TEXCOORD_2" : 7,
            "TEXCOORD_3" : 8
          },
          "indices" : 0,
          "material" : 0
        }
      ],
      "name" : "SM_ENV_LKNVLD_RockMiddle_B"
    }
  ],
  "buffers" : [
    {
      "uri" : "SM_ENV_LKNVLD_RockMiddle_B.bin",
      "byteLength" : 54804
    }
  ],
  "bufferViews" : [
    {
      "buffer" : 0,
      "byteOffset" : 0,
      "byteLength" : 5024
    },
    {
      "buffer" : 0,
      "byteOffset" : 5024,
      "byteLength" : 7860
    },
    {
      "buffer" : 0,
      "byteOffset" : 12884,
      "byteLength" : 7860
    },
    {
      "buffer" : 0,
      "byteOffset" : 20744,
      "byteLength" : 10480
    },
    {
      "buffer" : 0,
      "byteOffset" : 31224,
      "byteLength" : 2620
    },
    {
      "buffer" : 0,
      "byteOffset" : 33844,
      "byteLength" : 5240
    },
    {
      "buffer" : 0,
      "byteOffset" : 39084,
      "byteLength" : 5240
    },
    {
      "buffer" : 0,
      "byteOffset" : 44324,
      "byteLength" : 5240
    },
    {
      "buffer" : 0,
      "byteOffset" : 49564,
      "byteLength" : 5240
    }
  ],
  "accessors" : [
    {
      "bufferView" : 0,
      "componentType" : 5123,
      "count" : 2511,
      "type" : "SCALAR"
    },
    {
      "bufferView" : 1,
      "min" : [ -35.7575, -0.311827, -28.0823 ],
      "max" : [ -29.4837, 1.04822, -23.9576 ],
      "componentType" : 5126,
      "count" : 655,
      "type" : "VEC3"
    },
    {
      "bufferView" : 2,
      "componentType" : 5126,
      "count" : 655,
      "type" : "VEC3"
    },
    {
      "bufferView" : 3,
      "componentType" : 5126,
      "count" : 655,
      "type" : "VEC4"
    },
    {
      "bufferView" : 4,
      "normalized" : true,
      "componentType" : 5121,
      "count" : 655,
      "type" : "VEC4"
    },
    {
      "bufferView" : 5,
      "componentType" : 5126,
      "count" : 655,
      "type" : "VEC2"
    },
    {
      "bufferView" : 6,
      "componentType" : 5126,
      "count" : 655,
      "type" : "VEC2"
    },
    {
      "bufferView" : 7,
      "componentType" : 5126,
      "count" : 655,
      "type" : "VEC2"
    },
    {
      "bufferView" : 8,
      "componentType" : 5126,
      "count" : 655,
      "type" : "VEC2"
    }
  ]
}
