{
  "asset" : {
    "generator" : "UE Viewer (umodel) build 1544 based",
    "version" : "2.0"
  },
  "scene" : 0,
  "scenes" : [
    {
      "nodes" : [ 0 ]
    }
  ],
  "nodes" : [
    {
      "name" : "SM_ENV_LKNVLD_Hatago_Front_Lod3",
      "mesh" : 0
    }
  ],
  "materials" : [
    {
      "name" : "MI_ENV_LKNVLD_Eaves_E",
      "pbrMetallicRoughness" : {
        "baseColorFactor" : [ 0.3, 0.3, 0.3, 1.0 ],
        "metallicFactor" : 0.1,
        "roughnessFactor" : 0.5
      }
    },
    {
      "name" : "MI_ENV_LKNVLD_RoofTiles_Green",
      "pbrMetallicRoughness" : {
        "baseColorFactor" : [ 0.9, 0.3, 0.3, 1.0 ],
        "metallicFactor" : 0.1,
        "roughnessFactor" : 0.5
      }
    },
    {
      "name" : "MI_ENV_LKNVLD_Aircon_E",
      "pbrMetallicRoughness" : {
        "baseColorFactor" : [ 0.3, 0.9, 0.3, 1.0 ],
        "metallicFactor" : 0.1,
        "roughnessFactor" : 0.5
      }
    },
    {
      "name" : "MI_ENV_LKNVLD_WoodWindows_D",
      "pbrMetallicRoughness" : {
        "baseColorFactor" : [ 0.3, 0.3, 0.9, 1.0 ],
        "metallicFactor" : 0.1,
        "roughnessFactor" : 0.5
      }
    },
    {
      "name" : "MI_ENV_LKNVLD_WoodPlain_Beige",
      "pbrMetallicRoughness" : {
        "baseColorFactor" : [ 0.9, 0.9, 0.9, 1.0 ],
        "metallicFactor" : 0.1,
        "roughnessFactor" : 0.5
      }
    },
    {
      "name" : "MI_ENV_LKNVLD_BambooWall",
      "pbrMetallicRoughness" : {
        "baseColorFactor" : [ 0.9, 0.9, 0.3, 1.0 ],
        "metallicFactor" : 0.1,
        "roughnessFactor" : 0.5
      }
    },
    {
      "name" : "MI_ENV_LKNVLD_Aircon_H",
      "pbrMetallicRoughness" : {
        "baseColorFactor" : [ 0.9, 0.3, 0.9, 1.0 ],
        "metallicFactor" : 0.1,
        "roughnessFactor" : 0.5
      }
    },
    {
      "name" : "MI_ENV_LKNVLD_MetalRoof_Green",
      "pbrMetallicRoughness" : {
        "baseColorFactor" : [ 0.3, 0.9, 0.9, 1.0 ],
        "metallicFactor" : 0.1,
        "roughnessFactor" : 0.5
      }
    },
    {
      "name" : "MI_ENV_LKNVLD_Curtain_F",
      "pbrMetallicRoughness" : {
        "baseColorFactor" : [ 1, 0.3, 0.3, 1.0 ],
        "metallicFactor" : 0.1,
        "roughnessFactor" : 0.5
      }
    },
    {
      "name" : "MI_ENV_LKNVLD_WoodPlain_Brown",
      "pbrMetallicRoughness" : {
        "baseColorFactor" : [ 0.6, 0.3, 0.3, 1.0 ],
        "metallicFactor" : 0.1,
        "roughnessFactor" : 0.5
      }
    },
    {
      "name" : "MI_ENV_LKNVLD_ClanSignboard_I",
      "pbrMetallicRoughness" : {
        "baseColorFactor" : [ 1, 0.9, 0.3, 1.0 ],
        "metallicFactor" : 0.1,
        "roughnessFactor" : 0.5
      }
    },
    {
      "name" : "MI_ENV_LKNVLD_Plaster_White",
      "pbrMetallicRoughness" : {
        "baseColorFactor" : [ 1, 0.3, 0.9, 1.0 ],
        "metallicFactor" : 0.1,
        "roughnessFactor" : 0.5
      }
    },
    {
      "name" : "MI_ENV_LKNVLD_WoodWindows_C",
      "pbrMetallicRoughness" : {
        "baseColorFactor" : [ 0.6, 0.9, 0.9, 1.0 ],
        "metallicFactor" : 0.1,
        "roughnessFactor" : 0.5
      }
    },
    {
      "name" : "MI_ENV_LKNVLD_MetalRoofDark",
      "pbrMetallicRoughness" : {
        "baseColorFactor" : [ 0.6, 0.9, 0.3, 1.0 ],
        "metallicFactor" : 0.1,
        "roughnessFactor" : 0.5
      }
    },
    {
      "name" : "MI_T_ENV_LKNVLD_StoneStairs",
      "pbrMetallicRoughness" : {
        "baseColorFactor" : [ 0.6, 0.3, 0.9, 1.0 ],
        "metallicFactor" : 0.1,
        "roughnessFactor" : 0.5
      }
    },
    {
      "name" : "MI_T_ENV_LKNVLD_StoneTrim",
      "pbrMetallicRoughness" : {
        "baseColorFactor" : [ 1, 0.9, 0.9, 1.0 ],
        "metallicFactor" : 0.1,
        "roughnessFactor" : 0.5
      }
    },
    {
      "name" : "MI_ENV_LKNVLD_ClanSignboard_H",
      "pbrMetallicRoughness" : {
        "baseColorFactor" : [ 0.3, 1, 0.3, 1.0 ],
        "metallicFactor" : 0.1,
        "roughnessFactor" : 0.5
      }
    },
    {
      "name" : "MI_ENV_LKNVLD_Pipe_A",
      "pbrMetallicRoughness" : {
        "baseColorFactor" : [ 0.9, 1, 0.3, 1.0 ],
        "metallicFactor" : 0.1,
        "roughnessFactor" : 0.5
      }
    }
  ],
  "meshes" : [
    {
      "primitives" : [
        {
          "attributes" : {
            "POSITION" : 1,
            "NORMAL" : 2,
            "TANGENT" : 3,
            "COLOR_0" : 4,
            "TEXCOORD_0" : 5,
            "TEXCOORD_1" : 6,
            "TEXCOORD_2" : 7,
            "TEXCOORD_3" : 8
          },
          "indices" : 0,
          "material" : 0
        },
        {
          "attributes" : {
            "POSITION" : 10,
            "NORMAL" : 11,
            "TANGENT" : 12,
            "COLOR_0" : 13,
            "TEXCOORD_0" : 14,
            "TEXCOORD_1" : 15,
            "TEXCOORD_2" : 16,
            "TEXCOORD_3" : 17
          },
          "indices" : 9,
          "material" : 1
        },
        {
          "attributes" : {
            "POSITION" : 19,
            "NORMAL" : 20,
            "TANGENT" : 21,
            "COLOR_0" : 22,
            "TEXCOORD_0" : 23,
            "TEXCOORD_1" : 24,
            "TEXCOORD_2" : 25,
            "TEXCOORD_3" : 26
          },
          "indices" : 18,
          "material" : 2
        },
        {
          "attributes" : {
            "POSITION" : 28,
            "NORMAL" : 29,
            "TANGENT" : 30,
            "COLOR_0" : 31,
            "TEXCOORD_0" : 32,
            "TEXCOORD_1" : 33,
            "TEXCOORD_2" : 34,
            "TEXCOORD_3" : 35
          },
          "indices" : 27,
          "material" : 3
        },
        {
          "attributes" : {
            "POSITION" : 37,
            "NORMAL" : 38,
            "TANGENT" : 39,
            "COLOR_0" : 40,
            "TEXCOORD_0" : 41,
            "TEXCOORD_1" : 42,
            "TEXCOORD_2" : 43,
            "TEXCOORD_3" : 44
          },
          "indices" : 36,
          "material" : 4
        },
        {
          "attributes" : {
            "POSITION" : 46,
            "NORMAL" : 47,
            "TANGENT" : 48,
            "COLOR_0" : 49,
            "TEXCOORD_0" : 50,
            "TEXCOORD_1" : 51,
            "TEXCOORD_2" : 52,
            "TEXCOORD_3" : 53
          },
          "indices" : 45,
          "material" : 5
        },
        {
          "attributes" : {
            "POSITION" : 55,
            "NORMAL" : 56,
            "TANGENT" : 57,
            "COLOR_0" : 58,
            "TEXCOORD_0" : 59,
            "TEXCOORD_1" : 60,
            "TEXCOORD_2" : 61,
            "TEXCOORD_3" : 62
          },
          "indices" : 54,
          "material" : 6
        },
        {
          "attributes" : {
            "POSITION" : 64,
            "NORMAL" : 65,
            "TANGENT" : 66,
            "COLOR_0" : 67,
            "TEXCOORD_0" : 68,
            "TEXCOORD_1" : 69,
            "TEXCOORD_2" : 70,
            "TEXCOORD_3" : 71
          },
          "indices" : 63,
          "material" : 7
        },
        {
          "attributes" : {
            "POSITION" : 73,
            "NORMAL" : 74,
            "TANGENT" : 75,
            "COLOR_0" : 76,
            "TEXCOORD_0" : 77,
            "TEXCOORD_1" : 78,
            "TEXCOORD_2" : 79,
            "TEXCOORD_3" : 80
          },
          "indices" : 72,
          "material" : 8
        },
        {
          "attributes" : {
            "POSITION" : 82,
            "NORMAL" : 83,
            "TANGENT" : 84,
            "COLOR_0" : 85,
            "TEXCOORD_0" : 86,
            "TEXCOORD_1" : 87,
            "TEXCOORD_2" : 88,
            "TEXCOORD_3" : 89
          },
          "indices" : 81,
          "material" : 9
        },
        {
          "attributes" : {
            "POSITION" : 91,
            "NORMAL" : 92,
            "TANGENT" : 93,
            "COLOR_0" : 94,
            "TEXCOORD_0" : 95,
            "TEXCOORD_1" : 96,
            "TEXCOORD_2" : 97,
            "TEXCOORD_3" : 98
          },
          "indices" : 90,
          "material" : 10
        },
        {
          "attributes" : {
            "POSITION" : 100,
            "NORMAL" : 101,
            "TANGENT" : 102,
            "COLOR_0" : 103,
            "TEXCOORD_0" : 104,
            "TEXCOORD_1" : 105,
            "TEXCOORD_2" : 106,
            "TEXCOORD_3" : 107
          },
          "indices" : 99,
          "material" : 11
        },
        {
          "attributes" : {
            "POSITION" : 109,
            "NORMAL" : 110,
            "TANGENT" : 111,
            "COLOR_0" : 112,
            "TEXCOORD_0" : 113,
            "TEXCOORD_1" : 114,
            "TEXCOORD_2" : 115,
            "TEXCOORD_3" : 116
          },
          "indices" : 108,
          "material" : 12
        },
        {
          "attributes" : {
            "POSITION" : 118,
            "NORMAL" : 119,
            "TANGENT" : 120,
            "COLOR_0" : 121,
            "TEXCOORD_0" : 122,
            "TEXCOORD_1" : 123,
            "TEXCOORD_2" : 124,
            "TEXCOORD_3" : 125
          },
          "indices" : 117,
          "material" : 13
        },
        {
          "attributes" : {
            "POSITION" : 127,
            "NORMAL" : 128,
            "TANGENT" : 129,
            "COLOR_0" : 130,
            "TEXCOORD_0" : 131,
            "TEXCOORD_1" : 132,
            "TEXCOORD_2" : 133,
            "TEXCOORD_3" : 134
          },
          "indices" : 126,
          "material" : 14
        },
        {
          "attributes" : {
            "POSITION" : 136,
            "NORMAL" : 137,
            "TANGENT" : 138,
            "COLOR_0" : 139,
            "TEXCOORD_0" : 140,
            "TEXCOORD_1" : 141,
            "TEXCOORD_2" : 142,
            "TEXCOORD_3" : 143
          },
          "indices" : 135,
          "material" : 15
        },
        {
          "attributes" : {
            "POSITION" : 145,
            "NORMAL" : 146,
            "TANGENT" : 147,
            "COLOR_0" : 148,
            "TEXCOORD_0" : 149,
            "TEXCOORD_1" : 150,
            "TEXCOORD_2" : 151,
            "TEXCOORD_3" : 152
          },
          "indices" : 144,
          "material" : 16
        },
        {
          "attributes" : {
            "POSITION" : 154,
            "NORMAL" : 155,
            "TANGENT" : 156,
            "COLOR_0" : 157,
            "TEXCOORD_0" : 158,
            "TEXCOORD_1" : 159,
            "TEXCOORD_2" : 160,
            "TEXCOORD_3" : 161
          },
          "indices" : 153,
          "material" : 17
        }
      ],
      "name" : "SM_ENV_LKNVLD_Hatago_Front_Lod3"
    }
  ],
  "buffers" : [
    {
      "uri" : "SM_ENV_LKNVLD_Hatago_Front_Lod3.bin",
      "byteLength" : 357524
    }
  ],
  "bufferViews" : [
    {
      "buffer" : 0,
      "byteOffset" : 0,
      "byteLength" : 2556
    },
    {
      "buffer" : 0,
      "byteOffset" : 2556,
      "byteLength" : 10272
    },
    {
      "buffer" : 0,
      "byteOffset" : 12828,
      "byteLength" : 10272
    },
    {
      "buffer" : 0,
      "byteOffset" : 23100,
      "byteLength" : 13696
    },
    {
      "buffer" : 0,
      "byteOffset" : 36796,
      "byteLength" : 3424
    },
    {
      "buffer" : 0,
      "byteOffset" : 40220,
      "byteLength" : 6848
    },
    {
      "buffer" : 0,
      "byteOffset" : 47068,
      "byteLength" : 6848
    },
    {
      "buffer" : 0,
      "byteOffset" : 53916,
      "byteLength" : 6848
    },
    {
      "buffer" : 0,
      "byteOffset" : 60764,
      "byteLength" : 6848
    },
    {
      "buffer" : 0,
      "byteOffset" : 67612,
      "byteLength" : 3768
    },
    {
      "buffer" : 0,
      "byteOffset" : 71380,
      "byteLength" : 7392
    },
    {
      "buffer" : 0,
      "byteOffset" : 78772,
      "byteLength" : 7392
    },
    {
      "buffer" : 0,
      "byteOffset" : 86164,
      "byteLength" : 9856
    },
    {
      "buffer" : 0,
      "byteOffset" : 96020,
      "byteLength" : 2464
    },
    {
      "buffer" : 0,
      "byteOffset" : 98484,
      "byteLength" : 4928
    },
    {
      "buffer" : 0,
      "byteOffset" : 103412,
      "byteLength" : 4928
    },
    {
      "buffer" : 0,
      "byteOffset" : 108340,
      "byteLength" : 4928
    },
    {
      "buffer" : 0,
      "byteOffset" : 113268,
      "byteLength" : 4928
    },
    {
      "buffer" : 0,
      "byteOffset" : 118196,
      "byteLength" : 1860
    },
    {
      "buffer" : 0,
      "byteOffset" : 120056,
      "byteLength" : 3336
    },
    {
      "buffer" : 0,
      "byteOffset" : 123392,
      "byteLength" : 3336
    },
    {
      "buffer" : 0,
      "byteOffset" : 126728,
      "byteLength" : 4448
    },
    {
      "buffer" : 0,
      "byteOffset" : 131176,
      "byteLength" : 1112
    },
    {
      "buffer" : 0,
      "byteOffset" : 132288,
      "byteLength" : 2224
    },
    {
      "buffer" : 0,
      "byteOffset" : 134512,
      "byteLength" : 2224
    },
    {
      "buffer" : 0,
      "byteOffset" : 136736,
      "byteLength" : 2224
    },
    {
      "buffer" : 0,
      "byteOffset" : 138960,
      "byteLength" : 2224
    },
    {
      "buffer" : 0,
      "byteOffset" : 141184,
      "byteLength" : 48
    },
    {
      "buffer" : 0,
      "byteOffset" : 141232,
      "byteLength" : 192
    },
    {
      "buffer" : 0,
      "byteOffset" : 141424,
      "byteLength" : 192
    },
    {
      "buffer" : 0,
      "byteOffset" : 141616,
      "byteLength" : 256
    },
    {
      "buffer" : 0,
      "byteOffset" : 141872,
      "byteLength" : 64
    },
    {
      "buffer" : 0,
      "byteOffset" : 141936,
      "byteLength" : 128
    },
    {
      "buffer" : 0,
      "byteOffset" : 142064,
      "byteLength" : 128
    },
    {
      "buffer" : 0,
      "byteOffset" : 142192,
      "byteLength" : 128
    },
    {
      "buffer" : 0,
      "byteOffset" : 142320,
      "byteLength" : 128
    },
    {
      "buffer" : 0,
      "byteOffset" : 142448,
      "byteLength" : 600
    },
    {
      "buffer" : 0,
      "byteOffset" : 143048,
      "byteLength" : 2376
    },
    {
      "buffer" : 0,
      "byteOffset" : 145424,
      "byteLength" : 2376
    },
    {
      "buffer" : 0,
      "byteOffset" : 147800,
      "byteLength" : 3168
    },
    {
      "buffer" : 0,
      "byteOffset" : 150968,
      "byteLength" : 792
    },
    {
      "buffer" : 0,
      "byteOffset" : 151760,
      "byteLength" : 1584
    },
    {
      "buffer" : 0,
      "byteOffset" : 153344,
      "byteLength" : 1584
    },
    {
      "buffer" : 0,
      "byteOffset" : 154928,
      "byteLength" : 1584
    },
    {
      "buffer" : 0,
      "byteOffset" : 156512,
      "byteLength" : 1584
    },
    {
      "buffer" : 0,
      "byteOffset" : 158096,
      "byteLength" : 2564
    },
    {
      "buffer" : 0,
      "byteOffset" : 160660,
      "byteLength" : 3900
    },
    {
      "buffer" : 0,
      "byteOffset" : 164560,
      "byteLength" : 3900
    },
    {
      "buffer" : 0,
      "byteOffset" : 168460,
      "byteLength" : 5200
    },
    {
      "buffer" : 0,
      "byteOffset" : 173660,
      "byteLength" : 1300
    },
    {
      "buffer" : 0,
      "byteOffset" : 174960,
      "byteLength" : 2600
    },
    {
      "buffer" : 0,
      "byteOffset" : 177560,
      "byteLength" : 2600
    },
    {
      "buffer" : 0,
      "byteOffset" : 180160,
      "byteLength" : 2600
    },
    {
      "buffer" : 0,
      "byteOffset" : 182760,
      "byteLength" : 2600
    },
    {
      "buffer" : 0,
      "byteOffset" : 185360,
      "byteLength" : 144
    },
    {
      "buffer" : 0,
      "byteOffset" : 185504,
      "byteLength" : 576
    },
    {
      "buffer" : 0,
      "byteOffset" : 186080,
      "byteLength" : 576
    },
    {
      "buffer" : 0,
      "byteOffset" : 186656,
      "byteLength" : 768
    },
    {
      "buffer" : 0,
      "byteOffset" : 187424,
      "byteLength" : 192
    },
    {
      "buffer" : 0,
      "byteOffset" : 187616,
      "byteLength" : 384
    },
    {
      "buffer" : 0,
      "byteOffset" : 188000,
      "byteLength" : 384
    },
    {
      "buffer" : 0,
      "byteOffset" : 188384,
      "byteLength" : 384
    },
    {
      "buffer" : 0,
      "byteOffset" : 188768,
      "byteLength" : 384
    },
    {
      "buffer" : 0,
      "byteOffset" : 189152,
      "byteLength" : 404
    },
    {
      "buffer" : 0,
      "byteOffset" : 189556,
      "byteLength" : 1332
    },
    {
      "buffer" : 0,
      "byteOffset" : 190888,
      "byteLength" : 1332
    },
    {
      "buffer" : 0,
      "byteOffset" : 192220,
      "byteLength" : 1776
    },
    {
      "buffer" : 0,
      "byteOffset" : 193996,
      "byteLength" : 444
    },
    {
      "buffer" : 0,
      "byteOffset" : 194440,
      "byteLength" : 888
    },
    {
      "buffer" : 0,
      "byteOffset" : 195328,
      "byteLength" : 888
    },
    {
      "buffer" : 0,
      "byteOffset" : 196216,
      "byteLength" : 888
    },
    {
      "buffer" : 0,
      "byteOffset" : 197104,
      "byteLength" : 888
    },
    {
      "buffer" : 0,
      "byteOffset" : 197992,
      "byteLength" : 156
    },
    {
      "buffer" : 0,
      "byteOffset" : 198148,
      "byteLength" : 492
    },
    {
      "buffer" : 0,
      "byteOffset" : 198640,
      "byteLength" : 492
    },
    {
      "buffer" : 0,
      "byteOffset" : 199132,
      "byteLength" : 656
    },
    {
      "buffer" : 0,
      "byteOffset" : 199788,
      "byteLength" : 164
    },
    {
      "buffer" : 0,
      "byteOffset" : 199952,
      "byteLength" : 328
    },
    {
      "buffer" : 0,
      "byteOffset" : 200280,
      "byteLength" : 328
    },
    {
      "buffer" : 0,
      "byteOffset" : 200608,
      "byteLength" : 328
    },
    {
      "buffer" : 0,
      "byteOffset" : 200936,
      "byteLength" : 328
    },
    {
      "buffer" : 0,
      "byteOffset" : 201264,
      "byteLength" : 2804
    },
    {
      "buffer" : 0,
      "byteOffset" : 204068,
      "byteLength" : 8352
    },
    {
      "buffer" : 0,
      "byteOffset" : 212420,
      "byteLength" : 8352
    },
    {
      "buffer" : 0,
      "byteOffset" : 220772,
      "byteLength" : 11136
    },
    {
      "buffer" : 0,
      "byteOffset" : 231908,
      "byteLength" : 2784
    },
    {
      "buffer" : 0,
      "byteOffset" : 234692,
      "byteLength" : 5568
    },
    {
      "buffer" : 0,
      "byteOffset" : 240260,
      "byteLength" : 5568
    },
    {
      "buffer" : 0,
      "byteOffset" : 245828,
      "byteLength" : 5568
    },
    {
      "buffer" : 0,
      "byteOffset" : 251396,
      "byteLength" : 5568
    },
    {
      "buffer" : 0,
      "byteOffset" : 256964,
      "byteLength" : 2868
    },
    {
      "buffer" : 0,
      "byteOffset" : 259832,
      "byteLength" : 7044
    },
    {
      "buffer" : 0,
      "byteOffset" : 266876,
      "byteLength" : 7044
    },
    {
      "buffer" : 0,
      "byteOffset" : 273920,
      "byteLength" : 9392
    },
    {
      "buffer" : 0,
      "byteOffset" : 283312,
      "byteLength" : 2348
    },
    {
      "buffer" : 0,
      "byteOffset" : 285660,
      "byteLength" : 4696
    },
    {
      "buffer" : 0,
      "byteOffset" : 290356,
      "byteLength" : 4696
    },
    {
      "buffer" : 0,
      "byteOffset" : 295052,
      "byteLength" : 4696
    },
    {
      "buffer" : 0,
      "byteOffset" : 299748,
      "byteLength" : 4696
    },
    {
      "buffer" : 0,
      "byteOffset" : 304444,
      "byteLength" : 200
    },
    {
      "buffer" : 0,
      "byteOffset" : 304644,
      "byteLength" : 732
    },
    {
      "buffer" : 0,
      "byteOffset" : 305376,
      "byteLength" : 732
    },
    {
      "buffer" : 0,
      "byteOffset" : 306108,
      "byteLength" : 976
    },
    {
      "buffer" : 0,
      "byteOffset" : 307084,
      "byteLength" : 244
    },
    {
      "buffer" : 0,
      "byteOffset" : 307328,
      "byteLength" : 488
    },
    {
      "buffer" : 0,
      "byteOffset" : 307816,
      "byteLength" : 488
    },
    {
      "buffer" : 0,
      "byteOffset" : 308304,
      "byteLength" : 488
    },
    {
      "buffer" : 0,
      "byteOffset" : 308792,
      "byteLength" : 488
    },
    {
      "buffer" : 0,
      "byteOffset" : 309280,
      "byteLength" : 116
    },
    {
      "buffer" : 0,
      "byteOffset" : 309396,
      "byteLength" : 444
    },
    {
      "buffer" : 0,
      "byteOffset" : 309840,
      "byteLength" : 444
    },
    {
      "buffer" : 0,
      "byteOffset" : 310284,
      "byteLength" : 592
    },
    {
      "buffer" : 0,
      "byteOffset" : 310876,
      "byteLength" : 148
    },
    {
      "buffer" : 0,
      "byteOffset" : 311024,
      "byteLength" : 296
    },
    {
      "buffer" : 0,
      "byteOffset" : 311320,
      "byteLength" : 296
    },
    {
      "buffer" : 0,
      "byteOffset" : 311616,
      "byteLength" : 296
    },
    {
      "buffer" : 0,
      "byteOffset" : 311912,
      "byteLength" : 296
    },
    {
      "buffer" : 0,
      "byteOffset" : 312208,
      "byteLength" : 240
    },
    {
      "buffer" : 0,
      "byteOffset" : 312448,
      "byteLength" : 864
    },
    {
      "buffer" : 0,
      "byteOffset" : 313312,
      "byteLength" : 864
    },
    {
      "buffer" : 0,
      "byteOffset" : 314176,
      "byteLength" : 1152
    },
    {
      "buffer" : 0,
      "byteOffset" : 315328,
      "byteLength" : 288
    },
    {
      "buffer" : 0,
      "byteOffset" : 315616,
      "byteLength" : 576
    },
    {
      "buffer" : 0,
      "byteOffset" : 316192,
      "byteLength" : 576
    },
    {
      "buffer" : 0,
      "byteOffset" : 316768,
      "byteLength" : 576
    },
    {
      "buffer" : 0,
      "byteOffset" : 317344,
      "byteLength" : 576
    },
    {
      "buffer" : 0,
      "byteOffset" : 317920,
      "byteLength" : 420
    },
    {
      "buffer" : 0,
      "byteOffset" : 318340,
      "byteLength" : 1488
    },
    {
      "buffer" : 0,
      "byteOffset" : 319828,
      "byteLength" : 1488
    },
    {
      "buffer" : 0,
      "byteOffset" : 321316,
      "byteLength" : 1984
    },
    {
      "buffer" : 0,
      "byteOffset" : 323300,
      "byteLength" : 496
    },
    {
      "buffer" : 0,
      "byteOffset" : 323796,
      "byteLength" : 992
    },
    {
      "buffer" : 0,
      "byteOffset" : 324788,
      "byteLength" : 992
    },
    {
      "buffer" : 0,
      "byteOffset" : 325780,
      "byteLength" : 992
    },
    {
      "buffer" : 0,
      "byteOffset" : 326772,
      "byteLength" : 992
    },
    {
      "buffer" : 0,
      "byteOffset" : 327764,
      "byteLength" : 468
    },
    {
      "buffer" : 0,
      "byteOffset" : 328232,
      "byteLength" : 1428
    },
    {
      "buffer" : 0,
      "byteOffset" : 329660,
      "byteLength" : 1428
    },
    {
      "buffer" : 0,
      "byteOffset" : 331088,
      "byteLength" : 1904
    },
    {
      "buffer" : 0,
      "byteOffset" : 332992,
      "byteLength" : 476
    },
    {
      "buffer" : 0,
      "byteOffset" : 333468,
      "byteLength" : 952
    },
    {
      "buffer" : 0,
      "byteOffset" : 334420,
      "byteLength" : 952
    },
    {
      "buffer" : 0,
      "byteOffset" : 335372,
      "byteLength" : 952
    },
    {
      "buffer" : 0,
      "byteOffset" : 336324,
      "byteLength" : 952
    },
    {
      "buffer" : 0,
      "byteOffset" : 337276,
      "byteLength" : 464
    },
    {
      "buffer" : 0,
      "byteOffset" : 337740,
      "byteLength" : 960
    },
    {
      "buffer" : 0,
      "byteOffset" : 338700,
      "byteLength" : 960
    },
    {
      "buffer" : 0,
      "byteOffset" : 339660,
      "byteLength" : 1280
    },
    {
      "buffer" : 0,
      "byteOffset" : 340940,
      "byteLength" : 320
    },
    {
      "buffer" : 0,
      "byteOffset" : 341260,
      "byteLength" : 640
    },
    {
      "buffer" : 0,
      "byteOffset" : 341900,
      "byteLength" : 640
    },
    {
      "buffer" : 0,
      "byteOffset" : 342540,
      "byteLength" : 640
    },
    {
      "buffer" : 0,
      "byteOffset" : 343180,
      "byteLength" : 640
    },
    {
      "buffer" : 0,
      "byteOffset" : 343820,
      "byteLength" : 936
    },
    {
      "buffer" : 0,
      "byteOffset" : 344756,
      "byteLength" : 2016
    },
    {
      "buffer" : 0,
      "byteOffset" : 346772,
      "byteLength" : 2016
    },
    {
      "buffer" : 0,
      "byteOffset" : 348788,
      "byteLength" : 2688
    },
    {
      "buffer" : 0,
      "byteOffset" : 351476,
      "byteLength" : 672
    },
    {
      "buffer" : 0,
      "byteOffset" : 352148,
      "byteLength" : 1344
    },
    {
      "buffer" : 0,
      "byteOffset" : 353492,
      "byteLength" : 1344
    },
    {
      "buffer" : 0,
      "byteOffset" : 354836,
      "byteLength" : 1344
    },
    {
      "buffer" : 0,
      "byteOffset" : 356180,
      "byteLength" : 1344
    }
  ],
  "accessors" : [
    {
      "bufferView" : 0,
      "componentType" : 5123,
      "count" : 1278,
      "type" : "SCALAR"
    },
    {
      "bufferView" : 1,
      "min" : [ -33.4972, 4.1635, -8.44826 ],
      "max" : [ -29.4227, 6.91912, 7.89424 ],
      "componentType" : 5126,
      "count" : 856,
      "type" : "VEC3"
    },
    {
      "bufferView" : 2,
      "componentType" : 5126,
      "count" : 856,
      "type" : "VEC3"
    },
    {
      "bufferView" : 3,
      "componentType" : 5126,
      "count" : 856,
      "type" : "VEC4"
    },
    {
      "bufferView" : 4,
      "normalized" : true,
      "componentType" : 5121,
      "count" : 856,
      "type" : "VEC4"
    },
    {
      "bufferView" : 5,
      "componentType" : 5126,
      "count" : 856,
      "type" : "VEC2"
    },
    {
      "bufferView" : 6,
      "componentType" : 5126,
      "count" : 856,
      "type" : "VEC2"
    },
    {
      "bufferView" : 7,
      "componentType" : 5126,
      "count" : 856,
      "type" : "VEC2"
    },
    {
      "bufferView" : 8,
      "componentType" : 5126,
      "count" : 856,
      "type" : "VEC2"
    },
    {
      "bufferView" : 9,
      "componentType" : 5123,
      "count" : 1884,
      "type" : "SCALAR"
    },
    {
      "bufferView" : 10,
      "min" : [ -33.4972, 6.66311, -7.40516 ],
      "max" : [ -30.7552, 9.12774, 6.85004 ],
      "componentType" : 5126,
      "count" : 616,
      "type" : "VEC3"
    },
    {
      "bufferView" : 11,
      "componentType" : 5126,
      "count" : 616,
      "type" : "VEC3"
    },
    {
      "bufferView" : 12,
      "componentType" : 5126,
      "count" : 616,
      "type" : "VEC4"
    },
    {
      "bufferView" : 13,
      "normalized" : true,
      "componentType" : 5121,
      "count" : 616,
      "type" : "VEC4"
    },
    {
      "bufferView" : 14,
      "componentType" : 5126,
      "count" : 616,
      "type" : "VEC2"
    },
    {
      "bufferView" : 15,
      "componentType" : 5126,
      "count" : 616,
      "type" : "VEC2"
    },
    {
      "bufferView" : 16,
      "componentType" : 5126,
      "count" : 616,
      "type" : "VEC2"
    },
    {
      "bufferView" : 17,
      "componentType" : 5126,
      "count" : 616,
      "type" : "VEC2"
    },
    {
      "bufferView" : 18,
      "componentType" : 5123,
      "count" : 930,
      "type" : "SCALAR"
    },
    {
      "bufferView" : 19,
      "min" : [ -30.669, 4.12499, -7.21268 ],
      "max" : [ -29.8734, 5.81089, 6.6152 ],
      "componentType" : 5126,
      "count" : 278,
      "type" : "VEC3"
    },
    {
      "bufferView" : 20,
      "componentType" : 5126,
      "count" : 278,
      "type" : "VEC3"
    },
    {
      "bufferView" : 21,
      "componentType" : 5126,
      "count" : 278,
      "type" : "VEC4"
    },
    {
      "bufferView" : 22,
      "normalized" : true,
      "componentType" : 5121,
      "count" : 278,
      "type" : "VEC4"
    },
    {
      "bufferView" : 23,
      "componentType" : 5126,
      "count" : 278,
      "type" : "VEC2"
    },
    {
      "bufferView" : 24,
      "componentType" : 5126,
      "count" : 278,
      "type" : "VEC2"
    },
    {
      "bufferView" : 25,
      "componentType" : 5126,
      "count" : 278,
      "type" : "VEC2"
    },
    {
      "bufferView" : 26,
      "componentType" : 5126,
      "count" : 278,
      "type" : "VEC2"
    },
    {
      "bufferView" : 27,
      "componentType" : 5123,
      "count" : 24,
      "type" : "SCALAR"
    },
    {
      "bufferView" : 28,
      "min" : [ -31.6361, 1.23786, -3.69546 ],
      "max" : [ -31.5361, 4.0006, 3.14154 ],
      "componentType" : 5126,
      "count" : 16,
      "type" : "VEC3"
    },
    {
      "bufferView" : 29,
      "componentType" : 5126,
      "count" : 16,
      "type" : "VEC3"
    },
    {
      "bufferView" : 30,
      "componentType" : 5126,
      "count" : 16,
      "type" : "VEC4"
    },
    {
      "bufferView" : 31,
      "normalized" : true,
      "componentType" : 5121,
      "count" : 16,
      "type" : "VEC4"
    },
    {
      "bufferView" : 32,
      "componentType" : 5126,
      "count" : 16,
      "type" : "VEC2"
    },
    {
      "bufferView" : 33,
      "componentType" : 5126,
      "count" : 16,
      "type" : "VEC2"
    },
    {
      "bufferView" : 34,
      "componentType" : 5126,
      "count" : 16,
      "type" : "VEC2"
    },
    {
      "bufferView" : 35,
      "componentType" : 5126,
      "count" : 16,
      "type" : "VEC2"
    },
    {
      "bufferView" : 36,
      "componentType" : 5123,
      "count" : 300,
      "type" : "SCALAR"
    },
    {
      "bufferView" : 37,
      "min" : [ -31.6361, 0.327986, -4.19546 ],
      "max" : [ -31.3054, 4.1635, 3.64144 ],
      "componentType" : 5126,
      "count" : 198,
      "type" : "VEC3"
    },
    {
      "bufferView" : 38,
      "componentType" : 5126,
      "count" : 198,
      "type" : "VEC3"
    },
    {
      "bufferView" : 39,
      "componentType" : 5126,
      "count" : 198,
      "type" : "VEC4"
    },
    {
      "bufferView" : 40,
      "normalized" : true,
      "componentType" : 5121,
      "count" : 198,
      "type" : "VEC4"
    },
    {
      "bufferView" : 41,
      "componentType" : 5126,
      "count" : 198,
      "type" : "VEC2"
    },
    {
      "bufferView" : 42,
      "componentType" : 5126,
      "count" : 198,
      "type" : "VEC2"
    },
    {
      "bufferView" : 43,
      "componentType" : 5126,
      "count" : 198,
      "type" : "VEC2"
    },
    {
      "bufferView" : 44,
      "componentType" : 5126,
      "count" : 198,
      "type" : "VEC2"
    },
    {
      "bufferView" : 45,
      "componentType" : 5123,
      "count" : 1281,
      "type" : "SCALAR"
    },
    {
      "bufferView" : 46,
      "min" : [ -32.8251, 0.407258, -7.48461 ],
      "max" : [ -30.7612, 6.61915, 6.93252 ],
      "componentType" : 5126,
      "count" : 325,
      "type" : "VEC3"
    },
    {
      "bufferView" : 47,
      "componentType" : 5126,
      "count" : 325,
      "type" : "VEC3"
    },
    {
      "bufferView" : 48,
      "componentType" : 5126,
      "count" : 325,
      "type" : "VEC4"
    },
    {
      "bufferView" : 49,
      "normalized" : true,
      "componentType" : 5121,
      "count" : 325,
      "type" : "VEC4"
    },
    {
      "bufferView" : 50,
      "componentType" : 5126,
      "count" : 325,
      "type" : "VEC2"
    },
    {
      "bufferView" : 51,
      "componentType" : 5126,
      "count" : 325,
      "type" : "VEC2"
    },
    {
      "bufferView" : 52,
      "componentType" : 5126,
      "count" : 325,
      "type" : "VEC2"
    },
    {
      "bufferView" : 53,
      "componentType" : 5126,
      "count" : 325,
      "type" : "VEC2"
    },
    {
      "bufferView" : 54,
      "componentType" : 5123,
      "count" : 72,
      "type" : "SCALAR"
    },
    {
      "bufferView" : 55,
      "min" : [ -31.5661, 0.327986, -4.19546 ],
      "max" : [ -31.3658, 4.11426, 3.64144 ],
      "componentType" : 5126,
      "count" : 48,
      "type" : "VEC3"
    },
    {
      "bufferView" : 56,
      "componentType" : 5126,
      "count" : 48,
      "type" : "VEC3"
    },
    {
      "bufferView" : 57,
      "componentType" : 5126,
      "count" : 48,
      "type" : "VEC4"
    },
    {
      "bufferView" : 58,
      "normalized" : true,
      "componentType" : 5121,
      "count" : 48,
      "type" : "VEC4"
    },
    {
      "bufferView" : 59,
      "componentType" : 5126,
      "count" : 48,
      "type" : "VEC2"
    },
    {
      "bufferView" : 60,
      "componentType" : 5126,
      "count" : 48,
      "type" : "VEC2"
    },
    {
      "bufferView" : 61,
      "componentType" : 5126,
      "count" : 48,
      "type" : "VEC2"
    },
    {
      "bufferView" : 62,
      "componentType" : 5126,
      "count" : 48,
      "type" : "VEC2"
    },
    {
      "bufferView" : 63,
      "componentType" : 5123,
      "count" : 201,
      "type" : "SCALAR"
    },
    {
      "bufferView" : 64,
      "min" : [ -33.3808, 3.61529, -7.4056 ],
      "max" : [ -30.8108, 8.62813, 6.85917 ],
      "componentType" : 5126,
      "count" : 111,
      "type" : "VEC3"
    },
    {
      "bufferView" : 65,
      "componentType" : 5126,
      "count" : 111,
      "type" : "VEC3"
    },
    {
      "bufferView" : 66,
      "componentType" : 5126,
      "count" : 111,
      "type" : "VEC4"
    },
    {
      "bufferView" : 67,
      "normalized" : true,
      "componentType" : 5121,
      "count" : 111,
      "type" : "VEC4"
    },
    {
      "bufferView" : 68,
      "componentType" : 5126,
      "count" : 111,
      "type" : "VEC2"
    },
    {
      "bufferView" : 69,
      "componentType" : 5126,
      "count" : 111,
      "type" : "VEC2"
    },
    {
      "bufferView" : 70,
      "componentType" : 5126,
      "count" : 111,
      "type" : "VEC2"
    },
    {
      "bufferView" : 71,
      "componentType" : 5126,
      "count" : 111,
      "type" : "VEC2"
    },
    {
      "bufferView" : 72,
      "componentType" : 5123,
      "count" : 78,
      "type" : "SCALAR"
    },
    {
      "bufferView" : 73,
      "min" : [ -31.3319, 3.39238, -4.19546 ],
      "max" : [ -31.2772, 4.10059, 3.64154 ],
      "componentType" : 5126,
      "count" : 41,
      "type" : "VEC3"
    },
    {
      "bufferView" : 74,
      "componentType" : 5126,
      "count" : 41,
      "type" : "VEC3"
    },
    {
      "bufferView" : 75,
      "componentType" : 5126,
      "count" : 41,
      "type" : "VEC4"
    },
    {
      "bufferView" : 76,
      "normalized" : true,
      "componentType" : 5121,
      "count" : 41,
      "type" : "VEC4"
    },
    {
      "bufferView" : 77,
      "componentType" : 5126,
      "count" : 41,
      "type" : "VEC2"
    },
    {
      "bufferView" : 78,
      "componentType" : 5126,
      "count" : 41,
      "type" : "VEC2"
    },
    {
      "bufferView" : 79,
      "componentType" : 5126,
      "count" : 41,
      "type" : "VEC2"
    },
    {
      "bufferView" : 80,
      "componentType" : 5126,
      "count" : 41,
      "type" : "VEC2"
    },
    {
      "bufferView" : 81,
      "componentType" : 5123,
      "count" : 1401,
      "type" : "SCALAR"
    },
    {
      "bufferView" : 82,
      "min" : [ -34.1243, 0.231933, -8.36277 ],
      "max" : [ -30.8108, 8.48919, 7.79937 ],
      "componentType" : 5126,
      "count" : 696,
      "type" : "VEC3"
    },
    {
      "bufferView" : 83,
      "componentType" : 5126,
      "count" : 696,
      "type" : "VEC3"
    },
    {
      "bufferView" : 84,
      "componentType" : 5126,
      "count" : 696,
      "type" : "VEC4"
    },
    {
      "bufferView" : 85,
      "normalized" : true,
      "componentType" : 5121,
      "count" : 696,
      "type" : "VEC4"
    },
    {
      "bufferView" : 86,
      "componentType" : 5126,
      "count" : 696,
      "type" : "VEC2"
    },
    {
      "bufferView" : 87,
      "componentType" : 5126,
      "count" : 696,
      "type" : "VEC2"
    },
    {
      "bufferView" : 88,
      "componentType" : 5126,
      "count" : 696,
      "type" : "VEC2"
    },
    {
      "bufferView" : 89,
      "componentType" : 5126,
      "count" : 696,
      "type" : "VEC2"
    },
    {
      "bufferView" : 90,
      "componentType" : 5123,
      "count" : 1434,
      "type" : "SCALAR"
    },
    {
      "bufferView" : 91,
      "min" : [ -33.4758, 2.23082, -7.48378 ],
      "max" : [ -30.6278, 9.35246, 6.93734 ],
      "componentType" : 5126,
      "count" : 587,
      "type" : "VEC3"
    },
    {
      "bufferView" : 92,
      "componentType" : 5126,
      "count" : 587,
      "type" : "VEC3"
    },
    {
      "bufferView" : 93,
      "componentType" : 5126,
      "count" : 587,
      "type" : "VEC4"
    },
    {
      "bufferView" : 94,
      "normalized" : true,
      "componentType" : 5121,
      "count" : 587,
      "type" : "VEC4"
    },
    {
      "bufferView" : 95,
      "componentType" : 5126,
      "count" : 587,
      "type" : "VEC2"
    },
    {
      "bufferView" : 96,
      "componentType" : 5126,
      "count" : 587,
      "type" : "VEC2"
    },
    {
      "bufferView" : 97,
      "componentType" : 5126,
      "count" : 587,
      "type" : "VEC2"
    },
    {
      "bufferView" : 98,
      "componentType" : 5126,
      "count" : 587,
      "type" : "VEC2"
    },
    {
      "bufferView" : 99,
      "componentType" : 5123,
      "count" : 99,
      "type" : "SCALAR"
    },
    {
      "bufferView" : 100,
      "min" : [ -34.0976, 0.167507, -6.92421 ],
      "max" : [ -31.3261, 7.61503, 6.36579 ],
      "componentType" : 5126,
      "count" : 61,
      "type" : "VEC3"
    },
    {
      "bufferView" : 101,
      "componentType" : 5126,
      "count" : 61,
      "type" : "VEC3"
    },
    {
      "bufferView" : 102,
      "componentType" : 5126,
      "count" : 61,
      "type" : "VEC4"
    },
    {
      "bufferView" : 103,
      "normalized" : true,
      "componentType" : 5121,
      "count" : 61,
      "type" : "VEC4"
    },
    {
      "bufferView" : 104,
      "componentType" : 5126,
      "count" : 61,
      "type" : "VEC2"
    },
    {
      "bufferView" : 105,
      "componentType" : 5126,
      "count" : 61,
      "type" : "VEC2"
    },
    {
      "bufferView" : 106,
      "componentType" : 5126,
      "count" : 61,
      "type" : "VEC2"
    },
    {
      "bufferView" : 107,
      "componentType" : 5126,
      "count" : 61,
      "type" : "VEC2"
    },
    {
      "bufferView" : 108,
      "componentType" : 5123,
      "count" : 57,
      "type" : "SCALAR"
    },
    {
      "bufferView" : 109,
      "min" : [ -31.4561, 4.46292, -6.49078 ],
      "max" : [ -31.4361, 8.4701, 5.93687 ],
      "componentType" : 5126,
      "count" : 37,
      "type" : "VEC3"
    },
    {
      "bufferView" : 110,
      "componentType" : 5126,
      "count" : 37,
      "type" : "VEC3"
    },
    {
      "bufferView" : 111,
      "componentType" : 5126,
      "count" : 37,
      "type" : "VEC4"
    },
    {
      "bufferView" : 112,
      "normalized" : true,
      "componentType" : 5121,
      "count" : 37,
      "type" : "VEC4"
    },
    {
      "bufferView" : 113,
      "componentType" : 5126,
      "count" : 37,
      "type" : "VEC2"
    },
    {
      "bufferView" : 114,
      "componentType" : 5126,
      "count" : 37,
      "type" : "VEC2"
    },
    {
      "bufferView" : 115,
      "componentType" : 5126,
      "count" : 37,
      "type" : "VEC2"
    },
    {
      "bufferView" : 116,
      "componentType" : 5126,
      "count" : 37,
      "type" : "VEC2"
    },
    {
      "bufferView" : 117,
      "componentType" : 5123,
      "count" : 120,
      "type" : "SCALAR"
    },
    {
      "bufferView" : 118,
      "min" : [ -32.6512, 6.03544, -6.29506 ],
      "max" : [ -31.0915, 7.27969, 5.74104 ],
      "componentType" : 5126,
      "count" : 72,
      "type" : "VEC3"
    },
    {
      "bufferView" : 119,
      "componentType" : 5126,
      "count" : 72,
      "type" : "VEC3"
    },
    {
      "bufferView" : 120,
      "componentType" : 5126,
      "count" : 72,
      "type" : "VEC4"
    },
    {
      "bufferView" : 121,
      "normalized" : true,
      "componentType" : 5121,
      "count" : 72,
      "type" : "VEC4"
    },
    {
      "bufferView" : 122,
      "componentType" : 5126,
      "count" : 72,
      "type" : "VEC2"
    },
    {
      "bufferView" : 123,
      "componentType" : 5126,
      "count" : 72,
      "type" : "VEC2"
    },
    {
      "bufferView" : 124,
      "componentType" : 5126,
      "count" : 72,
      "type" : "VEC2"
    },
    {
      "bufferView" : 125,
      "componentType" : 5126,
      "count" : 72,
      "type" : "VEC2"
    },
    {
      "bufferView" : 126,
      "componentType" : 5123,
      "count" : 210,
      "type" : "SCALAR"
    },
    {
      "bufferView" : 127,
      "min" : [ -31.6268, -0.0625775, -4.0289 ],
      "max" : [ -30.4464, 0.390703, 3.45375 ],
      "componentType" : 5126,
      "count" : 124,
      "type" : "VEC3"
    },
    {
      "bufferView" : 128,
      "componentType" : 5126,
      "count" : 124,
      "type" : "VEC3"
    },
    {
      "bufferView" : 129,
      "componentType" : 5126,
      "count" : 124,
      "type" : "VEC4"
    },
    {
      "bufferView" : 130,
      "normalized" : true,
      "componentType" : 5121,
      "count" : 124,
      "type" : "VEC4"
    },
    {
      "bufferView" : 131,
      "componentType" : 5126,
      "count" : 124,
      "type" : "VEC2"
    },
    {
      "bufferView" : 132,
      "componentType" : 5126,
      "count" : 124,
      "type" : "VEC2"
    },
    {
      "bufferView" : 133,
      "componentType" : 5126,
      "count" : 124,
      "type" : "VEC2"
    },
    {
      "bufferView" : 134,
      "componentType" : 5126,
      "count" : 124,
      "type" : "VEC2"
    },
    {
      "bufferView" : 135,
      "componentType" : 5123,
      "count" : 234,
      "type" : "SCALAR"
    },
    {
      "bufferView" : 136,
      "min" : [ -33.9912, -0.0694544, -7.65146 ],
      "max" : [ -30.646, 0.440082, 7.09634 ],
      "componentType" : 5126,
      "count" : 119,
      "type" : "VEC3"
    },
    {
      "bufferView" : 137,
      "componentType" : 5126,
      "count" : 119,
      "type" : "VEC3"
    },
    {
      "bufferView" : 138,
      "componentType" : 5126,
      "count" : 119,
      "type" : "VEC4"
    },
    {
      "bufferView" : 139,
      "normalized" : true,
      "componentType" : 5121,
      "count" : 119,
      "type" : "VEC4"
    },
    {
      "bufferView" : 140,
      "componentType" : 5126,
      "count" : 119,
      "type" : "VEC2"
    },
    {
      "bufferView" : 141,
      "componentType" : 5126,
      "count" : 119,
      "type" : "VEC2"
    },
    {
      "bufferView" : 142,
      "componentType" : 5126,
      "count" : 119,
      "type" : "VEC2"
    },
    {
      "bufferView" : 143,
      "componentType" : 5126,
      "count" : 119,
      "type" : "VEC2"
    },
    {
      "bufferView" : 144,
      "componentType" : 5123,
      "count" : 231,
      "type" : "SCALAR"
    },
    {
      "bufferView" : 145,
      "min" : [ -31.1617, 5.63974, -2.41429 ],
      "max" : [ -30.7823, 7.08664, 1.88858 ],
      "componentType" : 5126,
      "count" : 80,
      "type" : "VEC3"
    },
    {
      "bufferView" : 146,
      "componentType" : 5126,
      "count" : 80,
      "type" : "VEC3"
    },
    {
      "bufferView" : 147,
      "componentType" : 5126,
      "count" : 80,
      "type" : "VEC4"
    },
    {
      "bufferView" : 148,
      "normalized" : true,
      "componentType" : 5121,
      "count" : 80,
      "type" : "VEC4"
    },
    {
      "bufferView" : 149,
      "componentType" : 5126,
      "count" : 80,
      "type" : "VEC2"
    },
    {
      "bufferView" : 150,
      "componentType" : 5126,
      "count" : 80,
      "type" : "VEC2"
    },
    {
      "bufferView" : 151,
      "componentType" : 5126,
      "count" : 80,
      "type" : "VEC2"
    },
    {
      "bufferView" : 152,
      "componentType" : 5126,
      "count" : 80,
      "type" : "VEC2"
    },
    {
      "bufferView" : 153,
      "componentType" : 5123,
      "count" : 468,
      "type" : "SCALAR"
    },
    {
      "bufferView" : 154,
      "min" : [ -32.7384, 5.84947, -7.17516 ],
      "max" : [ -30.9771, 6.18872, 6.61904 ],
      "componentType" : 5126,
      "count" : 168,
      "type" : "VEC3"
    },
    {
      "bufferView" : 155,
      "componentType" : 5126,
      "count" : 168,
      "type" : "VEC3"
    },
    {
      "bufferView" : 156,
      "componentType" : 5126,
      "count" : 168,
      "type" : "VEC4"
    },
    {
      "bufferView" : 157,
      "normalized" : true,
      "componentType" : 5121,
      "count" : 168,
      "type" : "VEC4"
    },
    {
      "bufferView" : 158,
      "componentType" : 5126,
      "count" : 168,
      "type" : "VEC2"
    },
    {
      "bufferView" : 159,
      "componentType" : 5126,
      "count" : 168,
      "type" : "VEC2"
    },
    {
      "bufferView" : 160,
      "componentType" : 5126,
      "count" : 168,
      "type" : "VEC2"
    },
    {
      "bufferView" : 161,
      "componentType" : 5126,
      "count" : 168,
      "type" : "VEC2"
    }
  ]
}
