{
  "asset" : {
    "generator" : "UE Viewer (umodel) build 1544 based",
    "version" : "2.0"
  },
  "scene" : 0,
  "scenes" : [
    {
      "nodes" : [ 0 ]
    }
  ],
  "nodes" : [
    {
      "name" : "SM_ENV_LKNVLD_TreeSet_C_Lod2",
      "mesh" : 0
    }
  ],
  "materials" : [
    {
      "name" : "MI_ENV_LKNVLD_Tree_A_Masked_CameraTrans",
      "pbrMetallicRoughness" : {
        "baseColorFactor" : [ 0.3, 0.3, 0.3, 1.0 ],
        "metallicFactor" : 0.1,
        "roughnessFactor" : 0.5
      }
    },
    {
      "name" : "MI_ENV_LKNVLD_LeafMasked_A",
      "pbrMetallicRoughness" : {
        "baseColorFactor" : [ 0.9, 0.3, 0.3, 1.0 ],
        "metallicFactor" : 0.1,
        "roughnessFactor" : 0.5
      }
    },
    {
      "name" : "MI_ENV_LKNVLD_Leaf_A",
      "pbrMetallicRoughness" : {
        "baseColorFactor" : [ 0.3, 0.9, 0.3, 1.0 ],
        "metallicFactor" : 0.1,
        "roughnessFactor" : 0.5
      }
    }
  ],
  "meshes" : [
    {
      "primitives" : [
        {
          "attributes" : {
            "POSITION" : 1,
            "NORMAL" : 2,
            "TANGENT" : 3,
            "COLOR_0" : 4,
            "TEXCOORD_0" : 5,
            "TEXCOORD_1" : 6,
            "TEXCOORD_2" : 7,
            "TEXCOORD_3" : 8
          },
          "indices" : 0,
          "material" : 0
        },
        {
          "attributes" : {
            "POSITION" : 10,
            "NORMAL" : 11,
            "TANGENT" : 12,
            "COLOR_0" : 13,
            "TEXCOORD_0" : 14,
            "TEXCOORD_1" : 15,
            "TEXCOORD_2" : 16,
            "TEXCOORD_3" : 17
          },
          "indices" : 9,
          "material" : 1
        },
        {
          "attributes" : {
            "POSITION" : 19,
            "NORMAL" : 20,
            "TANGENT" : 21,
            "COLOR_0" : 22,
            "TEXCOORD_0" : 23,
            "TEXCOORD_1" : 24,
            "TEXCOORD_2" : 25,
            "TEXCOORD_3" : 26
          },
          "indices" : 18,
          "material" : 2
        }
      ],
      "name" : "SM_ENV_LKNVLD_TreeSet_C_Lod2"
    }
  ],
  "buffers" : [
    {
      "uri" : "SM_ENV_LKNVLD_TreeSet_C_Lod2.bin",
      "byteLength" : 1317852
    }
  ],
  "bufferViews" : [
    {
      "buffer" : 0,
      "byteOffset" : 0,
      "byteLength" : 2264
    },
    {
      "buffer" : 0,
      "byteOffset" : 2264,
      "byteLength" : 10632
    },
    {
      "buffer" : 0,
      "byteOffset" : 12896,
      "byteLength" : 10632
    },
    {
      "buffer" : 0,
      "byteOffset" : 23528,
      "byteLength" : 14176
    },
    {
      "buffer" : 0,
      "byteOffset" : 37704,
      "byteLength" : 3544
    },
    {
      "buffer" : 0,
      "byteOffset" : 41248,
      "byteLength" : 7088
    },
    {
      "buffer" : 0,
      "byteOffset" : 48336,
      "byteLength" : 7088
    },
    {
      "buffer" : 0,
      "byteOffset" : 55424,
      "byteLength" : 7088
    },
    {
      "buffer" : 0,
      "byteOffset" : 62512,
      "byteLength" : 7088
    },
    {
      "buffer" : 0,
      "byteOffset" : 69600,
      "byteLength" : 48200
    },
    {
      "buffer" : 0,
      "byteOffset" : 117800,
      "byteLength" : 154848
    },
    {
      "buffer" : 0,
      "byteOffset" : 272648,
      "byteLength" : 154848
    },
    {
      "buffer" : 0,
      "byteOffset" : 427496,
      "byteLength" : 206464
    },
    {
      "buffer" : 0,
      "byteOffset" : 633960,
      "byteLength" : 51616
    },
    {
      "buffer" : 0,
      "byteOffset" : 685576,
      "byteLength" : 103232
    },
    {
      "buffer" : 0,
      "byteOffset" : 788808,
      "byteLength" : 103232
    },
    {
      "buffer" : 0,
      "byteOffset" : 892040,
      "byteLength" : 103232
    },
    {
      "buffer" : 0,
      "byteOffset" : 995272,
      "byteLength" : 103232
    },
    {
      "buffer" : 0,
      "byteOffset" : 1098504,
      "byteLength" : 6548
    },
    {
      "buffer" : 0,
      "byteOffset" : 1105052,
      "byteLength" : 33600
    },
    {
      "buffer" : 0,
      "byteOffset" : 1138652,
      "byteLength" : 33600
    },
    {
      "buffer" : 0,
      "byteOffset" : 1172252,
      "byteLength" : 44800
    },
    {
      "buffer" : 0,
      "byteOffset" : 1217052,
      "byteLength" : 11200
    },
    {
      "buffer" : 0,
      "byteOffset" : 1228252,
      "byteLength" : 22400
    },
    {
      "buffer" : 0,
      "byteOffset" : 1250652,
      "byteLength" : 22400
    },
    {
      "buffer" : 0,
      "byteOffset" : 1273052,
      "byteLength" : 22400
    },
    {
      "buffer" : 0,
      "byteOffset" : 1295452,
      "byteLength" : 22400
    }
  ],
  "accessors" : [
    {
      "bufferView" : 0,
      "componentType" : 5123,
      "count" : 1131,
      "type" : "SCALAR"
    },
    {
      "bufferView" : 1,
      "min" : [ 46.9678, -0.290597, -46.049 ],
      "max" : [ 59.5994, 7.57765, -34.0701 ],
      "componentType" : 5126,
      "count" : 886,
      "type" : "VEC3"
    },
    {
      "bufferView" : 2,
      "componentType" : 5126,
      "count" : 886,
      "type" : "VEC3"
    },
    {
      "bufferView" : 3,
      "componentType" : 5126,
      "count" : 886,
      "type" : "VEC4"
    },
    {
      "bufferView" : 4,
      "normalized" : true,
      "componentType" : 5121,
      "count" : 886,
      "type" : "VEC4"
    },
    {
      "bufferView" : 5,
      "componentType" : 5126,
      "count" : 886,
      "type" : "VEC2"
    },
    {
      "bufferView" : 6,
      "componentType" : 5126,
      "count" : 886,
      "type" : "VEC2"
    },
    {
      "bufferView" : 7,
      "componentType" : 5126,
      "count" : 886,
      "type" : "VEC2"
    },
    {
      "bufferView" : 8,
      "componentType" : 5126,
      "count" : 886,
      "type" : "VEC2"
    },
    {
      "bufferView" : 9,
      "componentType" : 5123,
      "count" : 24099,
      "type" : "SCALAR"
    },
    {
      "bufferView" : 10,
      "min" : [ 44.7725, 3.7928, -48.0775 ],
      "max" : [ 61.9871, 8.89674, -32.961 ],
      "componentType" : 5126,
      "count" : 12904,
      "type" : "VEC3"
    },
    {
      "bufferView" : 11,
      "componentType" : 5126,
      "count" : 12904,
      "type" : "VEC3"
    },
    {
      "bufferView" : 12,
      "componentType" : 5126,
      "count" : 12904,
      "type" : "VEC4"
    },
    {
      "bufferView" : 13,
      "normalized" : true,
      "componentType" : 5121,
      "count" : 12904,
      "type" : "VEC4"
    },
    {
      "bufferView" : 14,
      "componentType" : 5126,
      "count" : 12904,
      "type" : "VEC2"
    },
    {
      "bufferView" : 15,
      "componentType" : 5126,
      "count" : 12904,
      "type" : "VEC2"
    },
    {
      "bufferView" : 16,
      "componentType" : 5126,
      "count" : 12904,
      "type" : "VEC2"
    },
    {
      "bufferView" : 17,
      "componentType" : 5126,
      "count" : 12904,
      "type" : "VEC2"
    },
    {
      "bufferView" : 18,
      "componentType" : 5123,
      "count" : 3273,
      "type" : "SCALAR"
    },
    {
      "bufferView" : 19,
      "min" : [ 45.1135, 4.00496, -47.8919 ],
      "max" : [ 61.7465, 8.64217, -33.1032 ],
      "componentType" : 5126,
      "count" : 2800,
      "type" : "VEC3"
    },
    {
      "bufferView" : 20,
      "componentType" : 5126,
      "count" : 2800,
      "type" : "VEC3"
    },
    {
      "bufferView" : 21,
      "componentType" : 5126,
      "count" : 2800,
      "type" : "VEC4"
    },
    {
      "bufferView" : 22,
      "normalized" : true,
      "componentType" : 5121,
      "count" : 2800,
      "type" : "VEC4"
    },
    {
      "bufferView" : 23,
      "componentType" : 5126,
      "count" : 2800,
      "type" : "VEC2"
    },
    {
      "bufferView" : 24,
      "componentType" : 5126,
      "count" : 2800,
      "type" : "VEC2"
    },
    {
      "bufferView" : 25,
      "componentType" : 5126,
      "count" : 2800,
      "type" : "VEC2"
    },
    {
      "bufferView" : 26,
      "componentType" : 5126,
      "count" : 2800,
      "type" : "VEC2"
    }
  ]
}
