{
  "asset" : {
    "generator" : "UE Viewer (umodel) build 1544 based",
    "version" : "2.0"
  },
  "scene" : 0,
  "scenes" : [
    {
      "nodes" : [ 0 ]
    }
  ],
  "nodes" : [
    {
      "name" : "SM_ENV_LKNVLD_VRArena_Structure_B_Lod2",
      "mesh" : 0
    }
  ],
  "materials" : [
    {
      "name" : "MI_ENV_LKNVLD_Plaster_LOD",
      "pbrMetallicRoughness" : {
        "baseColorFactor" : [ 0.3, 0.3, 0.3, 1.0 ],
        "metallicFactor" : 0.1,
        "roughnessFactor" : 0.5
      }
    },
    {
      "name" : "MI_ENV_LKNVLD_Plaster_Dark_LOD",
      "pbrMetallicRoughness" : {
        "baseColorFactor" : [ 0.9, 0.3, 0.3, 1.0 ],
        "metallicFactor" : 0.1,
        "roughnessFactor" : 0.5
      }
    },
    {
      "name" : "MI_ENV_LKNVLD_Windows_A",
      "pbrMetallicRoughness" : {
        "baseColorFactor" : [ 0.3, 0.9, 0.3, 1.0 ],
        "metallicFactor" : 0.1,
        "roughnessFactor" : 0.5
      }
    },
    {
      "name" : "MI_ENV_LKNVLD_MetalRoofDark_LOD",
      "pbrMetallicRoughness" : {
        "baseColorFactor" : [ 0.3, 0.3, 0.9, 1.0 ],
        "metallicFactor" : 0.1,
        "roughnessFactor" : 0.5
      }
    },
    {
      "name" : "MI_T_ENV_LKNVLD_StoneTrim_LOD",
      "pbrMetallicRoughness" : {
        "baseColorFactor" : [ 0.9, 0.9, 0.9, 1.0 ],
        "metallicFactor" : 0.1,
        "roughnessFactor" : 0.5
      }
    },
    {
      "name" : "MI_ENV_LKNVLD_WoodWallSet_LOD",
      "pbrMetallicRoughness" : {
        "baseColorFactor" : [ 0.9, 0.9, 0.3, 1.0 ],
        "metallicFactor" : 0.1,
        "roughnessFactor" : 0.5
      }
    },
    {
      "name" : "MI_ENV_LKNVLD_MetalRoof_Purple_LOD",
      "pbrMetallicRoughness" : {
        "baseColorFactor" : [ 0.9, 0.3, 0.9, 1.0 ],
        "metallicFactor" : 0.1,
        "roughnessFactor" : 0.5
      }
    },
    {
      "name" : "MI_ENV_LKNVLD_Eaves_A_LOD",
      "pbrMetallicRoughness" : {
        "baseColorFactor" : [ 0.3, 0.9, 0.9, 1.0 ],
        "metallicFactor" : 0.1,
        "roughnessFactor" : 0.5
      }
    },
    {
      "name" : "MI_ENV_LKNVLD_Plaster_Purple_LOD",
      "pbrMetallicRoughness" : {
        "baseColorFactor" : [ 1, 0.3, 0.3, 1.0 ],
        "metallicFactor" : 0.1,
        "roughnessFactor" : 0.5
      }
    },
    {
      "name" : "MI_ENV_LKNVLD_Signboard_A",
      "pbrMetallicRoughness" : {
        "baseColorFactor" : [ 0.6, 0.3, 0.3, 1.0 ],
        "metallicFactor" : 0.1,
        "roughnessFactor" : 0.5
      }
    },
    {
      "name" : "MI_ENV_LKNVLD_WoodBoard_Natural_LOD",
      "pbrMetallicRoughness" : {
        "baseColorFactor" : [ 1, 0.9, 0.3, 1.0 ],
        "metallicFactor" : 0.1,
        "roughnessFactor" : 0.5
      }
    },
    {
      "name" : "MI_ENV_LKNVLD_WoodPlain_Red_LOD",
      "pbrMetallicRoughness" : {
        "baseColorFactor" : [ 1, 0.3, 0.9, 1.0 ],
        "metallicFactor" : 0.1,
        "roughnessFactor" : 0.5
      }
    },
    {
      "name" : "MI_ENV_LKNVLD_Eaves_B_LOD",
      "pbrMetallicRoughness" : {
        "baseColorFactor" : [ 0.6, 0.9, 0.9, 1.0 ],
        "metallicFactor" : 0.1,
        "roughnessFactor" : 0.5
      }
    },
    {
      "name" : "MI_ENV_LKNVLD_Plaster_Dark_LOD",
      "pbrMetallicRoughness" : {
        "baseColorFactor" : [ 0.6, 0.9, 0.3, 1.0 ],
        "metallicFactor" : 0.1,
        "roughnessFactor" : 0.5
      }
    },
    {
      "name" : "MI_ENV_LKNVLD_Door_A",
      "pbrMetallicRoughness" : {
        "baseColorFactor" : [ 0.6, 0.3, 0.9, 1.0 ],
        "metallicFactor" : 0.1,
        "roughnessFactor" : 0.5
      }
    },
    {
      "name" : "MI_ENV_LKNVLD_Lantern_A",
      "pbrMetallicRoughness" : {
        "baseColorFactor" : [ 1, 0.9, 0.9, 1.0 ],
        "metallicFactor" : 0.1,
        "roughnessFactor" : 0.5
      }
    },
    {
      "name" : "MI_ENV_LKNVLD_Pipe_B_LOD",
      "pbrMetallicRoughness" : {
        "baseColorFactor" : [ 0.3, 1, 0.3, 1.0 ],
        "metallicFactor" : 0.1,
        "roughnessFactor" : 0.5
      }
    },
    {
      "name" : "MI_ENV_LKNVLD_WoodWallSet_LOD",
      "pbrMetallicRoughness" : {
        "baseColorFactor" : [ 0.9, 1, 0.3, 1.0 ],
        "metallicFactor" : 0.1,
        "roughnessFactor" : 0.5
      }
    }
  ],
  "meshes" : [
    {
      "primitives" : [
        {
          "attributes" : {
            "POSITION" : 1,
            "NORMAL" : 2,
            "TANGENT" : 3,
            "TEXCOORD_0" : 4,
            "TEXCOORD_1" : 5,
            "TEXCOORD_2" : 6,
            "TEXCOORD_3" : 7
          },
          "indices" : 0,
          "material" : 0
        },
        {
          "attributes" : {
            "POSITION" : 9,
            "NORMAL" : 10,
            "TANGENT" : 11,
            "TEXCOORD_0" : 12,
            "TEXCOORD_1" : 13,
            "TEXCOORD_2" : 14,
            "TEXCOORD_3" : 15
          },
          "indices" : 8,
          "material" : 1
        },
        {
          "attributes" : {
            "POSITION" : 17,
            "NORMAL" : 18,
            "TANGENT" : 19,
            "TEXCOORD_0" : 20,
            "TEXCOORD_1" : 21,
            "TEXCOORD_2" : 22,
            "TEXCOORD_3" : 23
          },
          "indices" : 16,
          "material" : 2
        },
        {
          "attributes" : {
            "POSITION" : 25,
            "NORMAL" : 26,
            "TANGENT" : 27,
            "TEXCOORD_0" : 28,
            "TEXCOORD_1" : 29,
            "TEXCOORD_2" : 30,
            "TEXCOORD_3" : 31
          },
          "indices" : 24,
          "material" : 3
        },
        {
          "attributes" : {
            "POSITION" : 33,
            "NORMAL" : 34,
            "TANGENT" : 35,
            "TEXCOORD_0" : 36,
            "TEXCOORD_1" : 37,
            "TEXCOORD_2" : 38,
            "TEXCOORD_3" : 39
          },
          "indices" : 32,
          "material" : 4
        },
        {
          "attributes" : {
            "POSITION" : 41,
            "NORMAL" : 42,
            "TANGENT" : 43,
            "TEXCOORD_0" : 44,
            "TEXCOORD_1" : 45,
            "TEXCOORD_2" : 46,
            "TEXCOORD_3" : 47
          },
          "indices" : 40,
          "material" : 5
        },
        {
          "attributes" : {
            "POSITION" : 49,
            "NORMAL" : 50,
            "TANGENT" : 51,
            "TEXCOORD_0" : 52,
            "TEXCOORD_1" : 53,
            "TEXCOORD_2" : 54,
            "TEXCOORD_3" : 55
          },
          "indices" : 48,
          "material" : 6
        },
        {
          "attributes" : {
            "POSITION" : 57,
            "NORMAL" : 58,
            "TANGENT" : 59,
            "TEXCOORD_0" : 60,
            "TEXCOORD_1" : 61,
            "TEXCOORD_2" : 62,
            "TEXCOORD_3" : 63
          },
          "indices" : 56,
          "material" : 7
        },
        {
          "attributes" : {
            "POSITION" : 65,
            "NORMAL" : 66,
            "TANGENT" : 67,
            "TEXCOORD_0" : 68,
            "TEXCOORD_1" : 69,
            "TEXCOORD_2" : 70,
            "TEXCOORD_3" : 71
          },
          "indices" : 64,
          "material" : 8
        },
        {
          "attributes" : {
            "POSITION" : 73,
            "NORMAL" : 74,
            "TANGENT" : 75,
            "TEXCOORD_0" : 76,
            "TEXCOORD_1" : 77,
            "TEXCOORD_2" : 78,
            "TEXCOORD_3" : 79
          },
          "indices" : 72,
          "material" : 9
        },
        {
          "attributes" : {
            "POSITION" : 81,
            "NORMAL" : 82,
            "TANGENT" : 83,
            "TEXCOORD_0" : 84,
            "TEXCOORD_1" : 85,
            "TEXCOORD_2" : 86,
            "TEXCOORD_3" : 87
          },
          "indices" : 80,
          "material" : 10
        },
        {
          "attributes" : {
            "POSITION" : 89,
            "NORMAL" : 90,
            "TANGENT" : 91,
            "TEXCOORD_0" : 92,
            "TEXCOORD_1" : 93,
            "TEXCOORD_2" : 94,
            "TEXCOORD_3" : 95
          },
          "indices" : 88,
          "material" : 11
        },
        {
          "attributes" : {
            "POSITION" : 97,
            "NORMAL" : 98,
            "TANGENT" : 99,
            "TEXCOORD_0" : 100,
            "TEXCOORD_1" : 101,
            "TEXCOORD_2" : 102,
            "TEXCOORD_3" : 103
          },
          "indices" : 96,
          "material" : 12
        },
        {
          "attributes" : {
            "POSITION" : 105,
            "NORMAL" : 106,
            "TANGENT" : 107,
            "TEXCOORD_0" : 108,
            "TEXCOORD_1" : 109,
            "TEXCOORD_2" : 110,
            "TEXCOORD_3" : 111
          },
          "indices" : 104,
          "material" : 13
        },
        {
          "attributes" : {
            "POSITION" : 113,
            "NORMAL" : 114,
            "TANGENT" : 115,
            "TEXCOORD_0" : 116,
            "TEXCOORD_1" : 117,
            "TEXCOORD_2" : 118,
            "TEXCOORD_3" : 119
          },
          "indices" : 112,
          "material" : 14
        },
        {
          "attributes" : {
            "POSITION" : 121,
            "NORMAL" : 122,
            "TANGENT" : 123,
            "TEXCOORD_0" : 124,
            "TEXCOORD_1" : 125,
            "TEXCOORD_2" : 126,
            "TEXCOORD_3" : 127
          },
          "indices" : 120,
          "material" : 15
        },
        {
          "attributes" : {
            "POSITION" : 129,
            "NORMAL" : 130,
            "TANGENT" : 131,
            "TEXCOORD_0" : 132,
            "TEXCOORD_1" : 133,
            "TEXCOORD_2" : 134,
            "TEXCOORD_3" : 135
          },
          "indices" : 128,
          "material" : 16
        },
        {
          "attributes" : {
            "POSITION" : 137,
            "NORMAL" : 138,
            "TANGENT" : 139,
            "TEXCOORD_0" : 140,
            "TEXCOORD_1" : 141,
            "TEXCOORD_2" : 142,
            "TEXCOORD_3" : 143
          },
          "indices" : 136,
          "material" : 17
        }
      ],
      "name" : "SM_ENV_LKNVLD_VRArena_Structure_B_Lod2"
    }
  ],
  "buffers" : [
    {
      "uri" : "SM_ENV_LKNVLD_VRArena_Structure_B_Lod2.bin",
      "byteLength" : 405696
    }
  ],
  "bufferViews" : [
    {
      "buffer" : 0,
      "byteOffset" : 0,
      "byteLength" : 404
    },
    {
      "buffer" : 0,
      "byteOffset" : 404,
      "byteLength" : 1140
    },
    {
      "buffer" : 0,
      "byteOffset" : 1544,
      "byteLength" : 1140
    },
    {
      "buffer" : 0,
      "byteOffset" : 2684,
      "byteLength" : 1520
    },
    {
      "buffer" : 0,
      "byteOffset" : 4204,
      "byteLength" : 760
    },
    {
      "buffer" : 0,
      "byteOffset" : 4964,
      "byteLength" : 760
    },
    {
      "buffer" : 0,
      "byteOffset" : 5724,
      "byteLength" : 760
    },
    {
      "buffer" : 0,
      "byteOffset" : 6484,
      "byteLength" : 760
    },
    {
      "buffer" : 0,
      "byteOffset" : 7244,
      "byteLength" : 3192
    },
    {
      "buffer" : 0,
      "byteOffset" : 10436,
      "byteLength" : 12324
    },
    {
      "buffer" : 0,
      "byteOffset" : 22760,
      "byteLength" : 12324
    },
    {
      "buffer" : 0,
      "byteOffset" : 35084,
      "byteLength" : 16432
    },
    {
      "buffer" : 0,
      "byteOffset" : 51516,
      "byteLength" : 8216
    },
    {
      "buffer" : 0,
      "byteOffset" : 59732,
      "byteLength" : 8216
    },
    {
      "buffer" : 0,
      "byteOffset" : 67948,
      "byteLength" : 8216
    },
    {
      "buffer" : 0,
      "byteOffset" : 76164,
      "byteLength" : 8216
    },
    {
      "buffer" : 0,
      "byteOffset" : 84380,
      "byteLength" : 324
    },
    {
      "buffer" : 0,
      "byteOffset" : 84704,
      "byteLength" : 1080
    },
    {
      "buffer" : 0,
      "byteOffset" : 85784,
      "byteLength" : 1080
    },
    {
      "buffer" : 0,
      "byteOffset" : 86864,
      "byteLength" : 1440
    },
    {
      "buffer" : 0,
      "byteOffset" : 88304,
      "byteLength" : 720
    },
    {
      "buffer" : 0,
      "byteOffset" : 89024,
      "byteLength" : 720
    },
    {
      "buffer" : 0,
      "byteOffset" : 89744,
      "byteLength" : 720
    },
    {
      "buffer" : 0,
      "byteOffset" : 90464,
      "byteLength" : 720
    },
    {
      "buffer" : 0,
      "byteOffset" : 91184,
      "byteLength" : 2028
    },
    {
      "buffer" : 0,
      "byteOffset" : 93212,
      "byteLength" : 8256
    },
    {
      "buffer" : 0,
      "byteOffset" : 101468,
      "byteLength" : 8256
    },
    {
      "buffer" : 0,
      "byteOffset" : 109724,
      "byteLength" : 11008
    },
    {
      "buffer" : 0,
      "byteOffset" : 120732,
      "byteLength" : 5504
    },
    {
      "buffer" : 0,
      "byteOffset" : 126236,
      "byteLength" : 5504
    },
    {
      "buffer" : 0,
      "byteOffset" : 131740,
      "byteLength" : 5504
    },
    {
      "buffer" : 0,
      "byteOffset" : 137244,
      "byteLength" : 5504
    },
    {
      "buffer" : 0,
      "byteOffset" : 142748,
      "byteLength" : 516
    },
    {
      "buffer" : 0,
      "byteOffset" : 143264,
      "byteLength" : 1968
    },
    {
      "buffer" : 0,
      "byteOffset" : 145232,
      "byteLength" : 1968
    },
    {
      "buffer" : 0,
      "byteOffset" : 147200,
      "byteLength" : 2624
    },
    {
      "buffer" : 0,
      "byteOffset" : 149824,
      "byteLength" : 1312
    },
    {
      "buffer" : 0,
      "byteOffset" : 151136,
      "byteLength" : 1312
    },
    {
      "buffer" : 0,
      "byteOffset" : 152448,
      "byteLength" : 1312
    },
    {
      "buffer" : 0,
      "byteOffset" : 153760,
      "byteLength" : 1312
    },
    {
      "buffer" : 0,
      "byteOffset" : 155072,
      "byteLength" : 1104
    },
    {
      "buffer" : 0,
      "byteOffset" : 156176,
      "byteLength" : 3768
    },
    {
      "buffer" : 0,
      "byteOffset" : 159944,
      "byteLength" : 3768
    },
    {
      "buffer" : 0,
      "byteOffset" : 163712,
      "byteLength" : 5024
    },
    {
      "buffer" : 0,
      "byteOffset" : 168736,
      "byteLength" : 2512
    },
    {
      "buffer" : 0,
      "byteOffset" : 171248,
      "byteLength" : 2512
    },
    {
      "buffer" : 0,
      "byteOffset" : 173760,
      "byteLength" : 2512
    },
    {
      "buffer" : 0,
      "byteOffset" : 176272,
      "byteLength" : 2512
    },
    {
      "buffer" : 0,
      "byteOffset" : 178784,
      "byteLength" : 1088
    },
    {
      "buffer" : 0,
      "byteOffset" : 179872,
      "byteLength" : 2520
    },
    {
      "buffer" : 0,
      "byteOffset" : 182392,
      "byteLength" : 2520
    },
    {
      "buffer" : 0,
      "byteOffset" : 184912,
      "byteLength" : 3360
    },
    {
      "buffer" : 0,
      "byteOffset" : 188272,
      "byteLength" : 1680
    },
    {
      "buffer" : 0,
      "byteOffset" : 189952,
      "byteLength" : 1680
    },
    {
      "buffer" : 0,
      "byteOffset" : 191632,
      "byteLength" : 1680
    },
    {
      "buffer" : 0,
      "byteOffset" : 193312,
      "byteLength" : 1680
    },
    {
      "buffer" : 0,
      "byteOffset" : 194992,
      "byteLength" : 876
    },
    {
      "buffer" : 0,
      "byteOffset" : 195868,
      "byteLength" : 2400
    },
    {
      "buffer" : 0,
      "byteOffset" : 198268,
      "byteLength" : 2400
    },
    {
      "buffer" : 0,
      "byteOffset" : 200668,
      "byteLength" : 3200
    },
    {
      "buffer" : 0,
      "byteOffset" : 203868,
      "byteLength" : 1600
    },
    {
      "buffer" : 0,
      "byteOffset" : 205468,
      "byteLength" : 1600
    },
    {
      "buffer" : 0,
      "byteOffset" : 207068,
      "byteLength" : 1600
    },
    {
      "buffer" : 0,
      "byteOffset" : 208668,
      "byteLength" : 1600
    },
    {
      "buffer" : 0,
      "byteOffset" : 210268,
      "byteLength" : 2540
    },
    {
      "buffer" : 0,
      "byteOffset" : 212808,
      "byteLength" : 6300
    },
    {
      "buffer" : 0,
      "byteOffset" : 219108,
      "byteLength" : 6300
    },
    {
      "buffer" : 0,
      "byteOffset" : 225408,
      "byteLength" : 8400
    },
    {
      "buffer" : 0,
      "byteOffset" : 233808,
      "byteLength" : 4200
    },
    {
      "buffer" : 0,
      "byteOffset" : 238008,
      "byteLength" : 4200
    },
    {
      "buffer" : 0,
      "byteOffset" : 242208,
      "byteLength" : 4200
    },
    {
      "buffer" : 0,
      "byteOffset" : 246408,
      "byteLength" : 4200
    },
    {
      "buffer" : 0,
      "byteOffset" : 250608,
      "byteLength" : 284
    },
    {
      "buffer" : 0,
      "byteOffset" : 250892,
      "byteLength" : 1056
    },
    {
      "buffer" : 0,
      "byteOffset" : 251948,
      "byteLength" : 1056
    },
    {
      "buffer" : 0,
      "byteOffset" : 253004,
      "byteLength" : 1408
    },
    {
      "buffer" : 0,
      "byteOffset" : 254412,
      "byteLength" : 704
    },
    {
      "buffer" : 0,
      "byteOffset" : 255116,
      "byteLength" : 704
    },
    {
      "buffer" : 0,
      "byteOffset" : 255820,
      "byteLength" : 704
    },
    {
      "buffer" : 0,
      "byteOffset" : 256524,
      "byteLength" : 704
    },
    {
      "buffer" : 0,
      "byteOffset" : 257228,
      "byteLength" : 264
    },
    {
      "buffer" : 0,
      "byteOffset" : 257492,
      "byteLength" : 624
    },
    {
      "buffer" : 0,
      "byteOffset" : 258116,
      "byteLength" : 624
    },
    {
      "buffer" : 0,
      "byteOffset" : 258740,
      "byteLength" : 832
    },
    {
      "buffer" : 0,
      "byteOffset" : 259572,
      "byteLength" : 416
    },
    {
      "buffer" : 0,
      "byteOffset" : 259988,
      "byteLength" : 416
    },
    {
      "buffer" : 0,
      "byteOffset" : 260404,
      "byteLength" : 416
    },
    {
      "buffer" : 0,
      "byteOffset" : 260820,
      "byteLength" : 416
    },
    {
      "buffer" : 0,
      "byteOffset" : 261236,
      "byteLength" : 2396
    },
    {
      "buffer" : 0,
      "byteOffset" : 263632,
      "byteLength" : 8352
    },
    {
      "buffer" : 0,
      "byteOffset" : 271984,
      "byteLength" : 8352
    },
    {
      "buffer" : 0,
      "byteOffset" : 280336,
      "byteLength" : 11136
    },
    {
      "buffer" : 0,
      "byteOffset" : 291472,
      "byteLength" : 5568
    },
    {
      "buffer" : 0,
      "byteOffset" : 297040,
      "byteLength" : 5568
    },
    {
      "buffer" : 0,
      "byteOffset" : 302608,
      "byteLength" : 5568
    },
    {
      "buffer" : 0,
      "byteOffset" : 308176,
      "byteLength" : 5568
    },
    {
      "buffer" : 0,
      "byteOffset" : 313744,
      "byteLength" : 1080
    },
    {
      "buffer" : 0,
      "byteOffset" : 314824,
      "byteLength" : 3144
    },
    {
      "buffer" : 0,
      "byteOffset" : 317968,
      "byteLength" : 3144
    },
    {
      "buffer" : 0,
      "byteOffset" : 321112,
      "byteLength" : 4192
    },
    {
      "buffer" : 0,
      "byteOffset" : 325304,
      "byteLength" : 2096
    },
    {
      "buffer" : 0,
      "byteOffset" : 327400,
      "byteLength" : 2096
    },
    {
      "buffer" : 0,
      "byteOffset" : 329496,
      "byteLength" : 2096
    },
    {
      "buffer" : 0,
      "byteOffset" : 331592,
      "byteLength" : 2096
    },
    {
      "buffer" : 0,
      "byteOffset" : 333688,
      "byteLength" : 108
    },
    {
      "buffer" : 0,
      "byteOffset" : 333796,
      "byteLength" : 264
    },
    {
      "buffer" : 0,
      "byteOffset" : 334060,
      "byteLength" : 264
    },
    {
      "buffer" : 0,
      "byteOffset" : 334324,
      "byteLength" : 352
    },
    {
      "buffer" : 0,
      "byteOffset" : 334676,
      "byteLength" : 176
    },
    {
      "buffer" : 0,
      "byteOffset" : 334852,
      "byteLength" : 176
    },
    {
      "buffer" : 0,
      "byteOffset" : 335028,
      "byteLength" : 176
    },
    {
      "buffer" : 0,
      "byteOffset" : 335204,
      "byteLength" : 176
    },
    {
      "buffer" : 0,
      "byteOffset" : 335380,
      "byteLength" : 72
    },
    {
      "buffer" : 0,
      "byteOffset" : 335452,
      "byteLength" : 288
    },
    {
      "buffer" : 0,
      "byteOffset" : 335740,
      "byteLength" : 288
    },
    {
      "buffer" : 0,
      "byteOffset" : 336028,
      "byteLength" : 384
    },
    {
      "buffer" : 0,
      "byteOffset" : 336412,
      "byteLength" : 192
    },
    {
      "buffer" : 0,
      "byteOffset" : 336604,
      "byteLength" : 192
    },
    {
      "buffer" : 0,
      "byteOffset" : 336796,
      "byteLength" : 192
    },
    {
      "buffer" : 0,
      "byteOffset" : 336988,
      "byteLength" : 192
    },
    {
      "buffer" : 0,
      "byteOffset" : 337180,
      "byteLength" : 2720
    },
    {
      "buffer" : 0,
      "byteOffset" : 339900,
      "byteLength" : 6756
    },
    {
      "buffer" : 0,
      "byteOffset" : 346656,
      "byteLength" : 6756
    },
    {
      "buffer" : 0,
      "byteOffset" : 353412,
      "byteLength" : 9008
    },
    {
      "buffer" : 0,
      "byteOffset" : 362420,
      "byteLength" : 4504
    },
    {
      "buffer" : 0,
      "byteOffset" : 366924,
      "byteLength" : 4504
    },
    {
      "buffer" : 0,
      "byteOffset" : 371428,
      "byteLength" : 4504
    },
    {
      "buffer" : 0,
      "byteOffset" : 375932,
      "byteLength" : 4504
    },
    {
      "buffer" : 0,
      "byteOffset" : 380436,
      "byteLength" : 972
    },
    {
      "buffer" : 0,
      "byteOffset" : 381408,
      "byteLength" : 2472
    },
    {
      "buffer" : 0,
      "byteOffset" : 383880,
      "byteLength" : 2472
    },
    {
      "buffer" : 0,
      "byteOffset" : 386352,
      "byteLength" : 3296
    },
    {
      "buffer" : 0,
      "byteOffset" : 389648,
      "byteLength" : 1648
    },
    {
      "buffer" : 0,
      "byteOffset" : 391296,
      "byteLength" : 1648
    },
    {
      "buffer" : 0,
      "byteOffset" : 392944,
      "byteLength" : 1648
    },
    {
      "buffer" : 0,
      "byteOffset" : 394592,
      "byteLength" : 1648
    },
    {
      "buffer" : 0,
      "byteOffset" : 396240,
      "byteLength" : 384
    },
    {
      "buffer" : 0,
      "byteOffset" : 396624,
      "byteLength" : 1512
    },
    {
      "buffer" : 0,
      "byteOffset" : 398136,
      "byteLength" : 1512
    },
    {
      "buffer" : 0,
      "byteOffset" : 399648,
      "byteLength" : 2016
    },
    {
      "buffer" : 0,
      "byteOffset" : 401664,
      "byteLength" : 1008
    },
    {
      "buffer" : 0,
      "byteOffset" : 402672,
      "byteLength" : 1008
    },
    {
      "buffer" : 0,
      "byteOffset" : 403680,
      "byteLength" : 1008
    },
    {
      "buffer" : 0,
      "byteOffset" : 404688,
      "byteLength" : 1008
    }
  ],
  "accessors" : [
    {
      "bufferView" : 0,
      "componentType" : 5123,
      "count" : 201,
      "type" : "SCALAR"
    },
    {
      "bufferView" : 1,
      "min" : [ 23.462, 7.09999, 16.9803 ],
      "max" : [ 53.0191, 29.37, 46.5373 ],
      "componentType" : 5126,
      "count" : 95,
      "type" : "VEC3"
    },
    {
      "bufferView" : 2,
      "componentType" : 5126,
      "count" : 95,
      "type" : "VEC3"
    },
    {
      "bufferView" : 3,
      "componentType" : 5126,
      "count" : 95,
      "type" : "VEC4"
    },
    {
      "bufferView" : 4,
      "componentType" : 5126,
      "count" : 95,
      "type" : "VEC2"
    },
    {
      "bufferView" : 5,
      "componentType" : 5126,
      "count" : 95,
      "type" : "VEC2"
    },
    {
      "bufferView" : 6,
      "componentType" : 5126,
      "count" : 95,
      "type" : "VEC2"
    },
    {
      "bufferView" : 7,
      "componentType" : 5126,
      "count" : 95,
      "type" : "VEC2"
    },
    {
      "bufferView" : 8,
      "componentType" : 5123,
      "count" : 1596,
      "type" : "SCALAR"
    },
    {
      "bufferView" : 9,
      "min" : [ 20.9871, 7.09999, 14.5054 ],
      "max" : [ 55.494, 29.7138, 49.0122 ],
      "componentType" : 5126,
      "count" : 1027,
      "type" : "VEC3"
    },
    {
      "bufferView" : 10,
      "componentType" : 5126,
      "count" : 1027,
      "type" : "VEC3"
    },
    {
      "bufferView" : 11,
      "componentType" : 5126,
      "count" : 1027,
      "type" : "VEC4"
    },
    {
      "bufferView" : 12,
      "componentType" : 5126,
      "count" : 1027,
      "type" : "VEC2"
    },
    {
      "bufferView" : 13,
      "componentType" : 5126,
      "count" : 1027,
      "type" : "VEC2"
    },
    {
      "bufferView" : 14,
      "componentType" : 5126,
      "count" : 1027,
      "type" : "VEC2"
    },
    {
      "bufferView" : 15,
      "componentType" : 5126,
      "count" : 1027,
      "type" : "VEC2"
    },
    {
      "bufferView" : 16,
      "componentType" : 5123,
      "count" : 162,
      "type" : "SCALAR"
    },
    {
      "bufferView" : 17,
      "min" : [ 24.6273, 8.13566, 18.985 ],
      "max" : [ 41.7937, 28.19, 45.3716 ],
      "componentType" : 5126,
      "count" : 90,
      "type" : "VEC3"
    },
    {
      "bufferView" : 18,
      "componentType" : 5126,
      "count" : 90,
      "type" : "VEC3"
    },
    {
      "bufferView" : 19,
      "componentType" : 5126,
      "count" : 90,
      "type" : "VEC4"
    },
    {
      "bufferView" : 20,
      "componentType" : 5126,
      "count" : 90,
      "type" : "VEC2"
    },
    {
      "bufferView" : 21,
      "componentType" : 5126,
      "count" : 90,
      "type" : "VEC2"
    },
    {
      "bufferView" : 22,
      "componentType" : 5126,
      "count" : 90,
      "type" : "VEC2"
    },
    {
      "bufferView" : 23,
      "componentType" : 5126,
      "count" : 90,
      "type" : "VEC2"
    },
    {
      "bufferView" : 24,
      "componentType" : 5123,
      "count" : 1014,
      "type" : "SCALAR"
    },
    {
      "bufferView" : 25,
      "min" : [ 23.7659, 7.09999, 18.8224 ],
      "max" : [ 50.6112, 29.37, 46.2335 ],
      "componentType" : 5126,
      "count" : 688,
      "type" : "VEC3"
    },
    {
      "bufferView" : 26,
      "componentType" : 5126,
      "count" : 688,
      "type" : "VEC3"
    },
    {
      "bufferView" : 27,
      "componentType" : 5126,
      "count" : 688,
      "type" : "VEC4"
    },
    {
      "bufferView" : 28,
      "componentType" : 5126,
      "count" : 688,
      "type" : "VEC2"
    },
    {
      "bufferView" : 29,
      "componentType" : 5126,
      "count" : 688,
      "type" : "VEC2"
    },
    {
      "bufferView" : 30,
      "componentType" : 5126,
      "count" : 688,
      "type" : "VEC2"
    },
    {
      "bufferView" : 31,
      "componentType" : 5126,
      "count" : 688,
      "type" : "VEC2"
    },
    {
      "bufferView" : 32,
      "componentType" : 5123,
      "count" : 258,
      "type" : "SCALAR"
    },
    {
      "bufferView" : 33,
      "min" : [ 21.3407, 6.29999, 14.8589 ],
      "max" : [ 46.8498, 7.1, 48.6586 ],
      "componentType" : 5126,
      "count" : 164,
      "type" : "VEC3"
    },
    {
      "bufferView" : 34,
      "componentType" : 5126,
      "count" : 164,
      "type" : "VEC3"
    },
    {
      "bufferView" : 35,
      "componentType" : 5126,
      "count" : 164,
      "type" : "VEC4"
    },
    {
      "bufferView" : 36,
      "componentType" : 5126,
      "count" : 164,
      "type" : "VEC2"
    },
    {
      "bufferView" : 37,
      "componentType" : 5126,
      "count" : 164,
      "type" : "VEC2"
    },
    {
      "bufferView" : 38,
      "componentType" : 5126,
      "count" : 164,
      "type" : "VEC2"
    },
    {
      "bufferView" : 39,
      "componentType" : 5126,
      "count" : 164,
      "type" : "VEC2"
    },
    {
      "bufferView" : 40,
      "componentType" : 5123,
      "count" : 552,
      "type" : "SCALAR"
    },
    {
      "bufferView" : 41,
      "min" : [ 23.892, 6.29999, 17.4102 ],
      "max" : [ 52.5891, 31.891, 46.1074 ],
      "componentType" : 5126,
      "count" : 314,
      "type" : "VEC3"
    },
    {
      "bufferView" : 42,
      "componentType" : 5126,
      "count" : 314,
      "type" : "VEC3"
    },
    {
      "bufferView" : 43,
      "componentType" : 5126,
      "count" : 314,
      "type" : "VEC4"
    },
    {
      "bufferView" : 44,
      "componentType" : 5126,
      "count" : 314,
      "type" : "VEC2"
    },
    {
      "bufferView" : 45,
      "componentType" : 5126,
      "count" : 314,
      "type" : "VEC2"
    },
    {
      "bufferView" : 46,
      "componentType" : 5126,
      "count" : 314,
      "type" : "VEC2"
    },
    {
      "bufferView" : 47,
      "componentType" : 5126,
      "count" : 314,
      "type" : "VEC2"
    },
    {
      "bufferView" : 48,
      "componentType" : 5123,
      "count" : 543,
      "type" : "SCALAR"
    },
    {
      "bufferView" : 49,
      "min" : [ 20.4727, 11.8807, 13.9909 ],
      "max" : [ 56.0084, 32.8069, 49.5267 ],
      "componentType" : 5126,
      "count" : 210,
      "type" : "VEC3"
    },
    {
      "bufferView" : 50,
      "componentType" : 5126,
      "count" : 210,
      "type" : "VEC3"
    },
    {
      "bufferView" : 51,
      "componentType" : 5126,
      "count" : 210,
      "type" : "VEC4"
    },
    {
      "bufferView" : 52,
      "componentType" : 5126,
      "count" : 210,
      "type" : "VEC2"
    },
    {
      "bufferView" : 53,
      "componentType" : 5126,
      "count" : 210,
      "type" : "VEC2"
    },
    {
      "bufferView" : 54,
      "componentType" : 5126,
      "count" : 210,
      "type" : "VEC2"
    },
    {
      "bufferView" : 55,
      "componentType" : 5126,
      "count" : 210,
      "type" : "VEC2"
    },
    {
      "bufferView" : 56,
      "componentType" : 5123,
      "count" : 438,
      "type" : "SCALAR"
    },
    {
      "bufferView" : 57,
      "min" : [ 19.3529, 11.7713, 12.8712 ],
      "max" : [ 57.208, 33.4218, 50.7262 ],
      "componentType" : 5126,
      "count" : 200,
      "type" : "VEC3"
    },
    {
      "bufferView" : 58,
      "componentType" : 5126,
      "count" : 200,
      "type" : "VEC3"
    },
    {
      "bufferView" : 59,
      "componentType" : 5126,
      "count" : 200,
      "type" : "VEC4"
    },
    {
      "bufferView" : 60,
      "componentType" : 5126,
      "count" : 200,
      "type" : "VEC2"
    },
    {
      "bufferView" : 61,
      "componentType" : 5126,
      "count" : 200,
      "type" : "VEC2"
    },
    {
      "bufferView" : 62,
      "componentType" : 5126,
      "count" : 200,
      "type" : "VEC2"
    },
    {
      "bufferView" : 63,
      "componentType" : 5126,
      "count" : 200,
      "type" : "VEC2"
    },
    {
      "bufferView" : 64,
      "componentType" : 5123,
      "count" : 1269,
      "type" : "SCALAR"
    },
    {
      "bufferView" : 65,
      "min" : [ 19.3529, 11.7713, 12.8712 ],
      "max" : [ 57.208, 33.4218, 50.7262 ],
      "componentType" : 5126,
      "count" : 525,
      "type" : "VEC3"
    },
    {
      "bufferView" : 66,
      "componentType" : 5126,
      "count" : 525,
      "type" : "VEC3"
    },
    {
      "bufferView" : 67,
      "componentType" : 5126,
      "count" : 525,
      "type" : "VEC4"
    },
    {
      "bufferView" : 68,
      "componentType" : 5126,
      "count" : 525,
      "type" : "VEC2"
    },
    {
      "bufferView" : 69,
      "componentType" : 5126,
      "count" : 525,
      "type" : "VEC2"
    },
    {
      "bufferView" : 70,
      "componentType" : 5126,
      "count" : 525,
      "type" : "VEC2"
    },
    {
      "bufferView" : 71,
      "componentType" : 5126,
      "count" : 525,
      "type" : "VEC2"
    },
    {
      "bufferView" : 72,
      "componentType" : 5123,
      "count" : 141,
      "type" : "SCALAR"
    },
    {
      "bufferView" : 73,
      "min" : [ 19.3529, 8.24, 12.8712 ],
      "max" : [ 57.208, 32.914, 50.7262 ],
      "componentType" : 5126,
      "count" : 88,
      "type" : "VEC3"
    },
    {
      "bufferView" : 74,
      "componentType" : 5126,
      "count" : 88,
      "type" : "VEC3"
    },
    {
      "bufferView" : 75,
      "componentType" : 5126,
      "count" : 88,
      "type" : "VEC4"
    },
    {
      "bufferView" : 76,
      "componentType" : 5126,
      "count" : 88,
      "type" : "VEC2"
    },
    {
      "bufferView" : 77,
      "componentType" : 5126,
      "count" : 88,
      "type" : "VEC2"
    },
    {
      "bufferView" : 78,
      "componentType" : 5126,
      "count" : 88,
      "type" : "VEC2"
    },
    {
      "bufferView" : 79,
      "componentType" : 5126,
      "count" : 88,
      "type" : "VEC2"
    },
    {
      "bufferView" : 80,
      "componentType" : 5123,
      "count" : 132,
      "type" : "SCALAR"
    },
    {
      "bufferView" : 81,
      "min" : [ 20.5424, 24.0162, 14.0606 ],
      "max" : [ 55.9387, 31.891, 49.457 ],
      "componentType" : 5126,
      "count" : 52,
      "type" : "VEC3"
    },
    {
      "bufferView" : 82,
      "componentType" : 5126,
      "count" : 52,
      "type" : "VEC3"
    },
    {
      "bufferView" : 83,
      "componentType" : 5126,
      "count" : 52,
      "type" : "VEC4"
    },
    {
      "bufferView" : 84,
      "componentType" : 5126,
      "count" : 52,
      "type" : "VEC2"
    },
    {
      "bufferView" : 85,
      "componentType" : 5126,
      "count" : 52,
      "type" : "VEC2"
    },
    {
      "bufferView" : 86,
      "componentType" : 5126,
      "count" : 52,
      "type" : "VEC2"
    },
    {
      "bufferView" : 87,
      "componentType" : 5126,
      "count" : 52,
      "type" : "VEC2"
    },
    {
      "bufferView" : 88,
      "componentType" : 5123,
      "count" : 1197,
      "type" : "SCALAR"
    },
    {
      "bufferView" : 89,
      "min" : [ 21.1626, 6.7, 14.6835 ],
      "max" : [ 40.1131, 12.3, 33.634 ],
      "componentType" : 5126,
      "count" : 696,
      "type" : "VEC3"
    },
    {
      "bufferView" : 90,
      "componentType" : 5126,
      "count" : 696,
      "type" : "VEC3"
    },
    {
      "bufferView" : 91,
      "componentType" : 5126,
      "count" : 696,
      "type" : "VEC4"
    },
    {
      "bufferView" : 92,
      "componentType" : 5126,
      "count" : 696,
      "type" : "VEC2"
    },
    {
      "bufferView" : 93,
      "componentType" : 5126,
      "count" : 696,
      "type" : "VEC2"
    },
    {
      "bufferView" : 94,
      "componentType" : 5126,
      "count" : 696,
      "type" : "VEC2"
    },
    {
      "bufferView" : 95,
      "componentType" : 5126,
      "count" : 696,
      "type" : "VEC2"
    },
    {
      "bufferView" : 96,
      "componentType" : 5123,
      "count" : 540,
      "type" : "SCALAR"
    },
    {
      "bufferView" : 97,
      "min" : [ 21.1626, 10.45, 14.6835 ],
      "max" : [ 40.1131, 17.7518, 33.634 ],
      "componentType" : 5126,
      "count" : 262,
      "type" : "VEC3"
    },
    {
      "bufferView" : 98,
      "componentType" : 5126,
      "count" : 262,
      "type" : "VEC3"
    },
    {
      "bufferView" : 99,
      "componentType" : 5126,
      "count" : 262,
      "type" : "VEC4"
    },
    {
      "bufferView" : 100,
      "componentType" : 5126,
      "count" : 262,
      "type" : "VEC2"
    },
    {
      "bufferView" : 101,
      "componentType" : 5126,
      "count" : 262,
      "type" : "VEC2"
    },
    {
      "bufferView" : 102,
      "componentType" : 5126,
      "count" : 262,
      "type" : "VEC2"
    },
    {
      "bufferView" : 103,
      "componentType" : 5126,
      "count" : 262,
      "type" : "VEC2"
    },
    {
      "bufferView" : 104,
      "componentType" : 5123,
      "count" : 54,
      "type" : "SCALAR"
    },
    {
      "bufferView" : 105,
      "min" : [ 23.0378, 24.1, 16.556 ],
      "max" : [ 53.4433, 24.1, 46.9616 ],
      "componentType" : 5126,
      "count" : 22,
      "type" : "VEC3"
    },
    {
      "bufferView" : 106,
      "componentType" : 5126,
      "count" : 22,
      "type" : "VEC3"
    },
    {
      "bufferView" : 107,
      "componentType" : 5126,
      "count" : 22,
      "type" : "VEC4"
    },
    {
      "bufferView" : 108,
      "componentType" : 5126,
      "count" : 22,
      "type" : "VEC2"
    },
    {
      "bufferView" : 109,
      "componentType" : 5126,
      "count" : 22,
      "type" : "VEC2"
    },
    {
      "bufferView" : 110,
      "componentType" : 5126,
      "count" : 22,
      "type" : "VEC2"
    },
    {
      "bufferView" : 111,
      "componentType" : 5126,
      "count" : 22,
      "type" : "VEC2"
    },
    {
      "bufferView" : 112,
      "componentType" : 5123,
      "count" : 36,
      "type" : "SCALAR"
    },
    {
      "bufferView" : 113,
      "min" : [ 32.2478, 6.39999, 25.7661 ],
      "max" : [ 35.2106, 10, 28.7288 ],
      "componentType" : 5126,
      "count" : 24,
      "type" : "VEC3"
    },
    {
      "bufferView" : 114,
      "componentType" : 5126,
      "count" : 24,
      "type" : "VEC3"
    },
    {
      "bufferView" : 115,
      "componentType" : 5126,
      "count" : 24,
      "type" : "VEC4"
    },
    {
      "bufferView" : 116,
      "componentType" : 5126,
      "count" : 24,
      "type" : "VEC2"
    },
    {
      "bufferView" : 117,
      "componentType" : 5126,
      "count" : 24,
      "type" : "VEC2"
    },
    {
      "bufferView" : 118,
      "componentType" : 5126,
      "count" : 24,
      "type" : "VEC2"
    },
    {
      "bufferView" : 119,
      "componentType" : 5126,
      "count" : 24,
      "type" : "VEC2"
    },
    {
      "bufferView" : 120,
      "componentType" : 5123,
      "count" : 1359,
      "type" : "SCALAR"
    },
    {
      "bufferView" : 121,
      "min" : [ 19.9422, 18.9777, 13.7175 ],
      "max" : [ 56.296, 23.7416, 49.8375 ],
      "componentType" : 5126,
      "count" : 563,
      "type" : "VEC3"
    },
    {
      "bufferView" : 122,
      "componentType" : 5126,
      "count" : 563,
      "type" : "VEC3"
    },
    {
      "bufferView" : 123,
      "componentType" : 5126,
      "count" : 563,
      "type" : "VEC4"
    },
    {
      "bufferView" : 124,
      "componentType" : 5126,
      "count" : 563,
      "type" : "VEC2"
    },
    {
      "bufferView" : 125,
      "componentType" : 5126,
      "count" : 563,
      "type" : "VEC2"
    },
    {
      "bufferView" : 126,
      "componentType" : 5126,
      "count" : 563,
      "type" : "VEC2"
    },
    {
      "bufferView" : 127,
      "componentType" : 5126,
      "count" : 563,
      "type" : "VEC2"
    },
    {
      "bufferView" : 128,
      "componentType" : 5123,
      "count" : 486,
      "type" : "SCALAR"
    },
    {
      "bufferView" : 129,
      "min" : [ 21.8606, 24.8557, 16.2509 ],
      "max" : [ 45.5882, 25.6943, 38.2376 ],
      "componentType" : 5126,
      "count" : 206,
      "type" : "VEC3"
    },
    {
      "bufferView" : 130,
      "componentType" : 5126,
      "count" : 206,
      "type" : "VEC3"
    },
    {
      "bufferView" : 131,
      "componentType" : 5126,
      "count" : 206,
      "type" : "VEC4"
    },
    {
      "bufferView" : 132,
      "componentType" : 5126,
      "count" : 206,
      "type" : "VEC2"
    },
    {
      "bufferView" : 133,
      "componentType" : 5126,
      "count" : 206,
      "type" : "VEC2"
    },
    {
      "bufferView" : 134,
      "componentType" : 5126,
      "count" : 206,
      "type" : "VEC2"
    },
    {
      "bufferView" : 135,
      "componentType" : 5126,
      "count" : 206,
      "type" : "VEC2"
    },
    {
      "bufferView" : 136,
      "componentType" : 5123,
      "count" : 192,
      "type" : "SCALAR"
    },
    {
      "bufferView" : 137,
      "min" : [ 22.0995, 6.29999, 15.6204 ],
      "max" : [ 39.1761, 6.7, 32.6971 ],
      "componentType" : 5126,
      "count" : 126,
      "type" : "VEC3"
    },
    {
      "bufferView" : 138,
      "componentType" : 5126,
      "count" : 126,
      "type" : "VEC3"
    },
    {
      "bufferView" : 139,
      "componentType" : 5126,
      "count" : 126,
      "type" : "VEC4"
    },
    {
      "bufferView" : 140,
      "componentType" : 5126,
      "count" : 126,
      "type" : "VEC2"
    },
    {
      "bufferView" : 141,
      "componentType" : 5126,
      "count" : 126,
      "type" : "VEC2"
    },
    {
      "bufferView" : 142,
      "componentType" : 5126,
      "count" : 126,
      "type" : "VEC2"
    },
    {
      "bufferView" : 143,
      "componentType" : 5126,
      "count" : 126,
      "type" : "VEC2"
    }
  ]
}
