{
  "asset" : {
    "generator" : "UE Viewer (umodel) build 1544 based",
    "version" : "2.0"
  },
  "scene" : 0,
  "scenes" : [
    {
      "nodes" : [ 0 ]
    }
  ],
  "nodes" : [
    {
      "name" : "SM_ENV_LKNVLD_RockMiddle_G_Lod3",
      "mesh" : 0
    }
  ],
  "materials" : [
    {
      "name" : "MI_ENV_LKNVLD_MiddleRock_A_LOD",
      "pbrMetallicRoughness" : {
        "baseColorFactor" : [ 0.3, 0.3, 0.3, 1.0 ],
        "metallicFactor" : 0.1,
        "roughnessFactor" : 0.5
      }
    }
  ],
  "meshes" : [
    {
      "primitives" : [
        {
          "attributes" : {
            "POSITION" : 1,
            "NORMAL" : 2,
            "TANGENT" : 3,
            "COLOR_0" : 4,
            "TEXCOORD_0" : 5,
            "TEXCOORD_1" : 6,
            "TEXCOORD_2" : 7,
            "TEXCOORD_3" : 8
          },
          "indices" : 0,
          "material" : 0
        }
      ],
      "name" : "SM_ENV_LKNVLD_RockMiddle_G_Lod3"
    }
  ],
  "buffers" : [
    {
      "uri" : "SM_ENV_LKNVLD_RockMiddle_G_Lod3.bin",
      "byteLength" : 18824
    }
  ],
  "bufferViews" : [
    {
      "buffer" : 0,
      "byteOffset" : 0,
      "byteLength" : 1344
    },
    {
      "buffer" : 0,
      "byteOffset" : 1344,
      "byteLength" : 2760
    },
    {
      "buffer" : 0,
      "byteOffset" : 4104,
      "byteLength" : 2760
    },
    {
      "buffer" : 0,
      "byteOffset" : 6864,
      "byteLength" : 3680
    },
    {
      "buffer" : 0,
      "byteOffset" : 10544,
      "byteLength" : 920
    },
    {
      "buffer" : 0,
      "byteOffset" : 11464,
      "byteLength" : 1840
    },
    {
      "buffer" : 0,
      "byteOffset" : 13304,
      "byteLength" : 1840
    },
    {
      "buffer" : 0,
      "byteOffset" : 15144,
      "byteLength" : 1840
    },
    {
      "buffer" : 0,
      "byteOffset" : 16984,
      "byteLength" : 1840
    }
  ],
  "accessors" : [
    {
      "bufferView" : 0,
      "componentType" : 5123,
      "count" : 672,
      "type" : "SCALAR"
    },
    {
      "bufferView" : 1,
      "min" : [ 33.7633, -0.310052, -56.6257 ],
      "max" : [ 40.5431, 1.60992, -46.8694 ],
      "componentType" : 5126,
      "count" : 230,
      "type" : "VEC3"
    },
    {
      "bufferView" : 2,
      "componentType" : 5126,
      "count" : 230,
      "type" : "VEC3"
    },
    {
      "bufferView" : 3,
      "componentType" : 5126,
      "count" : 230,
      "type" : "VEC4"
    },
    {
      "bufferView" : 4,
      "normalized" : true,
      "componentType" : 5121,
      "count" : 230,
      "type" : "VEC4"
    },
    {
      "bufferView" : 5,
      "componentType" : 5126,
      "count" : 230,
      "type" : "VEC2"
    },
    {
      "bufferView" : 6,
      "componentType" : 5126,
      "count" : 230,
      "type" : "VEC2"
    },
    {
      "bufferView" : 7,
      "componentType" : 5126,
      "count" : 230,
      "type" : "VEC2"
    },
    {
      "bufferView" : 8,
      "componentType" : 5126,
      "count" : 230,
      "type" : "VEC2"
    }
  ]
}
