{
  "asset" : {
    "generator" : "UE Viewer (umodel) build 1544 based",
    "version" : "2.0"
  },
  "scene" : 0,
  "scenes" : [
    {
      "nodes" : [ 0 ]
    }
  ],
  "nodes" : [
    {
      "name" : "SM_ENV_LKNVLD_FaceRock_BG_A_03",
      "mesh" : 0
    }
  ],
  "materials" : [
    {
      "name" : "MI_ENV_LKNVLD_Wall_A_BG",
      "pbrMetallicRoughness" : {
        "baseColorFactor" : [ 0.3, 0.3, 0.3, 1.0 ],
        "metallicFactor" : 0.1,
        "roughnessFactor" : 0.5
      }
    }
  ],
  "meshes" : [
    {
      "primitives" : [
        {
          "attributes" : {
            "POSITION" : 1,
            "NORMAL" : 2,
            "TANGENT" : 3,
            "TEXCOORD_0" : 4,
            "TEXCOORD_1" : 5,
            "TEXCOORD_2" : 6,
            "TEXCOORD_3" : 7
          },
          "indices" : 0,
          "material" : 0
        }
      ],
      "name" : "SM_ENV_LKNVLD_FaceRock_BG_A_03"
    }
  ],
  "buffers" : [
    {
      "uri" : "SM_ENV_LKNVLD_FaceRock_BG_A_03.bin",
      "byteLength" : 248088
    }
  ],
  "bufferViews" : [
    {
      "buffer" : 0,
      "byteOffset" : 0,
      "byteLength" : 17040
    },
    {
      "buffer" : 0,
      "byteOffset" : 17040,
      "byteLength" : 38508
    },
    {
      "buffer" : 0,
      "byteOffset" : 55548,
      "byteLength" : 38508
    },
    {
      "buffer" : 0,
      "byteOffset" : 94056,
      "byteLength" : 51344
    },
    {
      "buffer" : 0,
      "byteOffset" : 145400,
      "byteLength" : 25672
    },
    {
      "buffer" : 0,
      "byteOffset" : 171072,
      "byteLength" : 25672
    },
    {
      "buffer" : 0,
      "byteOffset" : 196744,
      "byteLength" : 25672
    },
    {
      "buffer" : 0,
      "byteOffset" : 222416,
      "byteLength" : 25672
    }
  ],
  "accessors" : [
    {
      "bufferView" : 0,
      "componentType" : 5123,
      "count" : 8520,
      "type" : "SCALAR"
    },
    {
      "bufferView" : 1,
      "min" : [ -380.812, -21.0677, -123.053 ],
      "max" : [ -152.95, 108.16, 391.098 ],
      "componentType" : 5126,
      "count" : 3209,
      "type" : "VEC3"
    },
    {
      "bufferView" : 2,
      "componentType" : 5126,
      "count" : 3209,
      "type" : "VEC3"
    },
    {
      "bufferView" : 3,
      "componentType" : 5126,
      "count" : 3209,
      "type" : "VEC4"
    },
    {
      "bufferView" : 4,
      "componentType" : 5126,
      "count" : 3209,
      "type" : "VEC2"
    },
    {
      "bufferView" : 5,
      "componentType" : 5126,
      "count" : 3209,
      "type" : "VEC2"
    },
    {
      "bufferView" : 6,
      "componentType" : 5126,
      "count" : 3209,
      "type" : "VEC2"
    },
    {
      "bufferView" : 7,
      "componentType" : 5126,
      "count" : 3209,
      "type" : "VEC2"
    }
  ]
}
