{
  "asset" : {
    "generator" : "UE Viewer (umodel) build 1544 based",
    "version" : "2.0"
  },
  "scene" : 0,
  "scenes" : [
    {
      "nodes" : [ 0 ]
    }
  ],
  "nodes" : [
    {
      "name" : "SM_ENV_LKNVLD_Event_SL_Bench_B",
      "mesh" : 0
    }
  ],
  "materials" : [
    {
      "name" : "MI_ENV_LKNVLD_Bench_A",
      "pbrMetallicRoughness" : {
        "baseColorFactor" : [ 0.3, 0.3, 0.3, 1.0 ],
        "metallicFactor" : 0.1,
        "roughnessFactor" : 0.5
      }
    }
  ],
  "meshes" : [
    {
      "primitives" : [
        {
          "attributes" : {
            "POSITION" : 1,
            "NORMAL" : 2,
            "TANGENT" : 3,
            "COLOR_0" : 4,
            "TEXCOORD_0" : 5,
            "TEXCOORD_1" : 6,
            "TEXCOORD_2" : 7,
            "TEXCOORD_3" : 8
          },
          "indices" : 0,
          "material" : 0
        }
      ],
      "name" : "SM_ENV_LKNVLD_Event_SL_Bench_B"
    }
  ],
  "buffers" : [
    {
      "uri" : "SM_ENV_LKNVLD_Event_SL_Bench_B.bin",
      "byteLength" : 78368
    }
  ],
  "bufferViews" : [
    {
      "buffer" : 0,
      "byteOffset" : 0,
      "byteLength" : 2976
    },
    {
      "buffer" : 0,
      "byteOffset" : 2976,
      "byteLength" : 11904
    },
    {
      "buffer" : 0,
      "byteOffset" : 14880,
      "byteLength" : 11904
    },
    {
      "buffer" : 0,
      "byteOffset" : 26784,
      "byteLength" : 15872
    },
    {
      "buffer" : 0,
      "byteOffset" : 42656,
      "byteLength" : 3968
    },
    {
      "buffer" : 0,
      "byteOffset" : 46624,
      "byteLength" : 7936
    },
    {
      "buffer" : 0,
      "byteOffset" : 54560,
      "byteLength" : 7936
    },
    {
      "buffer" : 0,
      "byteOffset" : 62496,
      "byteLength" : 7936
    },
    {
      "buffer" : 0,
      "byteOffset" : 70432,
      "byteLength" : 7936
    }
  ],
  "accessors" : [
    {
      "bufferView" : 0,
      "componentType" : 5123,
      "count" : 1488,
      "type" : "SCALAR"
    },
    {
      "bufferView" : 1,
      "min" : [ -50.7843, -0.35, -47.4426 ],
      "max" : [ -48.3641, 0.117165, -39.085 ],
      "componentType" : 5126,
      "count" : 992,
      "type" : "VEC3"
    },
    {
      "bufferView" : 2,
      "componentType" : 5126,
      "count" : 992,
      "type" : "VEC3"
    },
    {
      "bufferView" : 3,
      "componentType" : 5126,
      "count" : 992,
      "type" : "VEC4"
    },
    {
      "bufferView" : 4,
      "normalized" : true,
      "componentType" : 5121,
      "count" : 992,
      "type" : "VEC4"
    },
    {
      "bufferView" : 5,
      "componentType" : 5126,
      "count" : 992,
      "type" : "VEC2"
    },
    {
      "bufferView" : 6,
      "componentType" : 5126,
      "count" : 992,
      "type" : "VEC2"
    },
    {
      "bufferView" : 7,
      "componentType" : 5126,
      "count" : 992,
      "type" : "VEC2"
    },
    {
      "bufferView" : 8,
      "componentType" : 5126,
      "count" : 992,
      "type" : "VEC2"
    }
  ]
}
