{
  "asset" : {
    "generator" : "UE Viewer (umodel) build 1544 based",
    "version" : "2.0"
  },
  "scene" : 0,
  "scenes" : [
    {
      "nodes" : [ 0 ]
    }
  ],
  "nodes" : [
    {
      "name" : "SM_ENV_LKNVLD_Event_HL_Road_A_COL",
      "mesh" : 0
    }
  ],
  "materials" : [
    {
      "name" : "MI_Wood",
      "pbrMetallicRoughness" : {
        "baseColorFactor" : [ 0.3, 0.3, 0.3, 1.0 ],
        "metallicFactor" : 0.1,
        "roughnessFactor" : 0.5
      }
    },
    {
      "name" : "MI_Concrete",
      "pbrMetallicRoughness" : {
        "baseColorFactor" : [ 0.9, 0.3, 0.3, 1.0 ],
        "metallicFactor" : 0.1,
        "roughnessFactor" : 0.5
      }
    }
  ],
  "meshes" : [
    {
      "primitives" : [
        {
          "attributes" : {
            "POSITION" : 1,
            "NORMAL" : 2,
            "TANGENT" : 3,
            "TEXCOORD_0" : 4
          },
          "indices" : 0,
          "material" : 0
        },
        {
          "attributes" : {
            "POSITION" : 6,
            "NORMAL" : 7,
            "TANGENT" : 8,
            "TEXCOORD_0" : 9
          },
          "indices" : 5,
          "material" : 1
        }
      ],
      "name" : "SM_ENV_LKNVLD_Event_HL_Road_A_COL"
    }
  ],
  "buffers" : [
    {
      "uri" : "SM_ENV_LKNVLD_Event_HL_Road_A_COL.bin",
      "byteLength" : 19992
    }
  ],
  "bufferViews" : [
    {
      "buffer" : 0,
      "byteOffset" : 0,
      "byteLength" : 264
    },
    {
      "buffer" : 0,
      "byteOffset" : 264,
      "byteLength" : 1536
    },
    {
      "buffer" : 0,
      "byteOffset" : 1800,
      "byteLength" : 1536
    },
    {
      "buffer" : 0,
      "byteOffset" : 3336,
      "byteLength" : 2048
    },
    {
      "buffer" : 0,
      "byteOffset" : 5384,
      "byteLength" : 1024
    },
    {
      "buffer" : 0,
      "byteOffset" : 6408,
      "byteLength" : 912
    },
    {
      "buffer" : 0,
      "byteOffset" : 7320,
      "byteLength" : 3168
    },
    {
      "buffer" : 0,
      "byteOffset" : 10488,
      "byteLength" : 3168
    },
    {
      "buffer" : 0,
      "byteOffset" : 13656,
      "byteLength" : 4224
    },
    {
      "buffer" : 0,
      "byteOffset" : 17880,
      "byteLength" : 2112
    }
  ],
  "accessors" : [
    {
      "bufferView" : 0,
      "componentType" : 5123,
      "count" : 132,
      "type" : "SCALAR"
    },
    {
      "bufferView" : 1,
      "min" : [ -12.6003, -0.442333, -30.8187 ],
      "max" : [ 12.6003, -0.256171, 17.6939 ],
      "componentType" : 5126,
      "count" : 128,
      "type" : "VEC3"
    },
    {
      "bufferView" : 2,
      "componentType" : 5126,
      "count" : 128,
      "type" : "VEC3"
    },
    {
      "bufferView" : 3,
      "componentType" : 5126,
      "count" : 128,
      "type" : "VEC4"
    },
    {
      "bufferView" : 4,
      "componentType" : 5126,
      "count" : 128,
      "type" : "VEC2"
    },
    {
      "bufferView" : 5,
      "componentType" : 5123,
      "count" : 456,
      "type" : "SCALAR"
    },
    {
      "bufferView" : 6,
      "min" : [ -13.6431, -0.868977, -30.8187 ],
      "max" : [ 13.6431, -0.178242, 17.9769 ],
      "componentType" : 5126,
      "count" : 264,
      "type" : "VEC3"
    },
    {
      "bufferView" : 7,
      "componentType" : 5126,
      "count" : 264,
      "type" : "VEC3"
    },
    {
      "bufferView" : 8,
      "componentType" : 5126,
      "count" : 264,
      "type" : "VEC4"
    },
    {
      "bufferView" : 9,
      "componentType" : 5126,
      "count" : 264,
      "type" : "VEC2"
    }
  ]
}
