{
  "asset" : {
    "generator" : "UE Viewer (umodel) build 1544 based",
    "version" : "2.0"
  },
  "scene" : 0,
  "scenes" : [
    {
      "nodes" : [ 0 ]
    }
  ],
  "nodes" : [
    {
      "name" : "SM_ENV_LKNVLD_Hatago_Front_Lod1",
      "mesh" : 0
    }
  ],
  "materials" : [
    {
      "name" : "MI_ENV_LKNVLD_Eaves_E",
      "pbrMetallicRoughness" : {
        "baseColorFactor" : [ 0.3, 0.3, 0.3, 1.0 ],
        "metallicFactor" : 0.1,
        "roughnessFactor" : 0.5
      }
    },
    {
      "name" : "MI_ENV_LKNVLD_RoofTiles_Green",
      "pbrMetallicRoughness" : {
        "baseColorFactor" : [ 0.9, 0.3, 0.3, 1.0 ],
        "metallicFactor" : 0.1,
        "roughnessFactor" : 0.5
      }
    },
    {
      "name" : "MI_ENV_LKNVLD_Aircon_E",
      "pbrMetallicRoughness" : {
        "baseColorFactor" : [ 0.3, 0.9, 0.3, 1.0 ],
        "metallicFactor" : 0.1,
        "roughnessFactor" : 0.5
      }
    },
    {
      "name" : "MI_ENV_LKNVLD_WoodWindows_D",
      "pbrMetallicRoughness" : {
        "baseColorFactor" : [ 0.3, 0.3, 0.9, 1.0 ],
        "metallicFactor" : 0.1,
        "roughnessFactor" : 0.5
      }
    },
    {
      "name" : "MI_ENV_LKNVLD_WoodPlain_Beige",
      "pbrMetallicRoughness" : {
        "baseColorFactor" : [ 0.9, 0.9, 0.9, 1.0 ],
        "metallicFactor" : 0.1,
        "roughnessFactor" : 0.5
      }
    },
    {
      "name" : "MI_ENV_LKNVLD_BambooWall",
      "pbrMetallicRoughness" : {
        "baseColorFactor" : [ 0.9, 0.9, 0.3, 1.0 ],
        "metallicFactor" : 0.1,
        "roughnessFactor" : 0.5
      }
    },
    {
      "name" : "MI_ENV_LKNVLD_Aircon_H",
      "pbrMetallicRoughness" : {
        "baseColorFactor" : [ 0.9, 0.3, 0.9, 1.0 ],
        "metallicFactor" : 0.1,
        "roughnessFactor" : 0.5
      }
    },
    {
      "name" : "MI_ENV_LKNVLD_MetalRoof_Green",
      "pbrMetallicRoughness" : {
        "baseColorFactor" : [ 0.3, 0.9, 0.9, 1.0 ],
        "metallicFactor" : 0.1,
        "roughnessFactor" : 0.5
      }
    },
    {
      "name" : "MI_ENV_LKNVLD_Curtain_F",
      "pbrMetallicRoughness" : {
        "baseColorFactor" : [ 1, 0.3, 0.3, 1.0 ],
        "metallicFactor" : 0.1,
        "roughnessFactor" : 0.5
      }
    },
    {
      "name" : "MI_ENV_LKNVLD_WoodPlain_Brown",
      "pbrMetallicRoughness" : {
        "baseColorFactor" : [ 0.6, 0.3, 0.3, 1.0 ],
        "metallicFactor" : 0.1,
        "roughnessFactor" : 0.5
      }
    },
    {
      "name" : "MI_ENV_LKNVLD_ClanSignboard_I",
      "pbrMetallicRoughness" : {
        "baseColorFactor" : [ 1, 0.9, 0.3, 1.0 ],
        "metallicFactor" : 0.1,
        "roughnessFactor" : 0.5
      }
    },
    {
      "name" : "MI_ENV_LKNVLD_Plaster_White",
      "pbrMetallicRoughness" : {
        "baseColorFactor" : [ 1, 0.3, 0.9, 1.0 ],
        "metallicFactor" : 0.1,
        "roughnessFactor" : 0.5
      }
    },
    {
      "name" : "MI_ENV_LKNVLD_WoodWindows_C",
      "pbrMetallicRoughness" : {
        "baseColorFactor" : [ 0.6, 0.9, 0.9, 1.0 ],
        "metallicFactor" : 0.1,
        "roughnessFactor" : 0.5
      }
    },
    {
      "name" : "MI_ENV_LKNVLD_MetalRoofDark",
      "pbrMetallicRoughness" : {
        "baseColorFactor" : [ 0.6, 0.9, 0.3, 1.0 ],
        "metallicFactor" : 0.1,
        "roughnessFactor" : 0.5
      }
    },
    {
      "name" : "MI_T_ENV_LKNVLD_StoneStairs",
      "pbrMetallicRoughness" : {
        "baseColorFactor" : [ 0.6, 0.3, 0.9, 1.0 ],
        "metallicFactor" : 0.1,
        "roughnessFactor" : 0.5
      }
    },
    {
      "name" : "MI_T_ENV_LKNVLD_StoneTrim",
      "pbrMetallicRoughness" : {
        "baseColorFactor" : [ 1, 0.9, 0.9, 1.0 ],
        "metallicFactor" : 0.1,
        "roughnessFactor" : 0.5
      }
    },
    {
      "name" : "MI_ENV_LKNVLD_ClanSignboard_H",
      "pbrMetallicRoughness" : {
        "baseColorFactor" : [ 0.3, 1, 0.3, 1.0 ],
        "metallicFactor" : 0.1,
        "roughnessFactor" : 0.5
      }
    },
    {
      "name" : "MI_ENV_LKNVLD_Pipe_A",
      "pbrMetallicRoughness" : {
        "baseColorFactor" : [ 0.9, 1, 0.3, 1.0 ],
        "metallicFactor" : 0.1,
        "roughnessFactor" : 0.5
      }
    }
  ],
  "meshes" : [
    {
      "primitives" : [
        {
          "attributes" : {
            "POSITION" : 1,
            "NORMAL" : 2,
            "TANGENT" : 3,
            "COLOR_0" : 4,
            "TEXCOORD_0" : 5,
            "TEXCOORD_1" : 6,
            "TEXCOORD_2" : 7,
            "TEXCOORD_3" : 8
          },
          "indices" : 0,
          "material" : 0
        },
        {
          "attributes" : {
            "POSITION" : 10,
            "NORMAL" : 11,
            "TANGENT" : 12,
            "COLOR_0" : 13,
            "TEXCOORD_0" : 14,
            "TEXCOORD_1" : 15,
            "TEXCOORD_2" : 16,
            "TEXCOORD_3" : 17
          },
          "indices" : 9,
          "material" : 1
        },
        {
          "attributes" : {
            "POSITION" : 19,
            "NORMAL" : 20,
            "TANGENT" : 21,
            "COLOR_0" : 22,
            "TEXCOORD_0" : 23,
            "TEXCOORD_1" : 24,
            "TEXCOORD_2" : 25,
            "TEXCOORD_3" : 26
          },
          "indices" : 18,
          "material" : 2
        },
        {
          "attributes" : {
            "POSITION" : 28,
            "NORMAL" : 29,
            "TANGENT" : 30,
            "COLOR_0" : 31,
            "TEXCOORD_0" : 32,
            "TEXCOORD_1" : 33,
            "TEXCOORD_2" : 34,
            "TEXCOORD_3" : 35
          },
          "indices" : 27,
          "material" : 3
        },
        {
          "attributes" : {
            "POSITION" : 37,
            "NORMAL" : 38,
            "TANGENT" : 39,
            "COLOR_0" : 40,
            "TEXCOORD_0" : 41,
            "TEXCOORD_1" : 42,
            "TEXCOORD_2" : 43,
            "TEXCOORD_3" : 44
          },
          "indices" : 36,
          "material" : 4
        },
        {
          "attributes" : {
            "POSITION" : 46,
            "NORMAL" : 47,
            "TANGENT" : 48,
            "COLOR_0" : 49,
            "TEXCOORD_0" : 50,
            "TEXCOORD_1" : 51,
            "TEXCOORD_2" : 52,
            "TEXCOORD_3" : 53
          },
          "indices" : 45,
          "material" : 5
        },
        {
          "attributes" : {
            "POSITION" : 55,
            "NORMAL" : 56,
            "TANGENT" : 57,
            "COLOR_0" : 58,
            "TEXCOORD_0" : 59,
            "TEXCOORD_1" : 60,
            "TEXCOORD_2" : 61,
            "TEXCOORD_3" : 62
          },
          "indices" : 54,
          "material" : 6
        },
        {
          "attributes" : {
            "POSITION" : 64,
            "NORMAL" : 65,
            "TANGENT" : 66,
            "COLOR_0" : 67,
            "TEXCOORD_0" : 68,
            "TEXCOORD_1" : 69,
            "TEXCOORD_2" : 70,
            "TEXCOORD_3" : 71
          },
          "indices" : 63,
          "material" : 7
        },
        {
          "attributes" : {
            "POSITION" : 73,
            "NORMAL" : 74,
            "TANGENT" : 75,
            "COLOR_0" : 76,
            "TEXCOORD_0" : 77,
            "TEXCOORD_1" : 78,
            "TEXCOORD_2" : 79,
            "TEXCOORD_3" : 80
          },
          "indices" : 72,
          "material" : 8
        },
        {
          "attributes" : {
            "POSITION" : 82,
            "NORMAL" : 83,
            "TANGENT" : 84,
            "COLOR_0" : 85,
            "TEXCOORD_0" : 86,
            "TEXCOORD_1" : 87,
            "TEXCOORD_2" : 88,
            "TEXCOORD_3" : 89
          },
          "indices" : 81,
          "material" : 9
        },
        {
          "attributes" : {
            "POSITION" : 91,
            "NORMAL" : 92,
            "TANGENT" : 93,
            "COLOR_0" : 94,
            "TEXCOORD_0" : 95,
            "TEXCOORD_1" : 96,
            "TEXCOORD_2" : 97,
            "TEXCOORD_3" : 98
          },
          "indices" : 90,
          "material" : 10
        },
        {
          "attributes" : {
            "POSITION" : 100,
            "NORMAL" : 101,
            "TANGENT" : 102,
            "COLOR_0" : 103,
            "TEXCOORD_0" : 104,
            "TEXCOORD_1" : 105,
            "TEXCOORD_2" : 106,
            "TEXCOORD_3" : 107
          },
          "indices" : 99,
          "material" : 11
        },
        {
          "attributes" : {
            "POSITION" : 109,
            "NORMAL" : 110,
            "TANGENT" : 111,
            "COLOR_0" : 112,
            "TEXCOORD_0" : 113,
            "TEXCOORD_1" : 114,
            "TEXCOORD_2" : 115,
            "TEXCOORD_3" : 116
          },
          "indices" : 108,
          "material" : 12
        },
        {
          "attributes" : {
            "POSITION" : 118,
            "NORMAL" : 119,
            "TANGENT" : 120,
            "COLOR_0" : 121,
            "TEXCOORD_0" : 122,
            "TEXCOORD_1" : 123,
            "TEXCOORD_2" : 124,
            "TEXCOORD_3" : 125
          },
          "indices" : 117,
          "material" : 13
        },
        {
          "attributes" : {
            "POSITION" : 127,
            "NORMAL" : 128,
            "TANGENT" : 129,
            "COLOR_0" : 130,
            "TEXCOORD_0" : 131,
            "TEXCOORD_1" : 132,
            "TEXCOORD_2" : 133,
            "TEXCOORD_3" : 134
          },
          "indices" : 126,
          "material" : 14
        },
        {
          "attributes" : {
            "POSITION" : 136,
            "NORMAL" : 137,
            "TANGENT" : 138,
            "COLOR_0" : 139,
            "TEXCOORD_0" : 140,
            "TEXCOORD_1" : 141,
            "TEXCOORD_2" : 142,
            "TEXCOORD_3" : 143
          },
          "indices" : 135,
          "material" : 15
        },
        {
          "attributes" : {
            "POSITION" : 145,
            "NORMAL" : 146,
            "TANGENT" : 147,
            "COLOR_0" : 148,
            "TEXCOORD_0" : 149,
            "TEXCOORD_1" : 150,
            "TEXCOORD_2" : 151,
            "TEXCOORD_3" : 152
          },
          "indices" : 144,
          "material" : 16
        },
        {
          "attributes" : {
            "POSITION" : 154,
            "NORMAL" : 155,
            "TANGENT" : 156,
            "COLOR_0" : 157,
            "TEXCOORD_0" : 158,
            "TEXCOORD_1" : 159,
            "TEXCOORD_2" : 160,
            "TEXCOORD_3" : 161
          },
          "indices" : 153,
          "material" : 17
        }
      ],
      "name" : "SM_ENV_LKNVLD_Hatago_Front_Lod1"
    }
  ],
  "buffers" : [
    {
      "uri" : "SM_ENV_LKNVLD_Hatago_Front_Lod1.bin",
      "byteLength" : 573224
    }
  ],
  "bufferViews" : [
    {
      "buffer" : 0,
      "byteOffset" : 0,
      "byteLength" : 3416
    },
    {
      "buffer" : 0,
      "byteOffset" : 3416,
      "byteLength" : 12360
    },
    {
      "buffer" : 0,
      "byteOffset" : 15776,
      "byteLength" : 12360
    },
    {
      "buffer" : 0,
      "byteOffset" : 28136,
      "byteLength" : 16480
    },
    {
      "buffer" : 0,
      "byteOffset" : 44616,
      "byteLength" : 4120
    },
    {
      "buffer" : 0,
      "byteOffset" : 48736,
      "byteLength" : 8240
    },
    {
      "buffer" : 0,
      "byteOffset" : 56976,
      "byteLength" : 8240
    },
    {
      "buffer" : 0,
      "byteOffset" : 65216,
      "byteLength" : 8240
    },
    {
      "buffer" : 0,
      "byteOffset" : 73456,
      "byteLength" : 8240
    },
    {
      "buffer" : 0,
      "byteOffset" : 81696,
      "byteLength" : 8820
    },
    {
      "buffer" : 0,
      "byteOffset" : 90516,
      "byteLength" : 14832
    },
    {
      "buffer" : 0,
      "byteOffset" : 105348,
      "byteLength" : 14832
    },
    {
      "buffer" : 0,
      "byteOffset" : 120180,
      "byteLength" : 19776
    },
    {
      "buffer" : 0,
      "byteOffset" : 139956,
      "byteLength" : 4944
    },
    {
      "buffer" : 0,
      "byteOffset" : 144900,
      "byteLength" : 9888
    },
    {
      "buffer" : 0,
      "byteOffset" : 154788,
      "byteLength" : 9888
    },
    {
      "buffer" : 0,
      "byteOffset" : 164676,
      "byteLength" : 9888
    },
    {
      "buffer" : 0,
      "byteOffset" : 174564,
      "byteLength" : 9888
    },
    {
      "buffer" : 0,
      "byteOffset" : 184452,
      "byteLength" : 4188
    },
    {
      "buffer" : 0,
      "byteOffset" : 188640,
      "byteLength" : 5856
    },
    {
      "buffer" : 0,
      "byteOffset" : 194496,
      "byteLength" : 5856
    },
    {
      "buffer" : 0,
      "byteOffset" : 200352,
      "byteLength" : 7808
    },
    {
      "buffer" : 0,
      "byteOffset" : 208160,
      "byteLength" : 1952
    },
    {
      "buffer" : 0,
      "byteOffset" : 210112,
      "byteLength" : 3904
    },
    {
      "buffer" : 0,
      "byteOffset" : 214016,
      "byteLength" : 3904
    },
    {
      "buffer" : 0,
      "byteOffset" : 217920,
      "byteLength" : 3904
    },
    {
      "buffer" : 0,
      "byteOffset" : 221824,
      "byteLength" : 3904
    },
    {
      "buffer" : 0,
      "byteOffset" : 225728,
      "byteLength" : 48
    },
    {
      "buffer" : 0,
      "byteOffset" : 225776,
      "byteLength" : 192
    },
    {
      "buffer" : 0,
      "byteOffset" : 225968,
      "byteLength" : 192
    },
    {
      "buffer" : 0,
      "byteOffset" : 226160,
      "byteLength" : 256
    },
    {
      "buffer" : 0,
      "byteOffset" : 226416,
      "byteLength" : 64
    },
    {
      "buffer" : 0,
      "byteOffset" : 226480,
      "byteLength" : 128
    },
    {
      "buffer" : 0,
      "byteOffset" : 226608,
      "byteLength" : 128
    },
    {
      "buffer" : 0,
      "byteOffset" : 226736,
      "byteLength" : 128
    },
    {
      "buffer" : 0,
      "byteOffset" : 226864,
      "byteLength" : 128
    },
    {
      "buffer" : 0,
      "byteOffset" : 226992,
      "byteLength" : 600
    },
    {
      "buffer" : 0,
      "byteOffset" : 227592,
      "byteLength" : 2376
    },
    {
      "buffer" : 0,
      "byteOffset" : 229968,
      "byteLength" : 2376
    },
    {
      "buffer" : 0,
      "byteOffset" : 232344,
      "byteLength" : 3168
    },
    {
      "buffer" : 0,
      "byteOffset" : 235512,
      "byteLength" : 792
    },
    {
      "buffer" : 0,
      "byteOffset" : 236304,
      "byteLength" : 1584
    },
    {
      "buffer" : 0,
      "byteOffset" : 237888,
      "byteLength" : 1584
    },
    {
      "buffer" : 0,
      "byteOffset" : 239472,
      "byteLength" : 1584
    },
    {
      "buffer" : 0,
      "byteOffset" : 241056,
      "byteLength" : 1584
    },
    {
      "buffer" : 0,
      "byteOffset" : 242640,
      "byteLength" : 6468
    },
    {
      "buffer" : 0,
      "byteOffset" : 249108,
      "byteLength" : 8052
    },
    {
      "buffer" : 0,
      "byteOffset" : 257160,
      "byteLength" : 8052
    },
    {
      "buffer" : 0,
      "byteOffset" : 265212,
      "byteLength" : 10736
    },
    {
      "buffer" : 0,
      "byteOffset" : 275948,
      "byteLength" : 2684
    },
    {
      "buffer" : 0,
      "byteOffset" : 278632,
      "byteLength" : 5368
    },
    {
      "buffer" : 0,
      "byteOffset" : 284000,
      "byteLength" : 5368
    },
    {
      "buffer" : 0,
      "byteOffset" : 289368,
      "byteLength" : 5368
    },
    {
      "buffer" : 0,
      "byteOffset" : 294736,
      "byteLength" : 5368
    },
    {
      "buffer" : 0,
      "byteOffset" : 300104,
      "byteLength" : 180
    },
    {
      "buffer" : 0,
      "byteOffset" : 300284,
      "byteLength" : 648
    },
    {
      "buffer" : 0,
      "byteOffset" : 300932,
      "byteLength" : 648
    },
    {
      "buffer" : 0,
      "byteOffset" : 301580,
      "byteLength" : 864
    },
    {
      "buffer" : 0,
      "byteOffset" : 302444,
      "byteLength" : 216
    },
    {
      "buffer" : 0,
      "byteOffset" : 302660,
      "byteLength" : 432
    },
    {
      "buffer" : 0,
      "byteOffset" : 303092,
      "byteLength" : 432
    },
    {
      "buffer" : 0,
      "byteOffset" : 303524,
      "byteLength" : 432
    },
    {
      "buffer" : 0,
      "byteOffset" : 303956,
      "byteLength" : 432
    },
    {
      "buffer" : 0,
      "byteOffset" : 304388,
      "byteLength" : 900
    },
    {
      "buffer" : 0,
      "byteOffset" : 305288,
      "byteLength" : 2364
    },
    {
      "buffer" : 0,
      "byteOffset" : 307652,
      "byteLength" : 2364
    },
    {
      "buffer" : 0,
      "byteOffset" : 310016,
      "byteLength" : 3152
    },
    {
      "buffer" : 0,
      "byteOffset" : 313168,
      "byteLength" : 788
    },
    {
      "buffer" : 0,
      "byteOffset" : 313956,
      "byteLength" : 1576
    },
    {
      "buffer" : 0,
      "byteOffset" : 315532,
      "byteLength" : 1576
    },
    {
      "buffer" : 0,
      "byteOffset" : 317108,
      "byteLength" : 1576
    },
    {
      "buffer" : 0,
      "byteOffset" : 318684,
      "byteLength" : 1576
    },
    {
      "buffer" : 0,
      "byteOffset" : 320260,
      "byteLength" : 648
    },
    {
      "buffer" : 0,
      "byteOffset" : 320908,
      "byteLength" : 1248
    },
    {
      "buffer" : 0,
      "byteOffset" : 322156,
      "byteLength" : 1248
    },
    {
      "buffer" : 0,
      "byteOffset" : 323404,
      "byteLength" : 1664
    },
    {
      "buffer" : 0,
      "byteOffset" : 325068,
      "byteLength" : 416
    },
    {
      "buffer" : 0,
      "byteOffset" : 325484,
      "byteLength" : 832
    },
    {
      "buffer" : 0,
      "byteOffset" : 326316,
      "byteLength" : 832
    },
    {
      "buffer" : 0,
      "byteOffset" : 327148,
      "byteLength" : 832
    },
    {
      "buffer" : 0,
      "byteOffset" : 327980,
      "byteLength" : 832
    },
    {
      "buffer" : 0,
      "byteOffset" : 328812,
      "byteLength" : 5660
    },
    {
      "buffer" : 0,
      "byteOffset" : 334472,
      "byteLength" : 13728
    },
    {
      "buffer" : 0,
      "byteOffset" : 348200,
      "byteLength" : 13728
    },
    {
      "buffer" : 0,
      "byteOffset" : 361928,
      "byteLength" : 18304
    },
    {
      "buffer" : 0,
      "byteOffset" : 380232,
      "byteLength" : 4576
    },
    {
      "buffer" : 0,
      "byteOffset" : 384808,
      "byteLength" : 9152
    },
    {
      "buffer" : 0,
      "byteOffset" : 393960,
      "byteLength" : 9152
    },
    {
      "buffer" : 0,
      "byteOffset" : 403112,
      "byteLength" : 9152
    },
    {
      "buffer" : 0,
      "byteOffset" : 412264,
      "byteLength" : 9152
    },
    {
      "buffer" : 0,
      "byteOffset" : 421416,
      "byteLength" : 4560
    },
    {
      "buffer" : 0,
      "byteOffset" : 425976,
      "byteLength" : 10644
    },
    {
      "buffer" : 0,
      "byteOffset" : 436620,
      "byteLength" : 10644
    },
    {
      "buffer" : 0,
      "byteOffset" : 447264,
      "byteLength" : 14192
    },
    {
      "buffer" : 0,
      "byteOffset" : 461456,
      "byteLength" : 3548
    },
    {
      "buffer" : 0,
      "byteOffset" : 465004,
      "byteLength" : 7096
    },
    {
      "buffer" : 0,
      "byteOffset" : 472100,
      "byteLength" : 7096
    },
    {
      "buffer" : 0,
      "byteOffset" : 479196,
      "byteLength" : 7096
    },
    {
      "buffer" : 0,
      "byteOffset" : 486292,
      "byteLength" : 7096
    },
    {
      "buffer" : 0,
      "byteOffset" : 493388,
      "byteLength" : 236
    },
    {
      "buffer" : 0,
      "byteOffset" : 493624,
      "byteLength" : 804
    },
    {
      "buffer" : 0,
      "byteOffset" : 494428,
      "byteLength" : 804
    },
    {
      "buffer" : 0,
      "byteOffset" : 495232,
      "byteLength" : 1072
    },
    {
      "buffer" : 0,
      "byteOffset" : 496304,
      "byteLength" : 268
    },
    {
      "buffer" : 0,
      "byteOffset" : 496572,
      "byteLength" : 536
    },
    {
      "buffer" : 0,
      "byteOffset" : 497108,
      "byteLength" : 536
    },
    {
      "buffer" : 0,
      "byteOffset" : 497644,
      "byteLength" : 536
    },
    {
      "buffer" : 0,
      "byteOffset" : 498180,
      "byteLength" : 536
    },
    {
      "buffer" : 0,
      "byteOffset" : 498716,
      "byteLength" : 132
    },
    {
      "buffer" : 0,
      "byteOffset" : 498848,
      "byteLength" : 480
    },
    {
      "buffer" : 0,
      "byteOffset" : 499328,
      "byteLength" : 480
    },
    {
      "buffer" : 0,
      "byteOffset" : 499808,
      "byteLength" : 640
    },
    {
      "buffer" : 0,
      "byteOffset" : 500448,
      "byteLength" : 160
    },
    {
      "buffer" : 0,
      "byteOffset" : 500608,
      "byteLength" : 320
    },
    {
      "buffer" : 0,
      "byteOffset" : 500928,
      "byteLength" : 320
    },
    {
      "buffer" : 0,
      "byteOffset" : 501248,
      "byteLength" : 320
    },
    {
      "buffer" : 0,
      "byteOffset" : 501568,
      "byteLength" : 320
    },
    {
      "buffer" : 0,
      "byteOffset" : 501888,
      "byteLength" : 336
    },
    {
      "buffer" : 0,
      "byteOffset" : 502224,
      "byteLength" : 1152
    },
    {
      "buffer" : 0,
      "byteOffset" : 503376,
      "byteLength" : 1152
    },
    {
      "buffer" : 0,
      "byteOffset" : 504528,
      "byteLength" : 1536
    },
    {
      "buffer" : 0,
      "byteOffset" : 506064,
      "byteLength" : 384
    },
    {
      "buffer" : 0,
      "byteOffset" : 506448,
      "byteLength" : 768
    },
    {
      "buffer" : 0,
      "byteOffset" : 507216,
      "byteLength" : 768
    },
    {
      "buffer" : 0,
      "byteOffset" : 507984,
      "byteLength" : 768
    },
    {
      "buffer" : 0,
      "byteOffset" : 508752,
      "byteLength" : 768
    },
    {
      "buffer" : 0,
      "byteOffset" : 509520,
      "byteLength" : 900
    },
    {
      "buffer" : 0,
      "byteOffset" : 510420,
      "byteLength" : 1992
    },
    {
      "buffer" : 0,
      "byteOffset" : 512412,
      "byteLength" : 1992
    },
    {
      "buffer" : 0,
      "byteOffset" : 514404,
      "byteLength" : 2656
    },
    {
      "buffer" : 0,
      "byteOffset" : 517060,
      "byteLength" : 664
    },
    {
      "buffer" : 0,
      "byteOffset" : 517724,
      "byteLength" : 1328
    },
    {
      "buffer" : 0,
      "byteOffset" : 519052,
      "byteLength" : 1328
    },
    {
      "buffer" : 0,
      "byteOffset" : 520380,
      "byteLength" : 1328
    },
    {
      "buffer" : 0,
      "byteOffset" : 521708,
      "byteLength" : 1328
    },
    {
      "buffer" : 0,
      "byteOffset" : 523036,
      "byteLength" : 1368
    },
    {
      "buffer" : 0,
      "byteOffset" : 524404,
      "byteLength" : 2076
    },
    {
      "buffer" : 0,
      "byteOffset" : 526480,
      "byteLength" : 2076
    },
    {
      "buffer" : 0,
      "byteOffset" : 528556,
      "byteLength" : 2768
    },
    {
      "buffer" : 0,
      "byteOffset" : 531324,
      "byteLength" : 692
    },
    {
      "buffer" : 0,
      "byteOffset" : 532016,
      "byteLength" : 1384
    },
    {
      "buffer" : 0,
      "byteOffset" : 533400,
      "byteLength" : 1384
    },
    {
      "buffer" : 0,
      "byteOffset" : 534784,
      "byteLength" : 1384
    },
    {
      "buffer" : 0,
      "byteOffset" : 536168,
      "byteLength" : 1384
    },
    {
      "buffer" : 0,
      "byteOffset" : 537552,
      "byteLength" : 1092
    },
    {
      "buffer" : 0,
      "byteOffset" : 538644,
      "byteLength" : 1992
    },
    {
      "buffer" : 0,
      "byteOffset" : 540636,
      "byteLength" : 1992
    },
    {
      "buffer" : 0,
      "byteOffset" : 542628,
      "byteLength" : 2656
    },
    {
      "buffer" : 0,
      "byteOffset" : 545284,
      "byteLength" : 664
    },
    {
      "buffer" : 0,
      "byteOffset" : 545948,
      "byteLength" : 1328
    },
    {
      "buffer" : 0,
      "byteOffset" : 547276,
      "byteLength" : 1328
    },
    {
      "buffer" : 0,
      "byteOffset" : 548604,
      "byteLength" : 1328
    },
    {
      "buffer" : 0,
      "byteOffset" : 549932,
      "byteLength" : 1328
    },
    {
      "buffer" : 0,
      "byteOffset" : 551260,
      "byteLength" : 2508
    },
    {
      "buffer" : 0,
      "byteOffset" : 553768,
      "byteLength" : 3072
    },
    {
      "buffer" : 0,
      "byteOffset" : 556840,
      "byteLength" : 3072
    },
    {
      "buffer" : 0,
      "byteOffset" : 559912,
      "byteLength" : 4096
    },
    {
      "buffer" : 0,
      "byteOffset" : 564008,
      "byteLength" : 1024
    },
    {
      "buffer" : 0,
      "byteOffset" : 565032,
      "byteLength" : 2048
    },
    {
      "buffer" : 0,
      "byteOffset" : 567080,
      "byteLength" : 2048
    },
    {
      "buffer" : 0,
      "byteOffset" : 569128,
      "byteLength" : 2048
    },
    {
      "buffer" : 0,
      "byteOffset" : 571176,
      "byteLength" : 2048
    }
  ],
  "accessors" : [
    {
      "bufferView" : 0,
      "componentType" : 5123,
      "count" : 1707,
      "type" : "SCALAR"
    },
    {
      "bufferView" : 1,
      "min" : [ -33.4972, 4.1635, -8.44826 ],
      "max" : [ -29.4227, 6.91912, 7.89424 ],
      "componentType" : 5126,
      "count" : 1030,
      "type" : "VEC3"
    },
    {
      "bufferView" : 2,
      "componentType" : 5126,
      "count" : 1030,
      "type" : "VEC3"
    },
    {
      "bufferView" : 3,
      "componentType" : 5126,
      "count" : 1030,
      "type" : "VEC4"
    },
    {
      "bufferView" : 4,
      "normalized" : true,
      "componentType" : 5121,
      "count" : 1030,
      "type" : "VEC4"
    },
    {
      "bufferView" : 5,
      "componentType" : 5126,
      "count" : 1030,
      "type" : "VEC2"
    },
    {
      "bufferView" : 6,
      "componentType" : 5126,
      "count" : 1030,
      "type" : "VEC2"
    },
    {
      "bufferView" : 7,
      "componentType" : 5126,
      "count" : 1030,
      "type" : "VEC2"
    },
    {
      "bufferView" : 8,
      "componentType" : 5126,
      "count" : 1030,
      "type" : "VEC2"
    },
    {
      "bufferView" : 9,
      "componentType" : 5123,
      "count" : 4410,
      "type" : "SCALAR"
    },
    {
      "bufferView" : 10,
      "min" : [ -33.4972, 6.66311, -7.40516 ],
      "max" : [ -30.7552, 9.12774, 6.85004 ],
      "componentType" : 5126,
      "count" : 1236,
      "type" : "VEC3"
    },
    {
      "bufferView" : 11,
      "componentType" : 5126,
      "count" : 1236,
      "type" : "VEC3"
    },
    {
      "bufferView" : 12,
      "componentType" : 5126,
      "count" : 1236,
      "type" : "VEC4"
    },
    {
      "bufferView" : 13,
      "normalized" : true,
      "componentType" : 5121,
      "count" : 1236,
      "type" : "VEC4"
    },
    {
      "bufferView" : 14,
      "componentType" : 5126,
      "count" : 1236,
      "type" : "VEC2"
    },
    {
      "bufferView" : 15,
      "componentType" : 5126,
      "count" : 1236,
      "type" : "VEC2"
    },
    {
      "bufferView" : 16,
      "componentType" : 5126,
      "count" : 1236,
      "type" : "VEC2"
    },
    {
      "bufferView" : 17,
      "componentType" : 5126,
      "count" : 1236,
      "type" : "VEC2"
    },
    {
      "bufferView" : 18,
      "componentType" : 5123,
      "count" : 2094,
      "type" : "SCALAR"
    },
    {
      "bufferView" : 19,
      "min" : [ -30.6779, 4.12499, -7.22396 ],
      "max" : [ -29.8645, 5.81089, 6.62647 ],
      "componentType" : 5126,
      "count" : 488,
      "type" : "VEC3"
    },
    {
      "bufferView" : 20,
      "componentType" : 5126,
      "count" : 488,
      "type" : "VEC3"
    },
    {
      "bufferView" : 21,
      "componentType" : 5126,
      "count" : 488,
      "type" : "VEC4"
    },
    {
      "bufferView" : 22,
      "normalized" : true,
      "componentType" : 5121,
      "count" : 488,
      "type" : "VEC4"
    },
    {
      "bufferView" : 23,
      "componentType" : 5126,
      "count" : 488,
      "type" : "VEC2"
    },
    {
      "bufferView" : 24,
      "componentType" : 5126,
      "count" : 488,
      "type" : "VEC2"
    },
    {
      "bufferView" : 25,
      "componentType" : 5126,
      "count" : 488,
      "type" : "VEC2"
    },
    {
      "bufferView" : 26,
      "componentType" : 5126,
      "count" : 488,
      "type" : "VEC2"
    },
    {
      "bufferView" : 27,
      "componentType" : 5123,
      "count" : 24,
      "type" : "SCALAR"
    },
    {
      "bufferView" : 28,
      "min" : [ -31.6361, 1.23786, -3.69546 ],
      "max" : [ -31.5361, 4.0006, 3.14154 ],
      "componentType" : 5126,
      "count" : 16,
      "type" : "VEC3"
    },
    {
      "bufferView" : 29,
      "componentType" : 5126,
      "count" : 16,
      "type" : "VEC3"
    },
    {
      "bufferView" : 30,
      "componentType" : 5126,
      "count" : 16,
      "type" : "VEC4"
    },
    {
      "bufferView" : 31,
      "normalized" : true,
      "componentType" : 5121,
      "count" : 16,
      "type" : "VEC4"
    },
    {
      "bufferView" : 32,
      "componentType" : 5126,
      "count" : 16,
      "type" : "VEC2"
    },
    {
      "bufferView" : 33,
      "componentType" : 5126,
      "count" : 16,
      "type" : "VEC2"
    },
    {
      "bufferView" : 34,
      "componentType" : 5126,
      "count" : 16,
      "type" : "VEC2"
    },
    {
      "bufferView" : 35,
      "componentType" : 5126,
      "count" : 16,
      "type" : "VEC2"
    },
    {
      "bufferView" : 36,
      "componentType" : 5123,
      "count" : 300,
      "type" : "SCALAR"
    },
    {
      "bufferView" : 37,
      "min" : [ -31.6361, 0.327986, -4.19546 ],
      "max" : [ -31.3054, 4.1635, 3.64144 ],
      "componentType" : 5126,
      "count" : 198,
      "type" : "VEC3"
    },
    {
      "bufferView" : 38,
      "componentType" : 5126,
      "count" : 198,
      "type" : "VEC3"
    },
    {
      "bufferView" : 39,
      "componentType" : 5126,
      "count" : 198,
      "type" : "VEC4"
    },
    {
      "bufferView" : 40,
      "normalized" : true,
      "componentType" : 5121,
      "count" : 198,
      "type" : "VEC4"
    },
    {
      "bufferView" : 41,
      "componentType" : 5126,
      "count" : 198,
      "type" : "VEC2"
    },
    {
      "bufferView" : 42,
      "componentType" : 5126,
      "count" : 198,
      "type" : "VEC2"
    },
    {
      "bufferView" : 43,
      "componentType" : 5126,
      "count" : 198,
      "type" : "VEC2"
    },
    {
      "bufferView" : 44,
      "componentType" : 5126,
      "count" : 198,
      "type" : "VEC2"
    },
    {
      "bufferView" : 45,
      "componentType" : 5123,
      "count" : 3234,
      "type" : "SCALAR"
    },
    {
      "bufferView" : 46,
      "min" : [ -32.8251, 0.407258, -7.48461 ],
      "max" : [ -30.7612, 6.61915, 6.93252 ],
      "componentType" : 5126,
      "count" : 671,
      "type" : "VEC3"
    },
    {
      "bufferView" : 47,
      "componentType" : 5126,
      "count" : 671,
      "type" : "VEC3"
    },
    {
      "bufferView" : 48,
      "componentType" : 5126,
      "count" : 671,
      "type" : "VEC4"
    },
    {
      "bufferView" : 49,
      "normalized" : true,
      "componentType" : 5121,
      "count" : 671,
      "type" : "VEC4"
    },
    {
      "bufferView" : 50,
      "componentType" : 5126,
      "count" : 671,
      "type" : "VEC2"
    },
    {
      "bufferView" : 51,
      "componentType" : 5126,
      "count" : 671,
      "type" : "VEC2"
    },
    {
      "bufferView" : 52,
      "componentType" : 5126,
      "count" : 671,
      "type" : "VEC2"
    },
    {
      "bufferView" : 53,
      "componentType" : 5126,
      "count" : 671,
      "type" : "VEC2"
    },
    {
      "bufferView" : 54,
      "componentType" : 5123,
      "count" : 90,
      "type" : "SCALAR"
    },
    {
      "bufferView" : 55,
      "min" : [ -31.5661, 0.327986, -4.19546 ],
      "max" : [ -31.3658, 4.11426, 3.64144 ],
      "componentType" : 5126,
      "count" : 54,
      "type" : "VEC3"
    },
    {
      "bufferView" : 56,
      "componentType" : 5126,
      "count" : 54,
      "type" : "VEC3"
    },
    {
      "bufferView" : 57,
      "componentType" : 5126,
      "count" : 54,
      "type" : "VEC4"
    },
    {
      "bufferView" : 58,
      "normalized" : true,
      "componentType" : 5121,
      "count" : 54,
      "type" : "VEC4"
    },
    {
      "bufferView" : 59,
      "componentType" : 5126,
      "count" : 54,
      "type" : "VEC2"
    },
    {
      "bufferView" : 60,
      "componentType" : 5126,
      "count" : 54,
      "type" : "VEC2"
    },
    {
      "bufferView" : 61,
      "componentType" : 5126,
      "count" : 54,
      "type" : "VEC2"
    },
    {
      "bufferView" : 62,
      "componentType" : 5126,
      "count" : 54,
      "type" : "VEC2"
    },
    {
      "bufferView" : 63,
      "componentType" : 5123,
      "count" : 450,
      "type" : "SCALAR"
    },
    {
      "bufferView" : 64,
      "min" : [ -33.3808, 3.61529, -7.4056 ],
      "max" : [ -30.8108, 8.62813, 6.85917 ],
      "componentType" : 5126,
      "count" : 197,
      "type" : "VEC3"
    },
    {
      "bufferView" : 65,
      "componentType" : 5126,
      "count" : 197,
      "type" : "VEC3"
    },
    {
      "bufferView" : 66,
      "componentType" : 5126,
      "count" : 197,
      "type" : "VEC4"
    },
    {
      "bufferView" : 67,
      "normalized" : true,
      "componentType" : 5121,
      "count" : 197,
      "type" : "VEC4"
    },
    {
      "bufferView" : 68,
      "componentType" : 5126,
      "count" : 197,
      "type" : "VEC2"
    },
    {
      "bufferView" : 69,
      "componentType" : 5126,
      "count" : 197,
      "type" : "VEC2"
    },
    {
      "bufferView" : 70,
      "componentType" : 5126,
      "count" : 197,
      "type" : "VEC2"
    },
    {
      "bufferView" : 71,
      "componentType" : 5126,
      "count" : 197,
      "type" : "VEC2"
    },
    {
      "bufferView" : 72,
      "componentType" : 5123,
      "count" : 324,
      "type" : "SCALAR"
    },
    {
      "bufferView" : 73,
      "min" : [ -31.3464, 3.39238, -4.19546 ],
      "max" : [ -31.2772, 4.10059, 3.64154 ],
      "componentType" : 5126,
      "count" : 104,
      "type" : "VEC3"
    },
    {
      "bufferView" : 74,
      "componentType" : 5126,
      "count" : 104,
      "type" : "VEC3"
    },
    {
      "bufferView" : 75,
      "componentType" : 5126,
      "count" : 104,
      "type" : "VEC4"
    },
    {
      "bufferView" : 76,
      "normalized" : true,
      "componentType" : 5121,
      "count" : 104,
      "type" : "VEC4"
    },
    {
      "bufferView" : 77,
      "componentType" : 5126,
      "count" : 104,
      "type" : "VEC2"
    },
    {
      "bufferView" : 78,
      "componentType" : 5126,
      "count" : 104,
      "type" : "VEC2"
    },
    {
      "bufferView" : 79,
      "componentType" : 5126,
      "count" : 104,
      "type" : "VEC2"
    },
    {
      "bufferView" : 80,
      "componentType" : 5126,
      "count" : 104,
      "type" : "VEC2"
    },
    {
      "bufferView" : 81,
      "componentType" : 5123,
      "count" : 2829,
      "type" : "SCALAR"
    },
    {
      "bufferView" : 82,
      "min" : [ -34.1243, 0.231933, -8.36277 ],
      "max" : [ -30.8108, 8.48919, 7.79937 ],
      "componentType" : 5126,
      "count" : 1144,
      "type" : "VEC3"
    },
    {
      "bufferView" : 83,
      "componentType" : 5126,
      "count" : 1144,
      "type" : "VEC3"
    },
    {
      "bufferView" : 84,
      "componentType" : 5126,
      "count" : 1144,
      "type" : "VEC4"
    },
    {
      "bufferView" : 85,
      "normalized" : true,
      "componentType" : 5121,
      "count" : 1144,
      "type" : "VEC4"
    },
    {
      "bufferView" : 86,
      "componentType" : 5126,
      "count" : 1144,
      "type" : "VEC2"
    },
    {
      "bufferView" : 87,
      "componentType" : 5126,
      "count" : 1144,
      "type" : "VEC2"
    },
    {
      "bufferView" : 88,
      "componentType" : 5126,
      "count" : 1144,
      "type" : "VEC2"
    },
    {
      "bufferView" : 89,
      "componentType" : 5126,
      "count" : 1144,
      "type" : "VEC2"
    },
    {
      "bufferView" : 90,
      "componentType" : 5123,
      "count" : 2280,
      "type" : "SCALAR"
    },
    {
      "bufferView" : 91,
      "min" : [ -33.4758, 2.23082, -7.48378 ],
      "max" : [ -30.6278, 9.35246, 6.93734 ],
      "componentType" : 5126,
      "count" : 887,
      "type" : "VEC3"
    },
    {
      "bufferView" : 92,
      "componentType" : 5126,
      "count" : 887,
      "type" : "VEC3"
    },
    {
      "bufferView" : 93,
      "componentType" : 5126,
      "count" : 887,
      "type" : "VEC4"
    },
    {
      "bufferView" : 94,
      "normalized" : true,
      "componentType" : 5121,
      "count" : 887,
      "type" : "VEC4"
    },
    {
      "bufferView" : 95,
      "componentType" : 5126,
      "count" : 887,
      "type" : "VEC2"
    },
    {
      "bufferView" : 96,
      "componentType" : 5126,
      "count" : 887,
      "type" : "VEC2"
    },
    {
      "bufferView" : 97,
      "componentType" : 5126,
      "count" : 887,
      "type" : "VEC2"
    },
    {
      "bufferView" : 98,
      "componentType" : 5126,
      "count" : 887,
      "type" : "VEC2"
    },
    {
      "bufferView" : 99,
      "componentType" : 5123,
      "count" : 117,
      "type" : "SCALAR"
    },
    {
      "bufferView" : 100,
      "min" : [ -34.0976, 0.167507, -6.92421 ],
      "max" : [ -31.3261, 7.61503, 6.36579 ],
      "componentType" : 5126,
      "count" : 67,
      "type" : "VEC3"
    },
    {
      "bufferView" : 101,
      "componentType" : 5126,
      "count" : 67,
      "type" : "VEC3"
    },
    {
      "bufferView" : 102,
      "componentType" : 5126,
      "count" : 67,
      "type" : "VEC4"
    },
    {
      "bufferView" : 103,
      "normalized" : true,
      "componentType" : 5121,
      "count" : 67,
      "type" : "VEC4"
    },
    {
      "bufferView" : 104,
      "componentType" : 5126,
      "count" : 67,
      "type" : "VEC2"
    },
    {
      "bufferView" : 105,
      "componentType" : 5126,
      "count" : 67,
      "type" : "VEC2"
    },
    {
      "bufferView" : 106,
      "componentType" : 5126,
      "count" : 67,
      "type" : "VEC2"
    },
    {
      "bufferView" : 107,
      "componentType" : 5126,
      "count" : 67,
      "type" : "VEC2"
    },
    {
      "bufferView" : 108,
      "componentType" : 5123,
      "count" : 66,
      "type" : "SCALAR"
    },
    {
      "bufferView" : 109,
      "min" : [ -31.4561, 4.46292, -6.49078 ],
      "max" : [ -31.4361, 8.4701, 5.93687 ],
      "componentType" : 5126,
      "count" : 40,
      "type" : "VEC3"
    },
    {
      "bufferView" : 110,
      "componentType" : 5126,
      "count" : 40,
      "type" : "VEC3"
    },
    {
      "bufferView" : 111,
      "componentType" : 5126,
      "count" : 40,
      "type" : "VEC4"
    },
    {
      "bufferView" : 112,
      "normalized" : true,
      "componentType" : 5121,
      "count" : 40,
      "type" : "VEC4"
    },
    {
      "bufferView" : 113,
      "componentType" : 5126,
      "count" : 40,
      "type" : "VEC2"
    },
    {
      "bufferView" : 114,
      "componentType" : 5126,
      "count" : 40,
      "type" : "VEC2"
    },
    {
      "bufferView" : 115,
      "componentType" : 5126,
      "count" : 40,
      "type" : "VEC2"
    },
    {
      "bufferView" : 116,
      "componentType" : 5126,
      "count" : 40,
      "type" : "VEC2"
    },
    {
      "bufferView" : 117,
      "componentType" : 5123,
      "count" : 168,
      "type" : "SCALAR"
    },
    {
      "bufferView" : 118,
      "min" : [ -32.6512, 6.03544, -6.29506 ],
      "max" : [ -31.0914, 7.27969, 5.74104 ],
      "componentType" : 5126,
      "count" : 96,
      "type" : "VEC3"
    },
    {
      "bufferView" : 119,
      "componentType" : 5126,
      "count" : 96,
      "type" : "VEC3"
    },
    {
      "bufferView" : 120,
      "componentType" : 5126,
      "count" : 96,
      "type" : "VEC4"
    },
    {
      "bufferView" : 121,
      "normalized" : true,
      "componentType" : 5121,
      "count" : 96,
      "type" : "VEC4"
    },
    {
      "bufferView" : 122,
      "componentType" : 5126,
      "count" : 96,
      "type" : "VEC2"
    },
    {
      "bufferView" : 123,
      "componentType" : 5126,
      "count" : 96,
      "type" : "VEC2"
    },
    {
      "bufferView" : 124,
      "componentType" : 5126,
      "count" : 96,
      "type" : "VEC2"
    },
    {
      "bufferView" : 125,
      "componentType" : 5126,
      "count" : 96,
      "type" : "VEC2"
    },
    {
      "bufferView" : 126,
      "componentType" : 5123,
      "count" : 450,
      "type" : "SCALAR"
    },
    {
      "bufferView" : 127,
      "min" : [ -31.6268, -0.0625775, -4.0289 ],
      "max" : [ -30.4464, 0.390703, 3.45375 ],
      "componentType" : 5126,
      "count" : 166,
      "type" : "VEC3"
    },
    {
      "bufferView" : 128,
      "componentType" : 5126,
      "count" : 166,
      "type" : "VEC3"
    },
    {
      "bufferView" : 129,
      "componentType" : 5126,
      "count" : 166,
      "type" : "VEC4"
    },
    {
      "bufferView" : 130,
      "normalized" : true,
      "componentType" : 5121,
      "count" : 166,
      "type" : "VEC4"
    },
    {
      "bufferView" : 131,
      "componentType" : 5126,
      "count" : 166,
      "type" : "VEC2"
    },
    {
      "bufferView" : 132,
      "componentType" : 5126,
      "count" : 166,
      "type" : "VEC2"
    },
    {
      "bufferView" : 133,
      "componentType" : 5126,
      "count" : 166,
      "type" : "VEC2"
    },
    {
      "bufferView" : 134,
      "componentType" : 5126,
      "count" : 166,
      "type" : "VEC2"
    },
    {
      "bufferView" : 135,
      "componentType" : 5123,
      "count" : 684,
      "type" : "SCALAR"
    },
    {
      "bufferView" : 136,
      "min" : [ -33.9912, -0.0694544, -7.65146 ],
      "max" : [ -30.646, 0.440082, 7.09634 ],
      "componentType" : 5126,
      "count" : 173,
      "type" : "VEC3"
    },
    {
      "bufferView" : 137,
      "componentType" : 5126,
      "count" : 173,
      "type" : "VEC3"
    },
    {
      "bufferView" : 138,
      "componentType" : 5126,
      "count" : 173,
      "type" : "VEC4"
    },
    {
      "bufferView" : 139,
      "normalized" : true,
      "componentType" : 5121,
      "count" : 173,
      "type" : "VEC4"
    },
    {
      "bufferView" : 140,
      "componentType" : 5126,
      "count" : 173,
      "type" : "VEC2"
    },
    {
      "bufferView" : 141,
      "componentType" : 5126,
      "count" : 173,
      "type" : "VEC2"
    },
    {
      "bufferView" : 142,
      "componentType" : 5126,
      "count" : 173,
      "type" : "VEC2"
    },
    {
      "bufferView" : 143,
      "componentType" : 5126,
      "count" : 173,
      "type" : "VEC2"
    },
    {
      "bufferView" : 144,
      "componentType" : 5123,
      "count" : 546,
      "type" : "SCALAR"
    },
    {
      "bufferView" : 145,
      "min" : [ -31.1622, 5.63974, -2.41902 ],
      "max" : [ -30.7791, 7.08664, 1.88858 ],
      "componentType" : 5126,
      "count" : 166,
      "type" : "VEC3"
    },
    {
      "bufferView" : 146,
      "componentType" : 5126,
      "count" : 166,
      "type" : "VEC3"
    },
    {
      "bufferView" : 147,
      "componentType" : 5126,
      "count" : 166,
      "type" : "VEC4"
    },
    {
      "bufferView" : 148,
      "normalized" : true,
      "componentType" : 5121,
      "count" : 166,
      "type" : "VEC4"
    },
    {
      "bufferView" : 149,
      "componentType" : 5126,
      "count" : 166,
      "type" : "VEC2"
    },
    {
      "bufferView" : 150,
      "componentType" : 5126,
      "count" : 166,
      "type" : "VEC2"
    },
    {
      "bufferView" : 151,
      "componentType" : 5126,
      "count" : 166,
      "type" : "VEC2"
    },
    {
      "bufferView" : 152,
      "componentType" : 5126,
      "count" : 166,
      "type" : "VEC2"
    },
    {
      "bufferView" : 153,
      "componentType" : 5123,
      "count" : 1254,
      "type" : "SCALAR"
    },
    {
      "bufferView" : 154,
      "min" : [ -32.7384, 5.82044, -7.17516 ],
      "max" : [ -30.9761, 6.21225, 6.61904 ],
      "componentType" : 5126,
      "count" : 256,
      "type" : "VEC3"
    },
    {
      "bufferView" : 155,
      "componentType" : 5126,
      "count" : 256,
      "type" : "VEC3"
    },
    {
      "bufferView" : 156,
      "componentType" : 5126,
      "count" : 256,
      "type" : "VEC4"
    },
    {
      "bufferView" : 157,
      "normalized" : true,
      "componentType" : 5121,
      "count" : 256,
      "type" : "VEC4"
    },
    {
      "bufferView" : 158,
      "componentType" : 5126,
      "count" : 256,
      "type" : "VEC2"
    },
    {
      "bufferView" : 159,
      "componentType" : 5126,
      "count" : 256,
      "type" : "VEC2"
    },
    {
      "bufferView" : 160,
      "componentType" : 5126,
      "count" : 256,
      "type" : "VEC2"
    },
    {
      "bufferView" : 161,
      "componentType" : 5126,
      "count" : 256,
      "type" : "VEC2"
    }
  ]
}
