{
  "asset" : {
    "generator" : "UE Viewer (umodel) build 1544 based",
    "version" : "2.0"
  },
  "scene" : 0,
  "scenes" : [
    {
      "nodes" : [ 0 ]
    }
  ],
  "nodes" : [
    {
      "name" : "SM_ENV_LKNVLD_Event_Flags_A",
      "mesh" : 0
    }
  ],
  "materials" : [
    {
      "name" : "MI_ENV_LKNVLD_Event_Flags_A",
      "pbrMetallicRoughness" : {
        "baseColorFactor" : [ 0.3, 0.3, 0.3, 1.0 ],
        "metallicFactor" : 0.1,
        "roughnessFactor" : 0.5
      }
    }
  ],
  "meshes" : [
    {
      "primitives" : [
        {
          "attributes" : {
            "POSITION" : 1,
            "NORMAL" : 2,
            "TANGENT" : 3,
            "COLOR_0" : 4,
            "TEXCOORD_0" : 5,
            "TEXCOORD_1" : 6,
            "TEXCOORD_2" : 7,
            "TEXCOORD_3" : 8
          },
          "indices" : 0,
          "material" : 0
        }
      ],
      "name" : "SM_ENV_LKNVLD_Event_Flags_A"
    }
  ],
  "buffers" : [
    {
      "uri" : "SM_ENV_LKNVLD_Event_Flags_A.bin",
      "byteLength" : 296876
    }
  ],
  "bufferViews" : [
    {
      "buffer" : 0,
      "byteOffset" : 0,
      "byteLength" : 11268
    },
    {
      "buffer" : 0,
      "byteOffset" : 11268,
      "byteLength" : 45096
    },
    {
      "buffer" : 0,
      "byteOffset" : 56364,
      "byteLength" : 45096
    },
    {
      "buffer" : 0,
      "byteOffset" : 101460,
      "byteLength" : 60128
    },
    {
      "buffer" : 0,
      "byteOffset" : 161588,
      "byteLength" : 15032
    },
    {
      "buffer" : 0,
      "byteOffset" : 176620,
      "byteLength" : 30064
    },
    {
      "buffer" : 0,
      "byteOffset" : 206684,
      "byteLength" : 30064
    },
    {
      "buffer" : 0,
      "byteOffset" : 236748,
      "byteLength" : 30064
    },
    {
      "buffer" : 0,
      "byteOffset" : 266812,
      "byteLength" : 30064
    }
  ],
  "accessors" : [
    {
      "bufferView" : 0,
      "componentType" : 5123,
      "count" : 5634,
      "type" : "SCALAR"
    },
    {
      "bufferView" : 1,
      "min" : [ -50.9725, 5.9916, -41.3652 ],
      "max" : [ 53.9243, 40.3651, 60.8521 ],
      "componentType" : 5126,
      "count" : 3758,
      "type" : "VEC3"
    },
    {
      "bufferView" : 2,
      "componentType" : 5126,
      "count" : 3758,
      "type" : "VEC3"
    },
    {
      "bufferView" : 3,
      "componentType" : 5126,
      "count" : 3758,
      "type" : "VEC4"
    },
    {
      "bufferView" : 4,
      "normalized" : true,
      "componentType" : 5121,
      "count" : 3758,
      "type" : "VEC4"
    },
    {
      "bufferView" : 5,
      "componentType" : 5126,
      "count" : 3758,
      "type" : "VEC2"
    },
    {
      "bufferView" : 6,
      "componentType" : 5126,
      "count" : 3758,
      "type" : "VEC2"
    },
    {
      "bufferView" : 7,
      "componentType" : 5126,
      "count" : 3758,
      "type" : "VEC2"
    },
    {
      "bufferView" : 8,
      "componentType" : 5126,
      "count" : 3758,
      "type" : "VEC2"
    }
  ]
}
