{
  "asset" : {
    "generator" : "UE Viewer (umodel) build 1544 based",
    "version" : "2.0"
  },
  "scene" : 0,
  "scenes" : [
    {
      "nodes" : [ 0 ]
    }
  ],
  "nodes" : [
    {
      "name" : "SM_ENV_LKNVLD_Wall_COL",
      "mesh" : 0
    }
  ],
  "materials" : [
    {
      "name" : "MI_Rock",
      "pbrMetallicRoughness" : {
        "baseColorFactor" : [ 0.3, 0.3, 0.3, 1.0 ],
        "metallicFactor" : 0.1,
        "roughnessFactor" : 0.5
      }
    },
    {
      "name" : "MI_Wood",
      "pbrMetallicRoughness" : {
        "baseColorFactor" : [ 0.9, 0.3, 0.3, 1.0 ],
        "metallicFactor" : 0.1,
        "roughnessFactor" : 0.5
      }
    }
  ],
  "meshes" : [
    {
      "primitives" : [
        {
          "attributes" : {
            "POSITION" : 1,
            "NORMAL" : 2,
            "TANGENT" : 3,
            "TEXCOORD_0" : 4
          },
          "indices" : 0,
          "material" : 0
        },
        {
          "attributes" : {
            "POSITION" : 6,
            "NORMAL" : 7,
            "TANGENT" : 8,
            "TEXCOORD_0" : 9
          },
          "indices" : 5,
          "material" : 1
        }
      ],
      "name" : "SM_ENV_LKNVLD_Wall_COL"
    }
  ],
  "buffers" : [
    {
      "uri" : "SM_ENV_LKNVLD_Wall_COL.bin",
      "byteLength" : 27060
    }
  ],
  "bufferViews" : [
    {
      "buffer" : 0,
      "byteOffset" : 0,
      "byteLength" : 516
    },
    {
      "buffer" : 0,
      "byteOffset" : 516,
      "byteLength" : 1584
    },
    {
      "buffer" : 0,
      "byteOffset" : 2100,
      "byteLength" : 1584
    },
    {
      "buffer" : 0,
      "byteOffset" : 3684,
      "byteLength" : 2112
    },
    {
      "buffer" : 0,
      "byteOffset" : 5796,
      "byteLength" : 1056
    },
    {
      "buffer" : 0,
      "byteOffset" : 6852,
      "byteLength" : 1440
    },
    {
      "buffer" : 0,
      "byteOffset" : 8292,
      "byteLength" : 4692
    },
    {
      "buffer" : 0,
      "byteOffset" : 12984,
      "byteLength" : 4692
    },
    {
      "buffer" : 0,
      "byteOffset" : 17676,
      "byteLength" : 6256
    },
    {
      "buffer" : 0,
      "byteOffset" : 23932,
      "byteLength" : 3128
    }
  ],
  "accessors" : [
    {
      "bufferView" : 0,
      "componentType" : 5123,
      "count" : 258,
      "type" : "SCALAR"
    },
    {
      "bufferView" : 1,
      "min" : [ 32.4741, -7.50887e-07, -5.90172 ],
      "max" : [ 45.516, 12.6477, 5.75736 ],
      "componentType" : 5126,
      "count" : 132,
      "type" : "VEC3"
    },
    {
      "bufferView" : 2,
      "componentType" : 5126,
      "count" : 132,
      "type" : "VEC3"
    },
    {
      "bufferView" : 3,
      "componentType" : 5126,
      "count" : 132,
      "type" : "VEC4"
    },
    {
      "bufferView" : 4,
      "componentType" : 5126,
      "count" : 132,
      "type" : "VEC2"
    },
    {
      "bufferView" : 5,
      "componentType" : 5123,
      "count" : 720,
      "type" : "SCALAR"
    },
    {
      "bufferView" : 6,
      "min" : [ -61.4017, -6.78168e-08, -96.0266 ],
      "max" : [ 61.3006, 34.2192, 71.5597 ],
      "componentType" : 5126,
      "count" : 391,
      "type" : "VEC3"
    },
    {
      "bufferView" : 7,
      "componentType" : 5126,
      "count" : 391,
      "type" : "VEC3"
    },
    {
      "bufferView" : 8,
      "componentType" : 5126,
      "count" : 391,
      "type" : "VEC4"
    },
    {
      "bufferView" : 9,
      "componentType" : 5126,
      "count" : 391,
      "type" : "VEC2"
    }
  ]
}
