{
  "asset" : {
    "generator" : "UE Viewer (umodel) build 1544 based",
    "version" : "2.0"
  },
  "scene" : 0,
  "scenes" : [
    {
      "nodes" : [ 0 ]
    }
  ],
  "nodes" : [
    {
      "name" : "SM_ENV_LKNVLD_Building_C_Lod2",
      "mesh" : 0
    }
  ],
  "materials" : [
    {
      "name" : "MI_ENV_LKNVLD_RoofTiles_LOD",
      "pbrMetallicRoughness" : {
        "baseColorFactor" : [ 0.3, 0.3, 0.3, 1.0 ],
        "metallicFactor" : 0.1,
        "roughnessFactor" : 0.5
      }
    },
    {
      "name" : "MI_ENV_LKNVLD_Roof_C_LOD",
      "pbrMetallicRoughness" : {
        "baseColorFactor" : [ 0.9, 0.3, 0.3, 1.0 ],
        "metallicFactor" : 0.1,
        "roughnessFactor" : 0.5
      }
    },
    {
      "name" : "MI_ENV_LKNVLD_Lantern_B",
      "pbrMetallicRoughness" : {
        "baseColorFactor" : [ 0.3, 0.9, 0.3, 1.0 ],
        "metallicFactor" : 0.1,
        "roughnessFactor" : 0.5
      }
    },
    {
      "name" : "MI_ENV_LKNVLD_WoodPillar_A_LOD",
      "pbrMetallicRoughness" : {
        "baseColorFactor" : [ 0.3, 0.3, 0.9, 1.0 ],
        "metallicFactor" : 0.1,
        "roughnessFactor" : 0.5
      }
    },
    {
      "name" : "MI_ENV_LKNVLD_WoodPillar_D_LOD",
      "pbrMetallicRoughness" : {
        "baseColorFactor" : [ 0.9, 0.9, 0.9, 1.0 ],
        "metallicFactor" : 0.1,
        "roughnessFactor" : 0.5
      }
    },
    {
      "name" : "MI_ENV_LKNVLD_Pipe_D_LOD",
      "pbrMetallicRoughness" : {
        "baseColorFactor" : [ 0.9, 0.9, 0.3, 1.0 ],
        "metallicFactor" : 0.1,
        "roughnessFactor" : 0.5
      }
    },
    {
      "name" : "MI_ENV_LKNVLD_ConcreteFloor_C_LOD",
      "pbrMetallicRoughness" : {
        "baseColorFactor" : [ 0.9, 0.3, 0.9, 1.0 ],
        "metallicFactor" : 0.1,
        "roughnessFactor" : 0.5
      }
    },
    {
      "name" : "MI_T_ENV_LKNVLD_StoneTrim_LOD",
      "pbrMetallicRoughness" : {
        "baseColorFactor" : [ 0.3, 0.9, 0.9, 1.0 ],
        "metallicFactor" : 0.1,
        "roughnessFactor" : 0.5
      }
    },
    {
      "name" : "MI_ENV_LKNVLD_RoughTiles_LOD",
      "pbrMetallicRoughness" : {
        "baseColorFactor" : [ 1, 0.3, 0.3, 1.0 ],
        "metallicFactor" : 0.1,
        "roughnessFactor" : 0.5
      }
    },
    {
      "name" : "MI_T_ENV_LKNVLD_StoneStairs_LOD",
      "pbrMetallicRoughness" : {
        "baseColorFactor" : [ 0.6, 0.3, 0.3, 1.0 ],
        "metallicFactor" : 0.1,
        "roughnessFactor" : 0.5
      }
    },
    {
      "name" : "MI_ENV_LKNVLD_Woodwall_A_LOD",
      "pbrMetallicRoughness" : {
        "baseColorFactor" : [ 1, 0.9, 0.3, 1.0 ],
        "metallicFactor" : 0.1,
        "roughnessFactor" : 0.5
      }
    },
    {
      "name" : "MI_ENV_LKNVLD_ConcreteWall_K_LOD",
      "pbrMetallicRoughness" : {
        "baseColorFactor" : [ 1, 0.3, 0.9, 1.0 ],
        "metallicFactor" : 0.1,
        "roughnessFactor" : 0.5
      }
    },
    {
      "name" : "MI_ENV_LKNVLD_ClanSignboard_K_LOD",
      "pbrMetallicRoughness" : {
        "baseColorFactor" : [ 0.6, 0.9, 0.9, 1.0 ],
        "metallicFactor" : 0.1,
        "roughnessFactor" : 0.5
      }
    },
    {
      "name" : "MI_ENV_LKNVLD_WoodPillar_B_LOD",
      "pbrMetallicRoughness" : {
        "baseColorFactor" : [ 0.6, 0.9, 0.3, 1.0 ],
        "metallicFactor" : 0.1,
        "roughnessFactor" : 0.5
      }
    },
    {
      "name" : "MI_ENV_LKNVLD_Door_C",
      "pbrMetallicRoughness" : {
        "baseColorFactor" : [ 0.6, 0.3, 0.9, 1.0 ],
        "metallicFactor" : 0.1,
        "roughnessFactor" : 0.5
      }
    },
    {
      "name" : "MI_ENV_LKNVLD_WoodWindows_E",
      "pbrMetallicRoughness" : {
        "baseColorFactor" : [ 1, 0.9, 0.9, 1.0 ],
        "metallicFactor" : 0.1,
        "roughnessFactor" : 0.5
      }
    },
    {
      "name" : "MI_ENV_LKNVLD_WoodWindows_F",
      "pbrMetallicRoughness" : {
        "baseColorFactor" : [ 0.3, 1, 0.3, 1.0 ],
        "metallicFactor" : 0.1,
        "roughnessFactor" : 0.5
      }
    }
  ],
  "meshes" : [
    {
      "primitives" : [
        {
          "attributes" : {
            "POSITION" : 1,
            "NORMAL" : 2,
            "TANGENT" : 3,
            "TEXCOORD_0" : 4,
            "TEXCOORD_1" : 5,
            "TEXCOORD_2" : 6,
            "TEXCOORD_3" : 7
          },
          "indices" : 0,
          "material" : 0
        },
        {
          "attributes" : {
            "POSITION" : 9,
            "NORMAL" : 10,
            "TANGENT" : 11,
            "TEXCOORD_0" : 12,
            "TEXCOORD_1" : 13,
            "TEXCOORD_2" : 14,
            "TEXCOORD_3" : 15
          },
          "indices" : 8,
          "material" : 1
        },
        {
          "attributes" : {
            "POSITION" : 17,
            "NORMAL" : 18,
            "TANGENT" : 19,
            "TEXCOORD_0" : 20,
            "TEXCOORD_1" : 21,
            "TEXCOORD_2" : 22,
            "TEXCOORD_3" : 23
          },
          "indices" : 16,
          "material" : 2
        },
        {
          "attributes" : {
            "POSITION" : 25,
            "NORMAL" : 26,
            "TANGENT" : 27,
            "TEXCOORD_0" : 28,
            "TEXCOORD_1" : 29,
            "TEXCOORD_2" : 30,
            "TEXCOORD_3" : 31
          },
          "indices" : 24,
          "material" : 3
        },
        {
          "attributes" : {
            "POSITION" : 33,
            "NORMAL" : 34,
            "TANGENT" : 35,
            "TEXCOORD_0" : 36,
            "TEXCOORD_1" : 37,
            "TEXCOORD_2" : 38,
            "TEXCOORD_3" : 39
          },
          "indices" : 32,
          "material" : 4
        },
        {
          "attributes" : {
            "POSITION" : 41,
            "NORMAL" : 42,
            "TANGENT" : 43,
            "TEXCOORD_0" : 44,
            "TEXCOORD_1" : 45,
            "TEXCOORD_2" : 46,
            "TEXCOORD_3" : 47
          },
          "indices" : 40,
          "material" : 5
        },
        {
          "attributes" : {
            "POSITION" : 49,
            "NORMAL" : 50,
            "TANGENT" : 51,
            "TEXCOORD_0" : 52,
            "TEXCOORD_1" : 53,
            "TEXCOORD_2" : 54,
            "TEXCOORD_3" : 55
          },
          "indices" : 48,
          "material" : 6
        },
        {
          "attributes" : {
            "POSITION" : 57,
            "NORMAL" : 58,
            "TANGENT" : 59,
            "TEXCOORD_0" : 60,
            "TEXCOORD_1" : 61,
            "TEXCOORD_2" : 62,
            "TEXCOORD_3" : 63
          },
          "indices" : 56,
          "material" : 7
        },
        {
          "attributes" : {
            "POSITION" : 65,
            "NORMAL" : 66,
            "TANGENT" : 67,
            "TEXCOORD_0" : 68,
            "TEXCOORD_1" : 69,
            "TEXCOORD_2" : 70,
            "TEXCOORD_3" : 71
          },
          "indices" : 64,
          "material" : 8
        },
        {
          "attributes" : {
            "POSITION" : 73,
            "NORMAL" : 74,
            "TANGENT" : 75,
            "TEXCOORD_0" : 76,
            "TEXCOORD_1" : 77,
            "TEXCOORD_2" : 78,
            "TEXCOORD_3" : 79
          },
          "indices" : 72,
          "material" : 9
        },
        {
          "attributes" : {
            "POSITION" : 81,
            "NORMAL" : 82,
            "TANGENT" : 83,
            "TEXCOORD_0" : 84,
            "TEXCOORD_1" : 85,
            "TEXCOORD_2" : 86,
            "TEXCOORD_3" : 87
          },
          "indices" : 80,
          "material" : 10
        },
        {
          "attributes" : {
            "POSITION" : 89,
            "NORMAL" : 90,
            "TANGENT" : 91,
            "TEXCOORD_0" : 92,
            "TEXCOORD_1" : 93,
            "TEXCOORD_2" : 94,
            "TEXCOORD_3" : 95
          },
          "indices" : 88,
          "material" : 11
        },
        {
          "attributes" : {
            "POSITION" : 97,
            "NORMAL" : 98,
            "TANGENT" : 99,
            "TEXCOORD_0" : 100,
            "TEXCOORD_1" : 101,
            "TEXCOORD_2" : 102,
            "TEXCOORD_3" : 103
          },
          "indices" : 96,
          "material" : 12
        },
        {
          "attributes" : {
            "POSITION" : 105,
            "NORMAL" : 106,
            "TANGENT" : 107,
            "TEXCOORD_0" : 108,
            "TEXCOORD_1" : 109,
            "TEXCOORD_2" : 110,
            "TEXCOORD_3" : 111
          },
          "indices" : 104,
          "material" : 13
        },
        {
          "attributes" : {
            "POSITION" : 113,
            "NORMAL" : 114,
            "TANGENT" : 115,
            "TEXCOORD_0" : 116,
            "TEXCOORD_1" : 117,
            "TEXCOORD_2" : 118,
            "TEXCOORD_3" : 119
          },
          "indices" : 112,
          "material" : 14
        },
        {
          "attributes" : {
            "POSITION" : 121,
            "NORMAL" : 122,
            "TANGENT" : 123,
            "TEXCOORD_0" : 124,
            "TEXCOORD_1" : 125,
            "TEXCOORD_2" : 126,
            "TEXCOORD_3" : 127
          },
          "indices" : 120,
          "material" : 15
        },
        {
          "attributes" : {
            "POSITION" : 129,
            "NORMAL" : 130,
            "TANGENT" : 131,
            "TEXCOORD_0" : 132,
            "TEXCOORD_1" : 133,
            "TEXCOORD_2" : 134,
            "TEXCOORD_3" : 135
          },
          "indices" : 128,
          "material" : 16
        }
      ],
      "name" : "SM_ENV_LKNVLD_Building_C_Lod2"
    }
  ],
  "buffers" : [
    {
      "uri" : "SM_ENV_LKNVLD_Building_C_Lod2.bin",
      "byteLength" : 1084264
    }
  ],
  "bufferViews" : [
    {
      "buffer" : 0,
      "byteOffset" : 0,
      "byteLength" : 37068
    },
    {
      "buffer" : 0,
      "byteOffset" : 37068,
      "byteLength" : 61920
    },
    {
      "buffer" : 0,
      "byteOffset" : 98988,
      "byteLength" : 61920
    },
    {
      "buffer" : 0,
      "byteOffset" : 160908,
      "byteLength" : 82560
    },
    {
      "buffer" : 0,
      "byteOffset" : 243468,
      "byteLength" : 41280
    },
    {
      "buffer" : 0,
      "byteOffset" : 284748,
      "byteLength" : 41280
    },
    {
      "buffer" : 0,
      "byteOffset" : 326028,
      "byteLength" : 41280
    },
    {
      "buffer" : 0,
      "byteOffset" : 367308,
      "byteLength" : 41280
    },
    {
      "buffer" : 0,
      "byteOffset" : 408588,
      "byteLength" : 396
    },
    {
      "buffer" : 0,
      "byteOffset" : 408984,
      "byteLength" : 1584
    },
    {
      "buffer" : 0,
      "byteOffset" : 410568,
      "byteLength" : 1584
    },
    {
      "buffer" : 0,
      "byteOffset" : 412152,
      "byteLength" : 2112
    },
    {
      "buffer" : 0,
      "byteOffset" : 414264,
      "byteLength" : 1056
    },
    {
      "buffer" : 0,
      "byteOffset" : 415320,
      "byteLength" : 1056
    },
    {
      "buffer" : 0,
      "byteOffset" : 416376,
      "byteLength" : 1056
    },
    {
      "buffer" : 0,
      "byteOffset" : 417432,
      "byteLength" : 1056
    },
    {
      "buffer" : 0,
      "byteOffset" : 418488,
      "byteLength" : 1500
    },
    {
      "buffer" : 0,
      "byteOffset" : 419988,
      "byteLength" : 3792
    },
    {
      "buffer" : 0,
      "byteOffset" : 423780,
      "byteLength" : 3792
    },
    {
      "buffer" : 0,
      "byteOffset" : 427572,
      "byteLength" : 5056
    },
    {
      "buffer" : 0,
      "byteOffset" : 432628,
      "byteLength" : 2528
    },
    {
      "buffer" : 0,
      "byteOffset" : 435156,
      "byteLength" : 2528
    },
    {
      "buffer" : 0,
      "byteOffset" : 437684,
      "byteLength" : 2528
    },
    {
      "buffer" : 0,
      "byteOffset" : 440212,
      "byteLength" : 2528
    },
    {
      "buffer" : 0,
      "byteOffset" : 442740,
      "byteLength" : 17880
    },
    {
      "buffer" : 0,
      "byteOffset" : 460620,
      "byteLength" : 70080
    },
    {
      "buffer" : 0,
      "byteOffset" : 530700,
      "byteLength" : 70080
    },
    {
      "buffer" : 0,
      "byteOffset" : 600780,
      "byteLength" : 93440
    },
    {
      "buffer" : 0,
      "byteOffset" : 694220,
      "byteLength" : 46720
    },
    {
      "buffer" : 0,
      "byteOffset" : 740940,
      "byteLength" : 46720
    },
    {
      "buffer" : 0,
      "byteOffset" : 787660,
      "byteLength" : 46720
    },
    {
      "buffer" : 0,
      "byteOffset" : 834380,
      "byteLength" : 46720
    },
    {
      "buffer" : 0,
      "byteOffset" : 881100,
      "byteLength" : 3048
    },
    {
      "buffer" : 0,
      "byteOffset" : 884148,
      "byteLength" : 7392
    },
    {
      "buffer" : 0,
      "byteOffset" : 891540,
      "byteLength" : 7392
    },
    {
      "buffer" : 0,
      "byteOffset" : 898932,
      "byteLength" : 9856
    },
    {
      "buffer" : 0,
      "byteOffset" : 908788,
      "byteLength" : 4928
    },
    {
      "buffer" : 0,
      "byteOffset" : 913716,
      "byteLength" : 4928
    },
    {
      "buffer" : 0,
      "byteOffset" : 918644,
      "byteLength" : 4928
    },
    {
      "buffer" : 0,
      "byteOffset" : 923572,
      "byteLength" : 4928
    },
    {
      "buffer" : 0,
      "byteOffset" : 928500,
      "byteLength" : 8076
    },
    {
      "buffer" : 0,
      "byteOffset" : 936576,
      "byteLength" : 13464
    },
    {
      "buffer" : 0,
      "byteOffset" : 950040,
      "byteLength" : 13464
    },
    {
      "buffer" : 0,
      "byteOffset" : 963504,
      "byteLength" : 17952
    },
    {
      "buffer" : 0,
      "byteOffset" : 981456,
      "byteLength" : 8976
    },
    {
      "buffer" : 0,
      "byteOffset" : 990432,
      "byteLength" : 8976
    },
    {
      "buffer" : 0,
      "byteOffset" : 999408,
      "byteLength" : 8976
    },
    {
      "buffer" : 0,
      "byteOffset" : 1008384,
      "byteLength" : 8976
    },
    {
      "buffer" : 0,
      "byteOffset" : 1017360,
      "byteLength" : 120
    },
    {
      "buffer" : 0,
      "byteOffset" : 1017480,
      "byteLength" : 432
    },
    {
      "buffer" : 0,
      "byteOffset" : 1017912,
      "byteLength" : 432
    },
    {
      "buffer" : 0,
      "byteOffset" : 1018344,
      "byteLength" : 576
    },
    {
      "buffer" : 0,
      "byteOffset" : 1018920,
      "byteLength" : 288
    },
    {
      "buffer" : 0,
      "byteOffset" : 1019208,
      "byteLength" : 288
    },
    {
      "buffer" : 0,
      "byteOffset" : 1019496,
      "byteLength" : 288
    },
    {
      "buffer" : 0,
      "byteOffset" : 1019784,
      "byteLength" : 288
    },
    {
      "buffer" : 0,
      "byteOffset" : 1020072,
      "byteLength" : 116
    },
    {
      "buffer" : 0,
      "byteOffset" : 1020188,
      "byteLength" : 228
    },
    {
      "buffer" : 0,
      "byteOffset" : 1020416,
      "byteLength" : 228
    },
    {
      "buffer" : 0,
      "byteOffset" : 1020644,
      "byteLength" : 304
    },
    {
      "buffer" : 0,
      "byteOffset" : 1020948,
      "byteLength" : 152
    },
    {
      "buffer" : 0,
      "byteOffset" : 1021100,
      "byteLength" : 152
    },
    {
      "buffer" : 0,
      "byteOffset" : 1021252,
      "byteLength" : 152
    },
    {
      "buffer" : 0,
      "byteOffset" : 1021404,
      "byteLength" : 152
    },
    {
      "buffer" : 0,
      "byteOffset" : 1021556,
      "byteLength" : 644
    },
    {
      "buffer" : 0,
      "byteOffset" : 1022200,
      "byteLength" : 1668
    },
    {
      "buffer" : 0,
      "byteOffset" : 1023868,
      "byteLength" : 1668
    },
    {
      "buffer" : 0,
      "byteOffset" : 1025536,
      "byteLength" : 2224
    },
    {
      "buffer" : 0,
      "byteOffset" : 1027760,
      "byteLength" : 1112
    },
    {
      "buffer" : 0,
      "byteOffset" : 1028872,
      "byteLength" : 1112
    },
    {
      "buffer" : 0,
      "byteOffset" : 1029984,
      "byteLength" : 1112
    },
    {
      "buffer" : 0,
      "byteOffset" : 1031096,
      "byteLength" : 1112
    },
    {
      "buffer" : 0,
      "byteOffset" : 1032208,
      "byteLength" : 96
    },
    {
      "buffer" : 0,
      "byteOffset" : 1032304,
      "byteLength" : 288
    },
    {
      "buffer" : 0,
      "byteOffset" : 1032592,
      "byteLength" : 288
    },
    {
      "buffer" : 0,
      "byteOffset" : 1032880,
      "byteLength" : 384
    },
    {
      "buffer" : 0,
      "byteOffset" : 1033264,
      "byteLength" : 192
    },
    {
      "buffer" : 0,
      "byteOffset" : 1033456,
      "byteLength" : 192
    },
    {
      "buffer" : 0,
      "byteOffset" : 1033648,
      "byteLength" : 192
    },
    {
      "buffer" : 0,
      "byteOffset" : 1033840,
      "byteLength" : 192
    },
    {
      "buffer" : 0,
      "byteOffset" : 1034032,
      "byteLength" : 960
    },
    {
      "buffer" : 0,
      "byteOffset" : 1034992,
      "byteLength" : 2160
    },
    {
      "buffer" : 0,
      "byteOffset" : 1037152,
      "byteLength" : 2160
    },
    {
      "buffer" : 0,
      "byteOffset" : 1039312,
      "byteLength" : 2880
    },
    {
      "buffer" : 0,
      "byteOffset" : 1042192,
      "byteLength" : 1440
    },
    {
      "buffer" : 0,
      "byteOffset" : 1043632,
      "byteLength" : 1440
    },
    {
      "buffer" : 0,
      "byteOffset" : 1045072,
      "byteLength" : 1440
    },
    {
      "buffer" : 0,
      "byteOffset" : 1046512,
      "byteLength" : 1440
    },
    {
      "buffer" : 0,
      "byteOffset" : 1047952,
      "byteLength" : 1296
    },
    {
      "buffer" : 0,
      "byteOffset" : 1049248,
      "byteLength" : 3456
    },
    {
      "buffer" : 0,
      "byteOffset" : 1052704,
      "byteLength" : 3456
    },
    {
      "buffer" : 0,
      "byteOffset" : 1056160,
      "byteLength" : 4608
    },
    {
      "buffer" : 0,
      "byteOffset" : 1060768,
      "byteLength" : 2304
    },
    {
      "buffer" : 0,
      "byteOffset" : 1063072,
      "byteLength" : 2304
    },
    {
      "buffer" : 0,
      "byteOffset" : 1065376,
      "byteLength" : 2304
    },
    {
      "buffer" : 0,
      "byteOffset" : 1067680,
      "byteLength" : 2304
    },
    {
      "buffer" : 0,
      "byteOffset" : 1069984,
      "byteLength" : 96
    },
    {
      "buffer" : 0,
      "byteOffset" : 1070080,
      "byteLength" : 240
    },
    {
      "buffer" : 0,
      "byteOffset" : 1070320,
      "byteLength" : 240
    },
    {
      "buffer" : 0,
      "byteOffset" : 1070560,
      "byteLength" : 320
    },
    {
      "buffer" : 0,
      "byteOffset" : 1070880,
      "byteLength" : 160
    },
    {
      "buffer" : 0,
      "byteOffset" : 1071040,
      "byteLength" : 160
    },
    {
      "buffer" : 0,
      "byteOffset" : 1071200,
      "byteLength" : 160
    },
    {
      "buffer" : 0,
      "byteOffset" : 1071360,
      "byteLength" : 160
    },
    {
      "buffer" : 0,
      "byteOffset" : 1071520,
      "byteLength" : 144
    },
    {
      "buffer" : 0,
      "byteOffset" : 1071664,
      "byteLength" : 600
    },
    {
      "buffer" : 0,
      "byteOffset" : 1072264,
      "byteLength" : 600
    },
    {
      "buffer" : 0,
      "byteOffset" : 1072864,
      "byteLength" : 800
    },
    {
      "buffer" : 0,
      "byteOffset" : 1073664,
      "byteLength" : 400
    },
    {
      "buffer" : 0,
      "byteOffset" : 1074064,
      "byteLength" : 400
    },
    {
      "buffer" : 0,
      "byteOffset" : 1074464,
      "byteLength" : 400
    },
    {
      "buffer" : 0,
      "byteOffset" : 1074864,
      "byteLength" : 400
    },
    {
      "buffer" : 0,
      "byteOffset" : 1075264,
      "byteLength" : 24
    },
    {
      "buffer" : 0,
      "byteOffset" : 1075288,
      "byteLength" : 96
    },
    {
      "buffer" : 0,
      "byteOffset" : 1075384,
      "byteLength" : 96
    },
    {
      "buffer" : 0,
      "byteOffset" : 1075480,
      "byteLength" : 128
    },
    {
      "buffer" : 0,
      "byteOffset" : 1075608,
      "byteLength" : 64
    },
    {
      "buffer" : 0,
      "byteOffset" : 1075672,
      "byteLength" : 64
    },
    {
      "buffer" : 0,
      "byteOffset" : 1075736,
      "byteLength" : 64
    },
    {
      "buffer" : 0,
      "byteOffset" : 1075800,
      "byteLength" : 64
    },
    {
      "buffer" : 0,
      "byteOffset" : 1075864,
      "byteLength" : 312
    },
    {
      "buffer" : 0,
      "byteOffset" : 1076176,
      "byteLength" : 1248
    },
    {
      "buffer" : 0,
      "byteOffset" : 1077424,
      "byteLength" : 1248
    },
    {
      "buffer" : 0,
      "byteOffset" : 1078672,
      "byteLength" : 1664
    },
    {
      "buffer" : 0,
      "byteOffset" : 1080336,
      "byteLength" : 832
    },
    {
      "buffer" : 0,
      "byteOffset" : 1081168,
      "byteLength" : 832
    },
    {
      "buffer" : 0,
      "byteOffset" : 1082000,
      "byteLength" : 832
    },
    {
      "buffer" : 0,
      "byteOffset" : 1082832,
      "byteLength" : 832
    },
    {
      "buffer" : 0,
      "byteOffset" : 1083664,
      "byteLength" : 24
    },
    {
      "buffer" : 0,
      "byteOffset" : 1083688,
      "byteLength" : 96
    },
    {
      "buffer" : 0,
      "byteOffset" : 1083784,
      "byteLength" : 96
    },
    {
      "buffer" : 0,
      "byteOffset" : 1083880,
      "byteLength" : 128
    },
    {
      "buffer" : 0,
      "byteOffset" : 1084008,
      "byteLength" : 64
    },
    {
      "buffer" : 0,
      "byteOffset" : 1084072,
      "byteLength" : 64
    },
    {
      "buffer" : 0,
      "byteOffset" : 1084136,
      "byteLength" : 64
    },
    {
      "buffer" : 0,
      "byteOffset" : 1084200,
      "byteLength" : 64
    }
  ],
  "accessors" : [
    {
      "bufferView" : 0,
      "componentType" : 5123,
      "count" : 18534,
      "type" : "SCALAR"
    },
    {
      "bufferView" : 1,
      "min" : [ -61.704, 6.01458, -70.6039 ],
      "max" : [ -37.3007, 20.0365, -52.4255 ],
      "componentType" : 5126,
      "count" : 5160,
      "type" : "VEC3"
    },
    {
      "bufferView" : 2,
      "componentType" : 5126,
      "count" : 5160,
      "type" : "VEC3"
    },
    {
      "bufferView" : 3,
      "componentType" : 5126,
      "count" : 5160,
      "type" : "VEC4"
    },
    {
      "bufferView" : 4,
      "componentType" : 5126,
      "count" : 5160,
      "type" : "VEC2"
    },
    {
      "bufferView" : 5,
      "componentType" : 5126,
      "count" : 5160,
      "type" : "VEC2"
    },
    {
      "bufferView" : 6,
      "componentType" : 5126,
      "count" : 5160,
      "type" : "VEC2"
    },
    {
      "bufferView" : 7,
      "componentType" : 5126,
      "count" : 5160,
      "type" : "VEC2"
    },
    {
      "bufferView" : 8,
      "componentType" : 5123,
      "count" : 198,
      "type" : "SCALAR"
    },
    {
      "bufferView" : 9,
      "min" : [ -61.3, 1.1, -70.3 ],
      "max" : [ -37.7, 15.4421, -52.71 ],
      "componentType" : 5126,
      "count" : 132,
      "type" : "VEC3"
    },
    {
      "bufferView" : 10,
      "componentType" : 5126,
      "count" : 132,
      "type" : "VEC3"
    },
    {
      "bufferView" : 11,
      "componentType" : 5126,
      "count" : 132,
      "type" : "VEC4"
    },
    {
      "bufferView" : 12,
      "componentType" : 5126,
      "count" : 132,
      "type" : "VEC2"
    },
    {
      "bufferView" : 13,
      "componentType" : 5126,
      "count" : 132,
      "type" : "VEC2"
    },
    {
      "bufferView" : 14,
      "componentType" : 5126,
      "count" : 132,
      "type" : "VEC2"
    },
    {
      "bufferView" : 15,
      "componentType" : 5126,
      "count" : 132,
      "type" : "VEC2"
    },
    {
      "bufferView" : 16,
      "componentType" : 5123,
      "count" : 750,
      "type" : "SCALAR"
    },
    {
      "bufferView" : 17,
      "min" : [ -62.0555, 3.60195, -70.9725 ],
      "max" : [ -37.1519, 5.88006, -52.019 ],
      "componentType" : 5126,
      "count" : 316,
      "type" : "VEC3"
    },
    {
      "bufferView" : 18,
      "componentType" : 5126,
      "count" : 316,
      "type" : "VEC3"
    },
    {
      "bufferView" : 19,
      "componentType" : 5126,
      "count" : 316,
      "type" : "VEC4"
    },
    {
      "bufferView" : 20,
      "componentType" : 5126,
      "count" : 316,
      "type" : "VEC2"
    },
    {
      "bufferView" : 21,
      "componentType" : 5126,
      "count" : 316,
      "type" : "VEC2"
    },
    {
      "bufferView" : 22,
      "componentType" : 5126,
      "count" : 316,
      "type" : "VEC2"
    },
    {
      "bufferView" : 23,
      "componentType" : 5126,
      "count" : 316,
      "type" : "VEC2"
    },
    {
      "bufferView" : 24,
      "componentType" : 5123,
      "count" : 8940,
      "type" : "SCALAR"
    },
    {
      "bufferView" : 25,
      "min" : [ -61.3031, 0.8, -70.2919 ],
      "max" : [ -37.6994, 19.4426, -52.7069 ],
      "componentType" : 5126,
      "count" : 5840,
      "type" : "VEC3"
    },
    {
      "bufferView" : 26,
      "componentType" : 5126,
      "count" : 5840,
      "type" : "VEC3"
    },
    {
      "bufferView" : 27,
      "componentType" : 5126,
      "count" : 5840,
      "type" : "VEC4"
    },
    {
      "bufferView" : 28,
      "componentType" : 5126,
      "count" : 5840,
      "type" : "VEC2"
    },
    {
      "bufferView" : 29,
      "componentType" : 5126,
      "count" : 5840,
      "type" : "VEC2"
    },
    {
      "bufferView" : 30,
      "componentType" : 5126,
      "count" : 5840,
      "type" : "VEC2"
    },
    {
      "bufferView" : 31,
      "componentType" : 5126,
      "count" : 5840,
      "type" : "VEC2"
    },
    {
      "bufferView" : 32,
      "componentType" : 5123,
      "count" : 1524,
      "type" : "SCALAR"
    },
    {
      "bufferView" : 33,
      "min" : [ -62.6642, 5.90704, -71.6358 ],
      "max" : [ -36.3132, 20.5817, -51.4588 ],
      "componentType" : 5126,
      "count" : 616,
      "type" : "VEC3"
    },
    {
      "bufferView" : 34,
      "componentType" : 5126,
      "count" : 616,
      "type" : "VEC3"
    },
    {
      "bufferView" : 35,
      "componentType" : 5126,
      "count" : 616,
      "type" : "VEC4"
    },
    {
      "bufferView" : 36,
      "componentType" : 5126,
      "count" : 616,
      "type" : "VEC2"
    },
    {
      "bufferView" : 37,
      "componentType" : 5126,
      "count" : 616,
      "type" : "VEC2"
    },
    {
      "bufferView" : 38,
      "componentType" : 5126,
      "count" : 616,
      "type" : "VEC2"
    },
    {
      "bufferView" : 39,
      "componentType" : 5126,
      "count" : 616,
      "type" : "VEC2"
    },
    {
      "bufferView" : 40,
      "componentType" : 5123,
      "count" : 4038,
      "type" : "SCALAR"
    },
    {
      "bufferView" : 41,
      "min" : [ -59.098, 8.00618, -68.2227 ],
      "max" : [ -39.7672, 16.8697, -54.4518 ],
      "componentType" : 5126,
      "count" : 1122,
      "type" : "VEC3"
    },
    {
      "bufferView" : 42,
      "componentType" : 5126,
      "count" : 1122,
      "type" : "VEC3"
    },
    {
      "bufferView" : 43,
      "componentType" : 5126,
      "count" : 1122,
      "type" : "VEC4"
    },
    {
      "bufferView" : 44,
      "componentType" : 5126,
      "count" : 1122,
      "type" : "VEC2"
    },
    {
      "bufferView" : 45,
      "componentType" : 5126,
      "count" : 1122,
      "type" : "VEC2"
    },
    {
      "bufferView" : 46,
      "componentType" : 5126,
      "count" : 1122,
      "type" : "VEC2"
    },
    {
      "bufferView" : 47,
      "componentType" : 5126,
      "count" : 1122,
      "type" : "VEC2"
    },
    {
      "bufferView" : 48,
      "componentType" : 5123,
      "count" : 60,
      "type" : "SCALAR"
    },
    {
      "bufferView" : 49,
      "min" : [ -58.5, 2.1, -67.5 ],
      "max" : [ -40.5, 15.4421, -55.5 ],
      "componentType" : 5126,
      "count" : 36,
      "type" : "VEC3"
    },
    {
      "bufferView" : 50,
      "componentType" : 5126,
      "count" : 36,
      "type" : "VEC3"
    },
    {
      "bufferView" : 51,
      "componentType" : 5126,
      "count" : 36,
      "type" : "VEC4"
    },
    {
      "bufferView" : 52,
      "componentType" : 5126,
      "count" : 36,
      "type" : "VEC2"
    },
    {
      "bufferView" : 53,
      "componentType" : 5126,
      "count" : 36,
      "type" : "VEC2"
    },
    {
      "bufferView" : 54,
      "componentType" : 5126,
      "count" : 36,
      "type" : "VEC2"
    },
    {
      "bufferView" : 55,
      "componentType" : 5126,
      "count" : 36,
      "type" : "VEC2"
    },
    {
      "bufferView" : 56,
      "componentType" : 5123,
      "count" : 57,
      "type" : "SCALAR"
    },
    {
      "bufferView" : 57,
      "min" : [ -59.4, 0.799999, -69.3 ],
      "max" : [ -39.6, 10, -53.7 ],
      "componentType" : 5126,
      "count" : 19,
      "type" : "VEC3"
    },
    {
      "bufferView" : 58,
      "componentType" : 5126,
      "count" : 19,
      "type" : "VEC3"
    },
    {
      "bufferView" : 59,
      "componentType" : 5126,
      "count" : 19,
      "type" : "VEC4"
    },
    {
      "bufferView" : 60,
      "componentType" : 5126,
      "count" : 19,
      "type" : "VEC2"
    },
    {
      "bufferView" : 61,
      "componentType" : 5126,
      "count" : 19,
      "type" : "VEC2"
    },
    {
      "bufferView" : 62,
      "componentType" : 5126,
      "count" : 19,
      "type" : "VEC2"
    },
    {
      "bufferView" : 63,
      "componentType" : 5126,
      "count" : 19,
      "type" : "VEC2"
    },
    {
      "bufferView" : 64,
      "componentType" : 5123,
      "count" : 321,
      "type" : "SCALAR"
    },
    {
      "bufferView" : 65,
      "min" : [ -59.9, -3.66211e-06, -69.8 ],
      "max" : [ -39.1, 1.05, -51.6 ],
      "componentType" : 5126,
      "count" : 139,
      "type" : "VEC3"
    },
    {
      "bufferView" : 66,
      "componentType" : 5126,
      "count" : 139,
      "type" : "VEC3"
    },
    {
      "bufferView" : 67,
      "componentType" : 5126,
      "count" : 139,
      "type" : "VEC4"
    },
    {
      "bufferView" : 68,
      "componentType" : 5126,
      "count" : 139,
      "type" : "VEC2"
    },
    {
      "bufferView" : 69,
      "componentType" : 5126,
      "count" : 139,
      "type" : "VEC2"
    },
    {
      "bufferView" : 70,
      "componentType" : 5126,
      "count" : 139,
      "type" : "VEC2"
    },
    {
      "bufferView" : 71,
      "componentType" : 5126,
      "count" : 139,
      "type" : "VEC2"
    },
    {
      "bufferView" : 72,
      "componentType" : 5123,
      "count" : 48,
      "type" : "SCALAR"
    },
    {
      "bufferView" : 73,
      "min" : [ -52.2, -1.2207e-06, -53.7 ],
      "max" : [ -46.8, 0.800003, -51.7 ],
      "componentType" : 5126,
      "count" : 24,
      "type" : "VEC3"
    },
    {
      "bufferView" : 74,
      "componentType" : 5126,
      "count" : 24,
      "type" : "VEC3"
    },
    {
      "bufferView" : 75,
      "componentType" : 5126,
      "count" : 24,
      "type" : "VEC4"
    },
    {
      "bufferView" : 76,
      "componentType" : 5126,
      "count" : 24,
      "type" : "VEC2"
    },
    {
      "bufferView" : 77,
      "componentType" : 5126,
      "count" : 24,
      "type" : "VEC2"
    },
    {
      "bufferView" : 78,
      "componentType" : 5126,
      "count" : 24,
      "type" : "VEC2"
    },
    {
      "bufferView" : 79,
      "componentType" : 5126,
      "count" : 24,
      "type" : "VEC2"
    },
    {
      "bufferView" : 80,
      "componentType" : 5123,
      "count" : 480,
      "type" : "SCALAR"
    },
    {
      "bufferView" : 81,
      "min" : [ -59.3, 1.58, -68.3 ],
      "max" : [ -39.7, 14.4861, -54.7 ],
      "componentType" : 5126,
      "count" : 180,
      "type" : "VEC3"
    },
    {
      "bufferView" : 82,
      "componentType" : 5126,
      "count" : 180,
      "type" : "VEC3"
    },
    {
      "bufferView" : 83,
      "componentType" : 5126,
      "count" : 180,
      "type" : "VEC4"
    },
    {
      "bufferView" : 84,
      "componentType" : 5126,
      "count" : 180,
      "type" : "VEC2"
    },
    {
      "bufferView" : 85,
      "componentType" : 5126,
      "count" : 180,
      "type" : "VEC2"
    },
    {
      "bufferView" : 86,
      "componentType" : 5126,
      "count" : 180,
      "type" : "VEC2"
    },
    {
      "bufferView" : 87,
      "componentType" : 5126,
      "count" : 180,
      "type" : "VEC2"
    },
    {
      "bufferView" : 88,
      "componentType" : 5123,
      "count" : 648,
      "type" : "SCALAR"
    },
    {
      "bufferView" : 89,
      "min" : [ -59.35, 0.8, -68.35 ],
      "max" : [ -39.65, 5.48934, -54.65 ],
      "componentType" : 5126,
      "count" : 288,
      "type" : "VEC3"
    },
    {
      "bufferView" : 90,
      "componentType" : 5126,
      "count" : 288,
      "type" : "VEC3"
    },
    {
      "bufferView" : 91,
      "componentType" : 5126,
      "count" : 288,
      "type" : "VEC4"
    },
    {
      "bufferView" : 92,
      "componentType" : 5126,
      "count" : 288,
      "type" : "VEC2"
    },
    {
      "bufferView" : 93,
      "componentType" : 5126,
      "count" : 288,
      "type" : "VEC2"
    },
    {
      "bufferView" : 94,
      "componentType" : 5126,
      "count" : 288,
      "type" : "VEC2"
    },
    {
      "bufferView" : 95,
      "componentType" : 5126,
      "count" : 288,
      "type" : "VEC2"
    },
    {
      "bufferView" : 96,
      "componentType" : 5123,
      "count" : 48,
      "type" : "SCALAR"
    },
    {
      "bufferView" : 97,
      "min" : [ -53.0311, 2.01061, -54.8982 ],
      "max" : [ -45.9689, 4.2727, -54.7 ],
      "componentType" : 5126,
      "count" : 20,
      "type" : "VEC3"
    },
    {
      "bufferView" : 98,
      "componentType" : 5126,
      "count" : 20,
      "type" : "VEC3"
    },
    {
      "bufferView" : 99,
      "componentType" : 5126,
      "count" : 20,
      "type" : "VEC4"
    },
    {
      "bufferView" : 100,
      "componentType" : 5126,
      "count" : 20,
      "type" : "VEC2"
    },
    {
      "bufferView" : 101,
      "componentType" : 5126,
      "count" : 20,
      "type" : "VEC2"
    },
    {
      "bufferView" : 102,
      "componentType" : 5126,
      "count" : 20,
      "type" : "VEC2"
    },
    {
      "bufferView" : 103,
      "componentType" : 5126,
      "count" : 20,
      "type" : "VEC2"
    },
    {
      "bufferView" : 104,
      "componentType" : 5123,
      "count" : 72,
      "type" : "SCALAR"
    },
    {
      "bufferView" : 105,
      "min" : [ -51.1, 1.1, -55.5 ],
      "max" : [ -47.9, 4.5, -55.45 ],
      "componentType" : 5126,
      "count" : 50,
      "type" : "VEC3"
    },
    {
      "bufferView" : 106,
      "componentType" : 5126,
      "count" : 50,
      "type" : "VEC3"
    },
    {
      "bufferView" : 107,
      "componentType" : 5126,
      "count" : 50,
      "type" : "VEC4"
    },
    {
      "bufferView" : 108,
      "componentType" : 5126,
      "count" : 50,
      "type" : "VEC2"
    },
    {
      "bufferView" : 109,
      "componentType" : 5126,
      "count" : 50,
      "type" : "VEC2"
    },
    {
      "bufferView" : 110,
      "componentType" : 5126,
      "count" : 50,
      "type" : "VEC2"
    },
    {
      "bufferView" : 111,
      "componentType" : 5126,
      "count" : 50,
      "type" : "VEC2"
    },
    {
      "bufferView" : 112,
      "componentType" : 5123,
      "count" : 12,
      "type" : "SCALAR"
    },
    {
      "bufferView" : 113,
      "min" : [ -51, 1.2, -55.5 ],
      "max" : [ -48, 4.4, -55.5 ],
      "componentType" : 5126,
      "count" : 8,
      "type" : "VEC3"
    },
    {
      "bufferView" : 114,
      "componentType" : 5126,
      "count" : 8,
      "type" : "VEC3"
    },
    {
      "bufferView" : 115,
      "componentType" : 5126,
      "count" : 8,
      "type" : "VEC4"
    },
    {
      "bufferView" : 116,
      "componentType" : 5126,
      "count" : 8,
      "type" : "VEC2"
    },
    {
      "bufferView" : 117,
      "componentType" : 5126,
      "count" : 8,
      "type" : "VEC2"
    },
    {
      "bufferView" : 118,
      "componentType" : 5126,
      "count" : 8,
      "type" : "VEC2"
    },
    {
      "bufferView" : 119,
      "componentType" : 5126,
      "count" : 8,
      "type" : "VEC2"
    },
    {
      "bufferView" : 120,
      "componentType" : 5123,
      "count" : 156,
      "type" : "SCALAR"
    },
    {
      "bufferView" : 121,
      "min" : [ -58.51, 2.725, -67.51 ],
      "max" : [ -40.49, 13.3168, -55.49 ],
      "componentType" : 5126,
      "count" : 104,
      "type" : "VEC3"
    },
    {
      "bufferView" : 122,
      "componentType" : 5126,
      "count" : 104,
      "type" : "VEC3"
    },
    {
      "bufferView" : 123,
      "componentType" : 5126,
      "count" : 104,
      "type" : "VEC4"
    },
    {
      "bufferView" : 124,
      "componentType" : 5126,
      "count" : 104,
      "type" : "VEC2"
    },
    {
      "bufferView" : 125,
      "componentType" : 5126,
      "count" : 104,
      "type" : "VEC2"
    },
    {
      "bufferView" : 126,
      "componentType" : 5126,
      "count" : 104,
      "type" : "VEC2"
    },
    {
      "bufferView" : 127,
      "componentType" : 5126,
      "count" : 104,
      "type" : "VEC2"
    },
    {
      "bufferView" : 128,
      "componentType" : 5123,
      "count" : 12,
      "type" : "SCALAR"
    },
    {
      "bufferView" : 129,
      "min" : [ -54.6852, 17.2259, -63.3344 ],
      "max" : [ -44.3148, 19.2915, -59.6672 ],
      "componentType" : 5126,
      "count" : 8,
      "type" : "VEC3"
    },
    {
      "bufferView" : 130,
      "componentType" : 5126,
      "count" : 8,
      "type" : "VEC3"
    },
    {
      "bufferView" : 131,
      "componentType" : 5126,
      "count" : 8,
      "type" : "VEC4"
    },
    {
      "bufferView" : 132,
      "componentType" : 5126,
      "count" : 8,
      "type" : "VEC2"
    },
    {
      "bufferView" : 133,
      "componentType" : 5126,
      "count" : 8,
      "type" : "VEC2"
    },
    {
      "bufferView" : 134,
      "componentType" : 5126,
      "count" : 8,
      "type" : "VEC2"
    },
    {
      "bufferView" : 135,
      "componentType" : 5126,
      "count" : 8,
      "type" : "VEC2"
    }
  ]
}
