{
  "asset" : {
    "generator" : "UE Viewer (umodel) build 1544 based",
    "version" : "2.0"
  },
  "scene" : 0,
  "scenes" : [
    {
      "nodes" : [ 0 ]
    }
  ],
  "nodes" : [
    {
      "name" : "SM_ENV_LKNVLD_Umbrella_A_Lod2",
      "mesh" : 0
    }
  ],
  "materials" : [
    {
      "name" : "MI_LKNVLD_Umbrella_A_LOD",
      "pbrMetallicRoughness" : {
        "baseColorFactor" : [ 0.3, 0.3, 0.3, 1.0 ],
        "metallicFactor" : 0.1,
        "roughnessFactor" : 0.5
      }
    }
  ],
  "meshes" : [
    {
      "primitives" : [
        {
          "attributes" : {
            "POSITION" : 1,
            "NORMAL" : 2,
            "TANGENT" : 3,
            "TEXCOORD_0" : 4,
            "TEXCOORD_1" : 5,
            "TEXCOORD_2" : 6,
            "TEXCOORD_3" : 7
          },
          "indices" : 0,
          "material" : 0
        }
      ],
      "name" : "SM_ENV_LKNVLD_Umbrella_A_Lod2"
    }
  ],
  "buffers" : [
    {
      "uri" : "SM_ENV_LKNVLD_Umbrella_A_Lod2.bin",
      "byteLength" : 142740
    }
  ],
  "bufferViews" : [
    {
      "buffer" : 0,
      "byteOffset" : 0,
      "byteLength" : 9180
    },
    {
      "buffer" : 0,
      "byteOffset" : 9180,
      "byteLength" : 22260
    },
    {
      "buffer" : 0,
      "byteOffset" : 31440,
      "byteLength" : 22260
    },
    {
      "buffer" : 0,
      "byteOffset" : 53700,
      "byteLength" : 29680
    },
    {
      "buffer" : 0,
      "byteOffset" : 83380,
      "byteLength" : 14840
    },
    {
      "buffer" : 0,
      "byteOffset" : 98220,
      "byteLength" : 14840
    },
    {
      "buffer" : 0,
      "byteOffset" : 113060,
      "byteLength" : 14840
    },
    {
      "buffer" : 0,
      "byteOffset" : 127900,
      "byteLength" : 14840
    }
  ],
  "accessors" : [
    {
      "bufferView" : 0,
      "componentType" : 5123,
      "count" : 4590,
      "type" : "SCALAR"
    },
    {
      "bufferView" : 1,
      "min" : [ -1.97627, -0.00252426, -1.96858 ],
      "max" : [ 1.97627, 2.64531, 1.98395 ],
      "componentType" : 5126,
      "count" : 1855,
      "type" : "VEC3"
    },
    {
      "bufferView" : 2,
      "componentType" : 5126,
      "count" : 1855,
      "type" : "VEC3"
    },
    {
      "bufferView" : 3,
      "componentType" : 5126,
      "count" : 1855,
      "type" : "VEC4"
    },
    {
      "bufferView" : 4,
      "componentType" : 5126,
      "count" : 1855,
      "type" : "VEC2"
    },
    {
      "bufferView" : 5,
      "componentType" : 5126,
      "count" : 1855,
      "type" : "VEC2"
    },
    {
      "bufferView" : 6,
      "componentType" : 5126,
      "count" : 1855,
      "type" : "VEC2"
    },
    {
      "bufferView" : 7,
      "componentType" : 5126,
      "count" : 1855,
      "type" : "VEC2"
    }
  ]
}
