{
  "asset" : {
    "generator" : "UE Viewer (umodel) build 1544 based",
    "version" : "2.0"
  },
  "scene" : 0,
  "scenes" : [
    {
      "nodes" : [ 0 ]
    }
  ],
  "nodes" : [
    {
      "name" : "SM_ENV_LKNVLD_Hatago_Flag_Lod1",
      "mesh" : 0
    }
  ],
  "materials" : [
    {
      "name" : "MI_ENV_LKNVLD_Curtain_E",
      "pbrMetallicRoughness" : {
        "baseColorFactor" : [ 0.3, 0.3, 0.3, 1.0 ],
        "metallicFactor" : 0.1,
        "roughnessFactor" : 0.5
      }
    },
    {
      "name" : "MI_ENV_LKNVLD_MetalRoofDark",
      "pbrMetallicRoughness" : {
        "baseColorFactor" : [ 0.9, 0.3, 0.3, 1.0 ],
        "metallicFactor" : 0.1,
        "roughnessFactor" : 0.5
      }
    }
  ],
  "meshes" : [
    {
      "primitives" : [
        {
          "attributes" : {
            "POSITION" : 1,
            "NORMAL" : 2,
            "TANGENT" : 3,
            "TEXCOORD_0" : 4,
            "TEXCOORD_1" : 5,
            "TEXCOORD_2" : 6,
            "TEXCOORD_3" : 7
          },
          "indices" : 0,
          "material" : 0
        },
        {
          "attributes" : {
            "POSITION" : 9,
            "NORMAL" : 10,
            "TANGENT" : 11,
            "TEXCOORD_0" : 12,
            "TEXCOORD_1" : 13,
            "TEXCOORD_2" : 14,
            "TEXCOORD_3" : 15
          },
          "indices" : 8,
          "material" : 1
        }
      ],
      "name" : "SM_ENV_LKNVLD_Hatago_Flag_Lod1"
    }
  ],
  "buffers" : [
    {
      "uri" : "SM_ENV_LKNVLD_Hatago_Flag_Lod1.bin",
      "byteLength" : 68804
    }
  ],
  "bufferViews" : [
    {
      "buffer" : 0,
      "byteOffset" : 0,
      "byteLength" : 5064
    },
    {
      "buffer" : 0,
      "byteOffset" : 5064,
      "byteLength" : 8148
    },
    {
      "buffer" : 0,
      "byteOffset" : 13212,
      "byteLength" : 8148
    },
    {
      "buffer" : 0,
      "byteOffset" : 21360,
      "byteLength" : 10864
    },
    {
      "buffer" : 0,
      "byteOffset" : 32224,
      "byteLength" : 5432
    },
    {
      "buffer" : 0,
      "byteOffset" : 37656,
      "byteLength" : 5432
    },
    {
      "buffer" : 0,
      "byteOffset" : 43088,
      "byteLength" : 5432
    },
    {
      "buffer" : 0,
      "byteOffset" : 48520,
      "byteLength" : 5432
    },
    {
      "buffer" : 0,
      "byteOffset" : 53952,
      "byteLength" : 884
    },
    {
      "buffer" : 0,
      "byteOffset" : 54836,
      "byteLength" : 2328
    },
    {
      "buffer" : 0,
      "byteOffset" : 57164,
      "byteLength" : 2328
    },
    {
      "buffer" : 0,
      "byteOffset" : 59492,
      "byteLength" : 3104
    },
    {
      "buffer" : 0,
      "byteOffset" : 62596,
      "byteLength" : 1552
    },
    {
      "buffer" : 0,
      "byteOffset" : 64148,
      "byteLength" : 1552
    },
    {
      "buffer" : 0,
      "byteOffset" : 65700,
      "byteLength" : 1552
    },
    {
      "buffer" : 0,
      "byteOffset" : 67252,
      "byteLength" : 1552
    }
  ],
  "accessors" : [
    {
      "bufferView" : 0,
      "componentType" : 5123,
      "count" : 2532,
      "type" : "SCALAR"
    },
    {
      "bufferView" : 1,
      "min" : [ -37.3802, 11.0264, -7.47518 ],
      "max" : [ -35.9363, 15.5038, -3.42197 ],
      "componentType" : 5126,
      "count" : 679,
      "type" : "VEC3"
    },
    {
      "bufferView" : 2,
      "componentType" : 5126,
      "count" : 679,
      "type" : "VEC3"
    },
    {
      "bufferView" : 3,
      "componentType" : 5126,
      "count" : 679,
      "type" : "VEC4"
    },
    {
      "bufferView" : 4,
      "componentType" : 5126,
      "count" : 679,
      "type" : "VEC2"
    },
    {
      "bufferView" : 5,
      "componentType" : 5126,
      "count" : 679,
      "type" : "VEC2"
    },
    {
      "bufferView" : 6,
      "componentType" : 5126,
      "count" : 679,
      "type" : "VEC2"
    },
    {
      "bufferView" : 7,
      "componentType" : 5126,
      "count" : 679,
      "type" : "VEC2"
    },
    {
      "bufferView" : 8,
      "componentType" : 5123,
      "count" : 441,
      "type" : "SCALAR"
    },
    {
      "bufferView" : 9,
      "min" : [ -37.3936, 10.9468, -7.49901 ],
      "max" : [ -35.9619, 15.4832, -3.38424 ],
      "componentType" : 5126,
      "count" : 194,
      "type" : "VEC3"
    },
    {
      "bufferView" : 10,
      "componentType" : 5126,
      "count" : 194,
      "type" : "VEC3"
    },
    {
      "bufferView" : 11,
      "componentType" : 5126,
      "count" : 194,
      "type" : "VEC4"
    },
    {
      "bufferView" : 12,
      "componentType" : 5126,
      "count" : 194,
      "type" : "VEC2"
    },
    {
      "bufferView" : 13,
      "componentType" : 5126,
      "count" : 194,
      "type" : "VEC2"
    },
    {
      "bufferView" : 14,
      "componentType" : 5126,
      "count" : 194,
      "type" : "VEC2"
    },
    {
      "bufferView" : 15,
      "componentType" : 5126,
      "count" : 194,
      "type" : "VEC2"
    }
  ]
}
