{
  "asset" : {
    "generator" : "UE Viewer (umodel) build 1544 based",
    "version" : "2.0"
  },
  "scene" : 0,
  "scenes" : [
    {
      "nodes" : [ 0 ]
    }
  ],
  "nodes" : [
    {
      "name" : "SM_ENV_LKNVLD_Event_SL_Line_D",
      "mesh" : 0
    }
  ],
  "materials" : [
    {
      "name" : "MI_ENV_LKNVLD_Neon_A1",
      "pbrMetallicRoughness" : {
        "baseColorFactor" : [ 0.3, 0.3, 0.3, 1.0 ],
        "metallicFactor" : 0.1,
        "roughnessFactor" : 0.5
      }
    },
    {
      "name" : "MI_ENV_LKNVLD_Stall_I",
      "pbrMetallicRoughness" : {
        "baseColorFactor" : [ 0.9, 0.3, 0.3, 1.0 ],
        "metallicFactor" : 0.1,
        "roughnessFactor" : 0.5
      }
    }
  ],
  "meshes" : [
    {
      "primitives" : [
        {
          "attributes" : {
            "POSITION" : 1,
            "NORMAL" : 2,
            "TANGENT" : 3,
            "COLOR_0" : 4,
            "TEXCOORD_0" : 5,
            "TEXCOORD_1" : 6,
            "TEXCOORD_2" : 7,
            "TEXCOORD_3" : 8
          },
          "indices" : 0,
          "material" : 0
        },
        {
          "attributes" : {
            "POSITION" : 10,
            "NORMAL" : 11,
            "TANGENT" : 12,
            "COLOR_0" : 13,
            "TEXCOORD_0" : 14,
            "TEXCOORD_1" : 15,
            "TEXCOORD_2" : 16,
            "TEXCOORD_3" : 17
          },
          "indices" : 9,
          "material" : 1
        }
      ],
      "name" : "SM_ENV_LKNVLD_Event_SL_Line_D"
    }
  ],
  "buffers" : [
    {
      "uri" : "SM_ENV_LKNVLD_Event_SL_Line_D.bin",
      "byteLength" : 387628
    }
  ],
  "bufferViews" : [
    {
      "buffer" : 0,
      "byteOffset" : 0,
      "byteLength" : 18596
    },
    {
      "buffer" : 0,
      "byteOffset" : 18596,
      "byteLength" : 31788
    },
    {
      "buffer" : 0,
      "byteOffset" : 50384,
      "byteLength" : 31788
    },
    {
      "buffer" : 0,
      "byteOffset" : 82172,
      "byteLength" : 42384
    },
    {
      "buffer" : 0,
      "byteOffset" : 124556,
      "byteLength" : 10596
    },
    {
      "buffer" : 0,
      "byteOffset" : 135152,
      "byteLength" : 21192
    },
    {
      "buffer" : 0,
      "byteOffset" : 156344,
      "byteLength" : 21192
    },
    {
      "buffer" : 0,
      "byteOffset" : 177536,
      "byteLength" : 21192
    },
    {
      "buffer" : 0,
      "byteOffset" : 198728,
      "byteLength" : 21192
    },
    {
      "buffer" : 0,
      "byteOffset" : 219920,
      "byteLength" : 7044
    },
    {
      "buffer" : 0,
      "byteOffset" : 226964,
      "byteLength" : 25368
    },
    {
      "buffer" : 0,
      "byteOffset" : 252332,
      "byteLength" : 25368
    },
    {
      "buffer" : 0,
      "byteOffset" : 277700,
      "byteLength" : 33824
    },
    {
      "buffer" : 0,
      "byteOffset" : 311524,
      "byteLength" : 8456
    },
    {
      "buffer" : 0,
      "byteOffset" : 319980,
      "byteLength" : 16912
    },
    {
      "buffer" : 0,
      "byteOffset" : 336892,
      "byteLength" : 16912
    },
    {
      "buffer" : 0,
      "byteOffset" : 353804,
      "byteLength" : 16912
    },
    {
      "buffer" : 0,
      "byteOffset" : 370716,
      "byteLength" : 16912
    }
  ],
  "accessors" : [
    {
      "bufferView" : 0,
      "componentType" : 5123,
      "count" : 9297,
      "type" : "SCALAR"
    },
    {
      "bufferView" : 1,
      "min" : [ -58.2201, 0.0455717, -84.6842 ],
      "max" : [ 58.1962, 22.2184, -6.45592 ],
      "componentType" : 5126,
      "count" : 2649,
      "type" : "VEC3"
    },
    {
      "bufferView" : 2,
      "componentType" : 5126,
      "count" : 2649,
      "type" : "VEC3"
    },
    {
      "bufferView" : 3,
      "componentType" : 5126,
      "count" : 2649,
      "type" : "VEC4"
    },
    {
      "bufferView" : 4,
      "normalized" : true,
      "componentType" : 5121,
      "count" : 2649,
      "type" : "VEC4"
    },
    {
      "bufferView" : 5,
      "componentType" : 5126,
      "count" : 2649,
      "type" : "VEC2"
    },
    {
      "bufferView" : 6,
      "componentType" : 5126,
      "count" : 2649,
      "type" : "VEC2"
    },
    {
      "bufferView" : 7,
      "componentType" : 5126,
      "count" : 2649,
      "type" : "VEC2"
    },
    {
      "bufferView" : 8,
      "componentType" : 5126,
      "count" : 2649,
      "type" : "VEC2"
    },
    {
      "bufferView" : 9,
      "componentType" : 5123,
      "count" : 3522,
      "type" : "SCALAR"
    },
    {
      "bufferView" : 10,
      "min" : [ -36.487, 0.0625585, -81.1207 ],
      "max" : [ 36.4289, 12.4756, -31.3662 ],
      "componentType" : 5126,
      "count" : 2114,
      "type" : "VEC3"
    },
    {
      "bufferView" : 11,
      "componentType" : 5126,
      "count" : 2114,
      "type" : "VEC3"
    },
    {
      "bufferView" : 12,
      "componentType" : 5126,
      "count" : 2114,
      "type" : "VEC4"
    },
    {
      "bufferView" : 13,
      "normalized" : true,
      "componentType" : 5121,
      "count" : 2114,
      "type" : "VEC4"
    },
    {
      "bufferView" : 14,
      "componentType" : 5126,
      "count" : 2114,
      "type" : "VEC2"
    },
    {
      "bufferView" : 15,
      "componentType" : 5126,
      "count" : 2114,
      "type" : "VEC2"
    },
    {
      "bufferView" : 16,
      "componentType" : 5126,
      "count" : 2114,
      "type" : "VEC2"
    },
    {
      "bufferView" : 17,
      "componentType" : 5126,
      "count" : 2114,
      "type" : "VEC2"
    }
  ]
}
