{
  "asset" : {
    "generator" : "UE Viewer (umodel) build 1544 based",
    "version" : "2.0"
  },
  "scene" : 0,
  "scenes" : [
    {
      "nodes" : [ 0 ]
    }
  ],
  "nodes" : [
    {
      "name" : "SM_ENV_LKNVLD_CommonBuilding_TowerA",
      "mesh" : 0
    }
  ],
  "materials" : [
    {
      "name" : "MI_ENV_LKNVLD_CommonBuilding_B",
      "pbrMetallicRoughness" : {
        "baseColorFactor" : [ 0.3, 0.3, 0.3, 1.0 ],
        "metallicFactor" : 0.1,
        "roughnessFactor" : 0.5
      }
    },
    {
      "name" : "MI_ENV_LKNVLD_Windows_A",
      "pbrMetallicRoughness" : {
        "baseColorFactor" : [ 0.9, 0.3, 0.3, 1.0 ],
        "metallicFactor" : 0.1,
        "roughnessFactor" : 0.5
      }
    },
    {
      "name" : "MI_ENV_LKNVLD_WoodBoard_Natural_Yellowed_LOD",
      "pbrMetallicRoughness" : {
        "baseColorFactor" : [ 0.3, 0.9, 0.3, 1.0 ],
        "metallicFactor" : 0.1,
        "roughnessFactor" : 0.5
      }
    }
  ],
  "meshes" : [
    {
      "primitives" : [
        {
          "attributes" : {
            "POSITION" : 1,
            "NORMAL" : 2,
            "TANGENT" : 3,
            "TEXCOORD_0" : 4,
            "TEXCOORD_1" : 5,
            "TEXCOORD_2" : 6,
            "TEXCOORD_3" : 7
          },
          "indices" : 0,
          "material" : 0
        },
        {
          "attributes" : {
            "POSITION" : 9,
            "NORMAL" : 10,
            "TANGENT" : 11,
            "TEXCOORD_0" : 12,
            "TEXCOORD_1" : 13,
            "TEXCOORD_2" : 14,
            "TEXCOORD_3" : 15
          },
          "indices" : 8,
          "material" : 1
        },
        {
          "attributes" : {
            "POSITION" : 17,
            "NORMAL" : 18,
            "TANGENT" : 19,
            "TEXCOORD_0" : 20,
            "TEXCOORD_1" : 21,
            "TEXCOORD_2" : 22,
            "TEXCOORD_3" : 23
          },
          "indices" : 16,
          "material" : 2
        }
      ],
      "name" : "SM_ENV_LKNVLD_CommonBuilding_TowerA"
    }
  ],
  "buffers" : [
    {
      "uri" : "SM_ENV_LKNVLD_CommonBuilding_TowerA.bin",
      "byteLength" : 710756
    }
  ],
  "bufferViews" : [
    {
      "buffer" : 0,
      "byteOffset" : 0,
      "byteLength" : 38084
    },
    {
      "buffer" : 0,
      "byteOffset" : 38084,
      "byteLength" : 95520
    },
    {
      "buffer" : 0,
      "byteOffset" : 133604,
      "byteLength" : 95520
    },
    {
      "buffer" : 0,
      "byteOffset" : 229124,
      "byteLength" : 127360
    },
    {
      "buffer" : 0,
      "byteOffset" : 356484,
      "byteLength" : 63680
    },
    {
      "buffer" : 0,
      "byteOffset" : 420164,
      "byteLength" : 63680
    },
    {
      "buffer" : 0,
      "byteOffset" : 483844,
      "byteLength" : 63680
    },
    {
      "buffer" : 0,
      "byteOffset" : 547524,
      "byteLength" : 63680
    },
    {
      "buffer" : 0,
      "byteOffset" : 611204,
      "byteLength" : 768
    },
    {
      "buffer" : 0,
      "byteOffset" : 611972,
      "byteLength" : 3072
    },
    {
      "buffer" : 0,
      "byteOffset" : 615044,
      "byteLength" : 3072
    },
    {
      "buffer" : 0,
      "byteOffset" : 618116,
      "byteLength" : 4096
    },
    {
      "buffer" : 0,
      "byteOffset" : 622212,
      "byteLength" : 2048
    },
    {
      "buffer" : 0,
      "byteOffset" : 624260,
      "byteLength" : 2048
    },
    {
      "buffer" : 0,
      "byteOffset" : 626308,
      "byteLength" : 2048
    },
    {
      "buffer" : 0,
      "byteOffset" : 628356,
      "byteLength" : 2048
    },
    {
      "buffer" : 0,
      "byteOffset" : 630404,
      "byteLength" : 5472
    },
    {
      "buffer" : 0,
      "byteOffset" : 635876,
      "byteLength" : 12480
    },
    {
      "buffer" : 0,
      "byteOffset" : 648356,
      "byteLength" : 12480
    },
    {
      "buffer" : 0,
      "byteOffset" : 660836,
      "byteLength" : 16640
    },
    {
      "buffer" : 0,
      "byteOffset" : 677476,
      "byteLength" : 8320
    },
    {
      "buffer" : 0,
      "byteOffset" : 685796,
      "byteLength" : 8320
    },
    {
      "buffer" : 0,
      "byteOffset" : 694116,
      "byteLength" : 8320
    },
    {
      "buffer" : 0,
      "byteOffset" : 702436,
      "byteLength" : 8320
    }
  ],
  "accessors" : [
    {
      "bufferView" : 0,
      "componentType" : 5123,
      "count" : 19041,
      "type" : "SCALAR"
    },
    {
      "bufferView" : 1,
      "min" : [ -91.8643, 1.37329e-06, -101.864 ],
      "max" : [ -72.1357, 42.358, -82.1357 ],
      "componentType" : 5126,
      "count" : 7960,
      "type" : "VEC3"
    },
    {
      "bufferView" : 2,
      "componentType" : 5126,
      "count" : 7960,
      "type" : "VEC3"
    },
    {
      "bufferView" : 3,
      "componentType" : 5126,
      "count" : 7960,
      "type" : "VEC4"
    },
    {
      "bufferView" : 4,
      "componentType" : 5126,
      "count" : 7960,
      "type" : "VEC2"
    },
    {
      "bufferView" : 5,
      "componentType" : 5126,
      "count" : 7960,
      "type" : "VEC2"
    },
    {
      "bufferView" : 6,
      "componentType" : 5126,
      "count" : 7960,
      "type" : "VEC2"
    },
    {
      "bufferView" : 7,
      "componentType" : 5126,
      "count" : 7960,
      "type" : "VEC2"
    },
    {
      "bufferView" : 8,
      "componentType" : 5123,
      "count" : 384,
      "type" : "SCALAR"
    },
    {
      "bufferView" : 9,
      "min" : [ -89.9377, 1.73075, -99.9377 ],
      "max" : [ -74.0624, 22.1463, -84.0623 ],
      "componentType" : 5126,
      "count" : 256,
      "type" : "VEC3"
    },
    {
      "bufferView" : 10,
      "componentType" : 5126,
      "count" : 256,
      "type" : "VEC3"
    },
    {
      "bufferView" : 11,
      "componentType" : 5126,
      "count" : 256,
      "type" : "VEC4"
    },
    {
      "bufferView" : 12,
      "componentType" : 5126,
      "count" : 256,
      "type" : "VEC2"
    },
    {
      "bufferView" : 13,
      "componentType" : 5126,
      "count" : 256,
      "type" : "VEC2"
    },
    {
      "bufferView" : 14,
      "componentType" : 5126,
      "count" : 256,
      "type" : "VEC2"
    },
    {
      "bufferView" : 15,
      "componentType" : 5126,
      "count" : 256,
      "type" : "VEC2"
    },
    {
      "bufferView" : 16,
      "componentType" : 5123,
      "count" : 2736,
      "type" : "SCALAR"
    },
    {
      "bufferView" : 17,
      "min" : [ -91.0966, 0.4, -101.097 ],
      "max" : [ -72.9034, 7.1, -82.9034 ],
      "componentType" : 5126,
      "count" : 1040,
      "type" : "VEC3"
    },
    {
      "bufferView" : 18,
      "componentType" : 5126,
      "count" : 1040,
      "type" : "VEC3"
    },
    {
      "bufferView" : 19,
      "componentType" : 5126,
      "count" : 1040,
      "type" : "VEC4"
    },
    {
      "bufferView" : 20,
      "componentType" : 5126,
      "count" : 1040,
      "type" : "VEC2"
    },
    {
      "bufferView" : 21,
      "componentType" : 5126,
      "count" : 1040,
      "type" : "VEC2"
    },
    {
      "bufferView" : 22,
      "componentType" : 5126,
      "count" : 1040,
      "type" : "VEC2"
    },
    {
      "bufferView" : 23,
      "componentType" : 5126,
      "count" : 1040,
      "type" : "VEC2"
    }
  ]
}
