{
  "asset" : {
    "generator" : "UE Viewer (umodel) build 1544 based",
    "version" : "2.0"
  },
  "scene" : 0,
  "scenes" : [
    {
      "nodes" : [ 0 ]
    }
  ],
  "nodes" : [
    {
      "name" : "SM_ENV_LKNVLD_Event_TorusBalloon_A",
      "mesh" : 0
    }
  ],
  "materials" : [
    {
      "name" : "MI_ENV_LKNVLD_Event_TorusBalloon01_A",
      "pbrMetallicRoughness" : {
        "baseColorFactor" : [ 0.3, 0.3, 0.3, 1.0 ],
        "metallicFactor" : 0.1,
        "roughnessFactor" : 0.5
      }
    },
    {
      "name" : "MI_ENV_LKNVLD_Event_Balloon_A",
      "pbrMetallicRoughness" : {
        "baseColorFactor" : [ 0.9, 0.3, 0.3, 1.0 ],
        "metallicFactor" : 0.1,
        "roughnessFactor" : 0.5
      }
    },
    {
      "name" : "MI_ENV_LKNVLD_Event_TorusBalloon_A",
      "pbrMetallicRoughness" : {
        "baseColorFactor" : [ 0.3, 0.9, 0.3, 1.0 ],
        "metallicFactor" : 0.1,
        "roughnessFactor" : 0.5
      }
    }
  ],
  "meshes" : [
    {
      "primitives" : [
        {
          "attributes" : {
            "POSITION" : 1,
            "NORMAL" : 2,
            "TANGENT" : 3,
            "COLOR_0" : 4,
            "TEXCOORD_0" : 5,
            "TEXCOORD_1" : 6,
            "TEXCOORD_2" : 7,
            "TEXCOORD_3" : 8
          },
          "indices" : 0,
          "material" : 0
        },
        {
          "attributes" : {
            "POSITION" : 10,
            "NORMAL" : 11,
            "TANGENT" : 12,
            "COLOR_0" : 13,
            "TEXCOORD_0" : 14,
            "TEXCOORD_1" : 15,
            "TEXCOORD_2" : 16,
            "TEXCOORD_3" : 17
          },
          "indices" : 9,
          "material" : 1
        },
        {
          "attributes" : {
            "POSITION" : 19,
            "NORMAL" : 20,
            "TANGENT" : 21,
            "COLOR_0" : 22,
            "TEXCOORD_0" : 23,
            "TEXCOORD_1" : 24,
            "TEXCOORD_2" : 25,
            "TEXCOORD_3" : 26
          },
          "indices" : 18,
          "material" : 2
        }
      ],
      "name" : "SM_ENV_LKNVLD_Event_TorusBalloon_A"
    }
  ],
  "buffers" : [
    {
      "uri" : "SM_ENV_LKNVLD_Event_TorusBalloon_A.bin",
      "byteLength" : 181560
    }
  ],
  "bufferViews" : [
    {
      "buffer" : 0,
      "byteOffset" : 0,
      "byteLength" : 13548
    },
    {
      "buffer" : 0,
      "byteOffset" : 13548,
      "byteLength" : 19200
    },
    {
      "buffer" : 0,
      "byteOffset" : 32748,
      "byteLength" : 19200
    },
    {
      "buffer" : 0,
      "byteOffset" : 51948,
      "byteLength" : 25600
    },
    {
      "buffer" : 0,
      "byteOffset" : 77548,
      "byteLength" : 6400
    },
    {
      "buffer" : 0,
      "byteOffset" : 83948,
      "byteLength" : 12800
    },
    {
      "buffer" : 0,
      "byteOffset" : 96748,
      "byteLength" : 12800
    },
    {
      "buffer" : 0,
      "byteOffset" : 109548,
      "byteLength" : 12800
    },
    {
      "buffer" : 0,
      "byteOffset" : 122348,
      "byteLength" : 12800
    },
    {
      "buffer" : 0,
      "byteOffset" : 135148,
      "byteLength" : 936
    },
    {
      "buffer" : 0,
      "byteOffset" : 136084,
      "byteLength" : 2304
    },
    {
      "buffer" : 0,
      "byteOffset" : 138388,
      "byteLength" : 2304
    },
    {
      "buffer" : 0,
      "byteOffset" : 140692,
      "byteLength" : 3072
    },
    {
      "buffer" : 0,
      "byteOffset" : 143764,
      "byteLength" : 768
    },
    {
      "buffer" : 0,
      "byteOffset" : 144532,
      "byteLength" : 1536
    },
    {
      "buffer" : 0,
      "byteOffset" : 146068,
      "byteLength" : 1536
    },
    {
      "buffer" : 0,
      "byteOffset" : 147604,
      "byteLength" : 1536
    },
    {
      "buffer" : 0,
      "byteOffset" : 149140,
      "byteLength" : 1536
    },
    {
      "buffer" : 0,
      "byteOffset" : 150676,
      "byteLength" : 3372
    },
    {
      "buffer" : 0,
      "byteOffset" : 154048,
      "byteLength" : 4344
    },
    {
      "buffer" : 0,
      "byteOffset" : 158392,
      "byteLength" : 4344
    },
    {
      "buffer" : 0,
      "byteOffset" : 162736,
      "byteLength" : 5792
    },
    {
      "buffer" : 0,
      "byteOffset" : 168528,
      "byteLength" : 1448
    },
    {
      "buffer" : 0,
      "byteOffset" : 169976,
      "byteLength" : 2896
    },
    {
      "buffer" : 0,
      "byteOffset" : 172872,
      "byteLength" : 2896
    },
    {
      "buffer" : 0,
      "byteOffset" : 175768,
      "byteLength" : 2896
    },
    {
      "buffer" : 0,
      "byteOffset" : 178664,
      "byteLength" : 2896
    }
  ],
  "accessors" : [
    {
      "bufferView" : 0,
      "componentType" : 5123,
      "count" : 6774,
      "type" : "SCALAR"
    },
    {
      "bufferView" : 1,
      "min" : [ -24.1688, 0.0202511, -70.7105 ],
      "max" : [ 18.2083, 21.7749, -15.4546 ],
      "componentType" : 5126,
      "count" : 1600,
      "type" : "VEC3"
    },
    {
      "bufferView" : 2,
      "componentType" : 5126,
      "count" : 1600,
      "type" : "VEC3"
    },
    {
      "bufferView" : 3,
      "componentType" : 5126,
      "count" : 1600,
      "type" : "VEC4"
    },
    {
      "bufferView" : 4,
      "normalized" : true,
      "componentType" : 5121,
      "count" : 1600,
      "type" : "VEC4"
    },
    {
      "bufferView" : 5,
      "componentType" : 5126,
      "count" : 1600,
      "type" : "VEC2"
    },
    {
      "bufferView" : 6,
      "componentType" : 5126,
      "count" : 1600,
      "type" : "VEC2"
    },
    {
      "bufferView" : 7,
      "componentType" : 5126,
      "count" : 1600,
      "type" : "VEC2"
    },
    {
      "bufferView" : 8,
      "componentType" : 5126,
      "count" : 1600,
      "type" : "VEC2"
    },
    {
      "bufferView" : 9,
      "componentType" : 5123,
      "count" : 468,
      "type" : "SCALAR"
    },
    {
      "bufferView" : 10,
      "min" : [ -22.111, 0.0661444, -68.3706 ],
      "max" : [ 16.1863, 19.4829, -17.4447 ],
      "componentType" : 5126,
      "count" : 192,
      "type" : "VEC3"
    },
    {
      "bufferView" : 11,
      "componentType" : 5126,
      "count" : 192,
      "type" : "VEC3"
    },
    {
      "bufferView" : 12,
      "componentType" : 5126,
      "count" : 192,
      "type" : "VEC4"
    },
    {
      "bufferView" : 13,
      "normalized" : true,
      "componentType" : 5121,
      "count" : 192,
      "type" : "VEC4"
    },
    {
      "bufferView" : 14,
      "componentType" : 5126,
      "count" : 192,
      "type" : "VEC2"
    },
    {
      "bufferView" : 15,
      "componentType" : 5126,
      "count" : 192,
      "type" : "VEC2"
    },
    {
      "bufferView" : 16,
      "componentType" : 5126,
      "count" : 192,
      "type" : "VEC2"
    },
    {
      "bufferView" : 17,
      "componentType" : 5126,
      "count" : 192,
      "type" : "VEC2"
    },
    {
      "bufferView" : 18,
      "componentType" : 5123,
      "count" : 1686,
      "type" : "SCALAR"
    },
    {
      "bufferView" : 19,
      "min" : [ -9.07231, 2.07555, -42.096 ],
      "max" : [ 9.07232, 14.9222, -39.504 ],
      "componentType" : 5126,
      "count" : 362,
      "type" : "VEC3"
    },
    {
      "bufferView" : 20,
      "componentType" : 5126,
      "count" : 362,
      "type" : "VEC3"
    },
    {
      "bufferView" : 21,
      "componentType" : 5126,
      "count" : 362,
      "type" : "VEC4"
    },
    {
      "bufferView" : 22,
      "normalized" : true,
      "componentType" : 5121,
      "count" : 362,
      "type" : "VEC4"
    },
    {
      "bufferView" : 23,
      "componentType" : 5126,
      "count" : 362,
      "type" : "VEC2"
    },
    {
      "bufferView" : 24,
      "componentType" : 5126,
      "count" : 362,
      "type" : "VEC2"
    },
    {
      "bufferView" : 25,
      "componentType" : 5126,
      "count" : 362,
      "type" : "VEC2"
    },
    {
      "bufferView" : 26,
      "componentType" : 5126,
      "count" : 362,
      "type" : "VEC2"
    }
  ]
}
