{
  "asset" : {
    "generator" : "UE Viewer (umodel) build 1544 based",
    "version" : "2.0"
  },
  "scene" : 0,
  "scenes" : [
    {
      "nodes" : [ 0 ]
    }
  ],
  "nodes" : [
    {
      "name" : "SM_ENV_LKNVLD_Event_HL_WoodenStage_A_Lod3",
      "mesh" : 0
    }
  ],
  "materials" : [
    {
      "name" : "MI_ENV_LKNVLD_WoodBoard_Natural_Yellowed",
      "pbrMetallicRoughness" : {
        "baseColorFactor" : [ 0.3, 0.3, 0.3, 1.0 ],
        "metallicFactor" : 0.1,
        "roughnessFactor" : 0.5
      }
    },
    {
      "name" : "MI_ENV_LKNVLD_Event_HL_WoodPlain_A_Trans",
      "pbrMetallicRoughness" : {
        "baseColorFactor" : [ 0.9, 0.3, 0.3, 1.0 ],
        "metallicFactor" : 0.1,
        "roughnessFactor" : 0.5
      }
    },
    {
      "name" : "MI_ENV_LKNVLD_Event_HL_WoodenStage_Emissive_A_Trans",
      "pbrMetallicRoughness" : {
        "baseColorFactor" : [ 0.3, 0.9, 0.3, 1.0 ],
        "metallicFactor" : 0.1,
        "roughnessFactor" : 0.5
      }
    },
    {
      "name" : "MI_ENV_LKNVLD_Aircon_C",
      "pbrMetallicRoughness" : {
        "baseColorFactor" : [ 0.3, 0.3, 0.9, 1.0 ],
        "metallicFactor" : 0.1,
        "roughnessFactor" : 0.5
      }
    },
    {
      "name" : "MI_ENV_LKNVLD_Event_HL_Metal_A_Trans",
      "pbrMetallicRoughness" : {
        "baseColorFactor" : [ 0.9, 0.9, 0.9, 1.0 ],
        "metallicFactor" : 0.1,
        "roughnessFactor" : 0.5
      }
    },
    {
      "name" : "MI_ENV_LKNVLD_Pipe_E_Trans",
      "pbrMetallicRoughness" : {
        "baseColorFactor" : [ 0.9, 0.9, 0.3, 1.0 ],
        "metallicFactor" : 0.1,
        "roughnessFactor" : 0.5
      }
    },
    {
      "name" : "MI_ENV_LKNVLD_BigPipe_B_Trans",
      "pbrMetallicRoughness" : {
        "baseColorFactor" : [ 0.9, 0.3, 0.9, 1.0 ],
        "metallicFactor" : 0.1,
        "roughnessFactor" : 0.5
      }
    },
    {
      "name" : "MI_ENV_LKNVLD_Pipe_A_Trans",
      "pbrMetallicRoughness" : {
        "baseColorFactor" : [ 0.3, 0.9, 0.9, 1.0 ],
        "metallicFactor" : 0.1,
        "roughnessFactor" : 0.5
      }
    },
    {
      "name" : "MI_ENV_LKNVLD_Sticker_02",
      "pbrMetallicRoughness" : {
        "baseColorFactor" : [ 1, 0.3, 0.3, 1.0 ],
        "metallicFactor" : 0.1,
        "roughnessFactor" : 0.5
      }
    },
    {
      "name" : "MI_ENV_LKNVLD_WoodBoard_Natural_Lighter",
      "pbrMetallicRoughness" : {
        "baseColorFactor" : [ 0.6, 0.3, 0.3, 1.0 ],
        "metallicFactor" : 0.1,
        "roughnessFactor" : 0.5
      }
    }
  ],
  "meshes" : [
    {
      "primitives" : [
        {
          "attributes" : {
            "POSITION" : 1,
            "NORMAL" : 2,
            "TANGENT" : 3,
            "COLOR_0" : 4,
            "TEXCOORD_0" : 5,
            "TEXCOORD_1" : 6,
            "TEXCOORD_2" : 7,
            "TEXCOORD_3" : 8
          },
          "indices" : 0,
          "material" : 0
        },
        {
          "attributes" : {
            "POSITION" : 10,
            "NORMAL" : 11,
            "TANGENT" : 12,
            "COLOR_0" : 13,
            "TEXCOORD_0" : 14,
            "TEXCOORD_1" : 15,
            "TEXCOORD_2" : 16,
            "TEXCOORD_3" : 17
          },
          "indices" : 9,
          "material" : 1
        },
        {
          "attributes" : {
            "POSITION" : 19,
            "NORMAL" : 20,
            "TANGENT" : 21,
            "COLOR_0" : 22,
            "TEXCOORD_0" : 23,
            "TEXCOORD_1" : 24,
            "TEXCOORD_2" : 25,
            "TEXCOORD_3" : 26
          },
          "indices" : 18,
          "material" : 2
        },
        {
          "attributes" : {
            "POSITION" : 28,
            "NORMAL" : 29,
            "TANGENT" : 30,
            "COLOR_0" : 31,
            "TEXCOORD_0" : 32,
            "TEXCOORD_1" : 33,
            "TEXCOORD_2" : 34,
            "TEXCOORD_3" : 35
          },
          "indices" : 27,
          "material" : 3
        },
        {
          "attributes" : {
            "POSITION" : 37,
            "NORMAL" : 38,
            "TANGENT" : 39,
            "COLOR_0" : 40,
            "TEXCOORD_0" : 41,
            "TEXCOORD_1" : 42,
            "TEXCOORD_2" : 43,
            "TEXCOORD_3" : 44
          },
          "indices" : 36,
          "material" : 4
        },
        {
          "attributes" : {
            "POSITION" : 46,
            "NORMAL" : 47,
            "TANGENT" : 48,
            "COLOR_0" : 49,
            "TEXCOORD_0" : 50,
            "TEXCOORD_1" : 51,
            "TEXCOORD_2" : 52,
            "TEXCOORD_3" : 53
          },
          "indices" : 45,
          "material" : 5
        },
        {
          "attributes" : {
            "POSITION" : 55,
            "NORMAL" : 56,
            "TANGENT" : 57,
            "COLOR_0" : 58,
            "TEXCOORD_0" : 59,
            "TEXCOORD_1" : 60,
            "TEXCOORD_2" : 61,
            "TEXCOORD_3" : 62
          },
          "indices" : 54,
          "material" : 6
        },
        {
          "attributes" : {
            "POSITION" : 64,
            "NORMAL" : 65,
            "TANGENT" : 66,
            "COLOR_0" : 67,
            "TEXCOORD_0" : 68,
            "TEXCOORD_1" : 69,
            "TEXCOORD_2" : 70,
            "TEXCOORD_3" : 71
          },
          "indices" : 63,
          "material" : 7
        },
        {
          "attributes" : {
            "POSITION" : 73,
            "NORMAL" : 74,
            "TANGENT" : 75,
            "COLOR_0" : 76,
            "TEXCOORD_0" : 77,
            "TEXCOORD_1" : 78,
            "TEXCOORD_2" : 79,
            "TEXCOORD_3" : 80
          },
          "indices" : 72,
          "material" : 8
        },
        {
          "attributes" : {
            "POSITION" : 82,
            "NORMAL" : 83,
            "TANGENT" : 84,
            "COLOR_0" : 85,
            "TEXCOORD_0" : 86,
            "TEXCOORD_1" : 87,
            "TEXCOORD_2" : 88,
            "TEXCOORD_3" : 89
          },
          "indices" : 81,
          "material" : 9
        }
      ],
      "name" : "SM_ENV_LKNVLD_Event_HL_WoodenStage_A_Lod3"
    }
  ],
  "buffers" : [
    {
      "uri" : "SM_ENV_LKNVLD_Event_HL_WoodenStage_A_Lod3.bin",
      "byteLength" : 1917980
    }
  ],
  "bufferViews" : [
    {
      "buffer" : 0,
      "byteOffset" : 0,
      "byteLength" : 564
    },
    {
      "buffer" : 0,
      "byteOffset" : 564,
      "byteLength" : 1176
    },
    {
      "buffer" : 0,
      "byteOffset" : 1740,
      "byteLength" : 1176
    },
    {
      "buffer" : 0,
      "byteOffset" : 2916,
      "byteLength" : 1568
    },
    {
      "buffer" : 0,
      "byteOffset" : 4484,
      "byteLength" : 392
    },
    {
      "buffer" : 0,
      "byteOffset" : 4876,
      "byteLength" : 784
    },
    {
      "buffer" : 0,
      "byteOffset" : 5660,
      "byteLength" : 784
    },
    {
      "buffer" : 0,
      "byteOffset" : 6444,
      "byteLength" : 784
    },
    {
      "buffer" : 0,
      "byteOffset" : 7228,
      "byteLength" : 784
    },
    {
      "buffer" : 0,
      "byteOffset" : 8012,
      "byteLength" : 5660
    },
    {
      "buffer" : 0,
      "byteOffset" : 13672,
      "byteLength" : 15540
    },
    {
      "buffer" : 0,
      "byteOffset" : 29212,
      "byteLength" : 15540
    },
    {
      "buffer" : 0,
      "byteOffset" : 44752,
      "byteLength" : 20720
    },
    {
      "buffer" : 0,
      "byteOffset" : 65472,
      "byteLength" : 5180
    },
    {
      "buffer" : 0,
      "byteOffset" : 70652,
      "byteLength" : 10360
    },
    {
      "buffer" : 0,
      "byteOffset" : 81012,
      "byteLength" : 10360
    },
    {
      "buffer" : 0,
      "byteOffset" : 91372,
      "byteLength" : 10360
    },
    {
      "buffer" : 0,
      "byteOffset" : 101732,
      "byteLength" : 10360
    },
    {
      "buffer" : 0,
      "byteOffset" : 112092,
      "byteLength" : 103508
    },
    {
      "buffer" : 0,
      "byteOffset" : 215600,
      "byteLength" : 209676
    },
    {
      "buffer" : 0,
      "byteOffset" : 425276,
      "byteLength" : 209676
    },
    {
      "buffer" : 0,
      "byteOffset" : 634952,
      "byteLength" : 279568
    },
    {
      "buffer" : 0,
      "byteOffset" : 914520,
      "byteLength" : 69892
    },
    {
      "buffer" : 0,
      "byteOffset" : 984412,
      "byteLength" : 139784
    },
    {
      "buffer" : 0,
      "byteOffset" : 1124196,
      "byteLength" : 139784
    },
    {
      "buffer" : 0,
      "byteOffset" : 1263980,
      "byteLength" : 139784
    },
    {
      "buffer" : 0,
      "byteOffset" : 1403764,
      "byteLength" : 139784
    },
    {
      "buffer" : 0,
      "byteOffset" : 1543548,
      "byteLength" : 2852
    },
    {
      "buffer" : 0,
      "byteOffset" : 1546400,
      "byteLength" : 5916
    },
    {
      "buffer" : 0,
      "byteOffset" : 1552316,
      "byteLength" : 5916
    },
    {
      "buffer" : 0,
      "byteOffset" : 1558232,
      "byteLength" : 7888
    },
    {
      "buffer" : 0,
      "byteOffset" : 1566120,
      "byteLength" : 1972
    },
    {
      "buffer" : 0,
      "byteOffset" : 1568092,
      "byteLength" : 3944
    },
    {
      "buffer" : 0,
      "byteOffset" : 1572036,
      "byteLength" : 3944
    },
    {
      "buffer" : 0,
      "byteOffset" : 1575980,
      "byteLength" : 3944
    },
    {
      "buffer" : 0,
      "byteOffset" : 1579924,
      "byteLength" : 3944
    },
    {
      "buffer" : 0,
      "byteOffset" : 1583868,
      "byteLength" : 7028
    },
    {
      "buffer" : 0,
      "byteOffset" : 1590896,
      "byteLength" : 22584
    },
    {
      "buffer" : 0,
      "byteOffset" : 1613480,
      "byteLength" : 22584
    },
    {
      "buffer" : 0,
      "byteOffset" : 1636064,
      "byteLength" : 30112
    },
    {
      "buffer" : 0,
      "byteOffset" : 1666176,
      "byteLength" : 7528
    },
    {
      "buffer" : 0,
      "byteOffset" : 1673704,
      "byteLength" : 15056
    },
    {
      "buffer" : 0,
      "byteOffset" : 1688760,
      "byteLength" : 15056
    },
    {
      "buffer" : 0,
      "byteOffset" : 1703816,
      "byteLength" : 15056
    },
    {
      "buffer" : 0,
      "byteOffset" : 1718872,
      "byteLength" : 15056
    },
    {
      "buffer" : 0,
      "byteOffset" : 1733928,
      "byteLength" : 9636
    },
    {
      "buffer" : 0,
      "byteOffset" : 1743564,
      "byteLength" : 12996
    },
    {
      "buffer" : 0,
      "byteOffset" : 1756560,
      "byteLength" : 12996
    },
    {
      "buffer" : 0,
      "byteOffset" : 1769556,
      "byteLength" : 17328
    },
    {
      "buffer" : 0,
      "byteOffset" : 1786884,
      "byteLength" : 4332
    },
    {
      "buffer" : 0,
      "byteOffset" : 1791216,
      "byteLength" : 8664
    },
    {
      "buffer" : 0,
      "byteOffset" : 1799880,
      "byteLength" : 8664
    },
    {
      "buffer" : 0,
      "byteOffset" : 1808544,
      "byteLength" : 8664
    },
    {
      "buffer" : 0,
      "byteOffset" : 1817208,
      "byteLength" : 8664
    },
    {
      "buffer" : 0,
      "byteOffset" : 1825872,
      "byteLength" : 1128
    },
    {
      "buffer" : 0,
      "byteOffset" : 1827000,
      "byteLength" : 2160
    },
    {
      "buffer" : 0,
      "byteOffset" : 1829160,
      "byteLength" : 2160
    },
    {
      "buffer" : 0,
      "byteOffset" : 1831320,
      "byteLength" : 2880
    },
    {
      "buffer" : 0,
      "byteOffset" : 1834200,
      "byteLength" : 720
    },
    {
      "buffer" : 0,
      "byteOffset" : 1834920,
      "byteLength" : 1440
    },
    {
      "buffer" : 0,
      "byteOffset" : 1836360,
      "byteLength" : 1440
    },
    {
      "buffer" : 0,
      "byteOffset" : 1837800,
      "byteLength" : 1440
    },
    {
      "buffer" : 0,
      "byteOffset" : 1839240,
      "byteLength" : 1440
    },
    {
      "buffer" : 0,
      "byteOffset" : 1840680,
      "byteLength" : 2160
    },
    {
      "buffer" : 0,
      "byteOffset" : 1842840,
      "byteLength" : 7344
    },
    {
      "buffer" : 0,
      "byteOffset" : 1850184,
      "byteLength" : 7344
    },
    {
      "buffer" : 0,
      "byteOffset" : 1857528,
      "byteLength" : 9792
    },
    {
      "buffer" : 0,
      "byteOffset" : 1867320,
      "byteLength" : 2448
    },
    {
      "buffer" : 0,
      "byteOffset" : 1869768,
      "byteLength" : 4896
    },
    {
      "buffer" : 0,
      "byteOffset" : 1874664,
      "byteLength" : 4896
    },
    {
      "buffer" : 0,
      "byteOffset" : 1879560,
      "byteLength" : 4896
    },
    {
      "buffer" : 0,
      "byteOffset" : 1884456,
      "byteLength" : 4896
    },
    {
      "buffer" : 0,
      "byteOffset" : 1889352,
      "byteLength" : 156
    },
    {
      "buffer" : 0,
      "byteOffset" : 1889508,
      "byteLength" : 504
    },
    {
      "buffer" : 0,
      "byteOffset" : 1890012,
      "byteLength" : 504
    },
    {
      "buffer" : 0,
      "byteOffset" : 1890516,
      "byteLength" : 672
    },
    {
      "buffer" : 0,
      "byteOffset" : 1891188,
      "byteLength" : 168
    },
    {
      "buffer" : 0,
      "byteOffset" : 1891356,
      "byteLength" : 336
    },
    {
      "buffer" : 0,
      "byteOffset" : 1891692,
      "byteLength" : 336
    },
    {
      "buffer" : 0,
      "byteOffset" : 1892028,
      "byteLength" : 336
    },
    {
      "buffer" : 0,
      "byteOffset" : 1892364,
      "byteLength" : 336
    },
    {
      "buffer" : 0,
      "byteOffset" : 1892700,
      "byteLength" : 960
    },
    {
      "buffer" : 0,
      "byteOffset" : 1893660,
      "byteLength" : 3840
    },
    {
      "buffer" : 0,
      "byteOffset" : 1897500,
      "byteLength" : 3840
    },
    {
      "buffer" : 0,
      "byteOffset" : 1901340,
      "byteLength" : 5120
    },
    {
      "buffer" : 0,
      "byteOffset" : 1906460,
      "byteLength" : 1280
    },
    {
      "buffer" : 0,
      "byteOffset" : 1907740,
      "byteLength" : 2560
    },
    {
      "buffer" : 0,
      "byteOffset" : 1910300,
      "byteLength" : 2560
    },
    {
      "buffer" : 0,
      "byteOffset" : 1912860,
      "byteLength" : 2560
    },
    {
      "buffer" : 0,
      "byteOffset" : 1915420,
      "byteLength" : 2560
    }
  ],
  "accessors" : [
    {
      "bufferView" : 0,
      "componentType" : 5123,
      "count" : 282,
      "type" : "SCALAR"
    },
    {
      "bufferView" : 1,
      "min" : [ -2.96935, 1.27821, -2.96935 ],
      "max" : [ 2.96936, 1.39211, 2.96936 ],
      "componentType" : 5126,
      "count" : 98,
      "type" : "VEC3"
    },
    {
      "bufferView" : 2,
      "componentType" : 5126,
      "count" : 98,
      "type" : "VEC3"
    },
    {
      "bufferView" : 3,
      "componentType" : 5126,
      "count" : 98,
      "type" : "VEC4"
    },
    {
      "bufferView" : 4,
      "normalized" : true,
      "componentType" : 5121,
      "count" : 98,
      "type" : "VEC4"
    },
    {
      "bufferView" : 5,
      "componentType" : 5126,
      "count" : 98,
      "type" : "VEC2"
    },
    {
      "bufferView" : 6,
      "componentType" : 5126,
      "count" : 98,
      "type" : "VEC2"
    },
    {
      "bufferView" : 7,
      "componentType" : 5126,
      "count" : 98,
      "type" : "VEC2"
    },
    {
      "bufferView" : 8,
      "componentType" : 5126,
      "count" : 98,
      "type" : "VEC2"
    },
    {
      "bufferView" : 9,
      "componentType" : 5123,
      "count" : 2829,
      "type" : "SCALAR"
    },
    {
      "bufferView" : 10,
      "min" : [ -7.42549, 0.487159, -7.42549 ],
      "max" : [ 7.4026, 8.97255, 7.42549 ],
      "componentType" : 5126,
      "count" : 1295,
      "type" : "VEC3"
    },
    {
      "bufferView" : 11,
      "componentType" : 5126,
      "count" : 1295,
      "type" : "VEC3"
    },
    {
      "bufferView" : 12,
      "componentType" : 5126,
      "count" : 1295,
      "type" : "VEC4"
    },
    {
      "bufferView" : 13,
      "normalized" : true,
      "componentType" : 5121,
      "count" : 1295,
      "type" : "VEC4"
    },
    {
      "bufferView" : 14,
      "componentType" : 5126,
      "count" : 1295,
      "type" : "VEC2"
    },
    {
      "bufferView" : 15,
      "componentType" : 5126,
      "count" : 1295,
      "type" : "VEC2"
    },
    {
      "bufferView" : 16,
      "componentType" : 5126,
      "count" : 1295,
      "type" : "VEC2"
    },
    {
      "bufferView" : 17,
      "componentType" : 5126,
      "count" : 1295,
      "type" : "VEC2"
    },
    {
      "bufferView" : 18,
      "componentType" : 5123,
      "count" : 51753,
      "type" : "SCALAR"
    },
    {
      "bufferView" : 19,
      "min" : [ -6.01946, 0.428763, -6.01946 ],
      "max" : [ 6.01946, 10.9415, 6.01946 ],
      "componentType" : 5126,
      "count" : 17473,
      "type" : "VEC3"
    },
    {
      "bufferView" : 20,
      "componentType" : 5126,
      "count" : 17473,
      "type" : "VEC3"
    },
    {
      "bufferView" : 21,
      "componentType" : 5126,
      "count" : 17473,
      "type" : "VEC4"
    },
    {
      "bufferView" : 22,
      "normalized" : true,
      "componentType" : 5121,
      "count" : 17473,
      "type" : "VEC4"
    },
    {
      "bufferView" : 23,
      "componentType" : 5126,
      "count" : 17473,
      "type" : "VEC2"
    },
    {
      "bufferView" : 24,
      "componentType" : 5126,
      "count" : 17473,
      "type" : "VEC2"
    },
    {
      "bufferView" : 25,
      "componentType" : 5126,
      "count" : 17473,
      "type" : "VEC2"
    },
    {
      "bufferView" : 26,
      "componentType" : 5126,
      "count" : 17473,
      "type" : "VEC2"
    },
    {
      "bufferView" : 27,
      "componentType" : 5123,
      "count" : 1425,
      "type" : "SCALAR"
    },
    {
      "bufferView" : 28,
      "min" : [ -2.55265, 1.37709, -2.55342 ],
      "max" : [ 2.56379, 4.55262, 2.57263 ],
      "componentType" : 5126,
      "count" : 493,
      "type" : "VEC3"
    },
    {
      "bufferView" : 29,
      "componentType" : 5126,
      "count" : 493,
      "type" : "VEC3"
    },
    {
      "bufferView" : 30,
      "componentType" : 5126,
      "count" : 493,
      "type" : "VEC4"
    },
    {
      "bufferView" : 31,
      "normalized" : true,
      "componentType" : 5121,
      "count" : 493,
      "type" : "VEC4"
    },
    {
      "bufferView" : 32,
      "componentType" : 5126,
      "count" : 493,
      "type" : "VEC2"
    },
    {
      "bufferView" : 33,
      "componentType" : 5126,
      "count" : 493,
      "type" : "VEC2"
    },
    {
      "bufferView" : 34,
      "componentType" : 5126,
      "count" : 493,
      "type" : "VEC2"
    },
    {
      "bufferView" : 35,
      "componentType" : 5126,
      "count" : 493,
      "type" : "VEC2"
    },
    {
      "bufferView" : 36,
      "componentType" : 5123,
      "count" : 3513,
      "type" : "SCALAR"
    },
    {
      "bufferView" : 37,
      "min" : [ -9.58688, -5.87274e-16, -9.59092 ],
      "max" : [ 9.58688, 9.02529, 9.59091 ],
      "componentType" : 5126,
      "count" : 1882,
      "type" : "VEC3"
    },
    {
      "bufferView" : 38,
      "componentType" : 5126,
      "count" : 1882,
      "type" : "VEC3"
    },
    {
      "bufferView" : 39,
      "componentType" : 5126,
      "count" : 1882,
      "type" : "VEC4"
    },
    {
      "bufferView" : 40,
      "normalized" : true,
      "componentType" : 5121,
      "count" : 1882,
      "type" : "VEC4"
    },
    {
      "bufferView" : 41,
      "componentType" : 5126,
      "count" : 1882,
      "type" : "VEC2"
    },
    {
      "bufferView" : 42,
      "componentType" : 5126,
      "count" : 1882,
      "type" : "VEC2"
    },
    {
      "bufferView" : 43,
      "componentType" : 5126,
      "count" : 1882,
      "type" : "VEC2"
    },
    {
      "bufferView" : 44,
      "componentType" : 5126,
      "count" : 1882,
      "type" : "VEC2"
    },
    {
      "bufferView" : 45,
      "componentType" : 5123,
      "count" : 4818,
      "type" : "SCALAR"
    },
    {
      "bufferView" : 46,
      "min" : [ -4.56417, 0.562305, -5.92378 ],
      "max" : [ 5.92341, 6.11664, 5.91157 ],
      "componentType" : 5126,
      "count" : 1083,
      "type" : "VEC3"
    },
    {
      "bufferView" : 47,
      "componentType" : 5126,
      "count" : 1083,
      "type" : "VEC3"
    },
    {
      "bufferView" : 48,
      "componentType" : 5126,
      "count" : 1083,
      "type" : "VEC4"
    },
    {
      "bufferView" : 49,
      "normalized" : true,
      "componentType" : 5121,
      "count" : 1083,
      "type" : "VEC4"
    },
    {
      "bufferView" : 50,
      "componentType" : 5126,
      "count" : 1083,
      "type" : "VEC2"
    },
    {
      "bufferView" : 51,
      "componentType" : 5126,
      "count" : 1083,
      "type" : "VEC2"
    },
    {
      "bufferView" : 52,
      "componentType" : 5126,
      "count" : 1083,
      "type" : "VEC2"
    },
    {
      "bufferView" : 53,
      "componentType" : 5126,
      "count" : 1083,
      "type" : "VEC2"
    },
    {
      "bufferView" : 54,
      "componentType" : 5123,
      "count" : 564,
      "type" : "SCALAR"
    },
    {
      "bufferView" : 55,
      "min" : [ -3.18321, 0.653063, -5.48152 ],
      "max" : [ 3.38132, 6.11408, 4.41898 ],
      "componentType" : 5126,
      "count" : 180,
      "type" : "VEC3"
    },
    {
      "bufferView" : 56,
      "componentType" : 5126,
      "count" : 180,
      "type" : "VEC3"
    },
    {
      "bufferView" : 57,
      "componentType" : 5126,
      "count" : 180,
      "type" : "VEC4"
    },
    {
      "bufferView" : 58,
      "normalized" : true,
      "componentType" : 5121,
      "count" : 180,
      "type" : "VEC4"
    },
    {
      "bufferView" : 59,
      "componentType" : 5126,
      "count" : 180,
      "type" : "VEC2"
    },
    {
      "bufferView" : 60,
      "componentType" : 5126,
      "count" : 180,
      "type" : "VEC2"
    },
    {
      "bufferView" : 61,
      "componentType" : 5126,
      "count" : 180,
      "type" : "VEC2"
    },
    {
      "bufferView" : 62,
      "componentType" : 5126,
      "count" : 180,
      "type" : "VEC2"
    },
    {
      "bufferView" : 63,
      "componentType" : 5123,
      "count" : 1080,
      "type" : "SCALAR"
    },
    {
      "bufferView" : 64,
      "min" : [ -4.58375, 1.02697, -2.31309 ],
      "max" : [ 4.5, 5.51689, 4.59639 ],
      "componentType" : 5126,
      "count" : 612,
      "type" : "VEC3"
    },
    {
      "bufferView" : 65,
      "componentType" : 5126,
      "count" : 612,
      "type" : "VEC3"
    },
    {
      "bufferView" : 66,
      "componentType" : 5126,
      "count" : 612,
      "type" : "VEC4"
    },
    {
      "bufferView" : 67,
      "normalized" : true,
      "componentType" : 5121,
      "count" : 612,
      "type" : "VEC4"
    },
    {
      "bufferView" : 68,
      "componentType" : 5126,
      "count" : 612,
      "type" : "VEC2"
    },
    {
      "bufferView" : 69,
      "componentType" : 5126,
      "count" : 612,
      "type" : "VEC2"
    },
    {
      "bufferView" : 70,
      "componentType" : 5126,
      "count" : 612,
      "type" : "VEC2"
    },
    {
      "bufferView" : 71,
      "componentType" : 5126,
      "count" : 612,
      "type" : "VEC2"
    },
    {
      "bufferView" : 72,
      "componentType" : 5123,
      "count" : 78,
      "type" : "SCALAR"
    },
    {
      "bufferView" : 73,
      "min" : [ -1.99996, 2.42161, -1.94702 ],
      "max" : [ 2.01165, 3.79676, 1.97505 ],
      "componentType" : 5126,
      "count" : 42,
      "type" : "VEC3"
    },
    {
      "bufferView" : 74,
      "componentType" : 5126,
      "count" : 42,
      "type" : "VEC3"
    },
    {
      "bufferView" : 75,
      "componentType" : 5126,
      "count" : 42,
      "type" : "VEC4"
    },
    {
      "bufferView" : 76,
      "normalized" : true,
      "componentType" : 5121,
      "count" : 42,
      "type" : "VEC4"
    },
    {
      "bufferView" : 77,
      "componentType" : 5126,
      "count" : 42,
      "type" : "VEC2"
    },
    {
      "bufferView" : 78,
      "componentType" : 5126,
      "count" : 42,
      "type" : "VEC2"
    },
    {
      "bufferView" : 79,
      "componentType" : 5126,
      "count" : 42,
      "type" : "VEC2"
    },
    {
      "bufferView" : 80,
      "componentType" : 5126,
      "count" : 42,
      "type" : "VEC2"
    },
    {
      "bufferView" : 81,
      "componentType" : 5123,
      "count" : 480,
      "type" : "SCALAR"
    },
    {
      "bufferView" : 82,
      "min" : [ -9.28526, 0.332361, -9.28527 ],
      "max" : [ 9.28526, 0.332361, 9.28526 ],
      "componentType" : 5126,
      "count" : 320,
      "type" : "VEC3"
    },
    {
      "bufferView" : 83,
      "componentType" : 5126,
      "count" : 320,
      "type" : "VEC3"
    },
    {
      "bufferView" : 84,
      "componentType" : 5126,
      "count" : 320,
      "type" : "VEC4"
    },
    {
      "bufferView" : 85,
      "normalized" : true,
      "componentType" : 5121,
      "count" : 320,
      "type" : "VEC4"
    },
    {
      "bufferView" : 86,
      "componentType" : 5126,
      "count" : 320,
      "type" : "VEC2"
    },
    {
      "bufferView" : 87,
      "componentType" : 5126,
      "count" : 320,
      "type" : "VEC2"
    },
    {
      "bufferView" : 88,
      "componentType" : 5126,
      "count" : 320,
      "type" : "VEC2"
    },
    {
      "bufferView" : 89,
      "componentType" : 5126,
      "count" : 320,
      "type" : "VEC2"
    }
  ]
}
