{
  "asset" : {
    "generator" : "UE Viewer (umodel) build 1544 based",
    "version" : "2.0"
  },
  "scene" : 0,
  "scenes" : [
    {
      "nodes" : [ 0 ]
    }
  ],
  "nodes" : [
    {
      "name" : "SM_ENV_LKNVLD_Fence_Small_Lod3",
      "mesh" : 0
    }
  ],
  "materials" : [
    {
      "name" : "MI_ENV_LKNVLD_Fence_A_LOD",
      "pbrMetallicRoughness" : {
        "baseColorFactor" : [ 0.3, 0.3, 0.3, 1.0 ],
        "metallicFactor" : 0.1,
        "roughnessFactor" : 0.5
      }
    }
  ],
  "meshes" : [
    {
      "primitives" : [
        {
          "attributes" : {
            "POSITION" : 1,
            "NORMAL" : 2,
            "TANGENT" : 3,
            "TEXCOORD_0" : 4,
            "TEXCOORD_1" : 5,
            "TEXCOORD_2" : 6,
            "TEXCOORD_3" : 7
          },
          "indices" : 0,
          "material" : 0
        }
      ],
      "name" : "SM_ENV_LKNVLD_Fence_Small_Lod3"
    }
  ],
  "buffers" : [
    {
      "uri" : "SM_ENV_LKNVLD_Fence_Small_Lod3.bin",
      "byteLength" : 48152
    }
  ],
  "bufferViews" : [
    {
      "buffer" : 0,
      "byteOffset" : 0,
      "byteLength" : 2360
    },
    {
      "buffer" : 0,
      "byteOffset" : 2360,
      "byteLength" : 7632
    },
    {
      "buffer" : 0,
      "byteOffset" : 9992,
      "byteLength" : 7632
    },
    {
      "buffer" : 0,
      "byteOffset" : 17624,
      "byteLength" : 10176
    },
    {
      "buffer" : 0,
      "byteOffset" : 27800,
      "byteLength" : 5088
    },
    {
      "buffer" : 0,
      "byteOffset" : 32888,
      "byteLength" : 5088
    },
    {
      "buffer" : 0,
      "byteOffset" : 37976,
      "byteLength" : 5088
    },
    {
      "buffer" : 0,
      "byteOffset" : 43064,
      "byteLength" : 5088
    }
  ],
  "accessors" : [
    {
      "bufferView" : 0,
      "componentType" : 5123,
      "count" : 1179,
      "type" : "SCALAR"
    },
    {
      "bufferView" : 1,
      "min" : [ -1.35085, 0, -0.675356 ],
      "max" : [ 1.35085, 1.98497, 0.675356 ],
      "componentType" : 5126,
      "count" : 636,
      "type" : "VEC3"
    },
    {
      "bufferView" : 2,
      "componentType" : 5126,
      "count" : 636,
      "type" : "VEC3"
    },
    {
      "bufferView" : 3,
      "componentType" : 5126,
      "count" : 636,
      "type" : "VEC4"
    },
    {
      "bufferView" : 4,
      "componentType" : 5126,
      "count" : 636,
      "type" : "VEC2"
    },
    {
      "bufferView" : 5,
      "componentType" : 5126,
      "count" : 636,
      "type" : "VEC2"
    },
    {
      "bufferView" : 6,
      "componentType" : 5126,
      "count" : 636,
      "type" : "VEC2"
    },
    {
      "bufferView" : 7,
      "componentType" : 5126,
      "count" : 636,
      "type" : "VEC2"
    }
  ]
}
