{
  "asset" : {
    "generator" : "UE Viewer (umodel) build 1544 based",
    "version" : "2.0"
  },
  "scene" : 0,
  "scenes" : [
    {
      "nodes" : [ 0 ]
    }
  ],
  "nodes" : [
    {
      "name" : "SM_ENV_LKNVLD_WallSet_Straight_Lod3",
      "mesh" : 0
    }
  ],
  "materials" : [
    {
      "name" : "MI_ENV_LKNVLD_WoodPlain_Red_LOD",
      "pbrMetallicRoughness" : {
        "baseColorFactor" : [ 0.3, 0.3, 0.3, 1.0 ],
        "metallicFactor" : 0.1,
        "roughnessFactor" : 0.5
      }
    },
    {
      "name" : "MI_ENV_LKNVLD_WoodWallSet_LOD",
      "pbrMetallicRoughness" : {
        "baseColorFactor" : [ 0.9, 0.3, 0.3, 1.0 ],
        "metallicFactor" : 0.1,
        "roughnessFactor" : 0.5
      }
    },
    {
      "name" : "MI_ENV_LKNVLD_Signboard_A",
      "pbrMetallicRoughness" : {
        "baseColorFactor" : [ 0.3, 0.9, 0.3, 1.0 ],
        "metallicFactor" : 0.1,
        "roughnessFactor" : 0.5
      }
    },
    {
      "name" : "MI_ENV_LKNVLD_Eaves_B_LOD",
      "pbrMetallicRoughness" : {
        "baseColorFactor" : [ 0.3, 0.3, 0.9, 1.0 ],
        "metallicFactor" : 0.1,
        "roughnessFactor" : 0.5
      }
    },
    {
      "name" : "MI_ENV_LKNVLD_StoneTrim_Ground_LOD",
      "pbrMetallicRoughness" : {
        "baseColorFactor" : [ 0.9, 0.9, 0.9, 1.0 ],
        "metallicFactor" : 0.1,
        "roughnessFactor" : 0.5
      }
    },
    {
      "name" : "MI_ENV_LKNVLD_WoodBoard_Natural_Lighter_LOD",
      "pbrMetallicRoughness" : {
        "baseColorFactor" : [ 0.9, 0.9, 0.3, 1.0 ],
        "metallicFactor" : 0.1,
        "roughnessFactor" : 0.5
      }
    }
  ],
  "meshes" : [
    {
      "primitives" : [
        {
          "attributes" : {
            "POSITION" : 1,
            "NORMAL" : 2,
            "TANGENT" : 3,
            "TEXCOORD_0" : 4,
            "TEXCOORD_1" : 5,
            "TEXCOORD_2" : 6,
            "TEXCOORD_3" : 7
          },
          "indices" : 0,
          "material" : 0
        },
        {
          "attributes" : {
            "POSITION" : 9,
            "NORMAL" : 10,
            "TANGENT" : 11,
            "TEXCOORD_0" : 12,
            "TEXCOORD_1" : 13,
            "TEXCOORD_2" : 14,
            "TEXCOORD_3" : 15
          },
          "indices" : 8,
          "material" : 1
        },
        {
          "attributes" : {
            "POSITION" : 17,
            "NORMAL" : 18,
            "TANGENT" : 19,
            "TEXCOORD_0" : 20,
            "TEXCOORD_1" : 21,
            "TEXCOORD_2" : 22,
            "TEXCOORD_3" : 23
          },
          "indices" : 16,
          "material" : 2
        },
        {
          "attributes" : {
            "POSITION" : 25,
            "NORMAL" : 26,
            "TANGENT" : 27,
            "TEXCOORD_0" : 28,
            "TEXCOORD_1" : 29,
            "TEXCOORD_2" : 30,
            "TEXCOORD_3" : 31
          },
          "indices" : 24,
          "material" : 3
        },
        {
          "attributes" : {
            "POSITION" : 33,
            "NORMAL" : 34,
            "TANGENT" : 35,
            "TEXCOORD_0" : 36,
            "TEXCOORD_1" : 37,
            "TEXCOORD_2" : 38,
            "TEXCOORD_3" : 39
          },
          "indices" : 32,
          "material" : 4
        },
        {
          "attributes" : {
            "POSITION" : 41,
            "NORMAL" : 42,
            "TANGENT" : 43,
            "TEXCOORD_0" : 44,
            "TEXCOORD_1" : 45,
            "TEXCOORD_2" : 46,
            "TEXCOORD_3" : 47
          },
          "indices" : 40,
          "material" : 5
        }
      ],
      "name" : "SM_ENV_LKNVLD_WallSet_Straight_Lod3"
    }
  ],
  "buffers" : [
    {
      "uri" : "SM_ENV_LKNVLD_WallSet_Straight_Lod3.bin",
      "byteLength" : 248416
    }
  ],
  "bufferViews" : [
    {
      "buffer" : 0,
      "byteOffset" : 0,
      "byteLength" : 7064
    },
    {
      "buffer" : 0,
      "byteOffset" : 7064,
      "byteLength" : 27960
    },
    {
      "buffer" : 0,
      "byteOffset" : 35024,
      "byteLength" : 27960
    },
    {
      "buffer" : 0,
      "byteOffset" : 62984,
      "byteLength" : 37280
    },
    {
      "buffer" : 0,
      "byteOffset" : 100264,
      "byteLength" : 18640
    },
    {
      "buffer" : 0,
      "byteOffset" : 118904,
      "byteLength" : 18640
    },
    {
      "buffer" : 0,
      "byteOffset" : 137544,
      "byteLength" : 18640
    },
    {
      "buffer" : 0,
      "byteOffset" : 156184,
      "byteLength" : 18640
    },
    {
      "buffer" : 0,
      "byteOffset" : 174824,
      "byteLength" : 840
    },
    {
      "buffer" : 0,
      "byteOffset" : 175664,
      "byteLength" : 3264
    },
    {
      "buffer" : 0,
      "byteOffset" : 178928,
      "byteLength" : 3264
    },
    {
      "buffer" : 0,
      "byteOffset" : 182192,
      "byteLength" : 4352
    },
    {
      "buffer" : 0,
      "byteOffset" : 186544,
      "byteLength" : 2176
    },
    {
      "buffer" : 0,
      "byteOffset" : 188720,
      "byteLength" : 2176
    },
    {
      "buffer" : 0,
      "byteOffset" : 190896,
      "byteLength" : 2176
    },
    {
      "buffer" : 0,
      "byteOffset" : 193072,
      "byteLength" : 2176
    },
    {
      "buffer" : 0,
      "byteOffset" : 195248,
      "byteLength" : 1404
    },
    {
      "buffer" : 0,
      "byteOffset" : 196652,
      "byteLength" : 5064
    },
    {
      "buffer" : 0,
      "byteOffset" : 201716,
      "byteLength" : 5064
    },
    {
      "buffer" : 0,
      "byteOffset" : 206780,
      "byteLength" : 6752
    },
    {
      "buffer" : 0,
      "byteOffset" : 213532,
      "byteLength" : 3376
    },
    {
      "buffer" : 0,
      "byteOffset" : 216908,
      "byteLength" : 3376
    },
    {
      "buffer" : 0,
      "byteOffset" : 220284,
      "byteLength" : 3376
    },
    {
      "buffer" : 0,
      "byteOffset" : 223660,
      "byteLength" : 3376
    },
    {
      "buffer" : 0,
      "byteOffset" : 227036,
      "byteLength" : 756
    },
    {
      "buffer" : 0,
      "byteOffset" : 227792,
      "byteLength" : 2640
    },
    {
      "buffer" : 0,
      "byteOffset" : 230432,
      "byteLength" : 2640
    },
    {
      "buffer" : 0,
      "byteOffset" : 233072,
      "byteLength" : 3520
    },
    {
      "buffer" : 0,
      "byteOffset" : 236592,
      "byteLength" : 1760
    },
    {
      "buffer" : 0,
      "byteOffset" : 238352,
      "byteLength" : 1760
    },
    {
      "buffer" : 0,
      "byteOffset" : 240112,
      "byteLength" : 1760
    },
    {
      "buffer" : 0,
      "byteOffset" : 241872,
      "byteLength" : 1760
    },
    {
      "buffer" : 0,
      "byteOffset" : 243632,
      "byteLength" : 236
    },
    {
      "buffer" : 0,
      "byteOffset" : 243868,
      "byteLength" : 708
    },
    {
      "buffer" : 0,
      "byteOffset" : 244576,
      "byteLength" : 708
    },
    {
      "buffer" : 0,
      "byteOffset" : 245284,
      "byteLength" : 944
    },
    {
      "buffer" : 0,
      "byteOffset" : 246228,
      "byteLength" : 472
    },
    {
      "buffer" : 0,
      "byteOffset" : 246700,
      "byteLength" : 472
    },
    {
      "buffer" : 0,
      "byteOffset" : 247172,
      "byteLength" : 472
    },
    {
      "buffer" : 0,
      "byteOffset" : 247644,
      "byteLength" : 472
    },
    {
      "buffer" : 0,
      "byteOffset" : 248116,
      "byteLength" : 12
    },
    {
      "buffer" : 0,
      "byteOffset" : 248128,
      "byteLength" : 48
    },
    {
      "buffer" : 0,
      "byteOffset" : 248176,
      "byteLength" : 48
    },
    {
      "buffer" : 0,
      "byteOffset" : 248224,
      "byteLength" : 64
    },
    {
      "buffer" : 0,
      "byteOffset" : 248288,
      "byteLength" : 32
    },
    {
      "buffer" : 0,
      "byteOffset" : 248320,
      "byteLength" : 32
    },
    {
      "buffer" : 0,
      "byteOffset" : 248352,
      "byteLength" : 32
    },
    {
      "buffer" : 0,
      "byteOffset" : 248384,
      "byteLength" : 32
    }
  ],
  "accessors" : [
    {
      "bufferView" : 0,
      "componentType" : 5123,
      "count" : 3531,
      "type" : "SCALAR"
    },
    {
      "bufferView" : 1,
      "min" : [ -2.7918, 0.699998, -0.305942 ],
      "max" : [ 2.7918, 7.57616, 29.5681 ],
      "componentType" : 5126,
      "count" : 2330,
      "type" : "VEC3"
    },
    {
      "bufferView" : 2,
      "componentType" : 5126,
      "count" : 2330,
      "type" : "VEC3"
    },
    {
      "bufferView" : 3,
      "componentType" : 5126,
      "count" : 2330,
      "type" : "VEC4"
    },
    {
      "bufferView" : 4,
      "componentType" : 5126,
      "count" : 2330,
      "type" : "VEC2"
    },
    {
      "bufferView" : 5,
      "componentType" : 5126,
      "count" : 2330,
      "type" : "VEC2"
    },
    {
      "bufferView" : 6,
      "componentType" : 5126,
      "count" : 2330,
      "type" : "VEC2"
    },
    {
      "bufferView" : 7,
      "componentType" : 5126,
      "count" : 2330,
      "type" : "VEC2"
    },
    {
      "bufferView" : 8,
      "componentType" : 5123,
      "count" : 420,
      "type" : "SCALAR"
    },
    {
      "bufferView" : 9,
      "min" : [ -2.1695, 0.299998, -0.297339 ],
      "max" : [ 2.74468, 6.17616, 29.527 ],
      "componentType" : 5126,
      "count" : 272,
      "type" : "VEC3"
    },
    {
      "bufferView" : 10,
      "componentType" : 5126,
      "count" : 272,
      "type" : "VEC3"
    },
    {
      "bufferView" : 11,
      "componentType" : 5126,
      "count" : 272,
      "type" : "VEC4"
    },
    {
      "bufferView" : 12,
      "componentType" : 5126,
      "count" : 272,
      "type" : "VEC2"
    },
    {
      "bufferView" : 13,
      "componentType" : 5126,
      "count" : 272,
      "type" : "VEC2"
    },
    {
      "bufferView" : 14,
      "componentType" : 5126,
      "count" : 272,
      "type" : "VEC2"
    },
    {
      "bufferView" : 15,
      "componentType" : 5126,
      "count" : 272,
      "type" : "VEC2"
    },
    {
      "bufferView" : 16,
      "componentType" : 5123,
      "count" : 702,
      "type" : "SCALAR"
    },
    {
      "bufferView" : 17,
      "min" : [ -2.7918, 4.8, -0.220522 ],
      "max" : [ 2.7652, 8.09616, 26.335 ],
      "componentType" : 5126,
      "count" : 422,
      "type" : "VEC3"
    },
    {
      "bufferView" : 18,
      "componentType" : 5126,
      "count" : 422,
      "type" : "VEC3"
    },
    {
      "bufferView" : 19,
      "componentType" : 5126,
      "count" : 422,
      "type" : "VEC4"
    },
    {
      "bufferView" : 20,
      "componentType" : 5126,
      "count" : 422,
      "type" : "VEC2"
    },
    {
      "bufferView" : 21,
      "componentType" : 5126,
      "count" : 422,
      "type" : "VEC2"
    },
    {
      "bufferView" : 22,
      "componentType" : 5126,
      "count" : 422,
      "type" : "VEC2"
    },
    {
      "bufferView" : 23,
      "componentType" : 5126,
      "count" : 422,
      "type" : "VEC2"
    },
    {
      "bufferView" : 24,
      "componentType" : 5123,
      "count" : 378,
      "type" : "SCALAR"
    },
    {
      "bufferView" : 25,
      "min" : [ -2.7918, 5.07002, -0.147715 ],
      "max" : [ -1.8543, 5.6, 26.335 ],
      "componentType" : 5126,
      "count" : 220,
      "type" : "VEC3"
    },
    {
      "bufferView" : 26,
      "componentType" : 5126,
      "count" : 220,
      "type" : "VEC3"
    },
    {
      "bufferView" : 27,
      "componentType" : 5126,
      "count" : 220,
      "type" : "VEC4"
    },
    {
      "bufferView" : 28,
      "componentType" : 5126,
      "count" : 220,
      "type" : "VEC2"
    },
    {
      "bufferView" : 29,
      "componentType" : 5126,
      "count" : 220,
      "type" : "VEC2"
    },
    {
      "bufferView" : 30,
      "componentType" : 5126,
      "count" : 220,
      "type" : "VEC2"
    },
    {
      "bufferView" : 31,
      "componentType" : 5126,
      "count" : 220,
      "type" : "VEC2"
    },
    {
      "bufferView" : 32,
      "componentType" : 5123,
      "count" : 117,
      "type" : "SCALAR"
    },
    {
      "bufferView" : 33,
      "min" : [ -1.98747, -0.234174, -0.297339 ],
      "max" : [ -1.70946, 0.300001, 29.527 ],
      "componentType" : 5126,
      "count" : 59,
      "type" : "VEC3"
    },
    {
      "bufferView" : 34,
      "componentType" : 5126,
      "count" : 59,
      "type" : "VEC3"
    },
    {
      "bufferView" : 35,
      "componentType" : 5126,
      "count" : 59,
      "type" : "VEC4"
    },
    {
      "bufferView" : 36,
      "componentType" : 5126,
      "count" : 59,
      "type" : "VEC2"
    },
    {
      "bufferView" : 37,
      "componentType" : 5126,
      "count" : 59,
      "type" : "VEC2"
    },
    {
      "bufferView" : 38,
      "componentType" : 5126,
      "count" : 59,
      "type" : "VEC2"
    },
    {
      "bufferView" : 39,
      "componentType" : 5126,
      "count" : 59,
      "type" : "VEC2"
    },
    {
      "bufferView" : 40,
      "componentType" : 5123,
      "count" : 6,
      "type" : "SCALAR"
    },
    {
      "bufferView" : 41,
      "min" : [ -1.70822, 5.97741, 0.00458984 ],
      "max" : [ 2.29178, 5.97741, 29.5369 ],
      "componentType" : 5126,
      "count" : 4,
      "type" : "VEC3"
    },
    {
      "bufferView" : 42,
      "componentType" : 5126,
      "count" : 4,
      "type" : "VEC3"
    },
    {
      "bufferView" : 43,
      "componentType" : 5126,
      "count" : 4,
      "type" : "VEC4"
    },
    {
      "bufferView" : 44,
      "componentType" : 5126,
      "count" : 4,
      "type" : "VEC2"
    },
    {
      "bufferView" : 45,
      "componentType" : 5126,
      "count" : 4,
      "type" : "VEC2"
    },
    {
      "bufferView" : 46,
      "componentType" : 5126,
      "count" : 4,
      "type" : "VEC2"
    },
    {
      "bufferView" : 47,
      "componentType" : 5126,
      "count" : 4,
      "type" : "VEC2"
    }
  ]
}
