{
  "asset" : {
    "generator" : "UE Viewer (umodel) build 1544 based",
    "version" : "2.0"
  },
  "scene" : 0,
  "scenes" : [
    {
      "nodes" : [ 0 ]
    }
  ],
  "nodes" : [
    {
      "name" : "SM_ENV_LKNVLD_Stall_G",
      "mesh" : 0
    }
  ],
  "materials" : [
    {
      "name" : "MI_ENV_LKNVLD_Roof_Aa",
      "pbrMetallicRoughness" : {
        "baseColorFactor" : [ 0.3, 0.3, 0.3, 1.0 ],
        "metallicFactor" : 0.1,
        "roughnessFactor" : 0.5
      }
    },
    {
      "name" : "MI_ENV_LKNVLD_Stall_I",
      "pbrMetallicRoughness" : {
        "baseColorFactor" : [ 0.9, 0.3, 0.3, 1.0 ],
        "metallicFactor" : 0.1,
        "roughnessFactor" : 0.5
      }
    },
    {
      "name" : "MI_ENV_LKNVLD_Stall_03",
      "pbrMetallicRoughness" : {
        "baseColorFactor" : [ 0.3, 0.9, 0.3, 1.0 ],
        "metallicFactor" : 0.1,
        "roughnessFactor" : 0.5
      }
    },
    {
      "name" : "MI_ENV_LKNVLD_PaperLantern_03",
      "pbrMetallicRoughness" : {
        "baseColorFactor" : [ 0.3, 0.3, 0.9, 1.0 ],
        "metallicFactor" : 0.1,
        "roughnessFactor" : 0.5
      }
    },
    {
      "name" : "MI_ENV_LKNVLD_Bottle_01",
      "pbrMetallicRoughness" : {
        "baseColorFactor" : [ 0.9, 0.9, 0.9, 1.0 ],
        "metallicFactor" : 0.1,
        "roughnessFactor" : 0.5
      }
    }
  ],
  "meshes" : [
    {
      "primitives" : [
        {
          "attributes" : {
            "POSITION" : 1,
            "NORMAL" : 2,
            "TANGENT" : 3,
            "COLOR_0" : 4,
            "TEXCOORD_0" : 5,
            "TEXCOORD_1" : 6,
            "TEXCOORD_2" : 7,
            "TEXCOORD_3" : 8
          },
          "indices" : 0,
          "material" : 0
        },
        {
          "attributes" : {
            "POSITION" : 10,
            "NORMAL" : 11,
            "TANGENT" : 12,
            "COLOR_0" : 13,
            "TEXCOORD_0" : 14,
            "TEXCOORD_1" : 15,
            "TEXCOORD_2" : 16,
            "TEXCOORD_3" : 17
          },
          "indices" : 9,
          "material" : 1
        },
        {
          "attributes" : {
            "POSITION" : 19,
            "NORMAL" : 20,
            "TANGENT" : 21,
            "COLOR_0" : 22,
            "TEXCOORD_0" : 23,
            "TEXCOORD_1" : 24,
            "TEXCOORD_2" : 25,
            "TEXCOORD_3" : 26
          },
          "indices" : 18,
          "material" : 2
        },
        {
          "attributes" : {
            "POSITION" : 28,
            "NORMAL" : 29,
            "TANGENT" : 30,
            "COLOR_0" : 31,
            "TEXCOORD_0" : 32,
            "TEXCOORD_1" : 33,
            "TEXCOORD_2" : 34,
            "TEXCOORD_3" : 35
          },
          "indices" : 27,
          "material" : 3
        },
        {
          "attributes" : {
            "POSITION" : 37,
            "NORMAL" : 38,
            "TANGENT" : 39,
            "COLOR_0" : 40,
            "TEXCOORD_0" : 41,
            "TEXCOORD_1" : 42,
            "TEXCOORD_2" : 43,
            "TEXCOORD_3" : 44
          },
          "indices" : 36,
          "material" : 4
        }
      ],
      "name" : "SM_ENV_LKNVLD_Stall_G"
    }
  ],
  "buffers" : [
    {
      "uri" : "SM_ENV_LKNVLD_Stall_G.bin",
      "byteLength" : 1349264
    }
  ],
  "bufferViews" : [
    {
      "buffer" : 0,
      "byteOffset" : 0,
      "byteLength" : 720
    },
    {
      "buffer" : 0,
      "byteOffset" : 720,
      "byteLength" : 3072
    },
    {
      "buffer" : 0,
      "byteOffset" : 3792,
      "byteLength" : 3072
    },
    {
      "buffer" : 0,
      "byteOffset" : 6864,
      "byteLength" : 4096
    },
    {
      "buffer" : 0,
      "byteOffset" : 10960,
      "byteLength" : 1024
    },
    {
      "buffer" : 0,
      "byteOffset" : 11984,
      "byteLength" : 2048
    },
    {
      "buffer" : 0,
      "byteOffset" : 14032,
      "byteLength" : 2048
    },
    {
      "buffer" : 0,
      "byteOffset" : 16080,
      "byteLength" : 2048
    },
    {
      "buffer" : 0,
      "byteOffset" : 18128,
      "byteLength" : 2048
    },
    {
      "buffer" : 0,
      "byteOffset" : 20176,
      "byteLength" : 35720
    },
    {
      "buffer" : 0,
      "byteOffset" : 55896,
      "byteLength" : 90996
    },
    {
      "buffer" : 0,
      "byteOffset" : 146892,
      "byteLength" : 90996
    },
    {
      "buffer" : 0,
      "byteOffset" : 237888,
      "byteLength" : 121328
    },
    {
      "buffer" : 0,
      "byteOffset" : 359216,
      "byteLength" : 30332
    },
    {
      "buffer" : 0,
      "byteOffset" : 389548,
      "byteLength" : 60664
    },
    {
      "buffer" : 0,
      "byteOffset" : 450212,
      "byteLength" : 60664
    },
    {
      "buffer" : 0,
      "byteOffset" : 510876,
      "byteLength" : 60664
    },
    {
      "buffer" : 0,
      "byteOffset" : 571540,
      "byteLength" : 60664
    },
    {
      "buffer" : 0,
      "byteOffset" : 632204,
      "byteLength" : 39384
    },
    {
      "buffer" : 0,
      "byteOffset" : 671588,
      "byteLength" : 88644
    },
    {
      "buffer" : 0,
      "byteOffset" : 760232,
      "byteLength" : 88644
    },
    {
      "buffer" : 0,
      "byteOffset" : 848876,
      "byteLength" : 118192
    },
    {
      "buffer" : 0,
      "byteOffset" : 967068,
      "byteLength" : 29548
    },
    {
      "buffer" : 0,
      "byteOffset" : 996616,
      "byteLength" : 59096
    },
    {
      "buffer" : 0,
      "byteOffset" : 1055712,
      "byteLength" : 59096
    },
    {
      "buffer" : 0,
      "byteOffset" : 1114808,
      "byteLength" : 59096
    },
    {
      "buffer" : 0,
      "byteOffset" : 1173904,
      "byteLength" : 59096
    },
    {
      "buffer" : 0,
      "byteOffset" : 1233000,
      "byteLength" : 2688
    },
    {
      "buffer" : 0,
      "byteOffset" : 1235688,
      "byteLength" : 4056
    },
    {
      "buffer" : 0,
      "byteOffset" : 1239744,
      "byteLength" : 4056
    },
    {
      "buffer" : 0,
      "byteOffset" : 1243800,
      "byteLength" : 5408
    },
    {
      "buffer" : 0,
      "byteOffset" : 1249208,
      "byteLength" : 1352
    },
    {
      "buffer" : 0,
      "byteOffset" : 1250560,
      "byteLength" : 2704
    },
    {
      "buffer" : 0,
      "byteOffset" : 1253264,
      "byteLength" : 2704
    },
    {
      "buffer" : 0,
      "byteOffset" : 1255968,
      "byteLength" : 2704
    },
    {
      "buffer" : 0,
      "byteOffset" : 1258672,
      "byteLength" : 2704
    },
    {
      "buffer" : 0,
      "byteOffset" : 1261376,
      "byteLength" : 6264
    },
    {
      "buffer" : 0,
      "byteOffset" : 1267640,
      "byteLength" : 12888
    },
    {
      "buffer" : 0,
      "byteOffset" : 1280528,
      "byteLength" : 12888
    },
    {
      "buffer" : 0,
      "byteOffset" : 1293416,
      "byteLength" : 17184
    },
    {
      "buffer" : 0,
      "byteOffset" : 1310600,
      "byteLength" : 4296
    },
    {
      "buffer" : 0,
      "byteOffset" : 1314896,
      "byteLength" : 8592
    },
    {
      "buffer" : 0,
      "byteOffset" : 1323488,
      "byteLength" : 8592
    },
    {
      "buffer" : 0,
      "byteOffset" : 1332080,
      "byteLength" : 8592
    },
    {
      "buffer" : 0,
      "byteOffset" : 1340672,
      "byteLength" : 8592
    }
  ],
  "accessors" : [
    {
      "bufferView" : 0,
      "componentType" : 5123,
      "count" : 360,
      "type" : "SCALAR"
    },
    {
      "bufferView" : 1,
      "min" : [ -2.97773, 2.56678, -0.903732 ],
      "max" : [ 2.96188, 3.5569, 2.79653 ],
      "componentType" : 5126,
      "count" : 256,
      "type" : "VEC3"
    },
    {
      "bufferView" : 2,
      "componentType" : 5126,
      "count" : 256,
      "type" : "VEC3"
    },
    {
      "bufferView" : 3,
      "componentType" : 5126,
      "count" : 256,
      "type" : "VEC4"
    },
    {
      "bufferView" : 4,
      "normalized" : true,
      "componentType" : 5121,
      "count" : 256,
      "type" : "VEC4"
    },
    {
      "bufferView" : 5,
      "componentType" : 5126,
      "count" : 256,
      "type" : "VEC2"
    },
    {
      "bufferView" : 6,
      "componentType" : 5126,
      "count" : 256,
      "type" : "VEC2"
    },
    {
      "bufferView" : 7,
      "componentType" : 5126,
      "count" : 256,
      "type" : "VEC2"
    },
    {
      "bufferView" : 8,
      "componentType" : 5126,
      "count" : 256,
      "type" : "VEC2"
    },
    {
      "bufferView" : 9,
      "componentType" : 5123,
      "count" : 17859,
      "type" : "SCALAR"
    },
    {
      "bufferView" : 10,
      "min" : [ -2.96444, -0.0803492, -1.25219 ],
      "max" : [ 2.95128, 3.80666, 2.7919 ],
      "componentType" : 5126,
      "count" : 7583,
      "type" : "VEC3"
    },
    {
      "bufferView" : 11,
      "componentType" : 5126,
      "count" : 7583,
      "type" : "VEC3"
    },
    {
      "bufferView" : 12,
      "componentType" : 5126,
      "count" : 7583,
      "type" : "VEC4"
    },
    {
      "bufferView" : 13,
      "normalized" : true,
      "componentType" : 5121,
      "count" : 7583,
      "type" : "VEC4"
    },
    {
      "bufferView" : 14,
      "componentType" : 5126,
      "count" : 7583,
      "type" : "VEC2"
    },
    {
      "bufferView" : 15,
      "componentType" : 5126,
      "count" : 7583,
      "type" : "VEC2"
    },
    {
      "bufferView" : 16,
      "componentType" : 5126,
      "count" : 7583,
      "type" : "VEC2"
    },
    {
      "bufferView" : 17,
      "componentType" : 5126,
      "count" : 7583,
      "type" : "VEC2"
    },
    {
      "bufferView" : 18,
      "componentType" : 5123,
      "count" : 19692,
      "type" : "SCALAR"
    },
    {
      "bufferView" : 19,
      "min" : [ -2.85603, 0.184859, -0.633272 ],
      "max" : [ 2.83944, 3.05847, 2.81257 ],
      "componentType" : 5126,
      "count" : 7387,
      "type" : "VEC3"
    },
    {
      "bufferView" : 20,
      "componentType" : 5126,
      "count" : 7387,
      "type" : "VEC3"
    },
    {
      "bufferView" : 21,
      "componentType" : 5126,
      "count" : 7387,
      "type" : "VEC4"
    },
    {
      "bufferView" : 22,
      "normalized" : true,
      "componentType" : 5121,
      "count" : 7387,
      "type" : "VEC4"
    },
    {
      "bufferView" : 23,
      "componentType" : 5126,
      "count" : 7387,
      "type" : "VEC2"
    },
    {
      "bufferView" : 24,
      "componentType" : 5126,
      "count" : 7387,
      "type" : "VEC2"
    },
    {
      "bufferView" : 25,
      "componentType" : 5126,
      "count" : 7387,
      "type" : "VEC2"
    },
    {
      "bufferView" : 26,
      "componentType" : 5126,
      "count" : 7387,
      "type" : "VEC2"
    },
    {
      "bufferView" : 27,
      "componentType" : 5123,
      "count" : 1344,
      "type" : "SCALAR"
    },
    {
      "bufferView" : 28,
      "min" : [ -1.78864, 1.69863, 2.42542 ],
      "max" : [ 1.78556, 2.31487, 2.9328 ],
      "componentType" : 5126,
      "count" : 338,
      "type" : "VEC3"
    },
    {
      "bufferView" : 29,
      "componentType" : 5126,
      "count" : 338,
      "type" : "VEC3"
    },
    {
      "bufferView" : 30,
      "componentType" : 5126,
      "count" : 338,
      "type" : "VEC4"
    },
    {
      "bufferView" : 31,
      "normalized" : true,
      "componentType" : 5121,
      "count" : 338,
      "type" : "VEC4"
    },
    {
      "bufferView" : 32,
      "componentType" : 5126,
      "count" : 338,
      "type" : "VEC2"
    },
    {
      "bufferView" : 33,
      "componentType" : 5126,
      "count" : 338,
      "type" : "VEC2"
    },
    {
      "bufferView" : 34,
      "componentType" : 5126,
      "count" : 338,
      "type" : "VEC2"
    },
    {
      "bufferView" : 35,
      "componentType" : 5126,
      "count" : 338,
      "type" : "VEC2"
    },
    {
      "bufferView" : 36,
      "componentType" : 5123,
      "count" : 3132,
      "type" : "SCALAR"
    },
    {
      "bufferView" : 37,
      "min" : [ -1.60033, 0.789506, -0.269995 ],
      "max" : [ 2.21573, 1.33801, 1.11965 ],
      "componentType" : 5126,
      "count" : 1074,
      "type" : "VEC3"
    },
    {
      "bufferView" : 38,
      "componentType" : 5126,
      "count" : 1074,
      "type" : "VEC3"
    },
    {
      "bufferView" : 39,
      "componentType" : 5126,
      "count" : 1074,
      "type" : "VEC4"
    },
    {
      "bufferView" : 40,
      "normalized" : true,
      "componentType" : 5121,
      "count" : 1074,
      "type" : "VEC4"
    },
    {
      "bufferView" : 41,
      "componentType" : 5126,
      "count" : 1074,
      "type" : "VEC2"
    },
    {
      "bufferView" : 42,
      "componentType" : 5126,
      "count" : 1074,
      "type" : "VEC2"
    },
    {
      "bufferView" : 43,
      "componentType" : 5126,
      "count" : 1074,
      "type" : "VEC2"
    },
    {
      "bufferView" : 44,
      "componentType" : 5126,
      "count" : 1074,
      "type" : "VEC2"
    }
  ]
}
