{
  "asset" : {
    "generator" : "UE Viewer (umodel) build 1544 based",
    "version" : "2.0"
  },
  "scene" : 0,
  "scenes" : [
    {
      "nodes" : [ 0 ]
    }
  ],
  "nodes" : [
    {
      "name" : "SM_ENV_LKNVLD_Event_Balloon_B",
      "mesh" : 0
    }
  ],
  "materials" : [
    {
      "name" : "MI_ENV_LKNVLD_Event_Balloon_A",
      "pbrMetallicRoughness" : {
        "baseColorFactor" : [ 0.3, 0.3, 0.3, 1.0 ],
        "metallicFactor" : 0.1,
        "roughnessFactor" : 0.5
      }
    }
  ],
  "meshes" : [
    {
      "primitives" : [
        {
          "attributes" : {
            "POSITION" : 1,
            "NORMAL" : 2,
            "TANGENT" : 3,
            "COLOR_0" : 4,
            "TEXCOORD_0" : 5,
            "TEXCOORD_1" : 6,
            "TEXCOORD_2" : 7,
            "TEXCOORD_3" : 8
          },
          "indices" : 0,
          "material" : 0
        }
      ],
      "name" : "SM_ENV_LKNVLD_Event_Balloon_B"
    }
  ],
  "buffers" : [
    {
      "uri" : "SM_ENV_LKNVLD_Event_Balloon_B.bin",
      "byteLength" : 190216
    }
  ],
  "bufferViews" : [
    {
      "buffer" : 0,
      "byteOffset" : 0,
      "byteLength" : 10476
    },
    {
      "buffer" : 0,
      "byteOffset" : 10476,
      "byteLength" : 28380
    },
    {
      "buffer" : 0,
      "byteOffset" : 38856,
      "byteLength" : 28380
    },
    {
      "buffer" : 0,
      "byteOffset" : 67236,
      "byteLength" : 37840
    },
    {
      "buffer" : 0,
      "byteOffset" : 105076,
      "byteLength" : 9460
    },
    {
      "buffer" : 0,
      "byteOffset" : 114536,
      "byteLength" : 18920
    },
    {
      "buffer" : 0,
      "byteOffset" : 133456,
      "byteLength" : 18920
    },
    {
      "buffer" : 0,
      "byteOffset" : 152376,
      "byteLength" : 18920
    },
    {
      "buffer" : 0,
      "byteOffset" : 171296,
      "byteLength" : 18920
    }
  ],
  "accessors" : [
    {
      "bufferView" : 0,
      "componentType" : 5123,
      "count" : 5238,
      "type" : "SCALAR"
    },
    {
      "bufferView" : 1,
      "min" : [ -37.6683, 14.9963, 88.0198 ],
      "max" : [ 57.2692, 79.0928, 102.122 ],
      "componentType" : 5126,
      "count" : 2365,
      "type" : "VEC3"
    },
    {
      "bufferView" : 2,
      "componentType" : 5126,
      "count" : 2365,
      "type" : "VEC3"
    },
    {
      "bufferView" : 3,
      "componentType" : 5126,
      "count" : 2365,
      "type" : "VEC4"
    },
    {
      "bufferView" : 4,
      "normalized" : true,
      "componentType" : 5121,
      "count" : 2365,
      "type" : "VEC4"
    },
    {
      "bufferView" : 5,
      "componentType" : 5126,
      "count" : 2365,
      "type" : "VEC2"
    },
    {
      "bufferView" : 6,
      "componentType" : 5126,
      "count" : 2365,
      "type" : "VEC2"
    },
    {
      "bufferView" : 7,
      "componentType" : 5126,
      "count" : 2365,
      "type" : "VEC2"
    },
    {
      "bufferView" : 8,
      "componentType" : 5126,
      "count" : 2365,
      "type" : "VEC2"
    }
  ]
}
