{
  "asset" : {
    "generator" : "UE Viewer (umodel) build 1544 based",
    "version" : "2.0"
  },
  "scene" : 0,
  "scenes" : [
    {
      "nodes" : [ 0 ]
    }
  ],
  "nodes" : [
    {
      "name" : "SM_ENV_LKNVLD_RockMiddle_A_Lod1",
      "mesh" : 0
    }
  ],
  "materials" : [
    {
      "name" : "MI_ENV_LKNVLD_MiddleRock_A",
      "pbrMetallicRoughness" : {
        "baseColorFactor" : [ 0.3, 0.3, 0.3, 1.0 ],
        "metallicFactor" : 0.1,
        "roughnessFactor" : 0.5
      }
    }
  ],
  "meshes" : [
    {
      "primitives" : [
        {
          "attributes" : {
            "POSITION" : 1,
            "NORMAL" : 2,
            "TANGENT" : 3,
            "COLOR_0" : 4,
            "TEXCOORD_0" : 5,
            "TEXCOORD_1" : 6,
            "TEXCOORD_2" : 7,
            "TEXCOORD_3" : 8
          },
          "indices" : 0,
          "material" : 0
        }
      ],
      "name" : "SM_ENV_LKNVLD_RockMiddle_A_Lod1"
    }
  ],
  "buffers" : [
    {
      "uri" : "SM_ENV_LKNVLD_RockMiddle_A_Lod1.bin",
      "byteLength" : 14032
    }
  ],
  "bufferViews" : [
    {
      "buffer" : 0,
      "byteOffset" : 0,
      "byteLength" : 1644
    },
    {
      "buffer" : 0,
      "byteOffset" : 1644,
      "byteLength" : 1956
    },
    {
      "buffer" : 0,
      "byteOffset" : 3600,
      "byteLength" : 1956
    },
    {
      "buffer" : 0,
      "byteOffset" : 5556,
      "byteLength" : 2608
    },
    {
      "buffer" : 0,
      "byteOffset" : 8164,
      "byteLength" : 652
    },
    {
      "buffer" : 0,
      "byteOffset" : 8816,
      "byteLength" : 1304
    },
    {
      "buffer" : 0,
      "byteOffset" : 10120,
      "byteLength" : 1304
    },
    {
      "buffer" : 0,
      "byteOffset" : 11424,
      "byteLength" : 1304
    },
    {
      "buffer" : 0,
      "byteOffset" : 12728,
      "byteLength" : 1304
    }
  ],
  "accessors" : [
    {
      "bufferView" : 0,
      "componentType" : 5123,
      "count" : 822,
      "type" : "SCALAR"
    },
    {
      "bufferView" : 1,
      "min" : [ -1.95434, -1.04889, -2.10956 ],
      "max" : [ 1.79003, 2.1299, 3.19365 ],
      "componentType" : 5126,
      "count" : 163,
      "type" : "VEC3"
    },
    {
      "bufferView" : 2,
      "componentType" : 5126,
      "count" : 163,
      "type" : "VEC3"
    },
    {
      "bufferView" : 3,
      "componentType" : 5126,
      "count" : 163,
      "type" : "VEC4"
    },
    {
      "bufferView" : 4,
      "normalized" : true,
      "componentType" : 5121,
      "count" : 163,
      "type" : "VEC4"
    },
    {
      "bufferView" : 5,
      "componentType" : 5126,
      "count" : 163,
      "type" : "VEC2"
    },
    {
      "bufferView" : 6,
      "componentType" : 5126,
      "count" : 163,
      "type" : "VEC2"
    },
    {
      "bufferView" : 7,
      "componentType" : 5126,
      "count" : 163,
      "type" : "VEC2"
    },
    {
      "bufferView" : 8,
      "componentType" : 5126,
      "count" : 163,
      "type" : "VEC2"
    }
  ]
}
