{
  "asset" : {
    "generator" : "UE Viewer (umodel) build 1544 based",
    "version" : "2.0"
  },
  "scene" : 0,
  "scenes" : [
    {
      "nodes" : [ 0 ]
    }
  ],
  "nodes" : [
    {
      "name" : "SM_ENV_LKNVLD_PaperLantern_A_Lod3",
      "mesh" : 0
    }
  ],
  "materials" : [
    {
      "name" : "MI_ENV_LKNVLD_PaperLantern_A_LOD",
      "pbrMetallicRoughness" : {
        "baseColorFactor" : [ 0.3, 0.3, 0.3, 1.0 ],
        "metallicFactor" : 0.1,
        "roughnessFactor" : 0.5
      }
    }
  ],
  "meshes" : [
    {
      "primitives" : [
        {
          "attributes" : {
            "POSITION" : 1,
            "NORMAL" : 2,
            "TANGENT" : 3,
            "TEXCOORD_0" : 4,
            "TEXCOORD_1" : 5,
            "TEXCOORD_2" : 6,
            "TEXCOORD_3" : 7
          },
          "indices" : 0,
          "material" : 0
        }
      ],
      "name" : "SM_ENV_LKNVLD_PaperLantern_A_Lod3"
    }
  ],
  "buffers" : [
    {
      "uri" : "SM_ENV_LKNVLD_PaperLantern_A_Lod3.bin",
      "byteLength" : 27972
    }
  ],
  "bufferViews" : [
    {
      "buffer" : 0,
      "byteOffset" : 0,
      "byteLength" : 2268
    },
    {
      "buffer" : 0,
      "byteOffset" : 2268,
      "byteLength" : 4284
    },
    {
      "buffer" : 0,
      "byteOffset" : 6552,
      "byteLength" : 4284
    },
    {
      "buffer" : 0,
      "byteOffset" : 10836,
      "byteLength" : 5712
    },
    {
      "buffer" : 0,
      "byteOffset" : 16548,
      "byteLength" : 2856
    },
    {
      "buffer" : 0,
      "byteOffset" : 19404,
      "byteLength" : 2856
    },
    {
      "buffer" : 0,
      "byteOffset" : 22260,
      "byteLength" : 2856
    },
    {
      "buffer" : 0,
      "byteOffset" : 25116,
      "byteLength" : 2856
    }
  ],
  "accessors" : [
    {
      "bufferView" : 0,
      "componentType" : 5123,
      "count" : 1134,
      "type" : "SCALAR"
    },
    {
      "bufferView" : 1,
      "min" : [ -0.216428, 0.0190397, -0.216428 ],
      "max" : [ 0.216428, 0.998182, 0.216428 ],
      "componentType" : 5126,
      "count" : 357,
      "type" : "VEC3"
    },
    {
      "bufferView" : 2,
      "componentType" : 5126,
      "count" : 357,
      "type" : "VEC3"
    },
    {
      "bufferView" : 3,
      "componentType" : 5126,
      "count" : 357,
      "type" : "VEC4"
    },
    {
      "bufferView" : 4,
      "componentType" : 5126,
      "count" : 357,
      "type" : "VEC2"
    },
    {
      "bufferView" : 5,
      "componentType" : 5126,
      "count" : 357,
      "type" : "VEC2"
    },
    {
      "bufferView" : 6,
      "componentType" : 5126,
      "count" : 357,
      "type" : "VEC2"
    },
    {
      "bufferView" : 7,
      "componentType" : 5126,
      "count" : 357,
      "type" : "VEC2"
    }
  ]
}
