{
  "asset" : {
    "generator" : "UE Viewer (umodel) build 1544 based",
    "version" : "2.0"
  },
  "scene" : 0,
  "scenes" : [
    {
      "nodes" : [ 0 ]
    }
  ],
  "nodes" : [
    {
      "name" : "SM_ENV_LKNVLD_VideoScreen_02",
      "mesh" : 0
    }
  ],
  "materials" : [
    {
      "name" : "MI_ENV_KNVLLG_Pipe_Dark",
      "pbrMetallicRoughness" : {
        "baseColorFactor" : [ 0.3, 0.3, 0.3, 1.0 ],
        "metallicFactor" : 0.1,
        "roughnessFactor" : 0.5
      }
    },
    {
      "name" : "MI_ENV_LKNVLD_Pipe_B",
      "pbrMetallicRoughness" : {
        "baseColorFactor" : [ 0.9, 0.3, 0.3, 1.0 ],
        "metallicFactor" : 0.1,
        "roughnessFactor" : 0.5
      }
    },
    {
      "name" : "MI_ENV_KNVLLG_AnimatedScreen_01",
      "pbrMetallicRoughness" : {
        "baseColorFactor" : [ 0.3, 0.9, 0.3, 1.0 ],
        "metallicFactor" : 0.1,
        "roughnessFactor" : 0.5
      }
    }
  ],
  "meshes" : [
    {
      "primitives" : [
        {
          "attributes" : {
            "POSITION" : 1,
            "NORMAL" : 2,
            "TANGENT" : 3,
            "COLOR_0" : 4,
            "TEXCOORD_0" : 5,
            "TEXCOORD_1" : 6,
            "TEXCOORD_2" : 7,
            "TEXCOORD_3" : 8
          },
          "indices" : 0,
          "material" : 0
        },
        {
          "attributes" : {
            "POSITION" : 10,
            "NORMAL" : 11,
            "TANGENT" : 12,
            "COLOR_0" : 13,
            "TEXCOORD_0" : 14,
            "TEXCOORD_1" : 15,
            "TEXCOORD_2" : 16,
            "TEXCOORD_3" : 17
          },
          "indices" : 9,
          "material" : 1
        },
        {
          "attributes" : {
            "POSITION" : 19,
            "NORMAL" : 20,
            "TANGENT" : 21,
            "COLOR_0" : 22,
            "TEXCOORD_0" : 23,
            "TEXCOORD_1" : 24,
            "TEXCOORD_2" : 25,
            "TEXCOORD_3" : 26
          },
          "indices" : 18,
          "material" : 2
        }
      ],
      "name" : "SM_ENV_LKNVLD_VideoScreen_02"
    }
  ],
  "buffers" : [
    {
      "uri" : "SM_ENV_LKNVLD_VideoScreen_02.bin",
      "byteLength" : 178528
    }
  ],
  "bufferViews" : [
    {
      "buffer" : 0,
      "byteOffset" : 0,
      "byteLength" : 6816
    },
    {
      "buffer" : 0,
      "byteOffset" : 6816,
      "byteLength" : 20952
    },
    {
      "buffer" : 0,
      "byteOffset" : 27768,
      "byteLength" : 20952
    },
    {
      "buffer" : 0,
      "byteOffset" : 48720,
      "byteLength" : 27936
    },
    {
      "buffer" : 0,
      "byteOffset" : 76656,
      "byteLength" : 6984
    },
    {
      "buffer" : 0,
      "byteOffset" : 83640,
      "byteLength" : 13968
    },
    {
      "buffer" : 0,
      "byteOffset" : 97608,
      "byteLength" : 13968
    },
    {
      "buffer" : 0,
      "byteOffset" : 111576,
      "byteLength" : 13968
    },
    {
      "buffer" : 0,
      "byteOffset" : 125544,
      "byteLength" : 13968
    },
    {
      "buffer" : 0,
      "byteOffset" : 139512,
      "byteLength" : 4176
    },
    {
      "buffer" : 0,
      "byteOffset" : 143688,
      "byteLength" : 5244
    },
    {
      "buffer" : 0,
      "byteOffset" : 148932,
      "byteLength" : 5244
    },
    {
      "buffer" : 0,
      "byteOffset" : 154176,
      "byteLength" : 6992
    },
    {
      "buffer" : 0,
      "byteOffset" : 161168,
      "byteLength" : 1748
    },
    {
      "buffer" : 0,
      "byteOffset" : 162916,
      "byteLength" : 3496
    },
    {
      "buffer" : 0,
      "byteOffset" : 166412,
      "byteLength" : 3496
    },
    {
      "buffer" : 0,
      "byteOffset" : 169908,
      "byteLength" : 3496
    },
    {
      "buffer" : 0,
      "byteOffset" : 173404,
      "byteLength" : 3496
    },
    {
      "buffer" : 0,
      "byteOffset" : 176900,
      "byteLength" : 108
    },
    {
      "buffer" : 0,
      "byteOffset" : 177008,
      "byteLength" : 240
    },
    {
      "buffer" : 0,
      "byteOffset" : 177248,
      "byteLength" : 240
    },
    {
      "buffer" : 0,
      "byteOffset" : 177488,
      "byteLength" : 320
    },
    {
      "buffer" : 0,
      "byteOffset" : 177808,
      "byteLength" : 80
    },
    {
      "buffer" : 0,
      "byteOffset" : 177888,
      "byteLength" : 160
    },
    {
      "buffer" : 0,
      "byteOffset" : 178048,
      "byteLength" : 160
    },
    {
      "buffer" : 0,
      "byteOffset" : 178208,
      "byteLength" : 160
    },
    {
      "buffer" : 0,
      "byteOffset" : 178368,
      "byteLength" : 160
    }
  ],
  "accessors" : [
    {
      "bufferView" : 0,
      "componentType" : 5123,
      "count" : 3408,
      "type" : "SCALAR"
    },
    {
      "bufferView" : 1,
      "min" : [ -12.599, 0.314558, -43.7766 ],
      "max" : [ 12.599, 5.39994, -37.2496 ],
      "componentType" : 5126,
      "count" : 1746,
      "type" : "VEC3"
    },
    {
      "bufferView" : 2,
      "componentType" : 5126,
      "count" : 1746,
      "type" : "VEC3"
    },
    {
      "bufferView" : 3,
      "componentType" : 5126,
      "count" : 1746,
      "type" : "VEC4"
    },
    {
      "bufferView" : 4,
      "normalized" : true,
      "componentType" : 5121,
      "count" : 1746,
      "type" : "VEC4"
    },
    {
      "bufferView" : 5,
      "componentType" : 5126,
      "count" : 1746,
      "type" : "VEC2"
    },
    {
      "bufferView" : 6,
      "componentType" : 5126,
      "count" : 1746,
      "type" : "VEC2"
    },
    {
      "bufferView" : 7,
      "componentType" : 5126,
      "count" : 1746,
      "type" : "VEC2"
    },
    {
      "bufferView" : 8,
      "componentType" : 5126,
      "count" : 1746,
      "type" : "VEC2"
    },
    {
      "bufferView" : 9,
      "componentType" : 5123,
      "count" : 2088,
      "type" : "SCALAR"
    },
    {
      "bufferView" : 10,
      "min" : [ -11.067, 1.92879, -40.2497 ],
      "max" : [ 10.9815, 4.09313, -37.3873 ],
      "componentType" : 5126,
      "count" : 437,
      "type" : "VEC3"
    },
    {
      "bufferView" : 11,
      "componentType" : 5126,
      "count" : 437,
      "type" : "VEC3"
    },
    {
      "bufferView" : 12,
      "componentType" : 5126,
      "count" : 437,
      "type" : "VEC4"
    },
    {
      "bufferView" : 13,
      "normalized" : true,
      "componentType" : 5121,
      "count" : 437,
      "type" : "VEC4"
    },
    {
      "bufferView" : 14,
      "componentType" : 5126,
      "count" : 437,
      "type" : "VEC2"
    },
    {
      "bufferView" : 15,
      "componentType" : 5126,
      "count" : 437,
      "type" : "VEC2"
    },
    {
      "bufferView" : 16,
      "componentType" : 5126,
      "count" : 437,
      "type" : "VEC2"
    },
    {
      "bufferView" : 17,
      "componentType" : 5126,
      "count" : 437,
      "type" : "VEC2"
    },
    {
      "bufferView" : 18,
      "componentType" : 5123,
      "count" : 54,
      "type" : "SCALAR"
    },
    {
      "bufferView" : 19,
      "min" : [ -12.4526, 1.53701, -40.4803 ],
      "max" : [ -5.98835, 5.17785, -37.3604 ],
      "componentType" : 5126,
      "count" : 20,
      "type" : "VEC3"
    },
    {
      "bufferView" : 20,
      "componentType" : 5126,
      "count" : 20,
      "type" : "VEC3"
    },
    {
      "bufferView" : 21,
      "componentType" : 5126,
      "count" : 20,
      "type" : "VEC4"
    },
    {
      "bufferView" : 22,
      "normalized" : true,
      "componentType" : 5121,
      "count" : 20,
      "type" : "VEC4"
    },
    {
      "bufferView" : 23,
      "componentType" : 5126,
      "count" : 20,
      "type" : "VEC2"
    },
    {
      "bufferView" : 24,
      "componentType" : 5126,
      "count" : 20,
      "type" : "VEC2"
    },
    {
      "bufferView" : 25,
      "componentType" : 5126,
      "count" : 20,
      "type" : "VEC2"
    },
    {
      "bufferView" : 26,
      "componentType" : 5126,
      "count" : 20,
      "type" : "VEC2"
    }
  ]
}
