{
  "asset" : {
    "generator" : "UE Viewer (umodel) build 1544 based",
    "version" : "2.0"
  },
  "scene" : 0,
  "scenes" : [
    {
      "nodes" : [ 0 ]
    }
  ],
  "nodes" : [
    {
      "name" : "SM_ENV_LKNVLD_Tree_A_Lod2",
      "mesh" : 0
    }
  ],
  "materials" : [
    {
      "name" : "MI_ENV_LKNVLD_LeafMasked_A",
      "pbrMetallicRoughness" : {
        "baseColorFactor" : [ 0.3, 0.3, 0.3, 1.0 ],
        "metallicFactor" : 0.1,
        "roughnessFactor" : 0.5
      }
    },
    {
      "name" : "MI_ENV_LKNVLD_Leaf_A",
      "pbrMetallicRoughness" : {
        "baseColorFactor" : [ 0.9, 0.3, 0.3, 1.0 ],
        "metallicFactor" : 0.1,
        "roughnessFactor" : 0.5
      }
    },
    {
      "name" : "MI_ENV_LKNVLD_Tree_A",
      "pbrMetallicRoughness" : {
        "baseColorFactor" : [ 0.3, 0.9, 0.3, 1.0 ],
        "metallicFactor" : 0.1,
        "roughnessFactor" : 0.5
      }
    }
  ],
  "meshes" : [
    {
      "primitives" : [
        {
          "attributes" : {
            "POSITION" : 1,
            "NORMAL" : 2,
            "TANGENT" : 3,
            "COLOR_0" : 4,
            "TEXCOORD_0" : 5,
            "TEXCOORD_1" : 6,
            "TEXCOORD_2" : 7,
            "TEXCOORD_3" : 8
          },
          "indices" : 0,
          "material" : 0
        },
        {
          "attributes" : {
            "POSITION" : 10,
            "NORMAL" : 11,
            "TANGENT" : 12,
            "COLOR_0" : 13,
            "TEXCOORD_0" : 14,
            "TEXCOORD_1" : 15,
            "TEXCOORD_2" : 16,
            "TEXCOORD_3" : 17
          },
          "indices" : 9,
          "material" : 1
        },
        {
          "attributes" : {
            "POSITION" : 19,
            "NORMAL" : 20,
            "TANGENT" : 21,
            "COLOR_0" : 22,
            "TEXCOORD_0" : 23,
            "TEXCOORD_1" : 24,
            "TEXCOORD_2" : 25,
            "TEXCOORD_3" : 26
          },
          "indices" : 18,
          "material" : 2
        }
      ],
      "name" : "SM_ENV_LKNVLD_Tree_A_Lod2"
    }
  ],
  "buffers" : [
    {
      "uri" : "SM_ENV_LKNVLD_Tree_A_Lod2.bin",
      "byteLength" : 516736
    }
  ],
  "bufferViews" : [
    {
      "buffer" : 0,
      "byteOffset" : 0,
      "byteLength" : 16484
    },
    {
      "buffer" : 0,
      "byteOffset" : 16484,
      "byteLength" : 61332
    },
    {
      "buffer" : 0,
      "byteOffset" : 77816,
      "byteLength" : 61332
    },
    {
      "buffer" : 0,
      "byteOffset" : 139148,
      "byteLength" : 81776
    },
    {
      "buffer" : 0,
      "byteOffset" : 220924,
      "byteLength" : 20444
    },
    {
      "buffer" : 0,
      "byteOffset" : 241368,
      "byteLength" : 40888
    },
    {
      "buffer" : 0,
      "byteOffset" : 282256,
      "byteLength" : 40888
    },
    {
      "buffer" : 0,
      "byteOffset" : 323144,
      "byteLength" : 40888
    },
    {
      "buffer" : 0,
      "byteOffset" : 364032,
      "byteLength" : 40888
    },
    {
      "buffer" : 0,
      "byteOffset" : 404920,
      "byteLength" : 4212
    },
    {
      "buffer" : 0,
      "byteOffset" : 409132,
      "byteLength" : 10500
    },
    {
      "buffer" : 0,
      "byteOffset" : 419632,
      "byteLength" : 10500
    },
    {
      "buffer" : 0,
      "byteOffset" : 430132,
      "byteLength" : 14000
    },
    {
      "buffer" : 0,
      "byteOffset" : 444132,
      "byteLength" : 3500
    },
    {
      "buffer" : 0,
      "byteOffset" : 447632,
      "byteLength" : 7000
    },
    {
      "buffer" : 0,
      "byteOffset" : 454632,
      "byteLength" : 7000
    },
    {
      "buffer" : 0,
      "byteOffset" : 461632,
      "byteLength" : 7000
    },
    {
      "buffer" : 0,
      "byteOffset" : 468632,
      "byteLength" : 7000
    },
    {
      "buffer" : 0,
      "byteOffset" : 475632,
      "byteLength" : 1356
    },
    {
      "buffer" : 0,
      "byteOffset" : 476988,
      "byteLength" : 6276
    },
    {
      "buffer" : 0,
      "byteOffset" : 483264,
      "byteLength" : 6276
    },
    {
      "buffer" : 0,
      "byteOffset" : 489540,
      "byteLength" : 8368
    },
    {
      "buffer" : 0,
      "byteOffset" : 497908,
      "byteLength" : 2092
    },
    {
      "buffer" : 0,
      "byteOffset" : 500000,
      "byteLength" : 4184
    },
    {
      "buffer" : 0,
      "byteOffset" : 504184,
      "byteLength" : 4184
    },
    {
      "buffer" : 0,
      "byteOffset" : 508368,
      "byteLength" : 4184
    },
    {
      "buffer" : 0,
      "byteOffset" : 512552,
      "byteLength" : 4184
    }
  ],
  "accessors" : [
    {
      "bufferView" : 0,
      "componentType" : 5123,
      "count" : 8241,
      "type" : "SCALAR"
    },
    {
      "bufferView" : 1,
      "min" : [ -5.00695, 5.30805, -5.25653 ],
      "max" : [ 5.04418, 13.6408, 5.01564 ],
      "componentType" : 5126,
      "count" : 5111,
      "type" : "VEC3"
    },
    {
      "bufferView" : 2,
      "componentType" : 5126,
      "count" : 5111,
      "type" : "VEC3"
    },
    {
      "bufferView" : 3,
      "componentType" : 5126,
      "count" : 5111,
      "type" : "VEC4"
    },
    {
      "bufferView" : 4,
      "normalized" : true,
      "componentType" : 5121,
      "count" : 5111,
      "type" : "VEC4"
    },
    {
      "bufferView" : 5,
      "componentType" : 5126,
      "count" : 5111,
      "type" : "VEC2"
    },
    {
      "bufferView" : 6,
      "componentType" : 5126,
      "count" : 5111,
      "type" : "VEC2"
    },
    {
      "bufferView" : 7,
      "componentType" : 5126,
      "count" : 5111,
      "type" : "VEC2"
    },
    {
      "bufferView" : 8,
      "componentType" : 5126,
      "count" : 5111,
      "type" : "VEC2"
    },
    {
      "bufferView" : 9,
      "componentType" : 5123,
      "count" : 2106,
      "type" : "SCALAR"
    },
    {
      "bufferView" : 10,
      "min" : [ -4.8693, 5.48853, -5.04057 ],
      "max" : [ 4.80827, 13.4815, 4.84117 ],
      "componentType" : 5126,
      "count" : 875,
      "type" : "VEC3"
    },
    {
      "bufferView" : 11,
      "componentType" : 5126,
      "count" : 875,
      "type" : "VEC3"
    },
    {
      "bufferView" : 12,
      "componentType" : 5126,
      "count" : 875,
      "type" : "VEC4"
    },
    {
      "bufferView" : 13,
      "normalized" : true,
      "componentType" : 5121,
      "count" : 875,
      "type" : "VEC4"
    },
    {
      "bufferView" : 14,
      "componentType" : 5126,
      "count" : 875,
      "type" : "VEC2"
    },
    {
      "bufferView" : 15,
      "componentType" : 5126,
      "count" : 875,
      "type" : "VEC2"
    },
    {
      "bufferView" : 16,
      "componentType" : 5126,
      "count" : 875,
      "type" : "VEC2"
    },
    {
      "bufferView" : 17,
      "componentType" : 5126,
      "count" : 875,
      "type" : "VEC2"
    },
    {
      "bufferView" : 18,
      "componentType" : 5123,
      "count" : 678,
      "type" : "SCALAR"
    },
    {
      "bufferView" : 19,
      "min" : [ -2.82898, -0.287134, -2.35403 ],
      "max" : [ 2.22236, 10.8858, 3.27253 ],
      "componentType" : 5126,
      "count" : 523,
      "type" : "VEC3"
    },
    {
      "bufferView" : 20,
      "componentType" : 5126,
      "count" : 523,
      "type" : "VEC3"
    },
    {
      "bufferView" : 21,
      "componentType" : 5126,
      "count" : 523,
      "type" : "VEC4"
    },
    {
      "bufferView" : 22,
      "normalized" : true,
      "componentType" : 5121,
      "count" : 523,
      "type" : "VEC4"
    },
    {
      "bufferView" : 23,
      "componentType" : 5126,
      "count" : 523,
      "type" : "VEC2"
    },
    {
      "bufferView" : 24,
      "componentType" : 5126,
      "count" : 523,
      "type" : "VEC2"
    },
    {
      "bufferView" : 25,
      "componentType" : 5126,
      "count" : 523,
      "type" : "VEC2"
    },
    {
      "bufferView" : 26,
      "componentType" : 5126,
      "count" : 523,
      "type" : "VEC2"
    }
  ]
}
