{
  "asset" : {
    "generator" : "UE Viewer (umodel) build 1544 based",
    "version" : "2.0"
  },
  "scene" : 0,
  "scenes" : [
    {
      "nodes" : [ 0 ]
    }
  ],
  "nodes" : [
    {
      "name" : "SM_ENV_LKNVLD_TreeSet_N_Lod2",
      "mesh" : 0
    }
  ],
  "materials" : [
    {
      "name" : "MI_ENV_LKNVLD_LeafMasked_A",
      "pbrMetallicRoughness" : {
        "baseColorFactor" : [ 0.3, 0.3, 0.3, 1.0 ],
        "metallicFactor" : 0.1,
        "roughnessFactor" : 0.5
      }
    },
    {
      "name" : "MI_ENV_LKNVLD_Leaf_A",
      "pbrMetallicRoughness" : {
        "baseColorFactor" : [ 0.9, 0.3, 0.3, 1.0 ],
        "metallicFactor" : 0.1,
        "roughnessFactor" : 0.5
      }
    },
    {
      "name" : "MI_ENV_LKNVLD_Tree_A",
      "pbrMetallicRoughness" : {
        "baseColorFactor" : [ 0.3, 0.9, 0.3, 1.0 ],
        "metallicFactor" : 0.1,
        "roughnessFactor" : 0.5
      }
    }
  ],
  "meshes" : [
    {
      "primitives" : [
        {
          "attributes" : {
            "POSITION" : 1,
            "NORMAL" : 2,
            "TANGENT" : 3,
            "COLOR_0" : 4,
            "TEXCOORD_0" : 5,
            "TEXCOORD_1" : 6,
            "TEXCOORD_2" : 7,
            "TEXCOORD_3" : 8
          },
          "indices" : 0,
          "material" : 0
        },
        {
          "attributes" : {
            "POSITION" : 10,
            "NORMAL" : 11,
            "TANGENT" : 12,
            "COLOR_0" : 13,
            "TEXCOORD_0" : 14,
            "TEXCOORD_1" : 15,
            "TEXCOORD_2" : 16,
            "TEXCOORD_3" : 17
          },
          "indices" : 9,
          "material" : 1
        },
        {
          "attributes" : {
            "POSITION" : 19,
            "NORMAL" : 20,
            "TANGENT" : 21,
            "COLOR_0" : 22,
            "TEXCOORD_0" : 23,
            "TEXCOORD_1" : 24,
            "TEXCOORD_2" : 25,
            "TEXCOORD_3" : 26
          },
          "indices" : 18,
          "material" : 2
        }
      ],
      "name" : "SM_ENV_LKNVLD_TreeSet_N_Lod2"
    }
  ],
  "buffers" : [
    {
      "uri" : "SM_ENV_LKNVLD_TreeSet_N_Lod2.bin",
      "byteLength" : 1823484
    }
  ],
  "bufferViews" : [
    {
      "buffer" : 0,
      "byteOffset" : 0,
      "byteLength" : 66588
    },
    {
      "buffer" : 0,
      "byteOffset" : 66588,
      "byteLength" : 227064
    },
    {
      "buffer" : 0,
      "byteOffset" : 293652,
      "byteLength" : 227064
    },
    {
      "buffer" : 0,
      "byteOffset" : 520716,
      "byteLength" : 302752
    },
    {
      "buffer" : 0,
      "byteOffset" : 823468,
      "byteLength" : 75688
    },
    {
      "buffer" : 0,
      "byteOffset" : 899156,
      "byteLength" : 151376
    },
    {
      "buffer" : 0,
      "byteOffset" : 1050532,
      "byteLength" : 151376
    },
    {
      "buffer" : 0,
      "byteOffset" : 1201908,
      "byteLength" : 151376
    },
    {
      "buffer" : 0,
      "byteOffset" : 1353284,
      "byteLength" : 151376
    },
    {
      "buffer" : 0,
      "byteOffset" : 1504660,
      "byteLength" : 11748
    },
    {
      "buffer" : 0,
      "byteOffset" : 1516408,
      "byteLength" : 30324
    },
    {
      "buffer" : 0,
      "byteOffset" : 1546732,
      "byteLength" : 30324
    },
    {
      "buffer" : 0,
      "byteOffset" : 1577056,
      "byteLength" : 40432
    },
    {
      "buffer" : 0,
      "byteOffset" : 1617488,
      "byteLength" : 10108
    },
    {
      "buffer" : 0,
      "byteOffset" : 1627596,
      "byteLength" : 20216
    },
    {
      "buffer" : 0,
      "byteOffset" : 1647812,
      "byteLength" : 20216
    },
    {
      "buffer" : 0,
      "byteOffset" : 1668028,
      "byteLength" : 20216
    },
    {
      "buffer" : 0,
      "byteOffset" : 1688244,
      "byteLength" : 20216
    },
    {
      "buffer" : 0,
      "byteOffset" : 1708460,
      "byteLength" : 3684
    },
    {
      "buffer" : 0,
      "byteOffset" : 1712144,
      "byteLength" : 17580
    },
    {
      "buffer" : 0,
      "byteOffset" : 1729724,
      "byteLength" : 17580
    },
    {
      "buffer" : 0,
      "byteOffset" : 1747304,
      "byteLength" : 23440
    },
    {
      "buffer" : 0,
      "byteOffset" : 1770744,
      "byteLength" : 5860
    },
    {
      "buffer" : 0,
      "byteOffset" : 1776604,
      "byteLength" : 11720
    },
    {
      "buffer" : 0,
      "byteOffset" : 1788324,
      "byteLength" : 11720
    },
    {
      "buffer" : 0,
      "byteOffset" : 1800044,
      "byteLength" : 11720
    },
    {
      "buffer" : 0,
      "byteOffset" : 1811764,
      "byteLength" : 11720
    }
  ],
  "accessors" : [
    {
      "bufferView" : 0,
      "componentType" : 5123,
      "count" : 33294,
      "type" : "SCALAR"
    },
    {
      "bufferView" : 1,
      "min" : [ -74.7813, 6.10651, -92.9357 ],
      "max" : [ -55.1299, 19.5864, -72.9553 ],
      "componentType" : 5126,
      "count" : 18922,
      "type" : "VEC3"
    },
    {
      "bufferView" : 2,
      "componentType" : 5126,
      "count" : 18922,
      "type" : "VEC3"
    },
    {
      "bufferView" : 3,
      "componentType" : 5126,
      "count" : 18922,
      "type" : "VEC4"
    },
    {
      "bufferView" : 4,
      "normalized" : true,
      "componentType" : 5121,
      "count" : 18922,
      "type" : "VEC4"
    },
    {
      "bufferView" : 5,
      "componentType" : 5126,
      "count" : 18922,
      "type" : "VEC2"
    },
    {
      "bufferView" : 6,
      "componentType" : 5126,
      "count" : 18922,
      "type" : "VEC2"
    },
    {
      "bufferView" : 7,
      "componentType" : 5126,
      "count" : 18922,
      "type" : "VEC2"
    },
    {
      "bufferView" : 8,
      "componentType" : 5126,
      "count" : 18922,
      "type" : "VEC2"
    },
    {
      "bufferView" : 9,
      "componentType" : 5123,
      "count" : 5874,
      "type" : "SCALAR"
    },
    {
      "bufferView" : 10,
      "min" : [ -74.5433, 6.28652, -92.6609 ],
      "max" : [ -55.3407, 19.4277, -73.2536 ],
      "componentType" : 5126,
      "count" : 2527,
      "type" : "VEC3"
    },
    {
      "bufferView" : 11,
      "componentType" : 5126,
      "count" : 2527,
      "type" : "VEC3"
    },
    {
      "bufferView" : 12,
      "componentType" : 5126,
      "count" : 2527,
      "type" : "VEC4"
    },
    {
      "bufferView" : 13,
      "normalized" : true,
      "componentType" : 5121,
      "count" : 2527,
      "type" : "VEC4"
    },
    {
      "bufferView" : 14,
      "componentType" : 5126,
      "count" : 2527,
      "type" : "VEC2"
    },
    {
      "bufferView" : 15,
      "componentType" : 5126,
      "count" : 2527,
      "type" : "VEC2"
    },
    {
      "bufferView" : 16,
      "componentType" : 5126,
      "count" : 2527,
      "type" : "VEC2"
    },
    {
      "bufferView" : 17,
      "componentType" : 5126,
      "count" : 2527,
      "type" : "VEC2"
    },
    {
      "bufferView" : 18,
      "componentType" : 5123,
      "count" : 1842,
      "type" : "SCALAR"
    },
    {
      "bufferView" : 19,
      "min" : [ -73.1827, 0.526004, -90.4141 ],
      "max" : [ -56.7525, 15.9268, -75.7058 ],
      "componentType" : 5126,
      "count" : 1465,
      "type" : "VEC3"
    },
    {
      "bufferView" : 20,
      "componentType" : 5126,
      "count" : 1465,
      "type" : "VEC3"
    },
    {
      "bufferView" : 21,
      "componentType" : 5126,
      "count" : 1465,
      "type" : "VEC4"
    },
    {
      "bufferView" : 22,
      "normalized" : true,
      "componentType" : 5121,
      "count" : 1465,
      "type" : "VEC4"
    },
    {
      "bufferView" : 23,
      "componentType" : 5126,
      "count" : 1465,
      "type" : "VEC2"
    },
    {
      "bufferView" : 24,
      "componentType" : 5126,
      "count" : 1465,
      "type" : "VEC2"
    },
    {
      "bufferView" : 25,
      "componentType" : 5126,
      "count" : 1465,
      "type" : "VEC2"
    },
    {
      "bufferView" : 26,
      "componentType" : 5126,
      "count" : 1465,
      "type" : "VEC2"
    }
  ]
}
