{
  "asset" : {
    "generator" : "UE Viewer (umodel) build 1544 based",
    "version" : "2.0"
  },
  "scene" : 0,
  "scenes" : [
    {
      "nodes" : [ 0 ]
    }
  ],
  "nodes" : [
    {
      "name" : "SM_ENV_LKNVLD_WallSet_Straight",
      "mesh" : 0
    }
  ],
  "materials" : [
    {
      "name" : "MI_ENV_LKNVLD_WoodPlain_Red",
      "pbrMetallicRoughness" : {
        "baseColorFactor" : [ 0.3, 0.3, 0.3, 1.0 ],
        "metallicFactor" : 0.1,
        "roughnessFactor" : 0.5
      }
    },
    {
      "name" : "MI_ENV_LKNVLD_WoodWallSet",
      "pbrMetallicRoughness" : {
        "baseColorFactor" : [ 0.9, 0.3, 0.3, 1.0 ],
        "metallicFactor" : 0.1,
        "roughnessFactor" : 0.5
      }
    },
    {
      "name" : "MI_ENV_LKNVLD_Signboard_A",
      "pbrMetallicRoughness" : {
        "baseColorFactor" : [ 0.3, 0.9, 0.3, 1.0 ],
        "metallicFactor" : 0.1,
        "roughnessFactor" : 0.5
      }
    },
    {
      "name" : "MI_ENV_LKNVLD_Eaves_B",
      "pbrMetallicRoughness" : {
        "baseColorFactor" : [ 0.3, 0.3, 0.9, 1.0 ],
        "metallicFactor" : 0.1,
        "roughnessFactor" : 0.5
      }
    },
    {
      "name" : "MI_ENV_LKNVLD_StoneTrim_Ground",
      "pbrMetallicRoughness" : {
        "baseColorFactor" : [ 0.9, 0.9, 0.9, 1.0 ],
        "metallicFactor" : 0.1,
        "roughnessFactor" : 0.5
      }
    },
    {
      "name" : "MI_ENV_LKNVLD_WoodBoard_Natural_Lighter",
      "pbrMetallicRoughness" : {
        "baseColorFactor" : [ 0.9, 0.9, 0.3, 1.0 ],
        "metallicFactor" : 0.1,
        "roughnessFactor" : 0.5
      }
    }
  ],
  "meshes" : [
    {
      "primitives" : [
        {
          "attributes" : {
            "POSITION" : 1,
            "NORMAL" : 2,
            "TANGENT" : 3,
            "TEXCOORD_0" : 4,
            "TEXCOORD_1" : 5,
            "TEXCOORD_2" : 6,
            "TEXCOORD_3" : 7
          },
          "indices" : 0,
          "material" : 0
        },
        {
          "attributes" : {
            "POSITION" : 9,
            "NORMAL" : 10,
            "TANGENT" : 11,
            "TEXCOORD_0" : 12,
            "TEXCOORD_1" : 13,
            "TEXCOORD_2" : 14,
            "TEXCOORD_3" : 15
          },
          "indices" : 8,
          "material" : 1
        },
        {
          "attributes" : {
            "POSITION" : 17,
            "NORMAL" : 18,
            "TANGENT" : 19,
            "TEXCOORD_0" : 20,
            "TEXCOORD_1" : 21,
            "TEXCOORD_2" : 22,
            "TEXCOORD_3" : 23
          },
          "indices" : 16,
          "material" : 2
        },
        {
          "attributes" : {
            "POSITION" : 25,
            "NORMAL" : 26,
            "TANGENT" : 27,
            "TEXCOORD_0" : 28,
            "TEXCOORD_1" : 29,
            "TEXCOORD_2" : 30,
            "TEXCOORD_3" : 31
          },
          "indices" : 24,
          "material" : 3
        },
        {
          "attributes" : {
            "POSITION" : 33,
            "NORMAL" : 34,
            "TANGENT" : 35,
            "TEXCOORD_0" : 36,
            "TEXCOORD_1" : 37,
            "TEXCOORD_2" : 38,
            "TEXCOORD_3" : 39
          },
          "indices" : 32,
          "material" : 4
        },
        {
          "attributes" : {
            "POSITION" : 41,
            "NORMAL" : 42,
            "TANGENT" : 43,
            "TEXCOORD_0" : 44,
            "TEXCOORD_1" : 45,
            "TEXCOORD_2" : 46,
            "TEXCOORD_3" : 47
          },
          "indices" : 40,
          "material" : 5
        }
      ],
      "name" : "SM_ENV_LKNVLD_WallSet_Straight"
    }
  ],
  "buffers" : [
    {
      "uri" : "SM_ENV_LKNVLD_WallSet_Straight.bin",
      "byteLength" : 517104
    }
  ],
  "bufferViews" : [
    {
      "buffer" : 0,
      "byteOffset" : 0,
      "byteLength" : 13080
    },
    {
      "buffer" : 0,
      "byteOffset" : 13080,
      "byteLength" : 41496
    },
    {
      "buffer" : 0,
      "byteOffset" : 54576,
      "byteLength" : 41496
    },
    {
      "buffer" : 0,
      "byteOffset" : 96072,
      "byteLength" : 55328
    },
    {
      "buffer" : 0,
      "byteOffset" : 151400,
      "byteLength" : 27664
    },
    {
      "buffer" : 0,
      "byteOffset" : 179064,
      "byteLength" : 27664
    },
    {
      "buffer" : 0,
      "byteOffset" : 206728,
      "byteLength" : 27664
    },
    {
      "buffer" : 0,
      "byteOffset" : 234392,
      "byteLength" : 27664
    },
    {
      "buffer" : 0,
      "byteOffset" : 262056,
      "byteLength" : 5976
    },
    {
      "buffer" : 0,
      "byteOffset" : 268032,
      "byteLength" : 15528
    },
    {
      "buffer" : 0,
      "byteOffset" : 283560,
      "byteLength" : 15528
    },
    {
      "buffer" : 0,
      "byteOffset" : 299088,
      "byteLength" : 20704
    },
    {
      "buffer" : 0,
      "byteOffset" : 319792,
      "byteLength" : 10352
    },
    {
      "buffer" : 0,
      "byteOffset" : 330144,
      "byteLength" : 10352
    },
    {
      "buffer" : 0,
      "byteOffset" : 340496,
      "byteLength" : 10352
    },
    {
      "buffer" : 0,
      "byteOffset" : 350848,
      "byteLength" : 10352
    },
    {
      "buffer" : 0,
      "byteOffset" : 361200,
      "byteLength" : 6780
    },
    {
      "buffer" : 0,
      "byteOffset" : 367980,
      "byteLength" : 16008
    },
    {
      "buffer" : 0,
      "byteOffset" : 383988,
      "byteLength" : 16008
    },
    {
      "buffer" : 0,
      "byteOffset" : 399996,
      "byteLength" : 21344
    },
    {
      "buffer" : 0,
      "byteOffset" : 421340,
      "byteLength" : 10672
    },
    {
      "buffer" : 0,
      "byteOffset" : 432012,
      "byteLength" : 10672
    },
    {
      "buffer" : 0,
      "byteOffset" : 442684,
      "byteLength" : 10672
    },
    {
      "buffer" : 0,
      "byteOffset" : 453356,
      "byteLength" : 10672
    },
    {
      "buffer" : 0,
      "byteOffset" : 464028,
      "byteLength" : 1620
    },
    {
      "buffer" : 0,
      "byteOffset" : 465648,
      "byteLength" : 4104
    },
    {
      "buffer" : 0,
      "byteOffset" : 469752,
      "byteLength" : 4104
    },
    {
      "buffer" : 0,
      "byteOffset" : 473856,
      "byteLength" : 5472
    },
    {
      "buffer" : 0,
      "byteOffset" : 479328,
      "byteLength" : 2736
    },
    {
      "buffer" : 0,
      "byteOffset" : 482064,
      "byteLength" : 2736
    },
    {
      "buffer" : 0,
      "byteOffset" : 484800,
      "byteLength" : 2736
    },
    {
      "buffer" : 0,
      "byteOffset" : 487536,
      "byteLength" : 2736
    },
    {
      "buffer" : 0,
      "byteOffset" : 490272,
      "byteLength" : 2628
    },
    {
      "buffer" : 0,
      "byteOffset" : 492900,
      "byteLength" : 3984
    },
    {
      "buffer" : 0,
      "byteOffset" : 496884,
      "byteLength" : 3984
    },
    {
      "buffer" : 0,
      "byteOffset" : 500868,
      "byteLength" : 5312
    },
    {
      "buffer" : 0,
      "byteOffset" : 506180,
      "byteLength" : 2656
    },
    {
      "buffer" : 0,
      "byteOffset" : 508836,
      "byteLength" : 2656
    },
    {
      "buffer" : 0,
      "byteOffset" : 511492,
      "byteLength" : 2656
    },
    {
      "buffer" : 0,
      "byteOffset" : 514148,
      "byteLength" : 2656
    },
    {
      "buffer" : 0,
      "byteOffset" : 516804,
      "byteLength" : 12
    },
    {
      "buffer" : 0,
      "byteOffset" : 516816,
      "byteLength" : 48
    },
    {
      "buffer" : 0,
      "byteOffset" : 516864,
      "byteLength" : 48
    },
    {
      "buffer" : 0,
      "byteOffset" : 516912,
      "byteLength" : 64
    },
    {
      "buffer" : 0,
      "byteOffset" : 516976,
      "byteLength" : 32
    },
    {
      "buffer" : 0,
      "byteOffset" : 517008,
      "byteLength" : 32
    },
    {
      "buffer" : 0,
      "byteOffset" : 517040,
      "byteLength" : 32
    },
    {
      "buffer" : 0,
      "byteOffset" : 517072,
      "byteLength" : 32
    }
  ],
  "accessors" : [
    {
      "bufferView" : 0,
      "componentType" : 5123,
      "count" : 6540,
      "type" : "SCALAR"
    },
    {
      "bufferView" : 1,
      "min" : [ -2.75917, 0.699998, -0.305942 ],
      "max" : [ 2.7918, 7.57616, 29.5681 ],
      "componentType" : 5126,
      "count" : 3458,
      "type" : "VEC3"
    },
    {
      "bufferView" : 2,
      "componentType" : 5126,
      "count" : 3458,
      "type" : "VEC3"
    },
    {
      "bufferView" : 3,
      "componentType" : 5126,
      "count" : 3458,
      "type" : "VEC4"
    },
    {
      "bufferView" : 4,
      "componentType" : 5126,
      "count" : 3458,
      "type" : "VEC2"
    },
    {
      "bufferView" : 5,
      "componentType" : 5126,
      "count" : 3458,
      "type" : "VEC2"
    },
    {
      "bufferView" : 6,
      "componentType" : 5126,
      "count" : 3458,
      "type" : "VEC2"
    },
    {
      "bufferView" : 7,
      "componentType" : 5126,
      "count" : 3458,
      "type" : "VEC2"
    },
    {
      "bufferView" : 8,
      "componentType" : 5123,
      "count" : 2988,
      "type" : "SCALAR"
    },
    {
      "bufferView" : 9,
      "min" : [ -2.1695, 0.299998, -0.249683 ],
      "max" : [ 2.74468, 6.17616, 29.527 ],
      "componentType" : 5126,
      "count" : 1294,
      "type" : "VEC3"
    },
    {
      "bufferView" : 10,
      "componentType" : 5126,
      "count" : 1294,
      "type" : "VEC3"
    },
    {
      "bufferView" : 11,
      "componentType" : 5126,
      "count" : 1294,
      "type" : "VEC4"
    },
    {
      "bufferView" : 12,
      "componentType" : 5126,
      "count" : 1294,
      "type" : "VEC2"
    },
    {
      "bufferView" : 13,
      "componentType" : 5126,
      "count" : 1294,
      "type" : "VEC2"
    },
    {
      "bufferView" : 14,
      "componentType" : 5126,
      "count" : 1294,
      "type" : "VEC2"
    },
    {
      "bufferView" : 15,
      "componentType" : 5126,
      "count" : 1294,
      "type" : "VEC2"
    },
    {
      "bufferView" : 16,
      "componentType" : 5123,
      "count" : 3390,
      "type" : "SCALAR"
    },
    {
      "bufferView" : 17,
      "min" : [ -2.7918, 4.8, -0.305942 ],
      "max" : [ 2.7652, 8.09616, 26.4933 ],
      "componentType" : 5126,
      "count" : 1334,
      "type" : "VEC3"
    },
    {
      "bufferView" : 18,
      "componentType" : 5126,
      "count" : 1334,
      "type" : "VEC3"
    },
    {
      "bufferView" : 19,
      "componentType" : 5126,
      "count" : 1334,
      "type" : "VEC4"
    },
    {
      "bufferView" : 20,
      "componentType" : 5126,
      "count" : 1334,
      "type" : "VEC2"
    },
    {
      "bufferView" : 21,
      "componentType" : 5126,
      "count" : 1334,
      "type" : "VEC2"
    },
    {
      "bufferView" : 22,
      "componentType" : 5126,
      "count" : 1334,
      "type" : "VEC2"
    },
    {
      "bufferView" : 23,
      "componentType" : 5126,
      "count" : 1334,
      "type" : "VEC2"
    },
    {
      "bufferView" : 24,
      "componentType" : 5123,
      "count" : 810,
      "type" : "SCALAR"
    },
    {
      "bufferView" : 25,
      "min" : [ -2.7918, 5.07002, -0.147715 ],
      "max" : [ -1.8543, 5.6, 26.335 ],
      "componentType" : 5126,
      "count" : 342,
      "type" : "VEC3"
    },
    {
      "bufferView" : 26,
      "componentType" : 5126,
      "count" : 342,
      "type" : "VEC3"
    },
    {
      "bufferView" : 27,
      "componentType" : 5126,
      "count" : 342,
      "type" : "VEC4"
    },
    {
      "bufferView" : 28,
      "componentType" : 5126,
      "count" : 342,
      "type" : "VEC2"
    },
    {
      "bufferView" : 29,
      "componentType" : 5126,
      "count" : 342,
      "type" : "VEC2"
    },
    {
      "bufferView" : 30,
      "componentType" : 5126,
      "count" : 342,
      "type" : "VEC2"
    },
    {
      "bufferView" : 31,
      "componentType" : 5126,
      "count" : 342,
      "type" : "VEC2"
    },
    {
      "bufferView" : 32,
      "componentType" : 5123,
      "count" : 1314,
      "type" : "SCALAR"
    },
    {
      "bufferView" : 33,
      "min" : [ -1.98747, -0.234174, -0.297339 ],
      "max" : [ -1.70946, 0.300002, 29.527 ],
      "componentType" : 5126,
      "count" : 332,
      "type" : "VEC3"
    },
    {
      "bufferView" : 34,
      "componentType" : 5126,
      "count" : 332,
      "type" : "VEC3"
    },
    {
      "bufferView" : 35,
      "componentType" : 5126,
      "count" : 332,
      "type" : "VEC4"
    },
    {
      "bufferView" : 36,
      "componentType" : 5126,
      "count" : 332,
      "type" : "VEC2"
    },
    {
      "bufferView" : 37,
      "componentType" : 5126,
      "count" : 332,
      "type" : "VEC2"
    },
    {
      "bufferView" : 38,
      "componentType" : 5126,
      "count" : 332,
      "type" : "VEC2"
    },
    {
      "bufferView" : 39,
      "componentType" : 5126,
      "count" : 332,
      "type" : "VEC2"
    },
    {
      "bufferView" : 40,
      "componentType" : 5123,
      "count" : 6,
      "type" : "SCALAR"
    },
    {
      "bufferView" : 41,
      "min" : [ -1.70822, 5.97741, 0.00458984 ],
      "max" : [ 2.29178, 5.97741, 29.5369 ],
      "componentType" : 5126,
      "count" : 4,
      "type" : "VEC3"
    },
    {
      "bufferView" : 42,
      "componentType" : 5126,
      "count" : 4,
      "type" : "VEC3"
    },
    {
      "bufferView" : 43,
      "componentType" : 5126,
      "count" : 4,
      "type" : "VEC4"
    },
    {
      "bufferView" : 44,
      "componentType" : 5126,
      "count" : 4,
      "type" : "VEC2"
    },
    {
      "bufferView" : 45,
      "componentType" : 5126,
      "count" : 4,
      "type" : "VEC2"
    },
    {
      "bufferView" : 46,
      "componentType" : 5126,
      "count" : 4,
      "type" : "VEC2"
    },
    {
      "bufferView" : 47,
      "componentType" : 5126,
      "count" : 4,
      "type" : "VEC2"
    }
  ]
}
