{
  "asset" : {
    "generator" : "UE Viewer (umodel) build 1544 based",
    "version" : "2.0"
  },
  "scene" : 0,
  "scenes" : [
    {
      "nodes" : [ 0 ]
    }
  ],
  "nodes" : [
    {
      "name" : "SM_ENV_LKNVLD_Building_A_Lod1",
      "mesh" : 0
    }
  ],
  "materials" : [
    {
      "name" : "MI_ENV_LKNVLD_Roof_J",
      "pbrMetallicRoughness" : {
        "baseColorFactor" : [ 0.3, 0.3, 0.3, 1.0 ],
        "metallicFactor" : 0.1,
        "roughnessFactor" : 0.5
      }
    },
    {
      "name" : "MI_ENV_LKNVLD_Roof_F",
      "pbrMetallicRoughness" : {
        "baseColorFactor" : [ 0.9, 0.3, 0.3, 1.0 ],
        "metallicFactor" : 0.1,
        "roughnessFactor" : 0.5
      }
    },
    {
      "name" : "MI_ENV_LKNVLD_ConcreteWall_N",
      "pbrMetallicRoughness" : {
        "baseColorFactor" : [ 0.3, 0.9, 0.3, 1.0 ],
        "metallicFactor" : 0.1,
        "roughnessFactor" : 0.5
      }
    },
    {
      "name" : "MI_ENV_LKNVLD_WoodWindows_G",
      "pbrMetallicRoughness" : {
        "baseColorFactor" : [ 0.3, 0.3, 0.9, 1.0 ],
        "metallicFactor" : 0.1,
        "roughnessFactor" : 0.5
      }
    },
    {
      "name" : "MI_ENV_LKNVLD_Metal_A",
      "pbrMetallicRoughness" : {
        "baseColorFactor" : [ 0.9, 0.9, 0.9, 1.0 ],
        "metallicFactor" : 0.1,
        "roughnessFactor" : 0.5
      }
    },
    {
      "name" : "MI_ENV_LKNVLD_ConcreteFloor_C",
      "pbrMetallicRoughness" : {
        "baseColorFactor" : [ 0.9, 0.9, 0.3, 1.0 ],
        "metallicFactor" : 0.1,
        "roughnessFactor" : 0.5
      }
    },
    {
      "name" : "MI_ENV_LKNVLD_ConcreteWall_F",
      "pbrMetallicRoughness" : {
        "baseColorFactor" : [ 0.9, 0.3, 0.9, 1.0 ],
        "metallicFactor" : 0.1,
        "roughnessFactor" : 0.5
      }
    },
    {
      "name" : "MI_ENV_LKNVLD_ConcreteWall_C",
      "pbrMetallicRoughness" : {
        "baseColorFactor" : [ 0.3, 0.9, 0.9, 1.0 ],
        "metallicFactor" : 0.1,
        "roughnessFactor" : 0.5
      }
    },
    {
      "name" : "MI_ENV_LKNVLD_WoodPillar_A",
      "pbrMetallicRoughness" : {
        "baseColorFactor" : [ 1, 0.3, 0.3, 1.0 ],
        "metallicFactor" : 0.1,
        "roughnessFactor" : 0.5
      }
    },
    {
      "name" : "MI_ENV_LKNVLD_ConcreteFloor_F",
      "pbrMetallicRoughness" : {
        "baseColorFactor" : [ 0.6, 0.3, 0.3, 1.0 ],
        "metallicFactor" : 0.1,
        "roughnessFactor" : 0.5
      }
    },
    {
      "name" : "MI_ENV_LKNVLD_Roof_C",
      "pbrMetallicRoughness" : {
        "baseColorFactor" : [ 1, 0.9, 0.3, 1.0 ],
        "metallicFactor" : 0.1,
        "roughnessFactor" : 0.5
      }
    },
    {
      "name" : "MI_ENV_LKNVLD_Pipe_E",
      "pbrMetallicRoughness" : {
        "baseColorFactor" : [ 1, 0.3, 0.9, 1.0 ],
        "metallicFactor" : 0.1,
        "roughnessFactor" : 0.5
      }
    }
  ],
  "meshes" : [
    {
      "primitives" : [
        {
          "attributes" : {
            "POSITION" : 1,
            "NORMAL" : 2,
            "TANGENT" : 3,
            "TEXCOORD_0" : 4,
            "TEXCOORD_1" : 5,
            "TEXCOORD_2" : 6,
            "TEXCOORD_3" : 7
          },
          "indices" : 0,
          "material" : 0
        },
        {
          "attributes" : {
            "POSITION" : 9,
            "NORMAL" : 10,
            "TANGENT" : 11,
            "TEXCOORD_0" : 12,
            "TEXCOORD_1" : 13,
            "TEXCOORD_2" : 14,
            "TEXCOORD_3" : 15
          },
          "indices" : 8,
          "material" : 1
        },
        {
          "attributes" : {
            "POSITION" : 17,
            "NORMAL" : 18,
            "TANGENT" : 19,
            "TEXCOORD_0" : 20,
            "TEXCOORD_1" : 21,
            "TEXCOORD_2" : 22,
            "TEXCOORD_3" : 23
          },
          "indices" : 16,
          "material" : 2
        },
        {
          "attributes" : {
            "POSITION" : 25,
            "NORMAL" : 26,
            "TANGENT" : 27,
            "TEXCOORD_0" : 28,
            "TEXCOORD_1" : 29,
            "TEXCOORD_2" : 30,
            "TEXCOORD_3" : 31
          },
          "indices" : 24,
          "material" : 3
        },
        {
          "attributes" : {
            "POSITION" : 33,
            "NORMAL" : 34,
            "TANGENT" : 35,
            "TEXCOORD_0" : 36,
            "TEXCOORD_1" : 37,
            "TEXCOORD_2" : 38,
            "TEXCOORD_3" : 39
          },
          "indices" : 32,
          "material" : 4
        },
        {
          "attributes" : {
            "POSITION" : 41,
            "NORMAL" : 42,
            "TANGENT" : 43,
            "TEXCOORD_0" : 44,
            "TEXCOORD_1" : 45,
            "TEXCOORD_2" : 46,
            "TEXCOORD_3" : 47
          },
          "indices" : 40,
          "material" : 5
        },
        {
          "attributes" : {
            "POSITION" : 49,
            "NORMAL" : 50,
            "TANGENT" : 51,
            "TEXCOORD_0" : 52,
            "TEXCOORD_1" : 53,
            "TEXCOORD_2" : 54,
            "TEXCOORD_3" : 55
          },
          "indices" : 48,
          "material" : 6
        },
        {
          "attributes" : {
            "POSITION" : 57,
            "NORMAL" : 58,
            "TANGENT" : 59,
            "TEXCOORD_0" : 60,
            "TEXCOORD_1" : 61,
            "TEXCOORD_2" : 62,
            "TEXCOORD_3" : 63
          },
          "indices" : 56,
          "material" : 7
        },
        {
          "attributes" : {
            "POSITION" : 65,
            "NORMAL" : 66,
            "TANGENT" : 67,
            "TEXCOORD_0" : 68,
            "TEXCOORD_1" : 69,
            "TEXCOORD_2" : 70,
            "TEXCOORD_3" : 71
          },
          "indices" : 64,
          "material" : 8
        },
        {
          "attributes" : {
            "POSITION" : 73,
            "NORMAL" : 74,
            "TANGENT" : 75,
            "TEXCOORD_0" : 76,
            "TEXCOORD_1" : 77,
            "TEXCOORD_2" : 78,
            "TEXCOORD_3" : 79
          },
          "indices" : 72,
          "material" : 9
        },
        {
          "attributes" : {
            "POSITION" : 81,
            "NORMAL" : 82,
            "TANGENT" : 83,
            "TEXCOORD_0" : 84,
            "TEXCOORD_1" : 85,
            "TEXCOORD_2" : 86,
            "TEXCOORD_3" : 87
          },
          "indices" : 80,
          "material" : 10
        },
        {
          "attributes" : {
            "POSITION" : 89,
            "NORMAL" : 90,
            "TANGENT" : 91,
            "TEXCOORD_0" : 92,
            "TEXCOORD_1" : 93,
            "TEXCOORD_2" : 94,
            "TEXCOORD_3" : 95
          },
          "indices" : 88,
          "material" : 11
        }
      ],
      "name" : "SM_ENV_LKNVLD_Building_A_Lod1"
    }
  ],
  "buffers" : [
    {
      "uri" : "SM_ENV_LKNVLD_Building_A_Lod1.bin",
      "byteLength" : 594060
    }
  ],
  "bufferViews" : [
    {
      "buffer" : 0,
      "byteOffset" : 0,
      "byteLength" : 708
    },
    {
      "buffer" : 0,
      "byteOffset" : 708,
      "byteLength" : 1968
    },
    {
      "buffer" : 0,
      "byteOffset" : 2676,
      "byteLength" : 1968
    },
    {
      "buffer" : 0,
      "byteOffset" : 4644,
      "byteLength" : 2624
    },
    {
      "buffer" : 0,
      "byteOffset" : 7268,
      "byteLength" : 1312
    },
    {
      "buffer" : 0,
      "byteOffset" : 8580,
      "byteLength" : 1312
    },
    {
      "buffer" : 0,
      "byteOffset" : 9892,
      "byteLength" : 1312
    },
    {
      "buffer" : 0,
      "byteOffset" : 11204,
      "byteLength" : 1312
    },
    {
      "buffer" : 0,
      "byteOffset" : 12516,
      "byteLength" : 576
    },
    {
      "buffer" : 0,
      "byteOffset" : 13092,
      "byteLength" : 2304
    },
    {
      "buffer" : 0,
      "byteOffset" : 15396,
      "byteLength" : 2304
    },
    {
      "buffer" : 0,
      "byteOffset" : 17700,
      "byteLength" : 3072
    },
    {
      "buffer" : 0,
      "byteOffset" : 20772,
      "byteLength" : 1536
    },
    {
      "buffer" : 0,
      "byteOffset" : 22308,
      "byteLength" : 1536
    },
    {
      "buffer" : 0,
      "byteOffset" : 23844,
      "byteLength" : 1536
    },
    {
      "buffer" : 0,
      "byteOffset" : 25380,
      "byteLength" : 1536
    },
    {
      "buffer" : 0,
      "byteOffset" : 26916,
      "byteLength" : 5952
    },
    {
      "buffer" : 0,
      "byteOffset" : 32868,
      "byteLength" : 13188
    },
    {
      "buffer" : 0,
      "byteOffset" : 46056,
      "byteLength" : 13188
    },
    {
      "buffer" : 0,
      "byteOffset" : 59244,
      "byteLength" : 17584
    },
    {
      "buffer" : 0,
      "byteOffset" : 76828,
      "byteLength" : 8792
    },
    {
      "buffer" : 0,
      "byteOffset" : 85620,
      "byteLength" : 8792
    },
    {
      "buffer" : 0,
      "byteOffset" : 94412,
      "byteLength" : 8792
    },
    {
      "buffer" : 0,
      "byteOffset" : 103204,
      "byteLength" : 8792
    },
    {
      "buffer" : 0,
      "byteOffset" : 111996,
      "byteLength" : 480
    },
    {
      "buffer" : 0,
      "byteOffset" : 112476,
      "byteLength" : 1536
    },
    {
      "buffer" : 0,
      "byteOffset" : 114012,
      "byteLength" : 1536
    },
    {
      "buffer" : 0,
      "byteOffset" : 115548,
      "byteLength" : 2048
    },
    {
      "buffer" : 0,
      "byteOffset" : 117596,
      "byteLength" : 1024
    },
    {
      "buffer" : 0,
      "byteOffset" : 118620,
      "byteLength" : 1024
    },
    {
      "buffer" : 0,
      "byteOffset" : 119644,
      "byteLength" : 1024
    },
    {
      "buffer" : 0,
      "byteOffset" : 120668,
      "byteLength" : 1024
    },
    {
      "buffer" : 0,
      "byteOffset" : 121692,
      "byteLength" : 576
    },
    {
      "buffer" : 0,
      "byteOffset" : 122268,
      "byteLength" : 2304
    },
    {
      "buffer" : 0,
      "byteOffset" : 124572,
      "byteLength" : 2304
    },
    {
      "buffer" : 0,
      "byteOffset" : 126876,
      "byteLength" : 3072
    },
    {
      "buffer" : 0,
      "byteOffset" : 129948,
      "byteLength" : 1536
    },
    {
      "buffer" : 0,
      "byteOffset" : 131484,
      "byteLength" : 1536
    },
    {
      "buffer" : 0,
      "byteOffset" : 133020,
      "byteLength" : 1536
    },
    {
      "buffer" : 0,
      "byteOffset" : 134556,
      "byteLength" : 1536
    },
    {
      "buffer" : 0,
      "byteOffset" : 136092,
      "byteLength" : 96
    },
    {
      "buffer" : 0,
      "byteOffset" : 136188,
      "byteLength" : 384
    },
    {
      "buffer" : 0,
      "byteOffset" : 136572,
      "byteLength" : 384
    },
    {
      "buffer" : 0,
      "byteOffset" : 136956,
      "byteLength" : 512
    },
    {
      "buffer" : 0,
      "byteOffset" : 137468,
      "byteLength" : 256
    },
    {
      "buffer" : 0,
      "byteOffset" : 137724,
      "byteLength" : 256
    },
    {
      "buffer" : 0,
      "byteOffset" : 137980,
      "byteLength" : 256
    },
    {
      "buffer" : 0,
      "byteOffset" : 138236,
      "byteLength" : 256
    },
    {
      "buffer" : 0,
      "byteOffset" : 138492,
      "byteLength" : 1152
    },
    {
      "buffer" : 0,
      "byteOffset" : 139644,
      "byteLength" : 2496
    },
    {
      "buffer" : 0,
      "byteOffset" : 142140,
      "byteLength" : 2496
    },
    {
      "buffer" : 0,
      "byteOffset" : 144636,
      "byteLength" : 3328
    },
    {
      "buffer" : 0,
      "byteOffset" : 147964,
      "byteLength" : 1664
    },
    {
      "buffer" : 0,
      "byteOffset" : 149628,
      "byteLength" : 1664
    },
    {
      "buffer" : 0,
      "byteOffset" : 151292,
      "byteLength" : 1664
    },
    {
      "buffer" : 0,
      "byteOffset" : 152956,
      "byteLength" : 1664
    },
    {
      "buffer" : 0,
      "byteOffset" : 154620,
      "byteLength" : 768
    },
    {
      "buffer" : 0,
      "byteOffset" : 155388,
      "byteLength" : 2040
    },
    {
      "buffer" : 0,
      "byteOffset" : 157428,
      "byteLength" : 2040
    },
    {
      "buffer" : 0,
      "byteOffset" : 159468,
      "byteLength" : 2720
    },
    {
      "buffer" : 0,
      "byteOffset" : 162188,
      "byteLength" : 1360
    },
    {
      "buffer" : 0,
      "byteOffset" : 163548,
      "byteLength" : 1360
    },
    {
      "buffer" : 0,
      "byteOffset" : 164908,
      "byteLength" : 1360
    },
    {
      "buffer" : 0,
      "byteOffset" : 166268,
      "byteLength" : 1360
    },
    {
      "buffer" : 0,
      "byteOffset" : 167628,
      "byteLength" : 12036
    },
    {
      "buffer" : 0,
      "byteOffset" : 179664,
      "byteLength" : 48144
    },
    {
      "buffer" : 0,
      "byteOffset" : 227808,
      "byteLength" : 48144
    },
    {
      "buffer" : 0,
      "byteOffset" : 275952,
      "byteLength" : 64192
    },
    {
      "buffer" : 0,
      "byteOffset" : 340144,
      "byteLength" : 32096
    },
    {
      "buffer" : 0,
      "byteOffset" : 372240,
      "byteLength" : 32096
    },
    {
      "buffer" : 0,
      "byteOffset" : 404336,
      "byteLength" : 32096
    },
    {
      "buffer" : 0,
      "byteOffset" : 436432,
      "byteLength" : 32096
    },
    {
      "buffer" : 0,
      "byteOffset" : 468528,
      "byteLength" : 192
    },
    {
      "buffer" : 0,
      "byteOffset" : 468720,
      "byteLength" : 768
    },
    {
      "buffer" : 0,
      "byteOffset" : 469488,
      "byteLength" : 768
    },
    {
      "buffer" : 0,
      "byteOffset" : 470256,
      "byteLength" : 1024
    },
    {
      "buffer" : 0,
      "byteOffset" : 471280,
      "byteLength" : 512
    },
    {
      "buffer" : 0,
      "byteOffset" : 471792,
      "byteLength" : 512
    },
    {
      "buffer" : 0,
      "byteOffset" : 472304,
      "byteLength" : 512
    },
    {
      "buffer" : 0,
      "byteOffset" : 472816,
      "byteLength" : 512
    },
    {
      "buffer" : 0,
      "byteOffset" : 473328,
      "byteLength" : 576
    },
    {
      "buffer" : 0,
      "byteOffset" : 473904,
      "byteLength" : 2304
    },
    {
      "buffer" : 0,
      "byteOffset" : 476208,
      "byteLength" : 2304
    },
    {
      "buffer" : 0,
      "byteOffset" : 478512,
      "byteLength" : 3072
    },
    {
      "buffer" : 0,
      "byteOffset" : 481584,
      "byteLength" : 1536
    },
    {
      "buffer" : 0,
      "byteOffset" : 483120,
      "byteLength" : 1536
    },
    {
      "buffer" : 0,
      "byteOffset" : 484656,
      "byteLength" : 1536
    },
    {
      "buffer" : 0,
      "byteOffset" : 486192,
      "byteLength" : 1536
    },
    {
      "buffer" : 0,
      "byteOffset" : 487728,
      "byteLength" : 7404
    },
    {
      "buffer" : 0,
      "byteOffset" : 495132,
      "byteLength" : 16488
    },
    {
      "buffer" : 0,
      "byteOffset" : 511620,
      "byteLength" : 16488
    },
    {
      "buffer" : 0,
      "byteOffset" : 528108,
      "byteLength" : 21984
    },
    {
      "buffer" : 0,
      "byteOffset" : 550092,
      "byteLength" : 10992
    },
    {
      "buffer" : 0,
      "byteOffset" : 561084,
      "byteLength" : 10992
    },
    {
      "buffer" : 0,
      "byteOffset" : 572076,
      "byteLength" : 10992
    },
    {
      "buffer" : 0,
      "byteOffset" : 583068,
      "byteLength" : 10992
    }
  ],
  "accessors" : [
    {
      "bufferView" : 0,
      "componentType" : 5123,
      "count" : 354,
      "type" : "SCALAR"
    },
    {
      "bufferView" : 1,
      "min" : [ -53.55, 12.094, -103.05 ],
      "max" : [ -36.45, 22.8739, -79.95 ],
      "componentType" : 5126,
      "count" : 164,
      "type" : "VEC3"
    },
    {
      "bufferView" : 2,
      "componentType" : 5126,
      "count" : 164,
      "type" : "VEC3"
    },
    {
      "bufferView" : 3,
      "componentType" : 5126,
      "count" : 164,
      "type" : "VEC4"
    },
    {
      "bufferView" : 4,
      "componentType" : 5126,
      "count" : 164,
      "type" : "VEC2"
    },
    {
      "bufferView" : 5,
      "componentType" : 5126,
      "count" : 164,
      "type" : "VEC2"
    },
    {
      "bufferView" : 6,
      "componentType" : 5126,
      "count" : 164,
      "type" : "VEC2"
    },
    {
      "bufferView" : 7,
      "componentType" : 5126,
      "count" : 164,
      "type" : "VEC2"
    },
    {
      "bufferView" : 8,
      "componentType" : 5123,
      "count" : 288,
      "type" : "SCALAR"
    },
    {
      "bufferView" : 9,
      "min" : [ -53.55, 6.6, -103.05 ],
      "max" : [ -36.45, 19.094, -79.95 ],
      "componentType" : 5126,
      "count" : 192,
      "type" : "VEC3"
    },
    {
      "bufferView" : 10,
      "componentType" : 5126,
      "count" : 192,
      "type" : "VEC3"
    },
    {
      "bufferView" : 11,
      "componentType" : 5126,
      "count" : 192,
      "type" : "VEC4"
    },
    {
      "bufferView" : 12,
      "componentType" : 5126,
      "count" : 192,
      "type" : "VEC2"
    },
    {
      "bufferView" : 13,
      "componentType" : 5126,
      "count" : 192,
      "type" : "VEC2"
    },
    {
      "bufferView" : 14,
      "componentType" : 5126,
      "count" : 192,
      "type" : "VEC2"
    },
    {
      "bufferView" : 15,
      "componentType" : 5126,
      "count" : 192,
      "type" : "VEC2"
    },
    {
      "bufferView" : 16,
      "componentType" : 5123,
      "count" : 2976,
      "type" : "SCALAR"
    },
    {
      "bufferView" : 17,
      "min" : [ -54.3416, 12.2939, -103.837 ],
      "max" : [ -35.688, 23.3036, -79.182 ],
      "componentType" : 5126,
      "count" : 1099,
      "type" : "VEC3"
    },
    {
      "bufferView" : 18,
      "componentType" : 5126,
      "count" : 1099,
      "type" : "VEC3"
    },
    {
      "bufferView" : 19,
      "componentType" : 5126,
      "count" : 1099,
      "type" : "VEC4"
    },
    {
      "bufferView" : 20,
      "componentType" : 5126,
      "count" : 1099,
      "type" : "VEC2"
    },
    {
      "bufferView" : 21,
      "componentType" : 5126,
      "count" : 1099,
      "type" : "VEC2"
    },
    {
      "bufferView" : 22,
      "componentType" : 5126,
      "count" : 1099,
      "type" : "VEC2"
    },
    {
      "bufferView" : 23,
      "componentType" : 5126,
      "count" : 1099,
      "type" : "VEC2"
    },
    {
      "bufferView" : 24,
      "componentType" : 5123,
      "count" : 240,
      "type" : "SCALAR"
    },
    {
      "bufferView" : 25,
      "min" : [ -47.7508, 7.4543, -100.52 ],
      "max" : [ -38.98, 23.009, -82.48 ],
      "componentType" : 5126,
      "count" : 128,
      "type" : "VEC3"
    },
    {
      "bufferView" : 26,
      "componentType" : 5126,
      "count" : 128,
      "type" : "VEC3"
    },
    {
      "bufferView" : 27,
      "componentType" : 5126,
      "count" : 128,
      "type" : "VEC4"
    },
    {
      "bufferView" : 28,
      "componentType" : 5126,
      "count" : 128,
      "type" : "VEC2"
    },
    {
      "bufferView" : 29,
      "componentType" : 5126,
      "count" : 128,
      "type" : "VEC2"
    },
    {
      "bufferView" : 30,
      "componentType" : 5126,
      "count" : 128,
      "type" : "VEC2"
    },
    {
      "bufferView" : 31,
      "componentType" : 5126,
      "count" : 128,
      "type" : "VEC2"
    },
    {
      "bufferView" : 32,
      "componentType" : 5123,
      "count" : 288,
      "type" : "SCALAR"
    },
    {
      "bufferView" : 33,
      "min" : [ -48.26, 6.65, -100.6 ],
      "max" : [ -41.74, 9.9, -82.4 ],
      "componentType" : 5126,
      "count" : 192,
      "type" : "VEC3"
    },
    {
      "bufferView" : 34,
      "componentType" : 5126,
      "count" : 192,
      "type" : "VEC3"
    },
    {
      "bufferView" : 35,
      "componentType" : 5126,
      "count" : 192,
      "type" : "VEC4"
    },
    {
      "bufferView" : 36,
      "componentType" : 5126,
      "count" : 192,
      "type" : "VEC2"
    },
    {
      "bufferView" : 37,
      "componentType" : 5126,
      "count" : 192,
      "type" : "VEC2"
    },
    {
      "bufferView" : 38,
      "componentType" : 5126,
      "count" : 192,
      "type" : "VEC2"
    },
    {
      "bufferView" : 39,
      "componentType" : 5126,
      "count" : 192,
      "type" : "VEC2"
    },
    {
      "bufferView" : 40,
      "componentType" : 5123,
      "count" : 48,
      "type" : "SCALAR"
    },
    {
      "bufferView" : 41,
      "min" : [ -51, 6.6, -100.5 ],
      "max" : [ -39, 19, -82.5 ],
      "componentType" : 5126,
      "count" : 32,
      "type" : "VEC3"
    },
    {
      "bufferView" : 42,
      "componentType" : 5126,
      "count" : 32,
      "type" : "VEC3"
    },
    {
      "bufferView" : 43,
      "componentType" : 5126,
      "count" : 32,
      "type" : "VEC4"
    },
    {
      "bufferView" : 44,
      "componentType" : 5126,
      "count" : 32,
      "type" : "VEC2"
    },
    {
      "bufferView" : 45,
      "componentType" : 5126,
      "count" : 32,
      "type" : "VEC2"
    },
    {
      "bufferView" : 46,
      "componentType" : 5126,
      "count" : 32,
      "type" : "VEC2"
    },
    {
      "bufferView" : 47,
      "componentType" : 5126,
      "count" : 32,
      "type" : "VEC2"
    },
    {
      "bufferView" : 48,
      "componentType" : 5123,
      "count" : 576,
      "type" : "SCALAR"
    },
    {
      "bufferView" : 49,
      "min" : [ -52.65, 6.6, -102.15 ],
      "max" : [ -37.35, 12, -80.85 ],
      "componentType" : 5126,
      "count" : 208,
      "type" : "VEC3"
    },
    {
      "bufferView" : 50,
      "componentType" : 5126,
      "count" : 208,
      "type" : "VEC3"
    },
    {
      "bufferView" : 51,
      "componentType" : 5126,
      "count" : 208,
      "type" : "VEC4"
    },
    {
      "bufferView" : 52,
      "componentType" : 5126,
      "count" : 208,
      "type" : "VEC2"
    },
    {
      "bufferView" : 53,
      "componentType" : 5126,
      "count" : 208,
      "type" : "VEC2"
    },
    {
      "bufferView" : 54,
      "componentType" : 5126,
      "count" : 208,
      "type" : "VEC2"
    },
    {
      "bufferView" : 55,
      "componentType" : 5126,
      "count" : 208,
      "type" : "VEC2"
    },
    {
      "bufferView" : 56,
      "componentType" : 5123,
      "count" : 384,
      "type" : "SCALAR"
    },
    {
      "bufferView" : 57,
      "min" : [ -52.65, 7.53125, -102.15 ],
      "max" : [ -37.35, 19, -80.85 ],
      "componentType" : 5126,
      "count" : 170,
      "type" : "VEC3"
    },
    {
      "bufferView" : 58,
      "componentType" : 5126,
      "count" : 170,
      "type" : "VEC3"
    },
    {
      "bufferView" : 59,
      "componentType" : 5126,
      "count" : 170,
      "type" : "VEC4"
    },
    {
      "bufferView" : 60,
      "componentType" : 5126,
      "count" : 170,
      "type" : "VEC2"
    },
    {
      "bufferView" : 61,
      "componentType" : 5126,
      "count" : 170,
      "type" : "VEC2"
    },
    {
      "bufferView" : 62,
      "componentType" : 5126,
      "count" : 170,
      "type" : "VEC2"
    },
    {
      "bufferView" : 63,
      "componentType" : 5126,
      "count" : 170,
      "type" : "VEC2"
    },
    {
      "bufferView" : 64,
      "componentType" : 5123,
      "count" : 6018,
      "type" : "SCALAR"
    },
    {
      "bufferView" : 65,
      "min" : [ -51.35, 6.6, -102.7 ],
      "max" : [ -36.8, 19, -80.3 ],
      "componentType" : 5126,
      "count" : 4012,
      "type" : "VEC3"
    },
    {
      "bufferView" : 66,
      "componentType" : 5126,
      "count" : 4012,
      "type" : "VEC3"
    },
    {
      "bufferView" : 67,
      "componentType" : 5126,
      "count" : 4012,
      "type" : "VEC4"
    },
    {
      "bufferView" : 68,
      "componentType" : 5126,
      "count" : 4012,
      "type" : "VEC2"
    },
    {
      "bufferView" : 69,
      "componentType" : 5126,
      "count" : 4012,
      "type" : "VEC2"
    },
    {
      "bufferView" : 70,
      "componentType" : 5126,
      "count" : 4012,
      "type" : "VEC2"
    },
    {
      "bufferView" : 71,
      "componentType" : 5126,
      "count" : 4012,
      "type" : "VEC2"
    },
    {
      "bufferView" : 72,
      "componentType" : 5123,
      "count" : 96,
      "type" : "SCALAR"
    },
    {
      "bufferView" : 73,
      "min" : [ -54.65, 6, -104.15 ],
      "max" : [ -35.35, 6.6, -78.85 ],
      "componentType" : 5126,
      "count" : 64,
      "type" : "VEC3"
    },
    {
      "bufferView" : 74,
      "componentType" : 5126,
      "count" : 64,
      "type" : "VEC3"
    },
    {
      "bufferView" : 75,
      "componentType" : 5126,
      "count" : 64,
      "type" : "VEC4"
    },
    {
      "bufferView" : 76,
      "componentType" : 5126,
      "count" : 64,
      "type" : "VEC2"
    },
    {
      "bufferView" : 77,
      "componentType" : 5126,
      "count" : 64,
      "type" : "VEC2"
    },
    {
      "bufferView" : 78,
      "componentType" : 5126,
      "count" : 64,
      "type" : "VEC2"
    },
    {
      "bufferView" : 79,
      "componentType" : 5126,
      "count" : 64,
      "type" : "VEC2"
    },
    {
      "bufferView" : 80,
      "componentType" : 5123,
      "count" : 288,
      "type" : "SCALAR"
    },
    {
      "bufferView" : 81,
      "min" : [ -53.43, 6.6, -102.93 ],
      "max" : [ -36.57, 19, -80.07 ],
      "componentType" : 5126,
      "count" : 192,
      "type" : "VEC3"
    },
    {
      "bufferView" : 82,
      "componentType" : 5126,
      "count" : 192,
      "type" : "VEC3"
    },
    {
      "bufferView" : 83,
      "componentType" : 5126,
      "count" : 192,
      "type" : "VEC4"
    },
    {
      "bufferView" : 84,
      "componentType" : 5126,
      "count" : 192,
      "type" : "VEC2"
    },
    {
      "bufferView" : 85,
      "componentType" : 5126,
      "count" : 192,
      "type" : "VEC2"
    },
    {
      "bufferView" : 86,
      "componentType" : 5126,
      "count" : 192,
      "type" : "VEC2"
    },
    {
      "bufferView" : 87,
      "componentType" : 5126,
      "count" : 192,
      "type" : "VEC2"
    },
    {
      "bufferView" : 88,
      "componentType" : 5123,
      "count" : 3702,
      "type" : "SCALAR"
    },
    {
      "bufferView" : 89,
      "min" : [ -51.945, 11.7446, -102.318 ],
      "max" : [ -36.2083, 21.0527, -82.481 ],
      "componentType" : 5126,
      "count" : 1374,
      "type" : "VEC3"
    },
    {
      "bufferView" : 90,
      "componentType" : 5126,
      "count" : 1374,
      "type" : "VEC3"
    },
    {
      "bufferView" : 91,
      "componentType" : 5126,
      "count" : 1374,
      "type" : "VEC4"
    },
    {
      "bufferView" : 92,
      "componentType" : 5126,
      "count" : 1374,
      "type" : "VEC2"
    },
    {
      "bufferView" : 93,
      "componentType" : 5126,
      "count" : 1374,
      "type" : "VEC2"
    },
    {
      "bufferView" : 94,
      "componentType" : 5126,
      "count" : 1374,
      "type" : "VEC2"
    },
    {
      "bufferView" : 95,
      "componentType" : 5126,
      "count" : 1374,
      "type" : "VEC2"
    }
  ]
}
