{
  "asset" : {
    "generator" : "UE Viewer (umodel) build 1544 based",
    "version" : "2.0"
  },
  "scene" : 0,
  "scenes" : [
    {
      "nodes" : [ 0 ]
    }
  ],
  "nodes" : [
    {
      "name" : "SM_ENV_LKNVLD_Hokage_Gate_Wall_Lod1",
      "mesh" : 0
    }
  ],
  "materials" : [
    {
      "name" : "MI_ENV_LKNVLD_WoodBoard_Natural_Yellowed",
      "pbrMetallicRoughness" : {
        "baseColorFactor" : [ 0.3, 0.3, 0.3, 1.0 ],
        "metallicFactor" : 0.1,
        "roughnessFactor" : 0.5
      }
    },
    {
      "name" : "MI_ENV_LKNVLD_WoodPlain_Brown",
      "pbrMetallicRoughness" : {
        "baseColorFactor" : [ 0.9, 0.3, 0.3, 1.0 ],
        "metallicFactor" : 0.1,
        "roughnessFactor" : 0.5
      }
    },
    {
      "name" : "MI_ENV_LKNVLD_Plaster_Pink",
      "pbrMetallicRoughness" : {
        "baseColorFactor" : [ 0.3, 0.9, 0.3, 1.0 ],
        "metallicFactor" : 0.1,
        "roughnessFactor" : 0.5
      }
    },
    {
      "name" : "MI_ENV_LKNVLD_Plaster_Beige",
      "pbrMetallicRoughness" : {
        "baseColorFactor" : [ 0.3, 0.3, 0.9, 1.0 ],
        "metallicFactor" : 0.1,
        "roughnessFactor" : 0.5
      }
    },
    {
      "name" : "MI_T_ENV_LKNVLD_StoneTrim",
      "pbrMetallicRoughness" : {
        "baseColorFactor" : [ 0.9, 0.9, 0.9, 1.0 ],
        "metallicFactor" : 0.1,
        "roughnessFactor" : 0.5
      }
    },
    {
      "name" : "MI_ENV_LKNVLD_RoofTiles_Yellow",
      "pbrMetallicRoughness" : {
        "baseColorFactor" : [ 0.9, 0.9, 0.3, 1.0 ],
        "metallicFactor" : 0.1,
        "roughnessFactor" : 0.5
      }
    },
    {
      "name" : "MI_ENV_LKNVLD_RoofTiles_Grey",
      "pbrMetallicRoughness" : {
        "baseColorFactor" : [ 0.9, 0.3, 0.9, 1.0 ],
        "metallicFactor" : 0.1,
        "roughnessFactor" : 0.5
      }
    },
    {
      "name" : "MI_ENV_LKNVLD_Pipe_G",
      "pbrMetallicRoughness" : {
        "baseColorFactor" : [ 0.3, 0.9, 0.9, 1.0 ],
        "metallicFactor" : 0.1,
        "roughnessFactor" : 0.5
      }
    }
  ],
  "meshes" : [
    {
      "primitives" : [
        {
          "attributes" : {
            "POSITION" : 1,
            "NORMAL" : 2,
            "TANGENT" : 3,
            "TEXCOORD_0" : 4,
            "TEXCOORD_1" : 5,
            "TEXCOORD_2" : 6,
            "TEXCOORD_3" : 7
          },
          "indices" : 0,
          "material" : 0
        },
        {
          "attributes" : {
            "POSITION" : 9,
            "NORMAL" : 10,
            "TANGENT" : 11,
            "TEXCOORD_0" : 12,
            "TEXCOORD_1" : 13,
            "TEXCOORD_2" : 14,
            "TEXCOORD_3" : 15
          },
          "indices" : 8,
          "material" : 1
        },
        {
          "attributes" : {
            "POSITION" : 17,
            "NORMAL" : 18,
            "TANGENT" : 19,
            "TEXCOORD_0" : 20,
            "TEXCOORD_1" : 21,
            "TEXCOORD_2" : 22,
            "TEXCOORD_3" : 23
          },
          "indices" : 16,
          "material" : 2
        },
        {
          "attributes" : {
            "POSITION" : 25,
            "NORMAL" : 26,
            "TANGENT" : 27,
            "TEXCOORD_0" : 28,
            "TEXCOORD_1" : 29,
            "TEXCOORD_2" : 30,
            "TEXCOORD_3" : 31
          },
          "indices" : 24,
          "material" : 3
        },
        {
          "attributes" : {
            "POSITION" : 33,
            "NORMAL" : 34,
            "TANGENT" : 35,
            "TEXCOORD_0" : 36,
            "TEXCOORD_1" : 37,
            "TEXCOORD_2" : 38,
            "TEXCOORD_3" : 39
          },
          "indices" : 32,
          "material" : 4
        },
        {
          "attributes" : {
            "POSITION" : 41,
            "NORMAL" : 42,
            "TANGENT" : 43,
            "TEXCOORD_0" : 44,
            "TEXCOORD_1" : 45,
            "TEXCOORD_2" : 46,
            "TEXCOORD_3" : 47
          },
          "indices" : 40,
          "material" : 5
        },
        {
          "attributes" : {
            "POSITION" : 49,
            "NORMAL" : 50,
            "TANGENT" : 51,
            "TEXCOORD_0" : 52,
            "TEXCOORD_1" : 53,
            "TEXCOORD_2" : 54,
            "TEXCOORD_3" : 55
          },
          "indices" : 48,
          "material" : 6
        },
        {
          "attributes" : {
            "POSITION" : 57,
            "NORMAL" : 58,
            "TANGENT" : 59,
            "TEXCOORD_0" : 60,
            "TEXCOORD_1" : 61,
            "TEXCOORD_2" : 62,
            "TEXCOORD_3" : 63
          },
          "indices" : 56,
          "material" : 7
        }
      ],
      "name" : "SM_ENV_LKNVLD_Hokage_Gate_Wall_Lod1"
    }
  ],
  "buffers" : [
    {
      "uri" : "SM_ENV_LKNVLD_Hokage_Gate_Wall_Lod1.bin",
      "byteLength" : 531932
    }
  ],
  "bufferViews" : [
    {
      "buffer" : 0,
      "byteOffset" : 0,
      "byteLength" : 740
    },
    {
      "buffer" : 0,
      "byteOffset" : 740,
      "byteLength" : 2280
    },
    {
      "buffer" : 0,
      "byteOffset" : 3020,
      "byteLength" : 2280
    },
    {
      "buffer" : 0,
      "byteOffset" : 5300,
      "byteLength" : 3040
    },
    {
      "buffer" : 0,
      "byteOffset" : 8340,
      "byteLength" : 1520
    },
    {
      "buffer" : 0,
      "byteOffset" : 9860,
      "byteLength" : 1520
    },
    {
      "buffer" : 0,
      "byteOffset" : 11380,
      "byteLength" : 1520
    },
    {
      "buffer" : 0,
      "byteOffset" : 12900,
      "byteLength" : 1520
    },
    {
      "buffer" : 0,
      "byteOffset" : 14420,
      "byteLength" : 8232
    },
    {
      "buffer" : 0,
      "byteOffset" : 22652,
      "byteLength" : 32700
    },
    {
      "buffer" : 0,
      "byteOffset" : 55352,
      "byteLength" : 32700
    },
    {
      "buffer" : 0,
      "byteOffset" : 88052,
      "byteLength" : 43600
    },
    {
      "buffer" : 0,
      "byteOffset" : 131652,
      "byteLength" : 21800
    },
    {
      "buffer" : 0,
      "byteOffset" : 153452,
      "byteLength" : 21800
    },
    {
      "buffer" : 0,
      "byteOffset" : 175252,
      "byteLength" : 21800
    },
    {
      "buffer" : 0,
      "byteOffset" : 197052,
      "byteLength" : 21800
    },
    {
      "buffer" : 0,
      "byteOffset" : 218852,
      "byteLength" : 252
    },
    {
      "buffer" : 0,
      "byteOffset" : 219104,
      "byteLength" : 648
    },
    {
      "buffer" : 0,
      "byteOffset" : 219752,
      "byteLength" : 648
    },
    {
      "buffer" : 0,
      "byteOffset" : 220400,
      "byteLength" : 864
    },
    {
      "buffer" : 0,
      "byteOffset" : 221264,
      "byteLength" : 432
    },
    {
      "buffer" : 0,
      "byteOffset" : 221696,
      "byteLength" : 432
    },
    {
      "buffer" : 0,
      "byteOffset" : 222128,
      "byteLength" : 432
    },
    {
      "buffer" : 0,
      "byteOffset" : 222560,
      "byteLength" : 432
    },
    {
      "buffer" : 0,
      "byteOffset" : 222992,
      "byteLength" : 204
    },
    {
      "buffer" : 0,
      "byteOffset" : 223196,
      "byteLength" : 432
    },
    {
      "buffer" : 0,
      "byteOffset" : 223628,
      "byteLength" : 432
    },
    {
      "buffer" : 0,
      "byteOffset" : 224060,
      "byteLength" : 576
    },
    {
      "buffer" : 0,
      "byteOffset" : 224636,
      "byteLength" : 288
    },
    {
      "buffer" : 0,
      "byteOffset" : 224924,
      "byteLength" : 288
    },
    {
      "buffer" : 0,
      "byteOffset" : 225212,
      "byteLength" : 288
    },
    {
      "buffer" : 0,
      "byteOffset" : 225500,
      "byteLength" : 288
    },
    {
      "buffer" : 0,
      "byteOffset" : 225788,
      "byteLength" : 408
    },
    {
      "buffer" : 0,
      "byteOffset" : 226196,
      "byteLength" : 984
    },
    {
      "buffer" : 0,
      "byteOffset" : 227180,
      "byteLength" : 984
    },
    {
      "buffer" : 0,
      "byteOffset" : 228164,
      "byteLength" : 1312
    },
    {
      "buffer" : 0,
      "byteOffset" : 229476,
      "byteLength" : 656
    },
    {
      "buffer" : 0,
      "byteOffset" : 230132,
      "byteLength" : 656
    },
    {
      "buffer" : 0,
      "byteOffset" : 230788,
      "byteLength" : 656
    },
    {
      "buffer" : 0,
      "byteOffset" : 231444,
      "byteLength" : 656
    },
    {
      "buffer" : 0,
      "byteOffset" : 232100,
      "byteLength" : 10908
    },
    {
      "buffer" : 0,
      "byteOffset" : 243008,
      "byteLength" : 20412
    },
    {
      "buffer" : 0,
      "byteOffset" : 263420,
      "byteLength" : 20412
    },
    {
      "buffer" : 0,
      "byteOffset" : 283832,
      "byteLength" : 27216
    },
    {
      "buffer" : 0,
      "byteOffset" : 311048,
      "byteLength" : 13608
    },
    {
      "buffer" : 0,
      "byteOffset" : 324656,
      "byteLength" : 13608
    },
    {
      "buffer" : 0,
      "byteOffset" : 338264,
      "byteLength" : 13608
    },
    {
      "buffer" : 0,
      "byteOffset" : 351872,
      "byteLength" : 13608
    },
    {
      "buffer" : 0,
      "byteOffset" : 365480,
      "byteLength" : 8256
    },
    {
      "buffer" : 0,
      "byteOffset" : 373736,
      "byteLength" : 12744
    },
    {
      "buffer" : 0,
      "byteOffset" : 386480,
      "byteLength" : 12744
    },
    {
      "buffer" : 0,
      "byteOffset" : 399224,
      "byteLength" : 16992
    },
    {
      "buffer" : 0,
      "byteOffset" : 416216,
      "byteLength" : 8496
    },
    {
      "buffer" : 0,
      "byteOffset" : 424712,
      "byteLength" : 8496
    },
    {
      "buffer" : 0,
      "byteOffset" : 433208,
      "byteLength" : 8496
    },
    {
      "buffer" : 0,
      "byteOffset" : 441704,
      "byteLength" : 8496
    },
    {
      "buffer" : 0,
      "byteOffset" : 450200,
      "byteLength" : 6276
    },
    {
      "buffer" : 0,
      "byteOffset" : 456476,
      "byteLength" : 12576
    },
    {
      "buffer" : 0,
      "byteOffset" : 469052,
      "byteLength" : 12576
    },
    {
      "buffer" : 0,
      "byteOffset" : 481628,
      "byteLength" : 16768
    },
    {
      "buffer" : 0,
      "byteOffset" : 498396,
      "byteLength" : 8384
    },
    {
      "buffer" : 0,
      "byteOffset" : 506780,
      "byteLength" : 8384
    },
    {
      "buffer" : 0,
      "byteOffset" : 515164,
      "byteLength" : 8384
    },
    {
      "buffer" : 0,
      "byteOffset" : 523548,
      "byteLength" : 8384
    }
  ],
  "accessors" : [
    {
      "bufferView" : 0,
      "componentType" : 5123,
      "count" : 369,
      "type" : "SCALAR"
    },
    {
      "bufferView" : 1,
      "min" : [ 6.09384, 12.3068, -95.9579 ],
      "max" : [ 24.8496, 17.7913, -70.548 ],
      "componentType" : 5126,
      "count" : 190,
      "type" : "VEC3"
    },
    {
      "bufferView" : 2,
      "componentType" : 5126,
      "count" : 190,
      "type" : "VEC3"
    },
    {
      "bufferView" : 3,
      "componentType" : 5126,
      "count" : 190,
      "type" : "VEC4"
    },
    {
      "bufferView" : 4,
      "componentType" : 5126,
      "count" : 190,
      "type" : "VEC2"
    },
    {
      "bufferView" : 5,
      "componentType" : 5126,
      "count" : 190,
      "type" : "VEC2"
    },
    {
      "bufferView" : 6,
      "componentType" : 5126,
      "count" : 190,
      "type" : "VEC2"
    },
    {
      "bufferView" : 7,
      "componentType" : 5126,
      "count" : 190,
      "type" : "VEC2"
    },
    {
      "bufferView" : 8,
      "componentType" : 5123,
      "count" : 4116,
      "type" : "SCALAR"
    },
    {
      "bufferView" : 9,
      "min" : [ 6.76892, 15.6551, -95.9464 ],
      "max" : [ 24.6429, 15.9651, -70.9034 ],
      "componentType" : 5126,
      "count" : 2725,
      "type" : "VEC3"
    },
    {
      "bufferView" : 10,
      "componentType" : 5126,
      "count" : 2725,
      "type" : "VEC3"
    },
    {
      "bufferView" : 11,
      "componentType" : 5126,
      "count" : 2725,
      "type" : "VEC4"
    },
    {
      "bufferView" : 12,
      "componentType" : 5126,
      "count" : 2725,
      "type" : "VEC2"
    },
    {
      "bufferView" : 13,
      "componentType" : 5126,
      "count" : 2725,
      "type" : "VEC2"
    },
    {
      "bufferView" : 14,
      "componentType" : 5126,
      "count" : 2725,
      "type" : "VEC2"
    },
    {
      "bufferView" : 15,
      "componentType" : 5126,
      "count" : 2725,
      "type" : "VEC2"
    },
    {
      "bufferView" : 16,
      "componentType" : 5123,
      "count" : 126,
      "type" : "SCALAR"
    },
    {
      "bufferView" : 17,
      "min" : [ 6.76892, 12.3007, -95.9279 ],
      "max" : [ 24.0091, 13.3136, -71.4397 ],
      "componentType" : 5126,
      "count" : 54,
      "type" : "VEC3"
    },
    {
      "bufferView" : 18,
      "componentType" : 5126,
      "count" : 54,
      "type" : "VEC3"
    },
    {
      "bufferView" : 19,
      "componentType" : 5126,
      "count" : 54,
      "type" : "VEC4"
    },
    {
      "bufferView" : 20,
      "componentType" : 5126,
      "count" : 54,
      "type" : "VEC2"
    },
    {
      "bufferView" : 21,
      "componentType" : 5126,
      "count" : 54,
      "type" : "VEC2"
    },
    {
      "bufferView" : 22,
      "componentType" : 5126,
      "count" : 54,
      "type" : "VEC2"
    },
    {
      "bufferView" : 23,
      "componentType" : 5126,
      "count" : 54,
      "type" : "VEC2"
    },
    {
      "bufferView" : 24,
      "componentType" : 5123,
      "count" : 102,
      "type" : "SCALAR"
    },
    {
      "bufferView" : 25,
      "min" : [ 6.76892, 13.2789, -95.9276 ],
      "max" : [ 23.9622, 15.6627, -71.4776 ],
      "componentType" : 5126,
      "count" : 36,
      "type" : "VEC3"
    },
    {
      "bufferView" : 26,
      "componentType" : 5126,
      "count" : 36,
      "type" : "VEC3"
    },
    {
      "bufferView" : 27,
      "componentType" : 5126,
      "count" : 36,
      "type" : "VEC4"
    },
    {
      "bufferView" : 28,
      "componentType" : 5126,
      "count" : 36,
      "type" : "VEC2"
    },
    {
      "bufferView" : 29,
      "componentType" : 5126,
      "count" : 36,
      "type" : "VEC2"
    },
    {
      "bufferView" : 30,
      "componentType" : 5126,
      "count" : 36,
      "type" : "VEC2"
    },
    {
      "bufferView" : 31,
      "componentType" : 5126,
      "count" : 36,
      "type" : "VEC2"
    },
    {
      "bufferView" : 32,
      "componentType" : 5123,
      "count" : 204,
      "type" : "SCALAR"
    },
    {
      "bufferView" : 33,
      "min" : [ 6.77245, 12.0007, -95.9469 ],
      "max" : [ 24.2114, 12.3569, -71.3101 ],
      "componentType" : 5126,
      "count" : 82,
      "type" : "VEC3"
    },
    {
      "bufferView" : 34,
      "componentType" : 5126,
      "count" : 82,
      "type" : "VEC3"
    },
    {
      "bufferView" : 35,
      "componentType" : 5126,
      "count" : 82,
      "type" : "VEC4"
    },
    {
      "bufferView" : 36,
      "componentType" : 5126,
      "count" : 82,
      "type" : "VEC2"
    },
    {
      "bufferView" : 37,
      "componentType" : 5126,
      "count" : 82,
      "type" : "VEC2"
    },
    {
      "bufferView" : 38,
      "componentType" : 5126,
      "count" : 82,
      "type" : "VEC2"
    },
    {
      "bufferView" : 39,
      "componentType" : 5126,
      "count" : 82,
      "type" : "VEC2"
    },
    {
      "bufferView" : 40,
      "componentType" : 5123,
      "count" : 5454,
      "type" : "SCALAR"
    },
    {
      "bufferView" : 41,
      "min" : [ 6.23095, 15.9198, -95.9617 ],
      "max" : [ 24.9289, 17.8142, -70.6687 ],
      "componentType" : 5126,
      "count" : 1701,
      "type" : "VEC3"
    },
    {
      "bufferView" : 42,
      "componentType" : 5126,
      "count" : 1701,
      "type" : "VEC3"
    },
    {
      "bufferView" : 43,
      "componentType" : 5126,
      "count" : 1701,
      "type" : "VEC4"
    },
    {
      "bufferView" : 44,
      "componentType" : 5126,
      "count" : 1701,
      "type" : "VEC2"
    },
    {
      "bufferView" : 45,
      "componentType" : 5126,
      "count" : 1701,
      "type" : "VEC2"
    },
    {
      "bufferView" : 46,
      "componentType" : 5126,
      "count" : 1701,
      "type" : "VEC2"
    },
    {
      "bufferView" : 47,
      "componentType" : 5126,
      "count" : 1701,
      "type" : "VEC2"
    },
    {
      "bufferView" : 48,
      "componentType" : 5123,
      "count" : 4128,
      "type" : "SCALAR"
    },
    {
      "bufferView" : 49,
      "min" : [ 6.02201, 15.9228, -95.9784 ],
      "max" : [ 24.992, 18.0705, -72.3677 ],
      "componentType" : 5126,
      "count" : 1062,
      "type" : "VEC3"
    },
    {
      "bufferView" : 50,
      "componentType" : 5126,
      "count" : 1062,
      "type" : "VEC3"
    },
    {
      "bufferView" : 51,
      "componentType" : 5126,
      "count" : 1062,
      "type" : "VEC4"
    },
    {
      "bufferView" : 52,
      "componentType" : 5126,
      "count" : 1062,
      "type" : "VEC2"
    },
    {
      "bufferView" : 53,
      "componentType" : 5126,
      "count" : 1062,
      "type" : "VEC2"
    },
    {
      "bufferView" : 54,
      "componentType" : 5126,
      "count" : 1062,
      "type" : "VEC2"
    },
    {
      "bufferView" : 55,
      "componentType" : 5126,
      "count" : 1062,
      "type" : "VEC2"
    },
    {
      "bufferView" : 56,
      "componentType" : 5123,
      "count" : 3138,
      "type" : "SCALAR"
    },
    {
      "bufferView" : 57,
      "min" : [ 6.00001, 16.6904, -96.1497 ],
      "max" : [ 24.1392, 17.6388, -71.9212 ],
      "componentType" : 5126,
      "count" : 1048,
      "type" : "VEC3"
    },
    {
      "bufferView" : 58,
      "componentType" : 5126,
      "count" : 1048,
      "type" : "VEC3"
    },
    {
      "bufferView" : 59,
      "componentType" : 5126,
      "count" : 1048,
      "type" : "VEC4"
    },
    {
      "bufferView" : 60,
      "componentType" : 5126,
      "count" : 1048,
      "type" : "VEC2"
    },
    {
      "bufferView" : 61,
      "componentType" : 5126,
      "count" : 1048,
      "type" : "VEC2"
    },
    {
      "bufferView" : 62,
      "componentType" : 5126,
      "count" : 1048,
      "type" : "VEC2"
    },
    {
      "bufferView" : 63,
      "componentType" : 5126,
      "count" : 1048,
      "type" : "VEC2"
    }
  ]
}
