{
  "asset" : {
    "generator" : "UE Viewer (umodel) build 1544 based",
    "version" : "2.0"
  },
  "scene" : 0,
  "scenes" : [
    {
      "nodes" : [ 0 ]
    }
  ],
  "nodes" : [
    {
      "name" : "SM_ENV_LKNVLD_CommonBuilding_TowerB",
      "mesh" : 0
    }
  ],
  "materials" : [
    {
      "name" : "MI_ENV_LKNVLD_Windows_A",
      "pbrMetallicRoughness" : {
        "baseColorFactor" : [ 0.3, 0.3, 0.3, 1.0 ],
        "metallicFactor" : 0.1,
        "roughnessFactor" : 0.5
      }
    },
    {
      "name" : "MI_ENV_LKNVLD_CommonBuilding_D",
      "pbrMetallicRoughness" : {
        "baseColorFactor" : [ 0.9, 0.3, 0.3, 1.0 ],
        "metallicFactor" : 0.1,
        "roughnessFactor" : 0.5
      }
    }
  ],
  "meshes" : [
    {
      "primitives" : [
        {
          "attributes" : {
            "POSITION" : 1,
            "NORMAL" : 2,
            "TANGENT" : 3,
            "TEXCOORD_0" : 4,
            "TEXCOORD_1" : 5,
            "TEXCOORD_2" : 6,
            "TEXCOORD_3" : 7
          },
          "indices" : 0,
          "material" : 0
        },
        {
          "attributes" : {
            "POSITION" : 9,
            "NORMAL" : 10,
            "TANGENT" : 11,
            "TEXCOORD_0" : 12,
            "TEXCOORD_1" : 13,
            "TEXCOORD_2" : 14,
            "TEXCOORD_3" : 15
          },
          "indices" : 8,
          "material" : 1
        }
      ],
      "name" : "SM_ENV_LKNVLD_CommonBuilding_TowerB"
    }
  ],
  "buffers" : [
    {
      "uri" : "SM_ENV_LKNVLD_CommonBuilding_TowerB.bin",
      "byteLength" : 727904
    }
  ],
  "bufferViews" : [
    {
      "buffer" : 0,
      "byteOffset" : 0,
      "byteLength" : 984
    },
    {
      "buffer" : 0,
      "byteOffset" : 984,
      "byteLength" : 2976
    },
    {
      "buffer" : 0,
      "byteOffset" : 3960,
      "byteLength" : 2976
    },
    {
      "buffer" : 0,
      "byteOffset" : 6936,
      "byteLength" : 3968
    },
    {
      "buffer" : 0,
      "byteOffset" : 10904,
      "byteLength" : 1984
    },
    {
      "buffer" : 0,
      "byteOffset" : 12888,
      "byteLength" : 1984
    },
    {
      "buffer" : 0,
      "byteOffset" : 14872,
      "byteLength" : 1984
    },
    {
      "buffer" : 0,
      "byteOffset" : 16856,
      "byteLength" : 1984
    },
    {
      "buffer" : 0,
      "byteOffset" : 18840,
      "byteLength" : 40328
    },
    {
      "buffer" : 0,
      "byteOffset" : 59168,
      "byteLength" : 111456
    },
    {
      "buffer" : 0,
      "byteOffset" : 170624,
      "byteLength" : 111456
    },
    {
      "buffer" : 0,
      "byteOffset" : 282080,
      "byteLength" : 148608
    },
    {
      "buffer" : 0,
      "byteOffset" : 430688,
      "byteLength" : 74304
    },
    {
      "buffer" : 0,
      "byteOffset" : 504992,
      "byteLength" : 74304
    },
    {
      "buffer" : 0,
      "byteOffset" : 579296,
      "byteLength" : 74304
    },
    {
      "buffer" : 0,
      "byteOffset" : 653600,
      "byteLength" : 74304
    }
  ],
  "accessors" : [
    {
      "bufferView" : 0,
      "componentType" : 5123,
      "count" : 492,
      "type" : "SCALAR"
    },
    {
      "bufferView" : 1,
      "min" : [ -83.895, 1.39385, -40.895 ],
      "max" : [ -72.105, 39.9544, -27 ],
      "componentType" : 5126,
      "count" : 248,
      "type" : "VEC3"
    },
    {
      "bufferView" : 2,
      "componentType" : 5126,
      "count" : 248,
      "type" : "VEC3"
    },
    {
      "bufferView" : 3,
      "componentType" : 5126,
      "count" : 248,
      "type" : "VEC4"
    },
    {
      "bufferView" : 4,
      "componentType" : 5126,
      "count" : 248,
      "type" : "VEC2"
    },
    {
      "bufferView" : 5,
      "componentType" : 5126,
      "count" : 248,
      "type" : "VEC2"
    },
    {
      "bufferView" : 6,
      "componentType" : 5126,
      "count" : 248,
      "type" : "VEC2"
    },
    {
      "bufferView" : 7,
      "componentType" : 5126,
      "count" : 248,
      "type" : "VEC2"
    },
    {
      "bufferView" : 8,
      "componentType" : 5123,
      "count" : 20163,
      "type" : "SCALAR"
    },
    {
      "bufferView" : 9,
      "min" : [ -88.0492, -7.67e-06, -45.0492 ],
      "max" : [ -67.9508, 56.7263, -24.3264 ],
      "componentType" : 5126,
      "count" : 9288,
      "type" : "VEC3"
    },
    {
      "bufferView" : 10,
      "componentType" : 5126,
      "count" : 9288,
      "type" : "VEC3"
    },
    {
      "bufferView" : 11,
      "componentType" : 5126,
      "count" : 9288,
      "type" : "VEC4"
    },
    {
      "bufferView" : 12,
      "componentType" : 5126,
      "count" : 9288,
      "type" : "VEC2"
    },
    {
      "bufferView" : 13,
      "componentType" : 5126,
      "count" : 9288,
      "type" : "VEC2"
    },
    {
      "bufferView" : 14,
      "componentType" : 5126,
      "count" : 9288,
      "type" : "VEC2"
    },
    {
      "bufferView" : 15,
      "componentType" : 5126,
      "count" : 9288,
      "type" : "VEC2"
    }
  ]
}
