{
  "asset" : {
    "generator" : "UE Viewer (umodel) build 1544 based",
    "version" : "2.0"
  },
  "scene" : 0,
  "scenes" : [
    {
      "nodes" : [ 0 ]
    }
  ],
  "nodes" : [
    {
      "name" : "SM_ENV_LKNVLD_TreeSet_K_Lod1",
      "mesh" : 0
    }
  ],
  "materials" : [
    {
      "name" : "MI_ENV_LKNVLD_LeafMasked_A",
      "pbrMetallicRoughness" : {
        "baseColorFactor" : [ 0.3, 0.3, 0.3, 1.0 ],
        "metallicFactor" : 0.1,
        "roughnessFactor" : 0.5
      }
    },
    {
      "name" : "MI_ENV_LKNVLD_Leaf_A",
      "pbrMetallicRoughness" : {
        "baseColorFactor" : [ 0.9, 0.3, 0.3, 1.0 ],
        "metallicFactor" : 0.1,
        "roughnessFactor" : 0.5
      }
    },
    {
      "name" : "MI_ENV_LKNVLD_Tree_A",
      "pbrMetallicRoughness" : {
        "baseColorFactor" : [ 0.3, 0.9, 0.3, 1.0 ],
        "metallicFactor" : 0.1,
        "roughnessFactor" : 0.5
      }
    }
  ],
  "meshes" : [
    {
      "primitives" : [
        {
          "attributes" : {
            "POSITION" : 1,
            "NORMAL" : 2,
            "TANGENT" : 3,
            "COLOR_0" : 4,
            "TEXCOORD_0" : 5,
            "TEXCOORD_1" : 6,
            "TEXCOORD_2" : 7,
            "TEXCOORD_3" : 8
          },
          "indices" : 0,
          "material" : 0
        },
        {
          "attributes" : {
            "POSITION" : 10,
            "NORMAL" : 11,
            "TANGENT" : 12,
            "COLOR_0" : 13,
            "TEXCOORD_0" : 14,
            "TEXCOORD_1" : 15,
            "TEXCOORD_2" : 16,
            "TEXCOORD_3" : 17
          },
          "indices" : 9,
          "material" : 1
        },
        {
          "attributes" : {
            "POSITION" : 19,
            "NORMAL" : 20,
            "TANGENT" : 21,
            "COLOR_0" : 22,
            "TEXCOORD_0" : 23,
            "TEXCOORD_1" : 24,
            "TEXCOORD_2" : 25,
            "TEXCOORD_3" : 26
          },
          "indices" : 18,
          "material" : 2
        }
      ],
      "name" : "SM_ENV_LKNVLD_TreeSet_K_Lod1"
    }
  ],
  "buffers" : [
    {
      "uri" : "SM_ENV_LKNVLD_TreeSet_K_Lod1.bin",
      "byteLength" : 1671396
    }
  ],
  "bufferViews" : [
    {
      "buffer" : 0,
      "byteOffset" : 0,
      "byteLength" : 66140
    },
    {
      "buffer" : 0,
      "byteOffset" : 66140,
      "byteLength" : 187884
    },
    {
      "buffer" : 0,
      "byteOffset" : 254024,
      "byteLength" : 187884
    },
    {
      "buffer" : 0,
      "byteOffset" : 441908,
      "byteLength" : 250512
    },
    {
      "buffer" : 0,
      "byteOffset" : 692420,
      "byteLength" : 62628
    },
    {
      "buffer" : 0,
      "byteOffset" : 755048,
      "byteLength" : 125256
    },
    {
      "buffer" : 0,
      "byteOffset" : 880304,
      "byteLength" : 125256
    },
    {
      "buffer" : 0,
      "byteOffset" : 1005560,
      "byteLength" : 125256
    },
    {
      "buffer" : 0,
      "byteOffset" : 1130816,
      "byteLength" : 125256
    },
    {
      "buffer" : 0,
      "byteOffset" : 1256072,
      "byteLength" : 16268
    },
    {
      "buffer" : 0,
      "byteOffset" : 1272340,
      "byteLength" : 36000
    },
    {
      "buffer" : 0,
      "byteOffset" : 1308340,
      "byteLength" : 36000
    },
    {
      "buffer" : 0,
      "byteOffset" : 1344340,
      "byteLength" : 48000
    },
    {
      "buffer" : 0,
      "byteOffset" : 1392340,
      "byteLength" : 12000
    },
    {
      "buffer" : 0,
      "byteOffset" : 1404340,
      "byteLength" : 24000
    },
    {
      "buffer" : 0,
      "byteOffset" : 1428340,
      "byteLength" : 24000
    },
    {
      "buffer" : 0,
      "byteOffset" : 1452340,
      "byteLength" : 24000
    },
    {
      "buffer" : 0,
      "byteOffset" : 1476340,
      "byteLength" : 24000
    },
    {
      "buffer" : 0,
      "byteOffset" : 1500340,
      "byteLength" : 6288
    },
    {
      "buffer" : 0,
      "byteOffset" : 1506628,
      "byteLength" : 26016
    },
    {
      "buffer" : 0,
      "byteOffset" : 1532644,
      "byteLength" : 26016
    },
    {
      "buffer" : 0,
      "byteOffset" : 1558660,
      "byteLength" : 34688
    },
    {
      "buffer" : 0,
      "byteOffset" : 1593348,
      "byteLength" : 8672
    },
    {
      "buffer" : 0,
      "byteOffset" : 1602020,
      "byteLength" : 17344
    },
    {
      "buffer" : 0,
      "byteOffset" : 1619364,
      "byteLength" : 17344
    },
    {
      "buffer" : 0,
      "byteOffset" : 1636708,
      "byteLength" : 17344
    },
    {
      "buffer" : 0,
      "byteOffset" : 1654052,
      "byteLength" : 17344
    }
  ],
  "accessors" : [
    {
      "bufferView" : 0,
      "componentType" : 5123,
      "count" : 33069,
      "type" : "SCALAR"
    },
    {
      "bufferView" : 1,
      "min" : [ 43.8207, 5.13896, -33.8487 ],
      "max" : [ 65.8687, 16.6041, -13.2709 ],
      "componentType" : 5126,
      "count" : 15657,
      "type" : "VEC3"
    },
    {
      "bufferView" : 2,
      "componentType" : 5126,
      "count" : 15657,
      "type" : "VEC3"
    },
    {
      "bufferView" : 3,
      "componentType" : 5126,
      "count" : 15657,
      "type" : "VEC4"
    },
    {
      "bufferView" : 4,
      "normalized" : true,
      "componentType" : 5121,
      "count" : 15657,
      "type" : "VEC4"
    },
    {
      "bufferView" : 5,
      "componentType" : 5126,
      "count" : 15657,
      "type" : "VEC2"
    },
    {
      "bufferView" : 6,
      "componentType" : 5126,
      "count" : 15657,
      "type" : "VEC2"
    },
    {
      "bufferView" : 7,
      "componentType" : 5126,
      "count" : 15657,
      "type" : "VEC2"
    },
    {
      "bufferView" : 8,
      "componentType" : 5126,
      "count" : 15657,
      "type" : "VEC2"
    },
    {
      "bufferView" : 9,
      "componentType" : 5123,
      "count" : 8133,
      "type" : "SCALAR"
    },
    {
      "bufferView" : 10,
      "min" : [ 44.0249, 5.34694, -33.672 ],
      "max" : [ 65.7071, 16.4073, -13.4763 ],
      "componentType" : 5126,
      "count" : 3000,
      "type" : "VEC3"
    },
    {
      "bufferView" : 11,
      "componentType" : 5126,
      "count" : 3000,
      "type" : "VEC3"
    },
    {
      "bufferView" : 12,
      "componentType" : 5126,
      "count" : 3000,
      "type" : "VEC4"
    },
    {
      "bufferView" : 13,
      "normalized" : true,
      "componentType" : 5121,
      "count" : 3000,
      "type" : "VEC4"
    },
    {
      "bufferView" : 14,
      "componentType" : 5126,
      "count" : 3000,
      "type" : "VEC2"
    },
    {
      "bufferView" : 15,
      "componentType" : 5126,
      "count" : 3000,
      "type" : "VEC2"
    },
    {
      "bufferView" : 16,
      "componentType" : 5126,
      "count" : 3000,
      "type" : "VEC2"
    },
    {
      "bufferView" : 17,
      "componentType" : 5126,
      "count" : 3000,
      "type" : "VEC2"
    },
    {
      "bufferView" : 18,
      "componentType" : 5123,
      "count" : 3144,
      "type" : "SCALAR"
    },
    {
      "bufferView" : 19,
      "min" : [ 45.54, -0.598622, -31.9979 ],
      "max" : [ 63.2033, 13.2013, -13.9652 ],
      "componentType" : 5126,
      "count" : 2168,
      "type" : "VEC3"
    },
    {
      "bufferView" : 20,
      "componentType" : 5126,
      "count" : 2168,
      "type" : "VEC3"
    },
    {
      "bufferView" : 21,
      "componentType" : 5126,
      "count" : 2168,
      "type" : "VEC4"
    },
    {
      "bufferView" : 22,
      "normalized" : true,
      "componentType" : 5121,
      "count" : 2168,
      "type" : "VEC4"
    },
    {
      "bufferView" : 23,
      "componentType" : 5126,
      "count" : 2168,
      "type" : "VEC2"
    },
    {
      "bufferView" : 24,
      "componentType" : 5126,
      "count" : 2168,
      "type" : "VEC2"
    },
    {
      "bufferView" : 25,
      "componentType" : 5126,
      "count" : 2168,
      "type" : "VEC2"
    },
    {
      "bufferView" : 26,
      "componentType" : 5126,
      "count" : 2168,
      "type" : "VEC2"
    }
  ]
}
