{
  "asset" : {
    "generator" : "UE Viewer (umodel) build 1544 based",
    "version" : "2.0"
  },
  "scene" : 0,
  "scenes" : [
    {
      "nodes" : [ 0 ]
    }
  ],
  "nodes" : [
    {
      "name" : "SM_ENV_LKNVLD_TreeSet_A_Lod1",
      "mesh" : 0
    }
  ],
  "materials" : [
    {
      "name" : "MI_ENV_LKNVLD_Tree_A_Masked_CameraTrans",
      "pbrMetallicRoughness" : {
        "baseColorFactor" : [ 0.3, 0.3, 0.3, 1.0 ],
        "metallicFactor" : 0.1,
        "roughnessFactor" : 0.5
      }
    },
    {
      "name" : "MI_ENV_LKNVLD_LeafMasked_A",
      "pbrMetallicRoughness" : {
        "baseColorFactor" : [ 0.9, 0.3, 0.3, 1.0 ],
        "metallicFactor" : 0.1,
        "roughnessFactor" : 0.5
      }
    },
    {
      "name" : "MI_ENV_LKNVLD_Leaf_A",
      "pbrMetallicRoughness" : {
        "baseColorFactor" : [ 0.3, 0.9, 0.3, 1.0 ],
        "metallicFactor" : 0.1,
        "roughnessFactor" : 0.5
      }
    }
  ],
  "meshes" : [
    {
      "primitives" : [
        {
          "attributes" : {
            "POSITION" : 1,
            "NORMAL" : 2,
            "TANGENT" : 3,
            "COLOR_0" : 4,
            "TEXCOORD_0" : 5,
            "TEXCOORD_1" : 6,
            "TEXCOORD_2" : 7,
            "TEXCOORD_3" : 8
          },
          "indices" : 0,
          "material" : 0
        },
        {
          "attributes" : {
            "POSITION" : 10,
            "NORMAL" : 11,
            "TANGENT" : 12,
            "COLOR_0" : 13,
            "TEXCOORD_0" : 14,
            "TEXCOORD_1" : 15,
            "TEXCOORD_2" : 16,
            "TEXCOORD_3" : 17
          },
          "indices" : 9,
          "material" : 1
        },
        {
          "attributes" : {
            "POSITION" : 19,
            "NORMAL" : 20,
            "TANGENT" : 21,
            "COLOR_0" : 22,
            "TEXCOORD_0" : 23,
            "TEXCOORD_1" : 24,
            "TEXCOORD_2" : 25,
            "TEXCOORD_3" : 26
          },
          "indices" : 18,
          "material" : 2
        }
      ],
      "name" : "SM_ENV_LKNVLD_TreeSet_A_Lod1"
    }
  ],
  "buffers" : [
    {
      "uri" : "SM_ENV_LKNVLD_TreeSet_A_Lod1.bin",
      "byteLength" : 2263064
    }
  ],
  "bufferViews" : [
    {
      "buffer" : 0,
      "byteOffset" : 0,
      "byteLength" : 7316
    },
    {
      "buffer" : 0,
      "byteOffset" : 7316,
      "byteLength" : 30792
    },
    {
      "buffer" : 0,
      "byteOffset" : 38108,
      "byteLength" : 30792
    },
    {
      "buffer" : 0,
      "byteOffset" : 68900,
      "byteLength" : 41056
    },
    {
      "buffer" : 0,
      "byteOffset" : 109956,
      "byteLength" : 10264
    },
    {
      "buffer" : 0,
      "byteOffset" : 120220,
      "byteLength" : 20528
    },
    {
      "buffer" : 0,
      "byteOffset" : 140748,
      "byteLength" : 20528
    },
    {
      "buffer" : 0,
      "byteOffset" : 161276,
      "byteLength" : 20528
    },
    {
      "buffer" : 0,
      "byteOffset" : 181804,
      "byteLength" : 20528
    },
    {
      "buffer" : 0,
      "byteOffset" : 202332,
      "byteLength" : 87768
    },
    {
      "buffer" : 0,
      "byteOffset" : 290100,
      "byteLength" : 240528
    },
    {
      "buffer" : 0,
      "byteOffset" : 530628,
      "byteLength" : 240528
    },
    {
      "buffer" : 0,
      "byteOffset" : 771156,
      "byteLength" : 320704
    },
    {
      "buffer" : 0,
      "byteOffset" : 1091860,
      "byteLength" : 80176
    },
    {
      "buffer" : 0,
      "byteOffset" : 1172036,
      "byteLength" : 160352
    },
    {
      "buffer" : 0,
      "byteOffset" : 1332388,
      "byteLength" : 160352
    },
    {
      "buffer" : 0,
      "byteOffset" : 1492740,
      "byteLength" : 160352
    },
    {
      "buffer" : 0,
      "byteOffset" : 1653092,
      "byteLength" : 160352
    },
    {
      "buffer" : 0,
      "byteOffset" : 1813444,
      "byteLength" : 18396
    },
    {
      "buffer" : 0,
      "byteOffset" : 1831840,
      "byteLength" : 68088
    },
    {
      "buffer" : 0,
      "byteOffset" : 1899928,
      "byteLength" : 68088
    },
    {
      "buffer" : 0,
      "byteOffset" : 1968016,
      "byteLength" : 90784
    },
    {
      "buffer" : 0,
      "byteOffset" : 2058800,
      "byteLength" : 22696
    },
    {
      "buffer" : 0,
      "byteOffset" : 2081496,
      "byteLength" : 45392
    },
    {
      "buffer" : 0,
      "byteOffset" : 2126888,
      "byteLength" : 45392
    },
    {
      "buffer" : 0,
      "byteOffset" : 2172280,
      "byteLength" : 45392
    },
    {
      "buffer" : 0,
      "byteOffset" : 2217672,
      "byteLength" : 45392
    }
  ],
  "accessors" : [
    {
      "bufferView" : 0,
      "componentType" : 5123,
      "count" : 3657,
      "type" : "SCALAR"
    },
    {
      "bufferView" : 1,
      "min" : [ 29.1582, -0.324058, -32.2015 ],
      "max" : [ 45.1444, 9.6126, -14.2933 ],
      "componentType" : 5126,
      "count" : 2566,
      "type" : "VEC3"
    },
    {
      "bufferView" : 2,
      "componentType" : 5126,
      "count" : 2566,
      "type" : "VEC3"
    },
    {
      "bufferView" : 3,
      "componentType" : 5126,
      "count" : 2566,
      "type" : "VEC4"
    },
    {
      "bufferView" : 4,
      "normalized" : true,
      "componentType" : 5121,
      "count" : 2566,
      "type" : "VEC4"
    },
    {
      "bufferView" : 5,
      "componentType" : 5126,
      "count" : 2566,
      "type" : "VEC2"
    },
    {
      "bufferView" : 6,
      "componentType" : 5126,
      "count" : 2566,
      "type" : "VEC2"
    },
    {
      "bufferView" : 7,
      "componentType" : 5126,
      "count" : 2566,
      "type" : "VEC2"
    },
    {
      "bufferView" : 8,
      "componentType" : 5126,
      "count" : 2566,
      "type" : "VEC2"
    },
    {
      "bufferView" : 9,
      "componentType" : 5123,
      "count" : 43884,
      "type" : "SCALAR"
    },
    {
      "bufferView" : 10,
      "min" : [ 27.0821, 3.26414, -33.6257 ],
      "max" : [ 46.6006, 12.0405, -13.0374 ],
      "componentType" : 5126,
      "count" : 20044,
      "type" : "VEC3"
    },
    {
      "bufferView" : 11,
      "componentType" : 5126,
      "count" : 20044,
      "type" : "VEC3"
    },
    {
      "bufferView" : 12,
      "componentType" : 5126,
      "count" : 20044,
      "type" : "VEC4"
    },
    {
      "bufferView" : 13,
      "normalized" : true,
      "componentType" : 5121,
      "count" : 20044,
      "type" : "VEC4"
    },
    {
      "bufferView" : 14,
      "componentType" : 5126,
      "count" : 20044,
      "type" : "VEC2"
    },
    {
      "bufferView" : 15,
      "componentType" : 5126,
      "count" : 20044,
      "type" : "VEC2"
    },
    {
      "bufferView" : 16,
      "componentType" : 5126,
      "count" : 20044,
      "type" : "VEC2"
    },
    {
      "bufferView" : 17,
      "componentType" : 5126,
      "count" : 20044,
      "type" : "VEC2"
    },
    {
      "bufferView" : 18,
      "componentType" : 5123,
      "count" : 9198,
      "type" : "SCALAR"
    },
    {
      "bufferView" : 19,
      "min" : [ 27.2628, 3.45057, -33.4851 ],
      "max" : [ 46.4219, 11.9001, -13.2578 ],
      "componentType" : 5126,
      "count" : 5674,
      "type" : "VEC3"
    },
    {
      "bufferView" : 20,
      "componentType" : 5126,
      "count" : 5674,
      "type" : "VEC3"
    },
    {
      "bufferView" : 21,
      "componentType" : 5126,
      "count" : 5674,
      "type" : "VEC4"
    },
    {
      "bufferView" : 22,
      "normalized" : true,
      "componentType" : 5121,
      "count" : 5674,
      "type" : "VEC4"
    },
    {
      "bufferView" : 23,
      "componentType" : 5126,
      "count" : 5674,
      "type" : "VEC2"
    },
    {
      "bufferView" : 24,
      "componentType" : 5126,
      "count" : 5674,
      "type" : "VEC2"
    },
    {
      "bufferView" : 25,
      "componentType" : 5126,
      "count" : 5674,
      "type" : "VEC2"
    },
    {
      "bufferView" : 26,
      "componentType" : 5126,
      "count" : 5674,
      "type" : "VEC2"
    }
  ]
}
