{
  "asset" : {
    "generator" : "UE Viewer (umodel) build 1544 based",
    "version" : "2.0"
  },
  "scene" : 0,
  "scenes" : [
    {
      "nodes" : [ 0 ]
    }
  ],
  "nodes" : [
    {
      "name" : "SM_ENV_LKNVLD_Hatago_Structure_Lod1",
      "mesh" : 0
    }
  ],
  "materials" : [
    {
      "name" : "MI_ENV_LKNVLD_WoodPlain_Brown",
      "pbrMetallicRoughness" : {
        "baseColorFactor" : [ 0.3, 0.3, 0.3, 1.0 ],
        "metallicFactor" : 0.1,
        "roughnessFactor" : 0.5
      }
    },
    {
      "name" : "MI_ENV_LKNVLD_MetalRoof_Green",
      "pbrMetallicRoughness" : {
        "baseColorFactor" : [ 0.9, 0.3, 0.3, 1.0 ],
        "metallicFactor" : 0.1,
        "roughnessFactor" : 0.5
      }
    },
    {
      "name" : "MI_ENV_LKNVLD_BambooWall",
      "pbrMetallicRoughness" : {
        "baseColorFactor" : [ 0.3, 0.9, 0.3, 1.0 ],
        "metallicFactor" : 0.1,
        "roughnessFactor" : 0.5
      }
    },
    {
      "name" : "MI_ENV_LKNVLD_Aircon_D",
      "pbrMetallicRoughness" : {
        "baseColorFactor" : [ 0.3, 0.3, 0.9, 1.0 ],
        "metallicFactor" : 0.1,
        "roughnessFactor" : 0.5
      }
    },
    {
      "name" : "MI_ENV_LKNVLD_Aircon_E",
      "pbrMetallicRoughness" : {
        "baseColorFactor" : [ 0.9, 0.9, 0.9, 1.0 ],
        "metallicFactor" : 0.1,
        "roughnessFactor" : 0.5
      }
    },
    {
      "name" : "MI_ENV_LKNVLD_Eaves_E",
      "pbrMetallicRoughness" : {
        "baseColorFactor" : [ 0.9, 0.9, 0.3, 1.0 ],
        "metallicFactor" : 0.1,
        "roughnessFactor" : 0.5
      }
    },
    {
      "name" : "MI_ENV_LKNVLD_Aircon_F",
      "pbrMetallicRoughness" : {
        "baseColorFactor" : [ 0.9, 0.3, 0.9, 1.0 ],
        "metallicFactor" : 0.1,
        "roughnessFactor" : 0.5
      }
    },
    {
      "name" : "MI_ENV_LKNVLD_Pipe_A",
      "pbrMetallicRoughness" : {
        "baseColorFactor" : [ 0.3, 0.9, 0.9, 1.0 ],
        "metallicFactor" : 0.1,
        "roughnessFactor" : 0.5
      }
    },
    {
      "name" : "MI_ENV_LKNVLD_Plaster",
      "pbrMetallicRoughness" : {
        "baseColorFactor" : [ 1, 0.3, 0.3, 1.0 ],
        "metallicFactor" : 0.1,
        "roughnessFactor" : 0.5
      }
    },
    {
      "name" : "MI_ENV_LKNVLD_BuildingInside_A",
      "pbrMetallicRoughness" : {
        "baseColorFactor" : [ 0.6, 0.3, 0.3, 1.0 ],
        "metallicFactor" : 0.1,
        "roughnessFactor" : 0.5
      }
    },
    {
      "name" : "MI_ENV_LKNVLD_WoodWindows_B",
      "pbrMetallicRoughness" : {
        "baseColorFactor" : [ 1, 0.9, 0.3, 1.0 ],
        "metallicFactor" : 0.1,
        "roughnessFactor" : 0.5
      }
    },
    {
      "name" : "MI_ENV_LKNVLD_ClanSignboard_G",
      "pbrMetallicRoughness" : {
        "baseColorFactor" : [ 1, 0.3, 0.9, 1.0 ],
        "metallicFactor" : 0.1,
        "roughnessFactor" : 0.5
      }
    },
    {
      "name" : "MI_ENV_LKNVLD_Aircon_G",
      "pbrMetallicRoughness" : {
        "baseColorFactor" : [ 0.6, 0.9, 0.9, 1.0 ],
        "metallicFactor" : 0.1,
        "roughnessFactor" : 0.5
      }
    },
    {
      "name" : "MI_ENV_LKNVLD_MetalRoof",
      "pbrMetallicRoughness" : {
        "baseColorFactor" : [ 0.6, 0.9, 0.3, 1.0 ],
        "metallicFactor" : 0.1,
        "roughnessFactor" : 0.5
      }
    }
  ],
  "meshes" : [
    {
      "primitives" : [
        {
          "attributes" : {
            "POSITION" : 1,
            "NORMAL" : 2,
            "TANGENT" : 3,
            "COLOR_0" : 4,
            "TEXCOORD_0" : 5,
            "TEXCOORD_1" : 6,
            "TEXCOORD_2" : 7,
            "TEXCOORD_3" : 8
          },
          "indices" : 0,
          "material" : 0
        },
        {
          "attributes" : {
            "POSITION" : 10,
            "NORMAL" : 11,
            "TANGENT" : 12,
            "COLOR_0" : 13,
            "TEXCOORD_0" : 14,
            "TEXCOORD_1" : 15,
            "TEXCOORD_2" : 16,
            "TEXCOORD_3" : 17
          },
          "indices" : 9,
          "material" : 1
        },
        {
          "attributes" : {
            "POSITION" : 19,
            "NORMAL" : 20,
            "TANGENT" : 21,
            "COLOR_0" : 22,
            "TEXCOORD_0" : 23,
            "TEXCOORD_1" : 24,
            "TEXCOORD_2" : 25,
            "TEXCOORD_3" : 26
          },
          "indices" : 18,
          "material" : 2
        },
        {
          "attributes" : {
            "POSITION" : 28,
            "NORMAL" : 29,
            "TANGENT" : 30,
            "COLOR_0" : 31,
            "TEXCOORD_0" : 32,
            "TEXCOORD_1" : 33,
            "TEXCOORD_2" : 34,
            "TEXCOORD_3" : 35
          },
          "indices" : 27,
          "material" : 3
        },
        {
          "attributes" : {
            "POSITION" : 37,
            "NORMAL" : 38,
            "TANGENT" : 39,
            "COLOR_0" : 40,
            "TEXCOORD_0" : 41,
            "TEXCOORD_1" : 42,
            "TEXCOORD_2" : 43,
            "TEXCOORD_3" : 44
          },
          "indices" : 36,
          "material" : 4
        },
        {
          "attributes" : {
            "POSITION" : 46,
            "NORMAL" : 47,
            "TANGENT" : 48,
            "COLOR_0" : 49,
            "TEXCOORD_0" : 50,
            "TEXCOORD_1" : 51,
            "TEXCOORD_2" : 52,
            "TEXCOORD_3" : 53
          },
          "indices" : 45,
          "material" : 5
        },
        {
          "attributes" : {
            "POSITION" : 55,
            "NORMAL" : 56,
            "TANGENT" : 57,
            "COLOR_0" : 58,
            "TEXCOORD_0" : 59,
            "TEXCOORD_1" : 60,
            "TEXCOORD_2" : 61,
            "TEXCOORD_3" : 62
          },
          "indices" : 54,
          "material" : 6
        },
        {
          "attributes" : {
            "POSITION" : 64,
            "NORMAL" : 65,
            "TANGENT" : 66,
            "COLOR_0" : 67,
            "TEXCOORD_0" : 68,
            "TEXCOORD_1" : 69,
            "TEXCOORD_2" : 70,
            "TEXCOORD_3" : 71
          },
          "indices" : 63,
          "material" : 7
        },
        {
          "attributes" : {
            "POSITION" : 73,
            "NORMAL" : 74,
            "TANGENT" : 75,
            "COLOR_0" : 76,
            "TEXCOORD_0" : 77,
            "TEXCOORD_1" : 78,
            "TEXCOORD_2" : 79,
            "TEXCOORD_3" : 80
          },
          "indices" : 72,
          "material" : 8
        },
        {
          "attributes" : {
            "POSITION" : 82,
            "NORMAL" : 83,
            "TANGENT" : 84,
            "COLOR_0" : 85,
            "TEXCOORD_0" : 86,
            "TEXCOORD_1" : 87,
            "TEXCOORD_2" : 88,
            "TEXCOORD_3" : 89
          },
          "indices" : 81,
          "material" : 9
        },
        {
          "attributes" : {
            "POSITION" : 91,
            "NORMAL" : 92,
            "TANGENT" : 93,
            "COLOR_0" : 94,
            "TEXCOORD_0" : 95,
            "TEXCOORD_1" : 96,
            "TEXCOORD_2" : 97,
            "TEXCOORD_3" : 98
          },
          "indices" : 90,
          "material" : 10
        },
        {
          "attributes" : {
            "POSITION" : 100,
            "NORMAL" : 101,
            "TANGENT" : 102,
            "COLOR_0" : 103,
            "TEXCOORD_0" : 104,
            "TEXCOORD_1" : 105,
            "TEXCOORD_2" : 106,
            "TEXCOORD_3" : 107
          },
          "indices" : 99,
          "material" : 11
        },
        {
          "attributes" : {
            "POSITION" : 109,
            "NORMAL" : 110,
            "TANGENT" : 111,
            "COLOR_0" : 112,
            "TEXCOORD_0" : 113,
            "TEXCOORD_1" : 114,
            "TEXCOORD_2" : 115,
            "TEXCOORD_3" : 116
          },
          "indices" : 108,
          "material" : 12
        },
        {
          "attributes" : {
            "POSITION" : 118,
            "NORMAL" : 119,
            "TANGENT" : 120,
            "COLOR_0" : 121,
            "TEXCOORD_0" : 122,
            "TEXCOORD_1" : 123,
            "TEXCOORD_2" : 124,
            "TEXCOORD_3" : 125
          },
          "indices" : 117,
          "material" : 13
        }
      ],
      "name" : "SM_ENV_LKNVLD_Hatago_Structure_Lod1"
    }
  ],
  "buffers" : [
    {
      "uri" : "SM_ENV_LKNVLD_Hatago_Structure_Lod1.bin",
      "byteLength" : 1513392
    }
  ],
  "bufferViews" : [
    {
      "buffer" : 0,
      "byteOffset" : 0,
      "byteLength" : 25344
    },
    {
      "buffer" : 0,
      "byteOffset" : 25344,
      "byteLength" : 86112
    },
    {
      "buffer" : 0,
      "byteOffset" : 111456,
      "byteLength" : 86112
    },
    {
      "buffer" : 0,
      "byteOffset" : 197568,
      "byteLength" : 114816
    },
    {
      "buffer" : 0,
      "byteOffset" : 312384,
      "byteLength" : 28704
    },
    {
      "buffer" : 0,
      "byteOffset" : 341088,
      "byteLength" : 57408
    },
    {
      "buffer" : 0,
      "byteOffset" : 398496,
      "byteLength" : 57408
    },
    {
      "buffer" : 0,
      "byteOffset" : 455904,
      "byteLength" : 57408
    },
    {
      "buffer" : 0,
      "byteOffset" : 513312,
      "byteLength" : 57408
    },
    {
      "buffer" : 0,
      "byteOffset" : 570720,
      "byteLength" : 10244
    },
    {
      "buffer" : 0,
      "byteOffset" : 580964,
      "byteLength" : 26040
    },
    {
      "buffer" : 0,
      "byteOffset" : 607004,
      "byteLength" : 26040
    },
    {
      "buffer" : 0,
      "byteOffset" : 633044,
      "byteLength" : 34720
    },
    {
      "buffer" : 0,
      "byteOffset" : 667764,
      "byteLength" : 8680
    },
    {
      "buffer" : 0,
      "byteOffset" : 676444,
      "byteLength" : 17360
    },
    {
      "buffer" : 0,
      "byteOffset" : 693804,
      "byteLength" : 17360
    },
    {
      "buffer" : 0,
      "byteOffset" : 711164,
      "byteLength" : 17360
    },
    {
      "buffer" : 0,
      "byteOffset" : 728524,
      "byteLength" : 17360
    },
    {
      "buffer" : 0,
      "byteOffset" : 745884,
      "byteLength" : 3276
    },
    {
      "buffer" : 0,
      "byteOffset" : 749160,
      "byteLength" : 8688
    },
    {
      "buffer" : 0,
      "byteOffset" : 757848,
      "byteLength" : 8688
    },
    {
      "buffer" : 0,
      "byteOffset" : 766536,
      "byteLength" : 11584
    },
    {
      "buffer" : 0,
      "byteOffset" : 778120,
      "byteLength" : 2896
    },
    {
      "buffer" : 0,
      "byteOffset" : 781016,
      "byteLength" : 5792
    },
    {
      "buffer" : 0,
      "byteOffset" : 786808,
      "byteLength" : 5792
    },
    {
      "buffer" : 0,
      "byteOffset" : 792600,
      "byteLength" : 5792
    },
    {
      "buffer" : 0,
      "byteOffset" : 798392,
      "byteLength" : 5792
    },
    {
      "buffer" : 0,
      "byteOffset" : 804184,
      "byteLength" : 2396
    },
    {
      "buffer" : 0,
      "byteOffset" : 806580,
      "byteLength" : 4932
    },
    {
      "buffer" : 0,
      "byteOffset" : 811512,
      "byteLength" : 4932
    },
    {
      "buffer" : 0,
      "byteOffset" : 816444,
      "byteLength" : 6576
    },
    {
      "buffer" : 0,
      "byteOffset" : 823020,
      "byteLength" : 1644
    },
    {
      "buffer" : 0,
      "byteOffset" : 824664,
      "byteLength" : 3288
    },
    {
      "buffer" : 0,
      "byteOffset" : 827952,
      "byteLength" : 3288
    },
    {
      "buffer" : 0,
      "byteOffset" : 831240,
      "byteLength" : 3288
    },
    {
      "buffer" : 0,
      "byteOffset" : 834528,
      "byteLength" : 3288
    },
    {
      "buffer" : 0,
      "byteOffset" : 837816,
      "byteLength" : 1056
    },
    {
      "buffer" : 0,
      "byteOffset" : 838872,
      "byteLength" : 1860
    },
    {
      "buffer" : 0,
      "byteOffset" : 840732,
      "byteLength" : 1860
    },
    {
      "buffer" : 0,
      "byteOffset" : 842592,
      "byteLength" : 2480
    },
    {
      "buffer" : 0,
      "byteOffset" : 845072,
      "byteLength" : 620
    },
    {
      "buffer" : 0,
      "byteOffset" : 845692,
      "byteLength" : 1240
    },
    {
      "buffer" : 0,
      "byteOffset" : 846932,
      "byteLength" : 1240
    },
    {
      "buffer" : 0,
      "byteOffset" : 848172,
      "byteLength" : 1240
    },
    {
      "buffer" : 0,
      "byteOffset" : 849412,
      "byteLength" : 1240
    },
    {
      "buffer" : 0,
      "byteOffset" : 850652,
      "byteLength" : 2576
    },
    {
      "buffer" : 0,
      "byteOffset" : 853228,
      "byteLength" : 7536
    },
    {
      "buffer" : 0,
      "byteOffset" : 860764,
      "byteLength" : 7536
    },
    {
      "buffer" : 0,
      "byteOffset" : 868300,
      "byteLength" : 10048
    },
    {
      "buffer" : 0,
      "byteOffset" : 878348,
      "byteLength" : 2512
    },
    {
      "buffer" : 0,
      "byteOffset" : 880860,
      "byteLength" : 5024
    },
    {
      "buffer" : 0,
      "byteOffset" : 885884,
      "byteLength" : 5024
    },
    {
      "buffer" : 0,
      "byteOffset" : 890908,
      "byteLength" : 5024
    },
    {
      "buffer" : 0,
      "byteOffset" : 895932,
      "byteLength" : 5024
    },
    {
      "buffer" : 0,
      "byteOffset" : 900956,
      "byteLength" : 120
    },
    {
      "buffer" : 0,
      "byteOffset" : 901076,
      "byteLength" : 480
    },
    {
      "buffer" : 0,
      "byteOffset" : 901556,
      "byteLength" : 480
    },
    {
      "buffer" : 0,
      "byteOffset" : 902036,
      "byteLength" : 640
    },
    {
      "buffer" : 0,
      "byteOffset" : 902676,
      "byteLength" : 160
    },
    {
      "buffer" : 0,
      "byteOffset" : 902836,
      "byteLength" : 320
    },
    {
      "buffer" : 0,
      "byteOffset" : 903156,
      "byteLength" : 320
    },
    {
      "buffer" : 0,
      "byteOffset" : 903476,
      "byteLength" : 320
    },
    {
      "buffer" : 0,
      "byteOffset" : 903796,
      "byteLength" : 320
    },
    {
      "buffer" : 0,
      "byteOffset" : 904116,
      "byteLength" : 17316
    },
    {
      "buffer" : 0,
      "byteOffset" : 921432,
      "byteLength" : 31224
    },
    {
      "buffer" : 0,
      "byteOffset" : 952656,
      "byteLength" : 31224
    },
    {
      "buffer" : 0,
      "byteOffset" : 983880,
      "byteLength" : 41632
    },
    {
      "buffer" : 0,
      "byteOffset" : 1025512,
      "byteLength" : 10408
    },
    {
      "buffer" : 0,
      "byteOffset" : 1035920,
      "byteLength" : 20816
    },
    {
      "buffer" : 0,
      "byteOffset" : 1056736,
      "byteLength" : 20816
    },
    {
      "buffer" : 0,
      "byteOffset" : 1077552,
      "byteLength" : 20816
    },
    {
      "buffer" : 0,
      "byteOffset" : 1098368,
      "byteLength" : 20816
    },
    {
      "buffer" : 0,
      "byteOffset" : 1119184,
      "byteLength" : 1028
    },
    {
      "buffer" : 0,
      "byteOffset" : 1120212,
      "byteLength" : 3816
    },
    {
      "buffer" : 0,
      "byteOffset" : 1124028,
      "byteLength" : 3816
    },
    {
      "buffer" : 0,
      "byteOffset" : 1127844,
      "byteLength" : 5088
    },
    {
      "buffer" : 0,
      "byteOffset" : 1132932,
      "byteLength" : 1272
    },
    {
      "buffer" : 0,
      "byteOffset" : 1134204,
      "byteLength" : 2544
    },
    {
      "buffer" : 0,
      "byteOffset" : 1136748,
      "byteLength" : 2544
    },
    {
      "buffer" : 0,
      "byteOffset" : 1139292,
      "byteLength" : 2544
    },
    {
      "buffer" : 0,
      "byteOffset" : 1141836,
      "byteLength" : 2544
    },
    {
      "buffer" : 0,
      "byteOffset" : 1144380,
      "byteLength" : 60
    },
    {
      "buffer" : 0,
      "byteOffset" : 1144440,
      "byteLength" : 240
    },
    {
      "buffer" : 0,
      "byteOffset" : 1144680,
      "byteLength" : 240
    },
    {
      "buffer" : 0,
      "byteOffset" : 1144920,
      "byteLength" : 320
    },
    {
      "buffer" : 0,
      "byteOffset" : 1145240,
      "byteLength" : 80
    },
    {
      "buffer" : 0,
      "byteOffset" : 1145320,
      "byteLength" : 160
    },
    {
      "buffer" : 0,
      "byteOffset" : 1145480,
      "byteLength" : 160
    },
    {
      "buffer" : 0,
      "byteOffset" : 1145640,
      "byteLength" : 160
    },
    {
      "buffer" : 0,
      "byteOffset" : 1145800,
      "byteLength" : 160
    },
    {
      "buffer" : 0,
      "byteOffset" : 1145960,
      "byteLength" : 552
    },
    {
      "buffer" : 0,
      "byteOffset" : 1146512,
      "byteLength" : 2208
    },
    {
      "buffer" : 0,
      "byteOffset" : 1148720,
      "byteLength" : 2208
    },
    {
      "buffer" : 0,
      "byteOffset" : 1150928,
      "byteLength" : 2944
    },
    {
      "buffer" : 0,
      "byteOffset" : 1153872,
      "byteLength" : 736
    },
    {
      "buffer" : 0,
      "byteOffset" : 1154608,
      "byteLength" : 1472
    },
    {
      "buffer" : 0,
      "byteOffset" : 1156080,
      "byteLength" : 1472
    },
    {
      "buffer" : 0,
      "byteOffset" : 1157552,
      "byteLength" : 1472
    },
    {
      "buffer" : 0,
      "byteOffset" : 1159024,
      "byteLength" : 1472
    },
    {
      "buffer" : 0,
      "byteOffset" : 1160496,
      "byteLength" : 456
    },
    {
      "buffer" : 0,
      "byteOffset" : 1160952,
      "byteLength" : 1452
    },
    {
      "buffer" : 0,
      "byteOffset" : 1162404,
      "byteLength" : 1452
    },
    {
      "buffer" : 0,
      "byteOffset" : 1163856,
      "byteLength" : 1936
    },
    {
      "buffer" : 0,
      "byteOffset" : 1165792,
      "byteLength" : 484
    },
    {
      "buffer" : 0,
      "byteOffset" : 1166276,
      "byteLength" : 968
    },
    {
      "buffer" : 0,
      "byteOffset" : 1167244,
      "byteLength" : 968
    },
    {
      "buffer" : 0,
      "byteOffset" : 1168212,
      "byteLength" : 968
    },
    {
      "buffer" : 0,
      "byteOffset" : 1169180,
      "byteLength" : 968
    },
    {
      "buffer" : 0,
      "byteOffset" : 1170148,
      "byteLength" : 480
    },
    {
      "buffer" : 0,
      "byteOffset" : 1170628,
      "byteLength" : 1152
    },
    {
      "buffer" : 0,
      "byteOffset" : 1171780,
      "byteLength" : 1152
    },
    {
      "buffer" : 0,
      "byteOffset" : 1172932,
      "byteLength" : 1536
    },
    {
      "buffer" : 0,
      "byteOffset" : 1174468,
      "byteLength" : 384
    },
    {
      "buffer" : 0,
      "byteOffset" : 1174852,
      "byteLength" : 768
    },
    {
      "buffer" : 0,
      "byteOffset" : 1175620,
      "byteLength" : 768
    },
    {
      "buffer" : 0,
      "byteOffset" : 1176388,
      "byteLength" : 768
    },
    {
      "buffer" : 0,
      "byteOffset" : 1177156,
      "byteLength" : 768
    },
    {
      "buffer" : 0,
      "byteOffset" : 1177924,
      "byteLength" : 17256
    },
    {
      "buffer" : 0,
      "byteOffset" : 1195180,
      "byteLength" : 50244
    },
    {
      "buffer" : 0,
      "byteOffset" : 1245424,
      "byteLength" : 50244
    },
    {
      "buffer" : 0,
      "byteOffset" : 1295668,
      "byteLength" : 66992
    },
    {
      "buffer" : 0,
      "byteOffset" : 1362660,
      "byteLength" : 16748
    },
    {
      "buffer" : 0,
      "byteOffset" : 1379408,
      "byteLength" : 33496
    },
    {
      "buffer" : 0,
      "byteOffset" : 1412904,
      "byteLength" : 33496
    },
    {
      "buffer" : 0,
      "byteOffset" : 1446400,
      "byteLength" : 33496
    },
    {
      "buffer" : 0,
      "byteOffset" : 1479896,
      "byteLength" : 33496
    }
  ],
  "accessors" : [
    {
      "bufferView" : 0,
      "componentType" : 5123,
      "count" : 12672,
      "type" : "SCALAR"
    },
    {
      "bufferView" : 1,
      "min" : [ -56.8465, 5.7063, -19.2322 ],
      "max" : [ -35.2139, 28.7375, 18.4038 ],
      "componentType" : 5126,
      "count" : 7176,
      "type" : "VEC3"
    },
    {
      "bufferView" : 2,
      "componentType" : 5126,
      "count" : 7176,
      "type" : "VEC3"
    },
    {
      "bufferView" : 3,
      "componentType" : 5126,
      "count" : 7176,
      "type" : "VEC4"
    },
    {
      "bufferView" : 4,
      "normalized" : true,
      "componentType" : 5121,
      "count" : 7176,
      "type" : "VEC4"
    },
    {
      "bufferView" : 5,
      "componentType" : 5126,
      "count" : 7176,
      "type" : "VEC2"
    },
    {
      "bufferView" : 6,
      "componentType" : 5126,
      "count" : 7176,
      "type" : "VEC2"
    },
    {
      "bufferView" : 7,
      "componentType" : 5126,
      "count" : 7176,
      "type" : "VEC2"
    },
    {
      "bufferView" : 8,
      "componentType" : 5126,
      "count" : 7176,
      "type" : "VEC2"
    },
    {
      "bufferView" : 9,
      "componentType" : 5123,
      "count" : 5121,
      "type" : "SCALAR"
    },
    {
      "bufferView" : 10,
      "min" : [ -56.8464, 10.345, -19.2322 ],
      "max" : [ -35.2692, 29.4911, 18.4038 ],
      "componentType" : 5126,
      "count" : 2170,
      "type" : "VEC3"
    },
    {
      "bufferView" : 11,
      "componentType" : 5126,
      "count" : 2170,
      "type" : "VEC3"
    },
    {
      "bufferView" : 12,
      "componentType" : 5126,
      "count" : 2170,
      "type" : "VEC4"
    },
    {
      "bufferView" : 13,
      "normalized" : true,
      "componentType" : 5121,
      "count" : 2170,
      "type" : "VEC4"
    },
    {
      "bufferView" : 14,
      "componentType" : 5126,
      "count" : 2170,
      "type" : "VEC2"
    },
    {
      "bufferView" : 15,
      "componentType" : 5126,
      "count" : 2170,
      "type" : "VEC2"
    },
    {
      "bufferView" : 16,
      "componentType" : 5126,
      "count" : 2170,
      "type" : "VEC2"
    },
    {
      "bufferView" : 17,
      "componentType" : 5126,
      "count" : 2170,
      "type" : "VEC2"
    },
    {
      "bufferView" : 18,
      "componentType" : 5123,
      "count" : 1638,
      "type" : "SCALAR"
    },
    {
      "bufferView" : 19,
      "min" : [ -54.2948, 5.90641, -16.3696 ],
      "max" : [ -37.3837, 28.8398, 15.5721 ],
      "componentType" : 5126,
      "count" : 724,
      "type" : "VEC3"
    },
    {
      "bufferView" : 20,
      "componentType" : 5126,
      "count" : 724,
      "type" : "VEC3"
    },
    {
      "bufferView" : 21,
      "componentType" : 5126,
      "count" : 724,
      "type" : "VEC4"
    },
    {
      "bufferView" : 22,
      "normalized" : true,
      "componentType" : 5121,
      "count" : 724,
      "type" : "VEC4"
    },
    {
      "bufferView" : 23,
      "componentType" : 5126,
      "count" : 724,
      "type" : "VEC2"
    },
    {
      "bufferView" : 24,
      "componentType" : 5126,
      "count" : 724,
      "type" : "VEC2"
    },
    {
      "bufferView" : 25,
      "componentType" : 5126,
      "count" : 724,
      "type" : "VEC2"
    },
    {
      "bufferView" : 26,
      "componentType" : 5126,
      "count" : 724,
      "type" : "VEC2"
    },
    {
      "bufferView" : 27,
      "componentType" : 5123,
      "count" : 1197,
      "type" : "SCALAR"
    },
    {
      "bufferView" : 28,
      "min" : [ -53.2468, 25.7897, -9.8222 ],
      "max" : [ -41.1958, 28.9013, 8.99077 ],
      "componentType" : 5126,
      "count" : 411,
      "type" : "VEC3"
    },
    {
      "bufferView" : 29,
      "componentType" : 5126,
      "count" : 411,
      "type" : "VEC3"
    },
    {
      "bufferView" : 30,
      "componentType" : 5126,
      "count" : 411,
      "type" : "VEC4"
    },
    {
      "bufferView" : 31,
      "normalized" : true,
      "componentType" : 5121,
      "count" : 411,
      "type" : "VEC4"
    },
    {
      "bufferView" : 32,
      "componentType" : 5126,
      "count" : 411,
      "type" : "VEC2"
    },
    {
      "bufferView" : 33,
      "componentType" : 5126,
      "count" : 411,
      "type" : "VEC2"
    },
    {
      "bufferView" : 34,
      "componentType" : 5126,
      "count" : 411,
      "type" : "VEC2"
    },
    {
      "bufferView" : 35,
      "componentType" : 5126,
      "count" : 411,
      "type" : "VEC2"
    },
    {
      "bufferView" : 36,
      "componentType" : 5123,
      "count" : 528,
      "type" : "SCALAR"
    },
    {
      "bufferView" : 37,
      "min" : [ -41.8315, 26.7643, -0.988765 ],
      "max" : [ -40.6212, 28.5468, 0.162235 ],
      "componentType" : 5126,
      "count" : 155,
      "type" : "VEC3"
    },
    {
      "bufferView" : 38,
      "componentType" : 5126,
      "count" : 155,
      "type" : "VEC3"
    },
    {
      "bufferView" : 39,
      "componentType" : 5126,
      "count" : 155,
      "type" : "VEC4"
    },
    {
      "bufferView" : 40,
      "normalized" : true,
      "componentType" : 5121,
      "count" : 155,
      "type" : "VEC4"
    },
    {
      "bufferView" : 41,
      "componentType" : 5126,
      "count" : 155,
      "type" : "VEC2"
    },
    {
      "bufferView" : 42,
      "componentType" : 5126,
      "count" : 155,
      "type" : "VEC2"
    },
    {
      "bufferView" : 43,
      "componentType" : 5126,
      "count" : 155,
      "type" : "VEC2"
    },
    {
      "bufferView" : 44,
      "componentType" : 5126,
      "count" : 155,
      "type" : "VEC2"
    },
    {
      "bufferView" : 45,
      "componentType" : 5123,
      "count" : 1287,
      "type" : "SCALAR"
    },
    {
      "bufferView" : 46,
      "min" : [ -54.879, 13.5412, -9.65465 ],
      "max" : [ -35.2275, 29.5264, 8.86132 ],
      "componentType" : 5126,
      "count" : 628,
      "type" : "VEC3"
    },
    {
      "bufferView" : 47,
      "componentType" : 5126,
      "count" : 628,
      "type" : "VEC3"
    },
    {
      "bufferView" : 48,
      "componentType" : 5126,
      "count" : 628,
      "type" : "VEC4"
    },
    {
      "bufferView" : 49,
      "normalized" : true,
      "componentType" : 5121,
      "count" : 628,
      "type" : "VEC4"
    },
    {
      "bufferView" : 50,
      "componentType" : 5126,
      "count" : 628,
      "type" : "VEC2"
    },
    {
      "bufferView" : 51,
      "componentType" : 5126,
      "count" : 628,
      "type" : "VEC2"
    },
    {
      "bufferView" : 52,
      "componentType" : 5126,
      "count" : 628,
      "type" : "VEC2"
    },
    {
      "bufferView" : 53,
      "componentType" : 5126,
      "count" : 628,
      "type" : "VEC2"
    },
    {
      "bufferView" : 54,
      "componentType" : 5123,
      "count" : 60,
      "type" : "SCALAR"
    },
    {
      "bufferView" : 55,
      "min" : [ -37.8879, 15.1207, -9.43787 ],
      "max" : [ -37.0921, 20.4209, 0.24505 ],
      "componentType" : 5126,
      "count" : 40,
      "type" : "VEC3"
    },
    {
      "bufferView" : 56,
      "componentType" : 5126,
      "count" : 40,
      "type" : "VEC3"
    },
    {
      "bufferView" : 57,
      "componentType" : 5126,
      "count" : 40,
      "type" : "VEC4"
    },
    {
      "bufferView" : 58,
      "normalized" : true,
      "componentType" : 5121,
      "count" : 40,
      "type" : "VEC4"
    },
    {
      "bufferView" : 59,
      "componentType" : 5126,
      "count" : 40,
      "type" : "VEC2"
    },
    {
      "bufferView" : 60,
      "componentType" : 5126,
      "count" : 40,
      "type" : "VEC2"
    },
    {
      "bufferView" : 61,
      "componentType" : 5126,
      "count" : 40,
      "type" : "VEC2"
    },
    {
      "bufferView" : 62,
      "componentType" : 5126,
      "count" : 40,
      "type" : "VEC2"
    },
    {
      "bufferView" : 63,
      "componentType" : 5123,
      "count" : 8658,
      "type" : "SCALAR"
    },
    {
      "bufferView" : 64,
      "min" : [ -56.4474, 11.7064, -18.0411 ],
      "max" : [ -35.8619, 27.9424, 17.2827 ],
      "componentType" : 5126,
      "count" : 2602,
      "type" : "VEC3"
    },
    {
      "bufferView" : 65,
      "componentType" : 5126,
      "count" : 2602,
      "type" : "VEC3"
    },
    {
      "bufferView" : 66,
      "componentType" : 5126,
      "count" : 2602,
      "type" : "VEC4"
    },
    {
      "bufferView" : 67,
      "normalized" : true,
      "componentType" : 5121,
      "count" : 2602,
      "type" : "VEC4"
    },
    {
      "bufferView" : 68,
      "componentType" : 5126,
      "count" : 2602,
      "type" : "VEC2"
    },
    {
      "bufferView" : 69,
      "componentType" : 5126,
      "count" : 2602,
      "type" : "VEC2"
    },
    {
      "bufferView" : 70,
      "componentType" : 5126,
      "count" : 2602,
      "type" : "VEC2"
    },
    {
      "bufferView" : 71,
      "componentType" : 5126,
      "count" : 2602,
      "type" : "VEC2"
    },
    {
      "bufferView" : 72,
      "componentType" : 5123,
      "count" : 513,
      "type" : "SCALAR"
    },
    {
      "bufferView" : 73,
      "min" : [ -54.723, 5.70633, -16.6217 ],
      "max" : [ -37.4945, 28.6569, 15.7933 ],
      "componentType" : 5126,
      "count" : 318,
      "type" : "VEC3"
    },
    {
      "bufferView" : 74,
      "componentType" : 5126,
      "count" : 318,
      "type" : "VEC3"
    },
    {
      "bufferView" : 75,
      "componentType" : 5126,
      "count" : 318,
      "type" : "VEC4"
    },
    {
      "bufferView" : 76,
      "normalized" : true,
      "componentType" : 5121,
      "count" : 318,
      "type" : "VEC4"
    },
    {
      "bufferView" : 77,
      "componentType" : 5126,
      "count" : 318,
      "type" : "VEC2"
    },
    {
      "bufferView" : 78,
      "componentType" : 5126,
      "count" : 318,
      "type" : "VEC2"
    },
    {
      "bufferView" : 79,
      "componentType" : 5126,
      "count" : 318,
      "type" : "VEC2"
    },
    {
      "bufferView" : 80,
      "componentType" : 5126,
      "count" : 318,
      "type" : "VEC2"
    },
    {
      "bufferView" : 81,
      "componentType" : 5123,
      "count" : 30,
      "type" : "SCALAR"
    },
    {
      "bufferView" : 82,
      "min" : [ -43.0124, 5.70641, -0.0712756 ],
      "max" : [ -39.0124, 10.3064, 5.8772 ],
      "componentType" : 5126,
      "count" : 20,
      "type" : "VEC3"
    },
    {
      "bufferView" : 83,
      "componentType" : 5126,
      "count" : 20,
      "type" : "VEC3"
    },
    {
      "bufferView" : 84,
      "componentType" : 5126,
      "count" : 20,
      "type" : "VEC4"
    },
    {
      "bufferView" : 85,
      "normalized" : true,
      "componentType" : 5121,
      "count" : 20,
      "type" : "VEC4"
    },
    {
      "bufferView" : 86,
      "componentType" : 5126,
      "count" : 20,
      "type" : "VEC2"
    },
    {
      "bufferView" : 87,
      "componentType" : 5126,
      "count" : 20,
      "type" : "VEC2"
    },
    {
      "bufferView" : 88,
      "componentType" : 5126,
      "count" : 20,
      "type" : "VEC2"
    },
    {
      "bufferView" : 89,
      "componentType" : 5126,
      "count" : 20,
      "type" : "VEC2"
    },
    {
      "bufferView" : 90,
      "componentType" : 5123,
      "count" : 276,
      "type" : "SCALAR"
    },
    {
      "bufferView" : 91,
      "min" : [ -54.046, 5.85633, -16.6256 ],
      "max" : [ -37.4378, 21.7666, 15.1011 ],
      "componentType" : 5126,
      "count" : 184,
      "type" : "VEC3"
    },
    {
      "bufferView" : 92,
      "componentType" : 5126,
      "count" : 184,
      "type" : "VEC3"
    },
    {
      "bufferView" : 93,
      "componentType" : 5126,
      "count" : 184,
      "type" : "VEC4"
    },
    {
      "bufferView" : 94,
      "normalized" : true,
      "componentType" : 5121,
      "count" : 184,
      "type" : "VEC4"
    },
    {
      "bufferView" : 95,
      "componentType" : 5126,
      "count" : 184,
      "type" : "VEC2"
    },
    {
      "bufferView" : 96,
      "componentType" : 5126,
      "count" : 184,
      "type" : "VEC2"
    },
    {
      "bufferView" : 97,
      "componentType" : 5126,
      "count" : 184,
      "type" : "VEC2"
    },
    {
      "bufferView" : 98,
      "componentType" : 5126,
      "count" : 184,
      "type" : "VEC2"
    },
    {
      "bufferView" : 99,
      "componentType" : 5123,
      "count" : 228,
      "type" : "SCALAR"
    },
    {
      "bufferView" : 100,
      "min" : [ -36.6314, 11.41, 1.39042 ],
      "max" : [ -35.8357, 12.7096, 4.34698 ],
      "componentType" : 5126,
      "count" : 121,
      "type" : "VEC3"
    },
    {
      "bufferView" : 101,
      "componentType" : 5126,
      "count" : 121,
      "type" : "VEC3"
    },
    {
      "bufferView" : 102,
      "componentType" : 5126,
      "count" : 121,
      "type" : "VEC4"
    },
    {
      "bufferView" : 103,
      "normalized" : true,
      "componentType" : 5121,
      "count" : 121,
      "type" : "VEC4"
    },
    {
      "bufferView" : 104,
      "componentType" : 5126,
      "count" : 121,
      "type" : "VEC2"
    },
    {
      "bufferView" : 105,
      "componentType" : 5126,
      "count" : 121,
      "type" : "VEC2"
    },
    {
      "bufferView" : 106,
      "componentType" : 5126,
      "count" : 121,
      "type" : "VEC2"
    },
    {
      "bufferView" : 107,
      "componentType" : 5126,
      "count" : 121,
      "type" : "VEC2"
    },
    {
      "bufferView" : 108,
      "componentType" : 5123,
      "count" : 240,
      "type" : "SCALAR"
    },
    {
      "bufferView" : 109,
      "min" : [ -40.9004, 24.2761, -9.4307 ],
      "max" : [ -38.9528, 26.452, 8.59493 ],
      "componentType" : 5126,
      "count" : 96,
      "type" : "VEC3"
    },
    {
      "bufferView" : 110,
      "componentType" : 5126,
      "count" : 96,
      "type" : "VEC3"
    },
    {
      "bufferView" : 111,
      "componentType" : 5126,
      "count" : 96,
      "type" : "VEC4"
    },
    {
      "bufferView" : 112,
      "normalized" : true,
      "componentType" : 5121,
      "count" : 96,
      "type" : "VEC4"
    },
    {
      "bufferView" : 113,
      "componentType" : 5126,
      "count" : 96,
      "type" : "VEC2"
    },
    {
      "bufferView" : 114,
      "componentType" : 5126,
      "count" : 96,
      "type" : "VEC2"
    },
    {
      "bufferView" : 115,
      "componentType" : 5126,
      "count" : 96,
      "type" : "VEC2"
    },
    {
      "bufferView" : 116,
      "componentType" : 5126,
      "count" : 96,
      "type" : "VEC2"
    },
    {
      "bufferView" : 117,
      "componentType" : 5123,
      "count" : 8628,
      "type" : "SCALAR"
    },
    {
      "bufferView" : 118,
      "min" : [ -56.4084, 5.70633, -17.6251 ],
      "max" : [ -35.7241, 30.9305, 16.9632 ],
      "componentType" : 5126,
      "count" : 4187,
      "type" : "VEC3"
    },
    {
      "bufferView" : 119,
      "componentType" : 5126,
      "count" : 4187,
      "type" : "VEC3"
    },
    {
      "bufferView" : 120,
      "componentType" : 5126,
      "count" : 4187,
      "type" : "VEC4"
    },
    {
      "bufferView" : 121,
      "normalized" : true,
      "componentType" : 5121,
      "count" : 4187,
      "type" : "VEC4"
    },
    {
      "bufferView" : 122,
      "componentType" : 5126,
      "count" : 4187,
      "type" : "VEC2"
    },
    {
      "bufferView" : 123,
      "componentType" : 5126,
      "count" : 4187,
      "type" : "VEC2"
    },
    {
      "bufferView" : 124,
      "componentType" : 5126,
      "count" : 4187,
      "type" : "VEC2"
    },
    {
      "bufferView" : 125,
      "componentType" : 5126,
      "count" : 4187,
      "type" : "VEC2"
    }
  ]
}
