{
  "asset" : {
    "generator" : "UE Viewer (umodel) build 1544 based",
    "version" : "2.0"
  },
  "scene" : 0,
  "scenes" : [
    {
      "nodes" : [ 0 ]
    }
  ],
  "nodes" : [
    {
      "name" : "SM_ENV_LKNVLD_UmbrellaStool_A",
      "mesh" : 0
    }
  ],
  "materials" : [
    {
      "name" : "MI_ENV_LKNVLD_UmbrellaStool_A",
      "pbrMetallicRoughness" : {
        "baseColorFactor" : [ 0.3, 0.3, 0.3, 1.0 ],
        "metallicFactor" : 0.1,
        "roughnessFactor" : 0.5
      }
    }
  ],
  "meshes" : [
    {
      "primitives" : [
        {
          "attributes" : {
            "POSITION" : 1,
            "NORMAL" : 2,
            "TANGENT" : 3,
            "TEXCOORD_0" : 4,
            "TEXCOORD_1" : 5,
            "TEXCOORD_2" : 6,
            "TEXCOORD_3" : 7
          },
          "indices" : 0,
          "material" : 0
        }
      ],
      "name" : "SM_ENV_LKNVLD_UmbrellaStool_A"
    }
  ],
  "buffers" : [
    {
      "uri" : "SM_ENV_LKNVLD_UmbrellaStool_A.bin",
      "byteLength" : 23736
    }
  ],
  "bufferViews" : [
    {
      "buffer" : 0,
      "byteOffset" : 0,
      "byteLength" : 2712
    },
    {
      "buffer" : 0,
      "byteOffset" : 2712,
      "byteLength" : 3504
    },
    {
      "buffer" : 0,
      "byteOffset" : 6216,
      "byteLength" : 3504
    },
    {
      "buffer" : 0,
      "byteOffset" : 9720,
      "byteLength" : 4672
    },
    {
      "buffer" : 0,
      "byteOffset" : 14392,
      "byteLength" : 2336
    },
    {
      "buffer" : 0,
      "byteOffset" : 16728,
      "byteLength" : 2336
    },
    {
      "buffer" : 0,
      "byteOffset" : 19064,
      "byteLength" : 2336
    },
    {
      "buffer" : 0,
      "byteOffset" : 21400,
      "byteLength" : 2336
    }
  ],
  "accessors" : [
    {
      "bufferView" : 0,
      "componentType" : 5123,
      "count" : 1356,
      "type" : "SCALAR"
    },
    {
      "bufferView" : 1,
      "min" : [ -1.96354, 0.0269, -0.788539 ],
      "max" : [ 0.229126, 0.556361, 0.181024 ],
      "componentType" : 5126,
      "count" : 292,
      "type" : "VEC3"
    },
    {
      "bufferView" : 2,
      "componentType" : 5126,
      "count" : 292,
      "type" : "VEC3"
    },
    {
      "bufferView" : 3,
      "componentType" : 5126,
      "count" : 292,
      "type" : "VEC4"
    },
    {
      "bufferView" : 4,
      "componentType" : 5126,
      "count" : 292,
      "type" : "VEC2"
    },
    {
      "bufferView" : 5,
      "componentType" : 5126,
      "count" : 292,
      "type" : "VEC2"
    },
    {
      "bufferView" : 6,
      "componentType" : 5126,
      "count" : 292,
      "type" : "VEC2"
    },
    {
      "bufferView" : 7,
      "componentType" : 5126,
      "count" : 292,
      "type" : "VEC2"
    }
  ]
}
