{
  "asset" : {
    "generator" : "UE Viewer (umodel) build 1544 based",
    "version" : "2.0"
  },
  "scene" : 0,
  "scenes" : [
    {
      "nodes" : [ 0 ]
    }
  ],
  "nodes" : [
    {
      "name" : "SM_ENV_LKNVLD_VRArena_Structure_B",
      "mesh" : 0
    }
  ],
  "materials" : [
    {
      "name" : "MI_ENV_LKNVLD_Plaster",
      "pbrMetallicRoughness" : {
        "baseColorFactor" : [ 0.3, 0.3, 0.3, 1.0 ],
        "metallicFactor" : 0.1,
        "roughnessFactor" : 0.5
      }
    },
    {
      "name" : "MI_ENV_LKNVLD_Plaster_Dark",
      "pbrMetallicRoughness" : {
        "baseColorFactor" : [ 0.9, 0.3, 0.3, 1.0 ],
        "metallicFactor" : 0.1,
        "roughnessFactor" : 0.5
      }
    },
    {
      "name" : "MI_ENV_LKNVLD_Windows_A",
      "pbrMetallicRoughness" : {
        "baseColorFactor" : [ 0.3, 0.9, 0.3, 1.0 ],
        "metallicFactor" : 0.1,
        "roughnessFactor" : 0.5
      }
    },
    {
      "name" : "MI_ENV_LKNVLD_MetalRoofDark",
      "pbrMetallicRoughness" : {
        "baseColorFactor" : [ 0.3, 0.3, 0.9, 1.0 ],
        "metallicFactor" : 0.1,
        "roughnessFactor" : 0.5
      }
    },
    {
      "name" : "MI_T_ENV_LKNVLD_StoneTrim",
      "pbrMetallicRoughness" : {
        "baseColorFactor" : [ 0.9, 0.9, 0.9, 1.0 ],
        "metallicFactor" : 0.1,
        "roughnessFactor" : 0.5
      }
    },
    {
      "name" : "MI_ENV_LKNVLD_WoodWallSet",
      "pbrMetallicRoughness" : {
        "baseColorFactor" : [ 0.9, 0.9, 0.3, 1.0 ],
        "metallicFactor" : 0.1,
        "roughnessFactor" : 0.5
      }
    },
    {
      "name" : "MI_ENV_LKNVLD_MetalRoof_Purple",
      "pbrMetallicRoughness" : {
        "baseColorFactor" : [ 0.9, 0.3, 0.9, 1.0 ],
        "metallicFactor" : 0.1,
        "roughnessFactor" : 0.5
      }
    },
    {
      "name" : "MI_ENV_LKNVLD_Eaves_A",
      "pbrMetallicRoughness" : {
        "baseColorFactor" : [ 0.3, 0.9, 0.9, 1.0 ],
        "metallicFactor" : 0.1,
        "roughnessFactor" : 0.5
      }
    },
    {
      "name" : "MI_ENV_LKNVLD_Plaster_Purple",
      "pbrMetallicRoughness" : {
        "baseColorFactor" : [ 1, 0.3, 0.3, 1.0 ],
        "metallicFactor" : 0.1,
        "roughnessFactor" : 0.5
      }
    },
    {
      "name" : "MI_ENV_LKNVLD_Signboard_A",
      "pbrMetallicRoughness" : {
        "baseColorFactor" : [ 0.6, 0.3, 0.3, 1.0 ],
        "metallicFactor" : 0.1,
        "roughnessFactor" : 0.5
      }
    },
    {
      "name" : "MI_ENV_LKNVLD_WoodBoard_Natural",
      "pbrMetallicRoughness" : {
        "baseColorFactor" : [ 1, 0.9, 0.3, 1.0 ],
        "metallicFactor" : 0.1,
        "roughnessFactor" : 0.5
      }
    },
    {
      "name" : "MI_ENV_LKNVLD_WoodPlain_Red",
      "pbrMetallicRoughness" : {
        "baseColorFactor" : [ 1, 0.3, 0.9, 1.0 ],
        "metallicFactor" : 0.1,
        "roughnessFactor" : 0.5
      }
    },
    {
      "name" : "MI_ENV_LKNVLD_Eaves_B",
      "pbrMetallicRoughness" : {
        "baseColorFactor" : [ 0.6, 0.9, 0.9, 1.0 ],
        "metallicFactor" : 0.1,
        "roughnessFactor" : 0.5
      }
    },
    {
      "name" : "MI_ENV_LKNVLD_Plaster_Dark",
      "pbrMetallicRoughness" : {
        "baseColorFactor" : [ 0.6, 0.9, 0.3, 1.0 ],
        "metallicFactor" : 0.1,
        "roughnessFactor" : 0.5
      }
    },
    {
      "name" : "MI_ENV_LKNVLD_Door_A",
      "pbrMetallicRoughness" : {
        "baseColorFactor" : [ 0.6, 0.3, 0.9, 1.0 ],
        "metallicFactor" : 0.1,
        "roughnessFactor" : 0.5
      }
    },
    {
      "name" : "MI_ENV_LKNVLD_Lantern_A",
      "pbrMetallicRoughness" : {
        "baseColorFactor" : [ 1, 0.9, 0.9, 1.0 ],
        "metallicFactor" : 0.1,
        "roughnessFactor" : 0.5
      }
    },
    {
      "name" : "MI_ENV_LKNVLD_Pipe_B",
      "pbrMetallicRoughness" : {
        "baseColorFactor" : [ 0.3, 1, 0.3, 1.0 ],
        "metallicFactor" : 0.1,
        "roughnessFactor" : 0.5
      }
    },
    {
      "name" : "MI_ENV_LKNVLD_WoodWallSet",
      "pbrMetallicRoughness" : {
        "baseColorFactor" : [ 0.9, 1, 0.3, 1.0 ],
        "metallicFactor" : 0.1,
        "roughnessFactor" : 0.5
      }
    }
  ],
  "meshes" : [
    {
      "primitives" : [
        {
          "attributes" : {
            "POSITION" : 1,
            "NORMAL" : 2,
            "TANGENT" : 3,
            "TEXCOORD_0" : 4,
            "TEXCOORD_1" : 5,
            "TEXCOORD_2" : 6,
            "TEXCOORD_3" : 7
          },
          "indices" : 0,
          "material" : 0
        },
        {
          "attributes" : {
            "POSITION" : 9,
            "NORMAL" : 10,
            "TANGENT" : 11,
            "TEXCOORD_0" : 12,
            "TEXCOORD_1" : 13,
            "TEXCOORD_2" : 14,
            "TEXCOORD_3" : 15
          },
          "indices" : 8,
          "material" : 1
        },
        {
          "attributes" : {
            "POSITION" : 17,
            "NORMAL" : 18,
            "TANGENT" : 19,
            "TEXCOORD_0" : 20,
            "TEXCOORD_1" : 21,
            "TEXCOORD_2" : 22,
            "TEXCOORD_3" : 23
          },
          "indices" : 16,
          "material" : 2
        },
        {
          "attributes" : {
            "POSITION" : 25,
            "NORMAL" : 26,
            "TANGENT" : 27,
            "TEXCOORD_0" : 28,
            "TEXCOORD_1" : 29,
            "TEXCOORD_2" : 30,
            "TEXCOORD_3" : 31
          },
          "indices" : 24,
          "material" : 3
        },
        {
          "attributes" : {
            "POSITION" : 33,
            "NORMAL" : 34,
            "TANGENT" : 35,
            "TEXCOORD_0" : 36,
            "TEXCOORD_1" : 37,
            "TEXCOORD_2" : 38,
            "TEXCOORD_3" : 39
          },
          "indices" : 32,
          "material" : 4
        },
        {
          "attributes" : {
            "POSITION" : 41,
            "NORMAL" : 42,
            "TANGENT" : 43,
            "TEXCOORD_0" : 44,
            "TEXCOORD_1" : 45,
            "TEXCOORD_2" : 46,
            "TEXCOORD_3" : 47
          },
          "indices" : 40,
          "material" : 5
        },
        {
          "attributes" : {
            "POSITION" : 49,
            "NORMAL" : 50,
            "TANGENT" : 51,
            "TEXCOORD_0" : 52,
            "TEXCOORD_1" : 53,
            "TEXCOORD_2" : 54,
            "TEXCOORD_3" : 55
          },
          "indices" : 48,
          "material" : 6
        },
        {
          "attributes" : {
            "POSITION" : 57,
            "NORMAL" : 58,
            "TANGENT" : 59,
            "TEXCOORD_0" : 60,
            "TEXCOORD_1" : 61,
            "TEXCOORD_2" : 62,
            "TEXCOORD_3" : 63
          },
          "indices" : 56,
          "material" : 7
        },
        {
          "attributes" : {
            "POSITION" : 65,
            "NORMAL" : 66,
            "TANGENT" : 67,
            "TEXCOORD_0" : 68,
            "TEXCOORD_1" : 69,
            "TEXCOORD_2" : 70,
            "TEXCOORD_3" : 71
          },
          "indices" : 64,
          "material" : 8
        },
        {
          "attributes" : {
            "POSITION" : 73,
            "NORMAL" : 74,
            "TANGENT" : 75,
            "TEXCOORD_0" : 76,
            "TEXCOORD_1" : 77,
            "TEXCOORD_2" : 78,
            "TEXCOORD_3" : 79
          },
          "indices" : 72,
          "material" : 9
        },
        {
          "attributes" : {
            "POSITION" : 81,
            "NORMAL" : 82,
            "TANGENT" : 83,
            "TEXCOORD_0" : 84,
            "TEXCOORD_1" : 85,
            "TEXCOORD_2" : 86,
            "TEXCOORD_3" : 87
          },
          "indices" : 80,
          "material" : 10
        },
        {
          "attributes" : {
            "POSITION" : 89,
            "NORMAL" : 90,
            "TANGENT" : 91,
            "TEXCOORD_0" : 92,
            "TEXCOORD_1" : 93,
            "TEXCOORD_2" : 94,
            "TEXCOORD_3" : 95
          },
          "indices" : 88,
          "material" : 11
        },
        {
          "attributes" : {
            "POSITION" : 97,
            "NORMAL" : 98,
            "TANGENT" : 99,
            "TEXCOORD_0" : 100,
            "TEXCOORD_1" : 101,
            "TEXCOORD_2" : 102,
            "TEXCOORD_3" : 103
          },
          "indices" : 96,
          "material" : 12
        },
        {
          "attributes" : {
            "POSITION" : 105,
            "NORMAL" : 106,
            "TANGENT" : 107,
            "TEXCOORD_0" : 108,
            "TEXCOORD_1" : 109,
            "TEXCOORD_2" : 110,
            "TEXCOORD_3" : 111
          },
          "indices" : 104,
          "material" : 13
        },
        {
          "attributes" : {
            "POSITION" : 113,
            "NORMAL" : 114,
            "TANGENT" : 115,
            "TEXCOORD_0" : 116,
            "TEXCOORD_1" : 117,
            "TEXCOORD_2" : 118,
            "TEXCOORD_3" : 119
          },
          "indices" : 112,
          "material" : 14
        },
        {
          "attributes" : {
            "POSITION" : 121,
            "NORMAL" : 122,
            "TANGENT" : 123,
            "TEXCOORD_0" : 124,
            "TEXCOORD_1" : 125,
            "TEXCOORD_2" : 126,
            "TEXCOORD_3" : 127
          },
          "indices" : 120,
          "material" : 15
        },
        {
          "attributes" : {
            "POSITION" : 129,
            "NORMAL" : 130,
            "TANGENT" : 131,
            "TEXCOORD_0" : 132,
            "TEXCOORD_1" : 133,
            "TEXCOORD_2" : 134,
            "TEXCOORD_3" : 135
          },
          "indices" : 128,
          "material" : 16
        },
        {
          "attributes" : {
            "POSITION" : 137,
            "NORMAL" : 138,
            "TANGENT" : 139,
            "TEXCOORD_0" : 140,
            "TEXCOORD_1" : 141,
            "TEXCOORD_2" : 142,
            "TEXCOORD_3" : 143
          },
          "indices" : 136,
          "material" : 17
        }
      ],
      "name" : "SM_ENV_LKNVLD_VRArena_Structure_B"
    }
  ],
  "buffers" : [
    {
      "uri" : "SM_ENV_LKNVLD_VRArena_Structure_B.bin",
      "byteLength" : 682204
    }
  ],
  "bufferViews" : [
    {
      "buffer" : 0,
      "byteOffset" : 0,
      "byteLength" : 624
    },
    {
      "buffer" : 0,
      "byteOffset" : 624,
      "byteLength" : 1584
    },
    {
      "buffer" : 0,
      "byteOffset" : 2208,
      "byteLength" : 1584
    },
    {
      "buffer" : 0,
      "byteOffset" : 3792,
      "byteLength" : 2112
    },
    {
      "buffer" : 0,
      "byteOffset" : 5904,
      "byteLength" : 1056
    },
    {
      "buffer" : 0,
      "byteOffset" : 6960,
      "byteLength" : 1056
    },
    {
      "buffer" : 0,
      "byteOffset" : 8016,
      "byteLength" : 1056
    },
    {
      "buffer" : 0,
      "byteOffset" : 9072,
      "byteLength" : 1056
    },
    {
      "buffer" : 0,
      "byteOffset" : 10128,
      "byteLength" : 3840
    },
    {
      "buffer" : 0,
      "byteOffset" : 13968,
      "byteLength" : 13524
    },
    {
      "buffer" : 0,
      "byteOffset" : 27492,
      "byteLength" : 13524
    },
    {
      "buffer" : 0,
      "byteOffset" : 41016,
      "byteLength" : 18032
    },
    {
      "buffer" : 0,
      "byteOffset" : 59048,
      "byteLength" : 9016
    },
    {
      "buffer" : 0,
      "byteOffset" : 68064,
      "byteLength" : 9016
    },
    {
      "buffer" : 0,
      "byteOffset" : 77080,
      "byteLength" : 9016
    },
    {
      "buffer" : 0,
      "byteOffset" : 86096,
      "byteLength" : 9016
    },
    {
      "buffer" : 0,
      "byteOffset" : 95112,
      "byteLength" : 468
    },
    {
      "buffer" : 0,
      "byteOffset" : 95580,
      "byteLength" : 1368
    },
    {
      "buffer" : 0,
      "byteOffset" : 96948,
      "byteLength" : 1368
    },
    {
      "buffer" : 0,
      "byteOffset" : 98316,
      "byteLength" : 1824
    },
    {
      "buffer" : 0,
      "byteOffset" : 100140,
      "byteLength" : 912
    },
    {
      "buffer" : 0,
      "byteOffset" : 101052,
      "byteLength" : 912
    },
    {
      "buffer" : 0,
      "byteOffset" : 101964,
      "byteLength" : 912
    },
    {
      "buffer" : 0,
      "byteOffset" : 102876,
      "byteLength" : 912
    },
    {
      "buffer" : 0,
      "byteOffset" : 103788,
      "byteLength" : 4104
    },
    {
      "buffer" : 0,
      "byteOffset" : 107892,
      "byteLength" : 14148
    },
    {
      "buffer" : 0,
      "byteOffset" : 122040,
      "byteLength" : 14148
    },
    {
      "buffer" : 0,
      "byteOffset" : 136188,
      "byteLength" : 18864
    },
    {
      "buffer" : 0,
      "byteOffset" : 155052,
      "byteLength" : 9432
    },
    {
      "buffer" : 0,
      "byteOffset" : 164484,
      "byteLength" : 9432
    },
    {
      "buffer" : 0,
      "byteOffset" : 173916,
      "byteLength" : 9432
    },
    {
      "buffer" : 0,
      "byteOffset" : 183348,
      "byteLength" : 9432
    },
    {
      "buffer" : 0,
      "byteOffset" : 192780,
      "byteLength" : 528
    },
    {
      "buffer" : 0,
      "byteOffset" : 193308,
      "byteLength" : 1992
    },
    {
      "buffer" : 0,
      "byteOffset" : 195300,
      "byteLength" : 1992
    },
    {
      "buffer" : 0,
      "byteOffset" : 197292,
      "byteLength" : 2656
    },
    {
      "buffer" : 0,
      "byteOffset" : 199948,
      "byteLength" : 1328
    },
    {
      "buffer" : 0,
      "byteOffset" : 201276,
      "byteLength" : 1328
    },
    {
      "buffer" : 0,
      "byteOffset" : 202604,
      "byteLength" : 1328
    },
    {
      "buffer" : 0,
      "byteOffset" : 203932,
      "byteLength" : 1328
    },
    {
      "buffer" : 0,
      "byteOffset" : 205260,
      "byteLength" : 3212
    },
    {
      "buffer" : 0,
      "byteOffset" : 208472,
      "byteLength" : 11772
    },
    {
      "buffer" : 0,
      "byteOffset" : 220244,
      "byteLength" : 11772
    },
    {
      "buffer" : 0,
      "byteOffset" : 232016,
      "byteLength" : 15696
    },
    {
      "buffer" : 0,
      "byteOffset" : 247712,
      "byteLength" : 7848
    },
    {
      "buffer" : 0,
      "byteOffset" : 255560,
      "byteLength" : 7848
    },
    {
      "buffer" : 0,
      "byteOffset" : 263408,
      "byteLength" : 7848
    },
    {
      "buffer" : 0,
      "byteOffset" : 271256,
      "byteLength" : 7848
    },
    {
      "buffer" : 0,
      "byteOffset" : 279104,
      "byteLength" : 1728
    },
    {
      "buffer" : 0,
      "byteOffset" : 280832,
      "byteLength" : 3456
    },
    {
      "buffer" : 0,
      "byteOffset" : 284288,
      "byteLength" : 3456
    },
    {
      "buffer" : 0,
      "byteOffset" : 287744,
      "byteLength" : 4608
    },
    {
      "buffer" : 0,
      "byteOffset" : 292352,
      "byteLength" : 2304
    },
    {
      "buffer" : 0,
      "byteOffset" : 294656,
      "byteLength" : 2304
    },
    {
      "buffer" : 0,
      "byteOffset" : 296960,
      "byteLength" : 2304
    },
    {
      "buffer" : 0,
      "byteOffset" : 299264,
      "byteLength" : 2304
    },
    {
      "buffer" : 0,
      "byteOffset" : 301568,
      "byteLength" : 1908
    },
    {
      "buffer" : 0,
      "byteOffset" : 303476,
      "byteLength" : 3984
    },
    {
      "buffer" : 0,
      "byteOffset" : 307460,
      "byteLength" : 3984
    },
    {
      "buffer" : 0,
      "byteOffset" : 311444,
      "byteLength" : 5312
    },
    {
      "buffer" : 0,
      "byteOffset" : 316756,
      "byteLength" : 2656
    },
    {
      "buffer" : 0,
      "byteOffset" : 319412,
      "byteLength" : 2656
    },
    {
      "buffer" : 0,
      "byteOffset" : 322068,
      "byteLength" : 2656
    },
    {
      "buffer" : 0,
      "byteOffset" : 324724,
      "byteLength" : 2656
    },
    {
      "buffer" : 0,
      "byteOffset" : 327380,
      "byteLength" : 4836
    },
    {
      "buffer" : 0,
      "byteOffset" : 332216,
      "byteLength" : 10056
    },
    {
      "buffer" : 0,
      "byteOffset" : 342272,
      "byteLength" : 10056
    },
    {
      "buffer" : 0,
      "byteOffset" : 352328,
      "byteLength" : 13408
    },
    {
      "buffer" : 0,
      "byteOffset" : 365736,
      "byteLength" : 6704
    },
    {
      "buffer" : 0,
      "byteOffset" : 372440,
      "byteLength" : 6704
    },
    {
      "buffer" : 0,
      "byteOffset" : 379144,
      "byteLength" : 6704
    },
    {
      "buffer" : 0,
      "byteOffset" : 385848,
      "byteLength" : 6704
    },
    {
      "buffer" : 0,
      "byteOffset" : 392552,
      "byteLength" : 3276
    },
    {
      "buffer" : 0,
      "byteOffset" : 395828,
      "byteLength" : 8136
    },
    {
      "buffer" : 0,
      "byteOffset" : 403964,
      "byteLength" : 8136
    },
    {
      "buffer" : 0,
      "byteOffset" : 412100,
      "byteLength" : 10848
    },
    {
      "buffer" : 0,
      "byteOffset" : 422948,
      "byteLength" : 5424
    },
    {
      "buffer" : 0,
      "byteOffset" : 428372,
      "byteLength" : 5424
    },
    {
      "buffer" : 0,
      "byteOffset" : 433796,
      "byteLength" : 5424
    },
    {
      "buffer" : 0,
      "byteOffset" : 439220,
      "byteLength" : 5424
    },
    {
      "buffer" : 0,
      "byteOffset" : 444644,
      "byteLength" : 288
    },
    {
      "buffer" : 0,
      "byteOffset" : 444932,
      "byteLength" : 720
    },
    {
      "buffer" : 0,
      "byteOffset" : 445652,
      "byteLength" : 720
    },
    {
      "buffer" : 0,
      "byteOffset" : 446372,
      "byteLength" : 960
    },
    {
      "buffer" : 0,
      "byteOffset" : 447332,
      "byteLength" : 480
    },
    {
      "buffer" : 0,
      "byteOffset" : 447812,
      "byteLength" : 480
    },
    {
      "buffer" : 0,
      "byteOffset" : 448292,
      "byteLength" : 480
    },
    {
      "buffer" : 0,
      "byteOffset" : 448772,
      "byteLength" : 480
    },
    {
      "buffer" : 0,
      "byteOffset" : 449252,
      "byteLength" : 4664
    },
    {
      "buffer" : 0,
      "byteOffset" : 453916,
      "byteLength" : 10932
    },
    {
      "buffer" : 0,
      "byteOffset" : 464848,
      "byteLength" : 10932
    },
    {
      "buffer" : 0,
      "byteOffset" : 475780,
      "byteLength" : 14576
    },
    {
      "buffer" : 0,
      "byteOffset" : 490356,
      "byteLength" : 7288
    },
    {
      "buffer" : 0,
      "byteOffset" : 497644,
      "byteLength" : 7288
    },
    {
      "buffer" : 0,
      "byteOffset" : 504932,
      "byteLength" : 7288
    },
    {
      "buffer" : 0,
      "byteOffset" : 512220,
      "byteLength" : 7288
    },
    {
      "buffer" : 0,
      "byteOffset" : 519508,
      "byteLength" : 1416
    },
    {
      "buffer" : 0,
      "byteOffset" : 520924,
      "byteLength" : 3792
    },
    {
      "buffer" : 0,
      "byteOffset" : 524716,
      "byteLength" : 3792
    },
    {
      "buffer" : 0,
      "byteOffset" : 528508,
      "byteLength" : 5056
    },
    {
      "buffer" : 0,
      "byteOffset" : 533564,
      "byteLength" : 2528
    },
    {
      "buffer" : 0,
      "byteOffset" : 536092,
      "byteLength" : 2528
    },
    {
      "buffer" : 0,
      "byteOffset" : 538620,
      "byteLength" : 2528
    },
    {
      "buffer" : 0,
      "byteOffset" : 541148,
      "byteLength" : 2528
    },
    {
      "buffer" : 0,
      "byteOffset" : 543676,
      "byteLength" : 192
    },
    {
      "buffer" : 0,
      "byteOffset" : 543868,
      "byteLength" : 432
    },
    {
      "buffer" : 0,
      "byteOffset" : 544300,
      "byteLength" : 432
    },
    {
      "buffer" : 0,
      "byteOffset" : 544732,
      "byteLength" : 576
    },
    {
      "buffer" : 0,
      "byteOffset" : 545308,
      "byteLength" : 288
    },
    {
      "buffer" : 0,
      "byteOffset" : 545596,
      "byteLength" : 288
    },
    {
      "buffer" : 0,
      "byteOffset" : 545884,
      "byteLength" : 288
    },
    {
      "buffer" : 0,
      "byteOffset" : 546172,
      "byteLength" : 288
    },
    {
      "buffer" : 0,
      "byteOffset" : 546460,
      "byteLength" : 72
    },
    {
      "buffer" : 0,
      "byteOffset" : 546532,
      "byteLength" : 288
    },
    {
      "buffer" : 0,
      "byteOffset" : 546820,
      "byteLength" : 288
    },
    {
      "buffer" : 0,
      "byteOffset" : 547108,
      "byteLength" : 384
    },
    {
      "buffer" : 0,
      "byteOffset" : 547492,
      "byteLength" : 192
    },
    {
      "buffer" : 0,
      "byteOffset" : 547684,
      "byteLength" : 192
    },
    {
      "buffer" : 0,
      "byteOffset" : 547876,
      "byteLength" : 192
    },
    {
      "buffer" : 0,
      "byteOffset" : 548068,
      "byteLength" : 192
    },
    {
      "buffer" : 0,
      "byteOffset" : 548260,
      "byteLength" : 7296
    },
    {
      "buffer" : 0,
      "byteOffset" : 555556,
      "byteLength" : 14832
    },
    {
      "buffer" : 0,
      "byteOffset" : 570388,
      "byteLength" : 14832
    },
    {
      "buffer" : 0,
      "byteOffset" : 585220,
      "byteLength" : 19776
    },
    {
      "buffer" : 0,
      "byteOffset" : 604996,
      "byteLength" : 9888
    },
    {
      "buffer" : 0,
      "byteOffset" : 614884,
      "byteLength" : 9888
    },
    {
      "buffer" : 0,
      "byteOffset" : 624772,
      "byteLength" : 9888
    },
    {
      "buffer" : 0,
      "byteOffset" : 634660,
      "byteLength" : 9888
    },
    {
      "buffer" : 0,
      "byteOffset" : 644548,
      "byteLength" : 2304
    },
    {
      "buffer" : 0,
      "byteOffset" : 646852,
      "byteLength" : 3840
    },
    {
      "buffer" : 0,
      "byteOffset" : 650692,
      "byteLength" : 3840
    },
    {
      "buffer" : 0,
      "byteOffset" : 654532,
      "byteLength" : 5120
    },
    {
      "buffer" : 0,
      "byteOffset" : 659652,
      "byteLength" : 2560
    },
    {
      "buffer" : 0,
      "byteOffset" : 662212,
      "byteLength" : 2560
    },
    {
      "buffer" : 0,
      "byteOffset" : 664772,
      "byteLength" : 2560
    },
    {
      "buffer" : 0,
      "byteOffset" : 667332,
      "byteLength" : 2560
    },
    {
      "buffer" : 0,
      "byteOffset" : 669892,
      "byteLength" : 792
    },
    {
      "buffer" : 0,
      "byteOffset" : 670684,
      "byteLength" : 1920
    },
    {
      "buffer" : 0,
      "byteOffset" : 672604,
      "byteLength" : 1920
    },
    {
      "buffer" : 0,
      "byteOffset" : 674524,
      "byteLength" : 2560
    },
    {
      "buffer" : 0,
      "byteOffset" : 677084,
      "byteLength" : 1280
    },
    {
      "buffer" : 0,
      "byteOffset" : 678364,
      "byteLength" : 1280
    },
    {
      "buffer" : 0,
      "byteOffset" : 679644,
      "byteLength" : 1280
    },
    {
      "buffer" : 0,
      "byteOffset" : 680924,
      "byteLength" : 1280
    }
  ],
  "accessors" : [
    {
      "bufferView" : 0,
      "componentType" : 5123,
      "count" : 312,
      "type" : "SCALAR"
    },
    {
      "bufferView" : 1,
      "min" : [ 23.462, 7.09999, 16.9803 ],
      "max" : [ 53.0191, 29.37, 46.5373 ],
      "componentType" : 5126,
      "count" : 132,
      "type" : "VEC3"
    },
    {
      "bufferView" : 2,
      "componentType" : 5126,
      "count" : 132,
      "type" : "VEC3"
    },
    {
      "bufferView" : 3,
      "componentType" : 5126,
      "count" : 132,
      "type" : "VEC4"
    },
    {
      "bufferView" : 4,
      "componentType" : 5126,
      "count" : 132,
      "type" : "VEC2"
    },
    {
      "bufferView" : 5,
      "componentType" : 5126,
      "count" : 132,
      "type" : "VEC2"
    },
    {
      "bufferView" : 6,
      "componentType" : 5126,
      "count" : 132,
      "type" : "VEC2"
    },
    {
      "bufferView" : 7,
      "componentType" : 5126,
      "count" : 132,
      "type" : "VEC2"
    },
    {
      "bufferView" : 8,
      "componentType" : 5123,
      "count" : 1920,
      "type" : "SCALAR"
    },
    {
      "bufferView" : 9,
      "min" : [ 20.9871, 7.09999, 14.5054 ],
      "max" : [ 55.494, 29.7138, 49.0122 ],
      "componentType" : 5126,
      "count" : 1127,
      "type" : "VEC3"
    },
    {
      "bufferView" : 10,
      "componentType" : 5126,
      "count" : 1127,
      "type" : "VEC3"
    },
    {
      "bufferView" : 11,
      "componentType" : 5126,
      "count" : 1127,
      "type" : "VEC4"
    },
    {
      "bufferView" : 12,
      "componentType" : 5126,
      "count" : 1127,
      "type" : "VEC2"
    },
    {
      "bufferView" : 13,
      "componentType" : 5126,
      "count" : 1127,
      "type" : "VEC2"
    },
    {
      "bufferView" : 14,
      "componentType" : 5126,
      "count" : 1127,
      "type" : "VEC2"
    },
    {
      "bufferView" : 15,
      "componentType" : 5126,
      "count" : 1127,
      "type" : "VEC2"
    },
    {
      "bufferView" : 16,
      "componentType" : 5123,
      "count" : 234,
      "type" : "SCALAR"
    },
    {
      "bufferView" : 17,
      "min" : [ 24.6273, 8.13566, 18.985 ],
      "max" : [ 41.7937, 28.19, 45.3716 ],
      "componentType" : 5126,
      "count" : 114,
      "type" : "VEC3"
    },
    {
      "bufferView" : 18,
      "componentType" : 5126,
      "count" : 114,
      "type" : "VEC3"
    },
    {
      "bufferView" : 19,
      "componentType" : 5126,
      "count" : 114,
      "type" : "VEC4"
    },
    {
      "bufferView" : 20,
      "componentType" : 5126,
      "count" : 114,
      "type" : "VEC2"
    },
    {
      "bufferView" : 21,
      "componentType" : 5126,
      "count" : 114,
      "type" : "VEC2"
    },
    {
      "bufferView" : 22,
      "componentType" : 5126,
      "count" : 114,
      "type" : "VEC2"
    },
    {
      "bufferView" : 23,
      "componentType" : 5126,
      "count" : 114,
      "type" : "VEC2"
    },
    {
      "bufferView" : 24,
      "componentType" : 5123,
      "count" : 2052,
      "type" : "SCALAR"
    },
    {
      "bufferView" : 25,
      "min" : [ 23.7659, 7.09999, 18.8224 ],
      "max" : [ 50.6112, 29.37, 46.2335 ],
      "componentType" : 5126,
      "count" : 1179,
      "type" : "VEC3"
    },
    {
      "bufferView" : 26,
      "componentType" : 5126,
      "count" : 1179,
      "type" : "VEC3"
    },
    {
      "bufferView" : 27,
      "componentType" : 5126,
      "count" : 1179,
      "type" : "VEC4"
    },
    {
      "bufferView" : 28,
      "componentType" : 5126,
      "count" : 1179,
      "type" : "VEC2"
    },
    {
      "bufferView" : 29,
      "componentType" : 5126,
      "count" : 1179,
      "type" : "VEC2"
    },
    {
      "bufferView" : 30,
      "componentType" : 5126,
      "count" : 1179,
      "type" : "VEC2"
    },
    {
      "bufferView" : 31,
      "componentType" : 5126,
      "count" : 1179,
      "type" : "VEC2"
    },
    {
      "bufferView" : 32,
      "componentType" : 5123,
      "count" : 264,
      "type" : "SCALAR"
    },
    {
      "bufferView" : 33,
      "min" : [ 21.3407, 6.29999, 14.8589 ],
      "max" : [ 46.8498, 7.1, 48.6586 ],
      "componentType" : 5126,
      "count" : 166,
      "type" : "VEC3"
    },
    {
      "bufferView" : 34,
      "componentType" : 5126,
      "count" : 166,
      "type" : "VEC3"
    },
    {
      "bufferView" : 35,
      "componentType" : 5126,
      "count" : 166,
      "type" : "VEC4"
    },
    {
      "bufferView" : 36,
      "componentType" : 5126,
      "count" : 166,
      "type" : "VEC2"
    },
    {
      "bufferView" : 37,
      "componentType" : 5126,
      "count" : 166,
      "type" : "VEC2"
    },
    {
      "bufferView" : 38,
      "componentType" : 5126,
      "count" : 166,
      "type" : "VEC2"
    },
    {
      "bufferView" : 39,
      "componentType" : 5126,
      "count" : 166,
      "type" : "VEC2"
    },
    {
      "bufferView" : 40,
      "componentType" : 5123,
      "count" : 1605,
      "type" : "SCALAR"
    },
    {
      "bufferView" : 41,
      "min" : [ 23.892, 6.29999, 17.4102 ],
      "max" : [ 52.5891, 31.891, 46.1074 ],
      "componentType" : 5126,
      "count" : 981,
      "type" : "VEC3"
    },
    {
      "bufferView" : 42,
      "componentType" : 5126,
      "count" : 981,
      "type" : "VEC3"
    },
    {
      "bufferView" : 43,
      "componentType" : 5126,
      "count" : 981,
      "type" : "VEC4"
    },
    {
      "bufferView" : 44,
      "componentType" : 5126,
      "count" : 981,
      "type" : "VEC2"
    },
    {
      "bufferView" : 45,
      "componentType" : 5126,
      "count" : 981,
      "type" : "VEC2"
    },
    {
      "bufferView" : 46,
      "componentType" : 5126,
      "count" : 981,
      "type" : "VEC2"
    },
    {
      "bufferView" : 47,
      "componentType" : 5126,
      "count" : 981,
      "type" : "VEC2"
    },
    {
      "bufferView" : 48,
      "componentType" : 5123,
      "count" : 864,
      "type" : "SCALAR"
    },
    {
      "bufferView" : 49,
      "min" : [ 20.4727, 11.8807, 13.9909 ],
      "max" : [ 56.0084, 32.8069, 49.5267 ],
      "componentType" : 5126,
      "count" : 288,
      "type" : "VEC3"
    },
    {
      "bufferView" : 50,
      "componentType" : 5126,
      "count" : 288,
      "type" : "VEC3"
    },
    {
      "bufferView" : 51,
      "componentType" : 5126,
      "count" : 288,
      "type" : "VEC4"
    },
    {
      "bufferView" : 52,
      "componentType" : 5126,
      "count" : 288,
      "type" : "VEC2"
    },
    {
      "bufferView" : 53,
      "componentType" : 5126,
      "count" : 288,
      "type" : "VEC2"
    },
    {
      "bufferView" : 54,
      "componentType" : 5126,
      "count" : 288,
      "type" : "VEC2"
    },
    {
      "bufferView" : 55,
      "componentType" : 5126,
      "count" : 288,
      "type" : "VEC2"
    },
    {
      "bufferView" : 56,
      "componentType" : 5123,
      "count" : 954,
      "type" : "SCALAR"
    },
    {
      "bufferView" : 57,
      "min" : [ 19.3529, 11.7713, 12.8712 ],
      "max" : [ 57.208, 33.4218, 50.7262 ],
      "componentType" : 5126,
      "count" : 332,
      "type" : "VEC3"
    },
    {
      "bufferView" : 58,
      "componentType" : 5126,
      "count" : 332,
      "type" : "VEC3"
    },
    {
      "bufferView" : 59,
      "componentType" : 5126,
      "count" : 332,
      "type" : "VEC4"
    },
    {
      "bufferView" : 60,
      "componentType" : 5126,
      "count" : 332,
      "type" : "VEC2"
    },
    {
      "bufferView" : 61,
      "componentType" : 5126,
      "count" : 332,
      "type" : "VEC2"
    },
    {
      "bufferView" : 62,
      "componentType" : 5126,
      "count" : 332,
      "type" : "VEC2"
    },
    {
      "bufferView" : 63,
      "componentType" : 5126,
      "count" : 332,
      "type" : "VEC2"
    },
    {
      "bufferView" : 64,
      "componentType" : 5123,
      "count" : 2418,
      "type" : "SCALAR"
    },
    {
      "bufferView" : 65,
      "min" : [ 19.3529, 11.7713, 12.8712 ],
      "max" : [ 57.208, 33.4218, 50.7262 ],
      "componentType" : 5126,
      "count" : 838,
      "type" : "VEC3"
    },
    {
      "bufferView" : 66,
      "componentType" : 5126,
      "count" : 838,
      "type" : "VEC3"
    },
    {
      "bufferView" : 67,
      "componentType" : 5126,
      "count" : 838,
      "type" : "VEC4"
    },
    {
      "bufferView" : 68,
      "componentType" : 5126,
      "count" : 838,
      "type" : "VEC2"
    },
    {
      "bufferView" : 69,
      "componentType" : 5126,
      "count" : 838,
      "type" : "VEC2"
    },
    {
      "bufferView" : 70,
      "componentType" : 5126,
      "count" : 838,
      "type" : "VEC2"
    },
    {
      "bufferView" : 71,
      "componentType" : 5126,
      "count" : 838,
      "type" : "VEC2"
    },
    {
      "bufferView" : 72,
      "componentType" : 5123,
      "count" : 1638,
      "type" : "SCALAR"
    },
    {
      "bufferView" : 73,
      "min" : [ 19.3529, 6.97174, 12.8712 ],
      "max" : [ 57.208, 32.914, 50.7262 ],
      "componentType" : 5126,
      "count" : 678,
      "type" : "VEC3"
    },
    {
      "bufferView" : 74,
      "componentType" : 5126,
      "count" : 678,
      "type" : "VEC3"
    },
    {
      "bufferView" : 75,
      "componentType" : 5126,
      "count" : 678,
      "type" : "VEC4"
    },
    {
      "bufferView" : 76,
      "componentType" : 5126,
      "count" : 678,
      "type" : "VEC2"
    },
    {
      "bufferView" : 77,
      "componentType" : 5126,
      "count" : 678,
      "type" : "VEC2"
    },
    {
      "bufferView" : 78,
      "componentType" : 5126,
      "count" : 678,
      "type" : "VEC2"
    },
    {
      "bufferView" : 79,
      "componentType" : 5126,
      "count" : 678,
      "type" : "VEC2"
    },
    {
      "bufferView" : 80,
      "componentType" : 5123,
      "count" : 144,
      "type" : "SCALAR"
    },
    {
      "bufferView" : 81,
      "min" : [ 20.5424, 24.0162, 14.0606 ],
      "max" : [ 55.9387, 31.891, 49.457 ],
      "componentType" : 5126,
      "count" : 60,
      "type" : "VEC3"
    },
    {
      "bufferView" : 82,
      "componentType" : 5126,
      "count" : 60,
      "type" : "VEC3"
    },
    {
      "bufferView" : 83,
      "componentType" : 5126,
      "count" : 60,
      "type" : "VEC4"
    },
    {
      "bufferView" : 84,
      "componentType" : 5126,
      "count" : 60,
      "type" : "VEC2"
    },
    {
      "bufferView" : 85,
      "componentType" : 5126,
      "count" : 60,
      "type" : "VEC2"
    },
    {
      "bufferView" : 86,
      "componentType" : 5126,
      "count" : 60,
      "type" : "VEC2"
    },
    {
      "bufferView" : 87,
      "componentType" : 5126,
      "count" : 60,
      "type" : "VEC2"
    },
    {
      "bufferView" : 88,
      "componentType" : 5123,
      "count" : 2331,
      "type" : "SCALAR"
    },
    {
      "bufferView" : 89,
      "min" : [ 21.1626, 6.7, 14.6835 ],
      "max" : [ 40.1131, 12.3, 33.634 ],
      "componentType" : 5126,
      "count" : 911,
      "type" : "VEC3"
    },
    {
      "bufferView" : 90,
      "componentType" : 5126,
      "count" : 911,
      "type" : "VEC3"
    },
    {
      "bufferView" : 91,
      "componentType" : 5126,
      "count" : 911,
      "type" : "VEC4"
    },
    {
      "bufferView" : 92,
      "componentType" : 5126,
      "count" : 911,
      "type" : "VEC2"
    },
    {
      "bufferView" : 93,
      "componentType" : 5126,
      "count" : 911,
      "type" : "VEC2"
    },
    {
      "bufferView" : 94,
      "componentType" : 5126,
      "count" : 911,
      "type" : "VEC2"
    },
    {
      "bufferView" : 95,
      "componentType" : 5126,
      "count" : 911,
      "type" : "VEC2"
    },
    {
      "bufferView" : 96,
      "componentType" : 5123,
      "count" : 708,
      "type" : "SCALAR"
    },
    {
      "bufferView" : 97,
      "min" : [ 21.1626, 10.45, 14.6835 ],
      "max" : [ 40.1131, 17.7518, 33.634 ],
      "componentType" : 5126,
      "count" : 316,
      "type" : "VEC3"
    },
    {
      "bufferView" : 98,
      "componentType" : 5126,
      "count" : 316,
      "type" : "VEC3"
    },
    {
      "bufferView" : 99,
      "componentType" : 5126,
      "count" : 316,
      "type" : "VEC4"
    },
    {
      "bufferView" : 100,
      "componentType" : 5126,
      "count" : 316,
      "type" : "VEC2"
    },
    {
      "bufferView" : 101,
      "componentType" : 5126,
      "count" : 316,
      "type" : "VEC2"
    },
    {
      "bufferView" : 102,
      "componentType" : 5126,
      "count" : 316,
      "type" : "VEC2"
    },
    {
      "bufferView" : 103,
      "componentType" : 5126,
      "count" : 316,
      "type" : "VEC2"
    },
    {
      "bufferView" : 104,
      "componentType" : 5123,
      "count" : 96,
      "type" : "SCALAR"
    },
    {
      "bufferView" : 105,
      "min" : [ 23.0378, 24.1, 16.556 ],
      "max" : [ 53.4433, 24.1, 46.9616 ],
      "componentType" : 5126,
      "count" : 36,
      "type" : "VEC3"
    },
    {
      "bufferView" : 106,
      "componentType" : 5126,
      "count" : 36,
      "type" : "VEC3"
    },
    {
      "bufferView" : 107,
      "componentType" : 5126,
      "count" : 36,
      "type" : "VEC4"
    },
    {
      "bufferView" : 108,
      "componentType" : 5126,
      "count" : 36,
      "type" : "VEC2"
    },
    {
      "bufferView" : 109,
      "componentType" : 5126,
      "count" : 36,
      "type" : "VEC2"
    },
    {
      "bufferView" : 110,
      "componentType" : 5126,
      "count" : 36,
      "type" : "VEC2"
    },
    {
      "bufferView" : 111,
      "componentType" : 5126,
      "count" : 36,
      "type" : "VEC2"
    },
    {
      "bufferView" : 112,
      "componentType" : 5123,
      "count" : 36,
      "type" : "SCALAR"
    },
    {
      "bufferView" : 113,
      "min" : [ 32.2478, 6.39999, 25.7661 ],
      "max" : [ 35.2106, 10, 28.7288 ],
      "componentType" : 5126,
      "count" : 24,
      "type" : "VEC3"
    },
    {
      "bufferView" : 114,
      "componentType" : 5126,
      "count" : 24,
      "type" : "VEC3"
    },
    {
      "bufferView" : 115,
      "componentType" : 5126,
      "count" : 24,
      "type" : "VEC4"
    },
    {
      "bufferView" : 116,
      "componentType" : 5126,
      "count" : 24,
      "type" : "VEC2"
    },
    {
      "bufferView" : 117,
      "componentType" : 5126,
      "count" : 24,
      "type" : "VEC2"
    },
    {
      "bufferView" : 118,
      "componentType" : 5126,
      "count" : 24,
      "type" : "VEC2"
    },
    {
      "bufferView" : 119,
      "componentType" : 5126,
      "count" : 24,
      "type" : "VEC2"
    },
    {
      "bufferView" : 120,
      "componentType" : 5123,
      "count" : 3648,
      "type" : "SCALAR"
    },
    {
      "bufferView" : 121,
      "min" : [ 19.9422, 18.9777, 13.7175 ],
      "max" : [ 56.296, 23.7976, 49.8375 ],
      "componentType" : 5126,
      "count" : 1236,
      "type" : "VEC3"
    },
    {
      "bufferView" : 122,
      "componentType" : 5126,
      "count" : 1236,
      "type" : "VEC3"
    },
    {
      "bufferView" : 123,
      "componentType" : 5126,
      "count" : 1236,
      "type" : "VEC4"
    },
    {
      "bufferView" : 124,
      "componentType" : 5126,
      "count" : 1236,
      "type" : "VEC2"
    },
    {
      "bufferView" : 125,
      "componentType" : 5126,
      "count" : 1236,
      "type" : "VEC2"
    },
    {
      "bufferView" : 126,
      "componentType" : 5126,
      "count" : 1236,
      "type" : "VEC2"
    },
    {
      "bufferView" : 127,
      "componentType" : 5126,
      "count" : 1236,
      "type" : "VEC2"
    },
    {
      "bufferView" : 128,
      "componentType" : 5123,
      "count" : 1152,
      "type" : "SCALAR"
    },
    {
      "bufferView" : 129,
      "min" : [ 21.8606, 24.8557, 16.2509 ],
      "max" : [ 45.6413, 25.6943, 38.2907 ],
      "componentType" : 5126,
      "count" : 320,
      "type" : "VEC3"
    },
    {
      "bufferView" : 130,
      "componentType" : 5126,
      "count" : 320,
      "type" : "VEC3"
    },
    {
      "bufferView" : 131,
      "componentType" : 5126,
      "count" : 320,
      "type" : "VEC4"
    },
    {
      "bufferView" : 132,
      "componentType" : 5126,
      "count" : 320,
      "type" : "VEC2"
    },
    {
      "bufferView" : 133,
      "componentType" : 5126,
      "count" : 320,
      "type" : "VEC2"
    },
    {
      "bufferView" : 134,
      "componentType" : 5126,
      "count" : 320,
      "type" : "VEC2"
    },
    {
      "bufferView" : 135,
      "componentType" : 5126,
      "count" : 320,
      "type" : "VEC2"
    },
    {
      "bufferView" : 136,
      "componentType" : 5123,
      "count" : 396,
      "type" : "SCALAR"
    },
    {
      "bufferView" : 137,
      "min" : [ 22.0995, 6.29999, 15.6204 ],
      "max" : [ 39.1761, 6.7, 32.6971 ],
      "componentType" : 5126,
      "count" : 160,
      "type" : "VEC3"
    },
    {
      "bufferView" : 138,
      "componentType" : 5126,
      "count" : 160,
      "type" : "VEC3"
    },
    {
      "bufferView" : 139,
      "componentType" : 5126,
      "count" : 160,
      "type" : "VEC4"
    },
    {
      "bufferView" : 140,
      "componentType" : 5126,
      "count" : 160,
      "type" : "VEC2"
    },
    {
      "bufferView" : 141,
      "componentType" : 5126,
      "count" : 160,
      "type" : "VEC2"
    },
    {
      "bufferView" : 142,
      "componentType" : 5126,
      "count" : 160,
      "type" : "VEC2"
    },
    {
      "bufferView" : 143,
      "componentType" : 5126,
      "count" : 160,
      "type" : "VEC2"
    }
  ]
}
