{
  "asset" : {
    "generator" : "UE Viewer (umodel) build 1544 based",
    "version" : "2.0"
  },
  "scene" : 0,
  "scenes" : [
    {
      "nodes" : [ 0 ]
    }
  ],
  "nodes" : [
    {
      "name" : "SM_ENV_LKNVLD_Hatago_Flag",
      "mesh" : 0
    }
  ],
  "materials" : [
    {
      "name" : "MI_ENV_LKNVLD_Curtain_E",
      "pbrMetallicRoughness" : {
        "baseColorFactor" : [ 0.3, 0.3, 0.3, 1.0 ],
        "metallicFactor" : 0.1,
        "roughnessFactor" : 0.5
      }
    },
    {
      "name" : "MI_ENV_LKNVLD_MetalRoofDark",
      "pbrMetallicRoughness" : {
        "baseColorFactor" : [ 0.9, 0.3, 0.3, 1.0 ],
        "metallicFactor" : 0.1,
        "roughnessFactor" : 0.5
      }
    }
  ],
  "meshes" : [
    {
      "primitives" : [
        {
          "attributes" : {
            "POSITION" : 1,
            "NORMAL" : 2,
            "TANGENT" : 3,
            "TEXCOORD_0" : 4,
            "TEXCOORD_1" : 5,
            "TEXCOORD_2" : 6,
            "TEXCOORD_3" : 7
          },
          "indices" : 0,
          "material" : 0
        },
        {
          "attributes" : {
            "POSITION" : 9,
            "NORMAL" : 10,
            "TANGENT" : 11,
            "TEXCOORD_0" : 12,
            "TEXCOORD_1" : 13,
            "TEXCOORD_2" : 14,
            "TEXCOORD_3" : 15
          },
          "indices" : 8,
          "material" : 1
        }
      ],
      "name" : "SM_ENV_LKNVLD_Hatago_Flag"
    }
  ],
  "buffers" : [
    {
      "uri" : "SM_ENV_LKNVLD_Hatago_Flag.bin",
      "byteLength" : 81372
    }
  ],
  "bufferViews" : [
    {
      "buffer" : 0,
      "byteOffset" : 0,
      "byteLength" : 7164
    },
    {
      "buffer" : 0,
      "byteOffset" : 7164,
      "byteLength" : 9360
    },
    {
      "buffer" : 0,
      "byteOffset" : 16524,
      "byteLength" : 9360
    },
    {
      "buffer" : 0,
      "byteOffset" : 25884,
      "byteLength" : 12480
    },
    {
      "buffer" : 0,
      "byteOffset" : 38364,
      "byteLength" : 6240
    },
    {
      "buffer" : 0,
      "byteOffset" : 44604,
      "byteLength" : 6240
    },
    {
      "buffer" : 0,
      "byteOffset" : 50844,
      "byteLength" : 6240
    },
    {
      "buffer" : 0,
      "byteOffset" : 57084,
      "byteLength" : 6240
    },
    {
      "buffer" : 0,
      "byteOffset" : 63324,
      "byteLength" : 1344
    },
    {
      "buffer" : 0,
      "byteOffset" : 64668,
      "byteLength" : 2784
    },
    {
      "buffer" : 0,
      "byteOffset" : 67452,
      "byteLength" : 2784
    },
    {
      "buffer" : 0,
      "byteOffset" : 70236,
      "byteLength" : 3712
    },
    {
      "buffer" : 0,
      "byteOffset" : 73948,
      "byteLength" : 1856
    },
    {
      "buffer" : 0,
      "byteOffset" : 75804,
      "byteLength" : 1856
    },
    {
      "buffer" : 0,
      "byteOffset" : 77660,
      "byteLength" : 1856
    },
    {
      "buffer" : 0,
      "byteOffset" : 79516,
      "byteLength" : 1856
    }
  ],
  "accessors" : [
    {
      "bufferView" : 0,
      "componentType" : 5123,
      "count" : 3582,
      "type" : "SCALAR"
    },
    {
      "bufferView" : 1,
      "min" : [ -37.3802, 11.0264, -7.47518 ],
      "max" : [ -35.9363, 15.5038, -3.42193 ],
      "componentType" : 5126,
      "count" : 780,
      "type" : "VEC3"
    },
    {
      "bufferView" : 2,
      "componentType" : 5126,
      "count" : 780,
      "type" : "VEC3"
    },
    {
      "bufferView" : 3,
      "componentType" : 5126,
      "count" : 780,
      "type" : "VEC4"
    },
    {
      "bufferView" : 4,
      "componentType" : 5126,
      "count" : 780,
      "type" : "VEC2"
    },
    {
      "bufferView" : 5,
      "componentType" : 5126,
      "count" : 780,
      "type" : "VEC2"
    },
    {
      "bufferView" : 6,
      "componentType" : 5126,
      "count" : 780,
      "type" : "VEC2"
    },
    {
      "bufferView" : 7,
      "componentType" : 5126,
      "count" : 780,
      "type" : "VEC2"
    },
    {
      "bufferView" : 8,
      "componentType" : 5123,
      "count" : 672,
      "type" : "SCALAR"
    },
    {
      "bufferView" : 9,
      "min" : [ -37.3936, 10.9468, -7.49901 ],
      "max" : [ -35.9619, 15.4837, -3.38424 ],
      "componentType" : 5126,
      "count" : 232,
      "type" : "VEC3"
    },
    {
      "bufferView" : 10,
      "componentType" : 5126,
      "count" : 232,
      "type" : "VEC3"
    },
    {
      "bufferView" : 11,
      "componentType" : 5126,
      "count" : 232,
      "type" : "VEC4"
    },
    {
      "bufferView" : 12,
      "componentType" : 5126,
      "count" : 232,
      "type" : "VEC2"
    },
    {
      "bufferView" : 13,
      "componentType" : 5126,
      "count" : 232,
      "type" : "VEC2"
    },
    {
      "bufferView" : 14,
      "componentType" : 5126,
      "count" : 232,
      "type" : "VEC2"
    },
    {
      "bufferView" : 15,
      "componentType" : 5126,
      "count" : 232,
      "type" : "VEC2"
    }
  ]
}
