{
  "asset" : {
    "generator" : "UE Viewer (umodel) build 1544 based",
    "version" : "2.0"
  },
  "scene" : 0,
  "scenes" : [
    {
      "nodes" : [ 0 ]
    }
  ],
  "nodes" : [
    {
      "name" : "SM_ENV_LKNVLD_Stall_B",
      "mesh" : 0
    }
  ],
  "materials" : [
    {
      "name" : "MI_ENV_LKNVLD_PaperLantern_A_2_Trans",
      "pbrMetallicRoughness" : {
        "baseColorFactor" : [ 0.3, 0.3, 0.3, 1.0 ],
        "metallicFactor" : 0.1,
        "roughnessFactor" : 0.5
      }
    },
    {
      "name" : "MI_ENV_LKNVLD_Stall_A",
      "pbrMetallicRoughness" : {
        "baseColorFactor" : [ 0.9, 0.3, 0.3, 1.0 ],
        "metallicFactor" : 0.1,
        "roughnessFactor" : 0.5
      }
    },
    {
      "name" : "MI_ENV_LKNVLD_Roof_A",
      "pbrMetallicRoughness" : {
        "baseColorFactor" : [ 0.3, 0.9, 0.3, 1.0 ],
        "metallicFactor" : 0.1,
        "roughnessFactor" : 0.5
      }
    },
    {
      "name" : "MI_ENV_LKNVLD_Pipe_A_Trans",
      "pbrMetallicRoughness" : {
        "baseColorFactor" : [ 0.3, 0.3, 0.9, 1.0 ],
        "metallicFactor" : 0.1,
        "roughnessFactor" : 0.5
      }
    },
    {
      "name" : "MI_ENV_LKNVLD_WoodBoard_A",
      "pbrMetallicRoughness" : {
        "baseColorFactor" : [ 0.9, 0.9, 0.9, 1.0 ],
        "metallicFactor" : 0.1,
        "roughnessFactor" : 0.5
      }
    }
  ],
  "meshes" : [
    {
      "primitives" : [
        {
          "attributes" : {
            "POSITION" : 1,
            "NORMAL" : 2,
            "TANGENT" : 3,
            "COLOR_0" : 4,
            "TEXCOORD_0" : 5,
            "TEXCOORD_1" : 6,
            "TEXCOORD_2" : 7,
            "TEXCOORD_3" : 8
          },
          "indices" : 0,
          "material" : 0
        },
        {
          "attributes" : {
            "POSITION" : 10,
            "NORMAL" : 11,
            "TANGENT" : 12,
            "COLOR_0" : 13,
            "TEXCOORD_0" : 14,
            "TEXCOORD_1" : 15,
            "TEXCOORD_2" : 16,
            "TEXCOORD_3" : 17
          },
          "indices" : 9,
          "material" : 1
        },
        {
          "attributes" : {
            "POSITION" : 19,
            "NORMAL" : 20,
            "TANGENT" : 21,
            "COLOR_0" : 22,
            "TEXCOORD_0" : 23,
            "TEXCOORD_1" : 24,
            "TEXCOORD_2" : 25,
            "TEXCOORD_3" : 26
          },
          "indices" : 18,
          "material" : 2
        },
        {
          "attributes" : {
            "POSITION" : 28,
            "NORMAL" : 29,
            "TANGENT" : 30,
            "COLOR_0" : 31,
            "TEXCOORD_0" : 32,
            "TEXCOORD_1" : 33,
            "TEXCOORD_2" : 34,
            "TEXCOORD_3" : 35
          },
          "indices" : 27,
          "material" : 3
        },
        {
          "attributes" : {
            "POSITION" : 37,
            "NORMAL" : 38,
            "TANGENT" : 39,
            "COLOR_0" : 40,
            "TEXCOORD_0" : 41,
            "TEXCOORD_1" : 42,
            "TEXCOORD_2" : 43,
            "TEXCOORD_3" : 44
          },
          "indices" : 36,
          "material" : 4
        }
      ],
      "name" : "SM_ENV_LKNVLD_Stall_B"
    }
  ],
  "buffers" : [
    {
      "uri" : "SM_ENV_LKNVLD_Stall_B.bin",
      "byteLength" : 669340
    }
  ],
  "bufferViews" : [
    {
      "buffer" : 0,
      "byteOffset" : 0,
      "byteLength" : 7632
    },
    {
      "buffer" : 0,
      "byteOffset" : 7632,
      "byteLength" : 12456
    },
    {
      "buffer" : 0,
      "byteOffset" : 20088,
      "byteLength" : 12456
    },
    {
      "buffer" : 0,
      "byteOffset" : 32544,
      "byteLength" : 16608
    },
    {
      "buffer" : 0,
      "byteOffset" : 49152,
      "byteLength" : 4152
    },
    {
      "buffer" : 0,
      "byteOffset" : 53304,
      "byteLength" : 8304
    },
    {
      "buffer" : 0,
      "byteOffset" : 61608,
      "byteLength" : 8304
    },
    {
      "buffer" : 0,
      "byteOffset" : 69912,
      "byteLength" : 8304
    },
    {
      "buffer" : 0,
      "byteOffset" : 78216,
      "byteLength" : 8304
    },
    {
      "buffer" : 0,
      "byteOffset" : 86520,
      "byteLength" : 21348
    },
    {
      "buffer" : 0,
      "byteOffset" : 107868,
      "byteLength" : 39036
    },
    {
      "buffer" : 0,
      "byteOffset" : 146904,
      "byteLength" : 39036
    },
    {
      "buffer" : 0,
      "byteOffset" : 185940,
      "byteLength" : 52048
    },
    {
      "buffer" : 0,
      "byteOffset" : 237988,
      "byteLength" : 13012
    },
    {
      "buffer" : 0,
      "byteOffset" : 251000,
      "byteLength" : 26024
    },
    {
      "buffer" : 0,
      "byteOffset" : 277024,
      "byteLength" : 26024
    },
    {
      "buffer" : 0,
      "byteOffset" : 303048,
      "byteLength" : 26024
    },
    {
      "buffer" : 0,
      "byteOffset" : 329072,
      "byteLength" : 26024
    },
    {
      "buffer" : 0,
      "byteOffset" : 355096,
      "byteLength" : 552
    },
    {
      "buffer" : 0,
      "byteOffset" : 355648,
      "byteLength" : 2208
    },
    {
      "buffer" : 0,
      "byteOffset" : 357856,
      "byteLength" : 2208
    },
    {
      "buffer" : 0,
      "byteOffset" : 360064,
      "byteLength" : 2944
    },
    {
      "buffer" : 0,
      "byteOffset" : 363008,
      "byteLength" : 736
    },
    {
      "buffer" : 0,
      "byteOffset" : 363744,
      "byteLength" : 1472
    },
    {
      "buffer" : 0,
      "byteOffset" : 365216,
      "byteLength" : 1472
    },
    {
      "buffer" : 0,
      "byteOffset" : 366688,
      "byteLength" : 1472
    },
    {
      "buffer" : 0,
      "byteOffset" : 368160,
      "byteLength" : 1472
    },
    {
      "buffer" : 0,
      "byteOffset" : 369632,
      "byteLength" : 21264
    },
    {
      "buffer" : 0,
      "byteOffset" : 390896,
      "byteLength" : 32328
    },
    {
      "buffer" : 0,
      "byteOffset" : 423224,
      "byteLength" : 32328
    },
    {
      "buffer" : 0,
      "byteOffset" : 455552,
      "byteLength" : 43104
    },
    {
      "buffer" : 0,
      "byteOffset" : 498656,
      "byteLength" : 10776
    },
    {
      "buffer" : 0,
      "byteOffset" : 509432,
      "byteLength" : 21552
    },
    {
      "buffer" : 0,
      "byteOffset" : 530984,
      "byteLength" : 21552
    },
    {
      "buffer" : 0,
      "byteOffset" : 552536,
      "byteLength" : 21552
    },
    {
      "buffer" : 0,
      "byteOffset" : 574088,
      "byteLength" : 21552
    },
    {
      "buffer" : 0,
      "byteOffset" : 595640,
      "byteLength" : 2868
    },
    {
      "buffer" : 0,
      "byteOffset" : 598508,
      "byteLength" : 11184
    },
    {
      "buffer" : 0,
      "byteOffset" : 609692,
      "byteLength" : 11184
    },
    {
      "buffer" : 0,
      "byteOffset" : 620876,
      "byteLength" : 14912
    },
    {
      "buffer" : 0,
      "byteOffset" : 635788,
      "byteLength" : 3728
    },
    {
      "buffer" : 0,
      "byteOffset" : 639516,
      "byteLength" : 7456
    },
    {
      "buffer" : 0,
      "byteOffset" : 646972,
      "byteLength" : 7456
    },
    {
      "buffer" : 0,
      "byteOffset" : 654428,
      "byteLength" : 7456
    },
    {
      "buffer" : 0,
      "byteOffset" : 661884,
      "byteLength" : 7456
    }
  ],
  "accessors" : [
    {
      "bufferView" : 0,
      "componentType" : 5123,
      "count" : 3816,
      "type" : "SCALAR"
    },
    {
      "bufferView" : 1,
      "min" : [ -1.99899, 1.84881, 2.39932 ],
      "max" : [ 1.99138, 2.55119, 2.80068 ],
      "componentType" : 5126,
      "count" : 1038,
      "type" : "VEC3"
    },
    {
      "bufferView" : 2,
      "componentType" : 5126,
      "count" : 1038,
      "type" : "VEC3"
    },
    {
      "bufferView" : 3,
      "componentType" : 5126,
      "count" : 1038,
      "type" : "VEC4"
    },
    {
      "bufferView" : 4,
      "normalized" : true,
      "componentType" : 5121,
      "count" : 1038,
      "type" : "VEC4"
    },
    {
      "bufferView" : 5,
      "componentType" : 5126,
      "count" : 1038,
      "type" : "VEC2"
    },
    {
      "bufferView" : 6,
      "componentType" : 5126,
      "count" : 1038,
      "type" : "VEC2"
    },
    {
      "bufferView" : 7,
      "componentType" : 5126,
      "count" : 1038,
      "type" : "VEC2"
    },
    {
      "bufferView" : 8,
      "componentType" : 5126,
      "count" : 1038,
      "type" : "VEC2"
    },
    {
      "bufferView" : 9,
      "componentType" : 5123,
      "count" : 10674,
      "type" : "SCALAR"
    },
    {
      "bufferView" : 10,
      "min" : [ -1.9782, 0.790291, -0.557839 ],
      "max" : [ 2.85918, 3.69407, 2.66067 ],
      "componentType" : 5126,
      "count" : 3253,
      "type" : "VEC3"
    },
    {
      "bufferView" : 11,
      "componentType" : 5126,
      "count" : 3253,
      "type" : "VEC3"
    },
    {
      "bufferView" : 12,
      "componentType" : 5126,
      "count" : 3253,
      "type" : "VEC4"
    },
    {
      "bufferView" : 13,
      "normalized" : true,
      "componentType" : 5121,
      "count" : 3253,
      "type" : "VEC4"
    },
    {
      "bufferView" : 14,
      "componentType" : 5126,
      "count" : 3253,
      "type" : "VEC2"
    },
    {
      "bufferView" : 15,
      "componentType" : 5126,
      "count" : 3253,
      "type" : "VEC2"
    },
    {
      "bufferView" : 16,
      "componentType" : 5126,
      "count" : 3253,
      "type" : "VEC2"
    },
    {
      "bufferView" : 17,
      "componentType" : 5126,
      "count" : 3253,
      "type" : "VEC2"
    },
    {
      "bufferView" : 18,
      "componentType" : 5123,
      "count" : 276,
      "type" : "SCALAR"
    },
    {
      "bufferView" : 19,
      "min" : [ -1.90664, 2.57652, -0.926208 ],
      "max" : [ 2.83236, 3.57069, 2.79337 ],
      "componentType" : 5126,
      "count" : 184,
      "type" : "VEC3"
    },
    {
      "bufferView" : 20,
      "componentType" : 5126,
      "count" : 184,
      "type" : "VEC3"
    },
    {
      "bufferView" : 21,
      "componentType" : 5126,
      "count" : 184,
      "type" : "VEC4"
    },
    {
      "bufferView" : 22,
      "normalized" : true,
      "componentType" : 5121,
      "count" : 184,
      "type" : "VEC4"
    },
    {
      "bufferView" : 23,
      "componentType" : 5126,
      "count" : 184,
      "type" : "VEC2"
    },
    {
      "bufferView" : 24,
      "componentType" : 5126,
      "count" : 184,
      "type" : "VEC2"
    },
    {
      "bufferView" : 25,
      "componentType" : 5126,
      "count" : 184,
      "type" : "VEC2"
    },
    {
      "bufferView" : 26,
      "componentType" : 5126,
      "count" : 184,
      "type" : "VEC2"
    },
    {
      "bufferView" : 27,
      "componentType" : 5123,
      "count" : 10632,
      "type" : "SCALAR"
    },
    {
      "bufferView" : 28,
      "min" : [ -2.06954, 1.05019, -0.684537 ],
      "max" : [ 2.76633, 3.5452, 1.72498 ],
      "componentType" : 5126,
      "count" : 2694,
      "type" : "VEC3"
    },
    {
      "bufferView" : 29,
      "componentType" : 5126,
      "count" : 2694,
      "type" : "VEC3"
    },
    {
      "bufferView" : 30,
      "componentType" : 5126,
      "count" : 2694,
      "type" : "VEC4"
    },
    {
      "bufferView" : 31,
      "normalized" : true,
      "componentType" : 5121,
      "count" : 2694,
      "type" : "VEC4"
    },
    {
      "bufferView" : 32,
      "componentType" : 5126,
      "count" : 2694,
      "type" : "VEC2"
    },
    {
      "bufferView" : 33,
      "componentType" : 5126,
      "count" : 2694,
      "type" : "VEC2"
    },
    {
      "bufferView" : 34,
      "componentType" : 5126,
      "count" : 2694,
      "type" : "VEC2"
    },
    {
      "bufferView" : 35,
      "componentType" : 5126,
      "count" : 2694,
      "type" : "VEC2"
    },
    {
      "bufferView" : 36,
      "componentType" : 5123,
      "count" : 1434,
      "type" : "SCALAR"
    },
    {
      "bufferView" : 37,
      "min" : [ -1.86012, 4e-08, -0.518144 ],
      "max" : [ 2.39754, 3.53126, 2.69526 ],
      "componentType" : 5126,
      "count" : 932,
      "type" : "VEC3"
    },
    {
      "bufferView" : 38,
      "componentType" : 5126,
      "count" : 932,
      "type" : "VEC3"
    },
    {
      "bufferView" : 39,
      "componentType" : 5126,
      "count" : 932,
      "type" : "VEC4"
    },
    {
      "bufferView" : 40,
      "normalized" : true,
      "componentType" : 5121,
      "count" : 932,
      "type" : "VEC4"
    },
    {
      "bufferView" : 41,
      "componentType" : 5126,
      "count" : 932,
      "type" : "VEC2"
    },
    {
      "bufferView" : 42,
      "componentType" : 5126,
      "count" : 932,
      "type" : "VEC2"
    },
    {
      "bufferView" : 43,
      "componentType" : 5126,
      "count" : 932,
      "type" : "VEC2"
    },
    {
      "bufferView" : 44,
      "componentType" : 5126,
      "count" : 932,
      "type" : "VEC2"
    }
  ]
}
