{
  "asset" : {
    "generator" : "UE Viewer (umodel) build 1544 based",
    "version" : "2.0"
  },
  "scene" : 0,
  "scenes" : [
    {
      "nodes" : [ 0 ]
    }
  ],
  "nodes" : [
    {
      "name" : "SM_ENV_LKNVLD_Tree_A_Lod1",
      "mesh" : 0
    }
  ],
  "materials" : [
    {
      "name" : "MI_ENV_LKNVLD_LeafMasked_A",
      "pbrMetallicRoughness" : {
        "baseColorFactor" : [ 0.3, 0.3, 0.3, 1.0 ],
        "metallicFactor" : 0.1,
        "roughnessFactor" : 0.5
      }
    },
    {
      "name" : "MI_ENV_LKNVLD_Leaf_A",
      "pbrMetallicRoughness" : {
        "baseColorFactor" : [ 0.9, 0.3, 0.3, 1.0 ],
        "metallicFactor" : 0.1,
        "roughnessFactor" : 0.5
      }
    },
    {
      "name" : "MI_ENV_LKNVLD_Tree_A",
      "pbrMetallicRoughness" : {
        "baseColorFactor" : [ 0.3, 0.9, 0.3, 1.0 ],
        "metallicFactor" : 0.1,
        "roughnessFactor" : 0.5
      }
    }
  ],
  "meshes" : [
    {
      "primitives" : [
        {
          "attributes" : {
            "POSITION" : 1,
            "NORMAL" : 2,
            "TANGENT" : 3,
            "COLOR_0" : 4,
            "TEXCOORD_0" : 5,
            "TEXCOORD_1" : 6,
            "TEXCOORD_2" : 7,
            "TEXCOORD_3" : 8
          },
          "indices" : 0,
          "material" : 0
        },
        {
          "attributes" : {
            "POSITION" : 10,
            "NORMAL" : 11,
            "TANGENT" : 12,
            "COLOR_0" : 13,
            "TEXCOORD_0" : 14,
            "TEXCOORD_1" : 15,
            "TEXCOORD_2" : 16,
            "TEXCOORD_3" : 17
          },
          "indices" : 9,
          "material" : 1
        },
        {
          "attributes" : {
            "POSITION" : 19,
            "NORMAL" : 20,
            "TANGENT" : 21,
            "COLOR_0" : 22,
            "TEXCOORD_0" : 23,
            "TEXCOORD_1" : 24,
            "TEXCOORD_2" : 25,
            "TEXCOORD_3" : 26
          },
          "indices" : 18,
          "material" : 2
        }
      ],
      "name" : "SM_ENV_LKNVLD_Tree_A_Lod1"
    }
  ],
  "buffers" : [
    {
      "uri" : "SM_ENV_LKNVLD_Tree_A_Lod1.bin",
      "byteLength" : 608196
    }
  ],
  "bufferViews" : [
    {
      "buffer" : 0,
      "byteOffset" : 0,
      "byteLength" : 23300
    },
    {
      "buffer" : 0,
      "byteOffset" : 23300,
      "byteLength" : 68148
    },
    {
      "buffer" : 0,
      "byteOffset" : 91448,
      "byteLength" : 68148
    },
    {
      "buffer" : 0,
      "byteOffset" : 159596,
      "byteLength" : 90864
    },
    {
      "buffer" : 0,
      "byteOffset" : 250460,
      "byteLength" : 22716
    },
    {
      "buffer" : 0,
      "byteOffset" : 273176,
      "byteLength" : 45432
    },
    {
      "buffer" : 0,
      "byteOffset" : 318608,
      "byteLength" : 45432
    },
    {
      "buffer" : 0,
      "byteOffset" : 364040,
      "byteLength" : 45432
    },
    {
      "buffer" : 0,
      "byteOffset" : 409472,
      "byteLength" : 45432
    },
    {
      "buffer" : 0,
      "byteOffset" : 454904,
      "byteLength" : 5868
    },
    {
      "buffer" : 0,
      "byteOffset" : 460772,
      "byteLength" : 13416
    },
    {
      "buffer" : 0,
      "byteOffset" : 474188,
      "byteLength" : 13416
    },
    {
      "buffer" : 0,
      "byteOffset" : 487604,
      "byteLength" : 17888
    },
    {
      "buffer" : 0,
      "byteOffset" : 505492,
      "byteLength" : 4472
    },
    {
      "buffer" : 0,
      "byteOffset" : 509964,
      "byteLength" : 8944
    },
    {
      "buffer" : 0,
      "byteOffset" : 518908,
      "byteLength" : 8944
    },
    {
      "buffer" : 0,
      "byteOffset" : 527852,
      "byteLength" : 8944
    },
    {
      "buffer" : 0,
      "byteOffset" : 536796,
      "byteLength" : 8944
    },
    {
      "buffer" : 0,
      "byteOffset" : 545740,
      "byteLength" : 2340
    },
    {
      "buffer" : 0,
      "byteOffset" : 548080,
      "byteLength" : 9492
    },
    {
      "buffer" : 0,
      "byteOffset" : 557572,
      "byteLength" : 9492
    },
    {
      "buffer" : 0,
      "byteOffset" : 567064,
      "byteLength" : 12656
    },
    {
      "buffer" : 0,
      "byteOffset" : 579720,
      "byteLength" : 3164
    },
    {
      "buffer" : 0,
      "byteOffset" : 582884,
      "byteLength" : 6328
    },
    {
      "buffer" : 0,
      "byteOffset" : 589212,
      "byteLength" : 6328
    },
    {
      "buffer" : 0,
      "byteOffset" : 595540,
      "byteLength" : 6328
    },
    {
      "buffer" : 0,
      "byteOffset" : 601868,
      "byteLength" : 6328
    }
  ],
  "accessors" : [
    {
      "bufferView" : 0,
      "componentType" : 5123,
      "count" : 11649,
      "type" : "SCALAR"
    },
    {
      "bufferView" : 1,
      "min" : [ -5.00695, 5.30805, -5.25653 ],
      "max" : [ 5.04418, 13.6408, 5.01564 ],
      "componentType" : 5126,
      "count" : 5679,
      "type" : "VEC3"
    },
    {
      "bufferView" : 2,
      "componentType" : 5126,
      "count" : 5679,
      "type" : "VEC3"
    },
    {
      "bufferView" : 3,
      "componentType" : 5126,
      "count" : 5679,
      "type" : "VEC4"
    },
    {
      "bufferView" : 4,
      "normalized" : true,
      "componentType" : 5121,
      "count" : 5679,
      "type" : "VEC4"
    },
    {
      "bufferView" : 5,
      "componentType" : 5126,
      "count" : 5679,
      "type" : "VEC2"
    },
    {
      "bufferView" : 6,
      "componentType" : 5126,
      "count" : 5679,
      "type" : "VEC2"
    },
    {
      "bufferView" : 7,
      "componentType" : 5126,
      "count" : 5679,
      "type" : "VEC2"
    },
    {
      "bufferView" : 8,
      "componentType" : 5126,
      "count" : 5679,
      "type" : "VEC2"
    },
    {
      "bufferView" : 9,
      "componentType" : 5123,
      "count" : 2934,
      "type" : "SCALAR"
    },
    {
      "bufferView" : 10,
      "min" : [ -4.8693, 5.48853, -5.0495 ],
      "max" : [ 4.80827, 13.4815, 4.84117 ],
      "componentType" : 5126,
      "count" : 1118,
      "type" : "VEC3"
    },
    {
      "bufferView" : 11,
      "componentType" : 5126,
      "count" : 1118,
      "type" : "VEC3"
    },
    {
      "bufferView" : 12,
      "componentType" : 5126,
      "count" : 1118,
      "type" : "VEC4"
    },
    {
      "bufferView" : 13,
      "normalized" : true,
      "componentType" : 5121,
      "count" : 1118,
      "type" : "VEC4"
    },
    {
      "bufferView" : 14,
      "componentType" : 5126,
      "count" : 1118,
      "type" : "VEC2"
    },
    {
      "bufferView" : 15,
      "componentType" : 5126,
      "count" : 1118,
      "type" : "VEC2"
    },
    {
      "bufferView" : 16,
      "componentType" : 5126,
      "count" : 1118,
      "type" : "VEC2"
    },
    {
      "bufferView" : 17,
      "componentType" : 5126,
      "count" : 1118,
      "type" : "VEC2"
    },
    {
      "bufferView" : 18,
      "componentType" : 5123,
      "count" : 1170,
      "type" : "SCALAR"
    },
    {
      "bufferView" : 19,
      "min" : [ -3.69356, -0.287134, -4.3208 ],
      "max" : [ 3.06602, 10.8858, 3.96069 ],
      "componentType" : 5126,
      "count" : 791,
      "type" : "VEC3"
    },
    {
      "bufferView" : 20,
      "componentType" : 5126,
      "count" : 791,
      "type" : "VEC3"
    },
    {
      "bufferView" : 21,
      "componentType" : 5126,
      "count" : 791,
      "type" : "VEC4"
    },
    {
      "bufferView" : 22,
      "normalized" : true,
      "componentType" : 5121,
      "count" : 791,
      "type" : "VEC4"
    },
    {
      "bufferView" : 23,
      "componentType" : 5126,
      "count" : 791,
      "type" : "VEC2"
    },
    {
      "bufferView" : 24,
      "componentType" : 5126,
      "count" : 791,
      "type" : "VEC2"
    },
    {
      "bufferView" : 25,
      "componentType" : 5126,
      "count" : 791,
      "type" : "VEC2"
    },
    {
      "bufferView" : 26,
      "componentType" : 5126,
      "count" : 791,
      "type" : "VEC2"
    }
  ]
}
