{
  "asset" : {
    "generator" : "UE Viewer (umodel) build 1544 based",
    "version" : "2.0"
  },
  "scene" : 0,
  "scenes" : [
    {
      "nodes" : [ 0 ]
    }
  ],
  "nodes" : [
    {
      "name" : "SM_ENV_LKNVLD_TreeSet_P_Lod1",
      "mesh" : 0
    }
  ],
  "materials" : [
    {
      "name" : "MI_ENV_LKNVLD_LeafMasked_A",
      "pbrMetallicRoughness" : {
        "baseColorFactor" : [ 0.3, 0.3, 0.3, 1.0 ],
        "metallicFactor" : 0.1,
        "roughnessFactor" : 0.5
      }
    },
    {
      "name" : "MI_ENV_LKNVLD_Leaf_A",
      "pbrMetallicRoughness" : {
        "baseColorFactor" : [ 0.9, 0.3, 0.3, 1.0 ],
        "metallicFactor" : 0.1,
        "roughnessFactor" : 0.5
      }
    },
    {
      "name" : "MI_ENV_LKNVLD_Tree_A",
      "pbrMetallicRoughness" : {
        "baseColorFactor" : [ 0.3, 0.9, 0.3, 1.0 ],
        "metallicFactor" : 0.1,
        "roughnessFactor" : 0.5
      }
    }
  ],
  "meshes" : [
    {
      "primitives" : [
        {
          "attributes" : {
            "POSITION" : 1,
            "NORMAL" : 2,
            "TANGENT" : 3,
            "COLOR_0" : 4,
            "TEXCOORD_0" : 5,
            "TEXCOORD_1" : 6,
            "TEXCOORD_2" : 7,
            "TEXCOORD_3" : 8
          },
          "indices" : 0,
          "material" : 0
        },
        {
          "attributes" : {
            "POSITION" : 10,
            "NORMAL" : 11,
            "TANGENT" : 12,
            "COLOR_0" : 13,
            "TEXCOORD_0" : 14,
            "TEXCOORD_1" : 15,
            "TEXCOORD_2" : 16,
            "TEXCOORD_3" : 17
          },
          "indices" : 9,
          "material" : 1
        },
        {
          "attributes" : {
            "POSITION" : 19,
            "NORMAL" : 20,
            "TANGENT" : 21,
            "COLOR_0" : 22,
            "TEXCOORD_0" : 23,
            "TEXCOORD_1" : 24,
            "TEXCOORD_2" : 25,
            "TEXCOORD_3" : 26
          },
          "indices" : 18,
          "material" : 2
        }
      ],
      "name" : "SM_ENV_LKNVLD_TreeSet_P_Lod1"
    }
  ],
  "buffers" : [
    {
      "uri" : "SM_ENV_LKNVLD_TreeSet_P_Lod1.bin",
      "byteLength" : 1213060
    }
  ],
  "bufferViews" : [
    {
      "buffer" : 0,
      "byteOffset" : 0,
      "byteLength" : 44852
    },
    {
      "buffer" : 0,
      "byteOffset" : 44852,
      "byteLength" : 133476
    },
    {
      "buffer" : 0,
      "byteOffset" : 178328,
      "byteLength" : 133476
    },
    {
      "buffer" : 0,
      "byteOffset" : 311804,
      "byteLength" : 177968
    },
    {
      "buffer" : 0,
      "byteOffset" : 489772,
      "byteLength" : 44492
    },
    {
      "buffer" : 0,
      "byteOffset" : 534264,
      "byteLength" : 88984
    },
    {
      "buffer" : 0,
      "byteOffset" : 623248,
      "byteLength" : 88984
    },
    {
      "buffer" : 0,
      "byteOffset" : 712232,
      "byteLength" : 88984
    },
    {
      "buffer" : 0,
      "byteOffset" : 801216,
      "byteLength" : 88984
    },
    {
      "buffer" : 0,
      "byteOffset" : 890200,
      "byteLength" : 12876
    },
    {
      "buffer" : 0,
      "byteOffset" : 903076,
      "byteLength" : 28488
    },
    {
      "buffer" : 0,
      "byteOffset" : 931564,
      "byteLength" : 28488
    },
    {
      "buffer" : 0,
      "byteOffset" : 960052,
      "byteLength" : 37984
    },
    {
      "buffer" : 0,
      "byteOffset" : 998036,
      "byteLength" : 9496
    },
    {
      "buffer" : 0,
      "byteOffset" : 1007532,
      "byteLength" : 18992
    },
    {
      "buffer" : 0,
      "byteOffset" : 1026524,
      "byteLength" : 18992
    },
    {
      "buffer" : 0,
      "byteOffset" : 1045516,
      "byteLength" : 18992
    },
    {
      "buffer" : 0,
      "byteOffset" : 1064508,
      "byteLength" : 18992
    },
    {
      "buffer" : 0,
      "byteOffset" : 1083500,
      "byteLength" : 4844
    },
    {
      "buffer" : 0,
      "byteOffset" : 1088344,
      "byteLength" : 19692
    },
    {
      "buffer" : 0,
      "byteOffset" : 1108036,
      "byteLength" : 19692
    },
    {
      "buffer" : 0,
      "byteOffset" : 1127728,
      "byteLength" : 26256
    },
    {
      "buffer" : 0,
      "byteOffset" : 1153984,
      "byteLength" : 6564
    },
    {
      "buffer" : 0,
      "byteOffset" : 1160548,
      "byteLength" : 13128
    },
    {
      "buffer" : 0,
      "byteOffset" : 1173676,
      "byteLength" : 13128
    },
    {
      "buffer" : 0,
      "byteOffset" : 1186804,
      "byteLength" : 13128
    },
    {
      "buffer" : 0,
      "byteOffset" : 1199932,
      "byteLength" : 13128
    }
  ],
  "accessors" : [
    {
      "bufferView" : 0,
      "componentType" : 5123,
      "count" : 22425,
      "type" : "SCALAR"
    },
    {
      "bufferView" : 1,
      "min" : [ -68.8332, 4.17494, -31.0443 ],
      "max" : [ -55.1146, 18.1848, -11.2592 ],
      "componentType" : 5126,
      "count" : 11123,
      "type" : "VEC3"
    },
    {
      "bufferView" : 2,
      "componentType" : 5126,
      "count" : 11123,
      "type" : "VEC3"
    },
    {
      "bufferView" : 3,
      "componentType" : 5126,
      "count" : 11123,
      "type" : "VEC4"
    },
    {
      "bufferView" : 4,
      "normalized" : true,
      "componentType" : 5121,
      "count" : 11123,
      "type" : "VEC4"
    },
    {
      "bufferView" : 5,
      "componentType" : 5126,
      "count" : 11123,
      "type" : "VEC2"
    },
    {
      "bufferView" : 6,
      "componentType" : 5126,
      "count" : 11123,
      "type" : "VEC2"
    },
    {
      "bufferView" : 7,
      "componentType" : 5126,
      "count" : 11123,
      "type" : "VEC2"
    },
    {
      "bufferView" : 8,
      "componentType" : 5126,
      "count" : 11123,
      "type" : "VEC2"
    },
    {
      "bufferView" : 9,
      "componentType" : 5123,
      "count" : 6438,
      "type" : "SCALAR"
    },
    {
      "bufferView" : 10,
      "min" : [ -68.6447, 4.33289, -30.7529 ],
      "max" : [ -55.3967, 17.9802, -11.4116 ],
      "componentType" : 5126,
      "count" : 2374,
      "type" : "VEC3"
    },
    {
      "bufferView" : 11,
      "componentType" : 5126,
      "count" : 2374,
      "type" : "VEC3"
    },
    {
      "bufferView" : 12,
      "componentType" : 5126,
      "count" : 2374,
      "type" : "VEC4"
    },
    {
      "bufferView" : 13,
      "normalized" : true,
      "componentType" : 5121,
      "count" : 2374,
      "type" : "VEC4"
    },
    {
      "bufferView" : 14,
      "componentType" : 5126,
      "count" : 2374,
      "type" : "VEC2"
    },
    {
      "bufferView" : 15,
      "componentType" : 5126,
      "count" : 2374,
      "type" : "VEC2"
    },
    {
      "bufferView" : 16,
      "componentType" : 5126,
      "count" : 2374,
      "type" : "VEC2"
    },
    {
      "bufferView" : 17,
      "componentType" : 5126,
      "count" : 2374,
      "type" : "VEC2"
    },
    {
      "bufferView" : 18,
      "componentType" : 5123,
      "count" : 2421,
      "type" : "SCALAR"
    },
    {
      "bufferView" : 19,
      "min" : [ -68.1207, -0.854178, -29.7533 ],
      "max" : [ -55.584, 14.4188, -12.7778 ],
      "componentType" : 5126,
      "count" : 1641,
      "type" : "VEC3"
    },
    {
      "bufferView" : 20,
      "componentType" : 5126,
      "count" : 1641,
      "type" : "VEC3"
    },
    {
      "bufferView" : 21,
      "componentType" : 5126,
      "count" : 1641,
      "type" : "VEC4"
    },
    {
      "bufferView" : 22,
      "normalized" : true,
      "componentType" : 5121,
      "count" : 1641,
      "type" : "VEC4"
    },
    {
      "bufferView" : 23,
      "componentType" : 5126,
      "count" : 1641,
      "type" : "VEC2"
    },
    {
      "bufferView" : 24,
      "componentType" : 5126,
      "count" : 1641,
      "type" : "VEC2"
    },
    {
      "bufferView" : 25,
      "componentType" : 5126,
      "count" : 1641,
      "type" : "VEC2"
    },
    {
      "bufferView" : 26,
      "componentType" : 5126,
      "count" : 1641,
      "type" : "VEC2"
    }
  ]
}
