{
  "asset" : {
    "generator" : "UE Viewer (umodel) build 1544 based",
    "version" : "2.0"
  },
  "scene" : 0,
  "scenes" : [
    {
      "nodes" : [ 0 ]
    }
  ],
  "nodes" : [
    {
      "name" : "SM_ENV_LKNVLD_Event_SL_Bench_D",
      "mesh" : 0
    }
  ],
  "materials" : [
    {
      "name" : "MI_ENV_LKNVLD_Bench_A",
      "pbrMetallicRoughness" : {
        "baseColorFactor" : [ 0.3, 0.3, 0.3, 1.0 ],
        "metallicFactor" : 0.1,
        "roughnessFactor" : 0.5
      }
    }
  ],
  "meshes" : [
    {
      "primitives" : [
        {
          "attributes" : {
            "POSITION" : 1,
            "NORMAL" : 2,
            "TANGENT" : 3,
            "COLOR_0" : 4,
            "TEXCOORD_0" : 5,
            "TEXCOORD_1" : 6,
            "TEXCOORD_2" : 7,
            "TEXCOORD_3" : 8
          },
          "indices" : 0,
          "material" : 0
        }
      ],
      "name" : "SM_ENV_LKNVLD_Event_SL_Bench_D"
    }
  ],
  "buffers" : [
    {
      "uri" : "SM_ENV_LKNVLD_Event_SL_Bench_D.bin",
      "byteLength" : 176328
    }
  ],
  "bufferViews" : [
    {
      "buffer" : 0,
      "byteOffset" : 0,
      "byteLength" : 6696
    },
    {
      "buffer" : 0,
      "byteOffset" : 6696,
      "byteLength" : 26784
    },
    {
      "buffer" : 0,
      "byteOffset" : 33480,
      "byteLength" : 26784
    },
    {
      "buffer" : 0,
      "byteOffset" : 60264,
      "byteLength" : 35712
    },
    {
      "buffer" : 0,
      "byteOffset" : 95976,
      "byteLength" : 8928
    },
    {
      "buffer" : 0,
      "byteOffset" : 104904,
      "byteLength" : 17856
    },
    {
      "buffer" : 0,
      "byteOffset" : 122760,
      "byteLength" : 17856
    },
    {
      "buffer" : 0,
      "byteOffset" : 140616,
      "byteLength" : 17856
    },
    {
      "buffer" : 0,
      "byteOffset" : 158472,
      "byteLength" : 17856
    }
  ],
  "accessors" : [
    {
      "bufferView" : 0,
      "componentType" : 5123,
      "count" : 3348,
      "type" : "SCALAR"
    },
    {
      "bufferView" : 1,
      "min" : [ -11.0053, -0.295027, 13.9411 ],
      "max" : [ 7.01208, 0.172154, 28.8011 ],
      "componentType" : 5126,
      "count" : 2232,
      "type" : "VEC3"
    },
    {
      "bufferView" : 2,
      "componentType" : 5126,
      "count" : 2232,
      "type" : "VEC3"
    },
    {
      "bufferView" : 3,
      "componentType" : 5126,
      "count" : 2232,
      "type" : "VEC4"
    },
    {
      "bufferView" : 4,
      "normalized" : true,
      "componentType" : 5121,
      "count" : 2232,
      "type" : "VEC4"
    },
    {
      "bufferView" : 5,
      "componentType" : 5126,
      "count" : 2232,
      "type" : "VEC2"
    },
    {
      "bufferView" : 6,
      "componentType" : 5126,
      "count" : 2232,
      "type" : "VEC2"
    },
    {
      "bufferView" : 7,
      "componentType" : 5126,
      "count" : 2232,
      "type" : "VEC2"
    },
    {
      "bufferView" : 8,
      "componentType" : 5126,
      "count" : 2232,
      "type" : "VEC2"
    }
  ]
}
