{
  "asset" : {
    "generator" : "UE Viewer (umodel) build 1544 based",
    "version" : "2.0"
  },
  "scene" : 0,
  "scenes" : [
    {
      "nodes" : [ 0 ]
    }
  ],
  "nodes" : [
    {
      "name" : "SM_ENV_LKNVLD_Event_SL_Line_C",
      "mesh" : 0
    }
  ],
  "materials" : [
    {
      "name" : "MI_ENV_LKNVLD_Neon_A1",
      "pbrMetallicRoughness" : {
        "baseColorFactor" : [ 0.3, 0.3, 0.3, 1.0 ],
        "metallicFactor" : 0.1,
        "roughnessFactor" : 0.5
      }
    }
  ],
  "meshes" : [
    {
      "primitives" : [
        {
          "attributes" : {
            "POSITION" : 1,
            "NORMAL" : 2,
            "TANGENT" : 3,
            "TEXCOORD_0" : 4,
            "TEXCOORD_1" : 5
          },
          "indices" : 0,
          "material" : 0
        }
      ],
      "name" : "SM_ENV_LKNVLD_Event_SL_Line_C"
    }
  ],
  "buffers" : [
    {
      "uri" : "SM_ENV_LKNVLD_Event_SL_Line_C.bin",
      "byteLength" : 28124
    }
  ],
  "bufferViews" : [
    {
      "buffer" : 0,
      "byteOffset" : 0,
      "byteLength" : 2756
    },
    {
      "buffer" : 0,
      "byteOffset" : 2756,
      "byteLength" : 5436
    },
    {
      "buffer" : 0,
      "byteOffset" : 8192,
      "byteLength" : 5436
    },
    {
      "buffer" : 0,
      "byteOffset" : 13628,
      "byteLength" : 7248
    },
    {
      "buffer" : 0,
      "byteOffset" : 20876,
      "byteLength" : 3624
    },
    {
      "buffer" : 0,
      "byteOffset" : 24500,
      "byteLength" : 3624
    }
  ],
  "accessors" : [
    {
      "bufferView" : 0,
      "componentType" : 5123,
      "count" : 1377,
      "type" : "SCALAR"
    },
    {
      "bufferView" : 1,
      "min" : [ -17.5725, 0.283538, 28.9352 ],
      "max" : [ 17.5938, 8.68934, 64.1727 ],
      "componentType" : 5126,
      "count" : 453,
      "type" : "VEC3"
    },
    {
      "bufferView" : 2,
      "componentType" : 5126,
      "count" : 453,
      "type" : "VEC3"
    },
    {
      "bufferView" : 3,
      "componentType" : 5126,
      "count" : 453,
      "type" : "VEC4"
    },
    {
      "bufferView" : 4,
      "componentType" : 5126,
      "count" : 453,
      "type" : "VEC2"
    },
    {
      "bufferView" : 5,
      "componentType" : 5126,
      "count" : 453,
      "type" : "VEC2"
    }
  ]
}
