{
  "asset" : {
    "generator" : "UE Viewer (umodel) build 1544 based",
    "version" : "2.0"
  },
  "scene" : 0,
  "scenes" : [
    {
      "nodes" : [ 0 ]
    }
  ],
  "nodes" : [
    {
      "name" : "SM_ENV_LKNVLD_RockMiddle_D",
      "mesh" : 0
    }
  ],
  "materials" : [
    {
      "name" : "MI_ENV_LKNVLD_MiddleRock_A",
      "pbrMetallicRoughness" : {
        "baseColorFactor" : [ 0.3, 0.3, 0.3, 1.0 ],
        "metallicFactor" : 0.1,
        "roughnessFactor" : 0.5
      }
    }
  ],
  "meshes" : [
    {
      "primitives" : [
        {
          "attributes" : {
            "POSITION" : 1,
            "NORMAL" : 2,
            "TANGENT" : 3,
            "COLOR_0" : 4,
            "TEXCOORD_0" : 5,
            "TEXCOORD_1" : 6,
            "TEXCOORD_2" : 7,
            "TEXCOORD_3" : 8
          },
          "indices" : 0,
          "material" : 0
        }
      ],
      "name" : "SM_ENV_LKNVLD_RockMiddle_D"
    }
  ],
  "buffers" : [
    {
      "uri" : "SM_ENV_LKNVLD_RockMiddle_D.bin",
      "byteLength" : 65872
    }
  ],
  "bufferViews" : [
    {
      "buffer" : 0,
      "byteOffset" : 0,
      "byteLength" : 4920
    },
    {
      "buffer" : 0,
      "byteOffset" : 4920,
      "byteLength" : 9624
    },
    {
      "buffer" : 0,
      "byteOffset" : 14544,
      "byteLength" : 9624
    },
    {
      "buffer" : 0,
      "byteOffset" : 24168,
      "byteLength" : 12832
    },
    {
      "buffer" : 0,
      "byteOffset" : 37000,
      "byteLength" : 3208
    },
    {
      "buffer" : 0,
      "byteOffset" : 40208,
      "byteLength" : 6416
    },
    {
      "buffer" : 0,
      "byteOffset" : 46624,
      "byteLength" : 6416
    },
    {
      "buffer" : 0,
      "byteOffset" : 53040,
      "byteLength" : 6416
    },
    {
      "buffer" : 0,
      "byteOffset" : 59456,
      "byteLength" : 6416
    }
  ],
  "accessors" : [
    {
      "bufferView" : 0,
      "componentType" : 5123,
      "count" : 2460,
      "type" : "SCALAR"
    },
    {
      "bufferView" : 1,
      "min" : [ -26.9775, -0.397664, -45.0718 ],
      "max" : [ -22.8498, 1.10082, -36.5167 ],
      "componentType" : 5126,
      "count" : 802,
      "type" : "VEC3"
    },
    {
      "bufferView" : 2,
      "componentType" : 5126,
      "count" : 802,
      "type" : "VEC3"
    },
    {
      "bufferView" : 3,
      "componentType" : 5126,
      "count" : 802,
      "type" : "VEC4"
    },
    {
      "bufferView" : 4,
      "normalized" : true,
      "componentType" : 5121,
      "count" : 802,
      "type" : "VEC4"
    },
    {
      "bufferView" : 5,
      "componentType" : 5126,
      "count" : 802,
      "type" : "VEC2"
    },
    {
      "bufferView" : 6,
      "componentType" : 5126,
      "count" : 802,
      "type" : "VEC2"
    },
    {
      "bufferView" : 7,
      "componentType" : 5126,
      "count" : 802,
      "type" : "VEC2"
    },
    {
      "bufferView" : 8,
      "componentType" : 5126,
      "count" : 802,
      "type" : "VEC2"
    }
  ]
}
