{
  "asset" : {
    "generator" : "UE Viewer (umodel) build 1544 based",
    "version" : "2.0"
  },
  "scene" : 0,
  "scenes" : [
    {
      "nodes" : [ 0 ]
    }
  ],
  "nodes" : [
    {
      "name" : "SM_ENV_LKNVLD_TreeSet_N",
      "mesh" : 0
    }
  ],
  "materials" : [
    {
      "name" : "MI_ENV_LKNVLD_LeafMasked_A",
      "pbrMetallicRoughness" : {
        "baseColorFactor" : [ 0.3, 0.3, 0.3, 1.0 ],
        "metallicFactor" : 0.1,
        "roughnessFactor" : 0.5
      }
    },
    {
      "name" : "MI_ENV_LKNVLD_Leaf_A",
      "pbrMetallicRoughness" : {
        "baseColorFactor" : [ 0.9, 0.3, 0.3, 1.0 ],
        "metallicFactor" : 0.1,
        "roughnessFactor" : 0.5
      }
    },
    {
      "name" : "MI_ENV_LKNVLD_Tree_A",
      "pbrMetallicRoughness" : {
        "baseColorFactor" : [ 0.3, 0.9, 0.3, 1.0 ],
        "metallicFactor" : 0.1,
        "roughnessFactor" : 0.5
      }
    }
  ],
  "meshes" : [
    {
      "primitives" : [
        {
          "attributes" : {
            "POSITION" : 1,
            "NORMAL" : 2,
            "TANGENT" : 3,
            "COLOR_0" : 4,
            "TEXCOORD_0" : 5,
            "TEXCOORD_1" : 6,
            "TEXCOORD_2" : 7,
            "TEXCOORD_3" : 8
          },
          "indices" : 0,
          "material" : 0
        },
        {
          "attributes" : {
            "POSITION" : 10,
            "NORMAL" : 11,
            "TANGENT" : 12,
            "COLOR_0" : 13,
            "TEXCOORD_0" : 14,
            "TEXCOORD_1" : 15,
            "TEXCOORD_2" : 16,
            "TEXCOORD_3" : 17
          },
          "indices" : 9,
          "material" : 1
        },
        {
          "attributes" : {
            "POSITION" : 19,
            "NORMAL" : 20,
            "TANGENT" : 21,
            "COLOR_0" : 22,
            "TEXCOORD_0" : 23,
            "TEXCOORD_1" : 24,
            "TEXCOORD_2" : 25,
            "TEXCOORD_3" : 26
          },
          "indices" : 18,
          "material" : 2
        }
      ],
      "name" : "SM_ENV_LKNVLD_TreeSet_N"
    }
  ],
  "buffers" : [
    {
      "uri" : "SM_ENV_LKNVLD_TreeSet_N.bin",
      "byteLength" : 2855748
    }
  ],
  "bufferViews" : [
    {
      "buffer" : 0,
      "byteOffset" : 0,
      "byteLength" : 96264
    },
    {
      "buffer" : 0,
      "byteOffset" : 96264,
      "byteLength" : 256752
    },
    {
      "buffer" : 0,
      "byteOffset" : 353016,
      "byteLength" : 256752
    },
    {
      "buffer" : 0,
      "byteOffset" : 609768,
      "byteLength" : 342336
    },
    {
      "buffer" : 0,
      "byteOffset" : 952104,
      "byteLength" : 85584
    },
    {
      "buffer" : 0,
      "byteOffset" : 1037688,
      "byteLength" : 171168
    },
    {
      "buffer" : 0,
      "byteOffset" : 1208856,
      "byteLength" : 171168
    },
    {
      "buffer" : 0,
      "byteOffset" : 1380024,
      "byteLength" : 171168
    },
    {
      "buffer" : 0,
      "byteOffset" : 1551192,
      "byteLength" : 171168
    },
    {
      "buffer" : 0,
      "byteOffset" : 1722360,
      "byteLength" : 42756
    },
    {
      "buffer" : 0,
      "byteOffset" : 1765116,
      "byteLength" : 77760
    },
    {
      "buffer" : 0,
      "byteOffset" : 1842876,
      "byteLength" : 77760
    },
    {
      "buffer" : 0,
      "byteOffset" : 1920636,
      "byteLength" : 103680
    },
    {
      "buffer" : 0,
      "byteOffset" : 2024316,
      "byteLength" : 25920
    },
    {
      "buffer" : 0,
      "byteOffset" : 2050236,
      "byteLength" : 51840
    },
    {
      "buffer" : 0,
      "byteOffset" : 2102076,
      "byteLength" : 51840
    },
    {
      "buffer" : 0,
      "byteOffset" : 2153916,
      "byteLength" : 51840
    },
    {
      "buffer" : 0,
      "byteOffset" : 2205756,
      "byteLength" : 51840
    },
    {
      "buffer" : 0,
      "byteOffset" : 2257596,
      "byteLength" : 28380
    },
    {
      "buffer" : 0,
      "byteOffset" : 2285976,
      "byteLength" : 89964
    },
    {
      "buffer" : 0,
      "byteOffset" : 2375940,
      "byteLength" : 89964
    },
    {
      "buffer" : 0,
      "byteOffset" : 2465904,
      "byteLength" : 119952
    },
    {
      "buffer" : 0,
      "byteOffset" : 2585856,
      "byteLength" : 29988
    },
    {
      "buffer" : 0,
      "byteOffset" : 2615844,
      "byteLength" : 59976
    },
    {
      "buffer" : 0,
      "byteOffset" : 2675820,
      "byteLength" : 59976
    },
    {
      "buffer" : 0,
      "byteOffset" : 2735796,
      "byteLength" : 59976
    },
    {
      "buffer" : 0,
      "byteOffset" : 2795772,
      "byteLength" : 59976
    }
  ],
  "accessors" : [
    {
      "bufferView" : 0,
      "componentType" : 5123,
      "count" : 48132,
      "type" : "SCALAR"
    },
    {
      "bufferView" : 1,
      "min" : [ -74.7813, 6.10651, -92.9357 ],
      "max" : [ -55.1299, 19.5864, -72.9553 ],
      "componentType" : 5126,
      "count" : 21396,
      "type" : "VEC3"
    },
    {
      "bufferView" : 2,
      "componentType" : 5126,
      "count" : 21396,
      "type" : "VEC3"
    },
    {
      "bufferView" : 3,
      "componentType" : 5126,
      "count" : 21396,
      "type" : "VEC4"
    },
    {
      "bufferView" : 4,
      "normalized" : true,
      "componentType" : 5121,
      "count" : 21396,
      "type" : "VEC4"
    },
    {
      "bufferView" : 5,
      "componentType" : 5126,
      "count" : 21396,
      "type" : "VEC2"
    },
    {
      "bufferView" : 6,
      "componentType" : 5126,
      "count" : 21396,
      "type" : "VEC2"
    },
    {
      "bufferView" : 7,
      "componentType" : 5126,
      "count" : 21396,
      "type" : "VEC2"
    },
    {
      "bufferView" : 8,
      "componentType" : 5126,
      "count" : 21396,
      "type" : "VEC2"
    },
    {
      "bufferView" : 9,
      "componentType" : 5123,
      "count" : 21378,
      "type" : "SCALAR"
    },
    {
      "bufferView" : 10,
      "min" : [ -74.5778, 6.28652, -92.7174 ],
      "max" : [ -55.3328, 19.4374, -73.1497 ],
      "componentType" : 5126,
      "count" : 6480,
      "type" : "VEC3"
    },
    {
      "bufferView" : 11,
      "componentType" : 5126,
      "count" : 6480,
      "type" : "VEC3"
    },
    {
      "bufferView" : 12,
      "componentType" : 5126,
      "count" : 6480,
      "type" : "VEC4"
    },
    {
      "bufferView" : 13,
      "normalized" : true,
      "componentType" : 5121,
      "count" : 6480,
      "type" : "VEC4"
    },
    {
      "bufferView" : 14,
      "componentType" : 5126,
      "count" : 6480,
      "type" : "VEC2"
    },
    {
      "bufferView" : 15,
      "componentType" : 5126,
      "count" : 6480,
      "type" : "VEC2"
    },
    {
      "bufferView" : 16,
      "componentType" : 5126,
      "count" : 6480,
      "type" : "VEC2"
    },
    {
      "bufferView" : 17,
      "componentType" : 5126,
      "count" : 6480,
      "type" : "VEC2"
    },
    {
      "bufferView" : 18,
      "componentType" : 5123,
      "count" : 14190,
      "type" : "SCALAR"
    },
    {
      "bufferView" : 19,
      "min" : [ -73.78, 0.526004, -91.7418 ],
      "max" : [ -56.1362, 16.842, -73.3562 ],
      "componentType" : 5126,
      "count" : 7497,
      "type" : "VEC3"
    },
    {
      "bufferView" : 20,
      "componentType" : 5126,
      "count" : 7497,
      "type" : "VEC3"
    },
    {
      "bufferView" : 21,
      "componentType" : 5126,
      "count" : 7497,
      "type" : "VEC4"
    },
    {
      "bufferView" : 22,
      "normalized" : true,
      "componentType" : 5121,
      "count" : 7497,
      "type" : "VEC4"
    },
    {
      "bufferView" : 23,
      "componentType" : 5126,
      "count" : 7497,
      "type" : "VEC2"
    },
    {
      "bufferView" : 24,
      "componentType" : 5126,
      "count" : 7497,
      "type" : "VEC2"
    },
    {
      "bufferView" : 25,
      "componentType" : 5126,
      "count" : 7497,
      "type" : "VEC2"
    },
    {
      "bufferView" : 26,
      "componentType" : 5126,
      "count" : 7497,
      "type" : "VEC2"
    }
  ]
}
