{
  "asset" : {
    "generator" : "UE Viewer (umodel) build 1544 based",
    "version" : "2.0"
  },
  "scene" : 0,
  "scenes" : [
    {
      "nodes" : [ 0 ]
    }
  ],
  "nodes" : [
    {
      "name" : "SM_ENV_LKNVLD_UtilityPole_B_Lod1",
      "mesh" : 0
    }
  ],
  "materials" : [
    {
      "name" : "MI_ENV_LKNVLD_UtilityPole_A",
      "pbrMetallicRoughness" : {
        "baseColorFactor" : [ 0.3, 0.3, 0.3, 1.0 ],
        "metallicFactor" : 0.1,
        "roughnessFactor" : 0.5
      }
    },
    {
      "name" : "MI_ENV_LKNVLD_BigPipe_B",
      "pbrMetallicRoughness" : {
        "baseColorFactor" : [ 0.9, 0.3, 0.3, 1.0 ],
        "metallicFactor" : 0.1,
        "roughnessFactor" : 0.5
      }
    },
    {
      "name" : "MI_ENV_LKNVLD_Sticker_01",
      "pbrMetallicRoughness" : {
        "baseColorFactor" : [ 0.3, 0.9, 0.3, 1.0 ],
        "metallicFactor" : 0.1,
        "roughnessFactor" : 0.5
      }
    }
  ],
  "meshes" : [
    {
      "primitives" : [
        {
          "attributes" : {
            "POSITION" : 1,
            "NORMAL" : 2,
            "TANGENT" : 3,
            "COLOR_0" : 4,
            "TEXCOORD_0" : 5,
            "TEXCOORD_1" : 6,
            "TEXCOORD_2" : 7,
            "TEXCOORD_3" : 8
          },
          "indices" : 0,
          "material" : 0
        },
        {
          "attributes" : {
            "POSITION" : 10,
            "NORMAL" : 11,
            "TANGENT" : 12,
            "COLOR_0" : 13,
            "TEXCOORD_0" : 14,
            "TEXCOORD_1" : 15,
            "TEXCOORD_2" : 16,
            "TEXCOORD_3" : 17
          },
          "indices" : 9,
          "material" : 1
        },
        {
          "attributes" : {
            "POSITION" : 19,
            "NORMAL" : 20,
            "TANGENT" : 21,
            "COLOR_0" : 22,
            "TEXCOORD_0" : 23,
            "TEXCOORD_1" : 24,
            "TEXCOORD_2" : 25,
            "TEXCOORD_3" : 26
          },
          "indices" : 18,
          "material" : 2
        }
      ],
      "name" : "SM_ENV_LKNVLD_UtilityPole_B_Lod1"
    }
  ],
  "buffers" : [
    {
      "uri" : "SM_ENV_LKNVLD_UtilityPole_B_Lod1.bin",
      "byteLength" : 380976
    }
  ],
  "bufferViews" : [
    {
      "buffer" : 0,
      "byteOffset" : 0,
      "byteLength" : 28512
    },
    {
      "buffer" : 0,
      "byteOffset" : 28512,
      "byteLength" : 51960
    },
    {
      "buffer" : 0,
      "byteOffset" : 80472,
      "byteLength" : 51960
    },
    {
      "buffer" : 0,
      "byteOffset" : 132432,
      "byteLength" : 69280
    },
    {
      "buffer" : 0,
      "byteOffset" : 201712,
      "byteLength" : 17320
    },
    {
      "buffer" : 0,
      "byteOffset" : 219032,
      "byteLength" : 34640
    },
    {
      "buffer" : 0,
      "byteOffset" : 253672,
      "byteLength" : 34640
    },
    {
      "buffer" : 0,
      "byteOffset" : 288312,
      "byteLength" : 34640
    },
    {
      "buffer" : 0,
      "byteOffset" : 322952,
      "byteLength" : 34640
    },
    {
      "buffer" : 0,
      "byteOffset" : 357592,
      "byteLength" : 2124
    },
    {
      "buffer" : 0,
      "byteOffset" : 359716,
      "byteLength" : 2904
    },
    {
      "buffer" : 0,
      "byteOffset" : 362620,
      "byteLength" : 2904
    },
    {
      "buffer" : 0,
      "byteOffset" : 365524,
      "byteLength" : 3872
    },
    {
      "buffer" : 0,
      "byteOffset" : 369396,
      "byteLength" : 968
    },
    {
      "buffer" : 0,
      "byteOffset" : 370364,
      "byteLength" : 1936
    },
    {
      "buffer" : 0,
      "byteOffset" : 372300,
      "byteLength" : 1936
    },
    {
      "buffer" : 0,
      "byteOffset" : 374236,
      "byteLength" : 1936
    },
    {
      "buffer" : 0,
      "byteOffset" : 376172,
      "byteLength" : 1936
    },
    {
      "buffer" : 0,
      "byteOffset" : 378108,
      "byteLength" : 132
    },
    {
      "buffer" : 0,
      "byteOffset" : 378240,
      "byteLength" : 432
    },
    {
      "buffer" : 0,
      "byteOffset" : 378672,
      "byteLength" : 432
    },
    {
      "buffer" : 0,
      "byteOffset" : 379104,
      "byteLength" : 576
    },
    {
      "buffer" : 0,
      "byteOffset" : 379680,
      "byteLength" : 144
    },
    {
      "buffer" : 0,
      "byteOffset" : 379824,
      "byteLength" : 288
    },
    {
      "buffer" : 0,
      "byteOffset" : 380112,
      "byteLength" : 288
    },
    {
      "buffer" : 0,
      "byteOffset" : 380400,
      "byteLength" : 288
    },
    {
      "buffer" : 0,
      "byteOffset" : 380688,
      "byteLength" : 288
    }
  ],
  "accessors" : [
    {
      "bufferView" : 0,
      "componentType" : 5123,
      "count" : 14256,
      "type" : "SCALAR"
    },
    {
      "bufferView" : 1,
      "min" : [ -0.274248, -0.387099, -0.448283 ],
      "max" : [ 0.530223, 11.3309, 1.68605 ],
      "componentType" : 5126,
      "count" : 4330,
      "type" : "VEC3"
    },
    {
      "bufferView" : 2,
      "componentType" : 5126,
      "count" : 4330,
      "type" : "VEC3"
    },
    {
      "bufferView" : 3,
      "componentType" : 5126,
      "count" : 4330,
      "type" : "VEC4"
    },
    {
      "bufferView" : 4,
      "normalized" : true,
      "componentType" : 5121,
      "count" : 4330,
      "type" : "VEC4"
    },
    {
      "bufferView" : 5,
      "componentType" : 5126,
      "count" : 4330,
      "type" : "VEC2"
    },
    {
      "bufferView" : 6,
      "componentType" : 5126,
      "count" : 4330,
      "type" : "VEC2"
    },
    {
      "bufferView" : 7,
      "componentType" : 5126,
      "count" : 4330,
      "type" : "VEC2"
    },
    {
      "bufferView" : 8,
      "componentType" : 5126,
      "count" : 4330,
      "type" : "VEC2"
    },
    {
      "bufferView" : 9,
      "componentType" : 5123,
      "count" : 1062,
      "type" : "SCALAR"
    },
    {
      "bufferView" : 10,
      "min" : [ -0.296305, 3.55782, -0.296305 ],
      "max" : [ 0.367455, 7.20668, 0.296304 ],
      "componentType" : 5126,
      "count" : 242,
      "type" : "VEC3"
    },
    {
      "bufferView" : 11,
      "componentType" : 5126,
      "count" : 242,
      "type" : "VEC3"
    },
    {
      "bufferView" : 12,
      "componentType" : 5126,
      "count" : 242,
      "type" : "VEC4"
    },
    {
      "bufferView" : 13,
      "normalized" : true,
      "componentType" : 5121,
      "count" : 242,
      "type" : "VEC4"
    },
    {
      "bufferView" : 14,
      "componentType" : 5126,
      "count" : 242,
      "type" : "VEC2"
    },
    {
      "bufferView" : 15,
      "componentType" : 5126,
      "count" : 242,
      "type" : "VEC2"
    },
    {
      "bufferView" : 16,
      "componentType" : 5126,
      "count" : 242,
      "type" : "VEC2"
    },
    {
      "bufferView" : 17,
      "componentType" : 5126,
      "count" : 242,
      "type" : "VEC2"
    },
    {
      "bufferView" : 18,
      "componentType" : 5123,
      "count" : 66,
      "type" : "SCALAR"
    },
    {
      "bufferView" : 19,
      "min" : [ -0.0342204, 0.341298, -0.285838 ],
      "max" : [ 0.295216, 4.28628, 0.199334 ],
      "componentType" : 5126,
      "count" : 36,
      "type" : "VEC3"
    },
    {
      "bufferView" : 20,
      "componentType" : 5126,
      "count" : 36,
      "type" : "VEC3"
    },
    {
      "bufferView" : 21,
      "componentType" : 5126,
      "count" : 36,
      "type" : "VEC4"
    },
    {
      "bufferView" : 22,
      "normalized" : true,
      "componentType" : 5121,
      "count" : 36,
      "type" : "VEC4"
    },
    {
      "bufferView" : 23,
      "componentType" : 5126,
      "count" : 36,
      "type" : "VEC2"
    },
    {
      "bufferView" : 24,
      "componentType" : 5126,
      "count" : 36,
      "type" : "VEC2"
    },
    {
      "bufferView" : 25,
      "componentType" : 5126,
      "count" : 36,
      "type" : "VEC2"
    },
    {
      "bufferView" : 26,
      "componentType" : 5126,
      "count" : 36,
      "type" : "VEC2"
    }
  ]
}
