{
  "asset" : {
    "generator" : "UE Viewer (umodel) build 1544 based",
    "version" : "2.0"
  },
  "scene" : 0,
  "scenes" : [
    {
      "nodes" : [ 0 ]
    }
  ],
  "nodes" : [
    {
      "name" : "SM_ENV_LKNVLD_TreeSet_K_Lod3",
      "mesh" : 0
    }
  ],
  "materials" : [
    {
      "name" : "MI_ENV_LKNVLD_LeafMasked_A",
      "pbrMetallicRoughness" : {
        "baseColorFactor" : [ 0.3, 0.3, 0.3, 1.0 ],
        "metallicFactor" : 0.1,
        "roughnessFactor" : 0.5
      }
    },
    {
      "name" : "MI_ENV_LKNVLD_Leaf_A",
      "pbrMetallicRoughness" : {
        "baseColorFactor" : [ 0.9, 0.3, 0.3, 1.0 ],
        "metallicFactor" : 0.1,
        "roughnessFactor" : 0.5
      }
    },
    {
      "name" : "MI_ENV_LKNVLD_Tree_A",
      "pbrMetallicRoughness" : {
        "baseColorFactor" : [ 0.3, 0.9, 0.3, 1.0 ],
        "metallicFactor" : 0.1,
        "roughnessFactor" : 0.5
      }
    }
  ],
  "meshes" : [
    {
      "primitives" : [
        {
          "attributes" : {
            "POSITION" : 1,
            "NORMAL" : 2,
            "TANGENT" : 3,
            "COLOR_0" : 4,
            "TEXCOORD_0" : 5,
            "TEXCOORD_1" : 6,
            "TEXCOORD_2" : 7,
            "TEXCOORD_3" : 8
          },
          "indices" : 0,
          "material" : 0
        },
        {
          "attributes" : {
            "POSITION" : 10,
            "NORMAL" : 11,
            "TANGENT" : 12,
            "COLOR_0" : 13,
            "TEXCOORD_0" : 14,
            "TEXCOORD_1" : 15,
            "TEXCOORD_2" : 16,
            "TEXCOORD_3" : 17
          },
          "indices" : 9,
          "material" : 1
        },
        {
          "attributes" : {
            "POSITION" : 19,
            "NORMAL" : 20,
            "TANGENT" : 21,
            "COLOR_0" : 22,
            "TEXCOORD_0" : 23,
            "TEXCOORD_1" : 24,
            "TEXCOORD_2" : 25,
            "TEXCOORD_3" : 26
          },
          "indices" : 18,
          "material" : 2
        }
      ],
      "name" : "SM_ENV_LKNVLD_TreeSet_K_Lod3"
    }
  ],
  "buffers" : [
    {
      "uri" : "SM_ENV_LKNVLD_TreeSet_K_Lod3.bin",
      "byteLength" : 1248580
    }
  ],
  "bufferViews" : [
    {
      "buffer" : 0,
      "byteOffset" : 0,
      "byteLength" : 31824
    },
    {
      "buffer" : 0,
      "byteOffset" : 31824,
      "byteLength" : 153564
    },
    {
      "buffer" : 0,
      "byteOffset" : 185388,
      "byteLength" : 153564
    },
    {
      "buffer" : 0,
      "byteOffset" : 338952,
      "byteLength" : 204752
    },
    {
      "buffer" : 0,
      "byteOffset" : 543704,
      "byteLength" : 51188
    },
    {
      "buffer" : 0,
      "byteOffset" : 594892,
      "byteLength" : 102376
    },
    {
      "buffer" : 0,
      "byteOffset" : 697268,
      "byteLength" : 102376
    },
    {
      "buffer" : 0,
      "byteOffset" : 799644,
      "byteLength" : 102376
    },
    {
      "buffer" : 0,
      "byteOffset" : 902020,
      "byteLength" : 102376
    },
    {
      "buffer" : 0,
      "byteOffset" : 1004396,
      "byteLength" : 8916
    },
    {
      "buffer" : 0,
      "byteOffset" : 1013312,
      "byteLength" : 23652
    },
    {
      "buffer" : 0,
      "byteOffset" : 1036964,
      "byteLength" : 23652
    },
    {
      "buffer" : 0,
      "byteOffset" : 1060616,
      "byteLength" : 31536
    },
    {
      "buffer" : 0,
      "byteOffset" : 1092152,
      "byteLength" : 7884
    },
    {
      "buffer" : 0,
      "byteOffset" : 1100036,
      "byteLength" : 15768
    },
    {
      "buffer" : 0,
      "byteOffset" : 1115804,
      "byteLength" : 15768
    },
    {
      "buffer" : 0,
      "byteOffset" : 1131572,
      "byteLength" : 15768
    },
    {
      "buffer" : 0,
      "byteOffset" : 1147340,
      "byteLength" : 15768
    },
    {
      "buffer" : 0,
      "byteOffset" : 1163108,
      "byteLength" : 2708
    },
    {
      "buffer" : 0,
      "byteOffset" : 1165816,
      "byteLength" : 13068
    },
    {
      "buffer" : 0,
      "byteOffset" : 1178884,
      "byteLength" : 13068
    },
    {
      "buffer" : 0,
      "byteOffset" : 1191952,
      "byteLength" : 17424
    },
    {
      "buffer" : 0,
      "byteOffset" : 1209376,
      "byteLength" : 4356
    },
    {
      "buffer" : 0,
      "byteOffset" : 1213732,
      "byteLength" : 8712
    },
    {
      "buffer" : 0,
      "byteOffset" : 1222444,
      "byteLength" : 8712
    },
    {
      "buffer" : 0,
      "byteOffset" : 1231156,
      "byteLength" : 8712
    },
    {
      "buffer" : 0,
      "byteOffset" : 1239868,
      "byteLength" : 8712
    }
  ],
  "accessors" : [
    {
      "bufferView" : 0,
      "componentType" : 5123,
      "count" : 15912,
      "type" : "SCALAR"
    },
    {
      "bufferView" : 1,
      "min" : [ 43.8207, 5.13896, -33.8487 ],
      "max" : [ 65.8687, 16.6041, -13.2709 ],
      "componentType" : 5126,
      "count" : 12797,
      "type" : "VEC3"
    },
    {
      "bufferView" : 2,
      "componentType" : 5126,
      "count" : 12797,
      "type" : "VEC3"
    },
    {
      "bufferView" : 3,
      "componentType" : 5126,
      "count" : 12797,
      "type" : "VEC4"
    },
    {
      "bufferView" : 4,
      "normalized" : true,
      "componentType" : 5121,
      "count" : 12797,
      "type" : "VEC4"
    },
    {
      "bufferView" : 5,
      "componentType" : 5126,
      "count" : 12797,
      "type" : "VEC2"
    },
    {
      "bufferView" : 6,
      "componentType" : 5126,
      "count" : 12797,
      "type" : "VEC2"
    },
    {
      "bufferView" : 7,
      "componentType" : 5126,
      "count" : 12797,
      "type" : "VEC2"
    },
    {
      "bufferView" : 8,
      "componentType" : 5126,
      "count" : 12797,
      "type" : "VEC2"
    },
    {
      "bufferView" : 9,
      "componentType" : 5123,
      "count" : 4458,
      "type" : "SCALAR"
    },
    {
      "bufferView" : 10,
      "min" : [ 44.1347, 5.34694, -33.5362 ],
      "max" : [ 65.7071, 16.4073, -13.4763 ],
      "componentType" : 5126,
      "count" : 1971,
      "type" : "VEC3"
    },
    {
      "bufferView" : 11,
      "componentType" : 5126,
      "count" : 1971,
      "type" : "VEC3"
    },
    {
      "bufferView" : 12,
      "componentType" : 5126,
      "count" : 1971,
      "type" : "VEC4"
    },
    {
      "bufferView" : 13,
      "normalized" : true,
      "componentType" : 5121,
      "count" : 1971,
      "type" : "VEC4"
    },
    {
      "bufferView" : 14,
      "componentType" : 5126,
      "count" : 1971,
      "type" : "VEC2"
    },
    {
      "bufferView" : 15,
      "componentType" : 5126,
      "count" : 1971,
      "type" : "VEC2"
    },
    {
      "bufferView" : 16,
      "componentType" : 5126,
      "count" : 1971,
      "type" : "VEC2"
    },
    {
      "bufferView" : 17,
      "componentType" : 5126,
      "count" : 1971,
      "type" : "VEC2"
    },
    {
      "bufferView" : 18,
      "componentType" : 5123,
      "count" : 1353,
      "type" : "SCALAR"
    },
    {
      "bufferView" : 19,
      "min" : [ 46.3987, -0.598622, -31.9979 ],
      "max" : [ 63.2033, 12.0665, -15.6494 ],
      "componentType" : 5126,
      "count" : 1089,
      "type" : "VEC3"
    },
    {
      "bufferView" : 20,
      "componentType" : 5126,
      "count" : 1089,
      "type" : "VEC3"
    },
    {
      "bufferView" : 21,
      "componentType" : 5126,
      "count" : 1089,
      "type" : "VEC4"
    },
    {
      "bufferView" : 22,
      "normalized" : true,
      "componentType" : 5121,
      "count" : 1089,
      "type" : "VEC4"
    },
    {
      "bufferView" : 23,
      "componentType" : 5126,
      "count" : 1089,
      "type" : "VEC2"
    },
    {
      "bufferView" : 24,
      "componentType" : 5126,
      "count" : 1089,
      "type" : "VEC2"
    },
    {
      "bufferView" : 25,
      "componentType" : 5126,
      "count" : 1089,
      "type" : "VEC2"
    },
    {
      "bufferView" : 26,
      "componentType" : 5126,
      "count" : 1089,
      "type" : "VEC2"
    }
  ]
}
