{
  "asset" : {
    "generator" : "UE Viewer (umodel) build 1544 based",
    "version" : "2.0"
  },
  "scene" : 0,
  "scenes" : [
    {
      "nodes" : [ 0 ]
    }
  ],
  "nodes" : [
    {
      "name" : "SM_ENV_LKNVLD_Event_SL_KonohaMark_Lod1",
      "mesh" : 0
    }
  ],
  "materials" : [
    {
      "name" : "MI_T_ENV_LKNVLD_StoneTrim_LOD",
      "pbrMetallicRoughness" : {
        "baseColorFactor" : [ 0.3, 0.3, 0.3, 1.0 ],
        "metallicFactor" : 0.1,
        "roughnessFactor" : 0.5
      }
    },
    {
      "name" : "MI_ENV_LKNVLD_Neon_A1",
      "pbrMetallicRoughness" : {
        "baseColorFactor" : [ 0.9, 0.3, 0.3, 1.0 ],
        "metallicFactor" : 0.1,
        "roughnessFactor" : 0.5
      }
    },
    {
      "name" : "MI_ENV_LKNVLD_ConcreteSlabs_ThinRed_LOD",
      "pbrMetallicRoughness" : {
        "baseColorFactor" : [ 0.3, 0.9, 0.3, 1.0 ],
        "metallicFactor" : 0.1,
        "roughnessFactor" : 0.5
      }
    },
    {
      "name" : "MI_ENV_LKNVLD_Road_Simple",
      "pbrMetallicRoughness" : {
        "baseColorFactor" : [ 0.3, 0.3, 0.9, 1.0 ],
        "metallicFactor" : 0.1,
        "roughnessFactor" : 0.5
      }
    }
  ],
  "meshes" : [
    {
      "primitives" : [
        {
          "attributes" : {
            "POSITION" : 1,
            "NORMAL" : 2,
            "TANGENT" : 3,
            "COLOR_0" : 4,
            "TEXCOORD_0" : 5,
            "TEXCOORD_1" : 6,
            "TEXCOORD_2" : 7,
            "TEXCOORD_3" : 8
          },
          "indices" : 0,
          "material" : 0
        },
        {
          "attributes" : {
            "POSITION" : 10,
            "NORMAL" : 11,
            "TANGENT" : 12,
            "COLOR_0" : 13,
            "TEXCOORD_0" : 14,
            "TEXCOORD_1" : 15,
            "TEXCOORD_2" : 16,
            "TEXCOORD_3" : 17
          },
          "indices" : 9,
          "material" : 1
        },
        {
          "attributes" : {
            "POSITION" : 19,
            "NORMAL" : 20,
            "TANGENT" : 21,
            "COLOR_0" : 22,
            "TEXCOORD_0" : 23,
            "TEXCOORD_1" : 24,
            "TEXCOORD_2" : 25,
            "TEXCOORD_3" : 26
          },
          "indices" : 18,
          "material" : 2
        },
        {
          "attributes" : {
            "POSITION" : 28,
            "NORMAL" : 29,
            "TANGENT" : 30,
            "COLOR_0" : 31,
            "TEXCOORD_0" : 32,
            "TEXCOORD_1" : 33,
            "TEXCOORD_2" : 34,
            "TEXCOORD_3" : 35
          },
          "indices" : 27,
          "material" : 3
        }
      ],
      "name" : "SM_ENV_LKNVLD_Event_SL_KonohaMark_Lod1"
    }
  ],
  "buffers" : [
    {
      "uri" : "SM_ENV_LKNVLD_Event_SL_KonohaMark_Lod1.bin",
      "byteLength" : 255492
    }
  ],
  "bufferViews" : [
    {
      "buffer" : 0,
      "byteOffset" : 0,
      "byteLength" : 16344
    },
    {
      "buffer" : 0,
      "byteOffset" : 16344,
      "byteLength" : 28452
    },
    {
      "buffer" : 0,
      "byteOffset" : 44796,
      "byteLength" : 28452
    },
    {
      "buffer" : 0,
      "byteOffset" : 73248,
      "byteLength" : 37936
    },
    {
      "buffer" : 0,
      "byteOffset" : 111184,
      "byteLength" : 9484
    },
    {
      "buffer" : 0,
      "byteOffset" : 120668,
      "byteLength" : 18968
    },
    {
      "buffer" : 0,
      "byteOffset" : 139636,
      "byteLength" : 18968
    },
    {
      "buffer" : 0,
      "byteOffset" : 158604,
      "byteLength" : 18968
    },
    {
      "buffer" : 0,
      "byteOffset" : 177572,
      "byteLength" : 18968
    },
    {
      "buffer" : 0,
      "byteOffset" : 196540,
      "byteLength" : 3164
    },
    {
      "buffer" : 0,
      "byteOffset" : 199704,
      "byteLength" : 5940
    },
    {
      "buffer" : 0,
      "byteOffset" : 205644,
      "byteLength" : 5940
    },
    {
      "buffer" : 0,
      "byteOffset" : 211584,
      "byteLength" : 7920
    },
    {
      "buffer" : 0,
      "byteOffset" : 219504,
      "byteLength" : 1980
    },
    {
      "buffer" : 0,
      "byteOffset" : 221484,
      "byteLength" : 3960
    },
    {
      "buffer" : 0,
      "byteOffset" : 225444,
      "byteLength" : 3960
    },
    {
      "buffer" : 0,
      "byteOffset" : 229404,
      "byteLength" : 3960
    },
    {
      "buffer" : 0,
      "byteOffset" : 233364,
      "byteLength" : 3960
    },
    {
      "buffer" : 0,
      "byteOffset" : 237324,
      "byteLength" : 272
    },
    {
      "buffer" : 0,
      "byteOffset" : 237596,
      "byteLength" : 564
    },
    {
      "buffer" : 0,
      "byteOffset" : 238160,
      "byteLength" : 564
    },
    {
      "buffer" : 0,
      "byteOffset" : 238724,
      "byteLength" : 752
    },
    {
      "buffer" : 0,
      "byteOffset" : 239476,
      "byteLength" : 188
    },
    {
      "buffer" : 0,
      "byteOffset" : 239664,
      "byteLength" : 376
    },
    {
      "buffer" : 0,
      "byteOffset" : 240040,
      "byteLength" : 376
    },
    {
      "buffer" : 0,
      "byteOffset" : 240416,
      "byteLength" : 376
    },
    {
      "buffer" : 0,
      "byteOffset" : 240792,
      "byteLength" : 376
    },
    {
      "buffer" : 0,
      "byteOffset" : 241168,
      "byteLength" : 1176
    },
    {
      "buffer" : 0,
      "byteOffset" : 242344,
      "byteLength" : 2076
    },
    {
      "buffer" : 0,
      "byteOffset" : 244420,
      "byteLength" : 2076
    },
    {
      "buffer" : 0,
      "byteOffset" : 246496,
      "byteLength" : 2768
    },
    {
      "buffer" : 0,
      "byteOffset" : 249264,
      "byteLength" : 692
    },
    {
      "buffer" : 0,
      "byteOffset" : 249956,
      "byteLength" : 1384
    },
    {
      "buffer" : 0,
      "byteOffset" : 251340,
      "byteLength" : 1384
    },
    {
      "buffer" : 0,
      "byteOffset" : 252724,
      "byteLength" : 1384
    },
    {
      "buffer" : 0,
      "byteOffset" : 254108,
      "byteLength" : 1384
    }
  ],
  "accessors" : [
    {
      "bufferView" : 0,
      "componentType" : 5123,
      "count" : 8172,
      "type" : "SCALAR"
    },
    {
      "bufferView" : 1,
      "min" : [ -10.1348, -0.428895, -10.139 ],
      "max" : [ 10.1348, -0.19154, 10.139 ],
      "componentType" : 5126,
      "count" : 2371,
      "type" : "VEC3"
    },
    {
      "bufferView" : 2,
      "componentType" : 5126,
      "count" : 2371,
      "type" : "VEC3"
    },
    {
      "bufferView" : 3,
      "componentType" : 5126,
      "count" : 2371,
      "type" : "VEC4"
    },
    {
      "bufferView" : 4,
      "normalized" : true,
      "componentType" : 5121,
      "count" : 2371,
      "type" : "VEC4"
    },
    {
      "bufferView" : 5,
      "componentType" : 5126,
      "count" : 2371,
      "type" : "VEC2"
    },
    {
      "bufferView" : 6,
      "componentType" : 5126,
      "count" : 2371,
      "type" : "VEC2"
    },
    {
      "bufferView" : 7,
      "componentType" : 5126,
      "count" : 2371,
      "type" : "VEC2"
    },
    {
      "bufferView" : 8,
      "componentType" : 5126,
      "count" : 2371,
      "type" : "VEC2"
    },
    {
      "bufferView" : 9,
      "componentType" : 5123,
      "count" : 1581,
      "type" : "SCALAR"
    },
    {
      "bufferView" : 10,
      "min" : [ -6.85991, -0.387166, -5.77866 ],
      "max" : [ 6.86629, -0.253152, 5.78625 ],
      "componentType" : 5126,
      "count" : 495,
      "type" : "VEC3"
    },
    {
      "bufferView" : 11,
      "componentType" : 5126,
      "count" : 495,
      "type" : "VEC3"
    },
    {
      "bufferView" : 12,
      "componentType" : 5126,
      "count" : 495,
      "type" : "VEC4"
    },
    {
      "bufferView" : 13,
      "normalized" : true,
      "componentType" : 5121,
      "count" : 495,
      "type" : "VEC4"
    },
    {
      "bufferView" : 14,
      "componentType" : 5126,
      "count" : 495,
      "type" : "VEC2"
    },
    {
      "bufferView" : 15,
      "componentType" : 5126,
      "count" : 495,
      "type" : "VEC2"
    },
    {
      "bufferView" : 16,
      "componentType" : 5126,
      "count" : 495,
      "type" : "VEC2"
    },
    {
      "bufferView" : 17,
      "componentType" : 5126,
      "count" : 495,
      "type" : "VEC2"
    },
    {
      "bufferView" : 18,
      "componentType" : 5123,
      "count" : 135,
      "type" : "SCALAR"
    },
    {
      "bufferView" : 19,
      "min" : [ -9.73181, -0.263374, -9.7619 ],
      "max" : [ 9.7619, -0.263374, 9.73181 ],
      "componentType" : 5126,
      "count" : 47,
      "type" : "VEC3"
    },
    {
      "bufferView" : 20,
      "componentType" : 5126,
      "count" : 47,
      "type" : "VEC3"
    },
    {
      "bufferView" : 21,
      "componentType" : 5126,
      "count" : 47,
      "type" : "VEC4"
    },
    {
      "bufferView" : 22,
      "normalized" : true,
      "componentType" : 5121,
      "count" : 47,
      "type" : "VEC4"
    },
    {
      "bufferView" : 23,
      "componentType" : 5126,
      "count" : 47,
      "type" : "VEC2"
    },
    {
      "bufferView" : 24,
      "componentType" : 5126,
      "count" : 47,
      "type" : "VEC2"
    },
    {
      "bufferView" : 25,
      "componentType" : 5126,
      "count" : 47,
      "type" : "VEC2"
    },
    {
      "bufferView" : 26,
      "componentType" : 5126,
      "count" : 47,
      "type" : "VEC2"
    },
    {
      "bufferView" : 27,
      "componentType" : 5123,
      "count" : 588,
      "type" : "SCALAR"
    },
    {
      "bufferView" : 28,
      "min" : [ -10.4673, -0.408009, -10.4673 ],
      "max" : [ 10.4673, -0.36248, 10.4673 ],
      "componentType" : 5126,
      "count" : 173,
      "type" : "VEC3"
    },
    {
      "bufferView" : 29,
      "componentType" : 5126,
      "count" : 173,
      "type" : "VEC3"
    },
    {
      "bufferView" : 30,
      "componentType" : 5126,
      "count" : 173,
      "type" : "VEC4"
    },
    {
      "bufferView" : 31,
      "normalized" : true,
      "componentType" : 5121,
      "count" : 173,
      "type" : "VEC4"
    },
    {
      "bufferView" : 32,
      "componentType" : 5126,
      "count" : 173,
      "type" : "VEC2"
    },
    {
      "bufferView" : 33,
      "componentType" : 5126,
      "count" : 173,
      "type" : "VEC2"
    },
    {
      "bufferView" : 34,
      "componentType" : 5126,
      "count" : 173,
      "type" : "VEC2"
    },
    {
      "bufferView" : 35,
      "componentType" : 5126,
      "count" : 173,
      "type" : "VEC2"
    }
  ]
}
