{
  "asset" : {
    "generator" : "UE Viewer (umodel) build 1544 based",
    "version" : "2.0"
  },
  "scene" : 0,
  "scenes" : [
    {
      "nodes" : [ 0 ]
    }
  ],
  "nodes" : [
    {
      "name" : "SM_ENV_LKNVLD_StrawRope_F_Lod2",
      "mesh" : 0
    }
  ],
  "materials" : [
    {
      "name" : "MI_ENV_LKNVLD_StrawRope_F",
      "pbrMetallicRoughness" : {
        "baseColorFactor" : [ 0.3, 0.3, 0.3, 1.0 ],
        "metallicFactor" : 0.1,
        "roughnessFactor" : 0.5
      }
    }
  ],
  "meshes" : [
    {
      "primitives" : [
        {
          "attributes" : {
            "POSITION" : 1,
            "NORMAL" : 2,
            "TANGENT" : 3,
            "TEXCOORD_0" : 4,
            "TEXCOORD_1" : 5,
            "TEXCOORD_2" : 6,
            "TEXCOORD_3" : 7
          },
          "indices" : 0,
          "material" : 0
        }
      ],
      "name" : "SM_ENV_LKNVLD_StrawRope_F_Lod2"
    }
  ],
  "buffers" : [
    {
      "uri" : "SM_ENV_LKNVLD_StrawRope_F_Lod2.bin",
      "byteLength" : 84564
    }
  ],
  "bufferViews" : [
    {
      "buffer" : 0,
      "byteOffset" : 0,
      "byteLength" : 5796
    },
    {
      "buffer" : 0,
      "byteOffset" : 5796,
      "byteLength" : 13128
    },
    {
      "buffer" : 0,
      "byteOffset" : 18924,
      "byteLength" : 13128
    },
    {
      "buffer" : 0,
      "byteOffset" : 32052,
      "byteLength" : 17504
    },
    {
      "buffer" : 0,
      "byteOffset" : 49556,
      "byteLength" : 8752
    },
    {
      "buffer" : 0,
      "byteOffset" : 58308,
      "byteLength" : 8752
    },
    {
      "buffer" : 0,
      "byteOffset" : 67060,
      "byteLength" : 8752
    },
    {
      "buffer" : 0,
      "byteOffset" : 75812,
      "byteLength" : 8752
    }
  ],
  "accessors" : [
    {
      "bufferView" : 0,
      "componentType" : 5123,
      "count" : 2898,
      "type" : "SCALAR"
    },
    {
      "bufferView" : 1,
      "min" : [ -4.61107, -2.28963, -0.247761 ],
      "max" : [ 4.58728, 2.15505, 0.336727 ],
      "componentType" : 5126,
      "count" : 1094,
      "type" : "VEC3"
    },
    {
      "bufferView" : 2,
      "componentType" : 5126,
      "count" : 1094,
      "type" : "VEC3"
    },
    {
      "bufferView" : 3,
      "componentType" : 5126,
      "count" : 1094,
      "type" : "VEC4"
    },
    {
      "bufferView" : 4,
      "componentType" : 5126,
      "count" : 1094,
      "type" : "VEC2"
    },
    {
      "bufferView" : 5,
      "componentType" : 5126,
      "count" : 1094,
      "type" : "VEC2"
    },
    {
      "bufferView" : 6,
      "componentType" : 5126,
      "count" : 1094,
      "type" : "VEC2"
    },
    {
      "bufferView" : 7,
      "componentType" : 5126,
      "count" : 1094,
      "type" : "VEC2"
    }
  ]
}
