{
  "asset" : {
    "generator" : "UE Viewer (umodel) build 1544 based",
    "version" : "2.0"
  },
  "scene" : 0,
  "scenes" : [
    {
      "nodes" : [ 0 ]
    }
  ],
  "nodes" : [
    {
      "name" : "SM_ENV_LKNVLD_ShopFlag_A_Lod1",
      "mesh" : 0
    }
  ],
  "materials" : [
    {
      "name" : "MI_ENV_LKNVLD_Curtain_B",
      "pbrMetallicRoughness" : {
        "baseColorFactor" : [ 0.3, 0.3, 0.3, 1.0 ],
        "metallicFactor" : 0.1,
        "roughnessFactor" : 0.5
      }
    },
    {
      "name" : "MI_ENV_LKNVLD_MetalRoofDark",
      "pbrMetallicRoughness" : {
        "baseColorFactor" : [ 0.9, 0.3, 0.3, 1.0 ],
        "metallicFactor" : 0.1,
        "roughnessFactor" : 0.5
      }
    }
  ],
  "meshes" : [
    {
      "primitives" : [
        {
          "attributes" : {
            "POSITION" : 1,
            "NORMAL" : 2,
            "TANGENT" : 3,
            "COLOR_0" : 4,
            "TEXCOORD_0" : 5,
            "TEXCOORD_1" : 6,
            "TEXCOORD_2" : 7,
            "TEXCOORD_3" : 8
          },
          "indices" : 0,
          "material" : 0
        },
        {
          "attributes" : {
            "POSITION" : 10,
            "NORMAL" : 11,
            "TANGENT" : 12,
            "COLOR_0" : 13,
            "TEXCOORD_0" : 14,
            "TEXCOORD_1" : 15,
            "TEXCOORD_2" : 16,
            "TEXCOORD_3" : 17
          },
          "indices" : 9,
          "material" : 1
        }
      ],
      "name" : "SM_ENV_LKNVLD_ShopFlag_A_Lod1"
    }
  ],
  "buffers" : [
    {
      "uri" : "SM_ENV_LKNVLD_ShopFlag_A_Lod1.bin",
      "byteLength" : 97704
    }
  ],
  "bufferViews" : [
    {
      "buffer" : 0,
      "byteOffset" : 0,
      "byteLength" : 4008
    },
    {
      "buffer" : 0,
      "byteOffset" : 4008,
      "byteLength" : 7632
    },
    {
      "buffer" : 0,
      "byteOffset" : 11640,
      "byteLength" : 7632
    },
    {
      "buffer" : 0,
      "byteOffset" : 19272,
      "byteLength" : 10176
    },
    {
      "buffer" : 0,
      "byteOffset" : 29448,
      "byteLength" : 2544
    },
    {
      "buffer" : 0,
      "byteOffset" : 31992,
      "byteLength" : 5088
    },
    {
      "buffer" : 0,
      "byteOffset" : 37080,
      "byteLength" : 5088
    },
    {
      "buffer" : 0,
      "byteOffset" : 42168,
      "byteLength" : 5088
    },
    {
      "buffer" : 0,
      "byteOffset" : 47256,
      "byteLength" : 5088
    },
    {
      "buffer" : 0,
      "byteOffset" : 52344,
      "byteLength" : 3636
    },
    {
      "buffer" : 0,
      "byteOffset" : 55980,
      "byteLength" : 6588
    },
    {
      "buffer" : 0,
      "byteOffset" : 62568,
      "byteLength" : 6588
    },
    {
      "buffer" : 0,
      "byteOffset" : 69156,
      "byteLength" : 8784
    },
    {
      "buffer" : 0,
      "byteOffset" : 77940,
      "byteLength" : 2196
    },
    {
      "buffer" : 0,
      "byteOffset" : 80136,
      "byteLength" : 4392
    },
    {
      "buffer" : 0,
      "byteOffset" : 84528,
      "byteLength" : 4392
    },
    {
      "buffer" : 0,
      "byteOffset" : 88920,
      "byteLength" : 4392
    },
    {
      "buffer" : 0,
      "byteOffset" : 93312,
      "byteLength" : 4392
    }
  ],
  "accessors" : [
    {
      "bufferView" : 0,
      "componentType" : 5123,
      "count" : 2004,
      "type" : "SCALAR"
    },
    {
      "bufferView" : 1,
      "min" : [ -36.0198, 7.2949, 12.865 ],
      "max" : [ -19.845, 22.6073, 28.8987 ],
      "componentType" : 5126,
      "count" : 636,
      "type" : "VEC3"
    },
    {
      "bufferView" : 2,
      "componentType" : 5126,
      "count" : 636,
      "type" : "VEC3"
    },
    {
      "bufferView" : 3,
      "componentType" : 5126,
      "count" : 636,
      "type" : "VEC4"
    },
    {
      "bufferView" : 4,
      "normalized" : true,
      "componentType" : 5121,
      "count" : 636,
      "type" : "VEC4"
    },
    {
      "bufferView" : 5,
      "componentType" : 5126,
      "count" : 636,
      "type" : "VEC2"
    },
    {
      "bufferView" : 6,
      "componentType" : 5126,
      "count" : 636,
      "type" : "VEC2"
    },
    {
      "bufferView" : 7,
      "componentType" : 5126,
      "count" : 636,
      "type" : "VEC2"
    },
    {
      "bufferView" : 8,
      "componentType" : 5126,
      "count" : 636,
      "type" : "VEC2"
    },
    {
      "bufferView" : 9,
      "componentType" : 5123,
      "count" : 1818,
      "type" : "SCALAR"
    },
    {
      "bufferView" : 10,
      "min" : [ -36.6265, 5.89911, 11.3943 ],
      "max" : [ -18.3878, 22.6441, 29.4375 ],
      "componentType" : 5126,
      "count" : 549,
      "type" : "VEC3"
    },
    {
      "bufferView" : 11,
      "componentType" : 5126,
      "count" : 549,
      "type" : "VEC3"
    },
    {
      "bufferView" : 12,
      "componentType" : 5126,
      "count" : 549,
      "type" : "VEC4"
    },
    {
      "bufferView" : 13,
      "normalized" : true,
      "componentType" : 5121,
      "count" : 549,
      "type" : "VEC4"
    },
    {
      "bufferView" : 14,
      "componentType" : 5126,
      "count" : 549,
      "type" : "VEC2"
    },
    {
      "bufferView" : 15,
      "componentType" : 5126,
      "count" : 549,
      "type" : "VEC2"
    },
    {
      "bufferView" : 16,
      "componentType" : 5126,
      "count" : 549,
      "type" : "VEC2"
    },
    {
      "bufferView" : 17,
      "componentType" : 5126,
      "count" : 549,
      "type" : "VEC2"
    }
  ]
}
