{
  "asset" : {
    "generator" : "UE Viewer (umodel) build 1544 based",
    "version" : "2.0"
  },
  "scene" : 0,
  "scenes" : [
    {
      "nodes" : [ 0 ]
    }
  ],
  "nodes" : [
    {
      "name" : "SM_ENV_LKNVLD_TreeSet_I_Lod2",
      "mesh" : 0
    }
  ],
  "materials" : [
    {
      "name" : "MI_ENV_LKNVLD_Tree_A_Masked_CameraTrans",
      "pbrMetallicRoughness" : {
        "baseColorFactor" : [ 0.3, 0.3, 0.3, 1.0 ],
        "metallicFactor" : 0.1,
        "roughnessFactor" : 0.5
      }
    },
    {
      "name" : "MI_ENV_LKNVLD_LeafMasked_A",
      "pbrMetallicRoughness" : {
        "baseColorFactor" : [ 0.9, 0.3, 0.3, 1.0 ],
        "metallicFactor" : 0.1,
        "roughnessFactor" : 0.5
      }
    },
    {
      "name" : "MI_ENV_LKNVLD_Leaf_A",
      "pbrMetallicRoughness" : {
        "baseColorFactor" : [ 0.3, 0.9, 0.3, 1.0 ],
        "metallicFactor" : 0.1,
        "roughnessFactor" : 0.5
      }
    }
  ],
  "meshes" : [
    {
      "primitives" : [
        {
          "attributes" : {
            "POSITION" : 1,
            "NORMAL" : 2,
            "TANGENT" : 3,
            "COLOR_0" : 4,
            "TEXCOORD_0" : 5,
            "TEXCOORD_1" : 6,
            "TEXCOORD_2" : 7,
            "TEXCOORD_3" : 8
          },
          "indices" : 0,
          "material" : 0
        },
        {
          "attributes" : {
            "POSITION" : 10,
            "NORMAL" : 11,
            "TANGENT" : 12,
            "COLOR_0" : 13,
            "TEXCOORD_0" : 14,
            "TEXCOORD_1" : 15,
            "TEXCOORD_2" : 16,
            "TEXCOORD_3" : 17
          },
          "indices" : 9,
          "material" : 1
        },
        {
          "attributes" : {
            "POSITION" : 19,
            "NORMAL" : 20,
            "TANGENT" : 21,
            "COLOR_0" : 22,
            "TEXCOORD_0" : 23,
            "TEXCOORD_1" : 24,
            "TEXCOORD_2" : 25,
            "TEXCOORD_3" : 26
          },
          "indices" : 18,
          "material" : 2
        }
      ],
      "name" : "SM_ENV_LKNVLD_TreeSet_I_Lod2"
    }
  ],
  "buffers" : [
    {
      "uri" : "SM_ENV_LKNVLD_TreeSet_I_Lod2.bin",
      "byteLength" : 1864296
    }
  ],
  "bufferViews" : [
    {
      "buffer" : 0,
      "byteOffset" : 0,
      "byteLength" : 3252
    },
    {
      "buffer" : 0,
      "byteOffset" : 3252,
      "byteLength" : 15792
    },
    {
      "buffer" : 0,
      "byteOffset" : 19044,
      "byteLength" : 15792
    },
    {
      "buffer" : 0,
      "byteOffset" : 34836,
      "byteLength" : 21056
    },
    {
      "buffer" : 0,
      "byteOffset" : 55892,
      "byteLength" : 5264
    },
    {
      "buffer" : 0,
      "byteOffset" : 61156,
      "byteLength" : 10528
    },
    {
      "buffer" : 0,
      "byteOffset" : 71684,
      "byteLength" : 10528
    },
    {
      "buffer" : 0,
      "byteOffset" : 82212,
      "byteLength" : 10528
    },
    {
      "buffer" : 0,
      "byteOffset" : 92740,
      "byteLength" : 10528
    },
    {
      "buffer" : 0,
      "byteOffset" : 103268,
      "byteLength" : 65964
    },
    {
      "buffer" : 0,
      "byteOffset" : 169232,
      "byteLength" : 218724
    },
    {
      "buffer" : 0,
      "byteOffset" : 387956,
      "byteLength" : 218724
    },
    {
      "buffer" : 0,
      "byteOffset" : 606680,
      "byteLength" : 291632
    },
    {
      "buffer" : 0,
      "byteOffset" : 898312,
      "byteLength" : 72908
    },
    {
      "buffer" : 0,
      "byteOffset" : 971220,
      "byteLength" : 145816
    },
    {
      "buffer" : 0,
      "byteOffset" : 1117036,
      "byteLength" : 145816
    },
    {
      "buffer" : 0,
      "byteOffset" : 1262852,
      "byteLength" : 145816
    },
    {
      "buffer" : 0,
      "byteOffset" : 1408668,
      "byteLength" : 145816
    },
    {
      "buffer" : 0,
      "byteOffset" : 1554484,
      "byteLength" : 10220
    },
    {
      "buffer" : 0,
      "byteOffset" : 1564704,
      "byteLength" : 47304
    },
    {
      "buffer" : 0,
      "byteOffset" : 1612008,
      "byteLength" : 47304
    },
    {
      "buffer" : 0,
      "byteOffset" : 1659312,
      "byteLength" : 63072
    },
    {
      "buffer" : 0,
      "byteOffset" : 1722384,
      "byteLength" : 15768
    },
    {
      "buffer" : 0,
      "byteOffset" : 1738152,
      "byteLength" : 31536
    },
    {
      "buffer" : 0,
      "byteOffset" : 1769688,
      "byteLength" : 31536
    },
    {
      "buffer" : 0,
      "byteOffset" : 1801224,
      "byteLength" : 31536
    },
    {
      "buffer" : 0,
      "byteOffset" : 1832760,
      "byteLength" : 31536
    }
  ],
  "accessors" : [
    {
      "bufferView" : 0,
      "componentType" : 5123,
      "count" : 1626,
      "type" : "SCALAR"
    },
    {
      "bufferView" : 1,
      "min" : [ -39.9869, -0.590608, -65.7751 ],
      "max" : [ -26.6751, 9.62511, -44.12 ],
      "componentType" : 5126,
      "count" : 1316,
      "type" : "VEC3"
    },
    {
      "bufferView" : 2,
      "componentType" : 5126,
      "count" : 1316,
      "type" : "VEC3"
    },
    {
      "bufferView" : 3,
      "componentType" : 5126,
      "count" : 1316,
      "type" : "VEC4"
    },
    {
      "bufferView" : 4,
      "normalized" : true,
      "componentType" : 5121,
      "count" : 1316,
      "type" : "VEC4"
    },
    {
      "bufferView" : 5,
      "componentType" : 5126,
      "count" : 1316,
      "type" : "VEC2"
    },
    {
      "bufferView" : 6,
      "componentType" : 5126,
      "count" : 1316,
      "type" : "VEC2"
    },
    {
      "bufferView" : 7,
      "componentType" : 5126,
      "count" : 1316,
      "type" : "VEC2"
    },
    {
      "bufferView" : 8,
      "componentType" : 5126,
      "count" : 1316,
      "type" : "VEC2"
    },
    {
      "bufferView" : 9,
      "componentType" : 5123,
      "count" : 32982,
      "type" : "SCALAR"
    },
    {
      "bufferView" : 10,
      "min" : [ -41.6236, 3.56404, -67.7552 ],
      "max" : [ -24.8921, 13.2851, -41.7956 ],
      "componentType" : 5126,
      "count" : 18227,
      "type" : "VEC3"
    },
    {
      "bufferView" : 11,
      "componentType" : 5126,
      "count" : 18227,
      "type" : "VEC3"
    },
    {
      "bufferView" : 12,
      "componentType" : 5126,
      "count" : 18227,
      "type" : "VEC4"
    },
    {
      "bufferView" : 13,
      "normalized" : true,
      "componentType" : 5121,
      "count" : 18227,
      "type" : "VEC4"
    },
    {
      "bufferView" : 14,
      "componentType" : 5126,
      "count" : 18227,
      "type" : "VEC2"
    },
    {
      "bufferView" : 15,
      "componentType" : 5126,
      "count" : 18227,
      "type" : "VEC2"
    },
    {
      "bufferView" : 16,
      "componentType" : 5126,
      "count" : 18227,
      "type" : "VEC2"
    },
    {
      "bufferView" : 17,
      "componentType" : 5126,
      "count" : 18227,
      "type" : "VEC2"
    },
    {
      "bufferView" : 18,
      "componentType" : 5123,
      "count" : 5109,
      "type" : "SCALAR"
    },
    {
      "bufferView" : 19,
      "min" : [ -41.4509, 3.78466, -67.5613 ],
      "max" : [ -25.0745, 13.1264, -41.9738 ],
      "componentType" : 5126,
      "count" : 3942,
      "type" : "VEC3"
    },
    {
      "bufferView" : 20,
      "componentType" : 5126,
      "count" : 3942,
      "type" : "VEC3"
    },
    {
      "bufferView" : 21,
      "componentType" : 5126,
      "count" : 3942,
      "type" : "VEC4"
    },
    {
      "bufferView" : 22,
      "normalized" : true,
      "componentType" : 5121,
      "count" : 3942,
      "type" : "VEC4"
    },
    {
      "bufferView" : 23,
      "componentType" : 5126,
      "count" : 3942,
      "type" : "VEC2"
    },
    {
      "bufferView" : 24,
      "componentType" : 5126,
      "count" : 3942,
      "type" : "VEC2"
    },
    {
      "bufferView" : 25,
      "componentType" : 5126,
      "count" : 3942,
      "type" : "VEC2"
    },
    {
      "bufferView" : 26,
      "componentType" : 5126,
      "count" : 3942,
      "type" : "VEC2"
    }
  ]
}
