{
  "asset" : {
    "generator" : "UE Viewer (umodel) build 1544 based",
    "version" : "2.0"
  },
  "scene" : 0,
  "scenes" : [
    {
      "nodes" : [ 0 ]
    }
  ],
  "nodes" : [
    {
      "name" : "SM_ENV_LKNVLD_Tree_C",
      "mesh" : 0
    }
  ],
  "materials" : [
    {
      "name" : "MI_ENV_LKNVLD_Leaf_A",
      "pbrMetallicRoughness" : {
        "baseColorFactor" : [ 0.3, 0.3, 0.3, 1.0 ],
        "metallicFactor" : 0.1,
        "roughnessFactor" : 0.5
      }
    },
    {
      "name" : "MI_ENV_LKNVLD_Tree_A",
      "pbrMetallicRoughness" : {
        "baseColorFactor" : [ 0.9, 0.3, 0.3, 1.0 ],
        "metallicFactor" : 0.1,
        "roughnessFactor" : 0.5
      }
    }
  ],
  "meshes" : [
    {
      "primitives" : [
        {
          "attributes" : {
            "POSITION" : 1,
            "NORMAL" : 2,
            "TANGENT" : 3,
            "COLOR_0" : 4,
            "TEXCOORD_0" : 5,
            "TEXCOORD_1" : 6,
            "TEXCOORD_2" : 7,
            "TEXCOORD_3" : 8
          },
          "indices" : 0,
          "material" : 0
        },
        {
          "attributes" : {
            "POSITION" : 10,
            "NORMAL" : 11,
            "TANGENT" : 12,
            "COLOR_0" : 13,
            "TEXCOORD_0" : 14,
            "TEXCOORD_1" : 15,
            "TEXCOORD_2" : 16,
            "TEXCOORD_3" : 17
          },
          "indices" : 9,
          "material" : 1
        }
      ],
      "name" : "SM_ENV_LKNVLD_Tree_C"
    }
  ],
  "buffers" : [
    {
      "uri" : "SM_ENV_LKNVLD_Tree_C.bin",
      "byteLength" : 295668
    }
  ],
  "bufferViews" : [
    {
      "buffer" : 0,
      "byteOffset" : 0,
      "byteLength" : 10980
    },
    {
      "buffer" : 0,
      "byteOffset" : 10980,
      "byteLength" : 21660
    },
    {
      "buffer" : 0,
      "byteOffset" : 32640,
      "byteLength" : 21660
    },
    {
      "buffer" : 0,
      "byteOffset" : 54300,
      "byteLength" : 28880
    },
    {
      "buffer" : 0,
      "byteOffset" : 83180,
      "byteLength" : 7220
    },
    {
      "buffer" : 0,
      "byteOffset" : 90400,
      "byteLength" : 14440
    },
    {
      "buffer" : 0,
      "byteOffset" : 104840,
      "byteLength" : 14440
    },
    {
      "buffer" : 0,
      "byteOffset" : 119280,
      "byteLength" : 14440
    },
    {
      "buffer" : 0,
      "byteOffset" : 133720,
      "byteLength" : 14440
    },
    {
      "buffer" : 0,
      "byteOffset" : 148160,
      "byteLength" : 7136
    },
    {
      "buffer" : 0,
      "byteOffset" : 155296,
      "byteLength" : 22164
    },
    {
      "buffer" : 0,
      "byteOffset" : 177460,
      "byteLength" : 22164
    },
    {
      "buffer" : 0,
      "byteOffset" : 199624,
      "byteLength" : 29552
    },
    {
      "buffer" : 0,
      "byteOffset" : 229176,
      "byteLength" : 7388
    },
    {
      "buffer" : 0,
      "byteOffset" : 236564,
      "byteLength" : 14776
    },
    {
      "buffer" : 0,
      "byteOffset" : 251340,
      "byteLength" : 14776
    },
    {
      "buffer" : 0,
      "byteOffset" : 266116,
      "byteLength" : 14776
    },
    {
      "buffer" : 0,
      "byteOffset" : 280892,
      "byteLength" : 14776
    }
  ],
  "accessors" : [
    {
      "bufferView" : 0,
      "componentType" : 5123,
      "count" : 5490,
      "type" : "SCALAR"
    },
    {
      "bufferView" : 1,
      "min" : [ -4.8693, 5.48853, -5.0495 ],
      "max" : [ 4.86144, 13.4912, 4.84117 ],
      "componentType" : 5126,
      "count" : 1805,
      "type" : "VEC3"
    },
    {
      "bufferView" : 2,
      "componentType" : 5126,
      "count" : 1805,
      "type" : "VEC3"
    },
    {
      "bufferView" : 3,
      "componentType" : 5126,
      "count" : 1805,
      "type" : "VEC4"
    },
    {
      "bufferView" : 4,
      "normalized" : true,
      "componentType" : 5121,
      "count" : 1805,
      "type" : "VEC4"
    },
    {
      "bufferView" : 5,
      "componentType" : 5126,
      "count" : 1805,
      "type" : "VEC2"
    },
    {
      "bufferView" : 6,
      "componentType" : 5126,
      "count" : 1805,
      "type" : "VEC2"
    },
    {
      "bufferView" : 7,
      "componentType" : 5126,
      "count" : 1805,
      "type" : "VEC2"
    },
    {
      "bufferView" : 8,
      "componentType" : 5126,
      "count" : 1805,
      "type" : "VEC2"
    },
    {
      "bufferView" : 9,
      "componentType" : 5123,
      "count" : 3567,
      "type" : "SCALAR"
    },
    {
      "bufferView" : 10,
      "min" : [ -4.47623, -0.287134, -4.3208 ],
      "max" : [ 4.70135, 10.8858, 3.96069 ],
      "componentType" : 5126,
      "count" : 1847,
      "type" : "VEC3"
    },
    {
      "bufferView" : 11,
      "componentType" : 5126,
      "count" : 1847,
      "type" : "VEC3"
    },
    {
      "bufferView" : 12,
      "componentType" : 5126,
      "count" : 1847,
      "type" : "VEC4"
    },
    {
      "bufferView" : 13,
      "normalized" : true,
      "componentType" : 5121,
      "count" : 1847,
      "type" : "VEC4"
    },
    {
      "bufferView" : 14,
      "componentType" : 5126,
      "count" : 1847,
      "type" : "VEC2"
    },
    {
      "bufferView" : 15,
      "componentType" : 5126,
      "count" : 1847,
      "type" : "VEC2"
    },
    {
      "bufferView" : 16,
      "componentType" : 5126,
      "count" : 1847,
      "type" : "VEC2"
    },
    {
      "bufferView" : 17,
      "componentType" : 5126,
      "count" : 1847,
      "type" : "VEC2"
    }
  ]
}
