{
  "asset" : {
    "generator" : "UE Viewer (umodel) build 1544 based",
    "version" : "2.0"
  },
  "scene" : 0,
  "scenes" : [
    {
      "nodes" : [ 0 ]
    }
  ],
  "nodes" : [
    {
      "name" : "SM_ENV_LKNVLD_Stall_A",
      "mesh" : 0
    }
  ],
  "materials" : [
    {
      "name" : "MI_ENV_LKNVLD_Stall_A",
      "pbrMetallicRoughness" : {
        "baseColorFactor" : [ 0.3, 0.3, 0.3, 1.0 ],
        "metallicFactor" : 0.1,
        "roughnessFactor" : 0.5
      }
    },
    {
      "name" : "MI_ENV_LKNVLD_Roof_A",
      "pbrMetallicRoughness" : {
        "baseColorFactor" : [ 0.9, 0.3, 0.3, 1.0 ],
        "metallicFactor" : 0.1,
        "roughnessFactor" : 0.5
      }
    },
    {
      "name" : "MI_ENV_LKNVLD_Pipe_A_Trans",
      "pbrMetallicRoughness" : {
        "baseColorFactor" : [ 0.3, 0.9, 0.3, 1.0 ],
        "metallicFactor" : 0.1,
        "roughnessFactor" : 0.5
      }
    },
    {
      "name" : "MI_ENV_LKNVLD_WoodBoard_A",
      "pbrMetallicRoughness" : {
        "baseColorFactor" : [ 0.3, 0.3, 0.9, 1.0 ],
        "metallicFactor" : 0.1,
        "roughnessFactor" : 0.5
      }
    }
  ],
  "meshes" : [
    {
      "primitives" : [
        {
          "attributes" : {
            "POSITION" : 1,
            "NORMAL" : 2,
            "TANGENT" : 3,
            "COLOR_0" : 4,
            "TEXCOORD_0" : 5,
            "TEXCOORD_1" : 6,
            "TEXCOORD_2" : 7,
            "TEXCOORD_3" : 8
          },
          "indices" : 0,
          "material" : 0
        },
        {
          "attributes" : {
            "POSITION" : 10,
            "NORMAL" : 11,
            "TANGENT" : 12,
            "COLOR_0" : 13,
            "TEXCOORD_0" : 14,
            "TEXCOORD_1" : 15,
            "TEXCOORD_2" : 16,
            "TEXCOORD_3" : 17
          },
          "indices" : 9,
          "material" : 1
        },
        {
          "attributes" : {
            "POSITION" : 19,
            "NORMAL" : 20,
            "TANGENT" : 21,
            "COLOR_0" : 22,
            "TEXCOORD_0" : 23,
            "TEXCOORD_1" : 24,
            "TEXCOORD_2" : 25,
            "TEXCOORD_3" : 26
          },
          "indices" : 18,
          "material" : 2
        },
        {
          "attributes" : {
            "POSITION" : 28,
            "NORMAL" : 29,
            "TANGENT" : 30,
            "COLOR_0" : 31,
            "TEXCOORD_0" : 32,
            "TEXCOORD_1" : 33,
            "TEXCOORD_2" : 34,
            "TEXCOORD_3" : 35
          },
          "indices" : 27,
          "material" : 3
        }
      ],
      "name" : "SM_ENV_LKNVLD_Stall_A"
    }
  ],
  "buffers" : [
    {
      "uri" : "SM_ENV_LKNVLD_Stall_A.bin",
      "byteLength" : 662876
    }
  ],
  "bufferViews" : [
    {
      "buffer" : 0,
      "byteOffset" : 0,
      "byteLength" : 27948
    },
    {
      "buffer" : 0,
      "byteOffset" : 27948,
      "byteLength" : 49980
    },
    {
      "buffer" : 0,
      "byteOffset" : 77928,
      "byteLength" : 49980
    },
    {
      "buffer" : 0,
      "byteOffset" : 127908,
      "byteLength" : 66640
    },
    {
      "buffer" : 0,
      "byteOffset" : 194548,
      "byteLength" : 16660
    },
    {
      "buffer" : 0,
      "byteOffset" : 211208,
      "byteLength" : 33320
    },
    {
      "buffer" : 0,
      "byteOffset" : 244528,
      "byteLength" : 33320
    },
    {
      "buffer" : 0,
      "byteOffset" : 277848,
      "byteLength" : 33320
    },
    {
      "buffer" : 0,
      "byteOffset" : 311168,
      "byteLength" : 33320
    },
    {
      "buffer" : 0,
      "byteOffset" : 344488,
      "byteLength" : 528
    },
    {
      "buffer" : 0,
      "byteOffset" : 345016,
      "byteLength" : 2112
    },
    {
      "buffer" : 0,
      "byteOffset" : 347128,
      "byteLength" : 2112
    },
    {
      "buffer" : 0,
      "byteOffset" : 349240,
      "byteLength" : 2816
    },
    {
      "buffer" : 0,
      "byteOffset" : 352056,
      "byteLength" : 704
    },
    {
      "buffer" : 0,
      "byteOffset" : 352760,
      "byteLength" : 1408
    },
    {
      "buffer" : 0,
      "byteOffset" : 354168,
      "byteLength" : 1408
    },
    {
      "buffer" : 0,
      "byteOffset" : 355576,
      "byteLength" : 1408
    },
    {
      "buffer" : 0,
      "byteOffset" : 356984,
      "byteLength" : 1408
    },
    {
      "buffer" : 0,
      "byteOffset" : 358392,
      "byteLength" : 20688
    },
    {
      "buffer" : 0,
      "byteOffset" : 379080,
      "byteLength" : 32124
    },
    {
      "buffer" : 0,
      "byteOffset" : 411204,
      "byteLength" : 32124
    },
    {
      "buffer" : 0,
      "byteOffset" : 443328,
      "byteLength" : 42832
    },
    {
      "buffer" : 0,
      "byteOffset" : 486160,
      "byteLength" : 10708
    },
    {
      "buffer" : 0,
      "byteOffset" : 496868,
      "byteLength" : 21416
    },
    {
      "buffer" : 0,
      "byteOffset" : 518284,
      "byteLength" : 21416
    },
    {
      "buffer" : 0,
      "byteOffset" : 539700,
      "byteLength" : 21416
    },
    {
      "buffer" : 0,
      "byteOffset" : 561116,
      "byteLength" : 21416
    },
    {
      "buffer" : 0,
      "byteOffset" : 582532,
      "byteLength" : 3432
    },
    {
      "buffer" : 0,
      "byteOffset" : 585964,
      "byteLength" : 12144
    },
    {
      "buffer" : 0,
      "byteOffset" : 598108,
      "byteLength" : 12144
    },
    {
      "buffer" : 0,
      "byteOffset" : 610252,
      "byteLength" : 16192
    },
    {
      "buffer" : 0,
      "byteOffset" : 626444,
      "byteLength" : 4048
    },
    {
      "buffer" : 0,
      "byteOffset" : 630492,
      "byteLength" : 8096
    },
    {
      "buffer" : 0,
      "byteOffset" : 638588,
      "byteLength" : 8096
    },
    {
      "buffer" : 0,
      "byteOffset" : 646684,
      "byteLength" : 8096
    },
    {
      "buffer" : 0,
      "byteOffset" : 654780,
      "byteLength" : 8096
    }
  ],
  "accessors" : [
    {
      "bufferView" : 0,
      "componentType" : 5123,
      "count" : 13974,
      "type" : "SCALAR"
    },
    {
      "bufferView" : 1,
      "min" : [ -1.52712, 0.790291, -0.627973 ],
      "max" : [ 1.79405, 3.68293, 2.80165 ],
      "componentType" : 5126,
      "count" : 4165,
      "type" : "VEC3"
    },
    {
      "bufferView" : 2,
      "componentType" : 5126,
      "count" : 4165,
      "type" : "VEC3"
    },
    {
      "bufferView" : 3,
      "componentType" : 5126,
      "count" : 4165,
      "type" : "VEC4"
    },
    {
      "bufferView" : 4,
      "normalized" : true,
      "componentType" : 5121,
      "count" : 4165,
      "type" : "VEC4"
    },
    {
      "bufferView" : 5,
      "componentType" : 5126,
      "count" : 4165,
      "type" : "VEC2"
    },
    {
      "bufferView" : 6,
      "componentType" : 5126,
      "count" : 4165,
      "type" : "VEC2"
    },
    {
      "bufferView" : 7,
      "componentType" : 5126,
      "count" : 4165,
      "type" : "VEC2"
    },
    {
      "bufferView" : 8,
      "componentType" : 5126,
      "count" : 4165,
      "type" : "VEC2"
    },
    {
      "bufferView" : 9,
      "componentType" : 5123,
      "count" : 264,
      "type" : "SCALAR"
    },
    {
      "bufferView" : 10,
      "min" : [ -1.49051, 2.57128, -0.904631 ],
      "max" : [ 2.21935, 3.55416, 2.76786 ],
      "componentType" : 5126,
      "count" : 176,
      "type" : "VEC3"
    },
    {
      "bufferView" : 11,
      "componentType" : 5126,
      "count" : 176,
      "type" : "VEC3"
    },
    {
      "bufferView" : 12,
      "componentType" : 5126,
      "count" : 176,
      "type" : "VEC4"
    },
    {
      "bufferView" : 13,
      "normalized" : true,
      "componentType" : 5121,
      "count" : 176,
      "type" : "VEC4"
    },
    {
      "bufferView" : 14,
      "componentType" : 5126,
      "count" : 176,
      "type" : "VEC2"
    },
    {
      "bufferView" : 15,
      "componentType" : 5126,
      "count" : 176,
      "type" : "VEC2"
    },
    {
      "bufferView" : 16,
      "componentType" : 5126,
      "count" : 176,
      "type" : "VEC2"
    },
    {
      "bufferView" : 17,
      "componentType" : 5126,
      "count" : 176,
      "type" : "VEC2"
    },
    {
      "bufferView" : 18,
      "componentType" : 5123,
      "count" : 10344,
      "type" : "SCALAR"
    },
    {
      "bufferView" : 19,
      "min" : [ -1.61813, 1.03905, -0.721193 ],
      "max" : [ 1.7981, 3.5274, 1.80196 ],
      "componentType" : 5126,
      "count" : 2677,
      "type" : "VEC3"
    },
    {
      "bufferView" : 20,
      "componentType" : 5126,
      "count" : 2677,
      "type" : "VEC3"
    },
    {
      "bufferView" : 21,
      "componentType" : 5126,
      "count" : 2677,
      "type" : "VEC4"
    },
    {
      "bufferView" : 22,
      "normalized" : true,
      "componentType" : 5121,
      "count" : 2677,
      "type" : "VEC4"
    },
    {
      "bufferView" : 23,
      "componentType" : 5126,
      "count" : 2677,
      "type" : "VEC2"
    },
    {
      "bufferView" : 24,
      "componentType" : 5126,
      "count" : 2677,
      "type" : "VEC2"
    },
    {
      "bufferView" : 25,
      "componentType" : 5126,
      "count" : 2677,
      "type" : "VEC2"
    },
    {
      "bufferView" : 26,
      "componentType" : 5126,
      "count" : 2677,
      "type" : "VEC2"
    },
    {
      "bufferView" : 27,
      "componentType" : 5123,
      "count" : 1716,
      "type" : "SCALAR"
    },
    {
      "bufferView" : 28,
      "min" : [ -1.51816, 8e-08, -0.540816 ],
      "max" : [ 1.52981, 3.52012, 2.69526 ],
      "componentType" : 5126,
      "count" : 1012,
      "type" : "VEC3"
    },
    {
      "bufferView" : 29,
      "componentType" : 5126,
      "count" : 1012,
      "type" : "VEC3"
    },
    {
      "bufferView" : 30,
      "componentType" : 5126,
      "count" : 1012,
      "type" : "VEC4"
    },
    {
      "bufferView" : 31,
      "normalized" : true,
      "componentType" : 5121,
      "count" : 1012,
      "type" : "VEC4"
    },
    {
      "bufferView" : 32,
      "componentType" : 5126,
      "count" : 1012,
      "type" : "VEC2"
    },
    {
      "bufferView" : 33,
      "componentType" : 5126,
      "count" : 1012,
      "type" : "VEC2"
    },
    {
      "bufferView" : 34,
      "componentType" : 5126,
      "count" : 1012,
      "type" : "VEC2"
    },
    {
      "bufferView" : 35,
      "componentType" : 5126,
      "count" : 1012,
      "type" : "VEC2"
    }
  ]
}
