{
  "asset" : {
    "generator" : "UE Viewer (umodel) build 1544 based",
    "version" : "2.0"
  },
  "scene" : 0,
  "scenes" : [
    {
      "nodes" : [ 0 ]
    }
  ],
  "nodes" : [
    {
      "name" : "SM_ENV_LKNVLD_Tree_D_Lod2",
      "mesh" : 0
    }
  ],
  "materials" : [
    {
      "name" : "MI_ENV_LKNVLD_LeafMasked_A",
      "pbrMetallicRoughness" : {
        "baseColorFactor" : [ 0.3, 0.3, 0.3, 1.0 ],
        "metallicFactor" : 0.1,
        "roughnessFactor" : 0.5
      }
    },
    {
      "name" : "MI_ENV_LKNVLD_Leaf_A",
      "pbrMetallicRoughness" : {
        "baseColorFactor" : [ 0.9, 0.3, 0.3, 1.0 ],
        "metallicFactor" : 0.1,
        "roughnessFactor" : 0.5
      }
    },
    {
      "name" : "MI_ENV_LKNVLD_Tree_A",
      "pbrMetallicRoughness" : {
        "baseColorFactor" : [ 0.3, 0.9, 0.3, 1.0 ],
        "metallicFactor" : 0.1,
        "roughnessFactor" : 0.5
      }
    }
  ],
  "meshes" : [
    {
      "primitives" : [
        {
          "attributes" : {
            "POSITION" : 1,
            "NORMAL" : 2,
            "TANGENT" : 3,
            "COLOR_0" : 4,
            "TEXCOORD_0" : 5,
            "TEXCOORD_1" : 6,
            "TEXCOORD_2" : 7,
            "TEXCOORD_3" : 8
          },
          "indices" : 0,
          "material" : 0
        },
        {
          "attributes" : {
            "POSITION" : 10,
            "NORMAL" : 11,
            "TANGENT" : 12,
            "COLOR_0" : 13,
            "TEXCOORD_0" : 14,
            "TEXCOORD_1" : 15,
            "TEXCOORD_2" : 16,
            "TEXCOORD_3" : 17
          },
          "indices" : 9,
          "material" : 1
        },
        {
          "attributes" : {
            "POSITION" : 19,
            "NORMAL" : 20,
            "TANGENT" : 21,
            "COLOR_0" : 22,
            "TEXCOORD_0" : 23,
            "TEXCOORD_1" : 24,
            "TEXCOORD_2" : 25,
            "TEXCOORD_3" : 26
          },
          "indices" : 18,
          "material" : 2
        }
      ],
      "name" : "SM_ENV_LKNVLD_Tree_D_Lod2"
    }
  ],
  "buffers" : [
    {
      "uri" : "SM_ENV_LKNVLD_Tree_D_Lod2.bin",
      "byteLength" : 1001812
    }
  ],
  "bufferViews" : [
    {
      "buffer" : 0,
      "byteOffset" : 0,
      "byteLength" : 31560
    },
    {
      "buffer" : 0,
      "byteOffset" : 31560,
      "byteLength" : 117240
    },
    {
      "buffer" : 0,
      "byteOffset" : 148800,
      "byteLength" : 117240
    },
    {
      "buffer" : 0,
      "byteOffset" : 266040,
      "byteLength" : 156320
    },
    {
      "buffer" : 0,
      "byteOffset" : 422360,
      "byteLength" : 39080
    },
    {
      "buffer" : 0,
      "byteOffset" : 461440,
      "byteLength" : 78160
    },
    {
      "buffer" : 0,
      "byteOffset" : 539600,
      "byteLength" : 78160
    },
    {
      "buffer" : 0,
      "byteOffset" : 617760,
      "byteLength" : 78160
    },
    {
      "buffer" : 0,
      "byteOffset" : 695920,
      "byteLength" : 78160
    },
    {
      "buffer" : 0,
      "byteOffset" : 774080,
      "byteLength" : 8568
    },
    {
      "buffer" : 0,
      "byteOffset" : 782648,
      "byteLength" : 21252
    },
    {
      "buffer" : 0,
      "byteOffset" : 803900,
      "byteLength" : 21252
    },
    {
      "buffer" : 0,
      "byteOffset" : 825152,
      "byteLength" : 28336
    },
    {
      "buffer" : 0,
      "byteOffset" : 853488,
      "byteLength" : 7084
    },
    {
      "buffer" : 0,
      "byteOffset" : 860572,
      "byteLength" : 14168
    },
    {
      "buffer" : 0,
      "byteOffset" : 874740,
      "byteLength" : 14168
    },
    {
      "buffer" : 0,
      "byteOffset" : 888908,
      "byteLength" : 14168
    },
    {
      "buffer" : 0,
      "byteOffset" : 903076,
      "byteLength" : 14168
    },
    {
      "buffer" : 0,
      "byteOffset" : 917244,
      "byteLength" : 2792
    },
    {
      "buffer" : 0,
      "byteOffset" : 920036,
      "byteLength" : 12912
    },
    {
      "buffer" : 0,
      "byteOffset" : 932948,
      "byteLength" : 12912
    },
    {
      "buffer" : 0,
      "byteOffset" : 945860,
      "byteLength" : 17216
    },
    {
      "buffer" : 0,
      "byteOffset" : 963076,
      "byteLength" : 4304
    },
    {
      "buffer" : 0,
      "byteOffset" : 967380,
      "byteLength" : 8608
    },
    {
      "buffer" : 0,
      "byteOffset" : 975988,
      "byteLength" : 8608
    },
    {
      "buffer" : 0,
      "byteOffset" : 984596,
      "byteLength" : 8608
    },
    {
      "buffer" : 0,
      "byteOffset" : 993204,
      "byteLength" : 8608
    }
  ],
  "accessors" : [
    {
      "bufferView" : 0,
      "componentType" : 5123,
      "count" : 15780,
      "type" : "SCALAR"
    },
    {
      "bufferView" : 1,
      "min" : [ -5.68167, 5.34399, -8.20215 ],
      "max" : [ 6.31553, 14.8133, 6.05422 ],
      "componentType" : 5126,
      "count" : 9770,
      "type" : "VEC3"
    },
    {
      "bufferView" : 2,
      "componentType" : 5126,
      "count" : 9770,
      "type" : "VEC3"
    },
    {
      "bufferView" : 3,
      "componentType" : 5126,
      "count" : 9770,
      "type" : "VEC4"
    },
    {
      "bufferView" : 4,
      "normalized" : true,
      "componentType" : 5121,
      "count" : 9770,
      "type" : "VEC4"
    },
    {
      "bufferView" : 5,
      "componentType" : 5126,
      "count" : 9770,
      "type" : "VEC2"
    },
    {
      "bufferView" : 6,
      "componentType" : 5126,
      "count" : 9770,
      "type" : "VEC2"
    },
    {
      "bufferView" : 7,
      "componentType" : 5126,
      "count" : 9770,
      "type" : "VEC2"
    },
    {
      "bufferView" : 8,
      "componentType" : 5126,
      "count" : 9770,
      "type" : "VEC2"
    },
    {
      "bufferView" : 9,
      "componentType" : 5123,
      "count" : 4284,
      "type" : "SCALAR"
    },
    {
      "bufferView" : 10,
      "min" : [ -5.50791, 5.51723, -8.03216 ],
      "max" : [ 6.14664, 14.6555, 5.84418 ],
      "componentType" : 5126,
      "count" : 1771,
      "type" : "VEC3"
    },
    {
      "bufferView" : 11,
      "componentType" : 5126,
      "count" : 1771,
      "type" : "VEC3"
    },
    {
      "bufferView" : 12,
      "componentType" : 5126,
      "count" : 1771,
      "type" : "VEC4"
    },
    {
      "bufferView" : 13,
      "normalized" : true,
      "componentType" : 5121,
      "count" : 1771,
      "type" : "VEC4"
    },
    {
      "bufferView" : 14,
      "componentType" : 5126,
      "count" : 1771,
      "type" : "VEC2"
    },
    {
      "bufferView" : 15,
      "componentType" : 5126,
      "count" : 1771,
      "type" : "VEC2"
    },
    {
      "bufferView" : 16,
      "componentType" : 5126,
      "count" : 1771,
      "type" : "VEC2"
    },
    {
      "bufferView" : 17,
      "componentType" : 5126,
      "count" : 1771,
      "type" : "VEC2"
    },
    {
      "bufferView" : 18,
      "componentType" : 5123,
      "count" : 1395,
      "type" : "SCALAR"
    },
    {
      "bufferView" : 19,
      "min" : [ -3.02035, -0.026832, -4.93161 ],
      "max" : [ 3.84637, 12.0852, 4.35112 ],
      "componentType" : 5126,
      "count" : 1076,
      "type" : "VEC3"
    },
    {
      "bufferView" : 20,
      "componentType" : 5126,
      "count" : 1076,
      "type" : "VEC3"
    },
    {
      "bufferView" : 21,
      "componentType" : 5126,
      "count" : 1076,
      "type" : "VEC4"
    },
    {
      "bufferView" : 22,
      "normalized" : true,
      "componentType" : 5121,
      "count" : 1076,
      "type" : "VEC4"
    },
    {
      "bufferView" : 23,
      "componentType" : 5126,
      "count" : 1076,
      "type" : "VEC2"
    },
    {
      "bufferView" : 24,
      "componentType" : 5126,
      "count" : 1076,
      "type" : "VEC2"
    },
    {
      "bufferView" : 25,
      "componentType" : 5126,
      "count" : 1076,
      "type" : "VEC2"
    },
    {
      "bufferView" : 26,
      "componentType" : 5126,
      "count" : 1076,
      "type" : "VEC2"
    }
  ]
}
