{
  "asset" : {
    "generator" : "UE Viewer (umodel) build 1544 based",
    "version" : "2.0"
  },
  "scene" : 0,
  "scenes" : [
    {
      "nodes" : [ 0 ]
    }
  ],
  "nodes" : [
    {
      "name" : "SM_ENV_LKNVLD_TreeSet_K",
      "mesh" : 0
    }
  ],
  "materials" : [
    {
      "name" : "MI_ENV_LKNVLD_LeafMasked_A",
      "pbrMetallicRoughness" : {
        "baseColorFactor" : [ 0.3, 0.3, 0.3, 1.0 ],
        "metallicFactor" : 0.1,
        "roughnessFactor" : 0.5
      }
    },
    {
      "name" : "MI_ENV_LKNVLD_Leaf_A",
      "pbrMetallicRoughness" : {
        "baseColorFactor" : [ 0.9, 0.3, 0.3, 1.0 ],
        "metallicFactor" : 0.1,
        "roughnessFactor" : 0.5
      }
    },
    {
      "name" : "MI_ENV_LKNVLD_Tree_A",
      "pbrMetallicRoughness" : {
        "baseColorFactor" : [ 0.3, 0.9, 0.3, 1.0 ],
        "metallicFactor" : 0.1,
        "roughnessFactor" : 0.5
      }
    }
  ],
  "meshes" : [
    {
      "primitives" : [
        {
          "attributes" : {
            "POSITION" : 1,
            "NORMAL" : 2,
            "TANGENT" : 3,
            "COLOR_0" : 4,
            "TEXCOORD_0" : 5,
            "TEXCOORD_1" : 6,
            "TEXCOORD_2" : 7,
            "TEXCOORD_3" : 8
          },
          "indices" : 0,
          "material" : 0
        },
        {
          "attributes" : {
            "POSITION" : 10,
            "NORMAL" : 11,
            "TANGENT" : 12,
            "COLOR_0" : 13,
            "TEXCOORD_0" : 14,
            "TEXCOORD_1" : 15,
            "TEXCOORD_2" : 16,
            "TEXCOORD_3" : 17
          },
          "indices" : 9,
          "material" : 1
        },
        {
          "attributes" : {
            "POSITION" : 19,
            "NORMAL" : 20,
            "TANGENT" : 21,
            "COLOR_0" : 22,
            "TEXCOORD_0" : 23,
            "TEXCOORD_1" : 24,
            "TEXCOORD_2" : 25,
            "TEXCOORD_3" : 26
          },
          "indices" : 18,
          "material" : 2
        }
      ],
      "name" : "SM_ENV_LKNVLD_TreeSet_K"
    }
  ],
  "buffers" : [
    {
      "uri" : "SM_ENV_LKNVLD_TreeSet_K.bin",
      "byteLength" : 2168988
    }
  ],
  "bufferViews" : [
    {
      "buffer" : 0,
      "byteOffset" : 0,
      "byteLength" : 73032
    },
    {
      "buffer" : 0,
      "byteOffset" : 73032,
      "byteLength" : 194784
    },
    {
      "buffer" : 0,
      "byteOffset" : 267816,
      "byteLength" : 194784
    },
    {
      "buffer" : 0,
      "byteOffset" : 462600,
      "byteLength" : 259712
    },
    {
      "buffer" : 0,
      "byteOffset" : 722312,
      "byteLength" : 64928
    },
    {
      "buffer" : 0,
      "byteOffset" : 787240,
      "byteLength" : 129856
    },
    {
      "buffer" : 0,
      "byteOffset" : 917096,
      "byteLength" : 129856
    },
    {
      "buffer" : 0,
      "byteOffset" : 1046952,
      "byteLength" : 129856
    },
    {
      "buffer" : 0,
      "byteOffset" : 1176808,
      "byteLength" : 129856
    },
    {
      "buffer" : 0,
      "byteOffset" : 1306664,
      "byteLength" : 32360
    },
    {
      "buffer" : 0,
      "byteOffset" : 1339024,
      "byteLength" : 60540
    },
    {
      "buffer" : 0,
      "byteOffset" : 1399564,
      "byteLength" : 60540
    },
    {
      "buffer" : 0,
      "byteOffset" : 1460104,
      "byteLength" : 80720
    },
    {
      "buffer" : 0,
      "byteOffset" : 1540824,
      "byteLength" : 20180
    },
    {
      "buffer" : 0,
      "byteOffset" : 1561004,
      "byteLength" : 40360
    },
    {
      "buffer" : 0,
      "byteOffset" : 1601364,
      "byteLength" : 40360
    },
    {
      "buffer" : 0,
      "byteOffset" : 1641724,
      "byteLength" : 40360
    },
    {
      "buffer" : 0,
      "byteOffset" : 1682084,
      "byteLength" : 40360
    },
    {
      "buffer" : 0,
      "byteOffset" : 1722444,
      "byteLength" : 21324
    },
    {
      "buffer" : 0,
      "byteOffset" : 1743768,
      "byteLength" : 67140
    },
    {
      "buffer" : 0,
      "byteOffset" : 1810908,
      "byteLength" : 67140
    },
    {
      "buffer" : 0,
      "byteOffset" : 1878048,
      "byteLength" : 89520
    },
    {
      "buffer" : 0,
      "byteOffset" : 1967568,
      "byteLength" : 22380
    },
    {
      "buffer" : 0,
      "byteOffset" : 1989948,
      "byteLength" : 44760
    },
    {
      "buffer" : 0,
      "byteOffset" : 2034708,
      "byteLength" : 44760
    },
    {
      "buffer" : 0,
      "byteOffset" : 2079468,
      "byteLength" : 44760
    },
    {
      "buffer" : 0,
      "byteOffset" : 2124228,
      "byteLength" : 44760
    }
  ],
  "accessors" : [
    {
      "bufferView" : 0,
      "componentType" : 5123,
      "count" : 36516,
      "type" : "SCALAR"
    },
    {
      "bufferView" : 1,
      "min" : [ 43.8207, 5.13896, -33.8487 ],
      "max" : [ 65.8687, 16.6041, -13.2709 ],
      "componentType" : 5126,
      "count" : 16232,
      "type" : "VEC3"
    },
    {
      "bufferView" : 2,
      "componentType" : 5126,
      "count" : 16232,
      "type" : "VEC3"
    },
    {
      "bufferView" : 3,
      "componentType" : 5126,
      "count" : 16232,
      "type" : "VEC4"
    },
    {
      "bufferView" : 4,
      "normalized" : true,
      "componentType" : 5121,
      "count" : 16232,
      "type" : "VEC4"
    },
    {
      "bufferView" : 5,
      "componentType" : 5126,
      "count" : 16232,
      "type" : "VEC2"
    },
    {
      "bufferView" : 6,
      "componentType" : 5126,
      "count" : 16232,
      "type" : "VEC2"
    },
    {
      "bufferView" : 7,
      "componentType" : 5126,
      "count" : 16232,
      "type" : "VEC2"
    },
    {
      "bufferView" : 8,
      "componentType" : 5126,
      "count" : 16232,
      "type" : "VEC2"
    },
    {
      "bufferView" : 9,
      "componentType" : 5123,
      "count" : 16179,
      "type" : "SCALAR"
    },
    {
      "bufferView" : 10,
      "min" : [ 43.9677, 5.29531, -33.672 ],
      "max" : [ 65.7071, 16.4192, -13.4763 ],
      "componentType" : 5126,
      "count" : 5045,
      "type" : "VEC3"
    },
    {
      "bufferView" : 11,
      "componentType" : 5126,
      "count" : 5045,
      "type" : "VEC3"
    },
    {
      "bufferView" : 12,
      "componentType" : 5126,
      "count" : 5045,
      "type" : "VEC4"
    },
    {
      "bufferView" : 13,
      "normalized" : true,
      "componentType" : 5121,
      "count" : 5045,
      "type" : "VEC4"
    },
    {
      "bufferView" : 14,
      "componentType" : 5126,
      "count" : 5045,
      "type" : "VEC2"
    },
    {
      "bufferView" : 15,
      "componentType" : 5126,
      "count" : 5045,
      "type" : "VEC2"
    },
    {
      "bufferView" : 16,
      "componentType" : 5126,
      "count" : 5045,
      "type" : "VEC2"
    },
    {
      "bufferView" : 17,
      "componentType" : 5126,
      "count" : 5045,
      "type" : "VEC2"
    },
    {
      "bufferView" : 18,
      "componentType" : 5123,
      "count" : 10662,
      "type" : "SCALAR"
    },
    {
      "bufferView" : 19,
      "min" : [ 44.8659, -0.598622, -32.5048 ],
      "max" : [ 65.016, 13.2013, -13.9652 ],
      "componentType" : 5126,
      "count" : 5595,
      "type" : "VEC3"
    },
    {
      "bufferView" : 20,
      "componentType" : 5126,
      "count" : 5595,
      "type" : "VEC3"
    },
    {
      "bufferView" : 21,
      "componentType" : 5126,
      "count" : 5595,
      "type" : "VEC4"
    },
    {
      "bufferView" : 22,
      "normalized" : true,
      "componentType" : 5121,
      "count" : 5595,
      "type" : "VEC4"
    },
    {
      "bufferView" : 23,
      "componentType" : 5126,
      "count" : 5595,
      "type" : "VEC2"
    },
    {
      "bufferView" : 24,
      "componentType" : 5126,
      "count" : 5595,
      "type" : "VEC2"
    },
    {
      "bufferView" : 25,
      "componentType" : 5126,
      "count" : 5595,
      "type" : "VEC2"
    },
    {
      "bufferView" : 26,
      "componentType" : 5126,
      "count" : 5595,
      "type" : "VEC2"
    }
  ]
}
