{
  "asset" : {
    "generator" : "UE Viewer (umodel) build 1544 based",
    "version" : "2.0"
  },
  "scene" : 0,
  "scenes" : [
    {
      "nodes" : [ 0 ]
    }
  ],
  "nodes" : [
    {
      "name" : "SM_ENV_LKNVLD_WallSet_Bend_Lod3",
      "mesh" : 0
    }
  ],
  "materials" : [
    {
      "name" : "MI_ENV_LKNVLD_WoodPlain_Red_LOD",
      "pbrMetallicRoughness" : {
        "baseColorFactor" : [ 0.3, 0.3, 0.3, 1.0 ],
        "metallicFactor" : 0.1,
        "roughnessFactor" : 0.5
      }
    },
    {
      "name" : "MI_ENV_LKNVLD_WoodWallSet_LOD",
      "pbrMetallicRoughness" : {
        "baseColorFactor" : [ 0.9, 0.3, 0.3, 1.0 ],
        "metallicFactor" : 0.1,
        "roughnessFactor" : 0.5
      }
    },
    {
      "name" : "MI_ENV_LKNVLD_Signboard_A",
      "pbrMetallicRoughness" : {
        "baseColorFactor" : [ 0.3, 0.9, 0.3, 1.0 ],
        "metallicFactor" : 0.1,
        "roughnessFactor" : 0.5
      }
    },
    {
      "name" : "MI_ENV_LKNVLD_Eaves_B_LOD",
      "pbrMetallicRoughness" : {
        "baseColorFactor" : [ 0.3, 0.3, 0.9, 1.0 ],
        "metallicFactor" : 0.1,
        "roughnessFactor" : 0.5
      }
    },
    {
      "name" : "MI_ENV_LKNVLD_StoneTrim_Ground_LOD",
      "pbrMetallicRoughness" : {
        "baseColorFactor" : [ 0.9, 0.9, 0.9, 1.0 ],
        "metallicFactor" : 0.1,
        "roughnessFactor" : 0.5
      }
    },
    {
      "name" : "MI_ENV_LKNVLD_WoodBoard_Natural_Lighter_LOD",
      "pbrMetallicRoughness" : {
        "baseColorFactor" : [ 0.9, 0.9, 0.3, 1.0 ],
        "metallicFactor" : 0.1,
        "roughnessFactor" : 0.5
      }
    },
    {
      "name" : "MI_ENV_LKNVLD_WoodWallSet_Red_LOD",
      "pbrMetallicRoughness" : {
        "baseColorFactor" : [ 0.9, 0.3, 0.9, 1.0 ],
        "metallicFactor" : 0.1,
        "roughnessFactor" : 0.5
      }
    }
  ],
  "meshes" : [
    {
      "primitives" : [
        {
          "attributes" : {
            "POSITION" : 1,
            "NORMAL" : 2,
            "TANGENT" : 3,
            "TEXCOORD_0" : 4,
            "TEXCOORD_1" : 5,
            "TEXCOORD_2" : 6,
            "TEXCOORD_3" : 7
          },
          "indices" : 0,
          "material" : 0
        },
        {
          "attributes" : {
            "POSITION" : 9,
            "NORMAL" : 10,
            "TANGENT" : 11,
            "TEXCOORD_0" : 12,
            "TEXCOORD_1" : 13,
            "TEXCOORD_2" : 14,
            "TEXCOORD_3" : 15
          },
          "indices" : 8,
          "material" : 1
        },
        {
          "attributes" : {
            "POSITION" : 17,
            "NORMAL" : 18,
            "TANGENT" : 19,
            "TEXCOORD_0" : 20,
            "TEXCOORD_1" : 21,
            "TEXCOORD_2" : 22,
            "TEXCOORD_3" : 23
          },
          "indices" : 16,
          "material" : 2
        },
        {
          "attributes" : {
            "POSITION" : 25,
            "NORMAL" : 26,
            "TANGENT" : 27,
            "TEXCOORD_0" : 28,
            "TEXCOORD_1" : 29,
            "TEXCOORD_2" : 30,
            "TEXCOORD_3" : 31
          },
          "indices" : 24,
          "material" : 3
        },
        {
          "attributes" : {
            "POSITION" : 33,
            "NORMAL" : 34,
            "TANGENT" : 35,
            "TEXCOORD_0" : 36,
            "TEXCOORD_1" : 37,
            "TEXCOORD_2" : 38,
            "TEXCOORD_3" : 39
          },
          "indices" : 32,
          "material" : 4
        },
        {
          "attributes" : {
            "POSITION" : 41,
            "NORMAL" : 42,
            "TANGENT" : 43,
            "TEXCOORD_0" : 44,
            "TEXCOORD_1" : 45,
            "TEXCOORD_2" : 46,
            "TEXCOORD_3" : 47
          },
          "indices" : 40,
          "material" : 5
        },
        {
          "attributes" : {
            "POSITION" : 49,
            "NORMAL" : 50,
            "TANGENT" : 51,
            "TEXCOORD_0" : 52,
            "TEXCOORD_1" : 53,
            "TEXCOORD_2" : 54,
            "TEXCOORD_3" : 55
          },
          "indices" : 48,
          "material" : 6
        }
      ],
      "name" : "SM_ENV_LKNVLD_WallSet_Bend_Lod3"
    }
  ],
  "buffers" : [
    {
      "uri" : "SM_ENV_LKNVLD_WallSet_Bend_Lod3.bin",
      "byteLength" : 547676
    }
  ],
  "bufferViews" : [
    {
      "buffer" : 0,
      "byteOffset" : 0,
      "byteLength" : 14300
    },
    {
      "buffer" : 0,
      "byteOffset" : 14300,
      "byteLength" : 55044
    },
    {
      "buffer" : 0,
      "byteOffset" : 69344,
      "byteLength" : 55044
    },
    {
      "buffer" : 0,
      "byteOffset" : 124388,
      "byteLength" : 73392
    },
    {
      "buffer" : 0,
      "byteOffset" : 197780,
      "byteLength" : 36696
    },
    {
      "buffer" : 0,
      "byteOffset" : 234476,
      "byteLength" : 36696
    },
    {
      "buffer" : 0,
      "byteOffset" : 271172,
      "byteLength" : 36696
    },
    {
      "buffer" : 0,
      "byteOffset" : 307868,
      "byteLength" : 36696
    },
    {
      "buffer" : 0,
      "byteOffset" : 344564,
      "byteLength" : 3596
    },
    {
      "buffer" : 0,
      "byteOffset" : 348160,
      "byteLength" : 12684
    },
    {
      "buffer" : 0,
      "byteOffset" : 360844,
      "byteLength" : 12684
    },
    {
      "buffer" : 0,
      "byteOffset" : 373528,
      "byteLength" : 16912
    },
    {
      "buffer" : 0,
      "byteOffset" : 390440,
      "byteLength" : 8456
    },
    {
      "buffer" : 0,
      "byteOffset" : 398896,
      "byteLength" : 8456
    },
    {
      "buffer" : 0,
      "byteOffset" : 407352,
      "byteLength" : 8456
    },
    {
      "buffer" : 0,
      "byteOffset" : 415808,
      "byteLength" : 8456
    },
    {
      "buffer" : 0,
      "byteOffset" : 424264,
      "byteLength" : 2972
    },
    {
      "buffer" : 0,
      "byteOffset" : 427236,
      "byteLength" : 10416
    },
    {
      "buffer" : 0,
      "byteOffset" : 437652,
      "byteLength" : 10416
    },
    {
      "buffer" : 0,
      "byteOffset" : 448068,
      "byteLength" : 13888
    },
    {
      "buffer" : 0,
      "byteOffset" : 461956,
      "byteLength" : 6944
    },
    {
      "buffer" : 0,
      "byteOffset" : 468900,
      "byteLength" : 6944
    },
    {
      "buffer" : 0,
      "byteOffset" : 475844,
      "byteLength" : 6944
    },
    {
      "buffer" : 0,
      "byteOffset" : 482788,
      "byteLength" : 6944
    },
    {
      "buffer" : 0,
      "byteOffset" : 489732,
      "byteLength" : 1428
    },
    {
      "buffer" : 0,
      "byteOffset" : 491160,
      "byteLength" : 4968
    },
    {
      "buffer" : 0,
      "byteOffset" : 496128,
      "byteLength" : 4968
    },
    {
      "buffer" : 0,
      "byteOffset" : 501096,
      "byteLength" : 6624
    },
    {
      "buffer" : 0,
      "byteOffset" : 507720,
      "byteLength" : 3312
    },
    {
      "buffer" : 0,
      "byteOffset" : 511032,
      "byteLength" : 3312
    },
    {
      "buffer" : 0,
      "byteOffset" : 514344,
      "byteLength" : 3312
    },
    {
      "buffer" : 0,
      "byteOffset" : 517656,
      "byteLength" : 3312
    },
    {
      "buffer" : 0,
      "byteOffset" : 520968,
      "byteLength" : 888
    },
    {
      "buffer" : 0,
      "byteOffset" : 521856,
      "byteLength" : 2496
    },
    {
      "buffer" : 0,
      "byteOffset" : 524352,
      "byteLength" : 2496
    },
    {
      "buffer" : 0,
      "byteOffset" : 526848,
      "byteLength" : 3328
    },
    {
      "buffer" : 0,
      "byteOffset" : 530176,
      "byteLength" : 1664
    },
    {
      "buffer" : 0,
      "byteOffset" : 531840,
      "byteLength" : 1664
    },
    {
      "buffer" : 0,
      "byteOffset" : 533504,
      "byteLength" : 1664
    },
    {
      "buffer" : 0,
      "byteOffset" : 535168,
      "byteLength" : 1664
    },
    {
      "buffer" : 0,
      "byteOffset" : 536832,
      "byteLength" : 60
    },
    {
      "buffer" : 0,
      "byteOffset" : 536892,
      "byteLength" : 216
    },
    {
      "buffer" : 0,
      "byteOffset" : 537108,
      "byteLength" : 216
    },
    {
      "buffer" : 0,
      "byteOffset" : 537324,
      "byteLength" : 288
    },
    {
      "buffer" : 0,
      "byteOffset" : 537612,
      "byteLength" : 144
    },
    {
      "buffer" : 0,
      "byteOffset" : 537756,
      "byteLength" : 144
    },
    {
      "buffer" : 0,
      "byteOffset" : 537900,
      "byteLength" : 144
    },
    {
      "buffer" : 0,
      "byteOffset" : 538044,
      "byteLength" : 144
    },
    {
      "buffer" : 0,
      "byteOffset" : 538188,
      "byteLength" : 632
    },
    {
      "buffer" : 0,
      "byteOffset" : 538820,
      "byteLength" : 1476
    },
    {
      "buffer" : 0,
      "byteOffset" : 540296,
      "byteLength" : 1476
    },
    {
      "buffer" : 0,
      "byteOffset" : 541772,
      "byteLength" : 1968
    },
    {
      "buffer" : 0,
      "byteOffset" : 543740,
      "byteLength" : 984
    },
    {
      "buffer" : 0,
      "byteOffset" : 544724,
      "byteLength" : 984
    },
    {
      "buffer" : 0,
      "byteOffset" : 545708,
      "byteLength" : 984
    },
    {
      "buffer" : 0,
      "byteOffset" : 546692,
      "byteLength" : 984
    }
  ],
  "accessors" : [
    {
      "bufferView" : 0,
      "componentType" : 5123,
      "count" : 7149,
      "type" : "SCALAR"
    },
    {
      "bufferView" : 1,
      "min" : [ 33.4868, 0.7, -50.6174 ],
      "max" : [ 67.4188, 7.6, -13.0337 ],
      "componentType" : 5126,
      "count" : 4587,
      "type" : "VEC3"
    },
    {
      "bufferView" : 2,
      "componentType" : 5126,
      "count" : 4587,
      "type" : "VEC3"
    },
    {
      "bufferView" : 3,
      "componentType" : 5126,
      "count" : 4587,
      "type" : "VEC4"
    },
    {
      "bufferView" : 4,
      "componentType" : 5126,
      "count" : 4587,
      "type" : "VEC2"
    },
    {
      "bufferView" : 5,
      "componentType" : 5126,
      "count" : 4587,
      "type" : "VEC2"
    },
    {
      "bufferView" : 6,
      "componentType" : 5126,
      "count" : 4587,
      "type" : "VEC2"
    },
    {
      "bufferView" : 7,
      "componentType" : 5126,
      "count" : 4587,
      "type" : "VEC2"
    },
    {
      "bufferView" : 8,
      "componentType" : 5123,
      "count" : 1797,
      "type" : "SCALAR"
    },
    {
      "bufferView" : 9,
      "min" : [ 34.1112, 0.282652, -50.6122 ],
      "max" : [ 66.5552, 6.2, -13.2257 ],
      "componentType" : 5126,
      "count" : 1057,
      "type" : "VEC3"
    },
    {
      "bufferView" : 10,
      "componentType" : 5126,
      "count" : 1057,
      "type" : "VEC3"
    },
    {
      "bufferView" : 11,
      "componentType" : 5126,
      "count" : 1057,
      "type" : "VEC4"
    },
    {
      "bufferView" : 12,
      "componentType" : 5126,
      "count" : 1057,
      "type" : "VEC2"
    },
    {
      "bufferView" : 13,
      "componentType" : 5126,
      "count" : 1057,
      "type" : "VEC2"
    },
    {
      "bufferView" : 14,
      "componentType" : 5126,
      "count" : 1057,
      "type" : "VEC2"
    },
    {
      "bufferView" : 15,
      "componentType" : 5126,
      "count" : 1057,
      "type" : "VEC2"
    },
    {
      "bufferView" : 16,
      "componentType" : 5123,
      "count" : 1485,
      "type" : "SCALAR"
    },
    {
      "bufferView" : 17,
      "min" : [ 35.6685, 4.8, -50.6158 ],
      "max" : [ 67.4188, 8.12, -15.6186 ],
      "componentType" : 5126,
      "count" : 868,
      "type" : "VEC3"
    },
    {
      "bufferView" : 18,
      "componentType" : 5126,
      "count" : 868,
      "type" : "VEC3"
    },
    {
      "bufferView" : 19,
      "componentType" : 5126,
      "count" : 868,
      "type" : "VEC4"
    },
    {
      "bufferView" : 20,
      "componentType" : 5126,
      "count" : 868,
      "type" : "VEC2"
    },
    {
      "bufferView" : 21,
      "componentType" : 5126,
      "count" : 868,
      "type" : "VEC2"
    },
    {
      "bufferView" : 22,
      "componentType" : 5126,
      "count" : 868,
      "type" : "VEC2"
    },
    {
      "bufferView" : 23,
      "componentType" : 5126,
      "count" : 868,
      "type" : "VEC2"
    },
    {
      "bufferView" : 24,
      "componentType" : 5123,
      "count" : 714,
      "type" : "SCALAR"
    },
    {
      "bufferView" : 25,
      "min" : [ 35.6685, 5.07002, -50.1639 ],
      "max" : [ 67.4188, 5.6, -15.6186 ],
      "componentType" : 5126,
      "count" : 414,
      "type" : "VEC3"
    },
    {
      "bufferView" : 26,
      "componentType" : 5126,
      "count" : 414,
      "type" : "VEC3"
    },
    {
      "bufferView" : 27,
      "componentType" : 5126,
      "count" : 414,
      "type" : "VEC4"
    },
    {
      "bufferView" : 28,
      "componentType" : 5126,
      "count" : 414,
      "type" : "VEC2"
    },
    {
      "bufferView" : 29,
      "componentType" : 5126,
      "count" : 414,
      "type" : "VEC2"
    },
    {
      "bufferView" : 30,
      "componentType" : 5126,
      "count" : 414,
      "type" : "VEC2"
    },
    {
      "bufferView" : 31,
      "componentType" : 5126,
      "count" : 414,
      "type" : "VEC2"
    },
    {
      "bufferView" : 32,
      "componentType" : 5123,
      "count" : 444,
      "type" : "SCALAR"
    },
    {
      "bufferView" : 33,
      "min" : [ 34.0477, -0.252936, -50.6122 ],
      "max" : [ 66.6327, 0.300003, -13.3568 ],
      "componentType" : 5126,
      "count" : 208,
      "type" : "VEC3"
    },
    {
      "bufferView" : 34,
      "componentType" : 5126,
      "count" : 208,
      "type" : "VEC3"
    },
    {
      "bufferView" : 35,
      "componentType" : 5126,
      "count" : 208,
      "type" : "VEC4"
    },
    {
      "bufferView" : 36,
      "componentType" : 5126,
      "count" : 208,
      "type" : "VEC2"
    },
    {
      "bufferView" : 37,
      "componentType" : 5126,
      "count" : 208,
      "type" : "VEC2"
    },
    {
      "bufferView" : 38,
      "componentType" : 5126,
      "count" : 208,
      "type" : "VEC2"
    },
    {
      "bufferView" : 39,
      "componentType" : 5126,
      "count" : 208,
      "type" : "VEC2"
    },
    {
      "bufferView" : 40,
      "componentType" : 5123,
      "count" : 30,
      "type" : "SCALAR"
    },
    {
      "bufferView" : 41,
      "min" : [ 33.9818, 4.06725, -50.4029 ],
      "max" : [ 66.0863, 6.00125, -13.0387 ],
      "componentType" : 5126,
      "count" : 18,
      "type" : "VEC3"
    },
    {
      "bufferView" : 42,
      "componentType" : 5126,
      "count" : 18,
      "type" : "VEC3"
    },
    {
      "bufferView" : 43,
      "componentType" : 5126,
      "count" : 18,
      "type" : "VEC4"
    },
    {
      "bufferView" : 44,
      "componentType" : 5126,
      "count" : 18,
      "type" : "VEC2"
    },
    {
      "bufferView" : 45,
      "componentType" : 5126,
      "count" : 18,
      "type" : "VEC2"
    },
    {
      "bufferView" : 46,
      "componentType" : 5126,
      "count" : 18,
      "type" : "VEC2"
    },
    {
      "bufferView" : 47,
      "componentType" : 5126,
      "count" : 18,
      "type" : "VEC2"
    },
    {
      "bufferView" : 48,
      "componentType" : 5123,
      "count" : 315,
      "type" : "SCALAR"
    },
    {
      "bufferView" : 49,
      "min" : [ 47.904, 0.800001, -50.532 ],
      "max" : [ 66.5552, 1.6, -23.8371 ],
      "componentType" : 5126,
      "count" : 123,
      "type" : "VEC3"
    },
    {
      "bufferView" : 50,
      "componentType" : 5126,
      "count" : 123,
      "type" : "VEC3"
    },
    {
      "bufferView" : 51,
      "componentType" : 5126,
      "count" : 123,
      "type" : "VEC4"
    },
    {
      "bufferView" : 52,
      "componentType" : 5126,
      "count" : 123,
      "type" : "VEC2"
    },
    {
      "bufferView" : 53,
      "componentType" : 5126,
      "count" : 123,
      "type" : "VEC2"
    },
    {
      "bufferView" : 54,
      "componentType" : 5126,
      "count" : 123,
      "type" : "VEC2"
    },
    {
      "bufferView" : 55,
      "componentType" : 5126,
      "count" : 123,
      "type" : "VEC2"
    }
  ]
}
