{
  "asset" : {
    "generator" : "UE Viewer (umodel) build 1544 based",
    "version" : "2.0"
  },
  "scene" : 0,
  "scenes" : [
    {
      "nodes" : [ 0 ]
    }
  ],
  "nodes" : [
    {
      "name" : "SM_ENV_LKNVLD_Kurama_Statue_Daiza",
      "mesh" : 0
    }
  ],
  "materials" : [
    {
      "name" : "MI_ENV_LKNVLD_Daiza_Top",
      "pbrMetallicRoughness" : {
        "baseColorFactor" : [ 0.3, 0.3, 0.3, 1.0 ],
        "metallicFactor" : 0.1,
        "roughnessFactor" : 0.5
      }
    },
    {
      "name" : "MI_ENV_LKNVLD_Daiza_Side",
      "pbrMetallicRoughness" : {
        "baseColorFactor" : [ 0.9, 0.3, 0.3, 1.0 ],
        "metallicFactor" : 0.1,
        "roughnessFactor" : 0.5
      }
    }
  ],
  "meshes" : [
    {
      "primitives" : [
        {
          "attributes" : {
            "POSITION" : 1,
            "NORMAL" : 2,
            "TANGENT" : 3,
            "TEXCOORD_0" : 4,
            "TEXCOORD_1" : 5,
            "TEXCOORD_2" : 6,
            "TEXCOORD_3" : 7
          },
          "indices" : 0,
          "material" : 0
        },
        {
          "attributes" : {
            "POSITION" : 9,
            "NORMAL" : 10,
            "TANGENT" : 11,
            "TEXCOORD_0" : 12,
            "TEXCOORD_1" : 13,
            "TEXCOORD_2" : 14,
            "TEXCOORD_3" : 15
          },
          "indices" : 8,
          "material" : 1
        }
      ],
      "name" : "SM_ENV_LKNVLD_Kurama_Statue_Daiza"
    }
  ],
  "buffers" : [
    {
      "uri" : "SM_ENV_LKNVLD_Kurama_Statue_Daiza.bin",
      "byteLength" : 92184
    }
  ],
  "bufferViews" : [
    {
      "buffer" : 0,
      "byteOffset" : 0,
      "byteLength" : 3156
    },
    {
      "buffer" : 0,
      "byteOffset" : 3156,
      "byteLength" : 13320
    },
    {
      "buffer" : 0,
      "byteOffset" : 16476,
      "byteLength" : 13320
    },
    {
      "buffer" : 0,
      "byteOffset" : 29796,
      "byteLength" : 17760
    },
    {
      "buffer" : 0,
      "byteOffset" : 47556,
      "byteLength" : 8880
    },
    {
      "buffer" : 0,
      "byteOffset" : 56436,
      "byteLength" : 8880
    },
    {
      "buffer" : 0,
      "byteOffset" : 65316,
      "byteLength" : 8880
    },
    {
      "buffer" : 0,
      "byteOffset" : 74196,
      "byteLength" : 8880
    },
    {
      "buffer" : 0,
      "byteOffset" : 83076,
      "byteLength" : 828
    },
    {
      "buffer" : 0,
      "byteOffset" : 83904,
      "byteLength" : 1380
    },
    {
      "buffer" : 0,
      "byteOffset" : 85284,
      "byteLength" : 1380
    },
    {
      "buffer" : 0,
      "byteOffset" : 86664,
      "byteLength" : 1840
    },
    {
      "buffer" : 0,
      "byteOffset" : 88504,
      "byteLength" : 920
    },
    {
      "buffer" : 0,
      "byteOffset" : 89424,
      "byteLength" : 920
    },
    {
      "buffer" : 0,
      "byteOffset" : 90344,
      "byteLength" : 920
    },
    {
      "buffer" : 0,
      "byteOffset" : 91264,
      "byteLength" : 920
    }
  ],
  "accessors" : [
    {
      "bufferView" : 0,
      "componentType" : 5123,
      "count" : 1578,
      "type" : "SCALAR"
    },
    {
      "bufferView" : 1,
      "min" : [ -3.50896, -0.159421, -3.60454 ],
      "max" : [ 3.55501, 0.09052, 3.72103 ],
      "componentType" : 5126,
      "count" : 1110,
      "type" : "VEC3"
    },
    {
      "bufferView" : 2,
      "componentType" : 5126,
      "count" : 1110,
      "type" : "VEC3"
    },
    {
      "bufferView" : 3,
      "componentType" : 5126,
      "count" : 1110,
      "type" : "VEC4"
    },
    {
      "bufferView" : 4,
      "componentType" : 5126,
      "count" : 1110,
      "type" : "VEC2"
    },
    {
      "bufferView" : 5,
      "componentType" : 5126,
      "count" : 1110,
      "type" : "VEC2"
    },
    {
      "bufferView" : 6,
      "componentType" : 5126,
      "count" : 1110,
      "type" : "VEC2"
    },
    {
      "bufferView" : 7,
      "componentType" : 5126,
      "count" : 1110,
      "type" : "VEC2"
    },
    {
      "bufferView" : 8,
      "componentType" : 5123,
      "count" : 414,
      "type" : "SCALAR"
    },
    {
      "bufferView" : 9,
      "min" : [ -3.95517, -2.00176, -4.09175 ],
      "max" : [ 4.03403, 0.0175293, 4.05169 ],
      "componentType" : 5126,
      "count" : 115,
      "type" : "VEC3"
    },
    {
      "bufferView" : 10,
      "componentType" : 5126,
      "count" : 115,
      "type" : "VEC3"
    },
    {
      "bufferView" : 11,
      "componentType" : 5126,
      "count" : 115,
      "type" : "VEC4"
    },
    {
      "bufferView" : 12,
      "componentType" : 5126,
      "count" : 115,
      "type" : "VEC2"
    },
    {
      "bufferView" : 13,
      "componentType" : 5126,
      "count" : 115,
      "type" : "VEC2"
    },
    {
      "bufferView" : 14,
      "componentType" : 5126,
      "count" : 115,
      "type" : "VEC2"
    },
    {
      "bufferView" : 15,
      "componentType" : 5126,
      "count" : 115,
      "type" : "VEC2"
    }
  ]
}
