{
  "asset" : {
    "generator" : "UE Viewer (umodel) build 1544 based",
    "version" : "2.0"
  },
  "scene" : 0,
  "scenes" : [
    {
      "nodes" : [ 0 ]
    }
  ],
  "nodes" : [
    {
      "name" : "SM_ENV_LKNVLD_Stall_E",
      "mesh" : 0
    }
  ],
  "materials" : [
    {
      "name" : "MI_ENV_LKNVLD_Roof_A",
      "pbrMetallicRoughness" : {
        "baseColorFactor" : [ 0.3, 0.3, 0.3, 1.0 ],
        "metallicFactor" : 0.1,
        "roughnessFactor" : 0.5
      }
    },
    {
      "name" : "MI_ENV_LKNVLD_Stall_I",
      "pbrMetallicRoughness" : {
        "baseColorFactor" : [ 0.9, 0.3, 0.3, 1.0 ],
        "metallicFactor" : 0.1,
        "roughnessFactor" : 0.5
      }
    },
    {
      "name" : "MI_ENV_LKNVLD_Stall_02",
      "pbrMetallicRoughness" : {
        "baseColorFactor" : [ 0.3, 0.9, 0.3, 1.0 ],
        "metallicFactor" : 0.1,
        "roughnessFactor" : 0.5
      }
    },
    {
      "name" : "MI_ENV_LKNVLD_Stall_Emissive_03",
      "pbrMetallicRoughness" : {
        "baseColorFactor" : [ 0.3, 0.3, 0.9, 1.0 ],
        "metallicFactor" : 0.1,
        "roughnessFactor" : 0.5
      }
    },
    {
      "name" : "MI_ENV_LKNVLD_PaperLantern_02",
      "pbrMetallicRoughness" : {
        "baseColorFactor" : [ 0.9, 0.9, 0.9, 1.0 ],
        "metallicFactor" : 0.1,
        "roughnessFactor" : 0.5
      }
    }
  ],
  "meshes" : [
    {
      "primitives" : [
        {
          "attributes" : {
            "POSITION" : 1,
            "NORMAL" : 2,
            "TANGENT" : 3,
            "COLOR_0" : 4,
            "TEXCOORD_0" : 5,
            "TEXCOORD_1" : 6,
            "TEXCOORD_2" : 7,
            "TEXCOORD_3" : 8
          },
          "indices" : 0,
          "material" : 0
        },
        {
          "attributes" : {
            "POSITION" : 10,
            "NORMAL" : 11,
            "TANGENT" : 12,
            "COLOR_0" : 13,
            "TEXCOORD_0" : 14,
            "TEXCOORD_1" : 15,
            "TEXCOORD_2" : 16,
            "TEXCOORD_3" : 17
          },
          "indices" : 9,
          "material" : 1
        },
        {
          "attributes" : {
            "POSITION" : 19,
            "NORMAL" : 20,
            "TANGENT" : 21,
            "COLOR_0" : 22,
            "TEXCOORD_0" : 23,
            "TEXCOORD_1" : 24,
            "TEXCOORD_2" : 25,
            "TEXCOORD_3" : 26
          },
          "indices" : 18,
          "material" : 2
        },
        {
          "attributes" : {
            "POSITION" : 28,
            "NORMAL" : 29,
            "TANGENT" : 30,
            "COLOR_0" : 31,
            "TEXCOORD_0" : 32,
            "TEXCOORD_1" : 33,
            "TEXCOORD_2" : 34,
            "TEXCOORD_3" : 35
          },
          "indices" : 27,
          "material" : 3
        },
        {
          "attributes" : {
            "POSITION" : 37,
            "NORMAL" : 38,
            "TANGENT" : 39,
            "COLOR_0" : 40,
            "TEXCOORD_0" : 41,
            "TEXCOORD_1" : 42,
            "TEXCOORD_2" : 43,
            "TEXCOORD_3" : 44
          },
          "indices" : 36,
          "material" : 4
        }
      ],
      "name" : "SM_ENV_LKNVLD_Stall_E"
    }
  ],
  "buffers" : [
    {
      "uri" : "SM_ENV_LKNVLD_Stall_E.bin",
      "byteLength" : 1594160
    }
  ],
  "bufferViews" : [
    {
      "buffer" : 0,
      "byteOffset" : 0,
      "byteLength" : 420
    },
    {
      "buffer" : 0,
      "byteOffset" : 420,
      "byteLength" : 2328
    },
    {
      "buffer" : 0,
      "byteOffset" : 2748,
      "byteLength" : 2328
    },
    {
      "buffer" : 0,
      "byteOffset" : 5076,
      "byteLength" : 3104
    },
    {
      "buffer" : 0,
      "byteOffset" : 8180,
      "byteLength" : 776
    },
    {
      "buffer" : 0,
      "byteOffset" : 8956,
      "byteLength" : 1552
    },
    {
      "buffer" : 0,
      "byteOffset" : 10508,
      "byteLength" : 1552
    },
    {
      "buffer" : 0,
      "byteOffset" : 12060,
      "byteLength" : 1552
    },
    {
      "buffer" : 0,
      "byteOffset" : 13612,
      "byteLength" : 1552
    },
    {
      "buffer" : 0,
      "byteOffset" : 15164,
      "byteLength" : 42572
    },
    {
      "buffer" : 0,
      "byteOffset" : 57736,
      "byteLength" : 130956
    },
    {
      "buffer" : 0,
      "byteOffset" : 188692,
      "byteLength" : 130956
    },
    {
      "buffer" : 0,
      "byteOffset" : 319648,
      "byteLength" : 174608
    },
    {
      "buffer" : 0,
      "byteOffset" : 494256,
      "byteLength" : 43652
    },
    {
      "buffer" : 0,
      "byteOffset" : 537908,
      "byteLength" : 87304
    },
    {
      "buffer" : 0,
      "byteOffset" : 625212,
      "byteLength" : 87304
    },
    {
      "buffer" : 0,
      "byteOffset" : 712516,
      "byteLength" : 87304
    },
    {
      "buffer" : 0,
      "byteOffset" : 799820,
      "byteLength" : 87304
    },
    {
      "buffer" : 0,
      "byteOffset" : 887124,
      "byteLength" : 22400
    },
    {
      "buffer" : 0,
      "byteOffset" : 909524,
      "byteLength" : 101340
    },
    {
      "buffer" : 0,
      "byteOffset" : 1010864,
      "byteLength" : 101340
    },
    {
      "buffer" : 0,
      "byteOffset" : 1112204,
      "byteLength" : 135120
    },
    {
      "buffer" : 0,
      "byteOffset" : 1247324,
      "byteLength" : 33780
    },
    {
      "buffer" : 0,
      "byteOffset" : 1281104,
      "byteLength" : 67560
    },
    {
      "buffer" : 0,
      "byteOffset" : 1348664,
      "byteLength" : 67560
    },
    {
      "buffer" : 0,
      "byteOffset" : 1416224,
      "byteLength" : 67560
    },
    {
      "buffer" : 0,
      "byteOffset" : 1483784,
      "byteLength" : 67560
    },
    {
      "buffer" : 0,
      "byteOffset" : 1551344,
      "byteLength" : 816
    },
    {
      "buffer" : 0,
      "byteOffset" : 1552160,
      "byteLength" : 1440
    },
    {
      "buffer" : 0,
      "byteOffset" : 1553600,
      "byteLength" : 1440
    },
    {
      "buffer" : 0,
      "byteOffset" : 1555040,
      "byteLength" : 1920
    },
    {
      "buffer" : 0,
      "byteOffset" : 1556960,
      "byteLength" : 480
    },
    {
      "buffer" : 0,
      "byteOffset" : 1557440,
      "byteLength" : 960
    },
    {
      "buffer" : 0,
      "byteOffset" : 1558400,
      "byteLength" : 960
    },
    {
      "buffer" : 0,
      "byteOffset" : 1559360,
      "byteLength" : 960
    },
    {
      "buffer" : 0,
      "byteOffset" : 1560320,
      "byteLength" : 960
    },
    {
      "buffer" : 0,
      "byteOffset" : 1561280,
      "byteLength" : 2784
    },
    {
      "buffer" : 0,
      "byteOffset" : 1564064,
      "byteLength" : 4752
    },
    {
      "buffer" : 0,
      "byteOffset" : 1568816,
      "byteLength" : 4752
    },
    {
      "buffer" : 0,
      "byteOffset" : 1573568,
      "byteLength" : 6336
    },
    {
      "buffer" : 0,
      "byteOffset" : 1579904,
      "byteLength" : 1584
    },
    {
      "buffer" : 0,
      "byteOffset" : 1581488,
      "byteLength" : 3168
    },
    {
      "buffer" : 0,
      "byteOffset" : 1584656,
      "byteLength" : 3168
    },
    {
      "buffer" : 0,
      "byteOffset" : 1587824,
      "byteLength" : 3168
    },
    {
      "buffer" : 0,
      "byteOffset" : 1590992,
      "byteLength" : 3168
    }
  ],
  "accessors" : [
    {
      "bufferView" : 0,
      "componentType" : 5123,
      "count" : 210,
      "type" : "SCALAR"
    },
    {
      "bufferView" : 1,
      "min" : [ -1.48194, 2.57237, -0.925554 ],
      "max" : [ 2.22437, 3.58143, 2.75482 ],
      "componentType" : 5126,
      "count" : 194,
      "type" : "VEC3"
    },
    {
      "bufferView" : 2,
      "componentType" : 5126,
      "count" : 194,
      "type" : "VEC3"
    },
    {
      "bufferView" : 3,
      "componentType" : 5126,
      "count" : 194,
      "type" : "VEC4"
    },
    {
      "bufferView" : 4,
      "normalized" : true,
      "componentType" : 5121,
      "count" : 194,
      "type" : "VEC4"
    },
    {
      "bufferView" : 5,
      "componentType" : 5126,
      "count" : 194,
      "type" : "VEC2"
    },
    {
      "bufferView" : 6,
      "componentType" : 5126,
      "count" : 194,
      "type" : "VEC2"
    },
    {
      "bufferView" : 7,
      "componentType" : 5126,
      "count" : 194,
      "type" : "VEC2"
    },
    {
      "bufferView" : 8,
      "componentType" : 5126,
      "count" : 194,
      "type" : "VEC2"
    },
    {
      "bufferView" : 9,
      "componentType" : 5123,
      "count" : 21285,
      "type" : "SCALAR"
    },
    {
      "bufferView" : 10,
      "min" : [ -1.60868, 4.76837e-08, -1.14112 ],
      "max" : [ 2.1211, 3.80666, 2.76062 ],
      "componentType" : 5126,
      "count" : 10913,
      "type" : "VEC3"
    },
    {
      "bufferView" : 11,
      "componentType" : 5126,
      "count" : 10913,
      "type" : "VEC3"
    },
    {
      "bufferView" : 12,
      "componentType" : 5126,
      "count" : 10913,
      "type" : "VEC4"
    },
    {
      "bufferView" : 13,
      "normalized" : true,
      "componentType" : 5121,
      "count" : 10913,
      "type" : "VEC4"
    },
    {
      "bufferView" : 14,
      "componentType" : 5126,
      "count" : 10913,
      "type" : "VEC2"
    },
    {
      "bufferView" : 15,
      "componentType" : 5126,
      "count" : 10913,
      "type" : "VEC2"
    },
    {
      "bufferView" : 16,
      "componentType" : 5126,
      "count" : 10913,
      "type" : "VEC2"
    },
    {
      "bufferView" : 17,
      "componentType" : 5126,
      "count" : 10913,
      "type" : "VEC2"
    },
    {
      "bufferView" : 18,
      "componentType" : 5123,
      "count" : 11199,
      "type" : "SCALAR"
    },
    {
      "bufferView" : 19,
      "min" : [ -1.46973, 0.791849, -0.424675 ],
      "max" : [ 1.50034, 2.97599, 1.19602 ],
      "componentType" : 5126,
      "count" : 8445,
      "type" : "VEC3"
    },
    {
      "bufferView" : 20,
      "componentType" : 5126,
      "count" : 8445,
      "type" : "VEC3"
    },
    {
      "bufferView" : 21,
      "componentType" : 5126,
      "count" : 8445,
      "type" : "VEC4"
    },
    {
      "bufferView" : 22,
      "normalized" : true,
      "componentType" : 5121,
      "count" : 8445,
      "type" : "VEC4"
    },
    {
      "bufferView" : 23,
      "componentType" : 5126,
      "count" : 8445,
      "type" : "VEC2"
    },
    {
      "bufferView" : 24,
      "componentType" : 5126,
      "count" : 8445,
      "type" : "VEC2"
    },
    {
      "bufferView" : 25,
      "componentType" : 5126,
      "count" : 8445,
      "type" : "VEC2"
    },
    {
      "bufferView" : 26,
      "componentType" : 5126,
      "count" : 8445,
      "type" : "VEC2"
    },
    {
      "bufferView" : 27,
      "componentType" : 5123,
      "count" : 408,
      "type" : "SCALAR"
    },
    {
      "bufferView" : 28,
      "min" : [ -0.125836, 2.66023, 0.0580853 ],
      "max" : [ -0.0174782, 2.79478, 0.164548 ],
      "componentType" : 5126,
      "count" : 120,
      "type" : "VEC3"
    },
    {
      "bufferView" : 29,
      "componentType" : 5126,
      "count" : 120,
      "type" : "VEC3"
    },
    {
      "bufferView" : 30,
      "componentType" : 5126,
      "count" : 120,
      "type" : "VEC4"
    },
    {
      "bufferView" : 31,
      "normalized" : true,
      "componentType" : 5121,
      "count" : 120,
      "type" : "VEC4"
    },
    {
      "bufferView" : 32,
      "componentType" : 5126,
      "count" : 120,
      "type" : "VEC2"
    },
    {
      "bufferView" : 33,
      "componentType" : 5126,
      "count" : 120,
      "type" : "VEC2"
    },
    {
      "bufferView" : 34,
      "componentType" : 5126,
      "count" : 120,
      "type" : "VEC2"
    },
    {
      "bufferView" : 35,
      "componentType" : 5126,
      "count" : 120,
      "type" : "VEC2"
    },
    {
      "bufferView" : 36,
      "componentType" : 5123,
      "count" : 1392,
      "type" : "SCALAR"
    },
    {
      "bufferView" : 37,
      "min" : [ -1.45716, 1.92367, -0.610137 ],
      "max" : [ 2.16499, 2.72923, 2.80082 ],
      "componentType" : 5126,
      "count" : 396,
      "type" : "VEC3"
    },
    {
      "bufferView" : 38,
      "componentType" : 5126,
      "count" : 396,
      "type" : "VEC3"
    },
    {
      "bufferView" : 39,
      "componentType" : 5126,
      "count" : 396,
      "type" : "VEC4"
    },
    {
      "bufferView" : 40,
      "normalized" : true,
      "componentType" : 5121,
      "count" : 396,
      "type" : "VEC4"
    },
    {
      "bufferView" : 41,
      "componentType" : 5126,
      "count" : 396,
      "type" : "VEC2"
    },
    {
      "bufferView" : 42,
      "componentType" : 5126,
      "count" : 396,
      "type" : "VEC2"
    },
    {
      "bufferView" : 43,
      "componentType" : 5126,
      "count" : 396,
      "type" : "VEC2"
    },
    {
      "bufferView" : 44,
      "componentType" : 5126,
      "count" : 396,
      "type" : "VEC2"
    }
  ]
}
