{
  "asset" : {
    "generator" : "UE Viewer (umodel) build 1544 based",
    "version" : "2.0"
  },
  "scene" : 0,
  "scenes" : [
    {
      "nodes" : [ 0 ]
    }
  ],
  "nodes" : [
    {
      "name" : "SM_ENV_LKNVLD_Tree_D_Lod1",
      "mesh" : 0
    }
  ],
  "materials" : [
    {
      "name" : "MI_ENV_LKNVLD_LeafMasked_A",
      "pbrMetallicRoughness" : {
        "baseColorFactor" : [ 0.3, 0.3, 0.3, 1.0 ],
        "metallicFactor" : 0.1,
        "roughnessFactor" : 0.5
      }
    },
    {
      "name" : "MI_ENV_LKNVLD_Leaf_A",
      "pbrMetallicRoughness" : {
        "baseColorFactor" : [ 0.9, 0.3, 0.3, 1.0 ],
        "metallicFactor" : 0.1,
        "roughnessFactor" : 0.5
      }
    },
    {
      "name" : "MI_ENV_LKNVLD_Tree_A",
      "pbrMetallicRoughness" : {
        "baseColorFactor" : [ 0.3, 0.9, 0.3, 1.0 ],
        "metallicFactor" : 0.1,
        "roughnessFactor" : 0.5
      }
    }
  ],
  "meshes" : [
    {
      "primitives" : [
        {
          "attributes" : {
            "POSITION" : 1,
            "NORMAL" : 2,
            "TANGENT" : 3,
            "COLOR_0" : 4,
            "TEXCOORD_0" : 5,
            "TEXCOORD_1" : 6,
            "TEXCOORD_2" : 7,
            "TEXCOORD_3" : 8
          },
          "indices" : 0,
          "material" : 0
        },
        {
          "attributes" : {
            "POSITION" : 10,
            "NORMAL" : 11,
            "TANGENT" : 12,
            "COLOR_0" : 13,
            "TEXCOORD_0" : 14,
            "TEXCOORD_1" : 15,
            "TEXCOORD_2" : 16,
            "TEXCOORD_3" : 17
          },
          "indices" : 9,
          "material" : 1
        },
        {
          "attributes" : {
            "POSITION" : 19,
            "NORMAL" : 20,
            "TANGENT" : 21,
            "COLOR_0" : 22,
            "TEXCOORD_0" : 23,
            "TEXCOORD_1" : 24,
            "TEXCOORD_2" : 25,
            "TEXCOORD_3" : 26
          },
          "indices" : 18,
          "material" : 2
        }
      ],
      "name" : "SM_ENV_LKNVLD_Tree_D_Lod1"
    }
  ],
  "buffers" : [
    {
      "uri" : "SM_ENV_LKNVLD_Tree_D_Lod1.bin",
      "byteLength" : 1183392
    }
  ],
  "bufferViews" : [
    {
      "buffer" : 0,
      "byteOffset" : 0,
      "byteLength" : 44460
    },
    {
      "buffer" : 0,
      "byteOffset" : 44460,
      "byteLength" : 130140
    },
    {
      "buffer" : 0,
      "byteOffset" : 174600,
      "byteLength" : 130140
    },
    {
      "buffer" : 0,
      "byteOffset" : 304740,
      "byteLength" : 173520
    },
    {
      "buffer" : 0,
      "byteOffset" : 478260,
      "byteLength" : 43380
    },
    {
      "buffer" : 0,
      "byteOffset" : 521640,
      "byteLength" : 86760
    },
    {
      "buffer" : 0,
      "byteOffset" : 608400,
      "byteLength" : 86760
    },
    {
      "buffer" : 0,
      "byteOffset" : 695160,
      "byteLength" : 86760
    },
    {
      "buffer" : 0,
      "byteOffset" : 781920,
      "byteLength" : 86760
    },
    {
      "buffer" : 0,
      "byteOffset" : 868680,
      "byteLength" : 11976
    },
    {
      "buffer" : 0,
      "byteOffset" : 880656,
      "byteLength" : 27276
    },
    {
      "buffer" : 0,
      "byteOffset" : 907932,
      "byteLength" : 27276
    },
    {
      "buffer" : 0,
      "byteOffset" : 935208,
      "byteLength" : 36368
    },
    {
      "buffer" : 0,
      "byteOffset" : 971576,
      "byteLength" : 9092
    },
    {
      "buffer" : 0,
      "byteOffset" : 980668,
      "byteLength" : 18184
    },
    {
      "buffer" : 0,
      "byteOffset" : 998852,
      "byteLength" : 18184
    },
    {
      "buffer" : 0,
      "byteOffset" : 1017036,
      "byteLength" : 18184
    },
    {
      "buffer" : 0,
      "byteOffset" : 1035220,
      "byteLength" : 18184
    },
    {
      "buffer" : 0,
      "byteOffset" : 1053404,
      "byteLength" : 4892
    },
    {
      "buffer" : 0,
      "byteOffset" : 1058296,
      "byteLength" : 19752
    },
    {
      "buffer" : 0,
      "byteOffset" : 1078048,
      "byteLength" : 19752
    },
    {
      "buffer" : 0,
      "byteOffset" : 1097800,
      "byteLength" : 26336
    },
    {
      "buffer" : 0,
      "byteOffset" : 1124136,
      "byteLength" : 6584
    },
    {
      "buffer" : 0,
      "byteOffset" : 1130720,
      "byteLength" : 13168
    },
    {
      "buffer" : 0,
      "byteOffset" : 1143888,
      "byteLength" : 13168
    },
    {
      "buffer" : 0,
      "byteOffset" : 1157056,
      "byteLength" : 13168
    },
    {
      "buffer" : 0,
      "byteOffset" : 1170224,
      "byteLength" : 13168
    }
  ],
  "accessors" : [
    {
      "bufferView" : 0,
      "componentType" : 5123,
      "count" : 22230,
      "type" : "SCALAR"
    },
    {
      "bufferView" : 1,
      "min" : [ -5.68167, 5.34399, -8.20215 ],
      "max" : [ 6.31553, 14.8133, 6.05422 ],
      "componentType" : 5126,
      "count" : 10845,
      "type" : "VEC3"
    },
    {
      "bufferView" : 2,
      "componentType" : 5126,
      "count" : 10845,
      "type" : "VEC3"
    },
    {
      "bufferView" : 3,
      "componentType" : 5126,
      "count" : 10845,
      "type" : "VEC4"
    },
    {
      "bufferView" : 4,
      "normalized" : true,
      "componentType" : 5121,
      "count" : 10845,
      "type" : "VEC4"
    },
    {
      "bufferView" : 5,
      "componentType" : 5126,
      "count" : 10845,
      "type" : "VEC2"
    },
    {
      "bufferView" : 6,
      "componentType" : 5126,
      "count" : 10845,
      "type" : "VEC2"
    },
    {
      "bufferView" : 7,
      "componentType" : 5126,
      "count" : 10845,
      "type" : "VEC2"
    },
    {
      "bufferView" : 8,
      "componentType" : 5126,
      "count" : 10845,
      "type" : "VEC2"
    },
    {
      "bufferView" : 9,
      "componentType" : 5123,
      "count" : 5988,
      "type" : "SCALAR"
    },
    {
      "bufferView" : 10,
      "min" : [ -5.50791, 5.51723, -8.03216 ],
      "max" : [ 6.14664, 14.6555, 5.85336 ],
      "componentType" : 5126,
      "count" : 2273,
      "type" : "VEC3"
    },
    {
      "bufferView" : 11,
      "componentType" : 5126,
      "count" : 2273,
      "type" : "VEC3"
    },
    {
      "bufferView" : 12,
      "componentType" : 5126,
      "count" : 2273,
      "type" : "VEC4"
    },
    {
      "bufferView" : 13,
      "normalized" : true,
      "componentType" : 5121,
      "count" : 2273,
      "type" : "VEC4"
    },
    {
      "bufferView" : 14,
      "componentType" : 5126,
      "count" : 2273,
      "type" : "VEC2"
    },
    {
      "bufferView" : 15,
      "componentType" : 5126,
      "count" : 2273,
      "type" : "VEC2"
    },
    {
      "bufferView" : 16,
      "componentType" : 5126,
      "count" : 2273,
      "type" : "VEC2"
    },
    {
      "bufferView" : 17,
      "componentType" : 5126,
      "count" : 2273,
      "type" : "VEC2"
    },
    {
      "bufferView" : 18,
      "componentType" : 5123,
      "count" : 2445,
      "type" : "SCALAR"
    },
    {
      "bufferView" : 19,
      "min" : [ -5.10965, -0.026832, -6.91597 ],
      "max" : [ 4.42558, 12.0852, 5.05248 ],
      "componentType" : 5126,
      "count" : 1646,
      "type" : "VEC3"
    },
    {
      "bufferView" : 20,
      "componentType" : 5126,
      "count" : 1646,
      "type" : "VEC3"
    },
    {
      "bufferView" : 21,
      "componentType" : 5126,
      "count" : 1646,
      "type" : "VEC4"
    },
    {
      "bufferView" : 22,
      "normalized" : true,
      "componentType" : 5121,
      "count" : 1646,
      "type" : "VEC4"
    },
    {
      "bufferView" : 23,
      "componentType" : 5126,
      "count" : 1646,
      "type" : "VEC2"
    },
    {
      "bufferView" : 24,
      "componentType" : 5126,
      "count" : 1646,
      "type" : "VEC2"
    },
    {
      "bufferView" : 25,
      "componentType" : 5126,
      "count" : 1646,
      "type" : "VEC2"
    },
    {
      "bufferView" : 26,
      "componentType" : 5126,
      "count" : 1646,
      "type" : "VEC2"
    }
  ]
}
