{
  "asset" : {
    "generator" : "UE Viewer (umodel) build 1544 based",
    "version" : "2.0"
  },
  "scene" : 0,
  "scenes" : [
    {
      "nodes" : [ 0 ]
    }
  ],
  "nodes" : [
    {
      "name" : "SM_ENV_LKNVLD_Hokage_Gate_Front_Lod1",
      "mesh" : 0
    }
  ],
  "materials" : [
    {
      "name" : "MI_T_ENV_LKNVLD_StoneTrim",
      "pbrMetallicRoughness" : {
        "baseColorFactor" : [ 0.3, 0.3, 0.3, 1.0 ],
        "metallicFactor" : 0.1,
        "roughnessFactor" : 0.5
      }
    },
    {
      "name" : "MI_ENV_LKNVLD_WoodPlain_Red",
      "pbrMetallicRoughness" : {
        "baseColorFactor" : [ 0.9, 0.3, 0.3, 1.0 ],
        "metallicFactor" : 0.1,
        "roughnessFactor" : 0.5
      }
    },
    {
      "name" : "MI_ENV_LKNVLD_Door_D",
      "pbrMetallicRoughness" : {
        "baseColorFactor" : [ 0.3, 0.9, 0.3, 1.0 ],
        "metallicFactor" : 0.1,
        "roughnessFactor" : 0.5
      }
    },
    {
      "name" : "MI_ENV_LKNVLD_WoodBoard_Natural_Yellowed",
      "pbrMetallicRoughness" : {
        "baseColorFactor" : [ 0.3, 0.3, 0.9, 1.0 ],
        "metallicFactor" : 0.1,
        "roughnessFactor" : 0.5
      }
    },
    {
      "name" : "MI_ENV_LKNVLD_Plaster_Beige",
      "pbrMetallicRoughness" : {
        "baseColorFactor" : [ 0.9, 0.9, 0.9, 1.0 ],
        "metallicFactor" : 0.1,
        "roughnessFactor" : 0.5
      }
    },
    {
      "name" : "MI_ENV_LKNVLD_RoofTiles_Grey",
      "pbrMetallicRoughness" : {
        "baseColorFactor" : [ 0.9, 0.9, 0.3, 1.0 ],
        "metallicFactor" : 0.1,
        "roughnessFactor" : 0.5
      }
    },
    {
      "name" : "MI_ENV_LKNVLD_WoodPlain_Brown",
      "pbrMetallicRoughness" : {
        "baseColorFactor" : [ 0.9, 0.3, 0.9, 1.0 ],
        "metallicFactor" : 0.1,
        "roughnessFactor" : 0.5
      }
    },
    {
      "name" : "MI_ENV_LKNVLD_Plaster_Dark",
      "pbrMetallicRoughness" : {
        "baseColorFactor" : [ 0.3, 0.9, 0.9, 1.0 ],
        "metallicFactor" : 0.1,
        "roughnessFactor" : 0.5
      }
    },
    {
      "name" : "MI_ENV_LKNVLD_MetalRoofDark",
      "pbrMetallicRoughness" : {
        "baseColorFactor" : [ 1, 0.3, 0.3, 1.0 ],
        "metallicFactor" : 0.1,
        "roughnessFactor" : 0.5
      }
    },
    {
      "name" : "MI_ENV_LKNVLD_RoofTiles_Yellow",
      "pbrMetallicRoughness" : {
        "baseColorFactor" : [ 0.6, 0.3, 0.3, 1.0 ],
        "metallicFactor" : 0.1,
        "roughnessFactor" : 0.5
      }
    }
  ],
  "meshes" : [
    {
      "primitives" : [
        {
          "attributes" : {
            "POSITION" : 1,
            "NORMAL" : 2,
            "TANGENT" : 3,
            "TEXCOORD_0" : 4,
            "TEXCOORD_1" : 5,
            "TEXCOORD_2" : 6,
            "TEXCOORD_3" : 7
          },
          "indices" : 0,
          "material" : 0
        },
        {
          "attributes" : {
            "POSITION" : 9,
            "NORMAL" : 10,
            "TANGENT" : 11,
            "TEXCOORD_0" : 12,
            "TEXCOORD_1" : 13,
            "TEXCOORD_2" : 14,
            "TEXCOORD_3" : 15
          },
          "indices" : 8,
          "material" : 1
        },
        {
          "attributes" : {
            "POSITION" : 17,
            "NORMAL" : 18,
            "TANGENT" : 19,
            "TEXCOORD_0" : 20,
            "TEXCOORD_1" : 21,
            "TEXCOORD_2" : 22,
            "TEXCOORD_3" : 23
          },
          "indices" : 16,
          "material" : 2
        },
        {
          "attributes" : {
            "POSITION" : 25,
            "NORMAL" : 26,
            "TANGENT" : 27,
            "TEXCOORD_0" : 28,
            "TEXCOORD_1" : 29,
            "TEXCOORD_2" : 30,
            "TEXCOORD_3" : 31
          },
          "indices" : 24,
          "material" : 3
        },
        {
          "attributes" : {
            "POSITION" : 33,
            "NORMAL" : 34,
            "TANGENT" : 35,
            "TEXCOORD_0" : 36,
            "TEXCOORD_1" : 37,
            "TEXCOORD_2" : 38,
            "TEXCOORD_3" : 39
          },
          "indices" : 32,
          "material" : 4
        },
        {
          "attributes" : {
            "POSITION" : 41,
            "NORMAL" : 42,
            "TANGENT" : 43,
            "TEXCOORD_0" : 44,
            "TEXCOORD_1" : 45,
            "TEXCOORD_2" : 46,
            "TEXCOORD_3" : 47
          },
          "indices" : 40,
          "material" : 5
        },
        {
          "attributes" : {
            "POSITION" : 49,
            "NORMAL" : 50,
            "TANGENT" : 51,
            "TEXCOORD_0" : 52,
            "TEXCOORD_1" : 53,
            "TEXCOORD_2" : 54,
            "TEXCOORD_3" : 55
          },
          "indices" : 48,
          "material" : 6
        },
        {
          "attributes" : {
            "POSITION" : 57,
            "NORMAL" : 58,
            "TANGENT" : 59,
            "TEXCOORD_0" : 60,
            "TEXCOORD_1" : 61,
            "TEXCOORD_2" : 62,
            "TEXCOORD_3" : 63
          },
          "indices" : 56,
          "material" : 7
        },
        {
          "attributes" : {
            "POSITION" : 65,
            "NORMAL" : 66,
            "TANGENT" : 67,
            "TEXCOORD_0" : 68,
            "TEXCOORD_1" : 69,
            "TEXCOORD_2" : 70,
            "TEXCOORD_3" : 71
          },
          "indices" : 64,
          "material" : 8
        },
        {
          "attributes" : {
            "POSITION" : 73,
            "NORMAL" : 74,
            "TANGENT" : 75,
            "TEXCOORD_0" : 76,
            "TEXCOORD_1" : 77,
            "TEXCOORD_2" : 78,
            "TEXCOORD_3" : 79
          },
          "indices" : 72,
          "material" : 9
        }
      ],
      "name" : "SM_ENV_LKNVLD_Hokage_Gate_Front_Lod1"
    }
  ],
  "buffers" : [
    {
      "uri" : "SM_ENV_LKNVLD_Hokage_Gate_Front_Lod1.bin",
      "byteLength" : 725188
    }
  ],
  "bufferViews" : [
    {
      "buffer" : 0,
      "byteOffset" : 0,
      "byteLength" : 776
    },
    {
      "buffer" : 0,
      "byteOffset" : 776,
      "byteLength" : 1716
    },
    {
      "buffer" : 0,
      "byteOffset" : 2492,
      "byteLength" : 1716
    },
    {
      "buffer" : 0,
      "byteOffset" : 4208,
      "byteLength" : 2288
    },
    {
      "buffer" : 0,
      "byteOffset" : 6496,
      "byteLength" : 1144
    },
    {
      "buffer" : 0,
      "byteOffset" : 7640,
      "byteLength" : 1144
    },
    {
      "buffer" : 0,
      "byteOffset" : 8784,
      "byteLength" : 1144
    },
    {
      "buffer" : 0,
      "byteOffset" : 9928,
      "byteLength" : 1144
    },
    {
      "buffer" : 0,
      "byteOffset" : 11072,
      "byteLength" : 3552
    },
    {
      "buffer" : 0,
      "byteOffset" : 14624,
      "byteLength" : 9048
    },
    {
      "buffer" : 0,
      "byteOffset" : 23672,
      "byteLength" : 9048
    },
    {
      "buffer" : 0,
      "byteOffset" : 32720,
      "byteLength" : 12064
    },
    {
      "buffer" : 0,
      "byteOffset" : 44784,
      "byteLength" : 6032
    },
    {
      "buffer" : 0,
      "byteOffset" : 50816,
      "byteLength" : 6032
    },
    {
      "buffer" : 0,
      "byteOffset" : 56848,
      "byteLength" : 6032
    },
    {
      "buffer" : 0,
      "byteOffset" : 62880,
      "byteLength" : 6032
    },
    {
      "buffer" : 0,
      "byteOffset" : 68912,
      "byteLength" : 2324
    },
    {
      "buffer" : 0,
      "byteOffset" : 71236,
      "byteLength" : 5064
    },
    {
      "buffer" : 0,
      "byteOffset" : 76300,
      "byteLength" : 5064
    },
    {
      "buffer" : 0,
      "byteOffset" : 81364,
      "byteLength" : 6752
    },
    {
      "buffer" : 0,
      "byteOffset" : 88116,
      "byteLength" : 3376
    },
    {
      "buffer" : 0,
      "byteOffset" : 91492,
      "byteLength" : 3376
    },
    {
      "buffer" : 0,
      "byteOffset" : 94868,
      "byteLength" : 3376
    },
    {
      "buffer" : 0,
      "byteOffset" : 98244,
      "byteLength" : 3376
    },
    {
      "buffer" : 0,
      "byteOffset" : 101620,
      "byteLength" : 4628
    },
    {
      "buffer" : 0,
      "byteOffset" : 106248,
      "byteLength" : 14400
    },
    {
      "buffer" : 0,
      "byteOffset" : 120648,
      "byteLength" : 14400
    },
    {
      "buffer" : 0,
      "byteOffset" : 135048,
      "byteLength" : 19200
    },
    {
      "buffer" : 0,
      "byteOffset" : 154248,
      "byteLength" : 9600
    },
    {
      "buffer" : 0,
      "byteOffset" : 163848,
      "byteLength" : 9600
    },
    {
      "buffer" : 0,
      "byteOffset" : 173448,
      "byteLength" : 9600
    },
    {
      "buffer" : 0,
      "byteOffset" : 183048,
      "byteLength" : 9600
    },
    {
      "buffer" : 0,
      "byteOffset" : 192648,
      "byteLength" : 132
    },
    {
      "buffer" : 0,
      "byteOffset" : 192780,
      "byteLength" : 480
    },
    {
      "buffer" : 0,
      "byteOffset" : 193260,
      "byteLength" : 480
    },
    {
      "buffer" : 0,
      "byteOffset" : 193740,
      "byteLength" : 640
    },
    {
      "buffer" : 0,
      "byteOffset" : 194380,
      "byteLength" : 320
    },
    {
      "buffer" : 0,
      "byteOffset" : 194700,
      "byteLength" : 320
    },
    {
      "buffer" : 0,
      "byteOffset" : 195020,
      "byteLength" : 320
    },
    {
      "buffer" : 0,
      "byteOffset" : 195340,
      "byteLength" : 320
    },
    {
      "buffer" : 0,
      "byteOffset" : 195660,
      "byteLength" : 6188
    },
    {
      "buffer" : 0,
      "byteOffset" : 201848,
      "byteLength" : 8604
    },
    {
      "buffer" : 0,
      "byteOffset" : 210452,
      "byteLength" : 8604
    },
    {
      "buffer" : 0,
      "byteOffset" : 219056,
      "byteLength" : 11472
    },
    {
      "buffer" : 0,
      "byteOffset" : 230528,
      "byteLength" : 5736
    },
    {
      "buffer" : 0,
      "byteOffset" : 236264,
      "byteLength" : 5736
    },
    {
      "buffer" : 0,
      "byteOffset" : 242000,
      "byteLength" : 5736
    },
    {
      "buffer" : 0,
      "byteOffset" : 247736,
      "byteLength" : 5736
    },
    {
      "buffer" : 0,
      "byteOffset" : 253472,
      "byteLength" : 9836
    },
    {
      "buffer" : 0,
      "byteOffset" : 263308,
      "byteLength" : 38772
    },
    {
      "buffer" : 0,
      "byteOffset" : 302080,
      "byteLength" : 38772
    },
    {
      "buffer" : 0,
      "byteOffset" : 340852,
      "byteLength" : 51696
    },
    {
      "buffer" : 0,
      "byteOffset" : 392548,
      "byteLength" : 25848
    },
    {
      "buffer" : 0,
      "byteOffset" : 418396,
      "byteLength" : 25848
    },
    {
      "buffer" : 0,
      "byteOffset" : 444244,
      "byteLength" : 25848
    },
    {
      "buffer" : 0,
      "byteOffset" : 470092,
      "byteLength" : 25848
    },
    {
      "buffer" : 0,
      "byteOffset" : 495940,
      "byteLength" : 5036
    },
    {
      "buffer" : 0,
      "byteOffset" : 500976,
      "byteLength" : 7212
    },
    {
      "buffer" : 0,
      "byteOffset" : 508188,
      "byteLength" : 7212
    },
    {
      "buffer" : 0,
      "byteOffset" : 515400,
      "byteLength" : 9616
    },
    {
      "buffer" : 0,
      "byteOffset" : 525016,
      "byteLength" : 4808
    },
    {
      "buffer" : 0,
      "byteOffset" : 529824,
      "byteLength" : 4808
    },
    {
      "buffer" : 0,
      "byteOffset" : 534632,
      "byteLength" : 4808
    },
    {
      "buffer" : 0,
      "byteOffset" : 539440,
      "byteLength" : 4808
    },
    {
      "buffer" : 0,
      "byteOffset" : 544248,
      "byteLength" : 1148
    },
    {
      "buffer" : 0,
      "byteOffset" : 545396,
      "byteLength" : 1968
    },
    {
      "buffer" : 0,
      "byteOffset" : 547364,
      "byteLength" : 1968
    },
    {
      "buffer" : 0,
      "byteOffset" : 549332,
      "byteLength" : 2624
    },
    {
      "buffer" : 0,
      "byteOffset" : 551956,
      "byteLength" : 1312
    },
    {
      "buffer" : 0,
      "byteOffset" : 553268,
      "byteLength" : 1312
    },
    {
      "buffer" : 0,
      "byteOffset" : 554580,
      "byteLength" : 1312
    },
    {
      "buffer" : 0,
      "byteOffset" : 555892,
      "byteLength" : 1312
    },
    {
      "buffer" : 0,
      "byteOffset" : 557204,
      "byteLength" : 16640
    },
    {
      "buffer" : 0,
      "byteOffset" : 573844,
      "byteLength" : 25224
    },
    {
      "buffer" : 0,
      "byteOffset" : 599068,
      "byteLength" : 25224
    },
    {
      "buffer" : 0,
      "byteOffset" : 624292,
      "byteLength" : 33632
    },
    {
      "buffer" : 0,
      "byteOffset" : 657924,
      "byteLength" : 16816
    },
    {
      "buffer" : 0,
      "byteOffset" : 674740,
      "byteLength" : 16816
    },
    {
      "buffer" : 0,
      "byteOffset" : 691556,
      "byteLength" : 16816
    },
    {
      "buffer" : 0,
      "byteOffset" : 708372,
      "byteLength" : 16816
    }
  ],
  "accessors" : [
    {
      "bufferView" : 0,
      "componentType" : 5123,
      "count" : 387,
      "type" : "SCALAR"
    },
    {
      "bufferView" : 1,
      "min" : [ -7.06046, 12, -71.454 ],
      "max" : [ 7.06046, 12.3379, -69.9711 ],
      "componentType" : 5126,
      "count" : 143,
      "type" : "VEC3"
    },
    {
      "bufferView" : 2,
      "componentType" : 5126,
      "count" : 143,
      "type" : "VEC3"
    },
    {
      "bufferView" : 3,
      "componentType" : 5126,
      "count" : 143,
      "type" : "VEC4"
    },
    {
      "bufferView" : 4,
      "componentType" : 5126,
      "count" : 143,
      "type" : "VEC2"
    },
    {
      "bufferView" : 5,
      "componentType" : 5126,
      "count" : 143,
      "type" : "VEC2"
    },
    {
      "bufferView" : 6,
      "componentType" : 5126,
      "count" : 143,
      "type" : "VEC2"
    },
    {
      "bufferView" : 7,
      "componentType" : 5126,
      "count" : 143,
      "type" : "VEC2"
    },
    {
      "bufferView" : 8,
      "componentType" : 5123,
      "count" : 1776,
      "type" : "SCALAR"
    },
    {
      "bufferView" : 9,
      "min" : [ -6.8705, 12.3379, -75.069 ],
      "max" : [ 6.87029, 18, -70.157 ],
      "componentType" : 5126,
      "count" : 754,
      "type" : "VEC3"
    },
    {
      "bufferView" : 10,
      "componentType" : 5126,
      "count" : 754,
      "type" : "VEC3"
    },
    {
      "bufferView" : 11,
      "componentType" : 5126,
      "count" : 754,
      "type" : "VEC4"
    },
    {
      "bufferView" : 12,
      "componentType" : 5126,
      "count" : 754,
      "type" : "VEC2"
    },
    {
      "bufferView" : 13,
      "componentType" : 5126,
      "count" : 754,
      "type" : "VEC2"
    },
    {
      "bufferView" : 14,
      "componentType" : 5126,
      "count" : 754,
      "type" : "VEC2"
    },
    {
      "bufferView" : 15,
      "componentType" : 5126,
      "count" : 754,
      "type" : "VEC2"
    },
    {
      "bufferView" : 16,
      "componentType" : 5123,
      "count" : 1161,
      "type" : "SCALAR"
    },
    {
      "bufferView" : 17,
      "min" : [ -4.55, 12.15, -71.2898 ],
      "max" : [ 4.55, 17.915, -70.3614 ],
      "componentType" : 5126,
      "count" : 422,
      "type" : "VEC3"
    },
    {
      "bufferView" : 18,
      "componentType" : 5126,
      "count" : 422,
      "type" : "VEC3"
    },
    {
      "bufferView" : 19,
      "componentType" : 5126,
      "count" : 422,
      "type" : "VEC4"
    },
    {
      "bufferView" : 20,
      "componentType" : 5126,
      "count" : 422,
      "type" : "VEC2"
    },
    {
      "bufferView" : 21,
      "componentType" : 5126,
      "count" : 422,
      "type" : "VEC2"
    },
    {
      "bufferView" : 22,
      "componentType" : 5126,
      "count" : 422,
      "type" : "VEC2"
    },
    {
      "bufferView" : 23,
      "componentType" : 5126,
      "count" : 422,
      "type" : "VEC2"
    },
    {
      "bufferView" : 24,
      "componentType" : 5123,
      "count" : 2313,
      "type" : "SCALAR"
    },
    {
      "bufferView" : 25,
      "min" : [ -8, 11.9479, -76.5455 ],
      "max" : [ 8, 21.9394, -68.5987 ],
      "componentType" : 5126,
      "count" : 1200,
      "type" : "VEC3"
    },
    {
      "bufferView" : 26,
      "componentType" : 5126,
      "count" : 1200,
      "type" : "VEC3"
    },
    {
      "bufferView" : 27,
      "componentType" : 5126,
      "count" : 1200,
      "type" : "VEC4"
    },
    {
      "bufferView" : 28,
      "componentType" : 5126,
      "count" : 1200,
      "type" : "VEC2"
    },
    {
      "bufferView" : 29,
      "componentType" : 5126,
      "count" : 1200,
      "type" : "VEC2"
    },
    {
      "bufferView" : 30,
      "componentType" : 5126,
      "count" : 1200,
      "type" : "VEC2"
    },
    {
      "bufferView" : 31,
      "componentType" : 5126,
      "count" : 1200,
      "type" : "VEC2"
    },
    {
      "bufferView" : 32,
      "componentType" : 5123,
      "count" : 66,
      "type" : "SCALAR"
    },
    {
      "bufferView" : 33,
      "min" : [ -6, 12.15, -74.6701 ],
      "max" : [ 6.00001, 21.9347, -70.5084 ],
      "componentType" : 5126,
      "count" : 40,
      "type" : "VEC3"
    },
    {
      "bufferView" : 34,
      "componentType" : 5126,
      "count" : 40,
      "type" : "VEC3"
    },
    {
      "bufferView" : 35,
      "componentType" : 5126,
      "count" : 40,
      "type" : "VEC4"
    },
    {
      "bufferView" : 36,
      "componentType" : 5126,
      "count" : 40,
      "type" : "VEC2"
    },
    {
      "bufferView" : 37,
      "componentType" : 5126,
      "count" : 40,
      "type" : "VEC2"
    },
    {
      "bufferView" : 38,
      "componentType" : 5126,
      "count" : 40,
      "type" : "VEC2"
    },
    {
      "bufferView" : 39,
      "componentType" : 5126,
      "count" : 40,
      "type" : "VEC2"
    },
    {
      "bufferView" : 40,
      "componentType" : 5123,
      "count" : 3093,
      "type" : "SCALAR"
    },
    {
      "bufferView" : 41,
      "min" : [ -8.1565, 18.3021, -76.7538 ],
      "max" : [ 8.1565, 22.2122, -68.3815 ],
      "componentType" : 5126,
      "count" : 717,
      "type" : "VEC3"
    },
    {
      "bufferView" : 42,
      "componentType" : 5126,
      "count" : 717,
      "type" : "VEC3"
    },
    {
      "bufferView" : 43,
      "componentType" : 5126,
      "count" : 717,
      "type" : "VEC4"
    },
    {
      "bufferView" : 44,
      "componentType" : 5126,
      "count" : 717,
      "type" : "VEC2"
    },
    {
      "bufferView" : 45,
      "componentType" : 5126,
      "count" : 717,
      "type" : "VEC2"
    },
    {
      "bufferView" : 46,
      "componentType" : 5126,
      "count" : 717,
      "type" : "VEC2"
    },
    {
      "bufferView" : 47,
      "componentType" : 5126,
      "count" : 717,
      "type" : "VEC2"
    },
    {
      "bufferView" : 48,
      "componentType" : 5123,
      "count" : 4917,
      "type" : "SCALAR"
    },
    {
      "bufferView" : 49,
      "min" : [ -7.97366, 17.897, -76.4562 ],
      "max" : [ 7.95295, 19.9811, -68.6334 ],
      "componentType" : 5126,
      "count" : 3231,
      "type" : "VEC3"
    },
    {
      "bufferView" : 50,
      "componentType" : 5126,
      "count" : 3231,
      "type" : "VEC3"
    },
    {
      "bufferView" : 51,
      "componentType" : 5126,
      "count" : 3231,
      "type" : "VEC4"
    },
    {
      "bufferView" : 52,
      "componentType" : 5126,
      "count" : 3231,
      "type" : "VEC2"
    },
    {
      "bufferView" : 53,
      "componentType" : 5126,
      "count" : 3231,
      "type" : "VEC2"
    },
    {
      "bufferView" : 54,
      "componentType" : 5126,
      "count" : 3231,
      "type" : "VEC2"
    },
    {
      "bufferView" : 55,
      "componentType" : 5126,
      "count" : 3231,
      "type" : "VEC2"
    },
    {
      "bufferView" : 56,
      "componentType" : 5123,
      "count" : 2517,
      "type" : "SCALAR"
    },
    {
      "bufferView" : 57,
      "min" : [ -7.17166, 21.6748, -72.813 ],
      "max" : [ 7.17166, 23.026, -72.2495 ],
      "componentType" : 5126,
      "count" : 601,
      "type" : "VEC3"
    },
    {
      "bufferView" : 58,
      "componentType" : 5126,
      "count" : 601,
      "type" : "VEC3"
    },
    {
      "bufferView" : 59,
      "componentType" : 5126,
      "count" : 601,
      "type" : "VEC4"
    },
    {
      "bufferView" : 60,
      "componentType" : 5126,
      "count" : 601,
      "type" : "VEC2"
    },
    {
      "bufferView" : 61,
      "componentType" : 5126,
      "count" : 601,
      "type" : "VEC2"
    },
    {
      "bufferView" : 62,
      "componentType" : 5126,
      "count" : 601,
      "type" : "VEC2"
    },
    {
      "bufferView" : 63,
      "componentType" : 5126,
      "count" : 601,
      "type" : "VEC2"
    },
    {
      "bufferView" : 64,
      "componentType" : 5123,
      "count" : 573,
      "type" : "SCALAR"
    },
    {
      "bufferView" : 65,
      "min" : [ -5.86256, 21.8225, -72.8603 ],
      "max" : [ 5.86256, 22.7215, -72.2495 ],
      "componentType" : 5126,
      "count" : 164,
      "type" : "VEC3"
    },
    {
      "bufferView" : 66,
      "componentType" : 5126,
      "count" : 164,
      "type" : "VEC3"
    },
    {
      "bufferView" : 67,
      "componentType" : 5126,
      "count" : 164,
      "type" : "VEC4"
    },
    {
      "bufferView" : 68,
      "componentType" : 5126,
      "count" : 164,
      "type" : "VEC2"
    },
    {
      "bufferView" : 69,
      "componentType" : 5126,
      "count" : 164,
      "type" : "VEC2"
    },
    {
      "bufferView" : 70,
      "componentType" : 5126,
      "count" : 164,
      "type" : "VEC2"
    },
    {
      "bufferView" : 71,
      "componentType" : 5126,
      "count" : 164,
      "type" : "VEC2"
    },
    {
      "bufferView" : 72,
      "componentType" : 5123,
      "count" : 8319,
      "type" : "SCALAR"
    },
    {
      "bufferView" : 73,
      "min" : [ -8.16982, 18.0983, -76.7068 ],
      "max" : [ 8.16982, 22.151, -68.4454 ],
      "componentType" : 5126,
      "count" : 2102,
      "type" : "VEC3"
    },
    {
      "bufferView" : 74,
      "componentType" : 5126,
      "count" : 2102,
      "type" : "VEC3"
    },
    {
      "bufferView" : 75,
      "componentType" : 5126,
      "count" : 2102,
      "type" : "VEC4"
    },
    {
      "bufferView" : 76,
      "componentType" : 5126,
      "count" : 2102,
      "type" : "VEC2"
    },
    {
      "bufferView" : 77,
      "componentType" : 5126,
      "count" : 2102,
      "type" : "VEC2"
    },
    {
      "bufferView" : 78,
      "componentType" : 5126,
      "count" : 2102,
      "type" : "VEC2"
    },
    {
      "bufferView" : 79,
      "componentType" : 5126,
      "count" : 2102,
      "type" : "VEC2"
    }
  ]
}
