{
  "asset" : {
    "generator" : "UE Viewer (umodel) build 1544 based",
    "version" : "2.0"
  },
  "scene" : 0,
  "scenes" : [
    {
      "nodes" : [ 0 ]
    }
  ],
  "nodes" : [
    {
      "name" : "SM_ENV_LKNVLD_TreeSet_G_Lod1",
      "mesh" : 0
    }
  ],
  "materials" : [
    {
      "name" : "MI_ENV_LKNVLD_Tree_A_Masked_CameraTrans",
      "pbrMetallicRoughness" : {
        "baseColorFactor" : [ 0.3, 0.3, 0.3, 1.0 ],
        "metallicFactor" : 0.1,
        "roughnessFactor" : 0.5
      }
    },
    {
      "name" : "MI_ENV_LKNVLD_LeafMasked_A",
      "pbrMetallicRoughness" : {
        "baseColorFactor" : [ 0.9, 0.3, 0.3, 1.0 ],
        "metallicFactor" : 0.1,
        "roughnessFactor" : 0.5
      }
    },
    {
      "name" : "MI_ENV_LKNVLD_Leaf_A",
      "pbrMetallicRoughness" : {
        "baseColorFactor" : [ 0.3, 0.9, 0.3, 1.0 ],
        "metallicFactor" : 0.1,
        "roughnessFactor" : 0.5
      }
    }
  ],
  "meshes" : [
    {
      "primitives" : [
        {
          "attributes" : {
            "POSITION" : 1,
            "NORMAL" : 2,
            "TANGENT" : 3,
            "COLOR_0" : 4,
            "TEXCOORD_0" : 5,
            "TEXCOORD_1" : 6,
            "TEXCOORD_2" : 7,
            "TEXCOORD_3" : 8
          },
          "indices" : 0,
          "material" : 0
        },
        {
          "attributes" : {
            "POSITION" : 10,
            "NORMAL" : 11,
            "TANGENT" : 12,
            "COLOR_0" : 13,
            "TEXCOORD_0" : 14,
            "TEXCOORD_1" : 15,
            "TEXCOORD_2" : 16,
            "TEXCOORD_3" : 17
          },
          "indices" : 9,
          "material" : 1
        },
        {
          "attributes" : {
            "POSITION" : 19,
            "NORMAL" : 20,
            "TANGENT" : 21,
            "COLOR_0" : 22,
            "TEXCOORD_0" : 23,
            "TEXCOORD_1" : 24,
            "TEXCOORD_2" : 25,
            "TEXCOORD_3" : 26
          },
          "indices" : 18,
          "material" : 2
        }
      ],
      "name" : "SM_ENV_LKNVLD_TreeSet_G_Lod1"
    }
  ],
  "buffers" : [
    {
      "uri" : "SM_ENV_LKNVLD_TreeSet_G_Lod1.bin",
      "byteLength" : 2250756
    }
  ],
  "bufferViews" : [
    {
      "buffer" : 0,
      "byteOffset" : 0,
      "byteLength" : 6980
    },
    {
      "buffer" : 0,
      "byteOffset" : 6980,
      "byteLength" : 29532
    },
    {
      "buffer" : 0,
      "byteOffset" : 36512,
      "byteLength" : 29532
    },
    {
      "buffer" : 0,
      "byteOffset" : 66044,
      "byteLength" : 39376
    },
    {
      "buffer" : 0,
      "byteOffset" : 105420,
      "byteLength" : 9844
    },
    {
      "buffer" : 0,
      "byteOffset" : 115264,
      "byteLength" : 19688
    },
    {
      "buffer" : 0,
      "byteOffset" : 134952,
      "byteLength" : 19688
    },
    {
      "buffer" : 0,
      "byteOffset" : 154640,
      "byteLength" : 19688
    },
    {
      "buffer" : 0,
      "byteOffset" : 174328,
      "byteLength" : 19688
    },
    {
      "buffer" : 0,
      "byteOffset" : 194016,
      "byteLength" : 88436
    },
    {
      "buffer" : 0,
      "byteOffset" : 282452,
      "byteLength" : 241200
    },
    {
      "buffer" : 0,
      "byteOffset" : 523652,
      "byteLength" : 241200
    },
    {
      "buffer" : 0,
      "byteOffset" : 764852,
      "byteLength" : 321600
    },
    {
      "buffer" : 0,
      "byteOffset" : 1086452,
      "byteLength" : 80400
    },
    {
      "buffer" : 0,
      "byteOffset" : 1166852,
      "byteLength" : 160800
    },
    {
      "buffer" : 0,
      "byteOffset" : 1327652,
      "byteLength" : 160800
    },
    {
      "buffer" : 0,
      "byteOffset" : 1488452,
      "byteLength" : 160800
    },
    {
      "buffer" : 0,
      "byteOffset" : 1649252,
      "byteLength" : 160800
    },
    {
      "buffer" : 0,
      "byteOffset" : 1810052,
      "byteLength" : 18068
    },
    {
      "buffer" : 0,
      "byteOffset" : 1828120,
      "byteLength" : 66732
    },
    {
      "buffer" : 0,
      "byteOffset" : 1894852,
      "byteLength" : 66732
    },
    {
      "buffer" : 0,
      "byteOffset" : 1961584,
      "byteLength" : 88976
    },
    {
      "buffer" : 0,
      "byteOffset" : 2050560,
      "byteLength" : 22244
    },
    {
      "buffer" : 0,
      "byteOffset" : 2072804,
      "byteLength" : 44488
    },
    {
      "buffer" : 0,
      "byteOffset" : 2117292,
      "byteLength" : 44488
    },
    {
      "buffer" : 0,
      "byteOffset" : 2161780,
      "byteLength" : 44488
    },
    {
      "buffer" : 0,
      "byteOffset" : 2206268,
      "byteLength" : 44488
    }
  ],
  "accessors" : [
    {
      "bufferView" : 0,
      "componentType" : 5123,
      "count" : 3489,
      "type" : "SCALAR"
    },
    {
      "bufferView" : 1,
      "min" : [ -45.4306, -0.355507, -31.1818 ],
      "max" : [ -29.6822, 10.8858, -16.634 ],
      "componentType" : 5126,
      "count" : 2461,
      "type" : "VEC3"
    },
    {
      "bufferView" : 2,
      "componentType" : 5126,
      "count" : 2461,
      "type" : "VEC3"
    },
    {
      "bufferView" : 3,
      "componentType" : 5126,
      "count" : 2461,
      "type" : "VEC4"
    },
    {
      "bufferView" : 4,
      "normalized" : true,
      "componentType" : 5121,
      "count" : 2461,
      "type" : "VEC4"
    },
    {
      "bufferView" : 5,
      "componentType" : 5126,
      "count" : 2461,
      "type" : "VEC2"
    },
    {
      "bufferView" : 6,
      "componentType" : 5126,
      "count" : 2461,
      "type" : "VEC2"
    },
    {
      "bufferView" : 7,
      "componentType" : 5126,
      "count" : 2461,
      "type" : "VEC2"
    },
    {
      "bufferView" : 8,
      "componentType" : 5126,
      "count" : 2461,
      "type" : "VEC2"
    },
    {
      "bufferView" : 9,
      "componentType" : 5123,
      "count" : 44217,
      "type" : "SCALAR"
    },
    {
      "bufferView" : 10,
      "min" : [ -47.234, 3.10052, -33.0656 ],
      "max" : [ -28.8264, 13.6408, -15.573 ],
      "componentType" : 5126,
      "count" : 20100,
      "type" : "VEC3"
    },
    {
      "bufferView" : 11,
      "componentType" : 5126,
      "count" : 20100,
      "type" : "VEC3"
    },
    {
      "bufferView" : 12,
      "componentType" : 5126,
      "count" : 20100,
      "type" : "VEC4"
    },
    {
      "bufferView" : 13,
      "normalized" : true,
      "componentType" : 5121,
      "count" : 20100,
      "type" : "VEC4"
    },
    {
      "bufferView" : 14,
      "componentType" : 5126,
      "count" : 20100,
      "type" : "VEC2"
    },
    {
      "bufferView" : 15,
      "componentType" : 5126,
      "count" : 20100,
      "type" : "VEC2"
    },
    {
      "bufferView" : 16,
      "componentType" : 5126,
      "count" : 20100,
      "type" : "VEC2"
    },
    {
      "bufferView" : 17,
      "componentType" : 5126,
      "count" : 20100,
      "type" : "VEC2"
    },
    {
      "bufferView" : 18,
      "componentType" : 5123,
      "count" : 9033,
      "type" : "SCALAR"
    },
    {
      "bufferView" : 19,
      "min" : [ -47.0229, 3.28009, -32.7881 ],
      "max" : [ -29.0047, 13.4815, -15.7478 ],
      "componentType" : 5126,
      "count" : 5561,
      "type" : "VEC3"
    },
    {
      "bufferView" : 20,
      "componentType" : 5126,
      "count" : 5561,
      "type" : "VEC3"
    },
    {
      "bufferView" : 21,
      "componentType" : 5126,
      "count" : 5561,
      "type" : "VEC4"
    },
    {
      "bufferView" : 22,
      "normalized" : true,
      "componentType" : 5121,
      "count" : 5561,
      "type" : "VEC4"
    },
    {
      "bufferView" : 23,
      "componentType" : 5126,
      "count" : 5561,
      "type" : "VEC2"
    },
    {
      "bufferView" : 24,
      "componentType" : 5126,
      "count" : 5561,
      "type" : "VEC2"
    },
    {
      "bufferView" : 25,
      "componentType" : 5126,
      "count" : 5561,
      "type" : "VEC2"
    },
    {
      "bufferView" : 26,
      "componentType" : 5126,
      "count" : 5561,
      "type" : "VEC2"
    }
  ]
}
