{
  "asset" : {
    "generator" : "UE Viewer (umodel) build 1544 based",
    "version" : "2.0"
  },
  "scene" : 0,
  "scenes" : [
    {
      "nodes" : [ 0 ]
    }
  ],
  "nodes" : [
    {
      "name" : "SM_ENV_LKNVLD_Ground_HillWalls_COL",
      "mesh" : 0
    }
  ],
  "materials" : [
    {
      "name" : "MI_Wood",
      "pbrMetallicRoughness" : {
        "baseColorFactor" : [ 0.3, 0.3, 0.3, 1.0 ],
        "metallicFactor" : 0.1,
        "roughnessFactor" : 0.5
      }
    }
  ],
  "meshes" : [
    {
      "primitives" : [
        {
          "attributes" : {
            "POSITION" : 1,
            "NORMAL" : 2,
            "TANGENT" : 3,
            "TEXCOORD_0" : 4
          },
          "indices" : 0,
          "material" : 0
        }
      ],
      "name" : "SM_ENV_LKNVLD_Ground_HillWalls_COL"
    }
  ],
  "buffers" : [
    {
      "uri" : "SM_ENV_LKNVLD_Ground_HillWalls_COL.bin",
      "byteLength" : 25704
    }
  ],
  "bufferViews" : [
    {
      "buffer" : 0,
      "byteOffset" : 0,
      "byteLength" : 1512
    },
    {
      "buffer" : 0,
      "byteOffset" : 1512,
      "byteLength" : 6048
    },
    {
      "buffer" : 0,
      "byteOffset" : 7560,
      "byteLength" : 6048
    },
    {
      "buffer" : 0,
      "byteOffset" : 13608,
      "byteLength" : 8064
    },
    {
      "buffer" : 0,
      "byteOffset" : 21672,
      "byteLength" : 4032
    }
  ],
  "accessors" : [
    {
      "bufferView" : 0,
      "componentType" : 5123,
      "count" : 756,
      "type" : "SCALAR"
    },
    {
      "bufferView" : 1,
      "min" : [ -42.6297, -2.79046, -81.078 ],
      "max" : [ 43.8684, 18.6506, -30.5677 ],
      "componentType" : 5126,
      "count" : 504,
      "type" : "VEC3"
    },
    {
      "bufferView" : 2,
      "componentType" : 5126,
      "count" : 504,
      "type" : "VEC3"
    },
    {
      "bufferView" : 3,
      "componentType" : 5126,
      "count" : 504,
      "type" : "VEC4"
    },
    {
      "bufferView" : 4,
      "componentType" : 5126,
      "count" : 504,
      "type" : "VEC2"
    }
  ]
}
