{
  "asset" : {
    "generator" : "UE Viewer (umodel) build 1544 based",
    "version" : "2.0"
  },
  "scene" : 0,
  "scenes" : [
    {
      "nodes" : [ 0 ]
    }
  ],
  "nodes" : [
    {
      "name" : "SM_ENV_LKNVLD_TreeSet_S",
      "mesh" : 0
    }
  ],
  "materials" : [
    {
      "name" : "MI_ENV_LKNVLD_Leaf_A",
      "pbrMetallicRoughness" : {
        "baseColorFactor" : [ 0.3, 0.3, 0.3, 1.0 ],
        "metallicFactor" : 0.1,
        "roughnessFactor" : 0.5
      }
    }
  ],
  "meshes" : [
    {
      "primitives" : [
        {
          "attributes" : {
            "POSITION" : 1,
            "NORMAL" : 2,
            "TANGENT" : 3,
            "TEXCOORD_0" : 4,
            "TEXCOORD_1" : 5,
            "TEXCOORD_2" : 6,
            "TEXCOORD_3" : 7
          },
          "indices" : 0,
          "material" : 0
        }
      ],
      "name" : "SM_ENV_LKNVLD_TreeSet_S"
    }
  ],
  "buffers" : [
    {
      "uri" : "SM_ENV_LKNVLD_TreeSet_S.bin",
      "byteLength" : 131832
    }
  ],
  "bufferViews" : [
    {
      "buffer" : 0,
      "byteOffset" : 0,
      "byteLength" : 17568
    },
    {
      "buffer" : 0,
      "byteOffset" : 17568,
      "byteLength" : 19044
    },
    {
      "buffer" : 0,
      "byteOffset" : 36612,
      "byteLength" : 19044
    },
    {
      "buffer" : 0,
      "byteOffset" : 55656,
      "byteLength" : 25392
    },
    {
      "buffer" : 0,
      "byteOffset" : 81048,
      "byteLength" : 12696
    },
    {
      "buffer" : 0,
      "byteOffset" : 93744,
      "byteLength" : 12696
    },
    {
      "buffer" : 0,
      "byteOffset" : 106440,
      "byteLength" : 12696
    },
    {
      "buffer" : 0,
      "byteOffset" : 119136,
      "byteLength" : 12696
    }
  ],
  "accessors" : [
    {
      "bufferView" : 0,
      "componentType" : 5123,
      "count" : 8784,
      "type" : "SCALAR"
    },
    {
      "bufferView" : 1,
      "min" : [ -589.45, -46.7764, -276.928 ],
      "max" : [ -281.949, 90.2847, -56.3652 ],
      "componentType" : 5126,
      "count" : 1587,
      "type" : "VEC3"
    },
    {
      "bufferView" : 2,
      "componentType" : 5126,
      "count" : 1587,
      "type" : "VEC3"
    },
    {
      "bufferView" : 3,
      "componentType" : 5126,
      "count" : 1587,
      "type" : "VEC4"
    },
    {
      "bufferView" : 4,
      "componentType" : 5126,
      "count" : 1587,
      "type" : "VEC2"
    },
    {
      "bufferView" : 5,
      "componentType" : 5126,
      "count" : 1587,
      "type" : "VEC2"
    },
    {
      "bufferView" : 6,
      "componentType" : 5126,
      "count" : 1587,
      "type" : "VEC2"
    },
    {
      "bufferView" : 7,
      "componentType" : 5126,
      "count" : 1587,
      "type" : "VEC2"
    }
  ]
}
