{
  "asset" : {
    "generator" : "UE Viewer (umodel) build 1544 based",
    "version" : "2.0"
  },
  "scene" : 0,
  "scenes" : [
    {
      "nodes" : [ 0 ]
    }
  ],
  "nodes" : [
    {
      "name" : "SM_ENV_LKNVLD_Building_D",
      "mesh" : 0
    }
  ],
  "materials" : [
    {
      "name" : "MI_ENV_LKNVLD_ConcreteSlabs_01_Gray",
      "pbrMetallicRoughness" : {
        "baseColorFactor" : [ 0.3, 0.3, 0.3, 1.0 ],
        "metallicFactor" : 0.1,
        "roughnessFactor" : 0.5
      }
    },
    {
      "name" : "MI_ENV_LKNVLD_RoofTiles_Yellow",
      "pbrMetallicRoughness" : {
        "baseColorFactor" : [ 0.9, 0.3, 0.3, 1.0 ],
        "metallicFactor" : 0.1,
        "roughnessFactor" : 0.5
      }
    },
    {
      "name" : "MI_T_ENV_LKNVLD_StoneTrim",
      "pbrMetallicRoughness" : {
        "baseColorFactor" : [ 0.3, 0.9, 0.3, 1.0 ],
        "metallicFactor" : 0.1,
        "roughnessFactor" : 0.5
      }
    },
    {
      "name" : "MI_ENV_LKNVLD_RoughTiles",
      "pbrMetallicRoughness" : {
        "baseColorFactor" : [ 0.3, 0.3, 0.9, 1.0 ],
        "metallicFactor" : 0.1,
        "roughnessFactor" : 0.5
      }
    },
    {
      "name" : "MI_ENV_LKNVLD_ConcreteWall_F",
      "pbrMetallicRoughness" : {
        "baseColorFactor" : [ 0.9, 0.9, 0.9, 1.0 ],
        "metallicFactor" : 0.1,
        "roughnessFactor" : 0.5
      }
    },
    {
      "name" : "MI_T_ENV_LKNVLD_StoneStairs",
      "pbrMetallicRoughness" : {
        "baseColorFactor" : [ 0.9, 0.9, 0.3, 1.0 ],
        "metallicFactor" : 0.1,
        "roughnessFactor" : 0.5
      }
    },
    {
      "name" : "MI_ENV_LKNVLD_WoodPlain_Brown",
      "pbrMetallicRoughness" : {
        "baseColorFactor" : [ 0.9, 0.3, 0.9, 1.0 ],
        "metallicFactor" : 0.1,
        "roughnessFactor" : 0.5
      }
    }
  ],
  "meshes" : [
    {
      "primitives" : [
        {
          "attributes" : {
            "POSITION" : 1,
            "NORMAL" : 2,
            "TANGENT" : 3,
            "TEXCOORD_0" : 4,
            "TEXCOORD_1" : 5,
            "TEXCOORD_2" : 6,
            "TEXCOORD_3" : 7
          },
          "indices" : 0,
          "material" : 0
        },
        {
          "attributes" : {
            "POSITION" : 9,
            "NORMAL" : 10,
            "TANGENT" : 11,
            "TEXCOORD_0" : 12,
            "TEXCOORD_1" : 13,
            "TEXCOORD_2" : 14,
            "TEXCOORD_3" : 15
          },
          "indices" : 8,
          "material" : 1
        },
        {
          "attributes" : {
            "POSITION" : 17,
            "NORMAL" : 18,
            "TANGENT" : 19,
            "TEXCOORD_0" : 20,
            "TEXCOORD_1" : 21,
            "TEXCOORD_2" : 22,
            "TEXCOORD_3" : 23
          },
          "indices" : 16,
          "material" : 2
        },
        {
          "attributes" : {
            "POSITION" : 25,
            "NORMAL" : 26,
            "TANGENT" : 27,
            "TEXCOORD_0" : 28,
            "TEXCOORD_1" : 29,
            "TEXCOORD_2" : 30,
            "TEXCOORD_3" : 31
          },
          "indices" : 24,
          "material" : 3
        },
        {
          "attributes" : {
            "POSITION" : 33,
            "NORMAL" : 34,
            "TANGENT" : 35,
            "TEXCOORD_0" : 36,
            "TEXCOORD_1" : 37,
            "TEXCOORD_2" : 38,
            "TEXCOORD_3" : 39
          },
          "indices" : 32,
          "material" : 4
        },
        {
          "attributes" : {
            "POSITION" : 41,
            "NORMAL" : 42,
            "TANGENT" : 43,
            "TEXCOORD_0" : 44,
            "TEXCOORD_1" : 45,
            "TEXCOORD_2" : 46,
            "TEXCOORD_3" : 47
          },
          "indices" : 40,
          "material" : 5
        },
        {
          "attributes" : {
            "POSITION" : 49,
            "NORMAL" : 50,
            "TANGENT" : 51,
            "TEXCOORD_0" : 52,
            "TEXCOORD_1" : 53,
            "TEXCOORD_2" : 54,
            "TEXCOORD_3" : 55
          },
          "indices" : 48,
          "material" : 6
        }
      ],
      "name" : "SM_ENV_LKNVLD_Building_D"
    }
  ],
  "buffers" : [
    {
      "uri" : "SM_ENV_LKNVLD_Building_D.bin",
      "byteLength" : 832664
    }
  ],
  "bufferViews" : [
    {
      "buffer" : 0,
      "byteOffset" : 0,
      "byteLength" : 6972
    },
    {
      "buffer" : 0,
      "byteOffset" : 6972,
      "byteLength" : 13548
    },
    {
      "buffer" : 0,
      "byteOffset" : 20520,
      "byteLength" : 13548
    },
    {
      "buffer" : 0,
      "byteOffset" : 34068,
      "byteLength" : 18064
    },
    {
      "buffer" : 0,
      "byteOffset" : 52132,
      "byteLength" : 9032
    },
    {
      "buffer" : 0,
      "byteOffset" : 61164,
      "byteLength" : 9032
    },
    {
      "buffer" : 0,
      "byteOffset" : 70196,
      "byteLength" : 9032
    },
    {
      "buffer" : 0,
      "byteOffset" : 79228,
      "byteLength" : 9032
    },
    {
      "buffer" : 0,
      "byteOffset" : 88260,
      "byteLength" : 11160
    },
    {
      "buffer" : 0,
      "byteOffset" : 99420,
      "byteLength" : 23760
    },
    {
      "buffer" : 0,
      "byteOffset" : 123180,
      "byteLength" : 23760
    },
    {
      "buffer" : 0,
      "byteOffset" : 146940,
      "byteLength" : 31680
    },
    {
      "buffer" : 0,
      "byteOffset" : 178620,
      "byteLength" : 15840
    },
    {
      "buffer" : 0,
      "byteOffset" : 194460,
      "byteLength" : 15840
    },
    {
      "buffer" : 0,
      "byteOffset" : 210300,
      "byteLength" : 15840
    },
    {
      "buffer" : 0,
      "byteOffset" : 226140,
      "byteLength" : 15840
    },
    {
      "buffer" : 0,
      "byteOffset" : 241980,
      "byteLength" : 1212
    },
    {
      "buffer" : 0,
      "byteOffset" : 243192,
      "byteLength" : 2196
    },
    {
      "buffer" : 0,
      "byteOffset" : 245388,
      "byteLength" : 2196
    },
    {
      "buffer" : 0,
      "byteOffset" : 247584,
      "byteLength" : 2928
    },
    {
      "buffer" : 0,
      "byteOffset" : 250512,
      "byteLength" : 1464
    },
    {
      "buffer" : 0,
      "byteOffset" : 251976,
      "byteLength" : 1464
    },
    {
      "buffer" : 0,
      "byteOffset" : 253440,
      "byteLength" : 1464
    },
    {
      "buffer" : 0,
      "byteOffset" : 254904,
      "byteLength" : 1464
    },
    {
      "buffer" : 0,
      "byteOffset" : 256368,
      "byteLength" : 13908
    },
    {
      "buffer" : 0,
      "byteOffset" : 270276,
      "byteLength" : 35124
    },
    {
      "buffer" : 0,
      "byteOffset" : 305400,
      "byteLength" : 35124
    },
    {
      "buffer" : 0,
      "byteOffset" : 340524,
      "byteLength" : 46832
    },
    {
      "buffer" : 0,
      "byteOffset" : 387356,
      "byteLength" : 23416
    },
    {
      "buffer" : 0,
      "byteOffset" : 410772,
      "byteLength" : 23416
    },
    {
      "buffer" : 0,
      "byteOffset" : 434188,
      "byteLength" : 23416
    },
    {
      "buffer" : 0,
      "byteOffset" : 457604,
      "byteLength" : 23416
    },
    {
      "buffer" : 0,
      "byteOffset" : 481020,
      "byteLength" : 768
    },
    {
      "buffer" : 0,
      "byteOffset" : 481788,
      "byteLength" : 972
    },
    {
      "buffer" : 0,
      "byteOffset" : 482760,
      "byteLength" : 972
    },
    {
      "buffer" : 0,
      "byteOffset" : 483732,
      "byteLength" : 1296
    },
    {
      "buffer" : 0,
      "byteOffset" : 485028,
      "byteLength" : 648
    },
    {
      "buffer" : 0,
      "byteOffset" : 485676,
      "byteLength" : 648
    },
    {
      "buffer" : 0,
      "byteOffset" : 486324,
      "byteLength" : 648
    },
    {
      "buffer" : 0,
      "byteOffset" : 486972,
      "byteLength" : 648
    },
    {
      "buffer" : 0,
      "byteOffset" : 487620,
      "byteLength" : 1472
    },
    {
      "buffer" : 0,
      "byteOffset" : 489092,
      "byteLength" : 3324
    },
    {
      "buffer" : 0,
      "byteOffset" : 492416,
      "byteLength" : 3324
    },
    {
      "buffer" : 0,
      "byteOffset" : 495740,
      "byteLength" : 4432
    },
    {
      "buffer" : 0,
      "byteOffset" : 500172,
      "byteLength" : 2216
    },
    {
      "buffer" : 0,
      "byteOffset" : 502388,
      "byteLength" : 2216
    },
    {
      "buffer" : 0,
      "byteOffset" : 504604,
      "byteLength" : 2216
    },
    {
      "buffer" : 0,
      "byteOffset" : 506820,
      "byteLength" : 2216
    },
    {
      "buffer" : 0,
      "byteOffset" : 509036,
      "byteLength" : 20796
    },
    {
      "buffer" : 0,
      "byteOffset" : 529832,
      "byteLength" : 50472
    },
    {
      "buffer" : 0,
      "byteOffset" : 580304,
      "byteLength" : 50472
    },
    {
      "buffer" : 0,
      "byteOffset" : 630776,
      "byteLength" : 67296
    },
    {
      "buffer" : 0,
      "byteOffset" : 698072,
      "byteLength" : 33648
    },
    {
      "buffer" : 0,
      "byteOffset" : 731720,
      "byteLength" : 33648
    },
    {
      "buffer" : 0,
      "byteOffset" : 765368,
      "byteLength" : 33648
    },
    {
      "buffer" : 0,
      "byteOffset" : 799016,
      "byteLength" : 33648
    }
  ],
  "accessors" : [
    {
      "bufferView" : 0,
      "componentType" : 5123,
      "count" : 3486,
      "type" : "SCALAR"
    },
    {
      "bufferView" : 1,
      "min" : [ 48.1264, 2.1785, -59.8736 ],
      "max" : [ 51.8736, 7.74671, -56.1264 ],
      "componentType" : 5126,
      "count" : 1129,
      "type" : "VEC3"
    },
    {
      "bufferView" : 2,
      "componentType" : 5126,
      "count" : 1129,
      "type" : "VEC3"
    },
    {
      "bufferView" : 3,
      "componentType" : 5126,
      "count" : 1129,
      "type" : "VEC4"
    },
    {
      "bufferView" : 4,
      "componentType" : 5126,
      "count" : 1129,
      "type" : "VEC2"
    },
    {
      "bufferView" : 5,
      "componentType" : 5126,
      "count" : 1129,
      "type" : "VEC2"
    },
    {
      "bufferView" : 6,
      "componentType" : 5126,
      "count" : 1129,
      "type" : "VEC2"
    },
    {
      "bufferView" : 7,
      "componentType" : 5126,
      "count" : 1129,
      "type" : "VEC2"
    },
    {
      "bufferView" : 8,
      "componentType" : 5123,
      "count" : 5580,
      "type" : "SCALAR"
    },
    {
      "bufferView" : 9,
      "min" : [ 48.3536, 5.32811, -59.6464 ],
      "max" : [ 51.6464, 6.71914, -56.3536 ],
      "componentType" : 5126,
      "count" : 1980,
      "type" : "VEC3"
    },
    {
      "bufferView" : 10,
      "componentType" : 5126,
      "count" : 1980,
      "type" : "VEC3"
    },
    {
      "bufferView" : 11,
      "componentType" : 5126,
      "count" : 1980,
      "type" : "VEC4"
    },
    {
      "bufferView" : 12,
      "componentType" : 5126,
      "count" : 1980,
      "type" : "VEC2"
    },
    {
      "bufferView" : 13,
      "componentType" : 5126,
      "count" : 1980,
      "type" : "VEC2"
    },
    {
      "bufferView" : 14,
      "componentType" : 5126,
      "count" : 1980,
      "type" : "VEC2"
    },
    {
      "bufferView" : 15,
      "componentType" : 5126,
      "count" : 1980,
      "type" : "VEC2"
    },
    {
      "bufferView" : 16,
      "componentType" : 5123,
      "count" : 606,
      "type" : "SCALAR"
    },
    {
      "bufferView" : 17,
      "min" : [ 46, -2.06e-06, -62 ],
      "max" : [ 54, 4.02, -51.1404 ],
      "componentType" : 5126,
      "count" : 183,
      "type" : "VEC3"
    },
    {
      "bufferView" : 18,
      "componentType" : 5126,
      "count" : 183,
      "type" : "VEC3"
    },
    {
      "bufferView" : 19,
      "componentType" : 5126,
      "count" : 183,
      "type" : "VEC4"
    },
    {
      "bufferView" : 20,
      "componentType" : 5126,
      "count" : 183,
      "type" : "VEC2"
    },
    {
      "bufferView" : 21,
      "componentType" : 5126,
      "count" : 183,
      "type" : "VEC2"
    },
    {
      "bufferView" : 22,
      "componentType" : 5126,
      "count" : 183,
      "type" : "VEC2"
    },
    {
      "bufferView" : 23,
      "componentType" : 5126,
      "count" : 183,
      "type" : "VEC2"
    },
    {
      "bufferView" : 24,
      "componentType" : 5123,
      "count" : 6954,
      "type" : "SCALAR"
    },
    {
      "bufferView" : 25,
      "min" : [ 45.6474, -1.07e-06, -62.2558 ],
      "max" : [ 54.3285, 2.45618, -50.55 ],
      "componentType" : 5126,
      "count" : 2927,
      "type" : "VEC3"
    },
    {
      "bufferView" : 26,
      "componentType" : 5126,
      "count" : 2927,
      "type" : "VEC3"
    },
    {
      "bufferView" : 27,
      "componentType" : 5126,
      "count" : 2927,
      "type" : "VEC4"
    },
    {
      "bufferView" : 28,
      "componentType" : 5126,
      "count" : 2927,
      "type" : "VEC2"
    },
    {
      "bufferView" : 29,
      "componentType" : 5126,
      "count" : 2927,
      "type" : "VEC2"
    },
    {
      "bufferView" : 30,
      "componentType" : 5126,
      "count" : 2927,
      "type" : "VEC2"
    },
    {
      "bufferView" : 31,
      "componentType" : 5126,
      "count" : 2927,
      "type" : "VEC2"
    },
    {
      "bufferView" : 32,
      "componentType" : 5123,
      "count" : 384,
      "type" : "SCALAR"
    },
    {
      "bufferView" : 33,
      "min" : [ 48, 2.18502, -60 ],
      "max" : [ 52, 2.39098, -56 ],
      "componentType" : 5126,
      "count" : 81,
      "type" : "VEC3"
    },
    {
      "bufferView" : 34,
      "componentType" : 5126,
      "count" : 81,
      "type" : "VEC3"
    },
    {
      "bufferView" : 35,
      "componentType" : 5126,
      "count" : 81,
      "type" : "VEC4"
    },
    {
      "bufferView" : 36,
      "componentType" : 5126,
      "count" : 81,
      "type" : "VEC2"
    },
    {
      "bufferView" : 37,
      "componentType" : 5126,
      "count" : 81,
      "type" : "VEC2"
    },
    {
      "bufferView" : 38,
      "componentType" : 5126,
      "count" : 81,
      "type" : "VEC2"
    },
    {
      "bufferView" : 39,
      "componentType" : 5126,
      "count" : 81,
      "type" : "VEC2"
    },
    {
      "bufferView" : 40,
      "componentType" : 5123,
      "count" : 735,
      "type" : "SCALAR"
    },
    {
      "bufferView" : 41,
      "min" : [ 48.3925, -0.0136975, -53.7045 ],
      "max" : [ 51.617, 1.39858, -50.991 ],
      "componentType" : 5126,
      "count" : 277,
      "type" : "VEC3"
    },
    {
      "bufferView" : 42,
      "componentType" : 5126,
      "count" : 277,
      "type" : "VEC3"
    },
    {
      "bufferView" : 43,
      "componentType" : 5126,
      "count" : 277,
      "type" : "VEC4"
    },
    {
      "bufferView" : 44,
      "componentType" : 5126,
      "count" : 277,
      "type" : "VEC2"
    },
    {
      "bufferView" : 45,
      "componentType" : 5126,
      "count" : 277,
      "type" : "VEC2"
    },
    {
      "bufferView" : 46,
      "componentType" : 5126,
      "count" : 277,
      "type" : "VEC2"
    },
    {
      "bufferView" : 47,
      "componentType" : 5126,
      "count" : 277,
      "type" : "VEC2"
    },
    {
      "bufferView" : 48,
      "componentType" : 5123,
      "count" : 10398,
      "type" : "SCALAR"
    },
    {
      "bufferView" : 49,
      "min" : [ 45.9, 1.24856, -62 ],
      "max" : [ 54.1, 3.00718, -53.9 ],
      "componentType" : 5126,
      "count" : 4206,
      "type" : "VEC3"
    },
    {
      "bufferView" : 50,
      "componentType" : 5126,
      "count" : 4206,
      "type" : "VEC3"
    },
    {
      "bufferView" : 51,
      "componentType" : 5126,
      "count" : 4206,
      "type" : "VEC4"
    },
    {
      "bufferView" : 52,
      "componentType" : 5126,
      "count" : 4206,
      "type" : "VEC2"
    },
    {
      "bufferView" : 53,
      "componentType" : 5126,
      "count" : 4206,
      "type" : "VEC2"
    },
    {
      "bufferView" : 54,
      "componentType" : 5126,
      "count" : 4206,
      "type" : "VEC2"
    },
    {
      "bufferView" : 55,
      "componentType" : 5126,
      "count" : 4206,
      "type" : "VEC2"
    }
  ]
}
