{
  "asset" : {
    "generator" : "UE Viewer (umodel) build 1544 based",
    "version" : "2.0"
  },
  "scene" : 0,
  "scenes" : [
    {
      "nodes" : [ 0 ]
    }
  ],
  "nodes" : [
    {
      "name" : "SM_ENV_LKNVLD_Lobbydrum",
      "mesh" : 0
    }
  ],
  "materials" : [
    {
      "name" : "MI_ENV_LKNVLD_Event_HL_WoodBlack_A_Trans",
      "pbrMetallicRoughness" : {
        "baseColorFactor" : [ 0.3, 0.3, 0.3, 1.0 ],
        "metallicFactor" : 0.1,
        "roughnessFactor" : 0.5
      }
    },
    {
      "name" : "MI_ENV_LKNVLD_Event_HL_WoodenStage_Emissive_A_Trans",
      "pbrMetallicRoughness" : {
        "baseColorFactor" : [ 0.9, 0.3, 0.3, 1.0 ],
        "metallicFactor" : 0.1,
        "roughnessFactor" : 0.5
      }
    },
    {
      "name" : "MI_ENV_LKNVLD_Event_HL_Metal_B_Trans",
      "pbrMetallicRoughness" : {
        "baseColorFactor" : [ 0.3, 0.9, 0.3, 1.0 ],
        "metallicFactor" : 0.1,
        "roughnessFactor" : 0.5
      }
    },
    {
      "name" : "MI_ENV_LKNVLD_WoodPillar_A",
      "pbrMetallicRoughness" : {
        "baseColorFactor" : [ 0.3, 0.3, 0.9, 1.0 ],
        "metallicFactor" : 0.1,
        "roughnessFactor" : 0.5
      }
    }
  ],
  "meshes" : [
    {
      "primitives" : [
        {
          "attributes" : {
            "POSITION" : 1,
            "NORMAL" : 2,
            "TANGENT" : 3,
            "COLOR_0" : 4,
            "TEXCOORD_0" : 5,
            "TEXCOORD_1" : 6,
            "TEXCOORD_2" : 7,
            "TEXCOORD_3" : 8
          },
          "indices" : 0,
          "material" : 0
        },
        {
          "attributes" : {
            "POSITION" : 10,
            "NORMAL" : 11,
            "TANGENT" : 12,
            "COLOR_0" : 13,
            "TEXCOORD_0" : 14,
            "TEXCOORD_1" : 15,
            "TEXCOORD_2" : 16,
            "TEXCOORD_3" : 17
          },
          "indices" : 9,
          "material" : 1
        },
        {
          "attributes" : {
            "POSITION" : 19,
            "NORMAL" : 20,
            "TANGENT" : 21,
            "COLOR_0" : 22,
            "TEXCOORD_0" : 23,
            "TEXCOORD_1" : 24,
            "TEXCOORD_2" : 25,
            "TEXCOORD_3" : 26
          },
          "indices" : 18,
          "material" : 2
        },
        {
          "attributes" : {
            "POSITION" : 28,
            "NORMAL" : 29,
            "TANGENT" : 30,
            "COLOR_0" : 31,
            "TEXCOORD_0" : 32,
            "TEXCOORD_1" : 33,
            "TEXCOORD_2" : 34,
            "TEXCOORD_3" : 35
          },
          "indices" : 27,
          "material" : 3
        }
      ],
      "name" : "SM_ENV_LKNVLD_Lobbydrum"
    }
  ],
  "buffers" : [
    {
      "uri" : "SM_ENV_LKNVLD_Lobbydrum.bin",
      "byteLength" : 165148
    }
  ],
  "bufferViews" : [
    {
      "buffer" : 0,
      "byteOffset" : 0,
      "byteLength" : 2880
    },
    {
      "buffer" : 0,
      "byteOffset" : 2880,
      "byteLength" : 3300
    },
    {
      "buffer" : 0,
      "byteOffset" : 6180,
      "byteLength" : 3300
    },
    {
      "buffer" : 0,
      "byteOffset" : 9480,
      "byteLength" : 4400
    },
    {
      "buffer" : 0,
      "byteOffset" : 13880,
      "byteLength" : 1100
    },
    {
      "buffer" : 0,
      "byteOffset" : 14980,
      "byteLength" : 2200
    },
    {
      "buffer" : 0,
      "byteOffset" : 17180,
      "byteLength" : 2200
    },
    {
      "buffer" : 0,
      "byteOffset" : 19380,
      "byteLength" : 2200
    },
    {
      "buffer" : 0,
      "byteOffset" : 21580,
      "byteLength" : 2200
    },
    {
      "buffer" : 0,
      "byteOffset" : 23780,
      "byteLength" : 2880
    },
    {
      "buffer" : 0,
      "byteOffset" : 26660,
      "byteLength" : 3480
    },
    {
      "buffer" : 0,
      "byteOffset" : 30140,
      "byteLength" : 3480
    },
    {
      "buffer" : 0,
      "byteOffset" : 33620,
      "byteLength" : 4640
    },
    {
      "buffer" : 0,
      "byteOffset" : 38260,
      "byteLength" : 1160
    },
    {
      "buffer" : 0,
      "byteOffset" : 39420,
      "byteLength" : 2320
    },
    {
      "buffer" : 0,
      "byteOffset" : 41740,
      "byteLength" : 2320
    },
    {
      "buffer" : 0,
      "byteOffset" : 44060,
      "byteLength" : 2320
    },
    {
      "buffer" : 0,
      "byteOffset" : 46380,
      "byteLength" : 2320
    },
    {
      "buffer" : 0,
      "byteOffset" : 48700,
      "byteLength" : 9120
    },
    {
      "buffer" : 0,
      "byteOffset" : 57820,
      "byteLength" : 13008
    },
    {
      "buffer" : 0,
      "byteOffset" : 70828,
      "byteLength" : 13008
    },
    {
      "buffer" : 0,
      "byteOffset" : 83836,
      "byteLength" : 17344
    },
    {
      "buffer" : 0,
      "byteOffset" : 101180,
      "byteLength" : 4336
    },
    {
      "buffer" : 0,
      "byteOffset" : 105516,
      "byteLength" : 8672
    },
    {
      "buffer" : 0,
      "byteOffset" : 114188,
      "byteLength" : 8672
    },
    {
      "buffer" : 0,
      "byteOffset" : 122860,
      "byteLength" : 8672
    },
    {
      "buffer" : 0,
      "byteOffset" : 131532,
      "byteLength" : 8672
    },
    {
      "buffer" : 0,
      "byteOffset" : 140204,
      "byteLength" : 1536
    },
    {
      "buffer" : 0,
      "byteOffset" : 141740,
      "byteLength" : 3696
    },
    {
      "buffer" : 0,
      "byteOffset" : 145436,
      "byteLength" : 3696
    },
    {
      "buffer" : 0,
      "byteOffset" : 149132,
      "byteLength" : 4928
    },
    {
      "buffer" : 0,
      "byteOffset" : 154060,
      "byteLength" : 1232
    },
    {
      "buffer" : 0,
      "byteOffset" : 155292,
      "byteLength" : 2464
    },
    {
      "buffer" : 0,
      "byteOffset" : 157756,
      "byteLength" : 2464
    },
    {
      "buffer" : 0,
      "byteOffset" : 160220,
      "byteLength" : 2464
    },
    {
      "buffer" : 0,
      "byteOffset" : 162684,
      "byteLength" : 2464
    }
  ],
  "accessors" : [
    {
      "bufferView" : 0,
      "componentType" : 5123,
      "count" : 1440,
      "type" : "SCALAR"
    },
    {
      "bufferView" : 1,
      "min" : [ -0.631504, 0.0476135, -0.722019 ],
      "max" : [ 0.631505, 1.4581, 0.624902 ],
      "componentType" : 5126,
      "count" : 275,
      "type" : "VEC3"
    },
    {
      "bufferView" : 2,
      "componentType" : 5126,
      "count" : 275,
      "type" : "VEC3"
    },
    {
      "bufferView" : 3,
      "componentType" : 5126,
      "count" : 275,
      "type" : "VEC4"
    },
    {
      "bufferView" : 4,
      "normalized" : true,
      "componentType" : 5121,
      "count" : 275,
      "type" : "VEC4"
    },
    {
      "bufferView" : 5,
      "componentType" : 5126,
      "count" : 275,
      "type" : "VEC2"
    },
    {
      "bufferView" : 6,
      "componentType" : 5126,
      "count" : 275,
      "type" : "VEC2"
    },
    {
      "bufferView" : 7,
      "componentType" : 5126,
      "count" : 275,
      "type" : "VEC2"
    },
    {
      "bufferView" : 8,
      "componentType" : 5126,
      "count" : 275,
      "type" : "VEC2"
    },
    {
      "bufferView" : 9,
      "componentType" : 5123,
      "count" : 1440,
      "type" : "SCALAR"
    },
    {
      "bufferView" : 10,
      "min" : [ -0.578938, 0.0400774, -0.744135 ],
      "max" : [ 0.578938, 1.46564, 0.647017 ],
      "componentType" : 5126,
      "count" : 290,
      "type" : "VEC3"
    },
    {
      "bufferView" : 11,
      "componentType" : 5126,
      "count" : 290,
      "type" : "VEC3"
    },
    {
      "bufferView" : 12,
      "componentType" : 5126,
      "count" : 290,
      "type" : "VEC4"
    },
    {
      "bufferView" : 13,
      "normalized" : true,
      "componentType" : 5121,
      "count" : 290,
      "type" : "VEC4"
    },
    {
      "bufferView" : 14,
      "componentType" : 5126,
      "count" : 290,
      "type" : "VEC2"
    },
    {
      "bufferView" : 15,
      "componentType" : 5126,
      "count" : 290,
      "type" : "VEC2"
    },
    {
      "bufferView" : 16,
      "componentType" : 5126,
      "count" : 290,
      "type" : "VEC2"
    },
    {
      "bufferView" : 17,
      "componentType" : 5126,
      "count" : 290,
      "type" : "VEC2"
    },
    {
      "bufferView" : 18,
      "componentType" : 5123,
      "count" : 4560,
      "type" : "SCALAR"
    },
    {
      "bufferView" : 19,
      "min" : [ -0.54371, 0.0622138, -0.743687 ],
      "max" : [ 0.54371, 1.4435, 0.646569 ],
      "componentType" : 5126,
      "count" : 1084,
      "type" : "VEC3"
    },
    {
      "bufferView" : 20,
      "componentType" : 5126,
      "count" : 1084,
      "type" : "VEC3"
    },
    {
      "bufferView" : 21,
      "componentType" : 5126,
      "count" : 1084,
      "type" : "VEC4"
    },
    {
      "bufferView" : 22,
      "normalized" : true,
      "componentType" : 5121,
      "count" : 1084,
      "type" : "VEC4"
    },
    {
      "bufferView" : 23,
      "componentType" : 5126,
      "count" : 1084,
      "type" : "VEC2"
    },
    {
      "bufferView" : 24,
      "componentType" : 5126,
      "count" : 1084,
      "type" : "VEC2"
    },
    {
      "bufferView" : 25,
      "componentType" : 5126,
      "count" : 1084,
      "type" : "VEC2"
    },
    {
      "bufferView" : 26,
      "componentType" : 5126,
      "count" : 1084,
      "type" : "VEC2"
    },
    {
      "bufferView" : 27,
      "componentType" : 5123,
      "count" : 768,
      "type" : "SCALAR"
    },
    {
      "bufferView" : 28,
      "min" : [ -0.583166, -2.28882e-07, -0.538755 ],
      "max" : [ 0.583166, 0.365627, 0.605004 ],
      "componentType" : 5126,
      "count" : 308,
      "type" : "VEC3"
    },
    {
      "bufferView" : 29,
      "componentType" : 5126,
      "count" : 308,
      "type" : "VEC3"
    },
    {
      "bufferView" : 30,
      "componentType" : 5126,
      "count" : 308,
      "type" : "VEC4"
    },
    {
      "bufferView" : 31,
      "normalized" : true,
      "componentType" : 5121,
      "count" : 308,
      "type" : "VEC4"
    },
    {
      "bufferView" : 32,
      "componentType" : 5126,
      "count" : 308,
      "type" : "VEC2"
    },
    {
      "bufferView" : 33,
      "componentType" : 5126,
      "count" : 308,
      "type" : "VEC2"
    },
    {
      "bufferView" : 34,
      "componentType" : 5126,
      "count" : 308,
      "type" : "VEC2"
    },
    {
      "bufferView" : 35,
      "componentType" : 5126,
      "count" : 308,
      "type" : "VEC2"
    }
  ]
}
