{
  "asset" : {
    "generator" : "UE Viewer (umodel) build 1544 based",
    "version" : "2.0"
  },
  "scene" : 0,
  "scenes" : [
    {
      "nodes" : [ 0 ]
    }
  ],
  "nodes" : [
    {
      "name" : "SM_ENV_LKNVLD_RockMiddle_B_Lod4",
      "mesh" : 0
    }
  ],
  "materials" : [
    {
      "name" : "MI_ENV_LKNVLD_MiddleRock_A_LOD",
      "pbrMetallicRoughness" : {
        "baseColorFactor" : [ 0.3, 0.3, 0.3, 1.0 ],
        "metallicFactor" : 0.1,
        "roughnessFactor" : 0.5
      }
    }
  ],
  "meshes" : [
    {
      "primitives" : [
        {
          "attributes" : {
            "POSITION" : 1,
            "NORMAL" : 2,
            "TANGENT" : 3,
            "COLOR_0" : 4,
            "TEXCOORD_0" : 5,
            "TEXCOORD_1" : 6,
            "TEXCOORD_2" : 7,
            "TEXCOORD_3" : 8
          },
          "indices" : 0,
          "material" : 0
        }
      ],
      "name" : "SM_ENV_LKNVLD_RockMiddle_B_Lod4"
    }
  ],
  "buffers" : [
    {
      "uri" : "SM_ENV_LKNVLD_RockMiddle_B_Lod4.bin",
      "byteLength" : 33688
    }
  ],
  "bufferViews" : [
    {
      "buffer" : 0,
      "byteOffset" : 0,
      "byteLength" : 3972
    },
    {
      "buffer" : 0,
      "byteOffset" : 3972,
      "byteLength" : 4692
    },
    {
      "buffer" : 0,
      "byteOffset" : 8664,
      "byteLength" : 4692
    },
    {
      "buffer" : 0,
      "byteOffset" : 13356,
      "byteLength" : 6256
    },
    {
      "buffer" : 0,
      "byteOffset" : 19612,
      "byteLength" : 1564
    },
    {
      "buffer" : 0,
      "byteOffset" : 21176,
      "byteLength" : 3128
    },
    {
      "buffer" : 0,
      "byteOffset" : 24304,
      "byteLength" : 3128
    },
    {
      "buffer" : 0,
      "byteOffset" : 27432,
      "byteLength" : 3128
    },
    {
      "buffer" : 0,
      "byteOffset" : 30560,
      "byteLength" : 3128
    }
  ],
  "accessors" : [
    {
      "bufferView" : 0,
      "componentType" : 5123,
      "count" : 1986,
      "type" : "SCALAR"
    },
    {
      "bufferView" : 1,
      "min" : [ 28.9442, -16.7531, -50.5111 ],
      "max" : [ 34.8499, -12.5649, -46.4983 ],
      "componentType" : 5126,
      "count" : 391,
      "type" : "VEC3"
    },
    {
      "bufferView" : 2,
      "componentType" : 5126,
      "count" : 391,
      "type" : "VEC3"
    },
    {
      "bufferView" : 3,
      "componentType" : 5126,
      "count" : 391,
      "type" : "VEC4"
    },
    {
      "bufferView" : 4,
      "normalized" : true,
      "componentType" : 5121,
      "count" : 391,
      "type" : "VEC4"
    },
    {
      "bufferView" : 5,
      "componentType" : 5126,
      "count" : 391,
      "type" : "VEC2"
    },
    {
      "bufferView" : 6,
      "componentType" : 5126,
      "count" : 391,
      "type" : "VEC2"
    },
    {
      "bufferView" : 7,
      "componentType" : 5126,
      "count" : 391,
      "type" : "VEC2"
    },
    {
      "bufferView" : 8,
      "componentType" : 5126,
      "count" : 391,
      "type" : "VEC2"
    }
  ]
}
