{
  "asset" : {
    "generator" : "UE Viewer (umodel) build 1544 based",
    "version" : "2.0"
  },
  "scene" : 0,
  "scenes" : [
    {
      "nodes" : [ 0 ]
    }
  ],
  "nodes" : [
    {
      "name" : "SM_ENV_LKNVLD_InnSignboard_B",
      "mesh" : 0
    }
  ],
  "materials" : [
    {
      "name" : "MI_ENV_LKNVLD_WoodPlain_Brown",
      "pbrMetallicRoughness" : {
        "baseColorFactor" : [ 0.3, 0.3, 0.3, 1.0 ],
        "metallicFactor" : 0.1,
        "roughnessFactor" : 0.5
      }
    },
    {
      "name" : "MI_ENV_LKNVLD_InnSignboard_C",
      "pbrMetallicRoughness" : {
        "baseColorFactor" : [ 0.9, 0.3, 0.3, 1.0 ],
        "metallicFactor" : 0.1,
        "roughnessFactor" : 0.5
      }
    },
    {
      "name" : "MI_ENV_LKNVLD_Roof_A",
      "pbrMetallicRoughness" : {
        "baseColorFactor" : [ 0.3, 0.9, 0.3, 1.0 ],
        "metallicFactor" : 0.1,
        "roughnessFactor" : 0.5
      }
    }
  ],
  "meshes" : [
    {
      "primitives" : [
        {
          "attributes" : {
            "POSITION" : 1,
            "NORMAL" : 2,
            "TANGENT" : 3,
            "TEXCOORD_0" : 4,
            "TEXCOORD_1" : 5,
            "TEXCOORD_2" : 6,
            "TEXCOORD_3" : 7
          },
          "indices" : 0,
          "material" : 0
        },
        {
          "attributes" : {
            "POSITION" : 9,
            "NORMAL" : 10,
            "TANGENT" : 11,
            "TEXCOORD_0" : 12,
            "TEXCOORD_1" : 13,
            "TEXCOORD_2" : 14,
            "TEXCOORD_3" : 15
          },
          "indices" : 8,
          "material" : 1
        },
        {
          "attributes" : {
            "POSITION" : 17,
            "NORMAL" : 18,
            "TANGENT" : 19,
            "TEXCOORD_0" : 20,
            "TEXCOORD_1" : 21,
            "TEXCOORD_2" : 22,
            "TEXCOORD_3" : 23
          },
          "indices" : 16,
          "material" : 2
        }
      ],
      "name" : "SM_ENV_LKNVLD_InnSignboard_B"
    }
  ],
  "buffers" : [
    {
      "uri" : "SM_ENV_LKNVLD_InnSignboard_B.bin",
      "byteLength" : 165504
    }
  ],
  "bufferViews" : [
    {
      "buffer" : 0,
      "byteOffset" : 0,
      "byteLength" : 5016
    },
    {
      "buffer" : 0,
      "byteOffset" : 5016,
      "byteLength" : 12324
    },
    {
      "buffer" : 0,
      "byteOffset" : 17340,
      "byteLength" : 12324
    },
    {
      "buffer" : 0,
      "byteOffset" : 29664,
      "byteLength" : 16432
    },
    {
      "buffer" : 0,
      "byteOffset" : 46096,
      "byteLength" : 8216
    },
    {
      "buffer" : 0,
      "byteOffset" : 54312,
      "byteLength" : 8216
    },
    {
      "buffer" : 0,
      "byteOffset" : 62528,
      "byteLength" : 8216
    },
    {
      "buffer" : 0,
      "byteOffset" : 70744,
      "byteLength" : 8216
    },
    {
      "buffer" : 0,
      "byteOffset" : 78960,
      "byteLength" : 4440
    },
    {
      "buffer" : 0,
      "byteOffset" : 83400,
      "byteLength" : 5724
    },
    {
      "buffer" : 0,
      "byteOffset" : 89124,
      "byteLength" : 5724
    },
    {
      "buffer" : 0,
      "byteOffset" : 94848,
      "byteLength" : 7632
    },
    {
      "buffer" : 0,
      "byteOffset" : 102480,
      "byteLength" : 3816
    },
    {
      "buffer" : 0,
      "byteOffset" : 106296,
      "byteLength" : 3816
    },
    {
      "buffer" : 0,
      "byteOffset" : 110112,
      "byteLength" : 3816
    },
    {
      "buffer" : 0,
      "byteOffset" : 113928,
      "byteLength" : 3816
    },
    {
      "buffer" : 0,
      "byteOffset" : 117744,
      "byteLength" : 2400
    },
    {
      "buffer" : 0,
      "byteOffset" : 120144,
      "byteLength" : 7560
    },
    {
      "buffer" : 0,
      "byteOffset" : 127704,
      "byteLength" : 7560
    },
    {
      "buffer" : 0,
      "byteOffset" : 135264,
      "byteLength" : 10080
    },
    {
      "buffer" : 0,
      "byteOffset" : 145344,
      "byteLength" : 5040
    },
    {
      "buffer" : 0,
      "byteOffset" : 150384,
      "byteLength" : 5040
    },
    {
      "buffer" : 0,
      "byteOffset" : 155424,
      "byteLength" : 5040
    },
    {
      "buffer" : 0,
      "byteOffset" : 160464,
      "byteLength" : 5040
    }
  ],
  "accessors" : [
    {
      "bufferView" : 0,
      "componentType" : 5123,
      "count" : 2508,
      "type" : "SCALAR"
    },
    {
      "bufferView" : 1,
      "min" : [ -1.18901, -1.13687e-15, -0.432926 ],
      "max" : [ 0.103118, 2.67026, 0.432926 ],
      "componentType" : 5126,
      "count" : 1027,
      "type" : "VEC3"
    },
    {
      "bufferView" : 2,
      "componentType" : 5126,
      "count" : 1027,
      "type" : "VEC3"
    },
    {
      "bufferView" : 3,
      "componentType" : 5126,
      "count" : 1027,
      "type" : "VEC4"
    },
    {
      "bufferView" : 4,
      "componentType" : 5126,
      "count" : 1027,
      "type" : "VEC2"
    },
    {
      "bufferView" : 5,
      "componentType" : 5126,
      "count" : 1027,
      "type" : "VEC2"
    },
    {
      "bufferView" : 6,
      "componentType" : 5126,
      "count" : 1027,
      "type" : "VEC2"
    },
    {
      "bufferView" : 7,
      "componentType" : 5126,
      "count" : 1027,
      "type" : "VEC2"
    },
    {
      "bufferView" : 8,
      "componentType" : 5123,
      "count" : 2220,
      "type" : "SCALAR"
    },
    {
      "bufferView" : 9,
      "min" : [ -1.02618, 1.39431, -0.340524 ],
      "max" : [ -0.345071, 2.34049, 0.340584 ],
      "componentType" : 5126,
      "count" : 477,
      "type" : "VEC3"
    },
    {
      "bufferView" : 10,
      "componentType" : 5126,
      "count" : 477,
      "type" : "VEC3"
    },
    {
      "bufferView" : 11,
      "componentType" : 5126,
      "count" : 477,
      "type" : "VEC4"
    },
    {
      "bufferView" : 12,
      "componentType" : 5126,
      "count" : 477,
      "type" : "VEC2"
    },
    {
      "bufferView" : 13,
      "componentType" : 5126,
      "count" : 477,
      "type" : "VEC2"
    },
    {
      "bufferView" : 14,
      "componentType" : 5126,
      "count" : 477,
      "type" : "VEC2"
    },
    {
      "bufferView" : 15,
      "componentType" : 5126,
      "count" : 477,
      "type" : "VEC2"
    },
    {
      "bufferView" : 16,
      "componentType" : 5123,
      "count" : 1200,
      "type" : "SCALAR"
    },
    {
      "bufferView" : 17,
      "min" : [ -1.04752, 2.16735, -0.50198 ],
      "max" : [ -0.133357, 2.60031, 0.50198 ],
      "componentType" : 5126,
      "count" : 630,
      "type" : "VEC3"
    },
    {
      "bufferView" : 18,
      "componentType" : 5126,
      "count" : 630,
      "type" : "VEC3"
    },
    {
      "bufferView" : 19,
      "componentType" : 5126,
      "count" : 630,
      "type" : "VEC4"
    },
    {
      "bufferView" : 20,
      "componentType" : 5126,
      "count" : 630,
      "type" : "VEC2"
    },
    {
      "bufferView" : 21,
      "componentType" : 5126,
      "count" : 630,
      "type" : "VEC2"
    },
    {
      "bufferView" : 22,
      "componentType" : 5126,
      "count" : 630,
      "type" : "VEC2"
    },
    {
      "bufferView" : 23,
      "componentType" : 5126,
      "count" : 630,
      "type" : "VEC2"
    }
  ]
}
