{
  "asset" : {
    "generator" : "UE Viewer (umodel) build 1544 based",
    "version" : "2.0"
  },
  "scene" : 0,
  "scenes" : [
    {
      "nodes" : [ 0 ]
    }
  ],
  "nodes" : [
    {
      "name" : "SM_ENV_LKNVLD_Event_TeamFlag_A",
      "mesh" : 0
    }
  ],
  "materials" : [
    {
      "name" : "MI_ENV_LKNVLD_Event_TeamFlag_A",
      "pbrMetallicRoughness" : {
        "baseColorFactor" : [ 0.3, 0.3, 0.3, 1.0 ],
        "metallicFactor" : 0.1,
        "roughnessFactor" : 0.5
      }
    }
  ],
  "meshes" : [
    {
      "primitives" : [
        {
          "attributes" : {
            "POSITION" : 1,
            "NORMAL" : 2,
            "TANGENT" : 3,
            "COLOR_0" : 4,
            "TEXCOORD_0" : 5,
            "TEXCOORD_1" : 6,
            "TEXCOORD_2" : 7,
            "TEXCOORD_3" : 8
          },
          "indices" : 0,
          "material" : 0
        }
      ],
      "name" : "SM_ENV_LKNVLD_Event_TeamFlag_A"
    }
  ],
  "buffers" : [
    {
      "uri" : "SM_ENV_LKNVLD_Event_TeamFlag_A.bin",
      "byteLength" : 119320
    }
  ],
  "bufferViews" : [
    {
      "buffer" : 0,
      "byteOffset" : 0,
      "byteLength" : 9120
    },
    {
      "buffer" : 0,
      "byteOffset" : 9120,
      "byteLength" : 17400
    },
    {
      "buffer" : 0,
      "byteOffset" : 26520,
      "byteLength" : 17400
    },
    {
      "buffer" : 0,
      "byteOffset" : 43920,
      "byteLength" : 23200
    },
    {
      "buffer" : 0,
      "byteOffset" : 67120,
      "byteLength" : 5800
    },
    {
      "buffer" : 0,
      "byteOffset" : 72920,
      "byteLength" : 11600
    },
    {
      "buffer" : 0,
      "byteOffset" : 84520,
      "byteLength" : 11600
    },
    {
      "buffer" : 0,
      "byteOffset" : 96120,
      "byteLength" : 11600
    },
    {
      "buffer" : 0,
      "byteOffset" : 107720,
      "byteLength" : 11600
    }
  ],
  "accessors" : [
    {
      "bufferView" : 0,
      "componentType" : 5123,
      "count" : 4560,
      "type" : "SCALAR"
    },
    {
      "bufferView" : 1,
      "min" : [ -20.4186, 4.87857, 32.6881 ],
      "max" : [ 19.8373, 10.3619, 55.5873 ],
      "componentType" : 5126,
      "count" : 1450,
      "type" : "VEC3"
    },
    {
      "bufferView" : 2,
      "componentType" : 5126,
      "count" : 1450,
      "type" : "VEC3"
    },
    {
      "bufferView" : 3,
      "componentType" : 5126,
      "count" : 1450,
      "type" : "VEC4"
    },
    {
      "bufferView" : 4,
      "normalized" : true,
      "componentType" : 5121,
      "count" : 1450,
      "type" : "VEC4"
    },
    {
      "bufferView" : 5,
      "componentType" : 5126,
      "count" : 1450,
      "type" : "VEC2"
    },
    {
      "bufferView" : 6,
      "componentType" : 5126,
      "count" : 1450,
      "type" : "VEC2"
    },
    {
      "bufferView" : 7,
      "componentType" : 5126,
      "count" : 1450,
      "type" : "VEC2"
    },
    {
      "bufferView" : 8,
      "componentType" : 5126,
      "count" : 1450,
      "type" : "VEC2"
    }
  ]
}
