{
  "asset" : {
    "generator" : "UE Viewer (umodel) build 1544 based",
    "version" : "2.0"
  },
  "scene" : 0,
  "scenes" : [
    {
      "nodes" : [ 0 ]
    }
  ],
  "nodes" : [
    {
      "name" : "SM_ENV_LKNVLD_RockMiddle_H",
      "mesh" : 0
    }
  ],
  "materials" : [
    {
      "name" : "MI_ENV_LKNVLD_MiddleRock_A",
      "pbrMetallicRoughness" : {
        "baseColorFactor" : [ 0.3, 0.3, 0.3, 1.0 ],
        "metallicFactor" : 0.1,
        "roughnessFactor" : 0.5
      }
    }
  ],
  "meshes" : [
    {
      "primitives" : [
        {
          "attributes" : {
            "POSITION" : 1,
            "NORMAL" : 2,
            "TANGENT" : 3,
            "COLOR_0" : 4,
            "TEXCOORD_0" : 5,
            "TEXCOORD_1" : 6,
            "TEXCOORD_2" : 7,
            "TEXCOORD_3" : 8
          },
          "indices" : 0,
          "material" : 0
        }
      ],
      "name" : "SM_ENV_LKNVLD_RockMiddle_H"
    }
  ],
  "buffers" : [
    {
      "uri" : "SM_ENV_LKNVLD_RockMiddle_H.bin",
      "byteLength" : 33256
    }
  ],
  "bufferViews" : [
    {
      "buffer" : 0,
      "byteOffset" : 0,
      "byteLength" : 2856
    },
    {
      "buffer" : 0,
      "byteOffset" : 2856,
      "byteLength" : 4800
    },
    {
      "buffer" : 0,
      "byteOffset" : 7656,
      "byteLength" : 4800
    },
    {
      "buffer" : 0,
      "byteOffset" : 12456,
      "byteLength" : 6400
    },
    {
      "buffer" : 0,
      "byteOffset" : 18856,
      "byteLength" : 1600
    },
    {
      "buffer" : 0,
      "byteOffset" : 20456,
      "byteLength" : 3200
    },
    {
      "buffer" : 0,
      "byteOffset" : 23656,
      "byteLength" : 3200
    },
    {
      "buffer" : 0,
      "byteOffset" : 26856,
      "byteLength" : 3200
    },
    {
      "buffer" : 0,
      "byteOffset" : 30056,
      "byteLength" : 3200
    }
  ],
  "accessors" : [
    {
      "bufferView" : 0,
      "componentType" : 5123,
      "count" : 1428,
      "type" : "SCALAR"
    },
    {
      "bufferView" : 1,
      "min" : [ 35.6087, -0.30298, -29.8894 ],
      "max" : [ 41.1681, 1.69865, -25.0132 ],
      "componentType" : 5126,
      "count" : 400,
      "type" : "VEC3"
    },
    {
      "bufferView" : 2,
      "componentType" : 5126,
      "count" : 400,
      "type" : "VEC3"
    },
    {
      "bufferView" : 3,
      "componentType" : 5126,
      "count" : 400,
      "type" : "VEC4"
    },
    {
      "bufferView" : 4,
      "normalized" : true,
      "componentType" : 5121,
      "count" : 400,
      "type" : "VEC4"
    },
    {
      "bufferView" : 5,
      "componentType" : 5126,
      "count" : 400,
      "type" : "VEC2"
    },
    {
      "bufferView" : 6,
      "componentType" : 5126,
      "count" : 400,
      "type" : "VEC2"
    },
    {
      "bufferView" : 7,
      "componentType" : 5126,
      "count" : 400,
      "type" : "VEC2"
    },
    {
      "bufferView" : 8,
      "componentType" : 5126,
      "count" : 400,
      "type" : "VEC2"
    }
  ]
}
