{
  "asset" : {
    "generator" : "UE Viewer (umodel) build 1544 based",
    "version" : "2.0"
  },
  "scene" : 0,
  "scenes" : [
    {
      "nodes" : [ 0 ]
    }
  ],
  "nodes" : [
    {
      "name" : "SM_ENV_LKNVLD_Spotlight_B",
      "mesh" : 0
    }
  ],
  "materials" : [
    {
      "name" : "MI_ENV_LKNVLD_Spotlight_A",
      "pbrMetallicRoughness" : {
        "baseColorFactor" : [ 0.3, 0.3, 0.3, 1.0 ],
        "metallicFactor" : 0.1,
        "roughnessFactor" : 0.5
      }
    }
  ],
  "meshes" : [
    {
      "primitives" : [
        {
          "attributes" : {
            "POSITION" : 1,
            "NORMAL" : 2,
            "TANGENT" : 3,
            "TEXCOORD_0" : 4,
            "TEXCOORD_1" : 5,
            "TEXCOORD_2" : 6,
            "TEXCOORD_3" : 7
          },
          "indices" : 0,
          "material" : 0
        }
      ],
      "name" : "SM_ENV_LKNVLD_Spotlight_B"
    }
  ],
  "buffers" : [
    {
      "uri" : "SM_ENV_LKNVLD_Spotlight_B.bin",
      "byteLength" : 167280
    }
  ],
  "bufferViews" : [
    {
      "buffer" : 0,
      "byteOffset" : 0,
      "byteLength" : 12480
    },
    {
      "buffer" : 0,
      "byteOffset" : 12480,
      "byteLength" : 25800
    },
    {
      "buffer" : 0,
      "byteOffset" : 38280,
      "byteLength" : 25800
    },
    {
      "buffer" : 0,
      "byteOffset" : 64080,
      "byteLength" : 34400
    },
    {
      "buffer" : 0,
      "byteOffset" : 98480,
      "byteLength" : 17200
    },
    {
      "buffer" : 0,
      "byteOffset" : 115680,
      "byteLength" : 17200
    },
    {
      "buffer" : 0,
      "byteOffset" : 132880,
      "byteLength" : 17200
    },
    {
      "buffer" : 0,
      "byteOffset" : 150080,
      "byteLength" : 17200
    }
  ],
  "accessors" : [
    {
      "bufferView" : 0,
      "componentType" : 5123,
      "count" : 6240,
      "type" : "SCALAR"
    },
    {
      "bufferView" : 1,
      "min" : [ -28.6073, -23.949, -0.661178 ],
      "max" : [ 28.4608, 22.3268, 0.191398 ],
      "componentType" : 5126,
      "count" : 2150,
      "type" : "VEC3"
    },
    {
      "bufferView" : 2,
      "componentType" : 5126,
      "count" : 2150,
      "type" : "VEC3"
    },
    {
      "bufferView" : 3,
      "componentType" : 5126,
      "count" : 2150,
      "type" : "VEC4"
    },
    {
      "bufferView" : 4,
      "componentType" : 5126,
      "count" : 2150,
      "type" : "VEC2"
    },
    {
      "bufferView" : 5,
      "componentType" : 5126,
      "count" : 2150,
      "type" : "VEC2"
    },
    {
      "bufferView" : 6,
      "componentType" : 5126,
      "count" : 2150,
      "type" : "VEC2"
    },
    {
      "bufferView" : 7,
      "componentType" : 5126,
      "count" : 2150,
      "type" : "VEC2"
    }
  ]
}
