{
  "asset" : {
    "generator" : "UE Viewer (umodel) build 1544 based",
    "version" : "2.0"
  },
  "scene" : 0,
  "scenes" : [
    {
      "nodes" : [ 0 ]
    }
  ],
  "nodes" : [
    {
      "name" : "SM_ENV_LKNVLD_Stall_C",
      "mesh" : 0
    }
  ],
  "materials" : [
    {
      "name" : "MI_ENV_LKNVLD_Stall_02a",
      "pbrMetallicRoughness" : {
        "baseColorFactor" : [ 0.3, 0.3, 0.3, 1.0 ],
        "metallicFactor" : 0.1,
        "roughnessFactor" : 0.5
      }
    },
    {
      "name" : "MI_ENV_LKNVLD_Pipe_A_Trans",
      "pbrMetallicRoughness" : {
        "baseColorFactor" : [ 0.9, 0.3, 0.3, 1.0 ],
        "metallicFactor" : 0.1,
        "roughnessFactor" : 0.5
      }
    },
    {
      "name" : "MI_ENV_LKNVLD_WoodBoard_A",
      "pbrMetallicRoughness" : {
        "baseColorFactor" : [ 0.3, 0.9, 0.3, 1.0 ],
        "metallicFactor" : 0.1,
        "roughnessFactor" : 0.5
      }
    },
    {
      "name" : "MI_ENV_LKNVLD_PaperLantern_A_2_Trans",
      "pbrMetallicRoughness" : {
        "baseColorFactor" : [ 0.3, 0.3, 0.9, 1.0 ],
        "metallicFactor" : 0.1,
        "roughnessFactor" : 0.5
      }
    },
    {
      "name" : "MI_ENV_LKNVLD_Roof_A",
      "pbrMetallicRoughness" : {
        "baseColorFactor" : [ 0.9, 0.9, 0.9, 1.0 ],
        "metallicFactor" : 0.1,
        "roughnessFactor" : 0.5
      }
    }
  ],
  "meshes" : [
    {
      "primitives" : [
        {
          "attributes" : {
            "POSITION" : 1,
            "NORMAL" : 2,
            "TANGENT" : 3,
            "COLOR_0" : 4,
            "TEXCOORD_0" : 5,
            "TEXCOORD_1" : 6,
            "TEXCOORD_2" : 7,
            "TEXCOORD_3" : 8
          },
          "indices" : 0,
          "material" : 0
        },
        {
          "attributes" : {
            "POSITION" : 10,
            "NORMAL" : 11,
            "TANGENT" : 12,
            "COLOR_0" : 13,
            "TEXCOORD_0" : 14,
            "TEXCOORD_1" : 15,
            "TEXCOORD_2" : 16,
            "TEXCOORD_3" : 17
          },
          "indices" : 9,
          "material" : 1
        },
        {
          "attributes" : {
            "POSITION" : 19,
            "NORMAL" : 20,
            "TANGENT" : 21,
            "COLOR_0" : 22,
            "TEXCOORD_0" : 23,
            "TEXCOORD_1" : 24,
            "TEXCOORD_2" : 25,
            "TEXCOORD_3" : 26
          },
          "indices" : 18,
          "material" : 2
        },
        {
          "attributes" : {
            "POSITION" : 28,
            "NORMAL" : 29,
            "TANGENT" : 30,
            "COLOR_0" : 31,
            "TEXCOORD_0" : 32,
            "TEXCOORD_1" : 33,
            "TEXCOORD_2" : 34,
            "TEXCOORD_3" : 35
          },
          "indices" : 27,
          "material" : 3
        },
        {
          "attributes" : {
            "POSITION" : 37,
            "NORMAL" : 38,
            "TANGENT" : 39,
            "COLOR_0" : 40,
            "TEXCOORD_0" : 41,
            "TEXCOORD_1" : 42,
            "TEXCOORD_2" : 43,
            "TEXCOORD_3" : 44
          },
          "indices" : 36,
          "material" : 4
        }
      ],
      "name" : "SM_ENV_LKNVLD_Stall_C"
    }
  ],
  "buffers" : [
    {
      "uri" : "SM_ENV_LKNVLD_Stall_C.bin",
      "byteLength" : 793600
    }
  ],
  "bufferViews" : [
    {
      "buffer" : 0,
      "byteOffset" : 0,
      "byteLength" : 40584
    },
    {
      "buffer" : 0,
      "byteOffset" : 40584,
      "byteLength" : 62628
    },
    {
      "buffer" : 0,
      "byteOffset" : 103212,
      "byteLength" : 62628
    },
    {
      "buffer" : 0,
      "byteOffset" : 165840,
      "byteLength" : 83504
    },
    {
      "buffer" : 0,
      "byteOffset" : 249344,
      "byteLength" : 20876
    },
    {
      "buffer" : 0,
      "byteOffset" : 270220,
      "byteLength" : 41752
    },
    {
      "buffer" : 0,
      "byteOffset" : 311972,
      "byteLength" : 41752
    },
    {
      "buffer" : 0,
      "byteOffset" : 353724,
      "byteLength" : 41752
    },
    {
      "buffer" : 0,
      "byteOffset" : 395476,
      "byteLength" : 41752
    },
    {
      "buffer" : 0,
      "byteOffset" : 437228,
      "byteLength" : 15300
    },
    {
      "buffer" : 0,
      "byteOffset" : 452528,
      "byteLength" : 29112
    },
    {
      "buffer" : 0,
      "byteOffset" : 481640,
      "byteLength" : 29112
    },
    {
      "buffer" : 0,
      "byteOffset" : 510752,
      "byteLength" : 38816
    },
    {
      "buffer" : 0,
      "byteOffset" : 549568,
      "byteLength" : 9704
    },
    {
      "buffer" : 0,
      "byteOffset" : 559272,
      "byteLength" : 19408
    },
    {
      "buffer" : 0,
      "byteOffset" : 578680,
      "byteLength" : 19408
    },
    {
      "buffer" : 0,
      "byteOffset" : 598088,
      "byteLength" : 19408
    },
    {
      "buffer" : 0,
      "byteOffset" : 617496,
      "byteLength" : 19408
    },
    {
      "buffer" : 0,
      "byteOffset" : 636904,
      "byteLength" : 3072
    },
    {
      "buffer" : 0,
      "byteOffset" : 639976,
      "byteLength" : 11232
    },
    {
      "buffer" : 0,
      "byteOffset" : 651208,
      "byteLength" : 11232
    },
    {
      "buffer" : 0,
      "byteOffset" : 662440,
      "byteLength" : 14976
    },
    {
      "buffer" : 0,
      "byteOffset" : 677416,
      "byteLength" : 3744
    },
    {
      "buffer" : 0,
      "byteOffset" : 681160,
      "byteLength" : 7488
    },
    {
      "buffer" : 0,
      "byteOffset" : 688648,
      "byteLength" : 7488
    },
    {
      "buffer" : 0,
      "byteOffset" : 696136,
      "byteLength" : 7488
    },
    {
      "buffer" : 0,
      "byteOffset" : 703624,
      "byteLength" : 7488
    },
    {
      "buffer" : 0,
      "byteOffset" : 711112,
      "byteLength" : 5808
    },
    {
      "buffer" : 0,
      "byteOffset" : 716920,
      "byteLength" : 9912
    },
    {
      "buffer" : 0,
      "byteOffset" : 726832,
      "byteLength" : 9912
    },
    {
      "buffer" : 0,
      "byteOffset" : 736744,
      "byteLength" : 13216
    },
    {
      "buffer" : 0,
      "byteOffset" : 749960,
      "byteLength" : 3304
    },
    {
      "buffer" : 0,
      "byteOffset" : 753264,
      "byteLength" : 6608
    },
    {
      "buffer" : 0,
      "byteOffset" : 759872,
      "byteLength" : 6608
    },
    {
      "buffer" : 0,
      "byteOffset" : 766480,
      "byteLength" : 6608
    },
    {
      "buffer" : 0,
      "byteOffset" : 773088,
      "byteLength" : 6608
    },
    {
      "buffer" : 0,
      "byteOffset" : 779696,
      "byteLength" : 528
    },
    {
      "buffer" : 0,
      "byteOffset" : 780224,
      "byteLength" : 2112
    },
    {
      "buffer" : 0,
      "byteOffset" : 782336,
      "byteLength" : 2112
    },
    {
      "buffer" : 0,
      "byteOffset" : 784448,
      "byteLength" : 2816
    },
    {
      "buffer" : 0,
      "byteOffset" : 787264,
      "byteLength" : 704
    },
    {
      "buffer" : 0,
      "byteOffset" : 787968,
      "byteLength" : 1408
    },
    {
      "buffer" : 0,
      "byteOffset" : 789376,
      "byteLength" : 1408
    },
    {
      "buffer" : 0,
      "byteOffset" : 790784,
      "byteLength" : 1408
    },
    {
      "buffer" : 0,
      "byteOffset" : 792192,
      "byteLength" : 1408
    }
  ],
  "accessors" : [
    {
      "bufferView" : 0,
      "componentType" : 5123,
      "count" : 20292,
      "type" : "SCALAR"
    },
    {
      "bufferView" : 1,
      "min" : [ -2.12722, 0.166042, -0.586693 ],
      "max" : [ 2.85918, 3.68552, 2.72081 ],
      "componentType" : 5126,
      "count" : 5219,
      "type" : "VEC3"
    },
    {
      "bufferView" : 2,
      "componentType" : 5126,
      "count" : 5219,
      "type" : "VEC3"
    },
    {
      "bufferView" : 3,
      "componentType" : 5126,
      "count" : 5219,
      "type" : "VEC4"
    },
    {
      "bufferView" : 4,
      "normalized" : true,
      "componentType" : 5121,
      "count" : 5219,
      "type" : "VEC4"
    },
    {
      "bufferView" : 5,
      "componentType" : 5126,
      "count" : 5219,
      "type" : "VEC2"
    },
    {
      "bufferView" : 6,
      "componentType" : 5126,
      "count" : 5219,
      "type" : "VEC2"
    },
    {
      "bufferView" : 7,
      "componentType" : 5126,
      "count" : 5219,
      "type" : "VEC2"
    },
    {
      "bufferView" : 8,
      "componentType" : 5126,
      "count" : 5219,
      "type" : "VEC2"
    },
    {
      "bufferView" : 9,
      "componentType" : 5123,
      "count" : 7650,
      "type" : "SCALAR"
    },
    {
      "bufferView" : 10,
      "min" : [ -2.06979, 1.0432, -0.684537 ],
      "max" : [ 2.04335, 3.40766, 1.72964 ],
      "componentType" : 5126,
      "count" : 2426,
      "type" : "VEC3"
    },
    {
      "bufferView" : 11,
      "componentType" : 5126,
      "count" : 2426,
      "type" : "VEC3"
    },
    {
      "bufferView" : 12,
      "componentType" : 5126,
      "count" : 2426,
      "type" : "VEC4"
    },
    {
      "bufferView" : 13,
      "normalized" : true,
      "componentType" : 5121,
      "count" : 2426,
      "type" : "VEC4"
    },
    {
      "bufferView" : 14,
      "componentType" : 5126,
      "count" : 2426,
      "type" : "VEC2"
    },
    {
      "bufferView" : 15,
      "componentType" : 5126,
      "count" : 2426,
      "type" : "VEC2"
    },
    {
      "bufferView" : 16,
      "componentType" : 5126,
      "count" : 2426,
      "type" : "VEC2"
    },
    {
      "bufferView" : 17,
      "componentType" : 5126,
      "count" : 2426,
      "type" : "VEC2"
    },
    {
      "bufferView" : 18,
      "componentType" : 5123,
      "count" : 1536,
      "type" : "SCALAR"
    },
    {
      "bufferView" : 19,
      "min" : [ -2.138, 0, -0.518144 ],
      "max" : [ 2.39754, 3.52498, 2.69526 ],
      "componentType" : 5126,
      "count" : 936,
      "type" : "VEC3"
    },
    {
      "bufferView" : 20,
      "componentType" : 5126,
      "count" : 936,
      "type" : "VEC3"
    },
    {
      "bufferView" : 21,
      "componentType" : 5126,
      "count" : 936,
      "type" : "VEC4"
    },
    {
      "bufferView" : 22,
      "normalized" : true,
      "componentType" : 5121,
      "count" : 936,
      "type" : "VEC4"
    },
    {
      "bufferView" : 23,
      "componentType" : 5126,
      "count" : 936,
      "type" : "VEC2"
    },
    {
      "bufferView" : 24,
      "componentType" : 5126,
      "count" : 936,
      "type" : "VEC2"
    },
    {
      "bufferView" : 25,
      "componentType" : 5126,
      "count" : 936,
      "type" : "VEC2"
    },
    {
      "bufferView" : 26,
      "componentType" : 5126,
      "count" : 936,
      "type" : "VEC2"
    },
    {
      "bufferView" : 27,
      "componentType" : 5123,
      "count" : 2904,
      "type" : "SCALAR"
    },
    {
      "bufferView" : 28,
      "min" : [ -1.99899, 1.75536, 2.4435 ],
      "max" : [ 1.99138, 2.46289, 2.84485 ],
      "componentType" : 5126,
      "count" : 826,
      "type" : "VEC3"
    },
    {
      "bufferView" : 29,
      "componentType" : 5126,
      "count" : 826,
      "type" : "VEC3"
    },
    {
      "bufferView" : 30,
      "componentType" : 5126,
      "count" : 826,
      "type" : "VEC4"
    },
    {
      "bufferView" : 31,
      "normalized" : true,
      "componentType" : 5121,
      "count" : 826,
      "type" : "VEC4"
    },
    {
      "bufferView" : 32,
      "componentType" : 5126,
      "count" : 826,
      "type" : "VEC2"
    },
    {
      "bufferView" : 33,
      "componentType" : 5126,
      "count" : 826,
      "type" : "VEC2"
    },
    {
      "bufferView" : 34,
      "componentType" : 5126,
      "count" : 826,
      "type" : "VEC2"
    },
    {
      "bufferView" : 35,
      "componentType" : 5126,
      "count" : 826,
      "type" : "VEC2"
    },
    {
      "bufferView" : 36,
      "componentType" : 5123,
      "count" : 264,
      "type" : "SCALAR"
    },
    {
      "bufferView" : 37,
      "min" : [ -1.91865, 2.57614, -0.904631 ],
      "max" : [ 2.84317, 3.55902, 2.76786 ],
      "componentType" : 5126,
      "count" : 176,
      "type" : "VEC3"
    },
    {
      "bufferView" : 38,
      "componentType" : 5126,
      "count" : 176,
      "type" : "VEC3"
    },
    {
      "bufferView" : 39,
      "componentType" : 5126,
      "count" : 176,
      "type" : "VEC4"
    },
    {
      "bufferView" : 40,
      "normalized" : true,
      "componentType" : 5121,
      "count" : 176,
      "type" : "VEC4"
    },
    {
      "bufferView" : 41,
      "componentType" : 5126,
      "count" : 176,
      "type" : "VEC2"
    },
    {
      "bufferView" : 42,
      "componentType" : 5126,
      "count" : 176,
      "type" : "VEC2"
    },
    {
      "bufferView" : 43,
      "componentType" : 5126,
      "count" : 176,
      "type" : "VEC2"
    },
    {
      "bufferView" : 44,
      "componentType" : 5126,
      "count" : 176,
      "type" : "VEC2"
    }
  ]
}
