{
  "asset" : {
    "generator" : "UE Viewer (umodel) build 1544 based",
    "version" : "2.0"
  },
  "scene" : 0,
  "scenes" : [
    {
      "nodes" : [ 0 ]
    }
  ],
  "nodes" : [
    {
      "name" : "SM_ENV_LKNVLD_Event_HL_Line_Ground_A",
      "mesh" : 0
    }
  ],
  "materials" : [
    {
      "name" : "MI_ENV_LKNVLD_Stall_I",
      "pbrMetallicRoughness" : {
        "baseColorFactor" : [ 0.3, 0.3, 0.3, 1.0 ],
        "metallicFactor" : 0.1,
        "roughnessFactor" : 0.5
      }
    },
    {
      "name" : "MI_ENV_LKNVLD_Neon_A1",
      "pbrMetallicRoughness" : {
        "baseColorFactor" : [ 0.9, 0.3, 0.3, 1.0 ],
        "metallicFactor" : 0.1,
        "roughnessFactor" : 0.5
      }
    },
    {
      "name" : "MI_ENV_LKNVLD_Metal_A",
      "pbrMetallicRoughness" : {
        "baseColorFactor" : [ 0.3, 0.9, 0.3, 1.0 ],
        "metallicFactor" : 0.1,
        "roughnessFactor" : 0.5
      }
    }
  ],
  "meshes" : [
    {
      "primitives" : [
        {
          "attributes" : {
            "POSITION" : 1,
            "NORMAL" : 2,
            "TANGENT" : 3,
            "TEXCOORD_0" : 4,
            "TEXCOORD_1" : 5,
            "TEXCOORD_2" : 6
          },
          "indices" : 0,
          "material" : 0
        },
        {
          "attributes" : {
            "POSITION" : 8,
            "NORMAL" : 9,
            "TANGENT" : 10,
            "TEXCOORD_0" : 11,
            "TEXCOORD_1" : 12,
            "TEXCOORD_2" : 13
          },
          "indices" : 7,
          "material" : 1
        },
        {
          "attributes" : {
            "POSITION" : 15,
            "NORMAL" : 16,
            "TANGENT" : 17,
            "TEXCOORD_0" : 18,
            "TEXCOORD_1" : 19,
            "TEXCOORD_2" : 20
          },
          "indices" : 14,
          "material" : 2
        }
      ],
      "name" : "SM_ENV_LKNVLD_Event_HL_Line_Ground_A"
    }
  ],
  "buffers" : [
    {
      "uri" : "SM_ENV_LKNVLD_Event_HL_Line_Ground_A.bin",
      "byteLength" : 101156
    }
  ],
  "bufferViews" : [
    {
      "buffer" : 0,
      "byteOffset" : 0,
      "byteLength" : 3528
    },
    {
      "buffer" : 0,
      "byteOffset" : 3528,
      "byteLength" : 14148
    },
    {
      "buffer" : 0,
      "byteOffset" : 17676,
      "byteLength" : 14148
    },
    {
      "buffer" : 0,
      "byteOffset" : 31824,
      "byteLength" : 18864
    },
    {
      "buffer" : 0,
      "byteOffset" : 50688,
      "byteLength" : 9432
    },
    {
      "buffer" : 0,
      "byteOffset" : 60120,
      "byteLength" : 9432
    },
    {
      "buffer" : 0,
      "byteOffset" : 69552,
      "byteLength" : 9432
    },
    {
      "buffer" : 0,
      "byteOffset" : 78984,
      "byteLength" : 708
    },
    {
      "buffer" : 0,
      "byteOffset" : 79692,
      "byteLength" : 2004
    },
    {
      "buffer" : 0,
      "byteOffset" : 81696,
      "byteLength" : 2004
    },
    {
      "buffer" : 0,
      "byteOffset" : 83700,
      "byteLength" : 2672
    },
    {
      "buffer" : 0,
      "byteOffset" : 86372,
      "byteLength" : 1336
    },
    {
      "buffer" : 0,
      "byteOffset" : 87708,
      "byteLength" : 1336
    },
    {
      "buffer" : 0,
      "byteOffset" : 89044,
      "byteLength" : 1336
    },
    {
      "buffer" : 0,
      "byteOffset" : 90380,
      "byteLength" : 984
    },
    {
      "buffer" : 0,
      "byteOffset" : 91364,
      "byteLength" : 1836
    },
    {
      "buffer" : 0,
      "byteOffset" : 93200,
      "byteLength" : 1836
    },
    {
      "buffer" : 0,
      "byteOffset" : 95036,
      "byteLength" : 2448
    },
    {
      "buffer" : 0,
      "byteOffset" : 97484,
      "byteLength" : 1224
    },
    {
      "buffer" : 0,
      "byteOffset" : 98708,
      "byteLength" : 1224
    },
    {
      "buffer" : 0,
      "byteOffset" : 99932,
      "byteLength" : 1224
    }
  ],
  "accessors" : [
    {
      "bufferView" : 0,
      "componentType" : 5123,
      "count" : 1764,
      "type" : "SCALAR"
    },
    {
      "bufferView" : 1,
      "min" : [ -13.0075, -0.407509, -29.8646 ],
      "max" : [ 13.0551, -0.27119, 67.2957 ],
      "componentType" : 5126,
      "count" : 1179,
      "type" : "VEC3"
    },
    {
      "bufferView" : 2,
      "componentType" : 5126,
      "count" : 1179,
      "type" : "VEC3"
    },
    {
      "bufferView" : 3,
      "componentType" : 5126,
      "count" : 1179,
      "type" : "VEC4"
    },
    {
      "bufferView" : 4,
      "componentType" : 5126,
      "count" : 1179,
      "type" : "VEC2"
    },
    {
      "bufferView" : 5,
      "componentType" : 5126,
      "count" : 1179,
      "type" : "VEC2"
    },
    {
      "bufferView" : 6,
      "componentType" : 5126,
      "count" : 1179,
      "type" : "VEC2"
    },
    {
      "bufferView" : 7,
      "componentType" : 5123,
      "count" : 354,
      "type" : "SCALAR"
    },
    {
      "bufferView" : 8,
      "min" : [ -13.0755, -0.426586, -29.8633 ],
      "max" : [ 13.075, -0.305999, 67.265 ],
      "componentType" : 5126,
      "count" : 167,
      "type" : "VEC3"
    },
    {
      "bufferView" : 9,
      "componentType" : 5126,
      "count" : 167,
      "type" : "VEC3"
    },
    {
      "bufferView" : 10,
      "componentType" : 5126,
      "count" : 167,
      "type" : "VEC4"
    },
    {
      "bufferView" : 11,
      "componentType" : 5126,
      "count" : 167,
      "type" : "VEC2"
    },
    {
      "bufferView" : 12,
      "componentType" : 5126,
      "count" : 167,
      "type" : "VEC2"
    },
    {
      "bufferView" : 13,
      "componentType" : 5126,
      "count" : 167,
      "type" : "VEC2"
    },
    {
      "bufferView" : 14,
      "componentType" : 5123,
      "count" : 492,
      "type" : "SCALAR"
    },
    {
      "bufferView" : 15,
      "min" : [ -13.0998, -0.539668, -31.8539 ],
      "max" : [ 13.0998, -0.368509, 16.4013 ],
      "componentType" : 5126,
      "count" : 153,
      "type" : "VEC3"
    },
    {
      "bufferView" : 16,
      "componentType" : 5126,
      "count" : 153,
      "type" : "VEC3"
    },
    {
      "bufferView" : 17,
      "componentType" : 5126,
      "count" : 153,
      "type" : "VEC4"
    },
    {
      "bufferView" : 18,
      "componentType" : 5126,
      "count" : 153,
      "type" : "VEC2"
    },
    {
      "bufferView" : 19,
      "componentType" : 5126,
      "count" : 153,
      "type" : "VEC2"
    },
    {
      "bufferView" : 20,
      "componentType" : 5126,
      "count" : 153,
      "type" : "VEC2"
    }
  ]
}
