{
  "asset" : {
    "generator" : "UE Viewer (umodel) build 1544 based",
    "version" : "2.0"
  },
  "scene" : 0,
  "scenes" : [
    {
      "nodes" : [ 0 ]
    }
  ],
  "nodes" : [
    {
      "name" : "SM_ENV_LKNVLD_Hatago_Structure_Lod2",
      "mesh" : 0
    }
  ],
  "materials" : [
    {
      "name" : "MI_ENV_LKNVLD_WoodPlain_Brown_LOD",
      "pbrMetallicRoughness" : {
        "baseColorFactor" : [ 0.3, 0.3, 0.3, 1.0 ],
        "metallicFactor" : 0.1,
        "roughnessFactor" : 0.5
      }
    },
    {
      "name" : "MI_ENV_LKNVLD_MetalRoof_Green_LOD",
      "pbrMetallicRoughness" : {
        "baseColorFactor" : [ 0.9, 0.3, 0.3, 1.0 ],
        "metallicFactor" : 0.1,
        "roughnessFactor" : 0.5
      }
    },
    {
      "name" : "MI_ENV_LKNVLD_BambooWall_LOD",
      "pbrMetallicRoughness" : {
        "baseColorFactor" : [ 0.3, 0.9, 0.3, 1.0 ],
        "metallicFactor" : 0.1,
        "roughnessFactor" : 0.5
      }
    },
    {
      "name" : "MI_ENV_LKNVLD_Aircon_D",
      "pbrMetallicRoughness" : {
        "baseColorFactor" : [ 0.3, 0.3, 0.9, 1.0 ],
        "metallicFactor" : 0.1,
        "roughnessFactor" : 0.5
      }
    },
    {
      "name" : "MI_ENV_LKNVLD_Aircon_E",
      "pbrMetallicRoughness" : {
        "baseColorFactor" : [ 0.9, 0.9, 0.9, 1.0 ],
        "metallicFactor" : 0.1,
        "roughnessFactor" : 0.5
      }
    },
    {
      "name" : "MI_ENV_LKNVLD_Eaves_E_LOD",
      "pbrMetallicRoughness" : {
        "baseColorFactor" : [ 0.9, 0.9, 0.3, 1.0 ],
        "metallicFactor" : 0.1,
        "roughnessFactor" : 0.5
      }
    },
    {
      "name" : "MI_ENV_LKNVLD_Aircon_F",
      "pbrMetallicRoughness" : {
        "baseColorFactor" : [ 0.9, 0.3, 0.9, 1.0 ],
        "metallicFactor" : 0.1,
        "roughnessFactor" : 0.5
      }
    },
    {
      "name" : "MI_ENV_LKNVLD_Pipe_A_LOD",
      "pbrMetallicRoughness" : {
        "baseColorFactor" : [ 0.3, 0.9, 0.9, 1.0 ],
        "metallicFactor" : 0.1,
        "roughnessFactor" : 0.5
      }
    },
    {
      "name" : "MI_ENV_LKNVLD_Plaster_LOD",
      "pbrMetallicRoughness" : {
        "baseColorFactor" : [ 1, 0.3, 0.3, 1.0 ],
        "metallicFactor" : 0.1,
        "roughnessFactor" : 0.5
      }
    },
    {
      "name" : "MI_ENV_LKNVLD_BuildingInside_A",
      "pbrMetallicRoughness" : {
        "baseColorFactor" : [ 0.6, 0.3, 0.3, 1.0 ],
        "metallicFactor" : 0.1,
        "roughnessFactor" : 0.5
      }
    },
    {
      "name" : "MI_ENV_LKNVLD_WoodWindows_B",
      "pbrMetallicRoughness" : {
        "baseColorFactor" : [ 1, 0.9, 0.3, 1.0 ],
        "metallicFactor" : 0.1,
        "roughnessFactor" : 0.5
      }
    },
    {
      "name" : "MI_ENV_LKNVLD_ClanSignboard_G_LOD",
      "pbrMetallicRoughness" : {
        "baseColorFactor" : [ 1, 0.3, 0.9, 1.0 ],
        "metallicFactor" : 0.1,
        "roughnessFactor" : 0.5
      }
    },
    {
      "name" : "MI_ENV_LKNVLD_Aircon_G",
      "pbrMetallicRoughness" : {
        "baseColorFactor" : [ 0.6, 0.9, 0.9, 1.0 ],
        "metallicFactor" : 0.1,
        "roughnessFactor" : 0.5
      }
    },
    {
      "name" : "MI_ENV_LKNVLD_MetalRoof_LOD",
      "pbrMetallicRoughness" : {
        "baseColorFactor" : [ 0.6, 0.9, 0.3, 1.0 ],
        "metallicFactor" : 0.1,
        "roughnessFactor" : 0.5
      }
    }
  ],
  "meshes" : [
    {
      "primitives" : [
        {
          "attributes" : {
            "POSITION" : 1,
            "NORMAL" : 2,
            "TANGENT" : 3,
            "COLOR_0" : 4,
            "TEXCOORD_0" : 5,
            "TEXCOORD_1" : 6,
            "TEXCOORD_2" : 7,
            "TEXCOORD_3" : 8
          },
          "indices" : 0,
          "material" : 0
        },
        {
          "attributes" : {
            "POSITION" : 10,
            "NORMAL" : 11,
            "TANGENT" : 12,
            "COLOR_0" : 13,
            "TEXCOORD_0" : 14,
            "TEXCOORD_1" : 15,
            "TEXCOORD_2" : 16,
            "TEXCOORD_3" : 17
          },
          "indices" : 9,
          "material" : 1
        },
        {
          "attributes" : {
            "POSITION" : 19,
            "NORMAL" : 20,
            "TANGENT" : 21,
            "COLOR_0" : 22,
            "TEXCOORD_0" : 23,
            "TEXCOORD_1" : 24,
            "TEXCOORD_2" : 25,
            "TEXCOORD_3" : 26
          },
          "indices" : 18,
          "material" : 2
        },
        {
          "attributes" : {
            "POSITION" : 28,
            "NORMAL" : 29,
            "TANGENT" : 30,
            "COLOR_0" : 31,
            "TEXCOORD_0" : 32,
            "TEXCOORD_1" : 33,
            "TEXCOORD_2" : 34,
            "TEXCOORD_3" : 35
          },
          "indices" : 27,
          "material" : 3
        },
        {
          "attributes" : {
            "POSITION" : 37,
            "NORMAL" : 38,
            "TANGENT" : 39,
            "COLOR_0" : 40,
            "TEXCOORD_0" : 41,
            "TEXCOORD_1" : 42,
            "TEXCOORD_2" : 43,
            "TEXCOORD_3" : 44
          },
          "indices" : 36,
          "material" : 4
        },
        {
          "attributes" : {
            "POSITION" : 46,
            "NORMAL" : 47,
            "TANGENT" : 48,
            "COLOR_0" : 49,
            "TEXCOORD_0" : 50,
            "TEXCOORD_1" : 51,
            "TEXCOORD_2" : 52,
            "TEXCOORD_3" : 53
          },
          "indices" : 45,
          "material" : 5
        },
        {
          "attributes" : {
            "POSITION" : 55,
            "NORMAL" : 56,
            "TANGENT" : 57,
            "COLOR_0" : 58,
            "TEXCOORD_0" : 59,
            "TEXCOORD_1" : 60,
            "TEXCOORD_2" : 61,
            "TEXCOORD_3" : 62
          },
          "indices" : 54,
          "material" : 6
        },
        {
          "attributes" : {
            "POSITION" : 64,
            "NORMAL" : 65,
            "TANGENT" : 66,
            "COLOR_0" : 67,
            "TEXCOORD_0" : 68,
            "TEXCOORD_1" : 69,
            "TEXCOORD_2" : 70,
            "TEXCOORD_3" : 71
          },
          "indices" : 63,
          "material" : 7
        },
        {
          "attributes" : {
            "POSITION" : 73,
            "NORMAL" : 74,
            "TANGENT" : 75,
            "COLOR_0" : 76,
            "TEXCOORD_0" : 77,
            "TEXCOORD_1" : 78,
            "TEXCOORD_2" : 79,
            "TEXCOORD_3" : 80
          },
          "indices" : 72,
          "material" : 8
        },
        {
          "attributes" : {
            "POSITION" : 82,
            "NORMAL" : 83,
            "TANGENT" : 84,
            "COLOR_0" : 85,
            "TEXCOORD_0" : 86,
            "TEXCOORD_1" : 87,
            "TEXCOORD_2" : 88,
            "TEXCOORD_3" : 89
          },
          "indices" : 81,
          "material" : 9
        },
        {
          "attributes" : {
            "POSITION" : 91,
            "NORMAL" : 92,
            "TANGENT" : 93,
            "COLOR_0" : 94,
            "TEXCOORD_0" : 95,
            "TEXCOORD_1" : 96,
            "TEXCOORD_2" : 97,
            "TEXCOORD_3" : 98
          },
          "indices" : 90,
          "material" : 10
        },
        {
          "attributes" : {
            "POSITION" : 100,
            "NORMAL" : 101,
            "TANGENT" : 102,
            "COLOR_0" : 103,
            "TEXCOORD_0" : 104,
            "TEXCOORD_1" : 105,
            "TEXCOORD_2" : 106,
            "TEXCOORD_3" : 107
          },
          "indices" : 99,
          "material" : 11
        },
        {
          "attributes" : {
            "POSITION" : 109,
            "NORMAL" : 110,
            "TANGENT" : 111,
            "COLOR_0" : 112,
            "TEXCOORD_0" : 113,
            "TEXCOORD_1" : 114,
            "TEXCOORD_2" : 115,
            "TEXCOORD_3" : 116
          },
          "indices" : 108,
          "material" : 12
        },
        {
          "attributes" : {
            "POSITION" : 118,
            "NORMAL" : 119,
            "TANGENT" : 120,
            "COLOR_0" : 121,
            "TEXCOORD_0" : 122,
            "TEXCOORD_1" : 123,
            "TEXCOORD_2" : 124,
            "TEXCOORD_3" : 125
          },
          "indices" : 117,
          "material" : 13
        }
      ],
      "name" : "SM_ENV_LKNVLD_Hatago_Structure_Lod2"
    }
  ],
  "buffers" : [
    {
      "uri" : "SM_ENV_LKNVLD_Hatago_Structure_Lod2.bin",
      "byteLength" : 1131700
    }
  ],
  "bufferViews" : [
    {
      "buffer" : 0,
      "byteOffset" : 0,
      "byteLength" : 20196
    },
    {
      "buffer" : 0,
      "byteOffset" : 20196,
      "byteLength" : 70896
    },
    {
      "buffer" : 0,
      "byteOffset" : 91092,
      "byteLength" : 70896
    },
    {
      "buffer" : 0,
      "byteOffset" : 161988,
      "byteLength" : 94528
    },
    {
      "buffer" : 0,
      "byteOffset" : 256516,
      "byteLength" : 23632
    },
    {
      "buffer" : 0,
      "byteOffset" : 280148,
      "byteLength" : 47264
    },
    {
      "buffer" : 0,
      "byteOffset" : 327412,
      "byteLength" : 47264
    },
    {
      "buffer" : 0,
      "byteOffset" : 374676,
      "byteLength" : 47264
    },
    {
      "buffer" : 0,
      "byteOffset" : 421940,
      "byteLength" : 47264
    },
    {
      "buffer" : 0,
      "byteOffset" : 469204,
      "byteLength" : 6944
    },
    {
      "buffer" : 0,
      "byteOffset" : 476148,
      "byteLength" : 17160
    },
    {
      "buffer" : 0,
      "byteOffset" : 493308,
      "byteLength" : 17160
    },
    {
      "buffer" : 0,
      "byteOffset" : 510468,
      "byteLength" : 22880
    },
    {
      "buffer" : 0,
      "byteOffset" : 533348,
      "byteLength" : 5720
    },
    {
      "buffer" : 0,
      "byteOffset" : 539068,
      "byteLength" : 11440
    },
    {
      "buffer" : 0,
      "byteOffset" : 550508,
      "byteLength" : 11440
    },
    {
      "buffer" : 0,
      "byteOffset" : 561948,
      "byteLength" : 11440
    },
    {
      "buffer" : 0,
      "byteOffset" : 573388,
      "byteLength" : 11440
    },
    {
      "buffer" : 0,
      "byteOffset" : 584828,
      "byteLength" : 2604
    },
    {
      "buffer" : 0,
      "byteOffset" : 587432,
      "byteLength" : 7248
    },
    {
      "buffer" : 0,
      "byteOffset" : 594680,
      "byteLength" : 7248
    },
    {
      "buffer" : 0,
      "byteOffset" : 601928,
      "byteLength" : 9664
    },
    {
      "buffer" : 0,
      "byteOffset" : 611592,
      "byteLength" : 2416
    },
    {
      "buffer" : 0,
      "byteOffset" : 614008,
      "byteLength" : 4832
    },
    {
      "buffer" : 0,
      "byteOffset" : 618840,
      "byteLength" : 4832
    },
    {
      "buffer" : 0,
      "byteOffset" : 623672,
      "byteLength" : 4832
    },
    {
      "buffer" : 0,
      "byteOffset" : 628504,
      "byteLength" : 4832
    },
    {
      "buffer" : 0,
      "byteOffset" : 633336,
      "byteLength" : 1212
    },
    {
      "buffer" : 0,
      "byteOffset" : 634548,
      "byteLength" : 2712
    },
    {
      "buffer" : 0,
      "byteOffset" : 637260,
      "byteLength" : 2712
    },
    {
      "buffer" : 0,
      "byteOffset" : 639972,
      "byteLength" : 3616
    },
    {
      "buffer" : 0,
      "byteOffset" : 643588,
      "byteLength" : 904
    },
    {
      "buffer" : 0,
      "byteOffset" : 644492,
      "byteLength" : 1808
    },
    {
      "buffer" : 0,
      "byteOffset" : 646300,
      "byteLength" : 1808
    },
    {
      "buffer" : 0,
      "byteOffset" : 648108,
      "byteLength" : 1808
    },
    {
      "buffer" : 0,
      "byteOffset" : 649916,
      "byteLength" : 1808
    },
    {
      "buffer" : 0,
      "byteOffset" : 651724,
      "byteLength" : 588
    },
    {
      "buffer" : 0,
      "byteOffset" : 652312,
      "byteLength" : 1152
    },
    {
      "buffer" : 0,
      "byteOffset" : 653464,
      "byteLength" : 1152
    },
    {
      "buffer" : 0,
      "byteOffset" : 654616,
      "byteLength" : 1536
    },
    {
      "buffer" : 0,
      "byteOffset" : 656152,
      "byteLength" : 384
    },
    {
      "buffer" : 0,
      "byteOffset" : 656536,
      "byteLength" : 768
    },
    {
      "buffer" : 0,
      "byteOffset" : 657304,
      "byteLength" : 768
    },
    {
      "buffer" : 0,
      "byteOffset" : 658072,
      "byteLength" : 768
    },
    {
      "buffer" : 0,
      "byteOffset" : 658840,
      "byteLength" : 768
    },
    {
      "buffer" : 0,
      "byteOffset" : 659608,
      "byteLength" : 1820
    },
    {
      "buffer" : 0,
      "byteOffset" : 661428,
      "byteLength" : 5676
    },
    {
      "buffer" : 0,
      "byteOffset" : 667104,
      "byteLength" : 5676
    },
    {
      "buffer" : 0,
      "byteOffset" : 672780,
      "byteLength" : 7568
    },
    {
      "buffer" : 0,
      "byteOffset" : 680348,
      "byteLength" : 1892
    },
    {
      "buffer" : 0,
      "byteOffset" : 682240,
      "byteLength" : 3784
    },
    {
      "buffer" : 0,
      "byteOffset" : 686024,
      "byteLength" : 3784
    },
    {
      "buffer" : 0,
      "byteOffset" : 689808,
      "byteLength" : 3784
    },
    {
      "buffer" : 0,
      "byteOffset" : 693592,
      "byteLength" : 3784
    },
    {
      "buffer" : 0,
      "byteOffset" : 697376,
      "byteLength" : 120
    },
    {
      "buffer" : 0,
      "byteOffset" : 697496,
      "byteLength" : 480
    },
    {
      "buffer" : 0,
      "byteOffset" : 697976,
      "byteLength" : 480
    },
    {
      "buffer" : 0,
      "byteOffset" : 698456,
      "byteLength" : 640
    },
    {
      "buffer" : 0,
      "byteOffset" : 699096,
      "byteLength" : 160
    },
    {
      "buffer" : 0,
      "byteOffset" : 699256,
      "byteLength" : 320
    },
    {
      "buffer" : 0,
      "byteOffset" : 699576,
      "byteLength" : 320
    },
    {
      "buffer" : 0,
      "byteOffset" : 699896,
      "byteLength" : 320
    },
    {
      "buffer" : 0,
      "byteOffset" : 700216,
      "byteLength" : 320
    },
    {
      "buffer" : 0,
      "byteOffset" : 700536,
      "byteLength" : 10736
    },
    {
      "buffer" : 0,
      "byteOffset" : 711272,
      "byteLength" : 25008
    },
    {
      "buffer" : 0,
      "byteOffset" : 736280,
      "byteLength" : 25008
    },
    {
      "buffer" : 0,
      "byteOffset" : 761288,
      "byteLength" : 33344
    },
    {
      "buffer" : 0,
      "byteOffset" : 794632,
      "byteLength" : 8336
    },
    {
      "buffer" : 0,
      "byteOffset" : 802968,
      "byteLength" : 16672
    },
    {
      "buffer" : 0,
      "byteOffset" : 819640,
      "byteLength" : 16672
    },
    {
      "buffer" : 0,
      "byteOffset" : 836312,
      "byteLength" : 16672
    },
    {
      "buffer" : 0,
      "byteOffset" : 852984,
      "byteLength" : 16672
    },
    {
      "buffer" : 0,
      "byteOffset" : 869656,
      "byteLength" : 944
    },
    {
      "buffer" : 0,
      "byteOffset" : 870600,
      "byteLength" : 3504
    },
    {
      "buffer" : 0,
      "byteOffset" : 874104,
      "byteLength" : 3504
    },
    {
      "buffer" : 0,
      "byteOffset" : 877608,
      "byteLength" : 4672
    },
    {
      "buffer" : 0,
      "byteOffset" : 882280,
      "byteLength" : 1168
    },
    {
      "buffer" : 0,
      "byteOffset" : 883448,
      "byteLength" : 2336
    },
    {
      "buffer" : 0,
      "byteOffset" : 885784,
      "byteLength" : 2336
    },
    {
      "buffer" : 0,
      "byteOffset" : 888120,
      "byteLength" : 2336
    },
    {
      "buffer" : 0,
      "byteOffset" : 890456,
      "byteLength" : 2336
    },
    {
      "buffer" : 0,
      "byteOffset" : 892792,
      "byteLength" : 60
    },
    {
      "buffer" : 0,
      "byteOffset" : 892852,
      "byteLength" : 240
    },
    {
      "buffer" : 0,
      "byteOffset" : 893092,
      "byteLength" : 240
    },
    {
      "buffer" : 0,
      "byteOffset" : 893332,
      "byteLength" : 320
    },
    {
      "buffer" : 0,
      "byteOffset" : 893652,
      "byteLength" : 80
    },
    {
      "buffer" : 0,
      "byteOffset" : 893732,
      "byteLength" : 160
    },
    {
      "buffer" : 0,
      "byteOffset" : 893892,
      "byteLength" : 160
    },
    {
      "buffer" : 0,
      "byteOffset" : 894052,
      "byteLength" : 160
    },
    {
      "buffer" : 0,
      "byteOffset" : 894212,
      "byteLength" : 160
    },
    {
      "buffer" : 0,
      "byteOffset" : 894372,
      "byteLength" : 552
    },
    {
      "buffer" : 0,
      "byteOffset" : 894924,
      "byteLength" : 2208
    },
    {
      "buffer" : 0,
      "byteOffset" : 897132,
      "byteLength" : 2208
    },
    {
      "buffer" : 0,
      "byteOffset" : 899340,
      "byteLength" : 2944
    },
    {
      "buffer" : 0,
      "byteOffset" : 902284,
      "byteLength" : 736
    },
    {
      "buffer" : 0,
      "byteOffset" : 903020,
      "byteLength" : 1472
    },
    {
      "buffer" : 0,
      "byteOffset" : 904492,
      "byteLength" : 1472
    },
    {
      "buffer" : 0,
      "byteOffset" : 905964,
      "byteLength" : 1472
    },
    {
      "buffer" : 0,
      "byteOffset" : 907436,
      "byteLength" : 1472
    },
    {
      "buffer" : 0,
      "byteOffset" : 908908,
      "byteLength" : 308
    },
    {
      "buffer" : 0,
      "byteOffset" : 909216,
      "byteLength" : 1020
    },
    {
      "buffer" : 0,
      "byteOffset" : 910236,
      "byteLength" : 1020
    },
    {
      "buffer" : 0,
      "byteOffset" : 911256,
      "byteLength" : 1360
    },
    {
      "buffer" : 0,
      "byteOffset" : 912616,
      "byteLength" : 340
    },
    {
      "buffer" : 0,
      "byteOffset" : 912956,
      "byteLength" : 680
    },
    {
      "buffer" : 0,
      "byteOffset" : 913636,
      "byteLength" : 680
    },
    {
      "buffer" : 0,
      "byteOffset" : 914316,
      "byteLength" : 680
    },
    {
      "buffer" : 0,
      "byteOffset" : 914996,
      "byteLength" : 680
    },
    {
      "buffer" : 0,
      "byteOffset" : 915676,
      "byteLength" : 288
    },
    {
      "buffer" : 0,
      "byteOffset" : 915964,
      "byteLength" : 768
    },
    {
      "buffer" : 0,
      "byteOffset" : 916732,
      "byteLength" : 768
    },
    {
      "buffer" : 0,
      "byteOffset" : 917500,
      "byteLength" : 1024
    },
    {
      "buffer" : 0,
      "byteOffset" : 918524,
      "byteLength" : 256
    },
    {
      "buffer" : 0,
      "byteOffset" : 918780,
      "byteLength" : 512
    },
    {
      "buffer" : 0,
      "byteOffset" : 919292,
      "byteLength" : 512
    },
    {
      "buffer" : 0,
      "byteOffset" : 919804,
      "byteLength" : 512
    },
    {
      "buffer" : 0,
      "byteOffset" : 920316,
      "byteLength" : 512
    },
    {
      "buffer" : 0,
      "byteOffset" : 920828,
      "byteLength" : 11144
    },
    {
      "buffer" : 0,
      "byteOffset" : 931972,
      "byteLength" : 31536
    },
    {
      "buffer" : 0,
      "byteOffset" : 963508,
      "byteLength" : 31536
    },
    {
      "buffer" : 0,
      "byteOffset" : 995044,
      "byteLength" : 42048
    },
    {
      "buffer" : 0,
      "byteOffset" : 1037092,
      "byteLength" : 10512
    },
    {
      "buffer" : 0,
      "byteOffset" : 1047604,
      "byteLength" : 21024
    },
    {
      "buffer" : 0,
      "byteOffset" : 1068628,
      "byteLength" : 21024
    },
    {
      "buffer" : 0,
      "byteOffset" : 1089652,
      "byteLength" : 21024
    },
    {
      "buffer" : 0,
      "byteOffset" : 1110676,
      "byteLength" : 21024
    }
  ],
  "accessors" : [
    {
      "bufferView" : 0,
      "componentType" : 5123,
      "count" : 10098,
      "type" : "SCALAR"
    },
    {
      "bufferView" : 1,
      "min" : [ -56.8465, 5.7063, -19.2322 ],
      "max" : [ -35.2139, 28.7375, 18.4038 ],
      "componentType" : 5126,
      "count" : 5908,
      "type" : "VEC3"
    },
    {
      "bufferView" : 2,
      "componentType" : 5126,
      "count" : 5908,
      "type" : "VEC3"
    },
    {
      "bufferView" : 3,
      "componentType" : 5126,
      "count" : 5908,
      "type" : "VEC4"
    },
    {
      "bufferView" : 4,
      "normalized" : true,
      "componentType" : 5121,
      "count" : 5908,
      "type" : "VEC4"
    },
    {
      "bufferView" : 5,
      "componentType" : 5126,
      "count" : 5908,
      "type" : "VEC2"
    },
    {
      "bufferView" : 6,
      "componentType" : 5126,
      "count" : 5908,
      "type" : "VEC2"
    },
    {
      "bufferView" : 7,
      "componentType" : 5126,
      "count" : 5908,
      "type" : "VEC2"
    },
    {
      "bufferView" : 8,
      "componentType" : 5126,
      "count" : 5908,
      "type" : "VEC2"
    },
    {
      "bufferView" : 9,
      "componentType" : 5123,
      "count" : 3471,
      "type" : "SCALAR"
    },
    {
      "bufferView" : 10,
      "min" : [ -56.8464, 10.345, -19.2322 ],
      "max" : [ -35.2692, 29.4911, 18.4038 ],
      "componentType" : 5126,
      "count" : 1430,
      "type" : "VEC3"
    },
    {
      "bufferView" : 11,
      "componentType" : 5126,
      "count" : 1430,
      "type" : "VEC3"
    },
    {
      "bufferView" : 12,
      "componentType" : 5126,
      "count" : 1430,
      "type" : "VEC4"
    },
    {
      "bufferView" : 13,
      "normalized" : true,
      "componentType" : 5121,
      "count" : 1430,
      "type" : "VEC4"
    },
    {
      "bufferView" : 14,
      "componentType" : 5126,
      "count" : 1430,
      "type" : "VEC2"
    },
    {
      "bufferView" : 15,
      "componentType" : 5126,
      "count" : 1430,
      "type" : "VEC2"
    },
    {
      "bufferView" : 16,
      "componentType" : 5126,
      "count" : 1430,
      "type" : "VEC2"
    },
    {
      "bufferView" : 17,
      "componentType" : 5126,
      "count" : 1430,
      "type" : "VEC2"
    },
    {
      "bufferView" : 18,
      "componentType" : 5123,
      "count" : 1302,
      "type" : "SCALAR"
    },
    {
      "bufferView" : 19,
      "min" : [ -54.2948, 5.90641, -16.3696 ],
      "max" : [ -37.3837, 28.8398, 15.5721 ],
      "componentType" : 5126,
      "count" : 604,
      "type" : "VEC3"
    },
    {
      "bufferView" : 20,
      "componentType" : 5126,
      "count" : 604,
      "type" : "VEC3"
    },
    {
      "bufferView" : 21,
      "componentType" : 5126,
      "count" : 604,
      "type" : "VEC4"
    },
    {
      "bufferView" : 22,
      "normalized" : true,
      "componentType" : 5121,
      "count" : 604,
      "type" : "VEC4"
    },
    {
      "bufferView" : 23,
      "componentType" : 5126,
      "count" : 604,
      "type" : "VEC2"
    },
    {
      "bufferView" : 24,
      "componentType" : 5126,
      "count" : 604,
      "type" : "VEC2"
    },
    {
      "bufferView" : 25,
      "componentType" : 5126,
      "count" : 604,
      "type" : "VEC2"
    },
    {
      "bufferView" : 26,
      "componentType" : 5126,
      "count" : 604,
      "type" : "VEC2"
    },
    {
      "bufferView" : 27,
      "componentType" : 5123,
      "count" : 606,
      "type" : "SCALAR"
    },
    {
      "bufferView" : 28,
      "min" : [ -53.2468, 25.7897, -9.8116 ],
      "max" : [ -41.1958, 28.9013, 8.99077 ],
      "componentType" : 5126,
      "count" : 226,
      "type" : "VEC3"
    },
    {
      "bufferView" : 29,
      "componentType" : 5126,
      "count" : 226,
      "type" : "VEC3"
    },
    {
      "bufferView" : 30,
      "componentType" : 5126,
      "count" : 226,
      "type" : "VEC4"
    },
    {
      "bufferView" : 31,
      "normalized" : true,
      "componentType" : 5121,
      "count" : 226,
      "type" : "VEC4"
    },
    {
      "bufferView" : 32,
      "componentType" : 5126,
      "count" : 226,
      "type" : "VEC2"
    },
    {
      "bufferView" : 33,
      "componentType" : 5126,
      "count" : 226,
      "type" : "VEC2"
    },
    {
      "bufferView" : 34,
      "componentType" : 5126,
      "count" : 226,
      "type" : "VEC2"
    },
    {
      "bufferView" : 35,
      "componentType" : 5126,
      "count" : 226,
      "type" : "VEC2"
    },
    {
      "bufferView" : 36,
      "componentType" : 5123,
      "count" : 294,
      "type" : "SCALAR"
    },
    {
      "bufferView" : 37,
      "min" : [ -41.8315, 26.7643, -0.988765 ],
      "max" : [ -40.6212, 28.5468, 0.162235 ],
      "componentType" : 5126,
      "count" : 96,
      "type" : "VEC3"
    },
    {
      "bufferView" : 38,
      "componentType" : 5126,
      "count" : 96,
      "type" : "VEC3"
    },
    {
      "bufferView" : 39,
      "componentType" : 5126,
      "count" : 96,
      "type" : "VEC4"
    },
    {
      "bufferView" : 40,
      "normalized" : true,
      "componentType" : 5121,
      "count" : 96,
      "type" : "VEC4"
    },
    {
      "bufferView" : 41,
      "componentType" : 5126,
      "count" : 96,
      "type" : "VEC2"
    },
    {
      "bufferView" : 42,
      "componentType" : 5126,
      "count" : 96,
      "type" : "VEC2"
    },
    {
      "bufferView" : 43,
      "componentType" : 5126,
      "count" : 96,
      "type" : "VEC2"
    },
    {
      "bufferView" : 44,
      "componentType" : 5126,
      "count" : 96,
      "type" : "VEC2"
    },
    {
      "bufferView" : 45,
      "componentType" : 5123,
      "count" : 909,
      "type" : "SCALAR"
    },
    {
      "bufferView" : 46,
      "min" : [ -54.879, 13.5412, -9.65465 ],
      "max" : [ -35.2275, 29.5264, 8.86132 ],
      "componentType" : 5126,
      "count" : 473,
      "type" : "VEC3"
    },
    {
      "bufferView" : 47,
      "componentType" : 5126,
      "count" : 473,
      "type" : "VEC3"
    },
    {
      "bufferView" : 48,
      "componentType" : 5126,
      "count" : 473,
      "type" : "VEC4"
    },
    {
      "bufferView" : 49,
      "normalized" : true,
      "componentType" : 5121,
      "count" : 473,
      "type" : "VEC4"
    },
    {
      "bufferView" : 50,
      "componentType" : 5126,
      "count" : 473,
      "type" : "VEC2"
    },
    {
      "bufferView" : 51,
      "componentType" : 5126,
      "count" : 473,
      "type" : "VEC2"
    },
    {
      "bufferView" : 52,
      "componentType" : 5126,
      "count" : 473,
      "type" : "VEC2"
    },
    {
      "bufferView" : 53,
      "componentType" : 5126,
      "count" : 473,
      "type" : "VEC2"
    },
    {
      "bufferView" : 54,
      "componentType" : 5123,
      "count" : 60,
      "type" : "SCALAR"
    },
    {
      "bufferView" : 55,
      "min" : [ -37.8879, 15.1207, -9.43787 ],
      "max" : [ -37.0921, 20.4209, 0.24505 ],
      "componentType" : 5126,
      "count" : 40,
      "type" : "VEC3"
    },
    {
      "bufferView" : 56,
      "componentType" : 5126,
      "count" : 40,
      "type" : "VEC3"
    },
    {
      "bufferView" : 57,
      "componentType" : 5126,
      "count" : 40,
      "type" : "VEC4"
    },
    {
      "bufferView" : 58,
      "normalized" : true,
      "componentType" : 5121,
      "count" : 40,
      "type" : "VEC4"
    },
    {
      "bufferView" : 59,
      "componentType" : 5126,
      "count" : 40,
      "type" : "VEC2"
    },
    {
      "bufferView" : 60,
      "componentType" : 5126,
      "count" : 40,
      "type" : "VEC2"
    },
    {
      "bufferView" : 61,
      "componentType" : 5126,
      "count" : 40,
      "type" : "VEC2"
    },
    {
      "bufferView" : 62,
      "componentType" : 5126,
      "count" : 40,
      "type" : "VEC2"
    },
    {
      "bufferView" : 63,
      "componentType" : 5123,
      "count" : 5367,
      "type" : "SCALAR"
    },
    {
      "bufferView" : 64,
      "min" : [ -56.4474, 11.7064, -18.0362 ],
      "max" : [ -35.8619, 27.9424, 17.2827 ],
      "componentType" : 5126,
      "count" : 2084,
      "type" : "VEC3"
    },
    {
      "bufferView" : 65,
      "componentType" : 5126,
      "count" : 2084,
      "type" : "VEC3"
    },
    {
      "bufferView" : 66,
      "componentType" : 5126,
      "count" : 2084,
      "type" : "VEC4"
    },
    {
      "bufferView" : 67,
      "normalized" : true,
      "componentType" : 5121,
      "count" : 2084,
      "type" : "VEC4"
    },
    {
      "bufferView" : 68,
      "componentType" : 5126,
      "count" : 2084,
      "type" : "VEC2"
    },
    {
      "bufferView" : 69,
      "componentType" : 5126,
      "count" : 2084,
      "type" : "VEC2"
    },
    {
      "bufferView" : 70,
      "componentType" : 5126,
      "count" : 2084,
      "type" : "VEC2"
    },
    {
      "bufferView" : 71,
      "componentType" : 5126,
      "count" : 2084,
      "type" : "VEC2"
    },
    {
      "bufferView" : 72,
      "componentType" : 5123,
      "count" : 471,
      "type" : "SCALAR"
    },
    {
      "bufferView" : 73,
      "min" : [ -54.723, 5.70633, -16.6217 ],
      "max" : [ -37.4945, 28.6569, 15.7933 ],
      "componentType" : 5126,
      "count" : 292,
      "type" : "VEC3"
    },
    {
      "bufferView" : 74,
      "componentType" : 5126,
      "count" : 292,
      "type" : "VEC3"
    },
    {
      "bufferView" : 75,
      "componentType" : 5126,
      "count" : 292,
      "type" : "VEC4"
    },
    {
      "bufferView" : 76,
      "normalized" : true,
      "componentType" : 5121,
      "count" : 292,
      "type" : "VEC4"
    },
    {
      "bufferView" : 77,
      "componentType" : 5126,
      "count" : 292,
      "type" : "VEC2"
    },
    {
      "bufferView" : 78,
      "componentType" : 5126,
      "count" : 292,
      "type" : "VEC2"
    },
    {
      "bufferView" : 79,
      "componentType" : 5126,
      "count" : 292,
      "type" : "VEC2"
    },
    {
      "bufferView" : 80,
      "componentType" : 5126,
      "count" : 292,
      "type" : "VEC2"
    },
    {
      "bufferView" : 81,
      "componentType" : 5123,
      "count" : 30,
      "type" : "SCALAR"
    },
    {
      "bufferView" : 82,
      "min" : [ -43.0124, 5.70641, -0.0712756 ],
      "max" : [ -39.0124, 10.3064, 5.8772 ],
      "componentType" : 5126,
      "count" : 20,
      "type" : "VEC3"
    },
    {
      "bufferView" : 83,
      "componentType" : 5126,
      "count" : 20,
      "type" : "VEC3"
    },
    {
      "bufferView" : 84,
      "componentType" : 5126,
      "count" : 20,
      "type" : "VEC4"
    },
    {
      "bufferView" : 85,
      "normalized" : true,
      "componentType" : 5121,
      "count" : 20,
      "type" : "VEC4"
    },
    {
      "bufferView" : 86,
      "componentType" : 5126,
      "count" : 20,
      "type" : "VEC2"
    },
    {
      "bufferView" : 87,
      "componentType" : 5126,
      "count" : 20,
      "type" : "VEC2"
    },
    {
      "bufferView" : 88,
      "componentType" : 5126,
      "count" : 20,
      "type" : "VEC2"
    },
    {
      "bufferView" : 89,
      "componentType" : 5126,
      "count" : 20,
      "type" : "VEC2"
    },
    {
      "bufferView" : 90,
      "componentType" : 5123,
      "count" : 276,
      "type" : "SCALAR"
    },
    {
      "bufferView" : 91,
      "min" : [ -54.046, 5.85633, -16.6256 ],
      "max" : [ -37.4378, 21.7666, 15.1011 ],
      "componentType" : 5126,
      "count" : 184,
      "type" : "VEC3"
    },
    {
      "bufferView" : 92,
      "componentType" : 5126,
      "count" : 184,
      "type" : "VEC3"
    },
    {
      "bufferView" : 93,
      "componentType" : 5126,
      "count" : 184,
      "type" : "VEC4"
    },
    {
      "bufferView" : 94,
      "normalized" : true,
      "componentType" : 5121,
      "count" : 184,
      "type" : "VEC4"
    },
    {
      "bufferView" : 95,
      "componentType" : 5126,
      "count" : 184,
      "type" : "VEC2"
    },
    {
      "bufferView" : 96,
      "componentType" : 5126,
      "count" : 184,
      "type" : "VEC2"
    },
    {
      "bufferView" : 97,
      "componentType" : 5126,
      "count" : 184,
      "type" : "VEC2"
    },
    {
      "bufferView" : 98,
      "componentType" : 5126,
      "count" : 184,
      "type" : "VEC2"
    },
    {
      "bufferView" : 99,
      "componentType" : 5123,
      "count" : 153,
      "type" : "SCALAR"
    },
    {
      "bufferView" : 100,
      "min" : [ -36.6314, 11.4239, 1.39042 ],
      "max" : [ -35.8357, 12.7096, 4.34698 ],
      "componentType" : 5126,
      "count" : 85,
      "type" : "VEC3"
    },
    {
      "bufferView" : 101,
      "componentType" : 5126,
      "count" : 85,
      "type" : "VEC3"
    },
    {
      "bufferView" : 102,
      "componentType" : 5126,
      "count" : 85,
      "type" : "VEC4"
    },
    {
      "bufferView" : 103,
      "normalized" : true,
      "componentType" : 5121,
      "count" : 85,
      "type" : "VEC4"
    },
    {
      "bufferView" : 104,
      "componentType" : 5126,
      "count" : 85,
      "type" : "VEC2"
    },
    {
      "bufferView" : 105,
      "componentType" : 5126,
      "count" : 85,
      "type" : "VEC2"
    },
    {
      "bufferView" : 106,
      "componentType" : 5126,
      "count" : 85,
      "type" : "VEC2"
    },
    {
      "bufferView" : 107,
      "componentType" : 5126,
      "count" : 85,
      "type" : "VEC2"
    },
    {
      "bufferView" : 108,
      "componentType" : 5123,
      "count" : 144,
      "type" : "SCALAR"
    },
    {
      "bufferView" : 109,
      "min" : [ -40.9004, 24.2761, -9.4307 ],
      "max" : [ -38.9528, 26.452, 8.59493 ],
      "componentType" : 5126,
      "count" : 64,
      "type" : "VEC3"
    },
    {
      "bufferView" : 110,
      "componentType" : 5126,
      "count" : 64,
      "type" : "VEC3"
    },
    {
      "bufferView" : 111,
      "componentType" : 5126,
      "count" : 64,
      "type" : "VEC4"
    },
    {
      "bufferView" : 112,
      "normalized" : true,
      "componentType" : 5121,
      "count" : 64,
      "type" : "VEC4"
    },
    {
      "bufferView" : 113,
      "componentType" : 5126,
      "count" : 64,
      "type" : "VEC2"
    },
    {
      "bufferView" : 114,
      "componentType" : 5126,
      "count" : 64,
      "type" : "VEC2"
    },
    {
      "bufferView" : 115,
      "componentType" : 5126,
      "count" : 64,
      "type" : "VEC2"
    },
    {
      "bufferView" : 116,
      "componentType" : 5126,
      "count" : 64,
      "type" : "VEC2"
    },
    {
      "bufferView" : 117,
      "componentType" : 5123,
      "count" : 5571,
      "type" : "SCALAR"
    },
    {
      "bufferView" : 118,
      "min" : [ -56.3916, 5.70633, -17.6251 ],
      "max" : [ -35.7241, 30.9305, 16.9231 ],
      "componentType" : 5126,
      "count" : 2628,
      "type" : "VEC3"
    },
    {
      "bufferView" : 119,
      "componentType" : 5126,
      "count" : 2628,
      "type" : "VEC3"
    },
    {
      "bufferView" : 120,
      "componentType" : 5126,
      "count" : 2628,
      "type" : "VEC4"
    },
    {
      "bufferView" : 121,
      "normalized" : true,
      "componentType" : 5121,
      "count" : 2628,
      "type" : "VEC4"
    },
    {
      "bufferView" : 122,
      "componentType" : 5126,
      "count" : 2628,
      "type" : "VEC2"
    },
    {
      "bufferView" : 123,
      "componentType" : 5126,
      "count" : 2628,
      "type" : "VEC2"
    },
    {
      "bufferView" : 124,
      "componentType" : 5126,
      "count" : 2628,
      "type" : "VEC2"
    },
    {
      "bufferView" : 125,
      "componentType" : 5126,
      "count" : 2628,
      "type" : "VEC2"
    }
  ]
}
