{
  "asset" : {
    "generator" : "UE Viewer (umodel) build 1544 based",
    "version" : "2.0"
  },
  "scene" : 0,
  "scenes" : [
    {
      "nodes" : [ 0 ]
    }
  ],
  "nodes" : [
    {
      "name" : "SM_ENV_LKNVLD_Ground_Hill_Left_WaterTunnel_Lod3",
      "mesh" : 0
    }
  ],
  "materials" : [
    {
      "name" : "MI_ENV_LKNVLD_RoughTiles_LOD",
      "pbrMetallicRoughness" : {
        "baseColorFactor" : [ 0.3, 0.3, 0.3, 1.0 ],
        "metallicFactor" : 0.1,
        "roughnessFactor" : 0.5
      }
    }
  ],
  "meshes" : [
    {
      "primitives" : [
        {
          "attributes" : {
            "POSITION" : 1,
            "NORMAL" : 2,
            "TANGENT" : 3,
            "TEXCOORD_0" : 4,
            "TEXCOORD_1" : 5,
            "TEXCOORD_2" : 6,
            "TEXCOORD_3" : 7
          },
          "indices" : 0,
          "material" : 0
        }
      ],
      "name" : "SM_ENV_LKNVLD_Ground_Hill_Left_WaterTunnel_Lod3"
    }
  ],
  "buffers" : [
    {
      "uri" : "SM_ENV_LKNVLD_Ground_Hill_Left_WaterTunnel_Lod3.bin",
      "byteLength" : 29396
    }
  ],
  "bufferViews" : [
    {
      "buffer" : 0,
      "byteOffset" : 0,
      "byteLength" : 1604
    },
    {
      "buffer" : 0,
      "byteOffset" : 1604,
      "byteLength" : 4632
    },
    {
      "buffer" : 0,
      "byteOffset" : 6236,
      "byteLength" : 4632
    },
    {
      "buffer" : 0,
      "byteOffset" : 10868,
      "byteLength" : 6176
    },
    {
      "buffer" : 0,
      "byteOffset" : 17044,
      "byteLength" : 3088
    },
    {
      "buffer" : 0,
      "byteOffset" : 20132,
      "byteLength" : 3088
    },
    {
      "buffer" : 0,
      "byteOffset" : 23220,
      "byteLength" : 3088
    },
    {
      "buffer" : 0,
      "byteOffset" : 26308,
      "byteLength" : 3088
    }
  ],
  "accessors" : [
    {
      "bufferView" : 0,
      "componentType" : 5123,
      "count" : 801,
      "type" : "SCALAR"
    },
    {
      "bufferView" : 1,
      "min" : [ -42.5916, -0.587515, -79.494 ],
      "max" : [ -13.2068, 4.35407, -72.0383 ],
      "componentType" : 5126,
      "count" : 386,
      "type" : "VEC3"
    },
    {
      "bufferView" : 2,
      "componentType" : 5126,
      "count" : 386,
      "type" : "VEC3"
    },
    {
      "bufferView" : 3,
      "componentType" : 5126,
      "count" : 386,
      "type" : "VEC4"
    },
    {
      "bufferView" : 4,
      "componentType" : 5126,
      "count" : 386,
      "type" : "VEC2"
    },
    {
      "bufferView" : 5,
      "componentType" : 5126,
      "count" : 386,
      "type" : "VEC2"
    },
    {
      "bufferView" : 6,
      "componentType" : 5126,
      "count" : 386,
      "type" : "VEC2"
    },
    {
      "bufferView" : 7,
      "componentType" : 5126,
      "count" : 386,
      "type" : "VEC2"
    }
  ]
}
