{
  "asset" : {
    "generator" : "UE Viewer (umodel) build 1544 based",
    "version" : "2.0"
  },
  "scene" : 0,
  "scenes" : [
    {
      "nodes" : [ 0 ]
    }
  ],
  "nodes" : [
    {
      "name" : "SM_ENV_LKNVLD_Ground_StairCase_01_Lod2",
      "mesh" : 0
    }
  ],
  "materials" : [
    {
      "name" : "MI_T_ENV_LKNVLD_StoneTrim_LOD",
      "pbrMetallicRoughness" : {
        "baseColorFactor" : [ 0.3, 0.3, 0.3, 1.0 ],
        "metallicFactor" : 0.1,
        "roughnessFactor" : 0.5
      }
    },
    {
      "name" : "MI_ENV_LKNVLD_RoughTiles_LOD",
      "pbrMetallicRoughness" : {
        "baseColorFactor" : [ 0.9, 0.3, 0.3, 1.0 ],
        "metallicFactor" : 0.1,
        "roughnessFactor" : 0.5
      }
    },
    {
      "name" : "MI_ENV_LKNVLD_WoodPlain_Red_LOD",
      "pbrMetallicRoughness" : {
        "baseColorFactor" : [ 0.3, 0.9, 0.3, 1.0 ],
        "metallicFactor" : 0.1,
        "roughnessFactor" : 0.5
      }
    },
    {
      "name" : "MI_ENV_LKNVLD_Signboard_A",
      "pbrMetallicRoughness" : {
        "baseColorFactor" : [ 0.3, 0.3, 0.9, 1.0 ],
        "metallicFactor" : 0.1,
        "roughnessFactor" : 0.5
      }
    },
    {
      "name" : "MI_ENV_LKNVLD_WoodWallSet_LOD",
      "pbrMetallicRoughness" : {
        "baseColorFactor" : [ 0.9, 0.9, 0.9, 1.0 ],
        "metallicFactor" : 0.1,
        "roughnessFactor" : 0.5
      }
    },
    {
      "name" : "MI_T_ENV_LKNVLD_StoneStairs_LOD",
      "pbrMetallicRoughness" : {
        "baseColorFactor" : [ 0.9, 0.9, 0.3, 1.0 ],
        "metallicFactor" : 0.1,
        "roughnessFactor" : 0.5
      }
    },
    {
      "name" : "MI_ENV_LKNVLD_GroundSoil_A_LOD",
      "pbrMetallicRoughness" : {
        "baseColorFactor" : [ 0.9, 0.3, 0.9, 1.0 ],
        "metallicFactor" : 0.1,
        "roughnessFactor" : 0.5
      }
    }
  ],
  "meshes" : [
    {
      "primitives" : [
        {
          "attributes" : {
            "POSITION" : 1,
            "NORMAL" : 2,
            "TANGENT" : 3,
            "COLOR_0" : 4,
            "TEXCOORD_0" : 5,
            "TEXCOORD_1" : 6,
            "TEXCOORD_2" : 7,
            "TEXCOORD_3" : 8
          },
          "indices" : 0,
          "material" : 0
        },
        {
          "attributes" : {
            "POSITION" : 10,
            "NORMAL" : 11,
            "TANGENT" : 12,
            "COLOR_0" : 13,
            "TEXCOORD_0" : 14,
            "TEXCOORD_1" : 15,
            "TEXCOORD_2" : 16,
            "TEXCOORD_3" : 17
          },
          "indices" : 9,
          "material" : 1
        },
        {
          "attributes" : {
            "POSITION" : 19,
            "NORMAL" : 20,
            "TANGENT" : 21,
            "COLOR_0" : 22,
            "TEXCOORD_0" : 23,
            "TEXCOORD_1" : 24,
            "TEXCOORD_2" : 25,
            "TEXCOORD_3" : 26
          },
          "indices" : 18,
          "material" : 2
        },
        {
          "attributes" : {
            "POSITION" : 28,
            "NORMAL" : 29,
            "TANGENT" : 30,
            "COLOR_0" : 31,
            "TEXCOORD_0" : 32,
            "TEXCOORD_1" : 33,
            "TEXCOORD_2" : 34,
            "TEXCOORD_3" : 35
          },
          "indices" : 27,
          "material" : 3
        },
        {
          "attributes" : {
            "POSITION" : 37,
            "NORMAL" : 38,
            "TANGENT" : 39,
            "COLOR_0" : 40,
            "TEXCOORD_0" : 41,
            "TEXCOORD_1" : 42,
            "TEXCOORD_2" : 43,
            "TEXCOORD_3" : 44
          },
          "indices" : 36,
          "material" : 4
        },
        {
          "attributes" : {
            "POSITION" : 46,
            "NORMAL" : 47,
            "TANGENT" : 48,
            "COLOR_0" : 49,
            "TEXCOORD_0" : 50,
            "TEXCOORD_1" : 51,
            "TEXCOORD_2" : 52,
            "TEXCOORD_3" : 53
          },
          "indices" : 45,
          "material" : 5
        },
        {
          "attributes" : {
            "POSITION" : 55,
            "NORMAL" : 56,
            "TANGENT" : 57,
            "COLOR_0" : 58,
            "TEXCOORD_0" : 59,
            "TEXCOORD_1" : 60,
            "TEXCOORD_2" : 61,
            "TEXCOORD_3" : 62
          },
          "indices" : 54,
          "material" : 6
        }
      ],
      "name" : "SM_ENV_LKNVLD_Ground_StairCase_01_Lod2"
    }
  ],
  "buffers" : [
    {
      "uri" : "SM_ENV_LKNVLD_Ground_StairCase_01_Lod2.bin",
      "byteLength" : 489668
    }
  ],
  "bufferViews" : [
    {
      "buffer" : 0,
      "byteOffset" : 0,
      "byteLength" : 4508
    },
    {
      "buffer" : 0,
      "byteOffset" : 4508,
      "byteLength" : 6876
    },
    {
      "buffer" : 0,
      "byteOffset" : 11384,
      "byteLength" : 6876
    },
    {
      "buffer" : 0,
      "byteOffset" : 18260,
      "byteLength" : 9168
    },
    {
      "buffer" : 0,
      "byteOffset" : 27428,
      "byteLength" : 2292
    },
    {
      "buffer" : 0,
      "byteOffset" : 29720,
      "byteLength" : 4584
    },
    {
      "buffer" : 0,
      "byteOffset" : 34304,
      "byteLength" : 4584
    },
    {
      "buffer" : 0,
      "byteOffset" : 38888,
      "byteLength" : 4584
    },
    {
      "buffer" : 0,
      "byteOffset" : 43472,
      "byteLength" : 4584
    },
    {
      "buffer" : 0,
      "byteOffset" : 48056,
      "byteLength" : 2700
    },
    {
      "buffer" : 0,
      "byteOffset" : 50756,
      "byteLength" : 3912
    },
    {
      "buffer" : 0,
      "byteOffset" : 54668,
      "byteLength" : 3912
    },
    {
      "buffer" : 0,
      "byteOffset" : 58580,
      "byteLength" : 5216
    },
    {
      "buffer" : 0,
      "byteOffset" : 63796,
      "byteLength" : 1304
    },
    {
      "buffer" : 0,
      "byteOffset" : 65100,
      "byteLength" : 2608
    },
    {
      "buffer" : 0,
      "byteOffset" : 67708,
      "byteLength" : 2608
    },
    {
      "buffer" : 0,
      "byteOffset" : 70316,
      "byteLength" : 2608
    },
    {
      "buffer" : 0,
      "byteOffset" : 72924,
      "byteLength" : 2608
    },
    {
      "buffer" : 0,
      "byteOffset" : 75532,
      "byteLength" : 7944
    },
    {
      "buffer" : 0,
      "byteOffset" : 83476,
      "byteLength" : 20280
    },
    {
      "buffer" : 0,
      "byteOffset" : 103756,
      "byteLength" : 20280
    },
    {
      "buffer" : 0,
      "byteOffset" : 124036,
      "byteLength" : 27040
    },
    {
      "buffer" : 0,
      "byteOffset" : 151076,
      "byteLength" : 6760
    },
    {
      "buffer" : 0,
      "byteOffset" : 157836,
      "byteLength" : 13520
    },
    {
      "buffer" : 0,
      "byteOffset" : 171356,
      "byteLength" : 13520
    },
    {
      "buffer" : 0,
      "byteOffset" : 184876,
      "byteLength" : 13520
    },
    {
      "buffer" : 0,
      "byteOffset" : 198396,
      "byteLength" : 13520
    },
    {
      "buffer" : 0,
      "byteOffset" : 211916,
      "byteLength" : 14772
    },
    {
      "buffer" : 0,
      "byteOffset" : 226688,
      "byteLength" : 22872
    },
    {
      "buffer" : 0,
      "byteOffset" : 249560,
      "byteLength" : 22872
    },
    {
      "buffer" : 0,
      "byteOffset" : 272432,
      "byteLength" : 30496
    },
    {
      "buffer" : 0,
      "byteOffset" : 302928,
      "byteLength" : 7624
    },
    {
      "buffer" : 0,
      "byteOffset" : 310552,
      "byteLength" : 15248
    },
    {
      "buffer" : 0,
      "byteOffset" : 325800,
      "byteLength" : 15248
    },
    {
      "buffer" : 0,
      "byteOffset" : 341048,
      "byteLength" : 15248
    },
    {
      "buffer" : 0,
      "byteOffset" : 356296,
      "byteLength" : 15248
    },
    {
      "buffer" : 0,
      "byteOffset" : 371544,
      "byteLength" : 4512
    },
    {
      "buffer" : 0,
      "byteOffset" : 376056,
      "byteLength" : 9360
    },
    {
      "buffer" : 0,
      "byteOffset" : 385416,
      "byteLength" : 9360
    },
    {
      "buffer" : 0,
      "byteOffset" : 394776,
      "byteLength" : 12480
    },
    {
      "buffer" : 0,
      "byteOffset" : 407256,
      "byteLength" : 3120
    },
    {
      "buffer" : 0,
      "byteOffset" : 410376,
      "byteLength" : 6240
    },
    {
      "buffer" : 0,
      "byteOffset" : 416616,
      "byteLength" : 6240
    },
    {
      "buffer" : 0,
      "byteOffset" : 422856,
      "byteLength" : 6240
    },
    {
      "buffer" : 0,
      "byteOffset" : 429096,
      "byteLength" : 6240
    },
    {
      "buffer" : 0,
      "byteOffset" : 435336,
      "byteLength" : 3672
    },
    {
      "buffer" : 0,
      "byteOffset" : 439008,
      "byteLength" : 7524
    },
    {
      "buffer" : 0,
      "byteOffset" : 446532,
      "byteLength" : 7524
    },
    {
      "buffer" : 0,
      "byteOffset" : 454056,
      "byteLength" : 10032
    },
    {
      "buffer" : 0,
      "byteOffset" : 464088,
      "byteLength" : 2508
    },
    {
      "buffer" : 0,
      "byteOffset" : 466596,
      "byteLength" : 5016
    },
    {
      "buffer" : 0,
      "byteOffset" : 471612,
      "byteLength" : 5016
    },
    {
      "buffer" : 0,
      "byteOffset" : 476628,
      "byteLength" : 5016
    },
    {
      "buffer" : 0,
      "byteOffset" : 481644,
      "byteLength" : 5016
    },
    {
      "buffer" : 0,
      "byteOffset" : 486660,
      "byteLength" : 120
    },
    {
      "buffer" : 0,
      "byteOffset" : 486780,
      "byteLength" : 456
    },
    {
      "buffer" : 0,
      "byteOffset" : 487236,
      "byteLength" : 456
    },
    {
      "buffer" : 0,
      "byteOffset" : 487692,
      "byteLength" : 608
    },
    {
      "buffer" : 0,
      "byteOffset" : 488300,
      "byteLength" : 152
    },
    {
      "buffer" : 0,
      "byteOffset" : 488452,
      "byteLength" : 304
    },
    {
      "buffer" : 0,
      "byteOffset" : 488756,
      "byteLength" : 304
    },
    {
      "buffer" : 0,
      "byteOffset" : 489060,
      "byteLength" : 304
    },
    {
      "buffer" : 0,
      "byteOffset" : 489364,
      "byteLength" : 304
    }
  ],
  "accessors" : [
    {
      "bufferView" : 0,
      "componentType" : 5123,
      "count" : 2253,
      "type" : "SCALAR"
    },
    {
      "bufferView" : 1,
      "min" : [ -10.3984, -0.793995, -44.2951 ],
      "max" : [ 5.61587, 6.34201, -29.9323 ],
      "componentType" : 5126,
      "count" : 573,
      "type" : "VEC3"
    },
    {
      "bufferView" : 2,
      "componentType" : 5126,
      "count" : 573,
      "type" : "VEC3"
    },
    {
      "bufferView" : 3,
      "componentType" : 5126,
      "count" : 573,
      "type" : "VEC4"
    },
    {
      "bufferView" : 4,
      "normalized" : true,
      "componentType" : 5121,
      "count" : 573,
      "type" : "VEC4"
    },
    {
      "bufferView" : 5,
      "componentType" : 5126,
      "count" : 573,
      "type" : "VEC2"
    },
    {
      "bufferView" : 6,
      "componentType" : 5126,
      "count" : 573,
      "type" : "VEC2"
    },
    {
      "bufferView" : 7,
      "componentType" : 5126,
      "count" : 573,
      "type" : "VEC2"
    },
    {
      "bufferView" : 8,
      "componentType" : 5126,
      "count" : 573,
      "type" : "VEC2"
    },
    {
      "bufferView" : 9,
      "componentType" : 5123,
      "count" : 1350,
      "type" : "SCALAR"
    },
    {
      "bufferView" : 10,
      "min" : [ -11.3203, -0.551215, -44.2726 ],
      "max" : [ 11.3203, 6.1843, -30.6373 ],
      "componentType" : 5126,
      "count" : 326,
      "type" : "VEC3"
    },
    {
      "bufferView" : 11,
      "componentType" : 5126,
      "count" : 326,
      "type" : "VEC3"
    },
    {
      "bufferView" : 12,
      "componentType" : 5126,
      "count" : 326,
      "type" : "VEC4"
    },
    {
      "bufferView" : 13,
      "normalized" : true,
      "componentType" : 5121,
      "count" : 326,
      "type" : "VEC4"
    },
    {
      "bufferView" : 14,
      "componentType" : 5126,
      "count" : 326,
      "type" : "VEC2"
    },
    {
      "bufferView" : 15,
      "componentType" : 5126,
      "count" : 326,
      "type" : "VEC2"
    },
    {
      "bufferView" : 16,
      "componentType" : 5126,
      "count" : 326,
      "type" : "VEC2"
    },
    {
      "bufferView" : 17,
      "componentType" : 5126,
      "count" : 326,
      "type" : "VEC2"
    },
    {
      "bufferView" : 18,
      "componentType" : 5123,
      "count" : 3972,
      "type" : "SCALAR"
    },
    {
      "bufferView" : 19,
      "min" : [ -5.27015, 0.149261, -43.391 ],
      "max" : [ 5.27015, 7.46601, -31.0554 ],
      "componentType" : 5126,
      "count" : 1690,
      "type" : "VEC3"
    },
    {
      "bufferView" : 20,
      "componentType" : 5126,
      "count" : 1690,
      "type" : "VEC3"
    },
    {
      "bufferView" : 21,
      "componentType" : 5126,
      "count" : 1690,
      "type" : "VEC4"
    },
    {
      "bufferView" : 22,
      "normalized" : true,
      "componentType" : 5121,
      "count" : 1690,
      "type" : "VEC4"
    },
    {
      "bufferView" : 23,
      "componentType" : 5126,
      "count" : 1690,
      "type" : "VEC2"
    },
    {
      "bufferView" : 24,
      "componentType" : 5126,
      "count" : 1690,
      "type" : "VEC2"
    },
    {
      "bufferView" : 25,
      "componentType" : 5126,
      "count" : 1690,
      "type" : "VEC2"
    },
    {
      "bufferView" : 26,
      "componentType" : 5126,
      "count" : 1690,
      "type" : "VEC2"
    },
    {
      "bufferView" : 27,
      "componentType" : 5123,
      "count" : 7386,
      "type" : "SCALAR"
    },
    {
      "bufferView" : 28,
      "min" : [ -5.27928, 0.841235, -43.3754 ],
      "max" : [ 5.28039, 7.67687, -31.0684 ],
      "componentType" : 5126,
      "count" : 1906,
      "type" : "VEC3"
    },
    {
      "bufferView" : 29,
      "componentType" : 5126,
      "count" : 1906,
      "type" : "VEC3"
    },
    {
      "bufferView" : 30,
      "componentType" : 5126,
      "count" : 1906,
      "type" : "VEC4"
    },
    {
      "bufferView" : 31,
      "normalized" : true,
      "componentType" : 5121,
      "count" : 1906,
      "type" : "VEC4"
    },
    {
      "bufferView" : 32,
      "componentType" : 5126,
      "count" : 1906,
      "type" : "VEC2"
    },
    {
      "bufferView" : 33,
      "componentType" : 5126,
      "count" : 1906,
      "type" : "VEC2"
    },
    {
      "bufferView" : 34,
      "componentType" : 5126,
      "count" : 1906,
      "type" : "VEC2"
    },
    {
      "bufferView" : 35,
      "componentType" : 5126,
      "count" : 1906,
      "type" : "VEC2"
    },
    {
      "bufferView" : 36,
      "componentType" : 5123,
      "count" : 2256,
      "type" : "SCALAR"
    },
    {
      "bufferView" : 37,
      "min" : [ -5.30951, 0.0524306, -43.4304 ],
      "max" : [ 5.30951, 6.40609, -31.0161 ],
      "componentType" : 5126,
      "count" : 780,
      "type" : "VEC3"
    },
    {
      "bufferView" : 38,
      "componentType" : 5126,
      "count" : 780,
      "type" : "VEC3"
    },
    {
      "bufferView" : 39,
      "componentType" : 5126,
      "count" : 780,
      "type" : "VEC4"
    },
    {
      "bufferView" : 40,
      "normalized" : true,
      "componentType" : 5121,
      "count" : 780,
      "type" : "VEC4"
    },
    {
      "bufferView" : 41,
      "componentType" : 5126,
      "count" : 780,
      "type" : "VEC2"
    },
    {
      "bufferView" : 42,
      "componentType" : 5126,
      "count" : 780,
      "type" : "VEC2"
    },
    {
      "bufferView" : 43,
      "componentType" : 5126,
      "count" : 780,
      "type" : "VEC2"
    },
    {
      "bufferView" : 44,
      "componentType" : 5126,
      "count" : 780,
      "type" : "VEC2"
    },
    {
      "bufferView" : 45,
      "componentType" : 5123,
      "count" : 1836,
      "type" : "SCALAR"
    },
    {
      "bufferView" : 46,
      "min" : [ -4.18063, -0.462359, -43.9182 ],
      "max" : [ 4.2702, 5.94945, -31.2718 ],
      "componentType" : 5126,
      "count" : 627,
      "type" : "VEC3"
    },
    {
      "bufferView" : 47,
      "componentType" : 5126,
      "count" : 627,
      "type" : "VEC3"
    },
    {
      "bufferView" : 48,
      "componentType" : 5126,
      "count" : 627,
      "type" : "VEC4"
    },
    {
      "bufferView" : 49,
      "normalized" : true,
      "componentType" : 5121,
      "count" : 627,
      "type" : "VEC4"
    },
    {
      "bufferView" : 50,
      "componentType" : 5126,
      "count" : 627,
      "type" : "VEC2"
    },
    {
      "bufferView" : 51,
      "componentType" : 5126,
      "count" : 627,
      "type" : "VEC2"
    },
    {
      "bufferView" : 52,
      "componentType" : 5126,
      "count" : 627,
      "type" : "VEC2"
    },
    {
      "bufferView" : 53,
      "componentType" : 5126,
      "count" : 627,
      "type" : "VEC2"
    },
    {
      "bufferView" : 54,
      "componentType" : 5123,
      "count" : 60,
      "type" : "SCALAR"
    },
    {
      "bufferView" : 55,
      "min" : [ -11.3203, -0.0678625, -38.602 ],
      "max" : [ 11.3203, -0.0665222, -30.9377 ],
      "componentType" : 5126,
      "count" : 38,
      "type" : "VEC3"
    },
    {
      "bufferView" : 56,
      "componentType" : 5126,
      "count" : 38,
      "type" : "VEC3"
    },
    {
      "bufferView" : 57,
      "componentType" : 5126,
      "count" : 38,
      "type" : "VEC4"
    },
    {
      "bufferView" : 58,
      "normalized" : true,
      "componentType" : 5121,
      "count" : 38,
      "type" : "VEC4"
    },
    {
      "bufferView" : 59,
      "componentType" : 5126,
      "count" : 38,
      "type" : "VEC2"
    },
    {
      "bufferView" : 60,
      "componentType" : 5126,
      "count" : 38,
      "type" : "VEC2"
    },
    {
      "bufferView" : 61,
      "componentType" : 5126,
      "count" : 38,
      "type" : "VEC2"
    },
    {
      "bufferView" : 62,
      "componentType" : 5126,
      "count" : 38,
      "type" : "VEC2"
    }
  ]
}
