{
  "asset" : {
    "generator" : "UE Viewer (umodel) build 1544 based",
    "version" : "2.0"
  },
  "scene" : 0,
  "scenes" : [
    {
      "nodes" : [ 0 ]
    }
  ],
  "nodes" : [
    {
      "name" : "SM_ENV_LKNVLD_Ground_Hill_Left_BeneathHill_Trim_Lod2",
      "mesh" : 0
    }
  ],
  "materials" : [
    {
      "name" : "MI_ENV_LKNVLD_RoughTiles_LOD",
      "pbrMetallicRoughness" : {
        "baseColorFactor" : [ 0.3, 0.3, 0.3, 1.0 ],
        "metallicFactor" : 0.1,
        "roughnessFactor" : 0.5
      }
    }
  ],
  "meshes" : [
    {
      "primitives" : [
        {
          "attributes" : {
            "POSITION" : 1,
            "NORMAL" : 2,
            "TANGENT" : 3,
            "TEXCOORD_0" : 4,
            "TEXCOORD_1" : 5,
            "TEXCOORD_2" : 6,
            "TEXCOORD_3" : 7
          },
          "indices" : 0,
          "material" : 0
        }
      ],
      "name" : "SM_ENV_LKNVLD_Ground_Hill_Left_BeneathHill_Trim_Lod2"
    }
  ],
  "buffers" : [
    {
      "uri" : "SM_ENV_LKNVLD_Ground_Hill_Left_BeneathHill_Trim_Lod2.bin",
      "byteLength" : 89856
    }
  ],
  "bufferViews" : [
    {
      "buffer" : 0,
      "byteOffset" : 0,
      "byteLength" : 6408
    },
    {
      "buffer" : 0,
      "byteOffset" : 6408,
      "byteLength" : 13908
    },
    {
      "buffer" : 0,
      "byteOffset" : 20316,
      "byteLength" : 13908
    },
    {
      "buffer" : 0,
      "byteOffset" : 34224,
      "byteLength" : 18544
    },
    {
      "buffer" : 0,
      "byteOffset" : 52768,
      "byteLength" : 9272
    },
    {
      "buffer" : 0,
      "byteOffset" : 62040,
      "byteLength" : 9272
    },
    {
      "buffer" : 0,
      "byteOffset" : 71312,
      "byteLength" : 9272
    },
    {
      "buffer" : 0,
      "byteOffset" : 80584,
      "byteLength" : 9272
    }
  ],
  "accessors" : [
    {
      "bufferView" : 0,
      "componentType" : 5123,
      "count" : 3204,
      "type" : "SCALAR"
    },
    {
      "bufferView" : 1,
      "min" : [ -42.6757, -0.187761, -79.6734 ],
      "max" : [ -5.20869, 0.667885, -34.5312 ],
      "componentType" : 5126,
      "count" : 1159,
      "type" : "VEC3"
    },
    {
      "bufferView" : 2,
      "componentType" : 5126,
      "count" : 1159,
      "type" : "VEC3"
    },
    {
      "bufferView" : 3,
      "componentType" : 5126,
      "count" : 1159,
      "type" : "VEC4"
    },
    {
      "bufferView" : 4,
      "componentType" : 5126,
      "count" : 1159,
      "type" : "VEC2"
    },
    {
      "bufferView" : 5,
      "componentType" : 5126,
      "count" : 1159,
      "type" : "VEC2"
    },
    {
      "bufferView" : 6,
      "componentType" : 5126,
      "count" : 1159,
      "type" : "VEC2"
    },
    {
      "bufferView" : 7,
      "componentType" : 5126,
      "count" : 1159,
      "type" : "VEC2"
    }
  ]
}
