{
  "asset" : {
    "generator" : "UE Viewer (umodel) build 1544 based",
    "version" : "2.0"
  },
  "scene" : 0,
  "scenes" : [
    {
      "nodes" : [ 0 ]
    }
  ],
  "nodes" : [
    {
      "name" : "SM_ENV_LKNVLD_Ground_StairCase_02_Lod3",
      "mesh" : 0
    }
  ],
  "materials" : [
    {
      "name" : "MI_T_ENV_LKNVLD_StoneTrim_LOD",
      "pbrMetallicRoughness" : {
        "baseColorFactor" : [ 0.3, 0.3, 0.3, 1.0 ],
        "metallicFactor" : 0.1,
        "roughnessFactor" : 0.5
      }
    },
    {
      "name" : "MI_ENV_LKNVLD_RoughTiles_LOD",
      "pbrMetallicRoughness" : {
        "baseColorFactor" : [ 0.9, 0.3, 0.3, 1.0 ],
        "metallicFactor" : 0.1,
        "roughnessFactor" : 0.5
      }
    },
    {
      "name" : "MI_T_ENV_LKNVLD_StoneStairs_LOD",
      "pbrMetallicRoughness" : {
        "baseColorFactor" : [ 0.3, 0.9, 0.3, 1.0 ],
        "metallicFactor" : 0.1,
        "roughnessFactor" : 0.5
      }
    },
    {
      "name" : "MI_ENV_LKNVLD_Signboard_A",
      "pbrMetallicRoughness" : {
        "baseColorFactor" : [ 0.3, 0.3, 0.9, 1.0 ],
        "metallicFactor" : 0.1,
        "roughnessFactor" : 0.5
      }
    },
    {
      "name" : "MI_ENV_LKNVLD_WoodWallSet_LOD",
      "pbrMetallicRoughness" : {
        "baseColorFactor" : [ 0.9, 0.9, 0.9, 1.0 ],
        "metallicFactor" : 0.1,
        "roughnessFactor" : 0.5
      }
    },
    {
      "name" : "MI_ENV_LKNVLD_WoodPlain_Red_LOD",
      "pbrMetallicRoughness" : {
        "baseColorFactor" : [ 0.9, 0.9, 0.3, 1.0 ],
        "metallicFactor" : 0.1,
        "roughnessFactor" : 0.5
      }
    }
  ],
  "meshes" : [
    {
      "primitives" : [
        {
          "attributes" : {
            "POSITION" : 1,
            "NORMAL" : 2,
            "TANGENT" : 3,
            "TEXCOORD_0" : 4,
            "TEXCOORD_1" : 5,
            "TEXCOORD_2" : 6,
            "TEXCOORD_3" : 7
          },
          "indices" : 0,
          "material" : 0
        },
        {
          "attributes" : {
            "POSITION" : 9,
            "NORMAL" : 10,
            "TANGENT" : 11,
            "TEXCOORD_0" : 12,
            "TEXCOORD_1" : 13,
            "TEXCOORD_2" : 14,
            "TEXCOORD_3" : 15
          },
          "indices" : 8,
          "material" : 1
        },
        {
          "attributes" : {
            "POSITION" : 17,
            "NORMAL" : 18,
            "TANGENT" : 19,
            "TEXCOORD_0" : 20,
            "TEXCOORD_1" : 21,
            "TEXCOORD_2" : 22,
            "TEXCOORD_3" : 23
          },
          "indices" : 16,
          "material" : 2
        },
        {
          "attributes" : {
            "POSITION" : 25,
            "NORMAL" : 26,
            "TANGENT" : 27,
            "TEXCOORD_0" : 28,
            "TEXCOORD_1" : 29,
            "TEXCOORD_2" : 30,
            "TEXCOORD_3" : 31
          },
          "indices" : 24,
          "material" : 3
        },
        {
          "attributes" : {
            "POSITION" : 33,
            "NORMAL" : 34,
            "TANGENT" : 35,
            "TEXCOORD_0" : 36,
            "TEXCOORD_1" : 37,
            "TEXCOORD_2" : 38,
            "TEXCOORD_3" : 39
          },
          "indices" : 32,
          "material" : 4
        },
        {
          "attributes" : {
            "POSITION" : 41,
            "NORMAL" : 42,
            "TANGENT" : 43,
            "TEXCOORD_0" : 44,
            "TEXCOORD_1" : 45,
            "TEXCOORD_2" : 46,
            "TEXCOORD_3" : 47
          },
          "indices" : 40,
          "material" : 5
        }
      ],
      "name" : "SM_ENV_LKNVLD_Ground_StairCase_02_Lod3"
    }
  ],
  "buffers" : [
    {
      "uri" : "SM_ENV_LKNVLD_Ground_StairCase_02_Lod3.bin",
      "byteLength" : 372608
    }
  ],
  "bufferViews" : [
    {
      "buffer" : 0,
      "byteOffset" : 0,
      "byteLength" : 2780
    },
    {
      "buffer" : 0,
      "byteOffset" : 2780,
      "byteLength" : 4140
    },
    {
      "buffer" : 0,
      "byteOffset" : 6920,
      "byteLength" : 4140
    },
    {
      "buffer" : 0,
      "byteOffset" : 11060,
      "byteLength" : 5520
    },
    {
      "buffer" : 0,
      "byteOffset" : 16580,
      "byteLength" : 2760
    },
    {
      "buffer" : 0,
      "byteOffset" : 19340,
      "byteLength" : 2760
    },
    {
      "buffer" : 0,
      "byteOffset" : 22100,
      "byteLength" : 2760
    },
    {
      "buffer" : 0,
      "byteOffset" : 24860,
      "byteLength" : 2760
    },
    {
      "buffer" : 0,
      "byteOffset" : 27620,
      "byteLength" : 2664
    },
    {
      "buffer" : 0,
      "byteOffset" : 30284,
      "byteLength" : 4788
    },
    {
      "buffer" : 0,
      "byteOffset" : 35072,
      "byteLength" : 4788
    },
    {
      "buffer" : 0,
      "byteOffset" : 39860,
      "byteLength" : 6384
    },
    {
      "buffer" : 0,
      "byteOffset" : 46244,
      "byteLength" : 3192
    },
    {
      "buffer" : 0,
      "byteOffset" : 49436,
      "byteLength" : 3192
    },
    {
      "buffer" : 0,
      "byteOffset" : 52628,
      "byteLength" : 3192
    },
    {
      "buffer" : 0,
      "byteOffset" : 55820,
      "byteLength" : 3192
    },
    {
      "buffer" : 0,
      "byteOffset" : 59012,
      "byteLength" : 3612
    },
    {
      "buffer" : 0,
      "byteOffset" : 62624,
      "byteLength" : 7428
    },
    {
      "buffer" : 0,
      "byteOffset" : 70052,
      "byteLength" : 7428
    },
    {
      "buffer" : 0,
      "byteOffset" : 77480,
      "byteLength" : 9904
    },
    {
      "buffer" : 0,
      "byteOffset" : 87384,
      "byteLength" : 4952
    },
    {
      "buffer" : 0,
      "byteOffset" : 92336,
      "byteLength" : 4952
    },
    {
      "buffer" : 0,
      "byteOffset" : 97288,
      "byteLength" : 4952
    },
    {
      "buffer" : 0,
      "byteOffset" : 102240,
      "byteLength" : 4952
    },
    {
      "buffer" : 0,
      "byteOffset" : 107192,
      "byteLength" : 8604
    },
    {
      "buffer" : 0,
      "byteOffset" : 115796,
      "byteLength" : 16356
    },
    {
      "buffer" : 0,
      "byteOffset" : 132152,
      "byteLength" : 16356
    },
    {
      "buffer" : 0,
      "byteOffset" : 148508,
      "byteLength" : 21808
    },
    {
      "buffer" : 0,
      "byteOffset" : 170316,
      "byteLength" : 10904
    },
    {
      "buffer" : 0,
      "byteOffset" : 181220,
      "byteLength" : 10904
    },
    {
      "buffer" : 0,
      "byteOffset" : 192124,
      "byteLength" : 10904
    },
    {
      "buffer" : 0,
      "byteOffset" : 203028,
      "byteLength" : 10904
    },
    {
      "buffer" : 0,
      "byteOffset" : 213932,
      "byteLength" : 2400
    },
    {
      "buffer" : 0,
      "byteOffset" : 216332,
      "byteLength" : 6624
    },
    {
      "buffer" : 0,
      "byteOffset" : 222956,
      "byteLength" : 6624
    },
    {
      "buffer" : 0,
      "byteOffset" : 229580,
      "byteLength" : 8832
    },
    {
      "buffer" : 0,
      "byteOffset" : 238412,
      "byteLength" : 4416
    },
    {
      "buffer" : 0,
      "byteOffset" : 242828,
      "byteLength" : 4416
    },
    {
      "buffer" : 0,
      "byteOffset" : 247244,
      "byteLength" : 4416
    },
    {
      "buffer" : 0,
      "byteOffset" : 251660,
      "byteLength" : 4416
    },
    {
      "buffer" : 0,
      "byteOffset" : 256076,
      "byteLength" : 6372
    },
    {
      "buffer" : 0,
      "byteOffset" : 262448,
      "byteLength" : 18360
    },
    {
      "buffer" : 0,
      "byteOffset" : 280808,
      "byteLength" : 18360
    },
    {
      "buffer" : 0,
      "byteOffset" : 299168,
      "byteLength" : 24480
    },
    {
      "buffer" : 0,
      "byteOffset" : 323648,
      "byteLength" : 12240
    },
    {
      "buffer" : 0,
      "byteOffset" : 335888,
      "byteLength" : 12240
    },
    {
      "buffer" : 0,
      "byteOffset" : 348128,
      "byteLength" : 12240
    },
    {
      "buffer" : 0,
      "byteOffset" : 360368,
      "byteLength" : 12240
    }
  ],
  "accessors" : [
    {
      "bufferView" : 0,
      "componentType" : 5123,
      "count" : 1389,
      "type" : "SCALAR"
    },
    {
      "bufferView" : 1,
      "min" : [ -4.11263, 5.92379, -62.816 ],
      "max" : [ 4.11263, 12.4566, -50.8981 ],
      "componentType" : 5126,
      "count" : 345,
      "type" : "VEC3"
    },
    {
      "bufferView" : 2,
      "componentType" : 5126,
      "count" : 345,
      "type" : "VEC3"
    },
    {
      "bufferView" : 3,
      "componentType" : 5126,
      "count" : 345,
      "type" : "VEC4"
    },
    {
      "bufferView" : 4,
      "componentType" : 5126,
      "count" : 345,
      "type" : "VEC2"
    },
    {
      "bufferView" : 5,
      "componentType" : 5126,
      "count" : 345,
      "type" : "VEC2"
    },
    {
      "bufferView" : 6,
      "componentType" : 5126,
      "count" : 345,
      "type" : "VEC2"
    },
    {
      "bufferView" : 7,
      "componentType" : 5126,
      "count" : 345,
      "type" : "VEC2"
    },
    {
      "bufferView" : 8,
      "componentType" : 5123,
      "count" : 1332,
      "type" : "SCALAR"
    },
    {
      "bufferView" : 9,
      "min" : [ -4.39337, 5.9201, -62.816 ],
      "max" : [ 4.39337, 12.2638, -50.5171 ],
      "componentType" : 5126,
      "count" : 399,
      "type" : "VEC3"
    },
    {
      "bufferView" : 10,
      "componentType" : 5126,
      "count" : 399,
      "type" : "VEC3"
    },
    {
      "bufferView" : 11,
      "componentType" : 5126,
      "count" : 399,
      "type" : "VEC4"
    },
    {
      "bufferView" : 12,
      "componentType" : 5126,
      "count" : 399,
      "type" : "VEC2"
    },
    {
      "bufferView" : 13,
      "componentType" : 5126,
      "count" : 399,
      "type" : "VEC2"
    },
    {
      "bufferView" : 14,
      "componentType" : 5126,
      "count" : 399,
      "type" : "VEC2"
    },
    {
      "bufferView" : 15,
      "componentType" : 5126,
      "count" : 399,
      "type" : "VEC2"
    },
    {
      "bufferView" : 16,
      "componentType" : 5123,
      "count" : 1806,
      "type" : "SCALAR"
    },
    {
      "bufferView" : 17,
      "min" : [ -3.97575, 5.91872, -62.8064 ],
      "max" : [ 4.07052, 12.0248, -50.96 ],
      "componentType" : 5126,
      "count" : 619,
      "type" : "VEC3"
    },
    {
      "bufferView" : 18,
      "componentType" : 5126,
      "count" : 619,
      "type" : "VEC3"
    },
    {
      "bufferView" : 19,
      "componentType" : 5126,
      "count" : 619,
      "type" : "VEC4"
    },
    {
      "bufferView" : 20,
      "componentType" : 5126,
      "count" : 619,
      "type" : "VEC2"
    },
    {
      "bufferView" : 21,
      "componentType" : 5126,
      "count" : 619,
      "type" : "VEC2"
    },
    {
      "bufferView" : 22,
      "componentType" : 5126,
      "count" : 619,
      "type" : "VEC2"
    },
    {
      "bufferView" : 23,
      "componentType" : 5126,
      "count" : 619,
      "type" : "VEC2"
    },
    {
      "bufferView" : 24,
      "componentType" : 5123,
      "count" : 4302,
      "type" : "SCALAR"
    },
    {
      "bufferView" : 25,
      "min" : [ -3.81982, 7.32702, -62.6616 ],
      "max" : [ 3.81244, 13.8148, -51.0118 ],
      "componentType" : 5126,
      "count" : 1363,
      "type" : "VEC3"
    },
    {
      "bufferView" : 26,
      "componentType" : 5126,
      "count" : 1363,
      "type" : "VEC3"
    },
    {
      "bufferView" : 27,
      "componentType" : 5126,
      "count" : 1363,
      "type" : "VEC4"
    },
    {
      "bufferView" : 28,
      "componentType" : 5126,
      "count" : 1363,
      "type" : "VEC2"
    },
    {
      "bufferView" : 29,
      "componentType" : 5126,
      "count" : 1363,
      "type" : "VEC2"
    },
    {
      "bufferView" : 30,
      "componentType" : 5126,
      "count" : 1363,
      "type" : "VEC2"
    },
    {
      "bufferView" : 31,
      "componentType" : 5126,
      "count" : 1363,
      "type" : "VEC2"
    },
    {
      "bufferView" : 32,
      "componentType" : 5123,
      "count" : 1200,
      "type" : "SCALAR"
    },
    {
      "bufferView" : 33,
      "min" : [ -3.85005, 6.4197, -62.7167 ],
      "max" : [ 3.85005, 12.544, -50.9618 ],
      "componentType" : 5126,
      "count" : 552,
      "type" : "VEC3"
    },
    {
      "bufferView" : 34,
      "componentType" : 5126,
      "count" : 552,
      "type" : "VEC3"
    },
    {
      "bufferView" : 35,
      "componentType" : 5126,
      "count" : 552,
      "type" : "VEC4"
    },
    {
      "bufferView" : 36,
      "componentType" : 5126,
      "count" : 552,
      "type" : "VEC2"
    },
    {
      "bufferView" : 37,
      "componentType" : 5126,
      "count" : 552,
      "type" : "VEC2"
    },
    {
      "bufferView" : 38,
      "componentType" : 5126,
      "count" : 552,
      "type" : "VEC2"
    },
    {
      "bufferView" : 39,
      "componentType" : 5126,
      "count" : 552,
      "type" : "VEC2"
    },
    {
      "bufferView" : 40,
      "componentType" : 5123,
      "count" : 3186,
      "type" : "SCALAR"
    },
    {
      "bufferView" : 41,
      "min" : [ -3.8107, 6.65282, -62.6773 ],
      "max" : [ 3.8107, 13.604, -51.0012 ],
      "componentType" : 5126,
      "count" : 1530,
      "type" : "VEC3"
    },
    {
      "bufferView" : 42,
      "componentType" : 5126,
      "count" : 1530,
      "type" : "VEC3"
    },
    {
      "bufferView" : 43,
      "componentType" : 5126,
      "count" : 1530,
      "type" : "VEC4"
    },
    {
      "bufferView" : 44,
      "componentType" : 5126,
      "count" : 1530,
      "type" : "VEC2"
    },
    {
      "bufferView" : 45,
      "componentType" : 5126,
      "count" : 1530,
      "type" : "VEC2"
    },
    {
      "bufferView" : 46,
      "componentType" : 5126,
      "count" : 1530,
      "type" : "VEC2"
    },
    {
      "bufferView" : 47,
      "componentType" : 5126,
      "count" : 1530,
      "type" : "VEC2"
    }
  ]
}
