{
  "asset" : {
    "generator" : "UE Viewer (umodel) build 1544 based",
    "version" : "2.0"
  },
  "scene" : 0,
  "scenes" : [
    {
      "nodes" : [ 0 ]
    }
  ],
  "nodes" : [
    {
      "name" : "SM_ENV_LKNVLD_Ground_Hill_Left_HillSideTrim_03_Lod2",
      "mesh" : 0
    }
  ],
  "materials" : [
    {
      "name" : "MI_ENV_LKNVLD_RoughTiles_LOD",
      "pbrMetallicRoughness" : {
        "baseColorFactor" : [ 0.3, 0.3, 0.3, 1.0 ],
        "metallicFactor" : 0.1,
        "roughnessFactor" : 0.5
      }
    }
  ],
  "meshes" : [
    {
      "primitives" : [
        {
          "attributes" : {
            "POSITION" : 1,
            "NORMAL" : 2,
            "TANGENT" : 3,
            "TEXCOORD_0" : 4,
            "TEXCOORD_1" : 5,
            "TEXCOORD_2" : 6,
            "TEXCOORD_3" : 7
          },
          "indices" : 0,
          "material" : 0
        }
      ],
      "name" : "SM_ENV_LKNVLD_Ground_Hill_Left_HillSideTrim_03_Lod2"
    }
  ],
  "buffers" : [
    {
      "uri" : "SM_ENV_LKNVLD_Ground_Hill_Left_HillSideTrim_03_Lod2.bin",
      "byteLength" : 15248
    }
  ],
  "bufferViews" : [
    {
      "buffer" : 0,
      "byteOffset" : 0,
      "byteLength" : 920
    },
    {
      "buffer" : 0,
      "byteOffset" : 920,
      "byteLength" : 2388
    },
    {
      "buffer" : 0,
      "byteOffset" : 3308,
      "byteLength" : 2388
    },
    {
      "buffer" : 0,
      "byteOffset" : 5696,
      "byteLength" : 3184
    },
    {
      "buffer" : 0,
      "byteOffset" : 8880,
      "byteLength" : 1592
    },
    {
      "buffer" : 0,
      "byteOffset" : 10472,
      "byteLength" : 1592
    },
    {
      "buffer" : 0,
      "byteOffset" : 12064,
      "byteLength" : 1592
    },
    {
      "buffer" : 0,
      "byteOffset" : 13656,
      "byteLength" : 1592
    }
  ],
  "accessors" : [
    {
      "bufferView" : 0,
      "componentType" : 5123,
      "count" : 459,
      "type" : "SCALAR"
    },
    {
      "bufferView" : 1,
      "min" : [ -25.6114, 11.458, -172 ],
      "max" : [ -2.97893, 12.1472, -62.2592 ],
      "componentType" : 5126,
      "count" : 199,
      "type" : "VEC3"
    },
    {
      "bufferView" : 2,
      "componentType" : 5126,
      "count" : 199,
      "type" : "VEC3"
    },
    {
      "bufferView" : 3,
      "componentType" : 5126,
      "count" : 199,
      "type" : "VEC4"
    },
    {
      "bufferView" : 4,
      "componentType" : 5126,
      "count" : 199,
      "type" : "VEC2"
    },
    {
      "bufferView" : 5,
      "componentType" : 5126,
      "count" : 199,
      "type" : "VEC2"
    },
    {
      "bufferView" : 6,
      "componentType" : 5126,
      "count" : 199,
      "type" : "VEC2"
    },
    {
      "bufferView" : 7,
      "componentType" : 5126,
      "count" : 199,
      "type" : "VEC2"
    }
  ]
}
