{
  "asset" : {
    "generator" : "UE Viewer (umodel) build 1544 based",
    "version" : "2.0"
  },
  "scene" : 0,
  "scenes" : [
    {
      "nodes" : [ 0 ]
    }
  ],
  "nodes" : [
    {
      "name" : "SM_ENV_LKNVLD_Ground_Hill_Round_L",
      "mesh" : 0
    }
  ],
  "materials" : [
    {
      "name" : "MI_ENV_LKNVLD_GroundSoil_A",
      "pbrMetallicRoughness" : {
        "baseColorFactor" : [ 0.3, 0.3, 0.3, 1.0 ],
        "metallicFactor" : 0.1,
        "roughnessFactor" : 0.5
      }
    },
    {
      "name" : "MI_ENV_LKNVLD_RoughTiles",
      "pbrMetallicRoughness" : {
        "baseColorFactor" : [ 0.9, 0.3, 0.3, 1.0 ],
        "metallicFactor" : 0.1,
        "roughnessFactor" : 0.5
      }
    }
  ],
  "meshes" : [
    {
      "primitives" : [
        {
          "attributes" : {
            "POSITION" : 1,
            "NORMAL" : 2,
            "TANGENT" : 3,
            "TEXCOORD_0" : 4,
            "TEXCOORD_1" : 5,
            "TEXCOORD_2" : 6,
            "TEXCOORD_3" : 7
          },
          "indices" : 0,
          "material" : 0
        },
        {
          "attributes" : {
            "POSITION" : 9,
            "NORMAL" : 10,
            "TANGENT" : 11,
            "TEXCOORD_0" : 12,
            "TEXCOORD_1" : 13,
            "TEXCOORD_2" : 14,
            "TEXCOORD_3" : 15
          },
          "indices" : 8,
          "material" : 1
        }
      ],
      "name" : "SM_ENV_LKNVLD_Ground_Hill_Round_L"
    }
  ],
  "buffers" : [
    {
      "uri" : "SM_ENV_LKNVLD_Ground_Hill_Round_L.bin",
      "byteLength" : 50408
    }
  ],
  "bufferViews" : [
    {
      "buffer" : 0,
      "byteOffset" : 0,
      "byteLength" : 1008
    },
    {
      "buffer" : 0,
      "byteOffset" : 1008,
      "byteLength" : 1320
    },
    {
      "buffer" : 0,
      "byteOffset" : 2328,
      "byteLength" : 1320
    },
    {
      "buffer" : 0,
      "byteOffset" : 3648,
      "byteLength" : 1760
    },
    {
      "buffer" : 0,
      "byteOffset" : 5408,
      "byteLength" : 880
    },
    {
      "buffer" : 0,
      "byteOffset" : 6288,
      "byteLength" : 880
    },
    {
      "buffer" : 0,
      "byteOffset" : 7168,
      "byteLength" : 880
    },
    {
      "buffer" : 0,
      "byteOffset" : 8048,
      "byteLength" : 880
    },
    {
      "buffer" : 0,
      "byteOffset" : 8928,
      "byteLength" : 5048
    },
    {
      "buffer" : 0,
      "byteOffset" : 13976,
      "byteLength" : 6072
    },
    {
      "buffer" : 0,
      "byteOffset" : 20048,
      "byteLength" : 6072
    },
    {
      "buffer" : 0,
      "byteOffset" : 26120,
      "byteLength" : 8096
    },
    {
      "buffer" : 0,
      "byteOffset" : 34216,
      "byteLength" : 4048
    },
    {
      "buffer" : 0,
      "byteOffset" : 38264,
      "byteLength" : 4048
    },
    {
      "buffer" : 0,
      "byteOffset" : 42312,
      "byteLength" : 4048
    },
    {
      "buffer" : 0,
      "byteOffset" : 46360,
      "byteLength" : 4048
    }
  ],
  "accessors" : [
    {
      "bufferView" : 0,
      "componentType" : 5123,
      "count" : 504,
      "type" : "SCALAR"
    },
    {
      "bufferView" : 1,
      "min" : [ -50.8526, 6.53097, -143.912 ],
      "max" : [ -24.9695, 11.629, -90.8685 ],
      "componentType" : 5126,
      "count" : 110,
      "type" : "VEC3"
    },
    {
      "bufferView" : 2,
      "componentType" : 5126,
      "count" : 110,
      "type" : "VEC3"
    },
    {
      "bufferView" : 3,
      "componentType" : 5126,
      "count" : 110,
      "type" : "VEC4"
    },
    {
      "bufferView" : 4,
      "componentType" : 5126,
      "count" : 110,
      "type" : "VEC2"
    },
    {
      "bufferView" : 5,
      "componentType" : 5126,
      "count" : 110,
      "type" : "VEC2"
    },
    {
      "bufferView" : 6,
      "componentType" : 5126,
      "count" : 110,
      "type" : "VEC2"
    },
    {
      "bufferView" : 7,
      "componentType" : 5126,
      "count" : 110,
      "type" : "VEC2"
    },
    {
      "bufferView" : 8,
      "componentType" : 5123,
      "count" : 2523,
      "type" : "SCALAR"
    },
    {
      "bufferView" : 9,
      "min" : [ -51.5472, 5.87325, -144.608 ],
      "max" : [ -24.941, 12.1472, -90.1723 ],
      "componentType" : 5126,
      "count" : 506,
      "type" : "VEC3"
    },
    {
      "bufferView" : 10,
      "componentType" : 5126,
      "count" : 506,
      "type" : "VEC3"
    },
    {
      "bufferView" : 11,
      "componentType" : 5126,
      "count" : 506,
      "type" : "VEC4"
    },
    {
      "bufferView" : 12,
      "componentType" : 5126,
      "count" : 506,
      "type" : "VEC2"
    },
    {
      "bufferView" : 13,
      "componentType" : 5126,
      "count" : 506,
      "type" : "VEC2"
    },
    {
      "bufferView" : 14,
      "componentType" : 5126,
      "count" : 506,
      "type" : "VEC2"
    },
    {
      "bufferView" : 15,
      "componentType" : 5126,
      "count" : 506,
      "type" : "VEC2"
    }
  ]
}
