{
  "asset" : {
    "generator" : "UE Viewer (umodel) build 1544 based",
    "version" : "2.0"
  },
  "scene" : 0,
  "scenes" : [
    {
      "nodes" : [ 0 ]
    }
  ],
  "nodes" : [
    {
      "name" : "SM_ENV_LKNVLD_Ground_Hill_Right_WaterTunnel_Lod2",
      "mesh" : 0
    }
  ],
  "materials" : [
    {
      "name" : "MI_ENV_LKNVLD_RoughTiles_LOD",
      "pbrMetallicRoughness" : {
        "baseColorFactor" : [ 0.3, 0.3, 0.3, 1.0 ],
        "metallicFactor" : 0.1,
        "roughnessFactor" : 0.5
      }
    }
  ],
  "meshes" : [
    {
      "primitives" : [
        {
          "attributes" : {
            "POSITION" : 1,
            "NORMAL" : 2,
            "TANGENT" : 3,
            "TEXCOORD_0" : 4,
            "TEXCOORD_1" : 5,
            "TEXCOORD_2" : 6,
            "TEXCOORD_3" : 7
          },
          "indices" : 0,
          "material" : 0
        }
      ],
      "name" : "SM_ENV_LKNVLD_Ground_Hill_Right_WaterTunnel_Lod2"
    }
  ],
  "buffers" : [
    {
      "uri" : "SM_ENV_LKNVLD_Ground_Hill_Right_WaterTunnel_Lod2.bin",
      "byteLength" : 34188
    }
  ],
  "bufferViews" : [
    {
      "buffer" : 0,
      "byteOffset" : 0,
      "byteLength" : 2292
    },
    {
      "buffer" : 0,
      "byteOffset" : 2292,
      "byteLength" : 5316
    },
    {
      "buffer" : 0,
      "byteOffset" : 7608,
      "byteLength" : 5316
    },
    {
      "buffer" : 0,
      "byteOffset" : 12924,
      "byteLength" : 7088
    },
    {
      "buffer" : 0,
      "byteOffset" : 20012,
      "byteLength" : 3544
    },
    {
      "buffer" : 0,
      "byteOffset" : 23556,
      "byteLength" : 3544
    },
    {
      "buffer" : 0,
      "byteOffset" : 27100,
      "byteLength" : 3544
    },
    {
      "buffer" : 0,
      "byteOffset" : 30644,
      "byteLength" : 3544
    }
  ],
  "accessors" : [
    {
      "bufferView" : 0,
      "componentType" : 5123,
      "count" : 1146,
      "type" : "SCALAR"
    },
    {
      "bufferView" : 1,
      "min" : [ 13.2068, -0.587515, -79.494 ],
      "max" : [ 42.5916, 4.35407, -72.0383 ],
      "componentType" : 5126,
      "count" : 443,
      "type" : "VEC3"
    },
    {
      "bufferView" : 2,
      "componentType" : 5126,
      "count" : 443,
      "type" : "VEC3"
    },
    {
      "bufferView" : 3,
      "componentType" : 5126,
      "count" : 443,
      "type" : "VEC4"
    },
    {
      "bufferView" : 4,
      "componentType" : 5126,
      "count" : 443,
      "type" : "VEC2"
    },
    {
      "bufferView" : 5,
      "componentType" : 5126,
      "count" : 443,
      "type" : "VEC2"
    },
    {
      "bufferView" : 6,
      "componentType" : 5126,
      "count" : 443,
      "type" : "VEC2"
    },
    {
      "bufferView" : 7,
      "componentType" : 5126,
      "count" : 443,
      "type" : "VEC2"
    }
  ]
}
