{
  "asset" : {
    "generator" : "UE Viewer (umodel) build 1544 based",
    "version" : "2.0"
  },
  "scene" : 0,
  "scenes" : [
    {
      "nodes" : [ 0 ]
    }
  ],
  "nodes" : [
    {
      "name" : "SM_ENV_LKNVLD_Ground_Hill_Left_BeneathHill_Trim_Lod1",
      "mesh" : 0
    }
  ],
  "materials" : [
    {
      "name" : "MI_ENV_LKNVLD_RoughTiles",
      "pbrMetallicRoughness" : {
        "baseColorFactor" : [ 0.3, 0.3, 0.3, 1.0 ],
        "metallicFactor" : 0.1,
        "roughnessFactor" : 0.5
      }
    }
  ],
  "meshes" : [
    {
      "primitives" : [
        {
          "attributes" : {
            "POSITION" : 1,
            "NORMAL" : 2,
            "TANGENT" : 3,
            "TEXCOORD_0" : 4,
            "TEXCOORD_1" : 5,
            "TEXCOORD_2" : 6,
            "TEXCOORD_3" : 7
          },
          "indices" : 0,
          "material" : 0
        }
      ],
      "name" : "SM_ENV_LKNVLD_Ground_Hill_Left_BeneathHill_Trim_Lod1"
    }
  ],
  "buffers" : [
    {
      "uri" : "SM_ENV_LKNVLD_Ground_Hill_Left_BeneathHill_Trim_Lod1.bin",
      "byteLength" : 109896
    }
  ],
  "bufferViews" : [
    {
      "buffer" : 0,
      "byteOffset" : 0,
      "byteLength" : 9168
    },
    {
      "buffer" : 0,
      "byteOffset" : 9168,
      "byteLength" : 16788
    },
    {
      "buffer" : 0,
      "byteOffset" : 25956,
      "byteLength" : 16788
    },
    {
      "buffer" : 0,
      "byteOffset" : 42744,
      "byteLength" : 22384
    },
    {
      "buffer" : 0,
      "byteOffset" : 65128,
      "byteLength" : 11192
    },
    {
      "buffer" : 0,
      "byteOffset" : 76320,
      "byteLength" : 11192
    },
    {
      "buffer" : 0,
      "byteOffset" : 87512,
      "byteLength" : 11192
    },
    {
      "buffer" : 0,
      "byteOffset" : 98704,
      "byteLength" : 11192
    }
  ],
  "accessors" : [
    {
      "bufferView" : 0,
      "componentType" : 5123,
      "count" : 4584,
      "type" : "SCALAR"
    },
    {
      "bufferView" : 1,
      "min" : [ -42.6887, -0.187761, -79.6734 ],
      "max" : [ -5.20869, 0.691593, -34.5312 ],
      "componentType" : 5126,
      "count" : 1399,
      "type" : "VEC3"
    },
    {
      "bufferView" : 2,
      "componentType" : 5126,
      "count" : 1399,
      "type" : "VEC3"
    },
    {
      "bufferView" : 3,
      "componentType" : 5126,
      "count" : 1399,
      "type" : "VEC4"
    },
    {
      "bufferView" : 4,
      "componentType" : 5126,
      "count" : 1399,
      "type" : "VEC2"
    },
    {
      "bufferView" : 5,
      "componentType" : 5126,
      "count" : 1399,
      "type" : "VEC2"
    },
    {
      "bufferView" : 6,
      "componentType" : 5126,
      "count" : 1399,
      "type" : "VEC2"
    },
    {
      "bufferView" : 7,
      "componentType" : 5126,
      "count" : 1399,
      "type" : "VEC2"
    }
  ]
}
