{
  "asset" : {
    "generator" : "UE Viewer (umodel) build 1544 based",
    "version" : "2.0"
  },
  "scene" : 0,
  "scenes" : [
    {
      "nodes" : [ 0 ]
    }
  ],
  "nodes" : [
    {
      "name" : "SM_ENV_LKNVLD_Ground_Hill_Left_HillSide_01_Lod2",
      "mesh" : 0
    }
  ],
  "materials" : [
    {
      "name" : "MI_ENV_LKNVLD_GroundSoil_A_LOD",
      "pbrMetallicRoughness" : {
        "baseColorFactor" : [ 0.3, 0.3, 0.3, 1.0 ],
        "metallicFactor" : 0.1,
        "roughnessFactor" : 0.5
      }
    }
  ],
  "meshes" : [
    {
      "primitives" : [
        {
          "attributes" : {
            "POSITION" : 1,
            "NORMAL" : 2,
            "TANGENT" : 3,
            "TEXCOORD_0" : 4,
            "TEXCOORD_1" : 5,
            "TEXCOORD_2" : 6,
            "TEXCOORD_3" : 7
          },
          "indices" : 0,
          "material" : 0
        }
      ],
      "name" : "SM_ENV_LKNVLD_Ground_Hill_Left_HillSide_01_Lod2"
    }
  ],
  "buffers" : [
    {
      "uri" : "SM_ENV_LKNVLD_Ground_Hill_Left_HillSide_01_Lod2.bin",
      "byteLength" : 6428
    }
  ],
  "bufferViews" : [
    {
      "buffer" : 0,
      "byteOffset" : 0,
      "byteLength" : 524
    },
    {
      "buffer" : 0,
      "byteOffset" : 524,
      "byteLength" : 984
    },
    {
      "buffer" : 0,
      "byteOffset" : 1508,
      "byteLength" : 984
    },
    {
      "buffer" : 0,
      "byteOffset" : 2492,
      "byteLength" : 1312
    },
    {
      "buffer" : 0,
      "byteOffset" : 3804,
      "byteLength" : 656
    },
    {
      "buffer" : 0,
      "byteOffset" : 4460,
      "byteLength" : 656
    },
    {
      "buffer" : 0,
      "byteOffset" : 5116,
      "byteLength" : 656
    },
    {
      "buffer" : 0,
      "byteOffset" : 5772,
      "byteLength" : 656
    }
  ],
  "accessors" : [
    {
      "bufferView" : 0,
      "componentType" : 5123,
      "count" : 261,
      "type" : "SCALAR"
    },
    {
      "bufferView" : 1,
      "min" : [ -59.9, 0.330097, -82.9711 ],
      "max" : [ -5.48273, 5.64832, -35.3569 ],
      "componentType" : 5126,
      "count" : 82,
      "type" : "VEC3"
    },
    {
      "bufferView" : 2,
      "componentType" : 5126,
      "count" : 82,
      "type" : "VEC3"
    },
    {
      "bufferView" : 3,
      "componentType" : 5126,
      "count" : 82,
      "type" : "VEC4"
    },
    {
      "bufferView" : 4,
      "componentType" : 5126,
      "count" : 82,
      "type" : "VEC2"
    },
    {
      "bufferView" : 5,
      "componentType" : 5126,
      "count" : 82,
      "type" : "VEC2"
    },
    {
      "bufferView" : 6,
      "componentType" : 5126,
      "count" : 82,
      "type" : "VEC2"
    },
    {
      "bufferView" : 7,
      "componentType" : 5126,
      "count" : 82,
      "type" : "VEC2"
    }
  ]
}
