{
  "asset" : {
    "generator" : "UE Viewer (umodel) build 1544 based",
    "version" : "2.0"
  },
  "scene" : 0,
  "scenes" : [
    {
      "nodes" : [ 0 ]
    }
  ],
  "nodes" : [
    {
      "name" : "SM_ENV_LKNVLD_Ground_Hill_Left_WaterTrim",
      "mesh" : 0
    }
  ],
  "materials" : [
    {
      "name" : "MI_ENV_LKNVLD_RoughTiles",
      "pbrMetallicRoughness" : {
        "baseColorFactor" : [ 0.3, 0.3, 0.3, 1.0 ],
        "metallicFactor" : 0.1,
        "roughnessFactor" : 0.5
      }
    }
  ],
  "meshes" : [
    {
      "primitives" : [
        {
          "attributes" : {
            "POSITION" : 1,
            "NORMAL" : 2,
            "TANGENT" : 3,
            "TEXCOORD_0" : 4,
            "TEXCOORD_1" : 5,
            "TEXCOORD_2" : 6,
            "TEXCOORD_3" : 7
          },
          "indices" : 0,
          "material" : 0
        }
      ],
      "name" : "SM_ENV_LKNVLD_Ground_Hill_Left_WaterTrim"
    }
  ],
  "buffers" : [
    {
      "uri" : "SM_ENV_LKNVLD_Ground_Hill_Left_WaterTrim.bin",
      "byteLength" : 90732
    }
  ],
  "bufferViews" : [
    {
      "buffer" : 0,
      "byteOffset" : 0,
      "byteLength" : 10236
    },
    {
      "buffer" : 0,
      "byteOffset" : 10236,
      "byteLength" : 13416
    },
    {
      "buffer" : 0,
      "byteOffset" : 23652,
      "byteLength" : 13416
    },
    {
      "buffer" : 0,
      "byteOffset" : 37068,
      "byteLength" : 17888
    },
    {
      "buffer" : 0,
      "byteOffset" : 54956,
      "byteLength" : 8944
    },
    {
      "buffer" : 0,
      "byteOffset" : 63900,
      "byteLength" : 8944
    },
    {
      "buffer" : 0,
      "byteOffset" : 72844,
      "byteLength" : 8944
    },
    {
      "buffer" : 0,
      "byteOffset" : 81788,
      "byteLength" : 8944
    }
  ],
  "accessors" : [
    {
      "bufferView" : 0,
      "componentType" : 5123,
      "count" : 5118,
      "type" : "SCALAR"
    },
    {
      "bufferView" : 1,
      "min" : [ -69.976, -0.328871, -79.5227 ],
      "max" : [ -40.771, 0.608201, -71.7198 ],
      "componentType" : 5126,
      "count" : 1118,
      "type" : "VEC3"
    },
    {
      "bufferView" : 2,
      "componentType" : 5126,
      "count" : 1118,
      "type" : "VEC3"
    },
    {
      "bufferView" : 3,
      "componentType" : 5126,
      "count" : 1118,
      "type" : "VEC4"
    },
    {
      "bufferView" : 4,
      "componentType" : 5126,
      "count" : 1118,
      "type" : "VEC2"
    },
    {
      "bufferView" : 5,
      "componentType" : 5126,
      "count" : 1118,
      "type" : "VEC2"
    },
    {
      "bufferView" : 6,
      "componentType" : 5126,
      "count" : 1118,
      "type" : "VEC2"
    },
    {
      "bufferView" : 7,
      "componentType" : 5126,
      "count" : 1118,
      "type" : "VEC2"
    }
  ]
}
