{
  "asset" : {
    "generator" : "UE Viewer (umodel) build 1544 based",
    "version" : "2.0"
  },
  "scene" : 0,
  "scenes" : [
    {
      "nodes" : [ 0 ]
    }
  ],
  "nodes" : [
    {
      "name" : "SM_ENV_LKNVLD_Ground_Hill_Right_WaterTrim_Lod1",
      "mesh" : 0
    }
  ],
  "materials" : [
    {
      "name" : "MI_ENV_LKNVLD_RoughTiles",
      "pbrMetallicRoughness" : {
        "baseColorFactor" : [ 0.3, 0.3, 0.3, 1.0 ],
        "metallicFactor" : 0.1,
        "roughnessFactor" : 0.5
      }
    }
  ],
  "meshes" : [
    {
      "primitives" : [
        {
          "attributes" : {
            "POSITION" : 1,
            "NORMAL" : 2,
            "TANGENT" : 3,
            "TEXCOORD_0" : 4,
            "TEXCOORD_1" : 5,
            "TEXCOORD_2" : 6,
            "TEXCOORD_3" : 7
          },
          "indices" : 0,
          "material" : 0
        }
      ],
      "name" : "SM_ENV_LKNVLD_Ground_Hill_Right_WaterTrim_Lod1"
    }
  ],
  "buffers" : [
    {
      "uri" : "SM_ENV_LKNVLD_Ground_Hill_Right_WaterTrim_Lod1.bin",
      "byteLength" : 79668
    }
  ],
  "bufferViews" : [
    {
      "buffer" : 0,
      "byteOffset" : 0,
      "byteLength" : 7164
    },
    {
      "buffer" : 0,
      "byteOffset" : 7164,
      "byteLength" : 12084
    },
    {
      "buffer" : 0,
      "byteOffset" : 19248,
      "byteLength" : 12084
    },
    {
      "buffer" : 0,
      "byteOffset" : 31332,
      "byteLength" : 16112
    },
    {
      "buffer" : 0,
      "byteOffset" : 47444,
      "byteLength" : 8056
    },
    {
      "buffer" : 0,
      "byteOffset" : 55500,
      "byteLength" : 8056
    },
    {
      "buffer" : 0,
      "byteOffset" : 63556,
      "byteLength" : 8056
    },
    {
      "buffer" : 0,
      "byteOffset" : 71612,
      "byteLength" : 8056
    }
  ],
  "accessors" : [
    {
      "bufferView" : 0,
      "componentType" : 5123,
      "count" : 3582,
      "type" : "SCALAR"
    },
    {
      "bufferView" : 1,
      "min" : [ 40.771, -0.328871, -79.5227 ],
      "max" : [ 69.976, 0.598996, -71.7198 ],
      "componentType" : 5126,
      "count" : 1007,
      "type" : "VEC3"
    },
    {
      "bufferView" : 2,
      "componentType" : 5126,
      "count" : 1007,
      "type" : "VEC3"
    },
    {
      "bufferView" : 3,
      "componentType" : 5126,
      "count" : 1007,
      "type" : "VEC4"
    },
    {
      "bufferView" : 4,
      "componentType" : 5126,
      "count" : 1007,
      "type" : "VEC2"
    },
    {
      "bufferView" : 5,
      "componentType" : 5126,
      "count" : 1007,
      "type" : "VEC2"
    },
    {
      "bufferView" : 6,
      "componentType" : 5126,
      "count" : 1007,
      "type" : "VEC2"
    },
    {
      "bufferView" : 7,
      "componentType" : 5126,
      "count" : 1007,
      "type" : "VEC2"
    }
  ]
}
