{
  "asset" : {
    "generator" : "UE Viewer (umodel) build 1544 based",
    "version" : "2.0"
  },
  "scene" : 0,
  "scenes" : [
    {
      "nodes" : [ 0 ]
    }
  ],
  "nodes" : [
    {
      "name" : "SM_ENV_LKNVLD_Ground_Hill_HillTopGround",
      "mesh" : 0
    }
  ],
  "materials" : [
    {
      "name" : "MI_ENV_LKNVLD_Road_Simple",
      "pbrMetallicRoughness" : {
        "baseColorFactor" : [ 0.3, 0.3, 0.3, 1.0 ],
        "metallicFactor" : 0.1,
        "roughnessFactor" : 0.5
      }
    },
    {
      "name" : "MI_ENV_LKNVLD_GroundSoil_A",
      "pbrMetallicRoughness" : {
        "baseColorFactor" : [ 0.9, 0.3, 0.3, 1.0 ],
        "metallicFactor" : 0.1,
        "roughnessFactor" : 0.5
      }
    }
  ],
  "meshes" : [
    {
      "primitives" : [
        {
          "attributes" : {
            "POSITION" : 1,
            "NORMAL" : 2,
            "TANGENT" : 3,
            "TEXCOORD_0" : 4,
            "TEXCOORD_1" : 5,
            "TEXCOORD_2" : 6,
            "TEXCOORD_3" : 7
          },
          "indices" : 0,
          "material" : 0
        },
        {
          "attributes" : {
            "POSITION" : 9,
            "NORMAL" : 10,
            "TANGENT" : 11,
            "TEXCOORD_0" : 12,
            "TEXCOORD_1" : 13,
            "TEXCOORD_2" : 14,
            "TEXCOORD_3" : 15
          },
          "indices" : 8,
          "material" : 1
        }
      ],
      "name" : "SM_ENV_LKNVLD_Ground_Hill_HillTopGround"
    }
  ],
  "buffers" : [
    {
      "uri" : "SM_ENV_LKNVLD_Ground_Hill_HillTopGround.bin",
      "byteLength" : 1872
    }
  ],
  "bufferViews" : [
    {
      "buffer" : 0,
      "byteOffset" : 0,
      "byteLength" : 48
    },
    {
      "buffer" : 0,
      "byteOffset" : 48,
      "byteLength" : 108
    },
    {
      "buffer" : 0,
      "byteOffset" : 156,
      "byteLength" : 108
    },
    {
      "buffer" : 0,
      "byteOffset" : 264,
      "byteLength" : 144
    },
    {
      "buffer" : 0,
      "byteOffset" : 408,
      "byteLength" : 72
    },
    {
      "buffer" : 0,
      "byteOffset" : 480,
      "byteLength" : 72
    },
    {
      "buffer" : 0,
      "byteOffset" : 552,
      "byteLength" : 72
    },
    {
      "buffer" : 0,
      "byteOffset" : 624,
      "byteLength" : 72
    },
    {
      "buffer" : 0,
      "byteOffset" : 696,
      "byteLength" : 96
    },
    {
      "buffer" : 0,
      "byteOffset" : 792,
      "byteLength" : 180
    },
    {
      "buffer" : 0,
      "byteOffset" : 972,
      "byteLength" : 180
    },
    {
      "buffer" : 0,
      "byteOffset" : 1152,
      "byteLength" : 240
    },
    {
      "buffer" : 0,
      "byteOffset" : 1392,
      "byteLength" : 120
    },
    {
      "buffer" : 0,
      "byteOffset" : 1512,
      "byteLength" : 120
    },
    {
      "buffer" : 0,
      "byteOffset" : 1632,
      "byteLength" : 120
    },
    {
      "buffer" : 0,
      "byteOffset" : 1752,
      "byteLength" : 120
    }
  ],
  "accessors" : [
    {
      "bufferView" : 0,
      "componentType" : 5123,
      "count" : 24,
      "type" : "SCALAR"
    },
    {
      "bufferView" : 1,
      "min" : [ -7.2087, 12, -71.3398 ],
      "max" : [ 7.2087, 12, -62.7918 ],
      "componentType" : 5126,
      "count" : 9,
      "type" : "VEC3"
    },
    {
      "bufferView" : 2,
      "componentType" : 5126,
      "count" : 9,
      "type" : "VEC3"
    },
    {
      "bufferView" : 3,
      "componentType" : 5126,
      "count" : 9,
      "type" : "VEC4"
    },
    {
      "bufferView" : 4,
      "componentType" : 5126,
      "count" : 9,
      "type" : "VEC2"
    },
    {
      "bufferView" : 5,
      "componentType" : 5126,
      "count" : 9,
      "type" : "VEC2"
    },
    {
      "bufferView" : 6,
      "componentType" : 5126,
      "count" : 9,
      "type" : "VEC2"
    },
    {
      "bufferView" : 7,
      "componentType" : 5126,
      "count" : 9,
      "type" : "VEC2"
    },
    {
      "bufferView" : 8,
      "componentType" : 5123,
      "count" : 48,
      "type" : "SCALAR"
    },
    {
      "bufferView" : 9,
      "min" : [ -24.4867, 12, -85.0643 ],
      "max" : [ 24.4867, 12, -63.7261 ],
      "componentType" : 5126,
      "count" : 15,
      "type" : "VEC3"
    },
    {
      "bufferView" : 10,
      "componentType" : 5126,
      "count" : 15,
      "type" : "VEC3"
    },
    {
      "bufferView" : 11,
      "componentType" : 5126,
      "count" : 15,
      "type" : "VEC4"
    },
    {
      "bufferView" : 12,
      "componentType" : 5126,
      "count" : 15,
      "type" : "VEC2"
    },
    {
      "bufferView" : 13,
      "componentType" : 5126,
      "count" : 15,
      "type" : "VEC2"
    },
    {
      "bufferView" : 14,
      "componentType" : 5126,
      "count" : 15,
      "type" : "VEC2"
    },
    {
      "bufferView" : 15,
      "componentType" : 5126,
      "count" : 15,
      "type" : "VEC2"
    }
  ]
}
