{
  "asset" : {
    "generator" : "UE Viewer (umodel) build 1544 based",
    "version" : "2.0"
  },
  "scene" : 0,
  "scenes" : [
    {
      "nodes" : [ 0 ]
    }
  ],
  "nodes" : [
    {
      "name" : "SM_ENV_LKNVLD_Ground_StairCase_01_Lod1",
      "mesh" : 0
    }
  ],
  "materials" : [
    {
      "name" : "MI_T_ENV_LKNVLD_StoneTrim_LOD",
      "pbrMetallicRoughness" : {
        "baseColorFactor" : [ 0.3, 0.3, 0.3, 1.0 ],
        "metallicFactor" : 0.1,
        "roughnessFactor" : 0.5
      }
    },
    {
      "name" : "MI_ENV_LKNVLD_RoughTiles_LOD",
      "pbrMetallicRoughness" : {
        "baseColorFactor" : [ 0.9, 0.3, 0.3, 1.0 ],
        "metallicFactor" : 0.1,
        "roughnessFactor" : 0.5
      }
    },
    {
      "name" : "MI_ENV_LKNVLD_WoodPlain_Red_LOD",
      "pbrMetallicRoughness" : {
        "baseColorFactor" : [ 0.3, 0.9, 0.3, 1.0 ],
        "metallicFactor" : 0.1,
        "roughnessFactor" : 0.5
      }
    },
    {
      "name" : "MI_ENV_LKNVLD_Signboard_A",
      "pbrMetallicRoughness" : {
        "baseColorFactor" : [ 0.3, 0.3, 0.9, 1.0 ],
        "metallicFactor" : 0.1,
        "roughnessFactor" : 0.5
      }
    },
    {
      "name" : "MI_ENV_LKNVLD_WoodWallSet_LOD",
      "pbrMetallicRoughness" : {
        "baseColorFactor" : [ 0.9, 0.9, 0.9, 1.0 ],
        "metallicFactor" : 0.1,
        "roughnessFactor" : 0.5
      }
    },
    {
      "name" : "MI_T_ENV_LKNVLD_StoneStairs_LOD",
      "pbrMetallicRoughness" : {
        "baseColorFactor" : [ 0.9, 0.9, 0.3, 1.0 ],
        "metallicFactor" : 0.1,
        "roughnessFactor" : 0.5
      }
    },
    {
      "name" : "MI_ENV_LKNVLD_GroundSoil_A_LOD",
      "pbrMetallicRoughness" : {
        "baseColorFactor" : [ 0.9, 0.3, 0.9, 1.0 ],
        "metallicFactor" : 0.1,
        "roughnessFactor" : 0.5
      }
    }
  ],
  "meshes" : [
    {
      "primitives" : [
        {
          "attributes" : {
            "POSITION" : 1,
            "NORMAL" : 2,
            "TANGENT" : 3,
            "COLOR_0" : 4,
            "TEXCOORD_0" : 5,
            "TEXCOORD_1" : 6,
            "TEXCOORD_2" : 7,
            "TEXCOORD_3" : 8
          },
          "indices" : 0,
          "material" : 0
        },
        {
          "attributes" : {
            "POSITION" : 10,
            "NORMAL" : 11,
            "TANGENT" : 12,
            "COLOR_0" : 13,
            "TEXCOORD_0" : 14,
            "TEXCOORD_1" : 15,
            "TEXCOORD_2" : 16,
            "TEXCOORD_3" : 17
          },
          "indices" : 9,
          "material" : 1
        },
        {
          "attributes" : {
            "POSITION" : 19,
            "NORMAL" : 20,
            "TANGENT" : 21,
            "COLOR_0" : 22,
            "TEXCOORD_0" : 23,
            "TEXCOORD_1" : 24,
            "TEXCOORD_2" : 25,
            "TEXCOORD_3" : 26
          },
          "indices" : 18,
          "material" : 2
        },
        {
          "attributes" : {
            "POSITION" : 28,
            "NORMAL" : 29,
            "TANGENT" : 30,
            "COLOR_0" : 31,
            "TEXCOORD_0" : 32,
            "TEXCOORD_1" : 33,
            "TEXCOORD_2" : 34,
            "TEXCOORD_3" : 35
          },
          "indices" : 27,
          "material" : 3
        },
        {
          "attributes" : {
            "POSITION" : 37,
            "NORMAL" : 38,
            "TANGENT" : 39,
            "COLOR_0" : 40,
            "TEXCOORD_0" : 41,
            "TEXCOORD_1" : 42,
            "TEXCOORD_2" : 43,
            "TEXCOORD_3" : 44
          },
          "indices" : 36,
          "material" : 4
        },
        {
          "attributes" : {
            "POSITION" : 46,
            "NORMAL" : 47,
            "TANGENT" : 48,
            "COLOR_0" : 49,
            "TEXCOORD_0" : 50,
            "TEXCOORD_1" : 51,
            "TEXCOORD_2" : 52,
            "TEXCOORD_3" : 53
          },
          "indices" : 45,
          "material" : 5
        },
        {
          "attributes" : {
            "POSITION" : 55,
            "NORMAL" : 56,
            "TANGENT" : 57,
            "COLOR_0" : 58,
            "TEXCOORD_0" : 59,
            "TEXCOORD_1" : 60,
            "TEXCOORD_2" : 61,
            "TEXCOORD_3" : 62
          },
          "indices" : 54,
          "material" : 6
        }
      ],
      "name" : "SM_ENV_LKNVLD_Ground_StairCase_01_Lod1"
    }
  ],
  "buffers" : [
    {
      "uri" : "SM_ENV_LKNVLD_Ground_StairCase_01_Lod1.bin",
      "byteLength" : 647060
    }
  ],
  "bufferViews" : [
    {
      "buffer" : 0,
      "byteOffset" : 0,
      "byteLength" : 4956
    },
    {
      "buffer" : 0,
      "byteOffset" : 4956,
      "byteLength" : 7464
    },
    {
      "buffer" : 0,
      "byteOffset" : 12420,
      "byteLength" : 7464
    },
    {
      "buffer" : 0,
      "byteOffset" : 19884,
      "byteLength" : 9952
    },
    {
      "buffer" : 0,
      "byteOffset" : 29836,
      "byteLength" : 2488
    },
    {
      "buffer" : 0,
      "byteOffset" : 32324,
      "byteLength" : 4976
    },
    {
      "buffer" : 0,
      "byteOffset" : 37300,
      "byteLength" : 4976
    },
    {
      "buffer" : 0,
      "byteOffset" : 42276,
      "byteLength" : 4976
    },
    {
      "buffer" : 0,
      "byteOffset" : 47252,
      "byteLength" : 4976
    },
    {
      "buffer" : 0,
      "byteOffset" : 52228,
      "byteLength" : 2712
    },
    {
      "buffer" : 0,
      "byteOffset" : 54940,
      "byteLength" : 3936
    },
    {
      "buffer" : 0,
      "byteOffset" : 58876,
      "byteLength" : 3936
    },
    {
      "buffer" : 0,
      "byteOffset" : 62812,
      "byteLength" : 5248
    },
    {
      "buffer" : 0,
      "byteOffset" : 68060,
      "byteLength" : 1312
    },
    {
      "buffer" : 0,
      "byteOffset" : 69372,
      "byteLength" : 2624
    },
    {
      "buffer" : 0,
      "byteOffset" : 71996,
      "byteLength" : 2624
    },
    {
      "buffer" : 0,
      "byteOffset" : 74620,
      "byteLength" : 2624
    },
    {
      "buffer" : 0,
      "byteOffset" : 77244,
      "byteLength" : 2624
    },
    {
      "buffer" : 0,
      "byteOffset" : 79868,
      "byteLength" : 9972
    },
    {
      "buffer" : 0,
      "byteOffset" : 89840,
      "byteLength" : 23472
    },
    {
      "buffer" : 0,
      "byteOffset" : 113312,
      "byteLength" : 23472
    },
    {
      "buffer" : 0,
      "byteOffset" : 136784,
      "byteLength" : 31296
    },
    {
      "buffer" : 0,
      "byteOffset" : 168080,
      "byteLength" : 7824
    },
    {
      "buffer" : 0,
      "byteOffset" : 175904,
      "byteLength" : 15648
    },
    {
      "buffer" : 0,
      "byteOffset" : 191552,
      "byteLength" : 15648
    },
    {
      "buffer" : 0,
      "byteOffset" : 207200,
      "byteLength" : 15648
    },
    {
      "buffer" : 0,
      "byteOffset" : 222848,
      "byteLength" : 15648
    },
    {
      "buffer" : 0,
      "byteOffset" : 238496,
      "byteLength" : 26096
    },
    {
      "buffer" : 0,
      "byteOffset" : 264592,
      "byteLength" : 38400
    },
    {
      "buffer" : 0,
      "byteOffset" : 302992,
      "byteLength" : 38400
    },
    {
      "buffer" : 0,
      "byteOffset" : 341392,
      "byteLength" : 51200
    },
    {
      "buffer" : 0,
      "byteOffset" : 392592,
      "byteLength" : 12800
    },
    {
      "buffer" : 0,
      "byteOffset" : 405392,
      "byteLength" : 25600
    },
    {
      "buffer" : 0,
      "byteOffset" : 430992,
      "byteLength" : 25600
    },
    {
      "buffer" : 0,
      "byteOffset" : 456592,
      "byteLength" : 25600
    },
    {
      "buffer" : 0,
      "byteOffset" : 482192,
      "byteLength" : 25600
    },
    {
      "buffer" : 0,
      "byteOffset" : 507792,
      "byteLength" : 6996
    },
    {
      "buffer" : 0,
      "byteOffset" : 514788,
      "byteLength" : 12120
    },
    {
      "buffer" : 0,
      "byteOffset" : 526908,
      "byteLength" : 12120
    },
    {
      "buffer" : 0,
      "byteOffset" : 539028,
      "byteLength" : 16160
    },
    {
      "buffer" : 0,
      "byteOffset" : 555188,
      "byteLength" : 4040
    },
    {
      "buffer" : 0,
      "byteOffset" : 559228,
      "byteLength" : 8080
    },
    {
      "buffer" : 0,
      "byteOffset" : 567308,
      "byteLength" : 8080
    },
    {
      "buffer" : 0,
      "byteOffset" : 575388,
      "byteLength" : 8080
    },
    {
      "buffer" : 0,
      "byteOffset" : 583468,
      "byteLength" : 8080
    },
    {
      "buffer" : 0,
      "byteOffset" : 591548,
      "byteLength" : 3716
    },
    {
      "buffer" : 0,
      "byteOffset" : 595264,
      "byteLength" : 7572
    },
    {
      "buffer" : 0,
      "byteOffset" : 602836,
      "byteLength" : 7572
    },
    {
      "buffer" : 0,
      "byteOffset" : 610408,
      "byteLength" : 10096
    },
    {
      "buffer" : 0,
      "byteOffset" : 620504,
      "byteLength" : 2524
    },
    {
      "buffer" : 0,
      "byteOffset" : 623028,
      "byteLength" : 5048
    },
    {
      "buffer" : 0,
      "byteOffset" : 628076,
      "byteLength" : 5048
    },
    {
      "buffer" : 0,
      "byteOffset" : 633124,
      "byteLength" : 5048
    },
    {
      "buffer" : 0,
      "byteOffset" : 638172,
      "byteLength" : 5048
    },
    {
      "buffer" : 0,
      "byteOffset" : 643220,
      "byteLength" : 192
    },
    {
      "buffer" : 0,
      "byteOffset" : 643412,
      "byteLength" : 576
    },
    {
      "buffer" : 0,
      "byteOffset" : 643988,
      "byteLength" : 576
    },
    {
      "buffer" : 0,
      "byteOffset" : 644564,
      "byteLength" : 768
    },
    {
      "buffer" : 0,
      "byteOffset" : 645332,
      "byteLength" : 192
    },
    {
      "buffer" : 0,
      "byteOffset" : 645524,
      "byteLength" : 384
    },
    {
      "buffer" : 0,
      "byteOffset" : 645908,
      "byteLength" : 384
    },
    {
      "buffer" : 0,
      "byteOffset" : 646292,
      "byteLength" : 384
    },
    {
      "buffer" : 0,
      "byteOffset" : 646676,
      "byteLength" : 384
    }
  ],
  "accessors" : [
    {
      "bufferView" : 0,
      "componentType" : 5123,
      "count" : 2478,
      "type" : "SCALAR"
    },
    {
      "bufferView" : 1,
      "min" : [ -10.3984, -0.793995, -44.2951 ],
      "max" : [ 5.61587, 6.34201, -29.9323 ],
      "componentType" : 5126,
      "count" : 622,
      "type" : "VEC3"
    },
    {
      "bufferView" : 2,
      "componentType" : 5126,
      "count" : 622,
      "type" : "VEC3"
    },
    {
      "bufferView" : 3,
      "componentType" : 5126,
      "count" : 622,
      "type" : "VEC4"
    },
    {
      "bufferView" : 4,
      "normalized" : true,
      "componentType" : 5121,
      "count" : 622,
      "type" : "VEC4"
    },
    {
      "bufferView" : 5,
      "componentType" : 5126,
      "count" : 622,
      "type" : "VEC2"
    },
    {
      "bufferView" : 6,
      "componentType" : 5126,
      "count" : 622,
      "type" : "VEC2"
    },
    {
      "bufferView" : 7,
      "componentType" : 5126,
      "count" : 622,
      "type" : "VEC2"
    },
    {
      "bufferView" : 8,
      "componentType" : 5126,
      "count" : 622,
      "type" : "VEC2"
    },
    {
      "bufferView" : 9,
      "componentType" : 5123,
      "count" : 1356,
      "type" : "SCALAR"
    },
    {
      "bufferView" : 10,
      "min" : [ -11.3203, -0.551215, -44.2726 ],
      "max" : [ 11.3203, 6.1843, -30.6373 ],
      "componentType" : 5126,
      "count" : 328,
      "type" : "VEC3"
    },
    {
      "bufferView" : 11,
      "componentType" : 5126,
      "count" : 328,
      "type" : "VEC3"
    },
    {
      "bufferView" : 12,
      "componentType" : 5126,
      "count" : 328,
      "type" : "VEC4"
    },
    {
      "bufferView" : 13,
      "normalized" : true,
      "componentType" : 5121,
      "count" : 328,
      "type" : "VEC4"
    },
    {
      "bufferView" : 14,
      "componentType" : 5126,
      "count" : 328,
      "type" : "VEC2"
    },
    {
      "bufferView" : 15,
      "componentType" : 5126,
      "count" : 328,
      "type" : "VEC2"
    },
    {
      "bufferView" : 16,
      "componentType" : 5126,
      "count" : 328,
      "type" : "VEC2"
    },
    {
      "bufferView" : 17,
      "componentType" : 5126,
      "count" : 328,
      "type" : "VEC2"
    },
    {
      "bufferView" : 18,
      "componentType" : 5123,
      "count" : 4986,
      "type" : "SCALAR"
    },
    {
      "bufferView" : 19,
      "min" : [ -5.27015, 0.149261, -43.391 ],
      "max" : [ 5.27015, 7.46601, -31.0554 ],
      "componentType" : 5126,
      "count" : 1956,
      "type" : "VEC3"
    },
    {
      "bufferView" : 20,
      "componentType" : 5126,
      "count" : 1956,
      "type" : "VEC3"
    },
    {
      "bufferView" : 21,
      "componentType" : 5126,
      "count" : 1956,
      "type" : "VEC4"
    },
    {
      "bufferView" : 22,
      "normalized" : true,
      "componentType" : 5121,
      "count" : 1956,
      "type" : "VEC4"
    },
    {
      "bufferView" : 23,
      "componentType" : 5126,
      "count" : 1956,
      "type" : "VEC2"
    },
    {
      "bufferView" : 24,
      "componentType" : 5126,
      "count" : 1956,
      "type" : "VEC2"
    },
    {
      "bufferView" : 25,
      "componentType" : 5126,
      "count" : 1956,
      "type" : "VEC2"
    },
    {
      "bufferView" : 26,
      "componentType" : 5126,
      "count" : 1956,
      "type" : "VEC2"
    },
    {
      "bufferView" : 27,
      "componentType" : 5123,
      "count" : 13047,
      "type" : "SCALAR"
    },
    {
      "bufferView" : 28,
      "min" : [ -5.28039, 0.841235, -43.3778 ],
      "max" : [ 5.28039, 7.68219, -31.066 ],
      "componentType" : 5126,
      "count" : 3200,
      "type" : "VEC3"
    },
    {
      "bufferView" : 29,
      "componentType" : 5126,
      "count" : 3200,
      "type" : "VEC3"
    },
    {
      "bufferView" : 30,
      "componentType" : 5126,
      "count" : 3200,
      "type" : "VEC4"
    },
    {
      "bufferView" : 31,
      "normalized" : true,
      "componentType" : 5121,
      "count" : 3200,
      "type" : "VEC4"
    },
    {
      "bufferView" : 32,
      "componentType" : 5126,
      "count" : 3200,
      "type" : "VEC2"
    },
    {
      "bufferView" : 33,
      "componentType" : 5126,
      "count" : 3200,
      "type" : "VEC2"
    },
    {
      "bufferView" : 34,
      "componentType" : 5126,
      "count" : 3200,
      "type" : "VEC2"
    },
    {
      "bufferView" : 35,
      "componentType" : 5126,
      "count" : 3200,
      "type" : "VEC2"
    },
    {
      "bufferView" : 36,
      "componentType" : 5123,
      "count" : 3498,
      "type" : "SCALAR"
    },
    {
      "bufferView" : 37,
      "min" : [ -5.30951, 0.0524306, -43.4304 ],
      "max" : [ 5.30951, 6.40609, -31.0161 ],
      "componentType" : 5126,
      "count" : 1010,
      "type" : "VEC3"
    },
    {
      "bufferView" : 38,
      "componentType" : 5126,
      "count" : 1010,
      "type" : "VEC3"
    },
    {
      "bufferView" : 39,
      "componentType" : 5126,
      "count" : 1010,
      "type" : "VEC4"
    },
    {
      "bufferView" : 40,
      "normalized" : true,
      "componentType" : 5121,
      "count" : 1010,
      "type" : "VEC4"
    },
    {
      "bufferView" : 41,
      "componentType" : 5126,
      "count" : 1010,
      "type" : "VEC2"
    },
    {
      "bufferView" : 42,
      "componentType" : 5126,
      "count" : 1010,
      "type" : "VEC2"
    },
    {
      "bufferView" : 43,
      "componentType" : 5126,
      "count" : 1010,
      "type" : "VEC2"
    },
    {
      "bufferView" : 44,
      "componentType" : 5126,
      "count" : 1010,
      "type" : "VEC2"
    },
    {
      "bufferView" : 45,
      "componentType" : 5123,
      "count" : 1857,
      "type" : "SCALAR"
    },
    {
      "bufferView" : 46,
      "min" : [ -4.18063, -0.462359, -43.9182 ],
      "max" : [ 4.2702, 5.94945, -31.2718 ],
      "componentType" : 5126,
      "count" : 631,
      "type" : "VEC3"
    },
    {
      "bufferView" : 47,
      "componentType" : 5126,
      "count" : 631,
      "type" : "VEC3"
    },
    {
      "bufferView" : 48,
      "componentType" : 5126,
      "count" : 631,
      "type" : "VEC4"
    },
    {
      "bufferView" : 49,
      "normalized" : true,
      "componentType" : 5121,
      "count" : 631,
      "type" : "VEC4"
    },
    {
      "bufferView" : 50,
      "componentType" : 5126,
      "count" : 631,
      "type" : "VEC2"
    },
    {
      "bufferView" : 51,
      "componentType" : 5126,
      "count" : 631,
      "type" : "VEC2"
    },
    {
      "bufferView" : 52,
      "componentType" : 5126,
      "count" : 631,
      "type" : "VEC2"
    },
    {
      "bufferView" : 53,
      "componentType" : 5126,
      "count" : 631,
      "type" : "VEC2"
    },
    {
      "bufferView" : 54,
      "componentType" : 5123,
      "count" : 96,
      "type" : "SCALAR"
    },
    {
      "bufferView" : 55,
      "min" : [ -11.3203, -0.06935, -38.602 ],
      "max" : [ 11.3203, -0.0665222, -30.9377 ],
      "componentType" : 5126,
      "count" : 48,
      "type" : "VEC3"
    },
    {
      "bufferView" : 56,
      "componentType" : 5126,
      "count" : 48,
      "type" : "VEC3"
    },
    {
      "bufferView" : 57,
      "componentType" : 5126,
      "count" : 48,
      "type" : "VEC4"
    },
    {
      "bufferView" : 58,
      "normalized" : true,
      "componentType" : 5121,
      "count" : 48,
      "type" : "VEC4"
    },
    {
      "bufferView" : 59,
      "componentType" : 5126,
      "count" : 48,
      "type" : "VEC2"
    },
    {
      "bufferView" : 60,
      "componentType" : 5126,
      "count" : 48,
      "type" : "VEC2"
    },
    {
      "bufferView" : 61,
      "componentType" : 5126,
      "count" : 48,
      "type" : "VEC2"
    },
    {
      "bufferView" : 62,
      "componentType" : 5126,
      "count" : 48,
      "type" : "VEC2"
    }
  ]
}
