{
  "asset" : {
    "generator" : "UE Viewer (umodel) build 1544 based",
    "version" : "2.0"
  },
  "scene" : 0,
  "scenes" : [
    {
      "nodes" : [ 0 ]
    }
  ],
  "nodes" : [
    {
      "name" : "SM_ENV_LKNVLD_Ground_Hill_Left_WaterTunnel_Lod1",
      "mesh" : 0
    }
  ],
  "materials" : [
    {
      "name" : "MI_ENV_LKNVLD_RoughTiles",
      "pbrMetallicRoughness" : {
        "baseColorFactor" : [ 0.3, 0.3, 0.3, 1.0 ],
        "metallicFactor" : 0.1,
        "roughnessFactor" : 0.5
      }
    }
  ],
  "meshes" : [
    {
      "primitives" : [
        {
          "attributes" : {
            "POSITION" : 1,
            "NORMAL" : 2,
            "TANGENT" : 3,
            "TEXCOORD_0" : 4,
            "TEXCOORD_1" : 5,
            "TEXCOORD_2" : 6,
            "TEXCOORD_3" : 7
          },
          "indices" : 0,
          "material" : 0
        }
      ],
      "name" : "SM_ENV_LKNVLD_Ground_Hill_Left_WaterTunnel_Lod1"
    }
  ],
  "buffers" : [
    {
      "uri" : "SM_ENV_LKNVLD_Ground_Hill_Left_WaterTunnel_Lod1.bin",
      "byteLength" : 36624
    }
  ],
  "bufferViews" : [
    {
      "buffer" : 0,
      "byteOffset" : 0,
      "byteLength" : 3288
    },
    {
      "buffer" : 0,
      "byteOffset" : 3288,
      "byteLength" : 5556
    },
    {
      "buffer" : 0,
      "byteOffset" : 8844,
      "byteLength" : 5556
    },
    {
      "buffer" : 0,
      "byteOffset" : 14400,
      "byteLength" : 7408
    },
    {
      "buffer" : 0,
      "byteOffset" : 21808,
      "byteLength" : 3704
    },
    {
      "buffer" : 0,
      "byteOffset" : 25512,
      "byteLength" : 3704
    },
    {
      "buffer" : 0,
      "byteOffset" : 29216,
      "byteLength" : 3704
    },
    {
      "buffer" : 0,
      "byteOffset" : 32920,
      "byteLength" : 3704
    }
  ],
  "accessors" : [
    {
      "bufferView" : 0,
      "componentType" : 5123,
      "count" : 1644,
      "type" : "SCALAR"
    },
    {
      "bufferView" : 1,
      "min" : [ -42.5916, -0.604735, -79.494 ],
      "max" : [ -13.2068, 4.35407, -72.0383 ],
      "componentType" : 5126,
      "count" : 463,
      "type" : "VEC3"
    },
    {
      "bufferView" : 2,
      "componentType" : 5126,
      "count" : 463,
      "type" : "VEC3"
    },
    {
      "bufferView" : 3,
      "componentType" : 5126,
      "count" : 463,
      "type" : "VEC4"
    },
    {
      "bufferView" : 4,
      "componentType" : 5126,
      "count" : 463,
      "type" : "VEC2"
    },
    {
      "bufferView" : 5,
      "componentType" : 5126,
      "count" : 463,
      "type" : "VEC2"
    },
    {
      "bufferView" : 6,
      "componentType" : 5126,
      "count" : 463,
      "type" : "VEC2"
    },
    {
      "bufferView" : 7,
      "componentType" : 5126,
      "count" : 463,
      "type" : "VEC2"
    }
  ]
}
