{
  "asset" : {
    "generator" : "UE Viewer (umodel) build 1544 based",
    "version" : "2.0"
  },
  "scene" : 0,
  "scenes" : [
    {
      "nodes" : [ 0 ]
    }
  ],
  "nodes" : [
    {
      "name" : "SM_ENV_LKNVLD_Ground_Hill_Left_BeneathHill_Trim",
      "mesh" : 0
    }
  ],
  "materials" : [
    {
      "name" : "MI_ENV_LKNVLD_RoughTiles",
      "pbrMetallicRoughness" : {
        "baseColorFactor" : [ 0.3, 0.3, 0.3, 1.0 ],
        "metallicFactor" : 0.1,
        "roughnessFactor" : 0.5
      }
    }
  ],
  "meshes" : [
    {
      "primitives" : [
        {
          "attributes" : {
            "POSITION" : 1,
            "NORMAL" : 2,
            "TANGENT" : 3,
            "TEXCOORD_0" : 4,
            "TEXCOORD_1" : 5,
            "TEXCOORD_2" : 6,
            "TEXCOORD_3" : 7
          },
          "indices" : 0,
          "material" : 0
        }
      ],
      "name" : "SM_ENV_LKNVLD_Ground_Hill_Left_BeneathHill_Trim"
    }
  ],
  "buffers" : [
    {
      "uri" : "SM_ENV_LKNVLD_Ground_Hill_Left_BeneathHill_Trim.bin",
      "byteLength" : 123476
    }
  ],
  "bufferViews" : [
    {
      "buffer" : 0,
      "byteOffset" : 0,
      "byteLength" : 13100
    },
    {
      "buffer" : 0,
      "byteOffset" : 13100,
      "byteLength" : 18396
    },
    {
      "buffer" : 0,
      "byteOffset" : 31496,
      "byteLength" : 18396
    },
    {
      "buffer" : 0,
      "byteOffset" : 49892,
      "byteLength" : 24528
    },
    {
      "buffer" : 0,
      "byteOffset" : 74420,
      "byteLength" : 12264
    },
    {
      "buffer" : 0,
      "byteOffset" : 86684,
      "byteLength" : 12264
    },
    {
      "buffer" : 0,
      "byteOffset" : 98948,
      "byteLength" : 12264
    },
    {
      "buffer" : 0,
      "byteOffset" : 111212,
      "byteLength" : 12264
    }
  ],
  "accessors" : [
    {
      "bufferView" : 0,
      "componentType" : 5123,
      "count" : 6549,
      "type" : "SCALAR"
    },
    {
      "bufferView" : 1,
      "min" : [ -42.6887, -0.187761, -79.6734 ],
      "max" : [ -5.20869, 0.691593, -34.5312 ],
      "componentType" : 5126,
      "count" : 1533,
      "type" : "VEC3"
    },
    {
      "bufferView" : 2,
      "componentType" : 5126,
      "count" : 1533,
      "type" : "VEC3"
    },
    {
      "bufferView" : 3,
      "componentType" : 5126,
      "count" : 1533,
      "type" : "VEC4"
    },
    {
      "bufferView" : 4,
      "componentType" : 5126,
      "count" : 1533,
      "type" : "VEC2"
    },
    {
      "bufferView" : 5,
      "componentType" : 5126,
      "count" : 1533,
      "type" : "VEC2"
    },
    {
      "bufferView" : 6,
      "componentType" : 5126,
      "count" : 1533,
      "type" : "VEC2"
    },
    {
      "bufferView" : 7,
      "componentType" : 5126,
      "count" : 1533,
      "type" : "VEC2"
    }
  ]
}
