{
  "asset" : {
    "generator" : "UE Viewer (umodel) build 1544 based",
    "version" : "2.0"
  },
  "scene" : 0,
  "scenes" : [
    {
      "nodes" : [ 0 ]
    }
  ],
  "nodes" : [
    {
      "name" : "SM_ENV_LKNVLD_Ground_Hill_Round_R_Lod2",
      "mesh" : 0
    }
  ],
  "materials" : [
    {
      "name" : "MI_ENV_LKNVLD_GroundSoil_A_LOD",
      "pbrMetallicRoughness" : {
        "baseColorFactor" : [ 0.3, 0.3, 0.3, 1.0 ],
        "metallicFactor" : 0.1,
        "roughnessFactor" : 0.5
      }
    },
    {
      "name" : "MI_ENV_LKNVLD_RoughTiles_LOD",
      "pbrMetallicRoughness" : {
        "baseColorFactor" : [ 0.9, 0.3, 0.3, 1.0 ],
        "metallicFactor" : 0.1,
        "roughnessFactor" : 0.5
      }
    }
  ],
  "meshes" : [
    {
      "primitives" : [
        {
          "attributes" : {
            "POSITION" : 1,
            "NORMAL" : 2,
            "TANGENT" : 3,
            "TEXCOORD_0" : 4,
            "TEXCOORD_1" : 5,
            "TEXCOORD_2" : 6,
            "TEXCOORD_3" : 7
          },
          "indices" : 0,
          "material" : 0
        },
        {
          "attributes" : {
            "POSITION" : 9,
            "NORMAL" : 10,
            "TANGENT" : 11,
            "TEXCOORD_0" : 12,
            "TEXCOORD_1" : 13,
            "TEXCOORD_2" : 14,
            "TEXCOORD_3" : 15
          },
          "indices" : 8,
          "material" : 1
        }
      ],
      "name" : "SM_ENV_LKNVLD_Ground_Hill_Round_R_Lod2"
    }
  ],
  "buffers" : [
    {
      "uri" : "SM_ENV_LKNVLD_Ground_Hill_Round_R_Lod2.bin",
      "byteLength" : 37164
    }
  ],
  "bufferViews" : [
    {
      "buffer" : 0,
      "byteOffset" : 0,
      "byteLength" : 756
    },
    {
      "buffer" : 0,
      "byteOffset" : 756,
      "byteLength" : 1056
    },
    {
      "buffer" : 0,
      "byteOffset" : 1812,
      "byteLength" : 1056
    },
    {
      "buffer" : 0,
      "byteOffset" : 2868,
      "byteLength" : 1408
    },
    {
      "buffer" : 0,
      "byteOffset" : 4276,
      "byteLength" : 704
    },
    {
      "buffer" : 0,
      "byteOffset" : 4980,
      "byteLength" : 704
    },
    {
      "buffer" : 0,
      "byteOffset" : 5684,
      "byteLength" : 704
    },
    {
      "buffer" : 0,
      "byteOffset" : 6388,
      "byteLength" : 704
    },
    {
      "buffer" : 0,
      "byteOffset" : 7092,
      "byteLength" : 2208
    },
    {
      "buffer" : 0,
      "byteOffset" : 9300,
      "byteLength" : 4644
    },
    {
      "buffer" : 0,
      "byteOffset" : 13944,
      "byteLength" : 4644
    },
    {
      "buffer" : 0,
      "byteOffset" : 18588,
      "byteLength" : 6192
    },
    {
      "buffer" : 0,
      "byteOffset" : 24780,
      "byteLength" : 3096
    },
    {
      "buffer" : 0,
      "byteOffset" : 27876,
      "byteLength" : 3096
    },
    {
      "buffer" : 0,
      "byteOffset" : 30972,
      "byteLength" : 3096
    },
    {
      "buffer" : 0,
      "byteOffset" : 34068,
      "byteLength" : 3096
    }
  ],
  "accessors" : [
    {
      "bufferView" : 0,
      "componentType" : 5123,
      "count" : 378,
      "type" : "SCALAR"
    },
    {
      "bufferView" : 1,
      "min" : [ 24.9695, 6.53097, -143.912 ],
      "max" : [ 50.8526, 11.629, -90.8685 ],
      "componentType" : 5126,
      "count" : 88,
      "type" : "VEC3"
    },
    {
      "bufferView" : 2,
      "componentType" : 5126,
      "count" : 88,
      "type" : "VEC3"
    },
    {
      "bufferView" : 3,
      "componentType" : 5126,
      "count" : 88,
      "type" : "VEC4"
    },
    {
      "bufferView" : 4,
      "componentType" : 5126,
      "count" : 88,
      "type" : "VEC2"
    },
    {
      "bufferView" : 5,
      "componentType" : 5126,
      "count" : 88,
      "type" : "VEC2"
    },
    {
      "bufferView" : 6,
      "componentType" : 5126,
      "count" : 88,
      "type" : "VEC2"
    },
    {
      "bufferView" : 7,
      "componentType" : 5126,
      "count" : 88,
      "type" : "VEC2"
    },
    {
      "bufferView" : 8,
      "componentType" : 5123,
      "count" : 1104,
      "type" : "SCALAR"
    },
    {
      "bufferView" : 9,
      "min" : [ 24.941, 5.87325, -144.608 ],
      "max" : [ 51.5472, 12.1472, -90.1723 ],
      "componentType" : 5126,
      "count" : 387,
      "type" : "VEC3"
    },
    {
      "bufferView" : 10,
      "componentType" : 5126,
      "count" : 387,
      "type" : "VEC3"
    },
    {
      "bufferView" : 11,
      "componentType" : 5126,
      "count" : 387,
      "type" : "VEC4"
    },
    {
      "bufferView" : 12,
      "componentType" : 5126,
      "count" : 387,
      "type" : "VEC2"
    },
    {
      "bufferView" : 13,
      "componentType" : 5126,
      "count" : 387,
      "type" : "VEC2"
    },
    {
      "bufferView" : 14,
      "componentType" : 5126,
      "count" : 387,
      "type" : "VEC2"
    },
    {
      "bufferView" : 15,
      "componentType" : 5126,
      "count" : 387,
      "type" : "VEC2"
    }
  ]
}
