{
  "asset" : {
    "generator" : "UE Viewer (umodel) build 1544 based",
    "version" : "2.0"
  },
  "scene" : 0,
  "scenes" : [
    {
      "nodes" : [ 0 ]
    }
  ],
  "nodes" : [
    {
      "name" : "SM_ENV_LKNVLD_Ground_Hill_Left_HillSideTrim_01_Lod1",
      "mesh" : 0
    }
  ],
  "materials" : [
    {
      "name" : "MI_ENV_LKNVLD_RoughTiles",
      "pbrMetallicRoughness" : {
        "baseColorFactor" : [ 0.3, 0.3, 0.3, 1.0 ],
        "metallicFactor" : 0.1,
        "roughnessFactor" : 0.5
      }
    }
  ],
  "meshes" : [
    {
      "primitives" : [
        {
          "attributes" : {
            "POSITION" : 1,
            "NORMAL" : 2,
            "TANGENT" : 3,
            "TEXCOORD_0" : 4,
            "TEXCOORD_1" : 5,
            "TEXCOORD_2" : 6,
            "TEXCOORD_3" : 7
          },
          "indices" : 0,
          "material" : 0
        }
      ],
      "name" : "SM_ENV_LKNVLD_Ground_Hill_Left_HillSideTrim_01_Lod1"
    }
  ],
  "buffers" : [
    {
      "uri" : "SM_ENV_LKNVLD_Ground_Hill_Left_HillSideTrim_01_Lod1.bin",
      "byteLength" : 15524
    }
  ],
  "bufferViews" : [
    {
      "buffer" : 0,
      "byteOffset" : 0,
      "byteLength" : 1052
    },
    {
      "buffer" : 0,
      "byteOffset" : 1052,
      "byteLength" : 2412
    },
    {
      "buffer" : 0,
      "byteOffset" : 3464,
      "byteLength" : 2412
    },
    {
      "buffer" : 0,
      "byteOffset" : 5876,
      "byteLength" : 3216
    },
    {
      "buffer" : 0,
      "byteOffset" : 9092,
      "byteLength" : 1608
    },
    {
      "buffer" : 0,
      "byteOffset" : 10700,
      "byteLength" : 1608
    },
    {
      "buffer" : 0,
      "byteOffset" : 12308,
      "byteLength" : 1608
    },
    {
      "buffer" : 0,
      "byteOffset" : 13916,
      "byteLength" : 1608
    }
  ],
  "accessors" : [
    {
      "bufferView" : 0,
      "componentType" : 5123,
      "count" : 525,
      "type" : "SCALAR"
    },
    {
      "bufferView" : 1,
      "min" : [ -62, -1.8919e-15, -84.0823 ],
      "max" : [ -4.02514, 6.12517, -43.3495 ],
      "componentType" : 5126,
      "count" : 201,
      "type" : "VEC3"
    },
    {
      "bufferView" : 2,
      "componentType" : 5126,
      "count" : 201,
      "type" : "VEC3"
    },
    {
      "bufferView" : 3,
      "componentType" : 5126,
      "count" : 201,
      "type" : "VEC4"
    },
    {
      "bufferView" : 4,
      "componentType" : 5126,
      "count" : 201,
      "type" : "VEC2"
    },
    {
      "bufferView" : 5,
      "componentType" : 5126,
      "count" : 201,
      "type" : "VEC2"
    },
    {
      "bufferView" : 6,
      "componentType" : 5126,
      "count" : 201,
      "type" : "VEC2"
    },
    {
      "bufferView" : 7,
      "componentType" : 5126,
      "count" : 201,
      "type" : "VEC2"
    }
  ]
}
