{
  "asset" : {
    "generator" : "UE Viewer (umodel) build 1544 based",
    "version" : "2.0"
  },
  "scene" : 0,
  "scenes" : [
    {
      "nodes" : [ 0 ]
    }
  ],
  "nodes" : [
    {
      "name" : "SM_ENV_LKNVLD_Ground_Hill_Right_HillSideTrim_03_Lod3",
      "mesh" : 0
    }
  ],
  "materials" : [
    {
      "name" : "MI_ENV_LKNVLD_RoughTiles_LOD",
      "pbrMetallicRoughness" : {
        "baseColorFactor" : [ 0.3, 0.3, 0.3, 1.0 ],
        "metallicFactor" : 0.1,
        "roughnessFactor" : 0.5
      }
    }
  ],
  "meshes" : [
    {
      "primitives" : [
        {
          "attributes" : {
            "POSITION" : 1,
            "NORMAL" : 2,
            "TANGENT" : 3,
            "TEXCOORD_0" : 4,
            "TEXCOORD_1" : 5,
            "TEXCOORD_2" : 6,
            "TEXCOORD_3" : 7
          },
          "indices" : 0,
          "material" : 0
        }
      ],
      "name" : "SM_ENV_LKNVLD_Ground_Hill_Right_HillSideTrim_03_Lod3"
    }
  ],
  "buffers" : [
    {
      "uri" : "SM_ENV_LKNVLD_Ground_Hill_Right_HillSideTrim_03_Lod3.bin",
      "byteLength" : 11940
    }
  ],
  "bufferViews" : [
    {
      "buffer" : 0,
      "byteOffset" : 0,
      "byteLength" : 636
    },
    {
      "buffer" : 0,
      "byteOffset" : 636,
      "byteLength" : 1884
    },
    {
      "buffer" : 0,
      "byteOffset" : 2520,
      "byteLength" : 1884
    },
    {
      "buffer" : 0,
      "byteOffset" : 4404,
      "byteLength" : 2512
    },
    {
      "buffer" : 0,
      "byteOffset" : 6916,
      "byteLength" : 1256
    },
    {
      "buffer" : 0,
      "byteOffset" : 8172,
      "byteLength" : 1256
    },
    {
      "buffer" : 0,
      "byteOffset" : 9428,
      "byteLength" : 1256
    },
    {
      "buffer" : 0,
      "byteOffset" : 10684,
      "byteLength" : 1256
    }
  ],
  "accessors" : [
    {
      "bufferView" : 0,
      "componentType" : 5123,
      "count" : 318,
      "type" : "SCALAR"
    },
    {
      "bufferView" : 1,
      "min" : [ 2.97893, 11.458, -172 ],
      "max" : [ 25.6114, 12.1472, -62.2592 ],
      "componentType" : 5126,
      "count" : 157,
      "type" : "VEC3"
    },
    {
      "bufferView" : 2,
      "componentType" : 5126,
      "count" : 157,
      "type" : "VEC3"
    },
    {
      "bufferView" : 3,
      "componentType" : 5126,
      "count" : 157,
      "type" : "VEC4"
    },
    {
      "bufferView" : 4,
      "componentType" : 5126,
      "count" : 157,
      "type" : "VEC2"
    },
    {
      "bufferView" : 5,
      "componentType" : 5126,
      "count" : 157,
      "type" : "VEC2"
    },
    {
      "bufferView" : 6,
      "componentType" : 5126,
      "count" : 157,
      "type" : "VEC2"
    },
    {
      "bufferView" : 7,
      "componentType" : 5126,
      "count" : 157,
      "type" : "VEC2"
    }
  ]
}
