{
  "asset" : {
    "generator" : "UE Viewer (umodel) build 1544 based",
    "version" : "2.0"
  },
  "scene" : 0,
  "scenes" : [
    {
      "nodes" : [ 0 ]
    }
  ],
  "nodes" : [
    {
      "name" : "SM_ENV_LKNVLD_Ground_StairCase_02_Lod2",
      "mesh" : 0
    }
  ],
  "materials" : [
    {
      "name" : "MI_T_ENV_LKNVLD_StoneTrim_LOD",
      "pbrMetallicRoughness" : {
        "baseColorFactor" : [ 0.3, 0.3, 0.3, 1.0 ],
        "metallicFactor" : 0.1,
        "roughnessFactor" : 0.5
      }
    },
    {
      "name" : "MI_ENV_LKNVLD_RoughTiles_LOD",
      "pbrMetallicRoughness" : {
        "baseColorFactor" : [ 0.9, 0.3, 0.3, 1.0 ],
        "metallicFactor" : 0.1,
        "roughnessFactor" : 0.5
      }
    },
    {
      "name" : "MI_T_ENV_LKNVLD_StoneStairs_LOD",
      "pbrMetallicRoughness" : {
        "baseColorFactor" : [ 0.3, 0.9, 0.3, 1.0 ],
        "metallicFactor" : 0.1,
        "roughnessFactor" : 0.5
      }
    },
    {
      "name" : "MI_ENV_LKNVLD_Signboard_A",
      "pbrMetallicRoughness" : {
        "baseColorFactor" : [ 0.3, 0.3, 0.9, 1.0 ],
        "metallicFactor" : 0.1,
        "roughnessFactor" : 0.5
      }
    },
    {
      "name" : "MI_ENV_LKNVLD_WoodWallSet_LOD",
      "pbrMetallicRoughness" : {
        "baseColorFactor" : [ 0.9, 0.9, 0.9, 1.0 ],
        "metallicFactor" : 0.1,
        "roughnessFactor" : 0.5
      }
    },
    {
      "name" : "MI_ENV_LKNVLD_WoodPlain_Red_LOD",
      "pbrMetallicRoughness" : {
        "baseColorFactor" : [ 0.9, 0.9, 0.3, 1.0 ],
        "metallicFactor" : 0.1,
        "roughnessFactor" : 0.5
      }
    }
  ],
  "meshes" : [
    {
      "primitives" : [
        {
          "attributes" : {
            "POSITION" : 1,
            "NORMAL" : 2,
            "TANGENT" : 3,
            "TEXCOORD_0" : 4,
            "TEXCOORD_1" : 5,
            "TEXCOORD_2" : 6,
            "TEXCOORD_3" : 7
          },
          "indices" : 0,
          "material" : 0
        },
        {
          "attributes" : {
            "POSITION" : 9,
            "NORMAL" : 10,
            "TANGENT" : 11,
            "TEXCOORD_0" : 12,
            "TEXCOORD_1" : 13,
            "TEXCOORD_2" : 14,
            "TEXCOORD_3" : 15
          },
          "indices" : 8,
          "material" : 1
        },
        {
          "attributes" : {
            "POSITION" : 17,
            "NORMAL" : 18,
            "TANGENT" : 19,
            "TEXCOORD_0" : 20,
            "TEXCOORD_1" : 21,
            "TEXCOORD_2" : 22,
            "TEXCOORD_3" : 23
          },
          "indices" : 16,
          "material" : 2
        },
        {
          "attributes" : {
            "POSITION" : 25,
            "NORMAL" : 26,
            "TANGENT" : 27,
            "TEXCOORD_0" : 28,
            "TEXCOORD_1" : 29,
            "TEXCOORD_2" : 30,
            "TEXCOORD_3" : 31
          },
          "indices" : 24,
          "material" : 3
        },
        {
          "attributes" : {
            "POSITION" : 33,
            "NORMAL" : 34,
            "TANGENT" : 35,
            "TEXCOORD_0" : 36,
            "TEXCOORD_1" : 37,
            "TEXCOORD_2" : 38,
            "TEXCOORD_3" : 39
          },
          "indices" : 32,
          "material" : 4
        },
        {
          "attributes" : {
            "POSITION" : 41,
            "NORMAL" : 42,
            "TANGENT" : 43,
            "TEXCOORD_0" : 44,
            "TEXCOORD_1" : 45,
            "TEXCOORD_2" : 46,
            "TEXCOORD_3" : 47
          },
          "indices" : 40,
          "material" : 5
        }
      ],
      "name" : "SM_ENV_LKNVLD_Ground_StairCase_02_Lod2"
    }
  ],
  "buffers" : [
    {
      "uri" : "SM_ENV_LKNVLD_Ground_StairCase_02_Lod2.bin",
      "byteLength" : 459896
    }
  ],
  "bufferViews" : [
    {
      "buffer" : 0,
      "byteOffset" : 0,
      "byteLength" : 3156
    },
    {
      "buffer" : 0,
      "byteOffset" : 3156,
      "byteLength" : 4644
    },
    {
      "buffer" : 0,
      "byteOffset" : 7800,
      "byteLength" : 4644
    },
    {
      "buffer" : 0,
      "byteOffset" : 12444,
      "byteLength" : 6192
    },
    {
      "buffer" : 0,
      "byteOffset" : 18636,
      "byteLength" : 3096
    },
    {
      "buffer" : 0,
      "byteOffset" : 21732,
      "byteLength" : 3096
    },
    {
      "buffer" : 0,
      "byteOffset" : 24828,
      "byteLength" : 3096
    },
    {
      "buffer" : 0,
      "byteOffset" : 27924,
      "byteLength" : 3096
    },
    {
      "buffer" : 0,
      "byteOffset" : 31020,
      "byteLength" : 3480
    },
    {
      "buffer" : 0,
      "byteOffset" : 34500,
      "byteLength" : 5724
    },
    {
      "buffer" : 0,
      "byteOffset" : 40224,
      "byteLength" : 5724
    },
    {
      "buffer" : 0,
      "byteOffset" : 45948,
      "byteLength" : 7632
    },
    {
      "buffer" : 0,
      "byteOffset" : 53580,
      "byteLength" : 3816
    },
    {
      "buffer" : 0,
      "byteOffset" : 57396,
      "byteLength" : 3816
    },
    {
      "buffer" : 0,
      "byteOffset" : 61212,
      "byteLength" : 3816
    },
    {
      "buffer" : 0,
      "byteOffset" : 65028,
      "byteLength" : 3816
    },
    {
      "buffer" : 0,
      "byteOffset" : 68844,
      "byteLength" : 3800
    },
    {
      "buffer" : 0,
      "byteOffset" : 72644,
      "byteLength" : 7644
    },
    {
      "buffer" : 0,
      "byteOffset" : 80288,
      "byteLength" : 7644
    },
    {
      "buffer" : 0,
      "byteOffset" : 87932,
      "byteLength" : 10192
    },
    {
      "buffer" : 0,
      "byteOffset" : 98124,
      "byteLength" : 5096
    },
    {
      "buffer" : 0,
      "byteOffset" : 103220,
      "byteLength" : 5096
    },
    {
      "buffer" : 0,
      "byteOffset" : 108316,
      "byteLength" : 5096
    },
    {
      "buffer" : 0,
      "byteOffset" : 113412,
      "byteLength" : 5096
    },
    {
      "buffer" : 0,
      "byteOffset" : 118508,
      "byteLength" : 15108
    },
    {
      "buffer" : 0,
      "byteOffset" : 133616,
      "byteLength" : 23136
    },
    {
      "buffer" : 0,
      "byteOffset" : 156752,
      "byteLength" : 23136
    },
    {
      "buffer" : 0,
      "byteOffset" : 179888,
      "byteLength" : 30848
    },
    {
      "buffer" : 0,
      "byteOffset" : 210736,
      "byteLength" : 15424
    },
    {
      "buffer" : 0,
      "byteOffset" : 226160,
      "byteLength" : 15424
    },
    {
      "buffer" : 0,
      "byteOffset" : 241584,
      "byteLength" : 15424
    },
    {
      "buffer" : 0,
      "byteOffset" : 257008,
      "byteLength" : 15424
    },
    {
      "buffer" : 0,
      "byteOffset" : 272432,
      "byteLength" : 4296
    },
    {
      "buffer" : 0,
      "byteOffset" : 276728,
      "byteLength" : 9048
    },
    {
      "buffer" : 0,
      "byteOffset" : 285776,
      "byteLength" : 9048
    },
    {
      "buffer" : 0,
      "byteOffset" : 294824,
      "byteLength" : 12064
    },
    {
      "buffer" : 0,
      "byteOffset" : 306888,
      "byteLength" : 6032
    },
    {
      "buffer" : 0,
      "byteOffset" : 312920,
      "byteLength" : 6032
    },
    {
      "buffer" : 0,
      "byteOffset" : 318952,
      "byteLength" : 6032
    },
    {
      "buffer" : 0,
      "byteOffset" : 324984,
      "byteLength" : 6032
    },
    {
      "buffer" : 0,
      "byteOffset" : 331016,
      "byteLength" : 7920
    },
    {
      "buffer" : 0,
      "byteOffset" : 338936,
      "byteLength" : 20160
    },
    {
      "buffer" : 0,
      "byteOffset" : 359096,
      "byteLength" : 20160
    },
    {
      "buffer" : 0,
      "byteOffset" : 379256,
      "byteLength" : 26880
    },
    {
      "buffer" : 0,
      "byteOffset" : 406136,
      "byteLength" : 13440
    },
    {
      "buffer" : 0,
      "byteOffset" : 419576,
      "byteLength" : 13440
    },
    {
      "buffer" : 0,
      "byteOffset" : 433016,
      "byteLength" : 13440
    },
    {
      "buffer" : 0,
      "byteOffset" : 446456,
      "byteLength" : 13440
    }
  ],
  "accessors" : [
    {
      "bufferView" : 0,
      "componentType" : 5123,
      "count" : 1578,
      "type" : "SCALAR"
    },
    {
      "bufferView" : 1,
      "min" : [ -4.11263, 5.92379, -62.816 ],
      "max" : [ 4.11263, 12.4566, -50.8981 ],
      "componentType" : 5126,
      "count" : 387,
      "type" : "VEC3"
    },
    {
      "bufferView" : 2,
      "componentType" : 5126,
      "count" : 387,
      "type" : "VEC3"
    },
    {
      "bufferView" : 3,
      "componentType" : 5126,
      "count" : 387,
      "type" : "VEC4"
    },
    {
      "bufferView" : 4,
      "componentType" : 5126,
      "count" : 387,
      "type" : "VEC2"
    },
    {
      "bufferView" : 5,
      "componentType" : 5126,
      "count" : 387,
      "type" : "VEC2"
    },
    {
      "bufferView" : 6,
      "componentType" : 5126,
      "count" : 387,
      "type" : "VEC2"
    },
    {
      "bufferView" : 7,
      "componentType" : 5126,
      "count" : 387,
      "type" : "VEC2"
    },
    {
      "bufferView" : 8,
      "componentType" : 5123,
      "count" : 1740,
      "type" : "SCALAR"
    },
    {
      "bufferView" : 9,
      "min" : [ -4.39337, 5.9201, -62.816 ],
      "max" : [ 4.39337, 12.2638, -50.5171 ],
      "componentType" : 5126,
      "count" : 477,
      "type" : "VEC3"
    },
    {
      "bufferView" : 10,
      "componentType" : 5126,
      "count" : 477,
      "type" : "VEC3"
    },
    {
      "bufferView" : 11,
      "componentType" : 5126,
      "count" : 477,
      "type" : "VEC4"
    },
    {
      "bufferView" : 12,
      "componentType" : 5126,
      "count" : 477,
      "type" : "VEC2"
    },
    {
      "bufferView" : 13,
      "componentType" : 5126,
      "count" : 477,
      "type" : "VEC2"
    },
    {
      "bufferView" : 14,
      "componentType" : 5126,
      "count" : 477,
      "type" : "VEC2"
    },
    {
      "bufferView" : 15,
      "componentType" : 5126,
      "count" : 477,
      "type" : "VEC2"
    },
    {
      "bufferView" : 16,
      "componentType" : 5123,
      "count" : 1899,
      "type" : "SCALAR"
    },
    {
      "bufferView" : 17,
      "min" : [ -3.97575, 5.91872, -62.8064 ],
      "max" : [ 4.07052, 12.0248, -50.96 ],
      "componentType" : 5126,
      "count" : 637,
      "type" : "VEC3"
    },
    {
      "bufferView" : 18,
      "componentType" : 5126,
      "count" : 637,
      "type" : "VEC3"
    },
    {
      "bufferView" : 19,
      "componentType" : 5126,
      "count" : 637,
      "type" : "VEC4"
    },
    {
      "bufferView" : 20,
      "componentType" : 5126,
      "count" : 637,
      "type" : "VEC2"
    },
    {
      "bufferView" : 21,
      "componentType" : 5126,
      "count" : 637,
      "type" : "VEC2"
    },
    {
      "bufferView" : 22,
      "componentType" : 5126,
      "count" : 637,
      "type" : "VEC2"
    },
    {
      "bufferView" : 23,
      "componentType" : 5126,
      "count" : 637,
      "type" : "VEC2"
    },
    {
      "bufferView" : 24,
      "componentType" : 5123,
      "count" : 7554,
      "type" : "SCALAR"
    },
    {
      "bufferView" : 25,
      "min" : [ -3.81982, 7.32702, -62.6616 ],
      "max" : [ 3.82094, 13.8148, -51.0118 ],
      "componentType" : 5126,
      "count" : 1928,
      "type" : "VEC3"
    },
    {
      "bufferView" : 26,
      "componentType" : 5126,
      "count" : 1928,
      "type" : "VEC3"
    },
    {
      "bufferView" : 27,
      "componentType" : 5126,
      "count" : 1928,
      "type" : "VEC4"
    },
    {
      "bufferView" : 28,
      "componentType" : 5126,
      "count" : 1928,
      "type" : "VEC2"
    },
    {
      "bufferView" : 29,
      "componentType" : 5126,
      "count" : 1928,
      "type" : "VEC2"
    },
    {
      "bufferView" : 30,
      "componentType" : 5126,
      "count" : 1928,
      "type" : "VEC2"
    },
    {
      "bufferView" : 31,
      "componentType" : 5126,
      "count" : 1928,
      "type" : "VEC2"
    },
    {
      "bufferView" : 32,
      "componentType" : 5123,
      "count" : 2148,
      "type" : "SCALAR"
    },
    {
      "bufferView" : 33,
      "min" : [ -3.85005, 6.4197, -62.7167 ],
      "max" : [ 3.85005, 12.544, -50.9618 ],
      "componentType" : 5126,
      "count" : 754,
      "type" : "VEC3"
    },
    {
      "bufferView" : 34,
      "componentType" : 5126,
      "count" : 754,
      "type" : "VEC3"
    },
    {
      "bufferView" : 35,
      "componentType" : 5126,
      "count" : 754,
      "type" : "VEC4"
    },
    {
      "bufferView" : 36,
      "componentType" : 5126,
      "count" : 754,
      "type" : "VEC2"
    },
    {
      "bufferView" : 37,
      "componentType" : 5126,
      "count" : 754,
      "type" : "VEC2"
    },
    {
      "bufferView" : 38,
      "componentType" : 5126,
      "count" : 754,
      "type" : "VEC2"
    },
    {
      "bufferView" : 39,
      "componentType" : 5126,
      "count" : 754,
      "type" : "VEC2"
    },
    {
      "bufferView" : 40,
      "componentType" : 5123,
      "count" : 3960,
      "type" : "SCALAR"
    },
    {
      "bufferView" : 41,
      "min" : [ -3.8107, 6.65282, -62.6773 ],
      "max" : [ 3.8107, 13.604, -51.0012 ],
      "componentType" : 5126,
      "count" : 1680,
      "type" : "VEC3"
    },
    {
      "bufferView" : 42,
      "componentType" : 5126,
      "count" : 1680,
      "type" : "VEC3"
    },
    {
      "bufferView" : 43,
      "componentType" : 5126,
      "count" : 1680,
      "type" : "VEC4"
    },
    {
      "bufferView" : 44,
      "componentType" : 5126,
      "count" : 1680,
      "type" : "VEC2"
    },
    {
      "bufferView" : 45,
      "componentType" : 5126,
      "count" : 1680,
      "type" : "VEC2"
    },
    {
      "bufferView" : 46,
      "componentType" : 5126,
      "count" : 1680,
      "type" : "VEC2"
    },
    {
      "bufferView" : 47,
      "componentType" : 5126,
      "count" : 1680,
      "type" : "VEC2"
    }
  ]
}
