{
  "asset" : {
    "generator" : "UE Viewer (umodel) build 1544 based",
    "version" : "2.0"
  },
  "scene" : 0,
  "scenes" : [
    {
      "nodes" : [ 0 ]
    }
  ],
  "nodes" : [
    {
      "name" : "SM_ENV_LKNVLD_Ground_Hill_Right_WaterTrim_Lod2",
      "mesh" : 0
    }
  ],
  "materials" : [
    {
      "name" : "MI_ENV_LKNVLD_RoughTiles_LOD",
      "pbrMetallicRoughness" : {
        "baseColorFactor" : [ 0.3, 0.3, 0.3, 1.0 ],
        "metallicFactor" : 0.1,
        "roughnessFactor" : 0.5
      }
    }
  ],
  "meshes" : [
    {
      "primitives" : [
        {
          "attributes" : {
            "POSITION" : 1,
            "NORMAL" : 2,
            "TANGENT" : 3,
            "TEXCOORD_0" : 4,
            "TEXCOORD_1" : 5,
            "TEXCOORD_2" : 6,
            "TEXCOORD_3" : 7
          },
          "indices" : 0,
          "material" : 0
        }
      ],
      "name" : "SM_ENV_LKNVLD_Ground_Hill_Right_WaterTrim_Lod2"
    }
  ],
  "buffers" : [
    {
      "uri" : "SM_ENV_LKNVLD_Ground_Hill_Right_WaterTrim_Lod2.bin",
      "byteLength" : 70740
    }
  ],
  "bufferViews" : [
    {
      "buffer" : 0,
      "byteOffset" : 0,
      "byteLength" : 5004
    },
    {
      "buffer" : 0,
      "byteOffset" : 5004,
      "byteLength" : 10956
    },
    {
      "buffer" : 0,
      "byteOffset" : 15960,
      "byteLength" : 10956
    },
    {
      "buffer" : 0,
      "byteOffset" : 26916,
      "byteLength" : 14608
    },
    {
      "buffer" : 0,
      "byteOffset" : 41524,
      "byteLength" : 7304
    },
    {
      "buffer" : 0,
      "byteOffset" : 48828,
      "byteLength" : 7304
    },
    {
      "buffer" : 0,
      "byteOffset" : 56132,
      "byteLength" : 7304
    },
    {
      "buffer" : 0,
      "byteOffset" : 63436,
      "byteLength" : 7304
    }
  ],
  "accessors" : [
    {
      "bufferView" : 0,
      "componentType" : 5123,
      "count" : 2502,
      "type" : "SCALAR"
    },
    {
      "bufferView" : 1,
      "min" : [ 40.771, -0.328871, -79.5227 ],
      "max" : [ 69.976, 0.598996, -71.7198 ],
      "componentType" : 5126,
      "count" : 913,
      "type" : "VEC3"
    },
    {
      "bufferView" : 2,
      "componentType" : 5126,
      "count" : 913,
      "type" : "VEC3"
    },
    {
      "bufferView" : 3,
      "componentType" : 5126,
      "count" : 913,
      "type" : "VEC4"
    },
    {
      "bufferView" : 4,
      "componentType" : 5126,
      "count" : 913,
      "type" : "VEC2"
    },
    {
      "bufferView" : 5,
      "componentType" : 5126,
      "count" : 913,
      "type" : "VEC2"
    },
    {
      "bufferView" : 6,
      "componentType" : 5126,
      "count" : 913,
      "type" : "VEC2"
    },
    {
      "bufferView" : 7,
      "componentType" : 5126,
      "count" : 913,
      "type" : "VEC2"
    }
  ]
}
