{
  "asset" : {
    "generator" : "UE Viewer (umodel) build 1544 based",
    "version" : "2.0"
  },
  "scene" : 0,
  "scenes" : [
    {
      "nodes" : [ 0 ]
    }
  ],
  "nodes" : [
    {
      "name" : "SM_ENV_LKNVLD_Ground_StairCase_01_Lod3",
      "mesh" : 0
    }
  ],
  "materials" : [
    {
      "name" : "MI_T_ENV_LKNVLD_StoneTrim_LOD",
      "pbrMetallicRoughness" : {
        "baseColorFactor" : [ 0.3, 0.3, 0.3, 1.0 ],
        "metallicFactor" : 0.1,
        "roughnessFactor" : 0.5
      }
    },
    {
      "name" : "MI_ENV_LKNVLD_RoughTiles_LOD",
      "pbrMetallicRoughness" : {
        "baseColorFactor" : [ 0.9, 0.3, 0.3, 1.0 ],
        "metallicFactor" : 0.1,
        "roughnessFactor" : 0.5
      }
    },
    {
      "name" : "MI_ENV_LKNVLD_WoodPlain_Red_LOD",
      "pbrMetallicRoughness" : {
        "baseColorFactor" : [ 0.3, 0.9, 0.3, 1.0 ],
        "metallicFactor" : 0.1,
        "roughnessFactor" : 0.5
      }
    },
    {
      "name" : "MI_ENV_LKNVLD_Signboard_A",
      "pbrMetallicRoughness" : {
        "baseColorFactor" : [ 0.3, 0.3, 0.9, 1.0 ],
        "metallicFactor" : 0.1,
        "roughnessFactor" : 0.5
      }
    },
    {
      "name" : "MI_ENV_LKNVLD_WoodWallSet_LOD",
      "pbrMetallicRoughness" : {
        "baseColorFactor" : [ 0.9, 0.9, 0.9, 1.0 ],
        "metallicFactor" : 0.1,
        "roughnessFactor" : 0.5
      }
    },
    {
      "name" : "MI_T_ENV_LKNVLD_StoneStairs_LOD",
      "pbrMetallicRoughness" : {
        "baseColorFactor" : [ 0.9, 0.9, 0.3, 1.0 ],
        "metallicFactor" : 0.1,
        "roughnessFactor" : 0.5
      }
    },
    {
      "name" : "MI_ENV_LKNVLD_GroundSoil_A_LOD",
      "pbrMetallicRoughness" : {
        "baseColorFactor" : [ 0.9, 0.3, 0.9, 1.0 ],
        "metallicFactor" : 0.1,
        "roughnessFactor" : 0.5
      }
    }
  ],
  "meshes" : [
    {
      "primitives" : [
        {
          "attributes" : {
            "POSITION" : 1,
            "NORMAL" : 2,
            "TANGENT" : 3,
            "COLOR_0" : 4,
            "TEXCOORD_0" : 5,
            "TEXCOORD_1" : 6,
            "TEXCOORD_2" : 7,
            "TEXCOORD_3" : 8
          },
          "indices" : 0,
          "material" : 0
        },
        {
          "attributes" : {
            "POSITION" : 10,
            "NORMAL" : 11,
            "TANGENT" : 12,
            "COLOR_0" : 13,
            "TEXCOORD_0" : 14,
            "TEXCOORD_1" : 15,
            "TEXCOORD_2" : 16,
            "TEXCOORD_3" : 17
          },
          "indices" : 9,
          "material" : 1
        },
        {
          "attributes" : {
            "POSITION" : 19,
            "NORMAL" : 20,
            "TANGENT" : 21,
            "COLOR_0" : 22,
            "TEXCOORD_0" : 23,
            "TEXCOORD_1" : 24,
            "TEXCOORD_2" : 25,
            "TEXCOORD_3" : 26
          },
          "indices" : 18,
          "material" : 2
        },
        {
          "attributes" : {
            "POSITION" : 28,
            "NORMAL" : 29,
            "TANGENT" : 30,
            "COLOR_0" : 31,
            "TEXCOORD_0" : 32,
            "TEXCOORD_1" : 33,
            "TEXCOORD_2" : 34,
            "TEXCOORD_3" : 35
          },
          "indices" : 27,
          "material" : 3
        },
        {
          "attributes" : {
            "POSITION" : 37,
            "NORMAL" : 38,
            "TANGENT" : 39,
            "COLOR_0" : 40,
            "TEXCOORD_0" : 41,
            "TEXCOORD_1" : 42,
            "TEXCOORD_2" : 43,
            "TEXCOORD_3" : 44
          },
          "indices" : 36,
          "material" : 4
        },
        {
          "attributes" : {
            "POSITION" : 46,
            "NORMAL" : 47,
            "TANGENT" : 48,
            "COLOR_0" : 49,
            "TEXCOORD_0" : 50,
            "TEXCOORD_1" : 51,
            "TEXCOORD_2" : 52,
            "TEXCOORD_3" : 53
          },
          "indices" : 45,
          "material" : 5
        },
        {
          "attributes" : {
            "POSITION" : 55,
            "NORMAL" : 56,
            "TANGENT" : 57,
            "COLOR_0" : 58,
            "TEXCOORD_0" : 59,
            "TEXCOORD_1" : 60,
            "TEXCOORD_2" : 61,
            "TEXCOORD_3" : 62
          },
          "indices" : 54,
          "material" : 6
        }
      ],
      "name" : "SM_ENV_LKNVLD_Ground_StairCase_01_Lod3"
    }
  ],
  "buffers" : [
    {
      "uri" : "SM_ENV_LKNVLD_Ground_StairCase_01_Lod3.bin",
      "byteLength" : 399372
    }
  ],
  "bufferViews" : [
    {
      "buffer" : 0,
      "byteOffset" : 0,
      "byteLength" : 3960
    },
    {
      "buffer" : 0,
      "byteOffset" : 3960,
      "byteLength" : 6120
    },
    {
      "buffer" : 0,
      "byteOffset" : 10080,
      "byteLength" : 6120
    },
    {
      "buffer" : 0,
      "byteOffset" : 16200,
      "byteLength" : 8160
    },
    {
      "buffer" : 0,
      "byteOffset" : 24360,
      "byteLength" : 2040
    },
    {
      "buffer" : 0,
      "byteOffset" : 26400,
      "byteLength" : 4080
    },
    {
      "buffer" : 0,
      "byteOffset" : 30480,
      "byteLength" : 4080
    },
    {
      "buffer" : 0,
      "byteOffset" : 34560,
      "byteLength" : 4080
    },
    {
      "buffer" : 0,
      "byteOffset" : 38640,
      "byteLength" : 4080
    },
    {
      "buffer" : 0,
      "byteOffset" : 42720,
      "byteLength" : 2412
    },
    {
      "buffer" : 0,
      "byteOffset" : 45132,
      "byteLength" : 3756
    },
    {
      "buffer" : 0,
      "byteOffset" : 48888,
      "byteLength" : 3756
    },
    {
      "buffer" : 0,
      "byteOffset" : 52644,
      "byteLength" : 5008
    },
    {
      "buffer" : 0,
      "byteOffset" : 57652,
      "byteLength" : 1252
    },
    {
      "buffer" : 0,
      "byteOffset" : 58904,
      "byteLength" : 2504
    },
    {
      "buffer" : 0,
      "byteOffset" : 61408,
      "byteLength" : 2504
    },
    {
      "buffer" : 0,
      "byteOffset" : 63912,
      "byteLength" : 2504
    },
    {
      "buffer" : 0,
      "byteOffset" : 66416,
      "byteLength" : 2504
    },
    {
      "buffer" : 0,
      "byteOffset" : 68920,
      "byteLength" : 6552
    },
    {
      "buffer" : 0,
      "byteOffset" : 75472,
      "byteLength" : 18768
    },
    {
      "buffer" : 0,
      "byteOffset" : 94240,
      "byteLength" : 18768
    },
    {
      "buffer" : 0,
      "byteOffset" : 113008,
      "byteLength" : 25024
    },
    {
      "buffer" : 0,
      "byteOffset" : 138032,
      "byteLength" : 6256
    },
    {
      "buffer" : 0,
      "byteOffset" : 144288,
      "byteLength" : 12512
    },
    {
      "buffer" : 0,
      "byteOffset" : 156800,
      "byteLength" : 12512
    },
    {
      "buffer" : 0,
      "byteOffset" : 169312,
      "byteLength" : 12512
    },
    {
      "buffer" : 0,
      "byteOffset" : 181824,
      "byteLength" : 12512
    },
    {
      "buffer" : 0,
      "byteOffset" : 194336,
      "byteLength" : 7824
    },
    {
      "buffer" : 0,
      "byteOffset" : 202160,
      "byteLength" : 15744
    },
    {
      "buffer" : 0,
      "byteOffset" : 217904,
      "byteLength" : 15744
    },
    {
      "buffer" : 0,
      "byteOffset" : 233648,
      "byteLength" : 20992
    },
    {
      "buffer" : 0,
      "byteOffset" : 254640,
      "byteLength" : 5248
    },
    {
      "buffer" : 0,
      "byteOffset" : 259888,
      "byteLength" : 10496
    },
    {
      "buffer" : 0,
      "byteOffset" : 270384,
      "byteLength" : 10496
    },
    {
      "buffer" : 0,
      "byteOffset" : 280880,
      "byteLength" : 10496
    },
    {
      "buffer" : 0,
      "byteOffset" : 291376,
      "byteLength" : 10496
    },
    {
      "buffer" : 0,
      "byteOffset" : 301872,
      "byteLength" : 2400
    },
    {
      "buffer" : 0,
      "byteOffset" : 304272,
      "byteLength" : 6696
    },
    {
      "buffer" : 0,
      "byteOffset" : 310968,
      "byteLength" : 6696
    },
    {
      "buffer" : 0,
      "byteOffset" : 317664,
      "byteLength" : 8928
    },
    {
      "buffer" : 0,
      "byteOffset" : 326592,
      "byteLength" : 2232
    },
    {
      "buffer" : 0,
      "byteOffset" : 328824,
      "byteLength" : 4464
    },
    {
      "buffer" : 0,
      "byteOffset" : 333288,
      "byteLength" : 4464
    },
    {
      "buffer" : 0,
      "byteOffset" : 337752,
      "byteLength" : 4464
    },
    {
      "buffer" : 0,
      "byteOffset" : 342216,
      "byteLength" : 4464
    },
    {
      "buffer" : 0,
      "byteOffset" : 346680,
      "byteLength" : 3476
    },
    {
      "buffer" : 0,
      "byteOffset" : 350156,
      "byteLength" : 7296
    },
    {
      "buffer" : 0,
      "byteOffset" : 357452,
      "byteLength" : 7296
    },
    {
      "buffer" : 0,
      "byteOffset" : 364748,
      "byteLength" : 9728
    },
    {
      "buffer" : 0,
      "byteOffset" : 374476,
      "byteLength" : 2432
    },
    {
      "buffer" : 0,
      "byteOffset" : 376908,
      "byteLength" : 4864
    },
    {
      "buffer" : 0,
      "byteOffset" : 381772,
      "byteLength" : 4864
    },
    {
      "buffer" : 0,
      "byteOffset" : 386636,
      "byteLength" : 4864
    },
    {
      "buffer" : 0,
      "byteOffset" : 391500,
      "byteLength" : 4864
    },
    {
      "buffer" : 0,
      "byteOffset" : 396364,
      "byteLength" : 120
    },
    {
      "buffer" : 0,
      "byteOffset" : 396484,
      "byteLength" : 456
    },
    {
      "buffer" : 0,
      "byteOffset" : 396940,
      "byteLength" : 456
    },
    {
      "buffer" : 0,
      "byteOffset" : 397396,
      "byteLength" : 608
    },
    {
      "buffer" : 0,
      "byteOffset" : 398004,
      "byteLength" : 152
    },
    {
      "buffer" : 0,
      "byteOffset" : 398156,
      "byteLength" : 304
    },
    {
      "buffer" : 0,
      "byteOffset" : 398460,
      "byteLength" : 304
    },
    {
      "buffer" : 0,
      "byteOffset" : 398764,
      "byteLength" : 304
    },
    {
      "buffer" : 0,
      "byteOffset" : 399068,
      "byteLength" : 304
    }
  ],
  "accessors" : [
    {
      "bufferView" : 0,
      "componentType" : 5123,
      "count" : 1980,
      "type" : "SCALAR"
    },
    {
      "bufferView" : 1,
      "min" : [ -10.3984, -0.793995, -44.2951 ],
      "max" : [ 5.61587, 6.34201, -29.9323 ],
      "componentType" : 5126,
      "count" : 510,
      "type" : "VEC3"
    },
    {
      "bufferView" : 2,
      "componentType" : 5126,
      "count" : 510,
      "type" : "VEC3"
    },
    {
      "bufferView" : 3,
      "componentType" : 5126,
      "count" : 510,
      "type" : "VEC4"
    },
    {
      "bufferView" : 4,
      "normalized" : true,
      "componentType" : 5121,
      "count" : 510,
      "type" : "VEC4"
    },
    {
      "bufferView" : 5,
      "componentType" : 5126,
      "count" : 510,
      "type" : "VEC2"
    },
    {
      "bufferView" : 6,
      "componentType" : 5126,
      "count" : 510,
      "type" : "VEC2"
    },
    {
      "bufferView" : 7,
      "componentType" : 5126,
      "count" : 510,
      "type" : "VEC2"
    },
    {
      "bufferView" : 8,
      "componentType" : 5126,
      "count" : 510,
      "type" : "VEC2"
    },
    {
      "bufferView" : 9,
      "componentType" : 5123,
      "count" : 1206,
      "type" : "SCALAR"
    },
    {
      "bufferView" : 10,
      "min" : [ -11.3203, -0.551215, -44.2726 ],
      "max" : [ 11.3203, 6.1843, -30.6373 ],
      "componentType" : 5126,
      "count" : 313,
      "type" : "VEC3"
    },
    {
      "bufferView" : 11,
      "componentType" : 5126,
      "count" : 313,
      "type" : "VEC3"
    },
    {
      "bufferView" : 12,
      "componentType" : 5126,
      "count" : 313,
      "type" : "VEC4"
    },
    {
      "bufferView" : 13,
      "normalized" : true,
      "componentType" : 5121,
      "count" : 313,
      "type" : "VEC4"
    },
    {
      "bufferView" : 14,
      "componentType" : 5126,
      "count" : 313,
      "type" : "VEC2"
    },
    {
      "bufferView" : 15,
      "componentType" : 5126,
      "count" : 313,
      "type" : "VEC2"
    },
    {
      "bufferView" : 16,
      "componentType" : 5126,
      "count" : 313,
      "type" : "VEC2"
    },
    {
      "bufferView" : 17,
      "componentType" : 5126,
      "count" : 313,
      "type" : "VEC2"
    },
    {
      "bufferView" : 18,
      "componentType" : 5123,
      "count" : 3276,
      "type" : "SCALAR"
    },
    {
      "bufferView" : 19,
      "min" : [ -5.27015, 0.149261, -43.391 ],
      "max" : [ 5.27015, 7.46601, -31.0554 ],
      "componentType" : 5126,
      "count" : 1564,
      "type" : "VEC3"
    },
    {
      "bufferView" : 20,
      "componentType" : 5126,
      "count" : 1564,
      "type" : "VEC3"
    },
    {
      "bufferView" : 21,
      "componentType" : 5126,
      "count" : 1564,
      "type" : "VEC4"
    },
    {
      "bufferView" : 22,
      "normalized" : true,
      "componentType" : 5121,
      "count" : 1564,
      "type" : "VEC4"
    },
    {
      "bufferView" : 23,
      "componentType" : 5126,
      "count" : 1564,
      "type" : "VEC2"
    },
    {
      "bufferView" : 24,
      "componentType" : 5126,
      "count" : 1564,
      "type" : "VEC2"
    },
    {
      "bufferView" : 25,
      "componentType" : 5126,
      "count" : 1564,
      "type" : "VEC2"
    },
    {
      "bufferView" : 26,
      "componentType" : 5126,
      "count" : 1564,
      "type" : "VEC2"
    },
    {
      "bufferView" : 27,
      "componentType" : 5123,
      "count" : 3912,
      "type" : "SCALAR"
    },
    {
      "bufferView" : 28,
      "min" : [ -5.27189, 0.841235, -43.3754 ],
      "max" : [ 5.27189, 7.67687, -31.0684 ],
      "componentType" : 5126,
      "count" : 1312,
      "type" : "VEC3"
    },
    {
      "bufferView" : 29,
      "componentType" : 5126,
      "count" : 1312,
      "type" : "VEC3"
    },
    {
      "bufferView" : 30,
      "componentType" : 5126,
      "count" : 1312,
      "type" : "VEC4"
    },
    {
      "bufferView" : 31,
      "normalized" : true,
      "componentType" : 5121,
      "count" : 1312,
      "type" : "VEC4"
    },
    {
      "bufferView" : 32,
      "componentType" : 5126,
      "count" : 1312,
      "type" : "VEC2"
    },
    {
      "bufferView" : 33,
      "componentType" : 5126,
      "count" : 1312,
      "type" : "VEC2"
    },
    {
      "bufferView" : 34,
      "componentType" : 5126,
      "count" : 1312,
      "type" : "VEC2"
    },
    {
      "bufferView" : 35,
      "componentType" : 5126,
      "count" : 1312,
      "type" : "VEC2"
    },
    {
      "bufferView" : 36,
      "componentType" : 5123,
      "count" : 1200,
      "type" : "SCALAR"
    },
    {
      "bufferView" : 37,
      "min" : [ -5.30951, 0.0524306, -43.4304 ],
      "max" : [ 5.30951, 6.40609, -31.0161 ],
      "componentType" : 5126,
      "count" : 558,
      "type" : "VEC3"
    },
    {
      "bufferView" : 38,
      "componentType" : 5126,
      "count" : 558,
      "type" : "VEC3"
    },
    {
      "bufferView" : 39,
      "componentType" : 5126,
      "count" : 558,
      "type" : "VEC4"
    },
    {
      "bufferView" : 40,
      "normalized" : true,
      "componentType" : 5121,
      "count" : 558,
      "type" : "VEC4"
    },
    {
      "bufferView" : 41,
      "componentType" : 5126,
      "count" : 558,
      "type" : "VEC2"
    },
    {
      "bufferView" : 42,
      "componentType" : 5126,
      "count" : 558,
      "type" : "VEC2"
    },
    {
      "bufferView" : 43,
      "componentType" : 5126,
      "count" : 558,
      "type" : "VEC2"
    },
    {
      "bufferView" : 44,
      "componentType" : 5126,
      "count" : 558,
      "type" : "VEC2"
    },
    {
      "bufferView" : 45,
      "componentType" : 5123,
      "count" : 1737,
      "type" : "SCALAR"
    },
    {
      "bufferView" : 46,
      "min" : [ -4.18063, -0.462359, -43.9182 ],
      "max" : [ 4.2702, 5.94945, -31.2718 ],
      "componentType" : 5126,
      "count" : 608,
      "type" : "VEC3"
    },
    {
      "bufferView" : 47,
      "componentType" : 5126,
      "count" : 608,
      "type" : "VEC3"
    },
    {
      "bufferView" : 48,
      "componentType" : 5126,
      "count" : 608,
      "type" : "VEC4"
    },
    {
      "bufferView" : 49,
      "normalized" : true,
      "componentType" : 5121,
      "count" : 608,
      "type" : "VEC4"
    },
    {
      "bufferView" : 50,
      "componentType" : 5126,
      "count" : 608,
      "type" : "VEC2"
    },
    {
      "bufferView" : 51,
      "componentType" : 5126,
      "count" : 608,
      "type" : "VEC2"
    },
    {
      "bufferView" : 52,
      "componentType" : 5126,
      "count" : 608,
      "type" : "VEC2"
    },
    {
      "bufferView" : 53,
      "componentType" : 5126,
      "count" : 608,
      "type" : "VEC2"
    },
    {
      "bufferView" : 54,
      "componentType" : 5123,
      "count" : 60,
      "type" : "SCALAR"
    },
    {
      "bufferView" : 55,
      "min" : [ -11.3203, -0.0678625, -38.602 ],
      "max" : [ 11.3203, -0.0665222, -30.9377 ],
      "componentType" : 5126,
      "count" : 38,
      "type" : "VEC3"
    },
    {
      "bufferView" : 56,
      "componentType" : 5126,
      "count" : 38,
      "type" : "VEC3"
    },
    {
      "bufferView" : 57,
      "componentType" : 5126,
      "count" : 38,
      "type" : "VEC4"
    },
    {
      "bufferView" : 58,
      "normalized" : true,
      "componentType" : 5121,
      "count" : 38,
      "type" : "VEC4"
    },
    {
      "bufferView" : 59,
      "componentType" : 5126,
      "count" : 38,
      "type" : "VEC2"
    },
    {
      "bufferView" : 60,
      "componentType" : 5126,
      "count" : 38,
      "type" : "VEC2"
    },
    {
      "bufferView" : 61,
      "componentType" : 5126,
      "count" : 38,
      "type" : "VEC2"
    },
    {
      "bufferView" : 62,
      "componentType" : 5126,
      "count" : 38,
      "type" : "VEC2"
    }
  ]
}
