{
  "asset" : {
    "generator" : "UE Viewer (umodel) build 1544 based",
    "version" : "2.0"
  },
  "scene" : 0,
  "scenes" : [
    {
      "nodes" : [ 0 ]
    }
  ],
  "nodes" : [
    {
      "name" : "SM_ENV_LKNVLD_Ground_StairCase_01",
      "mesh" : 0
    }
  ],
  "materials" : [
    {
      "name" : "MI_T_ENV_LKNVLD_StoneTrim",
      "pbrMetallicRoughness" : {
        "baseColorFactor" : [ 0.3, 0.3, 0.3, 1.0 ],
        "metallicFactor" : 0.1,
        "roughnessFactor" : 0.5
      }
    },
    {
      "name" : "MI_ENV_LKNVLD_RoughTiles",
      "pbrMetallicRoughness" : {
        "baseColorFactor" : [ 0.9, 0.3, 0.3, 1.0 ],
        "metallicFactor" : 0.1,
        "roughnessFactor" : 0.5
      }
    },
    {
      "name" : "MI_ENV_LKNVLD_WoodPlain_Red",
      "pbrMetallicRoughness" : {
        "baseColorFactor" : [ 0.3, 0.9, 0.3, 1.0 ],
        "metallicFactor" : 0.1,
        "roughnessFactor" : 0.5
      }
    },
    {
      "name" : "MI_ENV_LKNVLD_Signboard_A",
      "pbrMetallicRoughness" : {
        "baseColorFactor" : [ 0.3, 0.3, 0.9, 1.0 ],
        "metallicFactor" : 0.1,
        "roughnessFactor" : 0.5
      }
    },
    {
      "name" : "MI_ENV_LKNVLD_WoodWallSet",
      "pbrMetallicRoughness" : {
        "baseColorFactor" : [ 0.9, 0.9, 0.9, 1.0 ],
        "metallicFactor" : 0.1,
        "roughnessFactor" : 0.5
      }
    },
    {
      "name" : "MI_T_ENV_LKNVLD_StoneStairs",
      "pbrMetallicRoughness" : {
        "baseColorFactor" : [ 0.9, 0.9, 0.3, 1.0 ],
        "metallicFactor" : 0.1,
        "roughnessFactor" : 0.5
      }
    },
    {
      "name" : "MI_ENV_LKNVLD_GroundSoil_A",
      "pbrMetallicRoughness" : {
        "baseColorFactor" : [ 0.9, 0.3, 0.9, 1.0 ],
        "metallicFactor" : 0.1,
        "roughnessFactor" : 0.5
      }
    }
  ],
  "meshes" : [
    {
      "primitives" : [
        {
          "attributes" : {
            "POSITION" : 1,
            "NORMAL" : 2,
            "TANGENT" : 3,
            "COLOR_0" : 4,
            "TEXCOORD_0" : 5,
            "TEXCOORD_1" : 6,
            "TEXCOORD_2" : 7,
            "TEXCOORD_3" : 8
          },
          "indices" : 0,
          "material" : 0
        },
        {
          "attributes" : {
            "POSITION" : 10,
            "NORMAL" : 11,
            "TANGENT" : 12,
            "COLOR_0" : 13,
            "TEXCOORD_0" : 14,
            "TEXCOORD_1" : 15,
            "TEXCOORD_2" : 16,
            "TEXCOORD_3" : 17
          },
          "indices" : 9,
          "material" : 1
        },
        {
          "attributes" : {
            "POSITION" : 19,
            "NORMAL" : 20,
            "TANGENT" : 21,
            "COLOR_0" : 22,
            "TEXCOORD_0" : 23,
            "TEXCOORD_1" : 24,
            "TEXCOORD_2" : 25,
            "TEXCOORD_3" : 26
          },
          "indices" : 18,
          "material" : 2
        },
        {
          "attributes" : {
            "POSITION" : 28,
            "NORMAL" : 29,
            "TANGENT" : 30,
            "COLOR_0" : 31,
            "TEXCOORD_0" : 32,
            "TEXCOORD_1" : 33,
            "TEXCOORD_2" : 34,
            "TEXCOORD_3" : 35
          },
          "indices" : 27,
          "material" : 3
        },
        {
          "attributes" : {
            "POSITION" : 37,
            "NORMAL" : 38,
            "TANGENT" : 39,
            "COLOR_0" : 40,
            "TEXCOORD_0" : 41,
            "TEXCOORD_1" : 42,
            "TEXCOORD_2" : 43,
            "TEXCOORD_3" : 44
          },
          "indices" : 36,
          "material" : 4
        },
        {
          "attributes" : {
            "POSITION" : 46,
            "NORMAL" : 47,
            "TANGENT" : 48,
            "COLOR_0" : 49,
            "TEXCOORD_0" : 50,
            "TEXCOORD_1" : 51,
            "TEXCOORD_2" : 52,
            "TEXCOORD_3" : 53
          },
          "indices" : 45,
          "material" : 5
        },
        {
          "attributes" : {
            "POSITION" : 55,
            "NORMAL" : 56,
            "TANGENT" : 57,
            "COLOR_0" : 58,
            "TEXCOORD_0" : 59,
            "TEXCOORD_1" : 60,
            "TEXCOORD_2" : 61,
            "TEXCOORD_3" : 62
          },
          "indices" : 54,
          "material" : 6
        }
      ],
      "name" : "SM_ENV_LKNVLD_Ground_StairCase_01"
    }
  ],
  "buffers" : [
    {
      "uri" : "SM_ENV_LKNVLD_Ground_StairCase_01.bin",
      "byteLength" : 896524
    }
  ],
  "bufferViews" : [
    {
      "buffer" : 0,
      "byteOffset" : 0,
      "byteLength" : 5072
    },
    {
      "buffer" : 0,
      "byteOffset" : 5072,
      "byteLength" : 7620
    },
    {
      "buffer" : 0,
      "byteOffset" : 12692,
      "byteLength" : 7620
    },
    {
      "buffer" : 0,
      "byteOffset" : 20312,
      "byteLength" : 10160
    },
    {
      "buffer" : 0,
      "byteOffset" : 30472,
      "byteLength" : 2540
    },
    {
      "buffer" : 0,
      "byteOffset" : 33012,
      "byteLength" : 5080
    },
    {
      "buffer" : 0,
      "byteOffset" : 38092,
      "byteLength" : 5080
    },
    {
      "buffer" : 0,
      "byteOffset" : 43172,
      "byteLength" : 5080
    },
    {
      "buffer" : 0,
      "byteOffset" : 48252,
      "byteLength" : 5080
    },
    {
      "buffer" : 0,
      "byteOffset" : 53332,
      "byteLength" : 2712
    },
    {
      "buffer" : 0,
      "byteOffset" : 56044,
      "byteLength" : 3936
    },
    {
      "buffer" : 0,
      "byteOffset" : 59980,
      "byteLength" : 3936
    },
    {
      "buffer" : 0,
      "byteOffset" : 63916,
      "byteLength" : 5248
    },
    {
      "buffer" : 0,
      "byteOffset" : 69164,
      "byteLength" : 1312
    },
    {
      "buffer" : 0,
      "byteOffset" : 70476,
      "byteLength" : 2624
    },
    {
      "buffer" : 0,
      "byteOffset" : 73100,
      "byteLength" : 2624
    },
    {
      "buffer" : 0,
      "byteOffset" : 75724,
      "byteLength" : 2624
    },
    {
      "buffer" : 0,
      "byteOffset" : 78348,
      "byteLength" : 2624
    },
    {
      "buffer" : 0,
      "byteOffset" : 80972,
      "byteLength" : 12000
    },
    {
      "buffer" : 0,
      "byteOffset" : 92972,
      "byteLength" : 26184
    },
    {
      "buffer" : 0,
      "byteOffset" : 119156,
      "byteLength" : 26184
    },
    {
      "buffer" : 0,
      "byteOffset" : 145340,
      "byteLength" : 34912
    },
    {
      "buffer" : 0,
      "byteOffset" : 180252,
      "byteLength" : 8728
    },
    {
      "buffer" : 0,
      "byteOffset" : 188980,
      "byteLength" : 17456
    },
    {
      "buffer" : 0,
      "byteOffset" : 206436,
      "byteLength" : 17456
    },
    {
      "buffer" : 0,
      "byteOffset" : 223892,
      "byteLength" : 17456
    },
    {
      "buffer" : 0,
      "byteOffset" : 241348,
      "byteLength" : 17456
    },
    {
      "buffer" : 0,
      "byteOffset" : 258804,
      "byteLength" : 45840
    },
    {
      "buffer" : 0,
      "byteOffset" : 304644,
      "byteLength" : 69744
    },
    {
      "buffer" : 0,
      "byteOffset" : 374388,
      "byteLength" : 69744
    },
    {
      "buffer" : 0,
      "byteOffset" : 444132,
      "byteLength" : 92992
    },
    {
      "buffer" : 0,
      "byteOffset" : 537124,
      "byteLength" : 23248
    },
    {
      "buffer" : 0,
      "byteOffset" : 560372,
      "byteLength" : 46496
    },
    {
      "buffer" : 0,
      "byteOffset" : 606868,
      "byteLength" : 46496
    },
    {
      "buffer" : 0,
      "byteOffset" : 653364,
      "byteLength" : 46496
    },
    {
      "buffer" : 0,
      "byteOffset" : 699860,
      "byteLength" : 46496
    },
    {
      "buffer" : 0,
      "byteOffset" : 746356,
      "byteLength" : 8448
    },
    {
      "buffer" : 0,
      "byteOffset" : 754804,
      "byteLength" : 13464
    },
    {
      "buffer" : 0,
      "byteOffset" : 768268,
      "byteLength" : 13464
    },
    {
      "buffer" : 0,
      "byteOffset" : 781732,
      "byteLength" : 17952
    },
    {
      "buffer" : 0,
      "byteOffset" : 799684,
      "byteLength" : 4488
    },
    {
      "buffer" : 0,
      "byteOffset" : 804172,
      "byteLength" : 8976
    },
    {
      "buffer" : 0,
      "byteOffset" : 813148,
      "byteLength" : 8976
    },
    {
      "buffer" : 0,
      "byteOffset" : 822124,
      "byteLength" : 8976
    },
    {
      "buffer" : 0,
      "byteOffset" : 831100,
      "byteLength" : 8976
    },
    {
      "buffer" : 0,
      "byteOffset" : 840076,
      "byteLength" : 3816
    },
    {
      "buffer" : 0,
      "byteOffset" : 843892,
      "byteLength" : 7704
    },
    {
      "buffer" : 0,
      "byteOffset" : 851596,
      "byteLength" : 7704
    },
    {
      "buffer" : 0,
      "byteOffset" : 859300,
      "byteLength" : 10272
    },
    {
      "buffer" : 0,
      "byteOffset" : 869572,
      "byteLength" : 2568
    },
    {
      "buffer" : 0,
      "byteOffset" : 872140,
      "byteLength" : 5136
    },
    {
      "buffer" : 0,
      "byteOffset" : 877276,
      "byteLength" : 5136
    },
    {
      "buffer" : 0,
      "byteOffset" : 882412,
      "byteLength" : 5136
    },
    {
      "buffer" : 0,
      "byteOffset" : 887548,
      "byteLength" : 5136
    },
    {
      "buffer" : 0,
      "byteOffset" : 892684,
      "byteLength" : 192
    },
    {
      "buffer" : 0,
      "byteOffset" : 892876,
      "byteLength" : 576
    },
    {
      "buffer" : 0,
      "byteOffset" : 893452,
      "byteLength" : 576
    },
    {
      "buffer" : 0,
      "byteOffset" : 894028,
      "byteLength" : 768
    },
    {
      "buffer" : 0,
      "byteOffset" : 894796,
      "byteLength" : 192
    },
    {
      "buffer" : 0,
      "byteOffset" : 894988,
      "byteLength" : 384
    },
    {
      "buffer" : 0,
      "byteOffset" : 895372,
      "byteLength" : 384
    },
    {
      "buffer" : 0,
      "byteOffset" : 895756,
      "byteLength" : 384
    },
    {
      "buffer" : 0,
      "byteOffset" : 896140,
      "byteLength" : 384
    }
  ],
  "accessors" : [
    {
      "bufferView" : 0,
      "componentType" : 5123,
      "count" : 2535,
      "type" : "SCALAR"
    },
    {
      "bufferView" : 1,
      "min" : [ -10.3984, -0.793995, -44.2951 ],
      "max" : [ 5.61587, 6.34201, -29.9323 ],
      "componentType" : 5126,
      "count" : 635,
      "type" : "VEC3"
    },
    {
      "bufferView" : 2,
      "componentType" : 5126,
      "count" : 635,
      "type" : "VEC3"
    },
    {
      "bufferView" : 3,
      "componentType" : 5126,
      "count" : 635,
      "type" : "VEC4"
    },
    {
      "bufferView" : 4,
      "normalized" : true,
      "componentType" : 5121,
      "count" : 635,
      "type" : "VEC4"
    },
    {
      "bufferView" : 5,
      "componentType" : 5126,
      "count" : 635,
      "type" : "VEC2"
    },
    {
      "bufferView" : 6,
      "componentType" : 5126,
      "count" : 635,
      "type" : "VEC2"
    },
    {
      "bufferView" : 7,
      "componentType" : 5126,
      "count" : 635,
      "type" : "VEC2"
    },
    {
      "bufferView" : 8,
      "componentType" : 5126,
      "count" : 635,
      "type" : "VEC2"
    },
    {
      "bufferView" : 9,
      "componentType" : 5123,
      "count" : 1356,
      "type" : "SCALAR"
    },
    {
      "bufferView" : 10,
      "min" : [ -11.3203, -0.551215, -44.2726 ],
      "max" : [ 11.3203, 6.1843, -30.6373 ],
      "componentType" : 5126,
      "count" : 328,
      "type" : "VEC3"
    },
    {
      "bufferView" : 11,
      "componentType" : 5126,
      "count" : 328,
      "type" : "VEC3"
    },
    {
      "bufferView" : 12,
      "componentType" : 5126,
      "count" : 328,
      "type" : "VEC4"
    },
    {
      "bufferView" : 13,
      "normalized" : true,
      "componentType" : 5121,
      "count" : 328,
      "type" : "VEC4"
    },
    {
      "bufferView" : 14,
      "componentType" : 5126,
      "count" : 328,
      "type" : "VEC2"
    },
    {
      "bufferView" : 15,
      "componentType" : 5126,
      "count" : 328,
      "type" : "VEC2"
    },
    {
      "bufferView" : 16,
      "componentType" : 5126,
      "count" : 328,
      "type" : "VEC2"
    },
    {
      "bufferView" : 17,
      "componentType" : 5126,
      "count" : 328,
      "type" : "VEC2"
    },
    {
      "bufferView" : 18,
      "componentType" : 5123,
      "count" : 6000,
      "type" : "SCALAR"
    },
    {
      "bufferView" : 19,
      "min" : [ -5.27015, 0.149261, -43.391 ],
      "max" : [ 5.27015, 7.46601, -31.0554 ],
      "componentType" : 5126,
      "count" : 2182,
      "type" : "VEC3"
    },
    {
      "bufferView" : 20,
      "componentType" : 5126,
      "count" : 2182,
      "type" : "VEC3"
    },
    {
      "bufferView" : 21,
      "componentType" : 5126,
      "count" : 2182,
      "type" : "VEC4"
    },
    {
      "bufferView" : 22,
      "normalized" : true,
      "componentType" : 5121,
      "count" : 2182,
      "type" : "VEC4"
    },
    {
      "bufferView" : 23,
      "componentType" : 5126,
      "count" : 2182,
      "type" : "VEC2"
    },
    {
      "bufferView" : 24,
      "componentType" : 5126,
      "count" : 2182,
      "type" : "VEC2"
    },
    {
      "bufferView" : 25,
      "componentType" : 5126,
      "count" : 2182,
      "type" : "VEC2"
    },
    {
      "bufferView" : 26,
      "componentType" : 5126,
      "count" : 2182,
      "type" : "VEC2"
    },
    {
      "bufferView" : 27,
      "componentType" : 5123,
      "count" : 22920,
      "type" : "SCALAR"
    },
    {
      "bufferView" : 28,
      "min" : [ -5.28039, 0.841235, -43.3778 ],
      "max" : [ 5.28039, 7.68219, -31.066 ],
      "componentType" : 5126,
      "count" : 5812,
      "type" : "VEC3"
    },
    {
      "bufferView" : 29,
      "componentType" : 5126,
      "count" : 5812,
      "type" : "VEC3"
    },
    {
      "bufferView" : 30,
      "componentType" : 5126,
      "count" : 5812,
      "type" : "VEC4"
    },
    {
      "bufferView" : 31,
      "normalized" : true,
      "componentType" : 5121,
      "count" : 5812,
      "type" : "VEC4"
    },
    {
      "bufferView" : 32,
      "componentType" : 5126,
      "count" : 5812,
      "type" : "VEC2"
    },
    {
      "bufferView" : 33,
      "componentType" : 5126,
      "count" : 5812,
      "type" : "VEC2"
    },
    {
      "bufferView" : 34,
      "componentType" : 5126,
      "count" : 5812,
      "type" : "VEC2"
    },
    {
      "bufferView" : 35,
      "componentType" : 5126,
      "count" : 5812,
      "type" : "VEC2"
    },
    {
      "bufferView" : 36,
      "componentType" : 5123,
      "count" : 4224,
      "type" : "SCALAR"
    },
    {
      "bufferView" : 37,
      "min" : [ -5.30951, 0.0524306, -43.4304 ],
      "max" : [ 5.30951, 6.40609, -31.0161 ],
      "componentType" : 5126,
      "count" : 1122,
      "type" : "VEC3"
    },
    {
      "bufferView" : 38,
      "componentType" : 5126,
      "count" : 1122,
      "type" : "VEC3"
    },
    {
      "bufferView" : 39,
      "componentType" : 5126,
      "count" : 1122,
      "type" : "VEC4"
    },
    {
      "bufferView" : 40,
      "normalized" : true,
      "componentType" : 5121,
      "count" : 1122,
      "type" : "VEC4"
    },
    {
      "bufferView" : 41,
      "componentType" : 5126,
      "count" : 1122,
      "type" : "VEC2"
    },
    {
      "bufferView" : 42,
      "componentType" : 5126,
      "count" : 1122,
      "type" : "VEC2"
    },
    {
      "bufferView" : 43,
      "componentType" : 5126,
      "count" : 1122,
      "type" : "VEC2"
    },
    {
      "bufferView" : 44,
      "componentType" : 5126,
      "count" : 1122,
      "type" : "VEC2"
    },
    {
      "bufferView" : 45,
      "componentType" : 5123,
      "count" : 1908,
      "type" : "SCALAR"
    },
    {
      "bufferView" : 46,
      "min" : [ -4.18063, -0.462359, -43.9182 ],
      "max" : [ 4.2702, 5.94945, -31.2718 ],
      "componentType" : 5126,
      "count" : 642,
      "type" : "VEC3"
    },
    {
      "bufferView" : 47,
      "componentType" : 5126,
      "count" : 642,
      "type" : "VEC3"
    },
    {
      "bufferView" : 48,
      "componentType" : 5126,
      "count" : 642,
      "type" : "VEC4"
    },
    {
      "bufferView" : 49,
      "normalized" : true,
      "componentType" : 5121,
      "count" : 642,
      "type" : "VEC4"
    },
    {
      "bufferView" : 50,
      "componentType" : 5126,
      "count" : 642,
      "type" : "VEC2"
    },
    {
      "bufferView" : 51,
      "componentType" : 5126,
      "count" : 642,
      "type" : "VEC2"
    },
    {
      "bufferView" : 52,
      "componentType" : 5126,
      "count" : 642,
      "type" : "VEC2"
    },
    {
      "bufferView" : 53,
      "componentType" : 5126,
      "count" : 642,
      "type" : "VEC2"
    },
    {
      "bufferView" : 54,
      "componentType" : 5123,
      "count" : 96,
      "type" : "SCALAR"
    },
    {
      "bufferView" : 55,
      "min" : [ -11.3203, -0.06935, -38.602 ],
      "max" : [ 11.3203, -0.0665222, -30.9377 ],
      "componentType" : 5126,
      "count" : 48,
      "type" : "VEC3"
    },
    {
      "bufferView" : 56,
      "componentType" : 5126,
      "count" : 48,
      "type" : "VEC3"
    },
    {
      "bufferView" : 57,
      "componentType" : 5126,
      "count" : 48,
      "type" : "VEC4"
    },
    {
      "bufferView" : 58,
      "normalized" : true,
      "componentType" : 5121,
      "count" : 48,
      "type" : "VEC4"
    },
    {
      "bufferView" : 59,
      "componentType" : 5126,
      "count" : 48,
      "type" : "VEC2"
    },
    {
      "bufferView" : 60,
      "componentType" : 5126,
      "count" : 48,
      "type" : "VEC2"
    },
    {
      "bufferView" : 61,
      "componentType" : 5126,
      "count" : 48,
      "type" : "VEC2"
    },
    {
      "bufferView" : 62,
      "componentType" : 5126,
      "count" : 48,
      "type" : "VEC2"
    }
  ]
}
