{
  "asset" : {
    "generator" : "UE Viewer (umodel) build 1544 based",
    "version" : "2.0"
  },
  "scene" : 0,
  "scenes" : [
    {
      "nodes" : [ 0 ]
    }
  ],
  "nodes" : [
    {
      "name" : "SM_ENV_LKNVLD_Ground_Hill_Left_HillSide_01",
      "mesh" : 0
    }
  ],
  "materials" : [
    {
      "name" : "MI_ENV_LKNVLD_GroundSoil_A",
      "pbrMetallicRoughness" : {
        "baseColorFactor" : [ 0.3, 0.3, 0.3, 1.0 ],
        "metallicFactor" : 0.1,
        "roughnessFactor" : 0.5
      }
    }
  ],
  "meshes" : [
    {
      "primitives" : [
        {
          "attributes" : {
            "POSITION" : 1,
            "NORMAL" : 2,
            "TANGENT" : 3,
            "TEXCOORD_0" : 4,
            "TEXCOORD_1" : 5,
            "TEXCOORD_2" : 6,
            "TEXCOORD_3" : 7
          },
          "indices" : 0,
          "material" : 0
        }
      ],
      "name" : "SM_ENV_LKNVLD_Ground_Hill_Left_HillSide_01"
    }
  ],
  "buffers" : [
    {
      "uri" : "SM_ENV_LKNVLD_Ground_Hill_Left_HillSide_01.bin",
      "byteLength" : 11324
    }
  ],
  "bufferViews" : [
    {
      "buffer" : 0,
      "byteOffset" : 0,
      "byteLength" : 1100
    },
    {
      "buffer" : 0,
      "byteOffset" : 1100,
      "byteLength" : 1704
    },
    {
      "buffer" : 0,
      "byteOffset" : 2804,
      "byteLength" : 1704
    },
    {
      "buffer" : 0,
      "byteOffset" : 4508,
      "byteLength" : 2272
    },
    {
      "buffer" : 0,
      "byteOffset" : 6780,
      "byteLength" : 1136
    },
    {
      "buffer" : 0,
      "byteOffset" : 7916,
      "byteLength" : 1136
    },
    {
      "buffer" : 0,
      "byteOffset" : 9052,
      "byteLength" : 1136
    },
    {
      "buffer" : 0,
      "byteOffset" : 10188,
      "byteLength" : 1136
    }
  ],
  "accessors" : [
    {
      "bufferView" : 0,
      "componentType" : 5123,
      "count" : 549,
      "type" : "SCALAR"
    },
    {
      "bufferView" : 1,
      "min" : [ -59.9, 0.330097, -82.9711 ],
      "max" : [ -5.48273, 5.64832, -35.3274 ],
      "componentType" : 5126,
      "count" : 142,
      "type" : "VEC3"
    },
    {
      "bufferView" : 2,
      "componentType" : 5126,
      "count" : 142,
      "type" : "VEC3"
    },
    {
      "bufferView" : 3,
      "componentType" : 5126,
      "count" : 142,
      "type" : "VEC4"
    },
    {
      "bufferView" : 4,
      "componentType" : 5126,
      "count" : 142,
      "type" : "VEC2"
    },
    {
      "bufferView" : 5,
      "componentType" : 5126,
      "count" : 142,
      "type" : "VEC2"
    },
    {
      "bufferView" : 6,
      "componentType" : 5126,
      "count" : 142,
      "type" : "VEC2"
    },
    {
      "bufferView" : 7,
      "componentType" : 5126,
      "count" : 142,
      "type" : "VEC2"
    }
  ]
}
