{
  "asset" : {
    "generator" : "UE Viewer (umodel) build 1544 based",
    "version" : "2.0"
  },
  "scene" : 0,
  "scenes" : [
    {
      "nodes" : [ 0 ]
    }
  ],
  "nodes" : [
    {
      "name" : "SM_ENV_LKNVLD_Ground_Hill_Left_HillSideTrim_02_Lod2",
      "mesh" : 0
    }
  ],
  "materials" : [
    {
      "name" : "MI_ENV_LKNVLD_RoughTiles_LOD",
      "pbrMetallicRoughness" : {
        "baseColorFactor" : [ 0.3, 0.3, 0.3, 1.0 ],
        "metallicFactor" : 0.1,
        "roughnessFactor" : 0.5
      }
    }
  ],
  "meshes" : [
    {
      "primitives" : [
        {
          "attributes" : {
            "POSITION" : 1,
            "NORMAL" : 2,
            "TANGENT" : 3,
            "TEXCOORD_0" : 4,
            "TEXCOORD_1" : 5,
            "TEXCOORD_2" : 6,
            "TEXCOORD_3" : 7
          },
          "indices" : 0,
          "material" : 0
        }
      ],
      "name" : "SM_ENV_LKNVLD_Ground_Hill_Left_HillSideTrim_02_Lod2"
    }
  ],
  "buffers" : [
    {
      "uri" : "SM_ENV_LKNVLD_Ground_Hill_Left_HillSideTrim_02_Lod2.bin",
      "byteLength" : 53132
    }
  ],
  "bufferViews" : [
    {
      "buffer" : 0,
      "byteOffset" : 0,
      "byteLength" : 3668
    },
    {
      "buffer" : 0,
      "byteOffset" : 3668,
      "byteLength" : 8244
    },
    {
      "buffer" : 0,
      "byteOffset" : 11912,
      "byteLength" : 8244
    },
    {
      "buffer" : 0,
      "byteOffset" : 20156,
      "byteLength" : 10992
    },
    {
      "buffer" : 0,
      "byteOffset" : 31148,
      "byteLength" : 5496
    },
    {
      "buffer" : 0,
      "byteOffset" : 36644,
      "byteLength" : 5496
    },
    {
      "buffer" : 0,
      "byteOffset" : 42140,
      "byteLength" : 5496
    },
    {
      "buffer" : 0,
      "byteOffset" : 47636,
      "byteLength" : 5496
    }
  ],
  "accessors" : [
    {
      "bufferView" : 0,
      "componentType" : 5123,
      "count" : 1833,
      "type" : "SCALAR"
    },
    {
      "bufferView" : 1,
      "min" : [ -31.2019, 5.86213, -172.059 ],
      "max" : [ -4.08746, 6.72177, -53.6466 ],
      "componentType" : 5126,
      "count" : 687,
      "type" : "VEC3"
    },
    {
      "bufferView" : 2,
      "componentType" : 5126,
      "count" : 687,
      "type" : "VEC3"
    },
    {
      "bufferView" : 3,
      "componentType" : 5126,
      "count" : 687,
      "type" : "VEC4"
    },
    {
      "bufferView" : 4,
      "componentType" : 5126,
      "count" : 687,
      "type" : "VEC2"
    },
    {
      "bufferView" : 5,
      "componentType" : 5126,
      "count" : 687,
      "type" : "VEC2"
    },
    {
      "bufferView" : 6,
      "componentType" : 5126,
      "count" : 687,
      "type" : "VEC2"
    },
    {
      "bufferView" : 7,
      "componentType" : 5126,
      "count" : 687,
      "type" : "VEC2"
    }
  ]
}
