{
  "asset" : {
    "generator" : "UE Viewer (umodel) build 1544 based",
    "version" : "2.0"
  },
  "scene" : 0,
  "scenes" : [
    {
      "nodes" : [ 0 ]
    }
  ],
  "nodes" : [
    {
      "name" : "SM_ENV_LKNVLD_Ground_Hill_Right_HillSideTrim_02_Lod1",
      "mesh" : 0
    }
  ],
  "materials" : [
    {
      "name" : "MI_ENV_LKNVLD_RoughTiles",
      "pbrMetallicRoughness" : {
        "baseColorFactor" : [ 0.3, 0.3, 0.3, 1.0 ],
        "metallicFactor" : 0.1,
        "roughnessFactor" : 0.5
      }
    }
  ],
  "meshes" : [
    {
      "primitives" : [
        {
          "attributes" : {
            "POSITION" : 1,
            "NORMAL" : 2,
            "TANGENT" : 3,
            "TEXCOORD_0" : 4,
            "TEXCOORD_1" : 5,
            "TEXCOORD_2" : 6,
            "TEXCOORD_3" : 7
          },
          "indices" : 0,
          "material" : 0
        }
      ],
      "name" : "SM_ENV_LKNVLD_Ground_Hill_Right_HillSideTrim_02_Lod1"
    }
  ],
  "buffers" : [
    {
      "uri" : "SM_ENV_LKNVLD_Ground_Hill_Right_HillSideTrim_02_Lod1.bin",
      "byteLength" : 60968
    }
  ],
  "bufferViews" : [
    {
      "buffer" : 0,
      "byteOffset" : 0,
      "byteLength" : 5240
    },
    {
      "buffer" : 0,
      "byteOffset" : 5240,
      "byteLength" : 9288
    },
    {
      "buffer" : 0,
      "byteOffset" : 14528,
      "byteLength" : 9288
    },
    {
      "buffer" : 0,
      "byteOffset" : 23816,
      "byteLength" : 12384
    },
    {
      "buffer" : 0,
      "byteOffset" : 36200,
      "byteLength" : 6192
    },
    {
      "buffer" : 0,
      "byteOffset" : 42392,
      "byteLength" : 6192
    },
    {
      "buffer" : 0,
      "byteOffset" : 48584,
      "byteLength" : 6192
    },
    {
      "buffer" : 0,
      "byteOffset" : 54776,
      "byteLength" : 6192
    }
  ],
  "accessors" : [
    {
      "bufferView" : 0,
      "componentType" : 5123,
      "count" : 2619,
      "type" : "SCALAR"
    },
    {
      "bufferView" : 1,
      "min" : [ 4.08746, 5.86213, -172.059 ],
      "max" : [ 31.2019, 6.72904, -53.6466 ],
      "componentType" : 5126,
      "count" : 774,
      "type" : "VEC3"
    },
    {
      "bufferView" : 2,
      "componentType" : 5126,
      "count" : 774,
      "type" : "VEC3"
    },
    {
      "bufferView" : 3,
      "componentType" : 5126,
      "count" : 774,
      "type" : "VEC4"
    },
    {
      "bufferView" : 4,
      "componentType" : 5126,
      "count" : 774,
      "type" : "VEC2"
    },
    {
      "bufferView" : 5,
      "componentType" : 5126,
      "count" : 774,
      "type" : "VEC2"
    },
    {
      "bufferView" : 6,
      "componentType" : 5126,
      "count" : 774,
      "type" : "VEC2"
    },
    {
      "bufferView" : 7,
      "componentType" : 5126,
      "count" : 774,
      "type" : "VEC2"
    }
  ]
}
