{
  "asset" : {
    "generator" : "UE Viewer (umodel) build 1544 based",
    "version" : "2.0"
  },
  "scene" : 0,
  "scenes" : [
    {
      "nodes" : [ 0 ]
    }
  ],
  "nodes" : [
    {
      "name" : "SM_ENV_LKNVLD_Ground_Hill_Right_HillSideTrim_02_Lod3",
      "mesh" : 0
    }
  ],
  "materials" : [
    {
      "name" : "MI_ENV_LKNVLD_RoughTiles_LOD",
      "pbrMetallicRoughness" : {
        "baseColorFactor" : [ 0.3, 0.3, 0.3, 1.0 ],
        "metallicFactor" : 0.1,
        "roughnessFactor" : 0.5
      }
    }
  ],
  "meshes" : [
    {
      "primitives" : [
        {
          "attributes" : {
            "POSITION" : 1,
            "NORMAL" : 2,
            "TANGENT" : 3,
            "TEXCOORD_0" : 4,
            "TEXCOORD_1" : 5,
            "TEXCOORD_2" : 6,
            "TEXCOORD_3" : 7
          },
          "indices" : 0,
          "material" : 0
        }
      ],
      "name" : "SM_ENV_LKNVLD_Ground_Hill_Right_HillSideTrim_02_Lod3"
    }
  ],
  "buffers" : [
    {
      "uri" : "SM_ENV_LKNVLD_Ground_Hill_Right_HillSideTrim_02_Lod3.bin",
      "byteLength" : 47852
    }
  ],
  "bufferViews" : [
    {
      "buffer" : 0,
      "byteOffset" : 0,
      "byteLength" : 2564
    },
    {
      "buffer" : 0,
      "byteOffset" : 2564,
      "byteLength" : 7548
    },
    {
      "buffer" : 0,
      "byteOffset" : 10112,
      "byteLength" : 7548
    },
    {
      "buffer" : 0,
      "byteOffset" : 17660,
      "byteLength" : 10064
    },
    {
      "buffer" : 0,
      "byteOffset" : 27724,
      "byteLength" : 5032
    },
    {
      "buffer" : 0,
      "byteOffset" : 32756,
      "byteLength" : 5032
    },
    {
      "buffer" : 0,
      "byteOffset" : 37788,
      "byteLength" : 5032
    },
    {
      "buffer" : 0,
      "byteOffset" : 42820,
      "byteLength" : 5032
    }
  ],
  "accessors" : [
    {
      "bufferView" : 0,
      "componentType" : 5123,
      "count" : 1281,
      "type" : "SCALAR"
    },
    {
      "bufferView" : 1,
      "min" : [ 4.08746, 5.86213, -172.059 ],
      "max" : [ 31.2019, 6.72177, -53.6466 ],
      "componentType" : 5126,
      "count" : 629,
      "type" : "VEC3"
    },
    {
      "bufferView" : 2,
      "componentType" : 5126,
      "count" : 629,
      "type" : "VEC3"
    },
    {
      "bufferView" : 3,
      "componentType" : 5126,
      "count" : 629,
      "type" : "VEC4"
    },
    {
      "bufferView" : 4,
      "componentType" : 5126,
      "count" : 629,
      "type" : "VEC2"
    },
    {
      "bufferView" : 5,
      "componentType" : 5126,
      "count" : 629,
      "type" : "VEC2"
    },
    {
      "bufferView" : 6,
      "componentType" : 5126,
      "count" : 629,
      "type" : "VEC2"
    },
    {
      "bufferView" : 7,
      "componentType" : 5126,
      "count" : 629,
      "type" : "VEC2"
    }
  ]
}
