{
  "asset" : {
    "generator" : "UE Viewer (umodel) build 1544 based",
    "version" : "2.0"
  },
  "scene" : 0,
  "scenes" : [
    {
      "nodes" : [ 0 ]
    }
  ],
  "nodes" : [
    {
      "name" : "SM_ENV_KNVLLG03_YaguraDoor_03",
      "mesh" : 0
    }
  ],
  "materials" : [
    {
      "name" : "MI_ENV_KNVLLG03_WoodPlain_Black",
      "pbrMetallicRoughness" : {
        "baseColorFactor" : [ 0.3, 0.3, 0.3, 1.0 ],
        "metallicFactor" : 0.1,
        "roughnessFactor" : 0.5
      }
    },
    {
      "name" : "MI_ENV_KNVLLG03_WoodPlain_Natural_Lighter",
      "pbrMetallicRoughness" : {
        "baseColorFactor" : [ 0.9, 0.3, 0.3, 1.0 ],
        "metallicFactor" : 0.1,
        "roughnessFactor" : 0.5
      }
    },
    {
      "name" : "MI_ENV_KNVLLG03_WoodBoard_Natural_Lighter",
      "pbrMetallicRoughness" : {
        "baseColorFactor" : [ 0.3, 0.9, 0.3, 1.0 ],
        "metallicFactor" : 0.1,
        "roughnessFactor" : 0.5
      }
    }
  ],
  "meshes" : [
    {
      "primitives" : [
        {
          "attributes" : {
            "POSITION" : 1,
            "NORMAL" : 2,
            "TANGENT" : 3,
            "TEXCOORD_0" : 4,
            "TEXCOORD_1" : 5,
            "TEXCOORD_2" : 6,
            "TEXCOORD_3" : 7
          },
          "indices" : 0,
          "material" : 0
        },
        {
          "attributes" : {
            "POSITION" : 9,
            "NORMAL" : 10,
            "TANGENT" : 11,
            "TEXCOORD_0" : 12,
            "TEXCOORD_1" : 13,
            "TEXCOORD_2" : 14,
            "TEXCOORD_3" : 15
          },
          "indices" : 8,
          "material" : 1
        },
        {
          "attributes" : {
            "POSITION" : 17,
            "NORMAL" : 18,
            "TANGENT" : 19,
            "TEXCOORD_0" : 20,
            "TEXCOORD_1" : 21,
            "TEXCOORD_2" : 22,
            "TEXCOORD_3" : 23
          },
          "indices" : 16,
          "material" : 2
        }
      ],
      "name" : "SM_ENV_KNVLLG03_YaguraDoor_03"
    }
  ],
  "buffers" : [
    {
      "uri" : "SM_ENV_KNVLLG03_YaguraDoor_03.bin",
      "byteLength" : 39000
    }
  ],
  "bufferViews" : [
    {
      "buffer" : 0,
      "byteOffset" : 0,
      "byteLength" : 1344
    },
    {
      "buffer" : 0,
      "byteOffset" : 1344,
      "byteLength" : 5376
    },
    {
      "buffer" : 0,
      "byteOffset" : 6720,
      "byteLength" : 5376
    },
    {
      "buffer" : 0,
      "byteOffset" : 12096,
      "byteLength" : 7168
    },
    {
      "buffer" : 0,
      "byteOffset" : 19264,
      "byteLength" : 3584
    },
    {
      "buffer" : 0,
      "byteOffset" : 22848,
      "byteLength" : 3584
    },
    {
      "buffer" : 0,
      "byteOffset" : 26432,
      "byteLength" : 3584
    },
    {
      "buffer" : 0,
      "byteOffset" : 30016,
      "byteLength" : 3584
    },
    {
      "buffer" : 0,
      "byteOffset" : 33600,
      "byteLength" : 72
    },
    {
      "buffer" : 0,
      "byteOffset" : 33672,
      "byteLength" : 288
    },
    {
      "buffer" : 0,
      "byteOffset" : 33960,
      "byteLength" : 288
    },
    {
      "buffer" : 0,
      "byteOffset" : 34248,
      "byteLength" : 384
    },
    {
      "buffer" : 0,
      "byteOffset" : 34632,
      "byteLength" : 192
    },
    {
      "buffer" : 0,
      "byteOffset" : 34824,
      "byteLength" : 192
    },
    {
      "buffer" : 0,
      "byteOffset" : 35016,
      "byteLength" : 192
    },
    {
      "buffer" : 0,
      "byteOffset" : 35208,
      "byteLength" : 192
    },
    {
      "buffer" : 0,
      "byteOffset" : 35400,
      "byteLength" : 144
    },
    {
      "buffer" : 0,
      "byteOffset" : 35544,
      "byteLength" : 576
    },
    {
      "buffer" : 0,
      "byteOffset" : 36120,
      "byteLength" : 576
    },
    {
      "buffer" : 0,
      "byteOffset" : 36696,
      "byteLength" : 768
    },
    {
      "buffer" : 0,
      "byteOffset" : 37464,
      "byteLength" : 384
    },
    {
      "buffer" : 0,
      "byteOffset" : 37848,
      "byteLength" : 384
    },
    {
      "buffer" : 0,
      "byteOffset" : 38232,
      "byteLength" : 384
    },
    {
      "buffer" : 0,
      "byteOffset" : 38616,
      "byteLength" : 384
    }
  ],
  "accessors" : [
    {
      "bufferView" : 0,
      "componentType" : 5123,
      "count" : 672,
      "type" : "SCALAR"
    },
    {
      "bufferView" : 1,
      "min" : [ -16.3153, -0.434377, -3.61673 ],
      "max" : [ -15.6383, 7.2121, 3.61673 ],
      "componentType" : 5126,
      "count" : 448,
      "type" : "VEC3"
    },
    {
      "bufferView" : 2,
      "componentType" : 5126,
      "count" : 448,
      "type" : "VEC3"
    },
    {
      "bufferView" : 3,
      "componentType" : 5126,
      "count" : 448,
      "type" : "VEC4"
    },
    {
      "bufferView" : 4,
      "componentType" : 5126,
      "count" : 448,
      "type" : "VEC2"
    },
    {
      "bufferView" : 5,
      "componentType" : 5126,
      "count" : 448,
      "type" : "VEC2"
    },
    {
      "bufferView" : 6,
      "componentType" : 5126,
      "count" : 448,
      "type" : "VEC2"
    },
    {
      "bufferView" : 7,
      "componentType" : 5126,
      "count" : 448,
      "type" : "VEC2"
    },
    {
      "bufferView" : 8,
      "componentType" : 5123,
      "count" : 36,
      "type" : "SCALAR"
    },
    {
      "bufferView" : 9,
      "min" : [ -15.8136, 2.35294, -3.06741 ],
      "max" : [ -15.6746, 2.6524, 3.06741 ],
      "componentType" : 5126,
      "count" : 24,
      "type" : "VEC3"
    },
    {
      "bufferView" : 10,
      "componentType" : 5126,
      "count" : 24,
      "type" : "VEC3"
    },
    {
      "bufferView" : 11,
      "componentType" : 5126,
      "count" : 24,
      "type" : "VEC4"
    },
    {
      "bufferView" : 12,
      "componentType" : 5126,
      "count" : 24,
      "type" : "VEC2"
    },
    {
      "bufferView" : 13,
      "componentType" : 5126,
      "count" : 24,
      "type" : "VEC2"
    },
    {
      "bufferView" : 14,
      "componentType" : 5126,
      "count" : 24,
      "type" : "VEC2"
    },
    {
      "bufferView" : 15,
      "componentType" : 5126,
      "count" : 24,
      "type" : "VEC2"
    },
    {
      "bufferView" : 16,
      "componentType" : 5123,
      "count" : 72,
      "type" : "SCALAR"
    },
    {
      "bufferView" : 17,
      "min" : [ -16.1239, -0.283624, -2.87652 ],
      "max" : [ -15.886, 6.81837, 2.87652 ],
      "componentType" : 5126,
      "count" : 48,
      "type" : "VEC3"
    },
    {
      "bufferView" : 18,
      "componentType" : 5126,
      "count" : 48,
      "type" : "VEC3"
    },
    {
      "bufferView" : 19,
      "componentType" : 5126,
      "count" : 48,
      "type" : "VEC4"
    },
    {
      "bufferView" : 20,
      "componentType" : 5126,
      "count" : 48,
      "type" : "VEC2"
    },
    {
      "bufferView" : 21,
      "componentType" : 5126,
      "count" : 48,
      "type" : "VEC2"
    },
    {
      "bufferView" : 22,
      "componentType" : 5126,
      "count" : 48,
      "type" : "VEC2"
    },
    {
      "bufferView" : 23,
      "componentType" : 5126,
      "count" : 48,
      "type" : "VEC2"
    }
  ]
}
