{
  "asset" : {
    "generator" : "UE Viewer (umodel) build 1544 based",
    "version" : "2.0"
  },
  "scene" : 0,
  "scenes" : [
    {
      "nodes" : [ 0 ]
    }
  ],
  "nodes" : [
    {
      "name" : "SM_ENV_KNVLLG03_YaguraFenceA_01",
      "mesh" : 0
    }
  ],
  "materials" : [
    {
      "name" : "MI_ENV_KNVLLG03_WoodBoard_Natural_Lighter",
      "pbrMetallicRoughness" : {
        "baseColorFactor" : [ 0.3, 0.3, 0.3, 1.0 ],
        "metallicFactor" : 0.1,
        "roughnessFactor" : 0.5
      }
    },
    {
      "name" : "MI_ENV_KNVLLG03_WoodPlain_Black",
      "pbrMetallicRoughness" : {
        "baseColorFactor" : [ 0.9, 0.3, 0.3, 1.0 ],
        "metallicFactor" : 0.1,
        "roughnessFactor" : 0.5
      }
    }
  ],
  "meshes" : [
    {
      "primitives" : [
        {
          "attributes" : {
            "POSITION" : 1,
            "NORMAL" : 2,
            "TANGENT" : 3,
            "TEXCOORD_0" : 4,
            "TEXCOORD_1" : 5,
            "TEXCOORD_2" : 6,
            "TEXCOORD_3" : 7
          },
          "indices" : 0,
          "material" : 0
        },
        {
          "attributes" : {
            "POSITION" : 9,
            "NORMAL" : 10,
            "TANGENT" : 11,
            "TEXCOORD_0" : 12,
            "TEXCOORD_1" : 13,
            "TEXCOORD_2" : 14,
            "TEXCOORD_3" : 15
          },
          "indices" : 8,
          "material" : 1
        }
      ],
      "name" : "SM_ENV_KNVLLG03_YaguraFenceA_01"
    }
  ],
  "buffers" : [
    {
      "uri" : "SM_ENV_KNVLLG03_YaguraFenceA_01.bin",
      "byteLength" : 16200
    }
  ],
  "bufferViews" : [
    {
      "buffer" : 0,
      "byteOffset" : 0,
      "byteLength" : 72
    },
    {
      "buffer" : 0,
      "byteOffset" : 72,
      "byteLength" : 288
    },
    {
      "buffer" : 0,
      "byteOffset" : 360,
      "byteLength" : 288
    },
    {
      "buffer" : 0,
      "byteOffset" : 648,
      "byteLength" : 384
    },
    {
      "buffer" : 0,
      "byteOffset" : 1032,
      "byteLength" : 192
    },
    {
      "buffer" : 0,
      "byteOffset" : 1224,
      "byteLength" : 192
    },
    {
      "buffer" : 0,
      "byteOffset" : 1416,
      "byteLength" : 192
    },
    {
      "buffer" : 0,
      "byteOffset" : 1608,
      "byteLength" : 192
    },
    {
      "buffer" : 0,
      "byteOffset" : 1800,
      "byteLength" : 576
    },
    {
      "buffer" : 0,
      "byteOffset" : 2376,
      "byteLength" : 2304
    },
    {
      "buffer" : 0,
      "byteOffset" : 4680,
      "byteLength" : 2304
    },
    {
      "buffer" : 0,
      "byteOffset" : 6984,
      "byteLength" : 3072
    },
    {
      "buffer" : 0,
      "byteOffset" : 10056,
      "byteLength" : 1536
    },
    {
      "buffer" : 0,
      "byteOffset" : 11592,
      "byteLength" : 1536
    },
    {
      "buffer" : 0,
      "byteOffset" : 13128,
      "byteLength" : 1536
    },
    {
      "buffer" : 0,
      "byteOffset" : 14664,
      "byteLength" : 1536
    }
  ],
  "accessors" : [
    {
      "bufferView" : 0,
      "componentType" : 5123,
      "count" : 36,
      "type" : "SCALAR"
    },
    {
      "bufferView" : 1,
      "min" : [ -4.55371, -0.283624, 5.64844 ],
      "max" : [ 4.55371, 6.81837, 5.79683 ],
      "componentType" : 5126,
      "count" : 24,
      "type" : "VEC3"
    },
    {
      "bufferView" : 2,
      "componentType" : 5126,
      "count" : 24,
      "type" : "VEC3"
    },
    {
      "bufferView" : 3,
      "componentType" : 5126,
      "count" : 24,
      "type" : "VEC4"
    },
    {
      "bufferView" : 4,
      "componentType" : 5126,
      "count" : 24,
      "type" : "VEC2"
    },
    {
      "bufferView" : 5,
      "componentType" : 5126,
      "count" : 24,
      "type" : "VEC2"
    },
    {
      "bufferView" : 6,
      "componentType" : 5126,
      "count" : 24,
      "type" : "VEC2"
    },
    {
      "bufferView" : 7,
      "componentType" : 5126,
      "count" : 24,
      "type" : "VEC2"
    },
    {
      "bufferView" : 8,
      "componentType" : 5123,
      "count" : 288,
      "type" : "SCALAR"
    },
    {
      "bufferView" : 9,
      "min" : [ -5.21199, -0.434377, 5.48885 ],
      "max" : [ 5.21199, 6.87468, 5.95641 ],
      "componentType" : 5126,
      "count" : 192,
      "type" : "VEC3"
    },
    {
      "bufferView" : 10,
      "componentType" : 5126,
      "count" : 192,
      "type" : "VEC3"
    },
    {
      "bufferView" : 11,
      "componentType" : 5126,
      "count" : 192,
      "type" : "VEC4"
    },
    {
      "bufferView" : 12,
      "componentType" : 5126,
      "count" : 192,
      "type" : "VEC2"
    },
    {
      "bufferView" : 13,
      "componentType" : 5126,
      "count" : 192,
      "type" : "VEC2"
    },
    {
      "bufferView" : 14,
      "componentType" : 5126,
      "count" : 192,
      "type" : "VEC2"
    },
    {
      "bufferView" : 15,
      "componentType" : 5126,
      "count" : 192,
      "type" : "VEC2"
    }
  ]
}
