{
  "asset" : {
    "generator" : "UE Viewer (umodel) build 1544 based",
    "version" : "2.0"
  },
  "scene" : 0,
  "scenes" : [
    {
      "nodes" : [ 0 ]
    }
  ],
  "nodes" : [
    {
      "name" : "SM_ENV_KNVLLG03_YaguraFenceB_03",
      "mesh" : 0
    }
  ],
  "materials" : [
    {
      "name" : "MI_ENV_KNVLLG03_WoodPlain_Black",
      "pbrMetallicRoughness" : {
        "baseColorFactor" : [ 0.3, 0.3, 0.3, 1.0 ],
        "metallicFactor" : 0.1,
        "roughnessFactor" : 0.5
      }
    },
    {
      "name" : "MI_ENV_KNVLLG03_WoodBoard_Natural_Lighter",
      "pbrMetallicRoughness" : {
        "baseColorFactor" : [ 0.9, 0.3, 0.3, 1.0 ],
        "metallicFactor" : 0.1,
        "roughnessFactor" : 0.5
      }
    }
  ],
  "meshes" : [
    {
      "primitives" : [
        {
          "attributes" : {
            "POSITION" : 1,
            "NORMAL" : 2,
            "TANGENT" : 3,
            "TEXCOORD_0" : 4,
            "TEXCOORD_1" : 5,
            "TEXCOORD_2" : 6,
            "TEXCOORD_3" : 7
          },
          "indices" : 0,
          "material" : 0
        },
        {
          "attributes" : {
            "POSITION" : 9,
            "NORMAL" : 10,
            "TANGENT" : 11,
            "TEXCOORD_0" : 12,
            "TEXCOORD_1" : 13,
            "TEXCOORD_2" : 14,
            "TEXCOORD_3" : 15
          },
          "indices" : 8,
          "material" : 1
        }
      ],
      "name" : "SM_ENV_KNVLLG03_YaguraFenceB_03"
    }
  ],
  "buffers" : [
    {
      "uri" : "SM_ENV_KNVLLG03_YaguraFenceB_03.bin",
      "byteLength" : 15300
    }
  ],
  "bufferViews" : [
    {
      "buffer" : 0,
      "byteOffset" : 0,
      "byteLength" : 540
    },
    {
      "buffer" : 0,
      "byteOffset" : 540,
      "byteLength" : 2160
    },
    {
      "buffer" : 0,
      "byteOffset" : 2700,
      "byteLength" : 2160
    },
    {
      "buffer" : 0,
      "byteOffset" : 4860,
      "byteLength" : 2880
    },
    {
      "buffer" : 0,
      "byteOffset" : 7740,
      "byteLength" : 1440
    },
    {
      "buffer" : 0,
      "byteOffset" : 9180,
      "byteLength" : 1440
    },
    {
      "buffer" : 0,
      "byteOffset" : 10620,
      "byteLength" : 1440
    },
    {
      "buffer" : 0,
      "byteOffset" : 12060,
      "byteLength" : 1440
    },
    {
      "buffer" : 0,
      "byteOffset" : 13500,
      "byteLength" : 72
    },
    {
      "buffer" : 0,
      "byteOffset" : 13572,
      "byteLength" : 288
    },
    {
      "buffer" : 0,
      "byteOffset" : 13860,
      "byteLength" : 288
    },
    {
      "buffer" : 0,
      "byteOffset" : 14148,
      "byteLength" : 384
    },
    {
      "buffer" : 0,
      "byteOffset" : 14532,
      "byteLength" : 192
    },
    {
      "buffer" : 0,
      "byteOffset" : 14724,
      "byteLength" : 192
    },
    {
      "buffer" : 0,
      "byteOffset" : 14916,
      "byteLength" : 192
    },
    {
      "buffer" : 0,
      "byteOffset" : 15108,
      "byteLength" : 192
    }
  ],
  "accessors" : [
    {
      "bufferView" : 0,
      "componentType" : 5123,
      "count" : 270,
      "type" : "SCALAR"
    },
    {
      "bufferView" : 1,
      "min" : [ -5.21199, 9.59378, -5.89393 ],
      "max" : [ 5.21199, 14.5938, -5.55133 ],
      "componentType" : 5126,
      "count" : 180,
      "type" : "VEC3"
    },
    {
      "bufferView" : 2,
      "componentType" : 5126,
      "count" : 180,
      "type" : "VEC3"
    },
    {
      "bufferView" : 3,
      "componentType" : 5126,
      "count" : 180,
      "type" : "VEC4"
    },
    {
      "bufferView" : 4,
      "componentType" : 5126,
      "count" : 180,
      "type" : "VEC2"
    },
    {
      "bufferView" : 5,
      "componentType" : 5126,
      "count" : 180,
      "type" : "VEC2"
    },
    {
      "bufferView" : 6,
      "componentType" : 5126,
      "count" : 180,
      "type" : "VEC2"
    },
    {
      "bufferView" : 7,
      "componentType" : 5126,
      "count" : 180,
      "type" : "VEC2"
    },
    {
      "bufferView" : 8,
      "componentType" : 5123,
      "count" : 36,
      "type" : "SCALAR"
    },
    {
      "bufferView" : 9,
      "min" : [ -4.55371, 9.79592, -5.79683 ],
      "max" : [ 4.55371, 14.5375, -5.64844 ],
      "componentType" : 5126,
      "count" : 24,
      "type" : "VEC3"
    },
    {
      "bufferView" : 10,
      "componentType" : 5126,
      "count" : 24,
      "type" : "VEC3"
    },
    {
      "bufferView" : 11,
      "componentType" : 5126,
      "count" : 24,
      "type" : "VEC4"
    },
    {
      "bufferView" : 12,
      "componentType" : 5126,
      "count" : 24,
      "type" : "VEC2"
    },
    {
      "bufferView" : 13,
      "componentType" : 5126,
      "count" : 24,
      "type" : "VEC2"
    },
    {
      "bufferView" : 14,
      "componentType" : 5126,
      "count" : 24,
      "type" : "VEC2"
    },
    {
      "bufferView" : 15,
      "componentType" : 5126,
      "count" : 24,
      "type" : "VEC2"
    }
  ]
}
