{
  "asset" : {
    "generator" : "UE Viewer (umodel) build 1544 based",
    "version" : "2.0"
  },
  "scene" : 0,
  "scenes" : [
    {
      "nodes" : [ 0 ]
    }
  ],
  "nodes" : [
    {
      "name" : "SM_ENV_KNVLLG03_Yagura_Night",
      "mesh" : 0
    }
  ],
  "materials" : [
    {
      "name" : "MI_ENV_LKNVLD_WoodPlain_Red",
      "pbrMetallicRoughness" : {
        "baseColorFactor" : [ 0.3, 0.3, 0.3, 1.0 ],
        "metallicFactor" : 0.1,
        "roughnessFactor" : 0.5
      }
    },
    {
      "name" : "MI_ENV_LKNVLD_Event_HL_WoodenStage_Emissive_A",
      "pbrMetallicRoughness" : {
        "baseColorFactor" : [ 0.9, 0.3, 0.3, 1.0 ],
        "metallicFactor" : 0.1,
        "roughnessFactor" : 0.5
      }
    },
    {
      "name" : "MI_ENV_LKNVLD_Metal_A",
      "pbrMetallicRoughness" : {
        "baseColorFactor" : [ 0.3, 0.9, 0.3, 1.0 ],
        "metallicFactor" : 0.1,
        "roughnessFactor" : 0.5
      }
    },
    {
      "name" : "MI_ENV_KNVLLG03_Event_HL_WoodPlain_A",
      "pbrMetallicRoughness" : {
        "baseColorFactor" : [ 0.3, 0.3, 0.9, 1.0 ],
        "metallicFactor" : 0.1,
        "roughnessFactor" : 0.5
      }
    },
    {
      "name" : "MI_ENV_LKNVLD_Lantern_A",
      "pbrMetallicRoughness" : {
        "baseColorFactor" : [ 0.9, 0.9, 0.9, 1.0 ],
        "metallicFactor" : 0.1,
        "roughnessFactor" : 0.5
      }
    },
    {
      "name" : "MI_ENV_LKNVLD_BigPipe_B",
      "pbrMetallicRoughness" : {
        "baseColorFactor" : [ 0.9, 0.9, 0.3, 1.0 ],
        "metallicFactor" : 0.1,
        "roughnessFactor" : 0.5
      }
    },
    {
      "name" : "MI_ENV_LKNVLD_Pipe_E",
      "pbrMetallicRoughness" : {
        "baseColorFactor" : [ 0.9, 0.3, 0.9, 1.0 ],
        "metallicFactor" : 0.1,
        "roughnessFactor" : 0.5
      }
    },
    {
      "name" : "MI_ENV_LKNVLD_Pipe_A",
      "pbrMetallicRoughness" : {
        "baseColorFactor" : [ 0.3, 0.9, 0.9, 1.0 ],
        "metallicFactor" : 0.1,
        "roughnessFactor" : 0.5
      }
    },
    {
      "name" : "MI_ENV_LKNVLD_WoodBoard_Natural_Yellowed",
      "pbrMetallicRoughness" : {
        "baseColorFactor" : [ 1, 0.3, 0.3, 1.0 ],
        "metallicFactor" : 0.1,
        "roughnessFactor" : 0.5
      }
    },
    {
      "name" : "MI_ENV_KNVLLG03_Event_HL_Metal_B",
      "pbrMetallicRoughness" : {
        "baseColorFactor" : [ 0.6, 0.3, 0.3, 1.0 ],
        "metallicFactor" : 0.1,
        "roughnessFactor" : 0.5
      }
    },
    {
      "name" : "MI_ENV_LKNVLD_Sticker_02",
      "pbrMetallicRoughness" : {
        "baseColorFactor" : [ 1, 0.9, 0.3, 1.0 ],
        "metallicFactor" : 0.1,
        "roughnessFactor" : 0.5
      }
    },
    {
      "name" : "MI_ENV_LKNVLD_Ninkai_Poster",
      "pbrMetallicRoughness" : {
        "baseColorFactor" : [ 1, 0.3, 0.9, 1.0 ],
        "metallicFactor" : 0.1,
        "roughnessFactor" : 0.5
      }
    }
  ],
  "meshes" : [
    {
      "primitives" : [
        {
          "attributes" : {
            "POSITION" : 1,
            "NORMAL" : 2,
            "TANGENT" : 3,
            "COLOR_0" : 4,
            "TEXCOORD_0" : 5,
            "TEXCOORD_1" : 6,
            "TEXCOORD_2" : 7,
            "TEXCOORD_3" : 8
          },
          "indices" : 0,
          "material" : 0
        },
        {
          "attributes" : {
            "POSITION" : 10,
            "NORMAL" : 11,
            "TANGENT" : 12,
            "COLOR_0" : 13,
            "TEXCOORD_0" : 14,
            "TEXCOORD_1" : 15,
            "TEXCOORD_2" : 16,
            "TEXCOORD_3" : 17
          },
          "indices" : 9,
          "material" : 1
        },
        {
          "attributes" : {
            "POSITION" : 19,
            "NORMAL" : 20,
            "TANGENT" : 21,
            "COLOR_0" : 22,
            "TEXCOORD_0" : 23,
            "TEXCOORD_1" : 24,
            "TEXCOORD_2" : 25,
            "TEXCOORD_3" : 26
          },
          "indices" : 18,
          "material" : 2
        },
        {
          "attributes" : {
            "POSITION" : 28,
            "NORMAL" : 29,
            "TANGENT" : 30,
            "COLOR_0" : 31,
            "TEXCOORD_0" : 32,
            "TEXCOORD_1" : 33,
            "TEXCOORD_2" : 34,
            "TEXCOORD_3" : 35
          },
          "indices" : 27,
          "material" : 3
        },
        {
          "attributes" : {
            "POSITION" : 37,
            "NORMAL" : 38,
            "TANGENT" : 39,
            "COLOR_0" : 40,
            "TEXCOORD_0" : 41,
            "TEXCOORD_1" : 42,
            "TEXCOORD_2" : 43,
            "TEXCOORD_3" : 44
          },
          "indices" : 36,
          "material" : 4
        },
        {
          "attributes" : {
            "POSITION" : 46,
            "NORMAL" : 47,
            "TANGENT" : 48,
            "COLOR_0" : 49,
            "TEXCOORD_0" : 50,
            "TEXCOORD_1" : 51,
            "TEXCOORD_2" : 52,
            "TEXCOORD_3" : 53
          },
          "indices" : 45,
          "material" : 5
        },
        {
          "attributes" : {
            "POSITION" : 55,
            "NORMAL" : 56,
            "TANGENT" : 57,
            "COLOR_0" : 58,
            "TEXCOORD_0" : 59,
            "TEXCOORD_1" : 60,
            "TEXCOORD_2" : 61,
            "TEXCOORD_3" : 62
          },
          "indices" : 54,
          "material" : 6
        },
        {
          "attributes" : {
            "POSITION" : 64,
            "NORMAL" : 65,
            "TANGENT" : 66,
            "COLOR_0" : 67,
            "TEXCOORD_0" : 68,
            "TEXCOORD_1" : 69,
            "TEXCOORD_2" : 70,
            "TEXCOORD_3" : 71
          },
          "indices" : 63,
          "material" : 7
        },
        {
          "attributes" : {
            "POSITION" : 73,
            "NORMAL" : 74,
            "TANGENT" : 75,
            "COLOR_0" : 76,
            "TEXCOORD_0" : 77,
            "TEXCOORD_1" : 78,
            "TEXCOORD_2" : 79,
            "TEXCOORD_3" : 80
          },
          "indices" : 72,
          "material" : 8
        },
        {
          "attributes" : {
            "POSITION" : 82,
            "NORMAL" : 83,
            "TANGENT" : 84,
            "COLOR_0" : 85,
            "TEXCOORD_0" : 86,
            "TEXCOORD_1" : 87,
            "TEXCOORD_2" : 88,
            "TEXCOORD_3" : 89
          },
          "indices" : 81,
          "material" : 9
        },
        {
          "attributes" : {
            "POSITION" : 91,
            "NORMAL" : 92,
            "TANGENT" : 93,
            "COLOR_0" : 94,
            "TEXCOORD_0" : 95,
            "TEXCOORD_1" : 96,
            "TEXCOORD_2" : 97,
            "TEXCOORD_3" : 98
          },
          "indices" : 90,
          "material" : 10
        },
        {
          "attributes" : {
            "POSITION" : 100,
            "NORMAL" : 101,
            "TANGENT" : 102,
            "COLOR_0" : 103,
            "TEXCOORD_0" : 104,
            "TEXCOORD_1" : 105,
            "TEXCOORD_2" : 106,
            "TEXCOORD_3" : 107
          },
          "indices" : 99,
          "material" : 11
        }
      ],
      "name" : "SM_ENV_KNVLLG03_Yagura_Night"
    }
  ],
  "buffers" : [
    {
      "uri" : "SM_ENV_KNVLLG03_Yagura_Night.bin",
      "byteLength" : 1924076
    }
  ],
  "bufferViews" : [
    {
      "buffer" : 0,
      "byteOffset" : 0,
      "byteLength" : 20096
    },
    {
      "buffer" : 0,
      "byteOffset" : 20096,
      "byteLength" : 33516
    },
    {
      "buffer" : 0,
      "byteOffset" : 53612,
      "byteLength" : 33516
    },
    {
      "buffer" : 0,
      "byteOffset" : 87128,
      "byteLength" : 44688
    },
    {
      "buffer" : 0,
      "byteOffset" : 131816,
      "byteLength" : 11172
    },
    {
      "buffer" : 0,
      "byteOffset" : 142988,
      "byteLength" : 22344
    },
    {
      "buffer" : 0,
      "byteOffset" : 165332,
      "byteLength" : 22344
    },
    {
      "buffer" : 0,
      "byteOffset" : 187676,
      "byteLength" : 22344
    },
    {
      "buffer" : 0,
      "byteOffset" : 210020,
      "byteLength" : 22344
    },
    {
      "buffer" : 0,
      "byteOffset" : 232364,
      "byteLength" : 102528
    },
    {
      "buffer" : 0,
      "byteOffset" : 334892,
      "byteLength" : 167424
    },
    {
      "buffer" : 0,
      "byteOffset" : 502316,
      "byteLength" : 167424
    },
    {
      "buffer" : 0,
      "byteOffset" : 669740,
      "byteLength" : 223232
    },
    {
      "buffer" : 0,
      "byteOffset" : 892972,
      "byteLength" : 55808
    },
    {
      "buffer" : 0,
      "byteOffset" : 948780,
      "byteLength" : 111616
    },
    {
      "buffer" : 0,
      "byteOffset" : 1060396,
      "byteLength" : 111616
    },
    {
      "buffer" : 0,
      "byteOffset" : 1172012,
      "byteLength" : 111616
    },
    {
      "buffer" : 0,
      "byteOffset" : 1283628,
      "byteLength" : 111616
    },
    {
      "buffer" : 0,
      "byteOffset" : 1395244,
      "byteLength" : 5096
    },
    {
      "buffer" : 0,
      "byteOffset" : 1400340,
      "byteLength" : 14196
    },
    {
      "buffer" : 0,
      "byteOffset" : 1414536,
      "byteLength" : 14196
    },
    {
      "buffer" : 0,
      "byteOffset" : 1428732,
      "byteLength" : 18928
    },
    {
      "buffer" : 0,
      "byteOffset" : 1447660,
      "byteLength" : 4732
    },
    {
      "buffer" : 0,
      "byteOffset" : 1452392,
      "byteLength" : 9464
    },
    {
      "buffer" : 0,
      "byteOffset" : 1461856,
      "byteLength" : 9464
    },
    {
      "buffer" : 0,
      "byteOffset" : 1471320,
      "byteLength" : 9464
    },
    {
      "buffer" : 0,
      "byteOffset" : 1480784,
      "byteLength" : 9464
    },
    {
      "buffer" : 0,
      "byteOffset" : 1490248,
      "byteLength" : 3744
    },
    {
      "buffer" : 0,
      "byteOffset" : 1493992,
      "byteLength" : 11556
    },
    {
      "buffer" : 0,
      "byteOffset" : 1505548,
      "byteLength" : 11556
    },
    {
      "buffer" : 0,
      "byteOffset" : 1517104,
      "byteLength" : 15408
    },
    {
      "buffer" : 0,
      "byteOffset" : 1532512,
      "byteLength" : 3852
    },
    {
      "buffer" : 0,
      "byteOffset" : 1536364,
      "byteLength" : 7704
    },
    {
      "buffer" : 0,
      "byteOffset" : 1544068,
      "byteLength" : 7704
    },
    {
      "buffer" : 0,
      "byteOffset" : 1551772,
      "byteLength" : 7704
    },
    {
      "buffer" : 0,
      "byteOffset" : 1559476,
      "byteLength" : 7704
    },
    {
      "buffer" : 0,
      "byteOffset" : 1567180,
      "byteLength" : 9744
    },
    {
      "buffer" : 0,
      "byteOffset" : 1576924,
      "byteLength" : 15072
    },
    {
      "buffer" : 0,
      "byteOffset" : 1591996,
      "byteLength" : 15072
    },
    {
      "buffer" : 0,
      "byteOffset" : 1607068,
      "byteLength" : 20096
    },
    {
      "buffer" : 0,
      "byteOffset" : 1627164,
      "byteLength" : 5024
    },
    {
      "buffer" : 0,
      "byteOffset" : 1632188,
      "byteLength" : 10048
    },
    {
      "buffer" : 0,
      "byteOffset" : 1642236,
      "byteLength" : 10048
    },
    {
      "buffer" : 0,
      "byteOffset" : 1652284,
      "byteLength" : 10048
    },
    {
      "buffer" : 0,
      "byteOffset" : 1662332,
      "byteLength" : 10048
    },
    {
      "buffer" : 0,
      "byteOffset" : 1672380,
      "byteLength" : 3168
    },
    {
      "buffer" : 0,
      "byteOffset" : 1675548,
      "byteLength" : 5496
    },
    {
      "buffer" : 0,
      "byteOffset" : 1681044,
      "byteLength" : 5496
    },
    {
      "buffer" : 0,
      "byteOffset" : 1686540,
      "byteLength" : 7328
    },
    {
      "buffer" : 0,
      "byteOffset" : 1693868,
      "byteLength" : 1832
    },
    {
      "buffer" : 0,
      "byteOffset" : 1695700,
      "byteLength" : 3664
    },
    {
      "buffer" : 0,
      "byteOffset" : 1699364,
      "byteLength" : 3664
    },
    {
      "buffer" : 0,
      "byteOffset" : 1703028,
      "byteLength" : 3664
    },
    {
      "buffer" : 0,
      "byteOffset" : 1706692,
      "byteLength" : 3664
    },
    {
      "buffer" : 0,
      "byteOffset" : 1710356,
      "byteLength" : 16632
    },
    {
      "buffer" : 0,
      "byteOffset" : 1726988,
      "byteLength" : 21132
    },
    {
      "buffer" : 0,
      "byteOffset" : 1748120,
      "byteLength" : 21132
    },
    {
      "buffer" : 0,
      "byteOffset" : 1769252,
      "byteLength" : 28176
    },
    {
      "buffer" : 0,
      "byteOffset" : 1797428,
      "byteLength" : 7044
    },
    {
      "buffer" : 0,
      "byteOffset" : 1804472,
      "byteLength" : 14088
    },
    {
      "buffer" : 0,
      "byteOffset" : 1818560,
      "byteLength" : 14088
    },
    {
      "buffer" : 0,
      "byteOffset" : 1832648,
      "byteLength" : 14088
    },
    {
      "buffer" : 0,
      "byteOffset" : 1846736,
      "byteLength" : 14088
    },
    {
      "buffer" : 0,
      "byteOffset" : 1860824,
      "byteLength" : 2784
    },
    {
      "buffer" : 0,
      "byteOffset" : 1863608,
      "byteLength" : 3180
    },
    {
      "buffer" : 0,
      "byteOffset" : 1866788,
      "byteLength" : 3180
    },
    {
      "buffer" : 0,
      "byteOffset" : 1869968,
      "byteLength" : 4240
    },
    {
      "buffer" : 0,
      "byteOffset" : 1874208,
      "byteLength" : 1060
    },
    {
      "buffer" : 0,
      "byteOffset" : 1875268,
      "byteLength" : 2120
    },
    {
      "buffer" : 0,
      "byteOffset" : 1877388,
      "byteLength" : 2120
    },
    {
      "buffer" : 0,
      "byteOffset" : 1879508,
      "byteLength" : 2120
    },
    {
      "buffer" : 0,
      "byteOffset" : 1881628,
      "byteLength" : 2120
    },
    {
      "buffer" : 0,
      "byteOffset" : 1883748,
      "byteLength" : 192
    },
    {
      "buffer" : 0,
      "byteOffset" : 1883940,
      "byteLength" : 396
    },
    {
      "buffer" : 0,
      "byteOffset" : 1884336,
      "byteLength" : 396
    },
    {
      "buffer" : 0,
      "byteOffset" : 1884732,
      "byteLength" : 528
    },
    {
      "buffer" : 0,
      "byteOffset" : 1885260,
      "byteLength" : 132
    },
    {
      "buffer" : 0,
      "byteOffset" : 1885392,
      "byteLength" : 264
    },
    {
      "buffer" : 0,
      "byteOffset" : 1885656,
      "byteLength" : 264
    },
    {
      "buffer" : 0,
      "byteOffset" : 1885920,
      "byteLength" : 264
    },
    {
      "buffer" : 0,
      "byteOffset" : 1886184,
      "byteLength" : 264
    },
    {
      "buffer" : 0,
      "byteOffset" : 1886448,
      "byteLength" : 1152
    },
    {
      "buffer" : 0,
      "byteOffset" : 1887600,
      "byteLength" : 3096
    },
    {
      "buffer" : 0,
      "byteOffset" : 1890696,
      "byteLength" : 3096
    },
    {
      "buffer" : 0,
      "byteOffset" : 1893792,
      "byteLength" : 4128
    },
    {
      "buffer" : 0,
      "byteOffset" : 1897920,
      "byteLength" : 1032
    },
    {
      "buffer" : 0,
      "byteOffset" : 1898952,
      "byteLength" : 2064
    },
    {
      "buffer" : 0,
      "byteOffset" : 1901016,
      "byteLength" : 2064
    },
    {
      "buffer" : 0,
      "byteOffset" : 1903080,
      "byteLength" : 2064
    },
    {
      "buffer" : 0,
      "byteOffset" : 1905144,
      "byteLength" : 2064
    },
    {
      "buffer" : 0,
      "byteOffset" : 1907208,
      "byteLength" : 744
    },
    {
      "buffer" : 0,
      "byteOffset" : 1907952,
      "byteLength" : 2496
    },
    {
      "buffer" : 0,
      "byteOffset" : 1910448,
      "byteLength" : 2496
    },
    {
      "buffer" : 0,
      "byteOffset" : 1912944,
      "byteLength" : 3328
    },
    {
      "buffer" : 0,
      "byteOffset" : 1916272,
      "byteLength" : 832
    },
    {
      "buffer" : 0,
      "byteOffset" : 1917104,
      "byteLength" : 1664
    },
    {
      "buffer" : 0,
      "byteOffset" : 1918768,
      "byteLength" : 1664
    },
    {
      "buffer" : 0,
      "byteOffset" : 1920432,
      "byteLength" : 1664
    },
    {
      "buffer" : 0,
      "byteOffset" : 1922096,
      "byteLength" : 1664
    },
    {
      "buffer" : 0,
      "byteOffset" : 1923760,
      "byteLength" : 12
    },
    {
      "buffer" : 0,
      "byteOffset" : 1923772,
      "byteLength" : 48
    },
    {
      "buffer" : 0,
      "byteOffset" : 1923820,
      "byteLength" : 48
    },
    {
      "buffer" : 0,
      "byteOffset" : 1923868,
      "byteLength" : 64
    },
    {
      "buffer" : 0,
      "byteOffset" : 1923932,
      "byteLength" : 16
    },
    {
      "buffer" : 0,
      "byteOffset" : 1923948,
      "byteLength" : 32
    },
    {
      "buffer" : 0,
      "byteOffset" : 1923980,
      "byteLength" : 32
    },
    {
      "buffer" : 0,
      "byteOffset" : 1924012,
      "byteLength" : 32
    },
    {
      "buffer" : 0,
      "byteOffset" : 1924044,
      "byteLength" : 32
    }
  ],
  "accessors" : [
    {
      "bufferView" : 0,
      "componentType" : 5123,
      "count" : 10047,
      "type" : "SCALAR"
    },
    {
      "bufferView" : 1,
      "min" : [ -4.85881, 1.58967, -4.85881 ],
      "max" : [ 4.85881, 15.3196, 4.85881 ],
      "componentType" : 5126,
      "count" : 2793,
      "type" : "VEC3"
    },
    {
      "bufferView" : 2,
      "componentType" : 5126,
      "count" : 2793,
      "type" : "VEC3"
    },
    {
      "bufferView" : 3,
      "componentType" : 5126,
      "count" : 2793,
      "type" : "VEC4"
    },
    {
      "bufferView" : 4,
      "normalized" : true,
      "componentType" : 5121,
      "count" : 2793,
      "type" : "VEC4"
    },
    {
      "bufferView" : 5,
      "componentType" : 5126,
      "count" : 2793,
      "type" : "VEC2"
    },
    {
      "bufferView" : 6,
      "componentType" : 5126,
      "count" : 2793,
      "type" : "VEC2"
    },
    {
      "bufferView" : 7,
      "componentType" : 5126,
      "count" : 2793,
      "type" : "VEC2"
    },
    {
      "bufferView" : 8,
      "componentType" : 5126,
      "count" : 2793,
      "type" : "VEC2"
    },
    {
      "bufferView" : 9,
      "componentType" : 5123,
      "count" : 51264,
      "type" : "SCALAR"
    },
    {
      "bufferView" : 10,
      "min" : [ -12.6637, -0.473458, -14.5363 ],
      "max" : [ 14.215, 20.4758, 14.4649 ],
      "componentType" : 5126,
      "count" : 13952,
      "type" : "VEC3"
    },
    {
      "bufferView" : 11,
      "componentType" : 5126,
      "count" : 13952,
      "type" : "VEC3"
    },
    {
      "bufferView" : 12,
      "componentType" : 5126,
      "count" : 13952,
      "type" : "VEC4"
    },
    {
      "bufferView" : 13,
      "normalized" : true,
      "componentType" : 5121,
      "count" : 13952,
      "type" : "VEC4"
    },
    {
      "bufferView" : 14,
      "componentType" : 5126,
      "count" : 13952,
      "type" : "VEC2"
    },
    {
      "bufferView" : 15,
      "componentType" : 5126,
      "count" : 13952,
      "type" : "VEC2"
    },
    {
      "bufferView" : 16,
      "componentType" : 5126,
      "count" : 13952,
      "type" : "VEC2"
    },
    {
      "bufferView" : 17,
      "componentType" : 5126,
      "count" : 13952,
      "type" : "VEC2"
    },
    {
      "bufferView" : 18,
      "componentType" : 5123,
      "count" : 2547,
      "type" : "SCALAR"
    },
    {
      "bufferView" : 19,
      "min" : [ -14.9359, -0.509885, -14.9359 ],
      "max" : [ 14.9359, 20.4818, 14.9359 ],
      "componentType" : 5126,
      "count" : 1183,
      "type" : "VEC3"
    },
    {
      "bufferView" : 20,
      "componentType" : 5126,
      "count" : 1183,
      "type" : "VEC3"
    },
    {
      "bufferView" : 21,
      "componentType" : 5126,
      "count" : 1183,
      "type" : "VEC4"
    },
    {
      "bufferView" : 22,
      "normalized" : true,
      "componentType" : 5121,
      "count" : 1183,
      "type" : "VEC4"
    },
    {
      "bufferView" : 23,
      "componentType" : 5126,
      "count" : 1183,
      "type" : "VEC2"
    },
    {
      "bufferView" : 24,
      "componentType" : 5126,
      "count" : 1183,
      "type" : "VEC2"
    },
    {
      "bufferView" : 25,
      "componentType" : 5126,
      "count" : 1183,
      "type" : "VEC2"
    },
    {
      "bufferView" : 26,
      "componentType" : 5126,
      "count" : 1183,
      "type" : "VEC2"
    },
    {
      "bufferView" : 27,
      "componentType" : 5123,
      "count" : 1872,
      "type" : "SCALAR"
    },
    {
      "bufferView" : 28,
      "min" : [ -15.2285, -0.509885, -15.2285 ],
      "max" : [ 15.2285, 19.6701, 15.2285 ],
      "componentType" : 5126,
      "count" : 963,
      "type" : "VEC3"
    },
    {
      "bufferView" : 29,
      "componentType" : 5126,
      "count" : 963,
      "type" : "VEC3"
    },
    {
      "bufferView" : 30,
      "componentType" : 5126,
      "count" : 963,
      "type" : "VEC4"
    },
    {
      "bufferView" : 31,
      "normalized" : true,
      "componentType" : 5121,
      "count" : 963,
      "type" : "VEC4"
    },
    {
      "bufferView" : 32,
      "componentType" : 5126,
      "count" : 963,
      "type" : "VEC2"
    },
    {
      "bufferView" : 33,
      "componentType" : 5126,
      "count" : 963,
      "type" : "VEC2"
    },
    {
      "bufferView" : 34,
      "componentType" : 5126,
      "count" : 963,
      "type" : "VEC2"
    },
    {
      "bufferView" : 35,
      "componentType" : 5126,
      "count" : 963,
      "type" : "VEC2"
    },
    {
      "bufferView" : 36,
      "componentType" : 5123,
      "count" : 4872,
      "type" : "SCALAR"
    },
    {
      "bufferView" : 37,
      "min" : [ -7.67717, 14.5505, -7.68292 ],
      "max" : [ 7.68637, 17.1078, 7.68291 ],
      "componentType" : 5126,
      "count" : 1256,
      "type" : "VEC3"
    },
    {
      "bufferView" : 38,
      "componentType" : 5126,
      "count" : 1256,
      "type" : "VEC3"
    },
    {
      "bufferView" : 39,
      "componentType" : 5126,
      "count" : 1256,
      "type" : "VEC4"
    },
    {
      "bufferView" : 40,
      "normalized" : true,
      "componentType" : 5121,
      "count" : 1256,
      "type" : "VEC4"
    },
    {
      "bufferView" : 41,
      "componentType" : 5126,
      "count" : 1256,
      "type" : "VEC2"
    },
    {
      "bufferView" : 42,
      "componentType" : 5126,
      "count" : 1256,
      "type" : "VEC2"
    },
    {
      "bufferView" : 43,
      "componentType" : 5126,
      "count" : 1256,
      "type" : "VEC2"
    },
    {
      "bufferView" : 44,
      "componentType" : 5126,
      "count" : 1256,
      "type" : "VEC2"
    },
    {
      "bufferView" : 45,
      "componentType" : 5123,
      "count" : 1584,
      "type" : "SCALAR"
    },
    {
      "bufferView" : 46,
      "min" : [ -7.74992, -0.100415, -13.0846 ],
      "max" : [ 8.23225, 20.5544, 10.7585 ],
      "componentType" : 5126,
      "count" : 458,
      "type" : "VEC3"
    },
    {
      "bufferView" : 47,
      "componentType" : 5126,
      "count" : 458,
      "type" : "VEC3"
    },
    {
      "bufferView" : 48,
      "componentType" : 5126,
      "count" : 458,
      "type" : "VEC4"
    },
    {
      "bufferView" : 49,
      "normalized" : true,
      "componentType" : 5121,
      "count" : 458,
      "type" : "VEC4"
    },
    {
      "bufferView" : 50,
      "componentType" : 5126,
      "count" : 458,
      "type" : "VEC2"
    },
    {
      "bufferView" : 51,
      "componentType" : 5126,
      "count" : 458,
      "type" : "VEC2"
    },
    {
      "bufferView" : 52,
      "componentType" : 5126,
      "count" : 458,
      "type" : "VEC2"
    },
    {
      "bufferView" : 53,
      "componentType" : 5126,
      "count" : 458,
      "type" : "VEC2"
    },
    {
      "bufferView" : 54,
      "componentType" : 5123,
      "count" : 8316,
      "type" : "SCALAR"
    },
    {
      "bufferView" : 55,
      "min" : [ -11.0251, -0.388044, -14.4678 ],
      "max" : [ 14.2045, 20.5606, 14.4155 ],
      "componentType" : 5126,
      "count" : 1761,
      "type" : "VEC3"
    },
    {
      "bufferView" : 56,
      "componentType" : 5126,
      "count" : 1761,
      "type" : "VEC3"
    },
    {
      "bufferView" : 57,
      "componentType" : 5126,
      "count" : 1761,
      "type" : "VEC4"
    },
    {
      "bufferView" : 58,
      "normalized" : true,
      "componentType" : 5121,
      "count" : 1761,
      "type" : "VEC4"
    },
    {
      "bufferView" : 59,
      "componentType" : 5126,
      "count" : 1761,
      "type" : "VEC2"
    },
    {
      "bufferView" : 60,
      "componentType" : 5126,
      "count" : 1761,
      "type" : "VEC2"
    },
    {
      "bufferView" : 61,
      "componentType" : 5126,
      "count" : 1761,
      "type" : "VEC2"
    },
    {
      "bufferView" : 62,
      "componentType" : 5126,
      "count" : 1761,
      "type" : "VEC2"
    },
    {
      "bufferView" : 63,
      "componentType" : 5123,
      "count" : 1392,
      "type" : "SCALAR"
    },
    {
      "bufferView" : 64,
      "min" : [ -11.1253, 1.08668, 1.97307 ],
      "max" : [ -2.18913, 1.45066, 11.0203 ],
      "componentType" : 5126,
      "count" : 265,
      "type" : "VEC3"
    },
    {
      "bufferView" : 65,
      "componentType" : 5126,
      "count" : 265,
      "type" : "VEC3"
    },
    {
      "bufferView" : 66,
      "componentType" : 5126,
      "count" : 265,
      "type" : "VEC4"
    },
    {
      "bufferView" : 67,
      "normalized" : true,
      "componentType" : 5121,
      "count" : 265,
      "type" : "VEC4"
    },
    {
      "bufferView" : 68,
      "componentType" : 5126,
      "count" : 265,
      "type" : "VEC2"
    },
    {
      "bufferView" : 69,
      "componentType" : 5126,
      "count" : 265,
      "type" : "VEC2"
    },
    {
      "bufferView" : 70,
      "componentType" : 5126,
      "count" : 265,
      "type" : "VEC2"
    },
    {
      "bufferView" : 71,
      "componentType" : 5126,
      "count" : 265,
      "type" : "VEC2"
    },
    {
      "bufferView" : 72,
      "componentType" : 5123,
      "count" : 96,
      "type" : "SCALAR"
    },
    {
      "bufferView" : 73,
      "min" : [ -6.58114, 1.62623, -6.58113 ],
      "max" : [ 6.58114, 1.62623, 6.58114 ],
      "componentType" : 5126,
      "count" : 33,
      "type" : "VEC3"
    },
    {
      "bufferView" : 74,
      "componentType" : 5126,
      "count" : 33,
      "type" : "VEC3"
    },
    {
      "bufferView" : 75,
      "componentType" : 5126,
      "count" : 33,
      "type" : "VEC4"
    },
    {
      "bufferView" : 76,
      "normalized" : true,
      "componentType" : 5121,
      "count" : 33,
      "type" : "VEC4"
    },
    {
      "bufferView" : 77,
      "componentType" : 5126,
      "count" : 33,
      "type" : "VEC2"
    },
    {
      "bufferView" : 78,
      "componentType" : 5126,
      "count" : 33,
      "type" : "VEC2"
    },
    {
      "bufferView" : 79,
      "componentType" : 5126,
      "count" : 33,
      "type" : "VEC2"
    },
    {
      "bufferView" : 80,
      "componentType" : 5126,
      "count" : 33,
      "type" : "VEC2"
    },
    {
      "bufferView" : 81,
      "componentType" : 5123,
      "count" : 576,
      "type" : "SCALAR"
    },
    {
      "bufferView" : 82,
      "min" : [ -5.72546, 19.9948, -5.72546 ],
      "max" : [ 5.72547, 20.6442, 5.72547 ],
      "componentType" : 5126,
      "count" : 258,
      "type" : "VEC3"
    },
    {
      "bufferView" : 83,
      "componentType" : 5126,
      "count" : 258,
      "type" : "VEC3"
    },
    {
      "bufferView" : 84,
      "componentType" : 5126,
      "count" : 258,
      "type" : "VEC4"
    },
    {
      "bufferView" : 85,
      "normalized" : true,
      "componentType" : 5121,
      "count" : 258,
      "type" : "VEC4"
    },
    {
      "bufferView" : 86,
      "componentType" : 5126,
      "count" : 258,
      "type" : "VEC2"
    },
    {
      "bufferView" : 87,
      "componentType" : 5126,
      "count" : 258,
      "type" : "VEC2"
    },
    {
      "bufferView" : 88,
      "componentType" : 5126,
      "count" : 258,
      "type" : "VEC2"
    },
    {
      "bufferView" : 89,
      "componentType" : 5126,
      "count" : 258,
      "type" : "VEC2"
    },
    {
      "bufferView" : 90,
      "componentType" : 5123,
      "count" : 372,
      "type" : "SCALAR"
    },
    {
      "bufferView" : 91,
      "min" : [ -10.5188, 5.83658, -10.5654 ],
      "max" : [ 9.06824, 20.5946, 10.1613 ],
      "componentType" : 5126,
      "count" : 208,
      "type" : "VEC3"
    },
    {
      "bufferView" : 92,
      "componentType" : 5126,
      "count" : 208,
      "type" : "VEC3"
    },
    {
      "bufferView" : 93,
      "componentType" : 5126,
      "count" : 208,
      "type" : "VEC4"
    },
    {
      "bufferView" : 94,
      "normalized" : true,
      "componentType" : 5121,
      "count" : 208,
      "type" : "VEC4"
    },
    {
      "bufferView" : 95,
      "componentType" : 5126,
      "count" : 208,
      "type" : "VEC2"
    },
    {
      "bufferView" : 96,
      "componentType" : 5126,
      "count" : 208,
      "type" : "VEC2"
    },
    {
      "bufferView" : 97,
      "componentType" : 5126,
      "count" : 208,
      "type" : "VEC2"
    },
    {
      "bufferView" : 98,
      "componentType" : 5126,
      "count" : 208,
      "type" : "VEC2"
    },
    {
      "bufferView" : 99,
      "componentType" : 5123,
      "count" : 6,
      "type" : "SCALAR"
    },
    {
      "bufferView" : 100,
      "min" : [ 3.34402, 9.77329, 3.79335 ],
      "max" : [ 3.44826, 10.4281, 4.40826 ],
      "componentType" : 5126,
      "count" : 4,
      "type" : "VEC3"
    },
    {
      "bufferView" : 101,
      "componentType" : 5126,
      "count" : 4,
      "type" : "VEC3"
    },
    {
      "bufferView" : 102,
      "componentType" : 5126,
      "count" : 4,
      "type" : "VEC4"
    },
    {
      "bufferView" : 103,
      "normalized" : true,
      "componentType" : 5121,
      "count" : 4,
      "type" : "VEC4"
    },
    {
      "bufferView" : 104,
      "componentType" : 5126,
      "count" : 4,
      "type" : "VEC2"
    },
    {
      "bufferView" : 105,
      "componentType" : 5126,
      "count" : 4,
      "type" : "VEC2"
    },
    {
      "bufferView" : 106,
      "componentType" : 5126,
      "count" : 4,
      "type" : "VEC2"
    },
    {
      "bufferView" : 107,
      "componentType" : 5126,
      "count" : 4,
      "type" : "VEC2"
    }
  ]
}
