{
  "asset" : {
    "generator" : "UE Viewer (umodel) build 1544 based",
    "version" : "2.0"
  },
  "scene" : 0,
  "scenes" : [
    {
      "nodes" : [ 0 ]
    }
  ],
  "nodes" : [
    {
      "name" : "SM_ENV_KNVLLG03_Yagura",
      "mesh" : 0
    }
  ],
  "materials" : [
    {
      "name" : "MI_ENV_KNVLLG03_WoodPlain_Natural_Lighter",
      "pbrMetallicRoughness" : {
        "baseColorFactor" : [ 0.3, 0.3, 0.3, 1.0 ],
        "metallicFactor" : 0.1,
        "roughnessFactor" : 0.5
      }
    },
    {
      "name" : "MI_ENV_LKNVLD_WoodPlain_Brown_A",
      "pbrMetallicRoughness" : {
        "baseColorFactor" : [ 0.9, 0.3, 0.3, 1.0 ],
        "metallicFactor" : 0.1,
        "roughnessFactor" : 0.5
      }
    },
    {
      "name" : "MI_ENV_KNVLLG03_WoodPlain_Black",
      "pbrMetallicRoughness" : {
        "baseColorFactor" : [ 0.3, 0.9, 0.3, 1.0 ],
        "metallicFactor" : 0.1,
        "roughnessFactor" : 0.5
      }
    },
    {
      "name" : "MI_ENV_KNVLLG03_WireMesh_B",
      "pbrMetallicRoughness" : {
        "baseColorFactor" : [ 0.3, 0.3, 0.9, 1.0 ],
        "metallicFactor" : 0.1,
        "roughnessFactor" : 0.5
      }
    },
    {
      "name" : "MI_ENV_KNVLLG03_WoodBoard_Natural_Lighter",
      "pbrMetallicRoughness" : {
        "baseColorFactor" : [ 0.9, 0.9, 0.9, 1.0 ],
        "metallicFactor" : 0.1,
        "roughnessFactor" : 0.5
      }
    }
  ],
  "meshes" : [
    {
      "primitives" : [
        {
          "attributes" : {
            "POSITION" : 1,
            "NORMAL" : 2,
            "TANGENT" : 3,
            "TEXCOORD_0" : 4,
            "TEXCOORD_1" : 5,
            "TEXCOORD_2" : 6,
            "TEXCOORD_3" : 7
          },
          "indices" : 0,
          "material" : 0
        },
        {
          "attributes" : {
            "POSITION" : 9,
            "NORMAL" : 10,
            "TANGENT" : 11,
            "TEXCOORD_0" : 12,
            "TEXCOORD_1" : 13,
            "TEXCOORD_2" : 14,
            "TEXCOORD_3" : 15
          },
          "indices" : 8,
          "material" : 1
        },
        {
          "attributes" : {
            "POSITION" : 17,
            "NORMAL" : 18,
            "TANGENT" : 19,
            "TEXCOORD_0" : 20,
            "TEXCOORD_1" : 21,
            "TEXCOORD_2" : 22,
            "TEXCOORD_3" : 23
          },
          "indices" : 16,
          "material" : 2
        },
        {
          "attributes" : {
            "POSITION" : 25,
            "NORMAL" : 26,
            "TANGENT" : 27,
            "TEXCOORD_0" : 28,
            "TEXCOORD_1" : 29,
            "TEXCOORD_2" : 30,
            "TEXCOORD_3" : 31
          },
          "indices" : 24,
          "material" : 3
        },
        {
          "attributes" : {
            "POSITION" : 33,
            "NORMAL" : 34,
            "TANGENT" : 35,
            "TEXCOORD_0" : 36,
            "TEXCOORD_1" : 37,
            "TEXCOORD_2" : 38,
            "TEXCOORD_3" : 39
          },
          "indices" : 32,
          "material" : 4
        }
      ],
      "name" : "SM_ENV_KNVLLG03_Yagura"
    }
  ],
  "buffers" : [
    {
      "uri" : "SM_ENV_KNVLLG03_Yagura.bin",
      "byteLength" : 720360
    }
  ],
  "bufferViews" : [
    {
      "buffer" : 0,
      "byteOffset" : 0,
      "byteLength" : 5472
    },
    {
      "buffer" : 0,
      "byteOffset" : 5472,
      "byteLength" : 15840
    },
    {
      "buffer" : 0,
      "byteOffset" : 21312,
      "byteLength" : 15840
    },
    {
      "buffer" : 0,
      "byteOffset" : 37152,
      "byteLength" : 21120
    },
    {
      "buffer" : 0,
      "byteOffset" : 58272,
      "byteLength" : 10560
    },
    {
      "buffer" : 0,
      "byteOffset" : 68832,
      "byteLength" : 10560
    },
    {
      "buffer" : 0,
      "byteOffset" : 79392,
      "byteLength" : 10560
    },
    {
      "buffer" : 0,
      "byteOffset" : 89952,
      "byteLength" : 10560
    },
    {
      "buffer" : 0,
      "byteOffset" : 100512,
      "byteLength" : 11616
    },
    {
      "buffer" : 0,
      "byteOffset" : 112128,
      "byteLength" : 37632
    },
    {
      "buffer" : 0,
      "byteOffset" : 149760,
      "byteLength" : 37632
    },
    {
      "buffer" : 0,
      "byteOffset" : 187392,
      "byteLength" : 50176
    },
    {
      "buffer" : 0,
      "byteOffset" : 237568,
      "byteLength" : 25088
    },
    {
      "buffer" : 0,
      "byteOffset" : 262656,
      "byteLength" : 25088
    },
    {
      "buffer" : 0,
      "byteOffset" : 287744,
      "byteLength" : 25088
    },
    {
      "buffer" : 0,
      "byteOffset" : 312832,
      "byteLength" : 25088
    },
    {
      "buffer" : 0,
      "byteOffset" : 337920,
      "byteLength" : 17592
    },
    {
      "buffer" : 0,
      "byteOffset" : 355512,
      "byteLength" : 59952
    },
    {
      "buffer" : 0,
      "byteOffset" : 415464,
      "byteLength" : 59952
    },
    {
      "buffer" : 0,
      "byteOffset" : 475416,
      "byteLength" : 79936
    },
    {
      "buffer" : 0,
      "byteOffset" : 555352,
      "byteLength" : 39968
    },
    {
      "buffer" : 0,
      "byteOffset" : 595320,
      "byteLength" : 39968
    },
    {
      "buffer" : 0,
      "byteOffset" : 635288,
      "byteLength" : 39968
    },
    {
      "buffer" : 0,
      "byteOffset" : 675256,
      "byteLength" : 39968
    },
    {
      "buffer" : 0,
      "byteOffset" : 715224,
      "byteLength" : 24
    },
    {
      "buffer" : 0,
      "byteOffset" : 715248,
      "byteLength" : 96
    },
    {
      "buffer" : 0,
      "byteOffset" : 715344,
      "byteLength" : 96
    },
    {
      "buffer" : 0,
      "byteOffset" : 715440,
      "byteLength" : 128
    },
    {
      "buffer" : 0,
      "byteOffset" : 715568,
      "byteLength" : 64
    },
    {
      "buffer" : 0,
      "byteOffset" : 715632,
      "byteLength" : 64
    },
    {
      "buffer" : 0,
      "byteOffset" : 715696,
      "byteLength" : 64
    },
    {
      "buffer" : 0,
      "byteOffset" : 715760,
      "byteLength" : 64
    },
    {
      "buffer" : 0,
      "byteOffset" : 715824,
      "byteLength" : 216
    },
    {
      "buffer" : 0,
      "byteOffset" : 716040,
      "byteLength" : 720
    },
    {
      "buffer" : 0,
      "byteOffset" : 716760,
      "byteLength" : 720
    },
    {
      "buffer" : 0,
      "byteOffset" : 717480,
      "byteLength" : 960
    },
    {
      "buffer" : 0,
      "byteOffset" : 718440,
      "byteLength" : 480
    },
    {
      "buffer" : 0,
      "byteOffset" : 718920,
      "byteLength" : 480
    },
    {
      "buffer" : 0,
      "byteOffset" : 719400,
      "byteLength" : 480
    },
    {
      "buffer" : 0,
      "byteOffset" : 719880,
      "byteLength" : 480
    }
  ],
  "accessors" : [
    {
      "bufferView" : 0,
      "componentType" : 5123,
      "count" : 2736,
      "type" : "SCALAR"
    },
    {
      "bufferView" : 1,
      "min" : [ -6.5, 1.08128, -6.5 ],
      "max" : [ 6.5, 18.0883, 6.5 ],
      "componentType" : 5126,
      "count" : 1320,
      "type" : "VEC3"
    },
    {
      "bufferView" : 2,
      "componentType" : 5126,
      "count" : 1320,
      "type" : "VEC3"
    },
    {
      "bufferView" : 3,
      "componentType" : 5126,
      "count" : 1320,
      "type" : "VEC4"
    },
    {
      "bufferView" : 4,
      "componentType" : 5126,
      "count" : 1320,
      "type" : "VEC2"
    },
    {
      "bufferView" : 5,
      "componentType" : 5126,
      "count" : 1320,
      "type" : "VEC2"
    },
    {
      "bufferView" : 6,
      "componentType" : 5126,
      "count" : 1320,
      "type" : "VEC2"
    },
    {
      "bufferView" : 7,
      "componentType" : 5126,
      "count" : 1320,
      "type" : "VEC2"
    },
    {
      "bufferView" : 8,
      "componentType" : 5123,
      "count" : 5808,
      "type" : "SCALAR"
    },
    {
      "bufferView" : 9,
      "min" : [ -7.24251, 13.8937, -7.24251 ],
      "max" : [ 7.24251, 18.0938, 7.24251 ],
      "componentType" : 5126,
      "count" : 3136,
      "type" : "VEC3"
    },
    {
      "bufferView" : 10,
      "componentType" : 5126,
      "count" : 3136,
      "type" : "VEC3"
    },
    {
      "bufferView" : 11,
      "componentType" : 5126,
      "count" : 3136,
      "type" : "VEC4"
    },
    {
      "bufferView" : 12,
      "componentType" : 5126,
      "count" : 3136,
      "type" : "VEC2"
    },
    {
      "bufferView" : 13,
      "componentType" : 5126,
      "count" : 3136,
      "type" : "VEC2"
    },
    {
      "bufferView" : 14,
      "componentType" : 5126,
      "count" : 3136,
      "type" : "VEC2"
    },
    {
      "bufferView" : 15,
      "componentType" : 5126,
      "count" : 3136,
      "type" : "VEC2"
    },
    {
      "bufferView" : 16,
      "componentType" : 5123,
      "count" : 8796,
      "type" : "SCALAR"
    },
    {
      "bufferView" : 17,
      "min" : [ -7.24251, -0.77737, -7.24251 ],
      "max" : [ 7.24251, 18.0938, 7.24251 ],
      "componentType" : 5126,
      "count" : 4996,
      "type" : "VEC3"
    },
    {
      "bufferView" : 18,
      "componentType" : 5126,
      "count" : 4996,
      "type" : "VEC3"
    },
    {
      "bufferView" : 19,
      "componentType" : 5126,
      "count" : 4996,
      "type" : "VEC4"
    },
    {
      "bufferView" : 20,
      "componentType" : 5126,
      "count" : 4996,
      "type" : "VEC2"
    },
    {
      "bufferView" : 21,
      "componentType" : 5126,
      "count" : 4996,
      "type" : "VEC2"
    },
    {
      "bufferView" : 22,
      "componentType" : 5126,
      "count" : 4996,
      "type" : "VEC2"
    },
    {
      "bufferView" : 23,
      "componentType" : 5126,
      "count" : 4996,
      "type" : "VEC2"
    },
    {
      "bufferView" : 24,
      "componentType" : 5123,
      "count" : 12,
      "type" : "SCALAR"
    },
    {
      "bufferView" : 25,
      "min" : [ -3.00351, 9.43928, -3.00351 ],
      "max" : [ 3.00351, 17.9452, 3.02716 ],
      "componentType" : 5126,
      "count" : 8,
      "type" : "VEC3"
    },
    {
      "bufferView" : 26,
      "componentType" : 5126,
      "count" : 8,
      "type" : "VEC3"
    },
    {
      "bufferView" : 27,
      "componentType" : 5126,
      "count" : 8,
      "type" : "VEC4"
    },
    {
      "bufferView" : 28,
      "componentType" : 5126,
      "count" : 8,
      "type" : "VEC2"
    },
    {
      "bufferView" : 29,
      "componentType" : 5126,
      "count" : 8,
      "type" : "VEC2"
    },
    {
      "bufferView" : 30,
      "componentType" : 5126,
      "count" : 8,
      "type" : "VEC2"
    },
    {
      "bufferView" : 31,
      "componentType" : 5126,
      "count" : 8,
      "type" : "VEC2"
    },
    {
      "bufferView" : 32,
      "componentType" : 5123,
      "count" : 108,
      "type" : "SCALAR"
    },
    {
      "bufferView" : 33,
      "min" : [ -5.96123, 9.05118, -5.96123 ],
      "max" : [ 5.96123, 18.0574, 5.96123 ],
      "componentType" : 5126,
      "count" : 60,
      "type" : "VEC3"
    },
    {
      "bufferView" : 34,
      "componentType" : 5126,
      "count" : 60,
      "type" : "VEC3"
    },
    {
      "bufferView" : 35,
      "componentType" : 5126,
      "count" : 60,
      "type" : "VEC4"
    },
    {
      "bufferView" : 36,
      "componentType" : 5126,
      "count" : 60,
      "type" : "VEC2"
    },
    {
      "bufferView" : 37,
      "componentType" : 5126,
      "count" : 60,
      "type" : "VEC2"
    },
    {
      "bufferView" : 38,
      "componentType" : 5126,
      "count" : 60,
      "type" : "VEC2"
    },
    {
      "bufferView" : 39,
      "componentType" : 5126,
      "count" : 60,
      "type" : "VEC2"
    }
  ]
}
