{
  "asset" : {
    "generator" : "UE Viewer (umodel) build 1544 based",
    "version" : "2.0"
  },
  "scene" : 0,
  "scenes" : [
    {
      "nodes" : [ 0 ]
    }
  ],
  "nodes" : [
    {
      "name" : "SM_ENV_KNVLLG03_AreaBorder",
      "mesh" : 0
    }
  ],
  "materials" : [
    {
      "name" : "WorldGridMaterial",
      "pbrMetallicRoughness" : {
        "baseColorFactor" : [ 0.3, 0.3, 0.3, 1.0 ],
        "metallicFactor" : 0.1,
        "roughnessFactor" : 0.5
      }
    },
    {
      "name" : "WorldGridMaterial",
      "pbrMetallicRoughness" : {
        "baseColorFactor" : [ 0.9, 0.3, 0.3, 1.0 ],
        "metallicFactor" : 0.1,
        "roughnessFactor" : 0.5
      }
    }
  ],
  "meshes" : [
    {
      "primitives" : [
        {
          "attributes" : {
            "POSITION" : 1,
            "NORMAL" : 2,
            "TANGENT" : 3,
            "TEXCOORD_0" : 4,
            "TEXCOORD_1" : 5,
            "TEXCOORD_2" : 6,
            "TEXCOORD_3" : 7,
            "TEXCOORD_4" : 8
          },
          "indices" : 0,
          "material" : 0
        },
        {
          "attributes" : {
            "POSITION" : 10,
            "NORMAL" : 11,
            "TANGENT" : 12,
            "TEXCOORD_0" : 13,
            "TEXCOORD_1" : 14,
            "TEXCOORD_2" : 15,
            "TEXCOORD_3" : 16,
            "TEXCOORD_4" : 17
          },
          "indices" : 9,
          "material" : 1
        }
      ],
      "name" : "SM_ENV_KNVLLG03_AreaBorder"
    }
  ],
  "buffers" : [
    {
      "uri" : "SM_ENV_KNVLLG03_AreaBorder.bin",
      "byteLength" : 9652
    }
  ],
  "bufferViews" : [
    {
      "buffer" : 0,
      "byteOffset" : 0,
      "byteLength" : 360
    },
    {
      "buffer" : 0,
      "byteOffset" : 360,
      "byteLength" : 1344
    },
    {
      "buffer" : 0,
      "byteOffset" : 1704,
      "byteLength" : 1344
    },
    {
      "buffer" : 0,
      "byteOffset" : 3048,
      "byteLength" : 1792
    },
    {
      "buffer" : 0,
      "byteOffset" : 4840,
      "byteLength" : 896
    },
    {
      "buffer" : 0,
      "byteOffset" : 5736,
      "byteLength" : 896
    },
    {
      "buffer" : 0,
      "byteOffset" : 6632,
      "byteLength" : 896
    },
    {
      "buffer" : 0,
      "byteOffset" : 7528,
      "byteLength" : 896
    },
    {
      "buffer" : 0,
      "byteOffset" : 8424,
      "byteLength" : 896
    },
    {
      "buffer" : 0,
      "byteOffset" : 9320,
      "byteLength" : 12
    },
    {
      "buffer" : 0,
      "byteOffset" : 9332,
      "byteLength" : 48
    },
    {
      "buffer" : 0,
      "byteOffset" : 9380,
      "byteLength" : 48
    },
    {
      "buffer" : 0,
      "byteOffset" : 9428,
      "byteLength" : 64
    },
    {
      "buffer" : 0,
      "byteOffset" : 9492,
      "byteLength" : 32
    },
    {
      "buffer" : 0,
      "byteOffset" : 9524,
      "byteLength" : 32
    },
    {
      "buffer" : 0,
      "byteOffset" : 9556,
      "byteLength" : 32
    },
    {
      "buffer" : 0,
      "byteOffset" : 9588,
      "byteLength" : 32
    },
    {
      "buffer" : 0,
      "byteOffset" : 9620,
      "byteLength" : 32
    }
  ],
  "accessors" : [
    {
      "bufferView" : 0,
      "componentType" : 5123,
      "count" : 180,
      "type" : "SCALAR"
    },
    {
      "bufferView" : 1,
      "min" : [ -70.8062, -13.4352, -83.524 ],
      "max" : [ 65.8314, 71.732, 106.575 ],
      "componentType" : 5126,
      "count" : 112,
      "type" : "VEC3"
    },
    {
      "bufferView" : 2,
      "componentType" : 5126,
      "count" : 112,
      "type" : "VEC3"
    },
    {
      "bufferView" : 3,
      "componentType" : 5126,
      "count" : 112,
      "type" : "VEC4"
    },
    {
      "bufferView" : 4,
      "componentType" : 5126,
      "count" : 112,
      "type" : "VEC2"
    },
    {
      "bufferView" : 5,
      "componentType" : 5126,
      "count" : 112,
      "type" : "VEC2"
    },
    {
      "bufferView" : 6,
      "componentType" : 5126,
      "count" : 112,
      "type" : "VEC2"
    },
    {
      "bufferView" : 7,
      "componentType" : 5126,
      "count" : 112,
      "type" : "VEC2"
    },
    {
      "bufferView" : 8,
      "componentType" : 5126,
      "count" : 112,
      "type" : "VEC2"
    },
    {
      "bufferView" : 9,
      "componentType" : 5123,
      "count" : 6,
      "type" : "SCALAR"
    },
    {
      "bufferView" : 10,
      "min" : [ -27.2882, -13.4348, 41.6814 ],
      "max" : [ -25.897, 71.7318, 46.9044 ],
      "componentType" : 5126,
      "count" : 4,
      "type" : "VEC3"
    },
    {
      "bufferView" : 11,
      "componentType" : 5126,
      "count" : 4,
      "type" : "VEC3"
    },
    {
      "bufferView" : 12,
      "componentType" : 5126,
      "count" : 4,
      "type" : "VEC4"
    },
    {
      "bufferView" : 13,
      "componentType" : 5126,
      "count" : 4,
      "type" : "VEC2"
    },
    {
      "bufferView" : 14,
      "componentType" : 5126,
      "count" : 4,
      "type" : "VEC2"
    },
    {
      "bufferView" : 15,
      "componentType" : 5126,
      "count" : 4,
      "type" : "VEC2"
    },
    {
      "bufferView" : 16,
      "componentType" : 5126,
      "count" : 4,
      "type" : "VEC2"
    },
    {
      "bufferView" : 17,
      "componentType" : 5126,
      "count" : 4,
      "type" : "VEC2"
    }
  ]
}
