{
  "asset" : {
    "generator" : "UE Viewer (umodel) build 1544 based",
    "version" : "2.0"
  },
  "scene" : 0,
  "scenes" : [
    {
      "nodes" : [ 0 ]
    }
  ],
  "nodes" : [
    {
      "name" : "SM_ENV_KNVLLG03_Bridge_StraightC",
      "mesh" : 0
    }
  ],
  "materials" : [
    {
      "name" : "MI_ENV_LKNVLD_WoodPlain_Red",
      "pbrMetallicRoughness" : {
        "baseColorFactor" : [ 0.3, 0.3, 0.3, 1.0 ],
        "metallicFactor" : 0.1,
        "roughnessFactor" : 0.5
      }
    },
    {
      "name" : "MI_ENV_LKNVLD_WoodWallSet",
      "pbrMetallicRoughness" : {
        "baseColorFactor" : [ 0.9, 0.3, 0.3, 1.0 ],
        "metallicFactor" : 0.1,
        "roughnessFactor" : 0.5
      }
    },
    {
      "name" : "MI_ENV_LKNVLD_Signboard_A",
      "pbrMetallicRoughness" : {
        "baseColorFactor" : [ 0.3, 0.9, 0.3, 1.0 ],
        "metallicFactor" : 0.1,
        "roughnessFactor" : 0.5
      }
    },
    {
      "name" : "MI_ENV_LKNVLD_Eaves_B",
      "pbrMetallicRoughness" : {
        "baseColorFactor" : [ 0.3, 0.3, 0.9, 1.0 ],
        "metallicFactor" : 0.1,
        "roughnessFactor" : 0.5
      }
    },
    {
      "name" : "MI_ENV_LKNVLD_StoneTrim_Ground",
      "pbrMetallicRoughness" : {
        "baseColorFactor" : [ 0.9, 0.9, 0.9, 1.0 ],
        "metallicFactor" : 0.1,
        "roughnessFactor" : 0.5
      }
    },
    {
      "name" : "MI_ENV_LKNVLD_WoodBoard_Natural_Lighter",
      "pbrMetallicRoughness" : {
        "baseColorFactor" : [ 0.9, 0.9, 0.3, 1.0 ],
        "metallicFactor" : 0.1,
        "roughnessFactor" : 0.5
      }
    }
  ],
  "meshes" : [
    {
      "primitives" : [
        {
          "attributes" : {
            "POSITION" : 1,
            "NORMAL" : 2,
            "TANGENT" : 3,
            "TEXCOORD_0" : 4,
            "TEXCOORD_1" : 5,
            "TEXCOORD_2" : 6,
            "TEXCOORD_3" : 7
          },
          "indices" : 0,
          "material" : 0
        },
        {
          "attributes" : {
            "POSITION" : 9,
            "NORMAL" : 10,
            "TANGENT" : 11,
            "TEXCOORD_0" : 12,
            "TEXCOORD_1" : 13,
            "TEXCOORD_2" : 14,
            "TEXCOORD_3" : 15
          },
          "indices" : 8,
          "material" : 1
        },
        {
          "attributes" : {
            "POSITION" : 17,
            "NORMAL" : 18,
            "TANGENT" : 19,
            "TEXCOORD_0" : 20,
            "TEXCOORD_1" : 21,
            "TEXCOORD_2" : 22,
            "TEXCOORD_3" : 23
          },
          "indices" : 16,
          "material" : 2
        },
        {
          "attributes" : {
            "POSITION" : 25,
            "NORMAL" : 26,
            "TANGENT" : 27,
            "TEXCOORD_0" : 28,
            "TEXCOORD_1" : 29,
            "TEXCOORD_2" : 30,
            "TEXCOORD_3" : 31
          },
          "indices" : 24,
          "material" : 3
        },
        {
          "attributes" : {
            "POSITION" : 33,
            "NORMAL" : 34,
            "TANGENT" : 35,
            "TEXCOORD_0" : 36,
            "TEXCOORD_1" : 37,
            "TEXCOORD_2" : 38,
            "TEXCOORD_3" : 39
          },
          "indices" : 32,
          "material" : 4
        },
        {
          "attributes" : {
            "POSITION" : 41,
            "NORMAL" : 42,
            "TANGENT" : 43,
            "TEXCOORD_0" : 44,
            "TEXCOORD_1" : 45,
            "TEXCOORD_2" : 46,
            "TEXCOORD_3" : 47
          },
          "indices" : 40,
          "material" : 5
        }
      ],
      "name" : "SM_ENV_KNVLLG03_Bridge_StraightC"
    }
  ],
  "buffers" : [
    {
      "uri" : "SM_ENV_KNVLLG03_Bridge_StraightC.bin",
      "byteLength" : 503808
    }
  ],
  "bufferViews" : [
    {
      "buffer" : 0,
      "byteOffset" : 0,
      "byteLength" : 12600
    },
    {
      "buffer" : 0,
      "byteOffset" : 12600,
      "byteLength" : 39576
    },
    {
      "buffer" : 0,
      "byteOffset" : 52176,
      "byteLength" : 39576
    },
    {
      "buffer" : 0,
      "byteOffset" : 91752,
      "byteLength" : 52768
    },
    {
      "buffer" : 0,
      "byteOffset" : 144520,
      "byteLength" : 26384
    },
    {
      "buffer" : 0,
      "byteOffset" : 170904,
      "byteLength" : 26384
    },
    {
      "buffer" : 0,
      "byteOffset" : 197288,
      "byteLength" : 26384
    },
    {
      "buffer" : 0,
      "byteOffset" : 223672,
      "byteLength" : 26384
    },
    {
      "buffer" : 0,
      "byteOffset" : 250056,
      "byteLength" : 5976
    },
    {
      "buffer" : 0,
      "byteOffset" : 256032,
      "byteLength" : 15312
    },
    {
      "buffer" : 0,
      "byteOffset" : 271344,
      "byteLength" : 15312
    },
    {
      "buffer" : 0,
      "byteOffset" : 286656,
      "byteLength" : 20416
    },
    {
      "buffer" : 0,
      "byteOffset" : 307072,
      "byteLength" : 10208
    },
    {
      "buffer" : 0,
      "byteOffset" : 317280,
      "byteLength" : 10208
    },
    {
      "buffer" : 0,
      "byteOffset" : 327488,
      "byteLength" : 10208
    },
    {
      "buffer" : 0,
      "byteOffset" : 337696,
      "byteLength" : 10208
    },
    {
      "buffer" : 0,
      "byteOffset" : 347904,
      "byteLength" : 6780
    },
    {
      "buffer" : 0,
      "byteOffset" : 354684,
      "byteLength" : 16008
    },
    {
      "buffer" : 0,
      "byteOffset" : 370692,
      "byteLength" : 16008
    },
    {
      "buffer" : 0,
      "byteOffset" : 386700,
      "byteLength" : 21344
    },
    {
      "buffer" : 0,
      "byteOffset" : 408044,
      "byteLength" : 10672
    },
    {
      "buffer" : 0,
      "byteOffset" : 418716,
      "byteLength" : 10672
    },
    {
      "buffer" : 0,
      "byteOffset" : 429388,
      "byteLength" : 10672
    },
    {
      "buffer" : 0,
      "byteOffset" : 440060,
      "byteLength" : 10672
    },
    {
      "buffer" : 0,
      "byteOffset" : 450732,
      "byteLength" : 1620
    },
    {
      "buffer" : 0,
      "byteOffset" : 452352,
      "byteLength" : 4104
    },
    {
      "buffer" : 0,
      "byteOffset" : 456456,
      "byteLength" : 4104
    },
    {
      "buffer" : 0,
      "byteOffset" : 460560,
      "byteLength" : 5472
    },
    {
      "buffer" : 0,
      "byteOffset" : 466032,
      "byteLength" : 2736
    },
    {
      "buffer" : 0,
      "byteOffset" : 468768,
      "byteLength" : 2736
    },
    {
      "buffer" : 0,
      "byteOffset" : 471504,
      "byteLength" : 2736
    },
    {
      "buffer" : 0,
      "byteOffset" : 474240,
      "byteLength" : 2736
    },
    {
      "buffer" : 0,
      "byteOffset" : 476976,
      "byteLength" : 2628
    },
    {
      "buffer" : 0,
      "byteOffset" : 479604,
      "byteLength" : 3984
    },
    {
      "buffer" : 0,
      "byteOffset" : 483588,
      "byteLength" : 3984
    },
    {
      "buffer" : 0,
      "byteOffset" : 487572,
      "byteLength" : 5312
    },
    {
      "buffer" : 0,
      "byteOffset" : 492884,
      "byteLength" : 2656
    },
    {
      "buffer" : 0,
      "byteOffset" : 495540,
      "byteLength" : 2656
    },
    {
      "buffer" : 0,
      "byteOffset" : 498196,
      "byteLength" : 2656
    },
    {
      "buffer" : 0,
      "byteOffset" : 500852,
      "byteLength" : 2656
    },
    {
      "buffer" : 0,
      "byteOffset" : 503508,
      "byteLength" : 12
    },
    {
      "buffer" : 0,
      "byteOffset" : 503520,
      "byteLength" : 48
    },
    {
      "buffer" : 0,
      "byteOffset" : 503568,
      "byteLength" : 48
    },
    {
      "buffer" : 0,
      "byteOffset" : 503616,
      "byteLength" : 64
    },
    {
      "buffer" : 0,
      "byteOffset" : 503680,
      "byteLength" : 32
    },
    {
      "buffer" : 0,
      "byteOffset" : 503712,
      "byteLength" : 32
    },
    {
      "buffer" : 0,
      "byteOffset" : 503744,
      "byteLength" : 32
    },
    {
      "buffer" : 0,
      "byteOffset" : 503776,
      "byteLength" : 32
    }
  ],
  "accessors" : [
    {
      "bufferView" : 0,
      "componentType" : 5123,
      "count" : 6300,
      "type" : "SCALAR"
    },
    {
      "bufferView" : 1,
      "min" : [ 60.8797, 0.723819, -80.2289 ],
      "max" : [ 66.4306, 7.59998, -50.3549 ],
      "componentType" : 5126,
      "count" : 3298,
      "type" : "VEC3"
    },
    {
      "bufferView" : 2,
      "componentType" : 5126,
      "count" : 3298,
      "type" : "VEC3"
    },
    {
      "bufferView" : 3,
      "componentType" : 5126,
      "count" : 3298,
      "type" : "VEC4"
    },
    {
      "bufferView" : 4,
      "componentType" : 5126,
      "count" : 3298,
      "type" : "VEC2"
    },
    {
      "bufferView" : 5,
      "componentType" : 5126,
      "count" : 3298,
      "type" : "VEC2"
    },
    {
      "bufferView" : 6,
      "componentType" : 5126,
      "count" : 3298,
      "type" : "VEC2"
    },
    {
      "bufferView" : 7,
      "componentType" : 5126,
      "count" : 3298,
      "type" : "VEC2"
    },
    {
      "bufferView" : 8,
      "componentType" : 5123,
      "count" : 2988,
      "type" : "SCALAR"
    },
    {
      "bufferView" : 9,
      "min" : [ 61.4693, 0.323819, -80.1726 ],
      "max" : [ 66.4075, 6.19998, -50.396 ],
      "componentType" : 5126,
      "count" : 1276,
      "type" : "VEC3"
    },
    {
      "bufferView" : 10,
      "componentType" : 5126,
      "count" : 1276,
      "type" : "VEC3"
    },
    {
      "bufferView" : 11,
      "componentType" : 5126,
      "count" : 1276,
      "type" : "VEC4"
    },
    {
      "bufferView" : 12,
      "componentType" : 5126,
      "count" : 1276,
      "type" : "VEC2"
    },
    {
      "bufferView" : 13,
      "componentType" : 5126,
      "count" : 1276,
      "type" : "VEC2"
    },
    {
      "bufferView" : 14,
      "componentType" : 5126,
      "count" : 1276,
      "type" : "VEC2"
    },
    {
      "bufferView" : 15,
      "componentType" : 5126,
      "count" : 1276,
      "type" : "VEC2"
    },
    {
      "bufferView" : 16,
      "componentType" : 5123,
      "count" : 3390,
      "type" : "SCALAR"
    },
    {
      "bufferView" : 17,
      "min" : [ 60.847, 4.8, -80.2289 ],
      "max" : [ 66.428, 8.11998, -53.4297 ],
      "componentType" : 5126,
      "count" : 1334,
      "type" : "VEC3"
    },
    {
      "bufferView" : 18,
      "componentType" : 5126,
      "count" : 1334,
      "type" : "VEC3"
    },
    {
      "bufferView" : 19,
      "componentType" : 5126,
      "count" : 1334,
      "type" : "VEC4"
    },
    {
      "bufferView" : 20,
      "componentType" : 5126,
      "count" : 1334,
      "type" : "VEC2"
    },
    {
      "bufferView" : 21,
      "componentType" : 5126,
      "count" : 1334,
      "type" : "VEC2"
    },
    {
      "bufferView" : 22,
      "componentType" : 5126,
      "count" : 1334,
      "type" : "VEC2"
    },
    {
      "bufferView" : 23,
      "componentType" : 5126,
      "count" : 1334,
      "type" : "VEC2"
    },
    {
      "bufferView" : 24,
      "componentType" : 5123,
      "count" : 810,
      "type" : "SCALAR"
    },
    {
      "bufferView" : 25,
      "min" : [ 60.847, 5.07002, -80.0707 ],
      "max" : [ 61.7845, 5.6, -53.5879 ],
      "componentType" : 5126,
      "count" : 342,
      "type" : "VEC3"
    },
    {
      "bufferView" : 26,
      "componentType" : 5126,
      "count" : 342,
      "type" : "VEC3"
    },
    {
      "bufferView" : 27,
      "componentType" : 5126,
      "count" : 342,
      "type" : "VEC4"
    },
    {
      "bufferView" : 28,
      "componentType" : 5126,
      "count" : 342,
      "type" : "VEC2"
    },
    {
      "bufferView" : 29,
      "componentType" : 5126,
      "count" : 342,
      "type" : "VEC2"
    },
    {
      "bufferView" : 30,
      "componentType" : 5126,
      "count" : 342,
      "type" : "VEC2"
    },
    {
      "bufferView" : 31,
      "componentType" : 5126,
      "count" : 342,
      "type" : "VEC2"
    },
    {
      "bufferView" : 32,
      "componentType" : 5123,
      "count" : 1314,
      "type" : "SCALAR"
    },
    {
      "bufferView" : 33,
      "min" : [ 61.6514, -0.210353, -80.2203 ],
      "max" : [ 61.9294, 0.323823, -50.396 ],
      "componentType" : 5126,
      "count" : 332,
      "type" : "VEC3"
    },
    {
      "bufferView" : 34,
      "componentType" : 5126,
      "count" : 332,
      "type" : "VEC3"
    },
    {
      "bufferView" : 35,
      "componentType" : 5126,
      "count" : 332,
      "type" : "VEC4"
    },
    {
      "bufferView" : 36,
      "componentType" : 5126,
      "count" : 332,
      "type" : "VEC2"
    },
    {
      "bufferView" : 37,
      "componentType" : 5126,
      "count" : 332,
      "type" : "VEC2"
    },
    {
      "bufferView" : 38,
      "componentType" : 5126,
      "count" : 332,
      "type" : "VEC2"
    },
    {
      "bufferView" : 39,
      "componentType" : 5126,
      "count" : 332,
      "type" : "VEC2"
    },
    {
      "bufferView" : 40,
      "componentType" : 5123,
      "count" : 6,
      "type" : "SCALAR"
    },
    {
      "bufferView" : 41,
      "min" : [ 61.9306, 6, -79.9184 ],
      "max" : [ 65.9306, 6, -50.386 ],
      "componentType" : 5126,
      "count" : 4,
      "type" : "VEC3"
    },
    {
      "bufferView" : 42,
      "componentType" : 5126,
      "count" : 4,
      "type" : "VEC3"
    },
    {
      "bufferView" : 43,
      "componentType" : 5126,
      "count" : 4,
      "type" : "VEC4"
    },
    {
      "bufferView" : 44,
      "componentType" : 5126,
      "count" : 4,
      "type" : "VEC2"
    },
    {
      "bufferView" : 45,
      "componentType" : 5126,
      "count" : 4,
      "type" : "VEC2"
    },
    {
      "bufferView" : 46,
      "componentType" : 5126,
      "count" : 4,
      "type" : "VEC2"
    },
    {
      "bufferView" : 47,
      "componentType" : 5126,
      "count" : 4,
      "type" : "VEC2"
    }
  ]
}
