{
  "asset" : {
    "generator" : "UE Viewer (umodel) build 1544 based",
    "version" : "2.0"
  },
  "scene" : 0,
  "scenes" : [
    {
      "nodes" : [ 0 ]
    }
  ],
  "nodes" : [
    {
      "name" : "SM_ENV_KNVLLG03_Bridge_PlatformA",
      "mesh" : 0
    }
  ],
  "materials" : [
    {
      "name" : "MI_ENV_LKNVLD_WoodWallSet",
      "pbrMetallicRoughness" : {
        "baseColorFactor" : [ 0.3, 0.3, 0.3, 1.0 ],
        "metallicFactor" : 0.1,
        "roughnessFactor" : 0.5
      }
    },
    {
      "name" : "MI_ENV_LKNVLD_WoodPlain_Red",
      "pbrMetallicRoughness" : {
        "baseColorFactor" : [ 0.9, 0.3, 0.3, 1.0 ],
        "metallicFactor" : 0.1,
        "roughnessFactor" : 0.5
      }
    },
    {
      "name" : "MI_T_ENV_LKNVLD_StoneTrim",
      "pbrMetallicRoughness" : {
        "baseColorFactor" : [ 0.3, 0.9, 0.3, 1.0 ],
        "metallicFactor" : 0.1,
        "roughnessFactor" : 0.5
      }
    },
    {
      "name" : "MI_ENV_LKNVLD_WoodWallSet_Red",
      "pbrMetallicRoughness" : {
        "baseColorFactor" : [ 0.3, 0.3, 0.9, 1.0 ],
        "metallicFactor" : 0.1,
        "roughnessFactor" : 0.5
      }
    },
    {
      "name" : "MI_ENV_LKNVLD_Eaves_B",
      "pbrMetallicRoughness" : {
        "baseColorFactor" : [ 0.9, 0.9, 0.9, 1.0 ],
        "metallicFactor" : 0.1,
        "roughnessFactor" : 0.5
      }
    },
    {
      "name" : "MI_ENV_LKNVLD_Signboard_A",
      "pbrMetallicRoughness" : {
        "baseColorFactor" : [ 0.9, 0.9, 0.3, 1.0 ],
        "metallicFactor" : 0.1,
        "roughnessFactor" : 0.5
      }
    },
    {
      "name" : "MI_ENV_LKNVLD_WoodBoard_Natural_Lighter",
      "pbrMetallicRoughness" : {
        "baseColorFactor" : [ 0.9, 0.3, 0.9, 1.0 ],
        "metallicFactor" : 0.1,
        "roughnessFactor" : 0.5
      }
    },
    {
      "name" : "MI_ENV_LKNVLD_StoneTrim_Ground",
      "pbrMetallicRoughness" : {
        "baseColorFactor" : [ 0.3, 0.9, 0.9, 1.0 ],
        "metallicFactor" : 0.1,
        "roughnessFactor" : 0.5
      }
    }
  ],
  "meshes" : [
    {
      "primitives" : [
        {
          "attributes" : {
            "POSITION" : 1,
            "NORMAL" : 2,
            "TANGENT" : 3,
            "TEXCOORD_0" : 4,
            "TEXCOORD_1" : 5,
            "TEXCOORD_2" : 6,
            "TEXCOORD_3" : 7
          },
          "indices" : 0,
          "material" : 0
        },
        {
          "attributes" : {
            "POSITION" : 9,
            "NORMAL" : 10,
            "TANGENT" : 11,
            "TEXCOORD_0" : 12,
            "TEXCOORD_1" : 13,
            "TEXCOORD_2" : 14,
            "TEXCOORD_3" : 15
          },
          "indices" : 8,
          "material" : 1
        },
        {
          "attributes" : {
            "POSITION" : 17,
            "NORMAL" : 18,
            "TANGENT" : 19,
            "TEXCOORD_0" : 20,
            "TEXCOORD_1" : 21,
            "TEXCOORD_2" : 22,
            "TEXCOORD_3" : 23
          },
          "indices" : 16,
          "material" : 2
        },
        {
          "attributes" : {
            "POSITION" : 25,
            "NORMAL" : 26,
            "TANGENT" : 27,
            "TEXCOORD_0" : 28,
            "TEXCOORD_1" : 29,
            "TEXCOORD_2" : 30,
            "TEXCOORD_3" : 31
          },
          "indices" : 24,
          "material" : 3
        },
        {
          "attributes" : {
            "POSITION" : 33,
            "NORMAL" : 34,
            "TANGENT" : 35,
            "TEXCOORD_0" : 36,
            "TEXCOORD_1" : 37,
            "TEXCOORD_2" : 38,
            "TEXCOORD_3" : 39
          },
          "indices" : 32,
          "material" : 4
        },
        {
          "attributes" : {
            "POSITION" : 41,
            "NORMAL" : 42,
            "TANGENT" : 43,
            "TEXCOORD_0" : 44,
            "TEXCOORD_1" : 45,
            "TEXCOORD_2" : 46,
            "TEXCOORD_3" : 47
          },
          "indices" : 40,
          "material" : 5
        },
        {
          "attributes" : {
            "POSITION" : 49,
            "NORMAL" : 50,
            "TANGENT" : 51,
            "TEXCOORD_0" : 52,
            "TEXCOORD_1" : 53,
            "TEXCOORD_2" : 54,
            "TEXCOORD_3" : 55
          },
          "indices" : 48,
          "material" : 6
        },
        {
          "attributes" : {
            "POSITION" : 57,
            "NORMAL" : 58,
            "TANGENT" : 59,
            "TEXCOORD_0" : 60,
            "TEXCOORD_1" : 61,
            "TEXCOORD_2" : 62,
            "TEXCOORD_3" : 63
          },
          "indices" : 56,
          "material" : 7
        }
      ],
      "name" : "SM_ENV_KNVLLG03_Bridge_PlatformA"
    }
  ],
  "buffers" : [
    {
      "uri" : "SM_ENV_KNVLLG03_Bridge_PlatformA.bin",
      "byteLength" : 666956
    }
  ],
  "bufferViews" : [
    {
      "buffer" : 0,
      "byteOffset" : 0,
      "byteLength" : 9828
    },
    {
      "buffer" : 0,
      "byteOffset" : 9828,
      "byteLength" : 23760
    },
    {
      "buffer" : 0,
      "byteOffset" : 33588,
      "byteLength" : 23760
    },
    {
      "buffer" : 0,
      "byteOffset" : 57348,
      "byteLength" : 31680
    },
    {
      "buffer" : 0,
      "byteOffset" : 89028,
      "byteLength" : 15840
    },
    {
      "buffer" : 0,
      "byteOffset" : 104868,
      "byteLength" : 15840
    },
    {
      "buffer" : 0,
      "byteOffset" : 120708,
      "byteLength" : 15840
    },
    {
      "buffer" : 0,
      "byteOffset" : 136548,
      "byteLength" : 15840
    },
    {
      "buffer" : 0,
      "byteOffset" : 152388,
      "byteLength" : 15864
    },
    {
      "buffer" : 0,
      "byteOffset" : 168252,
      "byteLength" : 49776
    },
    {
      "buffer" : 0,
      "byteOffset" : 218028,
      "byteLength" : 49776
    },
    {
      "buffer" : 0,
      "byteOffset" : 267804,
      "byteLength" : 66368
    },
    {
      "buffer" : 0,
      "byteOffset" : 334172,
      "byteLength" : 33184
    },
    {
      "buffer" : 0,
      "byteOffset" : 367356,
      "byteLength" : 33184
    },
    {
      "buffer" : 0,
      "byteOffset" : 400540,
      "byteLength" : 33184
    },
    {
      "buffer" : 0,
      "byteOffset" : 433724,
      "byteLength" : 33184
    },
    {
      "buffer" : 0,
      "byteOffset" : 466908,
      "byteLength" : 2856
    },
    {
      "buffer" : 0,
      "byteOffset" : 469764,
      "byteLength" : 4560
    },
    {
      "buffer" : 0,
      "byteOffset" : 474324,
      "byteLength" : 4560
    },
    {
      "buffer" : 0,
      "byteOffset" : 478884,
      "byteLength" : 6080
    },
    {
      "buffer" : 0,
      "byteOffset" : 484964,
      "byteLength" : 3040
    },
    {
      "buffer" : 0,
      "byteOffset" : 488004,
      "byteLength" : 3040
    },
    {
      "buffer" : 0,
      "byteOffset" : 491044,
      "byteLength" : 3040
    },
    {
      "buffer" : 0,
      "byteOffset" : 494084,
      "byteLength" : 3040
    },
    {
      "buffer" : 0,
      "byteOffset" : 497124,
      "byteLength" : 708
    },
    {
      "buffer" : 0,
      "byteOffset" : 497832,
      "byteLength" : 1512
    },
    {
      "buffer" : 0,
      "byteOffset" : 499344,
      "byteLength" : 1512
    },
    {
      "buffer" : 0,
      "byteOffset" : 500856,
      "byteLength" : 2016
    },
    {
      "buffer" : 0,
      "byteOffset" : 502872,
      "byteLength" : 1008
    },
    {
      "buffer" : 0,
      "byteOffset" : 503880,
      "byteLength" : 1008
    },
    {
      "buffer" : 0,
      "byteOffset" : 504888,
      "byteLength" : 1008
    },
    {
      "buffer" : 0,
      "byteOffset" : 505896,
      "byteLength" : 1008
    },
    {
      "buffer" : 0,
      "byteOffset" : 506904,
      "byteLength" : 1476
    },
    {
      "buffer" : 0,
      "byteOffset" : 508380,
      "byteLength" : 3816
    },
    {
      "buffer" : 0,
      "byteOffset" : 512196,
      "byteLength" : 3816
    },
    {
      "buffer" : 0,
      "byteOffset" : 516012,
      "byteLength" : 5088
    },
    {
      "buffer" : 0,
      "byteOffset" : 521100,
      "byteLength" : 2544
    },
    {
      "buffer" : 0,
      "byteOffset" : 523644,
      "byteLength" : 2544
    },
    {
      "buffer" : 0,
      "byteOffset" : 526188,
      "byteLength" : 2544
    },
    {
      "buffer" : 0,
      "byteOffset" : 528732,
      "byteLength" : 2544
    },
    {
      "buffer" : 0,
      "byteOffset" : 531276,
      "byteLength" : 8856
    },
    {
      "buffer" : 0,
      "byteOffset" : 540132,
      "byteLength" : 19740
    },
    {
      "buffer" : 0,
      "byteOffset" : 559872,
      "byteLength" : 19740
    },
    {
      "buffer" : 0,
      "byteOffset" : 579612,
      "byteLength" : 26320
    },
    {
      "buffer" : 0,
      "byteOffset" : 605932,
      "byteLength" : 13160
    },
    {
      "buffer" : 0,
      "byteOffset" : 619092,
      "byteLength" : 13160
    },
    {
      "buffer" : 0,
      "byteOffset" : 632252,
      "byteLength" : 13160
    },
    {
      "buffer" : 0,
      "byteOffset" : 645412,
      "byteLength" : 13160
    },
    {
      "buffer" : 0,
      "byteOffset" : 658572,
      "byteLength" : 104
    },
    {
      "buffer" : 0,
      "byteOffset" : 658676,
      "byteLength" : 360
    },
    {
      "buffer" : 0,
      "byteOffset" : 659036,
      "byteLength" : 360
    },
    {
      "buffer" : 0,
      "byteOffset" : 659396,
      "byteLength" : 480
    },
    {
      "buffer" : 0,
      "byteOffset" : 659876,
      "byteLength" : 240
    },
    {
      "buffer" : 0,
      "byteOffset" : 660116,
      "byteLength" : 240
    },
    {
      "buffer" : 0,
      "byteOffset" : 660356,
      "byteLength" : 240
    },
    {
      "buffer" : 0,
      "byteOffset" : 660596,
      "byteLength" : 240
    },
    {
      "buffer" : 0,
      "byteOffset" : 660836,
      "byteLength" : 648
    },
    {
      "buffer" : 0,
      "byteOffset" : 661484,
      "byteLength" : 912
    },
    {
      "buffer" : 0,
      "byteOffset" : 662396,
      "byteLength" : 912
    },
    {
      "buffer" : 0,
      "byteOffset" : 663308,
      "byteLength" : 1216
    },
    {
      "buffer" : 0,
      "byteOffset" : 664524,
      "byteLength" : 608
    },
    {
      "buffer" : 0,
      "byteOffset" : 665132,
      "byteLength" : 608
    },
    {
      "buffer" : 0,
      "byteOffset" : 665740,
      "byteLength" : 608
    },
    {
      "buffer" : 0,
      "byteOffset" : 666348,
      "byteLength" : 608
    }
  ],
  "accessors" : [
    {
      "bufferView" : 0,
      "componentType" : 5123,
      "count" : 4914,
      "type" : "SCALAR"
    },
    {
      "bufferView" : 1,
      "min" : [ -58.0217, 0.265091, -17.9343 ],
      "max" : [ -17.4839, 6.2, 48.8214 ],
      "componentType" : 5126,
      "count" : 1980,
      "type" : "VEC3"
    },
    {
      "bufferView" : 2,
      "componentType" : 5126,
      "count" : 1980,
      "type" : "VEC3"
    },
    {
      "bufferView" : 3,
      "componentType" : 5126,
      "count" : 1980,
      "type" : "VEC4"
    },
    {
      "bufferView" : 4,
      "componentType" : 5126,
      "count" : 1980,
      "type" : "VEC2"
    },
    {
      "bufferView" : 5,
      "componentType" : 5126,
      "count" : 1980,
      "type" : "VEC2"
    },
    {
      "bufferView" : 6,
      "componentType" : 5126,
      "count" : 1980,
      "type" : "VEC2"
    },
    {
      "bufferView" : 7,
      "componentType" : 5126,
      "count" : 1980,
      "type" : "VEC2"
    },
    {
      "bufferView" : 8,
      "componentType" : 5123,
      "count" : 7932,
      "type" : "SCALAR"
    },
    {
      "bufferView" : 9,
      "min" : [ -58.1273, 0.699998, -18.5605 ],
      "max" : [ -16.6596, 7.6, 49.0392 ],
      "componentType" : 5126,
      "count" : 4148,
      "type" : "VEC3"
    },
    {
      "bufferView" : 10,
      "componentType" : 5126,
      "count" : 4148,
      "type" : "VEC3"
    },
    {
      "bufferView" : 11,
      "componentType" : 5126,
      "count" : 4148,
      "type" : "VEC4"
    },
    {
      "bufferView" : 12,
      "componentType" : 5126,
      "count" : 4148,
      "type" : "VEC2"
    },
    {
      "bufferView" : 13,
      "componentType" : 5126,
      "count" : 4148,
      "type" : "VEC2"
    },
    {
      "bufferView" : 14,
      "componentType" : 5126,
      "count" : 4148,
      "type" : "VEC2"
    },
    {
      "bufferView" : 15,
      "componentType" : 5126,
      "count" : 4148,
      "type" : "VEC2"
    },
    {
      "bufferView" : 16,
      "componentType" : 5123,
      "count" : 1428,
      "type" : "SCALAR"
    },
    {
      "bufferView" : 17,
      "min" : [ -57.1751, -0.00134779, -17.7888 ],
      "max" : [ -17.4253, 0.300421, 29.4914 ],
      "componentType" : 5126,
      "count" : 380,
      "type" : "VEC3"
    },
    {
      "bufferView" : 18,
      "componentType" : 5126,
      "count" : 380,
      "type" : "VEC3"
    },
    {
      "bufferView" : 19,
      "componentType" : 5126,
      "count" : 380,
      "type" : "VEC4"
    },
    {
      "bufferView" : 20,
      "componentType" : 5126,
      "count" : 380,
      "type" : "VEC2"
    },
    {
      "bufferView" : 21,
      "componentType" : 5126,
      "count" : 380,
      "type" : "VEC2"
    },
    {
      "bufferView" : 22,
      "componentType" : 5126,
      "count" : 380,
      "type" : "VEC2"
    },
    {
      "bufferView" : 23,
      "componentType" : 5126,
      "count" : 380,
      "type" : "VEC2"
    },
    {
      "bufferView" : 24,
      "componentType" : 5123,
      "count" : 354,
      "type" : "SCALAR"
    },
    {
      "bufferView" : 25,
      "min" : [ -57.9835, 0.76509, -17.8297 ],
      "max" : [ -17.5027, 1.50038, 29.414 ],
      "componentType" : 5126,
      "count" : 126,
      "type" : "VEC3"
    },
    {
      "bufferView" : 26,
      "componentType" : 5126,
      "count" : 126,
      "type" : "VEC3"
    },
    {
      "bufferView" : 27,
      "componentType" : 5126,
      "count" : 126,
      "type" : "VEC4"
    },
    {
      "bufferView" : 28,
      "componentType" : 5126,
      "count" : 126,
      "type" : "VEC2"
    },
    {
      "bufferView" : 29,
      "componentType" : 5126,
      "count" : 126,
      "type" : "VEC2"
    },
    {
      "bufferView" : 30,
      "componentType" : 5126,
      "count" : 126,
      "type" : "VEC2"
    },
    {
      "bufferView" : 31,
      "componentType" : 5126,
      "count" : 126,
      "type" : "VEC2"
    },
    {
      "bufferView" : 32,
      "componentType" : 5123,
      "count" : 738,
      "type" : "SCALAR"
    },
    {
      "bufferView" : 33,
      "min" : [ -54.0706, 5.07001, -18.5932 ],
      "max" : [ -16.6596, 5.60191, 28.8933 ],
      "componentType" : 5126,
      "count" : 318,
      "type" : "VEC3"
    },
    {
      "bufferView" : 34,
      "componentType" : 5126,
      "count" : 318,
      "type" : "VEC3"
    },
    {
      "bufferView" : 35,
      "componentType" : 5126,
      "count" : 318,
      "type" : "VEC4"
    },
    {
      "bufferView" : 36,
      "componentType" : 5126,
      "count" : 318,
      "type" : "VEC2"
    },
    {
      "bufferView" : 37,
      "componentType" : 5126,
      "count" : 318,
      "type" : "VEC2"
    },
    {
      "bufferView" : 38,
      "componentType" : 5126,
      "count" : 318,
      "type" : "VEC2"
    },
    {
      "bufferView" : 39,
      "componentType" : 5126,
      "count" : 318,
      "type" : "VEC2"
    },
    {
      "bufferView" : 40,
      "componentType" : 5123,
      "count" : 4428,
      "type" : "SCALAR"
    },
    {
      "bufferView" : 41,
      "min" : [ -58.0706, 4.8, -18.5932 ],
      "max" : [ -16.6596, 8.12, 48.8427 ],
      "componentType" : 5126,
      "count" : 1645,
      "type" : "VEC3"
    },
    {
      "bufferView" : 42,
      "componentType" : 5126,
      "count" : 1645,
      "type" : "VEC3"
    },
    {
      "bufferView" : 43,
      "componentType" : 5126,
      "count" : 1645,
      "type" : "VEC4"
    },
    {
      "bufferView" : 44,
      "componentType" : 5126,
      "count" : 1645,
      "type" : "VEC2"
    },
    {
      "bufferView" : 45,
      "componentType" : 5126,
      "count" : 1645,
      "type" : "VEC2"
    },
    {
      "bufferView" : 46,
      "componentType" : 5126,
      "count" : 1645,
      "type" : "VEC2"
    },
    {
      "bufferView" : 47,
      "componentType" : 5126,
      "count" : 1645,
      "type" : "VEC2"
    },
    {
      "bufferView" : 48,
      "componentType" : 5123,
      "count" : 51,
      "type" : "SCALAR"
    },
    {
      "bufferView" : 49,
      "min" : [ -57.9331, 5.99999, -17.6619 ],
      "max" : [ -17.8977, 6, 48.5756 ],
      "componentType" : 5126,
      "count" : 30,
      "type" : "VEC3"
    },
    {
      "bufferView" : 50,
      "componentType" : 5126,
      "count" : 30,
      "type" : "VEC3"
    },
    {
      "bufferView" : 51,
      "componentType" : 5126,
      "count" : 30,
      "type" : "VEC4"
    },
    {
      "bufferView" : 52,
      "componentType" : 5126,
      "count" : 30,
      "type" : "VEC2"
    },
    {
      "bufferView" : 53,
      "componentType" : 5126,
      "count" : 30,
      "type" : "VEC2"
    },
    {
      "bufferView" : 54,
      "componentType" : 5126,
      "count" : 30,
      "type" : "VEC2"
    },
    {
      "bufferView" : 55,
      "componentType" : 5126,
      "count" : 30,
      "type" : "VEC2"
    },
    {
      "bufferView" : 56,
      "componentType" : 5123,
      "count" : 324,
      "type" : "SCALAR"
    },
    {
      "bufferView" : 57,
      "min" : [ -58.0801, -0.287846, -17.9263 ],
      "max" : [ -56.9212, 0.265092, -16.9134 ],
      "componentType" : 5126,
      "count" : 76,
      "type" : "VEC3"
    },
    {
      "bufferView" : 58,
      "componentType" : 5126,
      "count" : 76,
      "type" : "VEC3"
    },
    {
      "bufferView" : 59,
      "componentType" : 5126,
      "count" : 76,
      "type" : "VEC4"
    },
    {
      "bufferView" : 60,
      "componentType" : 5126,
      "count" : 76,
      "type" : "VEC2"
    },
    {
      "bufferView" : 61,
      "componentType" : 5126,
      "count" : 76,
      "type" : "VEC2"
    },
    {
      "bufferView" : 62,
      "componentType" : 5126,
      "count" : 76,
      "type" : "VEC2"
    },
    {
      "bufferView" : 63,
      "componentType" : 5126,
      "count" : 76,
      "type" : "VEC2"
    }
  ]
}
