{
  "asset" : {
    "generator" : "UE Viewer (umodel) build 1544 based",
    "version" : "2.0"
  },
  "scene" : 0,
  "scenes" : [
    {
      "nodes" : [ 0 ]
    }
  ],
  "nodes" : [
    {
      "name" : "SM_ENV_KNVLLG03_Bridge_PlatformConnectorA",
      "mesh" : 0
    }
  ],
  "materials" : [
    {
      "name" : "MI_ENV_LKNVLD03_GroundSoil_A",
      "pbrMetallicRoughness" : {
        "baseColorFactor" : [ 0.3, 0.3, 0.3, 1.0 ],
        "metallicFactor" : 0.1,
        "roughnessFactor" : 0.5
      }
    },
    {
      "name" : "MI_ENV_LKNVLD_WoodPlain_Red",
      "pbrMetallicRoughness" : {
        "baseColorFactor" : [ 0.9, 0.3, 0.3, 1.0 ],
        "metallicFactor" : 0.1,
        "roughnessFactor" : 0.5
      }
    },
    {
      "name" : "MI_ENV_LKNVLD_WoodWallSet",
      "pbrMetallicRoughness" : {
        "baseColorFactor" : [ 0.3, 0.9, 0.3, 1.0 ],
        "metallicFactor" : 0.1,
        "roughnessFactor" : 0.5
      }
    },
    {
      "name" : "MI_ENV_LKNVLD_Signboard_A",
      "pbrMetallicRoughness" : {
        "baseColorFactor" : [ 0.3, 0.3, 0.9, 1.0 ],
        "metallicFactor" : 0.1,
        "roughnessFactor" : 0.5
      }
    },
    {
      "name" : "MI_T_ENV_LKNVLD_StoneTrim",
      "pbrMetallicRoughness" : {
        "baseColorFactor" : [ 0.9, 0.9, 0.9, 1.0 ],
        "metallicFactor" : 0.1,
        "roughnessFactor" : 0.5
      }
    },
    {
      "name" : "MI_ENV_LKNVLD_WoodWallSet_Red",
      "pbrMetallicRoughness" : {
        "baseColorFactor" : [ 0.9, 0.9, 0.3, 1.0 ],
        "metallicFactor" : 0.1,
        "roughnessFactor" : 0.5
      }
    },
    {
      "name" : "MI_ENV_LKNVLD_Eaves_B",
      "pbrMetallicRoughness" : {
        "baseColorFactor" : [ 0.9, 0.3, 0.9, 1.0 ],
        "metallicFactor" : 0.1,
        "roughnessFactor" : 0.5
      }
    },
    {
      "name" : "MI_ENV_LKNVLD_WoodBoard_Natural_Lighter",
      "pbrMetallicRoughness" : {
        "baseColorFactor" : [ 0.3, 0.9, 0.9, 1.0 ],
        "metallicFactor" : 0.1,
        "roughnessFactor" : 0.5
      }
    }
  ],
  "meshes" : [
    {
      "primitives" : [
        {
          "attributes" : {
            "POSITION" : 1,
            "NORMAL" : 2,
            "TANGENT" : 3,
            "COLOR_0" : 4,
            "TEXCOORD_0" : 5,
            "TEXCOORD_1" : 6,
            "TEXCOORD_2" : 7,
            "TEXCOORD_3" : 8
          },
          "indices" : 0,
          "material" : 0
        },
        {
          "attributes" : {
            "POSITION" : 10,
            "NORMAL" : 11,
            "TANGENT" : 12,
            "COLOR_0" : 13,
            "TEXCOORD_0" : 14,
            "TEXCOORD_1" : 15,
            "TEXCOORD_2" : 16,
            "TEXCOORD_3" : 17
          },
          "indices" : 9,
          "material" : 1
        },
        {
          "attributes" : {
            "POSITION" : 19,
            "NORMAL" : 20,
            "TANGENT" : 21,
            "COLOR_0" : 22,
            "TEXCOORD_0" : 23,
            "TEXCOORD_1" : 24,
            "TEXCOORD_2" : 25,
            "TEXCOORD_3" : 26
          },
          "indices" : 18,
          "material" : 2
        },
        {
          "attributes" : {
            "POSITION" : 28,
            "NORMAL" : 29,
            "TANGENT" : 30,
            "COLOR_0" : 31,
            "TEXCOORD_0" : 32,
            "TEXCOORD_1" : 33,
            "TEXCOORD_2" : 34,
            "TEXCOORD_3" : 35
          },
          "indices" : 27,
          "material" : 3
        },
        {
          "attributes" : {
            "POSITION" : 37,
            "NORMAL" : 38,
            "TANGENT" : 39,
            "COLOR_0" : 40,
            "TEXCOORD_0" : 41,
            "TEXCOORD_1" : 42,
            "TEXCOORD_2" : 43,
            "TEXCOORD_3" : 44
          },
          "indices" : 36,
          "material" : 4
        },
        {
          "attributes" : {
            "POSITION" : 46,
            "NORMAL" : 47,
            "TANGENT" : 48,
            "COLOR_0" : 49,
            "TEXCOORD_0" : 50,
            "TEXCOORD_1" : 51,
            "TEXCOORD_2" : 52,
            "TEXCOORD_3" : 53
          },
          "indices" : 45,
          "material" : 5
        },
        {
          "attributes" : {
            "POSITION" : 55,
            "NORMAL" : 56,
            "TANGENT" : 57,
            "COLOR_0" : 58,
            "TEXCOORD_0" : 59,
            "TEXCOORD_1" : 60,
            "TEXCOORD_2" : 61,
            "TEXCOORD_3" : 62
          },
          "indices" : 54,
          "material" : 6
        },
        {
          "attributes" : {
            "POSITION" : 64,
            "NORMAL" : 65,
            "TANGENT" : 66,
            "COLOR_0" : 67,
            "TEXCOORD_0" : 68,
            "TEXCOORD_1" : 69,
            "TEXCOORD_2" : 70,
            "TEXCOORD_3" : 71
          },
          "indices" : 63,
          "material" : 7
        }
      ],
      "name" : "SM_ENV_KNVLLG03_Bridge_PlatformConnectorA"
    }
  ],
  "buffers" : [
    {
      "uri" : "SM_ENV_KNVLLG03_Bridge_PlatformConnectorA.bin",
      "byteLength" : 521672
    }
  ],
  "bufferViews" : [
    {
      "buffer" : 0,
      "byteOffset" : 0,
      "byteLength" : 12
    },
    {
      "buffer" : 0,
      "byteOffset" : 12,
      "byteLength" : 48
    },
    {
      "buffer" : 0,
      "byteOffset" : 60,
      "byteLength" : 48
    },
    {
      "buffer" : 0,
      "byteOffset" : 108,
      "byteLength" : 64
    },
    {
      "buffer" : 0,
      "byteOffset" : 172,
      "byteLength" : 16
    },
    {
      "buffer" : 0,
      "byteOffset" : 188,
      "byteLength" : 32
    },
    {
      "buffer" : 0,
      "byteOffset" : 220,
      "byteLength" : 32
    },
    {
      "buffer" : 0,
      "byteOffset" : 252,
      "byteLength" : 32
    },
    {
      "buffer" : 0,
      "byteOffset" : 284,
      "byteLength" : 32
    },
    {
      "buffer" : 0,
      "byteOffset" : 316,
      "byteLength" : 12224
    },
    {
      "buffer" : 0,
      "byteOffset" : 12540,
      "byteLength" : 39180
    },
    {
      "buffer" : 0,
      "byteOffset" : 51720,
      "byteLength" : 39180
    },
    {
      "buffer" : 0,
      "byteOffset" : 90900,
      "byteLength" : 52240
    },
    {
      "buffer" : 0,
      "byteOffset" : 143140,
      "byteLength" : 13060
    },
    {
      "buffer" : 0,
      "byteOffset" : 156200,
      "byteLength" : 26120
    },
    {
      "buffer" : 0,
      "byteOffset" : 182320,
      "byteLength" : 26120
    },
    {
      "buffer" : 0,
      "byteOffset" : 208440,
      "byteLength" : 26120
    },
    {
      "buffer" : 0,
      "byteOffset" : 234560,
      "byteLength" : 26120
    },
    {
      "buffer" : 0,
      "byteOffset" : 260680,
      "byteLength" : 5568
    },
    {
      "buffer" : 0,
      "byteOffset" : 266248,
      "byteLength" : 13776
    },
    {
      "buffer" : 0,
      "byteOffset" : 280024,
      "byteLength" : 13776
    },
    {
      "buffer" : 0,
      "byteOffset" : 293800,
      "byteLength" : 18368
    },
    {
      "buffer" : 0,
      "byteOffset" : 312168,
      "byteLength" : 4592
    },
    {
      "buffer" : 0,
      "byteOffset" : 316760,
      "byteLength" : 9184
    },
    {
      "buffer" : 0,
      "byteOffset" : 325944,
      "byteLength" : 9184
    },
    {
      "buffer" : 0,
      "byteOffset" : 335128,
      "byteLength" : 9184
    },
    {
      "buffer" : 0,
      "byteOffset" : 344312,
      "byteLength" : 9184
    },
    {
      "buffer" : 0,
      "byteOffset" : 353496,
      "byteLength" : 6240
    },
    {
      "buffer" : 0,
      "byteOffset" : 359736,
      "byteLength" : 15408
    },
    {
      "buffer" : 0,
      "byteOffset" : 375144,
      "byteLength" : 15408
    },
    {
      "buffer" : 0,
      "byteOffset" : 390552,
      "byteLength" : 20544
    },
    {
      "buffer" : 0,
      "byteOffset" : 411096,
      "byteLength" : 5136
    },
    {
      "buffer" : 0,
      "byteOffset" : 416232,
      "byteLength" : 10272
    },
    {
      "buffer" : 0,
      "byteOffset" : 426504,
      "byteLength" : 10272
    },
    {
      "buffer" : 0,
      "byteOffset" : 436776,
      "byteLength" : 10272
    },
    {
      "buffer" : 0,
      "byteOffset" : 447048,
      "byteLength" : 10272
    },
    {
      "buffer" : 0,
      "byteOffset" : 457320,
      "byteLength" : 2988
    },
    {
      "buffer" : 0,
      "byteOffset" : 460308,
      "byteLength" : 4512
    },
    {
      "buffer" : 0,
      "byteOffset" : 464820,
      "byteLength" : 4512
    },
    {
      "buffer" : 0,
      "byteOffset" : 469332,
      "byteLength" : 6016
    },
    {
      "buffer" : 0,
      "byteOffset" : 475348,
      "byteLength" : 1504
    },
    {
      "buffer" : 0,
      "byteOffset" : 476852,
      "byteLength" : 3008
    },
    {
      "buffer" : 0,
      "byteOffset" : 479860,
      "byteLength" : 3008
    },
    {
      "buffer" : 0,
      "byteOffset" : 482868,
      "byteLength" : 3008
    },
    {
      "buffer" : 0,
      "byteOffset" : 485876,
      "byteLength" : 3008
    },
    {
      "buffer" : 0,
      "byteOffset" : 488884,
      "byteLength" : 120
    },
    {
      "buffer" : 0,
      "byteOffset" : 489004,
      "byteLength" : 264
    },
    {
      "buffer" : 0,
      "byteOffset" : 489268,
      "byteLength" : 264
    },
    {
      "buffer" : 0,
      "byteOffset" : 489532,
      "byteLength" : 352
    },
    {
      "buffer" : 0,
      "byteOffset" : 489884,
      "byteLength" : 88
    },
    {
      "buffer" : 0,
      "byteOffset" : 489972,
      "byteLength" : 176
    },
    {
      "buffer" : 0,
      "byteOffset" : 490148,
      "byteLength" : 176
    },
    {
      "buffer" : 0,
      "byteOffset" : 490324,
      "byteLength" : 176
    },
    {
      "buffer" : 0,
      "byteOffset" : 490500,
      "byteLength" : 176
    },
    {
      "buffer" : 0,
      "byteOffset" : 490676,
      "byteLength" : 1800
    },
    {
      "buffer" : 0,
      "byteOffset" : 492476,
      "byteLength" : 4560
    },
    {
      "buffer" : 0,
      "byteOffset" : 497036,
      "byteLength" : 4560
    },
    {
      "buffer" : 0,
      "byteOffset" : 501596,
      "byteLength" : 6080
    },
    {
      "buffer" : 0,
      "byteOffset" : 507676,
      "byteLength" : 1520
    },
    {
      "buffer" : 0,
      "byteOffset" : 509196,
      "byteLength" : 3040
    },
    {
      "buffer" : 0,
      "byteOffset" : 512236,
      "byteLength" : 3040
    },
    {
      "buffer" : 0,
      "byteOffset" : 515276,
      "byteLength" : 3040
    },
    {
      "buffer" : 0,
      "byteOffset" : 518316,
      "byteLength" : 3040
    },
    {
      "buffer" : 0,
      "byteOffset" : 521356,
      "byteLength" : 12
    },
    {
      "buffer" : 0,
      "byteOffset" : 521368,
      "byteLength" : 48
    },
    {
      "buffer" : 0,
      "byteOffset" : 521416,
      "byteLength" : 48
    },
    {
      "buffer" : 0,
      "byteOffset" : 521464,
      "byteLength" : 64
    },
    {
      "buffer" : 0,
      "byteOffset" : 521528,
      "byteLength" : 16
    },
    {
      "buffer" : 0,
      "byteOffset" : 521544,
      "byteLength" : 32
    },
    {
      "buffer" : 0,
      "byteOffset" : 521576,
      "byteLength" : 32
    },
    {
      "buffer" : 0,
      "byteOffset" : 521608,
      "byteLength" : 32
    },
    {
      "buffer" : 0,
      "byteOffset" : 521640,
      "byteLength" : 32
    }
  ],
  "accessors" : [
    {
      "bufferView" : 0,
      "componentType" : 5123,
      "count" : 6,
      "type" : "SCALAR"
    },
    {
      "bufferView" : 1,
      "min" : [ -36.4458, 5.94526, 48.6086 ],
      "max" : [ -27.4012, 5.94526, 60.4205 ],
      "componentType" : 5126,
      "count" : 4,
      "type" : "VEC3"
    },
    {
      "bufferView" : 2,
      "componentType" : 5126,
      "count" : 4,
      "type" : "VEC3"
    },
    {
      "bufferView" : 3,
      "componentType" : 5126,
      "count" : 4,
      "type" : "VEC4"
    },
    {
      "bufferView" : 4,
      "normalized" : true,
      "componentType" : 5121,
      "count" : 4,
      "type" : "VEC4"
    },
    {
      "bufferView" : 5,
      "componentType" : 5126,
      "count" : 4,
      "type" : "VEC2"
    },
    {
      "bufferView" : 6,
      "componentType" : 5126,
      "count" : 4,
      "type" : "VEC2"
    },
    {
      "bufferView" : 7,
      "componentType" : 5126,
      "count" : 4,
      "type" : "VEC2"
    },
    {
      "bufferView" : 8,
      "componentType" : 5126,
      "count" : 4,
      "type" : "VEC2"
    },
    {
      "bufferView" : 9,
      "componentType" : 5123,
      "count" : 6111,
      "type" : "SCALAR"
    },
    {
      "bufferView" : 10,
      "min" : [ -36.7657, 0.699998, 28.688 ],
      "max" : [ -16.7106, 7.6, 61.1816 ],
      "componentType" : 5126,
      "count" : 3265,
      "type" : "VEC3"
    },
    {
      "bufferView" : 11,
      "componentType" : 5126,
      "count" : 3265,
      "type" : "VEC3"
    },
    {
      "bufferView" : 12,
      "componentType" : 5126,
      "count" : 3265,
      "type" : "VEC4"
    },
    {
      "bufferView" : 13,
      "normalized" : true,
      "componentType" : 5121,
      "count" : 3265,
      "type" : "VEC4"
    },
    {
      "bufferView" : 14,
      "componentType" : 5126,
      "count" : 3265,
      "type" : "VEC2"
    },
    {
      "bufferView" : 15,
      "componentType" : 5126,
      "count" : 3265,
      "type" : "VEC2"
    },
    {
      "bufferView" : 16,
      "componentType" : 5126,
      "count" : 3265,
      "type" : "VEC2"
    },
    {
      "bufferView" : 17,
      "componentType" : 5126,
      "count" : 3265,
      "type" : "VEC2"
    },
    {
      "bufferView" : 18,
      "componentType" : 5123,
      "count" : 2784,
      "type" : "SCALAR"
    },
    {
      "bufferView" : 19,
      "min" : [ -27.6514, 0.299998, 28.638 ],
      "max" : [ -17.335, 6.2, 61.1431 ],
      "componentType" : 5126,
      "count" : 1148,
      "type" : "VEC3"
    },
    {
      "bufferView" : 20,
      "componentType" : 5126,
      "count" : 1148,
      "type" : "VEC3"
    },
    {
      "bufferView" : 21,
      "componentType" : 5126,
      "count" : 1148,
      "type" : "VEC4"
    },
    {
      "bufferView" : 22,
      "normalized" : true,
      "componentType" : 5121,
      "count" : 1148,
      "type" : "VEC4"
    },
    {
      "bufferView" : 23,
      "componentType" : 5126,
      "count" : 1148,
      "type" : "VEC2"
    },
    {
      "bufferView" : 24,
      "componentType" : 5126,
      "count" : 1148,
      "type" : "VEC2"
    },
    {
      "bufferView" : 25,
      "componentType" : 5126,
      "count" : 1148,
      "type" : "VEC2"
    },
    {
      "bufferView" : 26,
      "componentType" : 5126,
      "count" : 1148,
      "type" : "VEC2"
    },
    {
      "bufferView" : 27,
      "componentType" : 5123,
      "count" : 3120,
      "type" : "SCALAR"
    },
    {
      "bufferView" : 28,
      "min" : [ -27.672, 4.8, 28.6175 ],
      "max" : [ -16.686, 8.12, 61.1816 ],
      "componentType" : 5126,
      "count" : 1284,
      "type" : "VEC3"
    },
    {
      "bufferView" : 29,
      "componentType" : 5126,
      "count" : 1284,
      "type" : "VEC3"
    },
    {
      "bufferView" : 30,
      "componentType" : 5126,
      "count" : 1284,
      "type" : "VEC4"
    },
    {
      "bufferView" : 31,
      "normalized" : true,
      "componentType" : 5121,
      "count" : 1284,
      "type" : "VEC4"
    },
    {
      "bufferView" : 32,
      "componentType" : 5126,
      "count" : 1284,
      "type" : "VEC2"
    },
    {
      "bufferView" : 33,
      "componentType" : 5126,
      "count" : 1284,
      "type" : "VEC2"
    },
    {
      "bufferView" : 34,
      "componentType" : 5126,
      "count" : 1284,
      "type" : "VEC2"
    },
    {
      "bufferView" : 35,
      "componentType" : 5126,
      "count" : 1284,
      "type" : "VEC2"
    },
    {
      "bufferView" : 36,
      "componentType" : 5123,
      "count" : 1494,
      "type" : "SCALAR"
    },
    {
      "bufferView" : 37,
      "min" : [ -18.0951, -3.05176e-06, 28.9097 ],
      "max" : [ -17.2769, 0.300003, 61.1764 ],
      "componentType" : 5126,
      "count" : 376,
      "type" : "VEC3"
    },
    {
      "bufferView" : 38,
      "componentType" : 5126,
      "count" : 376,
      "type" : "VEC3"
    },
    {
      "bufferView" : 39,
      "componentType" : 5126,
      "count" : 376,
      "type" : "VEC4"
    },
    {
      "bufferView" : 40,
      "normalized" : true,
      "componentType" : 5121,
      "count" : 376,
      "type" : "VEC4"
    },
    {
      "bufferView" : 41,
      "componentType" : 5126,
      "count" : 376,
      "type" : "VEC2"
    },
    {
      "bufferView" : 42,
      "componentType" : 5126,
      "count" : 376,
      "type" : "VEC2"
    },
    {
      "bufferView" : 43,
      "componentType" : 5126,
      "count" : 376,
      "type" : "VEC2"
    },
    {
      "bufferView" : 44,
      "componentType" : 5126,
      "count" : 376,
      "type" : "VEC2"
    },
    {
      "bufferView" : 45,
      "componentType" : 5123,
      "count" : 60,
      "type" : "SCALAR"
    },
    {
      "bufferView" : 46,
      "min" : [ -18.0549, 0.800001, 60.3604 ],
      "max" : [ -17.3731, 1.5, 61.121 ],
      "componentType" : 5126,
      "count" : 22,
      "type" : "VEC3"
    },
    {
      "bufferView" : 47,
      "componentType" : 5126,
      "count" : 22,
      "type" : "VEC3"
    },
    {
      "bufferView" : 48,
      "componentType" : 5126,
      "count" : 22,
      "type" : "VEC4"
    },
    {
      "bufferView" : 49,
      "normalized" : true,
      "componentType" : 5121,
      "count" : 22,
      "type" : "VEC4"
    },
    {
      "bufferView" : 50,
      "componentType" : 5126,
      "count" : 22,
      "type" : "VEC2"
    },
    {
      "bufferView" : 51,
      "componentType" : 5126,
      "count" : 22,
      "type" : "VEC2"
    },
    {
      "bufferView" : 52,
      "componentType" : 5126,
      "count" : 22,
      "type" : "VEC2"
    },
    {
      "bufferView" : 53,
      "componentType" : 5126,
      "count" : 22,
      "type" : "VEC2"
    },
    {
      "bufferView" : 54,
      "componentType" : 5123,
      "count" : 900,
      "type" : "SCALAR"
    },
    {
      "bufferView" : 55,
      "min" : [ -17.8623, 5.07002, 31.7511 ],
      "max" : [ -16.686, 5.6, 60.627 ],
      "componentType" : 5126,
      "count" : 380,
      "type" : "VEC3"
    },
    {
      "bufferView" : 56,
      "componentType" : 5126,
      "count" : 380,
      "type" : "VEC3"
    },
    {
      "bufferView" : 57,
      "componentType" : 5126,
      "count" : 380,
      "type" : "VEC4"
    },
    {
      "bufferView" : 58,
      "normalized" : true,
      "componentType" : 5121,
      "count" : 380,
      "type" : "VEC4"
    },
    {
      "bufferView" : 59,
      "componentType" : 5126,
      "count" : 380,
      "type" : "VEC2"
    },
    {
      "bufferView" : 60,
      "componentType" : 5126,
      "count" : 380,
      "type" : "VEC2"
    },
    {
      "bufferView" : 61,
      "componentType" : 5126,
      "count" : 380,
      "type" : "VEC2"
    },
    {
      "bufferView" : 62,
      "componentType" : 5126,
      "count" : 380,
      "type" : "VEC2"
    },
    {
      "bufferView" : 63,
      "componentType" : 5123,
      "count" : 6,
      "type" : "SCALAR"
    },
    {
      "bufferView" : 64,
      "min" : [ -27.3869, 6, 48.5027 ],
      "max" : [ -18.0083, 6, 60.6493 ],
      "componentType" : 5126,
      "count" : 4,
      "type" : "VEC3"
    },
    {
      "bufferView" : 65,
      "componentType" : 5126,
      "count" : 4,
      "type" : "VEC3"
    },
    {
      "bufferView" : 66,
      "componentType" : 5126,
      "count" : 4,
      "type" : "VEC4"
    },
    {
      "bufferView" : 67,
      "normalized" : true,
      "componentType" : 5121,
      "count" : 4,
      "type" : "VEC4"
    },
    {
      "bufferView" : 68,
      "componentType" : 5126,
      "count" : 4,
      "type" : "VEC2"
    },
    {
      "bufferView" : 69,
      "componentType" : 5126,
      "count" : 4,
      "type" : "VEC2"
    },
    {
      "bufferView" : 70,
      "componentType" : 5126,
      "count" : 4,
      "type" : "VEC2"
    },
    {
      "bufferView" : 71,
      "componentType" : 5126,
      "count" : 4,
      "type" : "VEC2"
    }
  ]
}
