{
  "asset" : {
    "generator" : "UE Viewer (umodel) build 1544 based",
    "version" : "2.0"
  },
  "scene" : 0,
  "scenes" : [
    {
      "nodes" : [ 0 ]
    }
  ],
  "nodes" : [
    {
      "name" : "SM_ENV_KNVLLG03_Bridge_ConnectorD",
      "mesh" : 0
    }
  ],
  "materials" : [
    {
      "name" : "MI_ENV_LKNVLD_WoodPlain_Red",
      "pbrMetallicRoughness" : {
        "baseColorFactor" : [ 0.3, 0.3, 0.3, 1.0 ],
        "metallicFactor" : 0.1,
        "roughnessFactor" : 0.5
      }
    },
    {
      "name" : "MI_ENV_LKNVLD_WoodWallSet",
      "pbrMetallicRoughness" : {
        "baseColorFactor" : [ 0.9, 0.3, 0.3, 1.0 ],
        "metallicFactor" : 0.1,
        "roughnessFactor" : 0.5
      }
    },
    {
      "name" : "MI_ENV_LKNVLD_Signboard_A",
      "pbrMetallicRoughness" : {
        "baseColorFactor" : [ 0.3, 0.9, 0.3, 1.0 ],
        "metallicFactor" : 0.1,
        "roughnessFactor" : 0.5
      }
    },
    {
      "name" : "MI_ENV_LKNVLD_Eaves_B",
      "pbrMetallicRoughness" : {
        "baseColorFactor" : [ 0.3, 0.3, 0.9, 1.0 ],
        "metallicFactor" : 0.1,
        "roughnessFactor" : 0.5
      }
    },
    {
      "name" : "MI_ENV_LKNVLD_StoneTrim_Ground",
      "pbrMetallicRoughness" : {
        "baseColorFactor" : [ 0.9, 0.9, 0.9, 1.0 ],
        "metallicFactor" : 0.1,
        "roughnessFactor" : 0.5
      }
    },
    {
      "name" : "MI_ENV_LKNVLD_WoodBoard_Natural_Lighter",
      "pbrMetallicRoughness" : {
        "baseColorFactor" : [ 0.9, 0.9, 0.3, 1.0 ],
        "metallicFactor" : 0.1,
        "roughnessFactor" : 0.5
      }
    },
    {
      "name" : "MI_ENV_LKNVLD_WoodWallSet_Red",
      "pbrMetallicRoughness" : {
        "baseColorFactor" : [ 0.9, 0.3, 0.9, 1.0 ],
        "metallicFactor" : 0.1,
        "roughnessFactor" : 0.5
      }
    },
    {
      "name" : "MI_T_ENV_LKNVLD_StoneTrim",
      "pbrMetallicRoughness" : {
        "baseColorFactor" : [ 0.3, 0.9, 0.9, 1.0 ],
        "metallicFactor" : 0.1,
        "roughnessFactor" : 0.5
      }
    }
  ],
  "meshes" : [
    {
      "primitives" : [
        {
          "attributes" : {
            "POSITION" : 1,
            "NORMAL" : 2,
            "TANGENT" : 3,
            "TEXCOORD_0" : 4,
            "TEXCOORD_1" : 5,
            "TEXCOORD_2" : 6,
            "TEXCOORD_3" : 7
          },
          "indices" : 0,
          "material" : 0
        },
        {
          "attributes" : {
            "POSITION" : 9,
            "NORMAL" : 10,
            "TANGENT" : 11,
            "TEXCOORD_0" : 12,
            "TEXCOORD_1" : 13,
            "TEXCOORD_2" : 14,
            "TEXCOORD_3" : 15
          },
          "indices" : 8,
          "material" : 1
        },
        {
          "attributes" : {
            "POSITION" : 17,
            "NORMAL" : 18,
            "TANGENT" : 19,
            "TEXCOORD_0" : 20,
            "TEXCOORD_1" : 21,
            "TEXCOORD_2" : 22,
            "TEXCOORD_3" : 23
          },
          "indices" : 16,
          "material" : 2
        },
        {
          "attributes" : {
            "POSITION" : 25,
            "NORMAL" : 26,
            "TANGENT" : 27,
            "TEXCOORD_0" : 28,
            "TEXCOORD_1" : 29,
            "TEXCOORD_2" : 30,
            "TEXCOORD_3" : 31
          },
          "indices" : 24,
          "material" : 3
        },
        {
          "attributes" : {
            "POSITION" : 33,
            "NORMAL" : 34,
            "TANGENT" : 35,
            "TEXCOORD_0" : 36,
            "TEXCOORD_1" : 37,
            "TEXCOORD_2" : 38,
            "TEXCOORD_3" : 39
          },
          "indices" : 32,
          "material" : 4
        },
        {
          "attributes" : {
            "POSITION" : 41,
            "NORMAL" : 42,
            "TANGENT" : 43,
            "TEXCOORD_0" : 44,
            "TEXCOORD_1" : 45,
            "TEXCOORD_2" : 46,
            "TEXCOORD_3" : 47
          },
          "indices" : 40,
          "material" : 5
        },
        {
          "attributes" : {
            "POSITION" : 49,
            "NORMAL" : 50,
            "TANGENT" : 51,
            "TEXCOORD_0" : 52,
            "TEXCOORD_1" : 53,
            "TEXCOORD_2" : 54,
            "TEXCOORD_3" : 55
          },
          "indices" : 48,
          "material" : 6
        },
        {
          "attributes" : {
            "POSITION" : 57,
            "NORMAL" : 58,
            "TANGENT" : 59,
            "TEXCOORD_0" : 60,
            "TEXCOORD_1" : 61,
            "TEXCOORD_2" : 62,
            "TEXCOORD_3" : 63
          },
          "indices" : 56,
          "material" : 7
        }
      ],
      "name" : "SM_ENV_KNVLLG03_Bridge_ConnectorD"
    }
  ],
  "buffers" : [
    {
      "uri" : "SM_ENV_KNVLLG03_Bridge_ConnectorD.bin",
      "byteLength" : 862080
    }
  ],
  "bufferViews" : [
    {
      "buffer" : 0,
      "byteOffset" : 0,
      "byteLength" : 21456
    },
    {
      "buffer" : 0,
      "byteOffset" : 21456,
      "byteLength" : 68496
    },
    {
      "buffer" : 0,
      "byteOffset" : 89952,
      "byteLength" : 68496
    },
    {
      "buffer" : 0,
      "byteOffset" : 158448,
      "byteLength" : 91328
    },
    {
      "buffer" : 0,
      "byteOffset" : 249776,
      "byteLength" : 45664
    },
    {
      "buffer" : 0,
      "byteOffset" : 295440,
      "byteLength" : 45664
    },
    {
      "buffer" : 0,
      "byteOffset" : 341104,
      "byteLength" : 45664
    },
    {
      "buffer" : 0,
      "byteOffset" : 386768,
      "byteLength" : 45664
    },
    {
      "buffer" : 0,
      "byteOffset" : 432432,
      "byteLength" : 9252
    },
    {
      "buffer" : 0,
      "byteOffset" : 441684,
      "byteLength" : 22680
    },
    {
      "buffer" : 0,
      "byteOffset" : 464364,
      "byteLength" : 22680
    },
    {
      "buffer" : 0,
      "byteOffset" : 487044,
      "byteLength" : 30240
    },
    {
      "buffer" : 0,
      "byteOffset" : 517284,
      "byteLength" : 15120
    },
    {
      "buffer" : 0,
      "byteOffset" : 532404,
      "byteLength" : 15120
    },
    {
      "buffer" : 0,
      "byteOffset" : 547524,
      "byteLength" : 15120
    },
    {
      "buffer" : 0,
      "byteOffset" : 562644,
      "byteLength" : 15120
    },
    {
      "buffer" : 0,
      "byteOffset" : 577764,
      "byteLength" : 9852
    },
    {
      "buffer" : 0,
      "byteOffset" : 587616,
      "byteLength" : 25320
    },
    {
      "buffer" : 0,
      "byteOffset" : 612936,
      "byteLength" : 25320
    },
    {
      "buffer" : 0,
      "byteOffset" : 638256,
      "byteLength" : 33760
    },
    {
      "buffer" : 0,
      "byteOffset" : 672016,
      "byteLength" : 16880
    },
    {
      "buffer" : 0,
      "byteOffset" : 688896,
      "byteLength" : 16880
    },
    {
      "buffer" : 0,
      "byteOffset" : 705776,
      "byteLength" : 16880
    },
    {
      "buffer" : 0,
      "byteOffset" : 722656,
      "byteLength" : 16880
    },
    {
      "buffer" : 0,
      "byteOffset" : 739536,
      "byteLength" : 3144
    },
    {
      "buffer" : 0,
      "byteOffset" : 742680,
      "byteLength" : 8016
    },
    {
      "buffer" : 0,
      "byteOffset" : 750696,
      "byteLength" : 8016
    },
    {
      "buffer" : 0,
      "byteOffset" : 758712,
      "byteLength" : 10688
    },
    {
      "buffer" : 0,
      "byteOffset" : 769400,
      "byteLength" : 5344
    },
    {
      "buffer" : 0,
      "byteOffset" : 774744,
      "byteLength" : 5344
    },
    {
      "buffer" : 0,
      "byteOffset" : 780088,
      "byteLength" : 5344
    },
    {
      "buffer" : 0,
      "byteOffset" : 785432,
      "byteLength" : 5344
    },
    {
      "buffer" : 0,
      "byteOffset" : 790776,
      "byteLength" : 5868
    },
    {
      "buffer" : 0,
      "byteOffset" : 796644,
      "byteLength" : 9000
    },
    {
      "buffer" : 0,
      "byteOffset" : 805644,
      "byteLength" : 9000
    },
    {
      "buffer" : 0,
      "byteOffset" : 814644,
      "byteLength" : 12000
    },
    {
      "buffer" : 0,
      "byteOffset" : 826644,
      "byteLength" : 6000
    },
    {
      "buffer" : 0,
      "byteOffset" : 832644,
      "byteLength" : 6000
    },
    {
      "buffer" : 0,
      "byteOffset" : 838644,
      "byteLength" : 6000
    },
    {
      "buffer" : 0,
      "byteOffset" : 844644,
      "byteLength" : 6000
    },
    {
      "buffer" : 0,
      "byteOffset" : 850644,
      "byteLength" : 12
    },
    {
      "buffer" : 0,
      "byteOffset" : 850656,
      "byteLength" : 48
    },
    {
      "buffer" : 0,
      "byteOffset" : 850704,
      "byteLength" : 48
    },
    {
      "buffer" : 0,
      "byteOffset" : 850752,
      "byteLength" : 64
    },
    {
      "buffer" : 0,
      "byteOffset" : 850816,
      "byteLength" : 32
    },
    {
      "buffer" : 0,
      "byteOffset" : 850848,
      "byteLength" : 32
    },
    {
      "buffer" : 0,
      "byteOffset" : 850880,
      "byteLength" : 32
    },
    {
      "buffer" : 0,
      "byteOffset" : 850912,
      "byteLength" : 32
    },
    {
      "buffer" : 0,
      "byteOffset" : 850944,
      "byteLength" : 552
    },
    {
      "buffer" : 0,
      "byteOffset" : 851496,
      "byteLength" : 1176
    },
    {
      "buffer" : 0,
      "byteOffset" : 852672,
      "byteLength" : 1176
    },
    {
      "buffer" : 0,
      "byteOffset" : 853848,
      "byteLength" : 1568
    },
    {
      "buffer" : 0,
      "byteOffset" : 855416,
      "byteLength" : 784
    },
    {
      "buffer" : 0,
      "byteOffset" : 856200,
      "byteLength" : 784
    },
    {
      "buffer" : 0,
      "byteOffset" : 856984,
      "byteLength" : 784
    },
    {
      "buffer" : 0,
      "byteOffset" : 857768,
      "byteLength" : 784
    },
    {
      "buffer" : 0,
      "byteOffset" : 858552,
      "byteLength" : 360
    },
    {
      "buffer" : 0,
      "byteOffset" : 858912,
      "byteLength" : 528
    },
    {
      "buffer" : 0,
      "byteOffset" : 859440,
      "byteLength" : 528
    },
    {
      "buffer" : 0,
      "byteOffset" : 859968,
      "byteLength" : 704
    },
    {
      "buffer" : 0,
      "byteOffset" : 860672,
      "byteLength" : 352
    },
    {
      "buffer" : 0,
      "byteOffset" : 861024,
      "byteLength" : 352
    },
    {
      "buffer" : 0,
      "byteOffset" : 861376,
      "byteLength" : 352
    },
    {
      "buffer" : 0,
      "byteOffset" : 861728,
      "byteLength" : 352
    }
  ],
  "accessors" : [
    {
      "bufferView" : 0,
      "componentType" : 5123,
      "count" : 10728,
      "type" : "SCALAR"
    },
    {
      "bufferView" : 1,
      "min" : [ 31.5228, 0.689705, 24.3547 ],
      "max" : [ 59.0102, 7.57616, 65.8728 ],
      "componentType" : 5126,
      "count" : 5708,
      "type" : "VEC3"
    },
    {
      "bufferView" : 2,
      "componentType" : 5126,
      "count" : 5708,
      "type" : "VEC3"
    },
    {
      "bufferView" : 3,
      "componentType" : 5126,
      "count" : 5708,
      "type" : "VEC4"
    },
    {
      "bufferView" : 4,
      "componentType" : 5126,
      "count" : 5708,
      "type" : "VEC2"
    },
    {
      "bufferView" : 5,
      "componentType" : 5126,
      "count" : 5708,
      "type" : "VEC2"
    },
    {
      "bufferView" : 6,
      "componentType" : 5126,
      "count" : 5708,
      "type" : "VEC2"
    },
    {
      "bufferView" : 7,
      "componentType" : 5126,
      "count" : 5708,
      "type" : "VEC2"
    },
    {
      "bufferView" : 8,
      "componentType" : 5123,
      "count" : 4626,
      "type" : "SCALAR"
    },
    {
      "bufferView" : 9,
      "min" : [ 31.5626, 0.289705, 24.3932 ],
      "max" : [ 58.3858, 6.17616, 63.3421 ],
      "componentType" : 5126,
      "count" : 1890,
      "type" : "VEC3"
    },
    {
      "bufferView" : 10,
      "componentType" : 5126,
      "count" : 1890,
      "type" : "VEC3"
    },
    {
      "bufferView" : 11,
      "componentType" : 5126,
      "count" : 1890,
      "type" : "VEC4"
    },
    {
      "bufferView" : 12,
      "componentType" : 5126,
      "count" : 1890,
      "type" : "VEC2"
    },
    {
      "bufferView" : 13,
      "componentType" : 5126,
      "count" : 1890,
      "type" : "VEC2"
    },
    {
      "bufferView" : 14,
      "componentType" : 5126,
      "count" : 1890,
      "type" : "VEC2"
    },
    {
      "bufferView" : 15,
      "componentType" : 5126,
      "count" : 1890,
      "type" : "VEC2"
    },
    {
      "bufferView" : 16,
      "componentType" : 5123,
      "count" : 4926,
      "type" : "SCALAR"
    },
    {
      "bufferView" : 17,
      "min" : [ 31.5228, 4.78971, 24.3547 ],
      "max" : [ 59.0348, 8.09616, 61.5241 ],
      "componentType" : 5126,
      "count" : 2110,
      "type" : "VEC3"
    },
    {
      "bufferView" : 18,
      "componentType" : 5126,
      "count" : 2110,
      "type" : "VEC3"
    },
    {
      "bufferView" : 19,
      "componentType" : 5126,
      "count" : 2110,
      "type" : "VEC4"
    },
    {
      "bufferView" : 20,
      "componentType" : 5126,
      "count" : 2110,
      "type" : "VEC2"
    },
    {
      "bufferView" : 21,
      "componentType" : 5126,
      "count" : 2110,
      "type" : "VEC2"
    },
    {
      "bufferView" : 22,
      "componentType" : 5126,
      "count" : 2110,
      "type" : "VEC2"
    },
    {
      "bufferView" : 23,
      "componentType" : 5126,
      "count" : 2110,
      "type" : "VEC2"
    },
    {
      "bufferView" : 24,
      "componentType" : 5123,
      "count" : 1572,
      "type" : "SCALAR"
    },
    {
      "bufferView" : 25,
      "min" : [ 31.7766, 5.05972, 24.9093 ],
      "max" : [ 59.0348, 5.6, 60.6841 ],
      "componentType" : 5126,
      "count" : 668,
      "type" : "VEC3"
    },
    {
      "bufferView" : 26,
      "componentType" : 5126,
      "count" : 668,
      "type" : "VEC3"
    },
    {
      "bufferView" : 27,
      "componentType" : 5126,
      "count" : 668,
      "type" : "VEC4"
    },
    {
      "bufferView" : 28,
      "componentType" : 5126,
      "count" : 668,
      "type" : "VEC2"
    },
    {
      "bufferView" : 29,
      "componentType" : 5126,
      "count" : 668,
      "type" : "VEC2"
    },
    {
      "bufferView" : 30,
      "componentType" : 5126,
      "count" : 668,
      "type" : "VEC2"
    },
    {
      "bufferView" : 31,
      "componentType" : 5126,
      "count" : 668,
      "type" : "VEC2"
    },
    {
      "bufferView" : 32,
      "componentType" : 5123,
      "count" : 2934,
      "type" : "SCALAR"
    },
    {
      "bufferView" : 33,
      "min" : [ 31.5289, -0.244468, 24.7792 ],
      "max" : [ 58.1924, 0.300002, 61.5075 ],
      "componentType" : 5126,
      "count" : 750,
      "type" : "VEC3"
    },
    {
      "bufferView" : 34,
      "componentType" : 5126,
      "count" : 750,
      "type" : "VEC3"
    },
    {
      "bufferView" : 35,
      "componentType" : 5126,
      "count" : 750,
      "type" : "VEC4"
    },
    {
      "bufferView" : 36,
      "componentType" : 5126,
      "count" : 750,
      "type" : "VEC2"
    },
    {
      "bufferView" : 37,
      "componentType" : 5126,
      "count" : 750,
      "type" : "VEC2"
    },
    {
      "bufferView" : 38,
      "componentType" : 5126,
      "count" : 750,
      "type" : "VEC2"
    },
    {
      "bufferView" : 39,
      "componentType" : 5126,
      "count" : 750,
      "type" : "VEC2"
    },
    {
      "bufferView" : 40,
      "componentType" : 5123,
      "count" : 6,
      "type" : "SCALAR"
    },
    {
      "bufferView" : 41,
      "min" : [ 49.3353, 6, 29.2834 ],
      "max" : [ 53.4921, 6, 60.9972 ],
      "componentType" : 5126,
      "count" : 4,
      "type" : "VEC3"
    },
    {
      "bufferView" : 42,
      "componentType" : 5126,
      "count" : 4,
      "type" : "VEC3"
    },
    {
      "bufferView" : 43,
      "componentType" : 5126,
      "count" : 4,
      "type" : "VEC4"
    },
    {
      "bufferView" : 44,
      "componentType" : 5126,
      "count" : 4,
      "type" : "VEC2"
    },
    {
      "bufferView" : 45,
      "componentType" : 5126,
      "count" : 4,
      "type" : "VEC2"
    },
    {
      "bufferView" : 46,
      "componentType" : 5126,
      "count" : 4,
      "type" : "VEC2"
    },
    {
      "bufferView" : 47,
      "componentType" : 5126,
      "count" : 4,
      "type" : "VEC2"
    },
    {
      "bufferView" : 48,
      "componentType" : 5123,
      "count" : 276,
      "type" : "SCALAR"
    },
    {
      "bufferView" : 49,
      "min" : [ 48.6559, 0.800001, 24.4152 ],
      "max" : [ 58.3477, 1.5, 61.43 ],
      "componentType" : 5126,
      "count" : 98,
      "type" : "VEC3"
    },
    {
      "bufferView" : 50,
      "componentType" : 5126,
      "count" : 98,
      "type" : "VEC3"
    },
    {
      "bufferView" : 51,
      "componentType" : 5126,
      "count" : 98,
      "type" : "VEC4"
    },
    {
      "bufferView" : 52,
      "componentType" : 5126,
      "count" : 98,
      "type" : "VEC2"
    },
    {
      "bufferView" : 53,
      "componentType" : 5126,
      "count" : 98,
      "type" : "VEC2"
    },
    {
      "bufferView" : 54,
      "componentType" : 5126,
      "count" : 98,
      "type" : "VEC2"
    },
    {
      "bufferView" : 55,
      "componentType" : 5126,
      "count" : 98,
      "type" : "VEC2"
    },
    {
      "bufferView" : 56,
      "componentType" : 5123,
      "count" : 180,
      "type" : "SCALAR"
    },
    {
      "bufferView" : 57,
      "min" : [ 57.6257, -4.57764e-07, 24.3598 ],
      "max" : [ 58.4439, 0.300003, 25.272 ],
      "componentType" : 5126,
      "count" : 44,
      "type" : "VEC3"
    },
    {
      "bufferView" : 58,
      "componentType" : 5126,
      "count" : 44,
      "type" : "VEC3"
    },
    {
      "bufferView" : 59,
      "componentType" : 5126,
      "count" : 44,
      "type" : "VEC4"
    },
    {
      "bufferView" : 60,
      "componentType" : 5126,
      "count" : 44,
      "type" : "VEC2"
    },
    {
      "bufferView" : 61,
      "componentType" : 5126,
      "count" : 44,
      "type" : "VEC2"
    },
    {
      "bufferView" : 62,
      "componentType" : 5126,
      "count" : 44,
      "type" : "VEC2"
    },
    {
      "bufferView" : 63,
      "componentType" : 5126,
      "count" : 44,
      "type" : "VEC2"
    }
  ]
}
