{
  "asset" : {
    "generator" : "UE Viewer (umodel) build 1544 based",
    "version" : "2.0"
  },
  "scene" : 0,
  "scenes" : [
    {
      "nodes" : [ 0 ]
    }
  ],
  "nodes" : [
    {
      "name" : "SM_ENV_KNVLLG03_Bridge_ConnectorA_2",
      "mesh" : 0
    }
  ],
  "materials" : [
    {
      "name" : "MI_ENV_LKNVLD_WoodPlain_Red",
      "pbrMetallicRoughness" : {
        "baseColorFactor" : [ 0.3, 0.3, 0.3, 1.0 ],
        "metallicFactor" : 0.1,
        "roughnessFactor" : 0.5
      }
    },
    {
      "name" : "MI_ENV_LKNVLD_WoodWallSet",
      "pbrMetallicRoughness" : {
        "baseColorFactor" : [ 0.9, 0.3, 0.3, 1.0 ],
        "metallicFactor" : 0.1,
        "roughnessFactor" : 0.5
      }
    },
    {
      "name" : "MI_ENV_LKNVLD_Signboard_A",
      "pbrMetallicRoughness" : {
        "baseColorFactor" : [ 0.3, 0.9, 0.3, 1.0 ],
        "metallicFactor" : 0.1,
        "roughnessFactor" : 0.5
      }
    },
    {
      "name" : "MI_T_ENV_LKNVLD_StoneTrim",
      "pbrMetallicRoughness" : {
        "baseColorFactor" : [ 0.3, 0.3, 0.9, 1.0 ],
        "metallicFactor" : 0.1,
        "roughnessFactor" : 0.5
      }
    },
    {
      "name" : "MI_ENV_LKNVLD_WoodWallSet_Red",
      "pbrMetallicRoughness" : {
        "baseColorFactor" : [ 0.9, 0.9, 0.9, 1.0 ],
        "metallicFactor" : 0.1,
        "roughnessFactor" : 0.5
      }
    },
    {
      "name" : "MI_ENV_LKNVLD_Eaves_B",
      "pbrMetallicRoughness" : {
        "baseColorFactor" : [ 0.9, 0.9, 0.3, 1.0 ],
        "metallicFactor" : 0.1,
        "roughnessFactor" : 0.5
      }
    }
  ],
  "meshes" : [
    {
      "primitives" : [
        {
          "attributes" : {
            "POSITION" : 1,
            "NORMAL" : 2,
            "TANGENT" : 3,
            "TEXCOORD_0" : 4,
            "TEXCOORD_1" : 5,
            "TEXCOORD_2" : 6,
            "TEXCOORD_3" : 7
          },
          "indices" : 0,
          "material" : 0
        },
        {
          "attributes" : {
            "POSITION" : 9,
            "NORMAL" : 10,
            "TANGENT" : 11,
            "TEXCOORD_0" : 12,
            "TEXCOORD_1" : 13,
            "TEXCOORD_2" : 14,
            "TEXCOORD_3" : 15
          },
          "indices" : 8,
          "material" : 1
        },
        {
          "attributes" : {
            "POSITION" : 17,
            "NORMAL" : 18,
            "TANGENT" : 19,
            "TEXCOORD_0" : 20,
            "TEXCOORD_1" : 21,
            "TEXCOORD_2" : 22,
            "TEXCOORD_3" : 23
          },
          "indices" : 16,
          "material" : 2
        },
        {
          "attributes" : {
            "POSITION" : 25,
            "NORMAL" : 26,
            "TANGENT" : 27,
            "TEXCOORD_0" : 28,
            "TEXCOORD_1" : 29,
            "TEXCOORD_2" : 30,
            "TEXCOORD_3" : 31
          },
          "indices" : 24,
          "material" : 3
        },
        {
          "attributes" : {
            "POSITION" : 33,
            "NORMAL" : 34,
            "TANGENT" : 35,
            "TEXCOORD_0" : 36,
            "TEXCOORD_1" : 37,
            "TEXCOORD_2" : 38,
            "TEXCOORD_3" : 39
          },
          "indices" : 32,
          "material" : 4
        },
        {
          "attributes" : {
            "POSITION" : 41,
            "NORMAL" : 42,
            "TANGENT" : 43,
            "TEXCOORD_0" : 44,
            "TEXCOORD_1" : 45,
            "TEXCOORD_2" : 46,
            "TEXCOORD_3" : 47
          },
          "indices" : 40,
          "material" : 5
        }
      ],
      "name" : "SM_ENV_KNVLLG03_Bridge_ConnectorA_2"
    }
  ],
  "buffers" : [
    {
      "uri" : "SM_ENV_KNVLLG03_Bridge_ConnectorA_2.bin",
      "byteLength" : 354468
    }
  ],
  "bufferViews" : [
    {
      "buffer" : 0,
      "byteOffset" : 0,
      "byteLength" : 8364
    },
    {
      "buffer" : 0,
      "byteOffset" : 8364,
      "byteLength" : 27912
    },
    {
      "buffer" : 0,
      "byteOffset" : 36276,
      "byteLength" : 27912
    },
    {
      "buffer" : 0,
      "byteOffset" : 64188,
      "byteLength" : 37216
    },
    {
      "buffer" : 0,
      "byteOffset" : 101404,
      "byteLength" : 18608
    },
    {
      "buffer" : 0,
      "byteOffset" : 120012,
      "byteLength" : 18608
    },
    {
      "buffer" : 0,
      "byteOffset" : 138620,
      "byteLength" : 18608
    },
    {
      "buffer" : 0,
      "byteOffset" : 157228,
      "byteLength" : 18608
    },
    {
      "buffer" : 0,
      "byteOffset" : 175836,
      "byteLength" : 3216
    },
    {
      "buffer" : 0,
      "byteOffset" : 179052,
      "byteLength" : 7584
    },
    {
      "buffer" : 0,
      "byteOffset" : 186636,
      "byteLength" : 7584
    },
    {
      "buffer" : 0,
      "byteOffset" : 194220,
      "byteLength" : 10112
    },
    {
      "buffer" : 0,
      "byteOffset" : 204332,
      "byteLength" : 5056
    },
    {
      "buffer" : 0,
      "byteOffset" : 209388,
      "byteLength" : 5056
    },
    {
      "buffer" : 0,
      "byteOffset" : 214444,
      "byteLength" : 5056
    },
    {
      "buffer" : 0,
      "byteOffset" : 219500,
      "byteLength" : 5056
    },
    {
      "buffer" : 0,
      "byteOffset" : 224556,
      "byteLength" : 3528
    },
    {
      "buffer" : 0,
      "byteOffset" : 228084,
      "byteLength" : 10416
    },
    {
      "buffer" : 0,
      "byteOffset" : 238500,
      "byteLength" : 10416
    },
    {
      "buffer" : 0,
      "byteOffset" : 248916,
      "byteLength" : 13888
    },
    {
      "buffer" : 0,
      "byteOffset" : 262804,
      "byteLength" : 6944
    },
    {
      "buffer" : 0,
      "byteOffset" : 269748,
      "byteLength" : 6944
    },
    {
      "buffer" : 0,
      "byteOffset" : 276692,
      "byteLength" : 6944
    },
    {
      "buffer" : 0,
      "byteOffset" : 283636,
      "byteLength" : 6944
    },
    {
      "buffer" : 0,
      "byteOffset" : 290580,
      "byteLength" : 3096
    },
    {
      "buffer" : 0,
      "byteOffset" : 293676,
      "byteLength" : 4704
    },
    {
      "buffer" : 0,
      "byteOffset" : 298380,
      "byteLength" : 4704
    },
    {
      "buffer" : 0,
      "byteOffset" : 303084,
      "byteLength" : 6272
    },
    {
      "buffer" : 0,
      "byteOffset" : 309356,
      "byteLength" : 3136
    },
    {
      "buffer" : 0,
      "byteOffset" : 312492,
      "byteLength" : 3136
    },
    {
      "buffer" : 0,
      "byteOffset" : 315628,
      "byteLength" : 3136
    },
    {
      "buffer" : 0,
      "byteOffset" : 318764,
      "byteLength" : 3136
    },
    {
      "buffer" : 0,
      "byteOffset" : 321900,
      "byteLength" : 240
    },
    {
      "buffer" : 0,
      "byteOffset" : 322140,
      "byteLength" : 528
    },
    {
      "buffer" : 0,
      "byteOffset" : 322668,
      "byteLength" : 528
    },
    {
      "buffer" : 0,
      "byteOffset" : 323196,
      "byteLength" : 704
    },
    {
      "buffer" : 0,
      "byteOffset" : 323900,
      "byteLength" : 352
    },
    {
      "buffer" : 0,
      "byteOffset" : 324252,
      "byteLength" : 352
    },
    {
      "buffer" : 0,
      "byteOffset" : 324604,
      "byteLength" : 352
    },
    {
      "buffer" : 0,
      "byteOffset" : 324956,
      "byteLength" : 352
    },
    {
      "buffer" : 0,
      "byteOffset" : 325308,
      "byteLength" : 1800
    },
    {
      "buffer" : 0,
      "byteOffset" : 327108,
      "byteLength" : 4560
    },
    {
      "buffer" : 0,
      "byteOffset" : 331668,
      "byteLength" : 4560
    },
    {
      "buffer" : 0,
      "byteOffset" : 336228,
      "byteLength" : 6080
    },
    {
      "buffer" : 0,
      "byteOffset" : 342308,
      "byteLength" : 3040
    },
    {
      "buffer" : 0,
      "byteOffset" : 345348,
      "byteLength" : 3040
    },
    {
      "buffer" : 0,
      "byteOffset" : 348388,
      "byteLength" : 3040
    },
    {
      "buffer" : 0,
      "byteOffset" : 351428,
      "byteLength" : 3040
    }
  ],
  "accessors" : [
    {
      "bufferView" : 0,
      "componentType" : 5123,
      "count" : 4182,
      "type" : "SCALAR"
    },
    {
      "bufferView" : 1,
      "min" : [ -52.2278, 0.699998, 64.8915 ],
      "max" : [ -27.1157, 6, 71.5296 ],
      "componentType" : 5126,
      "count" : 2326,
      "type" : "VEC3"
    },
    {
      "bufferView" : 2,
      "componentType" : 5126,
      "count" : 2326,
      "type" : "VEC3"
    },
    {
      "bufferView" : 3,
      "componentType" : 5126,
      "count" : 2326,
      "type" : "VEC4"
    },
    {
      "bufferView" : 4,
      "componentType" : 5126,
      "count" : 2326,
      "type" : "VEC2"
    },
    {
      "bufferView" : 5,
      "componentType" : 5126,
      "count" : 2326,
      "type" : "VEC2"
    },
    {
      "bufferView" : 6,
      "componentType" : 5126,
      "count" : 2326,
      "type" : "VEC2"
    },
    {
      "bufferView" : 7,
      "componentType" : 5126,
      "count" : 2326,
      "type" : "VEC2"
    },
    {
      "bufferView" : 8,
      "componentType" : 5123,
      "count" : 1608,
      "type" : "SCALAR"
    },
    {
      "bufferView" : 9,
      "min" : [ -52.1838, 0.297883, 64.93 ],
      "max" : [ -27.1421, 5.5, 71.2125 ],
      "componentType" : 5126,
      "count" : 632,
      "type" : "VEC3"
    },
    {
      "bufferView" : 10,
      "componentType" : 5126,
      "count" : 632,
      "type" : "VEC3"
    },
    {
      "bufferView" : 11,
      "componentType" : 5126,
      "count" : 632,
      "type" : "VEC4"
    },
    {
      "bufferView" : 12,
      "componentType" : 5126,
      "count" : 632,
      "type" : "VEC2"
    },
    {
      "bufferView" : 13,
      "componentType" : 5126,
      "count" : 632,
      "type" : "VEC2"
    },
    {
      "bufferView" : 14,
      "componentType" : 5126,
      "count" : 632,
      "type" : "VEC2"
    },
    {
      "bufferView" : 15,
      "componentType" : 5126,
      "count" : 632,
      "type" : "VEC2"
    },
    {
      "bufferView" : 16,
      "componentType" : 5123,
      "count" : 1764,
      "type" : "SCALAR"
    },
    {
      "bufferView" : 17,
      "min" : [ -52.2278, 4.79788, 64.8915 ],
      "max" : [ -27.1157, 5.6, 68.5293 ],
      "componentType" : 5126,
      "count" : 868,
      "type" : "VEC3"
    },
    {
      "bufferView" : 18,
      "componentType" : 5126,
      "count" : 868,
      "type" : "VEC3"
    },
    {
      "bufferView" : 19,
      "componentType" : 5126,
      "count" : 868,
      "type" : "VEC4"
    },
    {
      "bufferView" : 20,
      "componentType" : 5126,
      "count" : 868,
      "type" : "VEC2"
    },
    {
      "bufferView" : 21,
      "componentType" : 5126,
      "count" : 868,
      "type" : "VEC2"
    },
    {
      "bufferView" : 22,
      "componentType" : 5126,
      "count" : 868,
      "type" : "VEC2"
    },
    {
      "bufferView" : 23,
      "componentType" : 5126,
      "count" : 868,
      "type" : "VEC2"
    },
    {
      "bufferView" : 24,
      "componentType" : 5123,
      "count" : 1548,
      "type" : "SCALAR"
    },
    {
      "bufferView" : 25,
      "min" : [ -52.2384, -0.00211843, 64.8967 ],
      "max" : [ -27.1178, 0.300003, 71.2125 ],
      "componentType" : 5126,
      "count" : 392,
      "type" : "VEC3"
    },
    {
      "bufferView" : 26,
      "componentType" : 5126,
      "count" : 392,
      "type" : "VEC3"
    },
    {
      "bufferView" : 27,
      "componentType" : 5126,
      "count" : 392,
      "type" : "VEC4"
    },
    {
      "bufferView" : 28,
      "componentType" : 5126,
      "count" : 392,
      "type" : "VEC2"
    },
    {
      "bufferView" : 29,
      "componentType" : 5126,
      "count" : 392,
      "type" : "VEC2"
    },
    {
      "bufferView" : 30,
      "componentType" : 5126,
      "count" : 392,
      "type" : "VEC2"
    },
    {
      "bufferView" : 31,
      "componentType" : 5126,
      "count" : 392,
      "type" : "VEC2"
    },
    {
      "bufferView" : 32,
      "componentType" : 5123,
      "count" : 120,
      "type" : "SCALAR"
    },
    {
      "bufferView" : 33,
      "min" : [ -52.1479, 0.797883, 64.9521 ],
      "max" : [ -27.158, 1.5, 65.7127 ],
      "componentType" : 5126,
      "count" : 44,
      "type" : "VEC3"
    },
    {
      "bufferView" : 34,
      "componentType" : 5126,
      "count" : 44,
      "type" : "VEC3"
    },
    {
      "bufferView" : 35,
      "componentType" : 5126,
      "count" : 44,
      "type" : "VEC4"
    },
    {
      "bufferView" : 36,
      "componentType" : 5126,
      "count" : 44,
      "type" : "VEC2"
    },
    {
      "bufferView" : 37,
      "componentType" : 5126,
      "count" : 44,
      "type" : "VEC2"
    },
    {
      "bufferView" : 38,
      "componentType" : 5126,
      "count" : 44,
      "type" : "VEC2"
    },
    {
      "bufferView" : 39,
      "componentType" : 5126,
      "count" : 44,
      "type" : "VEC2"
    },
    {
      "bufferView" : 40,
      "componentType" : 5123,
      "count" : 900,
      "type" : "SCALAR"
    },
    {
      "bufferView" : 41,
      "min" : [ -51.7893, 5.0679, 65.2821 ],
      "max" : [ -27.3507, 5.6, 68.3711 ],
      "componentType" : 5126,
      "count" : 380,
      "type" : "VEC3"
    },
    {
      "bufferView" : 42,
      "componentType" : 5126,
      "count" : 380,
      "type" : "VEC3"
    },
    {
      "bufferView" : 43,
      "componentType" : 5126,
      "count" : 380,
      "type" : "VEC4"
    },
    {
      "bufferView" : 44,
      "componentType" : 5126,
      "count" : 380,
      "type" : "VEC2"
    },
    {
      "bufferView" : 45,
      "componentType" : 5126,
      "count" : 380,
      "type" : "VEC2"
    },
    {
      "bufferView" : 46,
      "componentType" : 5126,
      "count" : 380,
      "type" : "VEC2"
    },
    {
      "bufferView" : 47,
      "componentType" : 5126,
      "count" : 380,
      "type" : "VEC2"
    }
  ]
}
