{
  "asset" : {
    "generator" : "UE Viewer (umodel) build 1544 based",
    "version" : "2.0"
  },
  "scene" : 0,
  "scenes" : [
    {
      "nodes" : [ 0 ]
    }
  ],
  "nodes" : [
    {
      "name" : "SM_ENV_KNVLLG03_Bridge_ConnectorC",
      "mesh" : 0
    }
  ],
  "materials" : [
    {
      "name" : "MI_ENV_LKNVLD_WoodPlain_Red",
      "pbrMetallicRoughness" : {
        "baseColorFactor" : [ 0.3, 0.3, 0.3, 1.0 ],
        "metallicFactor" : 0.1,
        "roughnessFactor" : 0.5
      }
    },
    {
      "name" : "MI_ENV_LKNVLD_WoodWallSet",
      "pbrMetallicRoughness" : {
        "baseColorFactor" : [ 0.9, 0.3, 0.3, 1.0 ],
        "metallicFactor" : 0.1,
        "roughnessFactor" : 0.5
      }
    },
    {
      "name" : "MI_ENV_LKNVLD_Signboard_A",
      "pbrMetallicRoughness" : {
        "baseColorFactor" : [ 0.3, 0.9, 0.3, 1.0 ],
        "metallicFactor" : 0.1,
        "roughnessFactor" : 0.5
      }
    },
    {
      "name" : "MI_ENV_LKNVLD_Eaves_B",
      "pbrMetallicRoughness" : {
        "baseColorFactor" : [ 0.3, 0.3, 0.9, 1.0 ],
        "metallicFactor" : 0.1,
        "roughnessFactor" : 0.5
      }
    },
    {
      "name" : "MI_ENV_LKNVLD_StoneTrim_Ground",
      "pbrMetallicRoughness" : {
        "baseColorFactor" : [ 0.9, 0.9, 0.9, 1.0 ],
        "metallicFactor" : 0.1,
        "roughnessFactor" : 0.5
      }
    },
    {
      "name" : "MI_ENV_LKNVLD_WoodBoard_Natural_Lighter",
      "pbrMetallicRoughness" : {
        "baseColorFactor" : [ 0.9, 0.9, 0.3, 1.0 ],
        "metallicFactor" : 0.1,
        "roughnessFactor" : 0.5
      }
    }
  ],
  "meshes" : [
    {
      "primitives" : [
        {
          "attributes" : {
            "POSITION" : 1,
            "NORMAL" : 2,
            "TANGENT" : 3,
            "TEXCOORD_0" : 4,
            "TEXCOORD_1" : 5,
            "TEXCOORD_2" : 6,
            "TEXCOORD_3" : 7
          },
          "indices" : 0,
          "material" : 0
        },
        {
          "attributes" : {
            "POSITION" : 9,
            "NORMAL" : 10,
            "TANGENT" : 11,
            "TEXCOORD_0" : 12,
            "TEXCOORD_1" : 13,
            "TEXCOORD_2" : 14,
            "TEXCOORD_3" : 15
          },
          "indices" : 8,
          "material" : 1
        },
        {
          "attributes" : {
            "POSITION" : 17,
            "NORMAL" : 18,
            "TANGENT" : 19,
            "TEXCOORD_0" : 20,
            "TEXCOORD_1" : 21,
            "TEXCOORD_2" : 22,
            "TEXCOORD_3" : 23
          },
          "indices" : 16,
          "material" : 2
        },
        {
          "attributes" : {
            "POSITION" : 25,
            "NORMAL" : 26,
            "TANGENT" : 27,
            "TEXCOORD_0" : 28,
            "TEXCOORD_1" : 29,
            "TEXCOORD_2" : 30,
            "TEXCOORD_3" : 31
          },
          "indices" : 24,
          "material" : 3
        },
        {
          "attributes" : {
            "POSITION" : 33,
            "NORMAL" : 34,
            "TANGENT" : 35,
            "TEXCOORD_0" : 36,
            "TEXCOORD_1" : 37,
            "TEXCOORD_2" : 38,
            "TEXCOORD_3" : 39
          },
          "indices" : 32,
          "material" : 4
        },
        {
          "attributes" : {
            "POSITION" : 41,
            "NORMAL" : 42,
            "TANGENT" : 43,
            "TEXCOORD_0" : 44,
            "TEXCOORD_1" : 45,
            "TEXCOORD_2" : 46,
            "TEXCOORD_3" : 47
          },
          "indices" : 40,
          "material" : 5
        }
      ],
      "name" : "SM_ENV_KNVLLG03_Bridge_ConnectorC"
    }
  ],
  "buffers" : [
    {
      "uri" : "SM_ENV_KNVLLG03_Bridge_ConnectorC.bin",
      "byteLength" : 375116
    }
  ],
  "bufferViews" : [
    {
      "buffer" : 0,
      "byteOffset" : 0,
      "byteLength" : 9548
    },
    {
      "buffer" : 0,
      "byteOffset" : 9548,
      "byteLength" : 29916
    },
    {
      "buffer" : 0,
      "byteOffset" : 39464,
      "byteLength" : 29916
    },
    {
      "buffer" : 0,
      "byteOffset" : 69380,
      "byteLength" : 39888
    },
    {
      "buffer" : 0,
      "byteOffset" : 109268,
      "byteLength" : 19944
    },
    {
      "buffer" : 0,
      "byteOffset" : 129212,
      "byteLength" : 19944
    },
    {
      "buffer" : 0,
      "byteOffset" : 149156,
      "byteLength" : 19944
    },
    {
      "buffer" : 0,
      "byteOffset" : 169100,
      "byteLength" : 19944
    },
    {
      "buffer" : 0,
      "byteOffset" : 189044,
      "byteLength" : 4920
    },
    {
      "buffer" : 0,
      "byteOffset" : 193964,
      "byteLength" : 12432
    },
    {
      "buffer" : 0,
      "byteOffset" : 206396,
      "byteLength" : 12432
    },
    {
      "buffer" : 0,
      "byteOffset" : 218828,
      "byteLength" : 16576
    },
    {
      "buffer" : 0,
      "byteOffset" : 235404,
      "byteLength" : 8288
    },
    {
      "buffer" : 0,
      "byteOffset" : 243692,
      "byteLength" : 8288
    },
    {
      "buffer" : 0,
      "byteOffset" : 251980,
      "byteLength" : 8288
    },
    {
      "buffer" : 0,
      "byteOffset" : 260268,
      "byteLength" : 8288
    },
    {
      "buffer" : 0,
      "byteOffset" : 268556,
      "byteLength" : 5388
    },
    {
      "buffer" : 0,
      "byteOffset" : 273944,
      "byteLength" : 11880
    },
    {
      "buffer" : 0,
      "byteOffset" : 285824,
      "byteLength" : 11880
    },
    {
      "buffer" : 0,
      "byteOffset" : 297704,
      "byteLength" : 15840
    },
    {
      "buffer" : 0,
      "byteOffset" : 313544,
      "byteLength" : 7920
    },
    {
      "buffer" : 0,
      "byteOffset" : 321464,
      "byteLength" : 7920
    },
    {
      "buffer" : 0,
      "byteOffset" : 329384,
      "byteLength" : 7920
    },
    {
      "buffer" : 0,
      "byteOffset" : 337304,
      "byteLength" : 7920
    },
    {
      "buffer" : 0,
      "byteOffset" : 345224,
      "byteLength" : 900
    },
    {
      "buffer" : 0,
      "byteOffset" : 346124,
      "byteLength" : 2280
    },
    {
      "buffer" : 0,
      "byteOffset" : 348404,
      "byteLength" : 2280
    },
    {
      "buffer" : 0,
      "byteOffset" : 350684,
      "byteLength" : 3040
    },
    {
      "buffer" : 0,
      "byteOffset" : 353724,
      "byteLength" : 1520
    },
    {
      "buffer" : 0,
      "byteOffset" : 355244,
      "byteLength" : 1520
    },
    {
      "buffer" : 0,
      "byteOffset" : 356764,
      "byteLength" : 1520
    },
    {
      "buffer" : 0,
      "byteOffset" : 358284,
      "byteLength" : 1520
    },
    {
      "buffer" : 0,
      "byteOffset" : 359804,
      "byteLength" : 1476
    },
    {
      "buffer" : 0,
      "byteOffset" : 361280,
      "byteLength" : 2256
    },
    {
      "buffer" : 0,
      "byteOffset" : 363536,
      "byteLength" : 2256
    },
    {
      "buffer" : 0,
      "byteOffset" : 365792,
      "byteLength" : 3008
    },
    {
      "buffer" : 0,
      "byteOffset" : 368800,
      "byteLength" : 1504
    },
    {
      "buffer" : 0,
      "byteOffset" : 370304,
      "byteLength" : 1504
    },
    {
      "buffer" : 0,
      "byteOffset" : 371808,
      "byteLength" : 1504
    },
    {
      "buffer" : 0,
      "byteOffset" : 373312,
      "byteLength" : 1504
    },
    {
      "buffer" : 0,
      "byteOffset" : 374816,
      "byteLength" : 12
    },
    {
      "buffer" : 0,
      "byteOffset" : 374828,
      "byteLength" : 48
    },
    {
      "buffer" : 0,
      "byteOffset" : 374876,
      "byteLength" : 48
    },
    {
      "buffer" : 0,
      "byteOffset" : 374924,
      "byteLength" : 64
    },
    {
      "buffer" : 0,
      "byteOffset" : 374988,
      "byteLength" : 32
    },
    {
      "buffer" : 0,
      "byteOffset" : 375020,
      "byteLength" : 32
    },
    {
      "buffer" : 0,
      "byteOffset" : 375052,
      "byteLength" : 32
    },
    {
      "buffer" : 0,
      "byteOffset" : 375084,
      "byteLength" : 32
    }
  ],
  "accessors" : [
    {
      "bufferView" : 0,
      "componentType" : 5123,
      "count" : 4773,
      "type" : "SCALAR"
    },
    {
      "bufferView" : 1,
      "min" : [ 26.8399, 0.705004, 59.9063 ],
      "max" : [ 54.2196, 7.58117, 65.8728 ],
      "componentType" : 5126,
      "count" : 2493,
      "type" : "VEC3"
    },
    {
      "bufferView" : 2,
      "componentType" : 5126,
      "count" : 2493,
      "type" : "VEC3"
    },
    {
      "bufferView" : 3,
      "componentType" : 5126,
      "count" : 2493,
      "type" : "VEC4"
    },
    {
      "bufferView" : 4,
      "componentType" : 5126,
      "count" : 2493,
      "type" : "VEC2"
    },
    {
      "bufferView" : 5,
      "componentType" : 5126,
      "count" : 2493,
      "type" : "VEC2"
    },
    {
      "bufferView" : 6,
      "componentType" : 5126,
      "count" : 2493,
      "type" : "VEC2"
    },
    {
      "bufferView" : 7,
      "componentType" : 5126,
      "count" : 2493,
      "type" : "VEC2"
    },
    {
      "bufferView" : 8,
      "componentType" : 5123,
      "count" : 2460,
      "type" : "SCALAR"
    },
    {
      "bufferView" : 9,
      "min" : [ 28.9129, 0.305004, 60.5191 ],
      "max" : [ 53.9636, 6.18117, 65.626 ],
      "componentType" : 5126,
      "count" : 1036,
      "type" : "VEC3"
    },
    {
      "bufferView" : 10,
      "componentType" : 5126,
      "count" : 1036,
      "type" : "VEC3"
    },
    {
      "bufferView" : 11,
      "componentType" : 5126,
      "count" : 1036,
      "type" : "VEC4"
    },
    {
      "bufferView" : 12,
      "componentType" : 5126,
      "count" : 1036,
      "type" : "VEC2"
    },
    {
      "bufferView" : 13,
      "componentType" : 5126,
      "count" : 1036,
      "type" : "VEC2"
    },
    {
      "bufferView" : 14,
      "componentType" : 5126,
      "count" : 1036,
      "type" : "VEC2"
    },
    {
      "bufferView" : 15,
      "componentType" : 5126,
      "count" : 1036,
      "type" : "VEC2"
    },
    {
      "bufferView" : 16,
      "componentType" : 5123,
      "count" : 2694,
      "type" : "SCALAR"
    },
    {
      "bufferView" : 17,
      "min" : [ 28.8923, 4.805, 59.8724 ],
      "max" : [ 53.9841, 8.10117, 65.6473 ],
      "componentType" : 5126,
      "count" : 990,
      "type" : "VEC3"
    },
    {
      "bufferView" : 18,
      "componentType" : 5126,
      "count" : 990,
      "type" : "VEC3"
    },
    {
      "bufferView" : 19,
      "componentType" : 5126,
      "count" : 990,
      "type" : "VEC4"
    },
    {
      "bufferView" : 20,
      "componentType" : 5126,
      "count" : 990,
      "type" : "VEC2"
    },
    {
      "bufferView" : 21,
      "componentType" : 5126,
      "count" : 990,
      "type" : "VEC2"
    },
    {
      "bufferView" : 22,
      "componentType" : 5126,
      "count" : 990,
      "type" : "VEC2"
    },
    {
      "bufferView" : 23,
      "componentType" : 5126,
      "count" : 990,
      "type" : "VEC2"
    },
    {
      "bufferView" : 24,
      "componentType" : 5123,
      "count" : 450,
      "type" : "SCALAR"
    },
    {
      "bufferView" : 25,
      "min" : [ 31.9041, 5.07502, 59.8724 ],
      "max" : [ 45.2663, 5.60501, 60.8467 ],
      "componentType" : 5126,
      "count" : 190,
      "type" : "VEC3"
    },
    {
      "bufferView" : 26,
      "componentType" : 5126,
      "count" : 190,
      "type" : "VEC3"
    },
    {
      "bufferView" : 27,
      "componentType" : 5126,
      "count" : 190,
      "type" : "VEC4"
    },
    {
      "bufferView" : 28,
      "componentType" : 5126,
      "count" : 190,
      "type" : "VEC2"
    },
    {
      "bufferView" : 29,
      "componentType" : 5126,
      "count" : 190,
      "type" : "VEC2"
    },
    {
      "bufferView" : 30,
      "componentType" : 5126,
      "count" : 190,
      "type" : "VEC2"
    },
    {
      "bufferView" : 31,
      "componentType" : 5126,
      "count" : 190,
      "type" : "VEC2"
    },
    {
      "bufferView" : 32,
      "componentType" : 5123,
      "count" : 738,
      "type" : "SCALAR"
    },
    {
      "bufferView" : 33,
      "min" : [ 31.7545, -0.229169, 60.7083 ],
      "max" : [ 51.7057, 0.305007, 60.9972 ],
      "componentType" : 5126,
      "count" : 188,
      "type" : "VEC3"
    },
    {
      "bufferView" : 34,
      "componentType" : 5126,
      "count" : 188,
      "type" : "VEC3"
    },
    {
      "bufferView" : 35,
      "componentType" : 5126,
      "count" : 188,
      "type" : "VEC4"
    },
    {
      "bufferView" : 36,
      "componentType" : 5126,
      "count" : 188,
      "type" : "VEC2"
    },
    {
      "bufferView" : 37,
      "componentType" : 5126,
      "count" : 188,
      "type" : "VEC2"
    },
    {
      "bufferView" : 38,
      "componentType" : 5126,
      "count" : 188,
      "type" : "VEC2"
    },
    {
      "bufferView" : 39,
      "componentType" : 5126,
      "count" : 188,
      "type" : "VEC2"
    },
    {
      "bufferView" : 40,
      "componentType" : 5123,
      "count" : 6,
      "type" : "SCALAR"
    },
    {
      "bufferView" : 41,
      "min" : [ 26.8795, 6, 60.9984 ],
      "max" : [ 53.4922, 6, 65.1553 ],
      "componentType" : 5126,
      "count" : 4,
      "type" : "VEC3"
    },
    {
      "bufferView" : 42,
      "componentType" : 5126,
      "count" : 4,
      "type" : "VEC3"
    },
    {
      "bufferView" : 43,
      "componentType" : 5126,
      "count" : 4,
      "type" : "VEC4"
    },
    {
      "bufferView" : 44,
      "componentType" : 5126,
      "count" : 4,
      "type" : "VEC2"
    },
    {
      "bufferView" : 45,
      "componentType" : 5126,
      "count" : 4,
      "type" : "VEC2"
    },
    {
      "bufferView" : 46,
      "componentType" : 5126,
      "count" : 4,
      "type" : "VEC2"
    },
    {
      "bufferView" : 47,
      "componentType" : 5126,
      "count" : 4,
      "type" : "VEC2"
    }
  ]
}
