{
  "asset" : {
    "generator" : "UE Viewer (umodel) build 1544 based",
    "version" : "2.0"
  },
  "scene" : 0,
  "scenes" : [
    {
      "nodes" : [ 0 ]
    }
  ],
  "nodes" : [
    {
      "name" : "SM_ENV_KNVLLG03_Bridge_PlatformB",
      "mesh" : 0
    }
  ],
  "materials" : [
    {
      "name" : "MI_ENV_LKNVLD_WoodPlain_Red",
      "pbrMetallicRoughness" : {
        "baseColorFactor" : [ 0.3, 0.3, 0.3, 1.0 ],
        "metallicFactor" : 0.1,
        "roughnessFactor" : 0.5
      }
    },
    {
      "name" : "MI_ENV_LKNVLD_WoodWallSet",
      "pbrMetallicRoughness" : {
        "baseColorFactor" : [ 0.9, 0.3, 0.3, 1.0 ],
        "metallicFactor" : 0.1,
        "roughnessFactor" : 0.5
      }
    },
    {
      "name" : "MI_ENV_LKNVLD_Signboard_A",
      "pbrMetallicRoughness" : {
        "baseColorFactor" : [ 0.3, 0.9, 0.3, 1.0 ],
        "metallicFactor" : 0.1,
        "roughnessFactor" : 0.5
      }
    },
    {
      "name" : "MI_ENV_LKNVLD_Eaves_B",
      "pbrMetallicRoughness" : {
        "baseColorFactor" : [ 0.3, 0.3, 0.9, 1.0 ],
        "metallicFactor" : 0.1,
        "roughnessFactor" : 0.5
      }
    },
    {
      "name" : "MI_ENV_LKNVLD_WoodPlain_Red",
      "pbrMetallicRoughness" : {
        "baseColorFactor" : [ 0.9, 0.9, 0.9, 1.0 ],
        "metallicFactor" : 0.1,
        "roughnessFactor" : 0.5
      }
    },
    {
      "name" : "MI_ENV_LKNVLD_WoodBoard_Purple",
      "pbrMetallicRoughness" : {
        "baseColorFactor" : [ 0.9, 0.9, 0.3, 1.0 ],
        "metallicFactor" : 0.1,
        "roughnessFactor" : 0.5
      }
    },
    {
      "name" : "MI_ENV_LKNVLD_Eaves_A",
      "pbrMetallicRoughness" : {
        "baseColorFactor" : [ 0.9, 0.3, 0.9, 1.0 ],
        "metallicFactor" : 0.1,
        "roughnessFactor" : 0.5
      }
    },
    {
      "name" : "MI_ENV_LKNVLD_Plaster_Purple",
      "pbrMetallicRoughness" : {
        "baseColorFactor" : [ 0.3, 0.9, 0.9, 1.0 ],
        "metallicFactor" : 0.1,
        "roughnessFactor" : 0.5
      }
    },
    {
      "name" : "MI_ENV_LKNVLD_Signboard_B",
      "pbrMetallicRoughness" : {
        "baseColorFactor" : [ 1, 0.3, 0.3, 1.0 ],
        "metallicFactor" : 0.1,
        "roughnessFactor" : 0.5
      }
    },
    {
      "name" : "MI_T_ENV_LKNVLD_StoneTrim",
      "pbrMetallicRoughness" : {
        "baseColorFactor" : [ 0.6, 0.3, 0.3, 1.0 ],
        "metallicFactor" : 0.1,
        "roughnessFactor" : 0.5
      }
    },
    {
      "name" : "MI_ENV_LKNVLD_WoodWallSet_Red",
      "pbrMetallicRoughness" : {
        "baseColorFactor" : [ 1, 0.9, 0.3, 1.0 ],
        "metallicFactor" : 0.1,
        "roughnessFactor" : 0.5
      }
    },
    {
      "name" : "MI_ENV_LKNVLD_MetalRoofDark",
      "pbrMetallicRoughness" : {
        "baseColorFactor" : [ 1, 0.3, 0.9, 1.0 ],
        "metallicFactor" : 0.1,
        "roughnessFactor" : 0.5
      }
    },
    {
      "name" : "MI_ENV_LKNVLD_Lantern_A",
      "pbrMetallicRoughness" : {
        "baseColorFactor" : [ 0.6, 0.9, 0.9, 1.0 ],
        "metallicFactor" : 0.1,
        "roughnessFactor" : 0.5
      }
    },
    {
      "name" : "MI_ENV_LKNVLD_Plaster",
      "pbrMetallicRoughness" : {
        "baseColorFactor" : [ 0.6, 0.9, 0.3, 1.0 ],
        "metallicFactor" : 0.1,
        "roughnessFactor" : 0.5
      }
    },
    {
      "name" : "MI_ENV_LKNVLD_Plaster_Dark",
      "pbrMetallicRoughness" : {
        "baseColorFactor" : [ 0.6, 0.3, 0.9, 1.0 ],
        "metallicFactor" : 0.1,
        "roughnessFactor" : 0.5
      }
    },
    {
      "name" : "MI_ENV_LKNVLD_WoodBoard_Natural",
      "pbrMetallicRoughness" : {
        "baseColorFactor" : [ 1, 0.9, 0.9, 1.0 ],
        "metallicFactor" : 0.1,
        "roughnessFactor" : 0.5
      }
    },
    {
      "name" : "MI_ENV_LKNVLD_MetalRoof_Orange",
      "pbrMetallicRoughness" : {
        "baseColorFactor" : [ 0.3, 1, 0.3, 1.0 ],
        "metallicFactor" : 0.1,
        "roughnessFactor" : 0.5
      }
    },
    {
      "name" : "MI_ENV_LKNVLD_Metal_C",
      "pbrMetallicRoughness" : {
        "baseColorFactor" : [ 0.9, 1, 0.3, 1.0 ],
        "metallicFactor" : 0.1,
        "roughnessFactor" : 0.5
      }
    },
    {
      "name" : "MI_ENV_LKNVLD_Aircon_A",
      "pbrMetallicRoughness" : {
        "baseColorFactor" : [ 0.3, 0.6, 0.3, 1.0 ],
        "metallicFactor" : 0.1,
        "roughnessFactor" : 0.5
      }
    },
    {
      "name" : "MI_T_ENV_LKNVLD_StoneStairs",
      "pbrMetallicRoughness" : {
        "baseColorFactor" : [ 0.3, 1, 0.9, 1.0 ],
        "metallicFactor" : 0.1,
        "roughnessFactor" : 0.5
      }
    },
    {
      "name" : "MI_ENV_LKNVLD_Door_A",
      "pbrMetallicRoughness" : {
        "baseColorFactor" : [ 0.9, 0.6, 0.9, 1.0 ],
        "metallicFactor" : 0.1,
        "roughnessFactor" : 0.5
      }
    }
  ],
  "meshes" : [
    {
      "primitives" : [
        {
          "attributes" : {
            "POSITION" : 1,
            "NORMAL" : 2,
            "TANGENT" : 3,
            "COLOR_0" : 4,
            "TEXCOORD_0" : 5,
            "TEXCOORD_1" : 6,
            "TEXCOORD_2" : 7,
            "TEXCOORD_3" : 8
          },
          "indices" : 0,
          "material" : 0
        },
        {
          "attributes" : {
            "POSITION" : 10,
            "NORMAL" : 11,
            "TANGENT" : 12,
            "COLOR_0" : 13,
            "TEXCOORD_0" : 14,
            "TEXCOORD_1" : 15,
            "TEXCOORD_2" : 16,
            "TEXCOORD_3" : 17
          },
          "indices" : 9,
          "material" : 1
        },
        {
          "attributes" : {
            "POSITION" : 19,
            "NORMAL" : 20,
            "TANGENT" : 21,
            "COLOR_0" : 22,
            "TEXCOORD_0" : 23,
            "TEXCOORD_1" : 24,
            "TEXCOORD_2" : 25,
            "TEXCOORD_3" : 26
          },
          "indices" : 18,
          "material" : 2
        },
        {
          "attributes" : {
            "POSITION" : 28,
            "NORMAL" : 29,
            "TANGENT" : 30,
            "COLOR_0" : 31,
            "TEXCOORD_0" : 32,
            "TEXCOORD_1" : 33,
            "TEXCOORD_2" : 34,
            "TEXCOORD_3" : 35
          },
          "indices" : 27,
          "material" : 3
        },
        {
          "attributes" : {
            "POSITION" : 37,
            "NORMAL" : 38,
            "TANGENT" : 39,
            "COLOR_0" : 40,
            "TEXCOORD_0" : 41,
            "TEXCOORD_1" : 42,
            "TEXCOORD_2" : 43,
            "TEXCOORD_3" : 44
          },
          "indices" : 36,
          "material" : 4
        },
        {
          "attributes" : {
            "POSITION" : 46,
            "NORMAL" : 47,
            "TANGENT" : 48,
            "COLOR_0" : 49,
            "TEXCOORD_0" : 50,
            "TEXCOORD_1" : 51,
            "TEXCOORD_2" : 52,
            "TEXCOORD_3" : 53
          },
          "indices" : 45,
          "material" : 5
        },
        {
          "attributes" : {
            "POSITION" : 55,
            "NORMAL" : 56,
            "TANGENT" : 57,
            "COLOR_0" : 58,
            "TEXCOORD_0" : 59,
            "TEXCOORD_1" : 60,
            "TEXCOORD_2" : 61,
            "TEXCOORD_3" : 62
          },
          "indices" : 54,
          "material" : 6
        },
        {
          "attributes" : {
            "POSITION" : 64,
            "NORMAL" : 65,
            "TANGENT" : 66,
            "COLOR_0" : 67,
            "TEXCOORD_0" : 68,
            "TEXCOORD_1" : 69,
            "TEXCOORD_2" : 70,
            "TEXCOORD_3" : 71
          },
          "indices" : 63,
          "material" : 7
        },
        {
          "attributes" : {
            "POSITION" : 73,
            "NORMAL" : 74,
            "TANGENT" : 75,
            "COLOR_0" : 76,
            "TEXCOORD_0" : 77,
            "TEXCOORD_1" : 78,
            "TEXCOORD_2" : 79,
            "TEXCOORD_3" : 80
          },
          "indices" : 72,
          "material" : 8
        },
        {
          "attributes" : {
            "POSITION" : 82,
            "NORMAL" : 83,
            "TANGENT" : 84,
            "COLOR_0" : 85,
            "TEXCOORD_0" : 86,
            "TEXCOORD_1" : 87,
            "TEXCOORD_2" : 88,
            "TEXCOORD_3" : 89
          },
          "indices" : 81,
          "material" : 9
        },
        {
          "attributes" : {
            "POSITION" : 91,
            "NORMAL" : 92,
            "TANGENT" : 93,
            "COLOR_0" : 94,
            "TEXCOORD_0" : 95,
            "TEXCOORD_1" : 96,
            "TEXCOORD_2" : 97,
            "TEXCOORD_3" : 98
          },
          "indices" : 90,
          "material" : 10
        },
        {
          "attributes" : {
            "POSITION" : 100,
            "NORMAL" : 101,
            "TANGENT" : 102,
            "COLOR_0" : 103,
            "TEXCOORD_0" : 104,
            "TEXCOORD_1" : 105,
            "TEXCOORD_2" : 106,
            "TEXCOORD_3" : 107
          },
          "indices" : 99,
          "material" : 11
        },
        {
          "attributes" : {
            "POSITION" : 109,
            "NORMAL" : 110,
            "TANGENT" : 111,
            "COLOR_0" : 112,
            "TEXCOORD_0" : 113,
            "TEXCOORD_1" : 114,
            "TEXCOORD_2" : 115,
            "TEXCOORD_3" : 116
          },
          "indices" : 108,
          "material" : 12
        },
        {
          "attributes" : {
            "POSITION" : 118,
            "NORMAL" : 119,
            "TANGENT" : 120,
            "COLOR_0" : 121,
            "TEXCOORD_0" : 122,
            "TEXCOORD_1" : 123,
            "TEXCOORD_2" : 124,
            "TEXCOORD_3" : 125
          },
          "indices" : 117,
          "material" : 13
        },
        {
          "attributes" : {
            "POSITION" : 127,
            "NORMAL" : 128,
            "TANGENT" : 129,
            "COLOR_0" : 130,
            "TEXCOORD_0" : 131,
            "TEXCOORD_1" : 132,
            "TEXCOORD_2" : 133,
            "TEXCOORD_3" : 134
          },
          "indices" : 126,
          "material" : 14
        },
        {
          "attributes" : {
            "POSITION" : 136,
            "NORMAL" : 137,
            "TANGENT" : 138,
            "COLOR_0" : 139,
            "TEXCOORD_0" : 140,
            "TEXCOORD_1" : 141,
            "TEXCOORD_2" : 142,
            "TEXCOORD_3" : 143
          },
          "indices" : 135,
          "material" : 15
        },
        {
          "attributes" : {
            "POSITION" : 145,
            "NORMAL" : 146,
            "TANGENT" : 147,
            "COLOR_0" : 148,
            "TEXCOORD_0" : 149,
            "TEXCOORD_1" : 150,
            "TEXCOORD_2" : 151,
            "TEXCOORD_3" : 152
          },
          "indices" : 144,
          "material" : 16
        },
        {
          "attributes" : {
            "POSITION" : 154,
            "NORMAL" : 155,
            "TANGENT" : 156,
            "COLOR_0" : 157,
            "TEXCOORD_0" : 158,
            "TEXCOORD_1" : 159,
            "TEXCOORD_2" : 160,
            "TEXCOORD_3" : 161
          },
          "indices" : 153,
          "material" : 17
        },
        {
          "attributes" : {
            "POSITION" : 163,
            "NORMAL" : 164,
            "TANGENT" : 165,
            "COLOR_0" : 166,
            "TEXCOORD_0" : 167,
            "TEXCOORD_1" : 168,
            "TEXCOORD_2" : 169,
            "TEXCOORD_3" : 170
          },
          "indices" : 162,
          "material" : 18
        },
        {
          "attributes" : {
            "POSITION" : 172,
            "NORMAL" : 173,
            "TANGENT" : 174,
            "COLOR_0" : 175,
            "TEXCOORD_0" : 176,
            "TEXCOORD_1" : 177,
            "TEXCOORD_2" : 178,
            "TEXCOORD_3" : 179
          },
          "indices" : 171,
          "material" : 19
        },
        {
          "attributes" : {
            "POSITION" : 181,
            "NORMAL" : 182,
            "TANGENT" : 183,
            "COLOR_0" : 184,
            "TEXCOORD_0" : 185,
            "TEXCOORD_1" : 186,
            "TEXCOORD_2" : 187,
            "TEXCOORD_3" : 188
          },
          "indices" : 180,
          "material" : 20
        }
      ],
      "name" : "SM_ENV_KNVLLG03_Bridge_PlatformB"
    }
  ],
  "buffers" : [
    {
      "uri" : "SM_ENV_KNVLLG03_Bridge_PlatformB.bin",
      "byteLength" : 2420404
    }
  ],
  "bufferViews" : [
    {
      "buffer" : 0,
      "byteOffset" : 0,
      "byteLength" : 32544
    },
    {
      "buffer" : 0,
      "byteOffset" : 32544,
      "byteLength" : 91296
    },
    {
      "buffer" : 0,
      "byteOffset" : 123840,
      "byteLength" : 91296
    },
    {
      "buffer" : 0,
      "byteOffset" : 215136,
      "byteLength" : 121728
    },
    {
      "buffer" : 0,
      "byteOffset" : 336864,
      "byteLength" : 30432
    },
    {
      "buffer" : 0,
      "byteOffset" : 367296,
      "byteLength" : 60864
    },
    {
      "buffer" : 0,
      "byteOffset" : 428160,
      "byteLength" : 60864
    },
    {
      "buffer" : 0,
      "byteOffset" : 489024,
      "byteLength" : 60864
    },
    {
      "buffer" : 0,
      "byteOffset" : 549888,
      "byteLength" : 60864
    },
    {
      "buffer" : 0,
      "byteOffset" : 610752,
      "byteLength" : 25200
    },
    {
      "buffer" : 0,
      "byteOffset" : 635952,
      "byteLength" : 62904
    },
    {
      "buffer" : 0,
      "byteOffset" : 698856,
      "byteLength" : 62904
    },
    {
      "buffer" : 0,
      "byteOffset" : 761760,
      "byteLength" : 83872
    },
    {
      "buffer" : 0,
      "byteOffset" : 845632,
      "byteLength" : 20968
    },
    {
      "buffer" : 0,
      "byteOffset" : 866600,
      "byteLength" : 41936
    },
    {
      "buffer" : 0,
      "byteOffset" : 908536,
      "byteLength" : 41936
    },
    {
      "buffer" : 0,
      "byteOffset" : 950472,
      "byteLength" : 41936
    },
    {
      "buffer" : 0,
      "byteOffset" : 992408,
      "byteLength" : 41936
    },
    {
      "buffer" : 0,
      "byteOffset" : 1034344,
      "byteLength" : 19272
    },
    {
      "buffer" : 0,
      "byteOffset" : 1053616,
      "byteLength" : 45588
    },
    {
      "buffer" : 0,
      "byteOffset" : 1099204,
      "byteLength" : 45588
    },
    {
      "buffer" : 0,
      "byteOffset" : 1144792,
      "byteLength" : 60784
    },
    {
      "buffer" : 0,
      "byteOffset" : 1205576,
      "byteLength" : 15196
    },
    {
      "buffer" : 0,
      "byteOffset" : 1220772,
      "byteLength" : 30392
    },
    {
      "buffer" : 0,
      "byteOffset" : 1251164,
      "byteLength" : 30392
    },
    {
      "buffer" : 0,
      "byteOffset" : 1281556,
      "byteLength" : 30392
    },
    {
      "buffer" : 0,
      "byteOffset" : 1311948,
      "byteLength" : 30392
    },
    {
      "buffer" : 0,
      "byteOffset" : 1342340,
      "byteLength" : 10272
    },
    {
      "buffer" : 0,
      "byteOffset" : 1352612,
      "byteLength" : 32748
    },
    {
      "buffer" : 0,
      "byteOffset" : 1385360,
      "byteLength" : 32748
    },
    {
      "buffer" : 0,
      "byteOffset" : 1418108,
      "byteLength" : 43664
    },
    {
      "buffer" : 0,
      "byteOffset" : 1461772,
      "byteLength" : 10916
    },
    {
      "buffer" : 0,
      "byteOffset" : 1472688,
      "byteLength" : 21832
    },
    {
      "buffer" : 0,
      "byteOffset" : 1494520,
      "byteLength" : 21832
    },
    {
      "buffer" : 0,
      "byteOffset" : 1516352,
      "byteLength" : 21832
    },
    {
      "buffer" : 0,
      "byteOffset" : 1538184,
      "byteLength" : 21832
    },
    {
      "buffer" : 0,
      "byteOffset" : 1560016,
      "byteLength" : 504
    },
    {
      "buffer" : 0,
      "byteOffset" : 1560520,
      "byteLength" : 1776
    },
    {
      "buffer" : 0,
      "byteOffset" : 1562296,
      "byteLength" : 1776
    },
    {
      "buffer" : 0,
      "byteOffset" : 1564072,
      "byteLength" : 2368
    },
    {
      "buffer" : 0,
      "byteOffset" : 1566440,
      "byteLength" : 592
    },
    {
      "buffer" : 0,
      "byteOffset" : 1567032,
      "byteLength" : 1184
    },
    {
      "buffer" : 0,
      "byteOffset" : 1568216,
      "byteLength" : 1184
    },
    {
      "buffer" : 0,
      "byteOffset" : 1569400,
      "byteLength" : 1184
    },
    {
      "buffer" : 0,
      "byteOffset" : 1570584,
      "byteLength" : 1184
    },
    {
      "buffer" : 0,
      "byteOffset" : 1571768,
      "byteLength" : 2424
    },
    {
      "buffer" : 0,
      "byteOffset" : 1574192,
      "byteLength" : 5208
    },
    {
      "buffer" : 0,
      "byteOffset" : 1579400,
      "byteLength" : 5208
    },
    {
      "buffer" : 0,
      "byteOffset" : 1584608,
      "byteLength" : 6944
    },
    {
      "buffer" : 0,
      "byteOffset" : 1591552,
      "byteLength" : 1736
    },
    {
      "buffer" : 0,
      "byteOffset" : 1593288,
      "byteLength" : 3472
    },
    {
      "buffer" : 0,
      "byteOffset" : 1596760,
      "byteLength" : 3472
    },
    {
      "buffer" : 0,
      "byteOffset" : 1600232,
      "byteLength" : 3472
    },
    {
      "buffer" : 0,
      "byteOffset" : 1603704,
      "byteLength" : 3472
    },
    {
      "buffer" : 0,
      "byteOffset" : 1607176,
      "byteLength" : 5796
    },
    {
      "buffer" : 0,
      "byteOffset" : 1612972,
      "byteLength" : 13464
    },
    {
      "buffer" : 0,
      "byteOffset" : 1626436,
      "byteLength" : 13464
    },
    {
      "buffer" : 0,
      "byteOffset" : 1639900,
      "byteLength" : 17952
    },
    {
      "buffer" : 0,
      "byteOffset" : 1657852,
      "byteLength" : 4488
    },
    {
      "buffer" : 0,
      "byteOffset" : 1662340,
      "byteLength" : 8976
    },
    {
      "buffer" : 0,
      "byteOffset" : 1671316,
      "byteLength" : 8976
    },
    {
      "buffer" : 0,
      "byteOffset" : 1680292,
      "byteLength" : 8976
    },
    {
      "buffer" : 0,
      "byteOffset" : 1689268,
      "byteLength" : 8976
    },
    {
      "buffer" : 0,
      "byteOffset" : 1698244,
      "byteLength" : 1476
    },
    {
      "buffer" : 0,
      "byteOffset" : 1699720,
      "byteLength" : 2772
    },
    {
      "buffer" : 0,
      "byteOffset" : 1702492,
      "byteLength" : 2772
    },
    {
      "buffer" : 0,
      "byteOffset" : 1705264,
      "byteLength" : 3696
    },
    {
      "buffer" : 0,
      "byteOffset" : 1708960,
      "byteLength" : 924
    },
    {
      "buffer" : 0,
      "byteOffset" : 1709884,
      "byteLength" : 1848
    },
    {
      "buffer" : 0,
      "byteOffset" : 1711732,
      "byteLength" : 1848
    },
    {
      "buffer" : 0,
      "byteOffset" : 1713580,
      "byteLength" : 1848
    },
    {
      "buffer" : 0,
      "byteOffset" : 1715428,
      "byteLength" : 1848
    },
    {
      "buffer" : 0,
      "byteOffset" : 1717276,
      "byteLength" : 480
    },
    {
      "buffer" : 0,
      "byteOffset" : 1717756,
      "byteLength" : 1056
    },
    {
      "buffer" : 0,
      "byteOffset" : 1718812,
      "byteLength" : 1056
    },
    {
      "buffer" : 0,
      "byteOffset" : 1719868,
      "byteLength" : 1408
    },
    {
      "buffer" : 0,
      "byteOffset" : 1721276,
      "byteLength" : 352
    },
    {
      "buffer" : 0,
      "byteOffset" : 1721628,
      "byteLength" : 704
    },
    {
      "buffer" : 0,
      "byteOffset" : 1722332,
      "byteLength" : 704
    },
    {
      "buffer" : 0,
      "byteOffset" : 1723036,
      "byteLength" : 704
    },
    {
      "buffer" : 0,
      "byteOffset" : 1723740,
      "byteLength" : 704
    },
    {
      "buffer" : 0,
      "byteOffset" : 1724444,
      "byteLength" : 13296
    },
    {
      "buffer" : 0,
      "byteOffset" : 1737740,
      "byteLength" : 18204
    },
    {
      "buffer" : 0,
      "byteOffset" : 1755944,
      "byteLength" : 18204
    },
    {
      "buffer" : 0,
      "byteOffset" : 1774148,
      "byteLength" : 24272
    },
    {
      "buffer" : 0,
      "byteOffset" : 1798420,
      "byteLength" : 6068
    },
    {
      "buffer" : 0,
      "byteOffset" : 1804488,
      "byteLength" : 12136
    },
    {
      "buffer" : 0,
      "byteOffset" : 1816624,
      "byteLength" : 12136
    },
    {
      "buffer" : 0,
      "byteOffset" : 1828760,
      "byteLength" : 12136
    },
    {
      "buffer" : 0,
      "byteOffset" : 1840896,
      "byteLength" : 12136
    },
    {
      "buffer" : 0,
      "byteOffset" : 1853032,
      "byteLength" : 2076
    },
    {
      "buffer" : 0,
      "byteOffset" : 1855108,
      "byteLength" : 4248
    },
    {
      "buffer" : 0,
      "byteOffset" : 1859356,
      "byteLength" : 4248
    },
    {
      "buffer" : 0,
      "byteOffset" : 1863604,
      "byteLength" : 5664
    },
    {
      "buffer" : 0,
      "byteOffset" : 1869268,
      "byteLength" : 1416
    },
    {
      "buffer" : 0,
      "byteOffset" : 1870684,
      "byteLength" : 2832
    },
    {
      "buffer" : 0,
      "byteOffset" : 1873516,
      "byteLength" : 2832
    },
    {
      "buffer" : 0,
      "byteOffset" : 1876348,
      "byteLength" : 2832
    },
    {
      "buffer" : 0,
      "byteOffset" : 1879180,
      "byteLength" : 2832
    },
    {
      "buffer" : 0,
      "byteOffset" : 1882012,
      "byteLength" : 4388
    },
    {
      "buffer" : 0,
      "byteOffset" : 1886400,
      "byteLength" : 11928
    },
    {
      "buffer" : 0,
      "byteOffset" : 1898328,
      "byteLength" : 11928
    },
    {
      "buffer" : 0,
      "byteOffset" : 1910256,
      "byteLength" : 15904
    },
    {
      "buffer" : 0,
      "byteOffset" : 1926160,
      "byteLength" : 3976
    },
    {
      "buffer" : 0,
      "byteOffset" : 1930136,
      "byteLength" : 7952
    },
    {
      "buffer" : 0,
      "byteOffset" : 1938088,
      "byteLength" : 7952
    },
    {
      "buffer" : 0,
      "byteOffset" : 1946040,
      "byteLength" : 7952
    },
    {
      "buffer" : 0,
      "byteOffset" : 1953992,
      "byteLength" : 7952
    },
    {
      "buffer" : 0,
      "byteOffset" : 1961944,
      "byteLength" : 408
    },
    {
      "buffer" : 0,
      "byteOffset" : 1962352,
      "byteLength" : 912
    },
    {
      "buffer" : 0,
      "byteOffset" : 1963264,
      "byteLength" : 912
    },
    {
      "buffer" : 0,
      "byteOffset" : 1964176,
      "byteLength" : 1216
    },
    {
      "buffer" : 0,
      "byteOffset" : 1965392,
      "byteLength" : 304
    },
    {
      "buffer" : 0,
      "byteOffset" : 1965696,
      "byteLength" : 608
    },
    {
      "buffer" : 0,
      "byteOffset" : 1966304,
      "byteLength" : 608
    },
    {
      "buffer" : 0,
      "byteOffset" : 1966912,
      "byteLength" : 608
    },
    {
      "buffer" : 0,
      "byteOffset" : 1967520,
      "byteLength" : 608
    },
    {
      "buffer" : 0,
      "byteOffset" : 1968128,
      "byteLength" : 3480
    },
    {
      "buffer" : 0,
      "byteOffset" : 1971608,
      "byteLength" : 7968
    },
    {
      "buffer" : 0,
      "byteOffset" : 1979576,
      "byteLength" : 7968
    },
    {
      "buffer" : 0,
      "byteOffset" : 1987544,
      "byteLength" : 10624
    },
    {
      "buffer" : 0,
      "byteOffset" : 1998168,
      "byteLength" : 2656
    },
    {
      "buffer" : 0,
      "byteOffset" : 2000824,
      "byteLength" : 5312
    },
    {
      "buffer" : 0,
      "byteOffset" : 2006136,
      "byteLength" : 5312
    },
    {
      "buffer" : 0,
      "byteOffset" : 2011448,
      "byteLength" : 5312
    },
    {
      "buffer" : 0,
      "byteOffset" : 2016760,
      "byteLength" : 5312
    },
    {
      "buffer" : 0,
      "byteOffset" : 2022072,
      "byteLength" : 108
    },
    {
      "buffer" : 0,
      "byteOffset" : 2022180,
      "byteLength" : 432
    },
    {
      "buffer" : 0,
      "byteOffset" : 2022612,
      "byteLength" : 432
    },
    {
      "buffer" : 0,
      "byteOffset" : 2023044,
      "byteLength" : 576
    },
    {
      "buffer" : 0,
      "byteOffset" : 2023620,
      "byteLength" : 144
    },
    {
      "buffer" : 0,
      "byteOffset" : 2023764,
      "byteLength" : 288
    },
    {
      "buffer" : 0,
      "byteOffset" : 2024052,
      "byteLength" : 288
    },
    {
      "buffer" : 0,
      "byteOffset" : 2024340,
      "byteLength" : 288
    },
    {
      "buffer" : 0,
      "byteOffset" : 2024628,
      "byteLength" : 288
    },
    {
      "buffer" : 0,
      "byteOffset" : 2024916,
      "byteLength" : 308
    },
    {
      "buffer" : 0,
      "byteOffset" : 2025224,
      "byteLength" : 1164
    },
    {
      "buffer" : 0,
      "byteOffset" : 2026388,
      "byteLength" : 1164
    },
    {
      "buffer" : 0,
      "byteOffset" : 2027552,
      "byteLength" : 1552
    },
    {
      "buffer" : 0,
      "byteOffset" : 2029104,
      "byteLength" : 388
    },
    {
      "buffer" : 0,
      "byteOffset" : 2029492,
      "byteLength" : 776
    },
    {
      "buffer" : 0,
      "byteOffset" : 2030268,
      "byteLength" : 776
    },
    {
      "buffer" : 0,
      "byteOffset" : 2031044,
      "byteLength" : 776
    },
    {
      "buffer" : 0,
      "byteOffset" : 2031820,
      "byteLength" : 776
    },
    {
      "buffer" : 0,
      "byteOffset" : 2032596,
      "byteLength" : 3456
    },
    {
      "buffer" : 0,
      "byteOffset" : 2036052,
      "byteLength" : 5880
    },
    {
      "buffer" : 0,
      "byteOffset" : 2041932,
      "byteLength" : 5880
    },
    {
      "buffer" : 0,
      "byteOffset" : 2047812,
      "byteLength" : 7840
    },
    {
      "buffer" : 0,
      "byteOffset" : 2055652,
      "byteLength" : 1960
    },
    {
      "buffer" : 0,
      "byteOffset" : 2057612,
      "byteLength" : 3920
    },
    {
      "buffer" : 0,
      "byteOffset" : 2061532,
      "byteLength" : 3920
    },
    {
      "buffer" : 0,
      "byteOffset" : 2065452,
      "byteLength" : 3920
    },
    {
      "buffer" : 0,
      "byteOffset" : 2069372,
      "byteLength" : 3920
    },
    {
      "buffer" : 0,
      "byteOffset" : 2073292,
      "byteLength" : 288
    },
    {
      "buffer" : 0,
      "byteOffset" : 2073580,
      "byteLength" : 1152
    },
    {
      "buffer" : 0,
      "byteOffset" : 2074732,
      "byteLength" : 1152
    },
    {
      "buffer" : 0,
      "byteOffset" : 2075884,
      "byteLength" : 1536
    },
    {
      "buffer" : 0,
      "byteOffset" : 2077420,
      "byteLength" : 384
    },
    {
      "buffer" : 0,
      "byteOffset" : 2077804,
      "byteLength" : 768
    },
    {
      "buffer" : 0,
      "byteOffset" : 2078572,
      "byteLength" : 768
    },
    {
      "buffer" : 0,
      "byteOffset" : 2079340,
      "byteLength" : 768
    },
    {
      "buffer" : 0,
      "byteOffset" : 2080108,
      "byteLength" : 768
    },
    {
      "buffer" : 0,
      "byteOffset" : 2080876,
      "byteLength" : 5592
    },
    {
      "buffer" : 0,
      "byteOffset" : 2086468,
      "byteLength" : 16980
    },
    {
      "buffer" : 0,
      "byteOffset" : 2103448,
      "byteLength" : 16980
    },
    {
      "buffer" : 0,
      "byteOffset" : 2120428,
      "byteLength" : 22640
    },
    {
      "buffer" : 0,
      "byteOffset" : 2143068,
      "byteLength" : 5660
    },
    {
      "buffer" : 0,
      "byteOffset" : 2148728,
      "byteLength" : 11320
    },
    {
      "buffer" : 0,
      "byteOffset" : 2160048,
      "byteLength" : 11320
    },
    {
      "buffer" : 0,
      "byteOffset" : 2171368,
      "byteLength" : 11320
    },
    {
      "buffer" : 0,
      "byteOffset" : 2182688,
      "byteLength" : 11320
    },
    {
      "buffer" : 0,
      "byteOffset" : 2194008,
      "byteLength" : 2528
    },
    {
      "buffer" : 0,
      "byteOffset" : 2196536,
      "byteLength" : 5244
    },
    {
      "buffer" : 0,
      "byteOffset" : 2201780,
      "byteLength" : 5244
    },
    {
      "buffer" : 0,
      "byteOffset" : 2207024,
      "byteLength" : 6992
    },
    {
      "buffer" : 0,
      "byteOffset" : 2214016,
      "byteLength" : 1748
    },
    {
      "buffer" : 0,
      "byteOffset" : 2215764,
      "byteLength" : 3496
    },
    {
      "buffer" : 0,
      "byteOffset" : 2219260,
      "byteLength" : 3496
    },
    {
      "buffer" : 0,
      "byteOffset" : 2222756,
      "byteLength" : 3496
    },
    {
      "buffer" : 0,
      "byteOffset" : 2226252,
      "byteLength" : 3496
    },
    {
      "buffer" : 0,
      "byteOffset" : 2229748,
      "byteLength" : 11904
    },
    {
      "buffer" : 0,
      "byteOffset" : 2241652,
      "byteLength" : 28224
    },
    {
      "buffer" : 0,
      "byteOffset" : 2269876,
      "byteLength" : 28224
    },
    {
      "buffer" : 0,
      "byteOffset" : 2298100,
      "byteLength" : 37632
    },
    {
      "buffer" : 0,
      "byteOffset" : 2335732,
      "byteLength" : 9408
    },
    {
      "buffer" : 0,
      "byteOffset" : 2345140,
      "byteLength" : 18816
    },
    {
      "buffer" : 0,
      "byteOffset" : 2363956,
      "byteLength" : 18816
    },
    {
      "buffer" : 0,
      "byteOffset" : 2382772,
      "byteLength" : 18816
    },
    {
      "buffer" : 0,
      "byteOffset" : 2401588,
      "byteLength" : 18816
    }
  ],
  "accessors" : [
    {
      "bufferView" : 0,
      "componentType" : 5123,
      "count" : 16272,
      "type" : "SCALAR"
    },
    {
      "bufferView" : 1,
      "min" : [ 16.6595, 0.699998, -14.3682 ],
      "max" : [ 65.7582, 11.559, 51.8696 ],
      "componentType" : 5126,
      "count" : 7608,
      "type" : "VEC3"
    },
    {
      "bufferView" : 2,
      "componentType" : 5126,
      "count" : 7608,
      "type" : "VEC3"
    },
    {
      "bufferView" : 3,
      "componentType" : 5126,
      "count" : 7608,
      "type" : "VEC4"
    },
    {
      "bufferView" : 4,
      "normalized" : true,
      "componentType" : 5121,
      "count" : 7608,
      "type" : "VEC4"
    },
    {
      "bufferView" : 5,
      "componentType" : 5126,
      "count" : 7608,
      "type" : "VEC2"
    },
    {
      "bufferView" : 6,
      "componentType" : 5126,
      "count" : 7608,
      "type" : "VEC2"
    },
    {
      "bufferView" : 7,
      "componentType" : 5126,
      "count" : 7608,
      "type" : "VEC2"
    },
    {
      "bufferView" : 8,
      "componentType" : 5126,
      "count" : 7608,
      "type" : "VEC2"
    },
    {
      "bufferView" : 9,
      "componentType" : 5123,
      "count" : 12600,
      "type" : "SCALAR"
    },
    {
      "bufferView" : 10,
      "min" : [ 17.3858, 0.299999, -13.5317 ],
      "max" : [ 64.94, 8.2, 51.421 ],
      "componentType" : 5126,
      "count" : 5242,
      "type" : "VEC3"
    },
    {
      "bufferView" : 11,
      "componentType" : 5126,
      "count" : 5242,
      "type" : "VEC3"
    },
    {
      "bufferView" : 12,
      "componentType" : 5126,
      "count" : 5242,
      "type" : "VEC4"
    },
    {
      "bufferView" : 13,
      "normalized" : true,
      "componentType" : 5121,
      "count" : 5242,
      "type" : "VEC4"
    },
    {
      "bufferView" : 14,
      "componentType" : 5126,
      "count" : 5242,
      "type" : "VEC2"
    },
    {
      "bufferView" : 15,
      "componentType" : 5126,
      "count" : 5242,
      "type" : "VEC2"
    },
    {
      "bufferView" : 16,
      "componentType" : 5126,
      "count" : 5242,
      "type" : "VEC2"
    },
    {
      "bufferView" : 17,
      "componentType" : 5126,
      "count" : 5242,
      "type" : "VEC2"
    },
    {
      "bufferView" : 18,
      "componentType" : 5123,
      "count" : 9636,
      "type" : "SCALAR"
    },
    {
      "bufferView" : 19,
      "min" : [ 16.6298, 1.15549, -14.4008 ],
      "max" : [ 65.7908, 10.7349, 51.4419 ],
      "componentType" : 5126,
      "count" : 3799,
      "type" : "VEC3"
    },
    {
      "bufferView" : 20,
      "componentType" : 5126,
      "count" : 3799,
      "type" : "VEC3"
    },
    {
      "bufferView" : 21,
      "componentType" : 5126,
      "count" : 3799,
      "type" : "VEC4"
    },
    {
      "bufferView" : 22,
      "normalized" : true,
      "componentType" : 5121,
      "count" : 3799,
      "type" : "VEC4"
    },
    {
      "bufferView" : 23,
      "componentType" : 5126,
      "count" : 3799,
      "type" : "VEC2"
    },
    {
      "bufferView" : 24,
      "componentType" : 5126,
      "count" : 3799,
      "type" : "VEC2"
    },
    {
      "bufferView" : 25,
      "componentType" : 5126,
      "count" : 3799,
      "type" : "VEC2"
    },
    {
      "bufferView" : 26,
      "componentType" : 5126,
      "count" : 3799,
      "type" : "VEC2"
    },
    {
      "bufferView" : 27,
      "componentType" : 5123,
      "count" : 5136,
      "type" : "SCALAR"
    },
    {
      "bufferView" : 28,
      "min" : [ 16.6298, 4.77354, -14.4008 ],
      "max" : [ 65.7908, 11.559, 28.9982 ],
      "componentType" : 5126,
      "count" : 2729,
      "type" : "VEC3"
    },
    {
      "bufferView" : 29,
      "componentType" : 5126,
      "count" : 2729,
      "type" : "VEC3"
    },
    {
      "bufferView" : 30,
      "componentType" : 5126,
      "count" : 2729,
      "type" : "VEC4"
    },
    {
      "bufferView" : 31,
      "normalized" : true,
      "componentType" : 5121,
      "count" : 2729,
      "type" : "VEC4"
    },
    {
      "bufferView" : 32,
      "componentType" : 5126,
      "count" : 2729,
      "type" : "VEC2"
    },
    {
      "bufferView" : 33,
      "componentType" : 5126,
      "count" : 2729,
      "type" : "VEC2"
    },
    {
      "bufferView" : 34,
      "componentType" : 5126,
      "count" : 2729,
      "type" : "VEC2"
    },
    {
      "bufferView" : 35,
      "componentType" : 5126,
      "count" : 2729,
      "type" : "VEC2"
    },
    {
      "bufferView" : 36,
      "componentType" : 5123,
      "count" : 252,
      "type" : "SCALAR"
    },
    {
      "bufferView" : 37,
      "min" : [ 21.0996, 4.45726, -5.78176 ],
      "max" : [ 34.5818, 6.16341, 24.6142 ],
      "componentType" : 5126,
      "count" : 148,
      "type" : "VEC3"
    },
    {
      "bufferView" : 38,
      "componentType" : 5126,
      "count" : 148,
      "type" : "VEC3"
    },
    {
      "bufferView" : 39,
      "componentType" : 5126,
      "count" : 148,
      "type" : "VEC4"
    },
    {
      "bufferView" : 40,
      "normalized" : true,
      "componentType" : 5121,
      "count" : 148,
      "type" : "VEC4"
    },
    {
      "bufferView" : 41,
      "componentType" : 5126,
      "count" : 148,
      "type" : "VEC2"
    },
    {
      "bufferView" : 42,
      "componentType" : 5126,
      "count" : 148,
      "type" : "VEC2"
    },
    {
      "bufferView" : 43,
      "componentType" : 5126,
      "count" : 148,
      "type" : "VEC2"
    },
    {
      "bufferView" : 44,
      "componentType" : 5126,
      "count" : 148,
      "type" : "VEC2"
    },
    {
      "bufferView" : 45,
      "componentType" : 5123,
      "count" : 1212,
      "type" : "SCALAR"
    },
    {
      "bufferView" : 46,
      "min" : [ 20.4683, 6.77189, -9.80651 ],
      "max" : [ 38.4717, 8.2, 24.6006 ],
      "componentType" : 5126,
      "count" : 434,
      "type" : "VEC3"
    },
    {
      "bufferView" : 47,
      "componentType" : 5126,
      "count" : 434,
      "type" : "VEC3"
    },
    {
      "bufferView" : 48,
      "componentType" : 5126,
      "count" : 434,
      "type" : "VEC4"
    },
    {
      "bufferView" : 49,
      "normalized" : true,
      "componentType" : 5121,
      "count" : 434,
      "type" : "VEC4"
    },
    {
      "bufferView" : 50,
      "componentType" : 5126,
      "count" : 434,
      "type" : "VEC2"
    },
    {
      "bufferView" : 51,
      "componentType" : 5126,
      "count" : 434,
      "type" : "VEC2"
    },
    {
      "bufferView" : 52,
      "componentType" : 5126,
      "count" : 434,
      "type" : "VEC2"
    },
    {
      "bufferView" : 53,
      "componentType" : 5126,
      "count" : 434,
      "type" : "VEC2"
    },
    {
      "bufferView" : 54,
      "componentType" : 5123,
      "count" : 2898,
      "type" : "SCALAR"
    },
    {
      "bufferView" : 55,
      "min" : [ 20.0902, 6.42505, 15.6313 ],
      "max" : [ 28.2697, 8.54963, 23.8109 ],
      "componentType" : 5126,
      "count" : 1122,
      "type" : "VEC3"
    },
    {
      "bufferView" : 56,
      "componentType" : 5126,
      "count" : 1122,
      "type" : "VEC3"
    },
    {
      "bufferView" : 57,
      "componentType" : 5126,
      "count" : 1122,
      "type" : "VEC4"
    },
    {
      "bufferView" : 58,
      "normalized" : true,
      "componentType" : 5121,
      "count" : 1122,
      "type" : "VEC4"
    },
    {
      "bufferView" : 59,
      "componentType" : 5126,
      "count" : 1122,
      "type" : "VEC2"
    },
    {
      "bufferView" : 60,
      "componentType" : 5126,
      "count" : 1122,
      "type" : "VEC2"
    },
    {
      "bufferView" : 61,
      "componentType" : 5126,
      "count" : 1122,
      "type" : "VEC2"
    },
    {
      "bufferView" : 62,
      "componentType" : 5126,
      "count" : 1122,
      "type" : "VEC2"
    },
    {
      "bufferView" : 63,
      "componentType" : 5123,
      "count" : 738,
      "type" : "SCALAR"
    },
    {
      "bufferView" : 64,
      "min" : [ 20.1247, 6.42505, 15.6659 ],
      "max" : [ 28.4111, 8.54963, 23.9523 ],
      "componentType" : 5126,
      "count" : 231,
      "type" : "VEC3"
    },
    {
      "bufferView" : 65,
      "componentType" : 5126,
      "count" : 231,
      "type" : "VEC3"
    },
    {
      "bufferView" : 66,
      "componentType" : 5126,
      "count" : 231,
      "type" : "VEC4"
    },
    {
      "bufferView" : 67,
      "normalized" : true,
      "componentType" : 5121,
      "count" : 231,
      "type" : "VEC4"
    },
    {
      "bufferView" : 68,
      "componentType" : 5126,
      "count" : 231,
      "type" : "VEC2"
    },
    {
      "bufferView" : 69,
      "componentType" : 5126,
      "count" : 231,
      "type" : "VEC2"
    },
    {
      "bufferView" : 70,
      "componentType" : 5126,
      "count" : 231,
      "type" : "VEC2"
    },
    {
      "bufferView" : 71,
      "componentType" : 5126,
      "count" : 231,
      "type" : "VEC2"
    },
    {
      "bufferView" : 72,
      "componentType" : 5123,
      "count" : 240,
      "type" : "SCALAR"
    },
    {
      "bufferView" : 73,
      "min" : [ 33.4129, 7.49172, -4.19521 ],
      "max" : [ 34.6847, 10.825, 4.1952 ],
      "componentType" : 5126,
      "count" : 88,
      "type" : "VEC3"
    },
    {
      "bufferView" : 74,
      "componentType" : 5126,
      "count" : 88,
      "type" : "VEC3"
    },
    {
      "bufferView" : 75,
      "componentType" : 5126,
      "count" : 88,
      "type" : "VEC4"
    },
    {
      "bufferView" : 76,
      "normalized" : true,
      "componentType" : 5121,
      "count" : 88,
      "type" : "VEC4"
    },
    {
      "bufferView" : 77,
      "componentType" : 5126,
      "count" : 88,
      "type" : "VEC2"
    },
    {
      "bufferView" : 78,
      "componentType" : 5126,
      "count" : 88,
      "type" : "VEC2"
    },
    {
      "bufferView" : 79,
      "componentType" : 5126,
      "count" : 88,
      "type" : "VEC2"
    },
    {
      "bufferView" : 80,
      "componentType" : 5126,
      "count" : 88,
      "type" : "VEC2"
    },
    {
      "bufferView" : 81,
      "componentType" : 5123,
      "count" : 6648,
      "type" : "SCALAR"
    },
    {
      "bufferView" : 82,
      "min" : [ 17.3375, -1.98364e-06, -13.58 ],
      "max" : [ 64.9883, 4.48469, 29.6626 ],
      "componentType" : 5126,
      "count" : 1517,
      "type" : "VEC3"
    },
    {
      "bufferView" : 83,
      "componentType" : 5126,
      "count" : 1517,
      "type" : "VEC3"
    },
    {
      "bufferView" : 84,
      "componentType" : 5126,
      "count" : 1517,
      "type" : "VEC4"
    },
    {
      "bufferView" : 85,
      "normalized" : true,
      "componentType" : 5121,
      "count" : 1517,
      "type" : "VEC4"
    },
    {
      "bufferView" : 86,
      "componentType" : 5126,
      "count" : 1517,
      "type" : "VEC2"
    },
    {
      "bufferView" : 87,
      "componentType" : 5126,
      "count" : 1517,
      "type" : "VEC2"
    },
    {
      "bufferView" : 88,
      "componentType" : 5126,
      "count" : 1517,
      "type" : "VEC2"
    },
    {
      "bufferView" : 89,
      "componentType" : 5126,
      "count" : 1517,
      "type" : "VEC2"
    },
    {
      "bufferView" : 90,
      "componentType" : 5123,
      "count" : 1038,
      "type" : "SCALAR"
    },
    {
      "bufferView" : 91,
      "min" : [ 17.4341, 0.8, -13.4833 ],
      "max" : [ 64.8917, 7.8221, 29.566 ],
      "componentType" : 5126,
      "count" : 354,
      "type" : "VEC3"
    },
    {
      "bufferView" : 92,
      "componentType" : 5126,
      "count" : 354,
      "type" : "VEC3"
    },
    {
      "bufferView" : 93,
      "componentType" : 5126,
      "count" : 354,
      "type" : "VEC4"
    },
    {
      "bufferView" : 94,
      "normalized" : true,
      "componentType" : 5121,
      "count" : 354,
      "type" : "VEC4"
    },
    {
      "bufferView" : 95,
      "componentType" : 5126,
      "count" : 354,
      "type" : "VEC2"
    },
    {
      "bufferView" : 96,
      "componentType" : 5126,
      "count" : 354,
      "type" : "VEC2"
    },
    {
      "bufferView" : 97,
      "componentType" : 5126,
      "count" : 354,
      "type" : "VEC2"
    },
    {
      "bufferView" : 98,
      "componentType" : 5126,
      "count" : 354,
      "type" : "VEC2"
    },
    {
      "bufferView" : 99,
      "componentType" : 5123,
      "count" : 2193,
      "type" : "SCALAR"
    },
    {
      "bufferView" : 100,
      "min" : [ 24.2857, 5.30139, -9.67916 ],
      "max" : [ 38.3444, 8.2, 20.2674 ],
      "componentType" : 5126,
      "count" : 994,
      "type" : "VEC3"
    },
    {
      "bufferView" : 101,
      "componentType" : 5126,
      "count" : 994,
      "type" : "VEC3"
    },
    {
      "bufferView" : 102,
      "componentType" : 5126,
      "count" : 994,
      "type" : "VEC4"
    },
    {
      "bufferView" : 103,
      "normalized" : true,
      "componentType" : 5121,
      "count" : 994,
      "type" : "VEC4"
    },
    {
      "bufferView" : 104,
      "componentType" : 5126,
      "count" : 994,
      "type" : "VEC2"
    },
    {
      "bufferView" : 105,
      "componentType" : 5126,
      "count" : 994,
      "type" : "VEC2"
    },
    {
      "bufferView" : 106,
      "componentType" : 5126,
      "count" : 994,
      "type" : "VEC2"
    },
    {
      "bufferView" : 107,
      "componentType" : 5126,
      "count" : 994,
      "type" : "VEC2"
    },
    {
      "bufferView" : 108,
      "componentType" : 5123,
      "count" : 204,
      "type" : "SCALAR"
    },
    {
      "bufferView" : 109,
      "min" : [ 24.1112, 2.12213, 19.6522 ],
      "max" : [ 24.7888, 2.28066, 20.3298 ],
      "componentType" : 5126,
      "count" : 76,
      "type" : "VEC3"
    },
    {
      "bufferView" : 110,
      "componentType" : 5126,
      "count" : 76,
      "type" : "VEC3"
    },
    {
      "bufferView" : 111,
      "componentType" : 5126,
      "count" : 76,
      "type" : "VEC4"
    },
    {
      "bufferView" : 112,
      "normalized" : true,
      "componentType" : 5121,
      "count" : 76,
      "type" : "VEC4"
    },
    {
      "bufferView" : 113,
      "componentType" : 5126,
      "count" : 76,
      "type" : "VEC2"
    },
    {
      "bufferView" : 114,
      "componentType" : 5126,
      "count" : 76,
      "type" : "VEC2"
    },
    {
      "bufferView" : 115,
      "componentType" : 5126,
      "count" : 76,
      "type" : "VEC2"
    },
    {
      "bufferView" : 116,
      "componentType" : 5126,
      "count" : 76,
      "type" : "VEC2"
    },
    {
      "bufferView" : 117,
      "componentType" : 5123,
      "count" : 1740,
      "type" : "SCALAR"
    },
    {
      "bufferView" : 118,
      "min" : [ 22.965, 1.5, -9.64991 ],
      "max" : [ 38.3151, 11.1304, 22.7488 ],
      "componentType" : 5126,
      "count" : 664,
      "type" : "VEC3"
    },
    {
      "bufferView" : 119,
      "componentType" : 5126,
      "count" : 664,
      "type" : "VEC3"
    },
    {
      "bufferView" : 120,
      "componentType" : 5126,
      "count" : 664,
      "type" : "VEC4"
    },
    {
      "bufferView" : 121,
      "normalized" : true,
      "componentType" : 5121,
      "count" : 664,
      "type" : "VEC4"
    },
    {
      "bufferView" : 122,
      "componentType" : 5126,
      "count" : 664,
      "type" : "VEC2"
    },
    {
      "bufferView" : 123,
      "componentType" : 5126,
      "count" : 664,
      "type" : "VEC2"
    },
    {
      "bufferView" : 124,
      "componentType" : 5126,
      "count" : 664,
      "type" : "VEC2"
    },
    {
      "bufferView" : 125,
      "componentType" : 5126,
      "count" : 664,
      "type" : "VEC2"
    },
    {
      "bufferView" : 126,
      "componentType" : 5123,
      "count" : 54,
      "type" : "SCALAR"
    },
    {
      "bufferView" : 127,
      "min" : [ 33.2429, 4, -4.3952 ],
      "max" : [ 49, 9.69196, 4.39519 ],
      "componentType" : 5126,
      "count" : 36,
      "type" : "VEC3"
    },
    {
      "bufferView" : 128,
      "componentType" : 5126,
      "count" : 36,
      "type" : "VEC3"
    },
    {
      "bufferView" : 129,
      "componentType" : 5126,
      "count" : 36,
      "type" : "VEC4"
    },
    {
      "bufferView" : 130,
      "normalized" : true,
      "componentType" : 5121,
      "count" : 36,
      "type" : "VEC4"
    },
    {
      "bufferView" : 131,
      "componentType" : 5126,
      "count" : 36,
      "type" : "VEC2"
    },
    {
      "bufferView" : 132,
      "componentType" : 5126,
      "count" : 36,
      "type" : "VEC2"
    },
    {
      "bufferView" : 133,
      "componentType" : 5126,
      "count" : 36,
      "type" : "VEC2"
    },
    {
      "bufferView" : 134,
      "componentType" : 5126,
      "count" : 36,
      "type" : "VEC2"
    },
    {
      "bufferView" : 135,
      "componentType" : 5123,
      "count" : 153,
      "type" : "SCALAR"
    },
    {
      "bufferView" : 136,
      "min" : [ 18, 6, -13.0648 ],
      "max" : [ 64.3971, 6.3, 50.8408 ],
      "componentType" : 5126,
      "count" : 97,
      "type" : "VEC3"
    },
    {
      "bufferView" : 137,
      "componentType" : 5126,
      "count" : 97,
      "type" : "VEC3"
    },
    {
      "bufferView" : 138,
      "componentType" : 5126,
      "count" : 97,
      "type" : "VEC4"
    },
    {
      "bufferView" : 139,
      "normalized" : true,
      "componentType" : 5121,
      "count" : 97,
      "type" : "VEC4"
    },
    {
      "bufferView" : 140,
      "componentType" : 5126,
      "count" : 97,
      "type" : "VEC2"
    },
    {
      "bufferView" : 141,
      "componentType" : 5126,
      "count" : 97,
      "type" : "VEC2"
    },
    {
      "bufferView" : 142,
      "componentType" : 5126,
      "count" : 97,
      "type" : "VEC2"
    },
    {
      "bufferView" : 143,
      "componentType" : 5126,
      "count" : 97,
      "type" : "VEC2"
    },
    {
      "bufferView" : 144,
      "componentType" : 5123,
      "count" : 1728,
      "type" : "SCALAR"
    },
    {
      "bufferView" : 145,
      "min" : [ 36.4375, 8.2, -9.84972 ],
      "max" : [ 38.5149, 10.1682, 8.98499 ],
      "componentType" : 5126,
      "count" : 490,
      "type" : "VEC3"
    },
    {
      "bufferView" : 146,
      "componentType" : 5126,
      "count" : 490,
      "type" : "VEC3"
    },
    {
      "bufferView" : 147,
      "componentType" : 5126,
      "count" : 490,
      "type" : "VEC4"
    },
    {
      "bufferView" : 148,
      "normalized" : true,
      "componentType" : 5121,
      "count" : 490,
      "type" : "VEC4"
    },
    {
      "bufferView" : 149,
      "componentType" : 5126,
      "count" : 490,
      "type" : "VEC2"
    },
    {
      "bufferView" : 150,
      "componentType" : 5126,
      "count" : 490,
      "type" : "VEC2"
    },
    {
      "bufferView" : 151,
      "componentType" : 5126,
      "count" : 490,
      "type" : "VEC2"
    },
    {
      "bufferView" : 152,
      "componentType" : 5126,
      "count" : 490,
      "type" : "VEC2"
    },
    {
      "bufferView" : 153,
      "componentType" : 5123,
      "count" : 144,
      "type" : "SCALAR"
    },
    {
      "bufferView" : 154,
      "min" : [ 33.4721, 11.0308, -5.72787 ],
      "max" : [ 34.5279, 12.2358, 5.72786 ],
      "componentType" : 5126,
      "count" : 96,
      "type" : "VEC3"
    },
    {
      "bufferView" : 155,
      "componentType" : 5126,
      "count" : 96,
      "type" : "VEC3"
    },
    {
      "bufferView" : 156,
      "componentType" : 5126,
      "count" : 96,
      "type" : "VEC4"
    },
    {
      "bufferView" : 157,
      "normalized" : true,
      "componentType" : 5121,
      "count" : 96,
      "type" : "VEC4"
    },
    {
      "bufferView" : 158,
      "componentType" : 5126,
      "count" : 96,
      "type" : "VEC2"
    },
    {
      "bufferView" : 159,
      "componentType" : 5126,
      "count" : 96,
      "type" : "VEC2"
    },
    {
      "bufferView" : 160,
      "componentType" : 5126,
      "count" : 96,
      "type" : "VEC2"
    },
    {
      "bufferView" : 161,
      "componentType" : 5126,
      "count" : 96,
      "type" : "VEC2"
    },
    {
      "bufferView" : 162,
      "componentType" : 5123,
      "count" : 2796,
      "type" : "SCALAR"
    },
    {
      "bufferView" : 163,
      "min" : [ 33.3886, 10.377, -5.81138 ],
      "max" : [ 34.6114, 13.6048, 5.81138 ],
      "componentType" : 5126,
      "count" : 1415,
      "type" : "VEC3"
    },
    {
      "bufferView" : 164,
      "componentType" : 5126,
      "count" : 1415,
      "type" : "VEC3"
    },
    {
      "bufferView" : 165,
      "componentType" : 5126,
      "count" : 1415,
      "type" : "VEC4"
    },
    {
      "bufferView" : 166,
      "normalized" : true,
      "componentType" : 5121,
      "count" : 1415,
      "type" : "VEC4"
    },
    {
      "bufferView" : 167,
      "componentType" : 5126,
      "count" : 1415,
      "type" : "VEC2"
    },
    {
      "bufferView" : 168,
      "componentType" : 5126,
      "count" : 1415,
      "type" : "VEC2"
    },
    {
      "bufferView" : 169,
      "componentType" : 5126,
      "count" : 1415,
      "type" : "VEC2"
    },
    {
      "bufferView" : 170,
      "componentType" : 5126,
      "count" : 1415,
      "type" : "VEC2"
    },
    {
      "bufferView" : 171,
      "componentType" : 5123,
      "count" : 1263,
      "type" : "SCALAR"
    },
    {
      "bufferView" : 172,
      "min" : [ 22.4118, -0.0105736, -2.84722 ],
      "max" : [ 41.9373, 4.05568, 22.7418 ],
      "componentType" : 5126,
      "count" : 437,
      "type" : "VEC3"
    },
    {
      "bufferView" : 173,
      "componentType" : 5126,
      "count" : 437,
      "type" : "VEC3"
    },
    {
      "bufferView" : 174,
      "componentType" : 5126,
      "count" : 437,
      "type" : "VEC4"
    },
    {
      "bufferView" : 175,
      "normalized" : true,
      "componentType" : 5121,
      "count" : 437,
      "type" : "VEC4"
    },
    {
      "bufferView" : 176,
      "componentType" : 5126,
      "count" : 437,
      "type" : "VEC2"
    },
    {
      "bufferView" : 177,
      "componentType" : 5126,
      "count" : 437,
      "type" : "VEC2"
    },
    {
      "bufferView" : 178,
      "componentType" : 5126,
      "count" : 437,
      "type" : "VEC2"
    },
    {
      "bufferView" : 179,
      "componentType" : 5126,
      "count" : 437,
      "type" : "VEC2"
    },
    {
      "bufferView" : 180,
      "componentType" : 5123,
      "count" : 5952,
      "type" : "SCALAR"
    },
    {
      "bufferView" : 181,
      "min" : [ 22.6408, 0.319324, 18.159 ],
      "max" : [ 27.2534, 4.5867, 22.7729 ],
      "componentType" : 5126,
      "count" : 2352,
      "type" : "VEC3"
    },
    {
      "bufferView" : 182,
      "componentType" : 5126,
      "count" : 2352,
      "type" : "VEC3"
    },
    {
      "bufferView" : 183,
      "componentType" : 5126,
      "count" : 2352,
      "type" : "VEC4"
    },
    {
      "bufferView" : 184,
      "normalized" : true,
      "componentType" : 5121,
      "count" : 2352,
      "type" : "VEC4"
    },
    {
      "bufferView" : 185,
      "componentType" : 5126,
      "count" : 2352,
      "type" : "VEC2"
    },
    {
      "bufferView" : 186,
      "componentType" : 5126,
      "count" : 2352,
      "type" : "VEC2"
    },
    {
      "bufferView" : 187,
      "componentType" : 5126,
      "count" : 2352,
      "type" : "VEC2"
    },
    {
      "bufferView" : 188,
      "componentType" : 5126,
      "count" : 2352,
      "type" : "VEC2"
    }
  ]
}
