{
  "asset" : {
    "generator" : "UE Viewer (umodel) build 1544 based",
    "version" : "2.0"
  },
  "scene" : 0,
  "scenes" : [
    {
      "nodes" : [ 0 ]
    }
  ],
  "nodes" : [
    {
      "name" : "SM_ENV_KNVLLG03_Bridge_StraightA",
      "mesh" : 0
    }
  ],
  "materials" : [
    {
      "name" : "MI_ENV_LKNVLD_WoodPlain_Red",
      "pbrMetallicRoughness" : {
        "baseColorFactor" : [ 0.3, 0.3, 0.3, 1.0 ],
        "metallicFactor" : 0.1,
        "roughnessFactor" : 0.5
      }
    },
    {
      "name" : "MI_ENV_LKNVLD_WoodWallSet",
      "pbrMetallicRoughness" : {
        "baseColorFactor" : [ 0.9, 0.3, 0.3, 1.0 ],
        "metallicFactor" : 0.1,
        "roughnessFactor" : 0.5
      }
    },
    {
      "name" : "MI_ENV_LKNVLD_Signboard_A",
      "pbrMetallicRoughness" : {
        "baseColorFactor" : [ 0.3, 0.9, 0.3, 1.0 ],
        "metallicFactor" : 0.1,
        "roughnessFactor" : 0.5
      }
    },
    {
      "name" : "MI_ENV_LKNVLD_Eaves_B",
      "pbrMetallicRoughness" : {
        "baseColorFactor" : [ 0.3, 0.3, 0.9, 1.0 ],
        "metallicFactor" : 0.1,
        "roughnessFactor" : 0.5
      }
    },
    {
      "name" : "MI_ENV_LKNVLD_StoneTrim_Ground",
      "pbrMetallicRoughness" : {
        "baseColorFactor" : [ 0.9, 0.9, 0.9, 1.0 ],
        "metallicFactor" : 0.1,
        "roughnessFactor" : 0.5
      }
    },
    {
      "name" : "MI_ENV_LKNVLD_WoodBoard_Natural_Lighter",
      "pbrMetallicRoughness" : {
        "baseColorFactor" : [ 0.9, 0.9, 0.3, 1.0 ],
        "metallicFactor" : 0.1,
        "roughnessFactor" : 0.5
      }
    }
  ],
  "meshes" : [
    {
      "primitives" : [
        {
          "attributes" : {
            "POSITION" : 1,
            "NORMAL" : 2,
            "TANGENT" : 3,
            "TEXCOORD_0" : 4,
            "TEXCOORD_1" : 5,
            "TEXCOORD_2" : 6,
            "TEXCOORD_3" : 7
          },
          "indices" : 0,
          "material" : 0
        },
        {
          "attributes" : {
            "POSITION" : 9,
            "NORMAL" : 10,
            "TANGENT" : 11,
            "TEXCOORD_0" : 12,
            "TEXCOORD_1" : 13,
            "TEXCOORD_2" : 14,
            "TEXCOORD_3" : 15
          },
          "indices" : 8,
          "material" : 1
        },
        {
          "attributes" : {
            "POSITION" : 17,
            "NORMAL" : 18,
            "TANGENT" : 19,
            "TEXCOORD_0" : 20,
            "TEXCOORD_1" : 21,
            "TEXCOORD_2" : 22,
            "TEXCOORD_3" : 23
          },
          "indices" : 16,
          "material" : 2
        },
        {
          "attributes" : {
            "POSITION" : 25,
            "NORMAL" : 26,
            "TANGENT" : 27,
            "TEXCOORD_0" : 28,
            "TEXCOORD_1" : 29,
            "TEXCOORD_2" : 30,
            "TEXCOORD_3" : 31
          },
          "indices" : 24,
          "material" : 3
        },
        {
          "attributes" : {
            "POSITION" : 33,
            "NORMAL" : 34,
            "TANGENT" : 35,
            "TEXCOORD_0" : 36,
            "TEXCOORD_1" : 37,
            "TEXCOORD_2" : 38,
            "TEXCOORD_3" : 39
          },
          "indices" : 32,
          "material" : 4
        },
        {
          "attributes" : {
            "POSITION" : 41,
            "NORMAL" : 42,
            "TANGENT" : 43,
            "TEXCOORD_0" : 44,
            "TEXCOORD_1" : 45,
            "TEXCOORD_2" : 46,
            "TEXCOORD_3" : 47
          },
          "indices" : 40,
          "material" : 5
        }
      ],
      "name" : "SM_ENV_KNVLLG03_Bridge_StraightA"
    }
  ],
  "buffers" : [
    {
      "uri" : "SM_ENV_KNVLLG03_Bridge_StraightA.bin",
      "byteLength" : 516744
    }
  ],
  "bufferViews" : [
    {
      "buffer" : 0,
      "byteOffset" : 0,
      "byteLength" : 13152
    },
    {
      "buffer" : 0,
      "byteOffset" : 13152,
      "byteLength" : 41640
    },
    {
      "buffer" : 0,
      "byteOffset" : 54792,
      "byteLength" : 41640
    },
    {
      "buffer" : 0,
      "byteOffset" : 96432,
      "byteLength" : 55520
    },
    {
      "buffer" : 0,
      "byteOffset" : 151952,
      "byteLength" : 27760
    },
    {
      "buffer" : 0,
      "byteOffset" : 179712,
      "byteLength" : 27760
    },
    {
      "buffer" : 0,
      "byteOffset" : 207472,
      "byteLength" : 27760
    },
    {
      "buffer" : 0,
      "byteOffset" : 235232,
      "byteLength" : 27760
    },
    {
      "buffer" : 0,
      "byteOffset" : 262992,
      "byteLength" : 5976
    },
    {
      "buffer" : 0,
      "byteOffset" : 268968,
      "byteLength" : 15312
    },
    {
      "buffer" : 0,
      "byteOffset" : 284280,
      "byteLength" : 15312
    },
    {
      "buffer" : 0,
      "byteOffset" : 299592,
      "byteLength" : 20416
    },
    {
      "buffer" : 0,
      "byteOffset" : 320008,
      "byteLength" : 10208
    },
    {
      "buffer" : 0,
      "byteOffset" : 330216,
      "byteLength" : 10208
    },
    {
      "buffer" : 0,
      "byteOffset" : 340424,
      "byteLength" : 10208
    },
    {
      "buffer" : 0,
      "byteOffset" : 350632,
      "byteLength" : 10208
    },
    {
      "buffer" : 0,
      "byteOffset" : 360840,
      "byteLength" : 6780
    },
    {
      "buffer" : 0,
      "byteOffset" : 367620,
      "byteLength" : 16008
    },
    {
      "buffer" : 0,
      "byteOffset" : 383628,
      "byteLength" : 16008
    },
    {
      "buffer" : 0,
      "byteOffset" : 399636,
      "byteLength" : 21344
    },
    {
      "buffer" : 0,
      "byteOffset" : 420980,
      "byteLength" : 10672
    },
    {
      "buffer" : 0,
      "byteOffset" : 431652,
      "byteLength" : 10672
    },
    {
      "buffer" : 0,
      "byteOffset" : 442324,
      "byteLength" : 10672
    },
    {
      "buffer" : 0,
      "byteOffset" : 452996,
      "byteLength" : 10672
    },
    {
      "buffer" : 0,
      "byteOffset" : 463668,
      "byteLength" : 1620
    },
    {
      "buffer" : 0,
      "byteOffset" : 465288,
      "byteLength" : 4104
    },
    {
      "buffer" : 0,
      "byteOffset" : 469392,
      "byteLength" : 4104
    },
    {
      "buffer" : 0,
      "byteOffset" : 473496,
      "byteLength" : 5472
    },
    {
      "buffer" : 0,
      "byteOffset" : 478968,
      "byteLength" : 2736
    },
    {
      "buffer" : 0,
      "byteOffset" : 481704,
      "byteLength" : 2736
    },
    {
      "buffer" : 0,
      "byteOffset" : 484440,
      "byteLength" : 2736
    },
    {
      "buffer" : 0,
      "byteOffset" : 487176,
      "byteLength" : 2736
    },
    {
      "buffer" : 0,
      "byteOffset" : 489912,
      "byteLength" : 2628
    },
    {
      "buffer" : 0,
      "byteOffset" : 492540,
      "byteLength" : 3984
    },
    {
      "buffer" : 0,
      "byteOffset" : 496524,
      "byteLength" : 3984
    },
    {
      "buffer" : 0,
      "byteOffset" : 500508,
      "byteLength" : 5312
    },
    {
      "buffer" : 0,
      "byteOffset" : 505820,
      "byteLength" : 2656
    },
    {
      "buffer" : 0,
      "byteOffset" : 508476,
      "byteLength" : 2656
    },
    {
      "buffer" : 0,
      "byteOffset" : 511132,
      "byteLength" : 2656
    },
    {
      "buffer" : 0,
      "byteOffset" : 513788,
      "byteLength" : 2656
    },
    {
      "buffer" : 0,
      "byteOffset" : 516444,
      "byteLength" : 12
    },
    {
      "buffer" : 0,
      "byteOffset" : 516456,
      "byteLength" : 48
    },
    {
      "buffer" : 0,
      "byteOffset" : 516504,
      "byteLength" : 48
    },
    {
      "buffer" : 0,
      "byteOffset" : 516552,
      "byteLength" : 64
    },
    {
      "buffer" : 0,
      "byteOffset" : 516616,
      "byteLength" : 32
    },
    {
      "buffer" : 0,
      "byteOffset" : 516648,
      "byteLength" : 32
    },
    {
      "buffer" : 0,
      "byteOffset" : 516680,
      "byteLength" : 32
    },
    {
      "buffer" : 0,
      "byteOffset" : 516712,
      "byteLength" : 32
    }
  ],
  "accessors" : [
    {
      "bufferView" : 0,
      "componentType" : 5123,
      "count" : 6576,
      "type" : "SCALAR"
    },
    {
      "bufferView" : 1,
      "min" : [ -71.2987, 0.723708, -85.0978 ],
      "max" : [ -65.7477, 7.59987, -55.2237 ],
      "componentType" : 5126,
      "count" : 3470,
      "type" : "VEC3"
    },
    {
      "bufferView" : 2,
      "componentType" : 5126,
      "count" : 3470,
      "type" : "VEC3"
    },
    {
      "bufferView" : 3,
      "componentType" : 5126,
      "count" : 3470,
      "type" : "VEC4"
    },
    {
      "bufferView" : 4,
      "componentType" : 5126,
      "count" : 3470,
      "type" : "VEC2"
    },
    {
      "bufferView" : 5,
      "componentType" : 5126,
      "count" : 3470,
      "type" : "VEC2"
    },
    {
      "bufferView" : 6,
      "componentType" : 5126,
      "count" : 3470,
      "type" : "VEC2"
    },
    {
      "bufferView" : 7,
      "componentType" : 5126,
      "count" : 3470,
      "type" : "VEC2"
    },
    {
      "bufferView" : 8,
      "componentType" : 5123,
      "count" : 2988,
      "type" : "SCALAR"
    },
    {
      "bufferView" : 9,
      "min" : [ -71.2803, 0.323708, -85.0415 ],
      "max" : [ -66.3374, 6.19987, -55.2649 ],
      "componentType" : 5126,
      "count" : 1276,
      "type" : "VEC3"
    },
    {
      "bufferView" : 10,
      "componentType" : 5126,
      "count" : 1276,
      "type" : "VEC3"
    },
    {
      "bufferView" : 11,
      "componentType" : 5126,
      "count" : 1276,
      "type" : "VEC4"
    },
    {
      "bufferView" : 12,
      "componentType" : 5126,
      "count" : 1276,
      "type" : "VEC2"
    },
    {
      "bufferView" : 13,
      "componentType" : 5126,
      "count" : 1276,
      "type" : "VEC2"
    },
    {
      "bufferView" : 14,
      "componentType" : 5126,
      "count" : 1276,
      "type" : "VEC2"
    },
    {
      "bufferView" : 15,
      "componentType" : 5126,
      "count" : 1276,
      "type" : "VEC2"
    },
    {
      "bufferView" : 16,
      "componentType" : 5123,
      "count" : 3390,
      "type" : "SCALAR"
    },
    {
      "bufferView" : 17,
      "min" : [ -71.3009, 4.79989, -85.0978 ],
      "max" : [ -65.7151, 8.11987, -58.2986 ],
      "componentType" : 5126,
      "count" : 1334,
      "type" : "VEC3"
    },
    {
      "bufferView" : 18,
      "componentType" : 5126,
      "count" : 1334,
      "type" : "VEC3"
    },
    {
      "bufferView" : 19,
      "componentType" : 5126,
      "count" : 1334,
      "type" : "VEC4"
    },
    {
      "bufferView" : 20,
      "componentType" : 5126,
      "count" : 1334,
      "type" : "VEC2"
    },
    {
      "bufferView" : 21,
      "componentType" : 5126,
      "count" : 1334,
      "type" : "VEC2"
    },
    {
      "bufferView" : 22,
      "componentType" : 5126,
      "count" : 1334,
      "type" : "VEC2"
    },
    {
      "bufferView" : 23,
      "componentType" : 5126,
      "count" : 1334,
      "type" : "VEC2"
    },
    {
      "bufferView" : 24,
      "componentType" : 5123,
      "count" : 810,
      "type" : "SCALAR"
    },
    {
      "bufferView" : 25,
      "min" : [ -66.6526, 5.06991, -84.9396 ],
      "max" : [ -65.7151, 5.59989, -58.4568 ],
      "componentType" : 5126,
      "count" : 342,
      "type" : "VEC3"
    },
    {
      "bufferView" : 26,
      "componentType" : 5126,
      "count" : 342,
      "type" : "VEC3"
    },
    {
      "bufferView" : 27,
      "componentType" : 5126,
      "count" : 342,
      "type" : "VEC4"
    },
    {
      "bufferView" : 28,
      "componentType" : 5126,
      "count" : 342,
      "type" : "VEC2"
    },
    {
      "bufferView" : 29,
      "componentType" : 5126,
      "count" : 342,
      "type" : "VEC2"
    },
    {
      "bufferView" : 30,
      "componentType" : 5126,
      "count" : 342,
      "type" : "VEC2"
    },
    {
      "bufferView" : 31,
      "componentType" : 5126,
      "count" : 342,
      "type" : "VEC2"
    },
    {
      "bufferView" : 32,
      "componentType" : 5123,
      "count" : 1314,
      "type" : "SCALAR"
    },
    {
      "bufferView" : 33,
      "min" : [ -66.7974, -0.210464, -85.0892 ],
      "max" : [ -66.5194, 0.323712, -55.2649 ],
      "componentType" : 5126,
      "count" : 332,
      "type" : "VEC3"
    },
    {
      "bufferView" : 34,
      "componentType" : 5126,
      "count" : 332,
      "type" : "VEC3"
    },
    {
      "bufferView" : 35,
      "componentType" : 5126,
      "count" : 332,
      "type" : "VEC4"
    },
    {
      "bufferView" : 36,
      "componentType" : 5126,
      "count" : 332,
      "type" : "VEC2"
    },
    {
      "bufferView" : 37,
      "componentType" : 5126,
      "count" : 332,
      "type" : "VEC2"
    },
    {
      "bufferView" : 38,
      "componentType" : 5126,
      "count" : 332,
      "type" : "VEC2"
    },
    {
      "bufferView" : 39,
      "componentType" : 5126,
      "count" : 332,
      "type" : "VEC2"
    },
    {
      "bufferView" : 40,
      "componentType" : 5123,
      "count" : 6,
      "type" : "SCALAR"
    },
    {
      "bufferView" : 41,
      "min" : [ -70.7986, 6.00112, -84.7872 ],
      "max" : [ -66.7986, 6.00112, -55.2549 ],
      "componentType" : 5126,
      "count" : 4,
      "type" : "VEC3"
    },
    {
      "bufferView" : 42,
      "componentType" : 5126,
      "count" : 4,
      "type" : "VEC3"
    },
    {
      "bufferView" : 43,
      "componentType" : 5126,
      "count" : 4,
      "type" : "VEC4"
    },
    {
      "bufferView" : 44,
      "componentType" : 5126,
      "count" : 4,
      "type" : "VEC2"
    },
    {
      "bufferView" : 45,
      "componentType" : 5126,
      "count" : 4,
      "type" : "VEC2"
    },
    {
      "bufferView" : 46,
      "componentType" : 5126,
      "count" : 4,
      "type" : "VEC2"
    },
    {
      "bufferView" : 47,
      "componentType" : 5126,
      "count" : 4,
      "type" : "VEC2"
    }
  ]
}
