{
  "asset" : {
    "generator" : "UE Viewer (umodel) build 1544 based",
    "version" : "2.0"
  },
  "scene" : 0,
  "scenes" : [
    {
      "nodes" : [ 0 ]
    }
  ],
  "nodes" : [
    {
      "name" : "SM_ENV_KNVLLG03_Bridge_StraightB",
      "mesh" : 0
    }
  ],
  "materials" : [
    {
      "name" : "MI_ENV_LKNVLD_WoodPlain_Red",
      "pbrMetallicRoughness" : {
        "baseColorFactor" : [ 0.3, 0.3, 0.3, 1.0 ],
        "metallicFactor" : 0.1,
        "roughnessFactor" : 0.5
      }
    },
    {
      "name" : "MI_ENV_LKNVLD_WoodWallSet",
      "pbrMetallicRoughness" : {
        "baseColorFactor" : [ 0.9, 0.3, 0.3, 1.0 ],
        "metallicFactor" : 0.1,
        "roughnessFactor" : 0.5
      }
    },
    {
      "name" : "MI_ENV_LKNVLD_Signboard_A",
      "pbrMetallicRoughness" : {
        "baseColorFactor" : [ 0.3, 0.9, 0.3, 1.0 ],
        "metallicFactor" : 0.1,
        "roughnessFactor" : 0.5
      }
    },
    {
      "name" : "MI_ENV_LKNVLD_Eaves_B",
      "pbrMetallicRoughness" : {
        "baseColorFactor" : [ 0.3, 0.3, 0.9, 1.0 ],
        "metallicFactor" : 0.1,
        "roughnessFactor" : 0.5
      }
    },
    {
      "name" : "MI_ENV_LKNVLD_StoneTrim_Ground",
      "pbrMetallicRoughness" : {
        "baseColorFactor" : [ 0.9, 0.9, 0.9, 1.0 ],
        "metallicFactor" : 0.1,
        "roughnessFactor" : 0.5
      }
    },
    {
      "name" : "MI_ENV_LKNVLD_WoodBoard_Natural_Lighter",
      "pbrMetallicRoughness" : {
        "baseColorFactor" : [ 0.9, 0.9, 0.3, 1.0 ],
        "metallicFactor" : 0.1,
        "roughnessFactor" : 0.5
      }
    }
  ],
  "meshes" : [
    {
      "primitives" : [
        {
          "attributes" : {
            "POSITION" : 1,
            "NORMAL" : 2,
            "TANGENT" : 3,
            "TEXCOORD_0" : 4,
            "TEXCOORD_1" : 5,
            "TEXCOORD_2" : 6,
            "TEXCOORD_3" : 7
          },
          "indices" : 0,
          "material" : 0
        },
        {
          "attributes" : {
            "POSITION" : 9,
            "NORMAL" : 10,
            "TANGENT" : 11,
            "TEXCOORD_0" : 12,
            "TEXCOORD_1" : 13,
            "TEXCOORD_2" : 14,
            "TEXCOORD_3" : 15
          },
          "indices" : 8,
          "material" : 1
        },
        {
          "attributes" : {
            "POSITION" : 17,
            "NORMAL" : 18,
            "TANGENT" : 19,
            "TEXCOORD_0" : 20,
            "TEXCOORD_1" : 21,
            "TEXCOORD_2" : 22,
            "TEXCOORD_3" : 23
          },
          "indices" : 16,
          "material" : 2
        },
        {
          "attributes" : {
            "POSITION" : 25,
            "NORMAL" : 26,
            "TANGENT" : 27,
            "TEXCOORD_0" : 28,
            "TEXCOORD_1" : 29,
            "TEXCOORD_2" : 30,
            "TEXCOORD_3" : 31
          },
          "indices" : 24,
          "material" : 3
        },
        {
          "attributes" : {
            "POSITION" : 33,
            "NORMAL" : 34,
            "TANGENT" : 35,
            "TEXCOORD_0" : 36,
            "TEXCOORD_1" : 37,
            "TEXCOORD_2" : 38,
            "TEXCOORD_3" : 39
          },
          "indices" : 32,
          "material" : 4
        },
        {
          "attributes" : {
            "POSITION" : 41,
            "NORMAL" : 42,
            "TANGENT" : 43,
            "TEXCOORD_0" : 44,
            "TEXCOORD_1" : 45,
            "TEXCOORD_2" : 46,
            "TEXCOORD_3" : 47
          },
          "indices" : 40,
          "material" : 5
        }
      ],
      "name" : "SM_ENV_KNVLLG03_Bridge_StraightB"
    }
  ],
  "buffers" : [
    {
      "uri" : "SM_ENV_KNVLLG03_Bridge_StraightB.bin",
      "byteLength" : 504136
    }
  ],
  "bufferViews" : [
    {
      "buffer" : 0,
      "byteOffset" : 0,
      "byteLength" : 12632
    },
    {
      "buffer" : 0,
      "byteOffset" : 12632,
      "byteLength" : 39612
    },
    {
      "buffer" : 0,
      "byteOffset" : 52244,
      "byteLength" : 39612
    },
    {
      "buffer" : 0,
      "byteOffset" : 91856,
      "byteLength" : 52816
    },
    {
      "buffer" : 0,
      "byteOffset" : 144672,
      "byteLength" : 26408
    },
    {
      "buffer" : 0,
      "byteOffset" : 171080,
      "byteLength" : 26408
    },
    {
      "buffer" : 0,
      "byteOffset" : 197488,
      "byteLength" : 26408
    },
    {
      "buffer" : 0,
      "byteOffset" : 223896,
      "byteLength" : 26408
    },
    {
      "buffer" : 0,
      "byteOffset" : 250304,
      "byteLength" : 5984
    },
    {
      "buffer" : 0,
      "byteOffset" : 256288,
      "byteLength" : 15324
    },
    {
      "buffer" : 0,
      "byteOffset" : 271612,
      "byteLength" : 15324
    },
    {
      "buffer" : 0,
      "byteOffset" : 286936,
      "byteLength" : 20432
    },
    {
      "buffer" : 0,
      "byteOffset" : 307368,
      "byteLength" : 10216
    },
    {
      "buffer" : 0,
      "byteOffset" : 317584,
      "byteLength" : 10216
    },
    {
      "buffer" : 0,
      "byteOffset" : 327800,
      "byteLength" : 10216
    },
    {
      "buffer" : 0,
      "byteOffset" : 338016,
      "byteLength" : 10216
    },
    {
      "buffer" : 0,
      "byteOffset" : 348232,
      "byteLength" : 6780
    },
    {
      "buffer" : 0,
      "byteOffset" : 355012,
      "byteLength" : 16008
    },
    {
      "buffer" : 0,
      "byteOffset" : 371020,
      "byteLength" : 16008
    },
    {
      "buffer" : 0,
      "byteOffset" : 387028,
      "byteLength" : 21344
    },
    {
      "buffer" : 0,
      "byteOffset" : 408372,
      "byteLength" : 10672
    },
    {
      "buffer" : 0,
      "byteOffset" : 419044,
      "byteLength" : 10672
    },
    {
      "buffer" : 0,
      "byteOffset" : 429716,
      "byteLength" : 10672
    },
    {
      "buffer" : 0,
      "byteOffset" : 440388,
      "byteLength" : 10672
    },
    {
      "buffer" : 0,
      "byteOffset" : 451060,
      "byteLength" : 1620
    },
    {
      "buffer" : 0,
      "byteOffset" : 452680,
      "byteLength" : 4104
    },
    {
      "buffer" : 0,
      "byteOffset" : 456784,
      "byteLength" : 4104
    },
    {
      "buffer" : 0,
      "byteOffset" : 460888,
      "byteLength" : 5472
    },
    {
      "buffer" : 0,
      "byteOffset" : 466360,
      "byteLength" : 2736
    },
    {
      "buffer" : 0,
      "byteOffset" : 469096,
      "byteLength" : 2736
    },
    {
      "buffer" : 0,
      "byteOffset" : 471832,
      "byteLength" : 2736
    },
    {
      "buffer" : 0,
      "byteOffset" : 474568,
      "byteLength" : 2736
    },
    {
      "buffer" : 0,
      "byteOffset" : 477304,
      "byteLength" : 2628
    },
    {
      "buffer" : 0,
      "byteOffset" : 479932,
      "byteLength" : 3984
    },
    {
      "buffer" : 0,
      "byteOffset" : 483916,
      "byteLength" : 3984
    },
    {
      "buffer" : 0,
      "byteOffset" : 487900,
      "byteLength" : 5312
    },
    {
      "buffer" : 0,
      "byteOffset" : 493212,
      "byteLength" : 2656
    },
    {
      "buffer" : 0,
      "byteOffset" : 495868,
      "byteLength" : 2656
    },
    {
      "buffer" : 0,
      "byteOffset" : 498524,
      "byteLength" : 2656
    },
    {
      "buffer" : 0,
      "byteOffset" : 501180,
      "byteLength" : 2656
    },
    {
      "buffer" : 0,
      "byteOffset" : 503836,
      "byteLength" : 12
    },
    {
      "buffer" : 0,
      "byteOffset" : 503848,
      "byteLength" : 48
    },
    {
      "buffer" : 0,
      "byteOffset" : 503896,
      "byteLength" : 48
    },
    {
      "buffer" : 0,
      "byteOffset" : 503944,
      "byteLength" : 64
    },
    {
      "buffer" : 0,
      "byteOffset" : 504008,
      "byteLength" : 32
    },
    {
      "buffer" : 0,
      "byteOffset" : 504040,
      "byteLength" : 32
    },
    {
      "buffer" : 0,
      "byteOffset" : 504072,
      "byteLength" : 32
    },
    {
      "buffer" : 0,
      "byteOffset" : 504104,
      "byteLength" : 32
    }
  ],
  "accessors" : [
    {
      "bufferView" : 0,
      "componentType" : 5123,
      "count" : 6315,
      "type" : "SCALAR"
    },
    {
      "bufferView" : 1,
      "min" : [ -71.2987, 0.721998, -114.615 ],
      "max" : [ -65.7477, 7.59816, -84.7407 ],
      "componentType" : 5126,
      "count" : 3301,
      "type" : "VEC3"
    },
    {
      "bufferView" : 2,
      "componentType" : 5126,
      "count" : 3301,
      "type" : "VEC3"
    },
    {
      "bufferView" : 3,
      "componentType" : 5126,
      "count" : 3301,
      "type" : "VEC4"
    },
    {
      "bufferView" : 4,
      "componentType" : 5126,
      "count" : 3301,
      "type" : "VEC2"
    },
    {
      "bufferView" : 5,
      "componentType" : 5126,
      "count" : 3301,
      "type" : "VEC2"
    },
    {
      "bufferView" : 6,
      "componentType" : 5126,
      "count" : 3301,
      "type" : "VEC2"
    },
    {
      "bufferView" : 7,
      "componentType" : 5126,
      "count" : 3301,
      "type" : "VEC2"
    },
    {
      "bufferView" : 8,
      "componentType" : 5123,
      "count" : 2991,
      "type" : "SCALAR"
    },
    {
      "bufferView" : 9,
      "min" : [ -71.2803, 0.321998, -114.559 ],
      "max" : [ -66.3374, 6.19816, -84.7819 ],
      "componentType" : 5126,
      "count" : 1277,
      "type" : "VEC3"
    },
    {
      "bufferView" : 10,
      "componentType" : 5126,
      "count" : 1277,
      "type" : "VEC3"
    },
    {
      "bufferView" : 11,
      "componentType" : 5126,
      "count" : 1277,
      "type" : "VEC4"
    },
    {
      "bufferView" : 12,
      "componentType" : 5126,
      "count" : 1277,
      "type" : "VEC2"
    },
    {
      "bufferView" : 13,
      "componentType" : 5126,
      "count" : 1277,
      "type" : "VEC2"
    },
    {
      "bufferView" : 14,
      "componentType" : 5126,
      "count" : 1277,
      "type" : "VEC2"
    },
    {
      "bufferView" : 15,
      "componentType" : 5126,
      "count" : 1277,
      "type" : "VEC2"
    },
    {
      "bufferView" : 16,
      "componentType" : 5123,
      "count" : 3390,
      "type" : "SCALAR"
    },
    {
      "bufferView" : 17,
      "min" : [ -71.3009, 4.79818, -114.615 ],
      "max" : [ -65.7151, 8.11816, -87.8156 ],
      "componentType" : 5126,
      "count" : 1334,
      "type" : "VEC3"
    },
    {
      "bufferView" : 18,
      "componentType" : 5126,
      "count" : 1334,
      "type" : "VEC3"
    },
    {
      "bufferView" : 19,
      "componentType" : 5126,
      "count" : 1334,
      "type" : "VEC4"
    },
    {
      "bufferView" : 20,
      "componentType" : 5126,
      "count" : 1334,
      "type" : "VEC2"
    },
    {
      "bufferView" : 21,
      "componentType" : 5126,
      "count" : 1334,
      "type" : "VEC2"
    },
    {
      "bufferView" : 22,
      "componentType" : 5126,
      "count" : 1334,
      "type" : "VEC2"
    },
    {
      "bufferView" : 23,
      "componentType" : 5126,
      "count" : 1334,
      "type" : "VEC2"
    },
    {
      "bufferView" : 24,
      "componentType" : 5123,
      "count" : 810,
      "type" : "SCALAR"
    },
    {
      "bufferView" : 25,
      "min" : [ -66.6526, 5.0682, -114.457 ],
      "max" : [ -65.7151, 5.59818, -87.9738 ],
      "componentType" : 5126,
      "count" : 342,
      "type" : "VEC3"
    },
    {
      "bufferView" : 26,
      "componentType" : 5126,
      "count" : 342,
      "type" : "VEC3"
    },
    {
      "bufferView" : 27,
      "componentType" : 5126,
      "count" : 342,
      "type" : "VEC4"
    },
    {
      "bufferView" : 28,
      "componentType" : 5126,
      "count" : 342,
      "type" : "VEC2"
    },
    {
      "bufferView" : 29,
      "componentType" : 5126,
      "count" : 342,
      "type" : "VEC2"
    },
    {
      "bufferView" : 30,
      "componentType" : 5126,
      "count" : 342,
      "type" : "VEC2"
    },
    {
      "bufferView" : 31,
      "componentType" : 5126,
      "count" : 342,
      "type" : "VEC2"
    },
    {
      "bufferView" : 32,
      "componentType" : 5123,
      "count" : 1314,
      "type" : "SCALAR"
    },
    {
      "bufferView" : 33,
      "min" : [ -66.7974, -0.212174, -114.606 ],
      "max" : [ -66.5194, 0.322002, -84.7819 ],
      "componentType" : 5126,
      "count" : 332,
      "type" : "VEC3"
    },
    {
      "bufferView" : 34,
      "componentType" : 5126,
      "count" : 332,
      "type" : "VEC3"
    },
    {
      "bufferView" : 35,
      "componentType" : 5126,
      "count" : 332,
      "type" : "VEC4"
    },
    {
      "bufferView" : 36,
      "componentType" : 5126,
      "count" : 332,
      "type" : "VEC2"
    },
    {
      "bufferView" : 37,
      "componentType" : 5126,
      "count" : 332,
      "type" : "VEC2"
    },
    {
      "bufferView" : 38,
      "componentType" : 5126,
      "count" : 332,
      "type" : "VEC2"
    },
    {
      "bufferView" : 39,
      "componentType" : 5126,
      "count" : 332,
      "type" : "VEC2"
    },
    {
      "bufferView" : 40,
      "componentType" : 5123,
      "count" : 6,
      "type" : "SCALAR"
    },
    {
      "bufferView" : 41,
      "min" : [ -70.7986, 6, -114.304 ],
      "max" : [ -66.7986, 6, -84.7719 ],
      "componentType" : 5126,
      "count" : 4,
      "type" : "VEC3"
    },
    {
      "bufferView" : 42,
      "componentType" : 5126,
      "count" : 4,
      "type" : "VEC3"
    },
    {
      "bufferView" : 43,
      "componentType" : 5126,
      "count" : 4,
      "type" : "VEC4"
    },
    {
      "bufferView" : 44,
      "componentType" : 5126,
      "count" : 4,
      "type" : "VEC2"
    },
    {
      "bufferView" : 45,
      "componentType" : 5126,
      "count" : 4,
      "type" : "VEC2"
    },
    {
      "bufferView" : 46,
      "componentType" : 5126,
      "count" : 4,
      "type" : "VEC2"
    },
    {
      "bufferView" : 47,
      "componentType" : 5126,
      "count" : 4,
      "type" : "VEC2"
    }
  ]
}
