{
  "asset" : {
    "generator" : "UE Viewer (umodel) build 1544 based",
    "version" : "2.0"
  },
  "scene" : 0,
  "scenes" : [
    {
      "nodes" : [ 0 ]
    }
  ],
  "nodes" : [
    {
      "name" : "SM_ENV_KNVLLG03_Bridge_PlatformConnectorB",
      "mesh" : 0
    }
  ],
  "materials" : [
    {
      "name" : "MI_ENV_LKNVLD_WoodPlain_Red",
      "pbrMetallicRoughness" : {
        "baseColorFactor" : [ 0.3, 0.3, 0.3, 1.0 ],
        "metallicFactor" : 0.1,
        "roughnessFactor" : 0.5
      }
    },
    {
      "name" : "MI_ENV_LKNVLD_WoodWallSet",
      "pbrMetallicRoughness" : {
        "baseColorFactor" : [ 0.9, 0.3, 0.3, 1.0 ],
        "metallicFactor" : 0.1,
        "roughnessFactor" : 0.5
      }
    },
    {
      "name" : "MI_ENV_LKNVLD_Signboard_A",
      "pbrMetallicRoughness" : {
        "baseColorFactor" : [ 0.3, 0.9, 0.3, 1.0 ],
        "metallicFactor" : 0.1,
        "roughnessFactor" : 0.5
      }
    },
    {
      "name" : "MI_T_ENV_LKNVLD_StoneTrim",
      "pbrMetallicRoughness" : {
        "baseColorFactor" : [ 0.3, 0.3, 0.9, 1.0 ],
        "metallicFactor" : 0.1,
        "roughnessFactor" : 0.5
      }
    },
    {
      "name" : "MI_ENV_LKNVLD_WoodWallSet_Red",
      "pbrMetallicRoughness" : {
        "baseColorFactor" : [ 0.9, 0.9, 0.9, 1.0 ],
        "metallicFactor" : 0.1,
        "roughnessFactor" : 0.5
      }
    },
    {
      "name" : "MI_ENV_LKNVLD_Eaves_B",
      "pbrMetallicRoughness" : {
        "baseColorFactor" : [ 0.9, 0.9, 0.3, 1.0 ],
        "metallicFactor" : 0.1,
        "roughnessFactor" : 0.5
      }
    },
    {
      "name" : "MI_ENV_LKNVLD_WoodBoard_Natural_Lighter",
      "pbrMetallicRoughness" : {
        "baseColorFactor" : [ 0.9, 0.3, 0.9, 1.0 ],
        "metallicFactor" : 0.1,
        "roughnessFactor" : 0.5
      }
    },
    {
      "name" : "MI_ENV_LKNVLD03_GroundSoil_A",
      "pbrMetallicRoughness" : {
        "baseColorFactor" : [ 0.3, 0.9, 0.9, 1.0 ],
        "metallicFactor" : 0.1,
        "roughnessFactor" : 0.5
      }
    }
  ],
  "meshes" : [
    {
      "primitives" : [
        {
          "attributes" : {
            "POSITION" : 1,
            "NORMAL" : 2,
            "TANGENT" : 3,
            "COLOR_0" : 4,
            "TEXCOORD_0" : 5,
            "TEXCOORD_1" : 6,
            "TEXCOORD_2" : 7,
            "TEXCOORD_3" : 8
          },
          "indices" : 0,
          "material" : 0
        },
        {
          "attributes" : {
            "POSITION" : 10,
            "NORMAL" : 11,
            "TANGENT" : 12,
            "COLOR_0" : 13,
            "TEXCOORD_0" : 14,
            "TEXCOORD_1" : 15,
            "TEXCOORD_2" : 16,
            "TEXCOORD_3" : 17
          },
          "indices" : 9,
          "material" : 1
        },
        {
          "attributes" : {
            "POSITION" : 19,
            "NORMAL" : 20,
            "TANGENT" : 21,
            "COLOR_0" : 22,
            "TEXCOORD_0" : 23,
            "TEXCOORD_1" : 24,
            "TEXCOORD_2" : 25,
            "TEXCOORD_3" : 26
          },
          "indices" : 18,
          "material" : 2
        },
        {
          "attributes" : {
            "POSITION" : 28,
            "NORMAL" : 29,
            "TANGENT" : 30,
            "COLOR_0" : 31,
            "TEXCOORD_0" : 32,
            "TEXCOORD_1" : 33,
            "TEXCOORD_2" : 34,
            "TEXCOORD_3" : 35
          },
          "indices" : 27,
          "material" : 3
        },
        {
          "attributes" : {
            "POSITION" : 37,
            "NORMAL" : 38,
            "TANGENT" : 39,
            "COLOR_0" : 40,
            "TEXCOORD_0" : 41,
            "TEXCOORD_1" : 42,
            "TEXCOORD_2" : 43,
            "TEXCOORD_3" : 44
          },
          "indices" : 36,
          "material" : 4
        },
        {
          "attributes" : {
            "POSITION" : 46,
            "NORMAL" : 47,
            "TANGENT" : 48,
            "COLOR_0" : 49,
            "TEXCOORD_0" : 50,
            "TEXCOORD_1" : 51,
            "TEXCOORD_2" : 52,
            "TEXCOORD_3" : 53
          },
          "indices" : 45,
          "material" : 5
        },
        {
          "attributes" : {
            "POSITION" : 55,
            "NORMAL" : 56,
            "TANGENT" : 57,
            "COLOR_0" : 58,
            "TEXCOORD_0" : 59,
            "TEXCOORD_1" : 60,
            "TEXCOORD_2" : 61,
            "TEXCOORD_3" : 62
          },
          "indices" : 54,
          "material" : 6
        },
        {
          "attributes" : {
            "POSITION" : 64,
            "NORMAL" : 65,
            "TANGENT" : 66,
            "COLOR_0" : 67,
            "TEXCOORD_0" : 68,
            "TEXCOORD_1" : 69,
            "TEXCOORD_2" : 70,
            "TEXCOORD_3" : 71
          },
          "indices" : 63,
          "material" : 7
        }
      ],
      "name" : "SM_ENV_KNVLLG03_Bridge_PlatformConnectorB"
    }
  ],
  "buffers" : [
    {
      "uri" : "SM_ENV_KNVLLG03_Bridge_PlatformConnectorB.bin",
      "byteLength" : 549240
    }
  ],
  "bufferViews" : [
    {
      "buffer" : 0,
      "byteOffset" : 0,
      "byteLength" : 12684
    },
    {
      "buffer" : 0,
      "byteOffset" : 12684,
      "byteLength" : 40320
    },
    {
      "buffer" : 0,
      "byteOffset" : 53004,
      "byteLength" : 40320
    },
    {
      "buffer" : 0,
      "byteOffset" : 93324,
      "byteLength" : 53760
    },
    {
      "buffer" : 0,
      "byteOffset" : 147084,
      "byteLength" : 13440
    },
    {
      "buffer" : 0,
      "byteOffset" : 160524,
      "byteLength" : 26880
    },
    {
      "buffer" : 0,
      "byteOffset" : 187404,
      "byteLength" : 26880
    },
    {
      "buffer" : 0,
      "byteOffset" : 214284,
      "byteLength" : 26880
    },
    {
      "buffer" : 0,
      "byteOffset" : 241164,
      "byteLength" : 26880
    },
    {
      "buffer" : 0,
      "byteOffset" : 268044,
      "byteLength" : 6216
    },
    {
      "buffer" : 0,
      "byteOffset" : 274260,
      "byteLength" : 14976
    },
    {
      "buffer" : 0,
      "byteOffset" : 289236,
      "byteLength" : 14976
    },
    {
      "buffer" : 0,
      "byteOffset" : 304212,
      "byteLength" : 19968
    },
    {
      "buffer" : 0,
      "byteOffset" : 324180,
      "byteLength" : 4992
    },
    {
      "buffer" : 0,
      "byteOffset" : 329172,
      "byteLength" : 9984
    },
    {
      "buffer" : 0,
      "byteOffset" : 339156,
      "byteLength" : 9984
    },
    {
      "buffer" : 0,
      "byteOffset" : 349140,
      "byteLength" : 9984
    },
    {
      "buffer" : 0,
      "byteOffset" : 359124,
      "byteLength" : 9984
    },
    {
      "buffer" : 0,
      "byteOffset" : 369108,
      "byteLength" : 7164
    },
    {
      "buffer" : 0,
      "byteOffset" : 376272,
      "byteLength" : 17100
    },
    {
      "buffer" : 0,
      "byteOffset" : 393372,
      "byteLength" : 17100
    },
    {
      "buffer" : 0,
      "byteOffset" : 410472,
      "byteLength" : 22800
    },
    {
      "buffer" : 0,
      "byteOffset" : 433272,
      "byteLength" : 5700
    },
    {
      "buffer" : 0,
      "byteOffset" : 438972,
      "byteLength" : 11400
    },
    {
      "buffer" : 0,
      "byteOffset" : 450372,
      "byteLength" : 11400
    },
    {
      "buffer" : 0,
      "byteOffset" : 461772,
      "byteLength" : 11400
    },
    {
      "buffer" : 0,
      "byteOffset" : 473172,
      "byteLength" : 11400
    },
    {
      "buffer" : 0,
      "byteOffset" : 484572,
      "byteLength" : 2988
    },
    {
      "buffer" : 0,
      "byteOffset" : 487560,
      "byteLength" : 4512
    },
    {
      "buffer" : 0,
      "byteOffset" : 492072,
      "byteLength" : 4512
    },
    {
      "buffer" : 0,
      "byteOffset" : 496584,
      "byteLength" : 6016
    },
    {
      "buffer" : 0,
      "byteOffset" : 502600,
      "byteLength" : 1504
    },
    {
      "buffer" : 0,
      "byteOffset" : 504104,
      "byteLength" : 3008
    },
    {
      "buffer" : 0,
      "byteOffset" : 507112,
      "byteLength" : 3008
    },
    {
      "buffer" : 0,
      "byteOffset" : 510120,
      "byteLength" : 3008
    },
    {
      "buffer" : 0,
      "byteOffset" : 513128,
      "byteLength" : 3008
    },
    {
      "buffer" : 0,
      "byteOffset" : 516136,
      "byteLength" : 120
    },
    {
      "buffer" : 0,
      "byteOffset" : 516256,
      "byteLength" : 264
    },
    {
      "buffer" : 0,
      "byteOffset" : 516520,
      "byteLength" : 264
    },
    {
      "buffer" : 0,
      "byteOffset" : 516784,
      "byteLength" : 352
    },
    {
      "buffer" : 0,
      "byteOffset" : 517136,
      "byteLength" : 88
    },
    {
      "buffer" : 0,
      "byteOffset" : 517224,
      "byteLength" : 176
    },
    {
      "buffer" : 0,
      "byteOffset" : 517400,
      "byteLength" : 176
    },
    {
      "buffer" : 0,
      "byteOffset" : 517576,
      "byteLength" : 176
    },
    {
      "buffer" : 0,
      "byteOffset" : 517752,
      "byteLength" : 176
    },
    {
      "buffer" : 0,
      "byteOffset" : 517928,
      "byteLength" : 1800
    },
    {
      "buffer" : 0,
      "byteOffset" : 519728,
      "byteLength" : 4560
    },
    {
      "buffer" : 0,
      "byteOffset" : 524288,
      "byteLength" : 4560
    },
    {
      "buffer" : 0,
      "byteOffset" : 528848,
      "byteLength" : 6080
    },
    {
      "buffer" : 0,
      "byteOffset" : 534928,
      "byteLength" : 1520
    },
    {
      "buffer" : 0,
      "byteOffset" : 536448,
      "byteLength" : 3040
    },
    {
      "buffer" : 0,
      "byteOffset" : 539488,
      "byteLength" : 3040
    },
    {
      "buffer" : 0,
      "byteOffset" : 542528,
      "byteLength" : 3040
    },
    {
      "buffer" : 0,
      "byteOffset" : 545568,
      "byteLength" : 3040
    },
    {
      "buffer" : 0,
      "byteOffset" : 548608,
      "byteLength" : 12
    },
    {
      "buffer" : 0,
      "byteOffset" : 548620,
      "byteLength" : 48
    },
    {
      "buffer" : 0,
      "byteOffset" : 548668,
      "byteLength" : 48
    },
    {
      "buffer" : 0,
      "byteOffset" : 548716,
      "byteLength" : 64
    },
    {
      "buffer" : 0,
      "byteOffset" : 548780,
      "byteLength" : 16
    },
    {
      "buffer" : 0,
      "byteOffset" : 548796,
      "byteLength" : 32
    },
    {
      "buffer" : 0,
      "byteOffset" : 548828,
      "byteLength" : 32
    },
    {
      "buffer" : 0,
      "byteOffset" : 548860,
      "byteLength" : 32
    },
    {
      "buffer" : 0,
      "byteOffset" : 548892,
      "byteLength" : 32
    },
    {
      "buffer" : 0,
      "byteOffset" : 548924,
      "byteLength" : 12
    },
    {
      "buffer" : 0,
      "byteOffset" : 548936,
      "byteLength" : 48
    },
    {
      "buffer" : 0,
      "byteOffset" : 548984,
      "byteLength" : 48
    },
    {
      "buffer" : 0,
      "byteOffset" : 549032,
      "byteLength" : 64
    },
    {
      "buffer" : 0,
      "byteOffset" : 549096,
      "byteLength" : 16
    },
    {
      "buffer" : 0,
      "byteOffset" : 549112,
      "byteLength" : 32
    },
    {
      "buffer" : 0,
      "byteOffset" : 549144,
      "byteLength" : 32
    },
    {
      "buffer" : 0,
      "byteOffset" : 549176,
      "byteLength" : 32
    },
    {
      "buffer" : 0,
      "byteOffset" : 549208,
      "byteLength" : 32
    }
  ],
  "accessors" : [
    {
      "bufferView" : 0,
      "componentType" : 5123,
      "count" : 6342,
      "type" : "SCALAR"
    },
    {
      "bufferView" : 1,
      "min" : [ 16.7536, 0.699998, 28.6668 ],
      "max" : [ 32.1946, 7.6, 61.1816 ],
      "componentType" : 5126,
      "count" : 3360,
      "type" : "VEC3"
    },
    {
      "bufferView" : 2,
      "componentType" : 5126,
      "count" : 3360,
      "type" : "VEC3"
    },
    {
      "bufferView" : 3,
      "componentType" : 5126,
      "count" : 3360,
      "type" : "VEC4"
    },
    {
      "bufferView" : 4,
      "normalized" : true,
      "componentType" : 5121,
      "count" : 3360,
      "type" : "VEC4"
    },
    {
      "bufferView" : 5,
      "componentType" : 5126,
      "count" : 3360,
      "type" : "VEC2"
    },
    {
      "bufferView" : 6,
      "componentType" : 5126,
      "count" : 3360,
      "type" : "VEC2"
    },
    {
      "bufferView" : 7,
      "componentType" : 5126,
      "count" : 3360,
      "type" : "VEC2"
    },
    {
      "bufferView" : 8,
      "componentType" : 5126,
      "count" : 3360,
      "type" : "VEC2"
    },
    {
      "bufferView" : 9,
      "componentType" : 5123,
      "count" : 3108,
      "type" : "SCALAR"
    },
    {
      "bufferView" : 10,
      "min" : [ 17.378, 0.299998, 28.638 ],
      "max" : [ 27.3563, 6.2, 61.1431 ],
      "componentType" : 5126,
      "count" : 1248,
      "type" : "VEC3"
    },
    {
      "bufferView" : 11,
      "componentType" : 5126,
      "count" : 1248,
      "type" : "VEC3"
    },
    {
      "bufferView" : 12,
      "componentType" : 5126,
      "count" : 1248,
      "type" : "VEC4"
    },
    {
      "bufferView" : 13,
      "normalized" : true,
      "componentType" : 5121,
      "count" : 1248,
      "type" : "VEC4"
    },
    {
      "bufferView" : 14,
      "componentType" : 5126,
      "count" : 1248,
      "type" : "VEC2"
    },
    {
      "bufferView" : 15,
      "componentType" : 5126,
      "count" : 1248,
      "type" : "VEC2"
    },
    {
      "bufferView" : 16,
      "componentType" : 5126,
      "count" : 1248,
      "type" : "VEC2"
    },
    {
      "bufferView" : 17,
      "componentType" : 5126,
      "count" : 1248,
      "type" : "VEC2"
    },
    {
      "bufferView" : 18,
      "componentType" : 5123,
      "count" : 3582,
      "type" : "SCALAR"
    },
    {
      "bufferView" : 19,
      "min" : [ 16.729, 4.8, 28.6175 ],
      "max" : [ 27.3769, 8.12, 61.1816 ],
      "componentType" : 5126,
      "count" : 1425,
      "type" : "VEC3"
    },
    {
      "bufferView" : 20,
      "componentType" : 5126,
      "count" : 1425,
      "type" : "VEC3"
    },
    {
      "bufferView" : 21,
      "componentType" : 5126,
      "count" : 1425,
      "type" : "VEC4"
    },
    {
      "bufferView" : 22,
      "normalized" : true,
      "componentType" : 5121,
      "count" : 1425,
      "type" : "VEC4"
    },
    {
      "bufferView" : 23,
      "componentType" : 5126,
      "count" : 1425,
      "type" : "VEC2"
    },
    {
      "bufferView" : 24,
      "componentType" : 5126,
      "count" : 1425,
      "type" : "VEC2"
    },
    {
      "bufferView" : 25,
      "componentType" : 5126,
      "count" : 1425,
      "type" : "VEC2"
    },
    {
      "bufferView" : 26,
      "componentType" : 5126,
      "count" : 1425,
      "type" : "VEC2"
    },
    {
      "bufferView" : 27,
      "componentType" : 5123,
      "count" : 1494,
      "type" : "SCALAR"
    },
    {
      "bufferView" : 28,
      "min" : [ 17.3199, -3.05176e-06, 28.9097 ],
      "max" : [ 18.1381, 0.300003, 61.1764 ],
      "componentType" : 5126,
      "count" : 376,
      "type" : "VEC3"
    },
    {
      "bufferView" : 29,
      "componentType" : 5126,
      "count" : 376,
      "type" : "VEC3"
    },
    {
      "bufferView" : 30,
      "componentType" : 5126,
      "count" : 376,
      "type" : "VEC4"
    },
    {
      "bufferView" : 31,
      "normalized" : true,
      "componentType" : 5121,
      "count" : 376,
      "type" : "VEC4"
    },
    {
      "bufferView" : 32,
      "componentType" : 5126,
      "count" : 376,
      "type" : "VEC2"
    },
    {
      "bufferView" : 33,
      "componentType" : 5126,
      "count" : 376,
      "type" : "VEC2"
    },
    {
      "bufferView" : 34,
      "componentType" : 5126,
      "count" : 376,
      "type" : "VEC2"
    },
    {
      "bufferView" : 35,
      "componentType" : 5126,
      "count" : 376,
      "type" : "VEC2"
    },
    {
      "bufferView" : 36,
      "componentType" : 5123,
      "count" : 60,
      "type" : "SCALAR"
    },
    {
      "bufferView" : 37,
      "min" : [ 17.416, 0.800001, 60.3604 ],
      "max" : [ 18.0979, 1.5, 61.121 ],
      "componentType" : 5126,
      "count" : 22,
      "type" : "VEC3"
    },
    {
      "bufferView" : 38,
      "componentType" : 5126,
      "count" : 22,
      "type" : "VEC3"
    },
    {
      "bufferView" : 39,
      "componentType" : 5126,
      "count" : 22,
      "type" : "VEC4"
    },
    {
      "bufferView" : 40,
      "normalized" : true,
      "componentType" : 5121,
      "count" : 22,
      "type" : "VEC4"
    },
    {
      "bufferView" : 41,
      "componentType" : 5126,
      "count" : 22,
      "type" : "VEC2"
    },
    {
      "bufferView" : 42,
      "componentType" : 5126,
      "count" : 22,
      "type" : "VEC2"
    },
    {
      "bufferView" : 43,
      "componentType" : 5126,
      "count" : 22,
      "type" : "VEC2"
    },
    {
      "bufferView" : 44,
      "componentType" : 5126,
      "count" : 22,
      "type" : "VEC2"
    },
    {
      "bufferView" : 45,
      "componentType" : 5123,
      "count" : 900,
      "type" : "SCALAR"
    },
    {
      "bufferView" : 46,
      "min" : [ 16.729, 5.07002, 31.7511 ],
      "max" : [ 17.9052, 5.6, 60.627 ],
      "componentType" : 5126,
      "count" : 380,
      "type" : "VEC3"
    },
    {
      "bufferView" : 47,
      "componentType" : 5126,
      "count" : 380,
      "type" : "VEC3"
    },
    {
      "bufferView" : 48,
      "componentType" : 5126,
      "count" : 380,
      "type" : "VEC4"
    },
    {
      "bufferView" : 49,
      "normalized" : true,
      "componentType" : 5121,
      "count" : 380,
      "type" : "VEC4"
    },
    {
      "bufferView" : 50,
      "componentType" : 5126,
      "count" : 380,
      "type" : "VEC2"
    },
    {
      "bufferView" : 51,
      "componentType" : 5126,
      "count" : 380,
      "type" : "VEC2"
    },
    {
      "bufferView" : 52,
      "componentType" : 5126,
      "count" : 380,
      "type" : "VEC2"
    },
    {
      "bufferView" : 53,
      "componentType" : 5126,
      "count" : 380,
      "type" : "VEC2"
    },
    {
      "bufferView" : 54,
      "componentType" : 5123,
      "count" : 6,
      "type" : "SCALAR"
    },
    {
      "bufferView" : 55,
      "min" : [ 18.0513, 6, 37.0525 ],
      "max" : [ 26.8505, 6, 60.9223 ],
      "componentType" : 5126,
      "count" : 4,
      "type" : "VEC3"
    },
    {
      "bufferView" : 56,
      "componentType" : 5126,
      "count" : 4,
      "type" : "VEC3"
    },
    {
      "bufferView" : 57,
      "componentType" : 5126,
      "count" : 4,
      "type" : "VEC4"
    },
    {
      "bufferView" : 58,
      "normalized" : true,
      "componentType" : 5121,
      "count" : 4,
      "type" : "VEC4"
    },
    {
      "bufferView" : 59,
      "componentType" : 5126,
      "count" : 4,
      "type" : "VEC2"
    },
    {
      "bufferView" : 60,
      "componentType" : 5126,
      "count" : 4,
      "type" : "VEC2"
    },
    {
      "bufferView" : 61,
      "componentType" : 5126,
      "count" : 4,
      "type" : "VEC2"
    },
    {
      "bufferView" : 62,
      "componentType" : 5126,
      "count" : 4,
      "type" : "VEC2"
    },
    {
      "bufferView" : 63,
      "componentType" : 5123,
      "count" : 6,
      "type" : "SCALAR"
    },
    {
      "bufferView" : 64,
      "min" : [ 27.5563, 5.94529, 47.0173 ],
      "max" : [ 32.0237, 5.94529, 60.4205 ],
      "componentType" : 5126,
      "count" : 4,
      "type" : "VEC3"
    },
    {
      "bufferView" : 65,
      "componentType" : 5126,
      "count" : 4,
      "type" : "VEC3"
    },
    {
      "bufferView" : 66,
      "componentType" : 5126,
      "count" : 4,
      "type" : "VEC4"
    },
    {
      "bufferView" : 67,
      "normalized" : true,
      "componentType" : 5121,
      "count" : 4,
      "type" : "VEC4"
    },
    {
      "bufferView" : 68,
      "componentType" : 5126,
      "count" : 4,
      "type" : "VEC2"
    },
    {
      "bufferView" : 69,
      "componentType" : 5126,
      "count" : 4,
      "type" : "VEC2"
    },
    {
      "bufferView" : 70,
      "componentType" : 5126,
      "count" : 4,
      "type" : "VEC2"
    },
    {
      "bufferView" : 71,
      "componentType" : 5126,
      "count" : 4,
      "type" : "VEC2"
    }
  ]
}
