{
  "asset" : {
    "generator" : "UE Viewer (umodel) build 1544 based",
    "version" : "2.0"
  },
  "scene" : 0,
  "scenes" : [
    {
      "nodes" : [ 0 ]
    }
  ],
  "nodes" : [
    {
      "name" : "SM_ENV_KNVLLG03_Bridge_PlatformA_2",
      "mesh" : 0
    }
  ],
  "materials" : [
    {
      "name" : "MI_ENV_LKNVLD_WoodPlain_Red",
      "pbrMetallicRoughness" : {
        "baseColorFactor" : [ 0.3, 0.3, 0.3, 1.0 ],
        "metallicFactor" : 0.1,
        "roughnessFactor" : 0.5
      }
    },
    {
      "name" : "MI_ENV_LKNVLD_WoodWallSet",
      "pbrMetallicRoughness" : {
        "baseColorFactor" : [ 0.9, 0.3, 0.3, 1.0 ],
        "metallicFactor" : 0.1,
        "roughnessFactor" : 0.5
      }
    },
    {
      "name" : "MI_ENV_LKNVLD_Signboard_A",
      "pbrMetallicRoughness" : {
        "baseColorFactor" : [ 0.3, 0.9, 0.3, 1.0 ],
        "metallicFactor" : 0.1,
        "roughnessFactor" : 0.5
      }
    },
    {
      "name" : "MI_T_ENV_LKNVLD_StoneTrim",
      "pbrMetallicRoughness" : {
        "baseColorFactor" : [ 0.3, 0.3, 0.9, 1.0 ],
        "metallicFactor" : 0.1,
        "roughnessFactor" : 0.5
      }
    },
    {
      "name" : "MI_ENV_LKNVLD_Eaves_B",
      "pbrMetallicRoughness" : {
        "baseColorFactor" : [ 0.9, 0.9, 0.9, 1.0 ],
        "metallicFactor" : 0.1,
        "roughnessFactor" : 0.5
      }
    }
  ],
  "meshes" : [
    {
      "primitives" : [
        {
          "attributes" : {
            "POSITION" : 1,
            "NORMAL" : 2,
            "TANGENT" : 3,
            "TEXCOORD_0" : 4,
            "TEXCOORD_1" : 5,
            "TEXCOORD_2" : 6,
            "TEXCOORD_3" : 7
          },
          "indices" : 0,
          "material" : 0
        },
        {
          "attributes" : {
            "POSITION" : 9,
            "NORMAL" : 10,
            "TANGENT" : 11,
            "TEXCOORD_0" : 12,
            "TEXCOORD_1" : 13,
            "TEXCOORD_2" : 14,
            "TEXCOORD_3" : 15
          },
          "indices" : 8,
          "material" : 1
        },
        {
          "attributes" : {
            "POSITION" : 17,
            "NORMAL" : 18,
            "TANGENT" : 19,
            "TEXCOORD_0" : 20,
            "TEXCOORD_1" : 21,
            "TEXCOORD_2" : 22,
            "TEXCOORD_3" : 23
          },
          "indices" : 16,
          "material" : 2
        },
        {
          "attributes" : {
            "POSITION" : 25,
            "NORMAL" : 26,
            "TANGENT" : 27,
            "TEXCOORD_0" : 28,
            "TEXCOORD_1" : 29,
            "TEXCOORD_2" : 30,
            "TEXCOORD_3" : 31
          },
          "indices" : 24,
          "material" : 3
        },
        {
          "attributes" : {
            "POSITION" : 33,
            "NORMAL" : 34,
            "TANGENT" : 35,
            "TEXCOORD_0" : 36,
            "TEXCOORD_1" : 37,
            "TEXCOORD_2" : 38,
            "TEXCOORD_3" : 39
          },
          "indices" : 32,
          "material" : 4
        }
      ],
      "name" : "SM_ENV_KNVLLG03_Bridge_PlatformA_2"
    }
  ],
  "buffers" : [
    {
      "uri" : "SM_ENV_KNVLLG03_Bridge_PlatformA_2.bin",
      "byteLength" : 626756
    }
  ],
  "bufferViews" : [
    {
      "buffer" : 0,
      "byteOffset" : 0,
      "byteLength" : 15692
    },
    {
      "buffer" : 0,
      "byteOffset" : 15692,
      "byteLength" : 51348
    },
    {
      "buffer" : 0,
      "byteOffset" : 67040,
      "byteLength" : 51348
    },
    {
      "buffer" : 0,
      "byteOffset" : 118388,
      "byteLength" : 68464
    },
    {
      "buffer" : 0,
      "byteOffset" : 186852,
      "byteLength" : 34232
    },
    {
      "buffer" : 0,
      "byteOffset" : 221084,
      "byteLength" : 34232
    },
    {
      "buffer" : 0,
      "byteOffset" : 255316,
      "byteLength" : 34232
    },
    {
      "buffer" : 0,
      "byteOffset" : 289548,
      "byteLength" : 34232
    },
    {
      "buffer" : 0,
      "byteOffset" : 323780,
      "byteLength" : 6036
    },
    {
      "buffer" : 0,
      "byteOffset" : 329816,
      "byteLength" : 14904
    },
    {
      "buffer" : 0,
      "byteOffset" : 344720,
      "byteLength" : 14904
    },
    {
      "buffer" : 0,
      "byteOffset" : 359624,
      "byteLength" : 19872
    },
    {
      "buffer" : 0,
      "byteOffset" : 379496,
      "byteLength" : 9936
    },
    {
      "buffer" : 0,
      "byteOffset" : 389432,
      "byteLength" : 9936
    },
    {
      "buffer" : 0,
      "byteOffset" : 399368,
      "byteLength" : 9936
    },
    {
      "buffer" : 0,
      "byteOffset" : 409304,
      "byteLength" : 9936
    },
    {
      "buffer" : 0,
      "byteOffset" : 419240,
      "byteLength" : 7968
    },
    {
      "buffer" : 0,
      "byteOffset" : 427208,
      "byteLength" : 20112
    },
    {
      "buffer" : 0,
      "byteOffset" : 447320,
      "byteLength" : 20112
    },
    {
      "buffer" : 0,
      "byteOffset" : 467432,
      "byteLength" : 26816
    },
    {
      "buffer" : 0,
      "byteOffset" : 494248,
      "byteLength" : 13408
    },
    {
      "buffer" : 0,
      "byteOffset" : 507656,
      "byteLength" : 13408
    },
    {
      "buffer" : 0,
      "byteOffset" : 521064,
      "byteLength" : 13408
    },
    {
      "buffer" : 0,
      "byteOffset" : 534472,
      "byteLength" : 13408
    },
    {
      "buffer" : 0,
      "byteOffset" : 547880,
      "byteLength" : 3780
    },
    {
      "buffer" : 0,
      "byteOffset" : 551660,
      "byteLength" : 5712
    },
    {
      "buffer" : 0,
      "byteOffset" : 557372,
      "byteLength" : 5712
    },
    {
      "buffer" : 0,
      "byteOffset" : 563084,
      "byteLength" : 7616
    },
    {
      "buffer" : 0,
      "byteOffset" : 570700,
      "byteLength" : 3808
    },
    {
      "buffer" : 0,
      "byteOffset" : 574508,
      "byteLength" : 3808
    },
    {
      "buffer" : 0,
      "byteOffset" : 578316,
      "byteLength" : 3808
    },
    {
      "buffer" : 0,
      "byteOffset" : 582124,
      "byteLength" : 3808
    },
    {
      "buffer" : 0,
      "byteOffset" : 585932,
      "byteLength" : 2520
    },
    {
      "buffer" : 0,
      "byteOffset" : 588452,
      "byteLength" : 6384
    },
    {
      "buffer" : 0,
      "byteOffset" : 594836,
      "byteLength" : 6384
    },
    {
      "buffer" : 0,
      "byteOffset" : 601220,
      "byteLength" : 8512
    },
    {
      "buffer" : 0,
      "byteOffset" : 609732,
      "byteLength" : 4256
    },
    {
      "buffer" : 0,
      "byteOffset" : 613988,
      "byteLength" : 4256
    },
    {
      "buffer" : 0,
      "byteOffset" : 618244,
      "byteLength" : 4256
    },
    {
      "buffer" : 0,
      "byteOffset" : 622500,
      "byteLength" : 4256
    }
  ],
  "accessors" : [
    {
      "bufferView" : 0,
      "componentType" : 5123,
      "count" : 7845,
      "type" : "SCALAR"
    },
    {
      "bufferView" : 1,
      "min" : [ -58.5307, 0.69788, -18.5458 ],
      "max" : [ -57.4202, 7.59788, 27.7164 ],
      "componentType" : 5126,
      "count" : 4279,
      "type" : "VEC3"
    },
    {
      "bufferView" : 2,
      "componentType" : 5126,
      "count" : 4279,
      "type" : "VEC3"
    },
    {
      "bufferView" : 3,
      "componentType" : 5126,
      "count" : 4279,
      "type" : "VEC4"
    },
    {
      "bufferView" : 4,
      "componentType" : 5126,
      "count" : 4279,
      "type" : "VEC2"
    },
    {
      "bufferView" : 5,
      "componentType" : 5126,
      "count" : 4279,
      "type" : "VEC2"
    },
    {
      "bufferView" : 6,
      "componentType" : 5126,
      "count" : 4279,
      "type" : "VEC2"
    },
    {
      "bufferView" : 7,
      "componentType" : 5126,
      "count" : 4279,
      "type" : "VEC2"
    },
    {
      "bufferView" : 8,
      "componentType" : 5123,
      "count" : 3018,
      "type" : "SCALAR"
    },
    {
      "bufferView" : 9,
      "min" : [ -57.9094, 0.29788, -17.5787 ],
      "max" : [ -57.4202, 6.19788, 27.7433 ],
      "componentType" : 5126,
      "count" : 1242,
      "type" : "VEC3"
    },
    {
      "bufferView" : 10,
      "componentType" : 5126,
      "count" : 1242,
      "type" : "VEC3"
    },
    {
      "bufferView" : 11,
      "componentType" : 5126,
      "count" : 1242,
      "type" : "VEC4"
    },
    {
      "bufferView" : 12,
      "componentType" : 5126,
      "count" : 1242,
      "type" : "VEC2"
    },
    {
      "bufferView" : 13,
      "componentType" : 5126,
      "count" : 1242,
      "type" : "VEC2"
    },
    {
      "bufferView" : 14,
      "componentType" : 5126,
      "count" : 1242,
      "type" : "VEC2"
    },
    {
      "bufferView" : 15,
      "componentType" : 5126,
      "count" : 1242,
      "type" : "VEC2"
    },
    {
      "bufferView" : 16,
      "componentType" : 5123,
      "count" : 3984,
      "type" : "SCALAR"
    },
    {
      "bufferView" : 17,
      "min" : [ -58.5538, 4.79788, -18.5689 ],
      "max" : [ -57.4202, 8.11788, 27.7638 ],
      "componentType" : 5126,
      "count" : 1676,
      "type" : "VEC3"
    },
    {
      "bufferView" : 18,
      "componentType" : 5126,
      "count" : 1676,
      "type" : "VEC3"
    },
    {
      "bufferView" : 19,
      "componentType" : 5126,
      "count" : 1676,
      "type" : "VEC4"
    },
    {
      "bufferView" : 20,
      "componentType" : 5126,
      "count" : 1676,
      "type" : "VEC2"
    },
    {
      "bufferView" : 21,
      "componentType" : 5126,
      "count" : 1676,
      "type" : "VEC2"
    },
    {
      "bufferView" : 22,
      "componentType" : 5126,
      "count" : 1676,
      "type" : "VEC2"
    },
    {
      "bufferView" : 23,
      "componentType" : 5126,
      "count" : 1676,
      "type" : "VEC2"
    },
    {
      "bufferView" : 24,
      "componentType" : 5123,
      "count" : 1890,
      "type" : "SCALAR"
    },
    {
      "bufferView" : 25,
      "min" : [ -57.6982, -0.00212097, -17.5787 ],
      "max" : [ -57.4202, 0.297883, 27.4717 ],
      "componentType" : 5126,
      "count" : 476,
      "type" : "VEC3"
    },
    {
      "bufferView" : 26,
      "componentType" : 5126,
      "count" : 476,
      "type" : "VEC3"
    },
    {
      "bufferView" : 27,
      "componentType" : 5126,
      "count" : 476,
      "type" : "VEC4"
    },
    {
      "bufferView" : 28,
      "componentType" : 5126,
      "count" : 476,
      "type" : "VEC2"
    },
    {
      "bufferView" : 29,
      "componentType" : 5126,
      "count" : 476,
      "type" : "VEC2"
    },
    {
      "bufferView" : 30,
      "componentType" : 5126,
      "count" : 476,
      "type" : "VEC2"
    },
    {
      "bufferView" : 31,
      "componentType" : 5126,
      "count" : 476,
      "type" : "VEC2"
    },
    {
      "bufferView" : 32,
      "componentType" : 5123,
      "count" : 1260,
      "type" : "SCALAR"
    },
    {
      "bufferView" : 33,
      "min" : [ -58.5538, 5.0679, -18.5689 ],
      "max" : [ -57.565, 5.59788, 24.6303 ],
      "componentType" : 5126,
      "count" : 532,
      "type" : "VEC3"
    },
    {
      "bufferView" : 34,
      "componentType" : 5126,
      "count" : 532,
      "type" : "VEC3"
    },
    {
      "bufferView" : 35,
      "componentType" : 5126,
      "count" : 532,
      "type" : "VEC4"
    },
    {
      "bufferView" : 36,
      "componentType" : 5126,
      "count" : 532,
      "type" : "VEC2"
    },
    {
      "bufferView" : 37,
      "componentType" : 5126,
      "count" : 532,
      "type" : "VEC2"
    },
    {
      "bufferView" : 38,
      "componentType" : 5126,
      "count" : 532,
      "type" : "VEC2"
    },
    {
      "bufferView" : 39,
      "componentType" : 5126,
      "count" : 532,
      "type" : "VEC2"
    }
  ]
}
