{
  "asset" : {
    "generator" : "UE Viewer (umodel) build 1544 based",
    "version" : "2.0"
  },
  "scene" : 0,
  "scenes" : [
    {
      "nodes" : [ 0 ]
    }
  ],
  "nodes" : [
    {
      "name" : "SM_ENV_KNVLLG03_Bridge_Bridge",
      "mesh" : 0
    }
  ],
  "materials" : [
    {
      "name" : "MI_ENV_LKNVLD_WoodPlain_Red",
      "pbrMetallicRoughness" : {
        "baseColorFactor" : [ 0.3, 0.3, 0.3, 1.0 ],
        "metallicFactor" : 0.1,
        "roughnessFactor" : 0.5
      }
    },
    {
      "name" : "MI_ENV_LKNVLD_WoodWallSet",
      "pbrMetallicRoughness" : {
        "baseColorFactor" : [ 0.9, 0.3, 0.3, 1.0 ],
        "metallicFactor" : 0.1,
        "roughnessFactor" : 0.5
      }
    },
    {
      "name" : "MI_ENV_LKNVLD_Signboard_A",
      "pbrMetallicRoughness" : {
        "baseColorFactor" : [ 0.3, 0.9, 0.3, 1.0 ],
        "metallicFactor" : 0.1,
        "roughnessFactor" : 0.5
      }
    },
    {
      "name" : "MI_ENV_LKNVLD_StoneTrim_Ground",
      "pbrMetallicRoughness" : {
        "baseColorFactor" : [ 0.3, 0.3, 0.9, 1.0 ],
        "metallicFactor" : 0.1,
        "roughnessFactor" : 0.5
      }
    },
    {
      "name" : "MI_ENV_LKNVLD_WoodWallSet_Red",
      "pbrMetallicRoughness" : {
        "baseColorFactor" : [ 0.9, 0.9, 0.9, 1.0 ],
        "metallicFactor" : 0.1,
        "roughnessFactor" : 0.5
      }
    },
    {
      "name" : "MI_ENV_LKNVLD_Eaves_B",
      "pbrMetallicRoughness" : {
        "baseColorFactor" : [ 0.9, 0.9, 0.3, 1.0 ],
        "metallicFactor" : 0.1,
        "roughnessFactor" : 0.5
      }
    },
    {
      "name" : "MI_T_ENV_LKNVLD_StoneTrim",
      "pbrMetallicRoughness" : {
        "baseColorFactor" : [ 0.9, 0.3, 0.9, 1.0 ],
        "metallicFactor" : 0.1,
        "roughnessFactor" : 0.5
      }
    },
    {
      "name" : "MI_ENV_LKNVLD_WoodBoard_Natural_Lighter",
      "pbrMetallicRoughness" : {
        "baseColorFactor" : [ 0.3, 0.9, 0.9, 1.0 ],
        "metallicFactor" : 0.1,
        "roughnessFactor" : 0.5
      }
    }
  ],
  "meshes" : [
    {
      "primitives" : [
        {
          "attributes" : {
            "POSITION" : 1,
            "NORMAL" : 2,
            "TANGENT" : 3,
            "TEXCOORD_0" : 4,
            "TEXCOORD_1" : 5,
            "TEXCOORD_2" : 6,
            "TEXCOORD_3" : 7
          },
          "indices" : 0,
          "material" : 0
        },
        {
          "attributes" : {
            "POSITION" : 9,
            "NORMAL" : 10,
            "TANGENT" : 11,
            "TEXCOORD_0" : 12,
            "TEXCOORD_1" : 13,
            "TEXCOORD_2" : 14,
            "TEXCOORD_3" : 15
          },
          "indices" : 8,
          "material" : 1
        },
        {
          "attributes" : {
            "POSITION" : 17,
            "NORMAL" : 18,
            "TANGENT" : 19,
            "TEXCOORD_0" : 20,
            "TEXCOORD_1" : 21,
            "TEXCOORD_2" : 22,
            "TEXCOORD_3" : 23
          },
          "indices" : 16,
          "material" : 2
        },
        {
          "attributes" : {
            "POSITION" : 25,
            "NORMAL" : 26,
            "TANGENT" : 27,
            "TEXCOORD_0" : 28,
            "TEXCOORD_1" : 29,
            "TEXCOORD_2" : 30,
            "TEXCOORD_3" : 31
          },
          "indices" : 24,
          "material" : 3
        },
        {
          "attributes" : {
            "POSITION" : 33,
            "NORMAL" : 34,
            "TANGENT" : 35,
            "TEXCOORD_0" : 36,
            "TEXCOORD_1" : 37,
            "TEXCOORD_2" : 38,
            "TEXCOORD_3" : 39
          },
          "indices" : 32,
          "material" : 4
        },
        {
          "attributes" : {
            "POSITION" : 41,
            "NORMAL" : 42,
            "TANGENT" : 43,
            "TEXCOORD_0" : 44,
            "TEXCOORD_1" : 45,
            "TEXCOORD_2" : 46,
            "TEXCOORD_3" : 47
          },
          "indices" : 40,
          "material" : 5
        },
        {
          "attributes" : {
            "POSITION" : 49,
            "NORMAL" : 50,
            "TANGENT" : 51,
            "TEXCOORD_0" : 52,
            "TEXCOORD_1" : 53,
            "TEXCOORD_2" : 54,
            "TEXCOORD_3" : 55
          },
          "indices" : 48,
          "material" : 6
        },
        {
          "attributes" : {
            "POSITION" : 57,
            "NORMAL" : 58,
            "TANGENT" : 59,
            "TEXCOORD_0" : 60,
            "TEXCOORD_1" : 61,
            "TEXCOORD_2" : 62,
            "TEXCOORD_3" : 63
          },
          "indices" : 56,
          "material" : 7
        }
      ],
      "name" : "SM_ENV_KNVLLG03_Bridge_Bridge"
    }
  ],
  "buffers" : [
    {
      "uri" : "SM_ENV_KNVLLG03_Bridge_Bridge.bin",
      "byteLength" : 1730272
    }
  ],
  "bufferViews" : [
    {
      "buffer" : 0,
      "byteOffset" : 0,
      "byteLength" : 43664
    },
    {
      "buffer" : 0,
      "byteOffset" : 43664,
      "byteLength" : 127644
    },
    {
      "buffer" : 0,
      "byteOffset" : 171308,
      "byteLength" : 127644
    },
    {
      "buffer" : 0,
      "byteOffset" : 298952,
      "byteLength" : 170192
    },
    {
      "buffer" : 0,
      "byteOffset" : 469144,
      "byteLength" : 85096
    },
    {
      "buffer" : 0,
      "byteOffset" : 554240,
      "byteLength" : 85096
    },
    {
      "buffer" : 0,
      "byteOffset" : 639336,
      "byteLength" : 85096
    },
    {
      "buffer" : 0,
      "byteOffset" : 724432,
      "byteLength" : 85096
    },
    {
      "buffer" : 0,
      "byteOffset" : 809528,
      "byteLength" : 29112
    },
    {
      "buffer" : 0,
      "byteOffset" : 838640,
      "byteLength" : 72864
    },
    {
      "buffer" : 0,
      "byteOffset" : 911504,
      "byteLength" : 72864
    },
    {
      "buffer" : 0,
      "byteOffset" : 984368,
      "byteLength" : 97152
    },
    {
      "buffer" : 0,
      "byteOffset" : 1081520,
      "byteLength" : 48576
    },
    {
      "buffer" : 0,
      "byteOffset" : 1130096,
      "byteLength" : 48576
    },
    {
      "buffer" : 0,
      "byteOffset" : 1178672,
      "byteLength" : 48576
    },
    {
      "buffer" : 0,
      "byteOffset" : 1227248,
      "byteLength" : 48576
    },
    {
      "buffer" : 0,
      "byteOffset" : 1275824,
      "byteLength" : 17988
    },
    {
      "buffer" : 0,
      "byteOffset" : 1293812,
      "byteLength" : 41292
    },
    {
      "buffer" : 0,
      "byteOffset" : 1335104,
      "byteLength" : 41292
    },
    {
      "buffer" : 0,
      "byteOffset" : 1376396,
      "byteLength" : 55056
    },
    {
      "buffer" : 0,
      "byteOffset" : 1431452,
      "byteLength" : 27528
    },
    {
      "buffer" : 0,
      "byteOffset" : 1458980,
      "byteLength" : 27528
    },
    {
      "buffer" : 0,
      "byteOffset" : 1486508,
      "byteLength" : 27528
    },
    {
      "buffer" : 0,
      "byteOffset" : 1514036,
      "byteLength" : 27528
    },
    {
      "buffer" : 0,
      "byteOffset" : 1541564,
      "byteLength" : 6620
    },
    {
      "buffer" : 0,
      "byteOffset" : 1548184,
      "byteLength" : 12036
    },
    {
      "buffer" : 0,
      "byteOffset" : 1560220,
      "byteLength" : 12036
    },
    {
      "buffer" : 0,
      "byteOffset" : 1572256,
      "byteLength" : 16048
    },
    {
      "buffer" : 0,
      "byteOffset" : 1588304,
      "byteLength" : 8024
    },
    {
      "buffer" : 0,
      "byteOffset" : 1596328,
      "byteLength" : 8024
    },
    {
      "buffer" : 0,
      "byteOffset" : 1604352,
      "byteLength" : 8024
    },
    {
      "buffer" : 0,
      "byteOffset" : 1612376,
      "byteLength" : 8024
    },
    {
      "buffer" : 0,
      "byteOffset" : 1620400,
      "byteLength" : 2220
    },
    {
      "buffer" : 0,
      "byteOffset" : 1622620,
      "byteLength" : 4656
    },
    {
      "buffer" : 0,
      "byteOffset" : 1627276,
      "byteLength" : 4656
    },
    {
      "buffer" : 0,
      "byteOffset" : 1631932,
      "byteLength" : 6208
    },
    {
      "buffer" : 0,
      "byteOffset" : 1638140,
      "byteLength" : 3104
    },
    {
      "buffer" : 0,
      "byteOffset" : 1641244,
      "byteLength" : 3104
    },
    {
      "buffer" : 0,
      "byteOffset" : 1644348,
      "byteLength" : 3104
    },
    {
      "buffer" : 0,
      "byteOffset" : 1647452,
      "byteLength" : 3104
    },
    {
      "buffer" : 0,
      "byteOffset" : 1650556,
      "byteLength" : 2820
    },
    {
      "buffer" : 0,
      "byteOffset" : 1653376,
      "byteLength" : 7272
    },
    {
      "buffer" : 0,
      "byteOffset" : 1660648,
      "byteLength" : 7272
    },
    {
      "buffer" : 0,
      "byteOffset" : 1667920,
      "byteLength" : 9696
    },
    {
      "buffer" : 0,
      "byteOffset" : 1677616,
      "byteLength" : 4848
    },
    {
      "buffer" : 0,
      "byteOffset" : 1682464,
      "byteLength" : 4848
    },
    {
      "buffer" : 0,
      "byteOffset" : 1687312,
      "byteLength" : 4848
    },
    {
      "buffer" : 0,
      "byteOffset" : 1692160,
      "byteLength" : 4848
    },
    {
      "buffer" : 0,
      "byteOffset" : 1697008,
      "byteLength" : 2952
    },
    {
      "buffer" : 0,
      "byteOffset" : 1699960,
      "byteLength" : 4512
    },
    {
      "buffer" : 0,
      "byteOffset" : 1704472,
      "byteLength" : 4512
    },
    {
      "buffer" : 0,
      "byteOffset" : 1708984,
      "byteLength" : 6016
    },
    {
      "buffer" : 0,
      "byteOffset" : 1715000,
      "byteLength" : 3008
    },
    {
      "buffer" : 0,
      "byteOffset" : 1718008,
      "byteLength" : 3008
    },
    {
      "buffer" : 0,
      "byteOffset" : 1721016,
      "byteLength" : 3008
    },
    {
      "buffer" : 0,
      "byteOffset" : 1724024,
      "byteLength" : 3008
    },
    {
      "buffer" : 0,
      "byteOffset" : 1727032,
      "byteLength" : 216
    },
    {
      "buffer" : 0,
      "byteOffset" : 1727248,
      "byteLength" : 504
    },
    {
      "buffer" : 0,
      "byteOffset" : 1727752,
      "byteLength" : 504
    },
    {
      "buffer" : 0,
      "byteOffset" : 1728256,
      "byteLength" : 672
    },
    {
      "buffer" : 0,
      "byteOffset" : 1728928,
      "byteLength" : 336
    },
    {
      "buffer" : 0,
      "byteOffset" : 1729264,
      "byteLength" : 336
    },
    {
      "buffer" : 0,
      "byteOffset" : 1729600,
      "byteLength" : 336
    },
    {
      "buffer" : 0,
      "byteOffset" : 1729936,
      "byteLength" : 336
    }
  ],
  "accessors" : [
    {
      "bufferView" : 0,
      "componentType" : 5123,
      "count" : 21831,
      "type" : "SCALAR"
    },
    {
      "bufferView" : 1,
      "min" : [ -27.9129, -0.0529493, 59.6124 ],
      "max" : [ 27.547, 8.72991, 72.1687 ],
      "componentType" : 5126,
      "count" : 10637,
      "type" : "VEC3"
    },
    {
      "bufferView" : 2,
      "componentType" : 5126,
      "count" : 10637,
      "type" : "VEC3"
    },
    {
      "bufferView" : 3,
      "componentType" : 5126,
      "count" : 10637,
      "type" : "VEC4"
    },
    {
      "bufferView" : 4,
      "componentType" : 5126,
      "count" : 10637,
      "type" : "VEC2"
    },
    {
      "bufferView" : 5,
      "componentType" : 5126,
      "count" : 10637,
      "type" : "VEC2"
    },
    {
      "bufferView" : 6,
      "componentType" : 5126,
      "count" : 10637,
      "type" : "VEC2"
    },
    {
      "bufferView" : 7,
      "componentType" : 5126,
      "count" : 10637,
      "type" : "VEC2"
    },
    {
      "bufferView" : 8,
      "componentType" : 5123,
      "count" : 14556,
      "type" : "SCALAR"
    },
    {
      "bufferView" : 9,
      "min" : [ -27.7681, -0.0166662, 60.4572 ],
      "max" : [ 27.2961, 7.49463, 71.3239 ],
      "componentType" : 5126,
      "count" : 6072,
      "type" : "VEC3"
    },
    {
      "bufferView" : 10,
      "componentType" : 5126,
      "count" : 6072,
      "type" : "VEC3"
    },
    {
      "bufferView" : 11,
      "componentType" : 5126,
      "count" : 6072,
      "type" : "VEC4"
    },
    {
      "bufferView" : 12,
      "componentType" : 5126,
      "count" : 6072,
      "type" : "VEC2"
    },
    {
      "bufferView" : 13,
      "componentType" : 5126,
      "count" : 6072,
      "type" : "VEC2"
    },
    {
      "bufferView" : 14,
      "componentType" : 5126,
      "count" : 6072,
      "type" : "VEC2"
    },
    {
      "bufferView" : 15,
      "componentType" : 5126,
      "count" : 6072,
      "type" : "VEC2"
    },
    {
      "bufferView" : 16,
      "componentType" : 5123,
      "count" : 8994,
      "type" : "SCALAR"
    },
    {
      "bufferView" : 17,
      "min" : [ -27.8301, 4.6079, 59.6124 ],
      "max" : [ 27.3167, 9.24991, 72.1687 ],
      "componentType" : 5126,
      "count" : 3441,
      "type" : "VEC3"
    },
    {
      "bufferView" : 18,
      "componentType" : 5126,
      "count" : 3441,
      "type" : "VEC3"
    },
    {
      "bufferView" : 19,
      "componentType" : 5126,
      "count" : 3441,
      "type" : "VEC4"
    },
    {
      "bufferView" : 20,
      "componentType" : 5126,
      "count" : 3441,
      "type" : "VEC2"
    },
    {
      "bufferView" : 21,
      "componentType" : 5126,
      "count" : 3441,
      "type" : "VEC2"
    },
    {
      "bufferView" : 22,
      "componentType" : 5126,
      "count" : 3441,
      "type" : "VEC2"
    },
    {
      "bufferView" : 23,
      "componentType" : 5126,
      "count" : 3441,
      "type" : "VEC2"
    },
    {
      "bufferView" : 24,
      "componentType" : 5123,
      "count" : 3309,
      "type" : "SCALAR"
    },
    {
      "bufferView" : 25,
      "min" : [ -27.8268, -0.316667, 60.3985 ],
      "max" : [ 22.454, 0.300002, 71.3826 ],
      "componentType" : 5126,
      "count" : 1003,
      "type" : "VEC3"
    },
    {
      "bufferView" : 26,
      "componentType" : 5126,
      "count" : 1003,
      "type" : "VEC3"
    },
    {
      "bufferView" : 27,
      "componentType" : 5126,
      "count" : 1003,
      "type" : "VEC4"
    },
    {
      "bufferView" : 28,
      "componentType" : 5126,
      "count" : 1003,
      "type" : "VEC2"
    },
    {
      "bufferView" : 29,
      "componentType" : 5126,
      "count" : 1003,
      "type" : "VEC2"
    },
    {
      "bufferView" : 30,
      "componentType" : 5126,
      "count" : 1003,
      "type" : "VEC2"
    },
    {
      "bufferView" : 31,
      "componentType" : 5126,
      "count" : 1003,
      "type" : "VEC2"
    },
    {
      "bufferView" : 32,
      "componentType" : 5123,
      "count" : 1110,
      "type" : "SCALAR"
    },
    {
      "bufferView" : 33,
      "min" : [ -27.7493, 0.483333, 60.476 ],
      "max" : [ 10.7528, 1.5, 71.3051 ],
      "componentType" : 5126,
      "count" : 388,
      "type" : "VEC3"
    },
    {
      "bufferView" : 34,
      "componentType" : 5126,
      "count" : 388,
      "type" : "VEC3"
    },
    {
      "bufferView" : 35,
      "componentType" : 5126,
      "count" : 388,
      "type" : "VEC4"
    },
    {
      "bufferView" : 36,
      "componentType" : 5126,
      "count" : 388,
      "type" : "VEC2"
    },
    {
      "bufferView" : 37,
      "componentType" : 5126,
      "count" : 388,
      "type" : "VEC2"
    },
    {
      "bufferView" : 38,
      "componentType" : 5126,
      "count" : 388,
      "type" : "VEC2"
    },
    {
      "bufferView" : 39,
      "componentType" : 5126,
      "count" : 388,
      "type" : "VEC2"
    },
    {
      "bufferView" : 40,
      "componentType" : 5123,
      "count" : 1410,
      "type" : "SCALAR"
    },
    {
      "bufferView" : 41,
      "min" : [ -27.3968, 5.07002, 59.6124 ],
      "max" : [ 25.8829, 5.6, 72.1687 ],
      "componentType" : 5126,
      "count" : 606,
      "type" : "VEC3"
    },
    {
      "bufferView" : 42,
      "componentType" : 5126,
      "count" : 606,
      "type" : "VEC3"
    },
    {
      "bufferView" : 43,
      "componentType" : 5126,
      "count" : 606,
      "type" : "VEC4"
    },
    {
      "bufferView" : 44,
      "componentType" : 5126,
      "count" : 606,
      "type" : "VEC2"
    },
    {
      "bufferView" : 45,
      "componentType" : 5126,
      "count" : 606,
      "type" : "VEC2"
    },
    {
      "bufferView" : 46,
      "componentType" : 5126,
      "count" : 606,
      "type" : "VEC2"
    },
    {
      "bufferView" : 47,
      "componentType" : 5126,
      "count" : 606,
      "type" : "VEC2"
    },
    {
      "bufferView" : 48,
      "componentType" : 5123,
      "count" : 1476,
      "type" : "SCALAR"
    },
    {
      "bufferView" : 49,
      "min" : [ -27.6388, -3.05176e-06, 70.8109 ],
      "max" : [ 27.1336, 0.300001, 71.1005 ],
      "componentType" : 5126,
      "count" : 376,
      "type" : "VEC3"
    },
    {
      "bufferView" : 50,
      "componentType" : 5126,
      "count" : 376,
      "type" : "VEC3"
    },
    {
      "bufferView" : 51,
      "componentType" : 5126,
      "count" : 376,
      "type" : "VEC4"
    },
    {
      "bufferView" : 52,
      "componentType" : 5126,
      "count" : 376,
      "type" : "VEC2"
    },
    {
      "bufferView" : 53,
      "componentType" : 5126,
      "count" : 376,
      "type" : "VEC2"
    },
    {
      "bufferView" : 54,
      "componentType" : 5126,
      "count" : 376,
      "type" : "VEC2"
    },
    {
      "bufferView" : 55,
      "componentType" : 5126,
      "count" : 376,
      "type" : "VEC2"
    },
    {
      "bufferView" : 56,
      "componentType" : 5123,
      "count" : 108,
      "type" : "SCALAR"
    },
    {
      "bufferView" : 57,
      "min" : [ -27.2129, 5.99247, 60.8976 ],
      "max" : [ 26.9455, 7.344, 70.8226 ],
      "componentType" : 5126,
      "count" : 42,
      "type" : "VEC3"
    },
    {
      "bufferView" : 58,
      "componentType" : 5126,
      "count" : 42,
      "type" : "VEC3"
    },
    {
      "bufferView" : 59,
      "componentType" : 5126,
      "count" : 42,
      "type" : "VEC4"
    },
    {
      "bufferView" : 60,
      "componentType" : 5126,
      "count" : 42,
      "type" : "VEC2"
    },
    {
      "bufferView" : 61,
      "componentType" : 5126,
      "count" : 42,
      "type" : "VEC2"
    },
    {
      "bufferView" : 62,
      "componentType" : 5126,
      "count" : 42,
      "type" : "VEC2"
    },
    {
      "bufferView" : 63,
      "componentType" : 5126,
      "count" : 42,
      "type" : "VEC2"
    }
  ]
}
