{
  "asset" : {
    "generator" : "UE Viewer (umodel) build 1544 based",
    "version" : "2.0"
  },
  "scene" : 0,
  "scenes" : [
    {
      "nodes" : [ 0 ]
    }
  ],
  "nodes" : [
    {
      "name" : "SM_ENV_KNVLLG03_Bridge_StraightD_2",
      "mesh" : 0
    }
  ],
  "materials" : [
    {
      "name" : "MI_ENV_LKNVLD_WoodPlain_Red",
      "pbrMetallicRoughness" : {
        "baseColorFactor" : [ 0.3, 0.3, 0.3, 1.0 ],
        "metallicFactor" : 0.1,
        "roughnessFactor" : 0.5
      }
    },
    {
      "name" : "MI_ENV_LKNVLD_WoodWallSet",
      "pbrMetallicRoughness" : {
        "baseColorFactor" : [ 0.9, 0.3, 0.3, 1.0 ],
        "metallicFactor" : 0.1,
        "roughnessFactor" : 0.5
      }
    },
    {
      "name" : "MI_ENV_LKNVLD_Signboard_A",
      "pbrMetallicRoughness" : {
        "baseColorFactor" : [ 0.3, 0.9, 0.3, 1.0 ],
        "metallicFactor" : 0.1,
        "roughnessFactor" : 0.5
      }
    },
    {
      "name" : "MI_ENV_LKNVLD_Eaves_B",
      "pbrMetallicRoughness" : {
        "baseColorFactor" : [ 0.3, 0.3, 0.9, 1.0 ],
        "metallicFactor" : 0.1,
        "roughnessFactor" : 0.5
      }
    },
    {
      "name" : "MI_ENV_LKNVLD_StoneTrim_Ground",
      "pbrMetallicRoughness" : {
        "baseColorFactor" : [ 0.9, 0.9, 0.9, 1.0 ],
        "metallicFactor" : 0.1,
        "roughnessFactor" : 0.5
      }
    }
  ],
  "meshes" : [
    {
      "primitives" : [
        {
          "attributes" : {
            "POSITION" : 1,
            "NORMAL" : 2,
            "TANGENT" : 3,
            "TEXCOORD_0" : 4,
            "TEXCOORD_1" : 5,
            "TEXCOORD_2" : 6,
            "TEXCOORD_3" : 7
          },
          "indices" : 0,
          "material" : 0
        },
        {
          "attributes" : {
            "POSITION" : 9,
            "NORMAL" : 10,
            "TANGENT" : 11,
            "TEXCOORD_0" : 12,
            "TEXCOORD_1" : 13,
            "TEXCOORD_2" : 14,
            "TEXCOORD_3" : 15
          },
          "indices" : 8,
          "material" : 1
        },
        {
          "attributes" : {
            "POSITION" : 17,
            "NORMAL" : 18,
            "TANGENT" : 19,
            "TEXCOORD_0" : 20,
            "TEXCOORD_1" : 21,
            "TEXCOORD_2" : 22,
            "TEXCOORD_3" : 23
          },
          "indices" : 16,
          "material" : 2
        },
        {
          "attributes" : {
            "POSITION" : 25,
            "NORMAL" : 26,
            "TANGENT" : 27,
            "TEXCOORD_0" : 28,
            "TEXCOORD_1" : 29,
            "TEXCOORD_2" : 30,
            "TEXCOORD_3" : 31
          },
          "indices" : 24,
          "material" : 3
        },
        {
          "attributes" : {
            "POSITION" : 33,
            "NORMAL" : 34,
            "TANGENT" : 35,
            "TEXCOORD_0" : 36,
            "TEXCOORD_1" : 37,
            "TEXCOORD_2" : 38,
            "TEXCOORD_3" : 39
          },
          "indices" : 32,
          "material" : 4
        }
      ],
      "name" : "SM_ENV_KNVLLG03_Bridge_StraightD_2"
    }
  ],
  "buffers" : [
    {
      "uri" : "SM_ENV_KNVLLG03_Bridge_StraightD_2.bin",
      "byteLength" : 314412
    }
  ],
  "bufferViews" : [
    {
      "buffer" : 0,
      "byteOffset" : 0,
      "byteLength" : 8112
    },
    {
      "buffer" : 0,
      "byteOffset" : 8112,
      "byteLength" : 27768
    },
    {
      "buffer" : 0,
      "byteOffset" : 35880,
      "byteLength" : 27768
    },
    {
      "buffer" : 0,
      "byteOffset" : 63648,
      "byteLength" : 37024
    },
    {
      "buffer" : 0,
      "byteOffset" : 100672,
      "byteLength" : 18512
    },
    {
      "buffer" : 0,
      "byteOffset" : 119184,
      "byteLength" : 18512
    },
    {
      "buffer" : 0,
      "byteOffset" : 137696,
      "byteLength" : 18512
    },
    {
      "buffer" : 0,
      "byteOffset" : 156208,
      "byteLength" : 18512
    },
    {
      "buffer" : 0,
      "byteOffset" : 174720,
      "byteLength" : 1848
    },
    {
      "buffer" : 0,
      "byteOffset" : 176568,
      "byteLength" : 4368
    },
    {
      "buffer" : 0,
      "byteOffset" : 180936,
      "byteLength" : 4368
    },
    {
      "buffer" : 0,
      "byteOffset" : 185304,
      "byteLength" : 5824
    },
    {
      "buffer" : 0,
      "byteOffset" : 191128,
      "byteLength" : 2912
    },
    {
      "buffer" : 0,
      "byteOffset" : 194040,
      "byteLength" : 2912
    },
    {
      "buffer" : 0,
      "byteOffset" : 196952,
      "byteLength" : 2912
    },
    {
      "buffer" : 0,
      "byteOffset" : 199864,
      "byteLength" : 2912
    },
    {
      "buffer" : 0,
      "byteOffset" : 202776,
      "byteLength" : 3132
    },
    {
      "buffer" : 0,
      "byteOffset" : 205908,
      "byteLength" : 9288
    },
    {
      "buffer" : 0,
      "byteOffset" : 215196,
      "byteLength" : 9288
    },
    {
      "buffer" : 0,
      "byteOffset" : 224484,
      "byteLength" : 12384
    },
    {
      "buffer" : 0,
      "byteOffset" : 236868,
      "byteLength" : 6192
    },
    {
      "buffer" : 0,
      "byteOffset" : 243060,
      "byteLength" : 6192
    },
    {
      "buffer" : 0,
      "byteOffset" : 249252,
      "byteLength" : 6192
    },
    {
      "buffer" : 0,
      "byteOffset" : 255444,
      "byteLength" : 6192
    },
    {
      "buffer" : 0,
      "byteOffset" : 261636,
      "byteLength" : 1620
    },
    {
      "buffer" : 0,
      "byteOffset" : 263256,
      "byteLength" : 4104
    },
    {
      "buffer" : 0,
      "byteOffset" : 267360,
      "byteLength" : 4104
    },
    {
      "buffer" : 0,
      "byteOffset" : 271464,
      "byteLength" : 5472
    },
    {
      "buffer" : 0,
      "byteOffset" : 276936,
      "byteLength" : 2736
    },
    {
      "buffer" : 0,
      "byteOffset" : 279672,
      "byteLength" : 2736
    },
    {
      "buffer" : 0,
      "byteOffset" : 282408,
      "byteLength" : 2736
    },
    {
      "buffer" : 0,
      "byteOffset" : 285144,
      "byteLength" : 2736
    },
    {
      "buffer" : 0,
      "byteOffset" : 287880,
      "byteLength" : 2628
    },
    {
      "buffer" : 0,
      "byteOffset" : 290508,
      "byteLength" : 3984
    },
    {
      "buffer" : 0,
      "byteOffset" : 294492,
      "byteLength" : 3984
    },
    {
      "buffer" : 0,
      "byteOffset" : 298476,
      "byteLength" : 5312
    },
    {
      "buffer" : 0,
      "byteOffset" : 303788,
      "byteLength" : 2656
    },
    {
      "buffer" : 0,
      "byteOffset" : 306444,
      "byteLength" : 2656
    },
    {
      "buffer" : 0,
      "byteOffset" : 309100,
      "byteLength" : 2656
    },
    {
      "buffer" : 0,
      "byteOffset" : 311756,
      "byteLength" : 2656
    }
  ],
  "accessors" : [
    {
      "bufferView" : 0,
      "componentType" : 5123,
      "count" : 4056,
      "type" : "SCALAR"
    },
    {
      "bufferView" : 1,
      "min" : [ 65.9251, 0.733292, -109.449 ],
      "max" : [ 66.9748, 6, -79.614 ],
      "componentType" : 5126,
      "count" : 2314,
      "type" : "VEC3"
    },
    {
      "bufferView" : 2,
      "componentType" : 5126,
      "count" : 2314,
      "type" : "VEC3"
    },
    {
      "bufferView" : 3,
      "componentType" : 5126,
      "count" : 2314,
      "type" : "VEC4"
    },
    {
      "bufferView" : 4,
      "componentType" : 5126,
      "count" : 2314,
      "type" : "VEC2"
    },
    {
      "bufferView" : 5,
      "componentType" : 5126,
      "count" : 2314,
      "type" : "VEC2"
    },
    {
      "bufferView" : 6,
      "componentType" : 5126,
      "count" : 2314,
      "type" : "VEC2"
    },
    {
      "bufferView" : 7,
      "componentType" : 5126,
      "count" : 2314,
      "type" : "VEC2"
    },
    {
      "bufferView" : 8,
      "componentType" : 5123,
      "count" : 924,
      "type" : "SCALAR"
    },
    {
      "bufferView" : 9,
      "min" : [ 65.9251, 0.333292, -109.447 ],
      "max" : [ 66.1568, 5.53329, -79.6702 ],
      "componentType" : 5126,
      "count" : 364,
      "type" : "VEC3"
    },
    {
      "bufferView" : 10,
      "componentType" : 5126,
      "count" : 364,
      "type" : "VEC3"
    },
    {
      "bufferView" : 11,
      "componentType" : 5126,
      "count" : 364,
      "type" : "VEC4"
    },
    {
      "bufferView" : 12,
      "componentType" : 5126,
      "count" : 364,
      "type" : "VEC2"
    },
    {
      "bufferView" : 13,
      "componentType" : 5126,
      "count" : 364,
      "type" : "VEC2"
    },
    {
      "bufferView" : 14,
      "componentType" : 5126,
      "count" : 364,
      "type" : "VEC2"
    },
    {
      "bufferView" : 15,
      "componentType" : 5126,
      "count" : 364,
      "type" : "VEC2"
    },
    {
      "bufferView" : 16,
      "componentType" : 5123,
      "count" : 1566,
      "type" : "SCALAR"
    },
    {
      "bufferView" : 17,
      "min" : [ 65.9251, 4.80947, -106.431 ],
      "max" : [ 67.0074, 5.60947, -79.614 ],
      "componentType" : 5126,
      "count" : 774,
      "type" : "VEC3"
    },
    {
      "bufferView" : 18,
      "componentType" : 5126,
      "count" : 774,
      "type" : "VEC3"
    },
    {
      "bufferView" : 19,
      "componentType" : 5126,
      "count" : 774,
      "type" : "VEC4"
    },
    {
      "bufferView" : 20,
      "componentType" : 5126,
      "count" : 774,
      "type" : "VEC2"
    },
    {
      "bufferView" : 21,
      "componentType" : 5126,
      "count" : 774,
      "type" : "VEC2"
    },
    {
      "bufferView" : 22,
      "componentType" : 5126,
      "count" : 774,
      "type" : "VEC2"
    },
    {
      "bufferView" : 23,
      "componentType" : 5126,
      "count" : 774,
      "type" : "VEC2"
    },
    {
      "bufferView" : 24,
      "componentType" : 5123,
      "count" : 810,
      "type" : "SCALAR"
    },
    {
      "bufferView" : 25,
      "min" : [ 66.0699, 5.07949, -106.273 ],
      "max" : [ 67.0074, 5.60947, -79.7722 ],
      "componentType" : 5126,
      "count" : 342,
      "type" : "VEC3"
    },
    {
      "bufferView" : 26,
      "componentType" : 5126,
      "count" : 342,
      "type" : "VEC3"
    },
    {
      "bufferView" : 27,
      "componentType" : 5126,
      "count" : 342,
      "type" : "VEC4"
    },
    {
      "bufferView" : 28,
      "componentType" : 5126,
      "count" : 342,
      "type" : "VEC2"
    },
    {
      "bufferView" : 29,
      "componentType" : 5126,
      "count" : 342,
      "type" : "VEC2"
    },
    {
      "bufferView" : 30,
      "componentType" : 5126,
      "count" : 342,
      "type" : "VEC2"
    },
    {
      "bufferView" : 31,
      "componentType" : 5126,
      "count" : 342,
      "type" : "VEC2"
    },
    {
      "bufferView" : 32,
      "componentType" : 5123,
      "count" : 1314,
      "type" : "SCALAR"
    },
    {
      "bufferView" : 33,
      "min" : [ 65.9251, -0.20088, -109.447 ],
      "max" : [ 66.2031, 0.333296, -79.6226 ],
      "componentType" : 5126,
      "count" : 332,
      "type" : "VEC3"
    },
    {
      "bufferView" : 34,
      "componentType" : 5126,
      "count" : 332,
      "type" : "VEC3"
    },
    {
      "bufferView" : 35,
      "componentType" : 5126,
      "count" : 332,
      "type" : "VEC4"
    },
    {
      "bufferView" : 36,
      "componentType" : 5126,
      "count" : 332,
      "type" : "VEC2"
    },
    {
      "bufferView" : 37,
      "componentType" : 5126,
      "count" : 332,
      "type" : "VEC2"
    },
    {
      "bufferView" : 38,
      "componentType" : 5126,
      "count" : 332,
      "type" : "VEC2"
    },
    {
      "bufferView" : 39,
      "componentType" : 5126,
      "count" : 332,
      "type" : "VEC2"
    }
  ]
}
