{
  "asset" : {
    "generator" : "UE Viewer (umodel) build 1544 based",
    "version" : "2.0"
  },
  "scene" : 0,
  "scenes" : [
    {
      "nodes" : [ 0 ]
    }
  ],
  "nodes" : [
    {
      "name" : "SM_ENV_KNVLLG03_Bridge_StraightA_2",
      "mesh" : 0
    }
  ],
  "materials" : [
    {
      "name" : "MI_ENV_LKNVLD_WoodPlain_Red",
      "pbrMetallicRoughness" : {
        "baseColorFactor" : [ 0.3, 0.3, 0.3, 1.0 ],
        "metallicFactor" : 0.1,
        "roughnessFactor" : 0.5
      }
    },
    {
      "name" : "MI_ENV_LKNVLD_WoodWallSet",
      "pbrMetallicRoughness" : {
        "baseColorFactor" : [ 0.9, 0.3, 0.3, 1.0 ],
        "metallicFactor" : 0.1,
        "roughnessFactor" : 0.5
      }
    },
    {
      "name" : "MI_ENV_LKNVLD_Signboard_A",
      "pbrMetallicRoughness" : {
        "baseColorFactor" : [ 0.3, 0.9, 0.3, 1.0 ],
        "metallicFactor" : 0.1,
        "roughnessFactor" : 0.5
      }
    },
    {
      "name" : "MI_ENV_LKNVLD_Eaves_B",
      "pbrMetallicRoughness" : {
        "baseColorFactor" : [ 0.3, 0.3, 0.9, 1.0 ],
        "metallicFactor" : 0.1,
        "roughnessFactor" : 0.5
      }
    },
    {
      "name" : "MI_ENV_LKNVLD_StoneTrim_Ground",
      "pbrMetallicRoughness" : {
        "baseColorFactor" : [ 0.9, 0.9, 0.9, 1.0 ],
        "metallicFactor" : 0.1,
        "roughnessFactor" : 0.5
      }
    }
  ],
  "meshes" : [
    {
      "primitives" : [
        {
          "attributes" : {
            "POSITION" : 1,
            "NORMAL" : 2,
            "TANGENT" : 3,
            "TEXCOORD_0" : 4,
            "TEXCOORD_1" : 5,
            "TEXCOORD_2" : 6,
            "TEXCOORD_3" : 7
          },
          "indices" : 0,
          "material" : 0
        },
        {
          "attributes" : {
            "POSITION" : 9,
            "NORMAL" : 10,
            "TANGENT" : 11,
            "TEXCOORD_0" : 12,
            "TEXCOORD_1" : 13,
            "TEXCOORD_2" : 14,
            "TEXCOORD_3" : 15
          },
          "indices" : 8,
          "material" : 1
        },
        {
          "attributes" : {
            "POSITION" : 17,
            "NORMAL" : 18,
            "TANGENT" : 19,
            "TEXCOORD_0" : 20,
            "TEXCOORD_1" : 21,
            "TEXCOORD_2" : 22,
            "TEXCOORD_3" : 23
          },
          "indices" : 16,
          "material" : 2
        },
        {
          "attributes" : {
            "POSITION" : 25,
            "NORMAL" : 26,
            "TANGENT" : 27,
            "TEXCOORD_0" : 28,
            "TEXCOORD_1" : 29,
            "TEXCOORD_2" : 30,
            "TEXCOORD_3" : 31
          },
          "indices" : 24,
          "material" : 3
        },
        {
          "attributes" : {
            "POSITION" : 33,
            "NORMAL" : 34,
            "TANGENT" : 35,
            "TEXCOORD_0" : 36,
            "TEXCOORD_1" : 37,
            "TEXCOORD_2" : 38,
            "TEXCOORD_3" : 39
          },
          "indices" : 32,
          "material" : 4
        }
      ],
      "name" : "SM_ENV_KNVLLG03_Bridge_StraightA_2"
    }
  ],
  "buffers" : [
    {
      "uri" : "SM_ENV_KNVLLG03_Bridge_StraightA_2.bin",
      "byteLength" : 292896
    }
  ],
  "bufferViews" : [
    {
      "buffer" : 0,
      "byteOffset" : 0,
      "byteLength" : 7764
    },
    {
      "buffer" : 0,
      "byteOffset" : 7764,
      "byteLength" : 26760
    },
    {
      "buffer" : 0,
      "byteOffset" : 34524,
      "byteLength" : 26760
    },
    {
      "buffer" : 0,
      "byteOffset" : 61284,
      "byteLength" : 35680
    },
    {
      "buffer" : 0,
      "byteOffset" : 96964,
      "byteLength" : 17840
    },
    {
      "buffer" : 0,
      "byteOffset" : 114804,
      "byteLength" : 17840
    },
    {
      "buffer" : 0,
      "byteOffset" : 132644,
      "byteLength" : 17840
    },
    {
      "buffer" : 0,
      "byteOffset" : 150484,
      "byteLength" : 17840
    },
    {
      "buffer" : 0,
      "byteOffset" : 168324,
      "byteLength" : 1656
    },
    {
      "buffer" : 0,
      "byteOffset" : 169980,
      "byteLength" : 3936
    },
    {
      "buffer" : 0,
      "byteOffset" : 173916,
      "byteLength" : 3936
    },
    {
      "buffer" : 0,
      "byteOffset" : 177852,
      "byteLength" : 5248
    },
    {
      "buffer" : 0,
      "byteOffset" : 183100,
      "byteLength" : 2624
    },
    {
      "buffer" : 0,
      "byteOffset" : 185724,
      "byteLength" : 2624
    },
    {
      "buffer" : 0,
      "byteOffset" : 188348,
      "byteLength" : 2624
    },
    {
      "buffer" : 0,
      "byteOffset" : 190972,
      "byteLength" : 2624
    },
    {
      "buffer" : 0,
      "byteOffset" : 193596,
      "byteLength" : 2784
    },
    {
      "buffer" : 0,
      "byteOffset" : 196380,
      "byteLength" : 8256
    },
    {
      "buffer" : 0,
      "byteOffset" : 204636,
      "byteLength" : 8256
    },
    {
      "buffer" : 0,
      "byteOffset" : 212892,
      "byteLength" : 11008
    },
    {
      "buffer" : 0,
      "byteOffset" : 223900,
      "byteLength" : 5504
    },
    {
      "buffer" : 0,
      "byteOffset" : 229404,
      "byteLength" : 5504
    },
    {
      "buffer" : 0,
      "byteOffset" : 234908,
      "byteLength" : 5504
    },
    {
      "buffer" : 0,
      "byteOffset" : 240412,
      "byteLength" : 5504
    },
    {
      "buffer" : 0,
      "byteOffset" : 245916,
      "byteLength" : 1440
    },
    {
      "buffer" : 0,
      "byteOffset" : 247356,
      "byteLength" : 3648
    },
    {
      "buffer" : 0,
      "byteOffset" : 251004,
      "byteLength" : 3648
    },
    {
      "buffer" : 0,
      "byteOffset" : 254652,
      "byteLength" : 4864
    },
    {
      "buffer" : 0,
      "byteOffset" : 259516,
      "byteLength" : 2432
    },
    {
      "buffer" : 0,
      "byteOffset" : 261948,
      "byteLength" : 2432
    },
    {
      "buffer" : 0,
      "byteOffset" : 264380,
      "byteLength" : 2432
    },
    {
      "buffer" : 0,
      "byteOffset" : 266812,
      "byteLength" : 2432
    },
    {
      "buffer" : 0,
      "byteOffset" : 269244,
      "byteLength" : 2340
    },
    {
      "buffer" : 0,
      "byteOffset" : 271584,
      "byteLength" : 3552
    },
    {
      "buffer" : 0,
      "byteOffset" : 275136,
      "byteLength" : 3552
    },
    {
      "buffer" : 0,
      "byteOffset" : 278688,
      "byteLength" : 4736
    },
    {
      "buffer" : 0,
      "byteOffset" : 283424,
      "byteLength" : 2368
    },
    {
      "buffer" : 0,
      "byteOffset" : 285792,
      "byteLength" : 2368
    },
    {
      "buffer" : 0,
      "byteOffset" : 288160,
      "byteLength" : 2368
    },
    {
      "buffer" : 0,
      "byteOffset" : 290528,
      "byteLength" : 2368
    }
  ],
  "accessors" : [
    {
      "bufferView" : 0,
      "componentType" : 5123,
      "count" : 3882,
      "type" : "SCALAR"
    },
    {
      "bufferView" : 1,
      "min" : [ -71.8413, 0.751852, -84.8018 ],
      "max" : [ -70.7916, 6, -55.2748 ],
      "componentType" : 5126,
      "count" : 2230,
      "type" : "VEC3"
    },
    {
      "bufferView" : 2,
      "componentType" : 5126,
      "count" : 2230,
      "type" : "VEC3"
    },
    {
      "bufferView" : 3,
      "componentType" : 5126,
      "count" : 2230,
      "type" : "VEC4"
    },
    {
      "bufferView" : 4,
      "componentType" : 5126,
      "count" : 2230,
      "type" : "VEC2"
    },
    {
      "bufferView" : 5,
      "componentType" : 5126,
      "count" : 2230,
      "type" : "VEC2"
    },
    {
      "bufferView" : 6,
      "componentType" : 5126,
      "count" : 2230,
      "type" : "VEC2"
    },
    {
      "bufferView" : 7,
      "componentType" : 5126,
      "count" : 2230,
      "type" : "VEC2"
    },
    {
      "bufferView" : 8,
      "componentType" : 5123,
      "count" : 828,
      "type" : "SCALAR"
    },
    {
      "bufferView" : 9,
      "min" : [ -71.0233, 0.351852, -84.8018 ],
      "max" : [ -70.7916, 5.55185, -55.2771 ],
      "componentType" : 5126,
      "count" : 328,
      "type" : "VEC3"
    },
    {
      "bufferView" : 10,
      "componentType" : 5126,
      "count" : 328,
      "type" : "VEC3"
    },
    {
      "bufferView" : 11,
      "componentType" : 5126,
      "count" : 328,
      "type" : "VEC4"
    },
    {
      "bufferView" : 12,
      "componentType" : 5126,
      "count" : 328,
      "type" : "VEC2"
    },
    {
      "bufferView" : 13,
      "componentType" : 5126,
      "count" : 328,
      "type" : "VEC2"
    },
    {
      "bufferView" : 14,
      "componentType" : 5126,
      "count" : 328,
      "type" : "VEC2"
    },
    {
      "bufferView" : 15,
      "componentType" : 5126,
      "count" : 328,
      "type" : "VEC2"
    },
    {
      "bufferView" : 16,
      "componentType" : 5123,
      "count" : 1392,
      "type" : "SCALAR"
    },
    {
      "bufferView" : 17,
      "min" : [ -71.8739, 4.82803, -81.7681 ],
      "max" : [ -70.7916, 5.62803, -58.2927 ],
      "componentType" : 5126,
      "count" : 688,
      "type" : "VEC3"
    },
    {
      "bufferView" : 18,
      "componentType" : 5126,
      "count" : 688,
      "type" : "VEC3"
    },
    {
      "bufferView" : 19,
      "componentType" : 5126,
      "count" : 688,
      "type" : "VEC4"
    },
    {
      "bufferView" : 20,
      "componentType" : 5126,
      "count" : 688,
      "type" : "VEC2"
    },
    {
      "bufferView" : 21,
      "componentType" : 5126,
      "count" : 688,
      "type" : "VEC2"
    },
    {
      "bufferView" : 22,
      "componentType" : 5126,
      "count" : 688,
      "type" : "VEC2"
    },
    {
      "bufferView" : 23,
      "componentType" : 5126,
      "count" : 688,
      "type" : "VEC2"
    },
    {
      "bufferView" : 24,
      "componentType" : 5123,
      "count" : 720,
      "type" : "SCALAR"
    },
    {
      "bufferView" : 25,
      "min" : [ -71.8739, 5.09805, -81.6098 ],
      "max" : [ -70.9364, 5.62803, -58.4509 ],
      "componentType" : 5126,
      "count" : 304,
      "type" : "VEC3"
    },
    {
      "bufferView" : 26,
      "componentType" : 5126,
      "count" : 304,
      "type" : "VEC3"
    },
    {
      "bufferView" : 27,
      "componentType" : 5126,
      "count" : 304,
      "type" : "VEC4"
    },
    {
      "bufferView" : 28,
      "componentType" : 5126,
      "count" : 304,
      "type" : "VEC2"
    },
    {
      "bufferView" : 29,
      "componentType" : 5126,
      "count" : 304,
      "type" : "VEC2"
    },
    {
      "bufferView" : 30,
      "componentType" : 5126,
      "count" : 304,
      "type" : "VEC2"
    },
    {
      "bufferView" : 31,
      "componentType" : 5126,
      "count" : 304,
      "type" : "VEC2"
    },
    {
      "bufferView" : 32,
      "componentType" : 5123,
      "count" : 1170,
      "type" : "SCALAR"
    },
    {
      "bufferView" : 33,
      "min" : [ -71.0696, -0.182321, -84.8018 ],
      "max" : [ -70.7916, 0.351856, -55.2771 ],
      "componentType" : 5126,
      "count" : 296,
      "type" : "VEC3"
    },
    {
      "bufferView" : 34,
      "componentType" : 5126,
      "count" : 296,
      "type" : "VEC3"
    },
    {
      "bufferView" : 35,
      "componentType" : 5126,
      "count" : 296,
      "type" : "VEC4"
    },
    {
      "bufferView" : 36,
      "componentType" : 5126,
      "count" : 296,
      "type" : "VEC2"
    },
    {
      "bufferView" : 37,
      "componentType" : 5126,
      "count" : 296,
      "type" : "VEC2"
    },
    {
      "bufferView" : 38,
      "componentType" : 5126,
      "count" : 296,
      "type" : "VEC2"
    },
    {
      "bufferView" : 39,
      "componentType" : 5126,
      "count" : 296,
      "type" : "VEC2"
    }
  ]
}
