{
  "asset" : {
    "generator" : "UE Viewer (umodel) build 1544 based",
    "version" : "2.0"
  },
  "scene" : 0,
  "scenes" : [
    {
      "nodes" : [ 0 ]
    }
  ],
  "nodes" : [
    {
      "name" : "SK_ENV_LKNVLD_Event_Airship",
      "mesh" : 0,
      "skin" : 0,
      "children" : [ 1 ]
    },
    {
      "name" : "CharacterRoot",
      "children" : [ 2, 3, 4, 5, 6, 7 ],
      "translation" : [ 1.49278, -16.85, 0 ],
      "rotation" : [ -0, -0, -0, 1 ]
    },
    {
      "name" : "fanFrntUp_L",
      "translation" : [ 18.8439, 27.6116, -10.8313 ],
      "rotation" : [ 6.12323e-17, 6.12323e-17, 1, -3.7494e-33 ]
    },
    {
      "name" : "fanFrntUp_R",
      "translation" : [ 18.8455, 27.6652, 10.7626 ],
      "rotation" : [ -0, -0, 0, -1 ]
    },
    {
      "name" : "fanFrntDwn_L",
      "translation" : [ 18.8466, 6.02596, -10.7695 ],
      "rotation" : [ 6.12323e-17, 6.12323e-17, 1, -3.7494e-33 ]
    },
    {
      "name" : "fanFrntDwn_R",
      "translation" : [ 18.8522, 6.07952, 10.8162 ],
      "rotation" : [ -0, -0, 0, -1 ]
    },
    {
      "name" : "fanFrntBck_CT",
      "translation" : [ 44.6049, 16.6672, -0.170289 ],
      "rotation" : [ -0, -0, 0, -1 ]
    },
    {
      "name" : "fanDwn_CT",
      "translation" : [ 15.1898, 0.267055, -0.170289 ],
      "rotation" : [ -0, -0, 0, -1 ]
    }
  ],
  "skins" : [
    {
      "inverseBindMatrices" : 0,
      "skeleton" : 1,
      "joints" : [
        1,2,3,4,5,6,7
      ]
    }
  ],
  "materials" : [
    {
      "name" : "MI_ENV_LKNVLD_Event_Airship_A",
      "pbrMetallicRoughness" : {
        "baseColorFactor" : [ 0.3, 0.3, 0.3, 1.0 ],
        "metallicFactor" : 0.1,
        "roughnessFactor" : 0.5
      }
    }
  ],
  "meshes" : [
    {
      "primitives" : [
        {
          "attributes" : {
            "POSITION" : 2,
            "NORMAL" : 3,
            "TANGENT" : 4,
            "COLOR_0" : 5,
            "JOINTS_0" : 6,
            "WEIGHTS_0" : 7,
            "TEXCOORD_0" : 8,
            "TEXCOORD_1" : 9,
            "TEXCOORD_2" : 10,
            "TEXCOORD_3" : 11
          },
          "indices" : 1,
          "material" : 0
        }
      ],
      "name" : "SK_ENV_LKNVLD_Event_Airship"
    }
  ],
  "buffers" : [
    {
      "uri" : "SK_ENV_LKNVLD_Event_Airship.bin",
      "byteLength" : 644528
    }
  ],
  "bufferViews" : [
    {
      "buffer" : 0,
      "byteOffset" : 0,
      "byteLength" : 448
    },
    {
      "buffer" : 0,
      "byteOffset" : 448,
      "byteLength" : 24912
    },
    {
      "buffer" : 0,
      "byteOffset" : 25360,
      "byteLength" : 84432
    },
    {
      "buffer" : 0,
      "byteOffset" : 109792,
      "byteLength" : 84432
    },
    {
      "buffer" : 0,
      "byteOffset" : 194224,
      "byteLength" : 112576
    },
    {
      "buffer" : 0,
      "byteOffset" : 306800,
      "byteLength" : 28144
    },
    {
      "buffer" : 0,
      "byteOffset" : 334944,
      "byteLength" : 56288
    },
    {
      "buffer" : 0,
      "byteOffset" : 391232,
      "byteLength" : 28144
    },
    {
      "buffer" : 0,
      "byteOffset" : 419376,
      "byteLength" : 56288
    },
    {
      "buffer" : 0,
      "byteOffset" : 475664,
      "byteLength" : 56288
    },
    {
      "buffer" : 0,
      "byteOffset" : 531952,
      "byteLength" : 56288
    },
    {
      "buffer" : 0,
      "byteOffset" : 588240,
      "byteLength" : 56288
    }
  ],
  "accessors" : [
    {
      "bufferView" : 0,
      "componentType" : 5126,
      "count" : 7,
      "type" : "MAT4"
    },
    {
      "bufferView" : 1,
      "componentType" : 5123,
      "count" : 12456,
      "type" : "SCALAR"
    },
    {
      "bufferView" : 2,
      "min" : [ -32.1732, -23.2337, -16.4707 ],
      "max" : [ 46.0976, 22.1176, 16.509 ],
      "componentType" : 5126,
      "count" : 7036,
      "type" : "VEC3"
    },
    {
      "bufferView" : 3,
      "componentType" : 5126,
      "count" : 7036,
      "type" : "VEC3"
    },
    {
      "bufferView" : 4,
      "componentType" : 5126,
      "count" : 7036,
      "type" : "VEC4"
    },
    {
      "bufferView" : 5,
      "normalized" : true,
      "componentType" : 5121,
      "count" : 7036,
      "type" : "VEC4"
    },
    {
      "bufferView" : 6,
      "componentType" : 5123,
      "count" : 7036,
      "type" : "VEC4"
    },
    {
      "bufferView" : 7,
      "normalized" : true,
      "componentType" : 5121,
      "count" : 7036,
      "type" : "VEC4"
    },
    {
      "bufferView" : 8,
      "componentType" : 5126,
      "count" : 7036,
      "type" : "VEC2"
    },
    {
      "bufferView" : 9,
      "componentType" : 5126,
      "count" : 7036,
      "type" : "VEC2"
    },
    {
      "bufferView" : 10,
      "componentType" : 5126,
      "count" : 7036,
      "type" : "VEC2"
    },
    {
      "bufferView" : 11,
      "componentType" : 5126,
      "count" : 7036,
      "type" : "VEC2"
    }
  ]
}
