{
  "asset" : {
    "generator" : "UE Viewer (umodel) build 1544 based",
    "version" : "2.0"
  },
  "scene" : 0,
  "scenes" : [
    {
      "nodes" : [ 0 ]
    }
  ],
  "nodes" : [
    {
      "name" : "SM_ENV_LKNVLD03_VideoScreen_B",
      "mesh" : 0
    }
  ],
  "materials" : [
    {
      "name" : "MI_ENV_KNVLLG_Pipe_Dark",
      "pbrMetallicRoughness" : {
        "baseColorFactor" : [ 0.3, 0.3, 0.3, 1.0 ],
        "metallicFactor" : 0.1,
        "roughnessFactor" : 0.5
      }
    },
    {
      "name" : "MI_ENV_LKNVLD_Pipe_B",
      "pbrMetallicRoughness" : {
        "baseColorFactor" : [ 0.9, 0.3, 0.3, 1.0 ],
        "metallicFactor" : 0.1,
        "roughnessFactor" : 0.5
      }
    },
    {
      "name" : "MI_ENV_KNVLLG_AnimatedScreen_01",
      "pbrMetallicRoughness" : {
        "baseColorFactor" : [ 0.3, 0.9, 0.3, 1.0 ],
        "metallicFactor" : 0.1,
        "roughnessFactor" : 0.5
      }
    }
  ],
  "meshes" : [
    {
      "primitives" : [
        {
          "attributes" : {
            "POSITION" : 1,
            "NORMAL" : 2,
            "TANGENT" : 3,
            "COLOR_0" : 4,
            "TEXCOORD_0" : 5,
            "TEXCOORD_1" : 6,
            "TEXCOORD_2" : 7,
            "TEXCOORD_3" : 8
          },
          "indices" : 0,
          "material" : 0
        },
        {
          "attributes" : {
            "POSITION" : 10,
            "NORMAL" : 11,
            "TANGENT" : 12,
            "COLOR_0" : 13,
            "TEXCOORD_0" : 14,
            "TEXCOORD_1" : 15,
            "TEXCOORD_2" : 16,
            "TEXCOORD_3" : 17
          },
          "indices" : 9,
          "material" : 1
        },
        {
          "attributes" : {
            "POSITION" : 19,
            "NORMAL" : 20,
            "TANGENT" : 21,
            "COLOR_0" : 22,
            "TEXCOORD_0" : 23,
            "TEXCOORD_1" : 24,
            "TEXCOORD_2" : 25,
            "TEXCOORD_3" : 26
          },
          "indices" : 18,
          "material" : 2
        }
      ],
      "name" : "SM_ENV_LKNVLD03_VideoScreen_B"
    }
  ],
  "buffers" : [
    {
      "uri" : "SM_ENV_LKNVLD03_VideoScreen_B.bin",
      "byteLength" : 175140
    }
  ],
  "bufferViews" : [
    {
      "buffer" : 0,
      "byteOffset" : 0,
      "byteLength" : 6816
    },
    {
      "buffer" : 0,
      "byteOffset" : 6816,
      "byteLength" : 20160
    },
    {
      "buffer" : 0,
      "byteOffset" : 26976,
      "byteLength" : 20160
    },
    {
      "buffer" : 0,
      "byteOffset" : 47136,
      "byteLength" : 26880
    },
    {
      "buffer" : 0,
      "byteOffset" : 74016,
      "byteLength" : 6720
    },
    {
      "buffer" : 0,
      "byteOffset" : 80736,
      "byteLength" : 13440
    },
    {
      "buffer" : 0,
      "byteOffset" : 94176,
      "byteLength" : 13440
    },
    {
      "buffer" : 0,
      "byteOffset" : 107616,
      "byteLength" : 13440
    },
    {
      "buffer" : 0,
      "byteOffset" : 121056,
      "byteLength" : 13440
    },
    {
      "buffer" : 0,
      "byteOffset" : 134496,
      "byteLength" : 4176
    },
    {
      "buffer" : 0,
      "byteOffset" : 138672,
      "byteLength" : 5244
    },
    {
      "buffer" : 0,
      "byteOffset" : 143916,
      "byteLength" : 5244
    },
    {
      "buffer" : 0,
      "byteOffset" : 149160,
      "byteLength" : 6992
    },
    {
      "buffer" : 0,
      "byteOffset" : 156152,
      "byteLength" : 1748
    },
    {
      "buffer" : 0,
      "byteOffset" : 157900,
      "byteLength" : 3496
    },
    {
      "buffer" : 0,
      "byteOffset" : 161396,
      "byteLength" : 3496
    },
    {
      "buffer" : 0,
      "byteOffset" : 164892,
      "byteLength" : 3496
    },
    {
      "buffer" : 0,
      "byteOffset" : 168388,
      "byteLength" : 3496
    },
    {
      "buffer" : 0,
      "byteOffset" : 171884,
      "byteLength" : 216
    },
    {
      "buffer" : 0,
      "byteOffset" : 172100,
      "byteLength" : 480
    },
    {
      "buffer" : 0,
      "byteOffset" : 172580,
      "byteLength" : 480
    },
    {
      "buffer" : 0,
      "byteOffset" : 173060,
      "byteLength" : 640
    },
    {
      "buffer" : 0,
      "byteOffset" : 173700,
      "byteLength" : 160
    },
    {
      "buffer" : 0,
      "byteOffset" : 173860,
      "byteLength" : 320
    },
    {
      "buffer" : 0,
      "byteOffset" : 174180,
      "byteLength" : 320
    },
    {
      "buffer" : 0,
      "byteOffset" : 174500,
      "byteLength" : 320
    },
    {
      "buffer" : 0,
      "byteOffset" : 174820,
      "byteLength" : 320
    }
  ],
  "accessors" : [
    {
      "bufferView" : 0,
      "componentType" : 5123,
      "count" : 3408,
      "type" : "SCALAR"
    },
    {
      "bufferView" : 1,
      "min" : [ -12.599, 0.314558, -43.7766 ],
      "max" : [ 12.599, 5.39994, -37.2496 ],
      "componentType" : 5126,
      "count" : 1680,
      "type" : "VEC3"
    },
    {
      "bufferView" : 2,
      "componentType" : 5126,
      "count" : 1680,
      "type" : "VEC3"
    },
    {
      "bufferView" : 3,
      "componentType" : 5126,
      "count" : 1680,
      "type" : "VEC4"
    },
    {
      "bufferView" : 4,
      "normalized" : true,
      "componentType" : 5121,
      "count" : 1680,
      "type" : "VEC4"
    },
    {
      "bufferView" : 5,
      "componentType" : 5126,
      "count" : 1680,
      "type" : "VEC2"
    },
    {
      "bufferView" : 6,
      "componentType" : 5126,
      "count" : 1680,
      "type" : "VEC2"
    },
    {
      "bufferView" : 7,
      "componentType" : 5126,
      "count" : 1680,
      "type" : "VEC2"
    },
    {
      "bufferView" : 8,
      "componentType" : 5126,
      "count" : 1680,
      "type" : "VEC2"
    },
    {
      "bufferView" : 9,
      "componentType" : 5123,
      "count" : 2088,
      "type" : "SCALAR"
    },
    {
      "bufferView" : 10,
      "min" : [ -11.067, 1.92879, -40.2497 ],
      "max" : [ 10.9815, 4.09313, -37.3873 ],
      "componentType" : 5126,
      "count" : 437,
      "type" : "VEC3"
    },
    {
      "bufferView" : 11,
      "componentType" : 5126,
      "count" : 437,
      "type" : "VEC3"
    },
    {
      "bufferView" : 12,
      "componentType" : 5126,
      "count" : 437,
      "type" : "VEC4"
    },
    {
      "bufferView" : 13,
      "normalized" : true,
      "componentType" : 5121,
      "count" : 437,
      "type" : "VEC4"
    },
    {
      "bufferView" : 14,
      "componentType" : 5126,
      "count" : 437,
      "type" : "VEC2"
    },
    {
      "bufferView" : 15,
      "componentType" : 5126,
      "count" : 437,
      "type" : "VEC2"
    },
    {
      "bufferView" : 16,
      "componentType" : 5126,
      "count" : 437,
      "type" : "VEC2"
    },
    {
      "bufferView" : 17,
      "componentType" : 5126,
      "count" : 437,
      "type" : "VEC2"
    },
    {
      "bufferView" : 18,
      "componentType" : 5123,
      "count" : 108,
      "type" : "SCALAR"
    },
    {
      "bufferView" : 19,
      "min" : [ -12.4526, 1.53701, -40.4803 ],
      "max" : [ 12.4526, 5.17785, -37.3604 ],
      "componentType" : 5126,
      "count" : 40,
      "type" : "VEC3"
    },
    {
      "bufferView" : 20,
      "componentType" : 5126,
      "count" : 40,
      "type" : "VEC3"
    },
    {
      "bufferView" : 21,
      "componentType" : 5126,
      "count" : 40,
      "type" : "VEC4"
    },
    {
      "bufferView" : 22,
      "normalized" : true,
      "componentType" : 5121,
      "count" : 40,
      "type" : "VEC4"
    },
    {
      "bufferView" : 23,
      "componentType" : 5126,
      "count" : 40,
      "type" : "VEC2"
    },
    {
      "bufferView" : 24,
      "componentType" : 5126,
      "count" : 40,
      "type" : "VEC2"
    },
    {
      "bufferView" : 25,
      "componentType" : 5126,
      "count" : 40,
      "type" : "VEC2"
    },
    {
      "bufferView" : 26,
      "componentType" : 5126,
      "count" : 40,
      "type" : "VEC2"
    }
  ]
}
