{
  "asset" : {
    "generator" : "UE Viewer (umodel) build 1544 based",
    "version" : "2.0"
  },
  "scene" : 0,
  "scenes" : [
    {
      "nodes" : [ 0 ]
    }
  ],
  "nodes" : [
    {
      "name" : "SM_ENV_KNVLLG03_Fence_Set_2",
      "mesh" : 0
    }
  ],
  "materials" : [
    {
      "name" : "MI_ENV_LKNVLD03_Fence_A",
      "pbrMetallicRoughness" : {
        "baseColorFactor" : [ 0.3, 0.3, 0.3, 1.0 ],
        "metallicFactor" : 0.1,
        "roughnessFactor" : 0.5
      }
    }
  ],
  "meshes" : [
    {
      "primitives" : [
        {
          "attributes" : {
            "POSITION" : 1,
            "NORMAL" : 2,
            "TANGENT" : 3,
            "TEXCOORD_0" : 4,
            "TEXCOORD_1" : 5,
            "TEXCOORD_2" : 6,
            "TEXCOORD_3" : 7
          },
          "indices" : 0,
          "material" : 0
        }
      ],
      "name" : "SM_ENV_KNVLLG03_Fence_Set_2"
    }
  ],
  "buffers" : [
    {
      "uri" : "SM_ENV_KNVLLG03_Fence_Set_2.bin",
      "byteLength" : 301872
    }
  ],
  "bufferViews" : [
    {
      "buffer" : 0,
      "byteOffset" : 0,
      "byteLength" : 28704
    },
    {
      "buffer" : 0,
      "byteOffset" : 28704,
      "byteLength" : 45528
    },
    {
      "buffer" : 0,
      "byteOffset" : 74232,
      "byteLength" : 45528
    },
    {
      "buffer" : 0,
      "byteOffset" : 119760,
      "byteLength" : 60704
    },
    {
      "buffer" : 0,
      "byteOffset" : 180464,
      "byteLength" : 30352
    },
    {
      "buffer" : 0,
      "byteOffset" : 210816,
      "byteLength" : 30352
    },
    {
      "buffer" : 0,
      "byteOffset" : 241168,
      "byteLength" : 30352
    },
    {
      "buffer" : 0,
      "byteOffset" : 271520,
      "byteLength" : 30352
    }
  ],
  "accessors" : [
    {
      "bufferView" : 0,
      "componentType" : 5123,
      "count" : 14352,
      "type" : "SCALAR"
    },
    {
      "bufferView" : 1,
      "min" : [ -68.2553, -0.26, -49.3109 ],
      "max" : [ -48.8146, 7.9921, 18.0806 ],
      "componentType" : 5126,
      "count" : 3794,
      "type" : "VEC3"
    },
    {
      "bufferView" : 2,
      "componentType" : 5126,
      "count" : 3794,
      "type" : "VEC3"
    },
    {
      "bufferView" : 3,
      "componentType" : 5126,
      "count" : 3794,
      "type" : "VEC4"
    },
    {
      "bufferView" : 4,
      "componentType" : 5126,
      "count" : 3794,
      "type" : "VEC2"
    },
    {
      "bufferView" : 5,
      "componentType" : 5126,
      "count" : 3794,
      "type" : "VEC2"
    },
    {
      "bufferView" : 6,
      "componentType" : 5126,
      "count" : 3794,
      "type" : "VEC2"
    },
    {
      "bufferView" : 7,
      "componentType" : 5126,
      "count" : 3794,
      "type" : "VEC2"
    }
  ]
}
