{
  "asset" : {
    "generator" : "UE Viewer (umodel) build 1544 based",
    "version" : "2.0"
  },
  "scene" : 0,
  "scenes" : [
    {
      "nodes" : [ 0 ]
    }
  ],
  "nodes" : [
    {
      "name" : "SM_ENV_KNVLLG03_Fence_Set_1",
      "mesh" : 0
    }
  ],
  "materials" : [
    {
      "name" : "MI_ENV_LKNVLD03_Fence_A",
      "pbrMetallicRoughness" : {
        "baseColorFactor" : [ 0.3, 0.3, 0.3, 1.0 ],
        "metallicFactor" : 0.1,
        "roughnessFactor" : 0.5
      }
    }
  ],
  "meshes" : [
    {
      "primitives" : [
        {
          "attributes" : {
            "POSITION" : 1,
            "NORMAL" : 2,
            "TANGENT" : 3,
            "TEXCOORD_0" : 4,
            "TEXCOORD_1" : 5,
            "TEXCOORD_2" : 6,
            "TEXCOORD_3" : 7
          },
          "indices" : 0,
          "material" : 0
        }
      ],
      "name" : "SM_ENV_KNVLLG03_Fence_Set_1"
    }
  ],
  "buffers" : [
    {
      "uri" : "SM_ENV_KNVLLG03_Fence_Set_1.bin",
      "byteLength" : 316080
    }
  ],
  "bufferViews" : [
    {
      "buffer" : 0,
      "byteOffset" : 0,
      "byteLength" : 29808
    },
    {
      "buffer" : 0,
      "byteOffset" : 29808,
      "byteLength" : 47712
    },
    {
      "buffer" : 0,
      "byteOffset" : 77520,
      "byteLength" : 47712
    },
    {
      "buffer" : 0,
      "byteOffset" : 125232,
      "byteLength" : 63616
    },
    {
      "buffer" : 0,
      "byteOffset" : 188848,
      "byteLength" : 31808
    },
    {
      "buffer" : 0,
      "byteOffset" : 220656,
      "byteLength" : 31808
    },
    {
      "buffer" : 0,
      "byteOffset" : 252464,
      "byteLength" : 31808
    },
    {
      "buffer" : 0,
      "byteOffset" : 284272,
      "byteLength" : 31808
    }
  ],
  "accessors" : [
    {
      "bufferView" : 0,
      "componentType" : 5123,
      "count" : 14904,
      "type" : "SCALAR"
    },
    {
      "bufferView" : 1,
      "min" : [ -29.0854, 0.02, 61.5791 ],
      "max" : [ 28.6254, 7.9221, 82.4106 ],
      "componentType" : 5126,
      "count" : 3976,
      "type" : "VEC3"
    },
    {
      "bufferView" : 2,
      "componentType" : 5126,
      "count" : 3976,
      "type" : "VEC3"
    },
    {
      "bufferView" : 3,
      "componentType" : 5126,
      "count" : 3976,
      "type" : "VEC4"
    },
    {
      "bufferView" : 4,
      "componentType" : 5126,
      "count" : 3976,
      "type" : "VEC2"
    },
    {
      "bufferView" : 5,
      "componentType" : 5126,
      "count" : 3976,
      "type" : "VEC2"
    },
    {
      "bufferView" : 6,
      "componentType" : 5126,
      "count" : 3976,
      "type" : "VEC2"
    },
    {
      "bufferView" : 7,
      "componentType" : 5126,
      "count" : 3976,
      "type" : "VEC2"
    }
  ]
}
