{
  "asset" : {
    "generator" : "UE Viewer (umodel) build 1544 based",
    "version" : "2.0"
  },
  "scene" : 0,
  "scenes" : [
    {
      "nodes" : [ 0 ]
    }
  ],
  "nodes" : [
    {
      "name" : "SM_ENV_KNVLLG03_Fence_Set_4",
      "mesh" : 0
    }
  ],
  "materials" : [
    {
      "name" : "MI_ENV_LKNVLD03_Fence_A",
      "pbrMetallicRoughness" : {
        "baseColorFactor" : [ 0.3, 0.3, 0.3, 1.0 ],
        "metallicFactor" : 0.1,
        "roughnessFactor" : 0.5
      }
    }
  ],
  "meshes" : [
    {
      "primitives" : [
        {
          "attributes" : {
            "POSITION" : 1,
            "NORMAL" : 2,
            "TANGENT" : 3,
            "TEXCOORD_0" : 4,
            "TEXCOORD_1" : 5,
            "TEXCOORD_2" : 6,
            "TEXCOORD_3" : 7
          },
          "indices" : 0,
          "material" : 0
        }
      ],
      "name" : "SM_ENV_KNVLLG03_Fence_Set_4"
    }
  ],
  "buffers" : [
    {
      "uri" : "SM_ENV_KNVLLG03_Fence_Set_4.bin",
      "byteLength" : 488328
    }
  ],
  "bufferViews" : [
    {
      "buffer" : 0,
      "byteOffset" : 0,
      "byteLength" : 45816
    },
    {
      "buffer" : 0,
      "byteOffset" : 45816,
      "byteLength" : 73752
    },
    {
      "buffer" : 0,
      "byteOffset" : 119568,
      "byteLength" : 73752
    },
    {
      "buffer" : 0,
      "byteOffset" : 193320,
      "byteLength" : 98336
    },
    {
      "buffer" : 0,
      "byteOffset" : 291656,
      "byteLength" : 49168
    },
    {
      "buffer" : 0,
      "byteOffset" : 340824,
      "byteLength" : 49168
    },
    {
      "buffer" : 0,
      "byteOffset" : 389992,
      "byteLength" : 49168
    },
    {
      "buffer" : 0,
      "byteOffset" : 439160,
      "byteLength" : 49168
    }
  ],
  "accessors" : [
    {
      "bufferView" : 0,
      "componentType" : 5123,
      "count" : 22908,
      "type" : "SCALAR"
    },
    {
      "bufferView" : 1,
      "min" : [ -70.1009, 5.92611, -85.4991 ],
      "max" : [ -32.1891, 8.02225, -83.6346 ],
      "componentType" : 5126,
      "count" : 6146,
      "type" : "VEC3"
    },
    {
      "bufferView" : 2,
      "componentType" : 5126,
      "count" : 6146,
      "type" : "VEC3"
    },
    {
      "bufferView" : 3,
      "componentType" : 5126,
      "count" : 6146,
      "type" : "VEC4"
    },
    {
      "bufferView" : 4,
      "componentType" : 5126,
      "count" : 6146,
      "type" : "VEC2"
    },
    {
      "bufferView" : 5,
      "componentType" : 5126,
      "count" : 6146,
      "type" : "VEC2"
    },
    {
      "bufferView" : 6,
      "componentType" : 5126,
      "count" : 6146,
      "type" : "VEC2"
    },
    {
      "bufferView" : 7,
      "componentType" : 5126,
      "count" : 6146,
      "type" : "VEC2"
    }
  ]
}
