{
  "asset" : {
    "generator" : "UE Viewer (umodel) build 1544 based",
    "version" : "2.0"
  },
  "scene" : 0,
  "scenes" : [
    {
      "nodes" : [ 0 ]
    }
  ],
  "nodes" : [
    {
      "name" : "SM_ENV_KNVLLG03_VideoScreen_A",
      "mesh" : 0
    }
  ],
  "materials" : [
    {
      "name" : "MI_ENV_KNVLLG_Pipe_Dark",
      "pbrMetallicRoughness" : {
        "baseColorFactor" : [ 0.3, 0.3, 0.3, 1.0 ],
        "metallicFactor" : 0.1,
        "roughnessFactor" : 0.5
      }
    },
    {
      "name" : "MI_ENV_KNVLLG_AnimatedScreen_01",
      "pbrMetallicRoughness" : {
        "baseColorFactor" : [ 0.9, 0.3, 0.3, 1.0 ],
        "metallicFactor" : 0.1,
        "roughnessFactor" : 0.5
      }
    }
  ],
  "meshes" : [
    {
      "primitives" : [
        {
          "attributes" : {
            "POSITION" : 1,
            "NORMAL" : 2,
            "TANGENT" : 3,
            "TEXCOORD_0" : 4,
            "TEXCOORD_1" : 5,
            "TEXCOORD_2" : 6,
            "TEXCOORD_3" : 7
          },
          "indices" : 0,
          "material" : 0
        },
        {
          "attributes" : {
            "POSITION" : 9,
            "NORMAL" : 10,
            "TANGENT" : 11,
            "TEXCOORD_0" : 12,
            "TEXCOORD_1" : 13,
            "TEXCOORD_2" : 14,
            "TEXCOORD_3" : 15
          },
          "indices" : 8,
          "material" : 1
        }
      ],
      "name" : "SM_ENV_KNVLLG03_VideoScreen_A"
    }
  ],
  "buffers" : [
    {
      "uri" : "SM_ENV_KNVLLG03_VideoScreen_A.bin",
      "byteLength" : 52056
    }
  ],
  "bufferViews" : [
    {
      "buffer" : 0,
      "byteOffset" : 0,
      "byteLength" : 2700
    },
    {
      "buffer" : 0,
      "byteOffset" : 2700,
      "byteLength" : 7968
    },
    {
      "buffer" : 0,
      "byteOffset" : 10668,
      "byteLength" : 7968
    },
    {
      "buffer" : 0,
      "byteOffset" : 18636,
      "byteLength" : 10624
    },
    {
      "buffer" : 0,
      "byteOffset" : 29260,
      "byteLength" : 5312
    },
    {
      "buffer" : 0,
      "byteOffset" : 34572,
      "byteLength" : 5312
    },
    {
      "buffer" : 0,
      "byteOffset" : 39884,
      "byteLength" : 5312
    },
    {
      "buffer" : 0,
      "byteOffset" : 45196,
      "byteLength" : 5312
    },
    {
      "buffer" : 0,
      "byteOffset" : 50508,
      "byteLength" : 108
    },
    {
      "buffer" : 0,
      "byteOffset" : 50616,
      "byteLength" : 240
    },
    {
      "buffer" : 0,
      "byteOffset" : 50856,
      "byteLength" : 240
    },
    {
      "buffer" : 0,
      "byteOffset" : 51096,
      "byteLength" : 320
    },
    {
      "buffer" : 0,
      "byteOffset" : 51416,
      "byteLength" : 160
    },
    {
      "buffer" : 0,
      "byteOffset" : 51576,
      "byteLength" : 160
    },
    {
      "buffer" : 0,
      "byteOffset" : 51736,
      "byteLength" : 160
    },
    {
      "buffer" : 0,
      "byteOffset" : 51896,
      "byteLength" : 160
    }
  ],
  "accessors" : [
    {
      "bufferView" : 0,
      "componentType" : 5123,
      "count" : 1350,
      "type" : "SCALAR"
    },
    {
      "bufferView" : 1,
      "min" : [ -26.8844, 13.0939, 31.7631 ],
      "max" : [ -21.9168, 21.5795, 46.8877 ],
      "componentType" : 5126,
      "count" : 664,
      "type" : "VEC3"
    },
    {
      "bufferView" : 2,
      "componentType" : 5126,
      "count" : 664,
      "type" : "VEC3"
    },
    {
      "bufferView" : 3,
      "componentType" : 5126,
      "count" : 664,
      "type" : "VEC4"
    },
    {
      "bufferView" : 4,
      "componentType" : 5126,
      "count" : 664,
      "type" : "VEC2"
    },
    {
      "bufferView" : 5,
      "componentType" : 5126,
      "count" : 664,
      "type" : "VEC2"
    },
    {
      "bufferView" : 6,
      "componentType" : 5126,
      "count" : 664,
      "type" : "VEC2"
    },
    {
      "bufferView" : 7,
      "componentType" : 5126,
      "count" : 664,
      "type" : "VEC2"
    },
    {
      "bufferView" : 8,
      "componentType" : 5123,
      "count" : 54,
      "type" : "SCALAR"
    },
    {
      "bufferView" : 9,
      "min" : [ -26.0203, 13.5828, 32.1157 ],
      "max" : [ -22.0514, 21.0907, 46.5975 ],
      "componentType" : 5126,
      "count" : 20,
      "type" : "VEC3"
    },
    {
      "bufferView" : 10,
      "componentType" : 5126,
      "count" : 20,
      "type" : "VEC3"
    },
    {
      "bufferView" : 11,
      "componentType" : 5126,
      "count" : 20,
      "type" : "VEC4"
    },
    {
      "bufferView" : 12,
      "componentType" : 5126,
      "count" : 20,
      "type" : "VEC2"
    },
    {
      "bufferView" : 13,
      "componentType" : 5126,
      "count" : 20,
      "type" : "VEC2"
    },
    {
      "bufferView" : 14,
      "componentType" : 5126,
      "count" : 20,
      "type" : "VEC2"
    },
    {
      "bufferView" : 15,
      "componentType" : 5126,
      "count" : 20,
      "type" : "VEC2"
    }
  ]
}
