{
  "asset" : {
    "generator" : "UE Viewer (umodel) build 1544 based",
    "version" : "2.0"
  },
  "scene" : 0,
  "scenes" : [
    {
      "nodes" : [ 0 ]
    }
  ],
  "nodes" : [
    {
      "name" : "COL_SM_ENV_KNVLLG_areaA",
      "mesh" : 0
    }
  ],
  "materials" : [
    {
      "name" : "MI_Metal",
      "pbrMetallicRoughness" : {
        "baseColorFactor" : [ 0.3, 0.3, 0.3, 1.0 ],
        "metallicFactor" : 0.1,
        "roughnessFactor" : 0.5
      }
    },
    {
      "name" : "MI_Concrete",
      "pbrMetallicRoughness" : {
        "baseColorFactor" : [ 0.9, 0.3, 0.3, 1.0 ],
        "metallicFactor" : 0.1,
        "roughnessFactor" : 0.5
      }
    },
    {
      "name" : "MI_Rock",
      "pbrMetallicRoughness" : {
        "baseColorFactor" : [ 0.3, 0.9, 0.3, 1.0 ],
        "metallicFactor" : 0.1,
        "roughnessFactor" : 0.5
      }
    },
    {
      "name" : "MI_Wood",
      "pbrMetallicRoughness" : {
        "baseColorFactor" : [ 0.3, 0.3, 0.9, 1.0 ],
        "metallicFactor" : 0.1,
        "roughnessFactor" : 0.5
      }
    }
  ],
  "meshes" : [
    {
      "primitives" : [
        {
          "attributes" : {
            "POSITION" : 1,
            "NORMAL" : 2,
            "TANGENT" : 3,
            "TEXCOORD_0" : 4,
            "TEXCOORD_1" : 5,
            "TEXCOORD_2" : 6,
            "TEXCOORD_3" : 7,
            "TEXCOORD_4" : 8
          },
          "indices" : 0,
          "material" : 0
        },
        {
          "attributes" : {
            "POSITION" : 10,
            "NORMAL" : 11,
            "TANGENT" : 12,
            "TEXCOORD_0" : 13,
            "TEXCOORD_1" : 14,
            "TEXCOORD_2" : 15,
            "TEXCOORD_3" : 16,
            "TEXCOORD_4" : 17
          },
          "indices" : 9,
          "material" : 1
        },
        {
          "attributes" : {
            "POSITION" : 19,
            "NORMAL" : 20,
            "TANGENT" : 21,
            "TEXCOORD_0" : 22,
            "TEXCOORD_1" : 23,
            "TEXCOORD_2" : 24,
            "TEXCOORD_3" : 25,
            "TEXCOORD_4" : 26
          },
          "indices" : 18,
          "material" : 2
        },
        {
          "attributes" : {
            "POSITION" : 28,
            "NORMAL" : 29,
            "TANGENT" : 30,
            "TEXCOORD_0" : 31,
            "TEXCOORD_1" : 32,
            "TEXCOORD_2" : 33,
            "TEXCOORD_3" : 34,
            "TEXCOORD_4" : 35
          },
          "indices" : 27,
          "material" : 3
        }
      ],
      "name" : "COL_SM_ENV_KNVLLG_areaA"
    }
  ],
  "buffers" : [
    {
      "uri" : "COL_SM_ENV_KNVLLG_areaA.bin",
      "byteLength" : 921236
    }
  ],
  "bufferViews" : [
    {
      "buffer" : 0,
      "byteOffset" : 0,
      "byteLength" : 2040
    },
    {
      "buffer" : 0,
      "byteOffset" : 2040,
      "byteLength" : 9144
    },
    {
      "buffer" : 0,
      "byteOffset" : 11184,
      "byteLength" : 9144
    },
    {
      "buffer" : 0,
      "byteOffset" : 20328,
      "byteLength" : 12192
    },
    {
      "buffer" : 0,
      "byteOffset" : 32520,
      "byteLength" : 6096
    },
    {
      "buffer" : 0,
      "byteOffset" : 38616,
      "byteLength" : 6096
    },
    {
      "buffer" : 0,
      "byteOffset" : 44712,
      "byteLength" : 6096
    },
    {
      "buffer" : 0,
      "byteOffset" : 50808,
      "byteLength" : 6096
    },
    {
      "buffer" : 0,
      "byteOffset" : 56904,
      "byteLength" : 6096
    },
    {
      "buffer" : 0,
      "byteOffset" : 63000,
      "byteLength" : 1860
    },
    {
      "buffer" : 0,
      "byteOffset" : 64860,
      "byteLength" : 8472
    },
    {
      "buffer" : 0,
      "byteOffset" : 73332,
      "byteLength" : 8472
    },
    {
      "buffer" : 0,
      "byteOffset" : 81804,
      "byteLength" : 11296
    },
    {
      "buffer" : 0,
      "byteOffset" : 93100,
      "byteLength" : 5648
    },
    {
      "buffer" : 0,
      "byteOffset" : 98748,
      "byteLength" : 5648
    },
    {
      "buffer" : 0,
      "byteOffset" : 104396,
      "byteLength" : 5648
    },
    {
      "buffer" : 0,
      "byteOffset" : 110044,
      "byteLength" : 5648
    },
    {
      "buffer" : 0,
      "byteOffset" : 115692,
      "byteLength" : 5648
    },
    {
      "buffer" : 0,
      "byteOffset" : 121340,
      "byteLength" : 13860
    },
    {
      "buffer" : 0,
      "byteOffset" : 135200,
      "byteLength" : 52248
    },
    {
      "buffer" : 0,
      "byteOffset" : 187448,
      "byteLength" : 52248
    },
    {
      "buffer" : 0,
      "byteOffset" : 239696,
      "byteLength" : 69664
    },
    {
      "buffer" : 0,
      "byteOffset" : 309360,
      "byteLength" : 34832
    },
    {
      "buffer" : 0,
      "byteOffset" : 344192,
      "byteLength" : 34832
    },
    {
      "buffer" : 0,
      "byteOffset" : 379024,
      "byteLength" : 34832
    },
    {
      "buffer" : 0,
      "byteOffset" : 413856,
      "byteLength" : 34832
    },
    {
      "buffer" : 0,
      "byteOffset" : 448688,
      "byteLength" : 34832
    },
    {
      "buffer" : 0,
      "byteOffset" : 483520,
      "byteLength" : 14436
    },
    {
      "buffer" : 0,
      "byteOffset" : 497956,
      "byteLength" : 63492
    },
    {
      "buffer" : 0,
      "byteOffset" : 561448,
      "byteLength" : 63492
    },
    {
      "buffer" : 0,
      "byteOffset" : 624940,
      "byteLength" : 84656
    },
    {
      "buffer" : 0,
      "byteOffset" : 709596,
      "byteLength" : 42328
    },
    {
      "buffer" : 0,
      "byteOffset" : 751924,
      "byteLength" : 42328
    },
    {
      "buffer" : 0,
      "byteOffset" : 794252,
      "byteLength" : 42328
    },
    {
      "buffer" : 0,
      "byteOffset" : 836580,
      "byteLength" : 42328
    },
    {
      "buffer" : 0,
      "byteOffset" : 878908,
      "byteLength" : 42328
    }
  ],
  "accessors" : [
    {
      "bufferView" : 0,
      "componentType" : 5123,
      "count" : 1020,
      "type" : "SCALAR"
    },
    {
      "bufferView" : 1,
      "min" : [ -117.362, 31.8112, -83.5645 ],
      "max" : [ -91.5717, 61.0691, -3.10434 ],
      "componentType" : 5126,
      "count" : 762,
      "type" : "VEC3"
    },
    {
      "bufferView" : 2,
      "componentType" : 5126,
      "count" : 762,
      "type" : "VEC3"
    },
    {
      "bufferView" : 3,
      "componentType" : 5126,
      "count" : 762,
      "type" : "VEC4"
    },
    {
      "bufferView" : 4,
      "componentType" : 5126,
      "count" : 762,
      "type" : "VEC2"
    },
    {
      "bufferView" : 5,
      "componentType" : 5126,
      "count" : 762,
      "type" : "VEC2"
    },
    {
      "bufferView" : 6,
      "componentType" : 5126,
      "count" : 762,
      "type" : "VEC2"
    },
    {
      "bufferView" : 7,
      "componentType" : 5126,
      "count" : 762,
      "type" : "VEC2"
    },
    {
      "bufferView" : 8,
      "componentType" : 5126,
      "count" : 762,
      "type" : "VEC2"
    },
    {
      "bufferView" : 9,
      "componentType" : 5123,
      "count" : 930,
      "type" : "SCALAR"
    },
    {
      "bufferView" : 10,
      "min" : [ -118.96, 29.9924, -94.8784 ],
      "max" : [ -93.02, 66.1195, -2.37607 ],
      "componentType" : 5126,
      "count" : 706,
      "type" : "VEC3"
    },
    {
      "bufferView" : 11,
      "componentType" : 5126,
      "count" : 706,
      "type" : "VEC3"
    },
    {
      "bufferView" : 12,
      "componentType" : 5126,
      "count" : 706,
      "type" : "VEC4"
    },
    {
      "bufferView" : 13,
      "componentType" : 5126,
      "count" : 706,
      "type" : "VEC2"
    },
    {
      "bufferView" : 14,
      "componentType" : 5126,
      "count" : 706,
      "type" : "VEC2"
    },
    {
      "bufferView" : 15,
      "componentType" : 5126,
      "count" : 706,
      "type" : "VEC2"
    },
    {
      "bufferView" : 16,
      "componentType" : 5126,
      "count" : 706,
      "type" : "VEC2"
    },
    {
      "bufferView" : 17,
      "componentType" : 5126,
      "count" : 706,
      "type" : "VEC2"
    },
    {
      "bufferView" : 18,
      "componentType" : 5123,
      "count" : 6930,
      "type" : "SCALAR"
    },
    {
      "bufferView" : 19,
      "min" : [ -117.201, 23.4101, -91.0015 ],
      "max" : [ -59.2395, 51, -2.76034 ],
      "componentType" : 5126,
      "count" : 4354,
      "type" : "VEC3"
    },
    {
      "bufferView" : 20,
      "componentType" : 5126,
      "count" : 4354,
      "type" : "VEC3"
    },
    {
      "bufferView" : 21,
      "componentType" : 5126,
      "count" : 4354,
      "type" : "VEC4"
    },
    {
      "bufferView" : 22,
      "componentType" : 5126,
      "count" : 4354,
      "type" : "VEC2"
    },
    {
      "bufferView" : 23,
      "componentType" : 5126,
      "count" : 4354,
      "type" : "VEC2"
    },
    {
      "bufferView" : 24,
      "componentType" : 5126,
      "count" : 4354,
      "type" : "VEC2"
    },
    {
      "bufferView" : 25,
      "componentType" : 5126,
      "count" : 4354,
      "type" : "VEC2"
    },
    {
      "bufferView" : 26,
      "componentType" : 5126,
      "count" : 4354,
      "type" : "VEC2"
    },
    {
      "bufferView" : 27,
      "componentType" : 5123,
      "count" : 7218,
      "type" : "SCALAR"
    },
    {
      "bufferView" : 28,
      "min" : [ -119.716, 22.7626, -95.7159 ],
      "max" : [ -60.6023, 67.6632, -1.47307 ],
      "componentType" : 5126,
      "count" : 5291,
      "type" : "VEC3"
    },
    {
      "bufferView" : 29,
      "componentType" : 5126,
      "count" : 5291,
      "type" : "VEC3"
    },
    {
      "bufferView" : 30,
      "componentType" : 5126,
      "count" : 5291,
      "type" : "VEC4"
    },
    {
      "bufferView" : 31,
      "componentType" : 5126,
      "count" : 5291,
      "type" : "VEC2"
    },
    {
      "bufferView" : 32,
      "componentType" : 5126,
      "count" : 5291,
      "type" : "VEC2"
    },
    {
      "bufferView" : 33,
      "componentType" : 5126,
      "count" : 5291,
      "type" : "VEC2"
    },
    {
      "bufferView" : 34,
      "componentType" : 5126,
      "count" : 5291,
      "type" : "VEC2"
    },
    {
      "bufferView" : 35,
      "componentType" : 5126,
      "count" : 5291,
      "type" : "VEC2"
    }
  ]
}
