{
  "asset" : {
    "generator" : "UE Viewer (umodel) build 1544 based",
    "version" : "2.0"
  },
  "scene" : 0,
  "scenes" : [
    {
      "nodes" : [ 0 ]
    }
  ],
  "nodes" : [
    {
      "name" : "SM_ENV_KNVLLG03_AreaB_BuildingBb",
      "mesh" : 0
    }
  ],
  "materials" : [
    {
      "name" : "MI_ENV_LKNVLD_Eaves_E",
      "pbrMetallicRoughness" : {
        "baseColorFactor" : [ 0.3, 0.3, 0.3, 1.0 ],
        "metallicFactor" : 0.1,
        "roughnessFactor" : 0.5
      }
    },
    {
      "name" : "MI_ENV_LKNVLD_RoofTiles_Green",
      "pbrMetallicRoughness" : {
        "baseColorFactor" : [ 0.9, 0.3, 0.3, 1.0 ],
        "metallicFactor" : 0.1,
        "roughnessFactor" : 0.5
      }
    },
    {
      "name" : "MI_ENV_LKNVLD_Aircon_E",
      "pbrMetallicRoughness" : {
        "baseColorFactor" : [ 0.3, 0.9, 0.3, 1.0 ],
        "metallicFactor" : 0.1,
        "roughnessFactor" : 0.5
      }
    },
    {
      "name" : "MI_ENV_LKNVLD_WoodWindows_D",
      "pbrMetallicRoughness" : {
        "baseColorFactor" : [ 0.3, 0.3, 0.9, 1.0 ],
        "metallicFactor" : 0.1,
        "roughnessFactor" : 0.5
      }
    },
    {
      "name" : "MI_ENV_LKNVLD_WoodPlain_Beige",
      "pbrMetallicRoughness" : {
        "baseColorFactor" : [ 0.9, 0.9, 0.9, 1.0 ],
        "metallicFactor" : 0.1,
        "roughnessFactor" : 0.5
      }
    },
    {
      "name" : "MI_ENV_LKNVLD_BambooWall",
      "pbrMetallicRoughness" : {
        "baseColorFactor" : [ 0.9, 0.9, 0.3, 1.0 ],
        "metallicFactor" : 0.1,
        "roughnessFactor" : 0.5
      }
    },
    {
      "name" : "MI_ENV_LKNVLD_Aircon_H",
      "pbrMetallicRoughness" : {
        "baseColorFactor" : [ 0.9, 0.3, 0.9, 1.0 ],
        "metallicFactor" : 0.1,
        "roughnessFactor" : 0.5
      }
    },
    {
      "name" : "MI_ENV_LKNVLD_MetalRoof_Green",
      "pbrMetallicRoughness" : {
        "baseColorFactor" : [ 0.3, 0.9, 0.9, 1.0 ],
        "metallicFactor" : 0.1,
        "roughnessFactor" : 0.5
      }
    },
    {
      "name" : "MI_ENV_LKNVLD_Curtain_F",
      "pbrMetallicRoughness" : {
        "baseColorFactor" : [ 1, 0.3, 0.3, 1.0 ],
        "metallicFactor" : 0.1,
        "roughnessFactor" : 0.5
      }
    },
    {
      "name" : "MI_ENV_LKNVLD_WoodPlain_Brown",
      "pbrMetallicRoughness" : {
        "baseColorFactor" : [ 0.6, 0.3, 0.3, 1.0 ],
        "metallicFactor" : 0.1,
        "roughnessFactor" : 0.5
      }
    },
    {
      "name" : "MI_ENV_LKNVLD_ClanSignboard_I",
      "pbrMetallicRoughness" : {
        "baseColorFactor" : [ 1, 0.9, 0.3, 1.0 ],
        "metallicFactor" : 0.1,
        "roughnessFactor" : 0.5
      }
    },
    {
      "name" : "MI_ENV_LKNVLD_Plaster_White",
      "pbrMetallicRoughness" : {
        "baseColorFactor" : [ 1, 0.3, 0.9, 1.0 ],
        "metallicFactor" : 0.1,
        "roughnessFactor" : 0.5
      }
    },
    {
      "name" : "MI_ENV_LKNVLD_WoodWindows_C",
      "pbrMetallicRoughness" : {
        "baseColorFactor" : [ 0.6, 0.9, 0.9, 1.0 ],
        "metallicFactor" : 0.1,
        "roughnessFactor" : 0.5
      }
    },
    {
      "name" : "MI_ENV_LKNVLD_MetalRoofDark",
      "pbrMetallicRoughness" : {
        "baseColorFactor" : [ 0.6, 0.9, 0.3, 1.0 ],
        "metallicFactor" : 0.1,
        "roughnessFactor" : 0.5
      }
    },
    {
      "name" : "MI_T_ENV_LKNVLD_StoneStairs",
      "pbrMetallicRoughness" : {
        "baseColorFactor" : [ 0.6, 0.3, 0.9, 1.0 ],
        "metallicFactor" : 0.1,
        "roughnessFactor" : 0.5
      }
    },
    {
      "name" : "MI_T_ENV_LKNVLD_StoneTrim",
      "pbrMetallicRoughness" : {
        "baseColorFactor" : [ 1, 0.9, 0.9, 1.0 ],
        "metallicFactor" : 0.1,
        "roughnessFactor" : 0.5
      }
    },
    {
      "name" : "MI_ENV_LKNVLD_ClanSignboard_H",
      "pbrMetallicRoughness" : {
        "baseColorFactor" : [ 0.3, 1, 0.3, 1.0 ],
        "metallicFactor" : 0.1,
        "roughnessFactor" : 0.5
      }
    },
    {
      "name" : "MI_ENV_LKNVLD_Pipe_A",
      "pbrMetallicRoughness" : {
        "baseColorFactor" : [ 0.9, 1, 0.3, 1.0 ],
        "metallicFactor" : 0.1,
        "roughnessFactor" : 0.5
      }
    }
  ],
  "meshes" : [
    {
      "primitives" : [
        {
          "attributes" : {
            "POSITION" : 1,
            "NORMAL" : 2,
            "TANGENT" : 3,
            "COLOR_0" : 4,
            "TEXCOORD_0" : 5,
            "TEXCOORD_1" : 6,
            "TEXCOORD_2" : 7,
            "TEXCOORD_3" : 8
          },
          "indices" : 0,
          "material" : 0
        },
        {
          "attributes" : {
            "POSITION" : 10,
            "NORMAL" : 11,
            "TANGENT" : 12,
            "COLOR_0" : 13,
            "TEXCOORD_0" : 14,
            "TEXCOORD_1" : 15,
            "TEXCOORD_2" : 16,
            "TEXCOORD_3" : 17
          },
          "indices" : 9,
          "material" : 1
        },
        {
          "attributes" : {
            "POSITION" : 19,
            "NORMAL" : 20,
            "TANGENT" : 21,
            "COLOR_0" : 22,
            "TEXCOORD_0" : 23,
            "TEXCOORD_1" : 24,
            "TEXCOORD_2" : 25,
            "TEXCOORD_3" : 26
          },
          "indices" : 18,
          "material" : 2
        },
        {
          "attributes" : {
            "POSITION" : 28,
            "NORMAL" : 29,
            "TANGENT" : 30,
            "COLOR_0" : 31,
            "TEXCOORD_0" : 32,
            "TEXCOORD_1" : 33,
            "TEXCOORD_2" : 34,
            "TEXCOORD_3" : 35
          },
          "indices" : 27,
          "material" : 3
        },
        {
          "attributes" : {
            "POSITION" : 37,
            "NORMAL" : 38,
            "TANGENT" : 39,
            "COLOR_0" : 40,
            "TEXCOORD_0" : 41,
            "TEXCOORD_1" : 42,
            "TEXCOORD_2" : 43,
            "TEXCOORD_3" : 44
          },
          "indices" : 36,
          "material" : 4
        },
        {
          "attributes" : {
            "POSITION" : 46,
            "NORMAL" : 47,
            "TANGENT" : 48,
            "COLOR_0" : 49,
            "TEXCOORD_0" : 50,
            "TEXCOORD_1" : 51,
            "TEXCOORD_2" : 52,
            "TEXCOORD_3" : 53
          },
          "indices" : 45,
          "material" : 5
        },
        {
          "attributes" : {
            "POSITION" : 55,
            "NORMAL" : 56,
            "TANGENT" : 57,
            "COLOR_0" : 58,
            "TEXCOORD_0" : 59,
            "TEXCOORD_1" : 60,
            "TEXCOORD_2" : 61,
            "TEXCOORD_3" : 62
          },
          "indices" : 54,
          "material" : 6
        },
        {
          "attributes" : {
            "POSITION" : 64,
            "NORMAL" : 65,
            "TANGENT" : 66,
            "COLOR_0" : 67,
            "TEXCOORD_0" : 68,
            "TEXCOORD_1" : 69,
            "TEXCOORD_2" : 70,
            "TEXCOORD_3" : 71
          },
          "indices" : 63,
          "material" : 7
        },
        {
          "attributes" : {
            "POSITION" : 73,
            "NORMAL" : 74,
            "TANGENT" : 75,
            "COLOR_0" : 76,
            "TEXCOORD_0" : 77,
            "TEXCOORD_1" : 78,
            "TEXCOORD_2" : 79,
            "TEXCOORD_3" : 80
          },
          "indices" : 72,
          "material" : 8
        },
        {
          "attributes" : {
            "POSITION" : 82,
            "NORMAL" : 83,
            "TANGENT" : 84,
            "COLOR_0" : 85,
            "TEXCOORD_0" : 86,
            "TEXCOORD_1" : 87,
            "TEXCOORD_2" : 88,
            "TEXCOORD_3" : 89
          },
          "indices" : 81,
          "material" : 9
        },
        {
          "attributes" : {
            "POSITION" : 91,
            "NORMAL" : 92,
            "TANGENT" : 93,
            "COLOR_0" : 94,
            "TEXCOORD_0" : 95,
            "TEXCOORD_1" : 96,
            "TEXCOORD_2" : 97,
            "TEXCOORD_3" : 98
          },
          "indices" : 90,
          "material" : 10
        },
        {
          "attributes" : {
            "POSITION" : 100,
            "NORMAL" : 101,
            "TANGENT" : 102,
            "COLOR_0" : 103,
            "TEXCOORD_0" : 104,
            "TEXCOORD_1" : 105,
            "TEXCOORD_2" : 106,
            "TEXCOORD_3" : 107
          },
          "indices" : 99,
          "material" : 11
        },
        {
          "attributes" : {
            "POSITION" : 109,
            "NORMAL" : 110,
            "TANGENT" : 111,
            "COLOR_0" : 112,
            "TEXCOORD_0" : 113,
            "TEXCOORD_1" : 114,
            "TEXCOORD_2" : 115,
            "TEXCOORD_3" : 116
          },
          "indices" : 108,
          "material" : 12
        },
        {
          "attributes" : {
            "POSITION" : 118,
            "NORMAL" : 119,
            "TANGENT" : 120,
            "COLOR_0" : 121,
            "TEXCOORD_0" : 122,
            "TEXCOORD_1" : 123,
            "TEXCOORD_2" : 124,
            "TEXCOORD_3" : 125
          },
          "indices" : 117,
          "material" : 13
        },
        {
          "attributes" : {
            "POSITION" : 127,
            "NORMAL" : 128,
            "TANGENT" : 129,
            "COLOR_0" : 130,
            "TEXCOORD_0" : 131,
            "TEXCOORD_1" : 132,
            "TEXCOORD_2" : 133,
            "TEXCOORD_3" : 134
          },
          "indices" : 126,
          "material" : 14
        },
        {
          "attributes" : {
            "POSITION" : 136,
            "NORMAL" : 137,
            "TANGENT" : 138,
            "COLOR_0" : 139,
            "TEXCOORD_0" : 140,
            "TEXCOORD_1" : 141,
            "TEXCOORD_2" : 142,
            "TEXCOORD_3" : 143
          },
          "indices" : 135,
          "material" : 15
        },
        {
          "attributes" : {
            "POSITION" : 145,
            "NORMAL" : 146,
            "TANGENT" : 147,
            "COLOR_0" : 148,
            "TEXCOORD_0" : 149,
            "TEXCOORD_1" : 150,
            "TEXCOORD_2" : 151,
            "TEXCOORD_3" : 152
          },
          "indices" : 144,
          "material" : 16
        },
        {
          "attributes" : {
            "POSITION" : 154,
            "NORMAL" : 155,
            "TANGENT" : 156,
            "COLOR_0" : 157,
            "TEXCOORD_0" : 158,
            "TEXCOORD_1" : 159,
            "TEXCOORD_2" : 160,
            "TEXCOORD_3" : 161
          },
          "indices" : 153,
          "material" : 17
        }
      ],
      "name" : "SM_ENV_KNVLLG03_AreaB_BuildingBb"
    }
  ],
  "buffers" : [
    {
      "uri" : "SM_ENV_KNVLLG03_AreaB_BuildingBb.bin",
      "byteLength" : 742148
    }
  ],
  "bufferViews" : [
    {
      "buffer" : 0,
      "byteOffset" : 0,
      "byteLength" : 4188
    },
    {
      "buffer" : 0,
      "byteOffset" : 4188,
      "byteLength" : 11136
    },
    {
      "buffer" : 0,
      "byteOffset" : 15324,
      "byteLength" : 11136
    },
    {
      "buffer" : 0,
      "byteOffset" : 26460,
      "byteLength" : 14848
    },
    {
      "buffer" : 0,
      "byteOffset" : 41308,
      "byteLength" : 3712
    },
    {
      "buffer" : 0,
      "byteOffset" : 45020,
      "byteLength" : 7424
    },
    {
      "buffer" : 0,
      "byteOffset" : 52444,
      "byteLength" : 7424
    },
    {
      "buffer" : 0,
      "byteOffset" : 59868,
      "byteLength" : 7424
    },
    {
      "buffer" : 0,
      "byteOffset" : 67292,
      "byteLength" : 7424
    },
    {
      "buffer" : 0,
      "byteOffset" : 74716,
      "byteLength" : 9612
    },
    {
      "buffer" : 0,
      "byteOffset" : 84328,
      "byteLength" : 15984
    },
    {
      "buffer" : 0,
      "byteOffset" : 100312,
      "byteLength" : 15984
    },
    {
      "buffer" : 0,
      "byteOffset" : 116296,
      "byteLength" : 21312
    },
    {
      "buffer" : 0,
      "byteOffset" : 137608,
      "byteLength" : 5328
    },
    {
      "buffer" : 0,
      "byteOffset" : 142936,
      "byteLength" : 10656
    },
    {
      "buffer" : 0,
      "byteOffset" : 153592,
      "byteLength" : 10656
    },
    {
      "buffer" : 0,
      "byteOffset" : 164248,
      "byteLength" : 10656
    },
    {
      "buffer" : 0,
      "byteOffset" : 174904,
      "byteLength" : 10656
    },
    {
      "buffer" : 0,
      "byteOffset" : 185560,
      "byteLength" : 7656
    },
    {
      "buffer" : 0,
      "byteOffset" : 193216,
      "byteLength" : 10320
    },
    {
      "buffer" : 0,
      "byteOffset" : 203536,
      "byteLength" : 10320
    },
    {
      "buffer" : 0,
      "byteOffset" : 213856,
      "byteLength" : 13760
    },
    {
      "buffer" : 0,
      "byteOffset" : 227616,
      "byteLength" : 3440
    },
    {
      "buffer" : 0,
      "byteOffset" : 231056,
      "byteLength" : 6880
    },
    {
      "buffer" : 0,
      "byteOffset" : 237936,
      "byteLength" : 6880
    },
    {
      "buffer" : 0,
      "byteOffset" : 244816,
      "byteLength" : 6880
    },
    {
      "buffer" : 0,
      "byteOffset" : 251696,
      "byteLength" : 6880
    },
    {
      "buffer" : 0,
      "byteOffset" : 258576,
      "byteLength" : 48
    },
    {
      "buffer" : 0,
      "byteOffset" : 258624,
      "byteLength" : 192
    },
    {
      "buffer" : 0,
      "byteOffset" : 258816,
      "byteLength" : 192
    },
    {
      "buffer" : 0,
      "byteOffset" : 259008,
      "byteLength" : 256
    },
    {
      "buffer" : 0,
      "byteOffset" : 259264,
      "byteLength" : 64
    },
    {
      "buffer" : 0,
      "byteOffset" : 259328,
      "byteLength" : 128
    },
    {
      "buffer" : 0,
      "byteOffset" : 259456,
      "byteLength" : 128
    },
    {
      "buffer" : 0,
      "byteOffset" : 259584,
      "byteLength" : 128
    },
    {
      "buffer" : 0,
      "byteOffset" : 259712,
      "byteLength" : 128
    },
    {
      "buffer" : 0,
      "byteOffset" : 259840,
      "byteLength" : 1176
    },
    {
      "buffer" : 0,
      "byteOffset" : 261016,
      "byteLength" : 2976
    },
    {
      "buffer" : 0,
      "byteOffset" : 263992,
      "byteLength" : 2976
    },
    {
      "buffer" : 0,
      "byteOffset" : 266968,
      "byteLength" : 3968
    },
    {
      "buffer" : 0,
      "byteOffset" : 270936,
      "byteLength" : 992
    },
    {
      "buffer" : 0,
      "byteOffset" : 271928,
      "byteLength" : 1984
    },
    {
      "buffer" : 0,
      "byteOffset" : 273912,
      "byteLength" : 1984
    },
    {
      "buffer" : 0,
      "byteOffset" : 275896,
      "byteLength" : 1984
    },
    {
      "buffer" : 0,
      "byteOffset" : 277880,
      "byteLength" : 1984
    },
    {
      "buffer" : 0,
      "byteOffset" : 279864,
      "byteLength" : 9588
    },
    {
      "buffer" : 0,
      "byteOffset" : 289452,
      "byteLength" : 11376
    },
    {
      "buffer" : 0,
      "byteOffset" : 300828,
      "byteLength" : 11376
    },
    {
      "buffer" : 0,
      "byteOffset" : 312204,
      "byteLength" : 15168
    },
    {
      "buffer" : 0,
      "byteOffset" : 327372,
      "byteLength" : 3792
    },
    {
      "buffer" : 0,
      "byteOffset" : 331164,
      "byteLength" : 7584
    },
    {
      "buffer" : 0,
      "byteOffset" : 338748,
      "byteLength" : 7584
    },
    {
      "buffer" : 0,
      "byteOffset" : 346332,
      "byteLength" : 7584
    },
    {
      "buffer" : 0,
      "byteOffset" : 353916,
      "byteLength" : 7584
    },
    {
      "buffer" : 0,
      "byteOffset" : 361500,
      "byteLength" : 288
    },
    {
      "buffer" : 0,
      "byteOffset" : 361788,
      "byteLength" : 768
    },
    {
      "buffer" : 0,
      "byteOffset" : 362556,
      "byteLength" : 768
    },
    {
      "buffer" : 0,
      "byteOffset" : 363324,
      "byteLength" : 1024
    },
    {
      "buffer" : 0,
      "byteOffset" : 364348,
      "byteLength" : 256
    },
    {
      "buffer" : 0,
      "byteOffset" : 364604,
      "byteLength" : 512
    },
    {
      "buffer" : 0,
      "byteOffset" : 365116,
      "byteLength" : 512
    },
    {
      "buffer" : 0,
      "byteOffset" : 365628,
      "byteLength" : 512
    },
    {
      "buffer" : 0,
      "byteOffset" : 366140,
      "byteLength" : 512
    },
    {
      "buffer" : 0,
      "byteOffset" : 366652,
      "byteLength" : 2340
    },
    {
      "buffer" : 0,
      "byteOffset" : 368992,
      "byteLength" : 5208
    },
    {
      "buffer" : 0,
      "byteOffset" : 374200,
      "byteLength" : 5208
    },
    {
      "buffer" : 0,
      "byteOffset" : 379408,
      "byteLength" : 6944
    },
    {
      "buffer" : 0,
      "byteOffset" : 386352,
      "byteLength" : 1736
    },
    {
      "buffer" : 0,
      "byteOffset" : 388088,
      "byteLength" : 3472
    },
    {
      "buffer" : 0,
      "byteOffset" : 391560,
      "byteLength" : 3472
    },
    {
      "buffer" : 0,
      "byteOffset" : 395032,
      "byteLength" : 3472
    },
    {
      "buffer" : 0,
      "byteOffset" : 398504,
      "byteLength" : 3472
    },
    {
      "buffer" : 0,
      "byteOffset" : 401976,
      "byteLength" : 956
    },
    {
      "buffer" : 0,
      "byteOffset" : 402932,
      "byteLength" : 1656
    },
    {
      "buffer" : 0,
      "byteOffset" : 404588,
      "byteLength" : 1656
    },
    {
      "buffer" : 0,
      "byteOffset" : 406244,
      "byteLength" : 2208
    },
    {
      "buffer" : 0,
      "byteOffset" : 408452,
      "byteLength" : 552
    },
    {
      "buffer" : 0,
      "byteOffset" : 409004,
      "byteLength" : 1104
    },
    {
      "buffer" : 0,
      "byteOffset" : 410108,
      "byteLength" : 1104
    },
    {
      "buffer" : 0,
      "byteOffset" : 411212,
      "byteLength" : 1104
    },
    {
      "buffer" : 0,
      "byteOffset" : 412316,
      "byteLength" : 1104
    },
    {
      "buffer" : 0,
      "byteOffset" : 413420,
      "byteLength" : 9468
    },
    {
      "buffer" : 0,
      "byteOffset" : 422888,
      "byteLength" : 19776
    },
    {
      "buffer" : 0,
      "byteOffset" : 442664,
      "byteLength" : 19776
    },
    {
      "buffer" : 0,
      "byteOffset" : 462440,
      "byteLength" : 26368
    },
    {
      "buffer" : 0,
      "byteOffset" : 488808,
      "byteLength" : 6592
    },
    {
      "buffer" : 0,
      "byteOffset" : 495400,
      "byteLength" : 13184
    },
    {
      "buffer" : 0,
      "byteOffset" : 508584,
      "byteLength" : 13184
    },
    {
      "buffer" : 0,
      "byteOffset" : 521768,
      "byteLength" : 13184
    },
    {
      "buffer" : 0,
      "byteOffset" : 534952,
      "byteLength" : 13184
    },
    {
      "buffer" : 0,
      "byteOffset" : 548136,
      "byteLength" : 5408
    },
    {
      "buffer" : 0,
      "byteOffset" : 553544,
      "byteLength" : 10416
    },
    {
      "buffer" : 0,
      "byteOffset" : 563960,
      "byteLength" : 10416
    },
    {
      "buffer" : 0,
      "byteOffset" : 574376,
      "byteLength" : 13888
    },
    {
      "buffer" : 0,
      "byteOffset" : 588264,
      "byteLength" : 3472
    },
    {
      "buffer" : 0,
      "byteOffset" : 591736,
      "byteLength" : 6944
    },
    {
      "buffer" : 0,
      "byteOffset" : 598680,
      "byteLength" : 6944
    },
    {
      "buffer" : 0,
      "byteOffset" : 605624,
      "byteLength" : 6944
    },
    {
      "buffer" : 0,
      "byteOffset" : 612568,
      "byteLength" : 6944
    },
    {
      "buffer" : 0,
      "byteOffset" : 619512,
      "byteLength" : 524
    },
    {
      "buffer" : 0,
      "byteOffset" : 620036,
      "byteLength" : 1788
    },
    {
      "buffer" : 0,
      "byteOffset" : 621824,
      "byteLength" : 1788
    },
    {
      "buffer" : 0,
      "byteOffset" : 623612,
      "byteLength" : 2384
    },
    {
      "buffer" : 0,
      "byteOffset" : 625996,
      "byteLength" : 596
    },
    {
      "buffer" : 0,
      "byteOffset" : 626592,
      "byteLength" : 1192
    },
    {
      "buffer" : 0,
      "byteOffset" : 627784,
      "byteLength" : 1192
    },
    {
      "buffer" : 0,
      "byteOffset" : 628976,
      "byteLength" : 1192
    },
    {
      "buffer" : 0,
      "byteOffset" : 630168,
      "byteLength" : 1192
    },
    {
      "buffer" : 0,
      "byteOffset" : 631360,
      "byteLength" : 168
    },
    {
      "buffer" : 0,
      "byteOffset" : 631528,
      "byteLength" : 552
    },
    {
      "buffer" : 0,
      "byteOffset" : 632080,
      "byteLength" : 552
    },
    {
      "buffer" : 0,
      "byteOffset" : 632632,
      "byteLength" : 736
    },
    {
      "buffer" : 0,
      "byteOffset" : 633368,
      "byteLength" : 184
    },
    {
      "buffer" : 0,
      "byteOffset" : 633552,
      "byteLength" : 368
    },
    {
      "buffer" : 0,
      "byteOffset" : 633920,
      "byteLength" : 368
    },
    {
      "buffer" : 0,
      "byteOffset" : 634288,
      "byteLength" : 368
    },
    {
      "buffer" : 0,
      "byteOffset" : 634656,
      "byteLength" : 368
    },
    {
      "buffer" : 0,
      "byteOffset" : 635024,
      "byteLength" : 1200
    },
    {
      "buffer" : 0,
      "byteOffset" : 636224,
      "byteLength" : 2484
    },
    {
      "buffer" : 0,
      "byteOffset" : 638708,
      "byteLength" : 2484
    },
    {
      "buffer" : 0,
      "byteOffset" : 641192,
      "byteLength" : 3312
    },
    {
      "buffer" : 0,
      "byteOffset" : 644504,
      "byteLength" : 828
    },
    {
      "buffer" : 0,
      "byteOffset" : 645332,
      "byteLength" : 1656
    },
    {
      "buffer" : 0,
      "byteOffset" : 646988,
      "byteLength" : 1656
    },
    {
      "buffer" : 0,
      "byteOffset" : 648644,
      "byteLength" : 1656
    },
    {
      "buffer" : 0,
      "byteOffset" : 650300,
      "byteLength" : 1656
    },
    {
      "buffer" : 0,
      "byteOffset" : 651956,
      "byteLength" : 1392
    },
    {
      "buffer" : 0,
      "byteOffset" : 653348,
      "byteLength" : 2496
    },
    {
      "buffer" : 0,
      "byteOffset" : 655844,
      "byteLength" : 2496
    },
    {
      "buffer" : 0,
      "byteOffset" : 658340,
      "byteLength" : 3328
    },
    {
      "buffer" : 0,
      "byteOffset" : 661668,
      "byteLength" : 832
    },
    {
      "buffer" : 0,
      "byteOffset" : 662500,
      "byteLength" : 1664
    },
    {
      "buffer" : 0,
      "byteOffset" : 664164,
      "byteLength" : 1664
    },
    {
      "buffer" : 0,
      "byteOffset" : 665828,
      "byteLength" : 1664
    },
    {
      "buffer" : 0,
      "byteOffset" : 667492,
      "byteLength" : 1664
    },
    {
      "buffer" : 0,
      "byteOffset" : 669156,
      "byteLength" : 1812
    },
    {
      "buffer" : 0,
      "byteOffset" : 670968,
      "byteLength" : 2556
    },
    {
      "buffer" : 0,
      "byteOffset" : 673524,
      "byteLength" : 2556
    },
    {
      "buffer" : 0,
      "byteOffset" : 676080,
      "byteLength" : 3408
    },
    {
      "buffer" : 0,
      "byteOffset" : 679488,
      "byteLength" : 852
    },
    {
      "buffer" : 0,
      "byteOffset" : 680340,
      "byteLength" : 1704
    },
    {
      "buffer" : 0,
      "byteOffset" : 682044,
      "byteLength" : 1704
    },
    {
      "buffer" : 0,
      "byteOffset" : 683748,
      "byteLength" : 1704
    },
    {
      "buffer" : 0,
      "byteOffset" : 685452,
      "byteLength" : 1704
    },
    {
      "buffer" : 0,
      "byteOffset" : 687156,
      "byteLength" : 2088
    },
    {
      "buffer" : 0,
      "byteOffset" : 689244,
      "byteLength" : 3024
    },
    {
      "buffer" : 0,
      "byteOffset" : 692268,
      "byteLength" : 3024
    },
    {
      "buffer" : 0,
      "byteOffset" : 695292,
      "byteLength" : 4032
    },
    {
      "buffer" : 0,
      "byteOffset" : 699324,
      "byteLength" : 1008
    },
    {
      "buffer" : 0,
      "byteOffset" : 700332,
      "byteLength" : 2016
    },
    {
      "buffer" : 0,
      "byteOffset" : 702348,
      "byteLength" : 2016
    },
    {
      "buffer" : 0,
      "byteOffset" : 704364,
      "byteLength" : 2016
    },
    {
      "buffer" : 0,
      "byteOffset" : 706380,
      "byteLength" : 2016
    },
    {
      "buffer" : 0,
      "byteOffset" : 708396,
      "byteLength" : 3960
    },
    {
      "buffer" : 0,
      "byteOffset" : 712356,
      "byteLength" : 4704
    },
    {
      "buffer" : 0,
      "byteOffset" : 717060,
      "byteLength" : 4704
    },
    {
      "buffer" : 0,
      "byteOffset" : 721764,
      "byteLength" : 6272
    },
    {
      "buffer" : 0,
      "byteOffset" : 728036,
      "byteLength" : 1568
    },
    {
      "buffer" : 0,
      "byteOffset" : 729604,
      "byteLength" : 3136
    },
    {
      "buffer" : 0,
      "byteOffset" : 732740,
      "byteLength" : 3136
    },
    {
      "buffer" : 0,
      "byteOffset" : 735876,
      "byteLength" : 3136
    },
    {
      "buffer" : 0,
      "byteOffset" : 739012,
      "byteLength" : 3136
    }
  ],
  "accessors" : [
    {
      "bufferView" : 0,
      "componentType" : 5123,
      "count" : 2094,
      "type" : "SCALAR"
    },
    {
      "bufferView" : 1,
      "min" : [ -33.4972, 4.1635, -8.50678 ],
      "max" : [ -29.4227, 6.91912, 7.83572 ],
      "componentType" : 5126,
      "count" : 928,
      "type" : "VEC3"
    },
    {
      "bufferView" : 2,
      "componentType" : 5126,
      "count" : 928,
      "type" : "VEC3"
    },
    {
      "bufferView" : 3,
      "componentType" : 5126,
      "count" : 928,
      "type" : "VEC4"
    },
    {
      "bufferView" : 4,
      "normalized" : true,
      "componentType" : 5121,
      "count" : 928,
      "type" : "VEC4"
    },
    {
      "bufferView" : 5,
      "componentType" : 5126,
      "count" : 928,
      "type" : "VEC2"
    },
    {
      "bufferView" : 6,
      "componentType" : 5126,
      "count" : 928,
      "type" : "VEC2"
    },
    {
      "bufferView" : 7,
      "componentType" : 5126,
      "count" : 928,
      "type" : "VEC2"
    },
    {
      "bufferView" : 8,
      "componentType" : 5126,
      "count" : 928,
      "type" : "VEC2"
    },
    {
      "bufferView" : 9,
      "componentType" : 5123,
      "count" : 4806,
      "type" : "SCALAR"
    },
    {
      "bufferView" : 10,
      "min" : [ -33.4972, 6.66311, -7.46368 ],
      "max" : [ -30.7552, 9.12774, 6.79152 ],
      "componentType" : 5126,
      "count" : 1332,
      "type" : "VEC3"
    },
    {
      "bufferView" : 11,
      "componentType" : 5126,
      "count" : 1332,
      "type" : "VEC3"
    },
    {
      "bufferView" : 12,
      "componentType" : 5126,
      "count" : 1332,
      "type" : "VEC4"
    },
    {
      "bufferView" : 13,
      "normalized" : true,
      "componentType" : 5121,
      "count" : 1332,
      "type" : "VEC4"
    },
    {
      "bufferView" : 14,
      "componentType" : 5126,
      "count" : 1332,
      "type" : "VEC2"
    },
    {
      "bufferView" : 15,
      "componentType" : 5126,
      "count" : 1332,
      "type" : "VEC2"
    },
    {
      "bufferView" : 16,
      "componentType" : 5126,
      "count" : 1332,
      "type" : "VEC2"
    },
    {
      "bufferView" : 17,
      "componentType" : 5126,
      "count" : 1332,
      "type" : "VEC2"
    },
    {
      "bufferView" : 18,
      "componentType" : 5123,
      "count" : 3828,
      "type" : "SCALAR"
    },
    {
      "bufferView" : 19,
      "min" : [ -30.6779, 4.12499, -7.28248 ],
      "max" : [ -29.8645, 5.81089, 6.56795 ],
      "componentType" : 5126,
      "count" : 860,
      "type" : "VEC3"
    },
    {
      "bufferView" : 20,
      "componentType" : 5126,
      "count" : 860,
      "type" : "VEC3"
    },
    {
      "bufferView" : 21,
      "componentType" : 5126,
      "count" : 860,
      "type" : "VEC4"
    },
    {
      "bufferView" : 22,
      "normalized" : true,
      "componentType" : 5121,
      "count" : 860,
      "type" : "VEC4"
    },
    {
      "bufferView" : 23,
      "componentType" : 5126,
      "count" : 860,
      "type" : "VEC2"
    },
    {
      "bufferView" : 24,
      "componentType" : 5126,
      "count" : 860,
      "type" : "VEC2"
    },
    {
      "bufferView" : 25,
      "componentType" : 5126,
      "count" : 860,
      "type" : "VEC2"
    },
    {
      "bufferView" : 26,
      "componentType" : 5126,
      "count" : 860,
      "type" : "VEC2"
    },
    {
      "bufferView" : 27,
      "componentType" : 5123,
      "count" : 24,
      "type" : "SCALAR"
    },
    {
      "bufferView" : 28,
      "min" : [ -31.6361, 1.23786, -3.75398 ],
      "max" : [ -31.5361, 4.0006, 3.08302 ],
      "componentType" : 5126,
      "count" : 16,
      "type" : "VEC3"
    },
    {
      "bufferView" : 29,
      "componentType" : 5126,
      "count" : 16,
      "type" : "VEC3"
    },
    {
      "bufferView" : 30,
      "componentType" : 5126,
      "count" : 16,
      "type" : "VEC4"
    },
    {
      "bufferView" : 31,
      "normalized" : true,
      "componentType" : 5121,
      "count" : 16,
      "type" : "VEC4"
    },
    {
      "bufferView" : 32,
      "componentType" : 5126,
      "count" : 16,
      "type" : "VEC2"
    },
    {
      "bufferView" : 33,
      "componentType" : 5126,
      "count" : 16,
      "type" : "VEC2"
    },
    {
      "bufferView" : 34,
      "componentType" : 5126,
      "count" : 16,
      "type" : "VEC2"
    },
    {
      "bufferView" : 35,
      "componentType" : 5126,
      "count" : 16,
      "type" : "VEC2"
    },
    {
      "bufferView" : 36,
      "componentType" : 5123,
      "count" : 588,
      "type" : "SCALAR"
    },
    {
      "bufferView" : 37,
      "min" : [ -31.6361, 0.327986, -4.25398 ],
      "max" : [ -31.3054, 4.1635, 3.59572 ],
      "componentType" : 5126,
      "count" : 248,
      "type" : "VEC3"
    },
    {
      "bufferView" : 38,
      "componentType" : 5126,
      "count" : 248,
      "type" : "VEC3"
    },
    {
      "bufferView" : 39,
      "componentType" : 5126,
      "count" : 248,
      "type" : "VEC4"
    },
    {
      "bufferView" : 40,
      "normalized" : true,
      "componentType" : 5121,
      "count" : 248,
      "type" : "VEC4"
    },
    {
      "bufferView" : 41,
      "componentType" : 5126,
      "count" : 248,
      "type" : "VEC2"
    },
    {
      "bufferView" : 42,
      "componentType" : 5126,
      "count" : 248,
      "type" : "VEC2"
    },
    {
      "bufferView" : 43,
      "componentType" : 5126,
      "count" : 248,
      "type" : "VEC2"
    },
    {
      "bufferView" : 44,
      "componentType" : 5126,
      "count" : 248,
      "type" : "VEC2"
    },
    {
      "bufferView" : 45,
      "componentType" : 5123,
      "count" : 4794,
      "type" : "SCALAR"
    },
    {
      "bufferView" : 46,
      "min" : [ -32.8251, 0.407258, -7.54313 ],
      "max" : [ -30.7612, 6.61915, 6.87399 ],
      "componentType" : 5126,
      "count" : 948,
      "type" : "VEC3"
    },
    {
      "bufferView" : 47,
      "componentType" : 5126,
      "count" : 948,
      "type" : "VEC3"
    },
    {
      "bufferView" : 48,
      "componentType" : 5126,
      "count" : 948,
      "type" : "VEC4"
    },
    {
      "bufferView" : 49,
      "normalized" : true,
      "componentType" : 5121,
      "count" : 948,
      "type" : "VEC4"
    },
    {
      "bufferView" : 50,
      "componentType" : 5126,
      "count" : 948,
      "type" : "VEC2"
    },
    {
      "bufferView" : 51,
      "componentType" : 5126,
      "count" : 948,
      "type" : "VEC2"
    },
    {
      "bufferView" : 52,
      "componentType" : 5126,
      "count" : 948,
      "type" : "VEC2"
    },
    {
      "bufferView" : 53,
      "componentType" : 5126,
      "count" : 948,
      "type" : "VEC2"
    },
    {
      "bufferView" : 54,
      "componentType" : 5123,
      "count" : 144,
      "type" : "SCALAR"
    },
    {
      "bufferView" : 55,
      "min" : [ -31.5661, 0.327986, -4.25398 ],
      "max" : [ -31.3658, 4.11426, 3.59445 ],
      "componentType" : 5126,
      "count" : 64,
      "type" : "VEC3"
    },
    {
      "bufferView" : 56,
      "componentType" : 5126,
      "count" : 64,
      "type" : "VEC3"
    },
    {
      "bufferView" : 57,
      "componentType" : 5126,
      "count" : 64,
      "type" : "VEC4"
    },
    {
      "bufferView" : 58,
      "normalized" : true,
      "componentType" : 5121,
      "count" : 64,
      "type" : "VEC4"
    },
    {
      "bufferView" : 59,
      "componentType" : 5126,
      "count" : 64,
      "type" : "VEC2"
    },
    {
      "bufferView" : 60,
      "componentType" : 5126,
      "count" : 64,
      "type" : "VEC2"
    },
    {
      "bufferView" : 61,
      "componentType" : 5126,
      "count" : 64,
      "type" : "VEC2"
    },
    {
      "bufferView" : 62,
      "componentType" : 5126,
      "count" : 64,
      "type" : "VEC2"
    },
    {
      "bufferView" : 63,
      "componentType" : 5123,
      "count" : 1170,
      "type" : "SCALAR"
    },
    {
      "bufferView" : 64,
      "min" : [ -33.3808, 3.61528, -7.46412 ],
      "max" : [ -30.8108, 8.62813, 6.80065 ],
      "componentType" : 5126,
      "count" : 434,
      "type" : "VEC3"
    },
    {
      "bufferView" : 65,
      "componentType" : 5126,
      "count" : 434,
      "type" : "VEC3"
    },
    {
      "bufferView" : 66,
      "componentType" : 5126,
      "count" : 434,
      "type" : "VEC4"
    },
    {
      "bufferView" : 67,
      "normalized" : true,
      "componentType" : 5121,
      "count" : 434,
      "type" : "VEC4"
    },
    {
      "bufferView" : 68,
      "componentType" : 5126,
      "count" : 434,
      "type" : "VEC2"
    },
    {
      "bufferView" : 69,
      "componentType" : 5126,
      "count" : 434,
      "type" : "VEC2"
    },
    {
      "bufferView" : 70,
      "componentType" : 5126,
      "count" : 434,
      "type" : "VEC2"
    },
    {
      "bufferView" : 71,
      "componentType" : 5126,
      "count" : 434,
      "type" : "VEC2"
    },
    {
      "bufferView" : 72,
      "componentType" : 5123,
      "count" : 477,
      "type" : "SCALAR"
    },
    {
      "bufferView" : 73,
      "min" : [ -31.3464, 3.39238, -4.25398 ],
      "max" : [ -31.2772, 4.10059, 3.59572 ],
      "componentType" : 5126,
      "count" : 138,
      "type" : "VEC3"
    },
    {
      "bufferView" : 74,
      "componentType" : 5126,
      "count" : 138,
      "type" : "VEC3"
    },
    {
      "bufferView" : 75,
      "componentType" : 5126,
      "count" : 138,
      "type" : "VEC4"
    },
    {
      "bufferView" : 76,
      "normalized" : true,
      "componentType" : 5121,
      "count" : 138,
      "type" : "VEC4"
    },
    {
      "bufferView" : 77,
      "componentType" : 5126,
      "count" : 138,
      "type" : "VEC2"
    },
    {
      "bufferView" : 78,
      "componentType" : 5126,
      "count" : 138,
      "type" : "VEC2"
    },
    {
      "bufferView" : 79,
      "componentType" : 5126,
      "count" : 138,
      "type" : "VEC2"
    },
    {
      "bufferView" : 80,
      "componentType" : 5126,
      "count" : 138,
      "type" : "VEC2"
    },
    {
      "bufferView" : 81,
      "componentType" : 5123,
      "count" : 4734,
      "type" : "SCALAR"
    },
    {
      "bufferView" : 82,
      "min" : [ -34.1243, 0.231933, -8.42129 ],
      "max" : [ -30.8108, 8.62813, 7.74084 ],
      "componentType" : 5126,
      "count" : 1648,
      "type" : "VEC3"
    },
    {
      "bufferView" : 83,
      "componentType" : 5126,
      "count" : 1648,
      "type" : "VEC3"
    },
    {
      "bufferView" : 84,
      "componentType" : 5126,
      "count" : 1648,
      "type" : "VEC4"
    },
    {
      "bufferView" : 85,
      "normalized" : true,
      "componentType" : 5121,
      "count" : 1648,
      "type" : "VEC4"
    },
    {
      "bufferView" : 86,
      "componentType" : 5126,
      "count" : 1648,
      "type" : "VEC2"
    },
    {
      "bufferView" : 87,
      "componentType" : 5126,
      "count" : 1648,
      "type" : "VEC2"
    },
    {
      "bufferView" : 88,
      "componentType" : 5126,
      "count" : 1648,
      "type" : "VEC2"
    },
    {
      "bufferView" : 89,
      "componentType" : 5126,
      "count" : 1648,
      "type" : "VEC2"
    },
    {
      "bufferView" : 90,
      "componentType" : 5123,
      "count" : 2703,
      "type" : "SCALAR"
    },
    {
      "bufferView" : 91,
      "min" : [ -33.4953, 2.23082, -7.5423 ],
      "max" : [ -30.6278, 9.35246, 6.87882 ],
      "componentType" : 5126,
      "count" : 868,
      "type" : "VEC3"
    },
    {
      "bufferView" : 92,
      "componentType" : 5126,
      "count" : 868,
      "type" : "VEC3"
    },
    {
      "bufferView" : 93,
      "componentType" : 5126,
      "count" : 868,
      "type" : "VEC4"
    },
    {
      "bufferView" : 94,
      "normalized" : true,
      "componentType" : 5121,
      "count" : 868,
      "type" : "VEC4"
    },
    {
      "bufferView" : 95,
      "componentType" : 5126,
      "count" : 868,
      "type" : "VEC2"
    },
    {
      "bufferView" : 96,
      "componentType" : 5126,
      "count" : 868,
      "type" : "VEC2"
    },
    {
      "bufferView" : 97,
      "componentType" : 5126,
      "count" : 868,
      "type" : "VEC2"
    },
    {
      "bufferView" : 98,
      "componentType" : 5126,
      "count" : 868,
      "type" : "VEC2"
    },
    {
      "bufferView" : 99,
      "componentType" : 5123,
      "count" : 261,
      "type" : "SCALAR"
    },
    {
      "bufferView" : 100,
      "min" : [ -34.0976, 0.167507, -6.98273 ],
      "max" : [ -31.3261, 8.4701, 6.30726 ],
      "componentType" : 5126,
      "count" : 149,
      "type" : "VEC3"
    },
    {
      "bufferView" : 101,
      "componentType" : 5126,
      "count" : 149,
      "type" : "VEC3"
    },
    {
      "bufferView" : 102,
      "componentType" : 5126,
      "count" : 149,
      "type" : "VEC4"
    },
    {
      "bufferView" : 103,
      "normalized" : true,
      "componentType" : 5121,
      "count" : 149,
      "type" : "VEC4"
    },
    {
      "bufferView" : 104,
      "componentType" : 5126,
      "count" : 149,
      "type" : "VEC2"
    },
    {
      "bufferView" : 105,
      "componentType" : 5126,
      "count" : 149,
      "type" : "VEC2"
    },
    {
      "bufferView" : 106,
      "componentType" : 5126,
      "count" : 149,
      "type" : "VEC2"
    },
    {
      "bufferView" : 107,
      "componentType" : 5126,
      "count" : 149,
      "type" : "VEC2"
    },
    {
      "bufferView" : 108,
      "componentType" : 5123,
      "count" : 84,
      "type" : "SCALAR"
    },
    {
      "bufferView" : 109,
      "min" : [ -31.4561, 4.46292, -6.54931 ],
      "max" : [ -31.4361, 8.4701, 5.87835 ],
      "componentType" : 5126,
      "count" : 46,
      "type" : "VEC3"
    },
    {
      "bufferView" : 110,
      "componentType" : 5126,
      "count" : 46,
      "type" : "VEC3"
    },
    {
      "bufferView" : 111,
      "componentType" : 5126,
      "count" : 46,
      "type" : "VEC4"
    },
    {
      "bufferView" : 112,
      "normalized" : true,
      "componentType" : 5121,
      "count" : 46,
      "type" : "VEC4"
    },
    {
      "bufferView" : 113,
      "componentType" : 5126,
      "count" : 46,
      "type" : "VEC2"
    },
    {
      "bufferView" : 114,
      "componentType" : 5126,
      "count" : 46,
      "type" : "VEC2"
    },
    {
      "bufferView" : 115,
      "componentType" : 5126,
      "count" : 46,
      "type" : "VEC2"
    },
    {
      "bufferView" : 116,
      "componentType" : 5126,
      "count" : 46,
      "type" : "VEC2"
    },
    {
      "bufferView" : 117,
      "componentType" : 5123,
      "count" : 600,
      "type" : "SCALAR"
    },
    {
      "bufferView" : 118,
      "min" : [ -32.9707, 5.97985, -7.23561 ],
      "max" : [ -31.0914, 7.27969, 6.56955 ],
      "componentType" : 5126,
      "count" : 207,
      "type" : "VEC3"
    },
    {
      "bufferView" : 119,
      "componentType" : 5126,
      "count" : 207,
      "type" : "VEC3"
    },
    {
      "bufferView" : 120,
      "componentType" : 5126,
      "count" : 207,
      "type" : "VEC4"
    },
    {
      "bufferView" : 121,
      "normalized" : true,
      "componentType" : 5121,
      "count" : 207,
      "type" : "VEC4"
    },
    {
      "bufferView" : 122,
      "componentType" : 5126,
      "count" : 207,
      "type" : "VEC2"
    },
    {
      "bufferView" : 123,
      "componentType" : 5126,
      "count" : 207,
      "type" : "VEC2"
    },
    {
      "bufferView" : 124,
      "componentType" : 5126,
      "count" : 207,
      "type" : "VEC2"
    },
    {
      "bufferView" : 125,
      "componentType" : 5126,
      "count" : 207,
      "type" : "VEC2"
    },
    {
      "bufferView" : 126,
      "componentType" : 5123,
      "count" : 696,
      "type" : "SCALAR"
    },
    {
      "bufferView" : 127,
      "min" : [ -31.6268, -0.062827, -4.08742 ],
      "max" : [ -30.4464, 0.390703, 3.39523 ],
      "componentType" : 5126,
      "count" : 208,
      "type" : "VEC3"
    },
    {
      "bufferView" : 128,
      "componentType" : 5126,
      "count" : 208,
      "type" : "VEC3"
    },
    {
      "bufferView" : 129,
      "componentType" : 5126,
      "count" : 208,
      "type" : "VEC4"
    },
    {
      "bufferView" : 130,
      "normalized" : true,
      "componentType" : 5121,
      "count" : 208,
      "type" : "VEC4"
    },
    {
      "bufferView" : 131,
      "componentType" : 5126,
      "count" : 208,
      "type" : "VEC2"
    },
    {
      "bufferView" : 132,
      "componentType" : 5126,
      "count" : 208,
      "type" : "VEC2"
    },
    {
      "bufferView" : 133,
      "componentType" : 5126,
      "count" : 208,
      "type" : "VEC2"
    },
    {
      "bufferView" : 134,
      "componentType" : 5126,
      "count" : 208,
      "type" : "VEC2"
    },
    {
      "bufferView" : 135,
      "componentType" : 5123,
      "count" : 906,
      "type" : "SCALAR"
    },
    {
      "bufferView" : 136,
      "min" : [ -33.9912, -0.0694544, -7.70998 ],
      "max" : [ -30.646, 0.440082, 7.03782 ],
      "componentType" : 5126,
      "count" : 213,
      "type" : "VEC3"
    },
    {
      "bufferView" : 137,
      "componentType" : 5126,
      "count" : 213,
      "type" : "VEC3"
    },
    {
      "bufferView" : 138,
      "componentType" : 5126,
      "count" : 213,
      "type" : "VEC4"
    },
    {
      "bufferView" : 139,
      "normalized" : true,
      "componentType" : 5121,
      "count" : 213,
      "type" : "VEC4"
    },
    {
      "bufferView" : 140,
      "componentType" : 5126,
      "count" : 213,
      "type" : "VEC2"
    },
    {
      "bufferView" : 141,
      "componentType" : 5126,
      "count" : 213,
      "type" : "VEC2"
    },
    {
      "bufferView" : 142,
      "componentType" : 5126,
      "count" : 213,
      "type" : "VEC2"
    },
    {
      "bufferView" : 143,
      "componentType" : 5126,
      "count" : 213,
      "type" : "VEC2"
    },
    {
      "bufferView" : 144,
      "componentType" : 5123,
      "count" : 1044,
      "type" : "SCALAR"
    },
    {
      "bufferView" : 145,
      "min" : [ -31.1622, 5.63974, -2.47754 ],
      "max" : [ -30.7791, 7.08664, 1.83006 ],
      "componentType" : 5126,
      "count" : 252,
      "type" : "VEC3"
    },
    {
      "bufferView" : 146,
      "componentType" : 5126,
      "count" : 252,
      "type" : "VEC3"
    },
    {
      "bufferView" : 147,
      "componentType" : 5126,
      "count" : 252,
      "type" : "VEC4"
    },
    {
      "bufferView" : 148,
      "normalized" : true,
      "componentType" : 5121,
      "count" : 252,
      "type" : "VEC4"
    },
    {
      "bufferView" : 149,
      "componentType" : 5126,
      "count" : 252,
      "type" : "VEC2"
    },
    {
      "bufferView" : 150,
      "componentType" : 5126,
      "count" : 252,
      "type" : "VEC2"
    },
    {
      "bufferView" : 151,
      "componentType" : 5126,
      "count" : 252,
      "type" : "VEC2"
    },
    {
      "bufferView" : 152,
      "componentType" : 5126,
      "count" : 252,
      "type" : "VEC2"
    },
    {
      "bufferView" : 153,
      "componentType" : 5123,
      "count" : 1980,
      "type" : "SCALAR"
    },
    {
      "bufferView" : 154,
      "min" : [ -32.7384, 5.82044, -7.23368 ],
      "max" : [ -30.9761, 6.21225, 6.56052 ],
      "componentType" : 5126,
      "count" : 392,
      "type" : "VEC3"
    },
    {
      "bufferView" : 155,
      "componentType" : 5126,
      "count" : 392,
      "type" : "VEC3"
    },
    {
      "bufferView" : 156,
      "componentType" : 5126,
      "count" : 392,
      "type" : "VEC4"
    },
    {
      "bufferView" : 157,
      "normalized" : true,
      "componentType" : 5121,
      "count" : 392,
      "type" : "VEC4"
    },
    {
      "bufferView" : 158,
      "componentType" : 5126,
      "count" : 392,
      "type" : "VEC2"
    },
    {
      "bufferView" : 159,
      "componentType" : 5126,
      "count" : 392,
      "type" : "VEC2"
    },
    {
      "bufferView" : 160,
      "componentType" : 5126,
      "count" : 392,
      "type" : "VEC2"
    },
    {
      "bufferView" : 161,
      "componentType" : 5126,
      "count" : 392,
      "type" : "VEC2"
    }
  ]
}
