{
  "asset" : {
    "generator" : "UE Viewer (umodel) build 1544 based",
    "version" : "2.0"
  },
  "scene" : 0,
  "scenes" : [
    {
      "nodes" : [ 0 ]
    }
  ],
  "nodes" : [
    {
      "name" : "SM_ENV_KNVLLG03_House_Distance_D",
      "mesh" : 0
    }
  ],
  "materials" : [
    {
      "name" : "MI_ENV_KNVLLG_House_Distance_A",
      "pbrMetallicRoughness" : {
        "baseColorFactor" : [ 0.3, 0.3, 0.3, 1.0 ],
        "metallicFactor" : 0.1,
        "roughnessFactor" : 0.5
      }
    },
    {
      "name" : "MI_ENV_KNVLLG_House_Distance_C",
      "pbrMetallicRoughness" : {
        "baseColorFactor" : [ 0.9, 0.3, 0.3, 1.0 ],
        "metallicFactor" : 0.1,
        "roughnessFactor" : 0.5
      }
    }
  ],
  "meshes" : [
    {
      "primitives" : [
        {
          "attributes" : {
            "POSITION" : 1,
            "NORMAL" : 2,
            "TANGENT" : 3,
            "TEXCOORD_0" : 4,
            "TEXCOORD_1" : 5,
            "TEXCOORD_2" : 6,
            "TEXCOORD_3" : 7
          },
          "indices" : 0,
          "material" : 0
        },
        {
          "attributes" : {
            "POSITION" : 9,
            "NORMAL" : 10,
            "TANGENT" : 11,
            "TEXCOORD_0" : 12,
            "TEXCOORD_1" : 13,
            "TEXCOORD_2" : 14,
            "TEXCOORD_3" : 15
          },
          "indices" : 8,
          "material" : 1
        }
      ],
      "name" : "SM_ENV_KNVLLG03_House_Distance_D"
    }
  ],
  "buffers" : [
    {
      "uri" : "SM_ENV_KNVLLG03_House_Distance_D.bin",
      "byteLength" : 1048184
    }
  ],
  "bufferViews" : [
    {
      "buffer" : 0,
      "byteOffset" : 0,
      "byteLength" : 35808
    },
    {
      "buffer" : 0,
      "byteOffset" : 35808,
      "byteLength" : 147480
    },
    {
      "buffer" : 0,
      "byteOffset" : 183288,
      "byteLength" : 147480
    },
    {
      "buffer" : 0,
      "byteOffset" : 330768,
      "byteLength" : 196640
    },
    {
      "buffer" : 0,
      "byteOffset" : 527408,
      "byteLength" : 98320
    },
    {
      "buffer" : 0,
      "byteOffset" : 625728,
      "byteLength" : 98320
    },
    {
      "buffer" : 0,
      "byteOffset" : 724048,
      "byteLength" : 98320
    },
    {
      "buffer" : 0,
      "byteOffset" : 822368,
      "byteLength" : 98320
    },
    {
      "buffer" : 0,
      "byteOffset" : 920688,
      "byteLength" : 5024
    },
    {
      "buffer" : 0,
      "byteOffset" : 925712,
      "byteLength" : 20412
    },
    {
      "buffer" : 0,
      "byteOffset" : 946124,
      "byteLength" : 20412
    },
    {
      "buffer" : 0,
      "byteOffset" : 966536,
      "byteLength" : 27216
    },
    {
      "buffer" : 0,
      "byteOffset" : 993752,
      "byteLength" : 13608
    },
    {
      "buffer" : 0,
      "byteOffset" : 1007360,
      "byteLength" : 13608
    },
    {
      "buffer" : 0,
      "byteOffset" : 1020968,
      "byteLength" : 13608
    },
    {
      "buffer" : 0,
      "byteOffset" : 1034576,
      "byteLength" : 13608
    }
  ],
  "accessors" : [
    {
      "bufferView" : 0,
      "componentType" : 5123,
      "count" : 17904,
      "type" : "SCALAR"
    },
    {
      "bufferView" : 1,
      "min" : [ 52.9475, -0.521839, 104.021 ],
      "max" : [ 634.888, 20.9939, 778.284 ],
      "componentType" : 5126,
      "count" : 12290,
      "type" : "VEC3"
    },
    {
      "bufferView" : 2,
      "componentType" : 5126,
      "count" : 12290,
      "type" : "VEC3"
    },
    {
      "bufferView" : 3,
      "componentType" : 5126,
      "count" : 12290,
      "type" : "VEC4"
    },
    {
      "bufferView" : 4,
      "componentType" : 5126,
      "count" : 12290,
      "type" : "VEC2"
    },
    {
      "bufferView" : 5,
      "componentType" : 5126,
      "count" : 12290,
      "type" : "VEC2"
    },
    {
      "bufferView" : 6,
      "componentType" : 5126,
      "count" : 12290,
      "type" : "VEC2"
    },
    {
      "bufferView" : 7,
      "componentType" : 5126,
      "count" : 12290,
      "type" : "VEC2"
    },
    {
      "bufferView" : 8,
      "componentType" : 5123,
      "count" : 2511,
      "type" : "SCALAR"
    },
    {
      "bufferView" : 9,
      "min" : [ 58.6187, -0.270102, 159.763 ],
      "max" : [ 368.236, 21.1799, 505.956 ],
      "componentType" : 5126,
      "count" : 1701,
      "type" : "VEC3"
    },
    {
      "bufferView" : 10,
      "componentType" : 5126,
      "count" : 1701,
      "type" : "VEC3"
    },
    {
      "bufferView" : 11,
      "componentType" : 5126,
      "count" : 1701,
      "type" : "VEC4"
    },
    {
      "bufferView" : 12,
      "componentType" : 5126,
      "count" : 1701,
      "type" : "VEC2"
    },
    {
      "bufferView" : 13,
      "componentType" : 5126,
      "count" : 1701,
      "type" : "VEC2"
    },
    {
      "bufferView" : 14,
      "componentType" : 5126,
      "count" : 1701,
      "type" : "VEC2"
    },
    {
      "bufferView" : 15,
      "componentType" : 5126,
      "count" : 1701,
      "type" : "VEC2"
    }
  ]
}
