{
  "asset" : {
    "generator" : "UE Viewer (umodel) build 1544 based",
    "version" : "2.0"
  },
  "scene" : 0,
  "scenes" : [
    {
      "nodes" : [ 0 ]
    }
  ],
  "nodes" : [
    {
      "name" : "SM_ENV_LKNVLD03_Ground_D_01",
      "mesh" : 0
    }
  ],
  "materials" : [
    {
      "name" : "MI_ENV_LKNVLD_Road_Simple",
      "pbrMetallicRoughness" : {
        "baseColorFactor" : [ 0.3, 0.3, 0.3, 1.0 ],
        "metallicFactor" : 0.1,
        "roughnessFactor" : 0.5
      }
    },
    {
      "name" : "MI_ENV_LKNVLD03_GroundSoil_A",
      "pbrMetallicRoughness" : {
        "baseColorFactor" : [ 0.9, 0.3, 0.3, 1.0 ],
        "metallicFactor" : 0.1,
        "roughnessFactor" : 0.5
      }
    },
    {
      "name" : "MI_ENV_LKNVLD_RoughTiles",
      "pbrMetallicRoughness" : {
        "baseColorFactor" : [ 0.3, 0.9, 0.3, 1.0 ],
        "metallicFactor" : 0.1,
        "roughnessFactor" : 0.5
      }
    }
  ],
  "meshes" : [
    {
      "primitives" : [
        {
          "attributes" : {
            "POSITION" : 1,
            "NORMAL" : 2,
            "TANGENT" : 3,
            "COLOR_0" : 4,
            "TEXCOORD_0" : 5,
            "TEXCOORD_1" : 6,
            "TEXCOORD_2" : 7,
            "TEXCOORD_3" : 8
          },
          "indices" : 0,
          "material" : 0
        },
        {
          "attributes" : {
            "POSITION" : 10,
            "NORMAL" : 11,
            "TANGENT" : 12,
            "COLOR_0" : 13,
            "TEXCOORD_0" : 14,
            "TEXCOORD_1" : 15,
            "TEXCOORD_2" : 16,
            "TEXCOORD_3" : 17
          },
          "indices" : 9,
          "material" : 1
        },
        {
          "attributes" : {
            "POSITION" : 19,
            "NORMAL" : 20,
            "TANGENT" : 21,
            "COLOR_0" : 22,
            "TEXCOORD_0" : 23,
            "TEXCOORD_1" : 24,
            "TEXCOORD_2" : 25,
            "TEXCOORD_3" : 26
          },
          "indices" : 18,
          "material" : 2
        }
      ],
      "name" : "SM_ENV_LKNVLD03_Ground_D_01"
    }
  ],
  "buffers" : [
    {
      "uri" : "SM_ENV_LKNVLD03_Ground_D_01.bin",
      "byteLength" : 85104
    }
  ],
  "bufferViews" : [
    {
      "buffer" : 0,
      "byteOffset" : 0,
      "byteLength" : 596
    },
    {
      "buffer" : 0,
      "byteOffset" : 596,
      "byteLength" : 1296
    },
    {
      "buffer" : 0,
      "byteOffset" : 1892,
      "byteLength" : 1296
    },
    {
      "buffer" : 0,
      "byteOffset" : 3188,
      "byteLength" : 1728
    },
    {
      "buffer" : 0,
      "byteOffset" : 4916,
      "byteLength" : 432
    },
    {
      "buffer" : 0,
      "byteOffset" : 5348,
      "byteLength" : 864
    },
    {
      "buffer" : 0,
      "byteOffset" : 6212,
      "byteLength" : 864
    },
    {
      "buffer" : 0,
      "byteOffset" : 7076,
      "byteLength" : 864
    },
    {
      "buffer" : 0,
      "byteOffset" : 7940,
      "byteLength" : 864
    },
    {
      "buffer" : 0,
      "byteOffset" : 8804,
      "byteLength" : 128
    },
    {
      "buffer" : 0,
      "byteOffset" : 8932,
      "byteLength" : 372
    },
    {
      "buffer" : 0,
      "byteOffset" : 9304,
      "byteLength" : 372
    },
    {
      "buffer" : 0,
      "byteOffset" : 9676,
      "byteLength" : 496
    },
    {
      "buffer" : 0,
      "byteOffset" : 10172,
      "byteLength" : 124
    },
    {
      "buffer" : 0,
      "byteOffset" : 10296,
      "byteLength" : 248
    },
    {
      "buffer" : 0,
      "byteOffset" : 10544,
      "byteLength" : 248
    },
    {
      "buffer" : 0,
      "byteOffset" : 10792,
      "byteLength" : 248
    },
    {
      "buffer" : 0,
      "byteOffset" : 11040,
      "byteLength" : 248
    },
    {
      "buffer" : 0,
      "byteOffset" : 11288,
      "byteLength" : 2376
    },
    {
      "buffer" : 0,
      "byteOffset" : 13664,
      "byteLength" : 11280
    },
    {
      "buffer" : 0,
      "byteOffset" : 24944,
      "byteLength" : 11280
    },
    {
      "buffer" : 0,
      "byteOffset" : 36224,
      "byteLength" : 15040
    },
    {
      "buffer" : 0,
      "byteOffset" : 51264,
      "byteLength" : 3760
    },
    {
      "buffer" : 0,
      "byteOffset" : 55024,
      "byteLength" : 7520
    },
    {
      "buffer" : 0,
      "byteOffset" : 62544,
      "byteLength" : 7520
    },
    {
      "buffer" : 0,
      "byteOffset" : 70064,
      "byteLength" : 7520
    },
    {
      "buffer" : 0,
      "byteOffset" : 77584,
      "byteLength" : 7520
    }
  ],
  "accessors" : [
    {
      "bufferView" : 0,
      "componentType" : 5123,
      "count" : 297,
      "type" : "SCALAR"
    },
    {
      "bufferView" : 1,
      "min" : [ -65.7547, 5.92611, -176.66 ],
      "max" : [ 61.7983, 12, -43.8836 ],
      "componentType" : 5126,
      "count" : 108,
      "type" : "VEC3"
    },
    {
      "bufferView" : 2,
      "componentType" : 5126,
      "count" : 108,
      "type" : "VEC3"
    },
    {
      "bufferView" : 3,
      "componentType" : 5126,
      "count" : 108,
      "type" : "VEC4"
    },
    {
      "bufferView" : 4,
      "normalized" : true,
      "componentType" : 5121,
      "count" : 108,
      "type" : "VEC4"
    },
    {
      "bufferView" : 5,
      "componentType" : 5126,
      "count" : 108,
      "type" : "VEC2"
    },
    {
      "bufferView" : 6,
      "componentType" : 5126,
      "count" : 108,
      "type" : "VEC2"
    },
    {
      "bufferView" : 7,
      "componentType" : 5126,
      "count" : 108,
      "type" : "VEC2"
    },
    {
      "bufferView" : 8,
      "componentType" : 5126,
      "count" : 108,
      "type" : "VEC2"
    },
    {
      "bufferView" : 9,
      "componentType" : 5123,
      "count" : 63,
      "type" : "SCALAR"
    },
    {
      "bufferView" : 10,
      "min" : [ -65.7547, 5.92611, -178.475 ],
      "max" : [ 61.7983, 12, -63.7261 ],
      "componentType" : 5126,
      "count" : 31,
      "type" : "VEC3"
    },
    {
      "bufferView" : 11,
      "componentType" : 5126,
      "count" : 31,
      "type" : "VEC3"
    },
    {
      "bufferView" : 12,
      "componentType" : 5126,
      "count" : 31,
      "type" : "VEC4"
    },
    {
      "bufferView" : 13,
      "normalized" : true,
      "componentType" : 5121,
      "count" : 31,
      "type" : "VEC4"
    },
    {
      "bufferView" : 14,
      "componentType" : 5126,
      "count" : 31,
      "type" : "VEC2"
    },
    {
      "bufferView" : 15,
      "componentType" : 5126,
      "count" : 31,
      "type" : "VEC2"
    },
    {
      "bufferView" : 16,
      "componentType" : 5126,
      "count" : 31,
      "type" : "VEC2"
    },
    {
      "bufferView" : 17,
      "componentType" : 5126,
      "count" : 31,
      "type" : "VEC2"
    },
    {
      "bufferView" : 18,
      "componentType" : 5123,
      "count" : 1188,
      "type" : "SCALAR"
    },
    {
      "bufferView" : 19,
      "min" : [ -7.56361, 11.9293, -85.7597 ],
      "max" : [ 7.56361, 12.1311, -74.5079 ],
      "componentType" : 5126,
      "count" : 940,
      "type" : "VEC3"
    },
    {
      "bufferView" : 20,
      "componentType" : 5126,
      "count" : 940,
      "type" : "VEC3"
    },
    {
      "bufferView" : 21,
      "componentType" : 5126,
      "count" : 940,
      "type" : "VEC4"
    },
    {
      "bufferView" : 22,
      "normalized" : true,
      "componentType" : 5121,
      "count" : 940,
      "type" : "VEC4"
    },
    {
      "bufferView" : 23,
      "componentType" : 5126,
      "count" : 940,
      "type" : "VEC2"
    },
    {
      "bufferView" : 24,
      "componentType" : 5126,
      "count" : 940,
      "type" : "VEC2"
    },
    {
      "bufferView" : 25,
      "componentType" : 5126,
      "count" : 940,
      "type" : "VEC2"
    },
    {
      "bufferView" : 26,
      "componentType" : 5126,
      "count" : 940,
      "type" : "VEC2"
    }
  ]
}
