{
  "asset" : {
    "generator" : "UE Viewer (umodel) build 1544 based",
    "version" : "2.0"
  },
  "scene" : 0,
  "scenes" : [
    {
      "nodes" : [ 0 ]
    }
  ],
  "nodes" : [
    {
      "name" : "SM_ENV_KNVLLG03_AreaD_Hokage_Building",
      "mesh" : 0
    }
  ],
  "materials" : [
    {
      "name" : "MI_LKNVLD_Plaster_Backdrop_Red",
      "pbrMetallicRoughness" : {
        "baseColorFactor" : [ 0.3, 0.3, 0.3, 1.0 ],
        "metallicFactor" : 0.1,
        "roughnessFactor" : 0.5
      }
    },
    {
      "name" : "MI_ENV_LKNVLD_MetalRoof_RedYellow",
      "pbrMetallicRoughness" : {
        "baseColorFactor" : [ 0.9, 0.3, 0.3, 1.0 ],
        "metallicFactor" : 0.1,
        "roughnessFactor" : 0.5
      }
    },
    {
      "name" : "MI_ENV_LKNVLD_Door_E",
      "pbrMetallicRoughness" : {
        "baseColorFactor" : [ 0.3, 0.9, 0.3, 1.0 ],
        "metallicFactor" : 0.1,
        "roughnessFactor" : 0.5
      }
    },
    {
      "name" : "MI_ENV_LKNVLD_WoodBoard_Natural_Lighter",
      "pbrMetallicRoughness" : {
        "baseColorFactor" : [ 0.3, 0.3, 0.9, 1.0 ],
        "metallicFactor" : 0.1,
        "roughnessFactor" : 0.5
      }
    },
    {
      "name" : "MI_ENV_LKNVLD_WoodBoard_Natural_Yellowed",
      "pbrMetallicRoughness" : {
        "baseColorFactor" : [ 0.9, 0.9, 0.9, 1.0 ],
        "metallicFactor" : 0.1,
        "roughnessFactor" : 0.5
      }
    },
    {
      "name" : "MI_ENV_LKNVLD_Windows_A",
      "pbrMetallicRoughness" : {
        "baseColorFactor" : [ 0.9, 0.9, 0.3, 1.0 ],
        "metallicFactor" : 0.1,
        "roughnessFactor" : 0.5
      }
    },
    {
      "name" : "MI_ENV_LKNVLD_ConcreteSlabs",
      "pbrMetallicRoughness" : {
        "baseColorFactor" : [ 0.9, 0.3, 0.9, 1.0 ],
        "metallicFactor" : 0.1,
        "roughnessFactor" : 0.5
      }
    },
    {
      "name" : "MI_ENV_LKNVLD03_Pipe_G",
      "pbrMetallicRoughness" : {
        "baseColorFactor" : [ 0.3, 0.9, 0.9, 1.0 ],
        "metallicFactor" : 0.1,
        "roughnessFactor" : 0.5
      }
    },
    {
      "name" : "MI_ENV_LKNVLD_ClanSignboard_L",
      "pbrMetallicRoughness" : {
        "baseColorFactor" : [ 1, 0.3, 0.3, 1.0 ],
        "metallicFactor" : 0.1,
        "roughnessFactor" : 0.5
      }
    },
    {
      "name" : "MI_ENV_LKNVLD_ClanSignboard_M",
      "pbrMetallicRoughness" : {
        "baseColorFactor" : [ 0.6, 0.3, 0.3, 1.0 ],
        "metallicFactor" : 0.1,
        "roughnessFactor" : 0.5
      }
    },
    {
      "name" : "MI_ENV_LKNVLD_WoodPlain_Red",
      "pbrMetallicRoughness" : {
        "baseColorFactor" : [ 1, 0.9, 0.3, 1.0 ],
        "metallicFactor" : 0.1,
        "roughnessFactor" : 0.5
      }
    },
    {
      "name" : "MI_ENV_LKNVLD_ConcreteSlabs_Dark",
      "pbrMetallicRoughness" : {
        "baseColorFactor" : [ 1, 0.3, 0.9, 1.0 ],
        "metallicFactor" : 0.1,
        "roughnessFactor" : 0.5
      }
    }
  ],
  "meshes" : [
    {
      "primitives" : [
        {
          "attributes" : {
            "POSITION" : 1,
            "NORMAL" : 2,
            "TANGENT" : 3,
            "TEXCOORD_0" : 4,
            "TEXCOORD_1" : 5,
            "TEXCOORD_2" : 6,
            "TEXCOORD_3" : 7
          },
          "indices" : 0,
          "material" : 0
        },
        {
          "attributes" : {
            "POSITION" : 9,
            "NORMAL" : 10,
            "TANGENT" : 11,
            "TEXCOORD_0" : 12,
            "TEXCOORD_1" : 13,
            "TEXCOORD_2" : 14,
            "TEXCOORD_3" : 15
          },
          "indices" : 8,
          "material" : 1
        },
        {
          "attributes" : {
            "POSITION" : 17,
            "NORMAL" : 18,
            "TANGENT" : 19,
            "TEXCOORD_0" : 20,
            "TEXCOORD_1" : 21,
            "TEXCOORD_2" : 22,
            "TEXCOORD_3" : 23
          },
          "indices" : 16,
          "material" : 2
        },
        {
          "attributes" : {
            "POSITION" : 25,
            "NORMAL" : 26,
            "TANGENT" : 27,
            "TEXCOORD_0" : 28,
            "TEXCOORD_1" : 29,
            "TEXCOORD_2" : 30,
            "TEXCOORD_3" : 31
          },
          "indices" : 24,
          "material" : 3
        },
        {
          "attributes" : {
            "POSITION" : 33,
            "NORMAL" : 34,
            "TANGENT" : 35,
            "TEXCOORD_0" : 36,
            "TEXCOORD_1" : 37,
            "TEXCOORD_2" : 38,
            "TEXCOORD_3" : 39
          },
          "indices" : 32,
          "material" : 4
        },
        {
          "attributes" : {
            "POSITION" : 41,
            "NORMAL" : 42,
            "TANGENT" : 43,
            "TEXCOORD_0" : 44,
            "TEXCOORD_1" : 45,
            "TEXCOORD_2" : 46,
            "TEXCOORD_3" : 47
          },
          "indices" : 40,
          "material" : 5
        },
        {
          "attributes" : {
            "POSITION" : 49,
            "NORMAL" : 50,
            "TANGENT" : 51,
            "TEXCOORD_0" : 52,
            "TEXCOORD_1" : 53,
            "TEXCOORD_2" : 54,
            "TEXCOORD_3" : 55
          },
          "indices" : 48,
          "material" : 6
        },
        {
          "attributes" : {
            "POSITION" : 57,
            "NORMAL" : 58,
            "TANGENT" : 59,
            "TEXCOORD_0" : 60,
            "TEXCOORD_1" : 61,
            "TEXCOORD_2" : 62,
            "TEXCOORD_3" : 63
          },
          "indices" : 56,
          "material" : 7
        },
        {
          "attributes" : {
            "POSITION" : 65,
            "NORMAL" : 66,
            "TANGENT" : 67,
            "TEXCOORD_0" : 68,
            "TEXCOORD_1" : 69,
            "TEXCOORD_2" : 70,
            "TEXCOORD_3" : 71
          },
          "indices" : 64,
          "material" : 8
        },
        {
          "attributes" : {
            "POSITION" : 73,
            "NORMAL" : 74,
            "TANGENT" : 75,
            "TEXCOORD_0" : 76,
            "TEXCOORD_1" : 77,
            "TEXCOORD_2" : 78,
            "TEXCOORD_3" : 79
          },
          "indices" : 72,
          "material" : 9
        },
        {
          "attributes" : {
            "POSITION" : 81,
            "NORMAL" : 82,
            "TANGENT" : 83,
            "TEXCOORD_0" : 84,
            "TEXCOORD_1" : 85,
            "TEXCOORD_2" : 86,
            "TEXCOORD_3" : 87
          },
          "indices" : 80,
          "material" : 10
        },
        {
          "attributes" : {
            "POSITION" : 89,
            "NORMAL" : 90,
            "TANGENT" : 91,
            "TEXCOORD_0" : 92,
            "TEXCOORD_1" : 93,
            "TEXCOORD_2" : 94,
            "TEXCOORD_3" : 95
          },
          "indices" : 88,
          "material" : 11
        }
      ],
      "name" : "SM_ENV_KNVLLG03_AreaD_Hokage_Building"
    }
  ],
  "buffers" : [
    {
      "uri" : "SM_ENV_KNVLLG03_AreaD_Hokage_Building.bin",
      "byteLength" : 2144704
    }
  ],
  "bufferViews" : [
    {
      "buffer" : 0,
      "byteOffset" : 0,
      "byteLength" : 9108
    },
    {
      "buffer" : 0,
      "byteOffset" : 9108,
      "byteLength" : 17880
    },
    {
      "buffer" : 0,
      "byteOffset" : 26988,
      "byteLength" : 17880
    },
    {
      "buffer" : 0,
      "byteOffset" : 44868,
      "byteLength" : 23840
    },
    {
      "buffer" : 0,
      "byteOffset" : 68708,
      "byteLength" : 11920
    },
    {
      "buffer" : 0,
      "byteOffset" : 80628,
      "byteLength" : 11920
    },
    {
      "buffer" : 0,
      "byteOffset" : 92548,
      "byteLength" : 11920
    },
    {
      "buffer" : 0,
      "byteOffset" : 104468,
      "byteLength" : 11920
    },
    {
      "buffer" : 0,
      "byteOffset" : 116388,
      "byteLength" : 23040
    },
    {
      "buffer" : 0,
      "byteOffset" : 139428,
      "byteLength" : 40548
    },
    {
      "buffer" : 0,
      "byteOffset" : 179976,
      "byteLength" : 40548
    },
    {
      "buffer" : 0,
      "byteOffset" : 220524,
      "byteLength" : 54064
    },
    {
      "buffer" : 0,
      "byteOffset" : 274588,
      "byteLength" : 27032
    },
    {
      "buffer" : 0,
      "byteOffset" : 301620,
      "byteLength" : 27032
    },
    {
      "buffer" : 0,
      "byteOffset" : 328652,
      "byteLength" : 27032
    },
    {
      "buffer" : 0,
      "byteOffset" : 355684,
      "byteLength" : 27032
    },
    {
      "buffer" : 0,
      "byteOffset" : 382716,
      "byteLength" : 72
    },
    {
      "buffer" : 0,
      "byteOffset" : 382788,
      "byteLength" : 288
    },
    {
      "buffer" : 0,
      "byteOffset" : 383076,
      "byteLength" : 288
    },
    {
      "buffer" : 0,
      "byteOffset" : 383364,
      "byteLength" : 384
    },
    {
      "buffer" : 0,
      "byteOffset" : 383748,
      "byteLength" : 192
    },
    {
      "buffer" : 0,
      "byteOffset" : 383940,
      "byteLength" : 192
    },
    {
      "buffer" : 0,
      "byteOffset" : 384132,
      "byteLength" : 192
    },
    {
      "buffer" : 0,
      "byteOffset" : 384324,
      "byteLength" : 192
    },
    {
      "buffer" : 0,
      "byteOffset" : 384516,
      "byteLength" : 31320
    },
    {
      "buffer" : 0,
      "byteOffset" : 415836,
      "byteLength" : 111408
    },
    {
      "buffer" : 0,
      "byteOffset" : 527244,
      "byteLength" : 111408
    },
    {
      "buffer" : 0,
      "byteOffset" : 638652,
      "byteLength" : 148544
    },
    {
      "buffer" : 0,
      "byteOffset" : 787196,
      "byteLength" : 74272
    },
    {
      "buffer" : 0,
      "byteOffset" : 861468,
      "byteLength" : 74272
    },
    {
      "buffer" : 0,
      "byteOffset" : 935740,
      "byteLength" : 74272
    },
    {
      "buffer" : 0,
      "byteOffset" : 1010012,
      "byteLength" : 74272
    },
    {
      "buffer" : 0,
      "byteOffset" : 1084284,
      "byteLength" : 2208
    },
    {
      "buffer" : 0,
      "byteOffset" : 1086492,
      "byteLength" : 5208
    },
    {
      "buffer" : 0,
      "byteOffset" : 1091700,
      "byteLength" : 5208
    },
    {
      "buffer" : 0,
      "byteOffset" : 1096908,
      "byteLength" : 6944
    },
    {
      "buffer" : 0,
      "byteOffset" : 1103852,
      "byteLength" : 3472
    },
    {
      "buffer" : 0,
      "byteOffset" : 1107324,
      "byteLength" : 3472
    },
    {
      "buffer" : 0,
      "byteOffset" : 1110796,
      "byteLength" : 3472
    },
    {
      "buffer" : 0,
      "byteOffset" : 1114268,
      "byteLength" : 3472
    },
    {
      "buffer" : 0,
      "byteOffset" : 1117740,
      "byteLength" : 624
    },
    {
      "buffer" : 0,
      "byteOffset" : 1118364,
      "byteLength" : 2304
    },
    {
      "buffer" : 0,
      "byteOffset" : 1120668,
      "byteLength" : 2304
    },
    {
      "buffer" : 0,
      "byteOffset" : 1122972,
      "byteLength" : 3072
    },
    {
      "buffer" : 0,
      "byteOffset" : 1126044,
      "byteLength" : 1536
    },
    {
      "buffer" : 0,
      "byteOffset" : 1127580,
      "byteLength" : 1536
    },
    {
      "buffer" : 0,
      "byteOffset" : 1129116,
      "byteLength" : 1536
    },
    {
      "buffer" : 0,
      "byteOffset" : 1130652,
      "byteLength" : 1536
    },
    {
      "buffer" : 0,
      "byteOffset" : 1132188,
      "byteLength" : 14012
    },
    {
      "buffer" : 0,
      "byteOffset" : 1146200,
      "byteLength" : 30624
    },
    {
      "buffer" : 0,
      "byteOffset" : 1176824,
      "byteLength" : 30624
    },
    {
      "buffer" : 0,
      "byteOffset" : 1207448,
      "byteLength" : 40832
    },
    {
      "buffer" : 0,
      "byteOffset" : 1248280,
      "byteLength" : 20416
    },
    {
      "buffer" : 0,
      "byteOffset" : 1268696,
      "byteLength" : 20416
    },
    {
      "buffer" : 0,
      "byteOffset" : 1289112,
      "byteLength" : 20416
    },
    {
      "buffer" : 0,
      "byteOffset" : 1309528,
      "byteLength" : 20416
    },
    {
      "buffer" : 0,
      "byteOffset" : 1329944,
      "byteLength" : 60504
    },
    {
      "buffer" : 0,
      "byteOffset" : 1390448,
      "byteLength" : 111588
    },
    {
      "buffer" : 0,
      "byteOffset" : 1502036,
      "byteLength" : 111588
    },
    {
      "buffer" : 0,
      "byteOffset" : 1613624,
      "byteLength" : 148784
    },
    {
      "buffer" : 0,
      "byteOffset" : 1762408,
      "byteLength" : 74392
    },
    {
      "buffer" : 0,
      "byteOffset" : 1836800,
      "byteLength" : 74392
    },
    {
      "buffer" : 0,
      "byteOffset" : 1911192,
      "byteLength" : 74392
    },
    {
      "buffer" : 0,
      "byteOffset" : 1985584,
      "byteLength" : 74392
    },
    {
      "buffer" : 0,
      "byteOffset" : 2059976,
      "byteLength" : 12
    },
    {
      "buffer" : 0,
      "byteOffset" : 2059988,
      "byteLength" : 48
    },
    {
      "buffer" : 0,
      "byteOffset" : 2060036,
      "byteLength" : 48
    },
    {
      "buffer" : 0,
      "byteOffset" : 2060084,
      "byteLength" : 64
    },
    {
      "buffer" : 0,
      "byteOffset" : 2060148,
      "byteLength" : 32
    },
    {
      "buffer" : 0,
      "byteOffset" : 2060180,
      "byteLength" : 32
    },
    {
      "buffer" : 0,
      "byteOffset" : 2060212,
      "byteLength" : 32
    },
    {
      "buffer" : 0,
      "byteOffset" : 2060244,
      "byteLength" : 32
    },
    {
      "buffer" : 0,
      "byteOffset" : 2060276,
      "byteLength" : 1512
    },
    {
      "buffer" : 0,
      "byteOffset" : 2061788,
      "byteLength" : 3432
    },
    {
      "buffer" : 0,
      "byteOffset" : 2065220,
      "byteLength" : 3432
    },
    {
      "buffer" : 0,
      "byteOffset" : 2068652,
      "byteLength" : 4576
    },
    {
      "buffer" : 0,
      "byteOffset" : 2073228,
      "byteLength" : 2288
    },
    {
      "buffer" : 0,
      "byteOffset" : 2075516,
      "byteLength" : 2288
    },
    {
      "buffer" : 0,
      "byteOffset" : 2077804,
      "byteLength" : 2288
    },
    {
      "buffer" : 0,
      "byteOffset" : 2080092,
      "byteLength" : 2288
    },
    {
      "buffer" : 0,
      "byteOffset" : 2082380,
      "byteLength" : 2064
    },
    {
      "buffer" : 0,
      "byteOffset" : 2084444,
      "byteLength" : 4416
    },
    {
      "buffer" : 0,
      "byteOffset" : 2088860,
      "byteLength" : 4416
    },
    {
      "buffer" : 0,
      "byteOffset" : 2093276,
      "byteLength" : 5888
    },
    {
      "buffer" : 0,
      "byteOffset" : 2099164,
      "byteLength" : 2944
    },
    {
      "buffer" : 0,
      "byteOffset" : 2102108,
      "byteLength" : 2944
    },
    {
      "buffer" : 0,
      "byteOffset" : 2105052,
      "byteLength" : 2944
    },
    {
      "buffer" : 0,
      "byteOffset" : 2107996,
      "byteLength" : 2944
    },
    {
      "buffer" : 0,
      "byteOffset" : 2110940,
      "byteLength" : 2444
    },
    {
      "buffer" : 0,
      "byteOffset" : 2113384,
      "byteLength" : 5220
    },
    {
      "buffer" : 0,
      "byteOffset" : 2118604,
      "byteLength" : 5220
    },
    {
      "buffer" : 0,
      "byteOffset" : 2123824,
      "byteLength" : 6960
    },
    {
      "buffer" : 0,
      "byteOffset" : 2130784,
      "byteLength" : 3480
    },
    {
      "buffer" : 0,
      "byteOffset" : 2134264,
      "byteLength" : 3480
    },
    {
      "buffer" : 0,
      "byteOffset" : 2137744,
      "byteLength" : 3480
    },
    {
      "buffer" : 0,
      "byteOffset" : 2141224,
      "byteLength" : 3480
    }
  ],
  "accessors" : [
    {
      "bufferView" : 0,
      "componentType" : 5123,
      "count" : 4554,
      "type" : "SCALAR"
    },
    {
      "bufferView" : 1,
      "min" : [ -34.4573, 18.976, -144.522 ],
      "max" : [ 34.4573, 44.4152, -100.817 ],
      "componentType" : 5126,
      "count" : 1490,
      "type" : "VEC3"
    },
    {
      "bufferView" : 2,
      "componentType" : 5126,
      "count" : 1490,
      "type" : "VEC3"
    },
    {
      "bufferView" : 3,
      "componentType" : 5126,
      "count" : 1490,
      "type" : "VEC4"
    },
    {
      "bufferView" : 4,
      "componentType" : 5126,
      "count" : 1490,
      "type" : "VEC2"
    },
    {
      "bufferView" : 5,
      "componentType" : 5126,
      "count" : 1490,
      "type" : "VEC2"
    },
    {
      "bufferView" : 6,
      "componentType" : 5126,
      "count" : 1490,
      "type" : "VEC2"
    },
    {
      "bufferView" : 7,
      "componentType" : 5126,
      "count" : 1490,
      "type" : "VEC2"
    },
    {
      "bufferView" : 8,
      "componentType" : 5123,
      "count" : 11520,
      "type" : "SCALAR"
    },
    {
      "bufferView" : 9,
      "min" : [ -35.4436, 22.4011, -145.511 ],
      "max" : [ 35.4436, 43.9657, -99.9908 ],
      "componentType" : 5126,
      "count" : 3379,
      "type" : "VEC3"
    },
    {
      "bufferView" : 10,
      "componentType" : 5126,
      "count" : 3379,
      "type" : "VEC3"
    },
    {
      "bufferView" : 11,
      "componentType" : 5126,
      "count" : 3379,
      "type" : "VEC4"
    },
    {
      "bufferView" : 12,
      "componentType" : 5126,
      "count" : 3379,
      "type" : "VEC2"
    },
    {
      "bufferView" : 13,
      "componentType" : 5126,
      "count" : 3379,
      "type" : "VEC2"
    },
    {
      "bufferView" : 14,
      "componentType" : 5126,
      "count" : 3379,
      "type" : "VEC2"
    },
    {
      "bufferView" : 15,
      "componentType" : 5126,
      "count" : 3379,
      "type" : "VEC2"
    },
    {
      "bufferView" : 16,
      "componentType" : 5123,
      "count" : 36,
      "type" : "SCALAR"
    },
    {
      "bufferView" : 17,
      "min" : [ -17.9508, 19.1183, -120.337 ],
      "max" : [ 23.7945, 22.3561, -103.512 ],
      "componentType" : 5126,
      "count" : 24,
      "type" : "VEC3"
    },
    {
      "bufferView" : 18,
      "componentType" : 5126,
      "count" : 24,
      "type" : "VEC3"
    },
    {
      "bufferView" : 19,
      "componentType" : 5126,
      "count" : 24,
      "type" : "VEC4"
    },
    {
      "bufferView" : 20,
      "componentType" : 5126,
      "count" : 24,
      "type" : "VEC2"
    },
    {
      "bufferView" : 21,
      "componentType" : 5126,
      "count" : 24,
      "type" : "VEC2"
    },
    {
      "bufferView" : 22,
      "componentType" : 5126,
      "count" : 24,
      "type" : "VEC2"
    },
    {
      "bufferView" : 23,
      "componentType" : 5126,
      "count" : 24,
      "type" : "VEC2"
    },
    {
      "bufferView" : 24,
      "componentType" : 5123,
      "count" : 15660,
      "type" : "SCALAR"
    },
    {
      "bufferView" : 25,
      "min" : [ -34.9089, 19.0251, -144.954 ],
      "max" : [ 34.8898, 44.0467, -100.911 ],
      "componentType" : 5126,
      "count" : 9284,
      "type" : "VEC3"
    },
    {
      "bufferView" : 26,
      "componentType" : 5126,
      "count" : 9284,
      "type" : "VEC3"
    },
    {
      "bufferView" : 27,
      "componentType" : 5126,
      "count" : 9284,
      "type" : "VEC4"
    },
    {
      "bufferView" : 28,
      "componentType" : 5126,
      "count" : 9284,
      "type" : "VEC2"
    },
    {
      "bufferView" : 29,
      "componentType" : 5126,
      "count" : 9284,
      "type" : "VEC2"
    },
    {
      "bufferView" : 30,
      "componentType" : 5126,
      "count" : 9284,
      "type" : "VEC2"
    },
    {
      "bufferView" : 31,
      "componentType" : 5126,
      "count" : 9284,
      "type" : "VEC2"
    },
    {
      "bufferView" : 32,
      "componentType" : 5123,
      "count" : 1104,
      "type" : "SCALAR"
    },
    {
      "bufferView" : 33,
      "min" : [ -34.3348, 19.001, -144.492 ],
      "max" : [ 34.138, 43.0007, -100.953 ],
      "componentType" : 5126,
      "count" : 434,
      "type" : "VEC3"
    },
    {
      "bufferView" : 34,
      "componentType" : 5126,
      "count" : 434,
      "type" : "VEC3"
    },
    {
      "bufferView" : 35,
      "componentType" : 5126,
      "count" : 434,
      "type" : "VEC4"
    },
    {
      "bufferView" : 36,
      "componentType" : 5126,
      "count" : 434,
      "type" : "VEC2"
    },
    {
      "bufferView" : 37,
      "componentType" : 5126,
      "count" : 434,
      "type" : "VEC2"
    },
    {
      "bufferView" : 38,
      "componentType" : 5126,
      "count" : 434,
      "type" : "VEC2"
    },
    {
      "bufferView" : 39,
      "componentType" : 5126,
      "count" : 434,
      "type" : "VEC2"
    },
    {
      "bufferView" : 40,
      "componentType" : 5123,
      "count" : 312,
      "type" : "SCALAR"
    },
    {
      "bufferView" : 41,
      "min" : [ -33.9368, 21.4655, -143.653 ],
      "max" : [ 33.74, 43.984, -103.023 ],
      "componentType" : 5126,
      "count" : 192,
      "type" : "VEC3"
    },
    {
      "bufferView" : 42,
      "componentType" : 5126,
      "count" : 192,
      "type" : "VEC3"
    },
    {
      "bufferView" : 43,
      "componentType" : 5126,
      "count" : 192,
      "type" : "VEC4"
    },
    {
      "bufferView" : 44,
      "componentType" : 5126,
      "count" : 192,
      "type" : "VEC2"
    },
    {
      "bufferView" : 45,
      "componentType" : 5126,
      "count" : 192,
      "type" : "VEC2"
    },
    {
      "bufferView" : 46,
      "componentType" : 5126,
      "count" : 192,
      "type" : "VEC2"
    },
    {
      "bufferView" : 47,
      "componentType" : 5126,
      "count" : 192,
      "type" : "VEC2"
    },
    {
      "bufferView" : 48,
      "componentType" : 5123,
      "count" : 7005,
      "type" : "SCALAR"
    },
    {
      "bufferView" : 49,
      "min" : [ -36.4604, 18.0739, -146.618 ],
      "max" : [ 36.4604, 51.7903, -98.9619 ],
      "componentType" : 5126,
      "count" : 2552,
      "type" : "VEC3"
    },
    {
      "bufferView" : 50,
      "componentType" : 5126,
      "count" : 2552,
      "type" : "VEC3"
    },
    {
      "bufferView" : 51,
      "componentType" : 5126,
      "count" : 2552,
      "type" : "VEC4"
    },
    {
      "bufferView" : 52,
      "componentType" : 5126,
      "count" : 2552,
      "type" : "VEC2"
    },
    {
      "bufferView" : 53,
      "componentType" : 5126,
      "count" : 2552,
      "type" : "VEC2"
    },
    {
      "bufferView" : 54,
      "componentType" : 5126,
      "count" : 2552,
      "type" : "VEC2"
    },
    {
      "bufferView" : 55,
      "componentType" : 5126,
      "count" : 2552,
      "type" : "VEC2"
    },
    {
      "bufferView" : 56,
      "componentType" : 5123,
      "count" : 30252,
      "type" : "SCALAR"
    },
    {
      "bufferView" : 57,
      "min" : [ -34.3257, 25.0965, -144.378 ],
      "max" : [ 34.2599, 45.8893, -101.006 ],
      "componentType" : 5126,
      "count" : 9299,
      "type" : "VEC3"
    },
    {
      "bufferView" : 58,
      "componentType" : 5126,
      "count" : 9299,
      "type" : "VEC3"
    },
    {
      "bufferView" : 59,
      "componentType" : 5126,
      "count" : 9299,
      "type" : "VEC4"
    },
    {
      "bufferView" : 60,
      "componentType" : 5126,
      "count" : 9299,
      "type" : "VEC2"
    },
    {
      "bufferView" : 61,
      "componentType" : 5126,
      "count" : 9299,
      "type" : "VEC2"
    },
    {
      "bufferView" : 62,
      "componentType" : 5126,
      "count" : 9299,
      "type" : "VEC2"
    },
    {
      "bufferView" : 63,
      "componentType" : 5126,
      "count" : 9299,
      "type" : "VEC2"
    },
    {
      "bufferView" : 64,
      "componentType" : 5123,
      "count" : 6,
      "type" : "SCALAR"
    },
    {
      "bufferView" : 65,
      "min" : [ -1.68528, 23.4185, -102.469 ],
      "max" : [ 1.625, 24.4559, -101.947 ],
      "componentType" : 5126,
      "count" : 4,
      "type" : "VEC3"
    },
    {
      "bufferView" : 66,
      "componentType" : 5126,
      "count" : 4,
      "type" : "VEC3"
    },
    {
      "bufferView" : 67,
      "componentType" : 5126,
      "count" : 4,
      "type" : "VEC4"
    },
    {
      "bufferView" : 68,
      "componentType" : 5126,
      "count" : 4,
      "type" : "VEC2"
    },
    {
      "bufferView" : 69,
      "componentType" : 5126,
      "count" : 4,
      "type" : "VEC2"
    },
    {
      "bufferView" : 70,
      "componentType" : 5126,
      "count" : 4,
      "type" : "VEC2"
    },
    {
      "bufferView" : 71,
      "componentType" : 5126,
      "count" : 4,
      "type" : "VEC2"
    },
    {
      "bufferView" : 72,
      "componentType" : 5123,
      "count" : 756,
      "type" : "SCALAR"
    },
    {
      "bufferView" : 73,
      "min" : [ -2.46242, 38.9743, -107.809 ],
      "max" : [ 2.49827, 42.8149, -106.16 ],
      "componentType" : 5126,
      "count" : 286,
      "type" : "VEC3"
    },
    {
      "bufferView" : 74,
      "componentType" : 5126,
      "count" : 286,
      "type" : "VEC3"
    },
    {
      "bufferView" : 75,
      "componentType" : 5126,
      "count" : 286,
      "type" : "VEC4"
    },
    {
      "bufferView" : 76,
      "componentType" : 5126,
      "count" : 286,
      "type" : "VEC2"
    },
    {
      "bufferView" : 77,
      "componentType" : 5126,
      "count" : 286,
      "type" : "VEC2"
    },
    {
      "bufferView" : 78,
      "componentType" : 5126,
      "count" : 286,
      "type" : "VEC2"
    },
    {
      "bufferView" : 79,
      "componentType" : 5126,
      "count" : 286,
      "type" : "VEC2"
    },
    {
      "bufferView" : 80,
      "componentType" : 5123,
      "count" : 1032,
      "type" : "SCALAR"
    },
    {
      "bufferView" : 81,
      "min" : [ -13.8187, 36.6246, -133.264 ],
      "max" : [ 13.8194, 42.8082, -105.676 ],
      "componentType" : 5126,
      "count" : 368,
      "type" : "VEC3"
    },
    {
      "bufferView" : 82,
      "componentType" : 5126,
      "count" : 368,
      "type" : "VEC3"
    },
    {
      "bufferView" : 83,
      "componentType" : 5126,
      "count" : 368,
      "type" : "VEC4"
    },
    {
      "bufferView" : 84,
      "componentType" : 5126,
      "count" : 368,
      "type" : "VEC2"
    },
    {
      "bufferView" : 85,
      "componentType" : 5126,
      "count" : 368,
      "type" : "VEC2"
    },
    {
      "bufferView" : 86,
      "componentType" : 5126,
      "count" : 368,
      "type" : "VEC2"
    },
    {
      "bufferView" : 87,
      "componentType" : 5126,
      "count" : 368,
      "type" : "VEC2"
    },
    {
      "bufferView" : 88,
      "componentType" : 5123,
      "count" : 1221,
      "type" : "SCALAR"
    },
    {
      "bufferView" : 89,
      "min" : [ -31.8864, 19.0251, -142.044 ],
      "max" : [ 31.8864, 27.6844, -102.42 ],
      "componentType" : 5126,
      "count" : 435,
      "type" : "VEC3"
    },
    {
      "bufferView" : 90,
      "componentType" : 5126,
      "count" : 435,
      "type" : "VEC3"
    },
    {
      "bufferView" : 91,
      "componentType" : 5126,
      "count" : 435,
      "type" : "VEC4"
    },
    {
      "bufferView" : 92,
      "componentType" : 5126,
      "count" : 435,
      "type" : "VEC2"
    },
    {
      "bufferView" : 93,
      "componentType" : 5126,
      "count" : 435,
      "type" : "VEC2"
    },
    {
      "bufferView" : 94,
      "componentType" : 5126,
      "count" : 435,
      "type" : "VEC2"
    },
    {
      "bufferView" : 95,
      "componentType" : 5126,
      "count" : 435,
      "type" : "VEC2"
    }
  ]
}
