{
  "asset" : {
    "generator" : "UE Viewer (umodel) build 1544 based",
    "version" : "2.0"
  },
  "scene" : 0,
  "scenes" : [
    {
      "nodes" : [ 0 ]
    }
  ],
  "nodes" : [
    {
      "name" : "SM_ENV_KNVLLG03_Tree_Distance_B",
      "mesh" : 0
    }
  ],
  "materials" : [
    {
      "name" : "MI_ENV_KNVLLG_DistanceTree_B",
      "pbrMetallicRoughness" : {
        "baseColorFactor" : [ 0.3, 0.3, 0.3, 1.0 ],
        "metallicFactor" : 0.1,
        "roughnessFactor" : 0.5
      }
    },
    {
      "name" : "MI_ENV_TCHEXA_Leaf_A_01",
      "pbrMetallicRoughness" : {
        "baseColorFactor" : [ 0.9, 0.3, 0.3, 1.0 ],
        "metallicFactor" : 0.1,
        "roughnessFactor" : 0.5
      }
    },
    {
      "name" : "MI_ENV_TCHEXA_Tree_A_Masked_CameraTrans",
      "pbrMetallicRoughness" : {
        "baseColorFactor" : [ 0.3, 0.9, 0.3, 1.0 ],
        "metallicFactor" : 0.1,
        "roughnessFactor" : 0.5
      }
    }
  ],
  "meshes" : [
    {
      "primitives" : [
        {
          "attributes" : {
            "POSITION" : 1,
            "NORMAL" : 2,
            "TANGENT" : 3,
            "COLOR_0" : 4,
            "TEXCOORD_0" : 5,
            "TEXCOORD_1" : 6,
            "TEXCOORD_2" : 7,
            "TEXCOORD_3" : 8
          },
          "indices" : 0,
          "material" : 0
        },
        {
          "attributes" : {
            "POSITION" : 10,
            "NORMAL" : 11,
            "TANGENT" : 12,
            "COLOR_0" : 13,
            "TEXCOORD_0" : 14,
            "TEXCOORD_1" : 15,
            "TEXCOORD_2" : 16,
            "TEXCOORD_3" : 17
          },
          "indices" : 9,
          "material" : 1
        },
        {
          "attributes" : {
            "POSITION" : 19,
            "NORMAL" : 20,
            "TANGENT" : 21,
            "COLOR_0" : 22,
            "TEXCOORD_0" : 23,
            "TEXCOORD_1" : 24,
            "TEXCOORD_2" : 25,
            "TEXCOORD_3" : 26
          },
          "indices" : 18,
          "material" : 2
        }
      ],
      "name" : "SM_ENV_KNVLLG03_Tree_Distance_B"
    }
  ],
  "buffers" : [
    {
      "uri" : "SM_ENV_KNVLLG03_Tree_Distance_B.bin",
      "byteLength" : 1338032
    }
  ],
  "bufferViews" : [
    {
      "buffer" : 0,
      "byteOffset" : 0,
      "byteLength" : 50328
    },
    {
      "buffer" : 0,
      "byteOffset" : 50328,
      "byteLength" : 71928
    },
    {
      "buffer" : 0,
      "byteOffset" : 122256,
      "byteLength" : 71928
    },
    {
      "buffer" : 0,
      "byteOffset" : 194184,
      "byteLength" : 95904
    },
    {
      "buffer" : 0,
      "byteOffset" : 290088,
      "byteLength" : 23976
    },
    {
      "buffer" : 0,
      "byteOffset" : 314064,
      "byteLength" : 47952
    },
    {
      "buffer" : 0,
      "byteOffset" : 362016,
      "byteLength" : 47952
    },
    {
      "buffer" : 0,
      "byteOffset" : 409968,
      "byteLength" : 47952
    },
    {
      "buffer" : 0,
      "byteOffset" : 457920,
      "byteLength" : 47952
    },
    {
      "buffer" : 0,
      "byteOffset" : 505872,
      "byteLength" : 32724
    },
    {
      "buffer" : 0,
      "byteOffset" : 538596,
      "byteLength" : 54972
    },
    {
      "buffer" : 0,
      "byteOffset" : 593568,
      "byteLength" : 54972
    },
    {
      "buffer" : 0,
      "byteOffset" : 648540,
      "byteLength" : 73296
    },
    {
      "buffer" : 0,
      "byteOffset" : 721836,
      "byteLength" : 18324
    },
    {
      "buffer" : 0,
      "byteOffset" : 740160,
      "byteLength" : 36648
    },
    {
      "buffer" : 0,
      "byteOffset" : 776808,
      "byteLength" : 36648
    },
    {
      "buffer" : 0,
      "byteOffset" : 813456,
      "byteLength" : 36648
    },
    {
      "buffer" : 0,
      "byteOffset" : 850104,
      "byteLength" : 36648
    },
    {
      "buffer" : 0,
      "byteOffset" : 886752,
      "byteLength" : 44984
    },
    {
      "buffer" : 0,
      "byteOffset" : 931736,
      "byteLength" : 64152
    },
    {
      "buffer" : 0,
      "byteOffset" : 995888,
      "byteLength" : 64152
    },
    {
      "buffer" : 0,
      "byteOffset" : 1060040,
      "byteLength" : 85536
    },
    {
      "buffer" : 0,
      "byteOffset" : 1145576,
      "byteLength" : 21384
    },
    {
      "buffer" : 0,
      "byteOffset" : 1166960,
      "byteLength" : 42768
    },
    {
      "buffer" : 0,
      "byteOffset" : 1209728,
      "byteLength" : 42768
    },
    {
      "buffer" : 0,
      "byteOffset" : 1252496,
      "byteLength" : 42768
    },
    {
      "buffer" : 0,
      "byteOffset" : 1295264,
      "byteLength" : 42768
    }
  ],
  "accessors" : [
    {
      "bufferView" : 0,
      "componentType" : 5123,
      "count" : 25164,
      "type" : "SCALAR"
    },
    {
      "bufferView" : 1,
      "min" : [ 64.9084, -0.915919, -159.842 ],
      "max" : [ 461.657, 32.119, 269.755 ],
      "componentType" : 5126,
      "count" : 5994,
      "type" : "VEC3"
    },
    {
      "bufferView" : 2,
      "componentType" : 5126,
      "count" : 5994,
      "type" : "VEC3"
    },
    {
      "bufferView" : 3,
      "componentType" : 5126,
      "count" : 5994,
      "type" : "VEC4"
    },
    {
      "bufferView" : 4,
      "normalized" : true,
      "componentType" : 5121,
      "count" : 5994,
      "type" : "VEC4"
    },
    {
      "bufferView" : 5,
      "componentType" : 5126,
      "count" : 5994,
      "type" : "VEC2"
    },
    {
      "bufferView" : 6,
      "componentType" : 5126,
      "count" : 5994,
      "type" : "VEC2"
    },
    {
      "bufferView" : 7,
      "componentType" : 5126,
      "count" : 5994,
      "type" : "VEC2"
    },
    {
      "bufferView" : 8,
      "componentType" : 5126,
      "count" : 5994,
      "type" : "VEC2"
    },
    {
      "bufferView" : 9,
      "componentType" : 5123,
      "count" : 16362,
      "type" : "SCALAR"
    },
    {
      "bufferView" : 10,
      "min" : [ 32.6986, 2.75122, -43.1136 ],
      "max" : [ 114.778, 15.7502, 69.5563 ],
      "componentType" : 5126,
      "count" : 4581,
      "type" : "VEC3"
    },
    {
      "bufferView" : 11,
      "componentType" : 5126,
      "count" : 4581,
      "type" : "VEC3"
    },
    {
      "bufferView" : 12,
      "componentType" : 5126,
      "count" : 4581,
      "type" : "VEC4"
    },
    {
      "bufferView" : 13,
      "normalized" : true,
      "componentType" : 5121,
      "count" : 4581,
      "type" : "VEC4"
    },
    {
      "bufferView" : 14,
      "componentType" : 5126,
      "count" : 4581,
      "type" : "VEC2"
    },
    {
      "bufferView" : 15,
      "componentType" : 5126,
      "count" : 4581,
      "type" : "VEC2"
    },
    {
      "bufferView" : 16,
      "componentType" : 5126,
      "count" : 4581,
      "type" : "VEC2"
    },
    {
      "bufferView" : 17,
      "componentType" : 5126,
      "count" : 4581,
      "type" : "VEC2"
    },
    {
      "bufferView" : 18,
      "componentType" : 5123,
      "count" : 22491,
      "type" : "SCALAR"
    },
    {
      "bufferView" : 19,
      "min" : [ 35.4217, -1.81441, -41.5429 ],
      "max" : [ 111.803, 11.3167, 68.7565 ],
      "componentType" : 5126,
      "count" : 5346,
      "type" : "VEC3"
    },
    {
      "bufferView" : 20,
      "componentType" : 5126,
      "count" : 5346,
      "type" : "VEC3"
    },
    {
      "bufferView" : 21,
      "componentType" : 5126,
      "count" : 5346,
      "type" : "VEC4"
    },
    {
      "bufferView" : 22,
      "normalized" : true,
      "componentType" : 5121,
      "count" : 5346,
      "type" : "VEC4"
    },
    {
      "bufferView" : 23,
      "componentType" : 5126,
      "count" : 5346,
      "type" : "VEC2"
    },
    {
      "bufferView" : 24,
      "componentType" : 5126,
      "count" : 5346,
      "type" : "VEC2"
    },
    {
      "bufferView" : 25,
      "componentType" : 5126,
      "count" : 5346,
      "type" : "VEC2"
    },
    {
      "bufferView" : 26,
      "componentType" : 5126,
      "count" : 5346,
      "type" : "VEC2"
    }
  ]
}
