{
  "asset" : {
    "generator" : "UE Viewer (umodel) build 1544 based",
    "version" : "2.0"
  },
  "scene" : 0,
  "scenes" : [
    {
      "nodes" : [ 0 ]
    }
  ],
  "nodes" : [
    {
      "name" : "SM_ENV_KNVLLG03_Ground_F",
      "mesh" : 0
    }
  ],
  "materials" : [
    {
      "name" : "MI_ENV_LKNVLD03_GroundSoil_A",
      "pbrMetallicRoughness" : {
        "baseColorFactor" : [ 0.3, 0.3, 0.3, 1.0 ],
        "metallicFactor" : 0.1,
        "roughnessFactor" : 0.5
      }
    },
    {
      "name" : "MI_ENV_LKNVLD_RoughTiles",
      "pbrMetallicRoughness" : {
        "baseColorFactor" : [ 0.9, 0.3, 0.3, 1.0 ],
        "metallicFactor" : 0.1,
        "roughnessFactor" : 0.5
      }
    },
    {
      "name" : "MI_ENV_LKNVLD_WoodBoard_Natural_Lighter",
      "pbrMetallicRoughness" : {
        "baseColorFactor" : [ 0.3, 0.9, 0.3, 1.0 ],
        "metallicFactor" : 0.1,
        "roughnessFactor" : 0.5
      }
    }
  ],
  "meshes" : [
    {
      "primitives" : [
        {
          "attributes" : {
            "POSITION" : 1,
            "NORMAL" : 2,
            "TANGENT" : 3,
            "COLOR_0" : 4,
            "TEXCOORD_0" : 5,
            "TEXCOORD_1" : 6,
            "TEXCOORD_2" : 7,
            "TEXCOORD_3" : 8
          },
          "indices" : 0,
          "material" : 0
        },
        {
          "attributes" : {
            "POSITION" : 10,
            "NORMAL" : 11,
            "TANGENT" : 12,
            "COLOR_0" : 13,
            "TEXCOORD_0" : 14,
            "TEXCOORD_1" : 15,
            "TEXCOORD_2" : 16,
            "TEXCOORD_3" : 17
          },
          "indices" : 9,
          "material" : 1
        },
        {
          "attributes" : {
            "POSITION" : 19,
            "NORMAL" : 20,
            "TANGENT" : 21,
            "COLOR_0" : 22,
            "TEXCOORD_0" : 23,
            "TEXCOORD_1" : 24,
            "TEXCOORD_2" : 25,
            "TEXCOORD_3" : 26
          },
          "indices" : 18,
          "material" : 2
        }
      ],
      "name" : "SM_ENV_KNVLLG03_Ground_F"
    }
  ],
  "buffers" : [
    {
      "uri" : "SM_ENV_KNVLLG03_Ground_F.bin",
      "byteLength" : 71240
    }
  ],
  "bufferViews" : [
    {
      "buffer" : 0,
      "byteOffset" : 0,
      "byteLength" : 1656
    },
    {
      "buffer" : 0,
      "byteOffset" : 1656,
      "byteLength" : 2412
    },
    {
      "buffer" : 0,
      "byteOffset" : 4068,
      "byteLength" : 2412
    },
    {
      "buffer" : 0,
      "byteOffset" : 6480,
      "byteLength" : 3216
    },
    {
      "buffer" : 0,
      "byteOffset" : 9696,
      "byteLength" : 804
    },
    {
      "buffer" : 0,
      "byteOffset" : 10500,
      "byteLength" : 1608
    },
    {
      "buffer" : 0,
      "byteOffset" : 12108,
      "byteLength" : 1608
    },
    {
      "buffer" : 0,
      "byteOffset" : 13716,
      "byteLength" : 1608
    },
    {
      "buffer" : 0,
      "byteOffset" : 15324,
      "byteLength" : 1608
    },
    {
      "buffer" : 0,
      "byteOffset" : 16932,
      "byteLength" : 288
    },
    {
      "buffer" : 0,
      "byteOffset" : 17220,
      "byteLength" : 672
    },
    {
      "buffer" : 0,
      "byteOffset" : 17892,
      "byteLength" : 672
    },
    {
      "buffer" : 0,
      "byteOffset" : 18564,
      "byteLength" : 896
    },
    {
      "buffer" : 0,
      "byteOffset" : 19460,
      "byteLength" : 224
    },
    {
      "buffer" : 0,
      "byteOffset" : 19684,
      "byteLength" : 448
    },
    {
      "buffer" : 0,
      "byteOffset" : 20132,
      "byteLength" : 448
    },
    {
      "buffer" : 0,
      "byteOffset" : 20580,
      "byteLength" : 448
    },
    {
      "buffer" : 0,
      "byteOffset" : 21028,
      "byteLength" : 448
    },
    {
      "buffer" : 0,
      "byteOffset" : 21476,
      "byteLength" : 2340
    },
    {
      "buffer" : 0,
      "byteOffset" : 23816,
      "byteLength" : 7488
    },
    {
      "buffer" : 0,
      "byteOffset" : 31304,
      "byteLength" : 7488
    },
    {
      "buffer" : 0,
      "byteOffset" : 38792,
      "byteLength" : 9984
    },
    {
      "buffer" : 0,
      "byteOffset" : 48776,
      "byteLength" : 2496
    },
    {
      "buffer" : 0,
      "byteOffset" : 51272,
      "byteLength" : 4992
    },
    {
      "buffer" : 0,
      "byteOffset" : 56264,
      "byteLength" : 4992
    },
    {
      "buffer" : 0,
      "byteOffset" : 61256,
      "byteLength" : 4992
    },
    {
      "buffer" : 0,
      "byteOffset" : 66248,
      "byteLength" : 4992
    }
  ],
  "accessors" : [
    {
      "bufferView" : 0,
      "componentType" : 5123,
      "count" : 828,
      "type" : "SCALAR"
    },
    {
      "bufferView" : 1,
      "min" : [ 12.8189, -0.140269, 4.01009 ],
      "max" : [ 34, 0.251046, 84.7806 ],
      "componentType" : 5126,
      "count" : 201,
      "type" : "VEC3"
    },
    {
      "bufferView" : 2,
      "componentType" : 5126,
      "count" : 201,
      "type" : "VEC3"
    },
    {
      "bufferView" : 3,
      "componentType" : 5126,
      "count" : 201,
      "type" : "VEC4"
    },
    {
      "bufferView" : 4,
      "normalized" : true,
      "componentType" : 5121,
      "count" : 201,
      "type" : "VEC4"
    },
    {
      "bufferView" : 5,
      "componentType" : 5126,
      "count" : 201,
      "type" : "VEC2"
    },
    {
      "bufferView" : 6,
      "componentType" : 5126,
      "count" : 201,
      "type" : "VEC2"
    },
    {
      "bufferView" : 7,
      "componentType" : 5126,
      "count" : 201,
      "type" : "VEC2"
    },
    {
      "bufferView" : 8,
      "componentType" : 5126,
      "count" : 201,
      "type" : "VEC2"
    },
    {
      "bufferView" : 9,
      "componentType" : 5123,
      "count" : 144,
      "type" : "SCALAR"
    },
    {
      "bufferView" : 10,
      "min" : [ 4.54162, -0.326117, 67.6524 ],
      "max" : [ 13.0614, 0.0695379, 85.7159 ],
      "componentType" : 5126,
      "count" : 56,
      "type" : "VEC3"
    },
    {
      "bufferView" : 11,
      "componentType" : 5126,
      "count" : 56,
      "type" : "VEC3"
    },
    {
      "bufferView" : 12,
      "componentType" : 5126,
      "count" : 56,
      "type" : "VEC4"
    },
    {
      "bufferView" : 13,
      "normalized" : true,
      "componentType" : 5121,
      "count" : 56,
      "type" : "VEC4"
    },
    {
      "bufferView" : 14,
      "componentType" : 5126,
      "count" : 56,
      "type" : "VEC2"
    },
    {
      "bufferView" : 15,
      "componentType" : 5126,
      "count" : 56,
      "type" : "VEC2"
    },
    {
      "bufferView" : 16,
      "componentType" : 5126,
      "count" : 56,
      "type" : "VEC2"
    },
    {
      "bufferView" : 17,
      "componentType" : 5126,
      "count" : 56,
      "type" : "VEC2"
    },
    {
      "bufferView" : 18,
      "componentType" : 5123,
      "count" : 1170,
      "type" : "SCALAR"
    },
    {
      "bufferView" : 19,
      "min" : [ 7.60497, -0.246213, 69.3136 ],
      "max" : [ 8.89467, -0.176744, 84.9411 ],
      "componentType" : 5126,
      "count" : 624,
      "type" : "VEC3"
    },
    {
      "bufferView" : 20,
      "componentType" : 5126,
      "count" : 624,
      "type" : "VEC3"
    },
    {
      "bufferView" : 21,
      "componentType" : 5126,
      "count" : 624,
      "type" : "VEC4"
    },
    {
      "bufferView" : 22,
      "normalized" : true,
      "componentType" : 5121,
      "count" : 624,
      "type" : "VEC4"
    },
    {
      "bufferView" : 23,
      "componentType" : 5126,
      "count" : 624,
      "type" : "VEC2"
    },
    {
      "bufferView" : 24,
      "componentType" : 5126,
      "count" : 624,
      "type" : "VEC2"
    },
    {
      "bufferView" : 25,
      "componentType" : 5126,
      "count" : 624,
      "type" : "VEC2"
    },
    {
      "bufferView" : 26,
      "componentType" : 5126,
      "count" : 624,
      "type" : "VEC2"
    }
  ]
}
