{
  "asset" : {
    "generator" : "UE Viewer (umodel) build 1544 based",
    "version" : "2.0"
  },
  "scene" : 0,
  "scenes" : [
    {
      "nodes" : [ 0 ]
    }
  ],
  "nodes" : [
    {
      "name" : "SM_ENV_LKNVLD03_CommonBuilding_A",
      "mesh" : 0
    }
  ],
  "materials" : [
    {
      "name" : "MI_ENV_LKNVLD_CommonBuilding_A",
      "pbrMetallicRoughness" : {
        "baseColorFactor" : [ 0.3, 0.3, 0.3, 1.0 ],
        "metallicFactor" : 0.1,
        "roughnessFactor" : 0.5
      }
    },
    {
      "name" : "MI_ENV_LKNVLD_Windows_A",
      "pbrMetallicRoughness" : {
        "baseColorFactor" : [ 0.9, 0.3, 0.3, 1.0 ],
        "metallicFactor" : 0.1,
        "roughnessFactor" : 0.5
      }
    },
    {
      "name" : "MI_ENV_LKNVLD_Signboard_A",
      "pbrMetallicRoughness" : {
        "baseColorFactor" : [ 0.3, 0.9, 0.3, 1.0 ],
        "metallicFactor" : 0.1,
        "roughnessFactor" : 0.5
      }
    }
  ],
  "meshes" : [
    {
      "primitives" : [
        {
          "attributes" : {
            "POSITION" : 1,
            "NORMAL" : 2,
            "TANGENT" : 3,
            "TEXCOORD_0" : 4,
            "TEXCOORD_1" : 5,
            "TEXCOORD_2" : 6,
            "TEXCOORD_3" : 7
          },
          "indices" : 0,
          "material" : 0
        },
        {
          "attributes" : {
            "POSITION" : 9,
            "NORMAL" : 10,
            "TANGENT" : 11,
            "TEXCOORD_0" : 12,
            "TEXCOORD_1" : 13,
            "TEXCOORD_2" : 14,
            "TEXCOORD_3" : 15
          },
          "indices" : 8,
          "material" : 1
        },
        {
          "attributes" : {
            "POSITION" : 17,
            "NORMAL" : 18,
            "TANGENT" : 19,
            "TEXCOORD_0" : 20,
            "TEXCOORD_1" : 21,
            "TEXCOORD_2" : 22,
            "TEXCOORD_3" : 23
          },
          "indices" : 16,
          "material" : 2
        }
      ],
      "name" : "SM_ENV_LKNVLD03_CommonBuilding_A"
    }
  ],
  "buffers" : [
    {
      "uri" : "SM_ENV_LKNVLD03_CommonBuilding_A.bin",
      "byteLength" : 1000808
    }
  ],
  "bufferViews" : [
    {
      "buffer" : 0,
      "byteOffset" : 0,
      "byteLength" : 49752
    },
    {
      "buffer" : 0,
      "byteOffset" : 49752,
      "byteLength" : 151740
    },
    {
      "buffer" : 0,
      "byteOffset" : 201492,
      "byteLength" : 151740
    },
    {
      "buffer" : 0,
      "byteOffset" : 353232,
      "byteLength" : 202320
    },
    {
      "buffer" : 0,
      "byteOffset" : 555552,
      "byteLength" : 101160
    },
    {
      "buffer" : 0,
      "byteOffset" : 656712,
      "byteLength" : 101160
    },
    {
      "buffer" : 0,
      "byteOffset" : 757872,
      "byteLength" : 101160
    },
    {
      "buffer" : 0,
      "byteOffset" : 859032,
      "byteLength" : 101160
    },
    {
      "buffer" : 0,
      "byteOffset" : 960192,
      "byteLength" : 1536
    },
    {
      "buffer" : 0,
      "byteOffset" : 961728,
      "byteLength" : 6144
    },
    {
      "buffer" : 0,
      "byteOffset" : 967872,
      "byteLength" : 6144
    },
    {
      "buffer" : 0,
      "byteOffset" : 974016,
      "byteLength" : 8192
    },
    {
      "buffer" : 0,
      "byteOffset" : 982208,
      "byteLength" : 4096
    },
    {
      "buffer" : 0,
      "byteOffset" : 986304,
      "byteLength" : 4096
    },
    {
      "buffer" : 0,
      "byteOffset" : 990400,
      "byteLength" : 4096
    },
    {
      "buffer" : 0,
      "byteOffset" : 994496,
      "byteLength" : 4096
    },
    {
      "buffer" : 0,
      "byteOffset" : 998592,
      "byteLength" : 128
    },
    {
      "buffer" : 0,
      "byteOffset" : 998720,
      "byteLength" : 348
    },
    {
      "buffer" : 0,
      "byteOffset" : 999068,
      "byteLength" : 348
    },
    {
      "buffer" : 0,
      "byteOffset" : 999416,
      "byteLength" : 464
    },
    {
      "buffer" : 0,
      "byteOffset" : 999880,
      "byteLength" : 232
    },
    {
      "buffer" : 0,
      "byteOffset" : 1000112,
      "byteLength" : 232
    },
    {
      "buffer" : 0,
      "byteOffset" : 1000344,
      "byteLength" : 232
    },
    {
      "buffer" : 0,
      "byteOffset" : 1000576,
      "byteLength" : 232
    }
  ],
  "accessors" : [
    {
      "bufferView" : 0,
      "componentType" : 5123,
      "count" : 24876,
      "type" : "SCALAR"
    },
    {
      "bufferView" : 1,
      "min" : [ -17.5048, 0, -12.0666 ],
      "max" : [ 17.5048, 42.0031, 12.0666 ],
      "componentType" : 5126,
      "count" : 12645,
      "type" : "VEC3"
    },
    {
      "bufferView" : 2,
      "componentType" : 5126,
      "count" : 12645,
      "type" : "VEC3"
    },
    {
      "bufferView" : 3,
      "componentType" : 5126,
      "count" : 12645,
      "type" : "VEC4"
    },
    {
      "bufferView" : 4,
      "componentType" : 5126,
      "count" : 12645,
      "type" : "VEC2"
    },
    {
      "bufferView" : 5,
      "componentType" : 5126,
      "count" : 12645,
      "type" : "VEC2"
    },
    {
      "bufferView" : 6,
      "componentType" : 5126,
      "count" : 12645,
      "type" : "VEC2"
    },
    {
      "bufferView" : 7,
      "componentType" : 5126,
      "count" : 12645,
      "type" : "VEC2"
    },
    {
      "bufferView" : 8,
      "componentType" : 5123,
      "count" : 768,
      "type" : "SCALAR"
    },
    {
      "bufferView" : 9,
      "min" : [ -13.8759, 11.6656, -6.76029 ],
      "max" : [ 13.8759, 40.218, 6.76029 ],
      "componentType" : 5126,
      "count" : 512,
      "type" : "VEC3"
    },
    {
      "bufferView" : 10,
      "componentType" : 5126,
      "count" : 512,
      "type" : "VEC3"
    },
    {
      "bufferView" : 11,
      "componentType" : 5126,
      "count" : 512,
      "type" : "VEC4"
    },
    {
      "bufferView" : 12,
      "componentType" : 5126,
      "count" : 512,
      "type" : "VEC2"
    },
    {
      "bufferView" : 13,
      "componentType" : 5126,
      "count" : 512,
      "type" : "VEC2"
    },
    {
      "bufferView" : 14,
      "componentType" : 5126,
      "count" : 512,
      "type" : "VEC2"
    },
    {
      "bufferView" : 15,
      "componentType" : 5126,
      "count" : 512,
      "type" : "VEC2"
    },
    {
      "bufferView" : 16,
      "componentType" : 5123,
      "count" : 63,
      "type" : "SCALAR"
    },
    {
      "bufferView" : 17,
      "min" : [ -17.5275, 11.1359, -0.557842 ],
      "max" : [ 17.5275, 41.5846, 0.629253 ],
      "componentType" : 5126,
      "count" : 29,
      "type" : "VEC3"
    },
    {
      "bufferView" : 18,
      "componentType" : 5126,
      "count" : 29,
      "type" : "VEC3"
    },
    {
      "bufferView" : 19,
      "componentType" : 5126,
      "count" : 29,
      "type" : "VEC4"
    },
    {
      "bufferView" : 20,
      "componentType" : 5126,
      "count" : 29,
      "type" : "VEC2"
    },
    {
      "bufferView" : 21,
      "componentType" : 5126,
      "count" : 29,
      "type" : "VEC2"
    },
    {
      "bufferView" : 22,
      "componentType" : 5126,
      "count" : 29,
      "type" : "VEC2"
    },
    {
      "bufferView" : 23,
      "componentType" : 5126,
      "count" : 29,
      "type" : "VEC2"
    }
  ]
}
