{
  "asset" : {
    "generator" : "UE Viewer (umodel) build 1544 based",
    "version" : "2.0"
  },
  "scene" : 0,
  "scenes" : [
    {
      "nodes" : [ 0 ]
    }
  ],
  "nodes" : [
    {
      "name" : "SM_ENV_KNVLLG03_AreaF_BuildingB",
      "mesh" : 0
    }
  ],
  "materials" : [
    {
      "name" : "MI_ENV_LKNVLD_Plaster",
      "pbrMetallicRoughness" : {
        "baseColorFactor" : [ 0.3, 0.3, 0.3, 1.0 ],
        "metallicFactor" : 0.1,
        "roughnessFactor" : 0.5
      }
    },
    {
      "name" : "MI_ENV_LKNVLD_Windows_A",
      "pbrMetallicRoughness" : {
        "baseColorFactor" : [ 0.9, 0.3, 0.3, 1.0 ],
        "metallicFactor" : 0.1,
        "roughnessFactor" : 0.5
      }
    },
    {
      "name" : "MI_ENV_LKNVLD_WoodWallSet",
      "pbrMetallicRoughness" : {
        "baseColorFactor" : [ 0.3, 0.9, 0.3, 1.0 ],
        "metallicFactor" : 0.1,
        "roughnessFactor" : 0.5
      }
    },
    {
      "name" : "MI_ENV_LKNVLD_Signboard_A",
      "pbrMetallicRoughness" : {
        "baseColorFactor" : [ 0.3, 0.3, 0.9, 1.0 ],
        "metallicFactor" : 0.1,
        "roughnessFactor" : 0.5
      }
    },
    {
      "name" : "MI_ENV_LKNVLD_WoodPlain_Red",
      "pbrMetallicRoughness" : {
        "baseColorFactor" : [ 0.9, 0.9, 0.9, 1.0 ],
        "metallicFactor" : 0.1,
        "roughnessFactor" : 0.5
      }
    },
    {
      "name" : "MI_ENV_LKNVLD_Plaster_Dark",
      "pbrMetallicRoughness" : {
        "baseColorFactor" : [ 0.9, 0.9, 0.3, 1.0 ],
        "metallicFactor" : 0.1,
        "roughnessFactor" : 0.5
      }
    },
    {
      "name" : "MI_ENV_LKNVLD_Signboard_C",
      "pbrMetallicRoughness" : {
        "baseColorFactor" : [ 0.9, 0.3, 0.9, 1.0 ],
        "metallicFactor" : 0.1,
        "roughnessFactor" : 0.5
      }
    },
    {
      "name" : "MI_ENV_LKNVLD_MetalRoofDark",
      "pbrMetallicRoughness" : {
        "baseColorFactor" : [ 0.3, 0.9, 0.9, 1.0 ],
        "metallicFactor" : 0.1,
        "roughnessFactor" : 0.5
      }
    },
    {
      "name" : "MI_ENV_LKNVLD_WoodBoard_Natural",
      "pbrMetallicRoughness" : {
        "baseColorFactor" : [ 1, 0.3, 0.3, 1.0 ],
        "metallicFactor" : 0.1,
        "roughnessFactor" : 0.5
      }
    },
    {
      "name" : "MI_ENV_LKNVLD_MetalRoof_Orange",
      "pbrMetallicRoughness" : {
        "baseColorFactor" : [ 0.6, 0.3, 0.3, 1.0 ],
        "metallicFactor" : 0.1,
        "roughnessFactor" : 0.5
      }
    },
    {
      "name" : "MI_ENV_LKNVLD_Eaves_B",
      "pbrMetallicRoughness" : {
        "baseColorFactor" : [ 1, 0.9, 0.3, 1.0 ],
        "metallicFactor" : 0.1,
        "roughnessFactor" : 0.5
      }
    },
    {
      "name" : "MI_ENV_LKNVLD_Curtain_A",
      "pbrMetallicRoughness" : {
        "baseColorFactor" : [ 1, 0.3, 0.9, 1.0 ],
        "metallicFactor" : 0.1,
        "roughnessFactor" : 0.5
      }
    },
    {
      "name" : "MI_ENV_LKNVLD_Metal_C",
      "pbrMetallicRoughness" : {
        "baseColorFactor" : [ 0.6, 0.9, 0.9, 1.0 ],
        "metallicFactor" : 0.1,
        "roughnessFactor" : 0.5
      }
    },
    {
      "name" : "MI_ENV_LKNVLD_Aircon_A",
      "pbrMetallicRoughness" : {
        "baseColorFactor" : [ 0.6, 0.9, 0.3, 1.0 ],
        "metallicFactor" : 0.1,
        "roughnessFactor" : 0.5
      }
    },
    {
      "name" : "MI_ENV_LKNVLD_Lantern_A",
      "pbrMetallicRoughness" : {
        "baseColorFactor" : [ 0.6, 0.3, 0.9, 1.0 ],
        "metallicFactor" : 0.1,
        "roughnessFactor" : 0.5
      }
    },
    {
      "name" : "MI_ENV_LKNVLD_Pipe_B",
      "pbrMetallicRoughness" : {
        "baseColorFactor" : [ 1, 0.9, 0.9, 1.0 ],
        "metallicFactor" : 0.1,
        "roughnessFactor" : 0.5
      }
    },
    {
      "name" : "MI_T_ENV_LKNVLD_StoneTrim",
      "pbrMetallicRoughness" : {
        "baseColorFactor" : [ 0.3, 1, 0.3, 1.0 ],
        "metallicFactor" : 0.1,
        "roughnessFactor" : 0.5
      }
    }
  ],
  "meshes" : [
    {
      "primitives" : [
        {
          "attributes" : {
            "POSITION" : 1,
            "NORMAL" : 2,
            "TANGENT" : 3,
            "COLOR_0" : 4,
            "TEXCOORD_0" : 5,
            "TEXCOORD_1" : 6,
            "TEXCOORD_2" : 7,
            "TEXCOORD_3" : 8
          },
          "indices" : 0,
          "material" : 0
        },
        {
          "attributes" : {
            "POSITION" : 10,
            "NORMAL" : 11,
            "TANGENT" : 12,
            "COLOR_0" : 13,
            "TEXCOORD_0" : 14,
            "TEXCOORD_1" : 15,
            "TEXCOORD_2" : 16,
            "TEXCOORD_3" : 17
          },
          "indices" : 9,
          "material" : 1
        },
        {
          "attributes" : {
            "POSITION" : 19,
            "NORMAL" : 20,
            "TANGENT" : 21,
            "COLOR_0" : 22,
            "TEXCOORD_0" : 23,
            "TEXCOORD_1" : 24,
            "TEXCOORD_2" : 25,
            "TEXCOORD_3" : 26
          },
          "indices" : 18,
          "material" : 2
        },
        {
          "attributes" : {
            "POSITION" : 28,
            "NORMAL" : 29,
            "TANGENT" : 30,
            "COLOR_0" : 31,
            "TEXCOORD_0" : 32,
            "TEXCOORD_1" : 33,
            "TEXCOORD_2" : 34,
            "TEXCOORD_3" : 35
          },
          "indices" : 27,
          "material" : 3
        },
        {
          "attributes" : {
            "POSITION" : 37,
            "NORMAL" : 38,
            "TANGENT" : 39,
            "COLOR_0" : 40,
            "TEXCOORD_0" : 41,
            "TEXCOORD_1" : 42,
            "TEXCOORD_2" : 43,
            "TEXCOORD_3" : 44
          },
          "indices" : 36,
          "material" : 4
        },
        {
          "attributes" : {
            "POSITION" : 46,
            "NORMAL" : 47,
            "TANGENT" : 48,
            "COLOR_0" : 49,
            "TEXCOORD_0" : 50,
            "TEXCOORD_1" : 51,
            "TEXCOORD_2" : 52,
            "TEXCOORD_3" : 53
          },
          "indices" : 45,
          "material" : 5
        },
        {
          "attributes" : {
            "POSITION" : 55,
            "NORMAL" : 56,
            "TANGENT" : 57,
            "COLOR_0" : 58,
            "TEXCOORD_0" : 59,
            "TEXCOORD_1" : 60,
            "TEXCOORD_2" : 61,
            "TEXCOORD_3" : 62
          },
          "indices" : 54,
          "material" : 6
        },
        {
          "attributes" : {
            "POSITION" : 64,
            "NORMAL" : 65,
            "TANGENT" : 66,
            "COLOR_0" : 67,
            "TEXCOORD_0" : 68,
            "TEXCOORD_1" : 69,
            "TEXCOORD_2" : 70,
            "TEXCOORD_3" : 71
          },
          "indices" : 63,
          "material" : 7
        },
        {
          "attributes" : {
            "POSITION" : 73,
            "NORMAL" : 74,
            "TANGENT" : 75,
            "COLOR_0" : 76,
            "TEXCOORD_0" : 77,
            "TEXCOORD_1" : 78,
            "TEXCOORD_2" : 79,
            "TEXCOORD_3" : 80
          },
          "indices" : 72,
          "material" : 8
        },
        {
          "attributes" : {
            "POSITION" : 82,
            "NORMAL" : 83,
            "TANGENT" : 84,
            "COLOR_0" : 85,
            "TEXCOORD_0" : 86,
            "TEXCOORD_1" : 87,
            "TEXCOORD_2" : 88,
            "TEXCOORD_3" : 89
          },
          "indices" : 81,
          "material" : 9
        },
        {
          "attributes" : {
            "POSITION" : 91,
            "NORMAL" : 92,
            "TANGENT" : 93,
            "COLOR_0" : 94,
            "TEXCOORD_0" : 95,
            "TEXCOORD_1" : 96,
            "TEXCOORD_2" : 97,
            "TEXCOORD_3" : 98
          },
          "indices" : 90,
          "material" : 10
        },
        {
          "attributes" : {
            "POSITION" : 100,
            "NORMAL" : 101,
            "TANGENT" : 102,
            "COLOR_0" : 103,
            "TEXCOORD_0" : 104,
            "TEXCOORD_1" : 105,
            "TEXCOORD_2" : 106,
            "TEXCOORD_3" : 107
          },
          "indices" : 99,
          "material" : 11
        },
        {
          "attributes" : {
            "POSITION" : 109,
            "NORMAL" : 110,
            "TANGENT" : 111,
            "COLOR_0" : 112,
            "TEXCOORD_0" : 113,
            "TEXCOORD_1" : 114,
            "TEXCOORD_2" : 115,
            "TEXCOORD_3" : 116
          },
          "indices" : 108,
          "material" : 12
        },
        {
          "attributes" : {
            "POSITION" : 118,
            "NORMAL" : 119,
            "TANGENT" : 120,
            "COLOR_0" : 121,
            "TEXCOORD_0" : 122,
            "TEXCOORD_1" : 123,
            "TEXCOORD_2" : 124,
            "TEXCOORD_3" : 125
          },
          "indices" : 117,
          "material" : 13
        },
        {
          "attributes" : {
            "POSITION" : 127,
            "NORMAL" : 128,
            "TANGENT" : 129,
            "COLOR_0" : 130,
            "TEXCOORD_0" : 131,
            "TEXCOORD_1" : 132,
            "TEXCOORD_2" : 133,
            "TEXCOORD_3" : 134
          },
          "indices" : 126,
          "material" : 14
        },
        {
          "attributes" : {
            "POSITION" : 136,
            "NORMAL" : 137,
            "TANGENT" : 138,
            "COLOR_0" : 139,
            "TEXCOORD_0" : 140,
            "TEXCOORD_1" : 141,
            "TEXCOORD_2" : 142,
            "TEXCOORD_3" : 143
          },
          "indices" : 135,
          "material" : 15
        },
        {
          "attributes" : {
            "POSITION" : 145,
            "NORMAL" : 146,
            "TANGENT" : 147,
            "COLOR_0" : 148,
            "TEXCOORD_0" : 149,
            "TEXCOORD_1" : 150,
            "TEXCOORD_2" : 151,
            "TEXCOORD_3" : 152
          },
          "indices" : 144,
          "material" : 16
        }
      ],
      "name" : "SM_ENV_KNVLLG03_AreaF_BuildingB"
    }
  ],
  "buffers" : [
    {
      "uri" : "SM_ENV_KNVLLG03_AreaF_BuildingB.bin",
      "byteLength" : 2604676
    }
  ],
  "bufferViews" : [
    {
      "buffer" : 0,
      "byteOffset" : 0,
      "byteLength" : 5688
    },
    {
      "buffer" : 0,
      "byteOffset" : 5688,
      "byteLength" : 14040
    },
    {
      "buffer" : 0,
      "byteOffset" : 19728,
      "byteLength" : 14040
    },
    {
      "buffer" : 0,
      "byteOffset" : 33768,
      "byteLength" : 18720
    },
    {
      "buffer" : 0,
      "byteOffset" : 52488,
      "byteLength" : 4680
    },
    {
      "buffer" : 0,
      "byteOffset" : 57168,
      "byteLength" : 9360
    },
    {
      "buffer" : 0,
      "byteOffset" : 66528,
      "byteLength" : 9360
    },
    {
      "buffer" : 0,
      "byteOffset" : 75888,
      "byteLength" : 9360
    },
    {
      "buffer" : 0,
      "byteOffset" : 85248,
      "byteLength" : 9360
    },
    {
      "buffer" : 0,
      "byteOffset" : 94608,
      "byteLength" : 1524
    },
    {
      "buffer" : 0,
      "byteOffset" : 96132,
      "byteLength" : 4680
    },
    {
      "buffer" : 0,
      "byteOffset" : 100812,
      "byteLength" : 4680
    },
    {
      "buffer" : 0,
      "byteOffset" : 105492,
      "byteLength" : 6240
    },
    {
      "buffer" : 0,
      "byteOffset" : 111732,
      "byteLength" : 1560
    },
    {
      "buffer" : 0,
      "byteOffset" : 113292,
      "byteLength" : 3120
    },
    {
      "buffer" : 0,
      "byteOffset" : 116412,
      "byteLength" : 3120
    },
    {
      "buffer" : 0,
      "byteOffset" : 119532,
      "byteLength" : 3120
    },
    {
      "buffer" : 0,
      "byteOffset" : 122652,
      "byteLength" : 3120
    },
    {
      "buffer" : 0,
      "byteOffset" : 125772,
      "byteLength" : 33396
    },
    {
      "buffer" : 0,
      "byteOffset" : 159168,
      "byteLength" : 107736
    },
    {
      "buffer" : 0,
      "byteOffset" : 266904,
      "byteLength" : 107736
    },
    {
      "buffer" : 0,
      "byteOffset" : 374640,
      "byteLength" : 143648
    },
    {
      "buffer" : 0,
      "byteOffset" : 518288,
      "byteLength" : 35912
    },
    {
      "buffer" : 0,
      "byteOffset" : 554200,
      "byteLength" : 71824
    },
    {
      "buffer" : 0,
      "byteOffset" : 626024,
      "byteLength" : 71824
    },
    {
      "buffer" : 0,
      "byteOffset" : 697848,
      "byteLength" : 71824
    },
    {
      "buffer" : 0,
      "byteOffset" : 769672,
      "byteLength" : 71824
    },
    {
      "buffer" : 0,
      "byteOffset" : 841496,
      "byteLength" : 2564
    },
    {
      "buffer" : 0,
      "byteOffset" : 844060,
      "byteLength" : 6108
    },
    {
      "buffer" : 0,
      "byteOffset" : 850168,
      "byteLength" : 6108
    },
    {
      "buffer" : 0,
      "byteOffset" : 856276,
      "byteLength" : 8144
    },
    {
      "buffer" : 0,
      "byteOffset" : 864420,
      "byteLength" : 2036
    },
    {
      "buffer" : 0,
      "byteOffset" : 866456,
      "byteLength" : 4072
    },
    {
      "buffer" : 0,
      "byteOffset" : 870528,
      "byteLength" : 4072
    },
    {
      "buffer" : 0,
      "byteOffset" : 874600,
      "byteLength" : 4072
    },
    {
      "buffer" : 0,
      "byteOffset" : 878672,
      "byteLength" : 4072
    },
    {
      "buffer" : 0,
      "byteOffset" : 882744,
      "byteLength" : 8052
    },
    {
      "buffer" : 0,
      "byteOffset" : 890796,
      "byteLength" : 18816
    },
    {
      "buffer" : 0,
      "byteOffset" : 909612,
      "byteLength" : 18816
    },
    {
      "buffer" : 0,
      "byteOffset" : 928428,
      "byteLength" : 25088
    },
    {
      "buffer" : 0,
      "byteOffset" : 953516,
      "byteLength" : 6272
    },
    {
      "buffer" : 0,
      "byteOffset" : 959788,
      "byteLength" : 12544
    },
    {
      "buffer" : 0,
      "byteOffset" : 972332,
      "byteLength" : 12544
    },
    {
      "buffer" : 0,
      "byteOffset" : 984876,
      "byteLength" : 12544
    },
    {
      "buffer" : 0,
      "byteOffset" : 997420,
      "byteLength" : 12544
    },
    {
      "buffer" : 0,
      "byteOffset" : 1009964,
      "byteLength" : 9836
    },
    {
      "buffer" : 0,
      "byteOffset" : 1019800,
      "byteLength" : 23616
    },
    {
      "buffer" : 0,
      "byteOffset" : 1043416,
      "byteLength" : 23616
    },
    {
      "buffer" : 0,
      "byteOffset" : 1067032,
      "byteLength" : 31488
    },
    {
      "buffer" : 0,
      "byteOffset" : 1098520,
      "byteLength" : 7872
    },
    {
      "buffer" : 0,
      "byteOffset" : 1106392,
      "byteLength" : 15744
    },
    {
      "buffer" : 0,
      "byteOffset" : 1122136,
      "byteLength" : 15744
    },
    {
      "buffer" : 0,
      "byteOffset" : 1137880,
      "byteLength" : 15744
    },
    {
      "buffer" : 0,
      "byteOffset" : 1153624,
      "byteLength" : 15744
    },
    {
      "buffer" : 0,
      "byteOffset" : 1169368,
      "byteLength" : 120
    },
    {
      "buffer" : 0,
      "byteOffset" : 1169488,
      "byteLength" : 264
    },
    {
      "buffer" : 0,
      "byteOffset" : 1169752,
      "byteLength" : 264
    },
    {
      "buffer" : 0,
      "byteOffset" : 1170016,
      "byteLength" : 352
    },
    {
      "buffer" : 0,
      "byteOffset" : 1170368,
      "byteLength" : 88
    },
    {
      "buffer" : 0,
      "byteOffset" : 1170456,
      "byteLength" : 176
    },
    {
      "buffer" : 0,
      "byteOffset" : 1170632,
      "byteLength" : 176
    },
    {
      "buffer" : 0,
      "byteOffset" : 1170808,
      "byteLength" : 176
    },
    {
      "buffer" : 0,
      "byteOffset" : 1170984,
      "byteLength" : 176
    },
    {
      "buffer" : 0,
      "byteOffset" : 1171160,
      "byteLength" : 3384
    },
    {
      "buffer" : 0,
      "byteOffset" : 1174544,
      "byteLength" : 11472
    },
    {
      "buffer" : 0,
      "byteOffset" : 1186016,
      "byteLength" : 11472
    },
    {
      "buffer" : 0,
      "byteOffset" : 1197488,
      "byteLength" : 15296
    },
    {
      "buffer" : 0,
      "byteOffset" : 1212784,
      "byteLength" : 3824
    },
    {
      "buffer" : 0,
      "byteOffset" : 1216608,
      "byteLength" : 7648
    },
    {
      "buffer" : 0,
      "byteOffset" : 1224256,
      "byteLength" : 7648
    },
    {
      "buffer" : 0,
      "byteOffset" : 1231904,
      "byteLength" : 7648
    },
    {
      "buffer" : 0,
      "byteOffset" : 1239552,
      "byteLength" : 7648
    },
    {
      "buffer" : 0,
      "byteOffset" : 1247200,
      "byteLength" : 7572
    },
    {
      "buffer" : 0,
      "byteOffset" : 1254772,
      "byteLength" : 15624
    },
    {
      "buffer" : 0,
      "byteOffset" : 1270396,
      "byteLength" : 15624
    },
    {
      "buffer" : 0,
      "byteOffset" : 1286020,
      "byteLength" : 20832
    },
    {
      "buffer" : 0,
      "byteOffset" : 1306852,
      "byteLength" : 5208
    },
    {
      "buffer" : 0,
      "byteOffset" : 1312060,
      "byteLength" : 10416
    },
    {
      "buffer" : 0,
      "byteOffset" : 1322476,
      "byteLength" : 10416
    },
    {
      "buffer" : 0,
      "byteOffset" : 1332892,
      "byteLength" : 10416
    },
    {
      "buffer" : 0,
      "byteOffset" : 1343308,
      "byteLength" : 10416
    },
    {
      "buffer" : 0,
      "byteOffset" : 1353724,
      "byteLength" : 34572
    },
    {
      "buffer" : 0,
      "byteOffset" : 1388296,
      "byteLength" : 66012
    },
    {
      "buffer" : 0,
      "byteOffset" : 1454308,
      "byteLength" : 66012
    },
    {
      "buffer" : 0,
      "byteOffset" : 1520320,
      "byteLength" : 88016
    },
    {
      "buffer" : 0,
      "byteOffset" : 1608336,
      "byteLength" : 22004
    },
    {
      "buffer" : 0,
      "byteOffset" : 1630340,
      "byteLength" : 44008
    },
    {
      "buffer" : 0,
      "byteOffset" : 1674348,
      "byteLength" : 44008
    },
    {
      "buffer" : 0,
      "byteOffset" : 1718356,
      "byteLength" : 44008
    },
    {
      "buffer" : 0,
      "byteOffset" : 1762364,
      "byteLength" : 44008
    },
    {
      "buffer" : 0,
      "byteOffset" : 1806372,
      "byteLength" : 1884
    },
    {
      "buffer" : 0,
      "byteOffset" : 1808256,
      "byteLength" : 4200
    },
    {
      "buffer" : 0,
      "byteOffset" : 1812456,
      "byteLength" : 4200
    },
    {
      "buffer" : 0,
      "byteOffset" : 1816656,
      "byteLength" : 5600
    },
    {
      "buffer" : 0,
      "byteOffset" : 1822256,
      "byteLength" : 1400
    },
    {
      "buffer" : 0,
      "byteOffset" : 1823656,
      "byteLength" : 2800
    },
    {
      "buffer" : 0,
      "byteOffset" : 1826456,
      "byteLength" : 2800
    },
    {
      "buffer" : 0,
      "byteOffset" : 1829256,
      "byteLength" : 2800
    },
    {
      "buffer" : 0,
      "byteOffset" : 1832056,
      "byteLength" : 2800
    },
    {
      "buffer" : 0,
      "byteOffset" : 1834856,
      "byteLength" : 72
    },
    {
      "buffer" : 0,
      "byteOffset" : 1834928,
      "byteLength" : 192
    },
    {
      "buffer" : 0,
      "byteOffset" : 1835120,
      "byteLength" : 192
    },
    {
      "buffer" : 0,
      "byteOffset" : 1835312,
      "byteLength" : 256
    },
    {
      "buffer" : 0,
      "byteOffset" : 1835568,
      "byteLength" : 64
    },
    {
      "buffer" : 0,
      "byteOffset" : 1835632,
      "byteLength" : 128
    },
    {
      "buffer" : 0,
      "byteOffset" : 1835760,
      "byteLength" : 128
    },
    {
      "buffer" : 0,
      "byteOffset" : 1835888,
      "byteLength" : 128
    },
    {
      "buffer" : 0,
      "byteOffset" : 1836016,
      "byteLength" : 128
    },
    {
      "buffer" : 0,
      "byteOffset" : 1836144,
      "byteLength" : 2112
    },
    {
      "buffer" : 0,
      "byteOffset" : 1838256,
      "byteLength" : 6288
    },
    {
      "buffer" : 0,
      "byteOffset" : 1844544,
      "byteLength" : 6288
    },
    {
      "buffer" : 0,
      "byteOffset" : 1850832,
      "byteLength" : 8384
    },
    {
      "buffer" : 0,
      "byteOffset" : 1859216,
      "byteLength" : 2096
    },
    {
      "buffer" : 0,
      "byteOffset" : 1861312,
      "byteLength" : 4192
    },
    {
      "buffer" : 0,
      "byteOffset" : 1865504,
      "byteLength" : 4192
    },
    {
      "buffer" : 0,
      "byteOffset" : 1869696,
      "byteLength" : 4192
    },
    {
      "buffer" : 0,
      "byteOffset" : 1873888,
      "byteLength" : 4192
    },
    {
      "buffer" : 0,
      "byteOffset" : 1878080,
      "byteLength" : 23652
    },
    {
      "buffer" : 0,
      "byteOffset" : 1901732,
      "byteLength" : 48312
    },
    {
      "buffer" : 0,
      "byteOffset" : 1950044,
      "byteLength" : 48312
    },
    {
      "buffer" : 0,
      "byteOffset" : 1998356,
      "byteLength" : 64416
    },
    {
      "buffer" : 0,
      "byteOffset" : 2062772,
      "byteLength" : 16104
    },
    {
      "buffer" : 0,
      "byteOffset" : 2078876,
      "byteLength" : 32208
    },
    {
      "buffer" : 0,
      "byteOffset" : 2111084,
      "byteLength" : 32208
    },
    {
      "buffer" : 0,
      "byteOffset" : 2143292,
      "byteLength" : 32208
    },
    {
      "buffer" : 0,
      "byteOffset" : 2175500,
      "byteLength" : 32208
    },
    {
      "buffer" : 0,
      "byteOffset" : 2207708,
      "byteLength" : 19488
    },
    {
      "buffer" : 0,
      "byteOffset" : 2227196,
      "byteLength" : 30144
    },
    {
      "buffer" : 0,
      "byteOffset" : 2257340,
      "byteLength" : 30144
    },
    {
      "buffer" : 0,
      "byteOffset" : 2287484,
      "byteLength" : 40192
    },
    {
      "buffer" : 0,
      "byteOffset" : 2327676,
      "byteLength" : 10048
    },
    {
      "buffer" : 0,
      "byteOffset" : 2337724,
      "byteLength" : 20096
    },
    {
      "buffer" : 0,
      "byteOffset" : 2357820,
      "byteLength" : 20096
    },
    {
      "buffer" : 0,
      "byteOffset" : 2377916,
      "byteLength" : 20096
    },
    {
      "buffer" : 0,
      "byteOffset" : 2398012,
      "byteLength" : 20096
    },
    {
      "buffer" : 0,
      "byteOffset" : 2418108,
      "byteLength" : 19296
    },
    {
      "buffer" : 0,
      "byteOffset" : 2437404,
      "byteLength" : 26112
    },
    {
      "buffer" : 0,
      "byteOffset" : 2463516,
      "byteLength" : 26112
    },
    {
      "buffer" : 0,
      "byteOffset" : 2489628,
      "byteLength" : 34816
    },
    {
      "buffer" : 0,
      "byteOffset" : 2524444,
      "byteLength" : 8704
    },
    {
      "buffer" : 0,
      "byteOffset" : 2533148,
      "byteLength" : 17408
    },
    {
      "buffer" : 0,
      "byteOffset" : 2550556,
      "byteLength" : 17408
    },
    {
      "buffer" : 0,
      "byteOffset" : 2567964,
      "byteLength" : 17408
    },
    {
      "buffer" : 0,
      "byteOffset" : 2585372,
      "byteLength" : 17408
    },
    {
      "buffer" : 0,
      "byteOffset" : 2602780,
      "byteLength" : 72
    },
    {
      "buffer" : 0,
      "byteOffset" : 2602852,
      "byteLength" : 288
    },
    {
      "buffer" : 0,
      "byteOffset" : 2603140,
      "byteLength" : 288
    },
    {
      "buffer" : 0,
      "byteOffset" : 2603428,
      "byteLength" : 384
    },
    {
      "buffer" : 0,
      "byteOffset" : 2603812,
      "byteLength" : 96
    },
    {
      "buffer" : 0,
      "byteOffset" : 2603908,
      "byteLength" : 192
    },
    {
      "buffer" : 0,
      "byteOffset" : 2604100,
      "byteLength" : 192
    },
    {
      "buffer" : 0,
      "byteOffset" : 2604292,
      "byteLength" : 192
    },
    {
      "buffer" : 0,
      "byteOffset" : 2604484,
      "byteLength" : 192
    }
  ],
  "accessors" : [
    {
      "bufferView" : 0,
      "componentType" : 5123,
      "count" : 2844,
      "type" : "SCALAR"
    },
    {
      "bufferView" : 1,
      "min" : [ 44.4913, -6.10352e-07, -12.5 ],
      "max" : [ 70.5318, 54.0437, 21.6931 ],
      "componentType" : 5126,
      "count" : 1170,
      "type" : "VEC3"
    },
    {
      "bufferView" : 2,
      "componentType" : 5126,
      "count" : 1170,
      "type" : "VEC3"
    },
    {
      "bufferView" : 3,
      "componentType" : 5126,
      "count" : 1170,
      "type" : "VEC4"
    },
    {
      "bufferView" : 4,
      "normalized" : true,
      "componentType" : 5121,
      "count" : 1170,
      "type" : "VEC4"
    },
    {
      "bufferView" : 5,
      "componentType" : 5126,
      "count" : 1170,
      "type" : "VEC2"
    },
    {
      "bufferView" : 6,
      "componentType" : 5126,
      "count" : 1170,
      "type" : "VEC2"
    },
    {
      "bufferView" : 7,
      "componentType" : 5126,
      "count" : 1170,
      "type" : "VEC2"
    },
    {
      "bufferView" : 8,
      "componentType" : 5126,
      "count" : 1170,
      "type" : "VEC2"
    },
    {
      "bufferView" : 9,
      "componentType" : 5123,
      "count" : 762,
      "type" : "SCALAR"
    },
    {
      "bufferView" : 10,
      "min" : [ 46.0513, 4.25001, -9.24015 ],
      "max" : [ 68.9068, 54.0961, 16.6215 ],
      "componentType" : 5126,
      "count" : 390,
      "type" : "VEC3"
    },
    {
      "bufferView" : 11,
      "componentType" : 5126,
      "count" : 390,
      "type" : "VEC3"
    },
    {
      "bufferView" : 12,
      "componentType" : 5126,
      "count" : 390,
      "type" : "VEC4"
    },
    {
      "bufferView" : 13,
      "normalized" : true,
      "componentType" : 5121,
      "count" : 390,
      "type" : "VEC4"
    },
    {
      "bufferView" : 14,
      "componentType" : 5126,
      "count" : 390,
      "type" : "VEC2"
    },
    {
      "bufferView" : 15,
      "componentType" : 5126,
      "count" : 390,
      "type" : "VEC2"
    },
    {
      "bufferView" : 16,
      "componentType" : 5126,
      "count" : 390,
      "type" : "VEC2"
    },
    {
      "bufferView" : 17,
      "componentType" : 5126,
      "count" : 390,
      "type" : "VEC2"
    },
    {
      "bufferView" : 18,
      "componentType" : 5123,
      "count" : 16698,
      "type" : "SCALAR"
    },
    {
      "bufferView" : 19,
      "min" : [ 44.418, 4, -12.02 ],
      "max" : [ 71.7367, 49.3676, 21.7638 ],
      "componentType" : 5126,
      "count" : 8978,
      "type" : "VEC3"
    },
    {
      "bufferView" : 20,
      "componentType" : 5126,
      "count" : 8978,
      "type" : "VEC3"
    },
    {
      "bufferView" : 21,
      "componentType" : 5126,
      "count" : 8978,
      "type" : "VEC4"
    },
    {
      "bufferView" : 22,
      "normalized" : true,
      "componentType" : 5121,
      "count" : 8978,
      "type" : "VEC4"
    },
    {
      "bufferView" : 23,
      "componentType" : 5126,
      "count" : 8978,
      "type" : "VEC2"
    },
    {
      "bufferView" : 24,
      "componentType" : 5126,
      "count" : 8978,
      "type" : "VEC2"
    },
    {
      "bufferView" : 25,
      "componentType" : 5126,
      "count" : 8978,
      "type" : "VEC2"
    },
    {
      "bufferView" : 26,
      "componentType" : 5126,
      "count" : 8978,
      "type" : "VEC2"
    },
    {
      "bufferView" : 27,
      "componentType" : 5123,
      "count" : 1281,
      "type" : "SCALAR"
    },
    {
      "bufferView" : 28,
      "min" : [ 44.067, 5.9105, -14.9281 ],
      "max" : [ 74.5981, 60.5005, 15.0348 ],
      "componentType" : 5126,
      "count" : 509,
      "type" : "VEC3"
    },
    {
      "bufferView" : 29,
      "componentType" : 5126,
      "count" : 509,
      "type" : "VEC3"
    },
    {
      "bufferView" : 30,
      "componentType" : 5126,
      "count" : 509,
      "type" : "VEC4"
    },
    {
      "bufferView" : 31,
      "normalized" : true,
      "componentType" : 5121,
      "count" : 509,
      "type" : "VEC4"
    },
    {
      "bufferView" : 32,
      "componentType" : 5126,
      "count" : 509,
      "type" : "VEC2"
    },
    {
      "bufferView" : 33,
      "componentType" : 5126,
      "count" : 509,
      "type" : "VEC2"
    },
    {
      "bufferView" : 34,
      "componentType" : 5126,
      "count" : 509,
      "type" : "VEC2"
    },
    {
      "bufferView" : 35,
      "componentType" : 5126,
      "count" : 509,
      "type" : "VEC2"
    },
    {
      "bufferView" : 36,
      "componentType" : 5123,
      "count" : 4026,
      "type" : "SCALAR"
    },
    {
      "bufferView" : 37,
      "min" : [ 44.08, -1.83105e-06, -14.9281 ],
      "max" : [ 74.5981, 41.9177, 15.0348 ],
      "componentType" : 5126,
      "count" : 1568,
      "type" : "VEC3"
    },
    {
      "bufferView" : 38,
      "componentType" : 5126,
      "count" : 1568,
      "type" : "VEC3"
    },
    {
      "bufferView" : 39,
      "componentType" : 5126,
      "count" : 1568,
      "type" : "VEC4"
    },
    {
      "bufferView" : 40,
      "normalized" : true,
      "componentType" : 5121,
      "count" : 1568,
      "type" : "VEC4"
    },
    {
      "bufferView" : 41,
      "componentType" : 5126,
      "count" : 1568,
      "type" : "VEC2"
    },
    {
      "bufferView" : 42,
      "componentType" : 5126,
      "count" : 1568,
      "type" : "VEC2"
    },
    {
      "bufferView" : 43,
      "componentType" : 5126,
      "count" : 1568,
      "type" : "VEC2"
    },
    {
      "bufferView" : 44,
      "componentType" : 5126,
      "count" : 1568,
      "type" : "VEC2"
    },
    {
      "bufferView" : 45,
      "componentType" : 5123,
      "count" : 4917,
      "type" : "SCALAR"
    },
    {
      "bufferView" : 46,
      "min" : [ 44.6157, 9.95619, -12.0004 ],
      "max" : [ 71.6704, 56.6505, 22.2587 ],
      "componentType" : 5126,
      "count" : 1968,
      "type" : "VEC3"
    },
    {
      "bufferView" : 47,
      "componentType" : 5126,
      "count" : 1968,
      "type" : "VEC3"
    },
    {
      "bufferView" : 48,
      "componentType" : 5126,
      "count" : 1968,
      "type" : "VEC4"
    },
    {
      "bufferView" : 49,
      "normalized" : true,
      "componentType" : 5121,
      "count" : 1968,
      "type" : "VEC4"
    },
    {
      "bufferView" : 50,
      "componentType" : 5126,
      "count" : 1968,
      "type" : "VEC2"
    },
    {
      "bufferView" : 51,
      "componentType" : 5126,
      "count" : 1968,
      "type" : "VEC2"
    },
    {
      "bufferView" : 52,
      "componentType" : 5126,
      "count" : 1968,
      "type" : "VEC2"
    },
    {
      "bufferView" : 53,
      "componentType" : 5126,
      "count" : 1968,
      "type" : "VEC2"
    },
    {
      "bufferView" : 54,
      "componentType" : 5123,
      "count" : 60,
      "type" : "SCALAR"
    },
    {
      "bufferView" : 55,
      "min" : [ 45.8694, 10.4, -2.89602 ],
      "max" : [ 46.856, 14.3, 2.89601 ],
      "componentType" : 5126,
      "count" : 22,
      "type" : "VEC3"
    },
    {
      "bufferView" : 56,
      "componentType" : 5126,
      "count" : 22,
      "type" : "VEC3"
    },
    {
      "bufferView" : 57,
      "componentType" : 5126,
      "count" : 22,
      "type" : "VEC4"
    },
    {
      "bufferView" : 58,
      "normalized" : true,
      "componentType" : 5121,
      "count" : 22,
      "type" : "VEC4"
    },
    {
      "bufferView" : 59,
      "componentType" : 5126,
      "count" : 22,
      "type" : "VEC2"
    },
    {
      "bufferView" : 60,
      "componentType" : 5126,
      "count" : 22,
      "type" : "VEC2"
    },
    {
      "bufferView" : 61,
      "componentType" : 5126,
      "count" : 22,
      "type" : "VEC2"
    },
    {
      "bufferView" : 62,
      "componentType" : 5126,
      "count" : 22,
      "type" : "VEC2"
    },
    {
      "bufferView" : 63,
      "componentType" : 5123,
      "count" : 1692,
      "type" : "SCALAR"
    },
    {
      "bufferView" : 64,
      "min" : [ 46.288, 4.25, -9.39014 ],
      "max" : [ 69.0568, 62.9005, 9.39014 ],
      "componentType" : 5126,
      "count" : 956,
      "type" : "VEC3"
    },
    {
      "bufferView" : 65,
      "componentType" : 5126,
      "count" : 956,
      "type" : "VEC3"
    },
    {
      "bufferView" : 66,
      "componentType" : 5126,
      "count" : 956,
      "type" : "VEC4"
    },
    {
      "bufferView" : 67,
      "normalized" : true,
      "componentType" : 5121,
      "count" : 956,
      "type" : "VEC4"
    },
    {
      "bufferView" : 68,
      "componentType" : 5126,
      "count" : 956,
      "type" : "VEC2"
    },
    {
      "bufferView" : 69,
      "componentType" : 5126,
      "count" : 956,
      "type" : "VEC2"
    },
    {
      "bufferView" : 70,
      "componentType" : 5126,
      "count" : 956,
      "type" : "VEC2"
    },
    {
      "bufferView" : 71,
      "componentType" : 5126,
      "count" : 956,
      "type" : "VEC2"
    },
    {
      "bufferView" : 72,
      "componentType" : 5123,
      "count" : 3786,
      "type" : "SCALAR"
    },
    {
      "bufferView" : 73,
      "min" : [ 44.23, 9, -14.1981 ],
      "max" : [ 73.8681, 54.5392, 14.1981 ],
      "componentType" : 5126,
      "count" : 1302,
      "type" : "VEC3"
    },
    {
      "bufferView" : 74,
      "componentType" : 5126,
      "count" : 1302,
      "type" : "VEC3"
    },
    {
      "bufferView" : 75,
      "componentType" : 5126,
      "count" : 1302,
      "type" : "VEC4"
    },
    {
      "bufferView" : 76,
      "normalized" : true,
      "componentType" : 5121,
      "count" : 1302,
      "type" : "VEC4"
    },
    {
      "bufferView" : 77,
      "componentType" : 5126,
      "count" : 1302,
      "type" : "VEC2"
    },
    {
      "bufferView" : 78,
      "componentType" : 5126,
      "count" : 1302,
      "type" : "VEC2"
    },
    {
      "bufferView" : 79,
      "componentType" : 5126,
      "count" : 1302,
      "type" : "VEC2"
    },
    {
      "bufferView" : 80,
      "componentType" : 5126,
      "count" : 1302,
      "type" : "VEC2"
    },
    {
      "bufferView" : 81,
      "componentType" : 5123,
      "count" : 17286,
      "type" : "SCALAR"
    },
    {
      "bufferView" : 82,
      "min" : [ 43.8131, 9, -14.5 ],
      "max" : [ 74.17, 56.3229, 23.0035 ],
      "componentType" : 5126,
      "count" : 5501,
      "type" : "VEC3"
    },
    {
      "bufferView" : 83,
      "componentType" : 5126,
      "count" : 5501,
      "type" : "VEC3"
    },
    {
      "bufferView" : 84,
      "componentType" : 5126,
      "count" : 5501,
      "type" : "VEC4"
    },
    {
      "bufferView" : 85,
      "normalized" : true,
      "componentType" : 5121,
      "count" : 5501,
      "type" : "VEC4"
    },
    {
      "bufferView" : 86,
      "componentType" : 5126,
      "count" : 5501,
      "type" : "VEC2"
    },
    {
      "bufferView" : 87,
      "componentType" : 5126,
      "count" : 5501,
      "type" : "VEC2"
    },
    {
      "bufferView" : 88,
      "componentType" : 5126,
      "count" : 5501,
      "type" : "VEC2"
    },
    {
      "bufferView" : 89,
      "componentType" : 5126,
      "count" : 5501,
      "type" : "VEC2"
    },
    {
      "bufferView" : 90,
      "componentType" : 5123,
      "count" : 942,
      "type" : "SCALAR"
    },
    {
      "bufferView" : 91,
      "min" : [ 44.08, 14.959, -14.9281 ],
      "max" : [ 74.5981, 41.9177, 14.8814 ],
      "componentType" : 5126,
      "count" : 350,
      "type" : "VEC3"
    },
    {
      "bufferView" : 92,
      "componentType" : 5126,
      "count" : 350,
      "type" : "VEC3"
    },
    {
      "bufferView" : 93,
      "componentType" : 5126,
      "count" : 350,
      "type" : "VEC4"
    },
    {
      "bufferView" : 94,
      "normalized" : true,
      "componentType" : 5121,
      "count" : 350,
      "type" : "VEC4"
    },
    {
      "bufferView" : 95,
      "componentType" : 5126,
      "count" : 350,
      "type" : "VEC2"
    },
    {
      "bufferView" : 96,
      "componentType" : 5126,
      "count" : 350,
      "type" : "VEC2"
    },
    {
      "bufferView" : 97,
      "componentType" : 5126,
      "count" : 350,
      "type" : "VEC2"
    },
    {
      "bufferView" : 98,
      "componentType" : 5126,
      "count" : 350,
      "type" : "VEC2"
    },
    {
      "bufferView" : 99,
      "componentType" : 5123,
      "count" : 36,
      "type" : "SCALAR"
    },
    {
      "bufferView" : 100,
      "min" : [ 46.318, 7.42543, -2.15 ],
      "max" : [ 46.318, 8.15101, 2.15 ],
      "componentType" : 5126,
      "count" : 16,
      "type" : "VEC3"
    },
    {
      "bufferView" : 101,
      "componentType" : 5126,
      "count" : 16,
      "type" : "VEC3"
    },
    {
      "bufferView" : 102,
      "componentType" : 5126,
      "count" : 16,
      "type" : "VEC4"
    },
    {
      "bufferView" : 103,
      "normalized" : true,
      "componentType" : 5121,
      "count" : 16,
      "type" : "VEC4"
    },
    {
      "bufferView" : 104,
      "componentType" : 5126,
      "count" : 16,
      "type" : "VEC2"
    },
    {
      "bufferView" : 105,
      "componentType" : 5126,
      "count" : 16,
      "type" : "VEC2"
    },
    {
      "bufferView" : 106,
      "componentType" : 5126,
      "count" : 16,
      "type" : "VEC2"
    },
    {
      "bufferView" : 107,
      "componentType" : 5126,
      "count" : 16,
      "type" : "VEC2"
    },
    {
      "bufferView" : 108,
      "componentType" : 5123,
      "count" : 1056,
      "type" : "SCALAR"
    },
    {
      "bufferView" : 109,
      "min" : [ 44.64, 15.8661, -9.5906 ],
      "max" : [ 69.303, 59.9505, 9.59059 ],
      "componentType" : 5126,
      "count" : 524,
      "type" : "VEC3"
    },
    {
      "bufferView" : 110,
      "componentType" : 5126,
      "count" : 524,
      "type" : "VEC3"
    },
    {
      "bufferView" : 111,
      "componentType" : 5126,
      "count" : 524,
      "type" : "VEC4"
    },
    {
      "bufferView" : 112,
      "normalized" : true,
      "componentType" : 5121,
      "count" : 524,
      "type" : "VEC4"
    },
    {
      "bufferView" : 113,
      "componentType" : 5126,
      "count" : 524,
      "type" : "VEC2"
    },
    {
      "bufferView" : 114,
      "componentType" : 5126,
      "count" : 524,
      "type" : "VEC2"
    },
    {
      "bufferView" : 115,
      "componentType" : 5126,
      "count" : 524,
      "type" : "VEC2"
    },
    {
      "bufferView" : 116,
      "componentType" : 5126,
      "count" : 524,
      "type" : "VEC2"
    },
    {
      "bufferView" : 117,
      "componentType" : 5123,
      "count" : 11826,
      "type" : "SCALAR"
    },
    {
      "bufferView" : 118,
      "min" : [ 44.5565, 15.2123, -9.79496 ],
      "max" : [ 69.5074, 66.0005, 9.79495 ],
      "componentType" : 5126,
      "count" : 4026,
      "type" : "VEC3"
    },
    {
      "bufferView" : 119,
      "componentType" : 5126,
      "count" : 4026,
      "type" : "VEC3"
    },
    {
      "bufferView" : 120,
      "componentType" : 5126,
      "count" : 4026,
      "type" : "VEC4"
    },
    {
      "bufferView" : 121,
      "normalized" : true,
      "componentType" : 5121,
      "count" : 4026,
      "type" : "VEC4"
    },
    {
      "bufferView" : 122,
      "componentType" : 5126,
      "count" : 4026,
      "type" : "VEC2"
    },
    {
      "bufferView" : 123,
      "componentType" : 5126,
      "count" : 4026,
      "type" : "VEC2"
    },
    {
      "bufferView" : 124,
      "componentType" : 5126,
      "count" : 4026,
      "type" : "VEC2"
    },
    {
      "bufferView" : 125,
      "componentType" : 5126,
      "count" : 4026,
      "type" : "VEC2"
    },
    {
      "bufferView" : 126,
      "componentType" : 5123,
      "count" : 9744,
      "type" : "SCALAR"
    },
    {
      "bufferView" : 127,
      "min" : [ 45.4059, 14.7559, -14.2641 ],
      "max" : [ 73.9341, 41.0427, 14.2174 ],
      "componentType" : 5126,
      "count" : 2512,
      "type" : "VEC3"
    },
    {
      "bufferView" : 128,
      "componentType" : 5126,
      "count" : 2512,
      "type" : "VEC3"
    },
    {
      "bufferView" : 129,
      "componentType" : 5126,
      "count" : 2512,
      "type" : "VEC4"
    },
    {
      "bufferView" : 130,
      "normalized" : true,
      "componentType" : 5121,
      "count" : 2512,
      "type" : "VEC4"
    },
    {
      "bufferView" : 131,
      "componentType" : 5126,
      "count" : 2512,
      "type" : "VEC2"
    },
    {
      "bufferView" : 132,
      "componentType" : 5126,
      "count" : 2512,
      "type" : "VEC2"
    },
    {
      "bufferView" : 133,
      "componentType" : 5126,
      "count" : 2512,
      "type" : "VEC2"
    },
    {
      "bufferView" : 134,
      "componentType" : 5126,
      "count" : 2512,
      "type" : "VEC2"
    },
    {
      "bufferView" : 135,
      "componentType" : 5123,
      "count" : 9648,
      "type" : "SCALAR"
    },
    {
      "bufferView" : 136,
      "min" : [ 44.6725, 17.7521, -13.8562 ],
      "max" : [ 73.4433, 52.5872, 16.1145 ],
      "componentType" : 5126,
      "count" : 2176,
      "type" : "VEC3"
    },
    {
      "bufferView" : 137,
      "componentType" : 5126,
      "count" : 2176,
      "type" : "VEC3"
    },
    {
      "bufferView" : 138,
      "componentType" : 5126,
      "count" : 2176,
      "type" : "VEC4"
    },
    {
      "bufferView" : 139,
      "normalized" : true,
      "componentType" : 5121,
      "count" : 2176,
      "type" : "VEC4"
    },
    {
      "bufferView" : 140,
      "componentType" : 5126,
      "count" : 2176,
      "type" : "VEC2"
    },
    {
      "bufferView" : 141,
      "componentType" : 5126,
      "count" : 2176,
      "type" : "VEC2"
    },
    {
      "bufferView" : 142,
      "componentType" : 5126,
      "count" : 2176,
      "type" : "VEC2"
    },
    {
      "bufferView" : 143,
      "componentType" : 5126,
      "count" : 2176,
      "type" : "VEC2"
    },
    {
      "bufferView" : 144,
      "componentType" : 5123,
      "count" : 36,
      "type" : "SCALAR"
    },
    {
      "bufferView" : 145,
      "min" : [ 45.4836, 5.99999, 9.84083 ],
      "max" : [ 62.0034, 7.1, 22.2587 ],
      "componentType" : 5126,
      "count" : 24,
      "type" : "VEC3"
    },
    {
      "bufferView" : 146,
      "componentType" : 5126,
      "count" : 24,
      "type" : "VEC3"
    },
    {
      "bufferView" : 147,
      "componentType" : 5126,
      "count" : 24,
      "type" : "VEC4"
    },
    {
      "bufferView" : 148,
      "normalized" : true,
      "componentType" : 5121,
      "count" : 24,
      "type" : "VEC4"
    },
    {
      "bufferView" : 149,
      "componentType" : 5126,
      "count" : 24,
      "type" : "VEC2"
    },
    {
      "bufferView" : 150,
      "componentType" : 5126,
      "count" : 24,
      "type" : "VEC2"
    },
    {
      "bufferView" : 151,
      "componentType" : 5126,
      "count" : 24,
      "type" : "VEC2"
    },
    {
      "bufferView" : 152,
      "componentType" : 5126,
      "count" : 24,
      "type" : "VEC2"
    }
  ]
}
