{
  "asset" : {
    "generator" : "UE Viewer (umodel) build 1544 based",
    "version" : "2.0"
  },
  "scene" : 0,
  "scenes" : [
    {
      "nodes" : [ 0 ]
    }
  ],
  "nodes" : [
    {
      "name" : "SM_ENV_KNVLLG03_AreaC_ToriiA",
      "mesh" : 0
    }
  ],
  "materials" : [
    {
      "name" : "MI_ENV_LKNVLD_Eaves_F",
      "pbrMetallicRoughness" : {
        "baseColorFactor" : [ 0.3, 0.3, 0.3, 1.0 ],
        "metallicFactor" : 0.1,
        "roughnessFactor" : 0.5
      }
    },
    {
      "name" : "MI_ENV_LKNVLD_WoodTorii_A",
      "pbrMetallicRoughness" : {
        "baseColorFactor" : [ 0.9, 0.3, 0.3, 1.0 ],
        "metallicFactor" : 0.1,
        "roughnessFactor" : 0.5
      }
    },
    {
      "name" : "MI_ENV_LKNVLD_StoneTrim_Ground",
      "pbrMetallicRoughness" : {
        "baseColorFactor" : [ 0.3, 0.9, 0.3, 1.0 ],
        "metallicFactor" : 0.1,
        "roughnessFactor" : 0.5
      }
    },
    {
      "name" : "MI_ENV_LKNVLD_RoughTiles",
      "pbrMetallicRoughness" : {
        "baseColorFactor" : [ 0.3, 0.3, 0.9, 1.0 ],
        "metallicFactor" : 0.1,
        "roughnessFactor" : 0.5
      }
    },
    {
      "name" : "MI_ENV_LKNVLD_Rope_A_Animated",
      "pbrMetallicRoughness" : {
        "baseColorFactor" : [ 0.9, 0.9, 0.9, 1.0 ],
        "metallicFactor" : 0.1,
        "roughnessFactor" : 0.5
      }
    },
    {
      "name" : "MI_ENV_LKNVLD_ClanSignboard_J",
      "pbrMetallicRoughness" : {
        "baseColorFactor" : [ 0.9, 0.9, 0.3, 1.0 ],
        "metallicFactor" : 0.1,
        "roughnessFactor" : 0.5
      }
    }
  ],
  "meshes" : [
    {
      "primitives" : [
        {
          "attributes" : {
            "POSITION" : 1,
            "NORMAL" : 2,
            "TANGENT" : 3,
            "COLOR_0" : 4,
            "TEXCOORD_0" : 5,
            "TEXCOORD_1" : 6,
            "TEXCOORD_2" : 7,
            "TEXCOORD_3" : 8
          },
          "indices" : 0,
          "material" : 0
        },
        {
          "attributes" : {
            "POSITION" : 10,
            "NORMAL" : 11,
            "TANGENT" : 12,
            "COLOR_0" : 13,
            "TEXCOORD_0" : 14,
            "TEXCOORD_1" : 15,
            "TEXCOORD_2" : 16,
            "TEXCOORD_3" : 17
          },
          "indices" : 9,
          "material" : 1
        },
        {
          "attributes" : {
            "POSITION" : 19,
            "NORMAL" : 20,
            "TANGENT" : 21,
            "COLOR_0" : 22,
            "TEXCOORD_0" : 23,
            "TEXCOORD_1" : 24,
            "TEXCOORD_2" : 25,
            "TEXCOORD_3" : 26
          },
          "indices" : 18,
          "material" : 2
        },
        {
          "attributes" : {
            "POSITION" : 28,
            "NORMAL" : 29,
            "TANGENT" : 30,
            "COLOR_0" : 31,
            "TEXCOORD_0" : 32,
            "TEXCOORD_1" : 33,
            "TEXCOORD_2" : 34,
            "TEXCOORD_3" : 35
          },
          "indices" : 27,
          "material" : 3
        },
        {
          "attributes" : {
            "POSITION" : 37,
            "NORMAL" : 38,
            "TANGENT" : 39,
            "COLOR_0" : 40,
            "TEXCOORD_0" : 41,
            "TEXCOORD_1" : 42,
            "TEXCOORD_2" : 43,
            "TEXCOORD_3" : 44
          },
          "indices" : 36,
          "material" : 4
        },
        {
          "attributes" : {
            "POSITION" : 46,
            "NORMAL" : 47,
            "TANGENT" : 48,
            "COLOR_0" : 49,
            "TEXCOORD_0" : 50,
            "TEXCOORD_1" : 51,
            "TEXCOORD_2" : 52,
            "TEXCOORD_3" : 53
          },
          "indices" : 45,
          "material" : 5
        }
      ],
      "name" : "SM_ENV_KNVLLG03_AreaC_ToriiA"
    }
  ],
  "buffers" : [
    {
      "uri" : "SM_ENV_KNVLLG03_AreaC_ToriiA.bin",
      "byteLength" : 572860
    }
  ],
  "bufferViews" : [
    {
      "buffer" : 0,
      "byteOffset" : 0,
      "byteLength" : 2760
    },
    {
      "buffer" : 0,
      "byteOffset" : 2760,
      "byteLength" : 11844
    },
    {
      "buffer" : 0,
      "byteOffset" : 14604,
      "byteLength" : 11844
    },
    {
      "buffer" : 0,
      "byteOffset" : 26448,
      "byteLength" : 15792
    },
    {
      "buffer" : 0,
      "byteOffset" : 42240,
      "byteLength" : 3948
    },
    {
      "buffer" : 0,
      "byteOffset" : 46188,
      "byteLength" : 7896
    },
    {
      "buffer" : 0,
      "byteOffset" : 54084,
      "byteLength" : 7896
    },
    {
      "buffer" : 0,
      "byteOffset" : 61980,
      "byteLength" : 7896
    },
    {
      "buffer" : 0,
      "byteOffset" : 69876,
      "byteLength" : 7896
    },
    {
      "buffer" : 0,
      "byteOffset" : 77772,
      "byteLength" : 7548
    },
    {
      "buffer" : 0,
      "byteOffset" : 85320,
      "byteLength" : 25704
    },
    {
      "buffer" : 0,
      "byteOffset" : 111024,
      "byteLength" : 25704
    },
    {
      "buffer" : 0,
      "byteOffset" : 136728,
      "byteLength" : 34272
    },
    {
      "buffer" : 0,
      "byteOffset" : 171000,
      "byteLength" : 8568
    },
    {
      "buffer" : 0,
      "byteOffset" : 179568,
      "byteLength" : 17136
    },
    {
      "buffer" : 0,
      "byteOffset" : 196704,
      "byteLength" : 17136
    },
    {
      "buffer" : 0,
      "byteOffset" : 213840,
      "byteLength" : 17136
    },
    {
      "buffer" : 0,
      "byteOffset" : 230976,
      "byteLength" : 17136
    },
    {
      "buffer" : 0,
      "byteOffset" : 248112,
      "byteLength" : 600
    },
    {
      "buffer" : 0,
      "byteOffset" : 248712,
      "byteLength" : 1812
    },
    {
      "buffer" : 0,
      "byteOffset" : 250524,
      "byteLength" : 1812
    },
    {
      "buffer" : 0,
      "byteOffset" : 252336,
      "byteLength" : 2416
    },
    {
      "buffer" : 0,
      "byteOffset" : 254752,
      "byteLength" : 604
    },
    {
      "buffer" : 0,
      "byteOffset" : 255356,
      "byteLength" : 1208
    },
    {
      "buffer" : 0,
      "byteOffset" : 256564,
      "byteLength" : 1208
    },
    {
      "buffer" : 0,
      "byteOffset" : 257772,
      "byteLength" : 1208
    },
    {
      "buffer" : 0,
      "byteOffset" : 258980,
      "byteLength" : 1208
    },
    {
      "buffer" : 0,
      "byteOffset" : 260188,
      "byteLength" : 3756
    },
    {
      "buffer" : 0,
      "byteOffset" : 263944,
      "byteLength" : 16776
    },
    {
      "buffer" : 0,
      "byteOffset" : 280720,
      "byteLength" : 16776
    },
    {
      "buffer" : 0,
      "byteOffset" : 297496,
      "byteLength" : 22368
    },
    {
      "buffer" : 0,
      "byteOffset" : 319864,
      "byteLength" : 5592
    },
    {
      "buffer" : 0,
      "byteOffset" : 325456,
      "byteLength" : 11184
    },
    {
      "buffer" : 0,
      "byteOffset" : 336640,
      "byteLength" : 11184
    },
    {
      "buffer" : 0,
      "byteOffset" : 347824,
      "byteLength" : 11184
    },
    {
      "buffer" : 0,
      "byteOffset" : 359008,
      "byteLength" : 11184
    },
    {
      "buffer" : 0,
      "byteOffset" : 370192,
      "byteLength" : 7908
    },
    {
      "buffer" : 0,
      "byteOffset" : 378100,
      "byteLength" : 26364
    },
    {
      "buffer" : 0,
      "byteOffset" : 404464,
      "byteLength" : 26364
    },
    {
      "buffer" : 0,
      "byteOffset" : 430828,
      "byteLength" : 35152
    },
    {
      "buffer" : 0,
      "byteOffset" : 465980,
      "byteLength" : 8788
    },
    {
      "buffer" : 0,
      "byteOffset" : 474768,
      "byteLength" : 17576
    },
    {
      "buffer" : 0,
      "byteOffset" : 492344,
      "byteLength" : 17576
    },
    {
      "buffer" : 0,
      "byteOffset" : 509920,
      "byteLength" : 17576
    },
    {
      "buffer" : 0,
      "byteOffset" : 527496,
      "byteLength" : 17576
    },
    {
      "buffer" : 0,
      "byteOffset" : 545072,
      "byteLength" : 732
    },
    {
      "buffer" : 0,
      "byteOffset" : 545804,
      "byteLength" : 4272
    },
    {
      "buffer" : 0,
      "byteOffset" : 550076,
      "byteLength" : 4272
    },
    {
      "buffer" : 0,
      "byteOffset" : 554348,
      "byteLength" : 5696
    },
    {
      "buffer" : 0,
      "byteOffset" : 560044,
      "byteLength" : 1424
    },
    {
      "buffer" : 0,
      "byteOffset" : 561468,
      "byteLength" : 2848
    },
    {
      "buffer" : 0,
      "byteOffset" : 564316,
      "byteLength" : 2848
    },
    {
      "buffer" : 0,
      "byteOffset" : 567164,
      "byteLength" : 2848
    },
    {
      "buffer" : 0,
      "byteOffset" : 570012,
      "byteLength" : 2848
    }
  ],
  "accessors" : [
    {
      "bufferView" : 0,
      "componentType" : 5123,
      "count" : 1380,
      "type" : "SCALAR"
    },
    {
      "bufferView" : 1,
      "min" : [ -27.3958, 9.16376, -30.3958 ],
      "max" : [ -16.4503, 12.8413, -19.4503 ],
      "componentType" : 5126,
      "count" : 987,
      "type" : "VEC3"
    },
    {
      "bufferView" : 2,
      "componentType" : 5126,
      "count" : 987,
      "type" : "VEC3"
    },
    {
      "bufferView" : 3,
      "componentType" : 5126,
      "count" : 987,
      "type" : "VEC4"
    },
    {
      "bufferView" : 4,
      "normalized" : true,
      "componentType" : 5121,
      "count" : 987,
      "type" : "VEC4"
    },
    {
      "bufferView" : 5,
      "componentType" : 5126,
      "count" : 987,
      "type" : "VEC2"
    },
    {
      "bufferView" : 6,
      "componentType" : 5126,
      "count" : 987,
      "type" : "VEC2"
    },
    {
      "bufferView" : 7,
      "componentType" : 5126,
      "count" : 987,
      "type" : "VEC2"
    },
    {
      "bufferView" : 8,
      "componentType" : 5126,
      "count" : 987,
      "type" : "VEC2"
    },
    {
      "bufferView" : 9,
      "componentType" : 5123,
      "count" : 3774,
      "type" : "SCALAR"
    },
    {
      "bufferView" : 10,
      "min" : [ -27.3396, 0.3, -30.3396 ],
      "max" : [ -16.5065, 12.5252, -19.5065 ],
      "componentType" : 5126,
      "count" : 2142,
      "type" : "VEC3"
    },
    {
      "bufferView" : 11,
      "componentType" : 5126,
      "count" : 2142,
      "type" : "VEC3"
    },
    {
      "bufferView" : 12,
      "componentType" : 5126,
      "count" : 2142,
      "type" : "VEC4"
    },
    {
      "bufferView" : 13,
      "normalized" : true,
      "componentType" : 5121,
      "count" : 2142,
      "type" : "VEC4"
    },
    {
      "bufferView" : 14,
      "componentType" : 5126,
      "count" : 2142,
      "type" : "VEC2"
    },
    {
      "bufferView" : 15,
      "componentType" : 5126,
      "count" : 2142,
      "type" : "VEC2"
    },
    {
      "bufferView" : 16,
      "componentType" : 5126,
      "count" : 2142,
      "type" : "VEC2"
    },
    {
      "bufferView" : 17,
      "componentType" : 5126,
      "count" : 2142,
      "type" : "VEC2"
    },
    {
      "bufferView" : 18,
      "componentType" : 5123,
      "count" : 300,
      "type" : "SCALAR"
    },
    {
      "bufferView" : 19,
      "min" : [ -26.1698, -0.101599, -29.1714 ],
      "max" : [ -17.7217, 0.323718, -20.7234 ],
      "componentType" : 5126,
      "count" : 151,
      "type" : "VEC3"
    },
    {
      "bufferView" : 20,
      "componentType" : 5126,
      "count" : 151,
      "type" : "VEC3"
    },
    {
      "bufferView" : 21,
      "componentType" : 5126,
      "count" : 151,
      "type" : "VEC4"
    },
    {
      "bufferView" : 22,
      "normalized" : true,
      "componentType" : 5121,
      "count" : 151,
      "type" : "VEC4"
    },
    {
      "bufferView" : 23,
      "componentType" : 5126,
      "count" : 151,
      "type" : "VEC2"
    },
    {
      "bufferView" : 24,
      "componentType" : 5126,
      "count" : 151,
      "type" : "VEC2"
    },
    {
      "bufferView" : 25,
      "componentType" : 5126,
      "count" : 151,
      "type" : "VEC2"
    },
    {
      "bufferView" : 26,
      "componentType" : 5126,
      "count" : 151,
      "type" : "VEC2"
    },
    {
      "bufferView" : 27,
      "componentType" : 5123,
      "count" : 1878,
      "type" : "SCALAR"
    },
    {
      "bufferView" : 28,
      "min" : [ -26.231, -0.264165, -29.2325 ],
      "max" : [ -17.6607, 0.365984, -20.6621 ],
      "componentType" : 5126,
      "count" : 1398,
      "type" : "VEC3"
    },
    {
      "bufferView" : 29,
      "componentType" : 5126,
      "count" : 1398,
      "type" : "VEC3"
    },
    {
      "bufferView" : 30,
      "componentType" : 5126,
      "count" : 1398,
      "type" : "VEC4"
    },
    {
      "bufferView" : 31,
      "normalized" : true,
      "componentType" : 5121,
      "count" : 1398,
      "type" : "VEC4"
    },
    {
      "bufferView" : 32,
      "componentType" : 5126,
      "count" : 1398,
      "type" : "VEC2"
    },
    {
      "bufferView" : 33,
      "componentType" : 5126,
      "count" : 1398,
      "type" : "VEC2"
    },
    {
      "bufferView" : 34,
      "componentType" : 5126,
      "count" : 1398,
      "type" : "VEC2"
    },
    {
      "bufferView" : 35,
      "componentType" : 5126,
      "count" : 1398,
      "type" : "VEC2"
    },
    {
      "bufferView" : 36,
      "componentType" : 5123,
      "count" : 3954,
      "type" : "SCALAR"
    },
    {
      "bufferView" : 37,
      "min" : [ -24.1673, 7.6237, -27.1673 ],
      "max" : [ -18.7947, 9.78905, -21.7947 ],
      "componentType" : 5126,
      "count" : 2197,
      "type" : "VEC3"
    },
    {
      "bufferView" : 38,
      "componentType" : 5126,
      "count" : 2197,
      "type" : "VEC3"
    },
    {
      "bufferView" : 39,
      "componentType" : 5126,
      "count" : 2197,
      "type" : "VEC4"
    },
    {
      "bufferView" : 40,
      "normalized" : true,
      "componentType" : 5121,
      "count" : 2197,
      "type" : "VEC4"
    },
    {
      "bufferView" : 41,
      "componentType" : 5126,
      "count" : 2197,
      "type" : "VEC2"
    },
    {
      "bufferView" : 42,
      "componentType" : 5126,
      "count" : 2197,
      "type" : "VEC2"
    },
    {
      "bufferView" : 43,
      "componentType" : 5126,
      "count" : 2197,
      "type" : "VEC2"
    },
    {
      "bufferView" : 44,
      "componentType" : 5126,
      "count" : 2197,
      "type" : "VEC2"
    },
    {
      "bufferView" : 45,
      "componentType" : 5123,
      "count" : 366,
      "type" : "SCALAR"
    },
    {
      "bufferView" : 46,
      "min" : [ -22.2044, 9.92895, -25.2044 ],
      "max" : [ -21.2475, 11.5701, -24.2475 ],
      "componentType" : 5126,
      "count" : 356,
      "type" : "VEC3"
    },
    {
      "bufferView" : 47,
      "componentType" : 5126,
      "count" : 356,
      "type" : "VEC3"
    },
    {
      "bufferView" : 48,
      "componentType" : 5126,
      "count" : 356,
      "type" : "VEC4"
    },
    {
      "bufferView" : 49,
      "normalized" : true,
      "componentType" : 5121,
      "count" : 356,
      "type" : "VEC4"
    },
    {
      "bufferView" : 50,
      "componentType" : 5126,
      "count" : 356,
      "type" : "VEC2"
    },
    {
      "bufferView" : 51,
      "componentType" : 5126,
      "count" : 356,
      "type" : "VEC2"
    },
    {
      "bufferView" : 52,
      "componentType" : 5126,
      "count" : 356,
      "type" : "VEC2"
    },
    {
      "bufferView" : 53,
      "componentType" : 5126,
      "count" : 356,
      "type" : "VEC2"
    }
  ]
}
