{
  "asset" : {
    "generator" : "UE Viewer (umodel) build 1544 based",
    "version" : "2.0"
  },
  "scene" : 0,
  "scenes" : [
    {
      "nodes" : [ 0 ]
    }
  ],
  "nodes" : [
    {
      "name" : "SM_ENV_KNVLLG03_Ground_Wood_G_01",
      "mesh" : 0
    }
  ],
  "materials" : [
    {
      "name" : "MI_ENV_LKNVLD_WoodBoard_Natural_Lighter",
      "pbrMetallicRoughness" : {
        "baseColorFactor" : [ 0.3, 0.3, 0.3, 1.0 ],
        "metallicFactor" : 0.1,
        "roughnessFactor" : 0.5
      }
    }
  ],
  "meshes" : [
    {
      "primitives" : [
        {
          "attributes" : {
            "POSITION" : 1,
            "NORMAL" : 2,
            "TANGENT" : 3,
            "TEXCOORD_0" : 4,
            "TEXCOORD_1" : 5,
            "TEXCOORD_2" : 6,
            "TEXCOORD_3" : 7
          },
          "indices" : 0,
          "material" : 0
        }
      ],
      "name" : "SM_ENV_KNVLLG03_Ground_Wood_G_01"
    }
  ],
  "buffers" : [
    {
      "uri" : "SM_ENV_KNVLLG03_Ground_Wood_G_01.bin",
      "byteLength" : 323604
    }
  ],
  "bufferViews" : [
    {
      "buffer" : 0,
      "byteOffset" : 0,
      "byteLength" : 16020
    },
    {
      "buffer" : 0,
      "byteOffset" : 16020,
      "byteLength" : 51264
    },
    {
      "buffer" : 0,
      "byteOffset" : 67284,
      "byteLength" : 51264
    },
    {
      "buffer" : 0,
      "byteOffset" : 118548,
      "byteLength" : 68352
    },
    {
      "buffer" : 0,
      "byteOffset" : 186900,
      "byteLength" : 34176
    },
    {
      "buffer" : 0,
      "byteOffset" : 221076,
      "byteLength" : 34176
    },
    {
      "buffer" : 0,
      "byteOffset" : 255252,
      "byteLength" : 34176
    },
    {
      "buffer" : 0,
      "byteOffset" : 289428,
      "byteLength" : 34176
    }
  ],
  "accessors" : [
    {
      "bufferView" : 0,
      "componentType" : 5123,
      "count" : 8010,
      "type" : "SCALAR"
    },
    {
      "bufferView" : 1,
      "min" : [ -17.6907, -0.267457, -30.1183 ],
      "max" : [ -7.50579, -0.196744, 69.3136 ],
      "componentType" : 5126,
      "count" : 4272,
      "type" : "VEC3"
    },
    {
      "bufferView" : 2,
      "componentType" : 5126,
      "count" : 4272,
      "type" : "VEC3"
    },
    {
      "bufferView" : 3,
      "componentType" : 5126,
      "count" : 4272,
      "type" : "VEC4"
    },
    {
      "bufferView" : 4,
      "componentType" : 5126,
      "count" : 4272,
      "type" : "VEC2"
    },
    {
      "bufferView" : 5,
      "componentType" : 5126,
      "count" : 4272,
      "type" : "VEC2"
    },
    {
      "bufferView" : 6,
      "componentType" : 5126,
      "count" : 4272,
      "type" : "VEC2"
    },
    {
      "bufferView" : 7,
      "componentType" : 5126,
      "count" : 4272,
      "type" : "VEC2"
    }
  ]
}
