{
  "asset" : {
    "generator" : "UE Viewer (umodel) build 1544 based",
    "version" : "2.0"
  },
  "scene" : 0,
  "scenes" : [
    {
      "nodes" : [ 0 ]
    }
  ],
  "nodes" : [
    {
      "name" : "SM_ENV_KNVLLG03_AreaE_ToriiA",
      "mesh" : 0
    }
  ],
  "materials" : [
    {
      "name" : "MI_ENV_LKNVLD_StoneTrim_Ground",
      "pbrMetallicRoughness" : {
        "baseColorFactor" : [ 0.3, 0.3, 0.3, 1.0 ],
        "metallicFactor" : 0.1,
        "roughnessFactor" : 0.5
      }
    },
    {
      "name" : "MI_ENV_LKNVLD_RoughTiles",
      "pbrMetallicRoughness" : {
        "baseColorFactor" : [ 0.9, 0.3, 0.3, 1.0 ],
        "metallicFactor" : 0.1,
        "roughnessFactor" : 0.5
      }
    },
    {
      "name" : "MI_ENV_LKNVLD_Eaves_F",
      "pbrMetallicRoughness" : {
        "baseColorFactor" : [ 0.3, 0.9, 0.3, 1.0 ],
        "metallicFactor" : 0.1,
        "roughnessFactor" : 0.5
      }
    },
    {
      "name" : "MI_ENV_LKNVLD_Rope_A_Animated",
      "pbrMetallicRoughness" : {
        "baseColorFactor" : [ 0.3, 0.3, 0.9, 1.0 ],
        "metallicFactor" : 0.1,
        "roughnessFactor" : 0.5
      }
    },
    {
      "name" : "MI_ENV_LKNVLD_ClanSignboard_J",
      "pbrMetallicRoughness" : {
        "baseColorFactor" : [ 0.9, 0.9, 0.9, 1.0 ],
        "metallicFactor" : 0.1,
        "roughnessFactor" : 0.5
      }
    },
    {
      "name" : "MI_ENV_LKNVLD_WoodTorii_A",
      "pbrMetallicRoughness" : {
        "baseColorFactor" : [ 0.9, 0.9, 0.3, 1.0 ],
        "metallicFactor" : 0.1,
        "roughnessFactor" : 0.5
      }
    }
  ],
  "meshes" : [
    {
      "primitives" : [
        {
          "attributes" : {
            "POSITION" : 1,
            "NORMAL" : 2,
            "TANGENT" : 3,
            "COLOR_0" : 4,
            "TEXCOORD_0" : 5,
            "TEXCOORD_1" : 6,
            "TEXCOORD_2" : 7,
            "TEXCOORD_3" : 8
          },
          "indices" : 0,
          "material" : 0
        },
        {
          "attributes" : {
            "POSITION" : 10,
            "NORMAL" : 11,
            "TANGENT" : 12,
            "COLOR_0" : 13,
            "TEXCOORD_0" : 14,
            "TEXCOORD_1" : 15,
            "TEXCOORD_2" : 16,
            "TEXCOORD_3" : 17
          },
          "indices" : 9,
          "material" : 1
        },
        {
          "attributes" : {
            "POSITION" : 19,
            "NORMAL" : 20,
            "TANGENT" : 21,
            "COLOR_0" : 22,
            "TEXCOORD_0" : 23,
            "TEXCOORD_1" : 24,
            "TEXCOORD_2" : 25,
            "TEXCOORD_3" : 26
          },
          "indices" : 18,
          "material" : 2
        },
        {
          "attributes" : {
            "POSITION" : 28,
            "NORMAL" : 29,
            "TANGENT" : 30,
            "COLOR_0" : 31,
            "TEXCOORD_0" : 32,
            "TEXCOORD_1" : 33,
            "TEXCOORD_2" : 34,
            "TEXCOORD_3" : 35
          },
          "indices" : 27,
          "material" : 3
        },
        {
          "attributes" : {
            "POSITION" : 37,
            "NORMAL" : 38,
            "TANGENT" : 39,
            "COLOR_0" : 40,
            "TEXCOORD_0" : 41,
            "TEXCOORD_1" : 42,
            "TEXCOORD_2" : 43,
            "TEXCOORD_3" : 44
          },
          "indices" : 36,
          "material" : 4
        },
        {
          "attributes" : {
            "POSITION" : 46,
            "NORMAL" : 47,
            "TANGENT" : 48,
            "COLOR_0" : 49,
            "TEXCOORD_0" : 50,
            "TEXCOORD_1" : 51,
            "TEXCOORD_2" : 52,
            "TEXCOORD_3" : 53
          },
          "indices" : 45,
          "material" : 5
        }
      ],
      "name" : "SM_ENV_KNVLLG03_AreaE_ToriiA"
    }
  ],
  "buffers" : [
    {
      "uri" : "SM_ENV_KNVLLG03_AreaE_ToriiA.bin",
      "byteLength" : 321908
    }
  ],
  "bufferViews" : [
    {
      "buffer" : 0,
      "byteOffset" : 0,
      "byteLength" : 600
    },
    {
      "buffer" : 0,
      "byteOffset" : 600,
      "byteLength" : 1248
    },
    {
      "buffer" : 0,
      "byteOffset" : 1848,
      "byteLength" : 1248
    },
    {
      "buffer" : 0,
      "byteOffset" : 3096,
      "byteLength" : 1664
    },
    {
      "buffer" : 0,
      "byteOffset" : 4760,
      "byteLength" : 416
    },
    {
      "buffer" : 0,
      "byteOffset" : 5176,
      "byteLength" : 832
    },
    {
      "buffer" : 0,
      "byteOffset" : 6008,
      "byteLength" : 832
    },
    {
      "buffer" : 0,
      "byteOffset" : 6840,
      "byteLength" : 832
    },
    {
      "buffer" : 0,
      "byteOffset" : 7672,
      "byteLength" : 832
    },
    {
      "buffer" : 0,
      "byteOffset" : 8504,
      "byteLength" : 3756
    },
    {
      "buffer" : 0,
      "byteOffset" : 12260,
      "byteLength" : 6480
    },
    {
      "buffer" : 0,
      "byteOffset" : 18740,
      "byteLength" : 6480
    },
    {
      "buffer" : 0,
      "byteOffset" : 25220,
      "byteLength" : 8640
    },
    {
      "buffer" : 0,
      "byteOffset" : 33860,
      "byteLength" : 2160
    },
    {
      "buffer" : 0,
      "byteOffset" : 36020,
      "byteLength" : 4320
    },
    {
      "buffer" : 0,
      "byteOffset" : 40340,
      "byteLength" : 4320
    },
    {
      "buffer" : 0,
      "byteOffset" : 44660,
      "byteLength" : 4320
    },
    {
      "buffer" : 0,
      "byteOffset" : 48980,
      "byteLength" : 4320
    },
    {
      "buffer" : 0,
      "byteOffset" : 53300,
      "byteLength" : 2760
    },
    {
      "buffer" : 0,
      "byteOffset" : 56060,
      "byteLength" : 7200
    },
    {
      "buffer" : 0,
      "byteOffset" : 63260,
      "byteLength" : 7200
    },
    {
      "buffer" : 0,
      "byteOffset" : 70460,
      "byteLength" : 9600
    },
    {
      "buffer" : 0,
      "byteOffset" : 80060,
      "byteLength" : 2400
    },
    {
      "buffer" : 0,
      "byteOffset" : 82460,
      "byteLength" : 4800
    },
    {
      "buffer" : 0,
      "byteOffset" : 87260,
      "byteLength" : 4800
    },
    {
      "buffer" : 0,
      "byteOffset" : 92060,
      "byteLength" : 4800
    },
    {
      "buffer" : 0,
      "byteOffset" : 96860,
      "byteLength" : 4800
    },
    {
      "buffer" : 0,
      "byteOffset" : 101660,
      "byteLength" : 7908
    },
    {
      "buffer" : 0,
      "byteOffset" : 109568,
      "byteLength" : 11232
    },
    {
      "buffer" : 0,
      "byteOffset" : 120800,
      "byteLength" : 11232
    },
    {
      "buffer" : 0,
      "byteOffset" : 132032,
      "byteLength" : 14976
    },
    {
      "buffer" : 0,
      "byteOffset" : 147008,
      "byteLength" : 3744
    },
    {
      "buffer" : 0,
      "byteOffset" : 150752,
      "byteLength" : 7488
    },
    {
      "buffer" : 0,
      "byteOffset" : 158240,
      "byteLength" : 7488
    },
    {
      "buffer" : 0,
      "byteOffset" : 165728,
      "byteLength" : 7488
    },
    {
      "buffer" : 0,
      "byteOffset" : 173216,
      "byteLength" : 7488
    },
    {
      "buffer" : 0,
      "byteOffset" : 180704,
      "byteLength" : 732
    },
    {
      "buffer" : 0,
      "byteOffset" : 181436,
      "byteLength" : 2544
    },
    {
      "buffer" : 0,
      "byteOffset" : 183980,
      "byteLength" : 2544
    },
    {
      "buffer" : 0,
      "byteOffset" : 186524,
      "byteLength" : 3392
    },
    {
      "buffer" : 0,
      "byteOffset" : 189916,
      "byteLength" : 848
    },
    {
      "buffer" : 0,
      "byteOffset" : 190764,
      "byteLength" : 1696
    },
    {
      "buffer" : 0,
      "byteOffset" : 192460,
      "byteLength" : 1696
    },
    {
      "buffer" : 0,
      "byteOffset" : 194156,
      "byteLength" : 1696
    },
    {
      "buffer" : 0,
      "byteOffset" : 195852,
      "byteLength" : 1696
    },
    {
      "buffer" : 0,
      "byteOffset" : 197548,
      "byteLength" : 7548
    },
    {
      "buffer" : 0,
      "byteOffset" : 205096,
      "byteLength" : 18444
    },
    {
      "buffer" : 0,
      "byteOffset" : 223540,
      "byteLength" : 18444
    },
    {
      "buffer" : 0,
      "byteOffset" : 241984,
      "byteLength" : 24592
    },
    {
      "buffer" : 0,
      "byteOffset" : 266576,
      "byteLength" : 6148
    },
    {
      "buffer" : 0,
      "byteOffset" : 272724,
      "byteLength" : 12296
    },
    {
      "buffer" : 0,
      "byteOffset" : 285020,
      "byteLength" : 12296
    },
    {
      "buffer" : 0,
      "byteOffset" : 297316,
      "byteLength" : 12296
    },
    {
      "buffer" : 0,
      "byteOffset" : 309612,
      "byteLength" : 12296
    }
  ],
  "accessors" : [
    {
      "bufferView" : 0,
      "componentType" : 5123,
      "count" : 300,
      "type" : "SCALAR"
    },
    {
      "bufferView" : 1,
      "min" : [ 17.4759, -0.101599, -28.9223 ],
      "max" : [ 25.9239, 0.323718, -20.4742 ],
      "componentType" : 5126,
      "count" : 104,
      "type" : "VEC3"
    },
    {
      "bufferView" : 2,
      "componentType" : 5126,
      "count" : 104,
      "type" : "VEC3"
    },
    {
      "bufferView" : 3,
      "componentType" : 5126,
      "count" : 104,
      "type" : "VEC4"
    },
    {
      "bufferView" : 4,
      "normalized" : true,
      "componentType" : 5121,
      "count" : 104,
      "type" : "VEC4"
    },
    {
      "bufferView" : 5,
      "componentType" : 5126,
      "count" : 104,
      "type" : "VEC2"
    },
    {
      "bufferView" : 6,
      "componentType" : 5126,
      "count" : 104,
      "type" : "VEC2"
    },
    {
      "bufferView" : 7,
      "componentType" : 5126,
      "count" : 104,
      "type" : "VEC2"
    },
    {
      "bufferView" : 8,
      "componentType" : 5126,
      "count" : 104,
      "type" : "VEC2"
    },
    {
      "bufferView" : 9,
      "componentType" : 5123,
      "count" : 1878,
      "type" : "SCALAR"
    },
    {
      "bufferView" : 10,
      "min" : [ 17.4146, -0.264165, -28.9835 ],
      "max" : [ 25.985, 0.365984, -20.4132 ],
      "componentType" : 5126,
      "count" : 540,
      "type" : "VEC3"
    },
    {
      "bufferView" : 11,
      "componentType" : 5126,
      "count" : 540,
      "type" : "VEC3"
    },
    {
      "bufferView" : 12,
      "componentType" : 5126,
      "count" : 540,
      "type" : "VEC4"
    },
    {
      "bufferView" : 13,
      "normalized" : true,
      "componentType" : 5121,
      "count" : 540,
      "type" : "VEC4"
    },
    {
      "bufferView" : 14,
      "componentType" : 5126,
      "count" : 540,
      "type" : "VEC2"
    },
    {
      "bufferView" : 15,
      "componentType" : 5126,
      "count" : 540,
      "type" : "VEC2"
    },
    {
      "bufferView" : 16,
      "componentType" : 5126,
      "count" : 540,
      "type" : "VEC2"
    },
    {
      "bufferView" : 17,
      "componentType" : 5126,
      "count" : 540,
      "type" : "VEC2"
    },
    {
      "bufferView" : 18,
      "componentType" : 5123,
      "count" : 1380,
      "type" : "SCALAR"
    },
    {
      "bufferView" : 19,
      "min" : [ 16.2028, 9.16376, -30.1483 ],
      "max" : [ 27.1483, 12.8413, -19.2028 ],
      "componentType" : 5126,
      "count" : 600,
      "type" : "VEC3"
    },
    {
      "bufferView" : 20,
      "componentType" : 5126,
      "count" : 600,
      "type" : "VEC3"
    },
    {
      "bufferView" : 21,
      "componentType" : 5126,
      "count" : 600,
      "type" : "VEC4"
    },
    {
      "bufferView" : 22,
      "normalized" : true,
      "componentType" : 5121,
      "count" : 600,
      "type" : "VEC4"
    },
    {
      "bufferView" : 23,
      "componentType" : 5126,
      "count" : 600,
      "type" : "VEC2"
    },
    {
      "bufferView" : 24,
      "componentType" : 5126,
      "count" : 600,
      "type" : "VEC2"
    },
    {
      "bufferView" : 25,
      "componentType" : 5126,
      "count" : 600,
      "type" : "VEC2"
    },
    {
      "bufferView" : 26,
      "componentType" : 5126,
      "count" : 600,
      "type" : "VEC2"
    },
    {
      "bufferView" : 27,
      "componentType" : 5123,
      "count" : 3954,
      "type" : "SCALAR"
    },
    {
      "bufferView" : 28,
      "min" : [ 18.5472, 7.6237, -26.9198 ],
      "max" : [ 23.9198, 9.78905, -21.5472 ],
      "componentType" : 5126,
      "count" : 936,
      "type" : "VEC3"
    },
    {
      "bufferView" : 29,
      "componentType" : 5126,
      "count" : 936,
      "type" : "VEC3"
    },
    {
      "bufferView" : 30,
      "componentType" : 5126,
      "count" : 936,
      "type" : "VEC4"
    },
    {
      "bufferView" : 31,
      "normalized" : true,
      "componentType" : 5121,
      "count" : 936,
      "type" : "VEC4"
    },
    {
      "bufferView" : 32,
      "componentType" : 5126,
      "count" : 936,
      "type" : "VEC2"
    },
    {
      "bufferView" : 33,
      "componentType" : 5126,
      "count" : 936,
      "type" : "VEC2"
    },
    {
      "bufferView" : 34,
      "componentType" : 5126,
      "count" : 936,
      "type" : "VEC2"
    },
    {
      "bufferView" : 35,
      "componentType" : 5126,
      "count" : 936,
      "type" : "VEC2"
    },
    {
      "bufferView" : 36,
      "componentType" : 5123,
      "count" : 366,
      "type" : "SCALAR"
    },
    {
      "bufferView" : 37,
      "min" : [ 21, 9.92895, -24.9569 ],
      "max" : [ 21.9569, 11.5701, -24 ],
      "componentType" : 5126,
      "count" : 212,
      "type" : "VEC3"
    },
    {
      "bufferView" : 38,
      "componentType" : 5126,
      "count" : 212,
      "type" : "VEC3"
    },
    {
      "bufferView" : 39,
      "componentType" : 5126,
      "count" : 212,
      "type" : "VEC4"
    },
    {
      "bufferView" : 40,
      "normalized" : true,
      "componentType" : 5121,
      "count" : 212,
      "type" : "VEC4"
    },
    {
      "bufferView" : 41,
      "componentType" : 5126,
      "count" : 212,
      "type" : "VEC2"
    },
    {
      "bufferView" : 42,
      "componentType" : 5126,
      "count" : 212,
      "type" : "VEC2"
    },
    {
      "bufferView" : 43,
      "componentType" : 5126,
      "count" : 212,
      "type" : "VEC2"
    },
    {
      "bufferView" : 44,
      "componentType" : 5126,
      "count" : 212,
      "type" : "VEC2"
    },
    {
      "bufferView" : 45,
      "componentType" : 5123,
      "count" : 3774,
      "type" : "SCALAR"
    },
    {
      "bufferView" : 46,
      "min" : [ 16.259, 0.3, -30.0921 ],
      "max" : [ 27.0921, 12.5252, -19.259 ],
      "componentType" : 5126,
      "count" : 1537,
      "type" : "VEC3"
    },
    {
      "bufferView" : 47,
      "componentType" : 5126,
      "count" : 1537,
      "type" : "VEC3"
    },
    {
      "bufferView" : 48,
      "componentType" : 5126,
      "count" : 1537,
      "type" : "VEC4"
    },
    {
      "bufferView" : 49,
      "normalized" : true,
      "componentType" : 5121,
      "count" : 1537,
      "type" : "VEC4"
    },
    {
      "bufferView" : 50,
      "componentType" : 5126,
      "count" : 1537,
      "type" : "VEC2"
    },
    {
      "bufferView" : 51,
      "componentType" : 5126,
      "count" : 1537,
      "type" : "VEC2"
    },
    {
      "bufferView" : 52,
      "componentType" : 5126,
      "count" : 1537,
      "type" : "VEC2"
    },
    {
      "bufferView" : 53,
      "componentType" : 5126,
      "count" : 1537,
      "type" : "VEC2"
    }
  ]
}
