{
  "asset" : {
    "generator" : "UE Viewer (umodel) build 1544 based",
    "version" : "2.0"
  },
  "scene" : 0,
  "scenes" : [
    {
      "nodes" : [ 0 ]
    }
  ],
  "nodes" : [
    {
      "name" : "SM_ENV_KNVLLG03_AreaD_Hokage_Hill_RoundB",
      "mesh" : 0
    }
  ],
  "materials" : [
    {
      "name" : "MI_ENV_LKNVLD03_GroundSoil_A",
      "pbrMetallicRoughness" : {
        "baseColorFactor" : [ 0.3, 0.3, 0.3, 1.0 ],
        "metallicFactor" : 0.1,
        "roughnessFactor" : 0.5
      }
    },
    {
      "name" : "MI_ENV_LKNVLD_RoughTiles",
      "pbrMetallicRoughness" : {
        "baseColorFactor" : [ 0.9, 0.3, 0.3, 1.0 ],
        "metallicFactor" : 0.1,
        "roughnessFactor" : 0.5
      }
    }
  ],
  "meshes" : [
    {
      "primitives" : [
        {
          "attributes" : {
            "POSITION" : 1,
            "NORMAL" : 2,
            "TANGENT" : 3,
            "COLOR_0" : 4,
            "TEXCOORD_0" : 5,
            "TEXCOORD_1" : 6,
            "TEXCOORD_2" : 7,
            "TEXCOORD_3" : 8
          },
          "indices" : 0,
          "material" : 0
        },
        {
          "attributes" : {
            "POSITION" : 10,
            "NORMAL" : 11,
            "TANGENT" : 12,
            "COLOR_0" : 13,
            "TEXCOORD_0" : 14,
            "TEXCOORD_1" : 15,
            "TEXCOORD_2" : 16,
            "TEXCOORD_3" : 17
          },
          "indices" : 9,
          "material" : 1
        }
      ],
      "name" : "SM_ENV_KNVLLG03_AreaD_Hokage_Hill_RoundB"
    }
  ],
  "buffers" : [
    {
      "uri" : "SM_ENV_KNVLLG03_AreaD_Hokage_Hill_RoundB.bin",
      "byteLength" : 55156
    }
  ],
  "bufferViews" : [
    {
      "buffer" : 0,
      "byteOffset" : 0,
      "byteLength" : 1164
    },
    {
      "buffer" : 0,
      "byteOffset" : 1164,
      "byteLength" : 1656
    },
    {
      "buffer" : 0,
      "byteOffset" : 2820,
      "byteLength" : 1656
    },
    {
      "buffer" : 0,
      "byteOffset" : 4476,
      "byteLength" : 2208
    },
    {
      "buffer" : 0,
      "byteOffset" : 6684,
      "byteLength" : 552
    },
    {
      "buffer" : 0,
      "byteOffset" : 7236,
      "byteLength" : 1104
    },
    {
      "buffer" : 0,
      "byteOffset" : 8340,
      "byteLength" : 1104
    },
    {
      "buffer" : 0,
      "byteOffset" : 9444,
      "byteLength" : 1104
    },
    {
      "buffer" : 0,
      "byteOffset" : 10548,
      "byteLength" : 1104
    },
    {
      "buffer" : 0,
      "byteOffset" : 11652,
      "byteLength" : 5048
    },
    {
      "buffer" : 0,
      "byteOffset" : 16700,
      "byteLength" : 6072
    },
    {
      "buffer" : 0,
      "byteOffset" : 22772,
      "byteLength" : 6072
    },
    {
      "buffer" : 0,
      "byteOffset" : 28844,
      "byteLength" : 8096
    },
    {
      "buffer" : 0,
      "byteOffset" : 36940,
      "byteLength" : 2024
    },
    {
      "buffer" : 0,
      "byteOffset" : 38964,
      "byteLength" : 4048
    },
    {
      "buffer" : 0,
      "byteOffset" : 43012,
      "byteLength" : 4048
    },
    {
      "buffer" : 0,
      "byteOffset" : 47060,
      "byteLength" : 4048
    },
    {
      "buffer" : 0,
      "byteOffset" : 51108,
      "byteLength" : 4048
    }
  ],
  "accessors" : [
    {
      "bufferView" : 0,
      "componentType" : 5123,
      "count" : 582,
      "type" : "SCALAR"
    },
    {
      "bufferView" : 1,
      "min" : [ 5.19755, 7.03176, -158.506 ],
      "max" : [ 47.7381, 18.0739, -105.462 ],
      "componentType" : 5126,
      "count" : 138,
      "type" : "VEC3"
    },
    {
      "bufferView" : 2,
      "componentType" : 5126,
      "count" : 138,
      "type" : "VEC3"
    },
    {
      "bufferView" : 3,
      "componentType" : 5126,
      "count" : 138,
      "type" : "VEC4"
    },
    {
      "bufferView" : 4,
      "normalized" : true,
      "componentType" : 5121,
      "count" : 138,
      "type" : "VEC4"
    },
    {
      "bufferView" : 5,
      "componentType" : 5126,
      "count" : 138,
      "type" : "VEC2"
    },
    {
      "bufferView" : 6,
      "componentType" : 5126,
      "count" : 138,
      "type" : "VEC2"
    },
    {
      "bufferView" : 7,
      "componentType" : 5126,
      "count" : 138,
      "type" : "VEC2"
    },
    {
      "bufferView" : 8,
      "componentType" : 5126,
      "count" : 138,
      "type" : "VEC2"
    },
    {
      "bufferView" : 9,
      "componentType" : 5123,
      "count" : 2523,
      "type" : "SCALAR"
    },
    {
      "bufferView" : 10,
      "min" : [ 21.8265, 5.71633, -159.202 ],
      "max" : [ 48.4327, 18.2641, -104.766 ],
      "componentType" : 5126,
      "count" : 506,
      "type" : "VEC3"
    },
    {
      "bufferView" : 11,
      "componentType" : 5126,
      "count" : 506,
      "type" : "VEC3"
    },
    {
      "bufferView" : 12,
      "componentType" : 5126,
      "count" : 506,
      "type" : "VEC4"
    },
    {
      "bufferView" : 13,
      "normalized" : true,
      "componentType" : 5121,
      "count" : 506,
      "type" : "VEC4"
    },
    {
      "bufferView" : 14,
      "componentType" : 5126,
      "count" : 506,
      "type" : "VEC2"
    },
    {
      "bufferView" : 15,
      "componentType" : 5126,
      "count" : 506,
      "type" : "VEC2"
    },
    {
      "bufferView" : 16,
      "componentType" : 5126,
      "count" : 506,
      "type" : "VEC2"
    },
    {
      "bufferView" : 17,
      "componentType" : 5126,
      "count" : 506,
      "type" : "VEC2"
    }
  ]
}
