{
  "asset" : {
    "generator" : "UE Viewer (umodel) build 1544 based",
    "version" : "2.0"
  },
  "scene" : 0,
  "scenes" : [
    {
      "nodes" : [ 0 ]
    }
  ],
  "nodes" : [
    {
      "name" : "SM_ENV_KNVLLG03_AreaD_Hokage_GateB",
      "mesh" : 0
    }
  ],
  "materials" : [
    {
      "name" : "MI_ENV_LKNVLD03_Pipe_G",
      "pbrMetallicRoughness" : {
        "baseColorFactor" : [ 0.3, 0.3, 0.3, 1.0 ],
        "metallicFactor" : 0.1,
        "roughnessFactor" : 0.5
      }
    },
    {
      "name" : "MI_ENV_LKNVLD_RoofTiles_Yellow",
      "pbrMetallicRoughness" : {
        "baseColorFactor" : [ 0.9, 0.3, 0.3, 1.0 ],
        "metallicFactor" : 0.1,
        "roughnessFactor" : 0.5
      }
    },
    {
      "name" : "MI_ENV_LKNVLD_WoodBoard_Natural_Yellowed",
      "pbrMetallicRoughness" : {
        "baseColorFactor" : [ 0.3, 0.9, 0.3, 1.0 ],
        "metallicFactor" : 0.1,
        "roughnessFactor" : 0.5
      }
    },
    {
      "name" : "MI_ENV_LKNVLD_WoodPlain_Brown",
      "pbrMetallicRoughness" : {
        "baseColorFactor" : [ 0.3, 0.3, 0.9, 1.0 ],
        "metallicFactor" : 0.1,
        "roughnessFactor" : 0.5
      }
    },
    {
      "name" : "MI_ENV_LKNVLD03_RoofTiles_Grey",
      "pbrMetallicRoughness" : {
        "baseColorFactor" : [ 0.9, 0.9, 0.9, 1.0 ],
        "metallicFactor" : 0.1,
        "roughnessFactor" : 0.5
      }
    },
    {
      "name" : "MI_T_ENV_LKNVLD_StoneTrim",
      "pbrMetallicRoughness" : {
        "baseColorFactor" : [ 0.9, 0.9, 0.3, 1.0 ],
        "metallicFactor" : 0.1,
        "roughnessFactor" : 0.5
      }
    },
    {
      "name" : "MI_ENV_LKNVLD_Plaster_Pink",
      "pbrMetallicRoughness" : {
        "baseColorFactor" : [ 0.9, 0.3, 0.9, 1.0 ],
        "metallicFactor" : 0.1,
        "roughnessFactor" : 0.5
      }
    },
    {
      "name" : "MI_ENV_LKNVLD_Plaster_Beige",
      "pbrMetallicRoughness" : {
        "baseColorFactor" : [ 0.3, 0.9, 0.9, 1.0 ],
        "metallicFactor" : 0.1,
        "roughnessFactor" : 0.5
      }
    }
  ],
  "meshes" : [
    {
      "primitives" : [
        {
          "attributes" : {
            "POSITION" : 1,
            "NORMAL" : 2,
            "TANGENT" : 3,
            "COLOR_0" : 4,
            "TEXCOORD_0" : 5,
            "TEXCOORD_1" : 6,
            "TEXCOORD_2" : 7,
            "TEXCOORD_3" : 8
          },
          "indices" : 0,
          "material" : 0
        },
        {
          "attributes" : {
            "POSITION" : 10,
            "NORMAL" : 11,
            "TANGENT" : 12,
            "COLOR_0" : 13,
            "TEXCOORD_0" : 14,
            "TEXCOORD_1" : 15,
            "TEXCOORD_2" : 16,
            "TEXCOORD_3" : 17
          },
          "indices" : 9,
          "material" : 1
        },
        {
          "attributes" : {
            "POSITION" : 19,
            "NORMAL" : 20,
            "TANGENT" : 21,
            "COLOR_0" : 22,
            "TEXCOORD_0" : 23,
            "TEXCOORD_1" : 24,
            "TEXCOORD_2" : 25,
            "TEXCOORD_3" : 26
          },
          "indices" : 18,
          "material" : 2
        },
        {
          "attributes" : {
            "POSITION" : 28,
            "NORMAL" : 29,
            "TANGENT" : 30,
            "COLOR_0" : 31,
            "TEXCOORD_0" : 32,
            "TEXCOORD_1" : 33,
            "TEXCOORD_2" : 34,
            "TEXCOORD_3" : 35
          },
          "indices" : 27,
          "material" : 3
        },
        {
          "attributes" : {
            "POSITION" : 37,
            "NORMAL" : 38,
            "TANGENT" : 39,
            "COLOR_0" : 40,
            "TEXCOORD_0" : 41,
            "TEXCOORD_1" : 42,
            "TEXCOORD_2" : 43,
            "TEXCOORD_3" : 44
          },
          "indices" : 36,
          "material" : 4
        },
        {
          "attributes" : {
            "POSITION" : 46,
            "NORMAL" : 47,
            "TANGENT" : 48,
            "COLOR_0" : 49,
            "TEXCOORD_0" : 50,
            "TEXCOORD_1" : 51,
            "TEXCOORD_2" : 52,
            "TEXCOORD_3" : 53
          },
          "indices" : 45,
          "material" : 5
        },
        {
          "attributes" : {
            "POSITION" : 55,
            "NORMAL" : 56,
            "TANGENT" : 57,
            "COLOR_0" : 58,
            "TEXCOORD_0" : 59,
            "TEXCOORD_1" : 60,
            "TEXCOORD_2" : 61,
            "TEXCOORD_3" : 62
          },
          "indices" : 54,
          "material" : 6
        },
        {
          "attributes" : {
            "POSITION" : 64,
            "NORMAL" : 65,
            "TANGENT" : 66,
            "COLOR_0" : 67,
            "TEXCOORD_0" : 68,
            "TEXCOORD_1" : 69,
            "TEXCOORD_2" : 70,
            "TEXCOORD_3" : 71
          },
          "indices" : 63,
          "material" : 7
        }
      ],
      "name" : "SM_ENV_KNVLLG03_AreaD_Hokage_GateB"
    }
  ],
  "buffers" : [
    {
      "uri" : "SM_ENV_KNVLLG03_AreaD_Hokage_GateB.bin",
      "byteLength" : 1380960
    }
  ],
  "bufferViews" : [
    {
      "buffer" : 0,
      "byteOffset" : 0,
      "byteLength" : 10800
    },
    {
      "buffer" : 0,
      "byteOffset" : 10800,
      "byteLength" : 21468
    },
    {
      "buffer" : 0,
      "byteOffset" : 32268,
      "byteLength" : 21468
    },
    {
      "buffer" : 0,
      "byteOffset" : 53736,
      "byteLength" : 28624
    },
    {
      "buffer" : 0,
      "byteOffset" : 82360,
      "byteLength" : 7156
    },
    {
      "buffer" : 0,
      "byteOffset" : 89516,
      "byteLength" : 14312
    },
    {
      "buffer" : 0,
      "byteOffset" : 103828,
      "byteLength" : 14312
    },
    {
      "buffer" : 0,
      "byteOffset" : 118140,
      "byteLength" : 14312
    },
    {
      "buffer" : 0,
      "byteOffset" : 132452,
      "byteLength" : 14312
    },
    {
      "buffer" : 0,
      "byteOffset" : 146764,
      "byteLength" : 37488
    },
    {
      "buffer" : 0,
      "byteOffset" : 184252,
      "byteLength" : 57444
    },
    {
      "buffer" : 0,
      "byteOffset" : 241696,
      "byteLength" : 57444
    },
    {
      "buffer" : 0,
      "byteOffset" : 299140,
      "byteLength" : 76592
    },
    {
      "buffer" : 0,
      "byteOffset" : 375732,
      "byteLength" : 19148
    },
    {
      "buffer" : 0,
      "byteOffset" : 394880,
      "byteLength" : 38296
    },
    {
      "buffer" : 0,
      "byteOffset" : 433176,
      "byteLength" : 38296
    },
    {
      "buffer" : 0,
      "byteOffset" : 471472,
      "byteLength" : 38296
    },
    {
      "buffer" : 0,
      "byteOffset" : 509768,
      "byteLength" : 38296
    },
    {
      "buffer" : 0,
      "byteOffset" : 548064,
      "byteLength" : 2112
    },
    {
      "buffer" : 0,
      "byteOffset" : 550176,
      "byteLength" : 6372
    },
    {
      "buffer" : 0,
      "byteOffset" : 556548,
      "byteLength" : 6372
    },
    {
      "buffer" : 0,
      "byteOffset" : 562920,
      "byteLength" : 8496
    },
    {
      "buffer" : 0,
      "byteOffset" : 571416,
      "byteLength" : 2124
    },
    {
      "buffer" : 0,
      "byteOffset" : 573540,
      "byteLength" : 4248
    },
    {
      "buffer" : 0,
      "byteOffset" : 577788,
      "byteLength" : 4248
    },
    {
      "buffer" : 0,
      "byteOffset" : 582036,
      "byteLength" : 4248
    },
    {
      "buffer" : 0,
      "byteOffset" : 586284,
      "byteLength" : 4248
    },
    {
      "buffer" : 0,
      "byteOffset" : 590532,
      "byteLength" : 22512
    },
    {
      "buffer" : 0,
      "byteOffset" : 613044,
      "byteLength" : 87780
    },
    {
      "buffer" : 0,
      "byteOffset" : 700824,
      "byteLength" : 87780
    },
    {
      "buffer" : 0,
      "byteOffset" : 788604,
      "byteLength" : 117040
    },
    {
      "buffer" : 0,
      "byteOffset" : 905644,
      "byteLength" : 29260
    },
    {
      "buffer" : 0,
      "byteOffset" : 934904,
      "byteLength" : 58520
    },
    {
      "buffer" : 0,
      "byteOffset" : 993424,
      "byteLength" : 58520
    },
    {
      "buffer" : 0,
      "byteOffset" : 1051944,
      "byteLength" : 58520
    },
    {
      "buffer" : 0,
      "byteOffset" : 1110464,
      "byteLength" : 58520
    },
    {
      "buffer" : 0,
      "byteOffset" : 1168984,
      "byteLength" : 17280
    },
    {
      "buffer" : 0,
      "byteOffset" : 1186264,
      "byteLength" : 25128
    },
    {
      "buffer" : 0,
      "byteOffset" : 1211392,
      "byteLength" : 25128
    },
    {
      "buffer" : 0,
      "byteOffset" : 1236520,
      "byteLength" : 33504
    },
    {
      "buffer" : 0,
      "byteOffset" : 1270024,
      "byteLength" : 8376
    },
    {
      "buffer" : 0,
      "byteOffset" : 1278400,
      "byteLength" : 16752
    },
    {
      "buffer" : 0,
      "byteOffset" : 1295152,
      "byteLength" : 16752
    },
    {
      "buffer" : 0,
      "byteOffset" : 1311904,
      "byteLength" : 16752
    },
    {
      "buffer" : 0,
      "byteOffset" : 1328656,
      "byteLength" : 16752
    },
    {
      "buffer" : 0,
      "byteOffset" : 1345408,
      "byteLength" : 1056
    },
    {
      "buffer" : 0,
      "byteOffset" : 1346464,
      "byteLength" : 1992
    },
    {
      "buffer" : 0,
      "byteOffset" : 1348456,
      "byteLength" : 1992
    },
    {
      "buffer" : 0,
      "byteOffset" : 1350448,
      "byteLength" : 2656
    },
    {
      "buffer" : 0,
      "byteOffset" : 1353104,
      "byteLength" : 664
    },
    {
      "buffer" : 0,
      "byteOffset" : 1353768,
      "byteLength" : 1328
    },
    {
      "buffer" : 0,
      "byteOffset" : 1355096,
      "byteLength" : 1328
    },
    {
      "buffer" : 0,
      "byteOffset" : 1356424,
      "byteLength" : 1328
    },
    {
      "buffer" : 0,
      "byteOffset" : 1357752,
      "byteLength" : 1328
    },
    {
      "buffer" : 0,
      "byteOffset" : 1359080,
      "byteLength" : 1248
    },
    {
      "buffer" : 0,
      "byteOffset" : 1360328,
      "byteLength" : 2148
    },
    {
      "buffer" : 0,
      "byteOffset" : 1362476,
      "byteLength" : 2148
    },
    {
      "buffer" : 0,
      "byteOffset" : 1364624,
      "byteLength" : 2864
    },
    {
      "buffer" : 0,
      "byteOffset" : 1367488,
      "byteLength" : 716
    },
    {
      "buffer" : 0,
      "byteOffset" : 1368204,
      "byteLength" : 1432
    },
    {
      "buffer" : 0,
      "byteOffset" : 1369636,
      "byteLength" : 1432
    },
    {
      "buffer" : 0,
      "byteOffset" : 1371068,
      "byteLength" : 1432
    },
    {
      "buffer" : 0,
      "byteOffset" : 1372500,
      "byteLength" : 1432
    },
    {
      "buffer" : 0,
      "byteOffset" : 1373932,
      "byteLength" : 492
    },
    {
      "buffer" : 0,
      "byteOffset" : 1374424,
      "byteLength" : 1032
    },
    {
      "buffer" : 0,
      "byteOffset" : 1375456,
      "byteLength" : 1032
    },
    {
      "buffer" : 0,
      "byteOffset" : 1376488,
      "byteLength" : 1376
    },
    {
      "buffer" : 0,
      "byteOffset" : 1377864,
      "byteLength" : 344
    },
    {
      "buffer" : 0,
      "byteOffset" : 1378208,
      "byteLength" : 688
    },
    {
      "buffer" : 0,
      "byteOffset" : 1378896,
      "byteLength" : 688
    },
    {
      "buffer" : 0,
      "byteOffset" : 1379584,
      "byteLength" : 688
    },
    {
      "buffer" : 0,
      "byteOffset" : 1380272,
      "byteLength" : 688
    }
  ],
  "accessors" : [
    {
      "bufferView" : 0,
      "componentType" : 5123,
      "count" : 5400,
      "type" : "SCALAR"
    },
    {
      "bufferView" : 1,
      "min" : [ 6, 16.613, -112.73 ],
      "max" : [ 24.1392, 17.6481, -71.9212 ],
      "componentType" : 5126,
      "count" : 1789,
      "type" : "VEC3"
    },
    {
      "bufferView" : 2,
      "componentType" : 5126,
      "count" : 1789,
      "type" : "VEC3"
    },
    {
      "bufferView" : 3,
      "componentType" : 5126,
      "count" : 1789,
      "type" : "VEC4"
    },
    {
      "bufferView" : 4,
      "normalized" : true,
      "componentType" : 5121,
      "count" : 1789,
      "type" : "VEC4"
    },
    {
      "bufferView" : 5,
      "componentType" : 5126,
      "count" : 1789,
      "type" : "VEC2"
    },
    {
      "bufferView" : 6,
      "componentType" : 5126,
      "count" : 1789,
      "type" : "VEC2"
    },
    {
      "bufferView" : 7,
      "componentType" : 5126,
      "count" : 1789,
      "type" : "VEC2"
    },
    {
      "bufferView" : 8,
      "componentType" : 5126,
      "count" : 1789,
      "type" : "VEC2"
    },
    {
      "bufferView" : 9,
      "componentType" : 5123,
      "count" : 18744,
      "type" : "SCALAR"
    },
    {
      "bufferView" : 10,
      "min" : [ 5.9466, 15.9199, -111.627 ],
      "max" : [ 25.0036, 17.8067, -70.6732 ],
      "componentType" : 5126,
      "count" : 4787,
      "type" : "VEC3"
    },
    {
      "bufferView" : 11,
      "componentType" : 5126,
      "count" : 4787,
      "type" : "VEC3"
    },
    {
      "bufferView" : 12,
      "componentType" : 5126,
      "count" : 4787,
      "type" : "VEC4"
    },
    {
      "bufferView" : 13,
      "normalized" : true,
      "componentType" : 5121,
      "count" : 4787,
      "type" : "VEC4"
    },
    {
      "bufferView" : 14,
      "componentType" : 5126,
      "count" : 4787,
      "type" : "VEC2"
    },
    {
      "bufferView" : 15,
      "componentType" : 5126,
      "count" : 4787,
      "type" : "VEC2"
    },
    {
      "bufferView" : 16,
      "componentType" : 5126,
      "count" : 4787,
      "type" : "VEC2"
    },
    {
      "bufferView" : 17,
      "componentType" : 5126,
      "count" : 4787,
      "type" : "VEC2"
    },
    {
      "bufferView" : 18,
      "componentType" : 5123,
      "count" : 1056,
      "type" : "SCALAR"
    },
    {
      "bufferView" : 19,
      "min" : [ 5.21595, 12.3068, -112.166 ],
      "max" : [ 24.9528, 17.7913, -70.5513 ],
      "componentType" : 5126,
      "count" : 531,
      "type" : "VEC3"
    },
    {
      "bufferView" : 20,
      "componentType" : 5126,
      "count" : 531,
      "type" : "VEC3"
    },
    {
      "bufferView" : 21,
      "componentType" : 5126,
      "count" : 531,
      "type" : "VEC4"
    },
    {
      "bufferView" : 22,
      "normalized" : true,
      "componentType" : 5121,
      "count" : 531,
      "type" : "VEC4"
    },
    {
      "bufferView" : 23,
      "componentType" : 5126,
      "count" : 531,
      "type" : "VEC2"
    },
    {
      "bufferView" : 24,
      "componentType" : 5126,
      "count" : 531,
      "type" : "VEC2"
    },
    {
      "bufferView" : 25,
      "componentType" : 5126,
      "count" : 531,
      "type" : "VEC2"
    },
    {
      "bufferView" : 26,
      "componentType" : 5126,
      "count" : 531,
      "type" : "VEC2"
    },
    {
      "bufferView" : 27,
      "componentType" : 5123,
      "count" : 11256,
      "type" : "SCALAR"
    },
    {
      "bufferView" : 28,
      "min" : [ 5.25152, 15.6551, -112.166 ],
      "max" : [ 24.699, 17.412, -70.9062 ],
      "componentType" : 5126,
      "count" : 7315,
      "type" : "VEC3"
    },
    {
      "bufferView" : 29,
      "componentType" : 5126,
      "count" : 7315,
      "type" : "VEC3"
    },
    {
      "bufferView" : 30,
      "componentType" : 5126,
      "count" : 7315,
      "type" : "VEC4"
    },
    {
      "bufferView" : 31,
      "normalized" : true,
      "componentType" : 5121,
      "count" : 7315,
      "type" : "VEC4"
    },
    {
      "bufferView" : 32,
      "componentType" : 5126,
      "count" : 7315,
      "type" : "VEC2"
    },
    {
      "bufferView" : 33,
      "componentType" : 5126,
      "count" : 7315,
      "type" : "VEC2"
    },
    {
      "bufferView" : 34,
      "componentType" : 5126,
      "count" : 7315,
      "type" : "VEC2"
    },
    {
      "bufferView" : 35,
      "componentType" : 5126,
      "count" : 7315,
      "type" : "VEC2"
    },
    {
      "bufferView" : 36,
      "componentType" : 5123,
      "count" : 8640,
      "type" : "SCALAR"
    },
    {
      "bufferView" : 37,
      "min" : [ 6.01026, 15.9182, -110.91 ],
      "max" : [ 25.1689, 18.0112, -72.3621 ],
      "componentType" : 5126,
      "count" : 2094,
      "type" : "VEC3"
    },
    {
      "bufferView" : 38,
      "componentType" : 5126,
      "count" : 2094,
      "type" : "VEC3"
    },
    {
      "bufferView" : 39,
      "componentType" : 5126,
      "count" : 2094,
      "type" : "VEC4"
    },
    {
      "bufferView" : 40,
      "normalized" : true,
      "componentType" : 5121,
      "count" : 2094,
      "type" : "VEC4"
    },
    {
      "bufferView" : 41,
      "componentType" : 5126,
      "count" : 2094,
      "type" : "VEC2"
    },
    {
      "bufferView" : 42,
      "componentType" : 5126,
      "count" : 2094,
      "type" : "VEC2"
    },
    {
      "bufferView" : 43,
      "componentType" : 5126,
      "count" : 2094,
      "type" : "VEC2"
    },
    {
      "bufferView" : 44,
      "componentType" : 5126,
      "count" : 2094,
      "type" : "VEC2"
    },
    {
      "bufferView" : 45,
      "componentType" : 5123,
      "count" : 528,
      "type" : "SCALAR"
    },
    {
      "bufferView" : 46,
      "min" : [ 5.47702, 12.0007, -112.166 ],
      "max" : [ 24.2535, 12.2857, -71.2522 ],
      "componentType" : 5126,
      "count" : 166,
      "type" : "VEC3"
    },
    {
      "bufferView" : 47,
      "componentType" : 5126,
      "count" : 166,
      "type" : "VEC3"
    },
    {
      "bufferView" : 48,
      "componentType" : 5126,
      "count" : 166,
      "type" : "VEC4"
    },
    {
      "bufferView" : 49,
      "normalized" : true,
      "componentType" : 5121,
      "count" : 166,
      "type" : "VEC4"
    },
    {
      "bufferView" : 50,
      "componentType" : 5126,
      "count" : 166,
      "type" : "VEC2"
    },
    {
      "bufferView" : 51,
      "componentType" : 5126,
      "count" : 166,
      "type" : "VEC2"
    },
    {
      "bufferView" : 52,
      "componentType" : 5126,
      "count" : 166,
      "type" : "VEC2"
    },
    {
      "bufferView" : 53,
      "componentType" : 5126,
      "count" : 166,
      "type" : "VEC2"
    },
    {
      "bufferView" : 54,
      "componentType" : 5123,
      "count" : 624,
      "type" : "SCALAR"
    },
    {
      "bufferView" : 55,
      "min" : [ 5.57368, 12.2857, -112.166 ],
      "max" : [ 24.0476, 13.343, -71.434 ],
      "componentType" : 5126,
      "count" : 179,
      "type" : "VEC3"
    },
    {
      "bufferView" : 56,
      "componentType" : 5126,
      "count" : 179,
      "type" : "VEC3"
    },
    {
      "bufferView" : 57,
      "componentType" : 5126,
      "count" : 179,
      "type" : "VEC4"
    },
    {
      "bufferView" : 58,
      "normalized" : true,
      "componentType" : 5121,
      "count" : 179,
      "type" : "VEC4"
    },
    {
      "bufferView" : 59,
      "componentType" : 5126,
      "count" : 179,
      "type" : "VEC2"
    },
    {
      "bufferView" : 60,
      "componentType" : 5126,
      "count" : 179,
      "type" : "VEC2"
    },
    {
      "bufferView" : 61,
      "componentType" : 5126,
      "count" : 179,
      "type" : "VEC2"
    },
    {
      "bufferView" : 62,
      "componentType" : 5126,
      "count" : 179,
      "type" : "VEC2"
    },
    {
      "bufferView" : 63,
      "componentType" : 5123,
      "count" : 246,
      "type" : "SCALAR"
    },
    {
      "bufferView" : 64,
      "min" : [ 5.5941, 13.343, -112.166 ],
      "max" : [ 24.0041, 15.6551, -71.4724 ],
      "componentType" : 5126,
      "count" : 86,
      "type" : "VEC3"
    },
    {
      "bufferView" : 65,
      "componentType" : 5126,
      "count" : 86,
      "type" : "VEC3"
    },
    {
      "bufferView" : 66,
      "componentType" : 5126,
      "count" : 86,
      "type" : "VEC4"
    },
    {
      "bufferView" : 67,
      "normalized" : true,
      "componentType" : 5121,
      "count" : 86,
      "type" : "VEC4"
    },
    {
      "bufferView" : 68,
      "componentType" : 5126,
      "count" : 86,
      "type" : "VEC2"
    },
    {
      "bufferView" : 69,
      "componentType" : 5126,
      "count" : 86,
      "type" : "VEC2"
    },
    {
      "bufferView" : 70,
      "componentType" : 5126,
      "count" : 86,
      "type" : "VEC2"
    },
    {
      "bufferView" : 71,
      "componentType" : 5126,
      "count" : 86,
      "type" : "VEC2"
    }
  ]
}
