{
  "asset" : {
    "generator" : "UE Viewer (umodel) build 1544 based",
    "version" : "2.0"
  },
  "scene" : 0,
  "scenes" : [
    {
      "nodes" : [ 0 ]
    }
  ],
  "nodes" : [
    {
      "name" : "SM_ENV_KNVLLG03_ground_distant",
      "mesh" : 0
    }
  ],
  "materials" : [
    {
      "name" : "MI_ENV_LKNVLD_RoughTiles",
      "pbrMetallicRoughness" : {
        "baseColorFactor" : [ 0.3, 0.3, 0.3, 1.0 ],
        "metallicFactor" : 0.1,
        "roughnessFactor" : 0.5
      }
    },
    {
      "name" : "MI_ENV_LKNVLD03_GroundSoil_A",
      "pbrMetallicRoughness" : {
        "baseColorFactor" : [ 0.9, 0.3, 0.3, 1.0 ],
        "metallicFactor" : 0.1,
        "roughnessFactor" : 0.5
      }
    },
    {
      "name" : "MI_ENV_LKNVLD_Road_Simple",
      "pbrMetallicRoughness" : {
        "baseColorFactor" : [ 0.3, 0.9, 0.3, 1.0 ],
        "metallicFactor" : 0.1,
        "roughnessFactor" : 0.5
      }
    },
    {
      "name" : "MI_Water_Base_01",
      "pbrMetallicRoughness" : {
        "baseColorFactor" : [ 0.3, 0.3, 0.9, 1.0 ],
        "metallicFactor" : 0.1,
        "roughnessFactor" : 0.5
      }
    },
    {
      "name" : "MI_ENV_LKNVLD_SandyFloorTiles",
      "pbrMetallicRoughness" : {
        "baseColorFactor" : [ 0.9, 0.9, 0.9, 1.0 ],
        "metallicFactor" : 0.1,
        "roughnessFactor" : 0.5
      }
    }
  ],
  "meshes" : [
    {
      "primitives" : [
        {
          "attributes" : {
            "POSITION" : 1,
            "NORMAL" : 2,
            "TANGENT" : 3,
            "COLOR_0" : 4,
            "TEXCOORD_0" : 5,
            "TEXCOORD_1" : 6,
            "TEXCOORD_2" : 7,
            "TEXCOORD_3" : 8
          },
          "indices" : 0,
          "material" : 0
        },
        {
          "attributes" : {
            "POSITION" : 10,
            "NORMAL" : 11,
            "TANGENT" : 12,
            "COLOR_0" : 13,
            "TEXCOORD_0" : 14,
            "TEXCOORD_1" : 15,
            "TEXCOORD_2" : 16,
            "TEXCOORD_3" : 17
          },
          "indices" : 9,
          "material" : 1
        },
        {
          "attributes" : {
            "POSITION" : 19,
            "NORMAL" : 20,
            "TANGENT" : 21,
            "COLOR_0" : 22,
            "TEXCOORD_0" : 23,
            "TEXCOORD_1" : 24,
            "TEXCOORD_2" : 25,
            "TEXCOORD_3" : 26
          },
          "indices" : 18,
          "material" : 2
        },
        {
          "attributes" : {
            "POSITION" : 28,
            "NORMAL" : 29,
            "TANGENT" : 30,
            "COLOR_0" : 31,
            "TEXCOORD_0" : 32,
            "TEXCOORD_1" : 33,
            "TEXCOORD_2" : 34,
            "TEXCOORD_3" : 35
          },
          "indices" : 27,
          "material" : 3
        },
        {
          "attributes" : {
            "POSITION" : 37,
            "NORMAL" : 38,
            "TANGENT" : 39,
            "COLOR_0" : 40,
            "TEXCOORD_0" : 41,
            "TEXCOORD_1" : 42,
            "TEXCOORD_2" : 43,
            "TEXCOORD_3" : 44
          },
          "indices" : 36,
          "material" : 4
        }
      ],
      "name" : "SM_ENV_KNVLLG03_ground_distant"
    }
  ],
  "buffers" : [
    {
      "uri" : "SM_ENV_KNVLLG03_ground_distant.bin",
      "byteLength" : 1062344
    }
  ],
  "bufferViews" : [
    {
      "buffer" : 0,
      "byteOffset" : 0,
      "byteLength" : 7116
    },
    {
      "buffer" : 0,
      "byteOffset" : 7116,
      "byteLength" : 25524
    },
    {
      "buffer" : 0,
      "byteOffset" : 32640,
      "byteLength" : 25524
    },
    {
      "buffer" : 0,
      "byteOffset" : 58164,
      "byteLength" : 34032
    },
    {
      "buffer" : 0,
      "byteOffset" : 92196,
      "byteLength" : 8508
    },
    {
      "buffer" : 0,
      "byteOffset" : 100704,
      "byteLength" : 17016
    },
    {
      "buffer" : 0,
      "byteOffset" : 117720,
      "byteLength" : 17016
    },
    {
      "buffer" : 0,
      "byteOffset" : 134736,
      "byteLength" : 17016
    },
    {
      "buffer" : 0,
      "byteOffset" : 151752,
      "byteLength" : 17016
    },
    {
      "buffer" : 0,
      "byteOffset" : 168768,
      "byteLength" : 57708
    },
    {
      "buffer" : 0,
      "byteOffset" : 226476,
      "byteLength" : 112404
    },
    {
      "buffer" : 0,
      "byteOffset" : 338880,
      "byteLength" : 112404
    },
    {
      "buffer" : 0,
      "byteOffset" : 451284,
      "byteLength" : 149872
    },
    {
      "buffer" : 0,
      "byteOffset" : 601156,
      "byteLength" : 37468
    },
    {
      "buffer" : 0,
      "byteOffset" : 638624,
      "byteLength" : 74936
    },
    {
      "buffer" : 0,
      "byteOffset" : 713560,
      "byteLength" : 74936
    },
    {
      "buffer" : 0,
      "byteOffset" : 788496,
      "byteLength" : 74936
    },
    {
      "buffer" : 0,
      "byteOffset" : 863432,
      "byteLength" : 74936
    },
    {
      "buffer" : 0,
      "byteOffset" : 938368,
      "byteLength" : 164
    },
    {
      "buffer" : 0,
      "byteOffset" : 938532,
      "byteLength" : 660
    },
    {
      "buffer" : 0,
      "byteOffset" : 939192,
      "byteLength" : 660
    },
    {
      "buffer" : 0,
      "byteOffset" : 939852,
      "byteLength" : 880
    },
    {
      "buffer" : 0,
      "byteOffset" : 940732,
      "byteLength" : 220
    },
    {
      "buffer" : 0,
      "byteOffset" : 940952,
      "byteLength" : 440
    },
    {
      "buffer" : 0,
      "byteOffset" : 941392,
      "byteLength" : 440
    },
    {
      "buffer" : 0,
      "byteOffset" : 941832,
      "byteLength" : 440
    },
    {
      "buffer" : 0,
      "byteOffset" : 942272,
      "byteLength" : 440
    },
    {
      "buffer" : 0,
      "byteOffset" : 942712,
      "byteLength" : 156
    },
    {
      "buffer" : 0,
      "byteOffset" : 942868,
      "byteLength" : 360
    },
    {
      "buffer" : 0,
      "byteOffset" : 943228,
      "byteLength" : 360
    },
    {
      "buffer" : 0,
      "byteOffset" : 943588,
      "byteLength" : 480
    },
    {
      "buffer" : 0,
      "byteOffset" : 944068,
      "byteLength" : 120
    },
    {
      "buffer" : 0,
      "byteOffset" : 944188,
      "byteLength" : 240
    },
    {
      "buffer" : 0,
      "byteOffset" : 944428,
      "byteLength" : 240
    },
    {
      "buffer" : 0,
      "byteOffset" : 944668,
      "byteLength" : 240
    },
    {
      "buffer" : 0,
      "byteOffset" : 944908,
      "byteLength" : 240
    },
    {
      "buffer" : 0,
      "byteOffset" : 945148,
      "byteLength" : 12620
    },
    {
      "buffer" : 0,
      "byteOffset" : 957768,
      "byteLength" : 16512
    },
    {
      "buffer" : 0,
      "byteOffset" : 974280,
      "byteLength" : 16512
    },
    {
      "buffer" : 0,
      "byteOffset" : 990792,
      "byteLength" : 22016
    },
    {
      "buffer" : 0,
      "byteOffset" : 1012808,
      "byteLength" : 5504
    },
    {
      "buffer" : 0,
      "byteOffset" : 1018312,
      "byteLength" : 11008
    },
    {
      "buffer" : 0,
      "byteOffset" : 1029320,
      "byteLength" : 11008
    },
    {
      "buffer" : 0,
      "byteOffset" : 1040328,
      "byteLength" : 11008
    },
    {
      "buffer" : 0,
      "byteOffset" : 1051336,
      "byteLength" : 11008
    }
  ],
  "accessors" : [
    {
      "bufferView" : 0,
      "componentType" : 5123,
      "count" : 3558,
      "type" : "SCALAR"
    },
    {
      "bufferView" : 1,
      "min" : [ -159.933, -0.621783, -79.3788 ],
      "max" : [ 184.599, 5.6245, 101.807 ],
      "componentType" : 5126,
      "count" : 2127,
      "type" : "VEC3"
    },
    {
      "bufferView" : 2,
      "componentType" : 5126,
      "count" : 2127,
      "type" : "VEC3"
    },
    {
      "bufferView" : 3,
      "componentType" : 5126,
      "count" : 2127,
      "type" : "VEC4"
    },
    {
      "bufferView" : 4,
      "normalized" : true,
      "componentType" : 5121,
      "count" : 2127,
      "type" : "VEC4"
    },
    {
      "bufferView" : 5,
      "componentType" : 5126,
      "count" : 2127,
      "type" : "VEC2"
    },
    {
      "bufferView" : 6,
      "componentType" : 5126,
      "count" : 2127,
      "type" : "VEC2"
    },
    {
      "bufferView" : 7,
      "componentType" : 5126,
      "count" : 2127,
      "type" : "VEC2"
    },
    {
      "bufferView" : 8,
      "componentType" : 5126,
      "count" : 2127,
      "type" : "VEC2"
    },
    {
      "bufferView" : 9,
      "componentType" : 5123,
      "count" : 28854,
      "type" : "SCALAR"
    },
    {
      "bufferView" : 10,
      "min" : [ -721.586, -0.457164, -371.896 ],
      "max" : [ 730.991, 5.09338, 930.643 ],
      "componentType" : 5126,
      "count" : 9367,
      "type" : "VEC3"
    },
    {
      "bufferView" : 11,
      "componentType" : 5126,
      "count" : 9367,
      "type" : "VEC3"
    },
    {
      "bufferView" : 12,
      "componentType" : 5126,
      "count" : 9367,
      "type" : "VEC4"
    },
    {
      "bufferView" : 13,
      "normalized" : true,
      "componentType" : 5121,
      "count" : 9367,
      "type" : "VEC4"
    },
    {
      "bufferView" : 14,
      "componentType" : 5126,
      "count" : 9367,
      "type" : "VEC2"
    },
    {
      "bufferView" : 15,
      "componentType" : 5126,
      "count" : 9367,
      "type" : "VEC2"
    },
    {
      "bufferView" : 16,
      "componentType" : 5126,
      "count" : 9367,
      "type" : "VEC2"
    },
    {
      "bufferView" : 17,
      "componentType" : 5126,
      "count" : 9367,
      "type" : "VEC2"
    },
    {
      "bufferView" : 18,
      "componentType" : 5123,
      "count" : 81,
      "type" : "SCALAR"
    },
    {
      "bufferView" : 19,
      "min" : [ -159.263, 5.5, -33.3747 ],
      "max" : [ -79.967, 5.5, 91.608 ],
      "componentType" : 5126,
      "count" : 55,
      "type" : "VEC3"
    },
    {
      "bufferView" : 20,
      "componentType" : 5126,
      "count" : 55,
      "type" : "VEC3"
    },
    {
      "bufferView" : 21,
      "componentType" : 5126,
      "count" : 55,
      "type" : "VEC4"
    },
    {
      "bufferView" : 22,
      "normalized" : true,
      "componentType" : 5121,
      "count" : 55,
      "type" : "VEC4"
    },
    {
      "bufferView" : 23,
      "componentType" : 5126,
      "count" : 55,
      "type" : "VEC2"
    },
    {
      "bufferView" : 24,
      "componentType" : 5126,
      "count" : 55,
      "type" : "VEC2"
    },
    {
      "bufferView" : 25,
      "componentType" : 5126,
      "count" : 55,
      "type" : "VEC2"
    },
    {
      "bufferView" : 26,
      "componentType" : 5126,
      "count" : 55,
      "type" : "VEC2"
    },
    {
      "bufferView" : 27,
      "componentType" : 5123,
      "count" : 78,
      "type" : "SCALAR"
    },
    {
      "bufferView" : 28,
      "min" : [ -122.422, -0.570794, -78.6074 ],
      "max" : [ 184.016, -0.247268, -14.57 ],
      "componentType" : 5126,
      "count" : 30,
      "type" : "VEC3"
    },
    {
      "bufferView" : 29,
      "componentType" : 5126,
      "count" : 30,
      "type" : "VEC3"
    },
    {
      "bufferView" : 30,
      "componentType" : 5126,
      "count" : 30,
      "type" : "VEC4"
    },
    {
      "bufferView" : 31,
      "normalized" : true,
      "componentType" : 5121,
      "count" : 30,
      "type" : "VEC4"
    },
    {
      "bufferView" : 32,
      "componentType" : 5126,
      "count" : 30,
      "type" : "VEC2"
    },
    {
      "bufferView" : 33,
      "componentType" : 5126,
      "count" : 30,
      "type" : "VEC2"
    },
    {
      "bufferView" : 34,
      "componentType" : 5126,
      "count" : 30,
      "type" : "VEC2"
    },
    {
      "bufferView" : 35,
      "componentType" : 5126,
      "count" : 30,
      "type" : "VEC2"
    },
    {
      "bufferView" : 36,
      "componentType" : 5123,
      "count" : 6309,
      "type" : "SCALAR"
    },
    {
      "bufferView" : 37,
      "min" : [ -79.8345, -0.430092, -64.2273 ],
      "max" : [ -52.8803, -0.183177, 86.7287 ],
      "componentType" : 5126,
      "count" : 1376,
      "type" : "VEC3"
    },
    {
      "bufferView" : 38,
      "componentType" : 5126,
      "count" : 1376,
      "type" : "VEC3"
    },
    {
      "bufferView" : 39,
      "componentType" : 5126,
      "count" : 1376,
      "type" : "VEC4"
    },
    {
      "bufferView" : 40,
      "normalized" : true,
      "componentType" : 5121,
      "count" : 1376,
      "type" : "VEC4"
    },
    {
      "bufferView" : 41,
      "componentType" : 5126,
      "count" : 1376,
      "type" : "VEC2"
    },
    {
      "bufferView" : 42,
      "componentType" : 5126,
      "count" : 1376,
      "type" : "VEC2"
    },
    {
      "bufferView" : 43,
      "componentType" : 5126,
      "count" : 1376,
      "type" : "VEC2"
    },
    {
      "bufferView" : 44,
      "componentType" : 5126,
      "count" : 1376,
      "type" : "VEC2"
    }
  ]
}
