{
  "asset" : {
    "generator" : "UE Viewer (umodel) build 1544 based",
    "version" : "2.0"
  },
  "scene" : 0,
  "scenes" : [
    {
      "nodes" : [ 0 ]
    }
  ],
  "nodes" : [
    {
      "name" : "SM_ENV_LKNVLD03_CommonBuilding_C",
      "mesh" : 0
    }
  ],
  "materials" : [
    {
      "name" : "MI_ENV_LKNVLD_CommonBuilding_B",
      "pbrMetallicRoughness" : {
        "baseColorFactor" : [ 0.3, 0.3, 0.3, 1.0 ],
        "metallicFactor" : 0.1,
        "roughnessFactor" : 0.5
      }
    },
    {
      "name" : "MI_ENV_LKNVLD_Windows_A",
      "pbrMetallicRoughness" : {
        "baseColorFactor" : [ 0.9, 0.3, 0.3, 1.0 ],
        "metallicFactor" : 0.1,
        "roughnessFactor" : 0.5
      }
    },
    {
      "name" : "MI_ENV_LKNVLD_BoltedPlates_01_LOD",
      "pbrMetallicRoughness" : {
        "baseColorFactor" : [ 0.3, 0.9, 0.3, 1.0 ],
        "metallicFactor" : 0.1,
        "roughnessFactor" : 0.5
      }
    }
  ],
  "meshes" : [
    {
      "primitives" : [
        {
          "attributes" : {
            "POSITION" : 1,
            "NORMAL" : 2,
            "TANGENT" : 3,
            "TEXCOORD_0" : 4,
            "TEXCOORD_1" : 5,
            "TEXCOORD_2" : 6,
            "TEXCOORD_3" : 7
          },
          "indices" : 0,
          "material" : 0
        },
        {
          "attributes" : {
            "POSITION" : 9,
            "NORMAL" : 10,
            "TANGENT" : 11,
            "TEXCOORD_0" : 12,
            "TEXCOORD_1" : 13,
            "TEXCOORD_2" : 14,
            "TEXCOORD_3" : 15
          },
          "indices" : 8,
          "material" : 1
        },
        {
          "attributes" : {
            "POSITION" : 17,
            "NORMAL" : 18,
            "TANGENT" : 19,
            "TEXCOORD_0" : 20,
            "TEXCOORD_1" : 21,
            "TEXCOORD_2" : 22,
            "TEXCOORD_3" : 23
          },
          "indices" : 16,
          "material" : 2
        }
      ],
      "name" : "SM_ENV_LKNVLD03_CommonBuilding_C"
    }
  ],
  "buffers" : [
    {
      "uri" : "SM_ENV_LKNVLD03_CommonBuilding_C.bin",
      "byteLength" : 638372
    }
  ],
  "bufferViews" : [
    {
      "buffer" : 0,
      "byteOffset" : 0,
      "byteLength" : 37268
    },
    {
      "buffer" : 0,
      "byteOffset" : 37268,
      "byteLength" : 91488
    },
    {
      "buffer" : 0,
      "byteOffset" : 128756,
      "byteLength" : 91488
    },
    {
      "buffer" : 0,
      "byteOffset" : 220244,
      "byteLength" : 121984
    },
    {
      "buffer" : 0,
      "byteOffset" : 342228,
      "byteLength" : 60992
    },
    {
      "buffer" : 0,
      "byteOffset" : 403220,
      "byteLength" : 60992
    },
    {
      "buffer" : 0,
      "byteOffset" : 464212,
      "byteLength" : 60992
    },
    {
      "buffer" : 0,
      "byteOffset" : 525204,
      "byteLength" : 60992
    },
    {
      "buffer" : 0,
      "byteOffset" : 586196,
      "byteLength" : 1776
    },
    {
      "buffer" : 0,
      "byteOffset" : 587972,
      "byteLength" : 7104
    },
    {
      "buffer" : 0,
      "byteOffset" : 595076,
      "byteLength" : 7104
    },
    {
      "buffer" : 0,
      "byteOffset" : 602180,
      "byteLength" : 9472
    },
    {
      "buffer" : 0,
      "byteOffset" : 611652,
      "byteLength" : 4736
    },
    {
      "buffer" : 0,
      "byteOffset" : 616388,
      "byteLength" : 4736
    },
    {
      "buffer" : 0,
      "byteOffset" : 621124,
      "byteLength" : 4736
    },
    {
      "buffer" : 0,
      "byteOffset" : 625860,
      "byteLength" : 4736
    },
    {
      "buffer" : 0,
      "byteOffset" : 630596,
      "byteLength" : 720
    },
    {
      "buffer" : 0,
      "byteOffset" : 631316,
      "byteLength" : 1176
    },
    {
      "buffer" : 0,
      "byteOffset" : 632492,
      "byteLength" : 1176
    },
    {
      "buffer" : 0,
      "byteOffset" : 633668,
      "byteLength" : 1568
    },
    {
      "buffer" : 0,
      "byteOffset" : 635236,
      "byteLength" : 784
    },
    {
      "buffer" : 0,
      "byteOffset" : 636020,
      "byteLength" : 784
    },
    {
      "buffer" : 0,
      "byteOffset" : 636804,
      "byteLength" : 784
    },
    {
      "buffer" : 0,
      "byteOffset" : 637588,
      "byteLength" : 784
    }
  ],
  "accessors" : [
    {
      "bufferView" : 0,
      "componentType" : 5123,
      "count" : 18633,
      "type" : "SCALAR"
    },
    {
      "bufferView" : 1,
      "min" : [ -22.0991, -6.4666e-09, -9.69719 ],
      "max" : [ 22.0991, 50.2685, 9.69719 ],
      "componentType" : 5126,
      "count" : 7624,
      "type" : "VEC3"
    },
    {
      "bufferView" : 2,
      "componentType" : 5126,
      "count" : 7624,
      "type" : "VEC3"
    },
    {
      "bufferView" : 3,
      "componentType" : 5126,
      "count" : 7624,
      "type" : "VEC4"
    },
    {
      "bufferView" : 4,
      "componentType" : 5126,
      "count" : 7624,
      "type" : "VEC2"
    },
    {
      "bufferView" : 5,
      "componentType" : 5126,
      "count" : 7624,
      "type" : "VEC2"
    },
    {
      "bufferView" : 6,
      "componentType" : 5126,
      "count" : 7624,
      "type" : "VEC2"
    },
    {
      "bufferView" : 7,
      "componentType" : 5126,
      "count" : 7624,
      "type" : "VEC2"
    },
    {
      "bufferView" : 8,
      "componentType" : 5123,
      "count" : 888,
      "type" : "SCALAR"
    },
    {
      "bufferView" : 9,
      "min" : [ -19.8993, 1.86, -7.77069 ],
      "max" : [ 19.8993, 44.266, 7.77069 ],
      "componentType" : 5126,
      "count" : 592,
      "type" : "VEC3"
    },
    {
      "bufferView" : 10,
      "componentType" : 5126,
      "count" : 592,
      "type" : "VEC3"
    },
    {
      "bufferView" : 11,
      "componentType" : 5126,
      "count" : 592,
      "type" : "VEC4"
    },
    {
      "bufferView" : 12,
      "componentType" : 5126,
      "count" : 592,
      "type" : "VEC2"
    },
    {
      "bufferView" : 13,
      "componentType" : 5126,
      "count" : 592,
      "type" : "VEC2"
    },
    {
      "bufferView" : 14,
      "componentType" : 5126,
      "count" : 592,
      "type" : "VEC2"
    },
    {
      "bufferView" : 15,
      "componentType" : 5126,
      "count" : 592,
      "type" : "VEC2"
    },
    {
      "bufferView" : 16,
      "componentType" : 5123,
      "count" : 360,
      "type" : "SCALAR"
    },
    {
      "bufferView" : 17,
      "min" : [ -9.9794, 47.8652, -1.52169 ],
      "max" : [ 10.2393, 54.8122, 1.52169 ],
      "componentType" : 5126,
      "count" : 98,
      "type" : "VEC3"
    },
    {
      "bufferView" : 18,
      "componentType" : 5126,
      "count" : 98,
      "type" : "VEC3"
    },
    {
      "bufferView" : 19,
      "componentType" : 5126,
      "count" : 98,
      "type" : "VEC4"
    },
    {
      "bufferView" : 20,
      "componentType" : 5126,
      "count" : 98,
      "type" : "VEC2"
    },
    {
      "bufferView" : 21,
      "componentType" : 5126,
      "count" : 98,
      "type" : "VEC2"
    },
    {
      "bufferView" : 22,
      "componentType" : 5126,
      "count" : 98,
      "type" : "VEC2"
    },
    {
      "bufferView" : 23,
      "componentType" : 5126,
      "count" : 98,
      "type" : "VEC2"
    }
  ]
}
