{
  "asset" : {
    "generator" : "UE Viewer (umodel) build 1544 based",
    "version" : "2.0"
  },
  "scene" : 0,
  "scenes" : [
    {
      "nodes" : [ 0 ]
    }
  ],
  "nodes" : [
    {
      "name" : "SM_ENV_KNVLLG03_TreeSet_P",
      "mesh" : 0
    }
  ],
  "materials" : [
    {
      "name" : "MI_ENV_TCHEXA_LeafMasked_A",
      "pbrMetallicRoughness" : {
        "baseColorFactor" : [ 0.3, 0.3, 0.3, 1.0 ],
        "metallicFactor" : 0.1,
        "roughnessFactor" : 0.5
      }
    },
    {
      "name" : "MI_ENV_TCHEXA_Leaf_A_01",
      "pbrMetallicRoughness" : {
        "baseColorFactor" : [ 0.9, 0.3, 0.3, 1.0 ],
        "metallicFactor" : 0.1,
        "roughnessFactor" : 0.5
      }
    },
    {
      "name" : "MI_ENV_TCHEXA_Tree_A_Masked_CameraTrans",
      "pbrMetallicRoughness" : {
        "baseColorFactor" : [ 0.3, 0.9, 0.3, 1.0 ],
        "metallicFactor" : 0.1,
        "roughnessFactor" : 0.5
      }
    }
  ],
  "meshes" : [
    {
      "primitives" : [
        {
          "attributes" : {
            "POSITION" : 1,
            "NORMAL" : 2,
            "TANGENT" : 3,
            "COLOR_0" : 4,
            "TEXCOORD_0" : 5,
            "TEXCOORD_1" : 6,
            "TEXCOORD_2" : 7,
            "TEXCOORD_3" : 8
          },
          "indices" : 0,
          "material" : 0
        },
        {
          "attributes" : {
            "POSITION" : 10,
            "NORMAL" : 11,
            "TANGENT" : 12,
            "COLOR_0" : 13,
            "TEXCOORD_0" : 14,
            "TEXCOORD_1" : 15,
            "TEXCOORD_2" : 16,
            "TEXCOORD_3" : 17
          },
          "indices" : 9,
          "material" : 1
        },
        {
          "attributes" : {
            "POSITION" : 19,
            "NORMAL" : 20,
            "TANGENT" : 21,
            "COLOR_0" : 22,
            "TEXCOORD_0" : 23,
            "TEXCOORD_1" : 24,
            "TEXCOORD_2" : 25,
            "TEXCOORD_3" : 26
          },
          "indices" : 18,
          "material" : 2
        }
      ],
      "name" : "SM_ENV_KNVLLG03_TreeSet_P"
    }
  ],
  "buffers" : [
    {
      "uri" : "SM_ENV_KNVLLG03_TreeSet_P.bin",
      "byteLength" : 1388228
    }
  ],
  "bufferViews" : [
    {
      "buffer" : 0,
      "byteOffset" : 0,
      "byteLength" : 53160
    },
    {
      "buffer" : 0,
      "byteOffset" : 53160,
      "byteLength" : 141792
    },
    {
      "buffer" : 0,
      "byteOffset" : 194952,
      "byteLength" : 141792
    },
    {
      "buffer" : 0,
      "byteOffset" : 336744,
      "byteLength" : 189056
    },
    {
      "buffer" : 0,
      "byteOffset" : 525800,
      "byteLength" : 47264
    },
    {
      "buffer" : 0,
      "byteOffset" : 573064,
      "byteLength" : 94528
    },
    {
      "buffer" : 0,
      "byteOffset" : 667592,
      "byteLength" : 94528
    },
    {
      "buffer" : 0,
      "byteOffset" : 762120,
      "byteLength" : 94528
    },
    {
      "buffer" : 0,
      "byteOffset" : 856648,
      "byteLength" : 94528
    },
    {
      "buffer" : 0,
      "byteOffset" : 951176,
      "byteLength" : 21960
    },
    {
      "buffer" : 0,
      "byteOffset" : 973136,
      "byteLength" : 43320
    },
    {
      "buffer" : 0,
      "byteOffset" : 1016456,
      "byteLength" : 43320
    },
    {
      "buffer" : 0,
      "byteOffset" : 1059776,
      "byteLength" : 57760
    },
    {
      "buffer" : 0,
      "byteOffset" : 1117536,
      "byteLength" : 14440
    },
    {
      "buffer" : 0,
      "byteOffset" : 1131976,
      "byteLength" : 28880
    },
    {
      "buffer" : 0,
      "byteOffset" : 1160856,
      "byteLength" : 28880
    },
    {
      "buffer" : 0,
      "byteOffset" : 1189736,
      "byteLength" : 28880
    },
    {
      "buffer" : 0,
      "byteOffset" : 1218616,
      "byteLength" : 28880
    },
    {
      "buffer" : 0,
      "byteOffset" : 1247496,
      "byteLength" : 14268
    },
    {
      "buffer" : 0,
      "byteOffset" : 1261764,
      "byteLength" : 19968
    },
    {
      "buffer" : 0,
      "byteOffset" : 1281732,
      "byteLength" : 19968
    },
    {
      "buffer" : 0,
      "byteOffset" : 1301700,
      "byteLength" : 26624
    },
    {
      "buffer" : 0,
      "byteOffset" : 1328324,
      "byteLength" : 6656
    },
    {
      "buffer" : 0,
      "byteOffset" : 1334980,
      "byteLength" : 13312
    },
    {
      "buffer" : 0,
      "byteOffset" : 1348292,
      "byteLength" : 13312
    },
    {
      "buffer" : 0,
      "byteOffset" : 1361604,
      "byteLength" : 13312
    },
    {
      "buffer" : 0,
      "byteOffset" : 1374916,
      "byteLength" : 13312
    }
  ],
  "accessors" : [
    {
      "bufferView" : 0,
      "componentType" : 5123,
      "count" : 26580,
      "type" : "SCALAR"
    },
    {
      "bufferView" : 1,
      "min" : [ -68.8332, 4.17494, -31.0443 ],
      "max" : [ -55.1146, 18.1848, -11.2592 ],
      "componentType" : 5126,
      "count" : 11816,
      "type" : "VEC3"
    },
    {
      "bufferView" : 2,
      "componentType" : 5126,
      "count" : 11816,
      "type" : "VEC3"
    },
    {
      "bufferView" : 3,
      "componentType" : 5126,
      "count" : 11816,
      "type" : "VEC4"
    },
    {
      "bufferView" : 4,
      "normalized" : true,
      "componentType" : 5121,
      "count" : 11816,
      "type" : "VEC4"
    },
    {
      "bufferView" : 5,
      "componentType" : 5126,
      "count" : 11816,
      "type" : "VEC2"
    },
    {
      "bufferView" : 6,
      "componentType" : 5126,
      "count" : 11816,
      "type" : "VEC2"
    },
    {
      "bufferView" : 7,
      "componentType" : 5126,
      "count" : 11816,
      "type" : "VEC2"
    },
    {
      "bufferView" : 8,
      "componentType" : 5126,
      "count" : 11816,
      "type" : "VEC2"
    },
    {
      "bufferView" : 9,
      "componentType" : 5123,
      "count" : 10980,
      "type" : "SCALAR"
    },
    {
      "bufferView" : 10,
      "min" : [ -68.6447, 4.33289, -30.7529 ],
      "max" : [ -55.3429, 17.9802, -11.4116 ],
      "componentType" : 5126,
      "count" : 3610,
      "type" : "VEC3"
    },
    {
      "bufferView" : 11,
      "componentType" : 5126,
      "count" : 3610,
      "type" : "VEC3"
    },
    {
      "bufferView" : 12,
      "componentType" : 5126,
      "count" : 3610,
      "type" : "VEC4"
    },
    {
      "bufferView" : 13,
      "normalized" : true,
      "componentType" : 5121,
      "count" : 3610,
      "type" : "VEC4"
    },
    {
      "bufferView" : 14,
      "componentType" : 5126,
      "count" : 3610,
      "type" : "VEC2"
    },
    {
      "bufferView" : 15,
      "componentType" : 5126,
      "count" : 3610,
      "type" : "VEC2"
    },
    {
      "bufferView" : 16,
      "componentType" : 5126,
      "count" : 3610,
      "type" : "VEC2"
    },
    {
      "bufferView" : 17,
      "componentType" : 5126,
      "count" : 3610,
      "type" : "VEC2"
    },
    {
      "bufferView" : 18,
      "componentType" : 5123,
      "count" : 7134,
      "type" : "SCALAR"
    },
    {
      "bufferView" : 19,
      "min" : [ -68.1207, -0.854178, -29.7533 ],
      "max" : [ -55.486, 14.4188, -12.1784 ],
      "componentType" : 5126,
      "count" : 1664,
      "type" : "VEC3"
    },
    {
      "bufferView" : 20,
      "componentType" : 5126,
      "count" : 1664,
      "type" : "VEC3"
    },
    {
      "bufferView" : 21,
      "componentType" : 5126,
      "count" : 1664,
      "type" : "VEC4"
    },
    {
      "bufferView" : 22,
      "normalized" : true,
      "componentType" : 5121,
      "count" : 1664,
      "type" : "VEC4"
    },
    {
      "bufferView" : 23,
      "componentType" : 5126,
      "count" : 1664,
      "type" : "VEC2"
    },
    {
      "bufferView" : 24,
      "componentType" : 5126,
      "count" : 1664,
      "type" : "VEC2"
    },
    {
      "bufferView" : 25,
      "componentType" : 5126,
      "count" : 1664,
      "type" : "VEC2"
    },
    {
      "bufferView" : 26,
      "componentType" : 5126,
      "count" : 1664,
      "type" : "VEC2"
    }
  ]
}
