{
  "asset" : {
    "generator" : "UE Viewer (umodel) build 1544 based",
    "version" : "2.0"
  },
  "scene" : 0,
  "scenes" : [
    {
      "nodes" : [ 0 ]
    }
  ],
  "nodes" : [
    {
      "name" : "SM_ENV_LKNVLD03_CommonBuilding_A_Tall",
      "mesh" : 0
    }
  ],
  "materials" : [
    {
      "name" : "MI_ENV_LKNVLD_CommonBuilding_A",
      "pbrMetallicRoughness" : {
        "baseColorFactor" : [ 0.3, 0.3, 0.3, 1.0 ],
        "metallicFactor" : 0.1,
        "roughnessFactor" : 0.5
      }
    },
    {
      "name" : "MI_ENV_LKNVLD_Windows_A",
      "pbrMetallicRoughness" : {
        "baseColorFactor" : [ 0.9, 0.3, 0.3, 1.0 ],
        "metallicFactor" : 0.1,
        "roughnessFactor" : 0.5
      }
    }
  ],
  "meshes" : [
    {
      "primitives" : [
        {
          "attributes" : {
            "POSITION" : 1,
            "NORMAL" : 2,
            "TANGENT" : 3,
            "TEXCOORD_0" : 4,
            "TEXCOORD_1" : 5,
            "TEXCOORD_2" : 6,
            "TEXCOORD_3" : 7
          },
          "indices" : 0,
          "material" : 0
        },
        {
          "attributes" : {
            "POSITION" : 9,
            "NORMAL" : 10,
            "TANGENT" : 11,
            "TEXCOORD_0" : 12,
            "TEXCOORD_1" : 13,
            "TEXCOORD_2" : 14,
            "TEXCOORD_3" : 15
          },
          "indices" : 8,
          "material" : 1
        }
      ],
      "name" : "SM_ENV_LKNVLD03_CommonBuilding_A_Tall"
    }
  ],
  "buffers" : [
    {
      "uri" : "SM_ENV_LKNVLD03_CommonBuilding_A_Tall.bin",
      "byteLength" : 1315116
    }
  ],
  "bufferViews" : [
    {
      "buffer" : 0,
      "byteOffset" : 0,
      "byteLength" : 62124
    },
    {
      "buffer" : 0,
      "byteOffset" : 62124,
      "byteLength" : 200232
    },
    {
      "buffer" : 0,
      "byteOffset" : 262356,
      "byteLength" : 200232
    },
    {
      "buffer" : 0,
      "byteOffset" : 462588,
      "byteLength" : 266976
    },
    {
      "buffer" : 0,
      "byteOffset" : 729564,
      "byteLength" : 133488
    },
    {
      "buffer" : 0,
      "byteOffset" : 863052,
      "byteLength" : 133488
    },
    {
      "buffer" : 0,
      "byteOffset" : 996540,
      "byteLength" : 133488
    },
    {
      "buffer" : 0,
      "byteOffset" : 1130028,
      "byteLength" : 133488
    },
    {
      "buffer" : 0,
      "byteOffset" : 1263516,
      "byteLength" : 2064
    },
    {
      "buffer" : 0,
      "byteOffset" : 1265580,
      "byteLength" : 8256
    },
    {
      "buffer" : 0,
      "byteOffset" : 1273836,
      "byteLength" : 8256
    },
    {
      "buffer" : 0,
      "byteOffset" : 1282092,
      "byteLength" : 11008
    },
    {
      "buffer" : 0,
      "byteOffset" : 1293100,
      "byteLength" : 5504
    },
    {
      "buffer" : 0,
      "byteOffset" : 1298604,
      "byteLength" : 5504
    },
    {
      "buffer" : 0,
      "byteOffset" : 1304108,
      "byteLength" : 5504
    },
    {
      "buffer" : 0,
      "byteOffset" : 1309612,
      "byteLength" : 5504
    }
  ],
  "accessors" : [
    {
      "bufferView" : 0,
      "componentType" : 5123,
      "count" : 31062,
      "type" : "SCALAR"
    },
    {
      "bufferView" : 1,
      "min" : [ -17.5275, 0, -12.0666 ],
      "max" : [ 17.5275, 54.0031, 12.0666 ],
      "componentType" : 5126,
      "count" : 16686,
      "type" : "VEC3"
    },
    {
      "bufferView" : 2,
      "componentType" : 5126,
      "count" : 16686,
      "type" : "VEC3"
    },
    {
      "bufferView" : 3,
      "componentType" : 5126,
      "count" : 16686,
      "type" : "VEC4"
    },
    {
      "bufferView" : 4,
      "componentType" : 5126,
      "count" : 16686,
      "type" : "VEC2"
    },
    {
      "bufferView" : 5,
      "componentType" : 5126,
      "count" : 16686,
      "type" : "VEC2"
    },
    {
      "bufferView" : 6,
      "componentType" : 5126,
      "count" : 16686,
      "type" : "VEC2"
    },
    {
      "bufferView" : 7,
      "componentType" : 5126,
      "count" : 16686,
      "type" : "VEC2"
    },
    {
      "bufferView" : 8,
      "componentType" : 5123,
      "count" : 1032,
      "type" : "SCALAR"
    },
    {
      "bufferView" : 9,
      "min" : [ -13.8759, 11.6656, -6.76029 ],
      "max" : [ 13.8759, 52.218, 6.76029 ],
      "componentType" : 5126,
      "count" : 688,
      "type" : "VEC3"
    },
    {
      "bufferView" : 10,
      "componentType" : 5126,
      "count" : 688,
      "type" : "VEC3"
    },
    {
      "bufferView" : 11,
      "componentType" : 5126,
      "count" : 688,
      "type" : "VEC4"
    },
    {
      "bufferView" : 12,
      "componentType" : 5126,
      "count" : 688,
      "type" : "VEC2"
    },
    {
      "bufferView" : 13,
      "componentType" : 5126,
      "count" : 688,
      "type" : "VEC2"
    },
    {
      "bufferView" : 14,
      "componentType" : 5126,
      "count" : 688,
      "type" : "VEC2"
    },
    {
      "bufferView" : 15,
      "componentType" : 5126,
      "count" : 688,
      "type" : "VEC2"
    }
  ]
}
