{
  "asset" : {
    "generator" : "UE Viewer (umodel) build 1544 based",
    "version" : "2.0"
  },
  "scene" : 0,
  "scenes" : [
    {
      "nodes" : [ 0 ]
    }
  ],
  "nodes" : [
    {
      "name" : "SM_ENV_KNVLLG03_AreaA_Building_A",
      "mesh" : 0
    }
  ],
  "materials" : [
    {
      "name" : "MI_ENV_LKNVLD_WoodPillar_A",
      "pbrMetallicRoughness" : {
        "baseColorFactor" : [ 0.3, 0.3, 0.3, 1.0 ],
        "metallicFactor" : 0.1,
        "roughnessFactor" : 0.5
      }
    },
    {
      "name" : "MI_ENV_LKNVLD_Plaster_Dark",
      "pbrMetallicRoughness" : {
        "baseColorFactor" : [ 0.9, 0.3, 0.3, 1.0 ],
        "metallicFactor" : 0.1,
        "roughnessFactor" : 0.5
      }
    },
    {
      "name" : "MI_ENV_LKNVLD_Plaster",
      "pbrMetallicRoughness" : {
        "baseColorFactor" : [ 0.3, 0.9, 0.3, 1.0 ],
        "metallicFactor" : 0.1,
        "roughnessFactor" : 0.5
      }
    },
    {
      "name" : "MI_ENV_LKNVLD_WoodBoard_Natural",
      "pbrMetallicRoughness" : {
        "baseColorFactor" : [ 0.3, 0.3, 0.9, 1.0 ],
        "metallicFactor" : 0.1,
        "roughnessFactor" : 0.5
      }
    },
    {
      "name" : "MI_ENV_LKNVLD_MetalRoof_DarkBlue",
      "pbrMetallicRoughness" : {
        "baseColorFactor" : [ 0.9, 0.9, 0.9, 1.0 ],
        "metallicFactor" : 0.1,
        "roughnessFactor" : 0.5
      }
    },
    {
      "name" : "MI_ENV_LKNVLD_Signboard_A",
      "pbrMetallicRoughness" : {
        "baseColorFactor" : [ 0.9, 0.9, 0.3, 1.0 ],
        "metallicFactor" : 0.1,
        "roughnessFactor" : 0.5
      }
    },
    {
      "name" : "MI_ENV_LKNVLD_Windows_A",
      "pbrMetallicRoughness" : {
        "baseColorFactor" : [ 0.9, 0.3, 0.9, 1.0 ],
        "metallicFactor" : 0.1,
        "roughnessFactor" : 0.5
      }
    },
    {
      "name" : "MI_LKNVLD_Plaster_Backdrop_Gold",
      "pbrMetallicRoughness" : {
        "baseColorFactor" : [ 0.3, 0.9, 0.9, 1.0 ],
        "metallicFactor" : 0.1,
        "roughnessFactor" : 0.5
      }
    },
    {
      "name" : "MI_ENV_LKNVLD_CommonBuilding_A",
      "pbrMetallicRoughness" : {
        "baseColorFactor" : [ 1, 0.3, 0.3, 1.0 ],
        "metallicFactor" : 0.1,
        "roughnessFactor" : 0.5
      }
    },
    {
      "name" : "MI_ENV_LKNVLD_WoodWindows_E",
      "pbrMetallicRoughness" : {
        "baseColorFactor" : [ 0.6, 0.3, 0.3, 1.0 ],
        "metallicFactor" : 0.1,
        "roughnessFactor" : 0.5
      }
    }
  ],
  "meshes" : [
    {
      "primitives" : [
        {
          "attributes" : {
            "POSITION" : 1,
            "NORMAL" : 2,
            "TANGENT" : 3,
            "COLOR_0" : 4,
            "TEXCOORD_0" : 5,
            "TEXCOORD_1" : 6,
            "TEXCOORD_2" : 7,
            "TEXCOORD_3" : 8
          },
          "indices" : 0,
          "material" : 0
        },
        {
          "attributes" : {
            "POSITION" : 10,
            "NORMAL" : 11,
            "TANGENT" : 12,
            "COLOR_0" : 13,
            "TEXCOORD_0" : 14,
            "TEXCOORD_1" : 15,
            "TEXCOORD_2" : 16,
            "TEXCOORD_3" : 17
          },
          "indices" : 9,
          "material" : 1
        },
        {
          "attributes" : {
            "POSITION" : 19,
            "NORMAL" : 20,
            "TANGENT" : 21,
            "COLOR_0" : 22,
            "TEXCOORD_0" : 23,
            "TEXCOORD_1" : 24,
            "TEXCOORD_2" : 25,
            "TEXCOORD_3" : 26
          },
          "indices" : 18,
          "material" : 2
        },
        {
          "attributes" : {
            "POSITION" : 28,
            "NORMAL" : 29,
            "TANGENT" : 30,
            "COLOR_0" : 31,
            "TEXCOORD_0" : 32,
            "TEXCOORD_1" : 33,
            "TEXCOORD_2" : 34,
            "TEXCOORD_3" : 35
          },
          "indices" : 27,
          "material" : 3
        },
        {
          "attributes" : {
            "POSITION" : 37,
            "NORMAL" : 38,
            "TANGENT" : 39,
            "COLOR_0" : 40,
            "TEXCOORD_0" : 41,
            "TEXCOORD_1" : 42,
            "TEXCOORD_2" : 43,
            "TEXCOORD_3" : 44
          },
          "indices" : 36,
          "material" : 4
        },
        {
          "attributes" : {
            "POSITION" : 46,
            "NORMAL" : 47,
            "TANGENT" : 48,
            "COLOR_0" : 49,
            "TEXCOORD_0" : 50,
            "TEXCOORD_1" : 51,
            "TEXCOORD_2" : 52,
            "TEXCOORD_3" : 53
          },
          "indices" : 45,
          "material" : 5
        },
        {
          "attributes" : {
            "POSITION" : 55,
            "NORMAL" : 56,
            "TANGENT" : 57,
            "COLOR_0" : 58,
            "TEXCOORD_0" : 59,
            "TEXCOORD_1" : 60,
            "TEXCOORD_2" : 61,
            "TEXCOORD_3" : 62
          },
          "indices" : 54,
          "material" : 6
        },
        {
          "attributes" : {
            "POSITION" : 64,
            "NORMAL" : 65,
            "TANGENT" : 66,
            "COLOR_0" : 67,
            "TEXCOORD_0" : 68,
            "TEXCOORD_1" : 69,
            "TEXCOORD_2" : 70,
            "TEXCOORD_3" : 71
          },
          "indices" : 63,
          "material" : 7
        },
        {
          "attributes" : {
            "POSITION" : 73,
            "NORMAL" : 74,
            "TANGENT" : 75,
            "COLOR_0" : 76,
            "TEXCOORD_0" : 77,
            "TEXCOORD_1" : 78,
            "TEXCOORD_2" : 79,
            "TEXCOORD_3" : 80
          },
          "indices" : 72,
          "material" : 8
        },
        {
          "attributes" : {
            "POSITION" : 82,
            "NORMAL" : 83,
            "TANGENT" : 84,
            "COLOR_0" : 85,
            "TEXCOORD_0" : 86,
            "TEXCOORD_1" : 87,
            "TEXCOORD_2" : 88,
            "TEXCOORD_3" : 89
          },
          "indices" : 81,
          "material" : 9
        }
      ],
      "name" : "SM_ENV_KNVLLG03_AreaA_Building_A"
    }
  ],
  "buffers" : [
    {
      "uri" : "SM_ENV_KNVLLG03_AreaA_Building_A.bin",
      "byteLength" : 771576
    }
  ],
  "bufferViews" : [
    {
      "buffer" : 0,
      "byteOffset" : 0,
      "byteLength" : 5652
    },
    {
      "buffer" : 0,
      "byteOffset" : 5652,
      "byteLength" : 19836
    },
    {
      "buffer" : 0,
      "byteOffset" : 25488,
      "byteLength" : 19836
    },
    {
      "buffer" : 0,
      "byteOffset" : 45324,
      "byteLength" : 26448
    },
    {
      "buffer" : 0,
      "byteOffset" : 71772,
      "byteLength" : 6612
    },
    {
      "buffer" : 0,
      "byteOffset" : 78384,
      "byteLength" : 13224
    },
    {
      "buffer" : 0,
      "byteOffset" : 91608,
      "byteLength" : 13224
    },
    {
      "buffer" : 0,
      "byteOffset" : 104832,
      "byteLength" : 13224
    },
    {
      "buffer" : 0,
      "byteOffset" : 118056,
      "byteLength" : 13224
    },
    {
      "buffer" : 0,
      "byteOffset" : 131280,
      "byteLength" : 284
    },
    {
      "buffer" : 0,
      "byteOffset" : 131564,
      "byteLength" : 1332
    },
    {
      "buffer" : 0,
      "byteOffset" : 132896,
      "byteLength" : 1332
    },
    {
      "buffer" : 0,
      "byteOffset" : 134228,
      "byteLength" : 1776
    },
    {
      "buffer" : 0,
      "byteOffset" : 136004,
      "byteLength" : 444
    },
    {
      "buffer" : 0,
      "byteOffset" : 136448,
      "byteLength" : 888
    },
    {
      "buffer" : 0,
      "byteOffset" : 137336,
      "byteLength" : 888
    },
    {
      "buffer" : 0,
      "byteOffset" : 138224,
      "byteLength" : 888
    },
    {
      "buffer" : 0,
      "byteOffset" : 139112,
      "byteLength" : 888
    },
    {
      "buffer" : 0,
      "byteOffset" : 140000,
      "byteLength" : 6384
    },
    {
      "buffer" : 0,
      "byteOffset" : 146384,
      "byteLength" : 28548
    },
    {
      "buffer" : 0,
      "byteOffset" : 174932,
      "byteLength" : 28548
    },
    {
      "buffer" : 0,
      "byteOffset" : 203480,
      "byteLength" : 38064
    },
    {
      "buffer" : 0,
      "byteOffset" : 241544,
      "byteLength" : 9516
    },
    {
      "buffer" : 0,
      "byteOffset" : 251060,
      "byteLength" : 19032
    },
    {
      "buffer" : 0,
      "byteOffset" : 270092,
      "byteLength" : 19032
    },
    {
      "buffer" : 0,
      "byteOffset" : 289124,
      "byteLength" : 19032
    },
    {
      "buffer" : 0,
      "byteOffset" : 308156,
      "byteLength" : 19032
    },
    {
      "buffer" : 0,
      "byteOffset" : 327188,
      "byteLength" : 1728
    },
    {
      "buffer" : 0,
      "byteOffset" : 328916,
      "byteLength" : 4680
    },
    {
      "buffer" : 0,
      "byteOffset" : 333596,
      "byteLength" : 4680
    },
    {
      "buffer" : 0,
      "byteOffset" : 338276,
      "byteLength" : 6240
    },
    {
      "buffer" : 0,
      "byteOffset" : 344516,
      "byteLength" : 1560
    },
    {
      "buffer" : 0,
      "byteOffset" : 346076,
      "byteLength" : 3120
    },
    {
      "buffer" : 0,
      "byteOffset" : 349196,
      "byteLength" : 3120
    },
    {
      "buffer" : 0,
      "byteOffset" : 352316,
      "byteLength" : 3120
    },
    {
      "buffer" : 0,
      "byteOffset" : 355436,
      "byteLength" : 3120
    },
    {
      "buffer" : 0,
      "byteOffset" : 358556,
      "byteLength" : 924
    },
    {
      "buffer" : 0,
      "byteOffset" : 359480,
      "byteLength" : 2760
    },
    {
      "buffer" : 0,
      "byteOffset" : 362240,
      "byteLength" : 2760
    },
    {
      "buffer" : 0,
      "byteOffset" : 365000,
      "byteLength" : 3680
    },
    {
      "buffer" : 0,
      "byteOffset" : 368680,
      "byteLength" : 920
    },
    {
      "buffer" : 0,
      "byteOffset" : 369600,
      "byteLength" : 1840
    },
    {
      "buffer" : 0,
      "byteOffset" : 371440,
      "byteLength" : 1840
    },
    {
      "buffer" : 0,
      "byteOffset" : 373280,
      "byteLength" : 1840
    },
    {
      "buffer" : 0,
      "byteOffset" : 375120,
      "byteLength" : 1840
    },
    {
      "buffer" : 0,
      "byteOffset" : 376960,
      "byteLength" : 68
    },
    {
      "buffer" : 0,
      "byteOffset" : 377028,
      "byteLength" : 180
    },
    {
      "buffer" : 0,
      "byteOffset" : 377208,
      "byteLength" : 180
    },
    {
      "buffer" : 0,
      "byteOffset" : 377388,
      "byteLength" : 240
    },
    {
      "buffer" : 0,
      "byteOffset" : 377628,
      "byteLength" : 60
    },
    {
      "buffer" : 0,
      "byteOffset" : 377688,
      "byteLength" : 120
    },
    {
      "buffer" : 0,
      "byteOffset" : 377808,
      "byteLength" : 120
    },
    {
      "buffer" : 0,
      "byteOffset" : 377928,
      "byteLength" : 120
    },
    {
      "buffer" : 0,
      "byteOffset" : 378048,
      "byteLength" : 120
    },
    {
      "buffer" : 0,
      "byteOffset" : 378168,
      "byteLength" : 1104
    },
    {
      "buffer" : 0,
      "byteOffset" : 379272,
      "byteLength" : 4416
    },
    {
      "buffer" : 0,
      "byteOffset" : 383688,
      "byteLength" : 4416
    },
    {
      "buffer" : 0,
      "byteOffset" : 388104,
      "byteLength" : 5888
    },
    {
      "buffer" : 0,
      "byteOffset" : 393992,
      "byteLength" : 1472
    },
    {
      "buffer" : 0,
      "byteOffset" : 395464,
      "byteLength" : 2944
    },
    {
      "buffer" : 0,
      "byteOffset" : 398408,
      "byteLength" : 2944
    },
    {
      "buffer" : 0,
      "byteOffset" : 401352,
      "byteLength" : 2944
    },
    {
      "buffer" : 0,
      "byteOffset" : 404296,
      "byteLength" : 2944
    },
    {
      "buffer" : 0,
      "byteOffset" : 407240,
      "byteLength" : 5912
    },
    {
      "buffer" : 0,
      "byteOffset" : 413152,
      "byteLength" : 12684
    },
    {
      "buffer" : 0,
      "byteOffset" : 425836,
      "byteLength" : 12684
    },
    {
      "buffer" : 0,
      "byteOffset" : 438520,
      "byteLength" : 16912
    },
    {
      "buffer" : 0,
      "byteOffset" : 455432,
      "byteLength" : 4228
    },
    {
      "buffer" : 0,
      "byteOffset" : 459660,
      "byteLength" : 8456
    },
    {
      "buffer" : 0,
      "byteOffset" : 468116,
      "byteLength" : 8456
    },
    {
      "buffer" : 0,
      "byteOffset" : 476572,
      "byteLength" : 8456
    },
    {
      "buffer" : 0,
      "byteOffset" : 485028,
      "byteLength" : 8456
    },
    {
      "buffer" : 0,
      "byteOffset" : 493484,
      "byteLength" : 10704
    },
    {
      "buffer" : 0,
      "byteOffset" : 504188,
      "byteLength" : 41820
    },
    {
      "buffer" : 0,
      "byteOffset" : 546008,
      "byteLength" : 41820
    },
    {
      "buffer" : 0,
      "byteOffset" : 587828,
      "byteLength" : 55760
    },
    {
      "buffer" : 0,
      "byteOffset" : 643588,
      "byteLength" : 13940
    },
    {
      "buffer" : 0,
      "byteOffset" : 657528,
      "byteLength" : 27880
    },
    {
      "buffer" : 0,
      "byteOffset" : 685408,
      "byteLength" : 27880
    },
    {
      "buffer" : 0,
      "byteOffset" : 713288,
      "byteLength" : 27880
    },
    {
      "buffer" : 0,
      "byteOffset" : 741168,
      "byteLength" : 27880
    },
    {
      "buffer" : 0,
      "byteOffset" : 769048,
      "byteLength" : 96
    },
    {
      "buffer" : 0,
      "byteOffset" : 769144,
      "byteLength" : 384
    },
    {
      "buffer" : 0,
      "byteOffset" : 769528,
      "byteLength" : 384
    },
    {
      "buffer" : 0,
      "byteOffset" : 769912,
      "byteLength" : 512
    },
    {
      "buffer" : 0,
      "byteOffset" : 770424,
      "byteLength" : 128
    },
    {
      "buffer" : 0,
      "byteOffset" : 770552,
      "byteLength" : 256
    },
    {
      "buffer" : 0,
      "byteOffset" : 770808,
      "byteLength" : 256
    },
    {
      "buffer" : 0,
      "byteOffset" : 771064,
      "byteLength" : 256
    },
    {
      "buffer" : 0,
      "byteOffset" : 771320,
      "byteLength" : 256
    }
  ],
  "accessors" : [
    {
      "bufferView" : 0,
      "componentType" : 5123,
      "count" : 2826,
      "type" : "SCALAR"
    },
    {
      "bufferView" : 1,
      "min" : [ -47.1148, -0.0372725, 82.5424 ],
      "max" : [ -13.6273, 40.0625, 111.539 ],
      "componentType" : 5126,
      "count" : 1653,
      "type" : "VEC3"
    },
    {
      "bufferView" : 2,
      "componentType" : 5126,
      "count" : 1653,
      "type" : "VEC3"
    },
    {
      "bufferView" : 3,
      "componentType" : 5126,
      "count" : 1653,
      "type" : "VEC4"
    },
    {
      "bufferView" : 4,
      "normalized" : true,
      "componentType" : 5121,
      "count" : 1653,
      "type" : "VEC4"
    },
    {
      "bufferView" : 5,
      "componentType" : 5126,
      "count" : 1653,
      "type" : "VEC2"
    },
    {
      "bufferView" : 6,
      "componentType" : 5126,
      "count" : 1653,
      "type" : "VEC2"
    },
    {
      "bufferView" : 7,
      "componentType" : 5126,
      "count" : 1653,
      "type" : "VEC2"
    },
    {
      "bufferView" : 8,
      "componentType" : 5126,
      "count" : 1653,
      "type" : "VEC2"
    },
    {
      "bufferView" : 9,
      "componentType" : 5123,
      "count" : 141,
      "type" : "SCALAR"
    },
    {
      "bufferView" : 10,
      "min" : [ -44.4576, 9.58136, 87.2354 ],
      "max" : [ -16.3625, 35.0045, 106.091 ],
      "componentType" : 5126,
      "count" : 111,
      "type" : "VEC3"
    },
    {
      "bufferView" : 11,
      "componentType" : 5126,
      "count" : 111,
      "type" : "VEC3"
    },
    {
      "bufferView" : 12,
      "componentType" : 5126,
      "count" : 111,
      "type" : "VEC4"
    },
    {
      "bufferView" : 13,
      "normalized" : true,
      "componentType" : 5121,
      "count" : 111,
      "type" : "VEC4"
    },
    {
      "bufferView" : 14,
      "componentType" : 5126,
      "count" : 111,
      "type" : "VEC2"
    },
    {
      "bufferView" : 15,
      "componentType" : 5126,
      "count" : 111,
      "type" : "VEC2"
    },
    {
      "bufferView" : 16,
      "componentType" : 5126,
      "count" : 111,
      "type" : "VEC2"
    },
    {
      "bufferView" : 17,
      "componentType" : 5126,
      "count" : 111,
      "type" : "VEC2"
    },
    {
      "bufferView" : 18,
      "componentType" : 5123,
      "count" : 3192,
      "type" : "SCALAR"
    },
    {
      "bufferView" : 19,
      "min" : [ -47.9148, -0.337272, 82.1424 ],
      "max" : [ -12.9053, 41.6658, 111.939 ],
      "componentType" : 5126,
      "count" : 2379,
      "type" : "VEC3"
    },
    {
      "bufferView" : 20,
      "componentType" : 5126,
      "count" : 2379,
      "type" : "VEC3"
    },
    {
      "bufferView" : 21,
      "componentType" : 5126,
      "count" : 2379,
      "type" : "VEC4"
    },
    {
      "bufferView" : 22,
      "normalized" : true,
      "componentType" : 5121,
      "count" : 2379,
      "type" : "VEC4"
    },
    {
      "bufferView" : 23,
      "componentType" : 5126,
      "count" : 2379,
      "type" : "VEC2"
    },
    {
      "bufferView" : 24,
      "componentType" : 5126,
      "count" : 2379,
      "type" : "VEC2"
    },
    {
      "bufferView" : 25,
      "componentType" : 5126,
      "count" : 2379,
      "type" : "VEC2"
    },
    {
      "bufferView" : 26,
      "componentType" : 5126,
      "count" : 2379,
      "type" : "VEC2"
    },
    {
      "bufferView" : 27,
      "componentType" : 5123,
      "count" : 864,
      "type" : "SCALAR"
    },
    {
      "bufferView" : 28,
      "min" : [ -47.11, 0.162729, 83.509 ],
      "max" : [ -13.5304, 40.0436, 110.572 ],
      "componentType" : 5126,
      "count" : 390,
      "type" : "VEC3"
    },
    {
      "bufferView" : 29,
      "componentType" : 5126,
      "count" : 390,
      "type" : "VEC3"
    },
    {
      "bufferView" : 30,
      "componentType" : 5126,
      "count" : 390,
      "type" : "VEC4"
    },
    {
      "bufferView" : 31,
      "normalized" : true,
      "componentType" : 5121,
      "count" : 390,
      "type" : "VEC4"
    },
    {
      "bufferView" : 32,
      "componentType" : 5126,
      "count" : 390,
      "type" : "VEC2"
    },
    {
      "bufferView" : 33,
      "componentType" : 5126,
      "count" : 390,
      "type" : "VEC2"
    },
    {
      "bufferView" : 34,
      "componentType" : 5126,
      "count" : 390,
      "type" : "VEC2"
    },
    {
      "bufferView" : 35,
      "componentType" : 5126,
      "count" : 390,
      "type" : "VEC2"
    },
    {
      "bufferView" : 36,
      "componentType" : 5123,
      "count" : 462,
      "type" : "SCALAR"
    },
    {
      "bufferView" : 37,
      "min" : [ -47.1148, 7.30253, 82.5424 ],
      "max" : [ -13.7053, 41.4396, 111.539 ],
      "componentType" : 5126,
      "count" : 230,
      "type" : "VEC3"
    },
    {
      "bufferView" : 38,
      "componentType" : 5126,
      "count" : 230,
      "type" : "VEC3"
    },
    {
      "bufferView" : 39,
      "componentType" : 5126,
      "count" : 230,
      "type" : "VEC4"
    },
    {
      "bufferView" : 40,
      "normalized" : true,
      "componentType" : 5121,
      "count" : 230,
      "type" : "VEC4"
    },
    {
      "bufferView" : 41,
      "componentType" : 5126,
      "count" : 230,
      "type" : "VEC2"
    },
    {
      "bufferView" : 42,
      "componentType" : 5126,
      "count" : 230,
      "type" : "VEC2"
    },
    {
      "bufferView" : 43,
      "componentType" : 5126,
      "count" : 230,
      "type" : "VEC2"
    },
    {
      "bufferView" : 44,
      "componentType" : 5126,
      "count" : 230,
      "type" : "VEC2"
    },
    {
      "bufferView" : 45,
      "componentType" : 5123,
      "count" : 33,
      "type" : "SCALAR"
    },
    {
      "bufferView" : 46,
      "min" : [ -45.2442, 40.0602, 95.9958 ],
      "max" : [ -15.5759, 41.2473, 97.1829 ],
      "componentType" : 5126,
      "count" : 15,
      "type" : "VEC3"
    },
    {
      "bufferView" : 47,
      "componentType" : 5126,
      "count" : 15,
      "type" : "VEC3"
    },
    {
      "bufferView" : 48,
      "componentType" : 5126,
      "count" : 15,
      "type" : "VEC4"
    },
    {
      "bufferView" : 49,
      "normalized" : true,
      "componentType" : 5121,
      "count" : 15,
      "type" : "VEC4"
    },
    {
      "bufferView" : 50,
      "componentType" : 5126,
      "count" : 15,
      "type" : "VEC2"
    },
    {
      "bufferView" : 51,
      "componentType" : 5126,
      "count" : 15,
      "type" : "VEC2"
    },
    {
      "bufferView" : 52,
      "componentType" : 5126,
      "count" : 15,
      "type" : "VEC2"
    },
    {
      "bufferView" : 53,
      "componentType" : 5126,
      "count" : 15,
      "type" : "VEC2"
    },
    {
      "bufferView" : 54,
      "componentType" : 5123,
      "count" : 552,
      "type" : "SCALAR"
    },
    {
      "bufferView" : 55,
      "min" : [ -44.2859, 11.3284, 87.5227 ],
      "max" : [ -16.5342, 39.8807, 105.236 ],
      "componentType" : 5126,
      "count" : 368,
      "type" : "VEC3"
    },
    {
      "bufferView" : 56,
      "componentType" : 5126,
      "count" : 368,
      "type" : "VEC3"
    },
    {
      "bufferView" : 57,
      "componentType" : 5126,
      "count" : 368,
      "type" : "VEC4"
    },
    {
      "bufferView" : 58,
      "normalized" : true,
      "componentType" : 5121,
      "count" : 368,
      "type" : "VEC4"
    },
    {
      "bufferView" : 59,
      "componentType" : 5126,
      "count" : 368,
      "type" : "VEC2"
    },
    {
      "bufferView" : 60,
      "componentType" : 5126,
      "count" : 368,
      "type" : "VEC2"
    },
    {
      "bufferView" : 61,
      "componentType" : 5126,
      "count" : 368,
      "type" : "VEC2"
    },
    {
      "bufferView" : 62,
      "componentType" : 5126,
      "count" : 368,
      "type" : "VEC2"
    },
    {
      "bufferView" : 63,
      "componentType" : 5123,
      "count" : 2955,
      "type" : "SCALAR"
    },
    {
      "bufferView" : 64,
      "min" : [ -47.11, -0.0372718, 83.509 ],
      "max" : [ -13.5304, 36.6862, 110.572 ],
      "componentType" : 5126,
      "count" : 1057,
      "type" : "VEC3"
    },
    {
      "bufferView" : 65,
      "componentType" : 5126,
      "count" : 1057,
      "type" : "VEC3"
    },
    {
      "bufferView" : 66,
      "componentType" : 5126,
      "count" : 1057,
      "type" : "VEC4"
    },
    {
      "bufferView" : 67,
      "normalized" : true,
      "componentType" : 5121,
      "count" : 1057,
      "type" : "VEC4"
    },
    {
      "bufferView" : 68,
      "componentType" : 5126,
      "count" : 1057,
      "type" : "VEC2"
    },
    {
      "bufferView" : 69,
      "componentType" : 5126,
      "count" : 1057,
      "type" : "VEC2"
    },
    {
      "bufferView" : 70,
      "componentType" : 5126,
      "count" : 1057,
      "type" : "VEC2"
    },
    {
      "bufferView" : 71,
      "componentType" : 5126,
      "count" : 1057,
      "type" : "VEC2"
    },
    {
      "bufferView" : 72,
      "componentType" : 5123,
      "count" : 5352,
      "type" : "SCALAR"
    },
    {
      "bufferView" : 73,
      "min" : [ -46.1556, 4.86273, 83.0784 ],
      "max" : [ -13.9258, 33.5813, 111.003 ],
      "componentType" : 5126,
      "count" : 3485,
      "type" : "VEC3"
    },
    {
      "bufferView" : 74,
      "componentType" : 5126,
      "count" : 3485,
      "type" : "VEC3"
    },
    {
      "bufferView" : 75,
      "componentType" : 5126,
      "count" : 3485,
      "type" : "VEC4"
    },
    {
      "bufferView" : 76,
      "normalized" : true,
      "componentType" : 5121,
      "count" : 3485,
      "type" : "VEC4"
    },
    {
      "bufferView" : 77,
      "componentType" : 5126,
      "count" : 3485,
      "type" : "VEC2"
    },
    {
      "bufferView" : 78,
      "componentType" : 5126,
      "count" : 3485,
      "type" : "VEC2"
    },
    {
      "bufferView" : 79,
      "componentType" : 5126,
      "count" : 3485,
      "type" : "VEC2"
    },
    {
      "bufferView" : 80,
      "componentType" : 5126,
      "count" : 3485,
      "type" : "VEC2"
    },
    {
      "bufferView" : 81,
      "componentType" : 5123,
      "count" : 48,
      "type" : "SCALAR"
    },
    {
      "bufferView" : 82,
      "min" : [ -44.9454, 1.76273, 84.159 ],
      "max" : [ -15.8747, 4.0623, 109.922 ],
      "componentType" : 5126,
      "count" : 32,
      "type" : "VEC3"
    },
    {
      "bufferView" : 83,
      "componentType" : 5126,
      "count" : 32,
      "type" : "VEC3"
    },
    {
      "bufferView" : 84,
      "componentType" : 5126,
      "count" : 32,
      "type" : "VEC4"
    },
    {
      "bufferView" : 85,
      "normalized" : true,
      "componentType" : 5121,
      "count" : 32,
      "type" : "VEC4"
    },
    {
      "bufferView" : 86,
      "componentType" : 5126,
      "count" : 32,
      "type" : "VEC2"
    },
    {
      "bufferView" : 87,
      "componentType" : 5126,
      "count" : 32,
      "type" : "VEC2"
    },
    {
      "bufferView" : 88,
      "componentType" : 5126,
      "count" : 32,
      "type" : "VEC2"
    },
    {
      "bufferView" : 89,
      "componentType" : 5126,
      "count" : 32,
      "type" : "VEC2"
    }
  ]
}
