{
  "asset" : {
    "generator" : "UE Viewer (umodel) build 1544 based",
    "version" : "2.0"
  },
  "scene" : 0,
  "scenes" : [
    {
      "nodes" : [ 0 ]
    }
  ],
  "nodes" : [
    {
      "name" : "SM_ENV_KNVLLG03_AreaB_BuildingAd",
      "mesh" : 0
    }
  ],
  "materials" : [
    {
      "name" : "MI_ENV_KNVLLG03_Curtain_B",
      "pbrMetallicRoughness" : {
        "baseColorFactor" : [ 0.3, 0.3, 0.3, 1.0 ],
        "metallicFactor" : 0.1,
        "roughnessFactor" : 0.5
      }
    },
    {
      "name" : "MI_ENV_LKNVLD_MetalRoofDark",
      "pbrMetallicRoughness" : {
        "baseColorFactor" : [ 0.9, 0.3, 0.3, 1.0 ],
        "metallicFactor" : 0.1,
        "roughnessFactor" : 0.5
      }
    }
  ],
  "meshes" : [
    {
      "primitives" : [
        {
          "attributes" : {
            "POSITION" : 1,
            "NORMAL" : 2,
            "TANGENT" : 3,
            "TEXCOORD_0" : 4,
            "TEXCOORD_1" : 5,
            "TEXCOORD_2" : 6,
            "TEXCOORD_3" : 7
          },
          "indices" : 0,
          "material" : 0
        },
        {
          "attributes" : {
            "POSITION" : 9,
            "NORMAL" : 10,
            "TANGENT" : 11,
            "TEXCOORD_0" : 12,
            "TEXCOORD_1" : 13,
            "TEXCOORD_2" : 14,
            "TEXCOORD_3" : 15
          },
          "indices" : 8,
          "material" : 1
        }
      ],
      "name" : "SM_ENV_KNVLLG03_AreaB_BuildingAd"
    }
  ],
  "buffers" : [
    {
      "uri" : "SM_ENV_KNVLLG03_AreaB_BuildingAd.bin",
      "byteLength" : 58920
    }
  ],
  "bufferViews" : [
    {
      "buffer" : 0,
      "byteOffset" : 0,
      "byteLength" : 3048
    },
    {
      "buffer" : 0,
      "byteOffset" : 3048,
      "byteLength" : 7008
    },
    {
      "buffer" : 0,
      "byteOffset" : 10056,
      "byteLength" : 7008
    },
    {
      "buffer" : 0,
      "byteOffset" : 17064,
      "byteLength" : 9344
    },
    {
      "buffer" : 0,
      "byteOffset" : 26408,
      "byteLength" : 4672
    },
    {
      "buffer" : 0,
      "byteOffset" : 31080,
      "byteLength" : 4672
    },
    {
      "buffer" : 0,
      "byteOffset" : 35752,
      "byteLength" : 4672
    },
    {
      "buffer" : 0,
      "byteOffset" : 40424,
      "byteLength" : 4672
    },
    {
      "buffer" : 0,
      "byteOffset" : 45096,
      "byteLength" : 864
    },
    {
      "buffer" : 0,
      "byteOffset" : 45960,
      "byteLength" : 2160
    },
    {
      "buffer" : 0,
      "byteOffset" : 48120,
      "byteLength" : 2160
    },
    {
      "buffer" : 0,
      "byteOffset" : 50280,
      "byteLength" : 2880
    },
    {
      "buffer" : 0,
      "byteOffset" : 53160,
      "byteLength" : 1440
    },
    {
      "buffer" : 0,
      "byteOffset" : 54600,
      "byteLength" : 1440
    },
    {
      "buffer" : 0,
      "byteOffset" : 56040,
      "byteLength" : 1440
    },
    {
      "buffer" : 0,
      "byteOffset" : 57480,
      "byteLength" : 1440
    }
  ],
  "accessors" : [
    {
      "bufferView" : 0,
      "componentType" : 5123,
      "count" : 1524,
      "type" : "SCALAR"
    },
    {
      "bufferView" : 1,
      "min" : [ -37.8234, 7.2949, 16.1845 ],
      "max" : [ -23.1874, 22.6073, 30.7067 ],
      "componentType" : 5126,
      "count" : 584,
      "type" : "VEC3"
    },
    {
      "bufferView" : 2,
      "componentType" : 5126,
      "count" : 584,
      "type" : "VEC3"
    },
    {
      "bufferView" : 3,
      "componentType" : 5126,
      "count" : 584,
      "type" : "VEC4"
    },
    {
      "bufferView" : 4,
      "componentType" : 5126,
      "count" : 584,
      "type" : "VEC2"
    },
    {
      "bufferView" : 5,
      "componentType" : 5126,
      "count" : 584,
      "type" : "VEC2"
    },
    {
      "bufferView" : 6,
      "componentType" : 5126,
      "count" : 584,
      "type" : "VEC2"
    },
    {
      "bufferView" : 7,
      "componentType" : 5126,
      "count" : 584,
      "type" : "VEC2"
    },
    {
      "bufferView" : 8,
      "componentType" : 5123,
      "count" : 432,
      "type" : "SCALAR"
    },
    {
      "bufferView" : 9,
      "min" : [ -37.6296, 7.29561, 16.5015 ],
      "max" : [ -23.5726, 22.6441, 30.539 ],
      "componentType" : 5126,
      "count" : 180,
      "type" : "VEC3"
    },
    {
      "bufferView" : 10,
      "componentType" : 5126,
      "count" : 180,
      "type" : "VEC3"
    },
    {
      "bufferView" : 11,
      "componentType" : 5126,
      "count" : 180,
      "type" : "VEC4"
    },
    {
      "bufferView" : 12,
      "componentType" : 5126,
      "count" : 180,
      "type" : "VEC2"
    },
    {
      "bufferView" : 13,
      "componentType" : 5126,
      "count" : 180,
      "type" : "VEC2"
    },
    {
      "bufferView" : 14,
      "componentType" : 5126,
      "count" : 180,
      "type" : "VEC2"
    },
    {
      "bufferView" : 15,
      "componentType" : 5126,
      "count" : 180,
      "type" : "VEC2"
    }
  ]
}
