{
  "asset" : {
    "generator" : "UE Viewer (umodel) build 1544 based",
    "version" : "2.0"
  },
  "scene" : 0,
  "scenes" : [
    {
      "nodes" : [ 0 ]
    }
  ],
  "nodes" : [
    {
      "name" : "SM_ENV_KNVLLG03_AreaD_Hokage_Stairs",
      "mesh" : 0
    }
  ],
  "materials" : [
    {
      "name" : "MI_ENV_LKNVLD_RoughTiles",
      "pbrMetallicRoughness" : {
        "baseColorFactor" : [ 0.3, 0.3, 0.3, 1.0 ],
        "metallicFactor" : 0.1,
        "roughnessFactor" : 0.5
      }
    },
    {
      "name" : "MI_T_ENV_LKNVLD_StoneTrim",
      "pbrMetallicRoughness" : {
        "baseColorFactor" : [ 0.9, 0.3, 0.3, 1.0 ],
        "metallicFactor" : 0.1,
        "roughnessFactor" : 0.5
      }
    },
    {
      "name" : "MI_T_ENV_LKNVLD_StoneStairs",
      "pbrMetallicRoughness" : {
        "baseColorFactor" : [ 0.3, 0.9, 0.3, 1.0 ],
        "metallicFactor" : 0.1,
        "roughnessFactor" : 0.5
      }
    },
    {
      "name" : "MI_ENV_LKNVLD_Signboard_A",
      "pbrMetallicRoughness" : {
        "baseColorFactor" : [ 0.3, 0.3, 0.9, 1.0 ],
        "metallicFactor" : 0.1,
        "roughnessFactor" : 0.5
      }
    },
    {
      "name" : "MI_ENV_LKNVLD_WoodWallSet",
      "pbrMetallicRoughness" : {
        "baseColorFactor" : [ 0.9, 0.9, 0.9, 1.0 ],
        "metallicFactor" : 0.1,
        "roughnessFactor" : 0.5
      }
    },
    {
      "name" : "MI_ENV_LKNVLD03_WoodPlain_Red",
      "pbrMetallicRoughness" : {
        "baseColorFactor" : [ 0.9, 0.9, 0.3, 1.0 ],
        "metallicFactor" : 0.1,
        "roughnessFactor" : 0.5
      }
    }
  ],
  "meshes" : [
    {
      "primitives" : [
        {
          "attributes" : {
            "POSITION" : 1,
            "NORMAL" : 2,
            "TANGENT" : 3,
            "TEXCOORD_0" : 4,
            "TEXCOORD_1" : 5,
            "TEXCOORD_2" : 6,
            "TEXCOORD_3" : 7
          },
          "indices" : 0,
          "material" : 0
        },
        {
          "attributes" : {
            "POSITION" : 9,
            "NORMAL" : 10,
            "TANGENT" : 11,
            "TEXCOORD_0" : 12,
            "TEXCOORD_1" : 13,
            "TEXCOORD_2" : 14,
            "TEXCOORD_3" : 15
          },
          "indices" : 8,
          "material" : 1
        },
        {
          "attributes" : {
            "POSITION" : 17,
            "NORMAL" : 18,
            "TANGENT" : 19,
            "TEXCOORD_0" : 20,
            "TEXCOORD_1" : 21,
            "TEXCOORD_2" : 22,
            "TEXCOORD_3" : 23
          },
          "indices" : 16,
          "material" : 2
        },
        {
          "attributes" : {
            "POSITION" : 25,
            "NORMAL" : 26,
            "TANGENT" : 27,
            "TEXCOORD_0" : 28,
            "TEXCOORD_1" : 29,
            "TEXCOORD_2" : 30,
            "TEXCOORD_3" : 31
          },
          "indices" : 24,
          "material" : 3
        },
        {
          "attributes" : {
            "POSITION" : 33,
            "NORMAL" : 34,
            "TANGENT" : 35,
            "TEXCOORD_0" : 36,
            "TEXCOORD_1" : 37,
            "TEXCOORD_2" : 38,
            "TEXCOORD_3" : 39
          },
          "indices" : 32,
          "material" : 4
        },
        {
          "attributes" : {
            "POSITION" : 41,
            "NORMAL" : 42,
            "TANGENT" : 43,
            "TEXCOORD_0" : 44,
            "TEXCOORD_1" : 45,
            "TEXCOORD_2" : 46,
            "TEXCOORD_3" : 47
          },
          "indices" : 40,
          "material" : 5
        }
      ],
      "name" : "SM_ENV_KNVLLG03_AreaD_Hokage_Stairs"
    }
  ],
  "buffers" : [
    {
      "uri" : "SM_ENV_KNVLLG03_AreaD_Hokage_Stairs.bin",
      "byteLength" : 847404
    }
  ],
  "bufferViews" : [
    {
      "buffer" : 0,
      "byteOffset" : 0,
      "byteLength" : 3744
    },
    {
      "buffer" : 0,
      "byteOffset" : 3744,
      "byteLength" : 6264
    },
    {
      "buffer" : 0,
      "byteOffset" : 10008,
      "byteLength" : 6264
    },
    {
      "buffer" : 0,
      "byteOffset" : 16272,
      "byteLength" : 8352
    },
    {
      "buffer" : 0,
      "byteOffset" : 24624,
      "byteLength" : 4176
    },
    {
      "buffer" : 0,
      "byteOffset" : 28800,
      "byteLength" : 4176
    },
    {
      "buffer" : 0,
      "byteOffset" : 32976,
      "byteLength" : 4176
    },
    {
      "buffer" : 0,
      "byteOffset" : 37152,
      "byteLength" : 4176
    },
    {
      "buffer" : 0,
      "byteOffset" : 41328,
      "byteLength" : 3372
    },
    {
      "buffer" : 0,
      "byteOffset" : 44700,
      "byteLength" : 4944
    },
    {
      "buffer" : 0,
      "byteOffset" : 49644,
      "byteLength" : 4944
    },
    {
      "buffer" : 0,
      "byteOffset" : 54588,
      "byteLength" : 6592
    },
    {
      "buffer" : 0,
      "byteOffset" : 61180,
      "byteLength" : 3296
    },
    {
      "buffer" : 0,
      "byteOffset" : 64476,
      "byteLength" : 3296
    },
    {
      "buffer" : 0,
      "byteOffset" : 67772,
      "byteLength" : 3296
    },
    {
      "buffer" : 0,
      "byteOffset" : 71068,
      "byteLength" : 3296
    },
    {
      "buffer" : 0,
      "byteOffset" : 74364,
      "byteLength" : 3816
    },
    {
      "buffer" : 0,
      "byteOffset" : 78180,
      "byteLength" : 7668
    },
    {
      "buffer" : 0,
      "byteOffset" : 85848,
      "byteLength" : 7668
    },
    {
      "buffer" : 0,
      "byteOffset" : 93516,
      "byteLength" : 10224
    },
    {
      "buffer" : 0,
      "byteOffset" : 103740,
      "byteLength" : 5112
    },
    {
      "buffer" : 0,
      "byteOffset" : 108852,
      "byteLength" : 5112
    },
    {
      "buffer" : 0,
      "byteOffset" : 113964,
      "byteLength" : 5112
    },
    {
      "buffer" : 0,
      "byteOffset" : 119076,
      "byteLength" : 5112
    },
    {
      "buffer" : 0,
      "byteOffset" : 124188,
      "byteLength" : 45840
    },
    {
      "buffer" : 0,
      "byteOffset" : 170028,
      "byteLength" : 69744
    },
    {
      "buffer" : 0,
      "byteOffset" : 239772,
      "byteLength" : 69744
    },
    {
      "buffer" : 0,
      "byteOffset" : 309516,
      "byteLength" : 92992
    },
    {
      "buffer" : 0,
      "byteOffset" : 402508,
      "byteLength" : 46496
    },
    {
      "buffer" : 0,
      "byteOffset" : 449004,
      "byteLength" : 46496
    },
    {
      "buffer" : 0,
      "byteOffset" : 495500,
      "byteLength" : 46496
    },
    {
      "buffer" : 0,
      "byteOffset" : 541996,
      "byteLength" : 46496
    },
    {
      "buffer" : 0,
      "byteOffset" : 588492,
      "byteLength" : 8448
    },
    {
      "buffer" : 0,
      "byteOffset" : 596940,
      "byteLength" : 13464
    },
    {
      "buffer" : 0,
      "byteOffset" : 610404,
      "byteLength" : 13464
    },
    {
      "buffer" : 0,
      "byteOffset" : 623868,
      "byteLength" : 17952
    },
    {
      "buffer" : 0,
      "byteOffset" : 641820,
      "byteLength" : 8976
    },
    {
      "buffer" : 0,
      "byteOffset" : 650796,
      "byteLength" : 8976
    },
    {
      "buffer" : 0,
      "byteOffset" : 659772,
      "byteLength" : 8976
    },
    {
      "buffer" : 0,
      "byteOffset" : 668748,
      "byteLength" : 8976
    },
    {
      "buffer" : 0,
      "byteOffset" : 677724,
      "byteLength" : 12000
    },
    {
      "buffer" : 0,
      "byteOffset" : 689724,
      "byteLength" : 26280
    },
    {
      "buffer" : 0,
      "byteOffset" : 716004,
      "byteLength" : 26280
    },
    {
      "buffer" : 0,
      "byteOffset" : 742284,
      "byteLength" : 35040
    },
    {
      "buffer" : 0,
      "byteOffset" : 777324,
      "byteLength" : 17520
    },
    {
      "buffer" : 0,
      "byteOffset" : 794844,
      "byteLength" : 17520
    },
    {
      "buffer" : 0,
      "byteOffset" : 812364,
      "byteLength" : 17520
    },
    {
      "buffer" : 0,
      "byteOffset" : 829884,
      "byteLength" : 17520
    }
  ],
  "accessors" : [
    {
      "bufferView" : 0,
      "componentType" : 5123,
      "count" : 1872,
      "type" : "SCALAR"
    },
    {
      "bufferView" : 1,
      "min" : [ -4.38337, 11.994, -95.7212 ],
      "max" : [ 4.40337, 18.3377, -83.4371 ],
      "componentType" : 5126,
      "count" : 522,
      "type" : "VEC3"
    },
    {
      "bufferView" : 2,
      "componentType" : 5126,
      "count" : 522,
      "type" : "VEC3"
    },
    {
      "bufferView" : 3,
      "componentType" : 5126,
      "count" : 522,
      "type" : "VEC4"
    },
    {
      "bufferView" : 4,
      "componentType" : 5126,
      "count" : 522,
      "type" : "VEC2"
    },
    {
      "bufferView" : 5,
      "componentType" : 5126,
      "count" : 522,
      "type" : "VEC2"
    },
    {
      "bufferView" : 6,
      "componentType" : 5126,
      "count" : 522,
      "type" : "VEC2"
    },
    {
      "bufferView" : 7,
      "componentType" : 5126,
      "count" : 522,
      "type" : "VEC2"
    },
    {
      "bufferView" : 8,
      "componentType" : 5123,
      "count" : 1686,
      "type" : "SCALAR"
    },
    {
      "bufferView" : 9,
      "min" : [ -4.10263, 11.9977, -95.736 ],
      "max" : [ 4.12263, 18.5305, -83.8181 ],
      "componentType" : 5126,
      "count" : 412,
      "type" : "VEC3"
    },
    {
      "bufferView" : 10,
      "componentType" : 5126,
      "count" : 412,
      "type" : "VEC3"
    },
    {
      "bufferView" : 11,
      "componentType" : 5126,
      "count" : 412,
      "type" : "VEC4"
    },
    {
      "bufferView" : 12,
      "componentType" : 5126,
      "count" : 412,
      "type" : "VEC2"
    },
    {
      "bufferView" : 13,
      "componentType" : 5126,
      "count" : 412,
      "type" : "VEC2"
    },
    {
      "bufferView" : 14,
      "componentType" : 5126,
      "count" : 412,
      "type" : "VEC2"
    },
    {
      "bufferView" : 15,
      "componentType" : 5126,
      "count" : 412,
      "type" : "VEC2"
    },
    {
      "bufferView" : 16,
      "componentType" : 5123,
      "count" : 1908,
      "type" : "SCALAR"
    },
    {
      "bufferView" : 17,
      "min" : [ -3.96575, 11.9926, -95.7264 ],
      "max" : [ 4.08052, 18.0987, -83.88 ],
      "componentType" : 5126,
      "count" : 639,
      "type" : "VEC3"
    },
    {
      "bufferView" : 18,
      "componentType" : 5126,
      "count" : 639,
      "type" : "VEC3"
    },
    {
      "bufferView" : 19,
      "componentType" : 5126,
      "count" : 639,
      "type" : "VEC4"
    },
    {
      "bufferView" : 20,
      "componentType" : 5126,
      "count" : 639,
      "type" : "VEC2"
    },
    {
      "bufferView" : 21,
      "componentType" : 5126,
      "count" : 639,
      "type" : "VEC2"
    },
    {
      "bufferView" : 22,
      "componentType" : 5126,
      "count" : 639,
      "type" : "VEC2"
    },
    {
      "bufferView" : 23,
      "componentType" : 5126,
      "count" : 639,
      "type" : "VEC2"
    },
    {
      "bufferView" : 24,
      "componentType" : 5123,
      "count" : 22920,
      "type" : "SCALAR"
    },
    {
      "bufferView" : 25,
      "min" : [ -3.81094, 13.4009, -95.584 ],
      "max" : [ 3.83094, 19.894, -83.9318 ],
      "componentType" : 5126,
      "count" : 5812,
      "type" : "VEC3"
    },
    {
      "bufferView" : 26,
      "componentType" : 5126,
      "count" : 5812,
      "type" : "VEC3"
    },
    {
      "bufferView" : 27,
      "componentType" : 5126,
      "count" : 5812,
      "type" : "VEC4"
    },
    {
      "bufferView" : 28,
      "componentType" : 5126,
      "count" : 5812,
      "type" : "VEC2"
    },
    {
      "bufferView" : 29,
      "componentType" : 5126,
      "count" : 5812,
      "type" : "VEC2"
    },
    {
      "bufferView" : 30,
      "componentType" : 5126,
      "count" : 5812,
      "type" : "VEC2"
    },
    {
      "bufferView" : 31,
      "componentType" : 5126,
      "count" : 5812,
      "type" : "VEC2"
    },
    {
      "bufferView" : 32,
      "componentType" : 5123,
      "count" : 4224,
      "type" : "SCALAR"
    },
    {
      "bufferView" : 33,
      "min" : [ -3.84005, 12.4936, -95.6367 ],
      "max" : [ 3.86005, 18.6179, -83.8818 ],
      "componentType" : 5126,
      "count" : 1122,
      "type" : "VEC3"
    },
    {
      "bufferView" : 34,
      "componentType" : 5126,
      "count" : 1122,
      "type" : "VEC3"
    },
    {
      "bufferView" : 35,
      "componentType" : 5126,
      "count" : 1122,
      "type" : "VEC4"
    },
    {
      "bufferView" : 36,
      "componentType" : 5126,
      "count" : 1122,
      "type" : "VEC2"
    },
    {
      "bufferView" : 37,
      "componentType" : 5126,
      "count" : 1122,
      "type" : "VEC2"
    },
    {
      "bufferView" : 38,
      "componentType" : 5126,
      "count" : 1122,
      "type" : "VEC2"
    },
    {
      "bufferView" : 39,
      "componentType" : 5126,
      "count" : 1122,
      "type" : "VEC2"
    },
    {
      "bufferView" : 40,
      "componentType" : 5123,
      "count" : 6000,
      "type" : "SCALAR"
    },
    {
      "bufferView" : 41,
      "min" : [ -3.8007, 12.7267, -95.5973 ],
      "max" : [ 3.8207, 19.6778, -83.9212 ],
      "componentType" : 5126,
      "count" : 2190,
      "type" : "VEC3"
    },
    {
      "bufferView" : 42,
      "componentType" : 5126,
      "count" : 2190,
      "type" : "VEC3"
    },
    {
      "bufferView" : 43,
      "componentType" : 5126,
      "count" : 2190,
      "type" : "VEC4"
    },
    {
      "bufferView" : 44,
      "componentType" : 5126,
      "count" : 2190,
      "type" : "VEC2"
    },
    {
      "bufferView" : 45,
      "componentType" : 5126,
      "count" : 2190,
      "type" : "VEC2"
    },
    {
      "bufferView" : 46,
      "componentType" : 5126,
      "count" : 2190,
      "type" : "VEC2"
    },
    {
      "bufferView" : 47,
      "componentType" : 5126,
      "count" : 2190,
      "type" : "VEC2"
    }
  ]
}
