{
  "asset" : {
    "generator" : "UE Viewer (umodel) build 1544 based",
    "version" : "2.0"
  },
  "scene" : 0,
  "scenes" : [
    {
      "nodes" : [ 0 ]
    }
  ],
  "nodes" : [
    {
      "name" : "SM_ENV_KNVLLG03_AreaD_Hokage_GateA",
      "mesh" : 0
    }
  ],
  "materials" : [
    {
      "name" : "MI_ENV_LKNVLD_Door_D",
      "pbrMetallicRoughness" : {
        "baseColorFactor" : [ 0.3, 0.3, 0.3, 1.0 ],
        "metallicFactor" : 0.1,
        "roughnessFactor" : 0.5
      }
    },
    {
      "name" : "MI_ENV_LKNVLD_RoofTiles_Yellow",
      "pbrMetallicRoughness" : {
        "baseColorFactor" : [ 0.9, 0.3, 0.3, 1.0 ],
        "metallicFactor" : 0.1,
        "roughnessFactor" : 0.5
      }
    },
    {
      "name" : "MI_T_ENV_LKNVLD_StoneTrim",
      "pbrMetallicRoughness" : {
        "baseColorFactor" : [ 0.3, 0.9, 0.3, 1.0 ],
        "metallicFactor" : 0.1,
        "roughnessFactor" : 0.5
      }
    },
    {
      "name" : "MI_ENV_LKNVLD_WoodPlain_Red",
      "pbrMetallicRoughness" : {
        "baseColorFactor" : [ 0.3, 0.3, 0.9, 1.0 ],
        "metallicFactor" : 0.1,
        "roughnessFactor" : 0.5
      }
    },
    {
      "name" : "MI_ENV_LKNVLD_WoodBoard_Natural_Yellowed",
      "pbrMetallicRoughness" : {
        "baseColorFactor" : [ 0.9, 0.9, 0.9, 1.0 ],
        "metallicFactor" : 0.1,
        "roughnessFactor" : 0.5
      }
    },
    {
      "name" : "MI_ENV_LKNVLD_Plaster_Beige",
      "pbrMetallicRoughness" : {
        "baseColorFactor" : [ 0.9, 0.9, 0.3, 1.0 ],
        "metallicFactor" : 0.1,
        "roughnessFactor" : 0.5
      }
    },
    {
      "name" : "MI_ENV_LKNVLD03_RoofTiles_Grey",
      "pbrMetallicRoughness" : {
        "baseColorFactor" : [ 0.9, 0.3, 0.9, 1.0 ],
        "metallicFactor" : 0.1,
        "roughnessFactor" : 0.5
      }
    },
    {
      "name" : "MI_ENV_LKNVLD_WoodPlain_Brown",
      "pbrMetallicRoughness" : {
        "baseColorFactor" : [ 0.3, 0.9, 0.9, 1.0 ],
        "metallicFactor" : 0.1,
        "roughnessFactor" : 0.5
      }
    },
    {
      "name" : "MI_ENV_LKNVLD_Plaster_Dark",
      "pbrMetallicRoughness" : {
        "baseColorFactor" : [ 1, 0.3, 0.3, 1.0 ],
        "metallicFactor" : 0.1,
        "roughnessFactor" : 0.5
      }
    },
    {
      "name" : "MI_ENV_LKNVLD_MetalRoofDark",
      "pbrMetallicRoughness" : {
        "baseColorFactor" : [ 0.6, 0.3, 0.3, 1.0 ],
        "metallicFactor" : 0.1,
        "roughnessFactor" : 0.5
      }
    }
  ],
  "meshes" : [
    {
      "primitives" : [
        {
          "attributes" : {
            "POSITION" : 1,
            "NORMAL" : 2,
            "TANGENT" : 3,
            "COLOR_0" : 4,
            "TEXCOORD_0" : 5,
            "TEXCOORD_1" : 6,
            "TEXCOORD_2" : 7,
            "TEXCOORD_3" : 8
          },
          "indices" : 0,
          "material" : 0
        },
        {
          "attributes" : {
            "POSITION" : 10,
            "NORMAL" : 11,
            "TANGENT" : 12,
            "COLOR_0" : 13,
            "TEXCOORD_0" : 14,
            "TEXCOORD_1" : 15,
            "TEXCOORD_2" : 16,
            "TEXCOORD_3" : 17
          },
          "indices" : 9,
          "material" : 1
        },
        {
          "attributes" : {
            "POSITION" : 19,
            "NORMAL" : 20,
            "TANGENT" : 21,
            "COLOR_0" : 22,
            "TEXCOORD_0" : 23,
            "TEXCOORD_1" : 24,
            "TEXCOORD_2" : 25,
            "TEXCOORD_3" : 26
          },
          "indices" : 18,
          "material" : 2
        },
        {
          "attributes" : {
            "POSITION" : 28,
            "NORMAL" : 29,
            "TANGENT" : 30,
            "COLOR_0" : 31,
            "TEXCOORD_0" : 32,
            "TEXCOORD_1" : 33,
            "TEXCOORD_2" : 34,
            "TEXCOORD_3" : 35
          },
          "indices" : 27,
          "material" : 3
        },
        {
          "attributes" : {
            "POSITION" : 37,
            "NORMAL" : 38,
            "TANGENT" : 39,
            "COLOR_0" : 40,
            "TEXCOORD_0" : 41,
            "TEXCOORD_1" : 42,
            "TEXCOORD_2" : 43,
            "TEXCOORD_3" : 44
          },
          "indices" : 36,
          "material" : 4
        },
        {
          "attributes" : {
            "POSITION" : 46,
            "NORMAL" : 47,
            "TANGENT" : 48,
            "COLOR_0" : 49,
            "TEXCOORD_0" : 50,
            "TEXCOORD_1" : 51,
            "TEXCOORD_2" : 52,
            "TEXCOORD_3" : 53
          },
          "indices" : 45,
          "material" : 5
        },
        {
          "attributes" : {
            "POSITION" : 55,
            "NORMAL" : 56,
            "TANGENT" : 57,
            "COLOR_0" : 58,
            "TEXCOORD_0" : 59,
            "TEXCOORD_1" : 60,
            "TEXCOORD_2" : 61,
            "TEXCOORD_3" : 62
          },
          "indices" : 54,
          "material" : 6
        },
        {
          "attributes" : {
            "POSITION" : 64,
            "NORMAL" : 65,
            "TANGENT" : 66,
            "COLOR_0" : 67,
            "TEXCOORD_0" : 68,
            "TEXCOORD_1" : 69,
            "TEXCOORD_2" : 70,
            "TEXCOORD_3" : 71
          },
          "indices" : 63,
          "material" : 7
        },
        {
          "attributes" : {
            "POSITION" : 73,
            "NORMAL" : 74,
            "TANGENT" : 75,
            "COLOR_0" : 76,
            "TEXCOORD_0" : 77,
            "TEXCOORD_1" : 78,
            "TEXCOORD_2" : 79,
            "TEXCOORD_3" : 80
          },
          "indices" : 72,
          "material" : 8
        },
        {
          "attributes" : {
            "POSITION" : 82,
            "NORMAL" : 83,
            "TANGENT" : 84,
            "COLOR_0" : 85,
            "TEXCOORD_0" : 86,
            "TEXCOORD_1" : 87,
            "TEXCOORD_2" : 88,
            "TEXCOORD_3" : 89
          },
          "indices" : 81,
          "material" : 9
        }
      ],
      "name" : "SM_ENV_KNVLLG03_AreaD_Hokage_GateA"
    }
  ],
  "buffers" : [
    {
      "uri" : "SM_ENV_KNVLLG03_AreaD_Hokage_GateA.bin",
      "byteLength" : 1084228
    }
  ],
  "bufferViews" : [
    {
      "buffer" : 0,
      "byteOffset" : 0,
      "byteLength" : 5940
    },
    {
      "buffer" : 0,
      "byteOffset" : 5940,
      "byteLength" : 10128
    },
    {
      "buffer" : 0,
      "byteOffset" : 16068,
      "byteLength" : 10128
    },
    {
      "buffer" : 0,
      "byteOffset" : 26196,
      "byteLength" : 13504
    },
    {
      "buffer" : 0,
      "byteOffset" : 39700,
      "byteLength" : 3376
    },
    {
      "buffer" : 0,
      "byteOffset" : 43076,
      "byteLength" : 6752
    },
    {
      "buffer" : 0,
      "byteOffset" : 49828,
      "byteLength" : 6752
    },
    {
      "buffer" : 0,
      "byteOffset" : 56580,
      "byteLength" : 6752
    },
    {
      "buffer" : 0,
      "byteOffset" : 63332,
      "byteLength" : 6752
    },
    {
      "buffer" : 0,
      "byteOffset" : 70084,
      "byteLength" : 26448
    },
    {
      "buffer" : 0,
      "byteOffset" : 96532,
      "byteLength" : 36960
    },
    {
      "buffer" : 0,
      "byteOffset" : 133492,
      "byteLength" : 36960
    },
    {
      "buffer" : 0,
      "byteOffset" : 170452,
      "byteLength" : 49280
    },
    {
      "buffer" : 0,
      "byteOffset" : 219732,
      "byteLength" : 12320
    },
    {
      "buffer" : 0,
      "byteOffset" : 232052,
      "byteLength" : 24640
    },
    {
      "buffer" : 0,
      "byteOffset" : 256692,
      "byteLength" : 24640
    },
    {
      "buffer" : 0,
      "byteOffset" : 281332,
      "byteLength" : 24640
    },
    {
      "buffer" : 0,
      "byteOffset" : 305972,
      "byteLength" : 24640
    },
    {
      "buffer" : 0,
      "byteOffset" : 330612,
      "byteLength" : 3264
    },
    {
      "buffer" : 0,
      "byteOffset" : 333876,
      "byteLength" : 4320
    },
    {
      "buffer" : 0,
      "byteOffset" : 338196,
      "byteLength" : 4320
    },
    {
      "buffer" : 0,
      "byteOffset" : 342516,
      "byteLength" : 5760
    },
    {
      "buffer" : 0,
      "byteOffset" : 348276,
      "byteLength" : 1440
    },
    {
      "buffer" : 0,
      "byteOffset" : 349716,
      "byteLength" : 2880
    },
    {
      "buffer" : 0,
      "byteOffset" : 352596,
      "byteLength" : 2880
    },
    {
      "buffer" : 0,
      "byteOffset" : 355476,
      "byteLength" : 2880
    },
    {
      "buffer" : 0,
      "byteOffset" : 358356,
      "byteLength" : 2880
    },
    {
      "buffer" : 0,
      "byteOffset" : 361236,
      "byteLength" : 6912
    },
    {
      "buffer" : 0,
      "byteOffset" : 368148,
      "byteLength" : 17616
    },
    {
      "buffer" : 0,
      "byteOffset" : 385764,
      "byteLength" : 17616
    },
    {
      "buffer" : 0,
      "byteOffset" : 403380,
      "byteLength" : 23488
    },
    {
      "buffer" : 0,
      "byteOffset" : 426868,
      "byteLength" : 5872
    },
    {
      "buffer" : 0,
      "byteOffset" : 432740,
      "byteLength" : 11744
    },
    {
      "buffer" : 0,
      "byteOffset" : 444484,
      "byteLength" : 11744
    },
    {
      "buffer" : 0,
      "byteOffset" : 456228,
      "byteLength" : 11744
    },
    {
      "buffer" : 0,
      "byteOffset" : 467972,
      "byteLength" : 11744
    },
    {
      "buffer" : 0,
      "byteOffset" : 479716,
      "byteLength" : 9840
    },
    {
      "buffer" : 0,
      "byteOffset" : 489556,
      "byteLength" : 27840
    },
    {
      "buffer" : 0,
      "byteOffset" : 517396,
      "byteLength" : 27840
    },
    {
      "buffer" : 0,
      "byteOffset" : 545236,
      "byteLength" : 37120
    },
    {
      "buffer" : 0,
      "byteOffset" : 582356,
      "byteLength" : 9280
    },
    {
      "buffer" : 0,
      "byteOffset" : 591636,
      "byteLength" : 18560
    },
    {
      "buffer" : 0,
      "byteOffset" : 610196,
      "byteLength" : 18560
    },
    {
      "buffer" : 0,
      "byteOffset" : 628756,
      "byteLength" : 18560
    },
    {
      "buffer" : 0,
      "byteOffset" : 647316,
      "byteLength" : 18560
    },
    {
      "buffer" : 0,
      "byteOffset" : 665876,
      "byteLength" : 216
    },
    {
      "buffer" : 0,
      "byteOffset" : 666092,
      "byteLength" : 768
    },
    {
      "buffer" : 0,
      "byteOffset" : 666860,
      "byteLength" : 768
    },
    {
      "buffer" : 0,
      "byteOffset" : 667628,
      "byteLength" : 1024
    },
    {
      "buffer" : 0,
      "byteOffset" : 668652,
      "byteLength" : 256
    },
    {
      "buffer" : 0,
      "byteOffset" : 668908,
      "byteLength" : 512
    },
    {
      "buffer" : 0,
      "byteOffset" : 669420,
      "byteLength" : 512
    },
    {
      "buffer" : 0,
      "byteOffset" : 669932,
      "byteLength" : 512
    },
    {
      "buffer" : 0,
      "byteOffset" : 670444,
      "byteLength" : 512
    },
    {
      "buffer" : 0,
      "byteOffset" : 670956,
      "byteLength" : 6720
    },
    {
      "buffer" : 0,
      "byteOffset" : 677676,
      "byteLength" : 8808
    },
    {
      "buffer" : 0,
      "byteOffset" : 686484,
      "byteLength" : 8808
    },
    {
      "buffer" : 0,
      "byteOffset" : 695292,
      "byteLength" : 11744
    },
    {
      "buffer" : 0,
      "byteOffset" : 707036,
      "byteLength" : 2936
    },
    {
      "buffer" : 0,
      "byteOffset" : 709972,
      "byteLength" : 5872
    },
    {
      "buffer" : 0,
      "byteOffset" : 715844,
      "byteLength" : 5872
    },
    {
      "buffer" : 0,
      "byteOffset" : 721716,
      "byteLength" : 5872
    },
    {
      "buffer" : 0,
      "byteOffset" : 727588,
      "byteLength" : 5872
    },
    {
      "buffer" : 0,
      "byteOffset" : 733460,
      "byteLength" : 9840
    },
    {
      "buffer" : 0,
      "byteOffset" : 743300,
      "byteLength" : 38784
    },
    {
      "buffer" : 0,
      "byteOffset" : 782084,
      "byteLength" : 38784
    },
    {
      "buffer" : 0,
      "byteOffset" : 820868,
      "byteLength" : 51712
    },
    {
      "buffer" : 0,
      "byteOffset" : 872580,
      "byteLength" : 12928
    },
    {
      "buffer" : 0,
      "byteOffset" : 885508,
      "byteLength" : 25856
    },
    {
      "buffer" : 0,
      "byteOffset" : 911364,
      "byteLength" : 25856
    },
    {
      "buffer" : 0,
      "byteOffset" : 937220,
      "byteLength" : 25856
    },
    {
      "buffer" : 0,
      "byteOffset" : 963076,
      "byteLength" : 25856
    },
    {
      "buffer" : 0,
      "byteOffset" : 988932,
      "byteLength" : 8952
    },
    {
      "buffer" : 0,
      "byteOffset" : 997884,
      "byteLength" : 11412
    },
    {
      "buffer" : 0,
      "byteOffset" : 1009296,
      "byteLength" : 11412
    },
    {
      "buffer" : 0,
      "byteOffset" : 1020708,
      "byteLength" : 15216
    },
    {
      "buffer" : 0,
      "byteOffset" : 1035924,
      "byteLength" : 3804
    },
    {
      "buffer" : 0,
      "byteOffset" : 1039728,
      "byteLength" : 7608
    },
    {
      "buffer" : 0,
      "byteOffset" : 1047336,
      "byteLength" : 7608
    },
    {
      "buffer" : 0,
      "byteOffset" : 1054944,
      "byteLength" : 7608
    },
    {
      "buffer" : 0,
      "byteOffset" : 1062552,
      "byteLength" : 7608
    },
    {
      "buffer" : 0,
      "byteOffset" : 1070160,
      "byteLength" : 1224
    },
    {
      "buffer" : 0,
      "byteOffset" : 1071384,
      "byteLength" : 2028
    },
    {
      "buffer" : 0,
      "byteOffset" : 1073412,
      "byteLength" : 2028
    },
    {
      "buffer" : 0,
      "byteOffset" : 1075440,
      "byteLength" : 2704
    },
    {
      "buffer" : 0,
      "byteOffset" : 1078144,
      "byteLength" : 676
    },
    {
      "buffer" : 0,
      "byteOffset" : 1078820,
      "byteLength" : 1352
    },
    {
      "buffer" : 0,
      "byteOffset" : 1080172,
      "byteLength" : 1352
    },
    {
      "buffer" : 0,
      "byteOffset" : 1081524,
      "byteLength" : 1352
    },
    {
      "buffer" : 0,
      "byteOffset" : 1082876,
      "byteLength" : 1352
    }
  ],
  "accessors" : [
    {
      "bufferView" : 0,
      "componentType" : 5123,
      "count" : 2970,
      "type" : "SCALAR"
    },
    {
      "bufferView" : 1,
      "min" : [ -4.55813, 12.15, -74.1034 ],
      "max" : [ 4.54187, 17.915, -70.3614 ],
      "componentType" : 5126,
      "count" : 844,
      "type" : "VEC3"
    },
    {
      "bufferView" : 2,
      "componentType" : 5126,
      "count" : 844,
      "type" : "VEC3"
    },
    {
      "bufferView" : 3,
      "componentType" : 5126,
      "count" : 844,
      "type" : "VEC4"
    },
    {
      "bufferView" : 4,
      "normalized" : true,
      "componentType" : 5121,
      "count" : 844,
      "type" : "VEC4"
    },
    {
      "bufferView" : 5,
      "componentType" : 5126,
      "count" : 844,
      "type" : "VEC2"
    },
    {
      "bufferView" : 6,
      "componentType" : 5126,
      "count" : 844,
      "type" : "VEC2"
    },
    {
      "bufferView" : 7,
      "componentType" : 5126,
      "count" : 844,
      "type" : "VEC2"
    },
    {
      "bufferView" : 8,
      "componentType" : 5126,
      "count" : 844,
      "type" : "VEC2"
    },
    {
      "bufferView" : 9,
      "componentType" : 5123,
      "count" : 13224,
      "type" : "SCALAR"
    },
    {
      "bufferView" : 10,
      "min" : [ -8.17795, 18.0983, -76.7068 ],
      "max" : [ 8.16169, 22.1514, -68.4454 ],
      "componentType" : 5126,
      "count" : 3080,
      "type" : "VEC3"
    },
    {
      "bufferView" : 11,
      "componentType" : 5126,
      "count" : 3080,
      "type" : "VEC3"
    },
    {
      "bufferView" : 12,
      "componentType" : 5126,
      "count" : 3080,
      "type" : "VEC4"
    },
    {
      "bufferView" : 13,
      "normalized" : true,
      "componentType" : 5121,
      "count" : 3080,
      "type" : "VEC4"
    },
    {
      "bufferView" : 14,
      "componentType" : 5126,
      "count" : 3080,
      "type" : "VEC2"
    },
    {
      "bufferView" : 15,
      "componentType" : 5126,
      "count" : 3080,
      "type" : "VEC2"
    },
    {
      "bufferView" : 16,
      "componentType" : 5126,
      "count" : 3080,
      "type" : "VEC2"
    },
    {
      "bufferView" : 17,
      "componentType" : 5126,
      "count" : 3080,
      "type" : "VEC2"
    },
    {
      "bufferView" : 18,
      "componentType" : 5123,
      "count" : 1632,
      "type" : "SCALAR"
    },
    {
      "bufferView" : 19,
      "min" : [ -7.06858, 12, -75.285 ],
      "max" : [ 7.05233, 12.3379, -69.9711 ],
      "componentType" : 5126,
      "count" : 360,
      "type" : "VEC3"
    },
    {
      "bufferView" : 20,
      "componentType" : 5126,
      "count" : 360,
      "type" : "VEC3"
    },
    {
      "bufferView" : 21,
      "componentType" : 5126,
      "count" : 360,
      "type" : "VEC4"
    },
    {
      "bufferView" : 22,
      "normalized" : true,
      "componentType" : 5121,
      "count" : 360,
      "type" : "VEC4"
    },
    {
      "bufferView" : 23,
      "componentType" : 5126,
      "count" : 360,
      "type" : "VEC2"
    },
    {
      "bufferView" : 24,
      "componentType" : 5126,
      "count" : 360,
      "type" : "VEC2"
    },
    {
      "bufferView" : 25,
      "componentType" : 5126,
      "count" : 360,
      "type" : "VEC2"
    },
    {
      "bufferView" : 26,
      "componentType" : 5126,
      "count" : 360,
      "type" : "VEC2"
    },
    {
      "bufferView" : 27,
      "componentType" : 5123,
      "count" : 3456,
      "type" : "SCALAR"
    },
    {
      "bufferView" : 28,
      "min" : [ -6.87863, 12.3379, -75.0992 ],
      "max" : [ 6.86237, 18, -70.157 ],
      "componentType" : 5126,
      "count" : 1468,
      "type" : "VEC3"
    },
    {
      "bufferView" : 29,
      "componentType" : 5126,
      "count" : 1468,
      "type" : "VEC3"
    },
    {
      "bufferView" : 30,
      "componentType" : 5126,
      "count" : 1468,
      "type" : "VEC4"
    },
    {
      "bufferView" : 31,
      "normalized" : true,
      "componentType" : 5121,
      "count" : 1468,
      "type" : "VEC4"
    },
    {
      "bufferView" : 32,
      "componentType" : 5126,
      "count" : 1468,
      "type" : "VEC2"
    },
    {
      "bufferView" : 33,
      "componentType" : 5126,
      "count" : 1468,
      "type" : "VEC2"
    },
    {
      "bufferView" : 34,
      "componentType" : 5126,
      "count" : 1468,
      "type" : "VEC2"
    },
    {
      "bufferView" : 35,
      "componentType" : 5126,
      "count" : 1468,
      "type" : "VEC2"
    },
    {
      "bufferView" : 36,
      "componentType" : 5123,
      "count" : 4920,
      "type" : "SCALAR"
    },
    {
      "bufferView" : 37,
      "min" : [ -8.00813, 11.9479, -76.5455 ],
      "max" : [ 7.99187, 21.9394, -68.5987 ],
      "componentType" : 5126,
      "count" : 2320,
      "type" : "VEC3"
    },
    {
      "bufferView" : 38,
      "componentType" : 5126,
      "count" : 2320,
      "type" : "VEC3"
    },
    {
      "bufferView" : 39,
      "componentType" : 5126,
      "count" : 2320,
      "type" : "VEC4"
    },
    {
      "bufferView" : 40,
      "normalized" : true,
      "componentType" : 5121,
      "count" : 2320,
      "type" : "VEC4"
    },
    {
      "bufferView" : 41,
      "componentType" : 5126,
      "count" : 2320,
      "type" : "VEC2"
    },
    {
      "bufferView" : 42,
      "componentType" : 5126,
      "count" : 2320,
      "type" : "VEC2"
    },
    {
      "bufferView" : 43,
      "componentType" : 5126,
      "count" : 2320,
      "type" : "VEC2"
    },
    {
      "bufferView" : 44,
      "componentType" : 5126,
      "count" : 2320,
      "type" : "VEC2"
    },
    {
      "bufferView" : 45,
      "componentType" : 5123,
      "count" : 108,
      "type" : "SCALAR"
    },
    {
      "bufferView" : 46,
      "min" : [ -6.00813, 12.15, -74.6701 ],
      "max" : [ 5.99188, 21.9347, -70.5084 ],
      "componentType" : 5126,
      "count" : 64,
      "type" : "VEC3"
    },
    {
      "bufferView" : 47,
      "componentType" : 5126,
      "count" : 64,
      "type" : "VEC3"
    },
    {
      "bufferView" : 48,
      "componentType" : 5126,
      "count" : 64,
      "type" : "VEC4"
    },
    {
      "bufferView" : 49,
      "normalized" : true,
      "componentType" : 5121,
      "count" : 64,
      "type" : "VEC4"
    },
    {
      "bufferView" : 50,
      "componentType" : 5126,
      "count" : 64,
      "type" : "VEC2"
    },
    {
      "bufferView" : 51,
      "componentType" : 5126,
      "count" : 64,
      "type" : "VEC2"
    },
    {
      "bufferView" : 52,
      "componentType" : 5126,
      "count" : 64,
      "type" : "VEC2"
    },
    {
      "bufferView" : 53,
      "componentType" : 5126,
      "count" : 64,
      "type" : "VEC2"
    },
    {
      "bufferView" : 54,
      "componentType" : 5123,
      "count" : 3360,
      "type" : "SCALAR"
    },
    {
      "bufferView" : 55,
      "min" : [ -8.16462, 18.3021, -76.7538 ],
      "max" : [ 8.14837, 22.2122, -68.3815 ],
      "componentType" : 5126,
      "count" : 734,
      "type" : "VEC3"
    },
    {
      "bufferView" : 56,
      "componentType" : 5126,
      "count" : 734,
      "type" : "VEC3"
    },
    {
      "bufferView" : 57,
      "componentType" : 5126,
      "count" : 734,
      "type" : "VEC4"
    },
    {
      "bufferView" : 58,
      "normalized" : true,
      "componentType" : 5121,
      "count" : 734,
      "type" : "VEC4"
    },
    {
      "bufferView" : 59,
      "componentType" : 5126,
      "count" : 734,
      "type" : "VEC2"
    },
    {
      "bufferView" : 60,
      "componentType" : 5126,
      "count" : 734,
      "type" : "VEC2"
    },
    {
      "bufferView" : 61,
      "componentType" : 5126,
      "count" : 734,
      "type" : "VEC2"
    },
    {
      "bufferView" : 62,
      "componentType" : 5126,
      "count" : 734,
      "type" : "VEC2"
    },
    {
      "bufferView" : 63,
      "componentType" : 5123,
      "count" : 4920,
      "type" : "SCALAR"
    },
    {
      "bufferView" : 64,
      "min" : [ -7.98179, 17.897, -76.4562 ],
      "max" : [ 7.94482, 19.9811, -68.6334 ],
      "componentType" : 5126,
      "count" : 3232,
      "type" : "VEC3"
    },
    {
      "bufferView" : 65,
      "componentType" : 5126,
      "count" : 3232,
      "type" : "VEC3"
    },
    {
      "bufferView" : 66,
      "componentType" : 5126,
      "count" : 3232,
      "type" : "VEC4"
    },
    {
      "bufferView" : 67,
      "normalized" : true,
      "componentType" : 5121,
      "count" : 3232,
      "type" : "VEC4"
    },
    {
      "bufferView" : 68,
      "componentType" : 5126,
      "count" : 3232,
      "type" : "VEC2"
    },
    {
      "bufferView" : 69,
      "componentType" : 5126,
      "count" : 3232,
      "type" : "VEC2"
    },
    {
      "bufferView" : 70,
      "componentType" : 5126,
      "count" : 3232,
      "type" : "VEC2"
    },
    {
      "bufferView" : 71,
      "componentType" : 5126,
      "count" : 3232,
      "type" : "VEC2"
    },
    {
      "bufferView" : 72,
      "componentType" : 5123,
      "count" : 4476,
      "type" : "SCALAR"
    },
    {
      "bufferView" : 73,
      "min" : [ -7.17979, 21.6748, -72.813 ],
      "max" : [ 7.16353, 23.026, -72.2495 ],
      "componentType" : 5126,
      "count" : 951,
      "type" : "VEC3"
    },
    {
      "bufferView" : 74,
      "componentType" : 5126,
      "count" : 951,
      "type" : "VEC3"
    },
    {
      "bufferView" : 75,
      "componentType" : 5126,
      "count" : 951,
      "type" : "VEC4"
    },
    {
      "bufferView" : 76,
      "normalized" : true,
      "componentType" : 5121,
      "count" : 951,
      "type" : "VEC4"
    },
    {
      "bufferView" : 77,
      "componentType" : 5126,
      "count" : 951,
      "type" : "VEC2"
    },
    {
      "bufferView" : 78,
      "componentType" : 5126,
      "count" : 951,
      "type" : "VEC2"
    },
    {
      "bufferView" : 79,
      "componentType" : 5126,
      "count" : 951,
      "type" : "VEC2"
    },
    {
      "bufferView" : 80,
      "componentType" : 5126,
      "count" : 951,
      "type" : "VEC2"
    },
    {
      "bufferView" : 81,
      "componentType" : 5123,
      "count" : 612,
      "type" : "SCALAR"
    },
    {
      "bufferView" : 82,
      "min" : [ -5.87069, 21.8225, -72.8603 ],
      "max" : [ 5.85443, 22.7215, -72.2495 ],
      "componentType" : 5126,
      "count" : 169,
      "type" : "VEC3"
    },
    {
      "bufferView" : 83,
      "componentType" : 5126,
      "count" : 169,
      "type" : "VEC3"
    },
    {
      "bufferView" : 84,
      "componentType" : 5126,
      "count" : 169,
      "type" : "VEC4"
    },
    {
      "bufferView" : 85,
      "normalized" : true,
      "componentType" : 5121,
      "count" : 169,
      "type" : "VEC4"
    },
    {
      "bufferView" : 86,
      "componentType" : 5126,
      "count" : 169,
      "type" : "VEC2"
    },
    {
      "bufferView" : 87,
      "componentType" : 5126,
      "count" : 169,
      "type" : "VEC2"
    },
    {
      "bufferView" : 88,
      "componentType" : 5126,
      "count" : 169,
      "type" : "VEC2"
    },
    {
      "bufferView" : 89,
      "componentType" : 5126,
      "count" : 169,
      "type" : "VEC2"
    }
  ]
}
