{
  "asset" : {
    "generator" : "UE Viewer (umodel) build 1544 based",
    "version" : "2.0"
  },
  "scene" : 0,
  "scenes" : [
    {
      "nodes" : [ 0 ]
    }
  ],
  "nodes" : [
    {
      "name" : "SM_ENV_KNVLLG03_AreaF_BuildingA",
      "mesh" : 0
    }
  ],
  "materials" : [
    {
      "name" : "MI_ENV_LKNVLD_Plaster",
      "pbrMetallicRoughness" : {
        "baseColorFactor" : [ 0.3, 0.3, 0.3, 1.0 ],
        "metallicFactor" : 0.1,
        "roughnessFactor" : 0.5
      }
    },
    {
      "name" : "MI_ENV_LKNVLD_Plaster_Dark",
      "pbrMetallicRoughness" : {
        "baseColorFactor" : [ 0.9, 0.3, 0.3, 1.0 ],
        "metallicFactor" : 0.1,
        "roughnessFactor" : 0.5
      }
    },
    {
      "name" : "MI_ENV_LKNVLD_Windows_A",
      "pbrMetallicRoughness" : {
        "baseColorFactor" : [ 0.3, 0.9, 0.3, 1.0 ],
        "metallicFactor" : 0.1,
        "roughnessFactor" : 0.5
      }
    },
    {
      "name" : "MI_ENV_LKNVLD_WoodWallSet",
      "pbrMetallicRoughness" : {
        "baseColorFactor" : [ 0.3, 0.3, 0.9, 1.0 ],
        "metallicFactor" : 0.1,
        "roughnessFactor" : 0.5
      }
    },
    {
      "name" : "MI_ENV_LKNVLD_MetalRoofDark",
      "pbrMetallicRoughness" : {
        "baseColorFactor" : [ 0.9, 0.9, 0.9, 1.0 ],
        "metallicFactor" : 0.1,
        "roughnessFactor" : 0.5
      }
    },
    {
      "name" : "MI_T_ENV_LKNVLD_StoneTrim",
      "pbrMetallicRoughness" : {
        "baseColorFactor" : [ 0.9, 0.9, 0.3, 1.0 ],
        "metallicFactor" : 0.1,
        "roughnessFactor" : 0.5
      }
    },
    {
      "name" : "MI_ENV_LKNVLD_MetalRoof_Purple",
      "pbrMetallicRoughness" : {
        "baseColorFactor" : [ 0.9, 0.3, 0.9, 1.0 ],
        "metallicFactor" : 0.1,
        "roughnessFactor" : 0.5
      }
    },
    {
      "name" : "MI_ENV_LKNVLD_Eaves_A",
      "pbrMetallicRoughness" : {
        "baseColorFactor" : [ 0.3, 0.9, 0.9, 1.0 ],
        "metallicFactor" : 0.1,
        "roughnessFactor" : 0.5
      }
    },
    {
      "name" : "MI_ENV_LKNVLD_Plaster_Purple",
      "pbrMetallicRoughness" : {
        "baseColorFactor" : [ 1, 0.3, 0.3, 1.0 ],
        "metallicFactor" : 0.1,
        "roughnessFactor" : 0.5
      }
    },
    {
      "name" : "MI_ENV_LKNVLD_Signboard_A",
      "pbrMetallicRoughness" : {
        "baseColorFactor" : [ 0.6, 0.3, 0.3, 1.0 ],
        "metallicFactor" : 0.1,
        "roughnessFactor" : 0.5
      }
    },
    {
      "name" : "MI_ENV_LKNVLD_WoodBoard_Natural",
      "pbrMetallicRoughness" : {
        "baseColorFactor" : [ 1, 0.9, 0.3, 1.0 ],
        "metallicFactor" : 0.1,
        "roughnessFactor" : 0.5
      }
    },
    {
      "name" : "MI_ENV_LKNVLD_WoodPlain_Red",
      "pbrMetallicRoughness" : {
        "baseColorFactor" : [ 1, 0.3, 0.9, 1.0 ],
        "metallicFactor" : 0.1,
        "roughnessFactor" : 0.5
      }
    },
    {
      "name" : "MI_ENV_LKNVLD_Eaves_B",
      "pbrMetallicRoughness" : {
        "baseColorFactor" : [ 0.6, 0.9, 0.9, 1.0 ],
        "metallicFactor" : 0.1,
        "roughnessFactor" : 0.5
      }
    },
    {
      "name" : "MI_ENV_LKNVLD_Door_A",
      "pbrMetallicRoughness" : {
        "baseColorFactor" : [ 0.6, 0.9, 0.3, 1.0 ],
        "metallicFactor" : 0.1,
        "roughnessFactor" : 0.5
      }
    },
    {
      "name" : "MI_ENV_LKNVLD_Lantern_A",
      "pbrMetallicRoughness" : {
        "baseColorFactor" : [ 0.6, 0.3, 0.9, 1.0 ],
        "metallicFactor" : 0.1,
        "roughnessFactor" : 0.5
      }
    },
    {
      "name" : "MI_ENV_LKNVLD_Pipe_B",
      "pbrMetallicRoughness" : {
        "baseColorFactor" : [ 1, 0.9, 0.9, 1.0 ],
        "metallicFactor" : 0.1,
        "roughnessFactor" : 0.5
      }
    }
  ],
  "meshes" : [
    {
      "primitives" : [
        {
          "attributes" : {
            "POSITION" : 1,
            "NORMAL" : 2,
            "TANGENT" : 3,
            "COLOR_0" : 4,
            "TEXCOORD_0" : 5,
            "TEXCOORD_1" : 6,
            "TEXCOORD_2" : 7,
            "TEXCOORD_3" : 8
          },
          "indices" : 0,
          "material" : 0
        },
        {
          "attributes" : {
            "POSITION" : 10,
            "NORMAL" : 11,
            "TANGENT" : 12,
            "COLOR_0" : 13,
            "TEXCOORD_0" : 14,
            "TEXCOORD_1" : 15,
            "TEXCOORD_2" : 16,
            "TEXCOORD_3" : 17
          },
          "indices" : 9,
          "material" : 1
        },
        {
          "attributes" : {
            "POSITION" : 19,
            "NORMAL" : 20,
            "TANGENT" : 21,
            "COLOR_0" : 22,
            "TEXCOORD_0" : 23,
            "TEXCOORD_1" : 24,
            "TEXCOORD_2" : 25,
            "TEXCOORD_3" : 26
          },
          "indices" : 18,
          "material" : 2
        },
        {
          "attributes" : {
            "POSITION" : 28,
            "NORMAL" : 29,
            "TANGENT" : 30,
            "COLOR_0" : 31,
            "TEXCOORD_0" : 32,
            "TEXCOORD_1" : 33,
            "TEXCOORD_2" : 34,
            "TEXCOORD_3" : 35
          },
          "indices" : 27,
          "material" : 3
        },
        {
          "attributes" : {
            "POSITION" : 37,
            "NORMAL" : 38,
            "TANGENT" : 39,
            "COLOR_0" : 40,
            "TEXCOORD_0" : 41,
            "TEXCOORD_1" : 42,
            "TEXCOORD_2" : 43,
            "TEXCOORD_3" : 44
          },
          "indices" : 36,
          "material" : 4
        },
        {
          "attributes" : {
            "POSITION" : 46,
            "NORMAL" : 47,
            "TANGENT" : 48,
            "COLOR_0" : 49,
            "TEXCOORD_0" : 50,
            "TEXCOORD_1" : 51,
            "TEXCOORD_2" : 52,
            "TEXCOORD_3" : 53
          },
          "indices" : 45,
          "material" : 5
        },
        {
          "attributes" : {
            "POSITION" : 55,
            "NORMAL" : 56,
            "TANGENT" : 57,
            "COLOR_0" : 58,
            "TEXCOORD_0" : 59,
            "TEXCOORD_1" : 60,
            "TEXCOORD_2" : 61,
            "TEXCOORD_3" : 62
          },
          "indices" : 54,
          "material" : 6
        },
        {
          "attributes" : {
            "POSITION" : 64,
            "NORMAL" : 65,
            "TANGENT" : 66,
            "COLOR_0" : 67,
            "TEXCOORD_0" : 68,
            "TEXCOORD_1" : 69,
            "TEXCOORD_2" : 70,
            "TEXCOORD_3" : 71
          },
          "indices" : 63,
          "material" : 7
        },
        {
          "attributes" : {
            "POSITION" : 73,
            "NORMAL" : 74,
            "TANGENT" : 75,
            "COLOR_0" : 76,
            "TEXCOORD_0" : 77,
            "TEXCOORD_1" : 78,
            "TEXCOORD_2" : 79,
            "TEXCOORD_3" : 80
          },
          "indices" : 72,
          "material" : 8
        },
        {
          "attributes" : {
            "POSITION" : 82,
            "NORMAL" : 83,
            "TANGENT" : 84,
            "COLOR_0" : 85,
            "TEXCOORD_0" : 86,
            "TEXCOORD_1" : 87,
            "TEXCOORD_2" : 88,
            "TEXCOORD_3" : 89
          },
          "indices" : 81,
          "material" : 9
        },
        {
          "attributes" : {
            "POSITION" : 91,
            "NORMAL" : 92,
            "TANGENT" : 93,
            "COLOR_0" : 94,
            "TEXCOORD_0" : 95,
            "TEXCOORD_1" : 96,
            "TEXCOORD_2" : 97,
            "TEXCOORD_3" : 98
          },
          "indices" : 90,
          "material" : 10
        },
        {
          "attributes" : {
            "POSITION" : 100,
            "NORMAL" : 101,
            "TANGENT" : 102,
            "COLOR_0" : 103,
            "TEXCOORD_0" : 104,
            "TEXCOORD_1" : 105,
            "TEXCOORD_2" : 106,
            "TEXCOORD_3" : 107
          },
          "indices" : 99,
          "material" : 11
        },
        {
          "attributes" : {
            "POSITION" : 109,
            "NORMAL" : 110,
            "TANGENT" : 111,
            "COLOR_0" : 112,
            "TEXCOORD_0" : 113,
            "TEXCOORD_1" : 114,
            "TEXCOORD_2" : 115,
            "TEXCOORD_3" : 116
          },
          "indices" : 108,
          "material" : 12
        },
        {
          "attributes" : {
            "POSITION" : 118,
            "NORMAL" : 119,
            "TANGENT" : 120,
            "COLOR_0" : 121,
            "TEXCOORD_0" : 122,
            "TEXCOORD_1" : 123,
            "TEXCOORD_2" : 124,
            "TEXCOORD_3" : 125
          },
          "indices" : 117,
          "material" : 13
        },
        {
          "attributes" : {
            "POSITION" : 127,
            "NORMAL" : 128,
            "TANGENT" : 129,
            "COLOR_0" : 130,
            "TEXCOORD_0" : 131,
            "TEXCOORD_1" : 132,
            "TEXCOORD_2" : 133,
            "TEXCOORD_3" : 134
          },
          "indices" : 126,
          "material" : 14
        },
        {
          "attributes" : {
            "POSITION" : 136,
            "NORMAL" : 137,
            "TANGENT" : 138,
            "COLOR_0" : 139,
            "TEXCOORD_0" : 140,
            "TEXCOORD_1" : 141,
            "TEXCOORD_2" : 142,
            "TEXCOORD_3" : 143
          },
          "indices" : 135,
          "material" : 15
        }
      ],
      "name" : "SM_ENV_KNVLLG03_AreaF_BuildingA"
    }
  ],
  "buffers" : [
    {
      "uri" : "SM_ENV_KNVLLG03_AreaF_BuildingA.bin",
      "byteLength" : 1181772
    }
  ],
  "bufferViews" : [
    {
      "buffer" : 0,
      "byteOffset" : 0,
      "byteLength" : 696
    },
    {
      "buffer" : 0,
      "byteOffset" : 696,
      "byteLength" : 1896
    },
    {
      "buffer" : 0,
      "byteOffset" : 2592,
      "byteLength" : 1896
    },
    {
      "buffer" : 0,
      "byteOffset" : 4488,
      "byteLength" : 2528
    },
    {
      "buffer" : 0,
      "byteOffset" : 7016,
      "byteLength" : 632
    },
    {
      "buffer" : 0,
      "byteOffset" : 7648,
      "byteLength" : 1264
    },
    {
      "buffer" : 0,
      "byteOffset" : 8912,
      "byteLength" : 1264
    },
    {
      "buffer" : 0,
      "byteOffset" : 10176,
      "byteLength" : 1264
    },
    {
      "buffer" : 0,
      "byteOffset" : 11440,
      "byteLength" : 1264
    },
    {
      "buffer" : 0,
      "byteOffset" : 12704,
      "byteLength" : 5352
    },
    {
      "buffer" : 0,
      "byteOffset" : 18056,
      "byteLength" : 19656
    },
    {
      "buffer" : 0,
      "byteOffset" : 37712,
      "byteLength" : 19656
    },
    {
      "buffer" : 0,
      "byteOffset" : 57368,
      "byteLength" : 26208
    },
    {
      "buffer" : 0,
      "byteOffset" : 83576,
      "byteLength" : 6552
    },
    {
      "buffer" : 0,
      "byteOffset" : 90128,
      "byteLength" : 13104
    },
    {
      "buffer" : 0,
      "byteOffset" : 103232,
      "byteLength" : 13104
    },
    {
      "buffer" : 0,
      "byteOffset" : 116336,
      "byteLength" : 13104
    },
    {
      "buffer" : 0,
      "byteOffset" : 129440,
      "byteLength" : 13104
    },
    {
      "buffer" : 0,
      "byteOffset" : 142544,
      "byteLength" : 660
    },
    {
      "buffer" : 0,
      "byteOffset" : 143204,
      "byteLength" : 2136
    },
    {
      "buffer" : 0,
      "byteOffset" : 145340,
      "byteLength" : 2136
    },
    {
      "buffer" : 0,
      "byteOffset" : 147476,
      "byteLength" : 2848
    },
    {
      "buffer" : 0,
      "byteOffset" : 150324,
      "byteLength" : 712
    },
    {
      "buffer" : 0,
      "byteOffset" : 151036,
      "byteLength" : 1424
    },
    {
      "buffer" : 0,
      "byteOffset" : 152460,
      "byteLength" : 1424
    },
    {
      "buffer" : 0,
      "byteOffset" : 153884,
      "byteLength" : 1424
    },
    {
      "buffer" : 0,
      "byteOffset" : 155308,
      "byteLength" : 1424
    },
    {
      "buffer" : 0,
      "byteOffset" : 156732,
      "byteLength" : 6084
    },
    {
      "buffer" : 0,
      "byteOffset" : 162816,
      "byteLength" : 30984
    },
    {
      "buffer" : 0,
      "byteOffset" : 193800,
      "byteLength" : 30984
    },
    {
      "buffer" : 0,
      "byteOffset" : 224784,
      "byteLength" : 41312
    },
    {
      "buffer" : 0,
      "byteOffset" : 266096,
      "byteLength" : 10328
    },
    {
      "buffer" : 0,
      "byteOffset" : 276424,
      "byteLength" : 20656
    },
    {
      "buffer" : 0,
      "byteOffset" : 297080,
      "byteLength" : 20656
    },
    {
      "buffer" : 0,
      "byteOffset" : 317736,
      "byteLength" : 20656
    },
    {
      "buffer" : 0,
      "byteOffset" : 338392,
      "byteLength" : 20656
    },
    {
      "buffer" : 0,
      "byteOffset" : 359048,
      "byteLength" : 5400
    },
    {
      "buffer" : 0,
      "byteOffset" : 364448,
      "byteLength" : 24300
    },
    {
      "buffer" : 0,
      "byteOffset" : 388748,
      "byteLength" : 24300
    },
    {
      "buffer" : 0,
      "byteOffset" : 413048,
      "byteLength" : 32400
    },
    {
      "buffer" : 0,
      "byteOffset" : 445448,
      "byteLength" : 8100
    },
    {
      "buffer" : 0,
      "byteOffset" : 453548,
      "byteLength" : 16200
    },
    {
      "buffer" : 0,
      "byteOffset" : 469748,
      "byteLength" : 16200
    },
    {
      "buffer" : 0,
      "byteOffset" : 485948,
      "byteLength" : 16200
    },
    {
      "buffer" : 0,
      "byteOffset" : 502148,
      "byteLength" : 16200
    },
    {
      "buffer" : 0,
      "byteOffset" : 518348,
      "byteLength" : 656
    },
    {
      "buffer" : 0,
      "byteOffset" : 519004,
      "byteLength" : 2916
    },
    {
      "buffer" : 0,
      "byteOffset" : 521920,
      "byteLength" : 2916
    },
    {
      "buffer" : 0,
      "byteOffset" : 524836,
      "byteLength" : 3888
    },
    {
      "buffer" : 0,
      "byteOffset" : 528724,
      "byteLength" : 972
    },
    {
      "buffer" : 0,
      "byteOffset" : 529696,
      "byteLength" : 1944
    },
    {
      "buffer" : 0,
      "byteOffset" : 531640,
      "byteLength" : 1944
    },
    {
      "buffer" : 0,
      "byteOffset" : 533584,
      "byteLength" : 1944
    },
    {
      "buffer" : 0,
      "byteOffset" : 535528,
      "byteLength" : 1944
    },
    {
      "buffer" : 0,
      "byteOffset" : 537472,
      "byteLength" : 1728
    },
    {
      "buffer" : 0,
      "byteOffset" : 539200,
      "byteLength" : 3840
    },
    {
      "buffer" : 0,
      "byteOffset" : 543040,
      "byteLength" : 3840
    },
    {
      "buffer" : 0,
      "byteOffset" : 546880,
      "byteLength" : 5120
    },
    {
      "buffer" : 0,
      "byteOffset" : 552000,
      "byteLength" : 1280
    },
    {
      "buffer" : 0,
      "byteOffset" : 553280,
      "byteLength" : 2560
    },
    {
      "buffer" : 0,
      "byteOffset" : 555840,
      "byteLength" : 2560
    },
    {
      "buffer" : 0,
      "byteOffset" : 558400,
      "byteLength" : 2560
    },
    {
      "buffer" : 0,
      "byteOffset" : 560960,
      "byteLength" : 2560
    },
    {
      "buffer" : 0,
      "byteOffset" : 563520,
      "byteLength" : 1908
    },
    {
      "buffer" : 0,
      "byteOffset" : 565428,
      "byteLength" : 11376
    },
    {
      "buffer" : 0,
      "byteOffset" : 576804,
      "byteLength" : 11376
    },
    {
      "buffer" : 0,
      "byteOffset" : 588180,
      "byteLength" : 15168
    },
    {
      "buffer" : 0,
      "byteOffset" : 603348,
      "byteLength" : 3792
    },
    {
      "buffer" : 0,
      "byteOffset" : 607140,
      "byteLength" : 7584
    },
    {
      "buffer" : 0,
      "byteOffset" : 614724,
      "byteLength" : 7584
    },
    {
      "buffer" : 0,
      "byteOffset" : 622308,
      "byteLength" : 7584
    },
    {
      "buffer" : 0,
      "byteOffset" : 629892,
      "byteLength" : 7584
    },
    {
      "buffer" : 0,
      "byteOffset" : 637476,
      "byteLength" : 4836
    },
    {
      "buffer" : 0,
      "byteOffset" : 642312,
      "byteLength" : 19440
    },
    {
      "buffer" : 0,
      "byteOffset" : 661752,
      "byteLength" : 19440
    },
    {
      "buffer" : 0,
      "byteOffset" : 681192,
      "byteLength" : 25920
    },
    {
      "buffer" : 0,
      "byteOffset" : 707112,
      "byteLength" : 6480
    },
    {
      "buffer" : 0,
      "byteOffset" : 713592,
      "byteLength" : 12960
    },
    {
      "buffer" : 0,
      "byteOffset" : 726552,
      "byteLength" : 12960
    },
    {
      "buffer" : 0,
      "byteOffset" : 739512,
      "byteLength" : 12960
    },
    {
      "buffer" : 0,
      "byteOffset" : 752472,
      "byteLength" : 12960
    },
    {
      "buffer" : 0,
      "byteOffset" : 765432,
      "byteLength" : 3276
    },
    {
      "buffer" : 0,
      "byteOffset" : 768708,
      "byteLength" : 14712
    },
    {
      "buffer" : 0,
      "byteOffset" : 783420,
      "byteLength" : 14712
    },
    {
      "buffer" : 0,
      "byteOffset" : 798132,
      "byteLength" : 19616
    },
    {
      "buffer" : 0,
      "byteOffset" : 817748,
      "byteLength" : 4904
    },
    {
      "buffer" : 0,
      "byteOffset" : 822652,
      "byteLength" : 9808
    },
    {
      "buffer" : 0,
      "byteOffset" : 832460,
      "byteLength" : 9808
    },
    {
      "buffer" : 0,
      "byteOffset" : 842268,
      "byteLength" : 9808
    },
    {
      "buffer" : 0,
      "byteOffset" : 852076,
      "byteLength" : 9808
    },
    {
      "buffer" : 0,
      "byteOffset" : 861884,
      "byteLength" : 288
    },
    {
      "buffer" : 0,
      "byteOffset" : 862172,
      "byteLength" : 984
    },
    {
      "buffer" : 0,
      "byteOffset" : 863156,
      "byteLength" : 984
    },
    {
      "buffer" : 0,
      "byteOffset" : 864140,
      "byteLength" : 1312
    },
    {
      "buffer" : 0,
      "byteOffset" : 865452,
      "byteLength" : 328
    },
    {
      "buffer" : 0,
      "byteOffset" : 865780,
      "byteLength" : 656
    },
    {
      "buffer" : 0,
      "byteOffset" : 866436,
      "byteLength" : 656
    },
    {
      "buffer" : 0,
      "byteOffset" : 867092,
      "byteLength" : 656
    },
    {
      "buffer" : 0,
      "byteOffset" : 867748,
      "byteLength" : 656
    },
    {
      "buffer" : 0,
      "byteOffset" : 868404,
      "byteLength" : 4664
    },
    {
      "buffer" : 0,
      "byteOffset" : 873068,
      "byteLength" : 20136
    },
    {
      "buffer" : 0,
      "byteOffset" : 893204,
      "byteLength" : 20136
    },
    {
      "buffer" : 0,
      "byteOffset" : 913340,
      "byteLength" : 26848
    },
    {
      "buffer" : 0,
      "byteOffset" : 940188,
      "byteLength" : 6712
    },
    {
      "buffer" : 0,
      "byteOffset" : 946900,
      "byteLength" : 13424
    },
    {
      "buffer" : 0,
      "byteOffset" : 960324,
      "byteLength" : 13424
    },
    {
      "buffer" : 0,
      "byteOffset" : 973748,
      "byteLength" : 13424
    },
    {
      "buffer" : 0,
      "byteOffset" : 987172,
      "byteLength" : 13424
    },
    {
      "buffer" : 0,
      "byteOffset" : 1000596,
      "byteLength" : 1416
    },
    {
      "buffer" : 0,
      "byteOffset" : 1002012,
      "byteLength" : 4896
    },
    {
      "buffer" : 0,
      "byteOffset" : 1006908,
      "byteLength" : 4896
    },
    {
      "buffer" : 0,
      "byteOffset" : 1011804,
      "byteLength" : 6528
    },
    {
      "buffer" : 0,
      "byteOffset" : 1018332,
      "byteLength" : 1632
    },
    {
      "buffer" : 0,
      "byteOffset" : 1019964,
      "byteLength" : 3264
    },
    {
      "buffer" : 0,
      "byteOffset" : 1023228,
      "byteLength" : 3264
    },
    {
      "buffer" : 0,
      "byteOffset" : 1026492,
      "byteLength" : 3264
    },
    {
      "buffer" : 0,
      "byteOffset" : 1029756,
      "byteLength" : 3264
    },
    {
      "buffer" : 0,
      "byteOffset" : 1033020,
      "byteLength" : 72
    },
    {
      "buffer" : 0,
      "byteOffset" : 1033092,
      "byteLength" : 312
    },
    {
      "buffer" : 0,
      "byteOffset" : 1033404,
      "byteLength" : 312
    },
    {
      "buffer" : 0,
      "byteOffset" : 1033716,
      "byteLength" : 416
    },
    {
      "buffer" : 0,
      "byteOffset" : 1034132,
      "byteLength" : 104
    },
    {
      "buffer" : 0,
      "byteOffset" : 1034236,
      "byteLength" : 208
    },
    {
      "buffer" : 0,
      "byteOffset" : 1034444,
      "byteLength" : 208
    },
    {
      "buffer" : 0,
      "byteOffset" : 1034652,
      "byteLength" : 208
    },
    {
      "buffer" : 0,
      "byteOffset" : 1034860,
      "byteLength" : 208
    },
    {
      "buffer" : 0,
      "byteOffset" : 1035068,
      "byteLength" : 7296
    },
    {
      "buffer" : 0,
      "byteOffset" : 1042364,
      "byteLength" : 17256
    },
    {
      "buffer" : 0,
      "byteOffset" : 1059620,
      "byteLength" : 17256
    },
    {
      "buffer" : 0,
      "byteOffset" : 1076876,
      "byteLength" : 23008
    },
    {
      "buffer" : 0,
      "byteOffset" : 1099884,
      "byteLength" : 5752
    },
    {
      "buffer" : 0,
      "byteOffset" : 1105636,
      "byteLength" : 11504
    },
    {
      "buffer" : 0,
      "byteOffset" : 1117140,
      "byteLength" : 11504
    },
    {
      "buffer" : 0,
      "byteOffset" : 1128644,
      "byteLength" : 11504
    },
    {
      "buffer" : 0,
      "byteOffset" : 1140148,
      "byteLength" : 11504
    },
    {
      "buffer" : 0,
      "byteOffset" : 1151652,
      "byteLength" : 2304
    },
    {
      "buffer" : 0,
      "byteOffset" : 1153956,
      "byteLength" : 4392
    },
    {
      "buffer" : 0,
      "byteOffset" : 1158348,
      "byteLength" : 4392
    },
    {
      "buffer" : 0,
      "byteOffset" : 1162740,
      "byteLength" : 5856
    },
    {
      "buffer" : 0,
      "byteOffset" : 1168596,
      "byteLength" : 1464
    },
    {
      "buffer" : 0,
      "byteOffset" : 1170060,
      "byteLength" : 2928
    },
    {
      "buffer" : 0,
      "byteOffset" : 1172988,
      "byteLength" : 2928
    },
    {
      "buffer" : 0,
      "byteOffset" : 1175916,
      "byteLength" : 2928
    },
    {
      "buffer" : 0,
      "byteOffset" : 1178844,
      "byteLength" : 2928
    }
  ],
  "accessors" : [
    {
      "bufferView" : 0,
      "componentType" : 5123,
      "count" : 348,
      "type" : "SCALAR"
    },
    {
      "bufferView" : 1,
      "min" : [ 23.462, 7.09999, 16.9803 ],
      "max" : [ 53.0191, 29.37, 46.5373 ],
      "componentType" : 5126,
      "count" : 158,
      "type" : "VEC3"
    },
    {
      "bufferView" : 2,
      "componentType" : 5126,
      "count" : 158,
      "type" : "VEC3"
    },
    {
      "bufferView" : 3,
      "componentType" : 5126,
      "count" : 158,
      "type" : "VEC4"
    },
    {
      "bufferView" : 4,
      "normalized" : true,
      "componentType" : 5121,
      "count" : 158,
      "type" : "VEC4"
    },
    {
      "bufferView" : 5,
      "componentType" : 5126,
      "count" : 158,
      "type" : "VEC2"
    },
    {
      "bufferView" : 6,
      "componentType" : 5126,
      "count" : 158,
      "type" : "VEC2"
    },
    {
      "bufferView" : 7,
      "componentType" : 5126,
      "count" : 158,
      "type" : "VEC2"
    },
    {
      "bufferView" : 8,
      "componentType" : 5126,
      "count" : 158,
      "type" : "VEC2"
    },
    {
      "bufferView" : 9,
      "componentType" : 5123,
      "count" : 2676,
      "type" : "SCALAR"
    },
    {
      "bufferView" : 10,
      "min" : [ 20.9871, 7.09999, 14.5054 ],
      "max" : [ 55.494, 29.7138, 49.0122 ],
      "componentType" : 5126,
      "count" : 1638,
      "type" : "VEC3"
    },
    {
      "bufferView" : 11,
      "componentType" : 5126,
      "count" : 1638,
      "type" : "VEC3"
    },
    {
      "bufferView" : 12,
      "componentType" : 5126,
      "count" : 1638,
      "type" : "VEC4"
    },
    {
      "bufferView" : 13,
      "normalized" : true,
      "componentType" : 5121,
      "count" : 1638,
      "type" : "VEC4"
    },
    {
      "bufferView" : 14,
      "componentType" : 5126,
      "count" : 1638,
      "type" : "VEC2"
    },
    {
      "bufferView" : 15,
      "componentType" : 5126,
      "count" : 1638,
      "type" : "VEC2"
    },
    {
      "bufferView" : 16,
      "componentType" : 5126,
      "count" : 1638,
      "type" : "VEC2"
    },
    {
      "bufferView" : 17,
      "componentType" : 5126,
      "count" : 1638,
      "type" : "VEC2"
    },
    {
      "bufferView" : 18,
      "componentType" : 5123,
      "count" : 330,
      "type" : "SCALAR"
    },
    {
      "bufferView" : 19,
      "min" : [ 24.6273, 8.13566, 18.985 ],
      "max" : [ 51.0026, 28.19, 45.3716 ],
      "componentType" : 5126,
      "count" : 178,
      "type" : "VEC3"
    },
    {
      "bufferView" : 20,
      "componentType" : 5126,
      "count" : 178,
      "type" : "VEC3"
    },
    {
      "bufferView" : 21,
      "componentType" : 5126,
      "count" : 178,
      "type" : "VEC4"
    },
    {
      "bufferView" : 22,
      "normalized" : true,
      "componentType" : 5121,
      "count" : 178,
      "type" : "VEC4"
    },
    {
      "bufferView" : 23,
      "componentType" : 5126,
      "count" : 178,
      "type" : "VEC2"
    },
    {
      "bufferView" : 24,
      "componentType" : 5126,
      "count" : 178,
      "type" : "VEC2"
    },
    {
      "bufferView" : 25,
      "componentType" : 5126,
      "count" : 178,
      "type" : "VEC2"
    },
    {
      "bufferView" : 26,
      "componentType" : 5126,
      "count" : 178,
      "type" : "VEC2"
    },
    {
      "bufferView" : 27,
      "componentType" : 5123,
      "count" : 3042,
      "type" : "SCALAR"
    },
    {
      "bufferView" : 28,
      "min" : [ 22.7005, 6.29999, 16.2214 ],
      "max" : [ 52.9427, 31.891, 46.4609 ],
      "componentType" : 5126,
      "count" : 2582,
      "type" : "VEC3"
    },
    {
      "bufferView" : 29,
      "componentType" : 5126,
      "count" : 2582,
      "type" : "VEC3"
    },
    {
      "bufferView" : 30,
      "componentType" : 5126,
      "count" : 2582,
      "type" : "VEC4"
    },
    {
      "bufferView" : 31,
      "normalized" : true,
      "componentType" : 5121,
      "count" : 2582,
      "type" : "VEC4"
    },
    {
      "bufferView" : 32,
      "componentType" : 5126,
      "count" : 2582,
      "type" : "VEC2"
    },
    {
      "bufferView" : 33,
      "componentType" : 5126,
      "count" : 2582,
      "type" : "VEC2"
    },
    {
      "bufferView" : 34,
      "componentType" : 5126,
      "count" : 2582,
      "type" : "VEC2"
    },
    {
      "bufferView" : 35,
      "componentType" : 5126,
      "count" : 2582,
      "type" : "VEC2"
    },
    {
      "bufferView" : 36,
      "componentType" : 5123,
      "count" : 2700,
      "type" : "SCALAR"
    },
    {
      "bufferView" : 37,
      "min" : [ 23.7659, 7.09999, 18.8224 ],
      "max" : [ 51.1652, 29.37, 46.2335 ],
      "componentType" : 5126,
      "count" : 2025,
      "type" : "VEC3"
    },
    {
      "bufferView" : 38,
      "componentType" : 5126,
      "count" : 2025,
      "type" : "VEC3"
    },
    {
      "bufferView" : 39,
      "componentType" : 5126,
      "count" : 2025,
      "type" : "VEC4"
    },
    {
      "bufferView" : 40,
      "normalized" : true,
      "componentType" : 5121,
      "count" : 2025,
      "type" : "VEC4"
    },
    {
      "bufferView" : 41,
      "componentType" : 5126,
      "count" : 2025,
      "type" : "VEC2"
    },
    {
      "bufferView" : 42,
      "componentType" : 5126,
      "count" : 2025,
      "type" : "VEC2"
    },
    {
      "bufferView" : 43,
      "componentType" : 5126,
      "count" : 2025,
      "type" : "VEC2"
    },
    {
      "bufferView" : 44,
      "componentType" : 5126,
      "count" : 2025,
      "type" : "VEC2"
    },
    {
      "bufferView" : 45,
      "componentType" : 5123,
      "count" : 327,
      "type" : "SCALAR"
    },
    {
      "bufferView" : 46,
      "min" : [ 21.3407, 6.29999, 14.8589 ],
      "max" : [ 55.1404, 7.1, 48.6586 ],
      "componentType" : 5126,
      "count" : 243,
      "type" : "VEC3"
    },
    {
      "bufferView" : 47,
      "componentType" : 5126,
      "count" : 243,
      "type" : "VEC3"
    },
    {
      "bufferView" : 48,
      "componentType" : 5126,
      "count" : 243,
      "type" : "VEC4"
    },
    {
      "bufferView" : 49,
      "normalized" : true,
      "componentType" : 5121,
      "count" : 243,
      "type" : "VEC4"
    },
    {
      "bufferView" : 50,
      "componentType" : 5126,
      "count" : 243,
      "type" : "VEC2"
    },
    {
      "bufferView" : 51,
      "componentType" : 5126,
      "count" : 243,
      "type" : "VEC2"
    },
    {
      "bufferView" : 52,
      "componentType" : 5126,
      "count" : 243,
      "type" : "VEC2"
    },
    {
      "bufferView" : 53,
      "componentType" : 5126,
      "count" : 243,
      "type" : "VEC2"
    },
    {
      "bufferView" : 54,
      "componentType" : 5123,
      "count" : 864,
      "type" : "SCALAR"
    },
    {
      "bufferView" : 55,
      "min" : [ 20.4727, 11.8807, 13.9909 ],
      "max" : [ 56.0084, 32.8069, 49.5267 ],
      "componentType" : 5126,
      "count" : 320,
      "type" : "VEC3"
    },
    {
      "bufferView" : 56,
      "componentType" : 5126,
      "count" : 320,
      "type" : "VEC3"
    },
    {
      "bufferView" : 57,
      "componentType" : 5126,
      "count" : 320,
      "type" : "VEC4"
    },
    {
      "bufferView" : 58,
      "normalized" : true,
      "componentType" : 5121,
      "count" : 320,
      "type" : "VEC4"
    },
    {
      "bufferView" : 59,
      "componentType" : 5126,
      "count" : 320,
      "type" : "VEC2"
    },
    {
      "bufferView" : 60,
      "componentType" : 5126,
      "count" : 320,
      "type" : "VEC2"
    },
    {
      "bufferView" : 61,
      "componentType" : 5126,
      "count" : 320,
      "type" : "VEC2"
    },
    {
      "bufferView" : 62,
      "componentType" : 5126,
      "count" : 320,
      "type" : "VEC2"
    },
    {
      "bufferView" : 63,
      "componentType" : 5123,
      "count" : 954,
      "type" : "SCALAR"
    },
    {
      "bufferView" : 64,
      "min" : [ 19.3529, 11.7713, 12.8712 ],
      "max" : [ 57.208, 33.4218, 50.7262 ],
      "componentType" : 5126,
      "count" : 948,
      "type" : "VEC3"
    },
    {
      "bufferView" : 65,
      "componentType" : 5126,
      "count" : 948,
      "type" : "VEC3"
    },
    {
      "bufferView" : 66,
      "componentType" : 5126,
      "count" : 948,
      "type" : "VEC4"
    },
    {
      "bufferView" : 67,
      "normalized" : true,
      "componentType" : 5121,
      "count" : 948,
      "type" : "VEC4"
    },
    {
      "bufferView" : 68,
      "componentType" : 5126,
      "count" : 948,
      "type" : "VEC2"
    },
    {
      "bufferView" : 69,
      "componentType" : 5126,
      "count" : 948,
      "type" : "VEC2"
    },
    {
      "bufferView" : 70,
      "componentType" : 5126,
      "count" : 948,
      "type" : "VEC2"
    },
    {
      "bufferView" : 71,
      "componentType" : 5126,
      "count" : 948,
      "type" : "VEC2"
    },
    {
      "bufferView" : 72,
      "componentType" : 5123,
      "count" : 2418,
      "type" : "SCALAR"
    },
    {
      "bufferView" : 73,
      "min" : [ 19.3529, 11.7713, 12.8712 ],
      "max" : [ 57.208, 33.4218, 50.7262 ],
      "componentType" : 5126,
      "count" : 1620,
      "type" : "VEC3"
    },
    {
      "bufferView" : 74,
      "componentType" : 5126,
      "count" : 1620,
      "type" : "VEC3"
    },
    {
      "bufferView" : 75,
      "componentType" : 5126,
      "count" : 1620,
      "type" : "VEC4"
    },
    {
      "bufferView" : 76,
      "normalized" : true,
      "componentType" : 5121,
      "count" : 1620,
      "type" : "VEC4"
    },
    {
      "bufferView" : 77,
      "componentType" : 5126,
      "count" : 1620,
      "type" : "VEC2"
    },
    {
      "bufferView" : 78,
      "componentType" : 5126,
      "count" : 1620,
      "type" : "VEC2"
    },
    {
      "bufferView" : 79,
      "componentType" : 5126,
      "count" : 1620,
      "type" : "VEC2"
    },
    {
      "bufferView" : 80,
      "componentType" : 5126,
      "count" : 1620,
      "type" : "VEC2"
    },
    {
      "bufferView" : 81,
      "componentType" : 5123,
      "count" : 1638,
      "type" : "SCALAR"
    },
    {
      "bufferView" : 82,
      "min" : [ 19.3529, 6.97174, 12.8712 ],
      "max" : [ 57.208, 32.914, 50.7262 ],
      "componentType" : 5126,
      "count" : 1226,
      "type" : "VEC3"
    },
    {
      "bufferView" : 83,
      "componentType" : 5126,
      "count" : 1226,
      "type" : "VEC3"
    },
    {
      "bufferView" : 84,
      "componentType" : 5126,
      "count" : 1226,
      "type" : "VEC4"
    },
    {
      "bufferView" : 85,
      "normalized" : true,
      "componentType" : 5121,
      "count" : 1226,
      "type" : "VEC4"
    },
    {
      "bufferView" : 86,
      "componentType" : 5126,
      "count" : 1226,
      "type" : "VEC2"
    },
    {
      "bufferView" : 87,
      "componentType" : 5126,
      "count" : 1226,
      "type" : "VEC2"
    },
    {
      "bufferView" : 88,
      "componentType" : 5126,
      "count" : 1226,
      "type" : "VEC2"
    },
    {
      "bufferView" : 89,
      "componentType" : 5126,
      "count" : 1226,
      "type" : "VEC2"
    },
    {
      "bufferView" : 90,
      "componentType" : 5123,
      "count" : 144,
      "type" : "SCALAR"
    },
    {
      "bufferView" : 91,
      "min" : [ 20.5424, 24.0162, 14.0606 ],
      "max" : [ 55.9387, 31.891, 49.457 ],
      "componentType" : 5126,
      "count" : 82,
      "type" : "VEC3"
    },
    {
      "bufferView" : 92,
      "componentType" : 5126,
      "count" : 82,
      "type" : "VEC3"
    },
    {
      "bufferView" : 93,
      "componentType" : 5126,
      "count" : 82,
      "type" : "VEC4"
    },
    {
      "bufferView" : 94,
      "normalized" : true,
      "componentType" : 5121,
      "count" : 82,
      "type" : "VEC4"
    },
    {
      "bufferView" : 95,
      "componentType" : 5126,
      "count" : 82,
      "type" : "VEC2"
    },
    {
      "bufferView" : 96,
      "componentType" : 5126,
      "count" : 82,
      "type" : "VEC2"
    },
    {
      "bufferView" : 97,
      "componentType" : 5126,
      "count" : 82,
      "type" : "VEC2"
    },
    {
      "bufferView" : 98,
      "componentType" : 5126,
      "count" : 82,
      "type" : "VEC2"
    },
    {
      "bufferView" : 99,
      "componentType" : 5123,
      "count" : 2331,
      "type" : "SCALAR"
    },
    {
      "bufferView" : 100,
      "min" : [ 21.7636, 6.7, 15.2845 ],
      "max" : [ 40.7141, 12.3, 34.235 ],
      "componentType" : 5126,
      "count" : 1678,
      "type" : "VEC3"
    },
    {
      "bufferView" : 101,
      "componentType" : 5126,
      "count" : 1678,
      "type" : "VEC3"
    },
    {
      "bufferView" : 102,
      "componentType" : 5126,
      "count" : 1678,
      "type" : "VEC4"
    },
    {
      "bufferView" : 103,
      "normalized" : true,
      "componentType" : 5121,
      "count" : 1678,
      "type" : "VEC4"
    },
    {
      "bufferView" : 104,
      "componentType" : 5126,
      "count" : 1678,
      "type" : "VEC2"
    },
    {
      "bufferView" : 105,
      "componentType" : 5126,
      "count" : 1678,
      "type" : "VEC2"
    },
    {
      "bufferView" : 106,
      "componentType" : 5126,
      "count" : 1678,
      "type" : "VEC2"
    },
    {
      "bufferView" : 107,
      "componentType" : 5126,
      "count" : 1678,
      "type" : "VEC2"
    },
    {
      "bufferView" : 108,
      "componentType" : 5123,
      "count" : 708,
      "type" : "SCALAR"
    },
    {
      "bufferView" : 109,
      "min" : [ 21.7636, 10.45, 15.2845 ],
      "max" : [ 40.7141, 17.7518, 34.235 ],
      "componentType" : 5126,
      "count" : 408,
      "type" : "VEC3"
    },
    {
      "bufferView" : 110,
      "componentType" : 5126,
      "count" : 408,
      "type" : "VEC3"
    },
    {
      "bufferView" : 111,
      "componentType" : 5126,
      "count" : 408,
      "type" : "VEC4"
    },
    {
      "bufferView" : 112,
      "normalized" : true,
      "componentType" : 5121,
      "count" : 408,
      "type" : "VEC4"
    },
    {
      "bufferView" : 113,
      "componentType" : 5126,
      "count" : 408,
      "type" : "VEC2"
    },
    {
      "bufferView" : 114,
      "componentType" : 5126,
      "count" : 408,
      "type" : "VEC2"
    },
    {
      "bufferView" : 115,
      "componentType" : 5126,
      "count" : 408,
      "type" : "VEC2"
    },
    {
      "bufferView" : 116,
      "componentType" : 5126,
      "count" : 408,
      "type" : "VEC2"
    },
    {
      "bufferView" : 117,
      "componentType" : 5123,
      "count" : 36,
      "type" : "SCALAR"
    },
    {
      "bufferView" : 118,
      "min" : [ 32.2478, 6.39999, 25.7661 ],
      "max" : [ 35.2106, 10, 28.7288 ],
      "componentType" : 5126,
      "count" : 26,
      "type" : "VEC3"
    },
    {
      "bufferView" : 119,
      "componentType" : 5126,
      "count" : 26,
      "type" : "VEC3"
    },
    {
      "bufferView" : 120,
      "componentType" : 5126,
      "count" : 26,
      "type" : "VEC4"
    },
    {
      "bufferView" : 121,
      "normalized" : true,
      "componentType" : 5121,
      "count" : 26,
      "type" : "VEC4"
    },
    {
      "bufferView" : 122,
      "componentType" : 5126,
      "count" : 26,
      "type" : "VEC2"
    },
    {
      "bufferView" : 123,
      "componentType" : 5126,
      "count" : 26,
      "type" : "VEC2"
    },
    {
      "bufferView" : 124,
      "componentType" : 5126,
      "count" : 26,
      "type" : "VEC2"
    },
    {
      "bufferView" : 125,
      "componentType" : 5126,
      "count" : 26,
      "type" : "VEC2"
    },
    {
      "bufferView" : 126,
      "componentType" : 5123,
      "count" : 3648,
      "type" : "SCALAR"
    },
    {
      "bufferView" : 127,
      "min" : [ 19.9422, 18.9777, 13.7175 ],
      "max" : [ 56.296, 23.7976, 49.8375 ],
      "componentType" : 5126,
      "count" : 1438,
      "type" : "VEC3"
    },
    {
      "bufferView" : 128,
      "componentType" : 5126,
      "count" : 1438,
      "type" : "VEC3"
    },
    {
      "bufferView" : 129,
      "componentType" : 5126,
      "count" : 1438,
      "type" : "VEC4"
    },
    {
      "bufferView" : 130,
      "normalized" : true,
      "componentType" : 5121,
      "count" : 1438,
      "type" : "VEC4"
    },
    {
      "bufferView" : 131,
      "componentType" : 5126,
      "count" : 1438,
      "type" : "VEC2"
    },
    {
      "bufferView" : 132,
      "componentType" : 5126,
      "count" : 1438,
      "type" : "VEC2"
    },
    {
      "bufferView" : 133,
      "componentType" : 5126,
      "count" : 1438,
      "type" : "VEC2"
    },
    {
      "bufferView" : 134,
      "componentType" : 5126,
      "count" : 1438,
      "type" : "VEC2"
    },
    {
      "bufferView" : 135,
      "componentType" : 5123,
      "count" : 1152,
      "type" : "SCALAR"
    },
    {
      "bufferView" : 136,
      "min" : [ 21.8606, 24.8557, 16.2509 ],
      "max" : [ 45.6413, 25.6943, 38.2907 ],
      "componentType" : 5126,
      "count" : 366,
      "type" : "VEC3"
    },
    {
      "bufferView" : 137,
      "componentType" : 5126,
      "count" : 366,
      "type" : "VEC3"
    },
    {
      "bufferView" : 138,
      "componentType" : 5126,
      "count" : 366,
      "type" : "VEC4"
    },
    {
      "bufferView" : 139,
      "normalized" : true,
      "componentType" : 5121,
      "count" : 366,
      "type" : "VEC4"
    },
    {
      "bufferView" : 140,
      "componentType" : 5126,
      "count" : 366,
      "type" : "VEC2"
    },
    {
      "bufferView" : 141,
      "componentType" : 5126,
      "count" : 366,
      "type" : "VEC2"
    },
    {
      "bufferView" : 142,
      "componentType" : 5126,
      "count" : 366,
      "type" : "VEC2"
    },
    {
      "bufferView" : 143,
      "componentType" : 5126,
      "count" : 366,
      "type" : "VEC2"
    }
  ]
}
