{
  "asset" : {
    "generator" : "UE Viewer (umodel) build 1544 based",
    "version" : "2.0"
  },
  "scene" : 0,
  "scenes" : [
    {
      "nodes" : [ 0 ]
    }
  ],
  "nodes" : [
    {
      "name" : "SM_ENV_KNVLLG03_AreaB_BuildingAf",
      "mesh" : 0
    }
  ],
  "materials" : [
    {
      "name" : "MI_ENV_LKNVLD_LuckyCatSignboard_A",
      "pbrMetallicRoughness" : {
        "baseColorFactor" : [ 0.3, 0.3, 0.3, 1.0 ],
        "metallicFactor" : 0.1,
        "roughnessFactor" : 0.5
      }
    },
    {
      "name" : "MI_ENV_LKNVLD_LuckyCat_A",
      "pbrMetallicRoughness" : {
        "baseColorFactor" : [ 0.9, 0.3, 0.3, 1.0 ],
        "metallicFactor" : 0.1,
        "roughnessFactor" : 0.5
      }
    }
  ],
  "meshes" : [
    {
      "primitives" : [
        {
          "attributes" : {
            "POSITION" : 1,
            "NORMAL" : 2,
            "TANGENT" : 3,
            "TEXCOORD_0" : 4,
            "TEXCOORD_1" : 5,
            "TEXCOORD_2" : 6,
            "TEXCOORD_3" : 7
          },
          "indices" : 0,
          "material" : 0
        },
        {
          "attributes" : {
            "POSITION" : 9,
            "NORMAL" : 10,
            "TANGENT" : 11,
            "TEXCOORD_0" : 12,
            "TEXCOORD_1" : 13,
            "TEXCOORD_2" : 14,
            "TEXCOORD_3" : 15
          },
          "indices" : 8,
          "material" : 1
        }
      ],
      "name" : "SM_ENV_KNVLLG03_AreaB_BuildingAf"
    }
  ],
  "buffers" : [
    {
      "uri" : "SM_ENV_KNVLLG03_AreaB_BuildingAf.bin",
      "byteLength" : 390408
    }
  ],
  "bufferViews" : [
    {
      "buffer" : 0,
      "byteOffset" : 0,
      "byteLength" : 672
    },
    {
      "buffer" : 0,
      "byteOffset" : 672,
      "byteLength" : 1584
    },
    {
      "buffer" : 0,
      "byteOffset" : 2256,
      "byteLength" : 1584
    },
    {
      "buffer" : 0,
      "byteOffset" : 3840,
      "byteLength" : 2112
    },
    {
      "buffer" : 0,
      "byteOffset" : 5952,
      "byteLength" : 1056
    },
    {
      "buffer" : 0,
      "byteOffset" : 7008,
      "byteLength" : 1056
    },
    {
      "buffer" : 0,
      "byteOffset" : 8064,
      "byteLength" : 1056
    },
    {
      "buffer" : 0,
      "byteOffset" : 9120,
      "byteLength" : 1056
    },
    {
      "buffer" : 0,
      "byteOffset" : 10176,
      "byteLength" : 37368
    },
    {
      "buffer" : 0,
      "byteOffset" : 47544,
      "byteLength" : 57144
    },
    {
      "buffer" : 0,
      "byteOffset" : 104688,
      "byteLength" : 57144
    },
    {
      "buffer" : 0,
      "byteOffset" : 161832,
      "byteLength" : 76192
    },
    {
      "buffer" : 0,
      "byteOffset" : 238024,
      "byteLength" : 38096
    },
    {
      "buffer" : 0,
      "byteOffset" : 276120,
      "byteLength" : 38096
    },
    {
      "buffer" : 0,
      "byteOffset" : 314216,
      "byteLength" : 38096
    },
    {
      "buffer" : 0,
      "byteOffset" : 352312,
      "byteLength" : 38096
    }
  ],
  "accessors" : [
    {
      "bufferView" : 0,
      "componentType" : 5123,
      "count" : 336,
      "type" : "SCALAR"
    },
    {
      "bufferView" : 1,
      "min" : [ -28.5312, 5.99999, 14.1352 ],
      "max" : [ -21.4562, 7.3817, 21.2509 ],
      "componentType" : 5126,
      "count" : 132,
      "type" : "VEC3"
    },
    {
      "bufferView" : 2,
      "componentType" : 5126,
      "count" : 132,
      "type" : "VEC3"
    },
    {
      "bufferView" : 3,
      "componentType" : 5126,
      "count" : 132,
      "type" : "VEC4"
    },
    {
      "bufferView" : 4,
      "componentType" : 5126,
      "count" : 132,
      "type" : "VEC2"
    },
    {
      "bufferView" : 5,
      "componentType" : 5126,
      "count" : 132,
      "type" : "VEC2"
    },
    {
      "bufferView" : 6,
      "componentType" : 5126,
      "count" : 132,
      "type" : "VEC2"
    },
    {
      "bufferView" : 7,
      "componentType" : 5126,
      "count" : 132,
      "type" : "VEC2"
    },
    {
      "bufferView" : 8,
      "componentType" : 5123,
      "count" : 18684,
      "type" : "SCALAR"
    },
    {
      "bufferView" : 9,
      "min" : [ -29.9812, 5.99999, 13.8525 ],
      "max" : [ -21.1887, 9.7163, 22.6835 ],
      "componentType" : 5126,
      "count" : 4762,
      "type" : "VEC3"
    },
    {
      "bufferView" : 10,
      "componentType" : 5126,
      "count" : 4762,
      "type" : "VEC3"
    },
    {
      "bufferView" : 11,
      "componentType" : 5126,
      "count" : 4762,
      "type" : "VEC4"
    },
    {
      "bufferView" : 12,
      "componentType" : 5126,
      "count" : 4762,
      "type" : "VEC2"
    },
    {
      "bufferView" : 13,
      "componentType" : 5126,
      "count" : 4762,
      "type" : "VEC2"
    },
    {
      "bufferView" : 14,
      "componentType" : 5126,
      "count" : 4762,
      "type" : "VEC2"
    },
    {
      "bufferView" : 15,
      "componentType" : 5126,
      "count" : 4762,
      "type" : "VEC2"
    }
  ]
}
