{
  "asset" : {
    "generator" : "UE Viewer (umodel) build 1544 based",
    "version" : "2.0"
  },
  "scene" : 0,
  "scenes" : [
    {
      "nodes" : [ 0 ]
    }
  ],
  "nodes" : [
    {
      "name" : "SM_ENV_LKNVLD03_CommonBuilding_B",
      "mesh" : 0
    }
  ],
  "materials" : [
    {
      "name" : "MI_ENV_LKNVLD_CommonBuilding_B",
      "pbrMetallicRoughness" : {
        "baseColorFactor" : [ 0.3, 0.3, 0.3, 1.0 ],
        "metallicFactor" : 0.1,
        "roughnessFactor" : 0.5
      }
    },
    {
      "name" : "MI_ENV_LKNVLD_Windows_A",
      "pbrMetallicRoughness" : {
        "baseColorFactor" : [ 0.9, 0.3, 0.3, 1.0 ],
        "metallicFactor" : 0.1,
        "roughnessFactor" : 0.5
      }
    }
  ],
  "meshes" : [
    {
      "primitives" : [
        {
          "attributes" : {
            "POSITION" : 1,
            "NORMAL" : 2,
            "TANGENT" : 3,
            "TEXCOORD_0" : 4,
            "TEXCOORD_1" : 5,
            "TEXCOORD_2" : 6,
            "TEXCOORD_3" : 7
          },
          "indices" : 0,
          "material" : 0
        },
        {
          "attributes" : {
            "POSITION" : 9,
            "NORMAL" : 10,
            "TANGENT" : 11,
            "TEXCOORD_0" : 12,
            "TEXCOORD_1" : 13,
            "TEXCOORD_2" : 14,
            "TEXCOORD_3" : 15
          },
          "indices" : 8,
          "material" : 1
        }
      ],
      "name" : "SM_ENV_LKNVLD03_CommonBuilding_B"
    }
  ],
  "buffers" : [
    {
      "uri" : "SM_ENV_LKNVLD03_CommonBuilding_B.bin",
      "byteLength" : 490628
    }
  ],
  "bufferViews" : [
    {
      "buffer" : 0,
      "byteOffset" : 0,
      "byteLength" : 26816
    },
    {
      "buffer" : 0,
      "byteOffset" : 26816,
      "byteLength" : 72276
    },
    {
      "buffer" : 0,
      "byteOffset" : 99092,
      "byteLength" : 72276
    },
    {
      "buffer" : 0,
      "byteOffset" : 171368,
      "byteLength" : 96368
    },
    {
      "buffer" : 0,
      "byteOffset" : 267736,
      "byteLength" : 48184
    },
    {
      "buffer" : 0,
      "byteOffset" : 315920,
      "byteLength" : 48184
    },
    {
      "buffer" : 0,
      "byteOffset" : 364104,
      "byteLength" : 48184
    },
    {
      "buffer" : 0,
      "byteOffset" : 412288,
      "byteLength" : 48184
    },
    {
      "buffer" : 0,
      "byteOffset" : 460472,
      "byteLength" : 1212
    },
    {
      "buffer" : 0,
      "byteOffset" : 461684,
      "byteLength" : 4824
    },
    {
      "buffer" : 0,
      "byteOffset" : 466508,
      "byteLength" : 4824
    },
    {
      "buffer" : 0,
      "byteOffset" : 471332,
      "byteLength" : 6432
    },
    {
      "buffer" : 0,
      "byteOffset" : 477764,
      "byteLength" : 3216
    },
    {
      "buffer" : 0,
      "byteOffset" : 480980,
      "byteLength" : 3216
    },
    {
      "buffer" : 0,
      "byteOffset" : 484196,
      "byteLength" : 3216
    },
    {
      "buffer" : 0,
      "byteOffset" : 487412,
      "byteLength" : 3216
    }
  ],
  "accessors" : [
    {
      "bufferView" : 0,
      "componentType" : 5123,
      "count" : 13407,
      "type" : "SCALAR"
    },
    {
      "bufferView" : 1,
      "min" : [ -22.1054, -1.297e-06, -11.4397 ],
      "max" : [ 20.3294, 35.6895, 11.4397 ],
      "componentType" : 5126,
      "count" : 6023,
      "type" : "VEC3"
    },
    {
      "bufferView" : 2,
      "componentType" : 5126,
      "count" : 6023,
      "type" : "VEC3"
    },
    {
      "bufferView" : 3,
      "componentType" : 5126,
      "count" : 6023,
      "type" : "VEC4"
    },
    {
      "bufferView" : 4,
      "componentType" : 5126,
      "count" : 6023,
      "type" : "VEC2"
    },
    {
      "bufferView" : 5,
      "componentType" : 5126,
      "count" : 6023,
      "type" : "VEC2"
    },
    {
      "bufferView" : 6,
      "componentType" : 5126,
      "count" : 6023,
      "type" : "VEC2"
    },
    {
      "bufferView" : 7,
      "componentType" : 5126,
      "count" : 6023,
      "type" : "VEC2"
    },
    {
      "bufferView" : 8,
      "componentType" : 5123,
      "count" : 606,
      "type" : "SCALAR"
    },
    {
      "bufferView" : 9,
      "min" : [ -18.2868, 2.09564, -9.447 ],
      "max" : [ 18.2868, 33.1432, 9.44702 ],
      "componentType" : 5126,
      "count" : 402,
      "type" : "VEC3"
    },
    {
      "bufferView" : 10,
      "componentType" : 5126,
      "count" : 402,
      "type" : "VEC3"
    },
    {
      "bufferView" : 11,
      "componentType" : 5126,
      "count" : 402,
      "type" : "VEC4"
    },
    {
      "bufferView" : 12,
      "componentType" : 5126,
      "count" : 402,
      "type" : "VEC2"
    },
    {
      "bufferView" : 13,
      "componentType" : 5126,
      "count" : 402,
      "type" : "VEC2"
    },
    {
      "bufferView" : 14,
      "componentType" : 5126,
      "count" : 402,
      "type" : "VEC2"
    },
    {
      "bufferView" : 15,
      "componentType" : 5126,
      "count" : 402,
      "type" : "VEC2"
    }
  ]
}
