{
  "asset" : {
    "generator" : "UE Viewer (umodel) build 1544 based",
    "version" : "2.0"
  },
  "scene" : 0,
  "scenes" : [
    {
      "nodes" : [ 0 ]
    }
  ],
  "nodes" : [
    {
      "name" : "SM_ENV_KNVLLG03_House_Distance_B",
      "mesh" : 0
    }
  ],
  "materials" : [
    {
      "name" : "MI_ENV_KNVLLG_House_Distance_A",
      "pbrMetallicRoughness" : {
        "baseColorFactor" : [ 0.3, 0.3, 0.3, 1.0 ],
        "metallicFactor" : 0.1,
        "roughnessFactor" : 0.5
      }
    },
    {
      "name" : "MI_ENV_KNVLLG_House_Distance_C",
      "pbrMetallicRoughness" : {
        "baseColorFactor" : [ 0.9, 0.3, 0.3, 1.0 ],
        "metallicFactor" : 0.1,
        "roughnessFactor" : 0.5
      }
    }
  ],
  "meshes" : [
    {
      "primitives" : [
        {
          "attributes" : {
            "POSITION" : 1,
            "NORMAL" : 2,
            "TANGENT" : 3,
            "TEXCOORD_0" : 4,
            "TEXCOORD_1" : 5,
            "TEXCOORD_2" : 6,
            "TEXCOORD_3" : 7
          },
          "indices" : 0,
          "material" : 0
        },
        {
          "attributes" : {
            "POSITION" : 9,
            "NORMAL" : 10,
            "TANGENT" : 11,
            "TEXCOORD_0" : 12,
            "TEXCOORD_1" : 13,
            "TEXCOORD_2" : 14,
            "TEXCOORD_3" : 15
          },
          "indices" : 8,
          "material" : 1
        }
      ],
      "name" : "SM_ENV_KNVLLG03_House_Distance_B"
    }
  ],
  "buffers" : [
    {
      "uri" : "SM_ENV_KNVLLG03_House_Distance_B.bin",
      "byteLength" : 332956
    }
  ],
  "bufferViews" : [
    {
      "buffer" : 0,
      "byteOffset" : 0,
      "byteLength" : 11276
    },
    {
      "buffer" : 0,
      "byteOffset" : 11276,
      "byteLength" : 46380
    },
    {
      "buffer" : 0,
      "byteOffset" : 57656,
      "byteLength" : 46380
    },
    {
      "buffer" : 0,
      "byteOffset" : 104036,
      "byteLength" : 61840
    },
    {
      "buffer" : 0,
      "byteOffset" : 165876,
      "byteLength" : 30920
    },
    {
      "buffer" : 0,
      "byteOffset" : 196796,
      "byteLength" : 30920
    },
    {
      "buffer" : 0,
      "byteOffset" : 227716,
      "byteLength" : 30920
    },
    {
      "buffer" : 0,
      "byteOffset" : 258636,
      "byteLength" : 30920
    },
    {
      "buffer" : 0,
      "byteOffset" : 289556,
      "byteLength" : 1712
    },
    {
      "buffer" : 0,
      "byteOffset" : 291268,
      "byteLength" : 6948
    },
    {
      "buffer" : 0,
      "byteOffset" : 298216,
      "byteLength" : 6948
    },
    {
      "buffer" : 0,
      "byteOffset" : 305164,
      "byteLength" : 9264
    },
    {
      "buffer" : 0,
      "byteOffset" : 314428,
      "byteLength" : 4632
    },
    {
      "buffer" : 0,
      "byteOffset" : 319060,
      "byteLength" : 4632
    },
    {
      "buffer" : 0,
      "byteOffset" : 323692,
      "byteLength" : 4632
    },
    {
      "buffer" : 0,
      "byteOffset" : 328324,
      "byteLength" : 4632
    }
  ],
  "accessors" : [
    {
      "bufferView" : 0,
      "componentType" : 5123,
      "count" : 5637,
      "type" : "SCALAR"
    },
    {
      "bufferView" : 1,
      "min" : [ 125.065, -0.521839, -161.908 ],
      "max" : [ 460.742, 20.9939, 108.83 ],
      "componentType" : 5126,
      "count" : 3865,
      "type" : "VEC3"
    },
    {
      "bufferView" : 2,
      "componentType" : 5126,
      "count" : 3865,
      "type" : "VEC3"
    },
    {
      "bufferView" : 3,
      "componentType" : 5126,
      "count" : 3865,
      "type" : "VEC4"
    },
    {
      "bufferView" : 4,
      "componentType" : 5126,
      "count" : 3865,
      "type" : "VEC2"
    },
    {
      "bufferView" : 5,
      "componentType" : 5126,
      "count" : 3865,
      "type" : "VEC2"
    },
    {
      "bufferView" : 6,
      "componentType" : 5126,
      "count" : 3865,
      "type" : "VEC2"
    },
    {
      "bufferView" : 7,
      "componentType" : 5126,
      "count" : 3865,
      "type" : "VEC2"
    },
    {
      "bufferView" : 8,
      "componentType" : 5123,
      "count" : 855,
      "type" : "SCALAR"
    },
    {
      "bufferView" : 9,
      "min" : [ 202.272, -0.698887, 9.27904 ],
      "max" : [ 382.195, 21.0337, 101.876 ],
      "componentType" : 5126,
      "count" : 579,
      "type" : "VEC3"
    },
    {
      "bufferView" : 10,
      "componentType" : 5126,
      "count" : 579,
      "type" : "VEC3"
    },
    {
      "bufferView" : 11,
      "componentType" : 5126,
      "count" : 579,
      "type" : "VEC4"
    },
    {
      "bufferView" : 12,
      "componentType" : 5126,
      "count" : 579,
      "type" : "VEC2"
    },
    {
      "bufferView" : 13,
      "componentType" : 5126,
      "count" : 579,
      "type" : "VEC2"
    },
    {
      "bufferView" : 14,
      "componentType" : 5126,
      "count" : 579,
      "type" : "VEC2"
    },
    {
      "bufferView" : 15,
      "componentType" : 5126,
      "count" : 579,
      "type" : "VEC2"
    }
  ]
}
