{
  "asset" : {
    "generator" : "UE Viewer (umodel) build 1544 based",
    "version" : "2.0"
  },
  "scene" : 0,
  "scenes" : [
    {
      "nodes" : [ 0 ]
    }
  ],
  "nodes" : [
    {
      "name" : "SM_ENV_KNVLLG03_AreaA_Building_D",
      "mesh" : 0
    }
  ],
  "materials" : [
    {
      "name" : "MI_ENV_LKNVLD_Windows_A",
      "pbrMetallicRoughness" : {
        "baseColorFactor" : [ 0.3, 0.3, 0.3, 1.0 ],
        "metallicFactor" : 0.1,
        "roughnessFactor" : 0.5
      }
    },
    {
      "name" : "MI_ENV_LKNVLD_WoodBoard_Natural",
      "pbrMetallicRoughness" : {
        "baseColorFactor" : [ 0.9, 0.3, 0.3, 1.0 ],
        "metallicFactor" : 0.1,
        "roughnessFactor" : 0.5
      }
    },
    {
      "name" : "MI_ENV_LKNVLD_CommonBuilding_D",
      "pbrMetallicRoughness" : {
        "baseColorFactor" : [ 0.3, 0.9, 0.3, 1.0 ],
        "metallicFactor" : 0.1,
        "roughnessFactor" : 0.5
      }
    },
    {
      "name" : "MI_ENV_LKNVLD_WoodBoard_Red",
      "pbrMetallicRoughness" : {
        "baseColorFactor" : [ 0.3, 0.3, 0.9, 1.0 ],
        "metallicFactor" : 0.1,
        "roughnessFactor" : 0.5
      }
    },
    {
      "name" : "MI_ENV_LKNVLD_Plaster",
      "pbrMetallicRoughness" : {
        "baseColorFactor" : [ 0.9, 0.9, 0.9, 1.0 ],
        "metallicFactor" : 0.1,
        "roughnessFactor" : 0.5
      }
    },
    {
      "name" : "MI_ENV_KNVLLG03_WoodPlain_Black",
      "pbrMetallicRoughness" : {
        "baseColorFactor" : [ 0.9, 0.9, 0.3, 1.0 ],
        "metallicFactor" : 0.1,
        "roughnessFactor" : 0.5
      }
    }
  ],
  "meshes" : [
    {
      "primitives" : [
        {
          "attributes" : {
            "POSITION" : 1,
            "NORMAL" : 2,
            "TANGENT" : 3,
            "COLOR_0" : 4,
            "TEXCOORD_0" : 5,
            "TEXCOORD_1" : 6,
            "TEXCOORD_2" : 7,
            "TEXCOORD_3" : 8
          },
          "indices" : 0,
          "material" : 0
        },
        {
          "attributes" : {
            "POSITION" : 10,
            "NORMAL" : 11,
            "TANGENT" : 12,
            "COLOR_0" : 13,
            "TEXCOORD_0" : 14,
            "TEXCOORD_1" : 15,
            "TEXCOORD_2" : 16,
            "TEXCOORD_3" : 17
          },
          "indices" : 9,
          "material" : 1
        },
        {
          "attributes" : {
            "POSITION" : 19,
            "NORMAL" : 20,
            "TANGENT" : 21,
            "COLOR_0" : 22,
            "TEXCOORD_0" : 23,
            "TEXCOORD_1" : 24,
            "TEXCOORD_2" : 25,
            "TEXCOORD_3" : 26
          },
          "indices" : 18,
          "material" : 2
        },
        {
          "attributes" : {
            "POSITION" : 28,
            "NORMAL" : 29,
            "TANGENT" : 30,
            "COLOR_0" : 31,
            "TEXCOORD_0" : 32,
            "TEXCOORD_1" : 33,
            "TEXCOORD_2" : 34,
            "TEXCOORD_3" : 35
          },
          "indices" : 27,
          "material" : 3
        },
        {
          "attributes" : {
            "POSITION" : 37,
            "NORMAL" : 38,
            "TANGENT" : 39,
            "COLOR_0" : 40,
            "TEXCOORD_0" : 41,
            "TEXCOORD_1" : 42,
            "TEXCOORD_2" : 43,
            "TEXCOORD_3" : 44
          },
          "indices" : 36,
          "material" : 4
        },
        {
          "attributes" : {
            "POSITION" : 46,
            "NORMAL" : 47,
            "TANGENT" : 48,
            "COLOR_0" : 49,
            "TEXCOORD_0" : 50,
            "TEXCOORD_1" : 51,
            "TEXCOORD_2" : 52,
            "TEXCOORD_3" : 53
          },
          "indices" : 45,
          "material" : 5
        }
      ],
      "name" : "SM_ENV_KNVLLG03_AreaA_Building_D"
    }
  ],
  "buffers" : [
    {
      "uri" : "SM_ENV_KNVLLG03_AreaA_Building_D.bin",
      "byteLength" : 762928
    }
  ],
  "bufferViews" : [
    {
      "buffer" : 0,
      "byteOffset" : 0,
      "byteLength" : 984
    },
    {
      "buffer" : 0,
      "byteOffset" : 984,
      "byteLength" : 2976
    },
    {
      "buffer" : 0,
      "byteOffset" : 3960,
      "byteLength" : 2976
    },
    {
      "buffer" : 0,
      "byteOffset" : 6936,
      "byteLength" : 3968
    },
    {
      "buffer" : 0,
      "byteOffset" : 10904,
      "byteLength" : 992
    },
    {
      "buffer" : 0,
      "byteOffset" : 11896,
      "byteLength" : 1984
    },
    {
      "buffer" : 0,
      "byteOffset" : 13880,
      "byteLength" : 1984
    },
    {
      "buffer" : 0,
      "byteOffset" : 15864,
      "byteLength" : 1984
    },
    {
      "buffer" : 0,
      "byteOffset" : 17848,
      "byteLength" : 1984
    },
    {
      "buffer" : 0,
      "byteOffset" : 19832,
      "byteLength" : 24120
    },
    {
      "buffer" : 0,
      "byteOffset" : 43952,
      "byteLength" : 72468
    },
    {
      "buffer" : 0,
      "byteOffset" : 116420,
      "byteLength" : 72468
    },
    {
      "buffer" : 0,
      "byteOffset" : 188888,
      "byteLength" : 96624
    },
    {
      "buffer" : 0,
      "byteOffset" : 285512,
      "byteLength" : 24156
    },
    {
      "buffer" : 0,
      "byteOffset" : 309668,
      "byteLength" : 48312
    },
    {
      "buffer" : 0,
      "byteOffset" : 357980,
      "byteLength" : 48312
    },
    {
      "buffer" : 0,
      "byteOffset" : 406292,
      "byteLength" : 48312
    },
    {
      "buffer" : 0,
      "byteOffset" : 454604,
      "byteLength" : 48312
    },
    {
      "buffer" : 0,
      "byteOffset" : 502916,
      "byteLength" : 3228
    },
    {
      "buffer" : 0,
      "byteOffset" : 506144,
      "byteLength" : 6264
    },
    {
      "buffer" : 0,
      "byteOffset" : 512408,
      "byteLength" : 6264
    },
    {
      "buffer" : 0,
      "byteOffset" : 518672,
      "byteLength" : 8352
    },
    {
      "buffer" : 0,
      "byteOffset" : 527024,
      "byteLength" : 2088
    },
    {
      "buffer" : 0,
      "byteOffset" : 529112,
      "byteLength" : 4176
    },
    {
      "buffer" : 0,
      "byteOffset" : 533288,
      "byteLength" : 4176
    },
    {
      "buffer" : 0,
      "byteOffset" : 537464,
      "byteLength" : 4176
    },
    {
      "buffer" : 0,
      "byteOffset" : 541640,
      "byteLength" : 4176
    },
    {
      "buffer" : 0,
      "byteOffset" : 545816,
      "byteLength" : 4520
    },
    {
      "buffer" : 0,
      "byteOffset" : 550336,
      "byteLength" : 9984
    },
    {
      "buffer" : 0,
      "byteOffset" : 560320,
      "byteLength" : 9984
    },
    {
      "buffer" : 0,
      "byteOffset" : 570304,
      "byteLength" : 13312
    },
    {
      "buffer" : 0,
      "byteOffset" : 583616,
      "byteLength" : 3328
    },
    {
      "buffer" : 0,
      "byteOffset" : 586944,
      "byteLength" : 6656
    },
    {
      "buffer" : 0,
      "byteOffset" : 593600,
      "byteLength" : 6656
    },
    {
      "buffer" : 0,
      "byteOffset" : 600256,
      "byteLength" : 6656
    },
    {
      "buffer" : 0,
      "byteOffset" : 606912,
      "byteLength" : 6656
    },
    {
      "buffer" : 0,
      "byteOffset" : 613568,
      "byteLength" : 5844
    },
    {
      "buffer" : 0,
      "byteOffset" : 619412,
      "byteLength" : 15216
    },
    {
      "buffer" : 0,
      "byteOffset" : 634628,
      "byteLength" : 15216
    },
    {
      "buffer" : 0,
      "byteOffset" : 649844,
      "byteLength" : 20288
    },
    {
      "buffer" : 0,
      "byteOffset" : 670132,
      "byteLength" : 5072
    },
    {
      "buffer" : 0,
      "byteOffset" : 675204,
      "byteLength" : 10144
    },
    {
      "buffer" : 0,
      "byteOffset" : 685348,
      "byteLength" : 10144
    },
    {
      "buffer" : 0,
      "byteOffset" : 695492,
      "byteLength" : 10144
    },
    {
      "buffer" : 0,
      "byteOffset" : 705636,
      "byteLength" : 10144
    },
    {
      "buffer" : 0,
      "byteOffset" : 715780,
      "byteLength" : 2612
    },
    {
      "buffer" : 0,
      "byteOffset" : 718392,
      "byteLength" : 7032
    },
    {
      "buffer" : 0,
      "byteOffset" : 725424,
      "byteLength" : 7032
    },
    {
      "buffer" : 0,
      "byteOffset" : 732456,
      "byteLength" : 9376
    },
    {
      "buffer" : 0,
      "byteOffset" : 741832,
      "byteLength" : 2344
    },
    {
      "buffer" : 0,
      "byteOffset" : 744176,
      "byteLength" : 4688
    },
    {
      "buffer" : 0,
      "byteOffset" : 748864,
      "byteLength" : 4688
    },
    {
      "buffer" : 0,
      "byteOffset" : 753552,
      "byteLength" : 4688
    },
    {
      "buffer" : 0,
      "byteOffset" : 758240,
      "byteLength" : 4688
    }
  ],
  "accessors" : [
    {
      "bufferView" : 0,
      "componentType" : 5123,
      "count" : 492,
      "type" : "SCALAR"
    },
    {
      "bufferView" : 1,
      "min" : [ -44.1247, -0.506151, 67.605 ],
      "max" : [ -32.3347, 38.0544, 81.5 ],
      "componentType" : 5126,
      "count" : 248,
      "type" : "VEC3"
    },
    {
      "bufferView" : 2,
      "componentType" : 5126,
      "count" : 248,
      "type" : "VEC3"
    },
    {
      "bufferView" : 3,
      "componentType" : 5126,
      "count" : 248,
      "type" : "VEC4"
    },
    {
      "bufferView" : 4,
      "normalized" : true,
      "componentType" : 5121,
      "count" : 248,
      "type" : "VEC4"
    },
    {
      "bufferView" : 5,
      "componentType" : 5126,
      "count" : 248,
      "type" : "VEC2"
    },
    {
      "bufferView" : 6,
      "componentType" : 5126,
      "count" : 248,
      "type" : "VEC2"
    },
    {
      "bufferView" : 7,
      "componentType" : 5126,
      "count" : 248,
      "type" : "VEC2"
    },
    {
      "bufferView" : 8,
      "componentType" : 5126,
      "count" : 248,
      "type" : "VEC2"
    },
    {
      "bufferView" : 9,
      "componentType" : 5123,
      "count" : 12060,
      "type" : "SCALAR"
    },
    {
      "bufferView" : 10,
      "min" : [ -46.9422, -1.9, 64.7875 ],
      "max" : [ -29.5172, 52.2687, 82.2125 ],
      "componentType" : 5126,
      "count" : 6039,
      "type" : "VEC3"
    },
    {
      "bufferView" : 11,
      "componentType" : 5126,
      "count" : 6039,
      "type" : "VEC3"
    },
    {
      "bufferView" : 12,
      "componentType" : 5126,
      "count" : 6039,
      "type" : "VEC4"
    },
    {
      "bufferView" : 13,
      "normalized" : true,
      "componentType" : 5121,
      "count" : 6039,
      "type" : "VEC4"
    },
    {
      "bufferView" : 14,
      "componentType" : 5126,
      "count" : 6039,
      "type" : "VEC2"
    },
    {
      "bufferView" : 15,
      "componentType" : 5126,
      "count" : 6039,
      "type" : "VEC2"
    },
    {
      "bufferView" : 16,
      "componentType" : 5126,
      "count" : 6039,
      "type" : "VEC2"
    },
    {
      "bufferView" : 17,
      "componentType" : 5126,
      "count" : 6039,
      "type" : "VEC2"
    },
    {
      "bufferView" : 18,
      "componentType" : 5123,
      "count" : 1614,
      "type" : "SCALAR"
    },
    {
      "bufferView" : 19,
      "min" : [ -42.5237, 41.7577, 69.1781 ],
      "max" : [ -33.7861, 54.8263, 78.0951 ],
      "componentType" : 5126,
      "count" : 522,
      "type" : "VEC3"
    },
    {
      "bufferView" : 20,
      "componentType" : 5126,
      "count" : 522,
      "type" : "VEC3"
    },
    {
      "bufferView" : 21,
      "componentType" : 5126,
      "count" : 522,
      "type" : "VEC4"
    },
    {
      "bufferView" : 22,
      "normalized" : true,
      "componentType" : 5121,
      "count" : 522,
      "type" : "VEC4"
    },
    {
      "bufferView" : 23,
      "componentType" : 5126,
      "count" : 522,
      "type" : "VEC2"
    },
    {
      "bufferView" : 24,
      "componentType" : 5126,
      "count" : 522,
      "type" : "VEC2"
    },
    {
      "bufferView" : 25,
      "componentType" : 5126,
      "count" : 522,
      "type" : "VEC2"
    },
    {
      "bufferView" : 26,
      "componentType" : 5126,
      "count" : 522,
      "type" : "VEC2"
    },
    {
      "bufferView" : 27,
      "componentType" : 5123,
      "count" : 2259,
      "type" : "SCALAR"
    },
    {
      "bufferView" : 28,
      "min" : [ -47.9797, 4.36102, 63.75 ],
      "max" : [ -28.4797, 52.2687, 83.25 ],
      "componentType" : 5126,
      "count" : 832,
      "type" : "VEC3"
    },
    {
      "bufferView" : 29,
      "componentType" : 5126,
      "count" : 832,
      "type" : "VEC3"
    },
    {
      "bufferView" : 30,
      "componentType" : 5126,
      "count" : 832,
      "type" : "VEC4"
    },
    {
      "bufferView" : 31,
      "normalized" : true,
      "componentType" : 5121,
      "count" : 832,
      "type" : "VEC4"
    },
    {
      "bufferView" : 32,
      "componentType" : 5126,
      "count" : 832,
      "type" : "VEC2"
    },
    {
      "bufferView" : 33,
      "componentType" : 5126,
      "count" : 832,
      "type" : "VEC2"
    },
    {
      "bufferView" : 34,
      "componentType" : 5126,
      "count" : 832,
      "type" : "VEC2"
    },
    {
      "bufferView" : 35,
      "componentType" : 5126,
      "count" : 832,
      "type" : "VEC2"
    },
    {
      "bufferView" : 36,
      "componentType" : 5123,
      "count" : 2922,
      "type" : "SCALAR"
    },
    {
      "bufferView" : 37,
      "min" : [ -47.5797, -1.60001, 64.15 ],
      "max" : [ -28.8797, 39.85, 82.85 ],
      "componentType" : 5126,
      "count" : 1268,
      "type" : "VEC3"
    },
    {
      "bufferView" : 38,
      "componentType" : 5126,
      "count" : 1268,
      "type" : "VEC3"
    },
    {
      "bufferView" : 39,
      "componentType" : 5126,
      "count" : 1268,
      "type" : "VEC4"
    },
    {
      "bufferView" : 40,
      "normalized" : true,
      "componentType" : 5121,
      "count" : 1268,
      "type" : "VEC4"
    },
    {
      "bufferView" : 41,
      "componentType" : 5126,
      "count" : 1268,
      "type" : "VEC2"
    },
    {
      "bufferView" : 42,
      "componentType" : 5126,
      "count" : 1268,
      "type" : "VEC2"
    },
    {
      "bufferView" : 43,
      "componentType" : 5126,
      "count" : 1268,
      "type" : "VEC2"
    },
    {
      "bufferView" : 44,
      "componentType" : 5126,
      "count" : 1268,
      "type" : "VEC2"
    },
    {
      "bufferView" : 45,
      "componentType" : 5123,
      "count" : 1305,
      "type" : "SCALAR"
    },
    {
      "bufferView" : 46,
      "min" : [ -48.2789, -1.90001, 63.4508 ],
      "max" : [ -28.1804, 7.25, 84.1736 ],
      "componentType" : 5126,
      "count" : 586,
      "type" : "VEC3"
    },
    {
      "bufferView" : 47,
      "componentType" : 5126,
      "count" : 586,
      "type" : "VEC3"
    },
    {
      "bufferView" : 48,
      "componentType" : 5126,
      "count" : 586,
      "type" : "VEC4"
    },
    {
      "bufferView" : 49,
      "normalized" : true,
      "componentType" : 5121,
      "count" : 586,
      "type" : "VEC4"
    },
    {
      "bufferView" : 50,
      "componentType" : 5126,
      "count" : 586,
      "type" : "VEC2"
    },
    {
      "bufferView" : 51,
      "componentType" : 5126,
      "count" : 586,
      "type" : "VEC2"
    },
    {
      "bufferView" : 52,
      "componentType" : 5126,
      "count" : 586,
      "type" : "VEC2"
    },
    {
      "bufferView" : 53,
      "componentType" : 5126,
      "count" : 586,
      "type" : "VEC2"
    }
  ]
}
