{
  "asset" : {
    "generator" : "UE Viewer (umodel) build 1544 based",
    "version" : "2.0"
  },
  "scene" : 0,
  "scenes" : [
    {
      "nodes" : [ 0 ]
    }
  ],
  "nodes" : [
    {
      "name" : "SM_ENV_KNVLLG03_House_Distance_C",
      "mesh" : 0
    }
  ],
  "materials" : [
    {
      "name" : "MI_ENV_KNVLLG_House_Distance_C",
      "pbrMetallicRoughness" : {
        "baseColorFactor" : [ 0.3, 0.3, 0.3, 1.0 ],
        "metallicFactor" : 0.1,
        "roughnessFactor" : 0.5
      }
    },
    {
      "name" : "MI_ENV_KNVLLG_House_Distance_A",
      "pbrMetallicRoughness" : {
        "baseColorFactor" : [ 0.9, 0.3, 0.3, 1.0 ],
        "metallicFactor" : 0.1,
        "roughnessFactor" : 0.5
      }
    }
  ],
  "meshes" : [
    {
      "primitives" : [
        {
          "attributes" : {
            "POSITION" : 1,
            "NORMAL" : 2,
            "TANGENT" : 3,
            "TEXCOORD_0" : 4,
            "TEXCOORD_1" : 5,
            "TEXCOORD_2" : 6,
            "TEXCOORD_3" : 7
          },
          "indices" : 0,
          "material" : 0
        },
        {
          "attributes" : {
            "POSITION" : 9,
            "NORMAL" : 10,
            "TANGENT" : 11,
            "TEXCOORD_0" : 12,
            "TEXCOORD_1" : 13,
            "TEXCOORD_2" : 14,
            "TEXCOORD_3" : 15
          },
          "indices" : 8,
          "material" : 1
        }
      ],
      "name" : "SM_ENV_KNVLLG03_House_Distance_C"
    }
  ],
  "buffers" : [
    {
      "uri" : "SM_ENV_KNVLLG03_House_Distance_C.bin",
      "byteLength" : 504704
    }
  ],
  "bufferViews" : [
    {
      "buffer" : 0,
      "byteOffset" : 0,
      "byteLength" : 13116
    },
    {
      "buffer" : 0,
      "byteOffset" : 13116,
      "byteLength" : 53352
    },
    {
      "buffer" : 0,
      "byteOffset" : 66468,
      "byteLength" : 53352
    },
    {
      "buffer" : 0,
      "byteOffset" : 119820,
      "byteLength" : 71136
    },
    {
      "buffer" : 0,
      "byteOffset" : 190956,
      "byteLength" : 35568
    },
    {
      "buffer" : 0,
      "byteOffset" : 226524,
      "byteLength" : 35568
    },
    {
      "buffer" : 0,
      "byteOffset" : 262092,
      "byteLength" : 35568
    },
    {
      "buffer" : 0,
      "byteOffset" : 297660,
      "byteLength" : 35568
    },
    {
      "buffer" : 0,
      "byteOffset" : 333228,
      "byteLength" : 6668
    },
    {
      "buffer" : 0,
      "byteOffset" : 339896,
      "byteLength" : 27468
    },
    {
      "buffer" : 0,
      "byteOffset" : 367364,
      "byteLength" : 27468
    },
    {
      "buffer" : 0,
      "byteOffset" : 394832,
      "byteLength" : 36624
    },
    {
      "buffer" : 0,
      "byteOffset" : 431456,
      "byteLength" : 18312
    },
    {
      "buffer" : 0,
      "byteOffset" : 449768,
      "byteLength" : 18312
    },
    {
      "buffer" : 0,
      "byteOffset" : 468080,
      "byteLength" : 18312
    },
    {
      "buffer" : 0,
      "byteOffset" : 486392,
      "byteLength" : 18312
    }
  ],
  "accessors" : [
    {
      "bufferView" : 0,
      "componentType" : 5123,
      "count" : 6558,
      "type" : "SCALAR"
    },
    {
      "bufferView" : 1,
      "min" : [ -642.713, -0.389559, -155.071 ],
      "max" : [ -132.086, 21.2407, 160.147 ],
      "componentType" : 5126,
      "count" : 4446,
      "type" : "VEC3"
    },
    {
      "bufferView" : 2,
      "componentType" : 5126,
      "count" : 4446,
      "type" : "VEC3"
    },
    {
      "bufferView" : 3,
      "componentType" : 5126,
      "count" : 4446,
      "type" : "VEC4"
    },
    {
      "bufferView" : 4,
      "componentType" : 5126,
      "count" : 4446,
      "type" : "VEC2"
    },
    {
      "bufferView" : 5,
      "componentType" : 5126,
      "count" : 4446,
      "type" : "VEC2"
    },
    {
      "bufferView" : 6,
      "componentType" : 5126,
      "count" : 4446,
      "type" : "VEC2"
    },
    {
      "bufferView" : 7,
      "componentType" : 5126,
      "count" : 4446,
      "type" : "VEC2"
    },
    {
      "bufferView" : 8,
      "componentType" : 5123,
      "count" : 3333,
      "type" : "SCALAR"
    },
    {
      "bufferView" : 9,
      "min" : [ -638.086, -0.36816, -51.7456 ],
      "max" : [ -138.106, 20.9705, 158.655 ],
      "componentType" : 5126,
      "count" : 2289,
      "type" : "VEC3"
    },
    {
      "bufferView" : 10,
      "componentType" : 5126,
      "count" : 2289,
      "type" : "VEC3"
    },
    {
      "bufferView" : 11,
      "componentType" : 5126,
      "count" : 2289,
      "type" : "VEC4"
    },
    {
      "bufferView" : 12,
      "componentType" : 5126,
      "count" : 2289,
      "type" : "VEC2"
    },
    {
      "bufferView" : 13,
      "componentType" : 5126,
      "count" : 2289,
      "type" : "VEC2"
    },
    {
      "bufferView" : 14,
      "componentType" : 5126,
      "count" : 2289,
      "type" : "VEC2"
    },
    {
      "bufferView" : 15,
      "componentType" : 5126,
      "count" : 2289,
      "type" : "VEC2"
    }
  ]
}
