{
  "asset" : {
    "generator" : "UE Viewer (umodel) build 1544 based",
    "version" : "2.0"
  },
  "scene" : 0,
  "scenes" : [
    {
      "nodes" : [ 0 ]
    }
  ],
  "nodes" : [
    {
      "name" : "SM_ENV_KNVLLG03_AreaC_BuildingA",
      "mesh" : 0
    }
  ],
  "materials" : [
    {
      "name" : "MI_ENV_LKNVLD_WoodPillar_A",
      "pbrMetallicRoughness" : {
        "baseColorFactor" : [ 0.3, 0.3, 0.3, 1.0 ],
        "metallicFactor" : 0.1,
        "roughnessFactor" : 0.5
      }
    },
    {
      "name" : "MI_ENV_LKNVLD_ConcreteFloor_C",
      "pbrMetallicRoughness" : {
        "baseColorFactor" : [ 0.9, 0.3, 0.3, 1.0 ],
        "metallicFactor" : 0.1,
        "roughnessFactor" : 0.5
      }
    },
    {
      "name" : "MI_ENV_LKNVLD_WoodWindows_E",
      "pbrMetallicRoughness" : {
        "baseColorFactor" : [ 0.3, 0.9, 0.3, 1.0 ],
        "metallicFactor" : 0.1,
        "roughnessFactor" : 0.5
      }
    },
    {
      "name" : "MI_ENV_LKNVLD03_RoofTiles",
      "pbrMetallicRoughness" : {
        "baseColorFactor" : [ 0.3, 0.3, 0.9, 1.0 ],
        "metallicFactor" : 0.1,
        "roughnessFactor" : 0.5
      }
    },
    {
      "name" : "MI_ENV_LKNVLD_Roof_C",
      "pbrMetallicRoughness" : {
        "baseColorFactor" : [ 0.9, 0.9, 0.9, 1.0 ],
        "metallicFactor" : 0.1,
        "roughnessFactor" : 0.5
      }
    },
    {
      "name" : "MI_ENV_LKNVLD_Lantern_B",
      "pbrMetallicRoughness" : {
        "baseColorFactor" : [ 0.9, 0.9, 0.3, 1.0 ],
        "metallicFactor" : 0.1,
        "roughnessFactor" : 0.5
      }
    },
    {
      "name" : "MI_ENV_LKNVLD03_WoodPillar_D",
      "pbrMetallicRoughness" : {
        "baseColorFactor" : [ 0.9, 0.3, 0.9, 1.0 ],
        "metallicFactor" : 0.1,
        "roughnessFactor" : 0.5
      }
    },
    {
      "name" : "MI_ENV_LKNVLD_Pipe_D",
      "pbrMetallicRoughness" : {
        "baseColorFactor" : [ 0.3, 0.9, 0.9, 1.0 ],
        "metallicFactor" : 0.1,
        "roughnessFactor" : 0.5
      }
    },
    {
      "name" : "MI_T_ENV_LKNVLD_StoneTrim",
      "pbrMetallicRoughness" : {
        "baseColorFactor" : [ 1, 0.3, 0.3, 1.0 ],
        "metallicFactor" : 0.1,
        "roughnessFactor" : 0.5
      }
    },
    {
      "name" : "MI_ENV_LKNVLD_RoughTiles",
      "pbrMetallicRoughness" : {
        "baseColorFactor" : [ 0.6, 0.3, 0.3, 1.0 ],
        "metallicFactor" : 0.1,
        "roughnessFactor" : 0.5
      }
    },
    {
      "name" : "MI_T_ENV_LKNVLD_StoneStairs",
      "pbrMetallicRoughness" : {
        "baseColorFactor" : [ 1, 0.9, 0.3, 1.0 ],
        "metallicFactor" : 0.1,
        "roughnessFactor" : 0.5
      }
    },
    {
      "name" : "MI_ENV_LKNVLD_Woodwall_A",
      "pbrMetallicRoughness" : {
        "baseColorFactor" : [ 1, 0.3, 0.9, 1.0 ],
        "metallicFactor" : 0.1,
        "roughnessFactor" : 0.5
      }
    },
    {
      "name" : "MI_ENV_LKNVLD_ConcreteWall_K",
      "pbrMetallicRoughness" : {
        "baseColorFactor" : [ 0.6, 0.9, 0.9, 1.0 ],
        "metallicFactor" : 0.1,
        "roughnessFactor" : 0.5
      }
    },
    {
      "name" : "MI_ENV_LKNVLD_ClanSignboard_K",
      "pbrMetallicRoughness" : {
        "baseColorFactor" : [ 0.6, 0.9, 0.3, 1.0 ],
        "metallicFactor" : 0.1,
        "roughnessFactor" : 0.5
      }
    },
    {
      "name" : "MI_ENV_LKNVLD_WoodPillar_B",
      "pbrMetallicRoughness" : {
        "baseColorFactor" : [ 0.6, 0.3, 0.9, 1.0 ],
        "metallicFactor" : 0.1,
        "roughnessFactor" : 0.5
      }
    },
    {
      "name" : "MI_ENV_LKNVLD_Door_C",
      "pbrMetallicRoughness" : {
        "baseColorFactor" : [ 1, 0.9, 0.9, 1.0 ],
        "metallicFactor" : 0.1,
        "roughnessFactor" : 0.5
      }
    },
    {
      "name" : "MI_ENV_LKNVLD_WoodWindows_F",
      "pbrMetallicRoughness" : {
        "baseColorFactor" : [ 0.3, 1, 0.3, 1.0 ],
        "metallicFactor" : 0.1,
        "roughnessFactor" : 0.5
      }
    }
  ],
  "meshes" : [
    {
      "primitives" : [
        {
          "attributes" : {
            "POSITION" : 1,
            "NORMAL" : 2,
            "TANGENT" : 3,
            "COLOR_0" : 4,
            "TEXCOORD_0" : 5,
            "TEXCOORD_1" : 6,
            "TEXCOORD_2" : 7,
            "TEXCOORD_3" : 8
          },
          "indices" : 0,
          "material" : 0
        },
        {
          "attributes" : {
            "POSITION" : 10,
            "NORMAL" : 11,
            "TANGENT" : 12,
            "COLOR_0" : 13,
            "TEXCOORD_0" : 14,
            "TEXCOORD_1" : 15,
            "TEXCOORD_2" : 16,
            "TEXCOORD_3" : 17
          },
          "indices" : 9,
          "material" : 1
        },
        {
          "attributes" : {
            "POSITION" : 19,
            "NORMAL" : 20,
            "TANGENT" : 21,
            "COLOR_0" : 22,
            "TEXCOORD_0" : 23,
            "TEXCOORD_1" : 24,
            "TEXCOORD_2" : 25,
            "TEXCOORD_3" : 26
          },
          "indices" : 18,
          "material" : 2
        },
        {
          "attributes" : {
            "POSITION" : 28,
            "NORMAL" : 29,
            "TANGENT" : 30,
            "COLOR_0" : 31,
            "TEXCOORD_0" : 32,
            "TEXCOORD_1" : 33,
            "TEXCOORD_2" : 34,
            "TEXCOORD_3" : 35
          },
          "indices" : 27,
          "material" : 3
        },
        {
          "attributes" : {
            "POSITION" : 37,
            "NORMAL" : 38,
            "TANGENT" : 39,
            "COLOR_0" : 40,
            "TEXCOORD_0" : 41,
            "TEXCOORD_1" : 42,
            "TEXCOORD_2" : 43,
            "TEXCOORD_3" : 44
          },
          "indices" : 36,
          "material" : 4
        },
        {
          "attributes" : {
            "POSITION" : 46,
            "NORMAL" : 47,
            "TANGENT" : 48,
            "COLOR_0" : 49,
            "TEXCOORD_0" : 50,
            "TEXCOORD_1" : 51,
            "TEXCOORD_2" : 52,
            "TEXCOORD_3" : 53
          },
          "indices" : 45,
          "material" : 5
        },
        {
          "attributes" : {
            "POSITION" : 55,
            "NORMAL" : 56,
            "TANGENT" : 57,
            "COLOR_0" : 58,
            "TEXCOORD_0" : 59,
            "TEXCOORD_1" : 60,
            "TEXCOORD_2" : 61,
            "TEXCOORD_3" : 62
          },
          "indices" : 54,
          "material" : 6
        },
        {
          "attributes" : {
            "POSITION" : 64,
            "NORMAL" : 65,
            "TANGENT" : 66,
            "COLOR_0" : 67,
            "TEXCOORD_0" : 68,
            "TEXCOORD_1" : 69,
            "TEXCOORD_2" : 70,
            "TEXCOORD_3" : 71
          },
          "indices" : 63,
          "material" : 7
        },
        {
          "attributes" : {
            "POSITION" : 73,
            "NORMAL" : 74,
            "TANGENT" : 75,
            "COLOR_0" : 76,
            "TEXCOORD_0" : 77,
            "TEXCOORD_1" : 78,
            "TEXCOORD_2" : 79,
            "TEXCOORD_3" : 80
          },
          "indices" : 72,
          "material" : 8
        },
        {
          "attributes" : {
            "POSITION" : 82,
            "NORMAL" : 83,
            "TANGENT" : 84,
            "COLOR_0" : 85,
            "TEXCOORD_0" : 86,
            "TEXCOORD_1" : 87,
            "TEXCOORD_2" : 88,
            "TEXCOORD_3" : 89
          },
          "indices" : 81,
          "material" : 9
        },
        {
          "attributes" : {
            "POSITION" : 91,
            "NORMAL" : 92,
            "TANGENT" : 93,
            "COLOR_0" : 94,
            "TEXCOORD_0" : 95,
            "TEXCOORD_1" : 96,
            "TEXCOORD_2" : 97,
            "TEXCOORD_3" : 98
          },
          "indices" : 90,
          "material" : 10
        },
        {
          "attributes" : {
            "POSITION" : 100,
            "NORMAL" : 101,
            "TANGENT" : 102,
            "COLOR_0" : 103,
            "TEXCOORD_0" : 104,
            "TEXCOORD_1" : 105,
            "TEXCOORD_2" : 106,
            "TEXCOORD_3" : 107
          },
          "indices" : 99,
          "material" : 11
        },
        {
          "attributes" : {
            "POSITION" : 109,
            "NORMAL" : 110,
            "TANGENT" : 111,
            "COLOR_0" : 112,
            "TEXCOORD_0" : 113,
            "TEXCOORD_1" : 114,
            "TEXCOORD_2" : 115,
            "TEXCOORD_3" : 116
          },
          "indices" : 108,
          "material" : 12
        },
        {
          "attributes" : {
            "POSITION" : 118,
            "NORMAL" : 119,
            "TANGENT" : 120,
            "COLOR_0" : 121,
            "TEXCOORD_0" : 122,
            "TEXCOORD_1" : 123,
            "TEXCOORD_2" : 124,
            "TEXCOORD_3" : 125
          },
          "indices" : 117,
          "material" : 13
        },
        {
          "attributes" : {
            "POSITION" : 127,
            "NORMAL" : 128,
            "TANGENT" : 129,
            "COLOR_0" : 130,
            "TEXCOORD_0" : 131,
            "TEXCOORD_1" : 132,
            "TEXCOORD_2" : 133,
            "TEXCOORD_3" : 134
          },
          "indices" : 126,
          "material" : 14
        },
        {
          "attributes" : {
            "POSITION" : 136,
            "NORMAL" : 137,
            "TANGENT" : 138,
            "COLOR_0" : 139,
            "TEXCOORD_0" : 140,
            "TEXCOORD_1" : 141,
            "TEXCOORD_2" : 142,
            "TEXCOORD_3" : 143
          },
          "indices" : 135,
          "material" : 15
        },
        {
          "attributes" : {
            "POSITION" : 145,
            "NORMAL" : 146,
            "TANGENT" : 147,
            "COLOR_0" : 148,
            "TEXCOORD_0" : 149,
            "TEXCOORD_1" : 150,
            "TEXCOORD_2" : 151,
            "TEXCOORD_3" : 152
          },
          "indices" : 144,
          "material" : 16
        }
      ],
      "name" : "SM_ENV_KNVLLG03_AreaC_BuildingA"
    }
  ],
  "buffers" : [
    {
      "uri" : "SM_ENV_KNVLLG03_AreaC_BuildingA.bin",
      "byteLength" : 1375452
    }
  ],
  "bufferViews" : [
    {
      "buffer" : 0,
      "byteOffset" : 0,
      "byteLength" : 21024
    },
    {
      "buffer" : 0,
      "byteOffset" : 21024,
      "byteLength" : 81924
    },
    {
      "buffer" : 0,
      "byteOffset" : 102948,
      "byteLength" : 81924
    },
    {
      "buffer" : 0,
      "byteOffset" : 184872,
      "byteLength" : 109232
    },
    {
      "buffer" : 0,
      "byteOffset" : 294104,
      "byteLength" : 27308
    },
    {
      "buffer" : 0,
      "byteOffset" : 321412,
      "byteLength" : 54616
    },
    {
      "buffer" : 0,
      "byteOffset" : 376028,
      "byteLength" : 54616
    },
    {
      "buffer" : 0,
      "byteOffset" : 430644,
      "byteLength" : 54616
    },
    {
      "buffer" : 0,
      "byteOffset" : 485260,
      "byteLength" : 54616
    },
    {
      "buffer" : 0,
      "byteOffset" : 539876,
      "byteLength" : 120
    },
    {
      "buffer" : 0,
      "byteOffset" : 539996,
      "byteLength" : 432
    },
    {
      "buffer" : 0,
      "byteOffset" : 540428,
      "byteLength" : 432
    },
    {
      "buffer" : 0,
      "byteOffset" : 540860,
      "byteLength" : 576
    },
    {
      "buffer" : 0,
      "byteOffset" : 541436,
      "byteLength" : 144
    },
    {
      "buffer" : 0,
      "byteOffset" : 541580,
      "byteLength" : 288
    },
    {
      "buffer" : 0,
      "byteOffset" : 541868,
      "byteLength" : 288
    },
    {
      "buffer" : 0,
      "byteOffset" : 542156,
      "byteLength" : 288
    },
    {
      "buffer" : 0,
      "byteOffset" : 542444,
      "byteLength" : 288
    },
    {
      "buffer" : 0,
      "byteOffset" : 542732,
      "byteLength" : 312
    },
    {
      "buffer" : 0,
      "byteOffset" : 543044,
      "byteLength" : 1248
    },
    {
      "buffer" : 0,
      "byteOffset" : 544292,
      "byteLength" : 1248
    },
    {
      "buffer" : 0,
      "byteOffset" : 545540,
      "byteLength" : 1664
    },
    {
      "buffer" : 0,
      "byteOffset" : 547204,
      "byteLength" : 416
    },
    {
      "buffer" : 0,
      "byteOffset" : 547620,
      "byteLength" : 832
    },
    {
      "buffer" : 0,
      "byteOffset" : 548452,
      "byteLength" : 832
    },
    {
      "buffer" : 0,
      "byteOffset" : 549284,
      "byteLength" : 832
    },
    {
      "buffer" : 0,
      "byteOffset" : 550116,
      "byteLength" : 832
    },
    {
      "buffer" : 0,
      "byteOffset" : 550948,
      "byteLength" : 53964
    },
    {
      "buffer" : 0,
      "byteOffset" : 604912,
      "byteLength" : 72684
    },
    {
      "buffer" : 0,
      "byteOffset" : 677596,
      "byteLength" : 72684
    },
    {
      "buffer" : 0,
      "byteOffset" : 750280,
      "byteLength" : 96912
    },
    {
      "buffer" : 0,
      "byteOffset" : 847192,
      "byteLength" : 24228
    },
    {
      "buffer" : 0,
      "byteOffset" : 871420,
      "byteLength" : 48456
    },
    {
      "buffer" : 0,
      "byteOffset" : 919876,
      "byteLength" : 48456
    },
    {
      "buffer" : 0,
      "byteOffset" : 968332,
      "byteLength" : 48456
    },
    {
      "buffer" : 0,
      "byteOffset" : 1016788,
      "byteLength" : 48456
    },
    {
      "buffer" : 0,
      "byteOffset" : 1065244,
      "byteLength" : 348
    },
    {
      "buffer" : 0,
      "byteOffset" : 1065592,
      "byteLength" : 1392
    },
    {
      "buffer" : 0,
      "byteOffset" : 1066984,
      "byteLength" : 1392
    },
    {
      "buffer" : 0,
      "byteOffset" : 1068376,
      "byteLength" : 1856
    },
    {
      "buffer" : 0,
      "byteOffset" : 1070232,
      "byteLength" : 464
    },
    {
      "buffer" : 0,
      "byteOffset" : 1070696,
      "byteLength" : 928
    },
    {
      "buffer" : 0,
      "byteOffset" : 1071624,
      "byteLength" : 928
    },
    {
      "buffer" : 0,
      "byteOffset" : 1072552,
      "byteLength" : 928
    },
    {
      "buffer" : 0,
      "byteOffset" : 1073480,
      "byteLength" : 928
    },
    {
      "buffer" : 0,
      "byteOffset" : 1074408,
      "byteLength" : 6048
    },
    {
      "buffer" : 0,
      "byteOffset" : 1080456,
      "byteLength" : 11712
    },
    {
      "buffer" : 0,
      "byteOffset" : 1092168,
      "byteLength" : 11712
    },
    {
      "buffer" : 0,
      "byteOffset" : 1103880,
      "byteLength" : 15616
    },
    {
      "buffer" : 0,
      "byteOffset" : 1119496,
      "byteLength" : 3904
    },
    {
      "buffer" : 0,
      "byteOffset" : 1123400,
      "byteLength" : 7808
    },
    {
      "buffer" : 0,
      "byteOffset" : 1131208,
      "byteLength" : 7808
    },
    {
      "buffer" : 0,
      "byteOffset" : 1139016,
      "byteLength" : 7808
    },
    {
      "buffer" : 0,
      "byteOffset" : 1146824,
      "byteLength" : 7808
    },
    {
      "buffer" : 0,
      "byteOffset" : 1154632,
      "byteLength" : 3240
    },
    {
      "buffer" : 0,
      "byteOffset" : 1157872,
      "byteLength" : 7776
    },
    {
      "buffer" : 0,
      "byteOffset" : 1165648,
      "byteLength" : 7776
    },
    {
      "buffer" : 0,
      "byteOffset" : 1173424,
      "byteLength" : 10368
    },
    {
      "buffer" : 0,
      "byteOffset" : 1183792,
      "byteLength" : 2592
    },
    {
      "buffer" : 0,
      "byteOffset" : 1186384,
      "byteLength" : 5184
    },
    {
      "buffer" : 0,
      "byteOffset" : 1191568,
      "byteLength" : 5184
    },
    {
      "buffer" : 0,
      "byteOffset" : 1196752,
      "byteLength" : 5184
    },
    {
      "buffer" : 0,
      "byteOffset" : 1201936,
      "byteLength" : 5184
    },
    {
      "buffer" : 0,
      "byteOffset" : 1207120,
      "byteLength" : 9000
    },
    {
      "buffer" : 0,
      "byteOffset" : 1216120,
      "byteLength" : 14160
    },
    {
      "buffer" : 0,
      "byteOffset" : 1230280,
      "byteLength" : 14160
    },
    {
      "buffer" : 0,
      "byteOffset" : 1244440,
      "byteLength" : 18880
    },
    {
      "buffer" : 0,
      "byteOffset" : 1263320,
      "byteLength" : 4720
    },
    {
      "buffer" : 0,
      "byteOffset" : 1268040,
      "byteLength" : 9440
    },
    {
      "buffer" : 0,
      "byteOffset" : 1277480,
      "byteLength" : 9440
    },
    {
      "buffer" : 0,
      "byteOffset" : 1286920,
      "byteLength" : 9440
    },
    {
      "buffer" : 0,
      "byteOffset" : 1296360,
      "byteLength" : 9440
    },
    {
      "buffer" : 0,
      "byteOffset" : 1305800,
      "byteLength" : 84
    },
    {
      "buffer" : 0,
      "byteOffset" : 1305884,
      "byteLength" : 168
    },
    {
      "buffer" : 0,
      "byteOffset" : 1306052,
      "byteLength" : 168
    },
    {
      "buffer" : 0,
      "byteOffset" : 1306220,
      "byteLength" : 224
    },
    {
      "buffer" : 0,
      "byteOffset" : 1306444,
      "byteLength" : 56
    },
    {
      "buffer" : 0,
      "byteOffset" : 1306500,
      "byteLength" : 112
    },
    {
      "buffer" : 0,
      "byteOffset" : 1306612,
      "byteLength" : 112
    },
    {
      "buffer" : 0,
      "byteOffset" : 1306724,
      "byteLength" : 112
    },
    {
      "buffer" : 0,
      "byteOffset" : 1306836,
      "byteLength" : 112
    },
    {
      "buffer" : 0,
      "byteOffset" : 1306948,
      "byteLength" : 1224
    },
    {
      "buffer" : 0,
      "byteOffset" : 1308172,
      "byteLength" : 2352
    },
    {
      "buffer" : 0,
      "byteOffset" : 1310524,
      "byteLength" : 2352
    },
    {
      "buffer" : 0,
      "byteOffset" : 1312876,
      "byteLength" : 3136
    },
    {
      "buffer" : 0,
      "byteOffset" : 1316012,
      "byteLength" : 784
    },
    {
      "buffer" : 0,
      "byteOffset" : 1316796,
      "byteLength" : 1568
    },
    {
      "buffer" : 0,
      "byteOffset" : 1318364,
      "byteLength" : 1568
    },
    {
      "buffer" : 0,
      "byteOffset" : 1319932,
      "byteLength" : 1568
    },
    {
      "buffer" : 0,
      "byteOffset" : 1321500,
      "byteLength" : 1568
    },
    {
      "buffer" : 0,
      "byteOffset" : 1323068,
      "byteLength" : 96
    },
    {
      "buffer" : 0,
      "byteOffset" : 1323164,
      "byteLength" : 288
    },
    {
      "buffer" : 0,
      "byteOffset" : 1323452,
      "byteLength" : 288
    },
    {
      "buffer" : 0,
      "byteOffset" : 1323740,
      "byteLength" : 384
    },
    {
      "buffer" : 0,
      "byteOffset" : 1324124,
      "byteLength" : 96
    },
    {
      "buffer" : 0,
      "byteOffset" : 1324220,
      "byteLength" : 192
    },
    {
      "buffer" : 0,
      "byteOffset" : 1324412,
      "byteLength" : 192
    },
    {
      "buffer" : 0,
      "byteOffset" : 1324604,
      "byteLength" : 192
    },
    {
      "buffer" : 0,
      "byteOffset" : 1324796,
      "byteLength" : 192
    },
    {
      "buffer" : 0,
      "byteOffset" : 1324988,
      "byteLength" : 960
    },
    {
      "buffer" : 0,
      "byteOffset" : 1325948,
      "byteLength" : 2160
    },
    {
      "buffer" : 0,
      "byteOffset" : 1328108,
      "byteLength" : 2160
    },
    {
      "buffer" : 0,
      "byteOffset" : 1330268,
      "byteLength" : 2880
    },
    {
      "buffer" : 0,
      "byteOffset" : 1333148,
      "byteLength" : 720
    },
    {
      "buffer" : 0,
      "byteOffset" : 1333868,
      "byteLength" : 1440
    },
    {
      "buffer" : 0,
      "byteOffset" : 1335308,
      "byteLength" : 1440
    },
    {
      "buffer" : 0,
      "byteOffset" : 1336748,
      "byteLength" : 1440
    },
    {
      "buffer" : 0,
      "byteOffset" : 1338188,
      "byteLength" : 1440
    },
    {
      "buffer" : 0,
      "byteOffset" : 1339628,
      "byteLength" : 2304
    },
    {
      "buffer" : 0,
      "byteOffset" : 1341932,
      "byteLength" : 3888
    },
    {
      "buffer" : 0,
      "byteOffset" : 1345820,
      "byteLength" : 3888
    },
    {
      "buffer" : 0,
      "byteOffset" : 1349708,
      "byteLength" : 5184
    },
    {
      "buffer" : 0,
      "byteOffset" : 1354892,
      "byteLength" : 1296
    },
    {
      "buffer" : 0,
      "byteOffset" : 1356188,
      "byteLength" : 2592
    },
    {
      "buffer" : 0,
      "byteOffset" : 1358780,
      "byteLength" : 2592
    },
    {
      "buffer" : 0,
      "byteOffset" : 1361372,
      "byteLength" : 2592
    },
    {
      "buffer" : 0,
      "byteOffset" : 1363964,
      "byteLength" : 2592
    },
    {
      "buffer" : 0,
      "byteOffset" : 1366556,
      "byteLength" : 96
    },
    {
      "buffer" : 0,
      "byteOffset" : 1366652,
      "byteLength" : 240
    },
    {
      "buffer" : 0,
      "byteOffset" : 1366892,
      "byteLength" : 240
    },
    {
      "buffer" : 0,
      "byteOffset" : 1367132,
      "byteLength" : 320
    },
    {
      "buffer" : 0,
      "byteOffset" : 1367452,
      "byteLength" : 80
    },
    {
      "buffer" : 0,
      "byteOffset" : 1367532,
      "byteLength" : 160
    },
    {
      "buffer" : 0,
      "byteOffset" : 1367692,
      "byteLength" : 160
    },
    {
      "buffer" : 0,
      "byteOffset" : 1367852,
      "byteLength" : 160
    },
    {
      "buffer" : 0,
      "byteOffset" : 1368012,
      "byteLength" : 160
    },
    {
      "buffer" : 0,
      "byteOffset" : 1368172,
      "byteLength" : 240
    },
    {
      "buffer" : 0,
      "byteOffset" : 1368412,
      "byteLength" : 912
    },
    {
      "buffer" : 0,
      "byteOffset" : 1369324,
      "byteLength" : 912
    },
    {
      "buffer" : 0,
      "byteOffset" : 1370236,
      "byteLength" : 1216
    },
    {
      "buffer" : 0,
      "byteOffset" : 1371452,
      "byteLength" : 304
    },
    {
      "buffer" : 0,
      "byteOffset" : 1371756,
      "byteLength" : 608
    },
    {
      "buffer" : 0,
      "byteOffset" : 1372364,
      "byteLength" : 608
    },
    {
      "buffer" : 0,
      "byteOffset" : 1372972,
      "byteLength" : 608
    },
    {
      "buffer" : 0,
      "byteOffset" : 1373580,
      "byteLength" : 608
    },
    {
      "buffer" : 0,
      "byteOffset" : 1374188,
      "byteLength" : 24
    },
    {
      "buffer" : 0,
      "byteOffset" : 1374212,
      "byteLength" : 96
    },
    {
      "buffer" : 0,
      "byteOffset" : 1374308,
      "byteLength" : 96
    },
    {
      "buffer" : 0,
      "byteOffset" : 1374404,
      "byteLength" : 128
    },
    {
      "buffer" : 0,
      "byteOffset" : 1374532,
      "byteLength" : 32
    },
    {
      "buffer" : 0,
      "byteOffset" : 1374564,
      "byteLength" : 64
    },
    {
      "buffer" : 0,
      "byteOffset" : 1374628,
      "byteLength" : 64
    },
    {
      "buffer" : 0,
      "byteOffset" : 1374692,
      "byteLength" : 64
    },
    {
      "buffer" : 0,
      "byteOffset" : 1374756,
      "byteLength" : 64
    },
    {
      "buffer" : 0,
      "byteOffset" : 1374820,
      "byteLength" : 24
    },
    {
      "buffer" : 0,
      "byteOffset" : 1374844,
      "byteLength" : 96
    },
    {
      "buffer" : 0,
      "byteOffset" : 1374940,
      "byteLength" : 96
    },
    {
      "buffer" : 0,
      "byteOffset" : 1375036,
      "byteLength" : 128
    },
    {
      "buffer" : 0,
      "byteOffset" : 1375164,
      "byteLength" : 32
    },
    {
      "buffer" : 0,
      "byteOffset" : 1375196,
      "byteLength" : 64
    },
    {
      "buffer" : 0,
      "byteOffset" : 1375260,
      "byteLength" : 64
    },
    {
      "buffer" : 0,
      "byteOffset" : 1375324,
      "byteLength" : 64
    },
    {
      "buffer" : 0,
      "byteOffset" : 1375388,
      "byteLength" : 64
    }
  ],
  "accessors" : [
    {
      "bufferView" : 0,
      "componentType" : 5123,
      "count" : 10512,
      "type" : "SCALAR"
    },
    {
      "bufferView" : 1,
      "min" : [ -61.6425, 0.34, -67.6335 ],
      "max" : [ -42.7595, 15.2541, -53.5655 ],
      "componentType" : 5126,
      "count" : 6827,
      "type" : "VEC3"
    },
    {
      "bufferView" : 2,
      "componentType" : 5126,
      "count" : 6827,
      "type" : "VEC3"
    },
    {
      "bufferView" : 3,
      "componentType" : 5126,
      "count" : 6827,
      "type" : "VEC4"
    },
    {
      "bufferView" : 4,
      "normalized" : true,
      "componentType" : 5121,
      "count" : 6827,
      "type" : "VEC4"
    },
    {
      "bufferView" : 5,
      "componentType" : 5126,
      "count" : 6827,
      "type" : "VEC2"
    },
    {
      "bufferView" : 6,
      "componentType" : 5126,
      "count" : 6827,
      "type" : "VEC2"
    },
    {
      "bufferView" : 7,
      "componentType" : 5126,
      "count" : 6827,
      "type" : "VEC2"
    },
    {
      "bufferView" : 8,
      "componentType" : 5126,
      "count" : 6827,
      "type" : "VEC2"
    },
    {
      "bufferView" : 9,
      "componentType" : 5123,
      "count" : 60,
      "type" : "SCALAR"
    },
    {
      "bufferView" : 10,
      "min" : [ -59.4, 1.38, -65.4 ],
      "max" : [ -45, 11.2335, -55.8 ],
      "componentType" : 5126,
      "count" : 36,
      "type" : "VEC3"
    },
    {
      "bufferView" : 11,
      "componentType" : 5126,
      "count" : 36,
      "type" : "VEC3"
    },
    {
      "bufferView" : 12,
      "componentType" : 5126,
      "count" : 36,
      "type" : "VEC4"
    },
    {
      "bufferView" : 13,
      "normalized" : true,
      "componentType" : 5121,
      "count" : 36,
      "type" : "VEC4"
    },
    {
      "bufferView" : 14,
      "componentType" : 5126,
      "count" : 36,
      "type" : "VEC2"
    },
    {
      "bufferView" : 15,
      "componentType" : 5126,
      "count" : 36,
      "type" : "VEC2"
    },
    {
      "bufferView" : 16,
      "componentType" : 5126,
      "count" : 36,
      "type" : "VEC2"
    },
    {
      "bufferView" : 17,
      "componentType" : 5126,
      "count" : 36,
      "type" : "VEC2"
    },
    {
      "bufferView" : 18,
      "componentType" : 5123,
      "count" : 156,
      "type" : "SCALAR"
    },
    {
      "bufferView" : 19,
      "min" : [ -59.408, 1.88, -65.408 ],
      "max" : [ -44.992, 10.2495, -55.792 ],
      "componentType" : 5126,
      "count" : 104,
      "type" : "VEC3"
    },
    {
      "bufferView" : 20,
      "componentType" : 5126,
      "count" : 104,
      "type" : "VEC3"
    },
    {
      "bufferView" : 21,
      "componentType" : 5126,
      "count" : 104,
      "type" : "VEC4"
    },
    {
      "bufferView" : 22,
      "normalized" : true,
      "componentType" : 5121,
      "count" : 104,
      "type" : "VEC4"
    },
    {
      "bufferView" : 23,
      "componentType" : 5126,
      "count" : 104,
      "type" : "VEC2"
    },
    {
      "bufferView" : 24,
      "componentType" : 5126,
      "count" : 104,
      "type" : "VEC2"
    },
    {
      "bufferView" : 25,
      "componentType" : 5126,
      "count" : 104,
      "type" : "VEC2"
    },
    {
      "bufferView" : 26,
      "componentType" : 5126,
      "count" : 104,
      "type" : "VEC2"
    },
    {
      "bufferView" : 27,
      "componentType" : 5123,
      "count" : 26982,
      "type" : "SCALAR"
    },
    {
      "bufferView" : 28,
      "min" : [ -61.9692, 4.51166, -67.8831 ],
      "max" : [ -42.4406, 15.7292, -53.3404 ],
      "componentType" : 5126,
      "count" : 6057,
      "type" : "VEC3"
    },
    {
      "bufferView" : 29,
      "componentType" : 5126,
      "count" : 6057,
      "type" : "VEC3"
    },
    {
      "bufferView" : 30,
      "componentType" : 5126,
      "count" : 6057,
      "type" : "VEC4"
    },
    {
      "bufferView" : 31,
      "normalized" : true,
      "componentType" : 5121,
      "count" : 6057,
      "type" : "VEC4"
    },
    {
      "bufferView" : 32,
      "componentType" : 5126,
      "count" : 6057,
      "type" : "VEC2"
    },
    {
      "bufferView" : 33,
      "componentType" : 5126,
      "count" : 6057,
      "type" : "VEC2"
    },
    {
      "bufferView" : 34,
      "componentType" : 5126,
      "count" : 6057,
      "type" : "VEC2"
    },
    {
      "bufferView" : 35,
      "componentType" : 5126,
      "count" : 6057,
      "type" : "VEC2"
    },
    {
      "bufferView" : 36,
      "componentType" : 5123,
      "count" : 174,
      "type" : "SCALAR"
    },
    {
      "bufferView" : 37,
      "min" : [ -61.64, 0.580001, -67.64 ],
      "max" : [ -42.76, 12.0537, -53.568 ],
      "componentType" : 5126,
      "count" : 116,
      "type" : "VEC3"
    },
    {
      "bufferView" : 38,
      "componentType" : 5126,
      "count" : 116,
      "type" : "VEC3"
    },
    {
      "bufferView" : 39,
      "componentType" : 5126,
      "count" : 116,
      "type" : "VEC4"
    },
    {
      "bufferView" : 40,
      "normalized" : true,
      "componentType" : 5121,
      "count" : 116,
      "type" : "VEC4"
    },
    {
      "bufferView" : 41,
      "componentType" : 5126,
      "count" : 116,
      "type" : "VEC2"
    },
    {
      "bufferView" : 42,
      "componentType" : 5126,
      "count" : 116,
      "type" : "VEC2"
    },
    {
      "bufferView" : 43,
      "componentType" : 5126,
      "count" : 116,
      "type" : "VEC2"
    },
    {
      "bufferView" : 44,
      "componentType" : 5126,
      "count" : 116,
      "type" : "VEC2"
    },
    {
      "bufferView" : 45,
      "componentType" : 5123,
      "count" : 3024,
      "type" : "SCALAR"
    },
    {
      "bufferView" : 46,
      "min" : [ -62.2444, 2.58156, -68.178 ],
      "max" : [ -42.3215, 4.4918, -53.0152 ],
      "componentType" : 5126,
      "count" : 976,
      "type" : "VEC3"
    },
    {
      "bufferView" : 47,
      "componentType" : 5126,
      "count" : 976,
      "type" : "VEC3"
    },
    {
      "bufferView" : 48,
      "componentType" : 5126,
      "count" : 976,
      "type" : "VEC4"
    },
    {
      "bufferView" : 49,
      "normalized" : true,
      "componentType" : 5121,
      "count" : 976,
      "type" : "VEC4"
    },
    {
      "bufferView" : 50,
      "componentType" : 5126,
      "count" : 976,
      "type" : "VEC2"
    },
    {
      "bufferView" : 51,
      "componentType" : 5126,
      "count" : 976,
      "type" : "VEC2"
    },
    {
      "bufferView" : 52,
      "componentType" : 5126,
      "count" : 976,
      "type" : "VEC2"
    },
    {
      "bufferView" : 53,
      "componentType" : 5126,
      "count" : 976,
      "type" : "VEC2"
    },
    {
      "bufferView" : 54,
      "componentType" : 5123,
      "count" : 1620,
      "type" : "SCALAR"
    },
    {
      "bufferView" : 55,
      "min" : [ -62.7314, 4.42563, -68.7086 ],
      "max" : [ -41.6506, 16.1654, -52.567 ],
      "componentType" : 5126,
      "count" : 648,
      "type" : "VEC3"
    },
    {
      "bufferView" : 56,
      "componentType" : 5126,
      "count" : 648,
      "type" : "VEC3"
    },
    {
      "bufferView" : 57,
      "componentType" : 5126,
      "count" : 648,
      "type" : "VEC4"
    },
    {
      "bufferView" : 58,
      "normalized" : true,
      "componentType" : 5121,
      "count" : 648,
      "type" : "VEC4"
    },
    {
      "bufferView" : 59,
      "componentType" : 5126,
      "count" : 648,
      "type" : "VEC2"
    },
    {
      "bufferView" : 60,
      "componentType" : 5126,
      "count" : 648,
      "type" : "VEC2"
    },
    {
      "bufferView" : 61,
      "componentType" : 5126,
      "count" : 648,
      "type" : "VEC2"
    },
    {
      "bufferView" : 62,
      "componentType" : 5126,
      "count" : 648,
      "type" : "VEC2"
    },
    {
      "bufferView" : 63,
      "componentType" : 5123,
      "count" : 4500,
      "type" : "SCALAR"
    },
    {
      "bufferView" : 64,
      "min" : [ -59.8784, 6.10494, -65.9782 ],
      "max" : [ -44.4138, 13.1957, -54.9615 ],
      "componentType" : 5126,
      "count" : 1180,
      "type" : "VEC3"
    },
    {
      "bufferView" : 65,
      "componentType" : 5126,
      "count" : 1180,
      "type" : "VEC3"
    },
    {
      "bufferView" : 66,
      "componentType" : 5126,
      "count" : 1180,
      "type" : "VEC4"
    },
    {
      "bufferView" : 67,
      "normalized" : true,
      "componentType" : 5121,
      "count" : 1180,
      "type" : "VEC4"
    },
    {
      "bufferView" : 68,
      "componentType" : 5126,
      "count" : 1180,
      "type" : "VEC2"
    },
    {
      "bufferView" : 69,
      "componentType" : 5126,
      "count" : 1180,
      "type" : "VEC2"
    },
    {
      "bufferView" : 70,
      "componentType" : 5126,
      "count" : 1180,
      "type" : "VEC2"
    },
    {
      "bufferView" : 71,
      "componentType" : 5126,
      "count" : 1180,
      "type" : "VEC2"
    },
    {
      "bufferView" : 72,
      "componentType" : 5123,
      "count" : 42,
      "type" : "SCALAR"
    },
    {
      "bufferView" : 73,
      "min" : [ -60.12, 0.339999, -66.84 ],
      "max" : [ -44.28, 0.34, -54.36 ],
      "componentType" : 5126,
      "count" : 14,
      "type" : "VEC3"
    },
    {
      "bufferView" : 74,
      "componentType" : 5126,
      "count" : 14,
      "type" : "VEC3"
    },
    {
      "bufferView" : 75,
      "componentType" : 5126,
      "count" : 14,
      "type" : "VEC4"
    },
    {
      "bufferView" : 76,
      "normalized" : true,
      "componentType" : 5121,
      "count" : 14,
      "type" : "VEC4"
    },
    {
      "bufferView" : 77,
      "componentType" : 5126,
      "count" : 14,
      "type" : "VEC2"
    },
    {
      "bufferView" : 78,
      "componentType" : 5126,
      "count" : 14,
      "type" : "VEC2"
    },
    {
      "bufferView" : 79,
      "componentType" : 5126,
      "count" : 14,
      "type" : "VEC2"
    },
    {
      "bufferView" : 80,
      "componentType" : 5126,
      "count" : 14,
      "type" : "VEC2"
    },
    {
      "bufferView" : 81,
      "componentType" : 5123,
      "count" : 612,
      "type" : "SCALAR"
    },
    {
      "bufferView" : 82,
      "min" : [ -60.52, -0.300003, -67.24 ],
      "max" : [ -43.88, 0.539999, -52.68 ],
      "componentType" : 5126,
      "count" : 196,
      "type" : "VEC3"
    },
    {
      "bufferView" : 83,
      "componentType" : 5126,
      "count" : 196,
      "type" : "VEC3"
    },
    {
      "bufferView" : 84,
      "componentType" : 5126,
      "count" : 196,
      "type" : "VEC4"
    },
    {
      "bufferView" : 85,
      "normalized" : true,
      "componentType" : 5121,
      "count" : 196,
      "type" : "VEC4"
    },
    {
      "bufferView" : 86,
      "componentType" : 5126,
      "count" : 196,
      "type" : "VEC2"
    },
    {
      "bufferView" : 87,
      "componentType" : 5126,
      "count" : 196,
      "type" : "VEC2"
    },
    {
      "bufferView" : 88,
      "componentType" : 5126,
      "count" : 196,
      "type" : "VEC2"
    },
    {
      "bufferView" : 89,
      "componentType" : 5126,
      "count" : 196,
      "type" : "VEC2"
    },
    {
      "bufferView" : 90,
      "componentType" : 5123,
      "count" : 48,
      "type" : "SCALAR"
    },
    {
      "bufferView" : 91,
      "min" : [ -54.36, -0.300001, -54.36 ],
      "max" : [ -50.04, 0.340002, -52.76 ],
      "componentType" : 5126,
      "count" : 24,
      "type" : "VEC3"
    },
    {
      "bufferView" : 92,
      "componentType" : 5126,
      "count" : 24,
      "type" : "VEC3"
    },
    {
      "bufferView" : 93,
      "componentType" : 5126,
      "count" : 24,
      "type" : "VEC4"
    },
    {
      "bufferView" : 94,
      "normalized" : true,
      "componentType" : 5121,
      "count" : 24,
      "type" : "VEC4"
    },
    {
      "bufferView" : 95,
      "componentType" : 5126,
      "count" : 24,
      "type" : "VEC2"
    },
    {
      "bufferView" : 96,
      "componentType" : 5126,
      "count" : 24,
      "type" : "VEC2"
    },
    {
      "bufferView" : 97,
      "componentType" : 5126,
      "count" : 24,
      "type" : "VEC2"
    },
    {
      "bufferView" : 98,
      "componentType" : 5126,
      "count" : 24,
      "type" : "VEC2"
    },
    {
      "bufferView" : 99,
      "componentType" : 5123,
      "count" : 480,
      "type" : "SCALAR"
    },
    {
      "bufferView" : 100,
      "min" : [ -60.04, 0.964, -66.04 ],
      "max" : [ -44.36, 11.2889, -55.16 ],
      "componentType" : 5126,
      "count" : 180,
      "type" : "VEC3"
    },
    {
      "bufferView" : 101,
      "componentType" : 5126,
      "count" : 180,
      "type" : "VEC3"
    },
    {
      "bufferView" : 102,
      "componentType" : 5126,
      "count" : 180,
      "type" : "VEC4"
    },
    {
      "bufferView" : 103,
      "normalized" : true,
      "componentType" : 5121,
      "count" : 180,
      "type" : "VEC4"
    },
    {
      "bufferView" : 104,
      "componentType" : 5126,
      "count" : 180,
      "type" : "VEC2"
    },
    {
      "bufferView" : 105,
      "componentType" : 5126,
      "count" : 180,
      "type" : "VEC2"
    },
    {
      "bufferView" : 106,
      "componentType" : 5126,
      "count" : 180,
      "type" : "VEC2"
    },
    {
      "bufferView" : 107,
      "componentType" : 5126,
      "count" : 180,
      "type" : "VEC2"
    },
    {
      "bufferView" : 108,
      "componentType" : 5123,
      "count" : 1152,
      "type" : "SCALAR"
    },
    {
      "bufferView" : 109,
      "min" : [ -60.08, 0.34, -66.08 ],
      "max" : [ -44.32, 4.09147, -55.12 ],
      "componentType" : 5126,
      "count" : 324,
      "type" : "VEC3"
    },
    {
      "bufferView" : 110,
      "componentType" : 5126,
      "count" : 324,
      "type" : "VEC3"
    },
    {
      "bufferView" : 111,
      "componentType" : 5126,
      "count" : 324,
      "type" : "VEC4"
    },
    {
      "bufferView" : 112,
      "normalized" : true,
      "componentType" : 5121,
      "count" : 324,
      "type" : "VEC4"
    },
    {
      "bufferView" : 113,
      "componentType" : 5126,
      "count" : 324,
      "type" : "VEC2"
    },
    {
      "bufferView" : 114,
      "componentType" : 5126,
      "count" : 324,
      "type" : "VEC2"
    },
    {
      "bufferView" : 115,
      "componentType" : 5126,
      "count" : 324,
      "type" : "VEC2"
    },
    {
      "bufferView" : 116,
      "componentType" : 5126,
      "count" : 324,
      "type" : "VEC2"
    },
    {
      "bufferView" : 117,
      "componentType" : 5123,
      "count" : 48,
      "type" : "SCALAR"
    },
    {
      "bufferView" : 118,
      "min" : [ -55.0248, 1.34849, -55.3186 ],
      "max" : [ -49.3752, 3.07816, -55.144 ],
      "componentType" : 5126,
      "count" : 20,
      "type" : "VEC3"
    },
    {
      "bufferView" : 119,
      "componentType" : 5126,
      "count" : 20,
      "type" : "VEC3"
    },
    {
      "bufferView" : 120,
      "componentType" : 5126,
      "count" : 20,
      "type" : "VEC4"
    },
    {
      "bufferView" : 121,
      "normalized" : true,
      "componentType" : 5121,
      "count" : 20,
      "type" : "VEC4"
    },
    {
      "bufferView" : 122,
      "componentType" : 5126,
      "count" : 20,
      "type" : "VEC2"
    },
    {
      "bufferView" : 123,
      "componentType" : 5126,
      "count" : 20,
      "type" : "VEC2"
    },
    {
      "bufferView" : 124,
      "componentType" : 5126,
      "count" : 20,
      "type" : "VEC2"
    },
    {
      "bufferView" : 125,
      "componentType" : 5126,
      "count" : 20,
      "type" : "VEC2"
    },
    {
      "bufferView" : 126,
      "componentType" : 5123,
      "count" : 120,
      "type" : "SCALAR"
    },
    {
      "bufferView" : 127,
      "min" : [ -53.48, 0.58, -55.8 ],
      "max" : [ -50.92, 3.3, -55.76 ],
      "componentType" : 5126,
      "count" : 76,
      "type" : "VEC3"
    },
    {
      "bufferView" : 128,
      "componentType" : 5126,
      "count" : 76,
      "type" : "VEC3"
    },
    {
      "bufferView" : 129,
      "componentType" : 5126,
      "count" : 76,
      "type" : "VEC4"
    },
    {
      "bufferView" : 130,
      "normalized" : true,
      "componentType" : 5121,
      "count" : 76,
      "type" : "VEC4"
    },
    {
      "bufferView" : 131,
      "componentType" : 5126,
      "count" : 76,
      "type" : "VEC2"
    },
    {
      "bufferView" : 132,
      "componentType" : 5126,
      "count" : 76,
      "type" : "VEC2"
    },
    {
      "bufferView" : 133,
      "componentType" : 5126,
      "count" : 76,
      "type" : "VEC2"
    },
    {
      "bufferView" : 134,
      "componentType" : 5126,
      "count" : 76,
      "type" : "VEC2"
    },
    {
      "bufferView" : 135,
      "componentType" : 5123,
      "count" : 12,
      "type" : "SCALAR"
    },
    {
      "bufferView" : 136,
      "min" : [ -53.4, 0.660001, -55.8 ],
      "max" : [ -51, 3.22, -55.8 ],
      "componentType" : 5126,
      "count" : 8,
      "type" : "VEC3"
    },
    {
      "bufferView" : 137,
      "componentType" : 5126,
      "count" : 8,
      "type" : "VEC3"
    },
    {
      "bufferView" : 138,
      "componentType" : 5126,
      "count" : 8,
      "type" : "VEC4"
    },
    {
      "bufferView" : 139,
      "normalized" : true,
      "componentType" : 5121,
      "count" : 8,
      "type" : "VEC4"
    },
    {
      "bufferView" : 140,
      "componentType" : 5126,
      "count" : 8,
      "type" : "VEC2"
    },
    {
      "bufferView" : 141,
      "componentType" : 5126,
      "count" : 8,
      "type" : "VEC2"
    },
    {
      "bufferView" : 142,
      "componentType" : 5126,
      "count" : 8,
      "type" : "VEC2"
    },
    {
      "bufferView" : 143,
      "componentType" : 5126,
      "count" : 8,
      "type" : "VEC2"
    },
    {
      "bufferView" : 144,
      "componentType" : 5123,
      "count" : 12,
      "type" : "SCALAR"
    },
    {
      "bufferView" : 145,
      "min" : [ -56.3481, 13.4807, -62.0675 ],
      "max" : [ -48.0519, 15.1332, -59.1338 ],
      "componentType" : 5126,
      "count" : 8,
      "type" : "VEC3"
    },
    {
      "bufferView" : 146,
      "componentType" : 5126,
      "count" : 8,
      "type" : "VEC3"
    },
    {
      "bufferView" : 147,
      "componentType" : 5126,
      "count" : 8,
      "type" : "VEC4"
    },
    {
      "bufferView" : 148,
      "normalized" : true,
      "componentType" : 5121,
      "count" : 8,
      "type" : "VEC4"
    },
    {
      "bufferView" : 149,
      "componentType" : 5126,
      "count" : 8,
      "type" : "VEC2"
    },
    {
      "bufferView" : 150,
      "componentType" : 5126,
      "count" : 8,
      "type" : "VEC2"
    },
    {
      "bufferView" : 151,
      "componentType" : 5126,
      "count" : 8,
      "type" : "VEC2"
    },
    {
      "bufferView" : 152,
      "componentType" : 5126,
      "count" : 8,
      "type" : "VEC2"
    }
  ]
}
