{
  "asset" : {
    "generator" : "UE Viewer (umodel) build 1544 based",
    "version" : "2.0"
  },
  "scene" : 0,
  "scenes" : [
    {
      "nodes" : [ 0 ]
    }
  ],
  "nodes" : [
    {
      "name" : "SM_ENV_LKNVLD03_CommonBuilding_F",
      "mesh" : 0
    }
  ],
  "materials" : [
    {
      "name" : "MI_ENV_LKNVLD_CommonBuilding_B",
      "pbrMetallicRoughness" : {
        "baseColorFactor" : [ 0.3, 0.3, 0.3, 1.0 ],
        "metallicFactor" : 0.1,
        "roughnessFactor" : 0.5
      }
    },
    {
      "name" : "MI_ENV_LKNVLD_Windows_A",
      "pbrMetallicRoughness" : {
        "baseColorFactor" : [ 0.9, 0.3, 0.3, 1.0 ],
        "metallicFactor" : 0.1,
        "roughnessFactor" : 0.5
      }
    }
  ],
  "meshes" : [
    {
      "primitives" : [
        {
          "attributes" : {
            "POSITION" : 1,
            "NORMAL" : 2,
            "TANGENT" : 3,
            "TEXCOORD_0" : 4,
            "TEXCOORD_1" : 5,
            "TEXCOORD_2" : 6,
            "TEXCOORD_3" : 7
          },
          "indices" : 0,
          "material" : 0
        },
        {
          "attributes" : {
            "POSITION" : 9,
            "NORMAL" : 10,
            "TANGENT" : 11,
            "TEXCOORD_0" : 12,
            "TEXCOORD_1" : 13,
            "TEXCOORD_2" : 14,
            "TEXCOORD_3" : 15
          },
          "indices" : 8,
          "material" : 1
        }
      ],
      "name" : "SM_ENV_LKNVLD03_CommonBuilding_F"
    }
  ],
  "buffers" : [
    {
      "uri" : "SM_ENV_LKNVLD03_CommonBuilding_F.bin",
      "byteLength" : 359936
    }
  ],
  "bufferViews" : [
    {
      "buffer" : 0,
      "byteOffset" : 0,
      "byteLength" : 18260
    },
    {
      "buffer" : 0,
      "byteOffset" : 18260,
      "byteLength" : 52896
    },
    {
      "buffer" : 0,
      "byteOffset" : 71156,
      "byteLength" : 52896
    },
    {
      "buffer" : 0,
      "byteOffset" : 124052,
      "byteLength" : 70528
    },
    {
      "buffer" : 0,
      "byteOffset" : 194580,
      "byteLength" : 35264
    },
    {
      "buffer" : 0,
      "byteOffset" : 229844,
      "byteLength" : 35264
    },
    {
      "buffer" : 0,
      "byteOffset" : 265108,
      "byteLength" : 35264
    },
    {
      "buffer" : 0,
      "byteOffset" : 300372,
      "byteLength" : 35264
    },
    {
      "buffer" : 0,
      "byteOffset" : 335636,
      "byteLength" : 972
    },
    {
      "buffer" : 0,
      "byteOffset" : 336608,
      "byteLength" : 3888
    },
    {
      "buffer" : 0,
      "byteOffset" : 340496,
      "byteLength" : 3888
    },
    {
      "buffer" : 0,
      "byteOffset" : 344384,
      "byteLength" : 5184
    },
    {
      "buffer" : 0,
      "byteOffset" : 349568,
      "byteLength" : 2592
    },
    {
      "buffer" : 0,
      "byteOffset" : 352160,
      "byteLength" : 2592
    },
    {
      "buffer" : 0,
      "byteOffset" : 354752,
      "byteLength" : 2592
    },
    {
      "buffer" : 0,
      "byteOffset" : 357344,
      "byteLength" : 2592
    }
  ],
  "accessors" : [
    {
      "bufferView" : 0,
      "componentType" : 5123,
      "count" : 9129,
      "type" : "SCALAR"
    },
    {
      "bufferView" : 1,
      "min" : [ -14.6854, -9.83626e-06, -8 ],
      "max" : [ 14.6044, 37.3324, 9.84035 ],
      "componentType" : 5126,
      "count" : 4408,
      "type" : "VEC3"
    },
    {
      "bufferView" : 2,
      "componentType" : 5126,
      "count" : 4408,
      "type" : "VEC3"
    },
    {
      "bufferView" : 3,
      "componentType" : 5126,
      "count" : 4408,
      "type" : "VEC4"
    },
    {
      "bufferView" : 4,
      "componentType" : 5126,
      "count" : 4408,
      "type" : "VEC2"
    },
    {
      "bufferView" : 5,
      "componentType" : 5126,
      "count" : 4408,
      "type" : "VEC2"
    },
    {
      "bufferView" : 6,
      "componentType" : 5126,
      "count" : 4408,
      "type" : "VEC2"
    },
    {
      "bufferView" : 7,
      "componentType" : 5126,
      "count" : 4408,
      "type" : "VEC2"
    },
    {
      "bufferView" : 8,
      "componentType" : 5123,
      "count" : 486,
      "type" : "SCALAR"
    },
    {
      "bufferView" : 9,
      "min" : [ -14.0637, 8.04552, -6.59921 ],
      "max" : [ 14.0637, 29, 8.57513 ],
      "componentType" : 5126,
      "count" : 324,
      "type" : "VEC3"
    },
    {
      "bufferView" : 10,
      "componentType" : 5126,
      "count" : 324,
      "type" : "VEC3"
    },
    {
      "bufferView" : 11,
      "componentType" : 5126,
      "count" : 324,
      "type" : "VEC4"
    },
    {
      "bufferView" : 12,
      "componentType" : 5126,
      "count" : 324,
      "type" : "VEC2"
    },
    {
      "bufferView" : 13,
      "componentType" : 5126,
      "count" : 324,
      "type" : "VEC2"
    },
    {
      "bufferView" : 14,
      "componentType" : 5126,
      "count" : 324,
      "type" : "VEC2"
    },
    {
      "bufferView" : 15,
      "componentType" : 5126,
      "count" : 324,
      "type" : "VEC2"
    }
  ]
}
