{
  "asset" : {
    "generator" : "UE Viewer (umodel) build 1544 based",
    "version" : "2.0"
  },
  "scene" : 0,
  "scenes" : [
    {
      "nodes" : [ 0 ]
    }
  ],
  "nodes" : [
    {
      "name" : "SM_ENV_KNVLLG03_Ground_C",
      "mesh" : 0
    }
  ],
  "materials" : [
    {
      "name" : "MI_ENV_LKNVLD_RoughTiles",
      "pbrMetallicRoughness" : {
        "baseColorFactor" : [ 0.3, 0.3, 0.3, 1.0 ],
        "metallicFactor" : 0.1,
        "roughnessFactor" : 0.5
      }
    },
    {
      "name" : "MI_ENV_LKNVLD03_GroundSoil_A",
      "pbrMetallicRoughness" : {
        "baseColorFactor" : [ 0.9, 0.3, 0.3, 1.0 ],
        "metallicFactor" : 0.1,
        "roughnessFactor" : 0.5
      }
    }
  ],
  "meshes" : [
    {
      "primitives" : [
        {
          "attributes" : {
            "POSITION" : 1,
            "NORMAL" : 2,
            "TANGENT" : 3,
            "COLOR_0" : 4,
            "TEXCOORD_0" : 5,
            "TEXCOORD_1" : 6,
            "TEXCOORD_2" : 7,
            "TEXCOORD_3" : 8
          },
          "indices" : 0,
          "material" : 0
        },
        {
          "attributes" : {
            "POSITION" : 10,
            "NORMAL" : 11,
            "TANGENT" : 12,
            "COLOR_0" : 13,
            "TEXCOORD_0" : 14,
            "TEXCOORD_1" : 15,
            "TEXCOORD_2" : 16,
            "TEXCOORD_3" : 17
          },
          "indices" : 9,
          "material" : 1
        }
      ],
      "name" : "SM_ENV_KNVLLG03_Ground_C"
    }
  ],
  "buffers" : [
    {
      "uri" : "SM_ENV_KNVLLG03_Ground_C.bin",
      "byteLength" : 683928
    }
  ],
  "bufferViews" : [
    {
      "buffer" : 0,
      "byteOffset" : 0,
      "byteLength" : 31224
    },
    {
      "buffer" : 0,
      "byteOffset" : 31224,
      "byteLength" : 42108
    },
    {
      "buffer" : 0,
      "byteOffset" : 73332,
      "byteLength" : 42108
    },
    {
      "buffer" : 0,
      "byteOffset" : 115440,
      "byteLength" : 56144
    },
    {
      "buffer" : 0,
      "byteOffset" : 171584,
      "byteLength" : 14036
    },
    {
      "buffer" : 0,
      "byteOffset" : 185620,
      "byteLength" : 28072
    },
    {
      "buffer" : 0,
      "byteOffset" : 213692,
      "byteLength" : 28072
    },
    {
      "buffer" : 0,
      "byteOffset" : 241764,
      "byteLength" : 28072
    },
    {
      "buffer" : 0,
      "byteOffset" : 269836,
      "byteLength" : 28072
    },
    {
      "buffer" : 0,
      "byteOffset" : 297908,
      "byteLength" : 37256
    },
    {
      "buffer" : 0,
      "byteOffset" : 335164,
      "byteLength" : 55068
    },
    {
      "buffer" : 0,
      "byteOffset" : 390232,
      "byteLength" : 55068
    },
    {
      "buffer" : 0,
      "byteOffset" : 445300,
      "byteLength" : 73424
    },
    {
      "buffer" : 0,
      "byteOffset" : 518724,
      "byteLength" : 18356
    },
    {
      "buffer" : 0,
      "byteOffset" : 537080,
      "byteLength" : 36712
    },
    {
      "buffer" : 0,
      "byteOffset" : 573792,
      "byteLength" : 36712
    },
    {
      "buffer" : 0,
      "byteOffset" : 610504,
      "byteLength" : 36712
    },
    {
      "buffer" : 0,
      "byteOffset" : 647216,
      "byteLength" : 36712
    }
  ],
  "accessors" : [
    {
      "bufferView" : 0,
      "componentType" : 5123,
      "count" : 15612,
      "type" : "SCALAR"
    },
    {
      "bufferView" : 1,
      "min" : [ -66.6901, -0.388347, -60.7756 ],
      "max" : [ -13.2455, 0.117752, -16.2869 ],
      "componentType" : 5126,
      "count" : 3509,
      "type" : "VEC3"
    },
    {
      "bufferView" : 2,
      "componentType" : 5126,
      "count" : 3509,
      "type" : "VEC3"
    },
    {
      "bufferView" : 3,
      "componentType" : 5126,
      "count" : 3509,
      "type" : "VEC4"
    },
    {
      "bufferView" : 4,
      "normalized" : true,
      "componentType" : 5121,
      "count" : 3509,
      "type" : "VEC4"
    },
    {
      "bufferView" : 5,
      "componentType" : 5126,
      "count" : 3509,
      "type" : "VEC2"
    },
    {
      "bufferView" : 6,
      "componentType" : 5126,
      "count" : 3509,
      "type" : "VEC2"
    },
    {
      "bufferView" : 7,
      "componentType" : 5126,
      "count" : 3509,
      "type" : "VEC2"
    },
    {
      "bufferView" : 8,
      "componentType" : 5126,
      "count" : 3509,
      "type" : "VEC2"
    },
    {
      "bufferView" : 9,
      "componentType" : 5123,
      "count" : 18627,
      "type" : "SCALAR"
    },
    {
      "bufferView" : 10,
      "min" : [ -67.0695, -0.376506, -72.2702 ],
      "max" : [ -11.3788, 0.311129, -4.63345 ],
      "componentType" : 5126,
      "count" : 4589,
      "type" : "VEC3"
    },
    {
      "bufferView" : 11,
      "componentType" : 5126,
      "count" : 4589,
      "type" : "VEC3"
    },
    {
      "bufferView" : 12,
      "componentType" : 5126,
      "count" : 4589,
      "type" : "VEC4"
    },
    {
      "bufferView" : 13,
      "normalized" : true,
      "componentType" : 5121,
      "count" : 4589,
      "type" : "VEC4"
    },
    {
      "bufferView" : 14,
      "componentType" : 5126,
      "count" : 4589,
      "type" : "VEC2"
    },
    {
      "bufferView" : 15,
      "componentType" : 5126,
      "count" : 4589,
      "type" : "VEC2"
    },
    {
      "bufferView" : 16,
      "componentType" : 5126,
      "count" : 4589,
      "type" : "VEC2"
    },
    {
      "bufferView" : 17,
      "componentType" : 5126,
      "count" : 4589,
      "type" : "VEC2"
    }
  ]
}
