{
  "asset" : {
    "generator" : "UE Viewer (umodel) build 1544 based",
    "version" : "2.0"
  },
  "scene" : 0,
  "scenes" : [
    {
      "nodes" : [ 0 ]
    }
  ],
  "nodes" : [
    {
      "name" : "SM_ENV_KNVLLG03_AreaC_TreeSet",
      "mesh" : 0
    }
  ],
  "materials" : [
    {
      "name" : "MI_ENV_TCHEXA_LeafMasked_A",
      "pbrMetallicRoughness" : {
        "baseColorFactor" : [ 0.3, 0.3, 0.3, 1.0 ],
        "metallicFactor" : 0.1,
        "roughnessFactor" : 0.5
      }
    },
    {
      "name" : "MI_ENV_TCHEXA_Leaf_A_01",
      "pbrMetallicRoughness" : {
        "baseColorFactor" : [ 0.9, 0.3, 0.3, 1.0 ],
        "metallicFactor" : 0.1,
        "roughnessFactor" : 0.5
      }
    },
    {
      "name" : "MI_ENV_TCHEXA_Tree_A_Masked_CameraTrans",
      "pbrMetallicRoughness" : {
        "baseColorFactor" : [ 0.3, 0.9, 0.3, 1.0 ],
        "metallicFactor" : 0.1,
        "roughnessFactor" : 0.5
      }
    }
  ],
  "meshes" : [
    {
      "primitives" : [
        {
          "attributes" : {
            "POSITION" : 1,
            "NORMAL" : 2,
            "TANGENT" : 3,
            "COLOR_0" : 4,
            "TEXCOORD_0" : 5,
            "TEXCOORD_1" : 6,
            "TEXCOORD_2" : 7,
            "TEXCOORD_3" : 8
          },
          "indices" : 0,
          "material" : 0
        },
        {
          "attributes" : {
            "POSITION" : 10,
            "NORMAL" : 11,
            "TANGENT" : 12,
            "COLOR_0" : 13,
            "TEXCOORD_0" : 14,
            "TEXCOORD_1" : 15,
            "TEXCOORD_2" : 16,
            "TEXCOORD_3" : 17
          },
          "indices" : 9,
          "material" : 1
        },
        {
          "attributes" : {
            "POSITION" : 19,
            "NORMAL" : 20,
            "TANGENT" : 21,
            "COLOR_0" : 22,
            "TEXCOORD_0" : 23,
            "TEXCOORD_1" : 24,
            "TEXCOORD_2" : 25,
            "TEXCOORD_3" : 26
          },
          "indices" : 18,
          "material" : 2
        }
      ],
      "name" : "SM_ENV_KNVLLG03_AreaC_TreeSet"
    }
  ],
  "buffers" : [
    {
      "uri" : "SM_ENV_KNVLLG03_AreaC_TreeSet.bin",
      "byteLength" : 2800324
    }
  ],
  "bufferViews" : [
    {
      "buffer" : 0,
      "byteOffset" : 0,
      "byteLength" : 107616
    },
    {
      "buffer" : 0,
      "byteOffset" : 107616,
      "byteLength" : 287040
    },
    {
      "buffer" : 0,
      "byteOffset" : 394656,
      "byteLength" : 287040
    },
    {
      "buffer" : 0,
      "byteOffset" : 681696,
      "byteLength" : 382720
    },
    {
      "buffer" : 0,
      "byteOffset" : 1064416,
      "byteLength" : 95680
    },
    {
      "buffer" : 0,
      "byteOffset" : 1160096,
      "byteLength" : 191360
    },
    {
      "buffer" : 0,
      "byteOffset" : 1351456,
      "byteLength" : 191360
    },
    {
      "buffer" : 0,
      "byteOffset" : 1542816,
      "byteLength" : 191360
    },
    {
      "buffer" : 0,
      "byteOffset" : 1734176,
      "byteLength" : 191360
    },
    {
      "buffer" : 0,
      "byteOffset" : 1925536,
      "byteLength" : 43920
    },
    {
      "buffer" : 0,
      "byteOffset" : 1969456,
      "byteLength" : 86640
    },
    {
      "buffer" : 0,
      "byteOffset" : 2056096,
      "byteLength" : 86640
    },
    {
      "buffer" : 0,
      "byteOffset" : 2142736,
      "byteLength" : 115520
    },
    {
      "buffer" : 0,
      "byteOffset" : 2258256,
      "byteLength" : 28880
    },
    {
      "buffer" : 0,
      "byteOffset" : 2287136,
      "byteLength" : 57760
    },
    {
      "buffer" : 0,
      "byteOffset" : 2344896,
      "byteLength" : 57760
    },
    {
      "buffer" : 0,
      "byteOffset" : 2402656,
      "byteLength" : 57760
    },
    {
      "buffer" : 0,
      "byteOffset" : 2460416,
      "byteLength" : 57760
    },
    {
      "buffer" : 0,
      "byteOffset" : 2518176,
      "byteLength" : 28536
    },
    {
      "buffer" : 0,
      "byteOffset" : 2546712,
      "byteLength" : 40044
    },
    {
      "buffer" : 0,
      "byteOffset" : 2586756,
      "byteLength" : 40044
    },
    {
      "buffer" : 0,
      "byteOffset" : 2626800,
      "byteLength" : 53392
    },
    {
      "buffer" : 0,
      "byteOffset" : 2680192,
      "byteLength" : 13348
    },
    {
      "buffer" : 0,
      "byteOffset" : 2693540,
      "byteLength" : 26696
    },
    {
      "buffer" : 0,
      "byteOffset" : 2720236,
      "byteLength" : 26696
    },
    {
      "buffer" : 0,
      "byteOffset" : 2746932,
      "byteLength" : 26696
    },
    {
      "buffer" : 0,
      "byteOffset" : 2773628,
      "byteLength" : 26696
    }
  ],
  "accessors" : [
    {
      "bufferView" : 0,
      "componentType" : 5123,
      "count" : 53808,
      "type" : "SCALAR"
    },
    {
      "bufferView" : 1,
      "min" : [ -61.2887, 4.99853, -53.9166 ],
      "max" : [ -17.2242, 13.3313, -26.2322 ],
      "componentType" : 5126,
      "count" : 23920,
      "type" : "VEC3"
    },
    {
      "bufferView" : 2,
      "componentType" : 5126,
      "count" : 23920,
      "type" : "VEC3"
    },
    {
      "bufferView" : 3,
      "componentType" : 5126,
      "count" : 23920,
      "type" : "VEC4"
    },
    {
      "bufferView" : 4,
      "normalized" : true,
      "componentType" : 5121,
      "count" : 23920,
      "type" : "VEC4"
    },
    {
      "bufferView" : 5,
      "componentType" : 5126,
      "count" : 23920,
      "type" : "VEC2"
    },
    {
      "bufferView" : 6,
      "componentType" : 5126,
      "count" : 23920,
      "type" : "VEC2"
    },
    {
      "bufferView" : 7,
      "componentType" : 5126,
      "count" : 23920,
      "type" : "VEC2"
    },
    {
      "bufferView" : 8,
      "componentType" : 5126,
      "count" : 23920,
      "type" : "VEC2"
    },
    {
      "bufferView" : 9,
      "componentType" : 5123,
      "count" : 21960,
      "type" : "SCALAR"
    },
    {
      "bufferView" : 10,
      "min" : [ -61.0934, 5.17901, -53.7603 ],
      "max" : [ -17.4167, 13.1816, -26.4319 ],
      "componentType" : 5126,
      "count" : 7220,
      "type" : "VEC3"
    },
    {
      "bufferView" : 11,
      "componentType" : 5126,
      "count" : 7220,
      "type" : "VEC3"
    },
    {
      "bufferView" : 12,
      "componentType" : 5126,
      "count" : 7220,
      "type" : "VEC4"
    },
    {
      "bufferView" : 13,
      "normalized" : true,
      "componentType" : 5121,
      "count" : 7220,
      "type" : "VEC4"
    },
    {
      "bufferView" : 14,
      "componentType" : 5126,
      "count" : 7220,
      "type" : "VEC2"
    },
    {
      "bufferView" : 15,
      "componentType" : 5126,
      "count" : 7220,
      "type" : "VEC2"
    },
    {
      "bufferView" : 16,
      "componentType" : 5126,
      "count" : 7220,
      "type" : "VEC2"
    },
    {
      "bufferView" : 17,
      "componentType" : 5126,
      "count" : 7220,
      "type" : "VEC2"
    },
    {
      "bufferView" : 18,
      "componentType" : 5123,
      "count" : 14268,
      "type" : "SCALAR"
    },
    {
      "bufferView" : 19,
      "min" : [ -60.2596, -0.596661, -53.5318 ],
      "max" : [ -18.9055, 10.5763, -27.2512 ],
      "componentType" : 5126,
      "count" : 3337,
      "type" : "VEC3"
    },
    {
      "bufferView" : 20,
      "componentType" : 5126,
      "count" : 3337,
      "type" : "VEC3"
    },
    {
      "bufferView" : 21,
      "componentType" : 5126,
      "count" : 3337,
      "type" : "VEC4"
    },
    {
      "bufferView" : 22,
      "normalized" : true,
      "componentType" : 5121,
      "count" : 3337,
      "type" : "VEC4"
    },
    {
      "bufferView" : 23,
      "componentType" : 5126,
      "count" : 3337,
      "type" : "VEC2"
    },
    {
      "bufferView" : 24,
      "componentType" : 5126,
      "count" : 3337,
      "type" : "VEC2"
    },
    {
      "bufferView" : 25,
      "componentType" : 5126,
      "count" : 3337,
      "type" : "VEC2"
    },
    {
      "bufferView" : 26,
      "componentType" : 5126,
      "count" : 3337,
      "type" : "VEC2"
    }
  ]
}
