{
  "asset" : {
    "generator" : "UE Viewer (umodel) build 1544 based",
    "version" : "2.0"
  },
  "scene" : 0,
  "scenes" : [
    {
      "nodes" : [ 0 ]
    }
  ],
  "nodes" : [
    {
      "name" : "SM_ENV_KNVLLG03_Tree_Distance_C",
      "mesh" : 0
    }
  ],
  "materials" : [
    {
      "name" : "MI_ENV_KNVLLG_DistanceTree_B",
      "pbrMetallicRoughness" : {
        "baseColorFactor" : [ 0.3, 0.3, 0.3, 1.0 ],
        "metallicFactor" : 0.1,
        "roughnessFactor" : 0.5
      }
    },
    {
      "name" : "MI_ENV_TCHEXA_Leaf_A_01",
      "pbrMetallicRoughness" : {
        "baseColorFactor" : [ 0.9, 0.3, 0.3, 1.0 ],
        "metallicFactor" : 0.1,
        "roughnessFactor" : 0.5
      }
    },
    {
      "name" : "MI_ENV_TCHEXA_Tree_A_Masked_CameraTrans",
      "pbrMetallicRoughness" : {
        "baseColorFactor" : [ 0.3, 0.9, 0.3, 1.0 ],
        "metallicFactor" : 0.1,
        "roughnessFactor" : 0.5
      }
    }
  ],
  "meshes" : [
    {
      "primitives" : [
        {
          "attributes" : {
            "POSITION" : 1,
            "NORMAL" : 2,
            "TANGENT" : 3,
            "COLOR_0" : 4,
            "TEXCOORD_0" : 5,
            "TEXCOORD_1" : 6,
            "TEXCOORD_2" : 7,
            "TEXCOORD_3" : 8
          },
          "indices" : 0,
          "material" : 0
        },
        {
          "attributes" : {
            "POSITION" : 10,
            "NORMAL" : 11,
            "TANGENT" : 12,
            "COLOR_0" : 13,
            "TEXCOORD_0" : 14,
            "TEXCOORD_1" : 15,
            "TEXCOORD_2" : 16,
            "TEXCOORD_3" : 17
          },
          "indices" : 9,
          "material" : 1
        },
        {
          "attributes" : {
            "POSITION" : 19,
            "NORMAL" : 20,
            "TANGENT" : 21,
            "COLOR_0" : 22,
            "TEXCOORD_0" : 23,
            "TEXCOORD_1" : 24,
            "TEXCOORD_2" : 25,
            "TEXCOORD_3" : 26
          },
          "indices" : 18,
          "material" : 2
        }
      ],
      "name" : "SM_ENV_KNVLLG03_Tree_Distance_C"
    }
  ],
  "buffers" : [
    {
      "uri" : "SM_ENV_KNVLLG03_Tree_Distance_C.bin",
      "byteLength" : 2148016
    }
  ],
  "bufferViews" : [
    {
      "buffer" : 0,
      "byteOffset" : 0,
      "byteLength" : 44736
    },
    {
      "buffer" : 0,
      "byteOffset" : 44736,
      "byteLength" : 63936
    },
    {
      "buffer" : 0,
      "byteOffset" : 108672,
      "byteLength" : 63936
    },
    {
      "buffer" : 0,
      "byteOffset" : 172608,
      "byteLength" : 85248
    },
    {
      "buffer" : 0,
      "byteOffset" : 257856,
      "byteLength" : 21312
    },
    {
      "buffer" : 0,
      "byteOffset" : 279168,
      "byteLength" : 42624
    },
    {
      "buffer" : 0,
      "byteOffset" : 321792,
      "byteLength" : 42624
    },
    {
      "buffer" : 0,
      "byteOffset" : 364416,
      "byteLength" : 42624
    },
    {
      "buffer" : 0,
      "byteOffset" : 407040,
      "byteLength" : 42624
    },
    {
      "buffer" : 0,
      "byteOffset" : 449664,
      "byteLength" : 102924
    },
    {
      "buffer" : 0,
      "byteOffset" : 552588,
      "byteLength" : 142104
    },
    {
      "buffer" : 0,
      "byteOffset" : 694692,
      "byteLength" : 142104
    },
    {
      "buffer" : 0,
      "byteOffset" : 836796,
      "byteLength" : 189472
    },
    {
      "buffer" : 0,
      "byteOffset" : 1026268,
      "byteLength" : 47368
    },
    {
      "buffer" : 0,
      "byteOffset" : 1073636,
      "byteLength" : 94736
    },
    {
      "buffer" : 0,
      "byteOffset" : 1168372,
      "byteLength" : 94736
    },
    {
      "buffer" : 0,
      "byteOffset" : 1263108,
      "byteLength" : 94736
    },
    {
      "buffer" : 0,
      "byteOffset" : 1357844,
      "byteLength" : 94736
    },
    {
      "buffer" : 0,
      "byteOffset" : 1452580,
      "byteLength" : 68588
    },
    {
      "buffer" : 0,
      "byteOffset" : 1521168,
      "byteLength" : 98976
    },
    {
      "buffer" : 0,
      "byteOffset" : 1620144,
      "byteLength" : 98976
    },
    {
      "buffer" : 0,
      "byteOffset" : 1719120,
      "byteLength" : 131968
    },
    {
      "buffer" : 0,
      "byteOffset" : 1851088,
      "byteLength" : 32992
    },
    {
      "buffer" : 0,
      "byteOffset" : 1884080,
      "byteLength" : 65984
    },
    {
      "buffer" : 0,
      "byteOffset" : 1950064,
      "byteLength" : 65984
    },
    {
      "buffer" : 0,
      "byteOffset" : 2016048,
      "byteLength" : 65984
    },
    {
      "buffer" : 0,
      "byteOffset" : 2082032,
      "byteLength" : 65984
    }
  ],
  "accessors" : [
    {
      "bufferView" : 0,
      "componentType" : 5123,
      "count" : 22368,
      "type" : "SCALAR"
    },
    {
      "bufferView" : 1,
      "min" : [ -140.131, -0.767666, -175.617 ],
      "max" : [ 202.565, 38.4296, -116.68 ],
      "componentType" : 5126,
      "count" : 5328,
      "type" : "VEC3"
    },
    {
      "bufferView" : 2,
      "componentType" : 5126,
      "count" : 5328,
      "type" : "VEC3"
    },
    {
      "bufferView" : 3,
      "componentType" : 5126,
      "count" : 5328,
      "type" : "VEC4"
    },
    {
      "bufferView" : 4,
      "normalized" : true,
      "componentType" : 5121,
      "count" : 5328,
      "type" : "VEC4"
    },
    {
      "bufferView" : 5,
      "componentType" : 5126,
      "count" : 5328,
      "type" : "VEC2"
    },
    {
      "bufferView" : 6,
      "componentType" : 5126,
      "count" : 5328,
      "type" : "VEC2"
    },
    {
      "bufferView" : 7,
      "componentType" : 5126,
      "count" : 5328,
      "type" : "VEC2"
    },
    {
      "bufferView" : 8,
      "componentType" : 5126,
      "count" : 5328,
      "type" : "VEC2"
    },
    {
      "bufferView" : 9,
      "componentType" : 5123,
      "count" : 51462,
      "type" : "SCALAR"
    },
    {
      "bufferView" : 10,
      "min" : [ -93.3882, 4.20238, -151.542 ],
      "max" : [ 80.2338, 46.0707, -85.547 ],
      "componentType" : 5126,
      "count" : 11842,
      "type" : "VEC3"
    },
    {
      "bufferView" : 11,
      "componentType" : 5126,
      "count" : 11842,
      "type" : "VEC3"
    },
    {
      "bufferView" : 12,
      "componentType" : 5126,
      "count" : 11842,
      "type" : "VEC4"
    },
    {
      "bufferView" : 13,
      "normalized" : true,
      "componentType" : 5121,
      "count" : 11842,
      "type" : "VEC4"
    },
    {
      "bufferView" : 14,
      "componentType" : 5126,
      "count" : 11842,
      "type" : "VEC2"
    },
    {
      "bufferView" : 15,
      "componentType" : 5126,
      "count" : 11842,
      "type" : "VEC2"
    },
    {
      "bufferView" : 16,
      "componentType" : 5126,
      "count" : 11842,
      "type" : "VEC2"
    },
    {
      "bufferView" : 17,
      "componentType" : 5126,
      "count" : 11842,
      "type" : "VEC2"
    },
    {
      "bufferView" : 18,
      "componentType" : 5123,
      "count" : 34293,
      "type" : "SCALAR"
    },
    {
      "bufferView" : 19,
      "min" : [ -91.1843, -1.29652, -144.405 ],
      "max" : [ 75.4677, 43.0125, -86.5431 ],
      "componentType" : 5126,
      "count" : 8248,
      "type" : "VEC3"
    },
    {
      "bufferView" : 20,
      "componentType" : 5126,
      "count" : 8248,
      "type" : "VEC3"
    },
    {
      "bufferView" : 21,
      "componentType" : 5126,
      "count" : 8248,
      "type" : "VEC4"
    },
    {
      "bufferView" : 22,
      "normalized" : true,
      "componentType" : 5121,
      "count" : 8248,
      "type" : "VEC4"
    },
    {
      "bufferView" : 23,
      "componentType" : 5126,
      "count" : 8248,
      "type" : "VEC2"
    },
    {
      "bufferView" : 24,
      "componentType" : 5126,
      "count" : 8248,
      "type" : "VEC2"
    },
    {
      "bufferView" : 25,
      "componentType" : 5126,
      "count" : 8248,
      "type" : "VEC2"
    },
    {
      "bufferView" : 26,
      "componentType" : 5126,
      "count" : 8248,
      "type" : "VEC2"
    }
  ]
}
