{
  "asset" : {
    "generator" : "UE Viewer (umodel) build 1544 based",
    "version" : "2.0"
  },
  "scene" : 0,
  "scenes" : [
    {
      "nodes" : [ 0 ]
    }
  ],
  "nodes" : [
    {
      "name" : "COL_SM_ENV_KNVLLG03_AreaF_BuildingA_2",
      "mesh" : 0
    }
  ],
  "materials" : [
    {
      "name" : "WorldGridMaterial",
      "pbrMetallicRoughness" : {
        "baseColorFactor" : [ 0.3, 0.3, 0.3, 1.0 ],
        "metallicFactor" : 0.1,
        "roughnessFactor" : 0.5
      }
    }
  ],
  "meshes" : [
    {
      "primitives" : [
        {
          "attributes" : {
            "POSITION" : 1,
            "NORMAL" : 2,
            "TANGENT" : 3,
            "TEXCOORD_0" : 4
          },
          "indices" : 0,
          "material" : 0
        }
      ],
      "name" : "COL_SM_ENV_KNVLLG03_AreaF_BuildingA_2"
    }
  ],
  "buffers" : [
    {
      "uri" : "COL_SM_ENV_KNVLLG03_AreaF_BuildingA_2.bin",
      "byteLength" : 28404
    }
  ],
  "bufferViews" : [
    {
      "buffer" : 0,
      "byteOffset" : 0,
      "byteLength" : 2868
    },
    {
      "buffer" : 0,
      "byteOffset" : 2868,
      "byteLength" : 6384
    },
    {
      "buffer" : 0,
      "byteOffset" : 9252,
      "byteLength" : 6384
    },
    {
      "buffer" : 0,
      "byteOffset" : 15636,
      "byteLength" : 8512
    },
    {
      "buffer" : 0,
      "byteOffset" : 24148,
      "byteLength" : 4256
    }
  ],
  "accessors" : [
    {
      "bufferView" : 0,
      "componentType" : 5123,
      "count" : 1434,
      "type" : "SCALAR"
    },
    {
      "bufferView" : 1,
      "min" : [ 19.8763, 7.71887, 13.6516 ],
      "max" : [ 56.1257, 23.9816, 49.901 ],
      "componentType" : 5126,
      "count" : 532,
      "type" : "VEC3"
    },
    {
      "bufferView" : 2,
      "componentType" : 5126,
      "count" : 532,
      "type" : "VEC3"
    },
    {
      "bufferView" : 3,
      "componentType" : 5126,
      "count" : 532,
      "type" : "VEC4"
    },
    {
      "bufferView" : 4,
      "componentType" : 5126,
      "count" : 532,
      "type" : "VEC2"
    }
  ]
}
