{
  "asset" : {
    "generator" : "UE Viewer (umodel) build 1544 based",
    "version" : "2.0"
  },
  "scene" : 0,
  "scenes" : [
    {
      "nodes" : [ 0 ]
    }
  ],
  "nodes" : [
    {
      "name" : "COL_SM_ENV_LKNVLD_Stall_2",
      "mesh" : 0
    }
  ],
  "materials" : [
    {
      "name" : "MI_Wood",
      "pbrMetallicRoughness" : {
        "baseColorFactor" : [ 0.3, 0.3, 0.3, 1.0 ],
        "metallicFactor" : 0.1,
        "roughnessFactor" : 0.5
      }
    }
  ],
  "meshes" : [
    {
      "primitives" : [
        {
          "attributes" : {
            "POSITION" : 1,
            "NORMAL" : 2,
            "TANGENT" : 3,
            "TEXCOORD_0" : 4
          },
          "indices" : 0,
          "material" : 0
        }
      ],
      "name" : "COL_SM_ENV_LKNVLD_Stall_2"
    }
  ],
  "buffers" : [
    {
      "uri" : "COL_SM_ENV_LKNVLD_Stall_2.bin",
      "byteLength" : 111900
    }
  ],
  "bufferViews" : [
    {
      "buffer" : 0,
      "byteOffset" : 0,
      "byteLength" : 7836
    },
    {
      "buffer" : 0,
      "byteOffset" : 7836,
      "byteLength" : 26016
    },
    {
      "buffer" : 0,
      "byteOffset" : 33852,
      "byteLength" : 26016
    },
    {
      "buffer" : 0,
      "byteOffset" : 59868,
      "byteLength" : 34688
    },
    {
      "buffer" : 0,
      "byteOffset" : 94556,
      "byteLength" : 17344
    }
  ],
  "accessors" : [
    {
      "bufferView" : 0,
      "componentType" : 5123,
      "count" : 3918,
      "type" : "SCALAR"
    },
    {
      "bufferView" : 1,
      "min" : [ -22.5179, -0.322732, -28.5516 ],
      "max" : [ 24.1352, 2.83611, 53.3404 ],
      "componentType" : 5126,
      "count" : 2168,
      "type" : "VEC3"
    },
    {
      "bufferView" : 2,
      "componentType" : 5126,
      "count" : 2168,
      "type" : "VEC3"
    },
    {
      "bufferView" : 3,
      "componentType" : 5126,
      "count" : 2168,
      "type" : "VEC4"
    },
    {
      "bufferView" : 4,
      "componentType" : 5126,
      "count" : 2168,
      "type" : "VEC2"
    }
  ]
}
