{
  "asset" : {
    "generator" : "UE Viewer (umodel) build 1544 based",
    "version" : "2.0"
  },
  "scene" : 0,
  "scenes" : [
    {
      "nodes" : [ 0 ]
    }
  ],
  "nodes" : [
    {
      "name" : "COL_SM_ENV_KNVLLG03_AreaB_BuildingA",
      "mesh" : 0
    }
  ],
  "materials" : [
    {
      "name" : "MI_Metal",
      "pbrMetallicRoughness" : {
        "baseColorFactor" : [ 0.3, 0.3, 0.3, 1.0 ],
        "metallicFactor" : 0.1,
        "roughnessFactor" : 0.5
      }
    },
    {
      "name" : "MI_Wood",
      "pbrMetallicRoughness" : {
        "baseColorFactor" : [ 0.9, 0.3, 0.3, 1.0 ],
        "metallicFactor" : 0.1,
        "roughnessFactor" : 0.5
      }
    },
    {
      "name" : "MI_Concrete",
      "pbrMetallicRoughness" : {
        "baseColorFactor" : [ 0.3, 0.9, 0.3, 1.0 ],
        "metallicFactor" : 0.1,
        "roughnessFactor" : 0.5
      }
    }
  ],
  "meshes" : [
    {
      "primitives" : [
        {
          "attributes" : {
            "POSITION" : 1,
            "NORMAL" : 2,
            "TANGENT" : 3,
            "TEXCOORD_0" : 4,
            "TEXCOORD_1" : 5,
            "TEXCOORD_2" : 6,
            "TEXCOORD_3" : 7,
            "TEXCOORD_4" : 8,
            "TEXCOORD_5" : 9,
            "TEXCOORD_6" : 10,
            "TEXCOORD_7" : 11
          },
          "indices" : 0,
          "material" : 0
        },
        {
          "attributes" : {
            "POSITION" : 13,
            "NORMAL" : 14,
            "TANGENT" : 15,
            "TEXCOORD_0" : 16,
            "TEXCOORD_1" : 17,
            "TEXCOORD_2" : 18,
            "TEXCOORD_3" : 19,
            "TEXCOORD_4" : 20,
            "TEXCOORD_5" : 21,
            "TEXCOORD_6" : 22,
            "TEXCOORD_7" : 23
          },
          "indices" : 12,
          "material" : 1
        },
        {
          "attributes" : {
            "POSITION" : 25,
            "NORMAL" : 26,
            "TANGENT" : 27,
            "TEXCOORD_0" : 28,
            "TEXCOORD_1" : 29,
            "TEXCOORD_2" : 30,
            "TEXCOORD_3" : 31,
            "TEXCOORD_4" : 32,
            "TEXCOORD_5" : 33,
            "TEXCOORD_6" : 34,
            "TEXCOORD_7" : 35
          },
          "indices" : 24,
          "material" : 2
        }
      ],
      "name" : "COL_SM_ENV_KNVLLG03_AreaB_BuildingA"
    }
  ],
  "buffers" : [
    {
      "uri" : "COL_SM_ENV_KNVLLG03_AreaB_BuildingA.bin",
      "byteLength" : 533292
    }
  ],
  "bufferViews" : [
    {
      "buffer" : 0,
      "byteOffset" : 0,
      "byteLength" : 2924
    },
    {
      "buffer" : 0,
      "byteOffset" : 2924,
      "byteLength" : 8748
    },
    {
      "buffer" : 0,
      "byteOffset" : 11672,
      "byteLength" : 8748
    },
    {
      "buffer" : 0,
      "byteOffset" : 20420,
      "byteLength" : 11664
    },
    {
      "buffer" : 0,
      "byteOffset" : 32084,
      "byteLength" : 5832
    },
    {
      "buffer" : 0,
      "byteOffset" : 37916,
      "byteLength" : 5832
    },
    {
      "buffer" : 0,
      "byteOffset" : 43748,
      "byteLength" : 5832
    },
    {
      "buffer" : 0,
      "byteOffset" : 49580,
      "byteLength" : 5832
    },
    {
      "buffer" : 0,
      "byteOffset" : 55412,
      "byteLength" : 5832
    },
    {
      "buffer" : 0,
      "byteOffset" : 61244,
      "byteLength" : 5832
    },
    {
      "buffer" : 0,
      "byteOffset" : 67076,
      "byteLength" : 5832
    },
    {
      "buffer" : 0,
      "byteOffset" : 72908,
      "byteLength" : 5832
    },
    {
      "buffer" : 0,
      "byteOffset" : 78740,
      "byteLength" : 6876
    },
    {
      "buffer" : 0,
      "byteOffset" : 85616,
      "byteLength" : 20484
    },
    {
      "buffer" : 0,
      "byteOffset" : 106100,
      "byteLength" : 20484
    },
    {
      "buffer" : 0,
      "byteOffset" : 126584,
      "byteLength" : 27312
    },
    {
      "buffer" : 0,
      "byteOffset" : 153896,
      "byteLength" : 13656
    },
    {
      "buffer" : 0,
      "byteOffset" : 167552,
      "byteLength" : 13656
    },
    {
      "buffer" : 0,
      "byteOffset" : 181208,
      "byteLength" : 13656
    },
    {
      "buffer" : 0,
      "byteOffset" : 194864,
      "byteLength" : 13656
    },
    {
      "buffer" : 0,
      "byteOffset" : 208520,
      "byteLength" : 13656
    },
    {
      "buffer" : 0,
      "byteOffset" : 222176,
      "byteLength" : 13656
    },
    {
      "buffer" : 0,
      "byteOffset" : 235832,
      "byteLength" : 13656
    },
    {
      "buffer" : 0,
      "byteOffset" : 249488,
      "byteLength" : 13656
    },
    {
      "buffer" : 0,
      "byteOffset" : 263144,
      "byteLength" : 9212
    },
    {
      "buffer" : 0,
      "byteOffset" : 272356,
      "byteLength" : 30108
    },
    {
      "buffer" : 0,
      "byteOffset" : 302464,
      "byteLength" : 30108
    },
    {
      "buffer" : 0,
      "byteOffset" : 332572,
      "byteLength" : 40144
    },
    {
      "buffer" : 0,
      "byteOffset" : 372716,
      "byteLength" : 20072
    },
    {
      "buffer" : 0,
      "byteOffset" : 392788,
      "byteLength" : 20072
    },
    {
      "buffer" : 0,
      "byteOffset" : 412860,
      "byteLength" : 20072
    },
    {
      "buffer" : 0,
      "byteOffset" : 432932,
      "byteLength" : 20072
    },
    {
      "buffer" : 0,
      "byteOffset" : 453004,
      "byteLength" : 20072
    },
    {
      "buffer" : 0,
      "byteOffset" : 473076,
      "byteLength" : 20072
    },
    {
      "buffer" : 0,
      "byteOffset" : 493148,
      "byteLength" : 20072
    },
    {
      "buffer" : 0,
      "byteOffset" : 513220,
      "byteLength" : 20072
    }
  ],
  "accessors" : [
    {
      "bufferView" : 0,
      "componentType" : 5123,
      "count" : 1461,
      "type" : "SCALAR"
    },
    {
      "bufferView" : 1,
      "min" : [ -54.224, 9.87783, 15.507 ],
      "max" : [ -21.8439, 34.5449, 47.4316 ],
      "componentType" : 5126,
      "count" : 729,
      "type" : "VEC3"
    },
    {
      "bufferView" : 2,
      "componentType" : 5126,
      "count" : 729,
      "type" : "VEC3"
    },
    {
      "bufferView" : 3,
      "componentType" : 5126,
      "count" : 729,
      "type" : "VEC4"
    },
    {
      "bufferView" : 4,
      "componentType" : 5126,
      "count" : 729,
      "type" : "VEC2"
    },
    {
      "bufferView" : 5,
      "componentType" : 5126,
      "count" : 729,
      "type" : "VEC2"
    },
    {
      "bufferView" : 6,
      "componentType" : 5126,
      "count" : 729,
      "type" : "VEC2"
    },
    {
      "bufferView" : 7,
      "componentType" : 5126,
      "count" : 729,
      "type" : "VEC2"
    },
    {
      "bufferView" : 8,
      "componentType" : 5126,
      "count" : 729,
      "type" : "VEC2"
    },
    {
      "bufferView" : 9,
      "componentType" : 5126,
      "count" : 729,
      "type" : "VEC2"
    },
    {
      "bufferView" : 10,
      "componentType" : 5126,
      "count" : 729,
      "type" : "VEC2"
    },
    {
      "bufferView" : 11,
      "componentType" : 5126,
      "count" : 729,
      "type" : "VEC2"
    },
    {
      "bufferView" : 12,
      "componentType" : 5123,
      "count" : 3438,
      "type" : "SCALAR"
    },
    {
      "bufferView" : 13,
      "min" : [ -56.4575, -0.0256491, 13.0652 ],
      "max" : [ -20.3663, 38.075, 49.125 ],
      "componentType" : 5126,
      "count" : 1707,
      "type" : "VEC3"
    },
    {
      "bufferView" : 14,
      "componentType" : 5126,
      "count" : 1707,
      "type" : "VEC3"
    },
    {
      "bufferView" : 15,
      "componentType" : 5126,
      "count" : 1707,
      "type" : "VEC4"
    },
    {
      "bufferView" : 16,
      "componentType" : 5126,
      "count" : 1707,
      "type" : "VEC2"
    },
    {
      "bufferView" : 17,
      "componentType" : 5126,
      "count" : 1707,
      "type" : "VEC2"
    },
    {
      "bufferView" : 18,
      "componentType" : 5126,
      "count" : 1707,
      "type" : "VEC2"
    },
    {
      "bufferView" : 19,
      "componentType" : 5126,
      "count" : 1707,
      "type" : "VEC2"
    },
    {
      "bufferView" : 20,
      "componentType" : 5126,
      "count" : 1707,
      "type" : "VEC2"
    },
    {
      "bufferView" : 21,
      "componentType" : 5126,
      "count" : 1707,
      "type" : "VEC2"
    },
    {
      "bufferView" : 22,
      "componentType" : 5126,
      "count" : 1707,
      "type" : "VEC2"
    },
    {
      "bufferView" : 23,
      "componentType" : 5126,
      "count" : 1707,
      "type" : "VEC2"
    },
    {
      "bufferView" : 24,
      "componentType" : 5123,
      "count" : 4605,
      "type" : "SCALAR"
    },
    {
      "bufferView" : 25,
      "min" : [ -56.8412, 0.439061, 12.0124 ],
      "max" : [ -20.7088, 41.5434, 49.125 ],
      "componentType" : 5126,
      "count" : 2509,
      "type" : "VEC3"
    },
    {
      "bufferView" : 26,
      "componentType" : 5126,
      "count" : 2509,
      "type" : "VEC3"
    },
    {
      "bufferView" : 27,
      "componentType" : 5126,
      "count" : 2509,
      "type" : "VEC4"
    },
    {
      "bufferView" : 28,
      "componentType" : 5126,
      "count" : 2509,
      "type" : "VEC2"
    },
    {
      "bufferView" : 29,
      "componentType" : 5126,
      "count" : 2509,
      "type" : "VEC2"
    },
    {
      "bufferView" : 30,
      "componentType" : 5126,
      "count" : 2509,
      "type" : "VEC2"
    },
    {
      "bufferView" : 31,
      "componentType" : 5126,
      "count" : 2509,
      "type" : "VEC2"
    },
    {
      "bufferView" : 32,
      "componentType" : 5126,
      "count" : 2509,
      "type" : "VEC2"
    },
    {
      "bufferView" : 33,
      "componentType" : 5126,
      "count" : 2509,
      "type" : "VEC2"
    },
    {
      "bufferView" : 34,
      "componentType" : 5126,
      "count" : 2509,
      "type" : "VEC2"
    },
    {
      "bufferView" : 35,
      "componentType" : 5126,
      "count" : 2509,
      "type" : "VEC2"
    }
  ]
}
