{
  "asset" : {
    "generator" : "UE Viewer (umodel) build 1544 based",
    "version" : "2.0"
  },
  "scene" : 0,
  "scenes" : [
    {
      "nodes" : [ 0 ]
    }
  ],
  "nodes" : [
    {
      "name" : "COL_SM_ENV_LKNVLD_PaperLantern_2",
      "mesh" : 0
    }
  ],
  "materials" : [
    {
      "name" : "MI_Wood",
      "pbrMetallicRoughness" : {
        "baseColorFactor" : [ 0.3, 0.3, 0.3, 1.0 ],
        "metallicFactor" : 0.1,
        "roughnessFactor" : 0.5
      }
    }
  ],
  "meshes" : [
    {
      "primitives" : [
        {
          "attributes" : {
            "POSITION" : 1,
            "NORMAL" : 2,
            "TANGENT" : 3,
            "TEXCOORD_0" : 4
          },
          "indices" : 0,
          "material" : 0
        }
      ],
      "name" : "COL_SM_ENV_LKNVLD_PaperLantern_2"
    }
  ],
  "buffers" : [
    {
      "uri" : "COL_SM_ENV_LKNVLD_PaperLantern_2.bin",
      "byteLength" : 21420
    }
  ],
  "bufferViews" : [
    {
      "buffer" : 0,
      "byteOffset" : 0,
      "byteLength" : 1260
    },
    {
      "buffer" : 0,
      "byteOffset" : 1260,
      "byteLength" : 5040
    },
    {
      "buffer" : 0,
      "byteOffset" : 6300,
      "byteLength" : 5040
    },
    {
      "buffer" : 0,
      "byteOffset" : 11340,
      "byteLength" : 6720
    },
    {
      "buffer" : 0,
      "byteOffset" : 18060,
      "byteLength" : 3360
    }
  ],
  "accessors" : [
    {
      "bufferView" : 0,
      "componentType" : 5123,
      "count" : 630,
      "type" : "SCALAR"
    },
    {
      "bufferView" : 1,
      "min" : [ 12.9666, -0.194378, -76.9417 ],
      "max" : [ 65.7435, 6.97677, -8.21121 ],
      "componentType" : 5126,
      "count" : 420,
      "type" : "VEC3"
    },
    {
      "bufferView" : 2,
      "componentType" : 5126,
      "count" : 420,
      "type" : "VEC3"
    },
    {
      "bufferView" : 3,
      "componentType" : 5126,
      "count" : 420,
      "type" : "VEC4"
    },
    {
      "bufferView" : 4,
      "componentType" : 5126,
      "count" : 420,
      "type" : "VEC2"
    }
  ]
}
