{
  "asset" : {
    "generator" : "UE Viewer (umodel) build 1544 based",
    "version" : "2.0"
  },
  "scene" : 0,
  "scenes" : [
    {
      "nodes" : [ 0 ]
    }
  ],
  "nodes" : [
    {
      "name" : "COL_SM_ENV_KNVLLG03_BridgeA",
      "mesh" : 0
    }
  ],
  "materials" : [
    {
      "name" : "MI_Wood",
      "pbrMetallicRoughness" : {
        "baseColorFactor" : [ 0.3, 0.3, 0.3, 1.0 ],
        "metallicFactor" : 0.1,
        "roughnessFactor" : 0.5
      }
    },
    {
      "name" : "MI_Concrete",
      "pbrMetallicRoughness" : {
        "baseColorFactor" : [ 0.9, 0.3, 0.3, 1.0 ],
        "metallicFactor" : 0.1,
        "roughnessFactor" : 0.5
      }
    },
    {
      "name" : "MI_Grass",
      "pbrMetallicRoughness" : {
        "baseColorFactor" : [ 0.3, 0.9, 0.3, 1.0 ],
        "metallicFactor" : 0.1,
        "roughnessFactor" : 0.5
      }
    }
  ],
  "meshes" : [
    {
      "primitives" : [
        {
          "attributes" : {
            "POSITION" : 1,
            "NORMAL" : 2,
            "TANGENT" : 3,
            "TEXCOORD_0" : 4
          },
          "indices" : 0,
          "material" : 0
        },
        {
          "attributes" : {
            "POSITION" : 6,
            "NORMAL" : 7,
            "TANGENT" : 8,
            "TEXCOORD_0" : 9
          },
          "indices" : 5,
          "material" : 1
        },
        {
          "attributes" : {
            "POSITION" : 11,
            "NORMAL" : 12,
            "TANGENT" : 13,
            "TEXCOORD_0" : 14
          },
          "indices" : 10,
          "material" : 2
        }
      ],
      "name" : "COL_SM_ENV_KNVLLG03_BridgeA"
    }
  ],
  "buffers" : [
    {
      "uri" : "COL_SM_ENV_KNVLLG03_BridgeA.bin",
      "byteLength" : 543816
    }
  ],
  "bufferViews" : [
    {
      "buffer" : 0,
      "byteOffset" : 0,
      "byteLength" : 29688
    },
    {
      "buffer" : 0,
      "byteOffset" : 29688,
      "byteLength" : 126696
    },
    {
      "buffer" : 0,
      "byteOffset" : 156384,
      "byteLength" : 126696
    },
    {
      "buffer" : 0,
      "byteOffset" : 283080,
      "byteLength" : 168928
    },
    {
      "buffer" : 0,
      "byteOffset" : 452008,
      "byteLength" : 84464
    },
    {
      "buffer" : 0,
      "byteOffset" : 536472,
      "byteLength" : 420
    },
    {
      "buffer" : 0,
      "byteOffset" : 536892,
      "byteLength" : 1680
    },
    {
      "buffer" : 0,
      "byteOffset" : 538572,
      "byteLength" : 1680
    },
    {
      "buffer" : 0,
      "byteOffset" : 540252,
      "byteLength" : 2240
    },
    {
      "buffer" : 0,
      "byteOffset" : 542492,
      "byteLength" : 1120
    },
    {
      "buffer" : 0,
      "byteOffset" : 543612,
      "byteLength" : 12
    },
    {
      "buffer" : 0,
      "byteOffset" : 543624,
      "byteLength" : 48
    },
    {
      "buffer" : 0,
      "byteOffset" : 543672,
      "byteLength" : 48
    },
    {
      "buffer" : 0,
      "byteOffset" : 543720,
      "byteLength" : 64
    },
    {
      "buffer" : 0,
      "byteOffset" : 543784,
      "byteLength" : 32
    }
  ],
  "accessors" : [
    {
      "bufferView" : 0,
      "componentType" : 5123,
      "count" : 14844,
      "type" : "SCALAR"
    },
    {
      "bufferView" : 1,
      "min" : [ -71.6139, -0.843424, -114.457 ],
      "max" : [ 13.4054, 7.55, 72.149 ],
      "componentType" : 5126,
      "count" : 10558,
      "type" : "VEC3"
    },
    {
      "bufferView" : 2,
      "componentType" : 5126,
      "count" : 10558,
      "type" : "VEC3"
    },
    {
      "bufferView" : 3,
      "componentType" : 5126,
      "count" : 10558,
      "type" : "VEC4"
    },
    {
      "bufferView" : 4,
      "componentType" : 5126,
      "count" : 10558,
      "type" : "VEC2"
    },
    {
      "bufferView" : 5,
      "componentType" : 5123,
      "count" : 210,
      "type" : "SCALAR"
    },
    {
      "bufferView" : 6,
      "min" : [ -70.8578, -0.564294, -114.457 ],
      "max" : [ -9.77717, 4.9425, 71.0079 ],
      "componentType" : 5126,
      "count" : 140,
      "type" : "VEC3"
    },
    {
      "bufferView" : 7,
      "componentType" : 5126,
      "count" : 140,
      "type" : "VEC3"
    },
    {
      "bufferView" : 8,
      "componentType" : 5126,
      "count" : 140,
      "type" : "VEC4"
    },
    {
      "bufferView" : 9,
      "componentType" : 5126,
      "count" : 140,
      "type" : "VEC2"
    },
    {
      "bufferView" : 10,
      "componentType" : 5123,
      "count" : 6,
      "type" : "SCALAR"
    },
    {
      "bufferView" : 11,
      "min" : [ -36.3284, 5.99999, 48.4206 ],
      "max" : [ -27.5307, 5.99999, 60.4398 ],
      "componentType" : 5126,
      "count" : 4,
      "type" : "VEC3"
    },
    {
      "bufferView" : 12,
      "componentType" : 5126,
      "count" : 4,
      "type" : "VEC3"
    },
    {
      "bufferView" : 13,
      "componentType" : 5126,
      "count" : 4,
      "type" : "VEC4"
    },
    {
      "bufferView" : 14,
      "componentType" : 5126,
      "count" : 4,
      "type" : "VEC2"
    }
  ]
}
