{
  "asset" : {
    "generator" : "UE Viewer (umodel) build 1544 based",
    "version" : "2.0"
  },
  "scene" : 0,
  "scenes" : [
    {
      "nodes" : [ 0 ]
    }
  ],
  "nodes" : [
    {
      "name" : "COL_SM_ENV_KNVLLG03_AreaF_BuildingA",
      "mesh" : 0
    }
  ],
  "materials" : [
    {
      "name" : "MI_Wood",
      "pbrMetallicRoughness" : {
        "baseColorFactor" : [ 0.3, 0.3, 0.3, 1.0 ],
        "metallicFactor" : 0.1,
        "roughnessFactor" : 0.5
      }
    },
    {
      "name" : "MI_Concrete",
      "pbrMetallicRoughness" : {
        "baseColorFactor" : [ 0.9, 0.3, 0.3, 1.0 ],
        "metallicFactor" : 0.1,
        "roughnessFactor" : 0.5
      }
    },
    {
      "name" : "MI_Grass",
      "pbrMetallicRoughness" : {
        "baseColorFactor" : [ 0.3, 0.9, 0.3, 1.0 ],
        "metallicFactor" : 0.1,
        "roughnessFactor" : 0.5
      }
    },
    {
      "name" : "MI_Metal",
      "pbrMetallicRoughness" : {
        "baseColorFactor" : [ 0.3, 0.3, 0.9, 1.0 ],
        "metallicFactor" : 0.1,
        "roughnessFactor" : 0.5
      }
    }
  ],
  "meshes" : [
    {
      "primitives" : [
        {
          "attributes" : {
            "POSITION" : 1,
            "NORMAL" : 2,
            "TANGENT" : 3,
            "TEXCOORD_0" : 4,
            "TEXCOORD_1" : 5,
            "TEXCOORD_2" : 6,
            "TEXCOORD_3" : 7,
            "TEXCOORD_4" : 8
          },
          "indices" : 0,
          "material" : 0
        },
        {
          "attributes" : {
            "POSITION" : 10,
            "NORMAL" : 11,
            "TANGENT" : 12,
            "TEXCOORD_0" : 13,
            "TEXCOORD_1" : 14,
            "TEXCOORD_2" : 15,
            "TEXCOORD_3" : 16,
            "TEXCOORD_4" : 17
          },
          "indices" : 9,
          "material" : 1
        },
        {
          "attributes" : {
            "POSITION" : 19,
            "NORMAL" : 20,
            "TANGENT" : 21,
            "TEXCOORD_0" : 22,
            "TEXCOORD_1" : 23,
            "TEXCOORD_2" : 24,
            "TEXCOORD_3" : 25,
            "TEXCOORD_4" : 26
          },
          "indices" : 18,
          "material" : 2
        },
        {
          "attributes" : {
            "POSITION" : 28,
            "NORMAL" : 29,
            "TANGENT" : 30,
            "TEXCOORD_0" : 31,
            "TEXCOORD_1" : 32,
            "TEXCOORD_2" : 33,
            "TEXCOORD_3" : 34,
            "TEXCOORD_4" : 35
          },
          "indices" : 27,
          "material" : 3
        }
      ],
      "name" : "COL_SM_ENV_KNVLLG03_AreaF_BuildingA"
    }
  ],
  "buffers" : [
    {
      "uri" : "COL_SM_ENV_KNVLLG03_AreaF_BuildingA.bin",
      "byteLength" : 403548
    }
  ],
  "bufferViews" : [
    {
      "buffer" : 0,
      "byteOffset" : 0,
      "byteLength" : 9932
    },
    {
      "buffer" : 0,
      "byteOffset" : 9932,
      "byteLength" : 33384
    },
    {
      "buffer" : 0,
      "byteOffset" : 43316,
      "byteLength" : 33384
    },
    {
      "buffer" : 0,
      "byteOffset" : 76700,
      "byteLength" : 44512
    },
    {
      "buffer" : 0,
      "byteOffset" : 121212,
      "byteLength" : 22256
    },
    {
      "buffer" : 0,
      "byteOffset" : 143468,
      "byteLength" : 22256
    },
    {
      "buffer" : 0,
      "byteOffset" : 165724,
      "byteLength" : 22256
    },
    {
      "buffer" : 0,
      "byteOffset" : 187980,
      "byteLength" : 22256
    },
    {
      "buffer" : 0,
      "byteOffset" : 210236,
      "byteLength" : 22256
    },
    {
      "buffer" : 0,
      "byteOffset" : 232492,
      "byteLength" : 6912
    },
    {
      "buffer" : 0,
      "byteOffset" : 239404,
      "byteLength" : 22860
    },
    {
      "buffer" : 0,
      "byteOffset" : 262264,
      "byteLength" : 22860
    },
    {
      "buffer" : 0,
      "byteOffset" : 285124,
      "byteLength" : 30480
    },
    {
      "buffer" : 0,
      "byteOffset" : 315604,
      "byteLength" : 15240
    },
    {
      "buffer" : 0,
      "byteOffset" : 330844,
      "byteLength" : 15240
    },
    {
      "buffer" : 0,
      "byteOffset" : 346084,
      "byteLength" : 15240
    },
    {
      "buffer" : 0,
      "byteOffset" : 361324,
      "byteLength" : 15240
    },
    {
      "buffer" : 0,
      "byteOffset" : 376564,
      "byteLength" : 15240
    },
    {
      "buffer" : 0,
      "byteOffset" : 391804,
      "byteLength" : 204
    },
    {
      "buffer" : 0,
      "byteOffset" : 392008,
      "byteLength" : 816
    },
    {
      "buffer" : 0,
      "byteOffset" : 392824,
      "byteLength" : 816
    },
    {
      "buffer" : 0,
      "byteOffset" : 393640,
      "byteLength" : 1088
    },
    {
      "buffer" : 0,
      "byteOffset" : 394728,
      "byteLength" : 544
    },
    {
      "buffer" : 0,
      "byteOffset" : 395272,
      "byteLength" : 544
    },
    {
      "buffer" : 0,
      "byteOffset" : 395816,
      "byteLength" : 544
    },
    {
      "buffer" : 0,
      "byteOffset" : 396360,
      "byteLength" : 544
    },
    {
      "buffer" : 0,
      "byteOffset" : 396904,
      "byteLength" : 544
    },
    {
      "buffer" : 0,
      "byteOffset" : 397448,
      "byteLength" : 260
    },
    {
      "buffer" : 0,
      "byteOffset" : 397708,
      "byteLength" : 876
    },
    {
      "buffer" : 0,
      "byteOffset" : 398584,
      "byteLength" : 876
    },
    {
      "buffer" : 0,
      "byteOffset" : 399460,
      "byteLength" : 1168
    },
    {
      "buffer" : 0,
      "byteOffset" : 400628,
      "byteLength" : 584
    },
    {
      "buffer" : 0,
      "byteOffset" : 401212,
      "byteLength" : 584
    },
    {
      "buffer" : 0,
      "byteOffset" : 401796,
      "byteLength" : 584
    },
    {
      "buffer" : 0,
      "byteOffset" : 402380,
      "byteLength" : 584
    },
    {
      "buffer" : 0,
      "byteOffset" : 402964,
      "byteLength" : 584
    }
  ],
  "accessors" : [
    {
      "bufferView" : 0,
      "componentType" : 5123,
      "count" : 4965,
      "type" : "SCALAR"
    },
    {
      "bufferView" : 1,
      "min" : [ 19.3529, 6.3, 12.8712 ],
      "max" : [ 57.208, 33.4218, 49.5267 ],
      "componentType" : 5126,
      "count" : 2782,
      "type" : "VEC3"
    },
    {
      "bufferView" : 2,
      "componentType" : 5126,
      "count" : 2782,
      "type" : "VEC3"
    },
    {
      "bufferView" : 3,
      "componentType" : 5126,
      "count" : 2782,
      "type" : "VEC4"
    },
    {
      "bufferView" : 4,
      "componentType" : 5126,
      "count" : 2782,
      "type" : "VEC2"
    },
    {
      "bufferView" : 5,
      "componentType" : 5126,
      "count" : 2782,
      "type" : "VEC2"
    },
    {
      "bufferView" : 6,
      "componentType" : 5126,
      "count" : 2782,
      "type" : "VEC2"
    },
    {
      "bufferView" : 7,
      "componentType" : 5126,
      "count" : 2782,
      "type" : "VEC2"
    },
    {
      "bufferView" : 8,
      "componentType" : 5126,
      "count" : 2782,
      "type" : "VEC2"
    },
    {
      "bufferView" : 9,
      "componentType" : 5123,
      "count" : 3456,
      "type" : "SCALAR"
    },
    {
      "bufferView" : 10,
      "min" : [ 20.1955, 5.9483, 13.9152 ],
      "max" : [ 55.2957, 31.7454, 49.0122 ],
      "componentType" : 5126,
      "count" : 1905,
      "type" : "VEC3"
    },
    {
      "bufferView" : 11,
      "componentType" : 5126,
      "count" : 1905,
      "type" : "VEC3"
    },
    {
      "bufferView" : 12,
      "componentType" : 5126,
      "count" : 1905,
      "type" : "VEC4"
    },
    {
      "bufferView" : 13,
      "componentType" : 5126,
      "count" : 1905,
      "type" : "VEC2"
    },
    {
      "bufferView" : 14,
      "componentType" : 5126,
      "count" : 1905,
      "type" : "VEC2"
    },
    {
      "bufferView" : 15,
      "componentType" : 5126,
      "count" : 1905,
      "type" : "VEC2"
    },
    {
      "bufferView" : 16,
      "componentType" : 5126,
      "count" : 1905,
      "type" : "VEC2"
    },
    {
      "bufferView" : 17,
      "componentType" : 5126,
      "count" : 1905,
      "type" : "VEC2"
    },
    {
      "bufferView" : 18,
      "componentType" : 5123,
      "count" : 102,
      "type" : "SCALAR"
    },
    {
      "bufferView" : 19,
      "min" : [ 24.8319, 8.32316, 18.9284 ],
      "max" : [ 41.7371, 22.25, 43.7425 ],
      "componentType" : 5126,
      "count" : 68,
      "type" : "VEC3"
    },
    {
      "bufferView" : 20,
      "componentType" : 5126,
      "count" : 68,
      "type" : "VEC3"
    },
    {
      "bufferView" : 21,
      "componentType" : 5126,
      "count" : 68,
      "type" : "VEC4"
    },
    {
      "bufferView" : 22,
      "componentType" : 5126,
      "count" : 68,
      "type" : "VEC2"
    },
    {
      "bufferView" : 23,
      "componentType" : 5126,
      "count" : 68,
      "type" : "VEC2"
    },
    {
      "bufferView" : 24,
      "componentType" : 5126,
      "count" : 68,
      "type" : "VEC2"
    },
    {
      "bufferView" : 25,
      "componentType" : 5126,
      "count" : 68,
      "type" : "VEC2"
    },
    {
      "bufferView" : 26,
      "componentType" : 5126,
      "count" : 68,
      "type" : "VEC2"
    },
    {
      "bufferView" : 27,
      "componentType" : 5123,
      "count" : 129,
      "type" : "SCALAR"
    },
    {
      "bufferView" : 28,
      "min" : [ 21.084, 24.0092, 15.5395 ],
      "max" : [ 45.8716, 25.5818, 39.4995 ],
      "componentType" : 5126,
      "count" : 73,
      "type" : "VEC3"
    },
    {
      "bufferView" : 29,
      "componentType" : 5126,
      "count" : 73,
      "type" : "VEC3"
    },
    {
      "bufferView" : 30,
      "componentType" : 5126,
      "count" : 73,
      "type" : "VEC4"
    },
    {
      "bufferView" : 31,
      "componentType" : 5126,
      "count" : 73,
      "type" : "VEC2"
    },
    {
      "bufferView" : 32,
      "componentType" : 5126,
      "count" : 73,
      "type" : "VEC2"
    },
    {
      "bufferView" : 33,
      "componentType" : 5126,
      "count" : 73,
      "type" : "VEC2"
    },
    {
      "bufferView" : 34,
      "componentType" : 5126,
      "count" : 73,
      "type" : "VEC2"
    },
    {
      "bufferView" : 35,
      "componentType" : 5126,
      "count" : 73,
      "type" : "VEC2"
    }
  ]
}
