{
  "asset" : {
    "generator" : "UE Viewer (umodel) build 1544 based",
    "version" : "2.0"
  },
  "scene" : 0,
  "scenes" : [
    {
      "nodes" : [ 0 ]
    }
  ],
  "nodes" : [
    {
      "name" : "COL_SM_ENV_KNVLLG03_BridgeA_2",
      "mesh" : 0
    }
  ],
  "materials" : [
    {
      "name" : "MI_Wood",
      "pbrMetallicRoughness" : {
        "baseColorFactor" : [ 0.3, 0.3, 0.3, 1.0 ],
        "metallicFactor" : 0.1,
        "roughnessFactor" : 0.5
      }
    }
  ],
  "meshes" : [
    {
      "primitives" : [
        {
          "attributes" : {
            "POSITION" : 1,
            "NORMAL" : 2,
            "TANGENT" : 3,
            "TEXCOORD_0" : 4
          },
          "indices" : 0,
          "material" : 0
        }
      ],
      "name" : "COL_SM_ENV_KNVLLG03_BridgeA_2"
    }
  ],
  "buffers" : [
    {
      "uri" : "COL_SM_ENV_KNVLLG03_BridgeA_2.bin",
      "byteLength" : 61884
    }
  ],
  "bufferViews" : [
    {
      "buffer" : 0,
      "byteOffset" : 0,
      "byteLength" : 4572
    },
    {
      "buffer" : 0,
      "byteOffset" : 4572,
      "byteLength" : 14328
    },
    {
      "buffer" : 0,
      "byteOffset" : 18900,
      "byteLength" : 14328
    },
    {
      "buffer" : 0,
      "byteOffset" : 33228,
      "byteLength" : 19104
    },
    {
      "buffer" : 0,
      "byteOffset" : 52332,
      "byteLength" : 9552
    }
  ],
  "accessors" : [
    {
      "bufferView" : 0,
      "componentType" : 5123,
      "count" : 2286,
      "type" : "SCALAR"
    },
    {
      "bufferView" : 1,
      "min" : [ -71.2967, 6.1, -114.457 ],
      "max" : [ -27.1848, 8.11569, 71.3226 ],
      "componentType" : 5126,
      "count" : 1194,
      "type" : "VEC3"
    },
    {
      "bufferView" : 2,
      "componentType" : 5126,
      "count" : 1194,
      "type" : "VEC3"
    },
    {
      "bufferView" : 3,
      "componentType" : 5126,
      "count" : 1194,
      "type" : "VEC4"
    },
    {
      "bufferView" : 4,
      "componentType" : 5126,
      "count" : 1194,
      "type" : "VEC2"
    }
  ]
}
