{
  "asset" : {
    "generator" : "UE Viewer (umodel) build 1544 based",
    "version" : "2.0"
  },
  "scene" : 0,
  "scenes" : [
    {
      "nodes" : [ 0 ]
    }
  ],
  "nodes" : [
    {
      "name" : "COL_SM_ENV_KNVLLG03_AreaC_BuildingA_2",
      "mesh" : 0
    }
  ],
  "materials" : [
    {
      "name" : "WorldGridMaterial",
      "pbrMetallicRoughness" : {
        "baseColorFactor" : [ 0.3, 0.3, 0.3, 1.0 ],
        "metallicFactor" : 0.1,
        "roughnessFactor" : 0.5
      }
    }
  ],
  "meshes" : [
    {
      "primitives" : [
        {
          "attributes" : {
            "POSITION" : 1,
            "NORMAL" : 2,
            "TANGENT" : 3,
            "TEXCOORD_0" : 4
          },
          "indices" : 0,
          "material" : 0
        }
      ],
      "name" : "COL_SM_ENV_KNVLLG03_AreaC_BuildingA_2"
    }
  ],
  "buffers" : [
    {
      "uri" : "COL_SM_ENV_KNVLLG03_AreaC_BuildingA_2.bin",
      "byteLength" : 10368
    }
  ],
  "bufferViews" : [
    {
      "buffer" : 0,
      "byteOffset" : 0,
      "byteLength" : 768
    },
    {
      "buffer" : 0,
      "byteOffset" : 768,
      "byteLength" : 2400
    },
    {
      "buffer" : 0,
      "byteOffset" : 3168,
      "byteLength" : 2400
    },
    {
      "buffer" : 0,
      "byteOffset" : 5568,
      "byteLength" : 3200
    },
    {
      "buffer" : 0,
      "byteOffset" : 8768,
      "byteLength" : 1600
    }
  ],
  "accessors" : [
    {
      "bufferView" : 0,
      "componentType" : 5123,
      "count" : 384,
      "type" : "SCALAR"
    },
    {
      "bufferView" : 1,
      "min" : [ -62.2768, 2.58156, -68.1792 ],
      "max" : [ -42.2892, 4.42563, -53.1023 ],
      "componentType" : 5126,
      "count" : 200,
      "type" : "VEC3"
    },
    {
      "bufferView" : 2,
      "componentType" : 5126,
      "count" : 200,
      "type" : "VEC3"
    },
    {
      "bufferView" : 3,
      "componentType" : 5126,
      "count" : 200,
      "type" : "VEC4"
    },
    {
      "bufferView" : 4,
      "componentType" : 5126,
      "count" : 200,
      "type" : "VEC2"
    }
  ]
}
