{
  "asset" : {
    "generator" : "UE Viewer (umodel) build 1544 based",
    "version" : "2.0"
  },
  "scene" : 0,
  "scenes" : [
    {
      "nodes" : [ 0 ]
    }
  ],
  "nodes" : [
    {
      "name" : "COL_SM_ENV_KNVLLG03_AreaF_BuildingA_3",
      "mesh" : 0
    }
  ],
  "materials" : [
    {
      "name" : "MI_Concrete",
      "pbrMetallicRoughness" : {
        "baseColorFactor" : [ 0.3, 0.3, 0.3, 1.0 ],
        "metallicFactor" : 0.1,
        "roughnessFactor" : 0.5
      }
    }
  ],
  "meshes" : [
    {
      "primitives" : [
        {
          "attributes" : {
            "POSITION" : 1,
            "NORMAL" : 2,
            "TANGENT" : 3,
            "COLOR_0" : 4,
            "TEXCOORD_0" : 5,
            "TEXCOORD_1" : 6,
            "TEXCOORD_2" : 7,
            "TEXCOORD_3" : 8
          },
          "indices" : 0,
          "material" : 0
        }
      ],
      "name" : "COL_SM_ENV_KNVLLG03_AreaF_BuildingA_3"
    }
  ],
  "buffers" : [
    {
      "uri" : "COL_SM_ENV_KNVLLG03_AreaF_BuildingA_3.bin",
      "byteLength" : 71616
    }
  ],
  "bufferViews" : [
    {
      "buffer" : 0,
      "byteOffset" : 0,
      "byteLength" : 3216
    },
    {
      "buffer" : 0,
      "byteOffset" : 3216,
      "byteLength" : 10800
    },
    {
      "buffer" : 0,
      "byteOffset" : 14016,
      "byteLength" : 10800
    },
    {
      "buffer" : 0,
      "byteOffset" : 24816,
      "byteLength" : 14400
    },
    {
      "buffer" : 0,
      "byteOffset" : 39216,
      "byteLength" : 3600
    },
    {
      "buffer" : 0,
      "byteOffset" : 42816,
      "byteLength" : 7200
    },
    {
      "buffer" : 0,
      "byteOffset" : 50016,
      "byteLength" : 7200
    },
    {
      "buffer" : 0,
      "byteOffset" : 57216,
      "byteLength" : 7200
    },
    {
      "buffer" : 0,
      "byteOffset" : 64416,
      "byteLength" : 7200
    }
  ],
  "accessors" : [
    {
      "bufferView" : 0,
      "componentType" : 5123,
      "count" : 1608,
      "type" : "SCALAR"
    },
    {
      "bufferView" : 1,
      "min" : [ 26.9039, 6.29999, 41.9411 ],
      "max" : [ 34.5831, 29.3826, 50.7262 ],
      "componentType" : 5126,
      "count" : 900,
      "type" : "VEC3"
    },
    {
      "bufferView" : 2,
      "componentType" : 5126,
      "count" : 900,
      "type" : "VEC3"
    },
    {
      "bufferView" : 3,
      "componentType" : 5126,
      "count" : 900,
      "type" : "VEC4"
    },
    {
      "bufferView" : 4,
      "normalized" : true,
      "componentType" : 5121,
      "count" : 900,
      "type" : "VEC4"
    },
    {
      "bufferView" : 5,
      "componentType" : 5126,
      "count" : 900,
      "type" : "VEC2"
    },
    {
      "bufferView" : 6,
      "componentType" : 5126,
      "count" : 900,
      "type" : "VEC2"
    },
    {
      "bufferView" : 7,
      "componentType" : 5126,
      "count" : 900,
      "type" : "VEC2"
    },
    {
      "bufferView" : 8,
      "componentType" : 5126,
      "count" : 900,
      "type" : "VEC2"
    }
  ]
}
