{
  "asset" : {
    "generator" : "UE Viewer (umodel) build 1544 based",
    "version" : "2.0"
  },
  "scene" : 0,
  "scenes" : [
    {
      "nodes" : [ 0 ]
    }
  ],
  "nodes" : [
    {
      "name" : "COL_SM_ENV_KNVLLG03_AreaA_Building_B_2",
      "mesh" : 0
    }
  ],
  "materials" : [
    {
      "name" : "MI_Concrete",
      "pbrMetallicRoughness" : {
        "baseColorFactor" : [ 0.3, 0.3, 0.3, 1.0 ],
        "metallicFactor" : 0.1,
        "roughnessFactor" : 0.5
      }
    }
  ],
  "meshes" : [
    {
      "primitives" : [
        {
          "attributes" : {
            "POSITION" : 1,
            "NORMAL" : 2,
            "TANGENT" : 3,
            "TEXCOORD_0" : 4
          },
          "indices" : 0,
          "material" : 0
        }
      ],
      "name" : "COL_SM_ENV_KNVLLG03_AreaA_Building_B_2"
    }
  ],
  "buffers" : [
    {
      "uri" : "COL_SM_ENV_KNVLLG03_AreaA_Building_B_2.bin",
      "byteLength" : 26508
    }
  ],
  "bufferViews" : [
    {
      "buffer" : 0,
      "byteOffset" : 0,
      "byteLength" : 2364
    },
    {
      "buffer" : 0,
      "byteOffset" : 2364,
      "byteLength" : 6036
    },
    {
      "buffer" : 0,
      "byteOffset" : 8400,
      "byteLength" : 6036
    },
    {
      "buffer" : 0,
      "byteOffset" : 14436,
      "byteLength" : 8048
    },
    {
      "buffer" : 0,
      "byteOffset" : 22484,
      "byteLength" : 4024
    }
  ],
  "accessors" : [
    {
      "bufferView" : 0,
      "componentType" : 5123,
      "count" : 1182,
      "type" : "SCALAR"
    },
    {
      "bufferView" : 1,
      "min" : [ 19.3279, 32.9589, 74.4404 ],
      "max" : [ 25.2354, 37.0324, 104.545 ],
      "componentType" : 5126,
      "count" : 503,
      "type" : "VEC3"
    },
    {
      "bufferView" : 2,
      "componentType" : 5126,
      "count" : 503,
      "type" : "VEC3"
    },
    {
      "bufferView" : 3,
      "componentType" : 5126,
      "count" : 503,
      "type" : "VEC4"
    },
    {
      "bufferView" : 4,
      "componentType" : 5126,
      "count" : 503,
      "type" : "VEC2"
    }
  ]
}
