{
  "asset" : {
    "generator" : "UE Viewer (umodel) build 1544 based",
    "version" : "2.0"
  },
  "scene" : 0,
  "scenes" : [
    {
      "nodes" : [ 0 ]
    }
  ],
  "nodes" : [
    {
      "name" : "COL_SM_ENV_KNVLLG03_AreaC_TreeSet",
      "mesh" : 0
    }
  ],
  "materials" : [
    {
      "name" : "WorldGridMaterial",
      "pbrMetallicRoughness" : {
        "baseColorFactor" : [ 0.3, 0.3, 0.3, 1.0 ],
        "metallicFactor" : 0.1,
        "roughnessFactor" : 0.5
      }
    }
  ],
  "meshes" : [
    {
      "primitives" : [
        {
          "attributes" : {
            "POSITION" : 1,
            "NORMAL" : 2,
            "TANGENT" : 3,
            "TEXCOORD_0" : 4,
            "TEXCOORD_1" : 5
          },
          "indices" : 0,
          "material" : 0
        }
      ],
      "name" : "COL_SM_ENV_KNVLLG03_AreaC_TreeSet"
    }
  ],
  "buffers" : [
    {
      "uri" : "COL_SM_ENV_KNVLLG03_AreaC_TreeSet.bin",
      "byteLength" : 6076
    }
  ],
  "bufferViews" : [
    {
      "buffer" : 0,
      "byteOffset" : 0,
      "byteLength" : 588
    },
    {
      "buffer" : 0,
      "byteOffset" : 588,
      "byteLength" : 1176
    },
    {
      "buffer" : 0,
      "byteOffset" : 1764,
      "byteLength" : 1176
    },
    {
      "buffer" : 0,
      "byteOffset" : 2940,
      "byteLength" : 1568
    },
    {
      "buffer" : 0,
      "byteOffset" : 4508,
      "byteLength" : 784
    },
    {
      "buffer" : 0,
      "byteOffset" : 5292,
      "byteLength" : 784
    }
  ],
  "accessors" : [
    {
      "bufferView" : 0,
      "componentType" : 5123,
      "count" : 294,
      "type" : "SCALAR"
    },
    {
      "bufferView" : 1,
      "min" : [ -64.7355, -0.302122, -82.7223 ],
      "max" : [ -20.0452, 8.31707, 80.1545 ],
      "componentType" : 5126,
      "count" : 98,
      "type" : "VEC3"
    },
    {
      "bufferView" : 2,
      "componentType" : 5126,
      "count" : 98,
      "type" : "VEC3"
    },
    {
      "bufferView" : 3,
      "componentType" : 5126,
      "count" : 98,
      "type" : "VEC4"
    },
    {
      "bufferView" : 4,
      "componentType" : 5126,
      "count" : 98,
      "type" : "VEC2"
    },
    {
      "bufferView" : 5,
      "componentType" : 5126,
      "count" : 98,
      "type" : "VEC2"
    }
  ]
}
