{
  "asset" : {
    "generator" : "UE Viewer (umodel) build 1544 based",
    "version" : "2.0"
  },
  "scene" : 0,
  "scenes" : [
    {
      "nodes" : [ 0 ]
    }
  ],
  "nodes" : [
    {
      "name" : "COL_SM_ENV_KNVLLG03_AreaD_Hokage_Distance",
      "mesh" : 0
    }
  ],
  "materials" : [
    {
      "name" : "MI_Wood",
      "pbrMetallicRoughness" : {
        "baseColorFactor" : [ 0.3, 0.3, 0.3, 1.0 ],
        "metallicFactor" : 0.1,
        "roughnessFactor" : 0.5
      }
    }
  ],
  "meshes" : [
    {
      "primitives" : [
        {
          "attributes" : {
            "POSITION" : 1,
            "NORMAL" : 2,
            "TANGENT" : 3,
            "COLOR_0" : 4,
            "TEXCOORD_0" : 5,
            "TEXCOORD_1" : 6,
            "TEXCOORD_2" : 7,
            "TEXCOORD_3" : 8,
            "TEXCOORD_4" : 9
          },
          "indices" : 0,
          "material" : 0
        }
      ],
      "name" : "COL_SM_ENV_KNVLLG03_AreaD_Hokage_Distance"
    }
  ],
  "buffers" : [
    {
      "uri" : "COL_SM_ENV_KNVLLG03_AreaD_Hokage_Distance.bin",
      "byteLength" : 313728
    }
  ],
  "bufferViews" : [
    {
      "buffer" : 0,
      "byteOffset" : 0,
      "byteLength" : 11160
    },
    {
      "buffer" : 0,
      "byteOffset" : 11160,
      "byteLength" : 43224
    },
    {
      "buffer" : 0,
      "byteOffset" : 54384,
      "byteLength" : 43224
    },
    {
      "buffer" : 0,
      "byteOffset" : 97608,
      "byteLength" : 57632
    },
    {
      "buffer" : 0,
      "byteOffset" : 155240,
      "byteLength" : 14408
    },
    {
      "buffer" : 0,
      "byteOffset" : 169648,
      "byteLength" : 28816
    },
    {
      "buffer" : 0,
      "byteOffset" : 198464,
      "byteLength" : 28816
    },
    {
      "buffer" : 0,
      "byteOffset" : 227280,
      "byteLength" : 28816
    },
    {
      "buffer" : 0,
      "byteOffset" : 256096,
      "byteLength" : 28816
    },
    {
      "buffer" : 0,
      "byteOffset" : 284912,
      "byteLength" : 28816
    }
  ],
  "accessors" : [
    {
      "bufferView" : 0,
      "componentType" : 5123,
      "count" : 5580,
      "type" : "SCALAR"
    },
    {
      "bufferView" : 1,
      "min" : [ -48.4327, 5.71633, -159.202 ],
      "max" : [ 48.4548, 51.6376, -83.4532 ],
      "componentType" : 5126,
      "count" : 3602,
      "type" : "VEC3"
    },
    {
      "bufferView" : 2,
      "componentType" : 5126,
      "count" : 3602,
      "type" : "VEC3"
    },
    {
      "bufferView" : 3,
      "componentType" : 5126,
      "count" : 3602,
      "type" : "VEC4"
    },
    {
      "bufferView" : 4,
      "normalized" : true,
      "componentType" : 5121,
      "count" : 3602,
      "type" : "VEC4"
    },
    {
      "bufferView" : 5,
      "componentType" : 5126,
      "count" : 3602,
      "type" : "VEC2"
    },
    {
      "bufferView" : 6,
      "componentType" : 5126,
      "count" : 3602,
      "type" : "VEC2"
    },
    {
      "bufferView" : 7,
      "componentType" : 5126,
      "count" : 3602,
      "type" : "VEC2"
    },
    {
      "bufferView" : 8,
      "componentType" : 5126,
      "count" : 3602,
      "type" : "VEC2"
    },
    {
      "bufferView" : 9,
      "componentType" : 5126,
      "count" : 3602,
      "type" : "VEC2"
    }
  ]
}
