{
  "asset" : {
    "generator" : "UE Viewer (umodel) build 1544 based",
    "version" : "2.0"
  },
  "scene" : 0,
  "scenes" : [
    {
      "nodes" : [ 0 ]
    }
  ],
  "nodes" : [
    {
      "name" : "COL_SM_ENV_KNVLLG03_AreaF_BuildingB",
      "mesh" : 0
    }
  ],
  "materials" : [
    {
      "name" : "MI_Wood",
      "pbrMetallicRoughness" : {
        "baseColorFactor" : [ 0.3, 0.3, 0.3, 1.0 ],
        "metallicFactor" : 0.1,
        "roughnessFactor" : 0.5
      }
    },
    {
      "name" : "MI_Concrete",
      "pbrMetallicRoughness" : {
        "baseColorFactor" : [ 0.9, 0.3, 0.3, 1.0 ],
        "metallicFactor" : 0.1,
        "roughnessFactor" : 0.5
      }
    },
    {
      "name" : "MI_Metal",
      "pbrMetallicRoughness" : {
        "baseColorFactor" : [ 0.3, 0.9, 0.3, 1.0 ],
        "metallicFactor" : 0.1,
        "roughnessFactor" : 0.5
      }
    },
    {
      "name" : "MI_Grass",
      "pbrMetallicRoughness" : {
        "baseColorFactor" : [ 0.3, 0.3, 0.9, 1.0 ],
        "metallicFactor" : 0.1,
        "roughnessFactor" : 0.5
      }
    }
  ],
  "meshes" : [
    {
      "primitives" : [
        {
          "attributes" : {
            "POSITION" : 1,
            "NORMAL" : 2,
            "TANGENT" : 3,
            "COLOR_0" : 4,
            "TEXCOORD_0" : 5,
            "TEXCOORD_1" : 6,
            "TEXCOORD_2" : 7,
            "TEXCOORD_3" : 8,
            "TEXCOORD_4" : 9
          },
          "indices" : 0,
          "material" : 0
        },
        {
          "attributes" : {
            "POSITION" : 11,
            "NORMAL" : 12,
            "TANGENT" : 13,
            "COLOR_0" : 14,
            "TEXCOORD_0" : 15,
            "TEXCOORD_1" : 16,
            "TEXCOORD_2" : 17,
            "TEXCOORD_3" : 18,
            "TEXCOORD_4" : 19
          },
          "indices" : 10,
          "material" : 1
        },
        {
          "attributes" : {
            "POSITION" : 21,
            "NORMAL" : 22,
            "TANGENT" : 23,
            "COLOR_0" : 24,
            "TEXCOORD_0" : 25,
            "TEXCOORD_1" : 26,
            "TEXCOORD_2" : 27,
            "TEXCOORD_3" : 28,
            "TEXCOORD_4" : 29
          },
          "indices" : 20,
          "material" : 2
        },
        {
          "attributes" : {
            "POSITION" : 31,
            "NORMAL" : 32,
            "TANGENT" : 33,
            "COLOR_0" : 34,
            "TEXCOORD_0" : 35,
            "TEXCOORD_1" : 36,
            "TEXCOORD_2" : 37,
            "TEXCOORD_3" : 38,
            "TEXCOORD_4" : 39
          },
          "indices" : 30,
          "material" : 3
        }
      ],
      "name" : "COL_SM_ENV_KNVLLG03_AreaF_BuildingB"
    }
  ],
  "buffers" : [
    {
      "uri" : "COL_SM_ENV_KNVLLG03_AreaF_BuildingB.bin",
      "byteLength" : 698608
    }
  ],
  "bufferViews" : [
    {
      "buffer" : 0,
      "byteOffset" : 0,
      "byteLength" : 3128
    },
    {
      "buffer" : 0,
      "byteOffset" : 3128,
      "byteLength" : 11364
    },
    {
      "buffer" : 0,
      "byteOffset" : 14492,
      "byteLength" : 11364
    },
    {
      "buffer" : 0,
      "byteOffset" : 25856,
      "byteLength" : 15152
    },
    {
      "buffer" : 0,
      "byteOffset" : 41008,
      "byteLength" : 3788
    },
    {
      "buffer" : 0,
      "byteOffset" : 44796,
      "byteLength" : 7576
    },
    {
      "buffer" : 0,
      "byteOffset" : 52372,
      "byteLength" : 7576
    },
    {
      "buffer" : 0,
      "byteOffset" : 59948,
      "byteLength" : 7576
    },
    {
      "buffer" : 0,
      "byteOffset" : 67524,
      "byteLength" : 7576
    },
    {
      "buffer" : 0,
      "byteOffset" : 75100,
      "byteLength" : 7576
    },
    {
      "buffer" : 0,
      "byteOffset" : 82676,
      "byteLength" : 25800
    },
    {
      "buffer" : 0,
      "byteOffset" : 108476,
      "byteLength" : 79572
    },
    {
      "buffer" : 0,
      "byteOffset" : 188048,
      "byteLength" : 79572
    },
    {
      "buffer" : 0,
      "byteOffset" : 267620,
      "byteLength" : 106096
    },
    {
      "buffer" : 0,
      "byteOffset" : 373716,
      "byteLength" : 26524
    },
    {
      "buffer" : 0,
      "byteOffset" : 400240,
      "byteLength" : 53048
    },
    {
      "buffer" : 0,
      "byteOffset" : 453288,
      "byteLength" : 53048
    },
    {
      "buffer" : 0,
      "byteOffset" : 506336,
      "byteLength" : 53048
    },
    {
      "buffer" : 0,
      "byteOffset" : 559384,
      "byteLength" : 53048
    },
    {
      "buffer" : 0,
      "byteOffset" : 612432,
      "byteLength" : 53048
    },
    {
      "buffer" : 0,
      "byteOffset" : 665480,
      "byteLength" : 560
    },
    {
      "buffer" : 0,
      "byteOffset" : 666040,
      "byteLength" : 1788
    },
    {
      "buffer" : 0,
      "byteOffset" : 667828,
      "byteLength" : 1788
    },
    {
      "buffer" : 0,
      "byteOffset" : 669616,
      "byteLength" : 2384
    },
    {
      "buffer" : 0,
      "byteOffset" : 672000,
      "byteLength" : 596
    },
    {
      "buffer" : 0,
      "byteOffset" : 672596,
      "byteLength" : 1192
    },
    {
      "buffer" : 0,
      "byteOffset" : 673788,
      "byteLength" : 1192
    },
    {
      "buffer" : 0,
      "byteOffset" : 674980,
      "byteLength" : 1192
    },
    {
      "buffer" : 0,
      "byteOffset" : 676172,
      "byteLength" : 1192
    },
    {
      "buffer" : 0,
      "byteOffset" : 677364,
      "byteLength" : 1192
    },
    {
      "buffer" : 0,
      "byteOffset" : 678556,
      "byteLength" : 732
    },
    {
      "buffer" : 0,
      "byteOffset" : 679288,
      "byteLength" : 2760
    },
    {
      "buffer" : 0,
      "byteOffset" : 682048,
      "byteLength" : 2760
    },
    {
      "buffer" : 0,
      "byteOffset" : 684808,
      "byteLength" : 3680
    },
    {
      "buffer" : 0,
      "byteOffset" : 688488,
      "byteLength" : 920
    },
    {
      "buffer" : 0,
      "byteOffset" : 689408,
      "byteLength" : 1840
    },
    {
      "buffer" : 0,
      "byteOffset" : 691248,
      "byteLength" : 1840
    },
    {
      "buffer" : 0,
      "byteOffset" : 693088,
      "byteLength" : 1840
    },
    {
      "buffer" : 0,
      "byteOffset" : 694928,
      "byteLength" : 1840
    },
    {
      "buffer" : 0,
      "byteOffset" : 696768,
      "byteLength" : 1840
    }
  ],
  "accessors" : [
    {
      "bufferView" : 0,
      "componentType" : 5123,
      "count" : 1563,
      "type" : "SCALAR"
    },
    {
      "bufferView" : 1,
      "min" : [ 43.8131, 4.1, -14.1365 ],
      "max" : [ 70.4786, 40.5079, 23.0035 ],
      "componentType" : 5126,
      "count" : 947,
      "type" : "VEC3"
    },
    {
      "bufferView" : 2,
      "componentType" : 5126,
      "count" : 947,
      "type" : "VEC3"
    },
    {
      "bufferView" : 3,
      "componentType" : 5126,
      "count" : 947,
      "type" : "VEC4"
    },
    {
      "bufferView" : 4,
      "normalized" : true,
      "componentType" : 5121,
      "count" : 947,
      "type" : "VEC4"
    },
    {
      "bufferView" : 5,
      "componentType" : 5126,
      "count" : 947,
      "type" : "VEC2"
    },
    {
      "bufferView" : 6,
      "componentType" : 5126,
      "count" : 947,
      "type" : "VEC2"
    },
    {
      "bufferView" : 7,
      "componentType" : 5126,
      "count" : 947,
      "type" : "VEC2"
    },
    {
      "bufferView" : 8,
      "componentType" : 5126,
      "count" : 947,
      "type" : "VEC2"
    },
    {
      "bufferView" : 9,
      "componentType" : 5126,
      "count" : 947,
      "type" : "VEC2"
    },
    {
      "bufferView" : 10,
      "componentType" : 5123,
      "count" : 12900,
      "type" : "SCALAR"
    },
    {
      "bufferView" : 11,
      "min" : [ 43.8131, 0.857979, -14.9281 ],
      "max" : [ 74.17, 42.589, 23.0035 ],
      "componentType" : 5126,
      "count" : 6631,
      "type" : "VEC3"
    },
    {
      "bufferView" : 12,
      "componentType" : 5126,
      "count" : 6631,
      "type" : "VEC3"
    },
    {
      "bufferView" : 13,
      "componentType" : 5126,
      "count" : 6631,
      "type" : "VEC4"
    },
    {
      "bufferView" : 14,
      "normalized" : true,
      "componentType" : 5121,
      "count" : 6631,
      "type" : "VEC4"
    },
    {
      "bufferView" : 15,
      "componentType" : 5126,
      "count" : 6631,
      "type" : "VEC2"
    },
    {
      "bufferView" : 16,
      "componentType" : 5126,
      "count" : 6631,
      "type" : "VEC2"
    },
    {
      "bufferView" : 17,
      "componentType" : 5126,
      "count" : 6631,
      "type" : "VEC2"
    },
    {
      "bufferView" : 18,
      "componentType" : 5126,
      "count" : 6631,
      "type" : "VEC2"
    },
    {
      "bufferView" : 19,
      "componentType" : 5126,
      "count" : 6631,
      "type" : "VEC2"
    },
    {
      "bufferView" : 20,
      "componentType" : 5123,
      "count" : 279,
      "type" : "SCALAR"
    },
    {
      "bufferView" : 21,
      "min" : [ 44.1854, 18.0093, -12.5129 ],
      "max" : [ 59.67, 20.4168, 16.7584 ],
      "componentType" : 5126,
      "count" : 149,
      "type" : "VEC3"
    },
    {
      "bufferView" : 22,
      "componentType" : 5126,
      "count" : 149,
      "type" : "VEC3"
    },
    {
      "bufferView" : 23,
      "componentType" : 5126,
      "count" : 149,
      "type" : "VEC4"
    },
    {
      "bufferView" : 24,
      "normalized" : true,
      "componentType" : 5121,
      "count" : 149,
      "type" : "VEC4"
    },
    {
      "bufferView" : 25,
      "componentType" : 5126,
      "count" : 149,
      "type" : "VEC2"
    },
    {
      "bufferView" : 26,
      "componentType" : 5126,
      "count" : 149,
      "type" : "VEC2"
    },
    {
      "bufferView" : 27,
      "componentType" : 5126,
      "count" : 149,
      "type" : "VEC2"
    },
    {
      "bufferView" : 28,
      "componentType" : 5126,
      "count" : 149,
      "type" : "VEC2"
    },
    {
      "bufferView" : 29,
      "componentType" : 5126,
      "count" : 149,
      "type" : "VEC2"
    },
    {
      "bufferView" : 30,
      "componentType" : 5123,
      "count" : 366,
      "type" : "SCALAR"
    },
    {
      "bufferView" : 31,
      "min" : [ 45.9618, 8.30037, -8.31947 ],
      "max" : [ 64.4168, 40.118, 16.8529 ],
      "componentType" : 5126,
      "count" : 230,
      "type" : "VEC3"
    },
    {
      "bufferView" : 32,
      "componentType" : 5126,
      "count" : 230,
      "type" : "VEC3"
    },
    {
      "bufferView" : 33,
      "componentType" : 5126,
      "count" : 230,
      "type" : "VEC4"
    },
    {
      "bufferView" : 34,
      "normalized" : true,
      "componentType" : 5121,
      "count" : 230,
      "type" : "VEC4"
    },
    {
      "bufferView" : 35,
      "componentType" : 5126,
      "count" : 230,
      "type" : "VEC2"
    },
    {
      "bufferView" : 36,
      "componentType" : 5126,
      "count" : 230,
      "type" : "VEC2"
    },
    {
      "bufferView" : 37,
      "componentType" : 5126,
      "count" : 230,
      "type" : "VEC2"
    },
    {
      "bufferView" : 38,
      "componentType" : 5126,
      "count" : 230,
      "type" : "VEC2"
    },
    {
      "bufferView" : 39,
      "componentType" : 5126,
      "count" : 230,
      "type" : "VEC2"
    }
  ]
}
