{
  "asset" : {
    "generator" : "UE Viewer (umodel) build 1544 based",
    "version" : "2.0"
  },
  "scene" : 0,
  "scenes" : [
    {
      "nodes" : [ 0 ]
    }
  ],
  "nodes" : [
    {
      "name" : "COL_SM_ENV_KNVLLG03_Ground_All",
      "mesh" : 0
    }
  ],
  "materials" : [
    {
      "name" : "MI_Metal",
      "pbrMetallicRoughness" : {
        "baseColorFactor" : [ 0.3, 0.3, 0.3, 1.0 ],
        "metallicFactor" : 0.1,
        "roughnessFactor" : 0.5
      }
    },
    {
      "name" : "MI_Concrete",
      "pbrMetallicRoughness" : {
        "baseColorFactor" : [ 0.9, 0.3, 0.3, 1.0 ],
        "metallicFactor" : 0.1,
        "roughnessFactor" : 0.5
      }
    },
    {
      "name" : "MI_Water",
      "pbrMetallicRoughness" : {
        "baseColorFactor" : [ 0.3, 0.9, 0.3, 1.0 ],
        "metallicFactor" : 0.1,
        "roughnessFactor" : 0.5
      }
    },
    {
      "name" : "MI_Grass",
      "pbrMetallicRoughness" : {
        "baseColorFactor" : [ 0.3, 0.3, 0.9, 1.0 ],
        "metallicFactor" : 0.1,
        "roughnessFactor" : 0.5
      }
    },
    {
      "name" : "MI_Dirt",
      "pbrMetallicRoughness" : {
        "baseColorFactor" : [ 0.9, 0.9, 0.9, 1.0 ],
        "metallicFactor" : 0.1,
        "roughnessFactor" : 0.5
      }
    },
    {
      "name" : "MI_Rock",
      "pbrMetallicRoughness" : {
        "baseColorFactor" : [ 0.9, 0.9, 0.3, 1.0 ],
        "metallicFactor" : 0.1,
        "roughnessFactor" : 0.5
      }
    },
    {
      "name" : "MI_Wood",
      "pbrMetallicRoughness" : {
        "baseColorFactor" : [ 0.9, 0.3, 0.9, 1.0 ],
        "metallicFactor" : 0.1,
        "roughnessFactor" : 0.5
      }
    }
  ],
  "meshes" : [
    {
      "primitives" : [
        {
          "attributes" : {
            "POSITION" : 1,
            "NORMAL" : 2,
            "TANGENT" : 3,
            "COLOR_0" : 4,
            "TEXCOORD_0" : 5,
            "TEXCOORD_1" : 6
          },
          "indices" : 0,
          "material" : 0
        },
        {
          "attributes" : {
            "POSITION" : 8,
            "NORMAL" : 9,
            "TANGENT" : 10,
            "COLOR_0" : 11,
            "TEXCOORD_0" : 12,
            "TEXCOORD_1" : 13
          },
          "indices" : 7,
          "material" : 1
        },
        {
          "attributes" : {
            "POSITION" : 15,
            "NORMAL" : 16,
            "TANGENT" : 17,
            "COLOR_0" : 18,
            "TEXCOORD_0" : 19,
            "TEXCOORD_1" : 20
          },
          "indices" : 14,
          "material" : 2
        },
        {
          "attributes" : {
            "POSITION" : 22,
            "NORMAL" : 23,
            "TANGENT" : 24,
            "COLOR_0" : 25,
            "TEXCOORD_0" : 26,
            "TEXCOORD_1" : 27
          },
          "indices" : 21,
          "material" : 3
        },
        {
          "attributes" : {
            "POSITION" : 29,
            "NORMAL" : 30,
            "TANGENT" : 31,
            "COLOR_0" : 32,
            "TEXCOORD_0" : 33,
            "TEXCOORD_1" : 34
          },
          "indices" : 28,
          "material" : 4
        },
        {
          "attributes" : {
            "POSITION" : 36,
            "NORMAL" : 37,
            "TANGENT" : 38,
            "COLOR_0" : 39,
            "TEXCOORD_0" : 40,
            "TEXCOORD_1" : 41
          },
          "indices" : 35,
          "material" : 5
        },
        {
          "attributes" : {
            "POSITION" : 43,
            "NORMAL" : 44,
            "TANGENT" : 45,
            "COLOR_0" : 46,
            "TEXCOORD_0" : 47,
            "TEXCOORD_1" : 48
          },
          "indices" : 42,
          "material" : 6
        }
      ],
      "name" : "COL_SM_ENV_KNVLLG03_Ground_All"
    }
  ],
  "buffers" : [
    {
      "uri" : "COL_SM_ENV_KNVLLG03_Ground_All.bin",
      "byteLength" : 392676
    }
  ],
  "bufferViews" : [
    {
      "buffer" : 0,
      "byteOffset" : 0,
      "byteLength" : 264
    },
    {
      "buffer" : 0,
      "byteOffset" : 264,
      "byteLength" : 660
    },
    {
      "buffer" : 0,
      "byteOffset" : 924,
      "byteLength" : 660
    },
    {
      "buffer" : 0,
      "byteOffset" : 1584,
      "byteLength" : 880
    },
    {
      "buffer" : 0,
      "byteOffset" : 2464,
      "byteLength" : 220
    },
    {
      "buffer" : 0,
      "byteOffset" : 2684,
      "byteLength" : 440
    },
    {
      "buffer" : 0,
      "byteOffset" : 3124,
      "byteLength" : 440
    },
    {
      "buffer" : 0,
      "byteOffset" : 3564,
      "byteLength" : 6312
    },
    {
      "buffer" : 0,
      "byteOffset" : 9876,
      "byteLength" : 23772
    },
    {
      "buffer" : 0,
      "byteOffset" : 33648,
      "byteLength" : 23772
    },
    {
      "buffer" : 0,
      "byteOffset" : 57420,
      "byteLength" : 31696
    },
    {
      "buffer" : 0,
      "byteOffset" : 89116,
      "byteLength" : 7924
    },
    {
      "buffer" : 0,
      "byteOffset" : 97040,
      "byteLength" : 15848
    },
    {
      "buffer" : 0,
      "byteOffset" : 112888,
      "byteLength" : 15848
    },
    {
      "buffer" : 0,
      "byteOffset" : 128736,
      "byteLength" : 36
    },
    {
      "buffer" : 0,
      "byteOffset" : 128772,
      "byteLength" : 168
    },
    {
      "buffer" : 0,
      "byteOffset" : 128940,
      "byteLength" : 168
    },
    {
      "buffer" : 0,
      "byteOffset" : 129108,
      "byteLength" : 224
    },
    {
      "buffer" : 0,
      "byteOffset" : 129332,
      "byteLength" : 56
    },
    {
      "buffer" : 0,
      "byteOffset" : 129388,
      "byteLength" : 112
    },
    {
      "buffer" : 0,
      "byteOffset" : 129500,
      "byteLength" : 112
    },
    {
      "buffer" : 0,
      "byteOffset" : 129612,
      "byteLength" : 8900
    },
    {
      "buffer" : 0,
      "byteOffset" : 138512,
      "byteLength" : 17616
    },
    {
      "buffer" : 0,
      "byteOffset" : 156128,
      "byteLength" : 17616
    },
    {
      "buffer" : 0,
      "byteOffset" : 173744,
      "byteLength" : 23488
    },
    {
      "buffer" : 0,
      "byteOffset" : 197232,
      "byteLength" : 5872
    },
    {
      "buffer" : 0,
      "byteOffset" : 203104,
      "byteLength" : 11744
    },
    {
      "buffer" : 0,
      "byteOffset" : 214848,
      "byteLength" : 11744
    },
    {
      "buffer" : 0,
      "byteOffset" : 226592,
      "byteLength" : 876
    },
    {
      "buffer" : 0,
      "byteOffset" : 227468,
      "byteLength" : 3696
    },
    {
      "buffer" : 0,
      "byteOffset" : 231164,
      "byteLength" : 3696
    },
    {
      "buffer" : 0,
      "byteOffset" : 234860,
      "byteLength" : 4928
    },
    {
      "buffer" : 0,
      "byteOffset" : 239788,
      "byteLength" : 1232
    },
    {
      "buffer" : 0,
      "byteOffset" : 241020,
      "byteLength" : 2464
    },
    {
      "buffer" : 0,
      "byteOffset" : 243484,
      "byteLength" : 2464
    },
    {
      "buffer" : 0,
      "byteOffset" : 245948,
      "byteLength" : 5708
    },
    {
      "buffer" : 0,
      "byteOffset" : 251656,
      "byteLength" : 27420
    },
    {
      "buffer" : 0,
      "byteOffset" : 279076,
      "byteLength" : 27420
    },
    {
      "buffer" : 0,
      "byteOffset" : 306496,
      "byteLength" : 36560
    },
    {
      "buffer" : 0,
      "byteOffset" : 343056,
      "byteLength" : 9140
    },
    {
      "buffer" : 0,
      "byteOffset" : 352196,
      "byteLength" : 18280
    },
    {
      "buffer" : 0,
      "byteOffset" : 370476,
      "byteLength" : 18280
    },
    {
      "buffer" : 0,
      "byteOffset" : 388756,
      "byteLength" : 140
    },
    {
      "buffer" : 0,
      "byteOffset" : 388896,
      "byteLength" : 756
    },
    {
      "buffer" : 0,
      "byteOffset" : 389652,
      "byteLength" : 756
    },
    {
      "buffer" : 0,
      "byteOffset" : 390408,
      "byteLength" : 1008
    },
    {
      "buffer" : 0,
      "byteOffset" : 391416,
      "byteLength" : 252
    },
    {
      "buffer" : 0,
      "byteOffset" : 391668,
      "byteLength" : 504
    },
    {
      "buffer" : 0,
      "byteOffset" : 392172,
      "byteLength" : 504
    }
  ],
  "accessors" : [
    {
      "bufferView" : 0,
      "componentType" : 5123,
      "count" : 132,
      "type" : "SCALAR"
    },
    {
      "bufferView" : 1,
      "min" : [ -65.7946, -1.15431, -79.519 ],
      "max" : [ 60.9077, 2.67519, -72.6946 ],
      "componentType" : 5126,
      "count" : 55,
      "type" : "VEC3"
    },
    {
      "bufferView" : 2,
      "componentType" : 5126,
      "count" : 55,
      "type" : "VEC3"
    },
    {
      "bufferView" : 3,
      "componentType" : 5126,
      "count" : 55,
      "type" : "VEC4"
    },
    {
      "bufferView" : 4,
      "normalized" : true,
      "componentType" : 5121,
      "count" : 55,
      "type" : "VEC4"
    },
    {
      "bufferView" : 5,
      "componentType" : 5126,
      "count" : 55,
      "type" : "VEC2"
    },
    {
      "bufferView" : 6,
      "componentType" : 5126,
      "count" : 55,
      "type" : "VEC2"
    },
    {
      "bufferView" : 7,
      "componentType" : 5123,
      "count" : 3156,
      "type" : "SCALAR"
    },
    {
      "bufferView" : 8,
      "min" : [ -67.5592, -2.58594, -110.899 ],
      "max" : [ 67.5592, 13.8843, 85.5007 ],
      "componentType" : 5126,
      "count" : 1981,
      "type" : "VEC3"
    },
    {
      "bufferView" : 9,
      "componentType" : 5126,
      "count" : 1981,
      "type" : "VEC3"
    },
    {
      "bufferView" : 10,
      "componentType" : 5126,
      "count" : 1981,
      "type" : "VEC4"
    },
    {
      "bufferView" : 11,
      "normalized" : true,
      "componentType" : 5121,
      "count" : 1981,
      "type" : "VEC4"
    },
    {
      "bufferView" : 12,
      "componentType" : 5126,
      "count" : 1981,
      "type" : "VEC2"
    },
    {
      "bufferView" : 13,
      "componentType" : 5126,
      "count" : 1981,
      "type" : "VEC2"
    },
    {
      "bufferView" : 14,
      "componentType" : 5123,
      "count" : 18,
      "type" : "SCALAR"
    },
    {
      "bufferView" : 15,
      "min" : [ -67.5592, -0.207903, -78.345 ],
      "max" : [ 67.5592, -0.0693661, -72.6946 ],
      "componentType" : 5126,
      "count" : 14,
      "type" : "VEC3"
    },
    {
      "bufferView" : 16,
      "componentType" : 5126,
      "count" : 14,
      "type" : "VEC3"
    },
    {
      "bufferView" : 17,
      "componentType" : 5126,
      "count" : 14,
      "type" : "VEC4"
    },
    {
      "bufferView" : 18,
      "normalized" : true,
      "componentType" : 5121,
      "count" : 14,
      "type" : "VEC4"
    },
    {
      "bufferView" : 19,
      "componentType" : 5126,
      "count" : 14,
      "type" : "VEC2"
    },
    {
      "bufferView" : 20,
      "componentType" : 5126,
      "count" : 14,
      "type" : "VEC2"
    },
    {
      "bufferView" : 21,
      "componentType" : 5123,
      "count" : 4449,
      "type" : "SCALAR"
    },
    {
      "bufferView" : 22,
      "min" : [ -67.0886, -0.654542, -109.532 ],
      "max" : [ 63.7625, 12, 85.5007 ],
      "componentType" : 5126,
      "count" : 1468,
      "type" : "VEC3"
    },
    {
      "bufferView" : 23,
      "componentType" : 5126,
      "count" : 1468,
      "type" : "VEC3"
    },
    {
      "bufferView" : 24,
      "componentType" : 5126,
      "count" : 1468,
      "type" : "VEC4"
    },
    {
      "bufferView" : 25,
      "normalized" : true,
      "componentType" : 5121,
      "count" : 1468,
      "type" : "VEC4"
    },
    {
      "bufferView" : 26,
      "componentType" : 5126,
      "count" : 1468,
      "type" : "VEC2"
    },
    {
      "bufferView" : 27,
      "componentType" : 5126,
      "count" : 1468,
      "type" : "VEC2"
    },
    {
      "bufferView" : 28,
      "componentType" : 5123,
      "count" : 438,
      "type" : "SCALAR"
    },
    {
      "bufferView" : 29,
      "min" : [ -71.9749, -0.714324, -109.761 ],
      "max" : [ 70.7553, 6.03166, 85.5008 ],
      "componentType" : 5126,
      "count" : 308,
      "type" : "VEC3"
    },
    {
      "bufferView" : 30,
      "componentType" : 5126,
      "count" : 308,
      "type" : "VEC3"
    },
    {
      "bufferView" : 31,
      "componentType" : 5126,
      "count" : 308,
      "type" : "VEC4"
    },
    {
      "bufferView" : 32,
      "normalized" : true,
      "componentType" : 5121,
      "count" : 308,
      "type" : "VEC4"
    },
    {
      "bufferView" : 33,
      "componentType" : 5126,
      "count" : 308,
      "type" : "VEC2"
    },
    {
      "bufferView" : 34,
      "componentType" : 5126,
      "count" : 308,
      "type" : "VEC2"
    },
    {
      "bufferView" : 35,
      "componentType" : 5123,
      "count" : 2853,
      "type" : "SCALAR"
    },
    {
      "bufferView" : 36,
      "min" : [ -66.924, -0.847553, -107.93 ],
      "max" : [ 65.6492, 12.4941, 85.5007 ],
      "componentType" : 5126,
      "count" : 2285,
      "type" : "VEC3"
    },
    {
      "bufferView" : 37,
      "componentType" : 5126,
      "count" : 2285,
      "type" : "VEC3"
    },
    {
      "bufferView" : 38,
      "componentType" : 5126,
      "count" : 2285,
      "type" : "VEC4"
    },
    {
      "bufferView" : 39,
      "normalized" : true,
      "componentType" : 5121,
      "count" : 2285,
      "type" : "VEC4"
    },
    {
      "bufferView" : 40,
      "componentType" : 5126,
      "count" : 2285,
      "type" : "VEC2"
    },
    {
      "bufferView" : 41,
      "componentType" : 5126,
      "count" : 2285,
      "type" : "VEC2"
    },
    {
      "bufferView" : 42,
      "componentType" : 5123,
      "count" : 69,
      "type" : "SCALAR"
    },
    {
      "bufferView" : 43,
      "min" : [ -17.867, -0.212713, -31.0698 ],
      "max" : [ 17.867, -0.170246, 85.5007 ],
      "componentType" : 5126,
      "count" : 63,
      "type" : "VEC3"
    },
    {
      "bufferView" : 44,
      "componentType" : 5126,
      "count" : 63,
      "type" : "VEC3"
    },
    {
      "bufferView" : 45,
      "componentType" : 5126,
      "count" : 63,
      "type" : "VEC4"
    },
    {
      "bufferView" : 46,
      "normalized" : true,
      "componentType" : 5121,
      "count" : 63,
      "type" : "VEC4"
    },
    {
      "bufferView" : 47,
      "componentType" : 5126,
      "count" : 63,
      "type" : "VEC2"
    },
    {
      "bufferView" : 48,
      "componentType" : 5126,
      "count" : 63,
      "type" : "VEC2"
    }
  ]
}
