{
  "asset" : {
    "generator" : "UE Viewer (umodel) build 1544 based",
    "version" : "2.0"
  },
  "scene" : 0,
  "scenes" : [
    {
      "nodes" : [ 0 ]
    }
  ],
  "nodes" : [
    {
      "name" : "COL_SM_ENV_KNVLLG03_Torii",
      "mesh" : 0
    }
  ],
  "materials" : [
    {
      "name" : "MI_Wood",
      "pbrMetallicRoughness" : {
        "baseColorFactor" : [ 0.3, 0.3, 0.3, 1.0 ],
        "metallicFactor" : 0.1,
        "roughnessFactor" : 0.5
      }
    },
    {
      "name" : "MI_Concrete",
      "pbrMetallicRoughness" : {
        "baseColorFactor" : [ 0.9, 0.3, 0.3, 1.0 ],
        "metallicFactor" : 0.1,
        "roughnessFactor" : 0.5
      }
    }
  ],
  "meshes" : [
    {
      "primitives" : [
        {
          "attributes" : {
            "POSITION" : 1,
            "NORMAL" : 2,
            "TANGENT" : 3,
            "TEXCOORD_0" : 4
          },
          "indices" : 0,
          "material" : 0
        },
        {
          "attributes" : {
            "POSITION" : 6,
            "NORMAL" : 7,
            "TANGENT" : 8,
            "TEXCOORD_0" : 9
          },
          "indices" : 5,
          "material" : 1
        }
      ],
      "name" : "COL_SM_ENV_KNVLLG03_Torii"
    }
  ],
  "buffers" : [
    {
      "uri" : "COL_SM_ENV_KNVLLG03_Torii.bin",
      "byteLength" : 212952
    }
  ],
  "bufferViews" : [
    {
      "buffer" : 0,
      "byteOffset" : 0,
      "byteLength" : 12408
    },
    {
      "buffer" : 0,
      "byteOffset" : 12408,
      "byteLength" : 48828
    },
    {
      "buffer" : 0,
      "byteOffset" : 61236,
      "byteLength" : 48828
    },
    {
      "buffer" : 0,
      "byteOffset" : 110064,
      "byteLength" : 65104
    },
    {
      "buffer" : 0,
      "byteOffset" : 175168,
      "byteLength" : 32552
    },
    {
      "buffer" : 0,
      "byteOffset" : 207720,
      "byteLength" : 240
    },
    {
      "buffer" : 0,
      "byteOffset" : 207960,
      "byteLength" : 1248
    },
    {
      "buffer" : 0,
      "byteOffset" : 209208,
      "byteLength" : 1248
    },
    {
      "buffer" : 0,
      "byteOffset" : 210456,
      "byteLength" : 1664
    },
    {
      "buffer" : 0,
      "byteOffset" : 212120,
      "byteLength" : 832
    }
  ],
  "accessors" : [
    {
      "bufferView" : 0,
      "componentType" : 5123,
      "count" : 6204,
      "type" : "SCALAR"
    },
    {
      "bufferView" : 1,
      "min" : [ -27.3958, 0.3, -30.3958 ],
      "max" : [ 27.1597, 12.8413, -19.2028 ],
      "componentType" : 5126,
      "count" : 4069,
      "type" : "VEC3"
    },
    {
      "bufferView" : 2,
      "componentType" : 5126,
      "count" : 4069,
      "type" : "VEC3"
    },
    {
      "bufferView" : 3,
      "componentType" : 5126,
      "count" : 4069,
      "type" : "VEC4"
    },
    {
      "bufferView" : 4,
      "componentType" : 5126,
      "count" : 4069,
      "type" : "VEC2"
    },
    {
      "bufferView" : 5,
      "componentType" : 5123,
      "count" : 120,
      "type" : "SCALAR"
    },
    {
      "bufferView" : 6,
      "min" : [ -26.231, -0.264165, -29.2325 ],
      "max" : [ 25.9963, 0.362456, -20.4132 ],
      "componentType" : 5126,
      "count" : 104,
      "type" : "VEC3"
    },
    {
      "bufferView" : 7,
      "componentType" : 5126,
      "count" : 104,
      "type" : "VEC3"
    },
    {
      "bufferView" : 8,
      "componentType" : 5126,
      "count" : 104,
      "type" : "VEC4"
    },
    {
      "bufferView" : 9,
      "componentType" : 5126,
      "count" : 104,
      "type" : "VEC2"
    }
  ]
}
