{
  "asset" : {
    "generator" : "UE Viewer (umodel) build 1544 based",
    "version" : "2.0"
  },
  "scene" : 0,
  "scenes" : [
    {
      "nodes" : [ 0 ]
    }
  ],
  "nodes" : [
    {
      "name" : "COL_SM_ENV_LKNVLD_Stall",
      "mesh" : 0
    }
  ],
  "materials" : [
    {
      "name" : "MI_Wood",
      "pbrMetallicRoughness" : {
        "baseColorFactor" : [ 0.3, 0.3, 0.3, 1.0 ],
        "metallicFactor" : 0.1,
        "roughnessFactor" : 0.5
      }
    },
    {
      "name" : "MI_Metal",
      "pbrMetallicRoughness" : {
        "baseColorFactor" : [ 0.9, 0.3, 0.3, 1.0 ],
        "metallicFactor" : 0.1,
        "roughnessFactor" : 0.5
      }
    }
  ],
  "meshes" : [
    {
      "primitives" : [
        {
          "attributes" : {
            "POSITION" : 1,
            "NORMAL" : 2,
            "TANGENT" : 3,
            "COLOR_0" : 4,
            "TEXCOORD_0" : 5
          },
          "indices" : 0,
          "material" : 0
        },
        {
          "attributes" : {
            "POSITION" : 7,
            "NORMAL" : 8,
            "TANGENT" : 9,
            "COLOR_0" : 10,
            "TEXCOORD_0" : 11
          },
          "indices" : 6,
          "material" : 1
        }
      ],
      "name" : "COL_SM_ENV_LKNVLD_Stall"
    }
  ],
  "buffers" : [
    {
      "uri" : "COL_SM_ENV_LKNVLD_Stall.bin",
      "byteLength" : 140668
    }
  ],
  "bufferViews" : [
    {
      "buffer" : 0,
      "byteOffset" : 0,
      "byteLength" : 9288
    },
    {
      "buffer" : 0,
      "byteOffset" : 9288,
      "byteLength" : 29244
    },
    {
      "buffer" : 0,
      "byteOffset" : 38532,
      "byteLength" : 29244
    },
    {
      "buffer" : 0,
      "byteOffset" : 67776,
      "byteLength" : 38992
    },
    {
      "buffer" : 0,
      "byteOffset" : 106768,
      "byteLength" : 9748
    },
    {
      "buffer" : 0,
      "byteOffset" : 116516,
      "byteLength" : 19496
    },
    {
      "buffer" : 0,
      "byteOffset" : 136012,
      "byteLength" : 288
    },
    {
      "buffer" : 0,
      "byteOffset" : 136300,
      "byteLength" : 1008
    },
    {
      "buffer" : 0,
      "byteOffset" : 137308,
      "byteLength" : 1008
    },
    {
      "buffer" : 0,
      "byteOffset" : 138316,
      "byteLength" : 1344
    },
    {
      "buffer" : 0,
      "byteOffset" : 139660,
      "byteLength" : 336
    },
    {
      "buffer" : 0,
      "byteOffset" : 139996,
      "byteLength" : 672
    }
  ],
  "accessors" : [
    {
      "bufferView" : 0,
      "componentType" : 5123,
      "count" : 4644,
      "type" : "SCALAR"
    },
    {
      "bufferView" : 1,
      "min" : [ -22.8347, -0.321066, -28.5516 ],
      "max" : [ 24.3096, 3.4048, 53.3404 ],
      "componentType" : 5126,
      "count" : 2437,
      "type" : "VEC3"
    },
    {
      "bufferView" : 2,
      "componentType" : 5126,
      "count" : 2437,
      "type" : "VEC3"
    },
    {
      "bufferView" : 3,
      "componentType" : 5126,
      "count" : 2437,
      "type" : "VEC4"
    },
    {
      "bufferView" : 4,
      "normalized" : true,
      "componentType" : 5121,
      "count" : 2437,
      "type" : "VEC4"
    },
    {
      "bufferView" : 5,
      "componentType" : 5126,
      "count" : 2437,
      "type" : "VEC2"
    },
    {
      "bufferView" : 6,
      "componentType" : 5123,
      "count" : 144,
      "type" : "SCALAR"
    },
    {
      "bufferView" : 7,
      "min" : [ -20.9125, -0.322732, -10.8187 ],
      "max" : [ -20.412, 0.713439, -10.3183 ],
      "componentType" : 5126,
      "count" : 84,
      "type" : "VEC3"
    },
    {
      "bufferView" : 8,
      "componentType" : 5126,
      "count" : 84,
      "type" : "VEC3"
    },
    {
      "bufferView" : 9,
      "componentType" : 5126,
      "count" : 84,
      "type" : "VEC4"
    },
    {
      "bufferView" : 10,
      "normalized" : true,
      "componentType" : 5121,
      "count" : 84,
      "type" : "VEC4"
    },
    {
      "bufferView" : 11,
      "componentType" : 5126,
      "count" : 84,
      "type" : "VEC2"
    }
  ]
}
