{
  "asset" : {
    "generator" : "UE Viewer (umodel) build 1544 based",
    "version" : "2.0"
  },
  "scene" : 0,
  "scenes" : [
    {
      "nodes" : [ 0 ]
    }
  ],
  "nodes" : [
    {
      "name" : "COL_SM_ENV_KNVLLG03_Yagura",
      "mesh" : 0
    }
  ],
  "materials" : [
    {
      "name" : "MI_Wood",
      "pbrMetallicRoughness" : {
        "baseColorFactor" : [ 0.3, 0.3, 0.3, 1.0 ],
        "metallicFactor" : 0.1,
        "roughnessFactor" : 0.5
      }
    },
    {
      "name" : "MI_WireMesh",
      "pbrMetallicRoughness" : {
        "baseColorFactor" : [ 0.9, 0.3, 0.3, 1.0 ],
        "metallicFactor" : 0.1,
        "roughnessFactor" : 0.5
      }
    }
  ],
  "meshes" : [
    {
      "primitives" : [
        {
          "attributes" : {
            "POSITION" : 1,
            "NORMAL" : 2,
            "TANGENT" : 3,
            "TEXCOORD_0" : 4,
            "TEXCOORD_1" : 5,
            "TEXCOORD_2" : 6,
            "TEXCOORD_3" : 7
          },
          "indices" : 0,
          "material" : 0
        },
        {
          "attributes" : {
            "POSITION" : 9,
            "NORMAL" : 10,
            "TANGENT" : 11,
            "TEXCOORD_0" : 12,
            "TEXCOORD_1" : 13,
            "TEXCOORD_2" : 14,
            "TEXCOORD_3" : 15
          },
          "indices" : 8,
          "material" : 1
        }
      ],
      "name" : "COL_SM_ENV_KNVLLG03_Yagura"
    }
  ],
  "buffers" : [
    {
      "uri" : "COL_SM_ENV_KNVLLG03_Yagura.bin",
      "byteLength" : 236760
    }
  ],
  "bufferViews" : [
    {
      "buffer" : 0,
      "byteOffset" : 0,
      "byteLength" : 10920
    },
    {
      "buffer" : 0,
      "byteOffset" : 10920,
      "byteLength" : 37440
    },
    {
      "buffer" : 0,
      "byteOffset" : 48360,
      "byteLength" : 37440
    },
    {
      "buffer" : 0,
      "byteOffset" : 85800,
      "byteLength" : 49920
    },
    {
      "buffer" : 0,
      "byteOffset" : 135720,
      "byteLength" : 24960
    },
    {
      "buffer" : 0,
      "byteOffset" : 160680,
      "byteLength" : 24960
    },
    {
      "buffer" : 0,
      "byteOffset" : 185640,
      "byteLength" : 24960
    },
    {
      "buffer" : 0,
      "byteOffset" : 210600,
      "byteLength" : 24960
    },
    {
      "buffer" : 0,
      "byteOffset" : 235560,
      "byteLength" : 48
    },
    {
      "buffer" : 0,
      "byteOffset" : 235608,
      "byteLength" : 192
    },
    {
      "buffer" : 0,
      "byteOffset" : 235800,
      "byteLength" : 192
    },
    {
      "buffer" : 0,
      "byteOffset" : 235992,
      "byteLength" : 256
    },
    {
      "buffer" : 0,
      "byteOffset" : 236248,
      "byteLength" : 128
    },
    {
      "buffer" : 0,
      "byteOffset" : 236376,
      "byteLength" : 128
    },
    {
      "buffer" : 0,
      "byteOffset" : 236504,
      "byteLength" : 128
    },
    {
      "buffer" : 0,
      "byteOffset" : 236632,
      "byteLength" : 128
    }
  ],
  "accessors" : [
    {
      "bufferView" : 0,
      "componentType" : 5123,
      "count" : 5460,
      "type" : "SCALAR"
    },
    {
      "bufferView" : 1,
      "min" : [ -7.24251, -0.77737, -7.24251 ],
      "max" : [ 7.24251, 18.0938, 7.24251 ],
      "componentType" : 5126,
      "count" : 3120,
      "type" : "VEC3"
    },
    {
      "bufferView" : 2,
      "componentType" : 5126,
      "count" : 3120,
      "type" : "VEC3"
    },
    {
      "bufferView" : 3,
      "componentType" : 5126,
      "count" : 3120,
      "type" : "VEC4"
    },
    {
      "bufferView" : 4,
      "componentType" : 5126,
      "count" : 3120,
      "type" : "VEC2"
    },
    {
      "bufferView" : 5,
      "componentType" : 5126,
      "count" : 3120,
      "type" : "VEC2"
    },
    {
      "bufferView" : 6,
      "componentType" : 5126,
      "count" : 3120,
      "type" : "VEC2"
    },
    {
      "bufferView" : 7,
      "componentType" : 5126,
      "count" : 3120,
      "type" : "VEC2"
    },
    {
      "bufferView" : 8,
      "componentType" : 5123,
      "count" : 24,
      "type" : "SCALAR"
    },
    {
      "bufferView" : 9,
      "min" : [ -3.00351, 8.9536, -3.00351 ],
      "max" : [ 3.00351, 17.9452, 3.02716 ],
      "componentType" : 5126,
      "count" : 16,
      "type" : "VEC3"
    },
    {
      "bufferView" : 10,
      "componentType" : 5126,
      "count" : 16,
      "type" : "VEC3"
    },
    {
      "bufferView" : 11,
      "componentType" : 5126,
      "count" : 16,
      "type" : "VEC4"
    },
    {
      "bufferView" : 12,
      "componentType" : 5126,
      "count" : 16,
      "type" : "VEC2"
    },
    {
      "bufferView" : 13,
      "componentType" : 5126,
      "count" : 16,
      "type" : "VEC2"
    },
    {
      "bufferView" : 14,
      "componentType" : 5126,
      "count" : 16,
      "type" : "VEC2"
    },
    {
      "bufferView" : 15,
      "componentType" : 5126,
      "count" : 16,
      "type" : "VEC2"
    }
  ]
}
