{
  "asset" : {
    "generator" : "UE Viewer (umodel) build 1544 based",
    "version" : "2.0"
  },
  "scene" : 0,
  "scenes" : [
    {
      "nodes" : [ 0 ]
    }
  ],
  "nodes" : [
    {
      "name" : "COL_SM_ENV_KNVLLG03_Fence_Set",
      "mesh" : 0
    }
  ],
  "materials" : [
    {
      "name" : "MI_Wood",
      "pbrMetallicRoughness" : {
        "baseColorFactor" : [ 0.3, 0.3, 0.3, 1.0 ],
        "metallicFactor" : 0.1,
        "roughnessFactor" : 0.5
      }
    },
    {
      "name" : "WorldGridMaterial",
      "pbrMetallicRoughness" : {
        "baseColorFactor" : [ 0.9, 0.3, 0.3, 1.0 ],
        "metallicFactor" : 0.1,
        "roughnessFactor" : 0.5
      }
    }
  ],
  "meshes" : [
    {
      "primitives" : [
        {
          "attributes" : {
            "POSITION" : 1,
            "NORMAL" : 2,
            "TANGENT" : 3,
            "TEXCOORD_0" : 4
          },
          "indices" : 0,
          "material" : 0
        },
        {
          "attributes" : {
            "POSITION" : 6,
            "NORMAL" : 7,
            "TANGENT" : 8,
            "TEXCOORD_0" : 9
          },
          "indices" : 5,
          "material" : 1
        }
      ],
      "name" : "COL_SM_ENV_KNVLLG03_Fence_Set"
    }
  ],
  "buffers" : [
    {
      "uri" : "COL_SM_ENV_KNVLLG03_Fence_Set.bin",
      "byteLength" : 33708
    }
  ],
  "bufferViews" : [
    {
      "buffer" : 0,
      "byteOffset" : 0,
      "byteLength" : 1512
    },
    {
      "buffer" : 0,
      "byteOffset" : 1512,
      "byteLength" : 6048
    },
    {
      "buffer" : 0,
      "byteOffset" : 7560,
      "byteLength" : 6048
    },
    {
      "buffer" : 0,
      "byteOffset" : 13608,
      "byteLength" : 8064
    },
    {
      "buffer" : 0,
      "byteOffset" : 21672,
      "byteLength" : 4032
    },
    {
      "buffer" : 0,
      "byteOffset" : 25704,
      "byteLength" : 468
    },
    {
      "buffer" : 0,
      "byteOffset" : 26172,
      "byteLength" : 1884
    },
    {
      "buffer" : 0,
      "byteOffset" : 28056,
      "byteLength" : 1884
    },
    {
      "buffer" : 0,
      "byteOffset" : 29940,
      "byteLength" : 2512
    },
    {
      "buffer" : 0,
      "byteOffset" : 32452,
      "byteLength" : 1256
    }
  ],
  "accessors" : [
    {
      "bufferView" : 0,
      "componentType" : 5123,
      "count" : 756,
      "type" : "SCALAR"
    },
    {
      "bufferView" : 1,
      "min" : [ -69.811, -0.26, -84.9449 ],
      "max" : [ 64.9667, 7.94444, 82.1264 ],
      "componentType" : 5126,
      "count" : 504,
      "type" : "VEC3"
    },
    {
      "bufferView" : 2,
      "componentType" : 5126,
      "count" : 504,
      "type" : "VEC3"
    },
    {
      "bufferView" : 3,
      "componentType" : 5126,
      "count" : 504,
      "type" : "VEC4"
    },
    {
      "bufferView" : 4,
      "componentType" : 5126,
      "count" : 504,
      "type" : "VEC2"
    },
    {
      "bufferView" : 5,
      "componentType" : 5123,
      "count" : 234,
      "type" : "SCALAR"
    },
    {
      "bufferView" : 6,
      "min" : [ -2.14534, 11.9677, -83.717 ],
      "max" : [ 2.18443, 13.8961, -82.3663 ],
      "componentType" : 5126,
      "count" : 157,
      "type" : "VEC3"
    },
    {
      "bufferView" : 7,
      "componentType" : 5126,
      "count" : 157,
      "type" : "VEC3"
    },
    {
      "bufferView" : 8,
      "componentType" : 5126,
      "count" : 157,
      "type" : "VEC4"
    },
    {
      "bufferView" : 9,
      "componentType" : 5126,
      "count" : 157,
      "type" : "VEC2"
    }
  ]
}
