{
  "asset" : {
    "generator" : "UE Viewer (umodel) build 1544 based",
    "version" : "2.0"
  },
  "scene" : 0,
  "scenes" : [
    {
      "nodes" : [ 0 ]
    }
  ],
  "nodes" : [
    {
      "name" : "COL_SM_ENV_KNVLLG03_Building_Distance_1",
      "mesh" : 0
    }
  ],
  "materials" : [
    {
      "name" : "MI_Concrete",
      "pbrMetallicRoughness" : {
        "baseColorFactor" : [ 0.3, 0.3, 0.3, 1.0 ],
        "metallicFactor" : 0.1,
        "roughnessFactor" : 0.5
      }
    }
  ],
  "meshes" : [
    {
      "primitives" : [
        {
          "attributes" : {
            "POSITION" : 1,
            "NORMAL" : 2,
            "TANGENT" : 3,
            "TEXCOORD_0" : 4
          },
          "indices" : 0,
          "material" : 0
        }
      ],
      "name" : "COL_SM_ENV_KNVLLG03_Building_Distance_1"
    }
  ],
  "buffers" : [
    {
      "uri" : "COL_SM_ENV_KNVLLG03_Building_Distance_1.bin",
      "byteLength" : 23348
    }
  ],
  "bufferViews" : [
    {
      "buffer" : 0,
      "byteOffset" : 0,
      "byteLength" : 1700
    },
    {
      "buffer" : 0,
      "byteOffset" : 1700,
      "byteLength" : 5412
    },
    {
      "buffer" : 0,
      "byteOffset" : 7112,
      "byteLength" : 5412
    },
    {
      "buffer" : 0,
      "byteOffset" : 12524,
      "byteLength" : 7216
    },
    {
      "buffer" : 0,
      "byteOffset" : 19740,
      "byteLength" : 3608
    }
  ],
  "accessors" : [
    {
      "bufferView" : 0,
      "componentType" : 5123,
      "count" : 849,
      "type" : "SCALAR"
    },
    {
      "bufferView" : 1,
      "min" : [ -157.358, -11.6771, -124.927 ],
      "max" : [ -53.9391, 55.7312, 70.4985 ],
      "componentType" : 5126,
      "count" : 451,
      "type" : "VEC3"
    },
    {
      "bufferView" : 2,
      "componentType" : 5126,
      "count" : 451,
      "type" : "VEC3"
    },
    {
      "bufferView" : 3,
      "componentType" : 5126,
      "count" : 451,
      "type" : "VEC4"
    },
    {
      "bufferView" : 4,
      "componentType" : 5126,
      "count" : 451,
      "type" : "VEC2"
    }
  ]
}
