{
  "asset" : {
    "generator" : "UE Viewer (umodel) build 1544 based",
    "version" : "2.0"
  },
  "scene" : 0,
  "scenes" : [
    {
      "nodes" : [ 0 ]
    }
  ],
  "nodes" : [
    {
      "name" : "SM_ENV_LKNVLD_Ground_Right_SideTrimOuter_04_Lod3",
      "mesh" : 0
    }
  ],
  "materials" : [
    {
      "name" : "MI_ENV_LKNVLD_RoughTiles_LOD",
      "pbrMetallicRoughness" : {
        "baseColorFactor" : [ 0.3, 0.3, 0.3, 1.0 ],
        "metallicFactor" : 0.1,
        "roughnessFactor" : 0.5
      }
    }
  ],
  "meshes" : [
    {
      "primitives" : [
        {
          "attributes" : {
            "POSITION" : 1,
            "NORMAL" : 2,
            "TANGENT" : 3,
            "TEXCOORD_0" : 4,
            "TEXCOORD_1" : 5,
            "TEXCOORD_2" : 6,
            "TEXCOORD_3" : 7
          },
          "indices" : 0,
          "material" : 0
        }
      ],
      "name" : "SM_ENV_LKNVLD_Ground_Right_SideTrimOuter_04_Lod3"
    }
  ],
  "buffers" : [
    {
      "uri" : "SM_ENV_LKNVLD_Ground_Right_SideTrimOuter_04_Lod3.bin",
      "byteLength" : 27648
    }
  ],
  "bufferViews" : [
    {
      "buffer" : 0,
      "byteOffset" : 0,
      "byteLength" : 1584
    },
    {
      "buffer" : 0,
      "byteOffset" : 1584,
      "byteLength" : 4344
    },
    {
      "buffer" : 0,
      "byteOffset" : 5928,
      "byteLength" : 4344
    },
    {
      "buffer" : 0,
      "byteOffset" : 10272,
      "byteLength" : 5792
    },
    {
      "buffer" : 0,
      "byteOffset" : 16064,
      "byteLength" : 2896
    },
    {
      "buffer" : 0,
      "byteOffset" : 18960,
      "byteLength" : 2896
    },
    {
      "buffer" : 0,
      "byteOffset" : 21856,
      "byteLength" : 2896
    },
    {
      "buffer" : 0,
      "byteOffset" : 24752,
      "byteLength" : 2896
    }
  ],
  "accessors" : [
    {
      "bufferView" : 0,
      "componentType" : 5123,
      "count" : 792,
      "type" : "SCALAR"
    },
    {
      "bufferView" : 1,
      "min" : [ 16.3356, -0.388347, 11.8396 ],
      "max" : [ 28.7808, 0.165344, 25.2965 ],
      "componentType" : 5126,
      "count" : 362,
      "type" : "VEC3"
    },
    {
      "bufferView" : 2,
      "componentType" : 5126,
      "count" : 362,
      "type" : "VEC3"
    },
    {
      "bufferView" : 3,
      "componentType" : 5126,
      "count" : 362,
      "type" : "VEC4"
    },
    {
      "bufferView" : 4,
      "componentType" : 5126,
      "count" : 362,
      "type" : "VEC2"
    },
    {
      "bufferView" : 5,
      "componentType" : 5126,
      "count" : 362,
      "type" : "VEC2"
    },
    {
      "bufferView" : 6,
      "componentType" : 5126,
      "count" : 362,
      "type" : "VEC2"
    },
    {
      "bufferView" : 7,
      "componentType" : 5126,
      "count" : 362,
      "type" : "VEC2"
    }
  ]
}
