{
  "asset" : {
    "generator" : "UE Viewer (umodel) build 1544 based",
    "version" : "2.0"
  },
  "scene" : 0,
  "scenes" : [
    {
      "nodes" : [ 0 ]
    }
  ],
  "nodes" : [
    {
      "name" : "SM_ENV_LKNVLD_Ground_Right_SideTrimOuter_01_Lod1",
      "mesh" : 0
    }
  ],
  "materials" : [
    {
      "name" : "MI_ENV_LKNVLD_RoughTiles",
      "pbrMetallicRoughness" : {
        "baseColorFactor" : [ 0.3, 0.3, 0.3, 1.0 ],
        "metallicFactor" : 0.1,
        "roughnessFactor" : 0.5
      }
    }
  ],
  "meshes" : [
    {
      "primitives" : [
        {
          "attributes" : {
            "POSITION" : 1,
            "NORMAL" : 2,
            "TANGENT" : 3,
            "TEXCOORD_0" : 4,
            "TEXCOORD_1" : 5,
            "TEXCOORD_2" : 6,
            "TEXCOORD_3" : 7
          },
          "indices" : 0,
          "material" : 0
        }
      ],
      "name" : "SM_ENV_LKNVLD_Ground_Right_SideTrimOuter_01_Lod1"
    }
  ],
  "buffers" : [
    {
      "uri" : "SM_ENV_LKNVLD_Ground_Right_SideTrimOuter_01_Lod1.bin",
      "byteLength" : 175796
    }
  ],
  "bufferViews" : [
    {
      "buffer" : 0,
      "byteOffset" : 0,
      "byteLength" : 14300
    },
    {
      "buffer" : 0,
      "byteOffset" : 14300,
      "byteLength" : 26916
    },
    {
      "buffer" : 0,
      "byteOffset" : 41216,
      "byteLength" : 26916
    },
    {
      "buffer" : 0,
      "byteOffset" : 68132,
      "byteLength" : 35888
    },
    {
      "buffer" : 0,
      "byteOffset" : 104020,
      "byteLength" : 17944
    },
    {
      "buffer" : 0,
      "byteOffset" : 121964,
      "byteLength" : 17944
    },
    {
      "buffer" : 0,
      "byteOffset" : 139908,
      "byteLength" : 17944
    },
    {
      "buffer" : 0,
      "byteOffset" : 157852,
      "byteLength" : 17944
    }
  ],
  "accessors" : [
    {
      "bufferView" : 0,
      "componentType" : 5123,
      "count" : 7149,
      "type" : "SCALAR"
    },
    {
      "bufferView" : 1,
      "min" : [ 10.7763, -0.486053, -42.492 ],
      "max" : [ 27.4149, 0.107135, 62.4919 ],
      "componentType" : 5126,
      "count" : 2243,
      "type" : "VEC3"
    },
    {
      "bufferView" : 2,
      "componentType" : 5126,
      "count" : 2243,
      "type" : "VEC3"
    },
    {
      "bufferView" : 3,
      "componentType" : 5126,
      "count" : 2243,
      "type" : "VEC4"
    },
    {
      "bufferView" : 4,
      "componentType" : 5126,
      "count" : 2243,
      "type" : "VEC2"
    },
    {
      "bufferView" : 5,
      "componentType" : 5126,
      "count" : 2243,
      "type" : "VEC2"
    },
    {
      "bufferView" : 6,
      "componentType" : 5126,
      "count" : 2243,
      "type" : "VEC2"
    },
    {
      "bufferView" : 7,
      "componentType" : 5126,
      "count" : 2243,
      "type" : "VEC2"
    }
  ]
}
