{
  "asset" : {
    "generator" : "UE Viewer (umodel) build 1544 based",
    "version" : "2.0"
  },
  "scene" : 0,
  "scenes" : [
    {
      "nodes" : [ 0 ]
    }
  ],
  "nodes" : [
    {
      "name" : "SM_ENV_LKNVLD_Ground_Left_Side_Grass_02_Lod3",
      "mesh" : 0
    }
  ],
  "materials" : [
    {
      "name" : "MI_ENV_LKNVLD_GroundSoil_A_LOD",
      "pbrMetallicRoughness" : {
        "baseColorFactor" : [ 0.3, 0.3, 0.3, 1.0 ],
        "metallicFactor" : 0.1,
        "roughnessFactor" : 0.5
      }
    }
  ],
  "meshes" : [
    {
      "primitives" : [
        {
          "attributes" : {
            "POSITION" : 1,
            "NORMAL" : 2,
            "TANGENT" : 3,
            "TEXCOORD_0" : 4,
            "TEXCOORD_1" : 5,
            "TEXCOORD_2" : 6,
            "TEXCOORD_3" : 7
          },
          "indices" : 0,
          "material" : 0
        }
      ],
      "name" : "SM_ENV_LKNVLD_Ground_Left_Side_Grass_02_Lod3"
    }
  ],
  "buffers" : [
    {
      "uri" : "SM_ENV_LKNVLD_Ground_Left_Side_Grass_02_Lod3.bin",
      "byteLength" : 15452
    }
  ],
  "bufferViews" : [
    {
      "buffer" : 0,
      "byteOffset" : 0,
      "byteLength" : 1700
    },
    {
      "buffer" : 0,
      "byteOffset" : 1700,
      "byteLength" : 2292
    },
    {
      "buffer" : 0,
      "byteOffset" : 3992,
      "byteLength" : 2292
    },
    {
      "buffer" : 0,
      "byteOffset" : 6284,
      "byteLength" : 3056
    },
    {
      "buffer" : 0,
      "byteOffset" : 9340,
      "byteLength" : 1528
    },
    {
      "buffer" : 0,
      "byteOffset" : 10868,
      "byteLength" : 1528
    },
    {
      "buffer" : 0,
      "byteOffset" : 12396,
      "byteLength" : 1528
    },
    {
      "buffer" : 0,
      "byteOffset" : 13924,
      "byteLength" : 1528
    }
  ],
  "accessors" : [
    {
      "bufferView" : 0,
      "componentType" : 5123,
      "count" : 849,
      "type" : "SCALAR"
    },
    {
      "bufferView" : 1,
      "min" : [ -62, -0.314907, -72.2702 ],
      "max" : [ -11.3788, 0.311129, -4.63345 ],
      "componentType" : 5126,
      "count" : 191,
      "type" : "VEC3"
    },
    {
      "bufferView" : 2,
      "componentType" : 5126,
      "count" : 191,
      "type" : "VEC3"
    },
    {
      "bufferView" : 3,
      "componentType" : 5126,
      "count" : 191,
      "type" : "VEC4"
    },
    {
      "bufferView" : 4,
      "componentType" : 5126,
      "count" : 191,
      "type" : "VEC2"
    },
    {
      "bufferView" : 5,
      "componentType" : 5126,
      "count" : 191,
      "type" : "VEC2"
    },
    {
      "bufferView" : 6,
      "componentType" : 5126,
      "count" : 191,
      "type" : "VEC2"
    },
    {
      "bufferView" : 7,
      "componentType" : 5126,
      "count" : 191,
      "type" : "VEC2"
    }
  ]
}
