{
  "asset" : {
    "generator" : "UE Viewer (umodel) build 1544 based",
    "version" : "2.0"
  },
  "scene" : 0,
  "scenes" : [
    {
      "nodes" : [ 0 ]
    }
  ],
  "nodes" : [
    {
      "name" : "SM_ENV_LKNVLD_Ground_Left_sideTrim_Middle_02_Lod2",
      "mesh" : 0
    }
  ],
  "materials" : [
    {
      "name" : "MI_ENV_LKNVLD_RoughTiles_LOD",
      "pbrMetallicRoughness" : {
        "baseColorFactor" : [ 0.3, 0.3, 0.3, 1.0 ],
        "metallicFactor" : 0.1,
        "roughnessFactor" : 0.5
      }
    }
  ],
  "meshes" : [
    {
      "primitives" : [
        {
          "attributes" : {
            "POSITION" : 1,
            "NORMAL" : 2,
            "TANGENT" : 3,
            "TEXCOORD_0" : 4,
            "TEXCOORD_1" : 5,
            "TEXCOORD_2" : 6,
            "TEXCOORD_3" : 7
          },
          "indices" : 0,
          "material" : 0
        }
      ],
      "name" : "SM_ENV_LKNVLD_Ground_Left_sideTrim_Middle_02_Lod2"
    }
  ],
  "buffers" : [
    {
      "uri" : "SM_ENV_LKNVLD_Ground_Left_sideTrim_Middle_02_Lod2.bin",
      "byteLength" : 106728
    }
  ],
  "bufferViews" : [
    {
      "buffer" : 0,
      "byteOffset" : 0,
      "byteLength" : 9384
    },
    {
      "buffer" : 0,
      "byteOffset" : 9384,
      "byteLength" : 16224
    },
    {
      "buffer" : 0,
      "byteOffset" : 25608,
      "byteLength" : 16224
    },
    {
      "buffer" : 0,
      "byteOffset" : 41832,
      "byteLength" : 21632
    },
    {
      "buffer" : 0,
      "byteOffset" : 63464,
      "byteLength" : 10816
    },
    {
      "buffer" : 0,
      "byteOffset" : 74280,
      "byteLength" : 10816
    },
    {
      "buffer" : 0,
      "byteOffset" : 85096,
      "byteLength" : 10816
    },
    {
      "buffer" : 0,
      "byteOffset" : 95912,
      "byteLength" : 10816
    }
  ],
  "accessors" : [
    {
      "bufferView" : 0,
      "componentType" : 5123,
      "count" : 4692,
      "type" : "SCALAR"
    },
    {
      "bufferView" : 1,
      "min" : [ -16.4522, -0.47779, -30.681 ],
      "max" : [ -7.00654, -0.132563, 97.3121 ],
      "componentType" : 5126,
      "count" : 1352,
      "type" : "VEC3"
    },
    {
      "bufferView" : 2,
      "componentType" : 5126,
      "count" : 1352,
      "type" : "VEC3"
    },
    {
      "bufferView" : 3,
      "componentType" : 5126,
      "count" : 1352,
      "type" : "VEC4"
    },
    {
      "bufferView" : 4,
      "componentType" : 5126,
      "count" : 1352,
      "type" : "VEC2"
    },
    {
      "bufferView" : 5,
      "componentType" : 5126,
      "count" : 1352,
      "type" : "VEC2"
    },
    {
      "bufferView" : 6,
      "componentType" : 5126,
      "count" : 1352,
      "type" : "VEC2"
    },
    {
      "bufferView" : 7,
      "componentType" : 5126,
      "count" : 1352,
      "type" : "VEC2"
    }
  ]
}
