{
  "asset" : {
    "generator" : "UE Viewer (umodel) build 1544 based",
    "version" : "2.0"
  },
  "scene" : 0,
  "scenes" : [
    {
      "nodes" : [ 0 ]
    }
  ],
  "nodes" : [
    {
      "name" : "SM_ENV_LKNVLD_Ground_Right_RoadToGarden_04_Lod2",
      "mesh" : 0
    }
  ],
  "materials" : [
    {
      "name" : "MI_ENV_LKNVLD_SandyFloorTiles_LOD",
      "pbrMetallicRoughness" : {
        "baseColorFactor" : [ 0.3, 0.3, 0.3, 1.0 ],
        "metallicFactor" : 0.1,
        "roughnessFactor" : 0.5
      }
    }
  ],
  "meshes" : [
    {
      "primitives" : [
        {
          "attributes" : {
            "POSITION" : 1,
            "NORMAL" : 2,
            "TANGENT" : 3,
            "TEXCOORD_0" : 4,
            "TEXCOORD_1" : 5,
            "TEXCOORD_2" : 6,
            "TEXCOORD_3" : 7
          },
          "indices" : 0,
          "material" : 0
        }
      ],
      "name" : "SM_ENV_LKNVLD_Ground_Right_RoadToGarden_04_Lod2"
    }
  ],
  "buffers" : [
    {
      "uri" : "SM_ENV_LKNVLD_Ground_Right_RoadToGarden_04_Lod2.bin",
      "byteLength" : 25992
    }
  ],
  "bufferViews" : [
    {
      "buffer" : 0,
      "byteOffset" : 0,
      "byteLength" : 2736
    },
    {
      "buffer" : 0,
      "byteOffset" : 2736,
      "byteLength" : 3876
    },
    {
      "buffer" : 0,
      "byteOffset" : 6612,
      "byteLength" : 3876
    },
    {
      "buffer" : 0,
      "byteOffset" : 10488,
      "byteLength" : 5168
    },
    {
      "buffer" : 0,
      "byteOffset" : 15656,
      "byteLength" : 2584
    },
    {
      "buffer" : 0,
      "byteOffset" : 18240,
      "byteLength" : 2584
    },
    {
      "buffer" : 0,
      "byteOffset" : 20824,
      "byteLength" : 2584
    },
    {
      "buffer" : 0,
      "byteOffset" : 23408,
      "byteLength" : 2584
    }
  ],
  "accessors" : [
    {
      "bufferView" : 0,
      "componentType" : 5123,
      "count" : 1368,
      "type" : "SCALAR"
    },
    {
      "bufferView" : 1,
      "min" : [ 43.8199, -0.326215, -33.622 ],
      "max" : [ 67.2685, -0.216137, -11.0442 ],
      "componentType" : 5126,
      "count" : 323,
      "type" : "VEC3"
    },
    {
      "bufferView" : 2,
      "componentType" : 5126,
      "count" : 323,
      "type" : "VEC3"
    },
    {
      "bufferView" : 3,
      "componentType" : 5126,
      "count" : 323,
      "type" : "VEC4"
    },
    {
      "bufferView" : 4,
      "componentType" : 5126,
      "count" : 323,
      "type" : "VEC2"
    },
    {
      "bufferView" : 5,
      "componentType" : 5126,
      "count" : 323,
      "type" : "VEC2"
    },
    {
      "bufferView" : 6,
      "componentType" : 5126,
      "count" : 323,
      "type" : "VEC2"
    },
    {
      "bufferView" : 7,
      "componentType" : 5126,
      "count" : 323,
      "type" : "VEC2"
    }
  ]
}
