{
  "asset" : {
    "generator" : "UE Viewer (umodel) build 1544 based",
    "version" : "2.0"
  },
  "scene" : 0,
  "scenes" : [
    {
      "nodes" : [ 0 ]
    }
  ],
  "nodes" : [
    {
      "name" : "SM_ENV_LKNVLD_Ground_Left_SideTrimOuter_03_Lod1",
      "mesh" : 0
    }
  ],
  "materials" : [
    {
      "name" : "MI_ENV_LKNVLD_RoughTiles",
      "pbrMetallicRoughness" : {
        "baseColorFactor" : [ 0.3, 0.3, 0.3, 1.0 ],
        "metallicFactor" : 0.1,
        "roughnessFactor" : 0.5
      }
    }
  ],
  "meshes" : [
    {
      "primitives" : [
        {
          "attributes" : {
            "POSITION" : 1,
            "NORMAL" : 2,
            "TANGENT" : 3,
            "TEXCOORD_0" : 4,
            "TEXCOORD_1" : 5,
            "TEXCOORD_2" : 6,
            "TEXCOORD_3" : 7
          },
          "indices" : 0,
          "material" : 0
        }
      ],
      "name" : "SM_ENV_LKNVLD_Ground_Left_SideTrimOuter_03_Lod1"
    }
  ],
  "buffers" : [
    {
      "uri" : "SM_ENV_LKNVLD_Ground_Left_SideTrimOuter_03_Lod1.bin",
      "byteLength" : 40400
    }
  ],
  "bufferViews" : [
    {
      "buffer" : 0,
      "byteOffset" : 0,
      "byteLength" : 3248
    },
    {
      "buffer" : 0,
      "byteOffset" : 3248,
      "byteLength" : 6192
    },
    {
      "buffer" : 0,
      "byteOffset" : 9440,
      "byteLength" : 6192
    },
    {
      "buffer" : 0,
      "byteOffset" : 15632,
      "byteLength" : 8256
    },
    {
      "buffer" : 0,
      "byteOffset" : 23888,
      "byteLength" : 4128
    },
    {
      "buffer" : 0,
      "byteOffset" : 28016,
      "byteLength" : 4128
    },
    {
      "buffer" : 0,
      "byteOffset" : 32144,
      "byteLength" : 4128
    },
    {
      "buffer" : 0,
      "byteOffset" : 36272,
      "byteLength" : 4128
    }
  ],
  "accessors" : [
    {
      "bufferView" : 0,
      "componentType" : 5123,
      "count" : 1623,
      "type" : "SCALAR"
    },
    {
      "bufferView" : 1,
      "min" : [ -37.7316, -0.388347, -4.80963 ],
      "max" : [ -26.4467, 0.165344, 4.12769 ],
      "componentType" : 5126,
      "count" : 516,
      "type" : "VEC3"
    },
    {
      "bufferView" : 2,
      "componentType" : 5126,
      "count" : 516,
      "type" : "VEC3"
    },
    {
      "bufferView" : 3,
      "componentType" : 5126,
      "count" : 516,
      "type" : "VEC4"
    },
    {
      "bufferView" : 4,
      "componentType" : 5126,
      "count" : 516,
      "type" : "VEC2"
    },
    {
      "bufferView" : 5,
      "componentType" : 5126,
      "count" : 516,
      "type" : "VEC2"
    },
    {
      "bufferView" : 6,
      "componentType" : 5126,
      "count" : 516,
      "type" : "VEC2"
    },
    {
      "bufferView" : 7,
      "componentType" : 5126,
      "count" : 516,
      "type" : "VEC2"
    }
  ]
}
