{
  "asset" : {
    "generator" : "UE Viewer (umodel) build 1544 based",
    "version" : "2.0"
  },
  "scene" : 0,
  "scenes" : [
    {
      "nodes" : [ 0 ]
    }
  ],
  "nodes" : [
    {
      "name" : "SM_ENV_LKNVLD_Ground_Left_SideTrimOuter_04_Lod2",
      "mesh" : 0
    }
  ],
  "materials" : [
    {
      "name" : "MI_ENV_LKNVLD_RoughTiles_LOD",
      "pbrMetallicRoughness" : {
        "baseColorFactor" : [ 0.3, 0.3, 0.3, 1.0 ],
        "metallicFactor" : 0.1,
        "roughnessFactor" : 0.5
      }
    }
  ],
  "meshes" : [
    {
      "primitives" : [
        {
          "attributes" : {
            "POSITION" : 1,
            "NORMAL" : 2,
            "TANGENT" : 3,
            "TEXCOORD_0" : 4,
            "TEXCOORD_1" : 5,
            "TEXCOORD_2" : 6,
            "TEXCOORD_3" : 7
          },
          "indices" : 0,
          "material" : 0
        }
      ],
      "name" : "SM_ENV_LKNVLD_Ground_Left_SideTrimOuter_04_Lod2"
    }
  ],
  "buffers" : [
    {
      "uri" : "SM_ENV_LKNVLD_Ground_Left_SideTrimOuter_04_Lod2.bin",
      "byteLength" : 32144
    }
  ],
  "bufferViews" : [
    {
      "buffer" : 0,
      "byteOffset" : 0,
      "byteLength" : 2264
    },
    {
      "buffer" : 0,
      "byteOffset" : 2264,
      "byteLength" : 4980
    },
    {
      "buffer" : 0,
      "byteOffset" : 7244,
      "byteLength" : 4980
    },
    {
      "buffer" : 0,
      "byteOffset" : 12224,
      "byteLength" : 6640
    },
    {
      "buffer" : 0,
      "byteOffset" : 18864,
      "byteLength" : 3320
    },
    {
      "buffer" : 0,
      "byteOffset" : 22184,
      "byteLength" : 3320
    },
    {
      "buffer" : 0,
      "byteOffset" : 25504,
      "byteLength" : 3320
    },
    {
      "buffer" : 0,
      "byteOffset" : 28824,
      "byteLength" : 3320
    }
  ],
  "accessors" : [
    {
      "bufferView" : 0,
      "componentType" : 5123,
      "count" : 1131,
      "type" : "SCALAR"
    },
    {
      "bufferView" : 1,
      "min" : [ -30.1377, -0.388347, 10.4293 ],
      "max" : [ -17.6925, 0.165344, 23.8863 ],
      "componentType" : 5126,
      "count" : 415,
      "type" : "VEC3"
    },
    {
      "bufferView" : 2,
      "componentType" : 5126,
      "count" : 415,
      "type" : "VEC3"
    },
    {
      "bufferView" : 3,
      "componentType" : 5126,
      "count" : 415,
      "type" : "VEC4"
    },
    {
      "bufferView" : 4,
      "componentType" : 5126,
      "count" : 415,
      "type" : "VEC2"
    },
    {
      "bufferView" : 5,
      "componentType" : 5126,
      "count" : 415,
      "type" : "VEC2"
    },
    {
      "bufferView" : 6,
      "componentType" : 5126,
      "count" : 415,
      "type" : "VEC2"
    },
    {
      "bufferView" : 7,
      "componentType" : 5126,
      "count" : 415,
      "type" : "VEC2"
    }
  ]
}
