{
  "asset" : {
    "generator" : "UE Viewer (umodel) build 1544 based",
    "version" : "2.0"
  },
  "scene" : 0,
  "scenes" : [
    {
      "nodes" : [ 0 ]
    }
  ],
  "nodes" : [
    {
      "name" : "SM_ENV_LKNVLD_Ground_Right_SideTrim_RoadSide_Lod1",
      "mesh" : 0
    }
  ],
  "materials" : [
    {
      "name" : "MI_ENV_LKNVLD_RoughTiles",
      "pbrMetallicRoughness" : {
        "baseColorFactor" : [ 0.3, 0.3, 0.3, 1.0 ],
        "metallicFactor" : 0.1,
        "roughnessFactor" : 0.5
      }
    }
  ],
  "meshes" : [
    {
      "primitives" : [
        {
          "attributes" : {
            "POSITION" : 1,
            "NORMAL" : 2,
            "TANGENT" : 3,
            "TEXCOORD_0" : 4,
            "TEXCOORD_1" : 5,
            "TEXCOORD_2" : 6,
            "TEXCOORD_3" : 7
          },
          "indices" : 0,
          "material" : 0
        }
      ],
      "name" : "SM_ENV_LKNVLD_Ground_Right_SideTrim_RoadSide_Lod1"
    }
  ],
  "buffers" : [
    {
      "uri" : "SM_ENV_LKNVLD_Ground_Right_SideTrim_RoadSide_Lod1.bin",
      "byteLength" : 107352
    }
  ],
  "bufferViews" : [
    {
      "buffer" : 0,
      "byteOffset" : 0,
      "byteLength" : 10800
    },
    {
      "buffer" : 0,
      "byteOffset" : 10800,
      "byteLength" : 16092
    },
    {
      "buffer" : 0,
      "byteOffset" : 26892,
      "byteLength" : 16092
    },
    {
      "buffer" : 0,
      "byteOffset" : 42984,
      "byteLength" : 21456
    },
    {
      "buffer" : 0,
      "byteOffset" : 64440,
      "byteLength" : 10728
    },
    {
      "buffer" : 0,
      "byteOffset" : 75168,
      "byteLength" : 10728
    },
    {
      "buffer" : 0,
      "byteOffset" : 85896,
      "byteLength" : 10728
    },
    {
      "buffer" : 0,
      "byteOffset" : 96624,
      "byteLength" : 10728
    }
  ],
  "accessors" : [
    {
      "bufferView" : 0,
      "componentType" : 5123,
      "count" : 5400,
      "type" : "SCALAR"
    },
    {
      "bufferView" : 1,
      "min" : [ 4.14263, -0.470487, -31.3743 ],
      "max" : [ 13.4897, -0.156312, 92.6036 ],
      "componentType" : 5126,
      "count" : 1341,
      "type" : "VEC3"
    },
    {
      "bufferView" : 2,
      "componentType" : 5126,
      "count" : 1341,
      "type" : "VEC3"
    },
    {
      "bufferView" : 3,
      "componentType" : 5126,
      "count" : 1341,
      "type" : "VEC4"
    },
    {
      "bufferView" : 4,
      "componentType" : 5126,
      "count" : 1341,
      "type" : "VEC2"
    },
    {
      "bufferView" : 5,
      "componentType" : 5126,
      "count" : 1341,
      "type" : "VEC2"
    },
    {
      "bufferView" : 6,
      "componentType" : 5126,
      "count" : 1341,
      "type" : "VEC2"
    },
    {
      "bufferView" : 7,
      "componentType" : 5126,
      "count" : 1341,
      "type" : "VEC2"
    }
  ]
}
