{
  "asset" : {
    "generator" : "UE Viewer (umodel) build 1544 based",
    "version" : "2.0"
  },
  "scene" : 0,
  "scenes" : [
    {
      "nodes" : [ 0 ]
    }
  ],
  "nodes" : [
    {
      "name" : "SM_ENV_LKNVLD_Ground_Right_SideTrimOuter_04_Lod2",
      "mesh" : 0
    }
  ],
  "materials" : [
    {
      "name" : "MI_ENV_LKNVLD_RoughTiles_LOD",
      "pbrMetallicRoughness" : {
        "baseColorFactor" : [ 0.3, 0.3, 0.3, 1.0 ],
        "metallicFactor" : 0.1,
        "roughnessFactor" : 0.5
      }
    }
  ],
  "meshes" : [
    {
      "primitives" : [
        {
          "attributes" : {
            "POSITION" : 1,
            "NORMAL" : 2,
            "TANGENT" : 3,
            "TEXCOORD_0" : 4,
            "TEXCOORD_1" : 5,
            "TEXCOORD_2" : 6,
            "TEXCOORD_3" : 7
          },
          "indices" : 0,
          "material" : 0
        }
      ],
      "name" : "SM_ENV_LKNVLD_Ground_Right_SideTrimOuter_04_Lod2"
    }
  ],
  "buffers" : [
    {
      "uri" : "SM_ENV_LKNVLD_Ground_Right_SideTrimOuter_04_Lod2.bin",
      "byteLength" : 32436
    }
  ],
  "bufferViews" : [
    {
      "buffer" : 0,
      "byteOffset" : 0,
      "byteLength" : 2268
    },
    {
      "buffer" : 0,
      "byteOffset" : 2268,
      "byteLength" : 5028
    },
    {
      "buffer" : 0,
      "byteOffset" : 7296,
      "byteLength" : 5028
    },
    {
      "buffer" : 0,
      "byteOffset" : 12324,
      "byteLength" : 6704
    },
    {
      "buffer" : 0,
      "byteOffset" : 19028,
      "byteLength" : 3352
    },
    {
      "buffer" : 0,
      "byteOffset" : 22380,
      "byteLength" : 3352
    },
    {
      "buffer" : 0,
      "byteOffset" : 25732,
      "byteLength" : 3352
    },
    {
      "buffer" : 0,
      "byteOffset" : 29084,
      "byteLength" : 3352
    }
  ],
  "accessors" : [
    {
      "bufferView" : 0,
      "componentType" : 5123,
      "count" : 1134,
      "type" : "SCALAR"
    },
    {
      "bufferView" : 1,
      "min" : [ 16.3356, -0.388347, 11.8396 ],
      "max" : [ 28.7808, 0.165344, 25.2965 ],
      "componentType" : 5126,
      "count" : 419,
      "type" : "VEC3"
    },
    {
      "bufferView" : 2,
      "componentType" : 5126,
      "count" : 419,
      "type" : "VEC3"
    },
    {
      "bufferView" : 3,
      "componentType" : 5126,
      "count" : 419,
      "type" : "VEC4"
    },
    {
      "bufferView" : 4,
      "componentType" : 5126,
      "count" : 419,
      "type" : "VEC2"
    },
    {
      "bufferView" : 5,
      "componentType" : 5126,
      "count" : 419,
      "type" : "VEC2"
    },
    {
      "bufferView" : 6,
      "componentType" : 5126,
      "count" : 419,
      "type" : "VEC2"
    },
    {
      "bufferView" : 7,
      "componentType" : 5126,
      "count" : 419,
      "type" : "VEC2"
    }
  ]
}
