{
  "asset" : {
    "generator" : "UE Viewer (umodel) build 1544 based",
    "version" : "2.0"
  },
  "scene" : 0,
  "scenes" : [
    {
      "nodes" : [ 0 ]
    }
  ],
  "nodes" : [
    {
      "name" : "SM_ENV_LKNVLD_Ground_Right_ground_Lod3",
      "mesh" : 0
    }
  ],
  "materials" : [
    {
      "name" : "MI_ENV_LKNVLD_GroundSoil_A_LOD",
      "pbrMetallicRoughness" : {
        "baseColorFactor" : [ 0.3, 0.3, 0.3, 1.0 ],
        "metallicFactor" : 0.1,
        "roughnessFactor" : 0.5
      }
    }
  ],
  "meshes" : [
    {
      "primitives" : [
        {
          "attributes" : {
            "POSITION" : 1,
            "NORMAL" : 2,
            "TANGENT" : 3,
            "TEXCOORD_0" : 4,
            "TEXCOORD_1" : 5,
            "TEXCOORD_2" : 6,
            "TEXCOORD_3" : 7
          },
          "indices" : 0,
          "material" : 0
        }
      ],
      "name" : "SM_ENV_LKNVLD_Ground_Right_ground_Lod3"
    }
  ],
  "buffers" : [
    {
      "uri" : "SM_ENV_LKNVLD_Ground_Right_ground_Lod3.bin",
      "byteLength" : 156740
    }
  ],
  "bufferViews" : [
    {
      "buffer" : 0,
      "byteOffset" : 0,
      "byteLength" : 18284
    },
    {
      "buffer" : 0,
      "byteOffset" : 18284,
      "byteLength" : 23076
    },
    {
      "buffer" : 0,
      "byteOffset" : 41360,
      "byteLength" : 23076
    },
    {
      "buffer" : 0,
      "byteOffset" : 64436,
      "byteLength" : 30768
    },
    {
      "buffer" : 0,
      "byteOffset" : 95204,
      "byteLength" : 15384
    },
    {
      "buffer" : 0,
      "byteOffset" : 110588,
      "byteLength" : 15384
    },
    {
      "buffer" : 0,
      "byteOffset" : 125972,
      "byteLength" : 15384
    },
    {
      "buffer" : 0,
      "byteOffset" : 141356,
      "byteLength" : 15384
    }
  ],
  "accessors" : [
    {
      "bufferView" : 0,
      "componentType" : 5123,
      "count" : 9141,
      "type" : "SCALAR"
    },
    {
      "bufferView" : 1,
      "min" : [ 8.93041, -0.332761, -35 ],
      "max" : [ 27.6905, -0.24629, 92.9975 ],
      "componentType" : 5126,
      "count" : 1923,
      "type" : "VEC3"
    },
    {
      "bufferView" : 2,
      "componentType" : 5126,
      "count" : 1923,
      "type" : "VEC3"
    },
    {
      "bufferView" : 3,
      "componentType" : 5126,
      "count" : 1923,
      "type" : "VEC4"
    },
    {
      "bufferView" : 4,
      "componentType" : 5126,
      "count" : 1923,
      "type" : "VEC2"
    },
    {
      "bufferView" : 5,
      "componentType" : 5126,
      "count" : 1923,
      "type" : "VEC2"
    },
    {
      "bufferView" : 6,
      "componentType" : 5126,
      "count" : 1923,
      "type" : "VEC2"
    },
    {
      "bufferView" : 7,
      "componentType" : 5126,
      "count" : 1923,
      "type" : "VEC2"
    }
  ]
}
