{
  "asset" : {
    "generator" : "UE Viewer (umodel) build 1544 based",
    "version" : "2.0"
  },
  "scene" : 0,
  "scenes" : [
    {
      "nodes" : [ 0 ]
    }
  ],
  "nodes" : [
    {
      "name" : "SM_ENV_LKNVLD_Ground_Left_SideTrimOuter_01_Lod1",
      "mesh" : 0
    }
  ],
  "materials" : [
    {
      "name" : "MI_ENV_LKNVLD_RoughTiles",
      "pbrMetallicRoughness" : {
        "baseColorFactor" : [ 0.3, 0.3, 0.3, 1.0 ],
        "metallicFactor" : 0.1,
        "roughnessFactor" : 0.5
      }
    }
  ],
  "meshes" : [
    {
      "primitives" : [
        {
          "attributes" : {
            "POSITION" : 1,
            "NORMAL" : 2,
            "TANGENT" : 3,
            "TEXCOORD_0" : 4,
            "TEXCOORD_1" : 5,
            "TEXCOORD_2" : 6,
            "TEXCOORD_3" : 7
          },
          "indices" : 0,
          "material" : 0
        }
      ],
      "name" : "SM_ENV_LKNVLD_Ground_Left_SideTrimOuter_01_Lod1"
    }
  ],
  "buffers" : [
    {
      "uri" : "SM_ENV_LKNVLD_Ground_Left_SideTrimOuter_01_Lod1.bin",
      "byteLength" : 171092
    }
  ],
  "bufferViews" : [
    {
      "buffer" : 0,
      "byteOffset" : 0,
      "byteLength" : 13916
    },
    {
      "buffer" : 0,
      "byteOffset" : 13916,
      "byteLength" : 26196
    },
    {
      "buffer" : 0,
      "byteOffset" : 40112,
      "byteLength" : 26196
    },
    {
      "buffer" : 0,
      "byteOffset" : 66308,
      "byteLength" : 34928
    },
    {
      "buffer" : 0,
      "byteOffset" : 101236,
      "byteLength" : 17464
    },
    {
      "buffer" : 0,
      "byteOffset" : 118700,
      "byteLength" : 17464
    },
    {
      "buffer" : 0,
      "byteOffset" : 136164,
      "byteLength" : 17464
    },
    {
      "buffer" : 0,
      "byteOffset" : 153628,
      "byteLength" : 17464
    }
  ],
  "accessors" : [
    {
      "bufferView" : 0,
      "componentType" : 5123,
      "count" : 6957,
      "type" : "SCALAR"
    },
    {
      "bufferView" : 1,
      "min" : [ -27.4149, -0.486053, -38.9133 ],
      "max" : [ -10.7763, 0.100846, 62.4919 ],
      "componentType" : 5126,
      "count" : 2183,
      "type" : "VEC3"
    },
    {
      "bufferView" : 2,
      "componentType" : 5126,
      "count" : 2183,
      "type" : "VEC3"
    },
    {
      "bufferView" : 3,
      "componentType" : 5126,
      "count" : 2183,
      "type" : "VEC4"
    },
    {
      "bufferView" : 4,
      "componentType" : 5126,
      "count" : 2183,
      "type" : "VEC2"
    },
    {
      "bufferView" : 5,
      "componentType" : 5126,
      "count" : 2183,
      "type" : "VEC2"
    },
    {
      "bufferView" : 6,
      "componentType" : 5126,
      "count" : 2183,
      "type" : "VEC2"
    },
    {
      "bufferView" : 7,
      "componentType" : 5126,
      "count" : 2183,
      "type" : "VEC2"
    }
  ]
}
