{
  "asset" : {
    "generator" : "UE Viewer (umodel) build 1544 based",
    "version" : "2.0"
  },
  "scene" : 0,
  "scenes" : [
    {
      "nodes" : [ 0 ]
    }
  ],
  "nodes" : [
    {
      "name" : "SM_ENV_LKNVLD_Ground_Left_RoadToGarden_04_Lod1",
      "mesh" : 0
    }
  ],
  "materials" : [
    {
      "name" : "MI_ENV_LKNVLD_SandyFloorTiles",
      "pbrMetallicRoughness" : {
        "baseColorFactor" : [ 0.3, 0.3, 0.3, 1.0 ],
        "metallicFactor" : 0.1,
        "roughnessFactor" : 0.5
      }
    }
  ],
  "meshes" : [
    {
      "primitives" : [
        {
          "attributes" : {
            "POSITION" : 1,
            "NORMAL" : 2,
            "TANGENT" : 3,
            "TEXCOORD_0" : 4,
            "TEXCOORD_1" : 5,
            "TEXCOORD_2" : 6,
            "TEXCOORD_3" : 7
          },
          "indices" : 0,
          "material" : 0
        }
      ],
      "name" : "SM_ENV_LKNVLD_Ground_Left_RoadToGarden_04_Lod1"
    }
  ],
  "buffers" : [
    {
      "uri" : "SM_ENV_LKNVLD_Ground_Left_RoadToGarden_04_Lod1.bin",
      "byteLength" : 35096
    }
  ],
  "bufferViews" : [
    {
      "buffer" : 0,
      "byteOffset" : 0,
      "byteLength" : 3920
    },
    {
      "buffer" : 0,
      "byteOffset" : 3920,
      "byteLength" : 5196
    },
    {
      "buffer" : 0,
      "byteOffset" : 9116,
      "byteLength" : 5196
    },
    {
      "buffer" : 0,
      "byteOffset" : 14312,
      "byteLength" : 6928
    },
    {
      "buffer" : 0,
      "byteOffset" : 21240,
      "byteLength" : 3464
    },
    {
      "buffer" : 0,
      "byteOffset" : 24704,
      "byteLength" : 3464
    },
    {
      "buffer" : 0,
      "byteOffset" : 28168,
      "byteLength" : 3464
    },
    {
      "buffer" : 0,
      "byteOffset" : 31632,
      "byteLength" : 3464
    }
  ],
  "accessors" : [
    {
      "bufferView" : 0,
      "componentType" : 5123,
      "count" : 1959,
      "type" : "SCALAR"
    },
    {
      "bufferView" : 1,
      "min" : [ -67.2685, -0.326215, -33.622 ],
      "max" : [ -43.8199, -0.216137, -11.0442 ],
      "componentType" : 5126,
      "count" : 433,
      "type" : "VEC3"
    },
    {
      "bufferView" : 2,
      "componentType" : 5126,
      "count" : 433,
      "type" : "VEC3"
    },
    {
      "bufferView" : 3,
      "componentType" : 5126,
      "count" : 433,
      "type" : "VEC4"
    },
    {
      "bufferView" : 4,
      "componentType" : 5126,
      "count" : 433,
      "type" : "VEC2"
    },
    {
      "bufferView" : 5,
      "componentType" : 5126,
      "count" : 433,
      "type" : "VEC2"
    },
    {
      "bufferView" : 6,
      "componentType" : 5126,
      "count" : 433,
      "type" : "VEC2"
    },
    {
      "bufferView" : 7,
      "componentType" : 5126,
      "count" : 433,
      "type" : "VEC2"
    }
  ]
}
