{
  "asset" : {
    "generator" : "UE Viewer (umodel) build 1544 based",
    "version" : "2.0"
  },
  "scene" : 0,
  "scenes" : [
    {
      "nodes" : [ 0 ]
    }
  ],
  "nodes" : [
    {
      "name" : "SM_ENV_LKNVLD_Event_HL_Road_A",
      "mesh" : 0
    }
  ],
  "materials" : [
    {
      "name" : "MI_ENV_LKNVLD_Roof_F",
      "pbrMetallicRoughness" : {
        "baseColorFactor" : [ 0.3, 0.3, 0.3, 1.0 ],
        "metallicFactor" : 0.1,
        "roughnessFactor" : 0.5
      }
    }
  ],
  "meshes" : [
    {
      "primitives" : [
        {
          "attributes" : {
            "POSITION" : 1,
            "NORMAL" : 2,
            "TANGENT" : 3,
            "TEXCOORD_0" : 4,
            "TEXCOORD_1" : 5,
            "TEXCOORD_2" : 6,
            "TEXCOORD_3" : 7
          },
          "indices" : 0,
          "material" : 0
        }
      ],
      "name" : "SM_ENV_LKNVLD_Event_HL_Road_A"
    }
  ],
  "buffers" : [
    {
      "uri" : "SM_ENV_LKNVLD_Event_HL_Road_A.bin",
      "byteLength" : 12456
    }
  ],
  "bufferViews" : [
    {
      "buffer" : 0,
      "byteOffset" : 0,
      "byteLength" : 1440
    },
    {
      "buffer" : 0,
      "byteOffset" : 1440,
      "byteLength" : 1836
    },
    {
      "buffer" : 0,
      "byteOffset" : 3276,
      "byteLength" : 1836
    },
    {
      "buffer" : 0,
      "byteOffset" : 5112,
      "byteLength" : 2448
    },
    {
      "buffer" : 0,
      "byteOffset" : 7560,
      "byteLength" : 1224
    },
    {
      "buffer" : 0,
      "byteOffset" : 8784,
      "byteLength" : 1224
    },
    {
      "buffer" : 0,
      "byteOffset" : 10008,
      "byteLength" : 1224
    },
    {
      "buffer" : 0,
      "byteOffset" : 11232,
      "byteLength" : 1224
    }
  ],
  "accessors" : [
    {
      "bufferView" : 0,
      "componentType" : 5123,
      "count" : 720,
      "type" : "SCALAR"
    },
    {
      "bufferView" : 1,
      "min" : [ -12.7568, -0.449376, -37.7815 ],
      "max" : [ 12.7566, -0.375212, 17.7245 ],
      "componentType" : 5126,
      "count" : 153,
      "type" : "VEC3"
    },
    {
      "bufferView" : 2,
      "componentType" : 5126,
      "count" : 153,
      "type" : "VEC3"
    },
    {
      "bufferView" : 3,
      "componentType" : 5126,
      "count" : 153,
      "type" : "VEC4"
    },
    {
      "bufferView" : 4,
      "componentType" : 5126,
      "count" : 153,
      "type" : "VEC2"
    },
    {
      "bufferView" : 5,
      "componentType" : 5126,
      "count" : 153,
      "type" : "VEC2"
    },
    {
      "bufferView" : 6,
      "componentType" : 5126,
      "count" : 153,
      "type" : "VEC2"
    },
    {
      "bufferView" : 7,
      "componentType" : 5126,
      "count" : 153,
      "type" : "VEC2"
    }
  ]
}
