{
  "asset" : {
    "generator" : "UE Viewer (umodel) build 1544 based",
    "version" : "2.0"
  },
  "scene" : 0,
  "scenes" : [
    {
      "nodes" : [ 0 ]
    }
  ],
  "nodes" : [
    {
      "name" : "SM_ENV_LKNVLD_Ground_Right_RoadToGarden_01",
      "mesh" : 0
    }
  ],
  "materials" : [
    {
      "name" : "MI_ENV_LKNVLD_SandyFloorTiles",
      "pbrMetallicRoughness" : {
        "baseColorFactor" : [ 0.3, 0.3, 0.3, 1.0 ],
        "metallicFactor" : 0.1,
        "roughnessFactor" : 0.5
      }
    }
  ],
  "meshes" : [
    {
      "primitives" : [
        {
          "attributes" : {
            "POSITION" : 1,
            "NORMAL" : 2,
            "TANGENT" : 3,
            "TEXCOORD_0" : 4,
            "TEXCOORD_1" : 5,
            "TEXCOORD_2" : 6,
            "TEXCOORD_3" : 7
          },
          "indices" : 0,
          "material" : 0
        }
      ],
      "name" : "SM_ENV_LKNVLD_Ground_Right_RoadToGarden_01"
    }
  ],
  "buffers" : [
    {
      "uri" : "SM_ENV_LKNVLD_Ground_Right_RoadToGarden_01.bin",
      "byteLength" : 49452
    }
  ],
  "bufferViews" : [
    {
      "buffer" : 0,
      "byteOffset" : 0,
      "byteLength" : 5604
    },
    {
      "buffer" : 0,
      "byteOffset" : 5604,
      "byteLength" : 7308
    },
    {
      "buffer" : 0,
      "byteOffset" : 12912,
      "byteLength" : 7308
    },
    {
      "buffer" : 0,
      "byteOffset" : 20220,
      "byteLength" : 9744
    },
    {
      "buffer" : 0,
      "byteOffset" : 29964,
      "byteLength" : 4872
    },
    {
      "buffer" : 0,
      "byteOffset" : 34836,
      "byteLength" : 4872
    },
    {
      "buffer" : 0,
      "byteOffset" : 39708,
      "byteLength" : 4872
    },
    {
      "buffer" : 0,
      "byteOffset" : 44580,
      "byteLength" : 4872
    }
  ],
  "accessors" : [
    {
      "bufferView" : 0,
      "componentType" : 5123,
      "count" : 2802,
      "type" : "SCALAR"
    },
    {
      "bufferView" : 1,
      "min" : [ 13.0759, -0.326599, -38.5071 ],
      "max" : [ 35.4445, -0.216522, -16.0201 ],
      "componentType" : 5126,
      "count" : 609,
      "type" : "VEC3"
    },
    {
      "bufferView" : 2,
      "componentType" : 5126,
      "count" : 609,
      "type" : "VEC3"
    },
    {
      "bufferView" : 3,
      "componentType" : 5126,
      "count" : 609,
      "type" : "VEC4"
    },
    {
      "bufferView" : 4,
      "componentType" : 5126,
      "count" : 609,
      "type" : "VEC2"
    },
    {
      "bufferView" : 5,
      "componentType" : 5126,
      "count" : 609,
      "type" : "VEC2"
    },
    {
      "bufferView" : 6,
      "componentType" : 5126,
      "count" : 609,
      "type" : "VEC2"
    },
    {
      "bufferView" : 7,
      "componentType" : 5126,
      "count" : 609,
      "type" : "VEC2"
    }
  ]
}
