{
  "asset" : {
    "generator" : "UE Viewer (umodel) build 1544 based",
    "version" : "2.0"
  },
  "scene" : 0,
  "scenes" : [
    {
      "nodes" : [ 0 ]
    }
  ],
  "nodes" : [
    {
      "name" : "SM_ENV_LKNVLD_Ground_Left_sideTrim_Middle_02",
      "mesh" : 0
    }
  ],
  "materials" : [
    {
      "name" : "MI_ENV_LKNVLD_RoughTiles",
      "pbrMetallicRoughness" : {
        "baseColorFactor" : [ 0.3, 0.3, 0.3, 1.0 ],
        "metallicFactor" : 0.1,
        "roughnessFactor" : 0.5
      }
    }
  ],
  "meshes" : [
    {
      "primitives" : [
        {
          "attributes" : {
            "POSITION" : 1,
            "NORMAL" : 2,
            "TANGENT" : 3,
            "TEXCOORD_0" : 4,
            "TEXCOORD_1" : 5,
            "TEXCOORD_2" : 6,
            "TEXCOORD_3" : 7
          },
          "indices" : 0,
          "material" : 0
        }
      ],
      "name" : "SM_ENV_LKNVLD_Ground_Left_sideTrim_Middle_02"
    }
  ],
  "buffers" : [
    {
      "uri" : "SM_ENV_LKNVLD_Ground_Left_sideTrim_Middle_02.bin",
      "byteLength" : 110424
    }
  ],
  "bufferViews" : [
    {
      "buffer" : 0,
      "byteOffset" : 0,
      "byteLength" : 13008
    },
    {
      "buffer" : 0,
      "byteOffset" : 13008,
      "byteLength" : 16236
    },
    {
      "buffer" : 0,
      "byteOffset" : 29244,
      "byteLength" : 16236
    },
    {
      "buffer" : 0,
      "byteOffset" : 45480,
      "byteLength" : 21648
    },
    {
      "buffer" : 0,
      "byteOffset" : 67128,
      "byteLength" : 10824
    },
    {
      "buffer" : 0,
      "byteOffset" : 77952,
      "byteLength" : 10824
    },
    {
      "buffer" : 0,
      "byteOffset" : 88776,
      "byteLength" : 10824
    },
    {
      "buffer" : 0,
      "byteOffset" : 99600,
      "byteLength" : 10824
    }
  ],
  "accessors" : [
    {
      "bufferView" : 0,
      "componentType" : 5123,
      "count" : 6504,
      "type" : "SCALAR"
    },
    {
      "bufferView" : 1,
      "min" : [ -16.4522, -0.47779, -30.681 ],
      "max" : [ -7.00654, -0.132563, 97.3121 ],
      "componentType" : 5126,
      "count" : 1353,
      "type" : "VEC3"
    },
    {
      "bufferView" : 2,
      "componentType" : 5126,
      "count" : 1353,
      "type" : "VEC3"
    },
    {
      "bufferView" : 3,
      "componentType" : 5126,
      "count" : 1353,
      "type" : "VEC4"
    },
    {
      "bufferView" : 4,
      "componentType" : 5126,
      "count" : 1353,
      "type" : "VEC2"
    },
    {
      "bufferView" : 5,
      "componentType" : 5126,
      "count" : 1353,
      "type" : "VEC2"
    },
    {
      "bufferView" : 6,
      "componentType" : 5126,
      "count" : 1353,
      "type" : "VEC2"
    },
    {
      "bufferView" : 7,
      "componentType" : 5126,
      "count" : 1353,
      "type" : "VEC2"
    }
  ]
}
