{
  "asset" : {
    "generator" : "UE Viewer (umodel) build 1544 based",
    "version" : "2.0"
  },
  "scene" : 0,
  "scenes" : [
    {
      "nodes" : [ 0 ]
    }
  ],
  "nodes" : [
    {
      "name" : "SM_ENV_LKNVLD_Ground_Left_SideTrimOuter_02_Lod1",
      "mesh" : 0
    }
  ],
  "materials" : [
    {
      "name" : "MI_ENV_LKNVLD_RoughTiles_LOD",
      "pbrMetallicRoughness" : {
        "baseColorFactor" : [ 0.3, 0.3, 0.3, 1.0 ],
        "metallicFactor" : 0.1,
        "roughnessFactor" : 0.5
      }
    }
  ],
  "meshes" : [
    {
      "primitives" : [
        {
          "attributes" : {
            "POSITION" : 1,
            "NORMAL" : 2,
            "TANGENT" : 3,
            "TEXCOORD_0" : 4,
            "TEXCOORD_1" : 5,
            "TEXCOORD_2" : 6,
            "TEXCOORD_3" : 7
          },
          "indices" : 0,
          "material" : 0
        }
      ],
      "name" : "SM_ENV_LKNVLD_Ground_Left_SideTrimOuter_02_Lod1"
    }
  ],
  "buffers" : [
    {
      "uri" : "SM_ENV_LKNVLD_Ground_Left_SideTrimOuter_02_Lod1.bin",
      "byteLength" : 271716
    }
  ],
  "bufferViews" : [
    {
      "buffer" : 0,
      "byteOffset" : 0,
      "byteLength" : 22956
    },
    {
      "buffer" : 0,
      "byteOffset" : 22956,
      "byteLength" : 41460
    },
    {
      "buffer" : 0,
      "byteOffset" : 64416,
      "byteLength" : 41460
    },
    {
      "buffer" : 0,
      "byteOffset" : 105876,
      "byteLength" : 55280
    },
    {
      "buffer" : 0,
      "byteOffset" : 161156,
      "byteLength" : 27640
    },
    {
      "buffer" : 0,
      "byteOffset" : 188796,
      "byteLength" : 27640
    },
    {
      "buffer" : 0,
      "byteOffset" : 216436,
      "byteLength" : 27640
    },
    {
      "buffer" : 0,
      "byteOffset" : 244076,
      "byteLength" : 27640
    }
  ],
  "accessors" : [
    {
      "bufferView" : 0,
      "componentType" : 5123,
      "count" : 11478,
      "type" : "SCALAR"
    },
    {
      "bufferView" : 1,
      "min" : [ -71.1928, -0.388347, -60.7756 ],
      "max" : [ -13.2455, 0.117752, -16.2869 ],
      "componentType" : 5126,
      "count" : 3455,
      "type" : "VEC3"
    },
    {
      "bufferView" : 2,
      "componentType" : 5126,
      "count" : 3455,
      "type" : "VEC3"
    },
    {
      "bufferView" : 3,
      "componentType" : 5126,
      "count" : 3455,
      "type" : "VEC4"
    },
    {
      "bufferView" : 4,
      "componentType" : 5126,
      "count" : 3455,
      "type" : "VEC2"
    },
    {
      "bufferView" : 5,
      "componentType" : 5126,
      "count" : 3455,
      "type" : "VEC2"
    },
    {
      "bufferView" : 6,
      "componentType" : 5126,
      "count" : 3455,
      "type" : "VEC2"
    },
    {
      "bufferView" : 7,
      "componentType" : 5126,
      "count" : 3455,
      "type" : "VEC2"
    }
  ]
}
