{
  "asset" : {
    "generator" : "UE Viewer (umodel) build 1544 based",
    "version" : "2.0"
  },
  "scene" : 0,
  "scenes" : [
    {
      "nodes" : [ 0 ]
    }
  ],
  "nodes" : [
    {
      "name" : "SM_ENV_LKNVLD_Ground_Right_bigSideTrim_Lod1",
      "mesh" : 0
    }
  ],
  "materials" : [
    {
      "name" : "MI_T_ENV_LKNVLD_StoneTrim",
      "pbrMetallicRoughness" : {
        "baseColorFactor" : [ 0.3, 0.3, 0.3, 1.0 ],
        "metallicFactor" : 0.1,
        "roughnessFactor" : 0.5
      }
    }
  ],
  "meshes" : [
    {
      "primitives" : [
        {
          "attributes" : {
            "POSITION" : 1,
            "NORMAL" : 2,
            "TANGENT" : 3,
            "TEXCOORD_0" : 4,
            "TEXCOORD_1" : 5,
            "TEXCOORD_2" : 6,
            "TEXCOORD_3" : 7
          },
          "indices" : 0,
          "material" : 0
        }
      ],
      "name" : "SM_ENV_LKNVLD_Ground_Right_bigSideTrim_Lod1"
    }
  ],
  "buffers" : [
    {
      "uri" : "SM_ENV_LKNVLD_Ground_Right_bigSideTrim_Lod1.bin",
      "byteLength" : 22236
    }
  ],
  "bufferViews" : [
    {
      "buffer" : 0,
      "byteOffset" : 0,
      "byteLength" : 1860
    },
    {
      "buffer" : 0,
      "byteOffset" : 1860,
      "byteLength" : 3396
    },
    {
      "buffer" : 0,
      "byteOffset" : 5256,
      "byteLength" : 3396
    },
    {
      "buffer" : 0,
      "byteOffset" : 8652,
      "byteLength" : 4528
    },
    {
      "buffer" : 0,
      "byteOffset" : 13180,
      "byteLength" : 2264
    },
    {
      "buffer" : 0,
      "byteOffset" : 15444,
      "byteLength" : 2264
    },
    {
      "buffer" : 0,
      "byteOffset" : 17708,
      "byteLength" : 2264
    },
    {
      "buffer" : 0,
      "byteOffset" : 19972,
      "byteLength" : 2264
    }
  ],
  "accessors" : [
    {
      "bufferView" : 0,
      "componentType" : 5123,
      "count" : 930,
      "type" : "SCALAR"
    },
    {
      "bufferView" : 1,
      "min" : [ 4.60597, -0.323372, -31.3932 ],
      "max" : [ 15.9735, -0.214471, 99.1341 ],
      "componentType" : 5126,
      "count" : 283,
      "type" : "VEC3"
    },
    {
      "bufferView" : 2,
      "componentType" : 5126,
      "count" : 283,
      "type" : "VEC3"
    },
    {
      "bufferView" : 3,
      "componentType" : 5126,
      "count" : 283,
      "type" : "VEC4"
    },
    {
      "bufferView" : 4,
      "componentType" : 5126,
      "count" : 283,
      "type" : "VEC2"
    },
    {
      "bufferView" : 5,
      "componentType" : 5126,
      "count" : 283,
      "type" : "VEC2"
    },
    {
      "bufferView" : 6,
      "componentType" : 5126,
      "count" : 283,
      "type" : "VEC2"
    },
    {
      "bufferView" : 7,
      "componentType" : 5126,
      "count" : 283,
      "type" : "VEC2"
    }
  ]
}
