{
  "asset" : {
    "generator" : "UE Viewer (umodel) build 1544 based",
    "version" : "2.0"
  },
  "scene" : 0,
  "scenes" : [
    {
      "nodes" : [ 0 ]
    }
  ],
  "nodes" : [
    {
      "name" : "SM_ENV_LKNVLD_Ground_Left_ground_Lod2",
      "mesh" : 0
    }
  ],
  "materials" : [
    {
      "name" : "MI_ENV_LKNVLD_GroundSoil_A",
      "pbrMetallicRoughness" : {
        "baseColorFactor" : [ 0.3, 0.3, 0.3, 1.0 ],
        "metallicFactor" : 0.1,
        "roughnessFactor" : 0.5
      }
    }
  ],
  "meshes" : [
    {
      "primitives" : [
        {
          "attributes" : {
            "POSITION" : 1,
            "NORMAL" : 2,
            "TANGENT" : 3,
            "TEXCOORD_0" : 4,
            "TEXCOORD_1" : 5,
            "TEXCOORD_2" : 6,
            "TEXCOORD_3" : 7
          },
          "indices" : 0,
          "material" : 0
        }
      ],
      "name" : "SM_ENV_LKNVLD_Ground_Left_ground_Lod2"
    }
  ],
  "buffers" : [
    {
      "uri" : "SM_ENV_LKNVLD_Ground_Left_ground_Lod2.bin",
      "byteLength" : 224984
    }
  ],
  "bufferViews" : [
    {
      "buffer" : 0,
      "byteOffset" : 0,
      "byteLength" : 26120
    },
    {
      "buffer" : 0,
      "byteOffset" : 26120,
      "byteLength" : 33144
    },
    {
      "buffer" : 0,
      "byteOffset" : 59264,
      "byteLength" : 33144
    },
    {
      "buffer" : 0,
      "byteOffset" : 92408,
      "byteLength" : 44192
    },
    {
      "buffer" : 0,
      "byteOffset" : 136600,
      "byteLength" : 22096
    },
    {
      "buffer" : 0,
      "byteOffset" : 158696,
      "byteLength" : 22096
    },
    {
      "buffer" : 0,
      "byteOffset" : 180792,
      "byteLength" : 22096
    },
    {
      "buffer" : 0,
      "byteOffset" : 202888,
      "byteLength" : 22096
    }
  ],
  "accessors" : [
    {
      "bufferView" : 0,
      "componentType" : 5123,
      "count" : 13059,
      "type" : "SCALAR"
    },
    {
      "bufferView" : 1,
      "min" : [ -27.6905, -0.335008, -35 ],
      "max" : [ -8.93041, -0.235269, 92.9975 ],
      "componentType" : 5126,
      "count" : 2762,
      "type" : "VEC3"
    },
    {
      "bufferView" : 2,
      "componentType" : 5126,
      "count" : 2762,
      "type" : "VEC3"
    },
    {
      "bufferView" : 3,
      "componentType" : 5126,
      "count" : 2762,
      "type" : "VEC4"
    },
    {
      "bufferView" : 4,
      "componentType" : 5126,
      "count" : 2762,
      "type" : "VEC2"
    },
    {
      "bufferView" : 5,
      "componentType" : 5126,
      "count" : 2762,
      "type" : "VEC2"
    },
    {
      "bufferView" : 6,
      "componentType" : 5126,
      "count" : 2762,
      "type" : "VEC2"
    },
    {
      "bufferView" : 7,
      "componentType" : 5126,
      "count" : 2762,
      "type" : "VEC2"
    }
  ]
}
