{
  "asset" : {
    "generator" : "UE Viewer (umodel) build 1544 based",
    "version" : "2.0"
  },
  "scene" : 0,
  "scenes" : [
    {
      "nodes" : [ 0 ]
    }
  ],
  "nodes" : [
    {
      "name" : "SM_ENV_LKNVLD_Ground_Left_sideTrim_Middle_01",
      "mesh" : 0
    }
  ],
  "materials" : [
    {
      "name" : "MI_ENV_LKNVLD_RoughTiles",
      "pbrMetallicRoughness" : {
        "baseColorFactor" : [ 0.3, 0.3, 0.3, 1.0 ],
        "metallicFactor" : 0.1,
        "roughnessFactor" : 0.5
      }
    }
  ],
  "meshes" : [
    {
      "primitives" : [
        {
          "attributes" : {
            "POSITION" : 1,
            "NORMAL" : 2,
            "TANGENT" : 3,
            "TEXCOORD_0" : 4,
            "TEXCOORD_1" : 5,
            "TEXCOORD_2" : 6,
            "TEXCOORD_3" : 7
          },
          "indices" : 0,
          "material" : 0
        }
      ],
      "name" : "SM_ENV_LKNVLD_Ground_Left_sideTrim_Middle_01"
    }
  ],
  "buffers" : [
    {
      "uri" : "SM_ENV_LKNVLD_Ground_Left_sideTrim_Middle_01.bin",
      "byteLength" : 109700
    }
  ],
  "bufferViews" : [
    {
      "buffer" : 0,
      "byteOffset" : 0,
      "byteLength" : 12932
    },
    {
      "buffer" : 0,
      "byteOffset" : 12932,
      "byteLength" : 16128
    },
    {
      "buffer" : 0,
      "byteOffset" : 29060,
      "byteLength" : 16128
    },
    {
      "buffer" : 0,
      "byteOffset" : 45188,
      "byteLength" : 21504
    },
    {
      "buffer" : 0,
      "byteOffset" : 66692,
      "byteLength" : 10752
    },
    {
      "buffer" : 0,
      "byteOffset" : 77444,
      "byteLength" : 10752
    },
    {
      "buffer" : 0,
      "byteOffset" : 88196,
      "byteLength" : 10752
    },
    {
      "buffer" : 0,
      "byteOffset" : 98948,
      "byteLength" : 10752
    }
  ],
  "accessors" : [
    {
      "bufferView" : 0,
      "componentType" : 5123,
      "count" : 6465,
      "type" : "SCALAR"
    },
    {
      "bufferView" : 1,
      "min" : [ -18.2129, -0.47779, -30.6852 ],
      "max" : [ -7.47115, -0.132563, 96.6351 ],
      "componentType" : 5126,
      "count" : 1344,
      "type" : "VEC3"
    },
    {
      "bufferView" : 2,
      "componentType" : 5126,
      "count" : 1344,
      "type" : "VEC3"
    },
    {
      "bufferView" : 3,
      "componentType" : 5126,
      "count" : 1344,
      "type" : "VEC4"
    },
    {
      "bufferView" : 4,
      "componentType" : 5126,
      "count" : 1344,
      "type" : "VEC2"
    },
    {
      "bufferView" : 5,
      "componentType" : 5126,
      "count" : 1344,
      "type" : "VEC2"
    },
    {
      "bufferView" : 6,
      "componentType" : 5126,
      "count" : 1344,
      "type" : "VEC2"
    },
    {
      "bufferView" : 7,
      "componentType" : 5126,
      "count" : 1344,
      "type" : "VEC2"
    }
  ]
}
