{
  "asset" : {
    "generator" : "UE Viewer (umodel) build 1544 based",
    "version" : "2.0"
  },
  "scene" : 0,
  "scenes" : [
    {
      "nodes" : [ 0 ]
    }
  ],
  "nodes" : [
    {
      "name" : "SM_ENV_LKNVLD_Ground_road_Lod1",
      "mesh" : 0
    }
  ],
  "materials" : [
    {
      "name" : "MI_ENV_LKNVLD_Road_Simple",
      "pbrMetallicRoughness" : {
        "baseColorFactor" : [ 0.3, 0.3, 0.3, 1.0 ],
        "metallicFactor" : 0.1,
        "roughnessFactor" : 0.5
      }
    }
  ],
  "meshes" : [
    {
      "primitives" : [
        {
          "attributes" : {
            "POSITION" : 1,
            "NORMAL" : 2,
            "TANGENT" : 3,
            "TEXCOORD_0" : 4,
            "TEXCOORD_1" : 5,
            "TEXCOORD_2" : 6,
            "TEXCOORD_3" : 7
          },
          "indices" : 0,
          "material" : 0
        }
      ],
      "name" : "SM_ENV_LKNVLD_Ground_road_Lod1"
    }
  ],
  "buffers" : [
    {
      "uri" : "SM_ENV_LKNVLD_Ground_road_Lod1.bin",
      "byteLength" : 13428
    }
  ],
  "bufferViews" : [
    {
      "buffer" : 0,
      "byteOffset" : 0,
      "byteLength" : 1260
    },
    {
      "buffer" : 0,
      "byteOffset" : 1260,
      "byteLength" : 2028
    },
    {
      "buffer" : 0,
      "byteOffset" : 3288,
      "byteLength" : 2028
    },
    {
      "buffer" : 0,
      "byteOffset" : 5316,
      "byteLength" : 2704
    },
    {
      "buffer" : 0,
      "byteOffset" : 8020,
      "byteLength" : 1352
    },
    {
      "buffer" : 0,
      "byteOffset" : 9372,
      "byteLength" : 1352
    },
    {
      "buffer" : 0,
      "byteOffset" : 10724,
      "byteLength" : 1352
    },
    {
      "buffer" : 0,
      "byteOffset" : 12076,
      "byteLength" : 1352
    }
  ],
  "accessors" : [
    {
      "bufferView" : 0,
      "componentType" : 5123,
      "count" : 630,
      "type" : "SCALAR"
    },
    {
      "bufferView" : 1,
      "min" : [ -12.7568, -0.462511, -37.7815 ],
      "max" : [ 12.7566, -0.388347, 99.2913 ],
      "componentType" : 5126,
      "count" : 169,
      "type" : "VEC3"
    },
    {
      "bufferView" : 2,
      "componentType" : 5126,
      "count" : 169,
      "type" : "VEC3"
    },
    {
      "bufferView" : 3,
      "componentType" : 5126,
      "count" : 169,
      "type" : "VEC4"
    },
    {
      "bufferView" : 4,
      "componentType" : 5126,
      "count" : 169,
      "type" : "VEC2"
    },
    {
      "bufferView" : 5,
      "componentType" : 5126,
      "count" : 169,
      "type" : "VEC2"
    },
    {
      "bufferView" : 6,
      "componentType" : 5126,
      "count" : 169,
      "type" : "VEC2"
    },
    {
      "bufferView" : 7,
      "componentType" : 5126,
      "count" : 169,
      "type" : "VEC2"
    }
  ]
}
