{
  "asset" : {
    "generator" : "UE Viewer (umodel) build 1544 based",
    "version" : "2.0"
  },
  "scene" : 0,
  "scenes" : [
    {
      "nodes" : [ 0 ]
    }
  ],
  "nodes" : [
    {
      "name" : "SM_ENV_LKNVLD_Ground_Right_trim_Wood_A",
      "mesh" : 0
    }
  ],
  "materials" : [
    {
      "name" : "MI_ENV_LKNVLD_WoodBoard_Natural_Lighter",
      "pbrMetallicRoughness" : {
        "baseColorFactor" : [ 0.3, 0.3, 0.3, 1.0 ],
        "metallicFactor" : 0.1,
        "roughnessFactor" : 0.5
      }
    }
  ],
  "meshes" : [
    {
      "primitives" : [
        {
          "attributes" : {
            "POSITION" : 1,
            "NORMAL" : 2,
            "TANGENT" : 3,
            "TEXCOORD_0" : 4,
            "TEXCOORD_1" : 5,
            "TEXCOORD_2" : 6,
            "TEXCOORD_3" : 7
          },
          "indices" : 0,
          "material" : 0
        }
      ],
      "name" : "SM_ENV_LKNVLD_Ground_Right_trim_Wood_A"
    }
  ],
  "buffers" : [
    {
      "uri" : "SM_ENV_LKNVLD_Ground_Right_trim_Wood_A.bin",
      "byteLength" : 88356
    }
  ],
  "bufferViews" : [
    {
      "buffer" : 0,
      "byteOffset" : 0,
      "byteLength" : 3540
    },
    {
      "buffer" : 0,
      "byteOffset" : 3540,
      "byteLength" : 14136
    },
    {
      "buffer" : 0,
      "byteOffset" : 17676,
      "byteLength" : 14136
    },
    {
      "buffer" : 0,
      "byteOffset" : 31812,
      "byteLength" : 18848
    },
    {
      "buffer" : 0,
      "byteOffset" : 50660,
      "byteLength" : 9424
    },
    {
      "buffer" : 0,
      "byteOffset" : 60084,
      "byteLength" : 9424
    },
    {
      "buffer" : 0,
      "byteOffset" : 69508,
      "byteLength" : 9424
    },
    {
      "buffer" : 0,
      "byteOffset" : 78932,
      "byteLength" : 9424
    }
  ],
  "accessors" : [
    {
      "bufferView" : 0,
      "componentType" : 5123,
      "count" : 1770,
      "type" : "SCALAR"
    },
    {
      "bufferView" : 1,
      "min" : [ 7.50579, -0.267457, -30.1183 ],
      "max" : [ 17.5844, -0.196744, -9.90131 ],
      "componentType" : 5126,
      "count" : 1178,
      "type" : "VEC3"
    },
    {
      "bufferView" : 2,
      "componentType" : 5126,
      "count" : 1178,
      "type" : "VEC3"
    },
    {
      "bufferView" : 3,
      "componentType" : 5126,
      "count" : 1178,
      "type" : "VEC4"
    },
    {
      "bufferView" : 4,
      "componentType" : 5126,
      "count" : 1178,
      "type" : "VEC2"
    },
    {
      "bufferView" : 5,
      "componentType" : 5126,
      "count" : 1178,
      "type" : "VEC2"
    },
    {
      "bufferView" : 6,
      "componentType" : 5126,
      "count" : 1178,
      "type" : "VEC2"
    },
    {
      "bufferView" : 7,
      "componentType" : 5126,
      "count" : 1178,
      "type" : "VEC2"
    }
  ]
}
