{
  "asset" : {
    "generator" : "UE Viewer (umodel) build 1544 based",
    "version" : "2.0"
  },
  "scene" : 0,
  "scenes" : [
    {
      "nodes" : [ 0 ]
    }
  ],
  "nodes" : [
    {
      "name" : "SM_ENV_LKNVLD_Ground_Right_ground_01_Lod5",
      "mesh" : 0
    }
  ],
  "materials" : [
    {
      "name" : "MI_ENV_LKNVLD_GroundSoil_A_LOD",
      "pbrMetallicRoughness" : {
        "baseColorFactor" : [ 0.3, 0.3, 0.3, 1.0 ],
        "metallicFactor" : 0.1,
        "roughnessFactor" : 0.5
      }
    }
  ],
  "meshes" : [
    {
      "primitives" : [
        {
          "attributes" : {
            "POSITION" : 1,
            "NORMAL" : 2,
            "TANGENT" : 3,
            "TEXCOORD_0" : 4,
            "TEXCOORD_1" : 5,
            "TEXCOORD_2" : 6,
            "TEXCOORD_3" : 7
          },
          "indices" : 0,
          "material" : 0
        }
      ],
      "name" : "SM_ENV_LKNVLD_Ground_Right_ground_01_Lod5"
    }
  ],
  "buffers" : [
    {
      "uri" : "SM_ENV_LKNVLD_Ground_Right_ground_01_Lod5.bin",
      "byteLength" : 44108
    }
  ],
  "bufferViews" : [
    {
      "buffer" : 0,
      "byteOffset" : 0,
      "byteLength" : 4796
    },
    {
      "buffer" : 0,
      "byteOffset" : 4796,
      "byteLength" : 6552
    },
    {
      "buffer" : 0,
      "byteOffset" : 11348,
      "byteLength" : 6552
    },
    {
      "buffer" : 0,
      "byteOffset" : 17900,
      "byteLength" : 8736
    },
    {
      "buffer" : 0,
      "byteOffset" : 26636,
      "byteLength" : 4368
    },
    {
      "buffer" : 0,
      "byteOffset" : 31004,
      "byteLength" : 4368
    },
    {
      "buffer" : 0,
      "byteOffset" : 35372,
      "byteLength" : 4368
    },
    {
      "buffer" : 0,
      "byteOffset" : 39740,
      "byteLength" : 4368
    }
  ],
  "accessors" : [
    {
      "bufferView" : 0,
      "componentType" : 5123,
      "count" : 2397,
      "type" : "SCALAR"
    },
    {
      "bufferView" : 1,
      "min" : [ 30.8632, -0.34574, -53.5878 ],
      "max" : [ 58.6047, -0.106069, -30.1159 ],
      "componentType" : 5126,
      "count" : 546,
      "type" : "VEC3"
    },
    {
      "bufferView" : 2,
      "componentType" : 5126,
      "count" : 546,
      "type" : "VEC3"
    },
    {
      "bufferView" : 3,
      "componentType" : 5126,
      "count" : 546,
      "type" : "VEC4"
    },
    {
      "bufferView" : 4,
      "componentType" : 5126,
      "count" : 546,
      "type" : "VEC2"
    },
    {
      "bufferView" : 5,
      "componentType" : 5126,
      "count" : 546,
      "type" : "VEC2"
    },
    {
      "bufferView" : 6,
      "componentType" : 5126,
      "count" : 546,
      "type" : "VEC2"
    },
    {
      "bufferView" : 7,
      "componentType" : 5126,
      "count" : 546,
      "type" : "VEC2"
    }
  ]
}
