{
  "asset" : {
    "generator" : "UE Viewer (umodel) build 1544 based",
    "version" : "2.0"
  },
  "scene" : 0,
  "scenes" : [
    {
      "nodes" : [ 0 ]
    }
  ],
  "nodes" : [
    {
      "name" : "SM_ENV_LKNVLD_Ground_Left_ground_Lod1",
      "mesh" : 0
    }
  ],
  "materials" : [
    {
      "name" : "MI_ENV_LKNVLD_GroundSoil_A",
      "pbrMetallicRoughness" : {
        "baseColorFactor" : [ 0.3, 0.3, 0.3, 1.0 ],
        "metallicFactor" : 0.1,
        "roughnessFactor" : 0.5
      }
    }
  ],
  "meshes" : [
    {
      "primitives" : [
        {
          "attributes" : {
            "POSITION" : 1,
            "NORMAL" : 2,
            "TANGENT" : 3,
            "TEXCOORD_0" : 4,
            "TEXCOORD_1" : 5,
            "TEXCOORD_2" : 6,
            "TEXCOORD_3" : 7
          },
          "indices" : 0,
          "material" : 0
        }
      ],
      "name" : "SM_ENV_LKNVLD_Ground_Left_ground_Lod1"
    }
  ],
  "buffers" : [
    {
      "uri" : "SM_ENV_LKNVLD_Ground_Left_ground_Lod1.bin",
      "byteLength" : 320136
    }
  ],
  "bufferViews" : [
    {
      "buffer" : 0,
      "byteOffset" : 0,
      "byteLength" : 37320
    },
    {
      "buffer" : 0,
      "byteOffset" : 37320,
      "byteLength" : 47136
    },
    {
      "buffer" : 0,
      "byteOffset" : 84456,
      "byteLength" : 47136
    },
    {
      "buffer" : 0,
      "byteOffset" : 131592,
      "byteLength" : 62848
    },
    {
      "buffer" : 0,
      "byteOffset" : 194440,
      "byteLength" : 31424
    },
    {
      "buffer" : 0,
      "byteOffset" : 225864,
      "byteLength" : 31424
    },
    {
      "buffer" : 0,
      "byteOffset" : 257288,
      "byteLength" : 31424
    },
    {
      "buffer" : 0,
      "byteOffset" : 288712,
      "byteLength" : 31424
    }
  ],
  "accessors" : [
    {
      "bufferView" : 0,
      "componentType" : 5123,
      "count" : 18660,
      "type" : "SCALAR"
    },
    {
      "bufferView" : 1,
      "min" : [ -27.6905, -0.335008, -35 ],
      "max" : [ -8.93041, -0.235269, 92.9975 ],
      "componentType" : 5126,
      "count" : 3928,
      "type" : "VEC3"
    },
    {
      "bufferView" : 2,
      "componentType" : 5126,
      "count" : 3928,
      "type" : "VEC3"
    },
    {
      "bufferView" : 3,
      "componentType" : 5126,
      "count" : 3928,
      "type" : "VEC4"
    },
    {
      "bufferView" : 4,
      "componentType" : 5126,
      "count" : 3928,
      "type" : "VEC2"
    },
    {
      "bufferView" : 5,
      "componentType" : 5126,
      "count" : 3928,
      "type" : "VEC2"
    },
    {
      "bufferView" : 6,
      "componentType" : 5126,
      "count" : 3928,
      "type" : "VEC2"
    },
    {
      "bufferView" : 7,
      "componentType" : 5126,
      "count" : 3928,
      "type" : "VEC2"
    }
  ]
}
