{
  "asset" : {
    "generator" : "UE Viewer (umodel) build 1544 based",
    "version" : "2.0"
  },
  "scene" : 0,
  "scenes" : [
    {
      "nodes" : [ 0 ]
    }
  ],
  "nodes" : [
    {
      "name" : "SM_ENV_LKNVLD_Ground_Right_sideTrim_Middle_02_Lod1",
      "mesh" : 0
    }
  ],
  "materials" : [
    {
      "name" : "MI_ENV_LKNVLD_RoughTiles",
      "pbrMetallicRoughness" : {
        "baseColorFactor" : [ 0.3, 0.3, 0.3, 1.0 ],
        "metallicFactor" : 0.1,
        "roughnessFactor" : 0.5
      }
    }
  ],
  "meshes" : [
    {
      "primitives" : [
        {
          "attributes" : {
            "POSITION" : 1,
            "NORMAL" : 2,
            "TANGENT" : 3,
            "TEXCOORD_0" : 4,
            "TEXCOORD_1" : 5,
            "TEXCOORD_2" : 6,
            "TEXCOORD_3" : 7
          },
          "indices" : 0,
          "material" : 0
        }
      ],
      "name" : "SM_ENV_LKNVLD_Ground_Right_sideTrim_Middle_02_Lod1"
    }
  ],
  "buffers" : [
    {
      "uri" : "SM_ENV_LKNVLD_Ground_Right_sideTrim_Middle_02_Lod1.bin",
      "byteLength" : 107592
    }
  ],
  "bufferViews" : [
    {
      "buffer" : 0,
      "byteOffset" : 0,
      "byteLength" : 11040
    },
    {
      "buffer" : 0,
      "byteOffset" : 11040,
      "byteLength" : 16092
    },
    {
      "buffer" : 0,
      "byteOffset" : 27132,
      "byteLength" : 16092
    },
    {
      "buffer" : 0,
      "byteOffset" : 43224,
      "byteLength" : 21456
    },
    {
      "buffer" : 0,
      "byteOffset" : 64680,
      "byteLength" : 10728
    },
    {
      "buffer" : 0,
      "byteOffset" : 75408,
      "byteLength" : 10728
    },
    {
      "buffer" : 0,
      "byteOffset" : 86136,
      "byteLength" : 10728
    },
    {
      "buffer" : 0,
      "byteOffset" : 96864,
      "byteLength" : 10728
    }
  ],
  "accessors" : [
    {
      "bufferView" : 0,
      "componentType" : 5123,
      "count" : 5520,
      "type" : "SCALAR"
    },
    {
      "bufferView" : 1,
      "min" : [ 7.00654, -0.47779, -30.681 ],
      "max" : [ 16.4522, -0.132563, 97.3121 ],
      "componentType" : 5126,
      "count" : 1341,
      "type" : "VEC3"
    },
    {
      "bufferView" : 2,
      "componentType" : 5126,
      "count" : 1341,
      "type" : "VEC3"
    },
    {
      "bufferView" : 3,
      "componentType" : 5126,
      "count" : 1341,
      "type" : "VEC4"
    },
    {
      "bufferView" : 4,
      "componentType" : 5126,
      "count" : 1341,
      "type" : "VEC2"
    },
    {
      "bufferView" : 5,
      "componentType" : 5126,
      "count" : 1341,
      "type" : "VEC2"
    },
    {
      "bufferView" : 6,
      "componentType" : 5126,
      "count" : 1341,
      "type" : "VEC2"
    },
    {
      "bufferView" : 7,
      "componentType" : 5126,
      "count" : 1341,
      "type" : "VEC2"
    }
  ]
}
