{
  "asset" : {
    "generator" : "UE Viewer (umodel) build 1544 based",
    "version" : "2.0"
  },
  "scene" : 0,
  "scenes" : [
    {
      "nodes" : [ 0 ]
    }
  ],
  "nodes" : [
    {
      "name" : "SM_ENV_LKNVLD_Ground_Right_Side_Grass_02_Lod2",
      "mesh" : 0
    }
  ],
  "materials" : [
    {
      "name" : "MI_ENV_LKNVLD_GroundSoil_A_LOD",
      "pbrMetallicRoughness" : {
        "baseColorFactor" : [ 0.3, 0.3, 0.3, 1.0 ],
        "metallicFactor" : 0.1,
        "roughnessFactor" : 0.5
      }
    }
  ],
  "meshes" : [
    {
      "primitives" : [
        {
          "attributes" : {
            "POSITION" : 1,
            "NORMAL" : 2,
            "TANGENT" : 3,
            "TEXCOORD_0" : 4,
            "TEXCOORD_1" : 5,
            "TEXCOORD_2" : 6,
            "TEXCOORD_3" : 7
          },
          "indices" : 0,
          "material" : 0
        }
      ],
      "name" : "SM_ENV_LKNVLD_Ground_Right_Side_Grass_02_Lod2"
    }
  ],
  "buffers" : [
    {
      "uri" : "SM_ENV_LKNVLD_Ground_Right_Side_Grass_02_Lod2.bin",
      "byteLength" : 17780
    }
  ],
  "bufferViews" : [
    {
      "buffer" : 0,
      "byteOffset" : 0,
      "byteLength" : 2012
    },
    {
      "buffer" : 0,
      "byteOffset" : 2012,
      "byteLength" : 2628
    },
    {
      "buffer" : 0,
      "byteOffset" : 4640,
      "byteLength" : 2628
    },
    {
      "buffer" : 0,
      "byteOffset" : 7268,
      "byteLength" : 3504
    },
    {
      "buffer" : 0,
      "byteOffset" : 10772,
      "byteLength" : 1752
    },
    {
      "buffer" : 0,
      "byteOffset" : 12524,
      "byteLength" : 1752
    },
    {
      "buffer" : 0,
      "byteOffset" : 14276,
      "byteLength" : 1752
    },
    {
      "buffer" : 0,
      "byteOffset" : 16028,
      "byteLength" : 1752
    }
  ],
  "accessors" : [
    {
      "bufferView" : 0,
      "componentType" : 5123,
      "count" : 1005,
      "type" : "SCALAR"
    },
    {
      "bufferView" : 1,
      "min" : [ 11.3788, -0.314907, -72.2702 ],
      "max" : [ 62, 0.311129, -4.63345 ],
      "componentType" : 5126,
      "count" : 219,
      "type" : "VEC3"
    },
    {
      "bufferView" : 2,
      "componentType" : 5126,
      "count" : 219,
      "type" : "VEC3"
    },
    {
      "bufferView" : 3,
      "componentType" : 5126,
      "count" : 219,
      "type" : "VEC4"
    },
    {
      "bufferView" : 4,
      "componentType" : 5126,
      "count" : 219,
      "type" : "VEC2"
    },
    {
      "bufferView" : 5,
      "componentType" : 5126,
      "count" : 219,
      "type" : "VEC2"
    },
    {
      "bufferView" : 6,
      "componentType" : 5126,
      "count" : 219,
      "type" : "VEC2"
    },
    {
      "bufferView" : 7,
      "componentType" : 5126,
      "count" : 219,
      "type" : "VEC2"
    }
  ]
}
