{
  "asset" : {
    "generator" : "UE Viewer (umodel) build 1544 based",
    "version" : "2.0"
  },
  "scene" : 0,
  "scenes" : [
    {
      "nodes" : [ 0 ]
    }
  ],
  "nodes" : [
    {
      "name" : "SM_ENV_LKNVLD_Ground_Left_RoadToGarden_04_Lod3",
      "mesh" : 0
    }
  ],
  "materials" : [
    {
      "name" : "MI_ENV_LKNVLD_SandyFloorTiles_LOD",
      "pbrMetallicRoughness" : {
        "baseColorFactor" : [ 0.3, 0.3, 0.3, 1.0 ],
        "metallicFactor" : 0.1,
        "roughnessFactor" : 0.5
      }
    }
  ],
  "meshes" : [
    {
      "primitives" : [
        {
          "attributes" : {
            "POSITION" : 1,
            "NORMAL" : 2,
            "TANGENT" : 3,
            "TEXCOORD_0" : 4,
            "TEXCOORD_1" : 5,
            "TEXCOORD_2" : 6,
            "TEXCOORD_3" : 7
          },
          "indices" : 0,
          "material" : 0
        }
      ],
      "name" : "SM_ENV_LKNVLD_Ground_Left_RoadToGarden_04_Lod3"
    }
  ],
  "buffers" : [
    {
      "uri" : "SM_ENV_LKNVLD_Ground_Left_RoadToGarden_04_Lod3.bin",
      "byteLength" : 19836
    }
  ],
  "bufferViews" : [
    {
      "buffer" : 0,
      "byteOffset" : 0,
      "byteLength" : 1908
    },
    {
      "buffer" : 0,
      "byteOffset" : 1908,
      "byteLength" : 2988
    },
    {
      "buffer" : 0,
      "byteOffset" : 4896,
      "byteLength" : 2988
    },
    {
      "buffer" : 0,
      "byteOffset" : 7884,
      "byteLength" : 3984
    },
    {
      "buffer" : 0,
      "byteOffset" : 11868,
      "byteLength" : 1992
    },
    {
      "buffer" : 0,
      "byteOffset" : 13860,
      "byteLength" : 1992
    },
    {
      "buffer" : 0,
      "byteOffset" : 15852,
      "byteLength" : 1992
    },
    {
      "buffer" : 0,
      "byteOffset" : 17844,
      "byteLength" : 1992
    }
  ],
  "accessors" : [
    {
      "bufferView" : 0,
      "componentType" : 5123,
      "count" : 954,
      "type" : "SCALAR"
    },
    {
      "bufferView" : 1,
      "min" : [ -67.2685, -0.326215, -33.622 ],
      "max" : [ -43.8199, -0.216137, -11.0442 ],
      "componentType" : 5126,
      "count" : 249,
      "type" : "VEC3"
    },
    {
      "bufferView" : 2,
      "componentType" : 5126,
      "count" : 249,
      "type" : "VEC3"
    },
    {
      "bufferView" : 3,
      "componentType" : 5126,
      "count" : 249,
      "type" : "VEC4"
    },
    {
      "bufferView" : 4,
      "componentType" : 5126,
      "count" : 249,
      "type" : "VEC2"
    },
    {
      "bufferView" : 5,
      "componentType" : 5126,
      "count" : 249,
      "type" : "VEC2"
    },
    {
      "bufferView" : 6,
      "componentType" : 5126,
      "count" : 249,
      "type" : "VEC2"
    },
    {
      "bufferView" : 7,
      "componentType" : 5126,
      "count" : 249,
      "type" : "VEC2"
    }
  ]
}
