{
  "asset" : {
    "generator" : "UE Viewer (umodel) build 1544 based",
    "version" : "2.0"
  },
  "scene" : 0,
  "scenes" : [
    {
      "nodes" : [ 0 ]
    }
  ],
  "nodes" : [
    {
      "name" : "SM_ENV_LKNVLD_Ground_Right_trim_Wood_A_Lod1",
      "mesh" : 0
    }
  ],
  "materials" : [
    {
      "name" : "MI_ENV_LKNVLD_WoodBoard_Natural_Lighter_LOD",
      "pbrMetallicRoughness" : {
        "baseColorFactor" : [ 0.3, 0.3, 0.3, 1.0 ],
        "metallicFactor" : 0.1,
        "roughnessFactor" : 0.5
      }
    }
  ],
  "meshes" : [
    {
      "primitives" : [
        {
          "attributes" : {
            "POSITION" : 1,
            "NORMAL" : 2,
            "TANGENT" : 3,
            "TEXCOORD_0" : 4,
            "TEXCOORD_1" : 5,
            "TEXCOORD_2" : 6,
            "TEXCOORD_3" : 7
          },
          "indices" : 0,
          "material" : 0
        }
      ],
      "name" : "SM_ENV_LKNVLD_Ground_Right_trim_Wood_A_Lod1"
    }
  ],
  "buffers" : [
    {
      "uri" : "SM_ENV_LKNVLD_Ground_Right_trim_Wood_A_Lod1.bin",
      "byteLength" : 17700
    }
  ],
  "bufferViews" : [
    {
      "buffer" : 0,
      "byteOffset" : 0,
      "byteLength" : 708
    },
    {
      "buffer" : 0,
      "byteOffset" : 708,
      "byteLength" : 2832
    },
    {
      "buffer" : 0,
      "byteOffset" : 3540,
      "byteLength" : 2832
    },
    {
      "buffer" : 0,
      "byteOffset" : 6372,
      "byteLength" : 3776
    },
    {
      "buffer" : 0,
      "byteOffset" : 10148,
      "byteLength" : 1888
    },
    {
      "buffer" : 0,
      "byteOffset" : 12036,
      "byteLength" : 1888
    },
    {
      "buffer" : 0,
      "byteOffset" : 13924,
      "byteLength" : 1888
    },
    {
      "buffer" : 0,
      "byteOffset" : 15812,
      "byteLength" : 1888
    }
  ],
  "accessors" : [
    {
      "bufferView" : 0,
      "componentType" : 5123,
      "count" : 354,
      "type" : "SCALAR"
    },
    {
      "bufferView" : 1,
      "min" : [ 7.50579, -0.230091, -30.1068 ],
      "max" : [ 17.5767, -0.210989, -9.909 ],
      "componentType" : 5126,
      "count" : 236,
      "type" : "VEC3"
    },
    {
      "bufferView" : 2,
      "componentType" : 5126,
      "count" : 236,
      "type" : "VEC3"
    },
    {
      "bufferView" : 3,
      "componentType" : 5126,
      "count" : 236,
      "type" : "VEC4"
    },
    {
      "bufferView" : 4,
      "componentType" : 5126,
      "count" : 236,
      "type" : "VEC2"
    },
    {
      "bufferView" : 5,
      "componentType" : 5126,
      "count" : 236,
      "type" : "VEC2"
    },
    {
      "bufferView" : 6,
      "componentType" : 5126,
      "count" : 236,
      "type" : "VEC2"
    },
    {
      "bufferView" : 7,
      "componentType" : 5126,
      "count" : 236,
      "type" : "VEC2"
    }
  ]
}
