{
  "asset" : {
    "generator" : "UE Viewer (umodel) build 1544 based",
    "version" : "2.0"
  },
  "scene" : 0,
  "scenes" : [
    {
      "nodes" : [ 0 ]
    }
  ],
  "nodes" : [
    {
      "name" : "SM_ENV_LKNVLD_Ground_Right_trim_Wood_C",
      "mesh" : 0
    }
  ],
  "materials" : [
    {
      "name" : "MI_ENV_LKNVLD_WoodBoard_Natural_Lighter",
      "pbrMetallicRoughness" : {
        "baseColorFactor" : [ 0.3, 0.3, 0.3, 1.0 ],
        "metallicFactor" : 0.1,
        "roughnessFactor" : 0.5
      }
    }
  ],
  "meshes" : [
    {
      "primitives" : [
        {
          "attributes" : {
            "POSITION" : 1,
            "NORMAL" : 2,
            "TANGENT" : 3,
            "TEXCOORD_0" : 4,
            "TEXCOORD_1" : 5,
            "TEXCOORD_2" : 6,
            "TEXCOORD_3" : 7
          },
          "indices" : 0,
          "material" : 0
        }
      ],
      "name" : "SM_ENV_LKNVLD_Ground_Right_trim_Wood_C"
    }
  ],
  "buffers" : [
    {
      "uri" : "SM_ENV_LKNVLD_Ground_Right_trim_Wood_C.bin",
      "byteLength" : 187500
    }
  ],
  "bufferViews" : [
    {
      "buffer" : 0,
      "byteOffset" : 0,
      "byteLength" : 7500
    },
    {
      "buffer" : 0,
      "byteOffset" : 7500,
      "byteLength" : 30000
    },
    {
      "buffer" : 0,
      "byteOffset" : 37500,
      "byteLength" : 30000
    },
    {
      "buffer" : 0,
      "byteOffset" : 67500,
      "byteLength" : 40000
    },
    {
      "buffer" : 0,
      "byteOffset" : 107500,
      "byteLength" : 20000
    },
    {
      "buffer" : 0,
      "byteOffset" : 127500,
      "byteLength" : 20000
    },
    {
      "buffer" : 0,
      "byteOffset" : 147500,
      "byteLength" : 20000
    },
    {
      "buffer" : 0,
      "byteOffset" : 167500,
      "byteLength" : 20000
    }
  ],
  "accessors" : [
    {
      "bufferView" : 0,
      "componentType" : 5123,
      "count" : 3750,
      "type" : "SCALAR"
    },
    {
      "bufferView" : 1,
      "min" : [ 7.60497, -0.266213, 19.1106 ],
      "max" : [ 8.95752, -0.196744, 69.3136 ],
      "componentType" : 5126,
      "count" : 2500,
      "type" : "VEC3"
    },
    {
      "bufferView" : 2,
      "componentType" : 5126,
      "count" : 2500,
      "type" : "VEC3"
    },
    {
      "bufferView" : 3,
      "componentType" : 5126,
      "count" : 2500,
      "type" : "VEC4"
    },
    {
      "bufferView" : 4,
      "componentType" : 5126,
      "count" : 2500,
      "type" : "VEC2"
    },
    {
      "bufferView" : 5,
      "componentType" : 5126,
      "count" : 2500,
      "type" : "VEC2"
    },
    {
      "bufferView" : 6,
      "componentType" : 5126,
      "count" : 2500,
      "type" : "VEC2"
    },
    {
      "bufferView" : 7,
      "componentType" : 5126,
      "count" : 2500,
      "type" : "VEC2"
    }
  ]
}
