{
  "asset" : {
    "generator" : "UE Viewer (umodel) build 1544 based",
    "version" : "2.0"
  },
  "scene" : 0,
  "scenes" : [
    {
      "nodes" : [ 0 ]
    }
  ],
  "nodes" : [
    {
      "name" : "SM_ENV_LKNVLD_Ground_Right_RoadToGate_02_Lod3",
      "mesh" : 0
    }
  ],
  "materials" : [
    {
      "name" : "MI_ENV_LKNVLD_SandyFloorTiles_LOD",
      "pbrMetallicRoughness" : {
        "baseColorFactor" : [ 0.3, 0.3, 0.3, 1.0 ],
        "metallicFactor" : 0.1,
        "roughnessFactor" : 0.5
      }
    }
  ],
  "meshes" : [
    {
      "primitives" : [
        {
          "attributes" : {
            "POSITION" : 1,
            "NORMAL" : 2,
            "TANGENT" : 3,
            "TEXCOORD_0" : 4,
            "TEXCOORD_1" : 5,
            "TEXCOORD_2" : 6,
            "TEXCOORD_3" : 7
          },
          "indices" : 0,
          "material" : 0
        }
      ],
      "name" : "SM_ENV_LKNVLD_Ground_Right_RoadToGate_02_Lod3"
    }
  ],
  "buffers" : [
    {
      "uri" : "SM_ENV_LKNVLD_Ground_Right_RoadToGate_02_Lod3.bin",
      "byteLength" : 6944
    }
  ],
  "bufferViews" : [
    {
      "buffer" : 0,
      "byteOffset" : 0,
      "byteLength" : 608
    },
    {
      "buffer" : 0,
      "byteOffset" : 608,
      "byteLength" : 1056
    },
    {
      "buffer" : 0,
      "byteOffset" : 1664,
      "byteLength" : 1056
    },
    {
      "buffer" : 0,
      "byteOffset" : 2720,
      "byteLength" : 1408
    },
    {
      "buffer" : 0,
      "byteOffset" : 4128,
      "byteLength" : 704
    },
    {
      "buffer" : 0,
      "byteOffset" : 4832,
      "byteLength" : 704
    },
    {
      "buffer" : 0,
      "byteOffset" : 5536,
      "byteLength" : 704
    },
    {
      "buffer" : 0,
      "byteOffset" : 6240,
      "byteLength" : 704
    }
  ],
  "accessors" : [
    {
      "bufferView" : 0,
      "componentType" : 5123,
      "count" : 303,
      "type" : "SCALAR"
    },
    {
      "bufferView" : 1,
      "min" : [ 22.7821, -0.315756, -4.50401 ],
      "max" : [ 34.9664, 0.153226, 3.91641 ],
      "componentType" : 5126,
      "count" : 88,
      "type" : "VEC3"
    },
    {
      "bufferView" : 2,
      "componentType" : 5126,
      "count" : 88,
      "type" : "VEC3"
    },
    {
      "bufferView" : 3,
      "componentType" : 5126,
      "count" : 88,
      "type" : "VEC4"
    },
    {
      "bufferView" : 4,
      "componentType" : 5126,
      "count" : 88,
      "type" : "VEC2"
    },
    {
      "bufferView" : 5,
      "componentType" : 5126,
      "count" : 88,
      "type" : "VEC2"
    },
    {
      "bufferView" : 6,
      "componentType" : 5126,
      "count" : 88,
      "type" : "VEC2"
    },
    {
      "bufferView" : 7,
      "componentType" : 5126,
      "count" : 88,
      "type" : "VEC2"
    }
  ]
}
