{
  "asset" : {
    "generator" : "UE Viewer (umodel) build 1544 based",
    "version" : "2.0"
  },
  "scene" : 0,
  "scenes" : [
    {
      "nodes" : [ 0 ]
    }
  ],
  "nodes" : [
    {
      "name" : "SM_ENV_LKNVLD_Ground_Left_RoadToGate_02_Lod1",
      "mesh" : 0
    }
  ],
  "materials" : [
    {
      "name" : "MI_ENV_LKNVLD_SandyFloorTiles",
      "pbrMetallicRoughness" : {
        "baseColorFactor" : [ 0.3, 0.3, 0.3, 1.0 ],
        "metallicFactor" : 0.1,
        "roughnessFactor" : 0.5
      }
    }
  ],
  "meshes" : [
    {
      "primitives" : [
        {
          "attributes" : {
            "POSITION" : 1,
            "NORMAL" : 2,
            "TANGENT" : 3,
            "TEXCOORD_0" : 4,
            "TEXCOORD_1" : 5,
            "TEXCOORD_2" : 6,
            "TEXCOORD_3" : 7
          },
          "indices" : 0,
          "material" : 0
        }
      ],
      "name" : "SM_ENV_LKNVLD_Ground_Left_RoadToGate_02_Lod1"
    }
  ],
  "buffers" : [
    {
      "uri" : "SM_ENV_LKNVLD_Ground_Left_RoadToGate_02_Lod1.bin",
      "byteLength" : 11052
    }
  ],
  "bufferViews" : [
    {
      "buffer" : 0,
      "byteOffset" : 0,
      "byteLength" : 1116
    },
    {
      "buffer" : 0,
      "byteOffset" : 1116,
      "byteLength" : 1656
    },
    {
      "buffer" : 0,
      "byteOffset" : 2772,
      "byteLength" : 1656
    },
    {
      "buffer" : 0,
      "byteOffset" : 4428,
      "byteLength" : 2208
    },
    {
      "buffer" : 0,
      "byteOffset" : 6636,
      "byteLength" : 1104
    },
    {
      "buffer" : 0,
      "byteOffset" : 7740,
      "byteLength" : 1104
    },
    {
      "buffer" : 0,
      "byteOffset" : 8844,
      "byteLength" : 1104
    },
    {
      "buffer" : 0,
      "byteOffset" : 9948,
      "byteLength" : 1104
    }
  ],
  "accessors" : [
    {
      "bufferView" : 0,
      "componentType" : 5123,
      "count" : 558,
      "type" : "SCALAR"
    },
    {
      "bufferView" : 1,
      "min" : [ -34.9664, -0.315756, -4.50401 ],
      "max" : [ -22.7821, 0.0357355, 3.91641 ],
      "componentType" : 5126,
      "count" : 138,
      "type" : "VEC3"
    },
    {
      "bufferView" : 2,
      "componentType" : 5126,
      "count" : 138,
      "type" : "VEC3"
    },
    {
      "bufferView" : 3,
      "componentType" : 5126,
      "count" : 138,
      "type" : "VEC4"
    },
    {
      "bufferView" : 4,
      "componentType" : 5126,
      "count" : 138,
      "type" : "VEC2"
    },
    {
      "bufferView" : 5,
      "componentType" : 5126,
      "count" : 138,
      "type" : "VEC2"
    },
    {
      "bufferView" : 6,
      "componentType" : 5126,
      "count" : 138,
      "type" : "VEC2"
    },
    {
      "bufferView" : 7,
      "componentType" : 5126,
      "count" : 138,
      "type" : "VEC2"
    }
  ]
}
