{
  "asset" : {
    "generator" : "UE Viewer (umodel) build 1544 based",
    "version" : "2.0"
  },
  "scene" : 0,
  "scenes" : [
    {
      "nodes" : [ 0 ]
    }
  ],
  "nodes" : [
    {
      "name" : "SM_ENV_LKNVLD_Ground_Right_trim_Wood_C_Lod1",
      "mesh" : 0
    }
  ],
  "materials" : [
    {
      "name" : "MI_ENV_LKNVLD_WoodBoard_Natural_Lighter_LOD",
      "pbrMetallicRoughness" : {
        "baseColorFactor" : [ 0.3, 0.3, 0.3, 1.0 ],
        "metallicFactor" : 0.1,
        "roughnessFactor" : 0.5
      }
    }
  ],
  "meshes" : [
    {
      "primitives" : [
        {
          "attributes" : {
            "POSITION" : 1,
            "NORMAL" : 2,
            "TANGENT" : 3,
            "TEXCOORD_0" : 4,
            "TEXCOORD_1" : 5,
            "TEXCOORD_2" : 6,
            "TEXCOORD_3" : 7
          },
          "indices" : 0,
          "material" : 0
        }
      ],
      "name" : "SM_ENV_LKNVLD_Ground_Right_trim_Wood_C_Lod1"
    }
  ],
  "buffers" : [
    {
      "uri" : "SM_ENV_LKNVLD_Ground_Right_trim_Wood_C_Lod1.bin",
      "byteLength" : 37572
    }
  ],
  "bufferViews" : [
    {
      "buffer" : 0,
      "byteOffset" : 0,
      "byteLength" : 1500
    },
    {
      "buffer" : 0,
      "byteOffset" : 1500,
      "byteLength" : 6012
    },
    {
      "buffer" : 0,
      "byteOffset" : 7512,
      "byteLength" : 6012
    },
    {
      "buffer" : 0,
      "byteOffset" : 13524,
      "byteLength" : 8016
    },
    {
      "buffer" : 0,
      "byteOffset" : 21540,
      "byteLength" : 4008
    },
    {
      "buffer" : 0,
      "byteOffset" : 25548,
      "byteLength" : 4008
    },
    {
      "buffer" : 0,
      "byteOffset" : 29556,
      "byteLength" : 4008
    },
    {
      "buffer" : 0,
      "byteOffset" : 33564,
      "byteLength" : 4008
    }
  ],
  "accessors" : [
    {
      "bufferView" : 0,
      "componentType" : 5123,
      "count" : 750,
      "type" : "SCALAR"
    },
    {
      "bufferView" : 1,
      "min" : [ 7.61432, -0.215988, 19.12 ],
      "max" : [ 8.9456, -0.196886, 69.3035 ],
      "componentType" : 5126,
      "count" : 501,
      "type" : "VEC3"
    },
    {
      "bufferView" : 2,
      "componentType" : 5126,
      "count" : 501,
      "type" : "VEC3"
    },
    {
      "bufferView" : 3,
      "componentType" : 5126,
      "count" : 501,
      "type" : "VEC4"
    },
    {
      "bufferView" : 4,
      "componentType" : 5126,
      "count" : 501,
      "type" : "VEC2"
    },
    {
      "bufferView" : 5,
      "componentType" : 5126,
      "count" : 501,
      "type" : "VEC2"
    },
    {
      "bufferView" : 6,
      "componentType" : 5126,
      "count" : 501,
      "type" : "VEC2"
    },
    {
      "bufferView" : 7,
      "componentType" : 5126,
      "count" : 501,
      "type" : "VEC2"
    }
  ]
}
