{
  "asset" : {
    "generator" : "UE Viewer (umodel) build 1544 based",
    "version" : "2.0"
  },
  "scene" : 0,
  "scenes" : [
    {
      "nodes" : [ 0 ]
    }
  ],
  "nodes" : [
    {
      "name" : "SM_ENV_LKNVLD_Ground_Right_RoadToGate_02_Lod2",
      "mesh" : 0
    }
  ],
  "materials" : [
    {
      "name" : "MI_ENV_LKNVLD_SandyFloorTiles_LOD",
      "pbrMetallicRoughness" : {
        "baseColorFactor" : [ 0.3, 0.3, 0.3, 1.0 ],
        "metallicFactor" : 0.1,
        "roughnessFactor" : 0.5
      }
    }
  ],
  "meshes" : [
    {
      "primitives" : [
        {
          "attributes" : {
            "POSITION" : 1,
            "NORMAL" : 2,
            "TANGENT" : 3,
            "TEXCOORD_0" : 4,
            "TEXCOORD_1" : 5,
            "TEXCOORD_2" : 6,
            "TEXCOORD_3" : 7
          },
          "indices" : 0,
          "material" : 0
        }
      ],
      "name" : "SM_ENV_LKNVLD_Ground_Right_RoadToGate_02_Lod2"
    }
  ],
  "buffers" : [
    {
      "uri" : "SM_ENV_LKNVLD_Ground_Right_RoadToGate_02_Lod2.bin",
      "byteLength" : 8936
    }
  ],
  "bufferViews" : [
    {
      "buffer" : 0,
      "byteOffset" : 0,
      "byteLength" : 872
    },
    {
      "buffer" : 0,
      "byteOffset" : 872,
      "byteLength" : 1344
    },
    {
      "buffer" : 0,
      "byteOffset" : 2216,
      "byteLength" : 1344
    },
    {
      "buffer" : 0,
      "byteOffset" : 3560,
      "byteLength" : 1792
    },
    {
      "buffer" : 0,
      "byteOffset" : 5352,
      "byteLength" : 896
    },
    {
      "buffer" : 0,
      "byteOffset" : 6248,
      "byteLength" : 896
    },
    {
      "buffer" : 0,
      "byteOffset" : 7144,
      "byteLength" : 896
    },
    {
      "buffer" : 0,
      "byteOffset" : 8040,
      "byteLength" : 896
    }
  ],
  "accessors" : [
    {
      "bufferView" : 0,
      "componentType" : 5123,
      "count" : 435,
      "type" : "SCALAR"
    },
    {
      "bufferView" : 1,
      "min" : [ 22.7821, -0.315756, -4.50401 ],
      "max" : [ 34.9664, 0.153226, 3.91641 ],
      "componentType" : 5126,
      "count" : 112,
      "type" : "VEC3"
    },
    {
      "bufferView" : 2,
      "componentType" : 5126,
      "count" : 112,
      "type" : "VEC3"
    },
    {
      "bufferView" : 3,
      "componentType" : 5126,
      "count" : 112,
      "type" : "VEC4"
    },
    {
      "bufferView" : 4,
      "componentType" : 5126,
      "count" : 112,
      "type" : "VEC2"
    },
    {
      "bufferView" : 5,
      "componentType" : 5126,
      "count" : 112,
      "type" : "VEC2"
    },
    {
      "bufferView" : 6,
      "componentType" : 5126,
      "count" : 112,
      "type" : "VEC2"
    },
    {
      "bufferView" : 7,
      "componentType" : 5126,
      "count" : 112,
      "type" : "VEC2"
    }
  ]
}
