{
  "asset" : {
    "generator" : "UE Viewer (umodel) build 1544 based",
    "version" : "2.0"
  },
  "scene" : 0,
  "scenes" : [
    {
      "nodes" : [ 0 ]
    }
  ],
  "nodes" : [
    {
      "name" : "SM_ENV_LKNVLD_Ground_Right_roadTrim_BG",
      "mesh" : 0
    }
  ],
  "materials" : [
    {
      "name" : "MI_ENV_LKNVLD_Road_Simple_LOD",
      "pbrMetallicRoughness" : {
        "baseColorFactor" : [ 0.3, 0.3, 0.3, 1.0 ],
        "metallicFactor" : 0.1,
        "roughnessFactor" : 0.5
      }
    }
  ],
  "meshes" : [
    {
      "primitives" : [
        {
          "attributes" : {
            "POSITION" : 1,
            "NORMAL" : 2,
            "TANGENT" : 3,
            "TEXCOORD_0" : 4,
            "TEXCOORD_1" : 5,
            "TEXCOORD_2" : 6,
            "TEXCOORD_3" : 7
          },
          "indices" : 0,
          "material" : 0
        }
      ],
      "name" : "SM_ENV_LKNVLD_Ground_Right_roadTrim_BG"
    }
  ],
  "buffers" : [
    {
      "uri" : "SM_ENV_LKNVLD_Ground_Right_roadTrim_BG.bin",
      "byteLength" : 2448
    }
  ],
  "bufferViews" : [
    {
      "buffer" : 0,
      "byteOffset" : 0,
      "byteLength" : 144
    },
    {
      "buffer" : 0,
      "byteOffset" : 144,
      "byteLength" : 384
    },
    {
      "buffer" : 0,
      "byteOffset" : 528,
      "byteLength" : 384
    },
    {
      "buffer" : 0,
      "byteOffset" : 912,
      "byteLength" : 512
    },
    {
      "buffer" : 0,
      "byteOffset" : 1424,
      "byteLength" : 256
    },
    {
      "buffer" : 0,
      "byteOffset" : 1680,
      "byteLength" : 256
    },
    {
      "buffer" : 0,
      "byteOffset" : 1936,
      "byteLength" : 256
    },
    {
      "buffer" : 0,
      "byteOffset" : 2192,
      "byteLength" : 256
    }
  ],
  "accessors" : [
    {
      "bufferView" : 0,
      "componentType" : 5123,
      "count" : 72,
      "type" : "SCALAR"
    },
    {
      "bufferView" : 1,
      "min" : [ 3.67912, -0.476687, 95.578 ],
      "max" : [ 4.18953, -0.406557, 570.394 ],
      "componentType" : 5126,
      "count" : 32,
      "type" : "VEC3"
    },
    {
      "bufferView" : 2,
      "componentType" : 5126,
      "count" : 32,
      "type" : "VEC3"
    },
    {
      "bufferView" : 3,
      "componentType" : 5126,
      "count" : 32,
      "type" : "VEC4"
    },
    {
      "bufferView" : 4,
      "componentType" : 5126,
      "count" : 32,
      "type" : "VEC2"
    },
    {
      "bufferView" : 5,
      "componentType" : 5126,
      "count" : 32,
      "type" : "VEC2"
    },
    {
      "bufferView" : 6,
      "componentType" : 5126,
      "count" : 32,
      "type" : "VEC2"
    },
    {
      "bufferView" : 7,
      "componentType" : 5126,
      "count" : 32,
      "type" : "VEC2"
    }
  ]
}
