{
  "asset" : {
    "generator" : "UE Viewer (umodel) build 1544 based",
    "version" : "2.0"
  },
  "scene" : 0,
  "scenes" : [
    {
      "nodes" : [ 0 ]
    }
  ],
  "nodes" : [
    {
      "name" : "SM_ENV_LKNVLD_Ground_Left_ground",
      "mesh" : 0
    }
  ],
  "materials" : [
    {
      "name" : "MI_ENV_LKNVLD_GroundSoil_A",
      "pbrMetallicRoughness" : {
        "baseColorFactor" : [ 0.3, 0.3, 0.3, 1.0 ],
        "metallicFactor" : 0.1,
        "roughnessFactor" : 0.5
      }
    }
  ],
  "meshes" : [
    {
      "primitives" : [
        {
          "attributes" : {
            "POSITION" : 1,
            "NORMAL" : 2,
            "TANGENT" : 3,
            "TEXCOORD_0" : 4,
            "TEXCOORD_1" : 5,
            "TEXCOORD_2" : 6,
            "TEXCOORD_3" : 7
          },
          "indices" : 0,
          "material" : 0
        }
      ],
      "name" : "SM_ENV_LKNVLD_Ground_Left_ground"
    }
  ],
  "buffers" : [
    {
      "uri" : "SM_ENV_LKNVLD_Ground_Left_ground.bin",
      "byteLength" : 488484
    }
  ],
  "bufferViews" : [
    {
      "buffer" : 0,
      "byteOffset" : 0,
      "byteLength" : 53316
    },
    {
      "buffer" : 0,
      "byteOffset" : 53316,
      "byteLength" : 72528
    },
    {
      "buffer" : 0,
      "byteOffset" : 125844,
      "byteLength" : 72528
    },
    {
      "buffer" : 0,
      "byteOffset" : 198372,
      "byteLength" : 96704
    },
    {
      "buffer" : 0,
      "byteOffset" : 295076,
      "byteLength" : 48352
    },
    {
      "buffer" : 0,
      "byteOffset" : 343428,
      "byteLength" : 48352
    },
    {
      "buffer" : 0,
      "byteOffset" : 391780,
      "byteLength" : 48352
    },
    {
      "buffer" : 0,
      "byteOffset" : 440132,
      "byteLength" : 48352
    }
  ],
  "accessors" : [
    {
      "bufferView" : 0,
      "componentType" : 5123,
      "count" : 26658,
      "type" : "SCALAR"
    },
    {
      "bufferView" : 1,
      "min" : [ -27.6905, -0.335008, -35 ],
      "max" : [ -8.93041, -0.235269, 92.9975 ],
      "componentType" : 5126,
      "count" : 6044,
      "type" : "VEC3"
    },
    {
      "bufferView" : 2,
      "componentType" : 5126,
      "count" : 6044,
      "type" : "VEC3"
    },
    {
      "bufferView" : 3,
      "componentType" : 5126,
      "count" : 6044,
      "type" : "VEC4"
    },
    {
      "bufferView" : 4,
      "componentType" : 5126,
      "count" : 6044,
      "type" : "VEC2"
    },
    {
      "bufferView" : 5,
      "componentType" : 5126,
      "count" : 6044,
      "type" : "VEC2"
    },
    {
      "bufferView" : 6,
      "componentType" : 5126,
      "count" : 6044,
      "type" : "VEC2"
    },
    {
      "bufferView" : 7,
      "componentType" : 5126,
      "count" : 6044,
      "type" : "VEC2"
    }
  ]
}
