{
  "asset" : {
    "generator" : "UE Viewer (umodel) build 1544 based",
    "version" : "2.0"
  },
  "scene" : 0,
  "scenes" : [
    {
      "nodes" : [ 0 ]
    }
  ],
  "nodes" : [
    {
      "name" : "SM_ENV_LKNVLD_Ground_Left_SideTrimOuter_03_Lod3",
      "mesh" : 0
    }
  ],
  "materials" : [
    {
      "name" : "MI_ENV_LKNVLD_RoughTiles_LOD",
      "pbrMetallicRoughness" : {
        "baseColorFactor" : [ 0.3, 0.3, 0.3, 1.0 ],
        "metallicFactor" : 0.1,
        "roughnessFactor" : 0.5
      }
    }
  ],
  "meshes" : [
    {
      "primitives" : [
        {
          "attributes" : {
            "POSITION" : 1,
            "NORMAL" : 2,
            "TANGENT" : 3,
            "TEXCOORD_0" : 4,
            "TEXCOORD_1" : 5,
            "TEXCOORD_2" : 6,
            "TEXCOORD_3" : 7
          },
          "indices" : 0,
          "material" : 0
        }
      ],
      "name" : "SM_ENV_LKNVLD_Ground_Left_SideTrimOuter_03_Lod3"
    }
  ],
  "buffers" : [
    {
      "uri" : "SM_ENV_LKNVLD_Ground_Left_SideTrimOuter_03_Lod3.bin",
      "byteLength" : 27720
    }
  ],
  "bufferViews" : [
    {
      "buffer" : 0,
      "byteOffset" : 0,
      "byteLength" : 1584
    },
    {
      "buffer" : 0,
      "byteOffset" : 1584,
      "byteLength" : 4356
    },
    {
      "buffer" : 0,
      "byteOffset" : 5940,
      "byteLength" : 4356
    },
    {
      "buffer" : 0,
      "byteOffset" : 10296,
      "byteLength" : 5808
    },
    {
      "buffer" : 0,
      "byteOffset" : 16104,
      "byteLength" : 2904
    },
    {
      "buffer" : 0,
      "byteOffset" : 19008,
      "byteLength" : 2904
    },
    {
      "buffer" : 0,
      "byteOffset" : 21912,
      "byteLength" : 2904
    },
    {
      "buffer" : 0,
      "byteOffset" : 24816,
      "byteLength" : 2904
    }
  ],
  "accessors" : [
    {
      "bufferView" : 0,
      "componentType" : 5123,
      "count" : 792,
      "type" : "SCALAR"
    },
    {
      "bufferView" : 1,
      "min" : [ -37.7316, -0.388347, -4.80963 ],
      "max" : [ -26.4467, 0.165344, 4.12158 ],
      "componentType" : 5126,
      "count" : 363,
      "type" : "VEC3"
    },
    {
      "bufferView" : 2,
      "componentType" : 5126,
      "count" : 363,
      "type" : "VEC3"
    },
    {
      "bufferView" : 3,
      "componentType" : 5126,
      "count" : 363,
      "type" : "VEC4"
    },
    {
      "bufferView" : 4,
      "componentType" : 5126,
      "count" : 363,
      "type" : "VEC2"
    },
    {
      "bufferView" : 5,
      "componentType" : 5126,
      "count" : 363,
      "type" : "VEC2"
    },
    {
      "bufferView" : 6,
      "componentType" : 5126,
      "count" : 363,
      "type" : "VEC2"
    },
    {
      "bufferView" : 7,
      "componentType" : 5126,
      "count" : 363,
      "type" : "VEC2"
    }
  ]
}
