{
  "asset" : {
    "generator" : "UE Viewer (umodel) build 1544 based",
    "version" : "2.0"
  },
  "scene" : 0,
  "scenes" : [
    {
      "nodes" : [ 0 ]
    }
  ],
  "nodes" : [
    {
      "name" : "SM_ENV_LKNVLD_Ground_Right_Side_Grass_01",
      "mesh" : 0
    }
  ],
  "materials" : [
    {
      "name" : "MI_ENV_LKNVLD_GroundSoil_A",
      "pbrMetallicRoughness" : {
        "baseColorFactor" : [ 0.3, 0.3, 0.3, 1.0 ],
        "metallicFactor" : 0.1,
        "roughnessFactor" : 0.5
      }
    }
  ],
  "meshes" : [
    {
      "primitives" : [
        {
          "attributes" : {
            "POSITION" : 1,
            "NORMAL" : 2,
            "TANGENT" : 3,
            "TEXCOORD_0" : 4,
            "TEXCOORD_1" : 5,
            "TEXCOORD_2" : 6,
            "TEXCOORD_3" : 7
          },
          "indices" : 0,
          "material" : 0
        }
      ],
      "name" : "SM_ENV_LKNVLD_Ground_Right_Side_Grass_01"
    }
  ],
  "buffers" : [
    {
      "uri" : "SM_ENV_LKNVLD_Ground_Right_Side_Grass_01.bin",
      "byteLength" : 11808
    }
  ],
  "bufferViews" : [
    {
      "buffer" : 0,
      "byteOffset" : 0,
      "byteLength" : 1224
    },
    {
      "buffer" : 0,
      "byteOffset" : 1224,
      "byteLength" : 1764
    },
    {
      "buffer" : 0,
      "byteOffset" : 2988,
      "byteLength" : 1764
    },
    {
      "buffer" : 0,
      "byteOffset" : 4752,
      "byteLength" : 2352
    },
    {
      "buffer" : 0,
      "byteOffset" : 7104,
      "byteLength" : 1176
    },
    {
      "buffer" : 0,
      "byteOffset" : 8280,
      "byteLength" : 1176
    },
    {
      "buffer" : 0,
      "byteOffset" : 9456,
      "byteLength" : 1176
    },
    {
      "buffer" : 0,
      "byteOffset" : 10632,
      "byteLength" : 1176
    }
  ],
  "accessors" : [
    {
      "bufferView" : 0,
      "componentType" : 5123,
      "count" : 612,
      "type" : "SCALAR"
    },
    {
      "bufferView" : 1,
      "min" : [ 12.8189, -0.0776993, 4.01009 ],
      "max" : [ 34, 0.251046, 65 ],
      "componentType" : 5126,
      "count" : 147,
      "type" : "VEC3"
    },
    {
      "bufferView" : 2,
      "componentType" : 5126,
      "count" : 147,
      "type" : "VEC3"
    },
    {
      "bufferView" : 3,
      "componentType" : 5126,
      "count" : 147,
      "type" : "VEC4"
    },
    {
      "bufferView" : 4,
      "componentType" : 5126,
      "count" : 147,
      "type" : "VEC2"
    },
    {
      "bufferView" : 5,
      "componentType" : 5126,
      "count" : 147,
      "type" : "VEC2"
    },
    {
      "bufferView" : 6,
      "componentType" : 5126,
      "count" : 147,
      "type" : "VEC2"
    },
    {
      "bufferView" : 7,
      "componentType" : 5126,
      "count" : 147,
      "type" : "VEC2"
    }
  ]
}
