{
  "asset" : {
    "generator" : "UE Viewer (umodel) build 1544 based",
    "version" : "2.0"
  },
  "scene" : 0,
  "scenes" : [
    {
      "nodes" : [ 0 ]
    }
  ],
  "nodes" : [
    {
      "name" : "SM_ENV_LKNVLD_Ground_Right_SideTrim_RoadSide_Lod2",
      "mesh" : 0
    }
  ],
  "materials" : [
    {
      "name" : "MI_ENV_LKNVLD_RoughTiles_LOD",
      "pbrMetallicRoughness" : {
        "baseColorFactor" : [ 0.3, 0.3, 0.3, 1.0 ],
        "metallicFactor" : 0.1,
        "roughnessFactor" : 0.5
      }
    }
  ],
  "meshes" : [
    {
      "primitives" : [
        {
          "attributes" : {
            "POSITION" : 1,
            "NORMAL" : 2,
            "TANGENT" : 3,
            "TEXCOORD_0" : 4,
            "TEXCOORD_1" : 5,
            "TEXCOORD_2" : 6,
            "TEXCOORD_3" : 7
          },
          "indices" : 0,
          "material" : 0
        }
      ],
      "name" : "SM_ENV_LKNVLD_Ground_Right_SideTrim_RoadSide_Lod2"
    }
  ],
  "buffers" : [
    {
      "uri" : "SM_ENV_LKNVLD_Ground_Right_SideTrim_RoadSide_Lod2.bin",
      "byteLength" : 104000
    }
  ],
  "bufferViews" : [
    {
      "buffer" : 0,
      "byteOffset" : 0,
      "byteLength" : 9176
    },
    {
      "buffer" : 0,
      "byteOffset" : 9176,
      "byteLength" : 15804
    },
    {
      "buffer" : 0,
      "byteOffset" : 24980,
      "byteLength" : 15804
    },
    {
      "buffer" : 0,
      "byteOffset" : 40784,
      "byteLength" : 21072
    },
    {
      "buffer" : 0,
      "byteOffset" : 61856,
      "byteLength" : 10536
    },
    {
      "buffer" : 0,
      "byteOffset" : 72392,
      "byteLength" : 10536
    },
    {
      "buffer" : 0,
      "byteOffset" : 82928,
      "byteLength" : 10536
    },
    {
      "buffer" : 0,
      "byteOffset" : 93464,
      "byteLength" : 10536
    }
  ],
  "accessors" : [
    {
      "bufferView" : 0,
      "componentType" : 5123,
      "count" : 4587,
      "type" : "SCALAR"
    },
    {
      "bufferView" : 1,
      "min" : [ 4.14263, -0.470487, -31.3743 ],
      "max" : [ 13.4897, -0.156312, 92.6036 ],
      "componentType" : 5126,
      "count" : 1317,
      "type" : "VEC3"
    },
    {
      "bufferView" : 2,
      "componentType" : 5126,
      "count" : 1317,
      "type" : "VEC3"
    },
    {
      "bufferView" : 3,
      "componentType" : 5126,
      "count" : 1317,
      "type" : "VEC4"
    },
    {
      "bufferView" : 4,
      "componentType" : 5126,
      "count" : 1317,
      "type" : "VEC2"
    },
    {
      "bufferView" : 5,
      "componentType" : 5126,
      "count" : 1317,
      "type" : "VEC2"
    },
    {
      "bufferView" : 6,
      "componentType" : 5126,
      "count" : 1317,
      "type" : "VEC2"
    },
    {
      "bufferView" : 7,
      "componentType" : 5126,
      "count" : 1317,
      "type" : "VEC2"
    }
  ]
}
