{
  "asset" : {
    "generator" : "UE Viewer (umodel) build 1544 based",
    "version" : "2.0"
  },
  "scene" : 0,
  "scenes" : [
    {
      "nodes" : [ 0 ]
    }
  ],
  "nodes" : [
    {
      "name" : "SM_ENV_LKNVLD_GateTrimOuter_A_Lod1",
      "mesh" : 0
    }
  ],
  "materials" : [
    {
      "name" : "MI_ENV_LKNVLD_RoughTiles_LOD",
      "pbrMetallicRoughness" : {
        "baseColorFactor" : [ 0.3, 0.3, 0.3, 1.0 ],
        "metallicFactor" : 0.1,
        "roughnessFactor" : 0.5
      }
    }
  ],
  "meshes" : [
    {
      "primitives" : [
        {
          "attributes" : {
            "POSITION" : 1,
            "NORMAL" : 2,
            "TANGENT" : 3,
            "TEXCOORD_0" : 4,
            "TEXCOORD_1" : 5,
            "TEXCOORD_2" : 6,
            "TEXCOORD_3" : 7
          },
          "indices" : 0,
          "material" : 0
        }
      ],
      "name" : "SM_ENV_LKNVLD_GateTrimOuter_A_Lod1"
    }
  ],
  "buffers" : [
    {
      "uri" : "SM_ENV_LKNVLD_GateTrimOuter_A_Lod1.bin",
      "byteLength" : 28824
    }
  ],
  "bufferViews" : [
    {
      "buffer" : 0,
      "byteOffset" : 0,
      "byteLength" : 2760
    },
    {
      "buffer" : 0,
      "byteOffset" : 2760,
      "byteLength" : 4344
    },
    {
      "buffer" : 0,
      "byteOffset" : 7104,
      "byteLength" : 4344
    },
    {
      "buffer" : 0,
      "byteOffset" : 11448,
      "byteLength" : 5792
    },
    {
      "buffer" : 0,
      "byteOffset" : 17240,
      "byteLength" : 2896
    },
    {
      "buffer" : 0,
      "byteOffset" : 20136,
      "byteLength" : 2896
    },
    {
      "buffer" : 0,
      "byteOffset" : 23032,
      "byteLength" : 2896
    },
    {
      "buffer" : 0,
      "byteOffset" : 25928,
      "byteLength" : 2896
    }
  ],
  "accessors" : [
    {
      "bufferView" : 0,
      "componentType" : 5123,
      "count" : 1380,
      "type" : "SCALAR"
    },
    {
      "bufferView" : 1,
      "min" : [ -12.9846, -0.345059, 59.8813 ],
      "max" : [ 12.9432, 0.0777179, 65.0354 ],
      "componentType" : 5126,
      "count" : 362,
      "type" : "VEC3"
    },
    {
      "bufferView" : 2,
      "componentType" : 5126,
      "count" : 362,
      "type" : "VEC3"
    },
    {
      "bufferView" : 3,
      "componentType" : 5126,
      "count" : 362,
      "type" : "VEC4"
    },
    {
      "bufferView" : 4,
      "componentType" : 5126,
      "count" : 362,
      "type" : "VEC2"
    },
    {
      "bufferView" : 5,
      "componentType" : 5126,
      "count" : 362,
      "type" : "VEC2"
    },
    {
      "bufferView" : 6,
      "componentType" : 5126,
      "count" : 362,
      "type" : "VEC2"
    },
    {
      "bufferView" : 7,
      "componentType" : 5126,
      "count" : 362,
      "type" : "VEC2"
    }
  ]
}
