{
  "asset" : {
    "generator" : "UE Viewer (umodel) build 1544 based",
    "version" : "2.0"
  },
  "scene" : 0,
  "scenes" : [
    {
      "nodes" : [ 0 ]
    }
  ],
  "nodes" : [
    {
      "name" : "SM_ENV_LKNVLD_Ground_Left_RoadToGarden_02",
      "mesh" : 0
    }
  ],
  "materials" : [
    {
      "name" : "MI_ENV_LKNVLD_SandyFloorTiles",
      "pbrMetallicRoughness" : {
        "baseColorFactor" : [ 0.3, 0.3, 0.3, 1.0 ],
        "metallicFactor" : 0.1,
        "roughnessFactor" : 0.5
      }
    }
  ],
  "meshes" : [
    {
      "primitives" : [
        {
          "attributes" : {
            "POSITION" : 1,
            "NORMAL" : 2,
            "TANGENT" : 3,
            "TEXCOORD_0" : 4,
            "TEXCOORD_1" : 5,
            "TEXCOORD_2" : 6,
            "TEXCOORD_3" : 7
          },
          "indices" : 0,
          "material" : 0
        }
      ],
      "name" : "SM_ENV_LKNVLD_Ground_Left_RoadToGarden_02"
    }
  ],
  "buffers" : [
    {
      "uri" : "SM_ENV_LKNVLD_Ground_Left_RoadToGarden_02.bin",
      "byteLength" : 18728
    }
  ],
  "bufferViews" : [
    {
      "buffer" : 0,
      "byteOffset" : 0,
      "byteLength" : 2024
    },
    {
      "buffer" : 0,
      "byteOffset" : 2024,
      "byteLength" : 2784
    },
    {
      "buffer" : 0,
      "byteOffset" : 4808,
      "byteLength" : 2784
    },
    {
      "buffer" : 0,
      "byteOffset" : 7592,
      "byteLength" : 3712
    },
    {
      "buffer" : 0,
      "byteOffset" : 11304,
      "byteLength" : 1856
    },
    {
      "buffer" : 0,
      "byteOffset" : 13160,
      "byteLength" : 1856
    },
    {
      "buffer" : 0,
      "byteOffset" : 15016,
      "byteLength" : 1856
    },
    {
      "buffer" : 0,
      "byteOffset" : 16872,
      "byteLength" : 1856
    }
  ],
  "accessors" : [
    {
      "bufferView" : 0,
      "componentType" : 5123,
      "count" : 1011,
      "type" : "SCALAR"
    },
    {
      "bufferView" : 1,
      "min" : [ -52.5787, -0.326599, -57.015 ],
      "max" : [ -47.3692, -0.216522, -44.9055 ],
      "componentType" : 5126,
      "count" : 232,
      "type" : "VEC3"
    },
    {
      "bufferView" : 2,
      "componentType" : 5126,
      "count" : 232,
      "type" : "VEC3"
    },
    {
      "bufferView" : 3,
      "componentType" : 5126,
      "count" : 232,
      "type" : "VEC4"
    },
    {
      "bufferView" : 4,
      "componentType" : 5126,
      "count" : 232,
      "type" : "VEC2"
    },
    {
      "bufferView" : 5,
      "componentType" : 5126,
      "count" : 232,
      "type" : "VEC2"
    },
    {
      "bufferView" : 6,
      "componentType" : 5126,
      "count" : 232,
      "type" : "VEC2"
    },
    {
      "bufferView" : 7,
      "componentType" : 5126,
      "count" : 232,
      "type" : "VEC2"
    }
  ]
}
