{
  "asset" : {
    "generator" : "UE Viewer (umodel) build 1544 based",
    "version" : "2.0"
  },
  "scene" : 0,
  "scenes" : [
    {
      "nodes" : [ 0 ]
    }
  ],
  "nodes" : [
    {
      "name" : "SM_ENV_LKNVLD_Ground_Right_sideTrim_Middle_02_Lod3",
      "mesh" : 0
    }
  ],
  "materials" : [
    {
      "name" : "MI_ENV_LKNVLD_RoughTiles_LOD",
      "pbrMetallicRoughness" : {
        "baseColorFactor" : [ 0.3, 0.3, 0.3, 1.0 ],
        "metallicFactor" : 0.1,
        "roughnessFactor" : 0.5
      }
    }
  ],
  "meshes" : [
    {
      "primitives" : [
        {
          "attributes" : {
            "POSITION" : 1,
            "NORMAL" : 2,
            "TANGENT" : 3,
            "TEXCOORD_0" : 4,
            "TEXCOORD_1" : 5,
            "TEXCOORD_2" : 6,
            "TEXCOORD_3" : 7
          },
          "indices" : 0,
          "material" : 0
        }
      ],
      "name" : "SM_ENV_LKNVLD_Ground_Right_sideTrim_Middle_02_Lod3"
    }
  ],
  "buffers" : [
    {
      "uri" : "SM_ENV_LKNVLD_Ground_Right_sideTrim_Middle_02_Lod3.bin",
      "byteLength" : 103220
    }
  ],
  "bufferViews" : [
    {
      "buffer" : 0,
      "byteOffset" : 0,
      "byteLength" : 7964
    },
    {
      "buffer" : 0,
      "byteOffset" : 7964,
      "byteLength" : 15876
    },
    {
      "buffer" : 0,
      "byteOffset" : 23840,
      "byteLength" : 15876
    },
    {
      "buffer" : 0,
      "byteOffset" : 39716,
      "byteLength" : 21168
    },
    {
      "buffer" : 0,
      "byteOffset" : 60884,
      "byteLength" : 10584
    },
    {
      "buffer" : 0,
      "byteOffset" : 71468,
      "byteLength" : 10584
    },
    {
      "buffer" : 0,
      "byteOffset" : 82052,
      "byteLength" : 10584
    },
    {
      "buffer" : 0,
      "byteOffset" : 92636,
      "byteLength" : 10584
    }
  ],
  "accessors" : [
    {
      "bufferView" : 0,
      "componentType" : 5123,
      "count" : 3981,
      "type" : "SCALAR"
    },
    {
      "bufferView" : 1,
      "min" : [ 7.00654, -0.47779, -30.681 ],
      "max" : [ 16.4522, -0.132563, 97.3121 ],
      "componentType" : 5126,
      "count" : 1323,
      "type" : "VEC3"
    },
    {
      "bufferView" : 2,
      "componentType" : 5126,
      "count" : 1323,
      "type" : "VEC3"
    },
    {
      "bufferView" : 3,
      "componentType" : 5126,
      "count" : 1323,
      "type" : "VEC4"
    },
    {
      "bufferView" : 4,
      "componentType" : 5126,
      "count" : 1323,
      "type" : "VEC2"
    },
    {
      "bufferView" : 5,
      "componentType" : 5126,
      "count" : 1323,
      "type" : "VEC2"
    },
    {
      "bufferView" : 6,
      "componentType" : 5126,
      "count" : 1323,
      "type" : "VEC2"
    },
    {
      "bufferView" : 7,
      "componentType" : 5126,
      "count" : 1323,
      "type" : "VEC2"
    }
  ]
}
